{
  "header": {
    "formatType": 1,
    "trackCount": 9,
    "ticksPerBeat": 960
  },
  "tracks": [
    [
      {
        "deltaTime": 0,
        "type": "meta",
        "subtype": "trackName",
        "text": "That's What You Get"
      },
      {
        "deltaTime": 0,
        "type": "meta",
        "subtype": "timeSignature",
        "numerator": 3,
        "denominator": 4,
        "metronome": 24,
        "thirtyseconds": 8
      },
      {
        "deltaTime": 0,
        "type": "meta",
        "subtype": "keySignature",
        "key": -3,
        "scale": 0
      },
      {
        "deltaTime": 0,
        "type": "meta",
        "subtype": "setTempo",
        "microsecondsPerBeat": 461538
      },
      {
        "deltaTime": 2880,
        "type": "meta",
        "subtype": "marker",
        "text": "Intro"
      },
      {
        "deltaTime": 11520,
        "type": "meta",
        "subtype": "marker",
        "text": "Intro"
      },
      {
        "deltaTime": 11520,
        "type": "meta",
        "subtype": "marker",
        "text": "Verse 1"
      },
      {
        "deltaTime": 57600,
        "type": "meta",
        "subtype": "timeSignature",
        "numerator": 4,
        "denominator": 4,
        "metronome": 24,
        "thirtyseconds": 8
      },
      {
        "deltaTime": 7680,
        "type": "meta",
        "subtype": "marker",
        "text": "Chorus"
      },
      {
        "deltaTime": 61440,
        "type": "meta",
        "subtype": "timeSignature",
        "numerator": 3,
        "denominator": 4,
        "metronome": 24,
        "thirtyseconds": 8
      },
      {
        "deltaTime": 0,
        "type": "meta",
        "subtype": "marker",
        "text": "Interlude"
      },
      {
        "deltaTime": 23040,
        "type": "meta",
        "subtype": "marker",
        "text": "Verse 2"
      },
      {
        "deltaTime": 46080,
        "type": "meta",
        "subtype": "timeSignature",
        "numerator": 4,
        "denominator": 4,
        "metronome": 24,
        "thirtyseconds": 8
      },
      {
        "deltaTime": 7680,
        "type": "meta",
        "subtype": "marker",
        "text": "Chorus 2"
      },
      {
        "deltaTime": 61440,
        "type": "meta",
        "subtype": "timeSignature",
        "numerator": 3,
        "denominator": 4,
        "metronome": 24,
        "thirtyseconds": 8
      },
      {
        "deltaTime": 0,
        "type": "meta",
        "subtype": "marker",
        "text": "Verse 3"
      },
      {
        "deltaTime": 69120,
        "type": "meta",
        "subtype": "timeSignature",
        "numerator": 4,
        "denominator": 4,
        "metronome": 24,
        "thirtyseconds": 8
      },
      {
        "deltaTime": 0,
        "type": "meta",
        "subtype": "marker",
        "text": "Breakdown"
      },
      {
        "deltaTime": 15360,
        "type": "meta",
        "subtype": "marker",
        "text": "Chorus 3"
      },
      {
        "deltaTime": 61440,
        "type": "meta",
        "subtype": "timeSignature",
        "numerator": 3,
        "denominator": 4,
        "metronome": 24,
        "thirtyseconds": 8
      },
      {
        "deltaTime": 8640,
        "type": "meta",
        "subtype": "setTempo",
        "microsecondsPerBeat": 5000000
      },
      {
        "deltaTime": 0,
        "type": "meta",
        "subtype": "endOfTrack"
      }
    ],
    [
      {
        "deltaTime": 0,
        "type": "meta",
        "subtype": "trackName",
        "text": "Vocals"
      },
      {
        "deltaTime": 0,
        "channel": 0,
        "type": "channel",
        "subtype": "controller",
        "controllerType": 0,
        "value": 121
      },
      {
        "deltaTime": 0,
        "channel": 0,
        "type": "channel",
        "subtype": "controller",
        "controllerType": 7,
        "value": 127
      },
      {
        "deltaTime": 1,
        "channel": 0,
        "type": "channel",
        "subtype": "controller",
        "controllerType": 32,
        "value": 0
      },
      {
        "deltaTime": 1,
        "channel": 0,
        "type": "channel",
        "subtype": "programChange",
        "programNumber": 85
      },
      {
        "deltaTime": 25918,
        "channel": 0,
        "type": "channel",
        "noteNumber": 70,
        "velocity": 127,
        "subtype": "noteOn"
      },
      {
        "deltaTime": 960,
        "channel": 0,
        "type": "channel",
        "noteNumber": 70,
        "velocity": 0,
        "subtype": "noteOff"
      },
      {
        "deltaTime": 0,
        "channel": 0,
        "type": "channel",
        "noteNumber": 67,
        "velocity": 127,
        "subtype": "noteOn"
      },
      {
        "deltaTime": 1920,
        "channel": 0,
        "type": "channel",
        "noteNumber": 67,
        "velocity": 0,
        "subtype": "noteOff"
      },
      {
        "deltaTime": 480,
        "channel": 0,
        "type": "channel",
        "noteNumber": 63,
        "velocity": 127,
        "subtype": "noteOn"
      },
      {
        "deltaTime": 480,
        "channel": 0,
        "type": "channel",
        "noteNumber": 63,
        "velocity": 0,
        "subtype": "noteOff"
      },
      {
        "deltaTime": 0,
        "channel": 0,
        "type": "channel",
        "noteNumber": 70,
        "velocity": 127,
        "subtype": "noteOn"
      },
      {
        "deltaTime": 480,
        "channel": 0,
        "type": "channel",
        "noteNumber": 70,
        "velocity": 0,
        "subtype": "noteOff"
      },
      {
        "deltaTime": 0,
        "channel": 0,
        "type": "channel",
        "noteNumber": 68,
        "velocity": 127,
        "subtype": "noteOn"
      },
      {
        "deltaTime": 480,
        "channel": 0,
        "type": "channel",
        "noteNumber": 68,
        "velocity": 0,
        "subtype": "noteOff"
      },
      {
        "deltaTime": 0,
        "channel": 0,
        "type": "channel",
        "noteNumber": 67,
        "velocity": 127,
        "subtype": "noteOn"
      },
      {
        "deltaTime": 480,
        "channel": 0,
        "type": "channel",
        "noteNumber": 67,
        "velocity": 0,
        "subtype": "noteOff"
      },
      {
        "deltaTime": 0,
        "channel": 0,
        "type": "channel",
        "noteNumber": 63,
        "velocity": 127,
        "subtype": "noteOn"
      },
      {
        "deltaTime": 480,
        "channel": 0,
        "type": "channel",
        "noteNumber": 63,
        "velocity": 0,
        "subtype": "noteOff"
      },
      {
        "deltaTime": 0,
        "channel": 0,
        "type": "channel",
        "noteNumber": 65,
        "velocity": 127,
        "subtype": "noteOn"
      },
      {
        "deltaTime": 480,
        "channel": 0,
        "type": "channel",
        "noteNumber": 65,
        "velocity": 0,
        "subtype": "noteOff"
      },
      {
        "deltaTime": 0,
        "channel": 0,
        "type": "channel",
        "noteNumber": 67,
        "velocity": 127,
        "subtype": "noteOn"
      },
      {
        "deltaTime": 480,
        "channel": 0,
        "type": "channel",
        "noteNumber": 67,
        "velocity": 0,
        "subtype": "noteOff"
      },
      {
        "deltaTime": 0,
        "channel": 0,
        "type": "channel",
        "noteNumber": 65,
        "velocity": 127,
        "subtype": "noteOn"
      },
      {
        "deltaTime": 1440,
        "channel": 0,
        "type": "channel",
        "noteNumber": 65,
        "velocity": 0,
        "subtype": "noteOff"
      },
      {
        "deltaTime": 0,
        "channel": 0,
        "type": "channel",
        "noteNumber": 63,
        "velocity": 127,
        "subtype": "noteOn"
      },
      {
        "deltaTime": 480,
        "channel": 0,
        "type": "channel",
        "noteNumber": 63,
        "velocity": 0,
        "subtype": "noteOff"
      },
      {
        "deltaTime": 0,
        "channel": 0,
        "type": "channel",
        "noteNumber": 63,
        "velocity": 127,
        "subtype": "noteOn"
      },
      {
        "deltaTime": 480,
        "channel": 0,
        "type": "channel",
        "noteNumber": 63,
        "velocity": 0,
        "subtype": "noteOff"
      },
      {
        "deltaTime": 0,
        "channel": 0,
        "type": "channel",
        "noteNumber": 65,
        "velocity": 127,
        "subtype": "noteOn"
      },
      {
        "deltaTime": 480,
        "channel": 0,
        "type": "channel",
        "noteNumber": 65,
        "velocity": 0,
        "subtype": "noteOff"
      },
      {
        "deltaTime": 0,
        "channel": 0,
        "type": "channel",
        "noteNumber": 65,
        "velocity": 127,
        "subtype": "noteOn"
      },
      {
        "deltaTime": 480,
        "channel": 0,
        "type": "channel",
        "noteNumber": 65,
        "velocity": 0,
        "subtype": "noteOff"
      },
      {
        "deltaTime": 0,
        "channel": 0,
        "type": "channel",
        "noteNumber": 63,
        "velocity": 127,
        "subtype": "noteOn"
      },
      {
        "deltaTime": 480,
        "channel": 0,
        "type": "channel",
        "noteNumber": 63,
        "velocity": 0,
        "subtype": "noteOff"
      },
      {
        "deltaTime": 0,
        "channel": 0,
        "type": "channel",
        "noteNumber": 63,
        "velocity": 127,
        "subtype": "noteOn"
      },
      {
        "deltaTime": 960,
        "channel": 0,
        "type": "channel",
        "noteNumber": 63,
        "velocity": 0,
        "subtype": "noteOff"
      },
      {
        "deltaTime": 0,
        "channel": 0,
        "type": "channel",
        "noteNumber": 70,
        "velocity": 127,
        "subtype": "noteOn"
      },
      {
        "deltaTime": 960,
        "channel": 0,
        "type": "channel",
        "noteNumber": 70,
        "velocity": 0,
        "subtype": "noteOff"
      },
      {
        "deltaTime": 0,
        "channel": 0,
        "type": "channel",
        "noteNumber": 67,
        "velocity": 127,
        "subtype": "noteOn"
      },
      {
        "deltaTime": 1920,
        "channel": 0,
        "type": "channel",
        "noteNumber": 67,
        "velocity": 0,
        "subtype": "noteOff"
      },
      {
        "deltaTime": 480,
        "channel": 0,
        "type": "channel",
        "noteNumber": 63,
        "velocity": 127,
        "subtype": "noteOn"
      },
      {
        "deltaTime": 480,
        "channel": 0,
        "type": "channel",
        "noteNumber": 63,
        "velocity": 0,
        "subtype": "noteOff"
      },
      {
        "deltaTime": 0,
        "channel": 0,
        "type": "channel",
        "noteNumber": 70,
        "velocity": 127,
        "subtype": "noteOn"
      },
      {
        "deltaTime": 480,
        "channel": 0,
        "type": "channel",
        "noteNumber": 70,
        "velocity": 0,
        "subtype": "noteOff"
      },
      {
        "deltaTime": 0,
        "channel": 0,
        "type": "channel",
        "noteNumber": 68,
        "velocity": 127,
        "subtype": "noteOn"
      },
      {
        "deltaTime": 480,
        "channel": 0,
        "type": "channel",
        "noteNumber": 68,
        "velocity": 0,
        "subtype": "noteOff"
      },
      {
        "deltaTime": 0,
        "channel": 0,
        "type": "channel",
        "noteNumber": 67,
        "velocity": 127,
        "subtype": "noteOn"
      },
      {
        "deltaTime": 480,
        "channel": 0,
        "type": "channel",
        "noteNumber": 67,
        "velocity": 0,
        "subtype": "noteOff"
      },
      {
        "deltaTime": 0,
        "channel": 0,
        "type": "channel",
        "noteNumber": 63,
        "velocity": 127,
        "subtype": "noteOn"
      },
      {
        "deltaTime": 480,
        "channel": 0,
        "type": "channel",
        "noteNumber": 63,
        "velocity": 0,
        "subtype": "noteOff"
      },
      {
        "deltaTime": 0,
        "channel": 0,
        "type": "channel",
        "noteNumber": 65,
        "velocity": 127,
        "subtype": "noteOn"
      },
      {
        "deltaTime": 480,
        "channel": 0,
        "type": "channel",
        "noteNumber": 65,
        "velocity": 0,
        "subtype": "noteOff"
      },
      {
        "deltaTime": 0,
        "channel": 0,
        "type": "channel",
        "noteNumber": 67,
        "velocity": 127,
        "subtype": "noteOn"
      },
      {
        "deltaTime": 480,
        "channel": 0,
        "type": "channel",
        "noteNumber": 67,
        "velocity": 0,
        "subtype": "noteOff"
      },
      {
        "deltaTime": 0,
        "channel": 0,
        "type": "channel",
        "noteNumber": 63,
        "velocity": 127,
        "subtype": "noteOn"
      },
      {
        "deltaTime": 960,
        "channel": 0,
        "type": "channel",
        "noteNumber": 63,
        "velocity": 0,
        "subtype": "noteOff"
      },
      {
        "deltaTime": 480,
        "channel": 0,
        "type": "channel",
        "noteNumber": 63,
        "velocity": 127,
        "subtype": "noteOn"
      },
      {
        "deltaTime": 480,
        "channel": 0,
        "type": "channel",
        "noteNumber": 63,
        "velocity": 0,
        "subtype": "noteOff"
      },
      {
        "deltaTime": 0,
        "channel": 0,
        "type": "channel",
        "noteNumber": 63,
        "velocity": 127,
        "subtype": "noteOn"
      },
      {
        "deltaTime": 720,
        "channel": 0,
        "type": "channel",
        "noteNumber": 63,
        "velocity": 0,
        "subtype": "noteOff"
      },
      {
        "deltaTime": 0,
        "channel": 0,
        "type": "channel",
        "noteNumber": 65,
        "velocity": 127,
        "subtype": "noteOn"
      },
      {
        "deltaTime": 720,
        "channel": 0,
        "type": "channel",
        "noteNumber": 65,
        "velocity": 0,
        "subtype": "noteOff"
      },
      {
        "deltaTime": 0,
        "channel": 0,
        "type": "channel",
        "noteNumber": 65,
        "velocity": 127,
        "subtype": "noteOn"
      },
      {
        "deltaTime": 480,
        "channel": 0,
        "type": "channel",
        "noteNumber": 65,
        "velocity": 0,
        "subtype": "noteOff"
      },
      {
        "deltaTime": 0,
        "channel": 0,
        "type": "channel",
        "noteNumber": 63,
        "velocity": 127,
        "subtype": "noteOn"
      },
      {
        "deltaTime": 480,
        "channel": 0,
        "type": "channel",
        "noteNumber": 63,
        "velocity": 0,
        "subtype": "noteOff"
      },
      {
        "deltaTime": 0,
        "channel": 0,
        "type": "channel",
        "noteNumber": 63,
        "velocity": 127,
        "subtype": "noteOn"
      },
      {
        "deltaTime": 480,
        "channel": 0,
        "type": "channel",
        "noteNumber": 63,
        "velocity": 0,
        "subtype": "noteOff"
      },
      {
        "deltaTime": 0,
        "channel": 0,
        "type": "channel",
        "noteNumber": 68,
        "velocity": 127,
        "subtype": "noteOn"
      },
      {
        "deltaTime": 240,
        "channel": 0,
        "type": "channel",
        "noteNumber": 68,
        "velocity": 0,
        "subtype": "noteOff"
      },
      {
        "deltaTime": 0,
        "channel": 0,
        "type": "channel",
        "noteNumber": 70,
        "velocity": 127,
        "subtype": "noteOn"
      },
      {
        "deltaTime": 1680,
        "channel": 0,
        "type": "channel",
        "noteNumber": 70,
        "velocity": 0,
        "subtype": "noteOff"
      },
      {
        "deltaTime": 0,
        "channel": 0,
        "type": "channel",
        "noteNumber": 68,
        "velocity": 127,
        "subtype": "noteOn"
      },
      {
        "deltaTime": 480,
        "channel": 0,
        "type": "channel",
        "noteNumber": 68,
        "velocity": 0,
        "subtype": "noteOff"
      },
      {
        "deltaTime": 0,
        "channel": 0,
        "type": "channel",
        "noteNumber": 67,
        "velocity": 127,
        "subtype": "noteOn"
      },
      {
        "deltaTime": 480,
        "channel": 0,
        "type": "channel",
        "noteNumber": 67,
        "velocity": 0,
        "subtype": "noteOff"
      },
      {
        "deltaTime": 0,
        "channel": 0,
        "type": "channel",
        "noteNumber": 65,
        "velocity": 127,
        "subtype": "noteOn"
      },
      {
        "deltaTime": 1920,
        "channel": 0,
        "type": "channel",
        "noteNumber": 65,
        "velocity": 0,
        "subtype": "noteOff"
      },
      {
        "deltaTime": 0,
        "channel": 0,
        "type": "channel",
        "noteNumber": 65,
        "velocity": 127,
        "subtype": "noteOn"
      },
      {
        "deltaTime": 240,
        "channel": 0,
        "type": "channel",
        "noteNumber": 65,
        "velocity": 0,
        "subtype": "noteOff"
      },
      {
        "deltaTime": 0,
        "channel": 0,
        "type": "channel",
        "noteNumber": 67,
        "velocity": 127,
        "subtype": "noteOn"
      },
      {
        "deltaTime": 720,
        "channel": 0,
        "type": "channel",
        "noteNumber": 67,
        "velocity": 0,
        "subtype": "noteOff"
      },
      {
        "deltaTime": 0,
        "channel": 0,
        "type": "channel",
        "noteNumber": 58,
        "velocity": 127,
        "subtype": "noteOn"
      },
      {
        "deltaTime": 1440,
        "channel": 0,
        "type": "channel",
        "noteNumber": 58,
        "velocity": 0,
        "subtype": "noteOff"
      },
      {
        "deltaTime": 480,
        "channel": 0,
        "type": "channel",
        "noteNumber": 65,
        "velocity": 127,
        "subtype": "noteOn"
      },
      {
        "deltaTime": 240,
        "channel": 0,
        "type": "channel",
        "noteNumber": 65,
        "velocity": 0,
        "subtype": "noteOff"
      },
      {
        "deltaTime": 0,
        "channel": 0,
        "type": "channel",
        "noteNumber": 67,
        "velocity": 127,
        "subtype": "noteOn"
      },
      {
        "deltaTime": 240,
        "channel": 0,
        "type": "channel",
        "noteNumber": 67,
        "velocity": 0,
        "subtype": "noteOff"
      },
      {
        "deltaTime": 0,
        "channel": 0,
        "type": "channel",
        "noteNumber": 65,
        "velocity": 127,
        "subtype": "noteOn"
      },
      {
        "deltaTime": 480,
        "channel": 0,
        "type": "channel",
        "noteNumber": 65,
        "velocity": 0,
        "subtype": "noteOff"
      },
      {
        "deltaTime": 0,
        "channel": 0,
        "type": "channel",
        "noteNumber": 65,
        "velocity": 127,
        "subtype": "noteOn"
      },
      {
        "deltaTime": 1440,
        "channel": 0,
        "type": "channel",
        "noteNumber": 65,
        "velocity": 0,
        "subtype": "noteOff"
      },
      {
        "deltaTime": 0,
        "channel": 0,
        "type": "channel",
        "noteNumber": 63,
        "velocity": 127,
        "subtype": "noteOn"
      },
      {
        "deltaTime": 480,
        "channel": 0,
        "type": "channel",
        "noteNumber": 63,
        "velocity": 0,
        "subtype": "noteOff"
      },
      {
        "deltaTime": 0,
        "channel": 0,
        "type": "channel",
        "noteNumber": 65,
        "velocity": 127,
        "subtype": "noteOn"
      },
      {
        "deltaTime": 960,
        "channel": 0,
        "type": "channel",
        "noteNumber": 65,
        "velocity": 0,
        "subtype": "noteOff"
      },
      {
        "deltaTime": 0,
        "channel": 0,
        "type": "channel",
        "noteNumber": 70,
        "velocity": 127,
        "subtype": "noteOn"
      },
      {
        "deltaTime": 960,
        "channel": 0,
        "type": "channel",
        "noteNumber": 70,
        "velocity": 0,
        "subtype": "noteOff"
      },
      {
        "deltaTime": 0,
        "channel": 0,
        "type": "channel",
        "noteNumber": 67,
        "velocity": 127,
        "subtype": "noteOn"
      },
      {
        "deltaTime": 1920,
        "channel": 0,
        "type": "channel",
        "noteNumber": 67,
        "velocity": 0,
        "subtype": "noteOff"
      },
      {
        "deltaTime": 960,
        "channel": 0,
        "type": "channel",
        "noteNumber": 70,
        "velocity": 127,
        "subtype": "noteOn"
      },
      {
        "deltaTime": 480,
        "channel": 0,
        "type": "channel",
        "noteNumber": 70,
        "velocity": 0,
        "subtype": "noteOff"
      },
      {
        "deltaTime": 0,
        "channel": 0,
        "type": "channel",
        "noteNumber": 68,
        "velocity": 127,
        "subtype": "noteOn"
      },
      {
        "deltaTime": 480,
        "channel": 0,
        "type": "channel",
        "noteNumber": 68,
        "velocity": 0,
        "subtype": "noteOff"
      },
      {
        "deltaTime": 0,
        "channel": 0,
        "type": "channel",
        "noteNumber": 67,
        "velocity": 127,
        "subtype": "noteOn"
      },
      {
        "deltaTime": 480,
        "channel": 0,
        "type": "channel",
        "noteNumber": 67,
        "velocity": 0,
        "subtype": "noteOff"
      },
      {
        "deltaTime": 0,
        "channel": 0,
        "type": "channel",
        "noteNumber": 63,
        "velocity": 127,
        "subtype": "noteOn"
      },
      {
        "deltaTime": 480,
        "channel": 0,
        "type": "channel",
        "noteNumber": 63,
        "velocity": 0,
        "subtype": "noteOff"
      },
      {
        "deltaTime": 0,
        "channel": 0,
        "type": "channel",
        "noteNumber": 65,
        "velocity": 127,
        "subtype": "noteOn"
      },
      {
        "deltaTime": 480,
        "channel": 0,
        "type": "channel",
        "noteNumber": 65,
        "velocity": 0,
        "subtype": "noteOff"
      },
      {
        "deltaTime": 0,
        "channel": 0,
        "type": "channel",
        "noteNumber": 67,
        "velocity": 127,
        "subtype": "noteOn"
      },
      {
        "deltaTime": 480,
        "channel": 0,
        "type": "channel",
        "noteNumber": 67,
        "velocity": 0,
        "subtype": "noteOff"
      },
      {
        "deltaTime": 0,
        "channel": 0,
        "type": "channel",
        "noteNumber": 65,
        "velocity": 127,
        "subtype": "noteOn"
      },
      {
        "deltaTime": 960,
        "channel": 0,
        "type": "channel",
        "noteNumber": 65,
        "velocity": 0,
        "subtype": "noteOff"
      },
      {
        "deltaTime": 480,
        "channel": 0,
        "type": "channel",
        "noteNumber": 63,
        "velocity": 127,
        "subtype": "noteOn"
      },
      {
        "deltaTime": 480,
        "channel": 0,
        "type": "channel",
        "noteNumber": 63,
        "velocity": 0,
        "subtype": "noteOff"
      },
      {
        "deltaTime": 0,
        "channel": 0,
        "type": "channel",
        "noteNumber": 63,
        "velocity": 127,
        "subtype": "noteOn"
      },
      {
        "deltaTime": 480,
        "channel": 0,
        "type": "channel",
        "noteNumber": 63,
        "velocity": 0,
        "subtype": "noteOff"
      },
      {
        "deltaTime": 0,
        "channel": 0,
        "type": "channel",
        "noteNumber": 65,
        "velocity": 127,
        "subtype": "noteOn"
      },
      {
        "deltaTime": 480,
        "channel": 0,
        "type": "channel",
        "noteNumber": 65,
        "velocity": 0,
        "subtype": "noteOff"
      },
      {
        "deltaTime": 0,
        "channel": 0,
        "type": "channel",
        "noteNumber": 65,
        "velocity": 127,
        "subtype": "noteOn"
      },
      {
        "deltaTime": 480,
        "channel": 0,
        "type": "channel",
        "noteNumber": 65,
        "velocity": 0,
        "subtype": "noteOff"
      },
      {
        "deltaTime": 0,
        "channel": 0,
        "type": "channel",
        "noteNumber": 63,
        "velocity": 127,
        "subtype": "noteOn"
      },
      {
        "deltaTime": 480,
        "channel": 0,
        "type": "channel",
        "noteNumber": 63,
        "velocity": 0,
        "subtype": "noteOff"
      },
      {
        "deltaTime": 0,
        "channel": 0,
        "type": "channel",
        "noteNumber": 63,
        "velocity": 127,
        "subtype": "noteOn"
      },
      {
        "deltaTime": 960,
        "channel": 0,
        "type": "channel",
        "noteNumber": 63,
        "velocity": 0,
        "subtype": "noteOff"
      },
      {
        "deltaTime": 0,
        "channel": 0,
        "type": "channel",
        "noteNumber": 70,
        "velocity": 127,
        "subtype": "noteOn"
      },
      {
        "deltaTime": 960,
        "channel": 0,
        "type": "channel",
        "noteNumber": 70,
        "velocity": 0,
        "subtype": "noteOff"
      },
      {
        "deltaTime": 0,
        "channel": 0,
        "type": "channel",
        "noteNumber": 67,
        "velocity": 127,
        "subtype": "noteOn"
      },
      {
        "deltaTime": 1920,
        "channel": 0,
        "type": "channel",
        "noteNumber": 67,
        "velocity": 0,
        "subtype": "noteOff"
      },
      {
        "deltaTime": 960,
        "channel": 0,
        "type": "channel",
        "noteNumber": 70,
        "velocity": 127,
        "subtype": "noteOn"
      },
      {
        "deltaTime": 480,
        "channel": 0,
        "type": "channel",
        "noteNumber": 70,
        "velocity": 0,
        "subtype": "noteOff"
      },
      {
        "deltaTime": 0,
        "channel": 0,
        "type": "channel",
        "noteNumber": 68,
        "velocity": 127,
        "subtype": "noteOn"
      },
      {
        "deltaTime": 480,
        "channel": 0,
        "type": "channel",
        "noteNumber": 68,
        "velocity": 0,
        "subtype": "noteOff"
      },
      {
        "deltaTime": 0,
        "channel": 0,
        "type": "channel",
        "noteNumber": 67,
        "velocity": 127,
        "subtype": "noteOn"
      },
      {
        "deltaTime": 480,
        "channel": 0,
        "type": "channel",
        "noteNumber": 67,
        "velocity": 0,
        "subtype": "noteOff"
      },
      {
        "deltaTime": 0,
        "channel": 0,
        "type": "channel",
        "noteNumber": 63,
        "velocity": 127,
        "subtype": "noteOn"
      },
      {
        "deltaTime": 480,
        "channel": 0,
        "type": "channel",
        "noteNumber": 63,
        "velocity": 0,
        "subtype": "noteOff"
      },
      {
        "deltaTime": 0,
        "channel": 0,
        "type": "channel",
        "noteNumber": 65,
        "velocity": 127,
        "subtype": "noteOn"
      },
      {
        "deltaTime": 480,
        "channel": 0,
        "type": "channel",
        "noteNumber": 65,
        "velocity": 0,
        "subtype": "noteOff"
      },
      {
        "deltaTime": 0,
        "channel": 0,
        "type": "channel",
        "noteNumber": 67,
        "velocity": 127,
        "subtype": "noteOn"
      },
      {
        "deltaTime": 480,
        "channel": 0,
        "type": "channel",
        "noteNumber": 67,
        "velocity": 0,
        "subtype": "noteOff"
      },
      {
        "deltaTime": 0,
        "channel": 0,
        "type": "channel",
        "noteNumber": 65,
        "velocity": 127,
        "subtype": "noteOn"
      },
      {
        "deltaTime": 960,
        "channel": 0,
        "type": "channel",
        "noteNumber": 65,
        "velocity": 0,
        "subtype": "noteOff"
      },
      {
        "deltaTime": 480,
        "channel": 0,
        "type": "channel",
        "noteNumber": 63,
        "velocity": 127,
        "subtype": "noteOn"
      },
      {
        "deltaTime": 480,
        "channel": 0,
        "type": "channel",
        "noteNumber": 63,
        "velocity": 0,
        "subtype": "noteOff"
      },
      {
        "deltaTime": 0,
        "channel": 0,
        "type": "channel",
        "noteNumber": 65,
        "velocity": 127,
        "subtype": "noteOn"
      },
      {
        "deltaTime": 720,
        "channel": 0,
        "type": "channel",
        "noteNumber": 65,
        "velocity": 0,
        "subtype": "noteOff"
      },
      {
        "deltaTime": 0,
        "channel": 0,
        "type": "channel",
        "noteNumber": 67,
        "velocity": 127,
        "subtype": "noteOn"
      },
      {
        "deltaTime": 720,
        "channel": 0,
        "type": "channel",
        "noteNumber": 67,
        "velocity": 0,
        "subtype": "noteOff"
      },
      {
        "deltaTime": 0,
        "channel": 0,
        "type": "channel",
        "noteNumber": 67,
        "velocity": 127,
        "subtype": "noteOn"
      },
      {
        "deltaTime": 480,
        "channel": 0,
        "type": "channel",
        "noteNumber": 67,
        "velocity": 0,
        "subtype": "noteOff"
      },
      {
        "deltaTime": 0,
        "channel": 0,
        "type": "channel",
        "noteNumber": 65,
        "velocity": 127,
        "subtype": "noteOn"
      },
      {
        "deltaTime": 240,
        "channel": 0,
        "type": "channel",
        "noteNumber": 65,
        "velocity": 0,
        "subtype": "noteOff"
      },
      {
        "deltaTime": 0,
        "channel": 0,
        "type": "channel",
        "noteNumber": 63,
        "velocity": 127,
        "subtype": "noteOn"
      },
      {
        "deltaTime": 720,
        "channel": 0,
        "type": "channel",
        "noteNumber": 63,
        "velocity": 0,
        "subtype": "noteOff"
      },
      {
        "deltaTime": 7680,
        "channel": 0,
        "type": "channel",
        "noteNumber": 63,
        "velocity": 127,
        "subtype": "noteOn"
      },
      {
        "deltaTime": 0,
        "channel": 0,
        "type": "channel",
        "noteNumber": 70,
        "velocity": 127,
        "subtype": "noteOn"
      },
      {
        "deltaTime": 960,
        "channel": 0,
        "type": "channel",
        "noteNumber": 70,
        "velocity": 0,
        "subtype": "noteOff"
      },
      {
        "deltaTime": 0,
        "channel": 0,
        "type": "channel",
        "noteNumber": 63,
        "velocity": 0,
        "subtype": "noteOff"
      },
      {
        "deltaTime": 0,
        "channel": 0,
        "type": "channel",
        "noteNumber": 60,
        "velocity": 127,
        "subtype": "noteOn"
      },
      {
        "deltaTime": 0,
        "channel": 0,
        "type": "channel",
        "noteNumber": 67,
        "velocity": 127,
        "subtype": "noteOn"
      },
      {
        "deltaTime": 480,
        "channel": 0,
        "type": "channel",
        "noteNumber": 67,
        "velocity": 0,
        "subtype": "noteOff"
      },
      {
        "deltaTime": 0,
        "channel": 0,
        "type": "channel",
        "noteNumber": 60,
        "velocity": 0,
        "subtype": "noteOff"
      },
      {
        "deltaTime": 0,
        "channel": 0,
        "type": "channel",
        "noteNumber": 72,
        "velocity": 127,
        "subtype": "noteOn"
      },
      {
        "deltaTime": 0,
        "channel": 0,
        "type": "channel",
        "noteNumber": 65,
        "velocity": 127,
        "subtype": "noteOn"
      },
      {
        "deltaTime": 480,
        "channel": 0,
        "type": "channel",
        "noteNumber": 65,
        "velocity": 0,
        "subtype": "noteOff"
      },
      {
        "deltaTime": 0,
        "channel": 0,
        "type": "channel",
        "noteNumber": 72,
        "velocity": 0,
        "subtype": "noteOff"
      },
      {
        "deltaTime": 0,
        "channel": 0,
        "type": "channel",
        "noteNumber": 70,
        "velocity": 127,
        "subtype": "noteOn"
      },
      {
        "deltaTime": 0,
        "channel": 0,
        "type": "channel",
        "noteNumber": 63,
        "velocity": 127,
        "subtype": "noteOn"
      },
      {
        "deltaTime": 960,
        "channel": 0,
        "type": "channel",
        "noteNumber": 63,
        "velocity": 0,
        "subtype": "noteOff"
      },
      {
        "deltaTime": 0,
        "channel": 0,
        "type": "channel",
        "noteNumber": 70,
        "velocity": 0,
        "subtype": "noteOff"
      },
      {
        "deltaTime": 0,
        "channel": 0,
        "type": "channel",
        "noteNumber": 63,
        "velocity": 127,
        "subtype": "noteOn"
      },
      {
        "deltaTime": 0,
        "channel": 0,
        "type": "channel",
        "noteNumber": 58,
        "velocity": 127,
        "subtype": "noteOn"
      },
      {
        "deltaTime": 480,
        "channel": 0,
        "type": "channel",
        "noteNumber": 58,
        "velocity": 0,
        "subtype": "noteOff"
      },
      {
        "deltaTime": 0,
        "channel": 0,
        "type": "channel",
        "noteNumber": 63,
        "velocity": 0,
        "subtype": "noteOff"
      },
      {
        "deltaTime": 0,
        "channel": 0,
        "type": "channel",
        "noteNumber": 58,
        "velocity": 127,
        "subtype": "noteOn"
      },
      {
        "deltaTime": 0,
        "channel": 0,
        "type": "channel",
        "noteNumber": 63,
        "velocity": 127,
        "subtype": "noteOn"
      },
      {
        "deltaTime": 480,
        "channel": 0,
        "type": "channel",
        "noteNumber": 63,
        "velocity": 0,
        "subtype": "noteOff"
      },
      {
        "deltaTime": 0,
        "channel": 0,
        "type": "channel",
        "noteNumber": 58,
        "velocity": 0,
        "subtype": "noteOff"
      },
      {
        "deltaTime": 0,
        "channel": 0,
        "type": "channel",
        "noteNumber": 70,
        "velocity": 127,
        "subtype": "noteOn"
      },
      {
        "deltaTime": 0,
        "channel": 0,
        "type": "channel",
        "noteNumber": 63,
        "velocity": 127,
        "subtype": "noteOn"
      },
      {
        "deltaTime": 960,
        "channel": 0,
        "type": "channel",
        "noteNumber": 63,
        "velocity": 0,
        "subtype": "noteOff"
      },
      {
        "deltaTime": 0,
        "channel": 0,
        "type": "channel",
        "noteNumber": 70,
        "velocity": 0,
        "subtype": "noteOff"
      },
      {
        "deltaTime": 0,
        "channel": 0,
        "type": "channel",
        "noteNumber": 63,
        "velocity": 127,
        "subtype": "noteOn"
      },
      {
        "deltaTime": 0,
        "channel": 0,
        "type": "channel",
        "noteNumber": 68,
        "velocity": 127,
        "subtype": "noteOn"
      },
      {
        "deltaTime": 480,
        "channel": 0,
        "type": "channel",
        "noteNumber": 68,
        "velocity": 0,
        "subtype": "noteOff"
      },
      {
        "deltaTime": 0,
        "channel": 0,
        "type": "channel",
        "noteNumber": 63,
        "velocity": 0,
        "subtype": "noteOff"
      },
      {
        "deltaTime": 0,
        "channel": 0,
        "type": "channel",
        "noteNumber": 67,
        "velocity": 127,
        "subtype": "noteOn"
      },
      {
        "deltaTime": 0,
        "channel": 0,
        "type": "channel",
        "noteNumber": 63,
        "velocity": 127,
        "subtype": "noteOn"
      },
      {
        "deltaTime": 480,
        "channel": 0,
        "type": "channel",
        "noteNumber": 63,
        "velocity": 0,
        "subtype": "noteOff"
      },
      {
        "deltaTime": 0,
        "channel": 0,
        "type": "channel",
        "noteNumber": 67,
        "velocity": 0,
        "subtype": "noteOff"
      },
      {
        "deltaTime": 0,
        "channel": 0,
        "type": "channel",
        "noteNumber": 62,
        "velocity": 127,
        "subtype": "noteOn"
      },
      {
        "deltaTime": 0,
        "channel": 0,
        "type": "channel",
        "noteNumber": 65,
        "velocity": 127,
        "subtype": "noteOn"
      },
      {
        "deltaTime": 480,
        "channel": 0,
        "type": "channel",
        "noteNumber": 65,
        "velocity": 0,
        "subtype": "noteOff"
      },
      {
        "deltaTime": 0,
        "channel": 0,
        "type": "channel",
        "noteNumber": 62,
        "velocity": 0,
        "subtype": "noteOff"
      },
      {
        "deltaTime": 0,
        "channel": 0,
        "type": "channel",
        "noteNumber": 62,
        "velocity": 127,
        "subtype": "noteOn"
      },
      {
        "deltaTime": 0,
        "channel": 0,
        "type": "channel",
        "noteNumber": 65,
        "velocity": 127,
        "subtype": "noteOn"
      },
      {
        "deltaTime": 1440,
        "channel": 0,
        "type": "channel",
        "noteNumber": 65,
        "velocity": 0,
        "subtype": "noteOff"
      },
      {
        "deltaTime": 0,
        "channel": 0,
        "type": "channel",
        "noteNumber": 62,
        "velocity": 0,
        "subtype": "noteOff"
      },
      {
        "deltaTime": 960,
        "channel": 0,
        "type": "channel",
        "noteNumber": 67,
        "velocity": 127,
        "subtype": "noteOn"
      },
      {
        "deltaTime": 240,
        "channel": 0,
        "type": "channel",
        "noteNumber": 67,
        "velocity": 0,
        "subtype": "noteOff"
      },
      {
        "deltaTime": 0,
        "channel": 0,
        "type": "channel",
        "noteNumber": 70,
        "velocity": 127,
        "subtype": "noteOn"
      },
      {
        "deltaTime": 1200,
        "channel": 0,
        "type": "channel",
        "noteNumber": 70,
        "velocity": 0,
        "subtype": "noteOff"
      },
      {
        "deltaTime": 0,
        "channel": 0,
        "type": "channel",
        "noteNumber": 67,
        "velocity": 127,
        "subtype": "noteOn"
      },
      {
        "deltaTime": 960,
        "channel": 0,
        "type": "channel",
        "noteNumber": 67,
        "velocity": 0,
        "subtype": "noteOff"
      },
      {
        "deltaTime": 0,
        "channel": 0,
        "type": "channel",
        "noteNumber": 72,
        "velocity": 127,
        "subtype": "noteOn"
      },
      {
        "deltaTime": 480,
        "channel": 0,
        "type": "channel",
        "noteNumber": 72,
        "velocity": 0,
        "subtype": "noteOff"
      },
      {
        "deltaTime": 0,
        "channel": 0,
        "type": "channel",
        "noteNumber": 70,
        "velocity": 127,
        "subtype": "noteOn"
      },
      {
        "deltaTime": 1440,
        "channel": 0,
        "type": "channel",
        "noteNumber": 70,
        "velocity": 0,
        "subtype": "noteOff"
      },
      {
        "deltaTime": 0,
        "channel": 0,
        "type": "channel",
        "noteNumber": 67,
        "velocity": 127,
        "subtype": "noteOn"
      },
      {
        "deltaTime": 1920,
        "channel": 0,
        "type": "channel",
        "noteNumber": 67,
        "velocity": 0,
        "subtype": "noteOff"
      },
      {
        "deltaTime": 480,
        "channel": 0,
        "type": "channel",
        "noteNumber": 63,
        "velocity": 127,
        "subtype": "noteOn"
      },
      {
        "deltaTime": 0,
        "channel": 0,
        "type": "channel",
        "noteNumber": 70,
        "velocity": 127,
        "subtype": "noteOn"
      },
      {
        "deltaTime": 960,
        "channel": 0,
        "type": "channel",
        "noteNumber": 70,
        "velocity": 0,
        "subtype": "noteOff"
      },
      {
        "deltaTime": 0,
        "channel": 0,
        "type": "channel",
        "noteNumber": 63,
        "velocity": 0,
        "subtype": "noteOff"
      },
      {
        "deltaTime": 0,
        "channel": 0,
        "type": "channel",
        "noteNumber": 60,
        "velocity": 127,
        "subtype": "noteOn"
      },
      {
        "deltaTime": 0,
        "channel": 0,
        "type": "channel",
        "noteNumber": 67,
        "velocity": 127,
        "subtype": "noteOn"
      },
      {
        "deltaTime": 480,
        "channel": 0,
        "type": "channel",
        "noteNumber": 67,
        "velocity": 0,
        "subtype": "noteOff"
      },
      {
        "deltaTime": 0,
        "channel": 0,
        "type": "channel",
        "noteNumber": 60,
        "velocity": 0,
        "subtype": "noteOff"
      },
      {
        "deltaTime": 0,
        "channel": 0,
        "type": "channel",
        "noteNumber": 65,
        "velocity": 127,
        "subtype": "noteOn"
      },
      {
        "deltaTime": 0,
        "channel": 0,
        "type": "channel",
        "noteNumber": 72,
        "velocity": 127,
        "subtype": "noteOn"
      },
      {
        "deltaTime": 480,
        "channel": 0,
        "type": "channel",
        "noteNumber": 72,
        "velocity": 0,
        "subtype": "noteOff"
      },
      {
        "deltaTime": 0,
        "channel": 0,
        "type": "channel",
        "noteNumber": 65,
        "velocity": 0,
        "subtype": "noteOff"
      },
      {
        "deltaTime": 0,
        "channel": 0,
        "type": "channel",
        "noteNumber": 70,
        "velocity": 127,
        "subtype": "noteOn"
      },
      {
        "deltaTime": 0,
        "channel": 0,
        "type": "channel",
        "noteNumber": 63,
        "velocity": 127,
        "subtype": "noteOn"
      },
      {
        "deltaTime": 960,
        "channel": 0,
        "type": "channel",
        "noteNumber": 63,
        "velocity": 0,
        "subtype": "noteOff"
      },
      {
        "deltaTime": 0,
        "channel": 0,
        "type": "channel",
        "noteNumber": 70,
        "velocity": 0,
        "subtype": "noteOff"
      },
      {
        "deltaTime": 0,
        "channel": 0,
        "type": "channel",
        "noteNumber": 63,
        "velocity": 127,
        "subtype": "noteOn"
      },
      {
        "deltaTime": 0,
        "channel": 0,
        "type": "channel",
        "noteNumber": 58,
        "velocity": 127,
        "subtype": "noteOn"
      },
      {
        "deltaTime": 480,
        "channel": 0,
        "type": "channel",
        "noteNumber": 58,
        "velocity": 0,
        "subtype": "noteOff"
      },
      {
        "deltaTime": 0,
        "channel": 0,
        "type": "channel",
        "noteNumber": 63,
        "velocity": 0,
        "subtype": "noteOff"
      },
      {
        "deltaTime": 0,
        "channel": 0,
        "type": "channel",
        "noteNumber": 63,
        "velocity": 127,
        "subtype": "noteOn"
      },
      {
        "deltaTime": 0,
        "channel": 0,
        "type": "channel",
        "noteNumber": 58,
        "velocity": 127,
        "subtype": "noteOn"
      },
      {
        "deltaTime": 480,
        "channel": 0,
        "type": "channel",
        "noteNumber": 58,
        "velocity": 0,
        "subtype": "noteOff"
      },
      {
        "deltaTime": 0,
        "channel": 0,
        "type": "channel",
        "noteNumber": 63,
        "velocity": 0,
        "subtype": "noteOff"
      },
      {
        "deltaTime": 0,
        "channel": 0,
        "type": "channel",
        "noteNumber": 70,
        "velocity": 127,
        "subtype": "noteOn"
      },
      {
        "deltaTime": 0,
        "channel": 0,
        "type": "channel",
        "noteNumber": 63,
        "velocity": 127,
        "subtype": "noteOn"
      },
      {
        "deltaTime": 960,
        "channel": 0,
        "type": "channel",
        "noteNumber": 63,
        "velocity": 0,
        "subtype": "noteOff"
      },
      {
        "deltaTime": 0,
        "channel": 0,
        "type": "channel",
        "noteNumber": 70,
        "velocity": 0,
        "subtype": "noteOff"
      },
      {
        "deltaTime": 0,
        "channel": 0,
        "type": "channel",
        "noteNumber": 68,
        "velocity": 127,
        "subtype": "noteOn"
      },
      {
        "deltaTime": 0,
        "channel": 0,
        "type": "channel",
        "noteNumber": 63,
        "velocity": 127,
        "subtype": "noteOn"
      },
      {
        "deltaTime": 480,
        "channel": 0,
        "type": "channel",
        "noteNumber": 63,
        "velocity": 0,
        "subtype": "noteOff"
      },
      {
        "deltaTime": 0,
        "channel": 0,
        "type": "channel",
        "noteNumber": 68,
        "velocity": 0,
        "subtype": "noteOff"
      },
      {
        "deltaTime": 0,
        "channel": 0,
        "type": "channel",
        "noteNumber": 67,
        "velocity": 127,
        "subtype": "noteOn"
      },
      {
        "deltaTime": 0,
        "channel": 0,
        "type": "channel",
        "noteNumber": 63,
        "velocity": 127,
        "subtype": "noteOn"
      },
      {
        "deltaTime": 480,
        "channel": 0,
        "type": "channel",
        "noteNumber": 63,
        "velocity": 0,
        "subtype": "noteOff"
      },
      {
        "deltaTime": 0,
        "channel": 0,
        "type": "channel",
        "noteNumber": 67,
        "velocity": 0,
        "subtype": "noteOff"
      },
      {
        "deltaTime": 0,
        "channel": 0,
        "type": "channel",
        "noteNumber": 62,
        "velocity": 127,
        "subtype": "noteOn"
      },
      {
        "deltaTime": 0,
        "channel": 0,
        "type": "channel",
        "noteNumber": 65,
        "velocity": 127,
        "subtype": "noteOn"
      },
      {
        "deltaTime": 480,
        "channel": 0,
        "type": "channel",
        "noteNumber": 65,
        "velocity": 0,
        "subtype": "noteOff"
      },
      {
        "deltaTime": 0,
        "channel": 0,
        "type": "channel",
        "noteNumber": 62,
        "velocity": 0,
        "subtype": "noteOff"
      },
      {
        "deltaTime": 0,
        "channel": 0,
        "type": "channel",
        "noteNumber": 62,
        "velocity": 127,
        "subtype": "noteOn"
      },
      {
        "deltaTime": 0,
        "channel": 0,
        "type": "channel",
        "noteNumber": 65,
        "velocity": 127,
        "subtype": "noteOn"
      },
      {
        "deltaTime": 1440,
        "channel": 0,
        "type": "channel",
        "noteNumber": 65,
        "velocity": 0,
        "subtype": "noteOff"
      },
      {
        "deltaTime": 0,
        "channel": 0,
        "type": "channel",
        "noteNumber": 62,
        "velocity": 0,
        "subtype": "noteOff"
      },
      {
        "deltaTime": 960,
        "channel": 0,
        "type": "channel",
        "noteNumber": 63,
        "velocity": 127,
        "subtype": "noteOn"
      },
      {
        "deltaTime": 240,
        "channel": 0,
        "type": "channel",
        "noteNumber": 63,
        "velocity": 0,
        "subtype": "noteOff"
      },
      {
        "deltaTime": 0,
        "channel": 0,
        "type": "channel",
        "noteNumber": 65,
        "velocity": 127,
        "subtype": "noteOn"
      },
      {
        "deltaTime": 1200,
        "channel": 0,
        "type": "channel",
        "noteNumber": 65,
        "velocity": 0,
        "subtype": "noteOff"
      },
      {
        "deltaTime": 0,
        "channel": 0,
        "type": "channel",
        "noteNumber": 67,
        "velocity": 127,
        "subtype": "noteOn"
      },
      {
        "deltaTime": 1440,
        "channel": 0,
        "type": "channel",
        "noteNumber": 67,
        "velocity": 0,
        "subtype": "noteOff"
      },
      {
        "deltaTime": 0,
        "channel": 0,
        "type": "channel",
        "noteNumber": 70,
        "velocity": 127,
        "subtype": "noteOn"
      },
      {
        "deltaTime": 1440,
        "channel": 0,
        "type": "channel",
        "noteNumber": 70,
        "velocity": 0,
        "subtype": "noteOff"
      },
      {
        "deltaTime": 0,
        "channel": 0,
        "type": "channel",
        "noteNumber": 67,
        "velocity": 127,
        "subtype": "noteOn"
      },
      {
        "deltaTime": 1920,
        "channel": 0,
        "type": "channel",
        "noteNumber": 67,
        "velocity": 0,
        "subtype": "noteOff"
      },
      {
        "deltaTime": 0,
        "channel": 0,
        "type": "channel",
        "noteNumber": 63,
        "velocity": 127,
        "subtype": "noteOn"
      },
      {
        "deltaTime": 480,
        "channel": 0,
        "type": "channel",
        "noteNumber": 63,
        "velocity": 0,
        "subtype": "noteOff"
      },
      {
        "deltaTime": 0,
        "channel": 0,
        "type": "channel",
        "noteNumber": 63,
        "velocity": 127,
        "subtype": "noteOn"
      },
      {
        "deltaTime": 960,
        "channel": 0,
        "type": "channel",
        "noteNumber": 63,
        "velocity": 0,
        "subtype": "noteOff"
      },
      {
        "deltaTime": 0,
        "channel": 0,
        "type": "channel",
        "noteNumber": 65,
        "velocity": 127,
        "subtype": "noteOn"
      },
      {
        "deltaTime": 960,
        "channel": 0,
        "type": "channel",
        "noteNumber": 65,
        "velocity": 0,
        "subtype": "noteOff"
      },
      {
        "deltaTime": 0,
        "channel": 0,
        "type": "channel",
        "noteNumber": 67,
        "velocity": 127,
        "subtype": "noteOn"
      },
      {
        "deltaTime": 960,
        "channel": 0,
        "type": "channel",
        "noteNumber": 67,
        "velocity": 0,
        "subtype": "noteOff"
      },
      {
        "deltaTime": 0,
        "channel": 0,
        "type": "channel",
        "noteNumber": 67,
        "velocity": 127,
        "subtype": "noteOn"
      },
      {
        "deltaTime": 240,
        "channel": 0,
        "type": "channel",
        "noteNumber": 67,
        "velocity": 0,
        "subtype": "noteOff"
      },
      {
        "deltaTime": 0,
        "channel": 0,
        "type": "channel",
        "noteNumber": 70,
        "velocity": 127,
        "subtype": "noteOn"
      },
      {
        "deltaTime": 720,
        "channel": 0,
        "type": "channel",
        "noteNumber": 70,
        "velocity": 0,
        "subtype": "noteOff"
      },
      {
        "deltaTime": 0,
        "channel": 0,
        "type": "channel",
        "noteNumber": 67,
        "velocity": 127,
        "subtype": "noteOn"
      },
      {
        "deltaTime": 1440,
        "channel": 0,
        "type": "channel",
        "noteNumber": 67,
        "velocity": 0,
        "subtype": "noteOff"
      },
      {
        "deltaTime": 0,
        "channel": 0,
        "type": "channel",
        "noteNumber": 65,
        "velocity": 127,
        "subtype": "noteOn"
      },
      {
        "deltaTime": 1440,
        "channel": 0,
        "type": "channel",
        "noteNumber": 65,
        "velocity": 0,
        "subtype": "noteOff"
      },
      {
        "deltaTime": 480,
        "channel": 0,
        "type": "channel",
        "noteNumber": 63,
        "velocity": 127,
        "subtype": "noteOn"
      },
      {
        "deltaTime": 480,
        "channel": 0,
        "type": "channel",
        "noteNumber": 63,
        "velocity": 0,
        "subtype": "noteOff"
      },
      {
        "deltaTime": 0,
        "channel": 0,
        "type": "channel",
        "noteNumber": 63,
        "velocity": 127,
        "subtype": "noteOn"
      },
      {
        "deltaTime": 960,
        "channel": 0,
        "type": "channel",
        "noteNumber": 63,
        "velocity": 0,
        "subtype": "noteOff"
      },
      {
        "deltaTime": 0,
        "channel": 0,
        "type": "channel",
        "noteNumber": 65,
        "velocity": 127,
        "subtype": "noteOn"
      },
      {
        "deltaTime": 960,
        "channel": 0,
        "type": "channel",
        "noteNumber": 65,
        "velocity": 0,
        "subtype": "noteOff"
      },
      {
        "deltaTime": 0,
        "channel": 0,
        "type": "channel",
        "noteNumber": 67,
        "velocity": 127,
        "subtype": "noteOn"
      },
      {
        "deltaTime": 960,
        "channel": 0,
        "type": "channel",
        "noteNumber": 67,
        "velocity": 0,
        "subtype": "noteOff"
      },
      {
        "deltaTime": 0,
        "channel": 0,
        "type": "channel",
        "noteNumber": 70,
        "velocity": 127,
        "subtype": "noteOn"
      },
      {
        "deltaTime": 480,
        "channel": 0,
        "type": "channel",
        "noteNumber": 70,
        "velocity": 0,
        "subtype": "noteOff"
      },
      {
        "deltaTime": 0,
        "channel": 0,
        "type": "channel",
        "noteNumber": 65,
        "velocity": 127,
        "subtype": "noteOn"
      },
      {
        "deltaTime": 480,
        "channel": 0,
        "type": "channel",
        "noteNumber": 65,
        "velocity": 0,
        "subtype": "noteOff"
      },
      {
        "deltaTime": 0,
        "channel": 0,
        "type": "channel",
        "noteNumber": 65,
        "velocity": 127,
        "subtype": "noteOn"
      },
      {
        "deltaTime": 1920,
        "channel": 0,
        "type": "channel",
        "noteNumber": 65,
        "velocity": 0,
        "subtype": "noteOff"
      },
      {
        "deltaTime": 1440,
        "channel": 0,
        "type": "channel",
        "noteNumber": 63,
        "velocity": 127,
        "subtype": "noteOn"
      },
      {
        "deltaTime": 480,
        "channel": 0,
        "type": "channel",
        "noteNumber": 63,
        "velocity": 0,
        "subtype": "noteOff"
      },
      {
        "deltaTime": 0,
        "channel": 0,
        "type": "channel",
        "noteNumber": 70,
        "velocity": 127,
        "subtype": "noteOn"
      },
      {
        "deltaTime": 0,
        "channel": 0,
        "type": "channel",
        "noteNumber": 63,
        "velocity": 127,
        "subtype": "noteOn"
      },
      {
        "deltaTime": 960,
        "channel": 0,
        "type": "channel",
        "noteNumber": 63,
        "velocity": 0,
        "subtype": "noteOff"
      },
      {
        "deltaTime": 0,
        "channel": 0,
        "type": "channel",
        "noteNumber": 70,
        "velocity": 0,
        "subtype": "noteOff"
      },
      {
        "deltaTime": 0,
        "channel": 0,
        "type": "channel",
        "noteNumber": 67,
        "velocity": 127,
        "subtype": "noteOn"
      },
      {
        "deltaTime": 0,
        "channel": 0,
        "type": "channel",
        "noteNumber": 60,
        "velocity": 127,
        "subtype": "noteOn"
      },
      {
        "deltaTime": 480,
        "channel": 0,
        "type": "channel",
        "noteNumber": 60,
        "velocity": 0,
        "subtype": "noteOff"
      },
      {
        "deltaTime": 0,
        "channel": 0,
        "type": "channel",
        "noteNumber": 67,
        "velocity": 0,
        "subtype": "noteOff"
      },
      {
        "deltaTime": 0,
        "channel": 0,
        "type": "channel",
        "noteNumber": 65,
        "velocity": 127,
        "subtype": "noteOn"
      },
      {
        "deltaTime": 0,
        "channel": 0,
        "type": "channel",
        "noteNumber": 72,
        "velocity": 127,
        "subtype": "noteOn"
      },
      {
        "deltaTime": 480,
        "channel": 0,
        "type": "channel",
        "noteNumber": 72,
        "velocity": 0,
        "subtype": "noteOff"
      },
      {
        "deltaTime": 0,
        "channel": 0,
        "type": "channel",
        "noteNumber": 65,
        "velocity": 0,
        "subtype": "noteOff"
      },
      {
        "deltaTime": 0,
        "channel": 0,
        "type": "channel",
        "noteNumber": 63,
        "velocity": 127,
        "subtype": "noteOn"
      },
      {
        "deltaTime": 0,
        "channel": 0,
        "type": "channel",
        "noteNumber": 70,
        "velocity": 127,
        "subtype": "noteOn"
      },
      {
        "deltaTime": 960,
        "channel": 0,
        "type": "channel",
        "noteNumber": 70,
        "velocity": 0,
        "subtype": "noteOff"
      },
      {
        "deltaTime": 0,
        "channel": 0,
        "type": "channel",
        "noteNumber": 63,
        "velocity": 0,
        "subtype": "noteOff"
      },
      {
        "deltaTime": 0,
        "channel": 0,
        "type": "channel",
        "noteNumber": 63,
        "velocity": 127,
        "subtype": "noteOn"
      },
      {
        "deltaTime": 0,
        "channel": 0,
        "type": "channel",
        "noteNumber": 58,
        "velocity": 127,
        "subtype": "noteOn"
      },
      {
        "deltaTime": 480,
        "channel": 0,
        "type": "channel",
        "noteNumber": 58,
        "velocity": 0,
        "subtype": "noteOff"
      },
      {
        "deltaTime": 0,
        "channel": 0,
        "type": "channel",
        "noteNumber": 63,
        "velocity": 0,
        "subtype": "noteOff"
      },
      {
        "deltaTime": 0,
        "channel": 0,
        "type": "channel",
        "noteNumber": 63,
        "velocity": 127,
        "subtype": "noteOn"
      },
      {
        "deltaTime": 0,
        "channel": 0,
        "type": "channel",
        "noteNumber": 58,
        "velocity": 127,
        "subtype": "noteOn"
      },
      {
        "deltaTime": 480,
        "channel": 0,
        "type": "channel",
        "noteNumber": 58,
        "velocity": 0,
        "subtype": "noteOff"
      },
      {
        "deltaTime": 0,
        "channel": 0,
        "type": "channel",
        "noteNumber": 63,
        "velocity": 0,
        "subtype": "noteOff"
      },
      {
        "deltaTime": 0,
        "channel": 0,
        "type": "channel",
        "noteNumber": 63,
        "velocity": 127,
        "subtype": "noteOn"
      },
      {
        "deltaTime": 0,
        "channel": 0,
        "type": "channel",
        "noteNumber": 70,
        "velocity": 127,
        "subtype": "noteOn"
      },
      {
        "deltaTime": 960,
        "channel": 0,
        "type": "channel",
        "noteNumber": 70,
        "velocity": 0,
        "subtype": "noteOff"
      },
      {
        "deltaTime": 0,
        "channel": 0,
        "type": "channel",
        "noteNumber": 63,
        "velocity": 0,
        "subtype": "noteOff"
      },
      {
        "deltaTime": 0,
        "channel": 0,
        "type": "channel",
        "noteNumber": 68,
        "velocity": 127,
        "subtype": "noteOn"
      },
      {
        "deltaTime": 0,
        "channel": 0,
        "type": "channel",
        "noteNumber": 63,
        "velocity": 127,
        "subtype": "noteOn"
      },
      {
        "deltaTime": 480,
        "channel": 0,
        "type": "channel",
        "noteNumber": 63,
        "velocity": 0,
        "subtype": "noteOff"
      },
      {
        "deltaTime": 0,
        "channel": 0,
        "type": "channel",
        "noteNumber": 68,
        "velocity": 0,
        "subtype": "noteOff"
      },
      {
        "deltaTime": 0,
        "channel": 0,
        "type": "channel",
        "noteNumber": 63,
        "velocity": 127,
        "subtype": "noteOn"
      },
      {
        "deltaTime": 0,
        "channel": 0,
        "type": "channel",
        "noteNumber": 67,
        "velocity": 127,
        "subtype": "noteOn"
      },
      {
        "deltaTime": 480,
        "channel": 0,
        "type": "channel",
        "noteNumber": 67,
        "velocity": 0,
        "subtype": "noteOff"
      },
      {
        "deltaTime": 0,
        "channel": 0,
        "type": "channel",
        "noteNumber": 63,
        "velocity": 0,
        "subtype": "noteOff"
      },
      {
        "deltaTime": 0,
        "channel": 0,
        "type": "channel",
        "noteNumber": 62,
        "velocity": 127,
        "subtype": "noteOn"
      },
      {
        "deltaTime": 0,
        "channel": 0,
        "type": "channel",
        "noteNumber": 65,
        "velocity": 127,
        "subtype": "noteOn"
      },
      {
        "deltaTime": 480,
        "channel": 0,
        "type": "channel",
        "noteNumber": 65,
        "velocity": 0,
        "subtype": "noteOff"
      },
      {
        "deltaTime": 0,
        "channel": 0,
        "type": "channel",
        "noteNumber": 62,
        "velocity": 0,
        "subtype": "noteOff"
      },
      {
        "deltaTime": 0,
        "channel": 0,
        "type": "channel",
        "noteNumber": 65,
        "velocity": 127,
        "subtype": "noteOn"
      },
      {
        "deltaTime": 0,
        "channel": 0,
        "type": "channel",
        "noteNumber": 62,
        "velocity": 127,
        "subtype": "noteOn"
      },
      {
        "deltaTime": 1440,
        "channel": 0,
        "type": "channel",
        "noteNumber": 62,
        "velocity": 0,
        "subtype": "noteOff"
      },
      {
        "deltaTime": 0,
        "channel": 0,
        "type": "channel",
        "noteNumber": 65,
        "velocity": 0,
        "subtype": "noteOff"
      },
      {
        "deltaTime": 960,
        "channel": 0,
        "type": "channel",
        "noteNumber": 63,
        "velocity": 127,
        "subtype": "noteOn"
      },
      {
        "deltaTime": 240,
        "channel": 0,
        "type": "channel",
        "noteNumber": 63,
        "velocity": 0,
        "subtype": "noteOff"
      },
      {
        "deltaTime": 0,
        "channel": 0,
        "type": "channel",
        "noteNumber": 65,
        "velocity": 127,
        "subtype": "noteOn"
      },
      {
        "deltaTime": 1200,
        "channel": 0,
        "type": "channel",
        "noteNumber": 65,
        "velocity": 0,
        "subtype": "noteOff"
      },
      {
        "deltaTime": 0,
        "channel": 0,
        "type": "channel",
        "noteNumber": 67,
        "velocity": 127,
        "subtype": "noteOn"
      },
      {
        "deltaTime": 1440,
        "channel": 0,
        "type": "channel",
        "noteNumber": 67,
        "velocity": 0,
        "subtype": "noteOff"
      },
      {
        "deltaTime": 0,
        "channel": 0,
        "type": "channel",
        "noteNumber": 70,
        "velocity": 127,
        "subtype": "noteOn"
      },
      {
        "deltaTime": 1440,
        "channel": 0,
        "type": "channel",
        "noteNumber": 70,
        "velocity": 0,
        "subtype": "noteOff"
      },
      {
        "deltaTime": 0,
        "channel": 0,
        "type": "channel",
        "noteNumber": 67,
        "velocity": 127,
        "subtype": "noteOn"
      },
      {
        "deltaTime": 2400,
        "channel": 0,
        "type": "channel",
        "noteNumber": 67,
        "velocity": 0,
        "subtype": "noteOff"
      },
      {
        "deltaTime": 22560,
        "channel": 0,
        "type": "channel",
        "noteNumber": 63,
        "velocity": 127,
        "subtype": "noteOn"
      },
      {
        "deltaTime": 480,
        "channel": 0,
        "type": "channel",
        "noteNumber": 63,
        "velocity": 0,
        "subtype": "noteOff"
      },
      {
        "deltaTime": 0,
        "channel": 0,
        "type": "channel",
        "noteNumber": 70,
        "velocity": 127,
        "subtype": "noteOn"
      },
      {
        "deltaTime": 960,
        "channel": 0,
        "type": "channel",
        "noteNumber": 70,
        "velocity": 0,
        "subtype": "noteOff"
      },
      {
        "deltaTime": 0,
        "channel": 0,
        "type": "channel",
        "noteNumber": 67,
        "velocity": 127,
        "subtype": "noteOn"
      },
      {
        "deltaTime": 1920,
        "channel": 0,
        "type": "channel",
        "noteNumber": 67,
        "velocity": 0,
        "subtype": "noteOff"
      },
      {
        "deltaTime": 960,
        "channel": 0,
        "type": "channel",
        "noteNumber": 70,
        "velocity": 127,
        "subtype": "noteOn"
      },
      {
        "deltaTime": 480,
        "channel": 0,
        "type": "channel",
        "noteNumber": 70,
        "velocity": 0,
        "subtype": "noteOff"
      },
      {
        "deltaTime": 0,
        "channel": 0,
        "type": "channel",
        "noteNumber": 68,
        "velocity": 127,
        "subtype": "noteOn"
      },
      {
        "deltaTime": 480,
        "channel": 0,
        "type": "channel",
        "noteNumber": 68,
        "velocity": 0,
        "subtype": "noteOff"
      },
      {
        "deltaTime": 0,
        "channel": 0,
        "type": "channel",
        "noteNumber": 67,
        "velocity": 127,
        "subtype": "noteOn"
      },
      {
        "deltaTime": 480,
        "channel": 0,
        "type": "channel",
        "noteNumber": 67,
        "velocity": 0,
        "subtype": "noteOff"
      },
      {
        "deltaTime": 0,
        "channel": 0,
        "type": "channel",
        "noteNumber": 63,
        "velocity": 127,
        "subtype": "noteOn"
      },
      {
        "deltaTime": 480,
        "channel": 0,
        "type": "channel",
        "noteNumber": 63,
        "velocity": 0,
        "subtype": "noteOff"
      },
      {
        "deltaTime": 0,
        "channel": 0,
        "type": "channel",
        "noteNumber": 65,
        "velocity": 127,
        "subtype": "noteOn"
      },
      {
        "deltaTime": 480,
        "channel": 0,
        "type": "channel",
        "noteNumber": 65,
        "velocity": 0,
        "subtype": "noteOff"
      },
      {
        "deltaTime": 0,
        "channel": 0,
        "type": "channel",
        "noteNumber": 67,
        "velocity": 127,
        "subtype": "noteOn"
      },
      {
        "deltaTime": 480,
        "channel": 0,
        "type": "channel",
        "noteNumber": 67,
        "velocity": 0,
        "subtype": "noteOff"
      },
      {
        "deltaTime": 0,
        "channel": 0,
        "type": "channel",
        "noteNumber": 65,
        "velocity": 127,
        "subtype": "noteOn"
      },
      {
        "deltaTime": 960,
        "channel": 0,
        "type": "channel",
        "noteNumber": 65,
        "velocity": 0,
        "subtype": "noteOff"
      },
      {
        "deltaTime": 480,
        "channel": 0,
        "type": "channel",
        "noteNumber": 63,
        "velocity": 127,
        "subtype": "noteOn"
      },
      {
        "deltaTime": 480,
        "channel": 0,
        "type": "channel",
        "noteNumber": 63,
        "velocity": 0,
        "subtype": "noteOff"
      },
      {
        "deltaTime": 0,
        "channel": 0,
        "type": "channel",
        "noteNumber": 63,
        "velocity": 127,
        "subtype": "noteOn"
      },
      {
        "deltaTime": 480,
        "channel": 0,
        "type": "channel",
        "noteNumber": 63,
        "velocity": 0,
        "subtype": "noteOff"
      },
      {
        "deltaTime": 0,
        "channel": 0,
        "type": "channel",
        "noteNumber": 65,
        "velocity": 127,
        "subtype": "noteOn"
      },
      {
        "deltaTime": 480,
        "channel": 0,
        "type": "channel",
        "noteNumber": 65,
        "velocity": 0,
        "subtype": "noteOff"
      },
      {
        "deltaTime": 0,
        "channel": 0,
        "type": "channel",
        "noteNumber": 65,
        "velocity": 127,
        "subtype": "noteOn"
      },
      {
        "deltaTime": 480,
        "channel": 0,
        "type": "channel",
        "noteNumber": 65,
        "velocity": 0,
        "subtype": "noteOff"
      },
      {
        "deltaTime": 0,
        "channel": 0,
        "type": "channel",
        "noteNumber": 63,
        "velocity": 127,
        "subtype": "noteOn"
      },
      {
        "deltaTime": 480,
        "channel": 0,
        "type": "channel",
        "noteNumber": 63,
        "velocity": 0,
        "subtype": "noteOff"
      },
      {
        "deltaTime": 0,
        "channel": 0,
        "type": "channel",
        "noteNumber": 63,
        "velocity": 127,
        "subtype": "noteOn"
      },
      {
        "deltaTime": 960,
        "channel": 0,
        "type": "channel",
        "noteNumber": 63,
        "velocity": 0,
        "subtype": "noteOff"
      },
      {
        "deltaTime": 0,
        "channel": 0,
        "type": "channel",
        "noteNumber": 70,
        "velocity": 127,
        "subtype": "noteOn"
      },
      {
        "deltaTime": 960,
        "channel": 0,
        "type": "channel",
        "noteNumber": 70,
        "velocity": 0,
        "subtype": "noteOff"
      },
      {
        "deltaTime": 0,
        "channel": 0,
        "type": "channel",
        "noteNumber": 67,
        "velocity": 127,
        "subtype": "noteOn"
      },
      {
        "deltaTime": 1920,
        "channel": 0,
        "type": "channel",
        "noteNumber": 67,
        "velocity": 0,
        "subtype": "noteOff"
      },
      {
        "deltaTime": 960,
        "channel": 0,
        "type": "channel",
        "noteNumber": 70,
        "velocity": 127,
        "subtype": "noteOn"
      },
      {
        "deltaTime": 480,
        "channel": 0,
        "type": "channel",
        "noteNumber": 70,
        "velocity": 0,
        "subtype": "noteOff"
      },
      {
        "deltaTime": 0,
        "channel": 0,
        "type": "channel",
        "noteNumber": 68,
        "velocity": 127,
        "subtype": "noteOn"
      },
      {
        "deltaTime": 480,
        "channel": 0,
        "type": "channel",
        "noteNumber": 68,
        "velocity": 0,
        "subtype": "noteOff"
      },
      {
        "deltaTime": 0,
        "channel": 0,
        "type": "channel",
        "noteNumber": 67,
        "velocity": 127,
        "subtype": "noteOn"
      },
      {
        "deltaTime": 480,
        "channel": 0,
        "type": "channel",
        "noteNumber": 67,
        "velocity": 0,
        "subtype": "noteOff"
      },
      {
        "deltaTime": 0,
        "channel": 0,
        "type": "channel",
        "noteNumber": 63,
        "velocity": 127,
        "subtype": "noteOn"
      },
      {
        "deltaTime": 480,
        "channel": 0,
        "type": "channel",
        "noteNumber": 63,
        "velocity": 0,
        "subtype": "noteOff"
      },
      {
        "deltaTime": 0,
        "channel": 0,
        "type": "channel",
        "noteNumber": 65,
        "velocity": 127,
        "subtype": "noteOn"
      },
      {
        "deltaTime": 480,
        "channel": 0,
        "type": "channel",
        "noteNumber": 65,
        "velocity": 0,
        "subtype": "noteOff"
      },
      {
        "deltaTime": 0,
        "channel": 0,
        "type": "channel",
        "noteNumber": 67,
        "velocity": 127,
        "subtype": "noteOn"
      },
      {
        "deltaTime": 480,
        "channel": 0,
        "type": "channel",
        "noteNumber": 67,
        "velocity": 0,
        "subtype": "noteOff"
      },
      {
        "deltaTime": 0,
        "channel": 0,
        "type": "channel",
        "noteNumber": 65,
        "velocity": 127,
        "subtype": "noteOn"
      },
      {
        "deltaTime": 960,
        "channel": 0,
        "type": "channel",
        "noteNumber": 65,
        "velocity": 0,
        "subtype": "noteOff"
      },
      {
        "deltaTime": 480,
        "channel": 0,
        "type": "channel",
        "noteNumber": 63,
        "velocity": 127,
        "subtype": "noteOn"
      },
      {
        "deltaTime": 480,
        "channel": 0,
        "type": "channel",
        "noteNumber": 63,
        "velocity": 0,
        "subtype": "noteOff"
      },
      {
        "deltaTime": 0,
        "channel": 0,
        "type": "channel",
        "noteNumber": 63,
        "velocity": 127,
        "subtype": "noteOn"
      },
      {
        "deltaTime": 480,
        "channel": 0,
        "type": "channel",
        "noteNumber": 63,
        "velocity": 0,
        "subtype": "noteOff"
      },
      {
        "deltaTime": 0,
        "channel": 0,
        "type": "channel",
        "noteNumber": 65,
        "velocity": 127,
        "subtype": "noteOn"
      },
      {
        "deltaTime": 480,
        "channel": 0,
        "type": "channel",
        "noteNumber": 65,
        "velocity": 0,
        "subtype": "noteOff"
      },
      {
        "deltaTime": 0,
        "channel": 0,
        "type": "channel",
        "noteNumber": 65,
        "velocity": 127,
        "subtype": "noteOn"
      },
      {
        "deltaTime": 480,
        "channel": 0,
        "type": "channel",
        "noteNumber": 65,
        "velocity": 0,
        "subtype": "noteOff"
      },
      {
        "deltaTime": 0,
        "channel": 0,
        "type": "channel",
        "noteNumber": 63,
        "velocity": 127,
        "subtype": "noteOn"
      },
      {
        "deltaTime": 480,
        "channel": 0,
        "type": "channel",
        "noteNumber": 63,
        "velocity": 0,
        "subtype": "noteOff"
      },
      {
        "deltaTime": 0,
        "channel": 0,
        "type": "channel",
        "noteNumber": 63,
        "velocity": 127,
        "subtype": "noteOn"
      },
      {
        "deltaTime": 960,
        "channel": 0,
        "type": "channel",
        "noteNumber": 63,
        "velocity": 0,
        "subtype": "noteOff"
      },
      {
        "deltaTime": 0,
        "channel": 0,
        "type": "channel",
        "noteNumber": 62,
        "velocity": 127,
        "subtype": "noteOn"
      },
      {
        "deltaTime": 0,
        "channel": 0,
        "type": "channel",
        "noteNumber": 70,
        "velocity": 127,
        "subtype": "noteOn"
      },
      {
        "deltaTime": 960,
        "channel": 0,
        "type": "channel",
        "noteNumber": 70,
        "velocity": 0,
        "subtype": "noteOff"
      },
      {
        "deltaTime": 0,
        "channel": 0,
        "type": "channel",
        "noteNumber": 62,
        "velocity": 0,
        "subtype": "noteOff"
      },
      {
        "deltaTime": 0,
        "channel": 0,
        "type": "channel",
        "noteNumber": 72,
        "velocity": 127,
        "subtype": "noteOn"
      },
      {
        "deltaTime": 0,
        "channel": 0,
        "type": "channel",
        "noteNumber": 63,
        "velocity": 127,
        "subtype": "noteOn"
      },
      {
        "deltaTime": 1920,
        "channel": 0,
        "type": "channel",
        "noteNumber": 63,
        "velocity": 0,
        "subtype": "noteOff"
      },
      {
        "deltaTime": 0,
        "channel": 0,
        "type": "channel",
        "noteNumber": 72,
        "velocity": 0,
        "subtype": "noteOff"
      },
      {
        "deltaTime": 960,
        "channel": 0,
        "type": "channel",
        "noteNumber": 67,
        "velocity": 127,
        "subtype": "noteOn"
      },
      {
        "deltaTime": 0,
        "channel": 0,
        "type": "channel",
        "noteNumber": 70,
        "velocity": 127,
        "subtype": "noteOn"
      },
      {
        "deltaTime": 480,
        "channel": 0,
        "type": "channel",
        "noteNumber": 70,
        "velocity": 0,
        "subtype": "noteOff"
      },
      {
        "deltaTime": 0,
        "channel": 0,
        "type": "channel",
        "noteNumber": 67,
        "velocity": 0,
        "subtype": "noteOff"
      },
      {
        "deltaTime": 0,
        "channel": 0,
        "type": "channel",
        "noteNumber": 65,
        "velocity": 127,
        "subtype": "noteOn"
      },
      {
        "deltaTime": 0,
        "channel": 0,
        "type": "channel",
        "noteNumber": 68,
        "velocity": 127,
        "subtype": "noteOn"
      },
      {
        "deltaTime": 480,
        "channel": 0,
        "type": "channel",
        "noteNumber": 68,
        "velocity": 0,
        "subtype": "noteOff"
      },
      {
        "deltaTime": 0,
        "channel": 0,
        "type": "channel",
        "noteNumber": 65,
        "velocity": 0,
        "subtype": "noteOff"
      },
      {
        "deltaTime": 0,
        "channel": 0,
        "type": "channel",
        "noteNumber": 63,
        "velocity": 127,
        "subtype": "noteOn"
      },
      {
        "deltaTime": 0,
        "channel": 0,
        "type": "channel",
        "noteNumber": 67,
        "velocity": 127,
        "subtype": "noteOn"
      },
      {
        "deltaTime": 480,
        "channel": 0,
        "type": "channel",
        "noteNumber": 67,
        "velocity": 0,
        "subtype": "noteOff"
      },
      {
        "deltaTime": 0,
        "channel": 0,
        "type": "channel",
        "noteNumber": 63,
        "velocity": 0,
        "subtype": "noteOff"
      },
      {
        "deltaTime": 0,
        "channel": 0,
        "type": "channel",
        "noteNumber": 60,
        "velocity": 127,
        "subtype": "noteOn"
      },
      {
        "deltaTime": 0,
        "channel": 0,
        "type": "channel",
        "noteNumber": 63,
        "velocity": 127,
        "subtype": "noteOn"
      },
      {
        "deltaTime": 480,
        "channel": 0,
        "type": "channel",
        "noteNumber": 63,
        "velocity": 0,
        "subtype": "noteOff"
      },
      {
        "deltaTime": 0,
        "channel": 0,
        "type": "channel",
        "noteNumber": 60,
        "velocity": 0,
        "subtype": "noteOff"
      },
      {
        "deltaTime": 0,
        "channel": 0,
        "type": "channel",
        "noteNumber": 65,
        "velocity": 127,
        "subtype": "noteOn"
      },
      {
        "deltaTime": 0,
        "channel": 0,
        "type": "channel",
        "noteNumber": 62,
        "velocity": 127,
        "subtype": "noteOn"
      },
      {
        "deltaTime": 480,
        "channel": 0,
        "type": "channel",
        "noteNumber": 62,
        "velocity": 0,
        "subtype": "noteOff"
      },
      {
        "deltaTime": 0,
        "channel": 0,
        "type": "channel",
        "noteNumber": 65,
        "velocity": 0,
        "subtype": "noteOff"
      },
      {
        "deltaTime": 0,
        "channel": 0,
        "type": "channel",
        "noteNumber": 63,
        "velocity": 127,
        "subtype": "noteOn"
      },
      {
        "deltaTime": 0,
        "channel": 0,
        "type": "channel",
        "noteNumber": 67,
        "velocity": 127,
        "subtype": "noteOn"
      },
      {
        "deltaTime": 480,
        "channel": 0,
        "type": "channel",
        "noteNumber": 67,
        "velocity": 0,
        "subtype": "noteOff"
      },
      {
        "deltaTime": 0,
        "channel": 0,
        "type": "channel",
        "noteNumber": 63,
        "velocity": 0,
        "subtype": "noteOff"
      },
      {
        "deltaTime": 0,
        "channel": 0,
        "type": "channel",
        "noteNumber": 65,
        "velocity": 127,
        "subtype": "noteOn"
      },
      {
        "deltaTime": 0,
        "channel": 0,
        "type": "channel",
        "noteNumber": 62,
        "velocity": 127,
        "subtype": "noteOn"
      },
      {
        "deltaTime": 960,
        "channel": 0,
        "type": "channel",
        "noteNumber": 62,
        "velocity": 0,
        "subtype": "noteOff"
      },
      {
        "deltaTime": 0,
        "channel": 0,
        "type": "channel",
        "noteNumber": 65,
        "velocity": 0,
        "subtype": "noteOff"
      },
      {
        "deltaTime": 480,
        "channel": 0,
        "type": "channel",
        "noteNumber": 63,
        "velocity": 127,
        "subtype": "noteOn"
      },
      {
        "deltaTime": 480,
        "channel": 0,
        "type": "channel",
        "noteNumber": 63,
        "velocity": 0,
        "subtype": "noteOff"
      },
      {
        "deltaTime": 0,
        "channel": 0,
        "type": "channel",
        "noteNumber": 68,
        "velocity": 127,
        "subtype": "noteOn"
      },
      {
        "deltaTime": 480,
        "channel": 0,
        "type": "channel",
        "noteNumber": 68,
        "velocity": 0,
        "subtype": "noteOff"
      },
      {
        "deltaTime": 0,
        "channel": 0,
        "type": "channel",
        "noteNumber": 67,
        "velocity": 127,
        "subtype": "noteOn"
      },
      {
        "deltaTime": 480,
        "channel": 0,
        "type": "channel",
        "noteNumber": 67,
        "velocity": 0,
        "subtype": "noteOff"
      },
      {
        "deltaTime": 0,
        "channel": 0,
        "type": "channel",
        "noteNumber": 70,
        "velocity": 127,
        "subtype": "noteOn"
      },
      {
        "deltaTime": 480,
        "channel": 0,
        "type": "channel",
        "noteNumber": 70,
        "velocity": 0,
        "subtype": "noteOff"
      },
      {
        "deltaTime": 0,
        "channel": 0,
        "type": "channel",
        "noteNumber": 67,
        "velocity": 127,
        "subtype": "noteOn"
      },
      {
        "deltaTime": 480,
        "channel": 0,
        "type": "channel",
        "noteNumber": 67,
        "velocity": 0,
        "subtype": "noteOff"
      },
      {
        "deltaTime": 0,
        "channel": 0,
        "type": "channel",
        "noteNumber": 67,
        "velocity": 127,
        "subtype": "noteOn"
      },
      {
        "deltaTime": 0,
        "channel": 0,
        "type": "channel",
        "noteNumber": 58,
        "velocity": 127,
        "subtype": "noteOn"
      },
      {
        "deltaTime": 960,
        "channel": 0,
        "type": "channel",
        "noteNumber": 58,
        "velocity": 0,
        "subtype": "noteOff"
      },
      {
        "deltaTime": 0,
        "channel": 0,
        "type": "channel",
        "noteNumber": 67,
        "velocity": 0,
        "subtype": "noteOff"
      },
      {
        "deltaTime": 0,
        "channel": 0,
        "type": "channel",
        "noteNumber": 70,
        "velocity": 127,
        "subtype": "noteOn"
      },
      {
        "deltaTime": 0,
        "channel": 0,
        "type": "channel",
        "noteNumber": 63,
        "velocity": 127,
        "subtype": "noteOn"
      },
      {
        "deltaTime": 960,
        "channel": 0,
        "type": "channel",
        "noteNumber": 63,
        "velocity": 0,
        "subtype": "noteOff"
      },
      {
        "deltaTime": 0,
        "channel": 0,
        "type": "channel",
        "noteNumber": 70,
        "velocity": 0,
        "subtype": "noteOff"
      },
      {
        "deltaTime": 0,
        "channel": 0,
        "type": "channel",
        "noteNumber": 67,
        "velocity": 127,
        "subtype": "noteOn"
      },
      {
        "deltaTime": 0,
        "channel": 0,
        "type": "channel",
        "noteNumber": 58,
        "velocity": 127,
        "subtype": "noteOn"
      },
      {
        "deltaTime": 720,
        "channel": 0,
        "type": "channel",
        "noteNumber": 58,
        "velocity": 0,
        "subtype": "noteOff"
      },
      {
        "deltaTime": 0,
        "channel": 0,
        "type": "channel",
        "noteNumber": 67,
        "velocity": 0,
        "subtype": "noteOff"
      },
      {
        "deltaTime": 0,
        "channel": 0,
        "type": "channel",
        "noteNumber": 56,
        "velocity": 127,
        "subtype": "noteOn"
      },
      {
        "deltaTime": 0,
        "channel": 0,
        "type": "channel",
        "noteNumber": 65,
        "velocity": 127,
        "subtype": "noteOn"
      },
      {
        "deltaTime": 240,
        "channel": 0,
        "type": "channel",
        "noteNumber": 65,
        "velocity": 0,
        "subtype": "noteOff"
      },
      {
        "deltaTime": 0,
        "channel": 0,
        "type": "channel",
        "noteNumber": 56,
        "velocity": 0,
        "subtype": "noteOff"
      },
      {
        "deltaTime": 0,
        "channel": 0,
        "type": "channel",
        "noteNumber": 63,
        "velocity": 127,
        "subtype": "noteOn"
      },
      {
        "deltaTime": 0,
        "channel": 0,
        "type": "channel",
        "noteNumber": 55,
        "velocity": 127,
        "subtype": "noteOn"
      },
      {
        "deltaTime": 960,
        "channel": 0,
        "type": "channel",
        "noteNumber": 55,
        "velocity": 0,
        "subtype": "noteOff"
      },
      {
        "deltaTime": 0,
        "channel": 0,
        "type": "channel",
        "noteNumber": 63,
        "velocity": 0,
        "subtype": "noteOff"
      },
      {
        "deltaTime": 960,
        "channel": 0,
        "type": "channel",
        "noteNumber": 70,
        "velocity": 127,
        "subtype": "noteOn"
      },
      {
        "deltaTime": 480,
        "channel": 0,
        "type": "channel",
        "noteNumber": 70,
        "velocity": 0,
        "subtype": "noteOff"
      },
      {
        "deltaTime": 0,
        "channel": 0,
        "type": "channel",
        "noteNumber": 68,
        "velocity": 127,
        "subtype": "noteOn"
      },
      {
        "deltaTime": 480,
        "channel": 0,
        "type": "channel",
        "noteNumber": 68,
        "velocity": 0,
        "subtype": "noteOff"
      },
      {
        "deltaTime": 0,
        "channel": 0,
        "type": "channel",
        "noteNumber": 67,
        "velocity": 127,
        "subtype": "noteOn"
      },
      {
        "deltaTime": 480,
        "channel": 0,
        "type": "channel",
        "noteNumber": 67,
        "velocity": 0,
        "subtype": "noteOff"
      },
      {
        "deltaTime": 0,
        "channel": 0,
        "type": "channel",
        "noteNumber": 63,
        "velocity": 127,
        "subtype": "noteOn"
      },
      {
        "deltaTime": 480,
        "channel": 0,
        "type": "channel",
        "noteNumber": 63,
        "velocity": 0,
        "subtype": "noteOff"
      },
      {
        "deltaTime": 0,
        "channel": 0,
        "type": "channel",
        "noteNumber": 65,
        "velocity": 127,
        "subtype": "noteOn"
      },
      {
        "deltaTime": 480,
        "channel": 0,
        "type": "channel",
        "noteNumber": 65,
        "velocity": 0,
        "subtype": "noteOff"
      },
      {
        "deltaTime": 0,
        "channel": 0,
        "type": "channel",
        "noteNumber": 67,
        "velocity": 127,
        "subtype": "noteOn"
      },
      {
        "deltaTime": 480,
        "channel": 0,
        "type": "channel",
        "noteNumber": 67,
        "velocity": 0,
        "subtype": "noteOff"
      },
      {
        "deltaTime": 0,
        "channel": 0,
        "type": "channel",
        "noteNumber": 65,
        "velocity": 127,
        "subtype": "noteOn"
      },
      {
        "deltaTime": 960,
        "channel": 0,
        "type": "channel",
        "noteNumber": 65,
        "velocity": 0,
        "subtype": "noteOff"
      },
      {
        "deltaTime": 480,
        "channel": 0,
        "type": "channel",
        "noteNumber": 63,
        "velocity": 127,
        "subtype": "noteOn"
      },
      {
        "deltaTime": 480,
        "channel": 0,
        "type": "channel",
        "noteNumber": 63,
        "velocity": 0,
        "subtype": "noteOff"
      },
      {
        "deltaTime": 0,
        "channel": 0,
        "type": "channel",
        "noteNumber": 65,
        "velocity": 127,
        "subtype": "noteOn"
      },
      {
        "deltaTime": 720,
        "channel": 0,
        "type": "channel",
        "noteNumber": 65,
        "velocity": 0,
        "subtype": "noteOff"
      },
      {
        "deltaTime": 0,
        "channel": 0,
        "type": "channel",
        "noteNumber": 67,
        "velocity": 127,
        "subtype": "noteOn"
      },
      {
        "deltaTime": 720,
        "channel": 0,
        "type": "channel",
        "noteNumber": 67,
        "velocity": 0,
        "subtype": "noteOff"
      },
      {
        "deltaTime": 0,
        "channel": 0,
        "type": "channel",
        "noteNumber": 65,
        "velocity": 127,
        "subtype": "noteOn"
      },
      {
        "deltaTime": 1440,
        "channel": 0,
        "type": "channel",
        "noteNumber": 65,
        "velocity": 0,
        "subtype": "noteOff"
      },
      {
        "deltaTime": 7680,
        "channel": 0,
        "type": "channel",
        "noteNumber": 70,
        "velocity": 127,
        "subtype": "noteOn"
      },
      {
        "deltaTime": 0,
        "channel": 0,
        "type": "channel",
        "noteNumber": 63,
        "velocity": 127,
        "subtype": "noteOn"
      },
      {
        "deltaTime": 960,
        "channel": 0,
        "type": "channel",
        "noteNumber": 63,
        "velocity": 0,
        "subtype": "noteOff"
      },
      {
        "deltaTime": 0,
        "channel": 0,
        "type": "channel",
        "noteNumber": 70,
        "velocity": 0,
        "subtype": "noteOff"
      },
      {
        "deltaTime": 0,
        "channel": 0,
        "type": "channel",
        "noteNumber": 60,
        "velocity": 127,
        "subtype": "noteOn"
      },
      {
        "deltaTime": 0,
        "channel": 0,
        "type": "channel",
        "noteNumber": 67,
        "velocity": 127,
        "subtype": "noteOn"
      },
      {
        "deltaTime": 480,
        "channel": 0,
        "type": "channel",
        "noteNumber": 67,
        "velocity": 0,
        "subtype": "noteOff"
      },
      {
        "deltaTime": 0,
        "channel": 0,
        "type": "channel",
        "noteNumber": 60,
        "velocity": 0,
        "subtype": "noteOff"
      },
      {
        "deltaTime": 0,
        "channel": 0,
        "type": "channel",
        "noteNumber": 65,
        "velocity": 127,
        "subtype": "noteOn"
      },
      {
        "deltaTime": 0,
        "channel": 0,
        "type": "channel",
        "noteNumber": 72,
        "velocity": 127,
        "subtype": "noteOn"
      },
      {
        "deltaTime": 480,
        "channel": 0,
        "type": "channel",
        "noteNumber": 72,
        "velocity": 0,
        "subtype": "noteOff"
      },
      {
        "deltaTime": 0,
        "channel": 0,
        "type": "channel",
        "noteNumber": 65,
        "velocity": 0,
        "subtype": "noteOff"
      },
      {
        "deltaTime": 0,
        "channel": 0,
        "type": "channel",
        "noteNumber": 70,
        "velocity": 127,
        "subtype": "noteOn"
      },
      {
        "deltaTime": 0,
        "channel": 0,
        "type": "channel",
        "noteNumber": 63,
        "velocity": 127,
        "subtype": "noteOn"
      },
      {
        "deltaTime": 960,
        "channel": 0,
        "type": "channel",
        "noteNumber": 63,
        "velocity": 0,
        "subtype": "noteOff"
      },
      {
        "deltaTime": 0,
        "channel": 0,
        "type": "channel",
        "noteNumber": 70,
        "velocity": 0,
        "subtype": "noteOff"
      },
      {
        "deltaTime": 0,
        "channel": 0,
        "type": "channel",
        "noteNumber": 58,
        "velocity": 127,
        "subtype": "noteOn"
      },
      {
        "deltaTime": 0,
        "channel": 0,
        "type": "channel",
        "noteNumber": 63,
        "velocity": 127,
        "subtype": "noteOn"
      },
      {
        "deltaTime": 480,
        "channel": 0,
        "type": "channel",
        "noteNumber": 63,
        "velocity": 0,
        "subtype": "noteOff"
      },
      {
        "deltaTime": 0,
        "channel": 0,
        "type": "channel",
        "noteNumber": 58,
        "velocity": 0,
        "subtype": "noteOff"
      },
      {
        "deltaTime": 0,
        "channel": 0,
        "type": "channel",
        "noteNumber": 63,
        "velocity": 127,
        "subtype": "noteOn"
      },
      {
        "deltaTime": 0,
        "channel": 0,
        "type": "channel",
        "noteNumber": 58,
        "velocity": 127,
        "subtype": "noteOn"
      },
      {
        "deltaTime": 480,
        "channel": 0,
        "type": "channel",
        "noteNumber": 58,
        "velocity": 0,
        "subtype": "noteOff"
      },
      {
        "deltaTime": 0,
        "channel": 0,
        "type": "channel",
        "noteNumber": 63,
        "velocity": 0,
        "subtype": "noteOff"
      },
      {
        "deltaTime": 0,
        "channel": 0,
        "type": "channel",
        "noteNumber": 63,
        "velocity": 127,
        "subtype": "noteOn"
      },
      {
        "deltaTime": 0,
        "channel": 0,
        "type": "channel",
        "noteNumber": 70,
        "velocity": 127,
        "subtype": "noteOn"
      },
      {
        "deltaTime": 960,
        "channel": 0,
        "type": "channel",
        "noteNumber": 70,
        "velocity": 0,
        "subtype": "noteOff"
      },
      {
        "deltaTime": 0,
        "channel": 0,
        "type": "channel",
        "noteNumber": 63,
        "velocity": 0,
        "subtype": "noteOff"
      },
      {
        "deltaTime": 0,
        "channel": 0,
        "type": "channel",
        "noteNumber": 63,
        "velocity": 127,
        "subtype": "noteOn"
      },
      {
        "deltaTime": 0,
        "channel": 0,
        "type": "channel",
        "noteNumber": 68,
        "velocity": 127,
        "subtype": "noteOn"
      },
      {
        "deltaTime": 480,
        "channel": 0,
        "type": "channel",
        "noteNumber": 68,
        "velocity": 0,
        "subtype": "noteOff"
      },
      {
        "deltaTime": 0,
        "channel": 0,
        "type": "channel",
        "noteNumber": 63,
        "velocity": 0,
        "subtype": "noteOff"
      },
      {
        "deltaTime": 0,
        "channel": 0,
        "type": "channel",
        "noteNumber": 67,
        "velocity": 127,
        "subtype": "noteOn"
      },
      {
        "deltaTime": 0,
        "channel": 0,
        "type": "channel",
        "noteNumber": 63,
        "velocity": 127,
        "subtype": "noteOn"
      },
      {
        "deltaTime": 480,
        "channel": 0,
        "type": "channel",
        "noteNumber": 63,
        "velocity": 0,
        "subtype": "noteOff"
      },
      {
        "deltaTime": 0,
        "channel": 0,
        "type": "channel",
        "noteNumber": 67,
        "velocity": 0,
        "subtype": "noteOff"
      },
      {
        "deltaTime": 0,
        "channel": 0,
        "type": "channel",
        "noteNumber": 62,
        "velocity": 127,
        "subtype": "noteOn"
      },
      {
        "deltaTime": 0,
        "channel": 0,
        "type": "channel",
        "noteNumber": 65,
        "velocity": 127,
        "subtype": "noteOn"
      },
      {
        "deltaTime": 480,
        "channel": 0,
        "type": "channel",
        "noteNumber": 65,
        "velocity": 0,
        "subtype": "noteOff"
      },
      {
        "deltaTime": 0,
        "channel": 0,
        "type": "channel",
        "noteNumber": 62,
        "velocity": 0,
        "subtype": "noteOff"
      },
      {
        "deltaTime": 0,
        "channel": 0,
        "type": "channel",
        "noteNumber": 65,
        "velocity": 127,
        "subtype": "noteOn"
      },
      {
        "deltaTime": 0,
        "channel": 0,
        "type": "channel",
        "noteNumber": 62,
        "velocity": 127,
        "subtype": "noteOn"
      },
      {
        "deltaTime": 1440,
        "channel": 0,
        "type": "channel",
        "noteNumber": 62,
        "velocity": 0,
        "subtype": "noteOff"
      },
      {
        "deltaTime": 0,
        "channel": 0,
        "type": "channel",
        "noteNumber": 65,
        "velocity": 0,
        "subtype": "noteOff"
      },
      {
        "deltaTime": 960,
        "channel": 0,
        "type": "channel",
        "noteNumber": 67,
        "velocity": 127,
        "subtype": "noteOn"
      },
      {
        "deltaTime": 240,
        "channel": 0,
        "type": "channel",
        "noteNumber": 67,
        "velocity": 0,
        "subtype": "noteOff"
      },
      {
        "deltaTime": 0,
        "channel": 0,
        "type": "channel",
        "noteNumber": 70,
        "velocity": 127,
        "subtype": "noteOn"
      },
      {
        "deltaTime": 1200,
        "channel": 0,
        "type": "channel",
        "noteNumber": 70,
        "velocity": 0,
        "subtype": "noteOff"
      },
      {
        "deltaTime": 0,
        "channel": 0,
        "type": "channel",
        "noteNumber": 67,
        "velocity": 127,
        "subtype": "noteOn"
      },
      {
        "deltaTime": 960,
        "channel": 0,
        "type": "channel",
        "noteNumber": 67,
        "velocity": 0,
        "subtype": "noteOff"
      },
      {
        "deltaTime": 0,
        "channel": 0,
        "type": "channel",
        "noteNumber": 72,
        "velocity": 127,
        "subtype": "noteOn"
      },
      {
        "deltaTime": 480,
        "channel": 0,
        "type": "channel",
        "noteNumber": 72,
        "velocity": 0,
        "subtype": "noteOff"
      },
      {
        "deltaTime": 0,
        "channel": 0,
        "type": "channel",
        "noteNumber": 70,
        "velocity": 127,
        "subtype": "noteOn"
      },
      {
        "deltaTime": 1440,
        "channel": 0,
        "type": "channel",
        "noteNumber": 70,
        "velocity": 0,
        "subtype": "noteOff"
      },
      {
        "deltaTime": 0,
        "channel": 0,
        "type": "channel",
        "noteNumber": 67,
        "velocity": 127,
        "subtype": "noteOn"
      },
      {
        "deltaTime": 1920,
        "channel": 0,
        "type": "channel",
        "noteNumber": 67,
        "velocity": 0,
        "subtype": "noteOff"
      },
      {
        "deltaTime": 480,
        "channel": 0,
        "type": "channel",
        "noteNumber": 63,
        "velocity": 127,
        "subtype": "noteOn"
      },
      {
        "deltaTime": 0,
        "channel": 0,
        "type": "channel",
        "noteNumber": 70,
        "velocity": 127,
        "subtype": "noteOn"
      },
      {
        "deltaTime": 960,
        "channel": 0,
        "type": "channel",
        "noteNumber": 70,
        "velocity": 0,
        "subtype": "noteOff"
      },
      {
        "deltaTime": 0,
        "channel": 0,
        "type": "channel",
        "noteNumber": 63,
        "velocity": 0,
        "subtype": "noteOff"
      },
      {
        "deltaTime": 0,
        "channel": 0,
        "type": "channel",
        "noteNumber": 60,
        "velocity": 127,
        "subtype": "noteOn"
      },
      {
        "deltaTime": 0,
        "channel": 0,
        "type": "channel",
        "noteNumber": 67,
        "velocity": 127,
        "subtype": "noteOn"
      },
      {
        "deltaTime": 480,
        "channel": 0,
        "type": "channel",
        "noteNumber": 67,
        "velocity": 0,
        "subtype": "noteOff"
      },
      {
        "deltaTime": 0,
        "channel": 0,
        "type": "channel",
        "noteNumber": 60,
        "velocity": 0,
        "subtype": "noteOff"
      },
      {
        "deltaTime": 0,
        "channel": 0,
        "type": "channel",
        "noteNumber": 72,
        "velocity": 127,
        "subtype": "noteOn"
      },
      {
        "deltaTime": 0,
        "channel": 0,
        "type": "channel",
        "noteNumber": 65,
        "velocity": 127,
        "subtype": "noteOn"
      },
      {
        "deltaTime": 480,
        "channel": 0,
        "type": "channel",
        "noteNumber": 65,
        "velocity": 0,
        "subtype": "noteOff"
      },
      {
        "deltaTime": 0,
        "channel": 0,
        "type": "channel",
        "noteNumber": 72,
        "velocity": 0,
        "subtype": "noteOff"
      },
      {
        "deltaTime": 0,
        "channel": 0,
        "type": "channel",
        "noteNumber": 63,
        "velocity": 127,
        "subtype": "noteOn"
      },
      {
        "deltaTime": 0,
        "channel": 0,
        "type": "channel",
        "noteNumber": 70,
        "velocity": 127,
        "subtype": "noteOn"
      },
      {
        "deltaTime": 960,
        "channel": 0,
        "type": "channel",
        "noteNumber": 70,
        "velocity": 0,
        "subtype": "noteOff"
      },
      {
        "deltaTime": 0,
        "channel": 0,
        "type": "channel",
        "noteNumber": 63,
        "velocity": 0,
        "subtype": "noteOff"
      },
      {
        "deltaTime": 0,
        "channel": 0,
        "type": "channel",
        "noteNumber": 58,
        "velocity": 127,
        "subtype": "noteOn"
      },
      {
        "deltaTime": 0,
        "channel": 0,
        "type": "channel",
        "noteNumber": 63,
        "velocity": 127,
        "subtype": "noteOn"
      },
      {
        "deltaTime": 480,
        "channel": 0,
        "type": "channel",
        "noteNumber": 63,
        "velocity": 0,
        "subtype": "noteOff"
      },
      {
        "deltaTime": 0,
        "channel": 0,
        "type": "channel",
        "noteNumber": 58,
        "velocity": 0,
        "subtype": "noteOff"
      },
      {
        "deltaTime": 0,
        "channel": 0,
        "type": "channel",
        "noteNumber": 58,
        "velocity": 127,
        "subtype": "noteOn"
      },
      {
        "deltaTime": 0,
        "channel": 0,
        "type": "channel",
        "noteNumber": 63,
        "velocity": 127,
        "subtype": "noteOn"
      },
      {
        "deltaTime": 480,
        "channel": 0,
        "type": "channel",
        "noteNumber": 63,
        "velocity": 0,
        "subtype": "noteOff"
      },
      {
        "deltaTime": 0,
        "channel": 0,
        "type": "channel",
        "noteNumber": 58,
        "velocity": 0,
        "subtype": "noteOff"
      },
      {
        "deltaTime": 0,
        "channel": 0,
        "type": "channel",
        "noteNumber": 63,
        "velocity": 127,
        "subtype": "noteOn"
      },
      {
        "deltaTime": 0,
        "channel": 0,
        "type": "channel",
        "noteNumber": 70,
        "velocity": 127,
        "subtype": "noteOn"
      },
      {
        "deltaTime": 960,
        "channel": 0,
        "type": "channel",
        "noteNumber": 70,
        "velocity": 0,
        "subtype": "noteOff"
      },
      {
        "deltaTime": 0,
        "channel": 0,
        "type": "channel",
        "noteNumber": 63,
        "velocity": 0,
        "subtype": "noteOff"
      },
      {
        "deltaTime": 0,
        "channel": 0,
        "type": "channel",
        "noteNumber": 63,
        "velocity": 127,
        "subtype": "noteOn"
      },
      {
        "deltaTime": 0,
        "channel": 0,
        "type": "channel",
        "noteNumber": 68,
        "velocity": 127,
        "subtype": "noteOn"
      },
      {
        "deltaTime": 480,
        "channel": 0,
        "type": "channel",
        "noteNumber": 68,
        "velocity": 0,
        "subtype": "noteOff"
      },
      {
        "deltaTime": 0,
        "channel": 0,
        "type": "channel",
        "noteNumber": 63,
        "velocity": 0,
        "subtype": "noteOff"
      },
      {
        "deltaTime": 0,
        "channel": 0,
        "type": "channel",
        "noteNumber": 63,
        "velocity": 127,
        "subtype": "noteOn"
      },
      {
        "deltaTime": 0,
        "channel": 0,
        "type": "channel",
        "noteNumber": 67,
        "velocity": 127,
        "subtype": "noteOn"
      },
      {
        "deltaTime": 480,
        "channel": 0,
        "type": "channel",
        "noteNumber": 67,
        "velocity": 0,
        "subtype": "noteOff"
      },
      {
        "deltaTime": 0,
        "channel": 0,
        "type": "channel",
        "noteNumber": 63,
        "velocity": 0,
        "subtype": "noteOff"
      },
      {
        "deltaTime": 0,
        "channel": 0,
        "type": "channel",
        "noteNumber": 62,
        "velocity": 127,
        "subtype": "noteOn"
      },
      {
        "deltaTime": 0,
        "channel": 0,
        "type": "channel",
        "noteNumber": 65,
        "velocity": 127,
        "subtype": "noteOn"
      },
      {
        "deltaTime": 480,
        "channel": 0,
        "type": "channel",
        "noteNumber": 65,
        "velocity": 0,
        "subtype": "noteOff"
      },
      {
        "deltaTime": 0,
        "channel": 0,
        "type": "channel",
        "noteNumber": 62,
        "velocity": 0,
        "subtype": "noteOff"
      },
      {
        "deltaTime": 0,
        "channel": 0,
        "type": "channel",
        "noteNumber": 62,
        "velocity": 127,
        "subtype": "noteOn"
      },
      {
        "deltaTime": 0,
        "channel": 0,
        "type": "channel",
        "noteNumber": 65,
        "velocity": 127,
        "subtype": "noteOn"
      },
      {
        "deltaTime": 1440,
        "channel": 0,
        "type": "channel",
        "noteNumber": 65,
        "velocity": 0,
        "subtype": "noteOff"
      },
      {
        "deltaTime": 0,
        "channel": 0,
        "type": "channel",
        "noteNumber": 62,
        "velocity": 0,
        "subtype": "noteOff"
      },
      {
        "deltaTime": 960,
        "channel": 0,
        "type": "channel",
        "noteNumber": 63,
        "velocity": 127,
        "subtype": "noteOn"
      },
      {
        "deltaTime": 240,
        "channel": 0,
        "type": "channel",
        "noteNumber": 63,
        "velocity": 0,
        "subtype": "noteOff"
      },
      {
        "deltaTime": 0,
        "channel": 0,
        "type": "channel",
        "noteNumber": 65,
        "velocity": 127,
        "subtype": "noteOn"
      },
      {
        "deltaTime": 1200,
        "channel": 0,
        "type": "channel",
        "noteNumber": 65,
        "velocity": 0,
        "subtype": "noteOff"
      },
      {
        "deltaTime": 0,
        "channel": 0,
        "type": "channel",
        "noteNumber": 67,
        "velocity": 127,
        "subtype": "noteOn"
      },
      {
        "deltaTime": 1440,
        "channel": 0,
        "type": "channel",
        "noteNumber": 67,
        "velocity": 0,
        "subtype": "noteOff"
      },
      {
        "deltaTime": 0,
        "channel": 0,
        "type": "channel",
        "noteNumber": 70,
        "velocity": 127,
        "subtype": "noteOn"
      },
      {
        "deltaTime": 1440,
        "channel": 0,
        "type": "channel",
        "noteNumber": 70,
        "velocity": 0,
        "subtype": "noteOff"
      },
      {
        "deltaTime": 0,
        "channel": 0,
        "type": "channel",
        "noteNumber": 67,
        "velocity": 127,
        "subtype": "noteOn"
      },
      {
        "deltaTime": 1920,
        "channel": 0,
        "type": "channel",
        "noteNumber": 67,
        "velocity": 0,
        "subtype": "noteOff"
      },
      {
        "deltaTime": 0,
        "channel": 0,
        "type": "channel",
        "noteNumber": 63,
        "velocity": 127,
        "subtype": "noteOn"
      },
      {
        "deltaTime": 480,
        "channel": 0,
        "type": "channel",
        "noteNumber": 63,
        "velocity": 0,
        "subtype": "noteOff"
      },
      {
        "deltaTime": 0,
        "channel": 0,
        "type": "channel",
        "noteNumber": 63,
        "velocity": 127,
        "subtype": "noteOn"
      },
      {
        "deltaTime": 960,
        "channel": 0,
        "type": "channel",
        "noteNumber": 63,
        "velocity": 0,
        "subtype": "noteOff"
      },
      {
        "deltaTime": 0,
        "channel": 0,
        "type": "channel",
        "noteNumber": 65,
        "velocity": 127,
        "subtype": "noteOn"
      },
      {
        "deltaTime": 960,
        "channel": 0,
        "type": "channel",
        "noteNumber": 65,
        "velocity": 0,
        "subtype": "noteOff"
      },
      {
        "deltaTime": 0,
        "channel": 0,
        "type": "channel",
        "noteNumber": 67,
        "velocity": 127,
        "subtype": "noteOn"
      },
      {
        "deltaTime": 960,
        "channel": 0,
        "type": "channel",
        "noteNumber": 67,
        "velocity": 0,
        "subtype": "noteOff"
      },
      {
        "deltaTime": 0,
        "channel": 0,
        "type": "channel",
        "noteNumber": 67,
        "velocity": 127,
        "subtype": "noteOn"
      },
      {
        "deltaTime": 240,
        "channel": 0,
        "type": "channel",
        "noteNumber": 67,
        "velocity": 0,
        "subtype": "noteOff"
      },
      {
        "deltaTime": 0,
        "channel": 0,
        "type": "channel",
        "noteNumber": 70,
        "velocity": 127,
        "subtype": "noteOn"
      },
      {
        "deltaTime": 720,
        "channel": 0,
        "type": "channel",
        "noteNumber": 70,
        "velocity": 0,
        "subtype": "noteOff"
      },
      {
        "deltaTime": 0,
        "channel": 0,
        "type": "channel",
        "noteNumber": 67,
        "velocity": 127,
        "subtype": "noteOn"
      },
      {
        "deltaTime": 1440,
        "channel": 0,
        "type": "channel",
        "noteNumber": 67,
        "velocity": 0,
        "subtype": "noteOff"
      },
      {
        "deltaTime": 0,
        "channel": 0,
        "type": "channel",
        "noteNumber": 65,
        "velocity": 127,
        "subtype": "noteOn"
      },
      {
        "deltaTime": 1440,
        "channel": 0,
        "type": "channel",
        "noteNumber": 65,
        "velocity": 0,
        "subtype": "noteOff"
      },
      {
        "deltaTime": 480,
        "channel": 0,
        "type": "channel",
        "noteNumber": 63,
        "velocity": 127,
        "subtype": "noteOn"
      },
      {
        "deltaTime": 480,
        "channel": 0,
        "type": "channel",
        "noteNumber": 63,
        "velocity": 0,
        "subtype": "noteOff"
      },
      {
        "deltaTime": 0,
        "channel": 0,
        "type": "channel",
        "noteNumber": 63,
        "velocity": 127,
        "subtype": "noteOn"
      },
      {
        "deltaTime": 960,
        "channel": 0,
        "type": "channel",
        "noteNumber": 63,
        "velocity": 0,
        "subtype": "noteOff"
      },
      {
        "deltaTime": 0,
        "channel": 0,
        "type": "channel",
        "noteNumber": 65,
        "velocity": 127,
        "subtype": "noteOn"
      },
      {
        "deltaTime": 960,
        "channel": 0,
        "type": "channel",
        "noteNumber": 65,
        "velocity": 0,
        "subtype": "noteOff"
      },
      {
        "deltaTime": 0,
        "channel": 0,
        "type": "channel",
        "noteNumber": 67,
        "velocity": 127,
        "subtype": "noteOn"
      },
      {
        "deltaTime": 960,
        "channel": 0,
        "type": "channel",
        "noteNumber": 67,
        "velocity": 0,
        "subtype": "noteOff"
      },
      {
        "deltaTime": 0,
        "channel": 0,
        "type": "channel",
        "noteNumber": 70,
        "velocity": 127,
        "subtype": "noteOn"
      },
      {
        "deltaTime": 480,
        "channel": 0,
        "type": "channel",
        "noteNumber": 70,
        "velocity": 0,
        "subtype": "noteOff"
      },
      {
        "deltaTime": 0,
        "channel": 0,
        "type": "channel",
        "noteNumber": 65,
        "velocity": 127,
        "subtype": "noteOn"
      },
      {
        "deltaTime": 480,
        "channel": 0,
        "type": "channel",
        "noteNumber": 65,
        "velocity": 0,
        "subtype": "noteOff"
      },
      {
        "deltaTime": 0,
        "channel": 0,
        "type": "channel",
        "noteNumber": 65,
        "velocity": 127,
        "subtype": "noteOn"
      },
      {
        "deltaTime": 1920,
        "channel": 0,
        "type": "channel",
        "noteNumber": 65,
        "velocity": 0,
        "subtype": "noteOff"
      },
      {
        "deltaTime": 1440,
        "channel": 0,
        "type": "channel",
        "noteNumber": 63,
        "velocity": 127,
        "subtype": "noteOn"
      },
      {
        "deltaTime": 480,
        "channel": 0,
        "type": "channel",
        "noteNumber": 63,
        "velocity": 0,
        "subtype": "noteOff"
      },
      {
        "deltaTime": 0,
        "channel": 0,
        "type": "channel",
        "noteNumber": 63,
        "velocity": 127,
        "subtype": "noteOn"
      },
      {
        "deltaTime": 0,
        "channel": 0,
        "type": "channel",
        "noteNumber": 70,
        "velocity": 127,
        "subtype": "noteOn"
      },
      {
        "deltaTime": 960,
        "channel": 0,
        "type": "channel",
        "noteNumber": 70,
        "velocity": 0,
        "subtype": "noteOff"
      },
      {
        "deltaTime": 0,
        "channel": 0,
        "type": "channel",
        "noteNumber": 63,
        "velocity": 0,
        "subtype": "noteOff"
      },
      {
        "deltaTime": 0,
        "channel": 0,
        "type": "channel",
        "noteNumber": 60,
        "velocity": 127,
        "subtype": "noteOn"
      },
      {
        "deltaTime": 0,
        "channel": 0,
        "type": "channel",
        "noteNumber": 67,
        "velocity": 127,
        "subtype": "noteOn"
      },
      {
        "deltaTime": 480,
        "channel": 0,
        "type": "channel",
        "noteNumber": 67,
        "velocity": 0,
        "subtype": "noteOff"
      },
      {
        "deltaTime": 0,
        "channel": 0,
        "type": "channel",
        "noteNumber": 60,
        "velocity": 0,
        "subtype": "noteOff"
      },
      {
        "deltaTime": 0,
        "channel": 0,
        "type": "channel",
        "noteNumber": 65,
        "velocity": 127,
        "subtype": "noteOn"
      },
      {
        "deltaTime": 0,
        "channel": 0,
        "type": "channel",
        "noteNumber": 72,
        "velocity": 127,
        "subtype": "noteOn"
      },
      {
        "deltaTime": 480,
        "channel": 0,
        "type": "channel",
        "noteNumber": 72,
        "velocity": 0,
        "subtype": "noteOff"
      },
      {
        "deltaTime": 0,
        "channel": 0,
        "type": "channel",
        "noteNumber": 65,
        "velocity": 0,
        "subtype": "noteOff"
      },
      {
        "deltaTime": 0,
        "channel": 0,
        "type": "channel",
        "noteNumber": 63,
        "velocity": 127,
        "subtype": "noteOn"
      },
      {
        "deltaTime": 0,
        "channel": 0,
        "type": "channel",
        "noteNumber": 70,
        "velocity": 127,
        "subtype": "noteOn"
      },
      {
        "deltaTime": 960,
        "channel": 0,
        "type": "channel",
        "noteNumber": 70,
        "velocity": 0,
        "subtype": "noteOff"
      },
      {
        "deltaTime": 0,
        "channel": 0,
        "type": "channel",
        "noteNumber": 63,
        "velocity": 0,
        "subtype": "noteOff"
      },
      {
        "deltaTime": 0,
        "channel": 0,
        "type": "channel",
        "noteNumber": 58,
        "velocity": 127,
        "subtype": "noteOn"
      },
      {
        "deltaTime": 0,
        "channel": 0,
        "type": "channel",
        "noteNumber": 63,
        "velocity": 127,
        "subtype": "noteOn"
      },
      {
        "deltaTime": 480,
        "channel": 0,
        "type": "channel",
        "noteNumber": 63,
        "velocity": 0,
        "subtype": "noteOff"
      },
      {
        "deltaTime": 0,
        "channel": 0,
        "type": "channel",
        "noteNumber": 58,
        "velocity": 0,
        "subtype": "noteOff"
      },
      {
        "deltaTime": 0,
        "channel": 0,
        "type": "channel",
        "noteNumber": 63,
        "velocity": 127,
        "subtype": "noteOn"
      },
      {
        "deltaTime": 0,
        "channel": 0,
        "type": "channel",
        "noteNumber": 58,
        "velocity": 127,
        "subtype": "noteOn"
      },
      {
        "deltaTime": 480,
        "channel": 0,
        "type": "channel",
        "noteNumber": 58,
        "velocity": 0,
        "subtype": "noteOff"
      },
      {
        "deltaTime": 0,
        "channel": 0,
        "type": "channel",
        "noteNumber": 63,
        "velocity": 0,
        "subtype": "noteOff"
      },
      {
        "deltaTime": 0,
        "channel": 0,
        "type": "channel",
        "noteNumber": 70,
        "velocity": 127,
        "subtype": "noteOn"
      },
      {
        "deltaTime": 0,
        "channel": 0,
        "type": "channel",
        "noteNumber": 63,
        "velocity": 127,
        "subtype": "noteOn"
      },
      {
        "deltaTime": 960,
        "channel": 0,
        "type": "channel",
        "noteNumber": 63,
        "velocity": 0,
        "subtype": "noteOff"
      },
      {
        "deltaTime": 0,
        "channel": 0,
        "type": "channel",
        "noteNumber": 70,
        "velocity": 0,
        "subtype": "noteOff"
      },
      {
        "deltaTime": 0,
        "channel": 0,
        "type": "channel",
        "noteNumber": 68,
        "velocity": 127,
        "subtype": "noteOn"
      },
      {
        "deltaTime": 0,
        "channel": 0,
        "type": "channel",
        "noteNumber": 63,
        "velocity": 127,
        "subtype": "noteOn"
      },
      {
        "deltaTime": 480,
        "channel": 0,
        "type": "channel",
        "noteNumber": 63,
        "velocity": 0,
        "subtype": "noteOff"
      },
      {
        "deltaTime": 0,
        "channel": 0,
        "type": "channel",
        "noteNumber": 68,
        "velocity": 0,
        "subtype": "noteOff"
      },
      {
        "deltaTime": 0,
        "channel": 0,
        "type": "channel",
        "noteNumber": 63,
        "velocity": 127,
        "subtype": "noteOn"
      },
      {
        "deltaTime": 0,
        "channel": 0,
        "type": "channel",
        "noteNumber": 67,
        "velocity": 127,
        "subtype": "noteOn"
      },
      {
        "deltaTime": 480,
        "channel": 0,
        "type": "channel",
        "noteNumber": 67,
        "velocity": 0,
        "subtype": "noteOff"
      },
      {
        "deltaTime": 0,
        "channel": 0,
        "type": "channel",
        "noteNumber": 63,
        "velocity": 0,
        "subtype": "noteOff"
      },
      {
        "deltaTime": 0,
        "channel": 0,
        "type": "channel",
        "noteNumber": 62,
        "velocity": 127,
        "subtype": "noteOn"
      },
      {
        "deltaTime": 0,
        "channel": 0,
        "type": "channel",
        "noteNumber": 65,
        "velocity": 127,
        "subtype": "noteOn"
      },
      {
        "deltaTime": 480,
        "channel": 0,
        "type": "channel",
        "noteNumber": 65,
        "velocity": 0,
        "subtype": "noteOff"
      },
      {
        "deltaTime": 0,
        "channel": 0,
        "type": "channel",
        "noteNumber": 62,
        "velocity": 0,
        "subtype": "noteOff"
      },
      {
        "deltaTime": 0,
        "channel": 0,
        "type": "channel",
        "noteNumber": 65,
        "velocity": 127,
        "subtype": "noteOn"
      },
      {
        "deltaTime": 0,
        "channel": 0,
        "type": "channel",
        "noteNumber": 62,
        "velocity": 127,
        "subtype": "noteOn"
      },
      {
        "deltaTime": 1440,
        "channel": 0,
        "type": "channel",
        "noteNumber": 62,
        "velocity": 0,
        "subtype": "noteOff"
      },
      {
        "deltaTime": 0,
        "channel": 0,
        "type": "channel",
        "noteNumber": 65,
        "velocity": 0,
        "subtype": "noteOff"
      },
      {
        "deltaTime": 960,
        "channel": 0,
        "type": "channel",
        "noteNumber": 63,
        "velocity": 127,
        "subtype": "noteOn"
      },
      {
        "deltaTime": 240,
        "channel": 0,
        "type": "channel",
        "noteNumber": 63,
        "velocity": 0,
        "subtype": "noteOff"
      },
      {
        "deltaTime": 0,
        "channel": 0,
        "type": "channel",
        "noteNumber": 65,
        "velocity": 127,
        "subtype": "noteOn"
      },
      {
        "deltaTime": 1200,
        "channel": 0,
        "type": "channel",
        "noteNumber": 65,
        "velocity": 0,
        "subtype": "noteOff"
      },
      {
        "deltaTime": 0,
        "channel": 0,
        "type": "channel",
        "noteNumber": 67,
        "velocity": 127,
        "subtype": "noteOn"
      },
      {
        "deltaTime": 1440,
        "channel": 0,
        "type": "channel",
        "noteNumber": 67,
        "velocity": 0,
        "subtype": "noteOff"
      },
      {
        "deltaTime": 0,
        "channel": 0,
        "type": "channel",
        "noteNumber": 58,
        "velocity": 127,
        "subtype": "noteOn"
      },
      {
        "deltaTime": 1440,
        "channel": 0,
        "type": "channel",
        "noteNumber": 58,
        "velocity": 0,
        "subtype": "noteOff"
      },
      {
        "deltaTime": 0,
        "channel": 0,
        "type": "channel",
        "noteNumber": 65,
        "velocity": 127,
        "subtype": "noteOn"
      },
      {
        "deltaTime": 1440,
        "channel": 0,
        "type": "channel",
        "noteNumber": 65,
        "velocity": 0,
        "subtype": "noteOff"
      },
      {
        "deltaTime": 960,
        "channel": 0,
        "type": "channel",
        "noteNumber": 70,
        "velocity": 127,
        "subtype": "noteOn"
      },
      {
        "deltaTime": 1920,
        "channel": 0,
        "type": "channel",
        "noteNumber": 70,
        "velocity": 0,
        "subtype": "noteOff"
      },
      {
        "deltaTime": 0,
        "channel": 0,
        "type": "channel",
        "noteNumber": 68,
        "velocity": 127,
        "subtype": "noteOn"
      },
      {
        "deltaTime": 720,
        "channel": 0,
        "type": "channel",
        "noteNumber": 68,
        "velocity": 0,
        "subtype": "noteOff"
      },
      {
        "deltaTime": 0,
        "channel": 0,
        "type": "channel",
        "noteNumber": 67,
        "velocity": 127,
        "subtype": "noteOn"
      },
      {
        "deltaTime": 720,
        "channel": 0,
        "type": "channel",
        "noteNumber": 67,
        "velocity": 0,
        "subtype": "noteOff"
      },
      {
        "deltaTime": 0,
        "channel": 0,
        "type": "channel",
        "noteNumber": 65,
        "velocity": 127,
        "subtype": "noteOn"
      },
      {
        "deltaTime": 1920,
        "channel": 0,
        "type": "channel",
        "noteNumber": 65,
        "velocity": 0,
        "subtype": "noteOff"
      },
      {
        "deltaTime": 0,
        "channel": 0,
        "type": "channel",
        "noteNumber": 63,
        "velocity": 127,
        "subtype": "noteOn"
      },
      {
        "deltaTime": 480,
        "channel": 0,
        "type": "channel",
        "noteNumber": 63,
        "velocity": 0,
        "subtype": "noteOff"
      },
      {
        "deltaTime": 0,
        "channel": 0,
        "type": "channel",
        "noteNumber": 65,
        "velocity": 127,
        "subtype": "noteOn"
      },
      {
        "deltaTime": 1920,
        "channel": 0,
        "type": "channel",
        "noteNumber": 65,
        "velocity": 0,
        "subtype": "noteOff"
      },
      {
        "deltaTime": 480,
        "channel": 0,
        "type": "channel",
        "noteNumber": 63,
        "velocity": 127,
        "subtype": "noteOn"
      },
      {
        "deltaTime": 480,
        "channel": 0,
        "type": "channel",
        "noteNumber": 63,
        "velocity": 0,
        "subtype": "noteOff"
      },
      {
        "deltaTime": 0,
        "channel": 0,
        "type": "channel",
        "noteNumber": 67,
        "velocity": 127,
        "subtype": "noteOn"
      },
      {
        "deltaTime": 1920,
        "channel": 0,
        "type": "channel",
        "noteNumber": 67,
        "velocity": 0,
        "subtype": "noteOff"
      },
      {
        "deltaTime": 0,
        "channel": 0,
        "type": "channel",
        "noteNumber": 63,
        "velocity": 127,
        "subtype": "noteOn"
      },
      {
        "deltaTime": 960,
        "channel": 0,
        "type": "channel",
        "noteNumber": 63,
        "velocity": 0,
        "subtype": "noteOff"
      },
      {
        "deltaTime": 0,
        "channel": 0,
        "type": "channel",
        "noteNumber": 70,
        "velocity": 127,
        "subtype": "noteOn"
      },
      {
        "deltaTime": 1920,
        "channel": 0,
        "type": "channel",
        "noteNumber": 70,
        "velocity": 0,
        "subtype": "noteOff"
      },
      {
        "deltaTime": 0,
        "channel": 0,
        "type": "channel",
        "noteNumber": 68,
        "velocity": 127,
        "subtype": "noteOn"
      },
      {
        "deltaTime": 720,
        "channel": 0,
        "type": "channel",
        "noteNumber": 68,
        "velocity": 0,
        "subtype": "noteOff"
      },
      {
        "deltaTime": 0,
        "channel": 0,
        "type": "channel",
        "noteNumber": 67,
        "velocity": 127,
        "subtype": "noteOn"
      },
      {
        "deltaTime": 720,
        "channel": 0,
        "type": "channel",
        "noteNumber": 67,
        "velocity": 0,
        "subtype": "noteOff"
      },
      {
        "deltaTime": 0,
        "channel": 0,
        "type": "channel",
        "noteNumber": 65,
        "velocity": 127,
        "subtype": "noteOn"
      },
      {
        "deltaTime": 1440,
        "channel": 0,
        "type": "channel",
        "noteNumber": 65,
        "velocity": 0,
        "subtype": "noteOff"
      },
      {
        "deltaTime": 0,
        "channel": 0,
        "type": "channel",
        "noteNumber": 63,
        "velocity": 127,
        "subtype": "noteOn"
      },
      {
        "deltaTime": 960,
        "channel": 0,
        "type": "channel",
        "noteNumber": 63,
        "velocity": 0,
        "subtype": "noteOff"
      },
      {
        "deltaTime": 0,
        "channel": 0,
        "type": "channel",
        "noteNumber": 62,
        "velocity": 127,
        "subtype": "noteOn"
      },
      {
        "deltaTime": 960,
        "channel": 0,
        "type": "channel",
        "noteNumber": 62,
        "velocity": 0,
        "subtype": "noteOff"
      },
      {
        "deltaTime": 960,
        "channel": 0,
        "type": "channel",
        "noteNumber": 65,
        "velocity": 127,
        "subtype": "noteOn"
      },
      {
        "deltaTime": 480,
        "channel": 0,
        "type": "channel",
        "noteNumber": 65,
        "velocity": 0,
        "subtype": "noteOff"
      },
      {
        "deltaTime": 0,
        "channel": 0,
        "type": "channel",
        "noteNumber": 67,
        "velocity": 127,
        "subtype": "noteOn"
      },
      {
        "deltaTime": 960,
        "channel": 0,
        "type": "channel",
        "noteNumber": 67,
        "velocity": 0,
        "subtype": "noteOff"
      },
      {
        "deltaTime": 0,
        "channel": 0,
        "type": "channel",
        "noteNumber": 65,
        "velocity": 127,
        "subtype": "noteOn"
      },
      {
        "deltaTime": 480,
        "channel": 0,
        "type": "channel",
        "noteNumber": 65,
        "velocity": 0,
        "subtype": "noteOff"
      },
      {
        "deltaTime": 0,
        "channel": 0,
        "type": "channel",
        "noteNumber": 63,
        "velocity": 127,
        "subtype": "noteOn"
      },
      {
        "deltaTime": 960,
        "channel": 0,
        "type": "channel",
        "noteNumber": 63,
        "velocity": 0,
        "subtype": "noteOff"
      },
      {
        "deltaTime": 0,
        "channel": 0,
        "type": "channel",
        "noteNumber": 63,
        "velocity": 127,
        "subtype": "noteOn"
      },
      {
        "deltaTime": 960,
        "channel": 0,
        "type": "channel",
        "noteNumber": 63,
        "velocity": 0,
        "subtype": "noteOff"
      },
      {
        "deltaTime": 0,
        "channel": 0,
        "type": "channel",
        "noteNumber": 63,
        "velocity": 127,
        "subtype": "noteOn"
      },
      {
        "deltaTime": 1920,
        "channel": 0,
        "type": "channel",
        "noteNumber": 63,
        "velocity": 0,
        "subtype": "noteOff"
      },
      {
        "deltaTime": 960,
        "channel": 0,
        "type": "channel",
        "noteNumber": 65,
        "velocity": 127,
        "subtype": "noteOn"
      },
      {
        "deltaTime": 480,
        "channel": 0,
        "type": "channel",
        "noteNumber": 65,
        "velocity": 0,
        "subtype": "noteOff"
      },
      {
        "deltaTime": 0,
        "channel": 0,
        "type": "channel",
        "noteNumber": 68,
        "velocity": 127,
        "subtype": "noteOn"
      },
      {
        "deltaTime": 480,
        "channel": 0,
        "type": "channel",
        "noteNumber": 68,
        "velocity": 0,
        "subtype": "noteOff"
      },
      {
        "deltaTime": 0,
        "channel": 0,
        "type": "channel",
        "noteNumber": 67,
        "velocity": 127,
        "subtype": "noteOn"
      },
      {
        "deltaTime": 960,
        "channel": 0,
        "type": "channel",
        "noteNumber": 67,
        "velocity": 0,
        "subtype": "noteOff"
      },
      {
        "deltaTime": 0,
        "channel": 0,
        "type": "channel",
        "noteNumber": 63,
        "velocity": 127,
        "subtype": "noteOn"
      },
      {
        "deltaTime": 960,
        "channel": 0,
        "type": "channel",
        "noteNumber": 63,
        "velocity": 0,
        "subtype": "noteOff"
      },
      {
        "deltaTime": 0,
        "channel": 0,
        "type": "channel",
        "noteNumber": 65,
        "velocity": 127,
        "subtype": "noteOn"
      },
      {
        "deltaTime": 960,
        "channel": 0,
        "type": "channel",
        "noteNumber": 65,
        "velocity": 0,
        "subtype": "noteOff"
      },
      {
        "deltaTime": 1920,
        "channel": 0,
        "type": "channel",
        "noteNumber": 63,
        "velocity": 127,
        "subtype": "noteOn"
      },
      {
        "deltaTime": 960,
        "channel": 0,
        "type": "channel",
        "noteNumber": 63,
        "velocity": 0,
        "subtype": "noteOff"
      },
      {
        "deltaTime": 960,
        "channel": 0,
        "type": "channel",
        "noteNumber": 70,
        "velocity": 127,
        "subtype": "noteOn"
      },
      {
        "deltaTime": 960,
        "channel": 0,
        "type": "channel",
        "noteNumber": 70,
        "velocity": 0,
        "subtype": "noteOff"
      },
      {
        "deltaTime": 0,
        "channel": 0,
        "type": "channel",
        "noteNumber": 67,
        "velocity": 127,
        "subtype": "noteOn"
      },
      {
        "deltaTime": 960,
        "channel": 0,
        "type": "channel",
        "noteNumber": 67,
        "velocity": 0,
        "subtype": "noteOff"
      },
      {
        "deltaTime": 480,
        "channel": 0,
        "type": "channel",
        "noteNumber": 63,
        "velocity": 127,
        "subtype": "noteOn"
      },
      {
        "deltaTime": 480,
        "channel": 0,
        "type": "channel",
        "noteNumber": 63,
        "velocity": 0,
        "subtype": "noteOff"
      },
      {
        "deltaTime": 0,
        "channel": 0,
        "type": "channel",
        "noteNumber": 65,
        "velocity": 127,
        "subtype": "noteOn"
      },
      {
        "deltaTime": 480,
        "channel": 0,
        "type": "channel",
        "noteNumber": 65,
        "velocity": 0,
        "subtype": "noteOff"
      },
      {
        "deltaTime": 0,
        "channel": 0,
        "type": "channel",
        "noteNumber": 67,
        "velocity": 127,
        "subtype": "noteOn"
      },
      {
        "deltaTime": 480,
        "channel": 0,
        "type": "channel",
        "noteNumber": 67,
        "velocity": 0,
        "subtype": "noteOff"
      },
      {
        "deltaTime": 0,
        "channel": 0,
        "type": "channel",
        "noteNumber": 67,
        "velocity": 127,
        "subtype": "noteOn"
      },
      {
        "deltaTime": 480,
        "channel": 0,
        "type": "channel",
        "noteNumber": 67,
        "velocity": 0,
        "subtype": "noteOff"
      },
      {
        "deltaTime": 0,
        "channel": 0,
        "type": "channel",
        "noteNumber": 63,
        "velocity": 127,
        "subtype": "noteOn"
      },
      {
        "deltaTime": 480,
        "channel": 0,
        "type": "channel",
        "noteNumber": 63,
        "velocity": 0,
        "subtype": "noteOff"
      },
      {
        "deltaTime": 0,
        "channel": 0,
        "type": "channel",
        "noteNumber": 63,
        "velocity": 127,
        "subtype": "noteOn"
      },
      {
        "deltaTime": 960,
        "channel": 0,
        "type": "channel",
        "noteNumber": 63,
        "velocity": 0,
        "subtype": "noteOff"
      },
      {
        "deltaTime": 0,
        "channel": 0,
        "type": "channel",
        "noteNumber": 67,
        "velocity": 127,
        "subtype": "noteOn"
      },
      {
        "deltaTime": 960,
        "channel": 0,
        "type": "channel",
        "noteNumber": 67,
        "velocity": 0,
        "subtype": "noteOff"
      },
      {
        "deltaTime": 960,
        "channel": 0,
        "type": "channel",
        "noteNumber": 70,
        "velocity": 127,
        "subtype": "noteOn"
      },
      {
        "deltaTime": 960,
        "channel": 0,
        "type": "channel",
        "noteNumber": 70,
        "velocity": 0,
        "subtype": "noteOff"
      },
      {
        "deltaTime": 0,
        "channel": 0,
        "type": "channel",
        "noteNumber": 67,
        "velocity": 127,
        "subtype": "noteOn"
      },
      {
        "deltaTime": 960,
        "channel": 0,
        "type": "channel",
        "noteNumber": 67,
        "velocity": 0,
        "subtype": "noteOff"
      },
      {
        "deltaTime": 960,
        "channel": 0,
        "type": "channel",
        "noteNumber": 70,
        "velocity": 127,
        "subtype": "noteOn"
      },
      {
        "deltaTime": 960,
        "channel": 0,
        "type": "channel",
        "noteNumber": 70,
        "velocity": 0,
        "subtype": "noteOff"
      },
      {
        "deltaTime": 0,
        "channel": 0,
        "type": "channel",
        "noteNumber": 75,
        "velocity": 127,
        "subtype": "noteOn"
      },
      {
        "deltaTime": 960,
        "channel": 0,
        "type": "channel",
        "noteNumber": 75,
        "velocity": 0,
        "subtype": "noteOff"
      },
      {
        "deltaTime": 0,
        "channel": 0,
        "type": "channel",
        "noteNumber": 68,
        "velocity": 127,
        "subtype": "noteOn"
      },
      {
        "deltaTime": 240,
        "channel": 0,
        "type": "channel",
        "noteNumber": 68,
        "velocity": 0,
        "subtype": "noteOff"
      },
      {
        "deltaTime": 0,
        "channel": 0,
        "type": "channel",
        "noteNumber": 70,
        "velocity": 127,
        "subtype": "noteOn"
      },
      {
        "deltaTime": 1680,
        "channel": 0,
        "type": "channel",
        "noteNumber": 70,
        "velocity": 0,
        "subtype": "noteOff"
      },
      {
        "deltaTime": 0,
        "channel": 0,
        "type": "channel",
        "noteNumber": 68,
        "velocity": 127,
        "subtype": "noteOn"
      },
      {
        "deltaTime": 480,
        "channel": 0,
        "type": "channel",
        "noteNumber": 68,
        "velocity": 0,
        "subtype": "noteOff"
      },
      {
        "deltaTime": 0,
        "channel": 0,
        "type": "channel",
        "noteNumber": 67,
        "velocity": 127,
        "subtype": "noteOn"
      },
      {
        "deltaTime": 480,
        "channel": 0,
        "type": "channel",
        "noteNumber": 67,
        "velocity": 0,
        "subtype": "noteOff"
      },
      {
        "deltaTime": 0,
        "channel": 0,
        "type": "channel",
        "noteNumber": 65,
        "velocity": 127,
        "subtype": "noteOn"
      },
      {
        "deltaTime": 1920,
        "channel": 0,
        "type": "channel",
        "noteNumber": 65,
        "velocity": 0,
        "subtype": "noteOff"
      },
      {
        "deltaTime": 0,
        "channel": 0,
        "type": "channel",
        "noteNumber": 65,
        "velocity": 127,
        "subtype": "noteOn"
      },
      {
        "deltaTime": 240,
        "channel": 0,
        "type": "channel",
        "noteNumber": 65,
        "velocity": 0,
        "subtype": "noteOff"
      },
      {
        "deltaTime": 0,
        "channel": 0,
        "type": "channel",
        "noteNumber": 67,
        "velocity": 127,
        "subtype": "noteOn"
      },
      {
        "deltaTime": 720,
        "channel": 0,
        "type": "channel",
        "noteNumber": 67,
        "velocity": 0,
        "subtype": "noteOff"
      },
      {
        "deltaTime": 0,
        "channel": 0,
        "type": "channel",
        "noteNumber": 58,
        "velocity": 127,
        "subtype": "noteOn"
      },
      {
        "deltaTime": 1440,
        "channel": 0,
        "type": "channel",
        "noteNumber": 58,
        "velocity": 0,
        "subtype": "noteOff"
      },
      {
        "deltaTime": 480,
        "channel": 0,
        "type": "channel",
        "noteNumber": 67,
        "velocity": 127,
        "subtype": "noteOn"
      },
      {
        "deltaTime": 480,
        "channel": 0,
        "type": "channel",
        "noteNumber": 67,
        "velocity": 0,
        "subtype": "noteOff"
      },
      {
        "deltaTime": 0,
        "channel": 0,
        "type": "channel",
        "noteNumber": 65,
        "velocity": 127,
        "subtype": "noteOn"
      },
      {
        "deltaTime": 480,
        "channel": 0,
        "type": "channel",
        "noteNumber": 65,
        "velocity": 0,
        "subtype": "noteOff"
      },
      {
        "deltaTime": 0,
        "channel": 0,
        "type": "channel",
        "noteNumber": 65,
        "velocity": 127,
        "subtype": "noteOn"
      },
      {
        "deltaTime": 1920,
        "channel": 0,
        "type": "channel",
        "noteNumber": 65,
        "velocity": 0,
        "subtype": "noteOff"
      },
      {
        "deltaTime": 0,
        "channel": 0,
        "type": "channel",
        "noteNumber": 63,
        "velocity": 127,
        "subtype": "noteOn"
      },
      {
        "deltaTime": 960,
        "channel": 0,
        "type": "channel",
        "noteNumber": 63,
        "velocity": 0,
        "subtype": "noteOff"
      },
      {
        "deltaTime": 0,
        "channel": 0,
        "type": "channel",
        "noteNumber": 68,
        "velocity": 127,
        "subtype": "noteOn"
      },
      {
        "deltaTime": 240,
        "channel": 0,
        "type": "channel",
        "noteNumber": 68,
        "velocity": 0,
        "subtype": "noteOff"
      },
      {
        "deltaTime": 0,
        "channel": 0,
        "type": "channel",
        "noteNumber": 70,
        "velocity": 127,
        "subtype": "noteOn"
      },
      {
        "deltaTime": 1680,
        "channel": 0,
        "type": "channel",
        "noteNumber": 70,
        "velocity": 0,
        "subtype": "noteOff"
      },
      {
        "deltaTime": 0,
        "channel": 0,
        "type": "channel",
        "noteNumber": 68,
        "velocity": 127,
        "subtype": "noteOn"
      },
      {
        "deltaTime": 480,
        "channel": 0,
        "type": "channel",
        "noteNumber": 68,
        "velocity": 0,
        "subtype": "noteOff"
      },
      {
        "deltaTime": 0,
        "channel": 0,
        "type": "channel",
        "noteNumber": 67,
        "velocity": 127,
        "subtype": "noteOn"
      },
      {
        "deltaTime": 480,
        "channel": 0,
        "type": "channel",
        "noteNumber": 67,
        "velocity": 0,
        "subtype": "noteOff"
      },
      {
        "deltaTime": 0,
        "channel": 0,
        "type": "channel",
        "noteNumber": 65,
        "velocity": 127,
        "subtype": "noteOn"
      },
      {
        "deltaTime": 1920,
        "channel": 0,
        "type": "channel",
        "noteNumber": 65,
        "velocity": 0,
        "subtype": "noteOff"
      },
      {
        "deltaTime": 0,
        "channel": 0,
        "type": "channel",
        "noteNumber": 65,
        "velocity": 127,
        "subtype": "noteOn"
      },
      {
        "deltaTime": 240,
        "channel": 0,
        "type": "channel",
        "noteNumber": 65,
        "velocity": 0,
        "subtype": "noteOff"
      },
      {
        "deltaTime": 0,
        "channel": 0,
        "type": "channel",
        "noteNumber": 67,
        "velocity": 127,
        "subtype": "noteOn"
      },
      {
        "deltaTime": 720,
        "channel": 0,
        "type": "channel",
        "noteNumber": 67,
        "velocity": 0,
        "subtype": "noteOff"
      },
      {
        "deltaTime": 0,
        "channel": 0,
        "type": "channel",
        "noteNumber": 58,
        "velocity": 127,
        "subtype": "noteOn"
      },
      {
        "deltaTime": 1440,
        "channel": 0,
        "type": "channel",
        "noteNumber": 58,
        "velocity": 0,
        "subtype": "noteOff"
      },
      {
        "deltaTime": 480,
        "channel": 0,
        "type": "channel",
        "noteNumber": 67,
        "velocity": 127,
        "subtype": "noteOn"
      },
      {
        "deltaTime": 480,
        "channel": 0,
        "type": "channel",
        "noteNumber": 67,
        "velocity": 0,
        "subtype": "noteOff"
      },
      {
        "deltaTime": 0,
        "channel": 0,
        "type": "channel",
        "noteNumber": 65,
        "velocity": 127,
        "subtype": "noteOn"
      },
      {
        "deltaTime": 480,
        "channel": 0,
        "type": "channel",
        "noteNumber": 65,
        "velocity": 0,
        "subtype": "noteOff"
      },
      {
        "deltaTime": 0,
        "channel": 0,
        "type": "channel",
        "noteNumber": 70,
        "velocity": 127,
        "subtype": "noteOn"
      },
      {
        "deltaTime": 1920,
        "channel": 0,
        "type": "channel",
        "noteNumber": 70,
        "velocity": 0,
        "subtype": "noteOff"
      },
      {
        "deltaTime": 960,
        "channel": 0,
        "type": "channel",
        "noteNumber": 58,
        "velocity": 127,
        "subtype": "noteOn"
      },
      {
        "deltaTime": 0,
        "channel": 0,
        "type": "channel",
        "noteNumber": 63,
        "velocity": 127,
        "subtype": "noteOn"
      },
      {
        "deltaTime": 0,
        "channel": 0,
        "type": "channel",
        "noteNumber": 70,
        "velocity": 127,
        "subtype": "noteOn"
      },
      {
        "deltaTime": 960,
        "channel": 0,
        "type": "channel",
        "noteNumber": 70,
        "velocity": 0,
        "subtype": "noteOff"
      },
      {
        "deltaTime": 0,
        "channel": 0,
        "type": "channel",
        "noteNumber": 63,
        "velocity": 0,
        "subtype": "noteOff"
      },
      {
        "deltaTime": 0,
        "channel": 0,
        "type": "channel",
        "noteNumber": 58,
        "velocity": 0,
        "subtype": "noteOff"
      },
      {
        "deltaTime": 0,
        "channel": 0,
        "type": "channel",
        "noteNumber": 55,
        "velocity": 127,
        "subtype": "noteOn"
      },
      {
        "deltaTime": 0,
        "channel": 0,
        "type": "channel",
        "noteNumber": 60,
        "velocity": 127,
        "subtype": "noteOn"
      },
      {
        "deltaTime": 0,
        "channel": 0,
        "type": "channel",
        "noteNumber": 67,
        "velocity": 127,
        "subtype": "noteOn"
      },
      {
        "deltaTime": 480,
        "channel": 0,
        "type": "channel",
        "noteNumber": 67,
        "velocity": 0,
        "subtype": "noteOff"
      },
      {
        "deltaTime": 0,
        "channel": 0,
        "type": "channel",
        "noteNumber": 60,
        "velocity": 0,
        "subtype": "noteOff"
      },
      {
        "deltaTime": 0,
        "channel": 0,
        "type": "channel",
        "noteNumber": 55,
        "velocity": 0,
        "subtype": "noteOff"
      },
      {
        "deltaTime": 0,
        "channel": 0,
        "type": "channel",
        "noteNumber": 60,
        "velocity": 127,
        "subtype": "noteOn"
      },
      {
        "deltaTime": 0,
        "channel": 0,
        "type": "channel",
        "noteNumber": 65,
        "velocity": 127,
        "subtype": "noteOn"
      },
      {
        "deltaTime": 0,
        "channel": 0,
        "type": "channel",
        "noteNumber": 72,
        "velocity": 127,
        "subtype": "noteOn"
      },
      {
        "deltaTime": 480,
        "channel": 0,
        "type": "channel",
        "noteNumber": 72,
        "velocity": 0,
        "subtype": "noteOff"
      },
      {
        "deltaTime": 0,
        "channel": 0,
        "type": "channel",
        "noteNumber": 65,
        "velocity": 0,
        "subtype": "noteOff"
      },
      {
        "deltaTime": 0,
        "channel": 0,
        "type": "channel",
        "noteNumber": 60,
        "velocity": 0,
        "subtype": "noteOff"
      },
      {
        "deltaTime": 0,
        "channel": 0,
        "type": "channel",
        "noteNumber": 58,
        "velocity": 127,
        "subtype": "noteOn"
      },
      {
        "deltaTime": 0,
        "channel": 0,
        "type": "channel",
        "noteNumber": 63,
        "velocity": 127,
        "subtype": "noteOn"
      },
      {
        "deltaTime": 0,
        "channel": 0,
        "type": "channel",
        "noteNumber": 70,
        "velocity": 127,
        "subtype": "noteOn"
      },
      {
        "deltaTime": 960,
        "channel": 0,
        "type": "channel",
        "noteNumber": 70,
        "velocity": 0,
        "subtype": "noteOff"
      },
      {
        "deltaTime": 0,
        "channel": 0,
        "type": "channel",
        "noteNumber": 63,
        "velocity": 0,
        "subtype": "noteOff"
      },
      {
        "deltaTime": 0,
        "channel": 0,
        "type": "channel",
        "noteNumber": 58,
        "velocity": 0,
        "subtype": "noteOff"
      },
      {
        "deltaTime": 0,
        "channel": 0,
        "type": "channel",
        "noteNumber": 51,
        "velocity": 127,
        "subtype": "noteOn"
      },
      {
        "deltaTime": 0,
        "channel": 0,
        "type": "channel",
        "noteNumber": 58,
        "velocity": 127,
        "subtype": "noteOn"
      },
      {
        "deltaTime": 0,
        "channel": 0,
        "type": "channel",
        "noteNumber": 63,
        "velocity": 127,
        "subtype": "noteOn"
      },
      {
        "deltaTime": 480,
        "channel": 0,
        "type": "channel",
        "noteNumber": 63,
        "velocity": 0,
        "subtype": "noteOff"
      },
      {
        "deltaTime": 0,
        "channel": 0,
        "type": "channel",
        "noteNumber": 58,
        "velocity": 0,
        "subtype": "noteOff"
      },
      {
        "deltaTime": 0,
        "channel": 0,
        "type": "channel",
        "noteNumber": 51,
        "velocity": 0,
        "subtype": "noteOff"
      },
      {
        "deltaTime": 0,
        "channel": 0,
        "type": "channel",
        "noteNumber": 51,
        "velocity": 127,
        "subtype": "noteOn"
      },
      {
        "deltaTime": 0,
        "channel": 0,
        "type": "channel",
        "noteNumber": 58,
        "velocity": 127,
        "subtype": "noteOn"
      },
      {
        "deltaTime": 0,
        "channel": 0,
        "type": "channel",
        "noteNumber": 63,
        "velocity": 127,
        "subtype": "noteOn"
      },
      {
        "deltaTime": 480,
        "channel": 0,
        "type": "channel",
        "noteNumber": 63,
        "velocity": 0,
        "subtype": "noteOff"
      },
      {
        "deltaTime": 0,
        "channel": 0,
        "type": "channel",
        "noteNumber": 58,
        "velocity": 0,
        "subtype": "noteOff"
      },
      {
        "deltaTime": 0,
        "channel": 0,
        "type": "channel",
        "noteNumber": 51,
        "velocity": 0,
        "subtype": "noteOff"
      },
      {
        "deltaTime": 0,
        "channel": 0,
        "type": "channel",
        "noteNumber": 58,
        "velocity": 127,
        "subtype": "noteOn"
      },
      {
        "deltaTime": 0,
        "channel": 0,
        "type": "channel",
        "noteNumber": 63,
        "velocity": 127,
        "subtype": "noteOn"
      },
      {
        "deltaTime": 0,
        "channel": 0,
        "type": "channel",
        "noteNumber": 70,
        "velocity": 127,
        "subtype": "noteOn"
      },
      {
        "deltaTime": 960,
        "channel": 0,
        "type": "channel",
        "noteNumber": 70,
        "velocity": 0,
        "subtype": "noteOff"
      },
      {
        "deltaTime": 0,
        "channel": 0,
        "type": "channel",
        "noteNumber": 63,
        "velocity": 0,
        "subtype": "noteOff"
      },
      {
        "deltaTime": 0,
        "channel": 0,
        "type": "channel",
        "noteNumber": 58,
        "velocity": 0,
        "subtype": "noteOff"
      },
      {
        "deltaTime": 0,
        "channel": 0,
        "type": "channel",
        "noteNumber": 56,
        "velocity": 127,
        "subtype": "noteOn"
      },
      {
        "deltaTime": 0,
        "channel": 0,
        "type": "channel",
        "noteNumber": 63,
        "velocity": 127,
        "subtype": "noteOn"
      },
      {
        "deltaTime": 0,
        "channel": 0,
        "type": "channel",
        "noteNumber": 68,
        "velocity": 127,
        "subtype": "noteOn"
      },
      {
        "deltaTime": 480,
        "channel": 0,
        "type": "channel",
        "noteNumber": 68,
        "velocity": 0,
        "subtype": "noteOff"
      },
      {
        "deltaTime": 0,
        "channel": 0,
        "type": "channel",
        "noteNumber": 63,
        "velocity": 0,
        "subtype": "noteOff"
      },
      {
        "deltaTime": 0,
        "channel": 0,
        "type": "channel",
        "noteNumber": 56,
        "velocity": 0,
        "subtype": "noteOff"
      },
      {
        "deltaTime": 0,
        "channel": 0,
        "type": "channel",
        "noteNumber": 55,
        "velocity": 127,
        "subtype": "noteOn"
      },
      {
        "deltaTime": 0,
        "channel": 0,
        "type": "channel",
        "noteNumber": 63,
        "velocity": 127,
        "subtype": "noteOn"
      },
      {
        "deltaTime": 0,
        "channel": 0,
        "type": "channel",
        "noteNumber": 67,
        "velocity": 127,
        "subtype": "noteOn"
      },
      {
        "deltaTime": 480,
        "channel": 0,
        "type": "channel",
        "noteNumber": 67,
        "velocity": 0,
        "subtype": "noteOff"
      },
      {
        "deltaTime": 0,
        "channel": 0,
        "type": "channel",
        "noteNumber": 63,
        "velocity": 0,
        "subtype": "noteOff"
      },
      {
        "deltaTime": 0,
        "channel": 0,
        "type": "channel",
        "noteNumber": 55,
        "velocity": 0,
        "subtype": "noteOff"
      },
      {
        "deltaTime": 0,
        "channel": 0,
        "type": "channel",
        "noteNumber": 53,
        "velocity": 127,
        "subtype": "noteOn"
      },
      {
        "deltaTime": 0,
        "channel": 0,
        "type": "channel",
        "noteNumber": 62,
        "velocity": 127,
        "subtype": "noteOn"
      },
      {
        "deltaTime": 0,
        "channel": 0,
        "type": "channel",
        "noteNumber": 65,
        "velocity": 127,
        "subtype": "noteOn"
      },
      {
        "deltaTime": 480,
        "channel": 0,
        "type": "channel",
        "noteNumber": 65,
        "velocity": 0,
        "subtype": "noteOff"
      },
      {
        "deltaTime": 0,
        "channel": 0,
        "type": "channel",
        "noteNumber": 62,
        "velocity": 0,
        "subtype": "noteOff"
      },
      {
        "deltaTime": 0,
        "channel": 0,
        "type": "channel",
        "noteNumber": 53,
        "velocity": 0,
        "subtype": "noteOff"
      },
      {
        "deltaTime": 0,
        "channel": 0,
        "type": "channel",
        "noteNumber": 53,
        "velocity": 127,
        "subtype": "noteOn"
      },
      {
        "deltaTime": 0,
        "channel": 0,
        "type": "channel",
        "noteNumber": 62,
        "velocity": 127,
        "subtype": "noteOn"
      },
      {
        "deltaTime": 0,
        "channel": 0,
        "type": "channel",
        "noteNumber": 65,
        "velocity": 127,
        "subtype": "noteOn"
      },
      {
        "deltaTime": 1440,
        "channel": 0,
        "type": "channel",
        "noteNumber": 65,
        "velocity": 0,
        "subtype": "noteOff"
      },
      {
        "deltaTime": 0,
        "channel": 0,
        "type": "channel",
        "noteNumber": 62,
        "velocity": 0,
        "subtype": "noteOff"
      },
      {
        "deltaTime": 0,
        "channel": 0,
        "type": "channel",
        "noteNumber": 53,
        "velocity": 0,
        "subtype": "noteOff"
      },
      {
        "deltaTime": 960,
        "channel": 0,
        "type": "channel",
        "noteNumber": 60,
        "velocity": 127,
        "subtype": "noteOn"
      },
      {
        "deltaTime": 0,
        "channel": 0,
        "type": "channel",
        "noteNumber": 63,
        "velocity": 127,
        "subtype": "noteOn"
      },
      {
        "deltaTime": 240,
        "channel": 0,
        "type": "channel",
        "noteNumber": 63,
        "velocity": 0,
        "subtype": "noteOff"
      },
      {
        "deltaTime": 0,
        "channel": 0,
        "type": "channel",
        "noteNumber": 60,
        "velocity": 0,
        "subtype": "noteOff"
      },
      {
        "deltaTime": 0,
        "channel": 0,
        "type": "channel",
        "noteNumber": 62,
        "velocity": 127,
        "subtype": "noteOn"
      },
      {
        "deltaTime": 0,
        "channel": 0,
        "type": "channel",
        "noteNumber": 65,
        "velocity": 127,
        "subtype": "noteOn"
      },
      {
        "deltaTime": 1200,
        "channel": 0,
        "type": "channel",
        "noteNumber": 65,
        "velocity": 0,
        "subtype": "noteOff"
      },
      {
        "deltaTime": 0,
        "channel": 0,
        "type": "channel",
        "noteNumber": 62,
        "velocity": 0,
        "subtype": "noteOff"
      },
      {
        "deltaTime": 0,
        "channel": 0,
        "type": "channel",
        "noteNumber": 63,
        "velocity": 127,
        "subtype": "noteOn"
      },
      {
        "deltaTime": 0,
        "channel": 0,
        "type": "channel",
        "noteNumber": 67,
        "velocity": 127,
        "subtype": "noteOn"
      },
      {
        "deltaTime": 1440,
        "channel": 0,
        "type": "channel",
        "noteNumber": 67,
        "velocity": 0,
        "subtype": "noteOff"
      },
      {
        "deltaTime": 0,
        "channel": 0,
        "type": "channel",
        "noteNumber": 63,
        "velocity": 0,
        "subtype": "noteOff"
      },
      {
        "deltaTime": 0,
        "channel": 0,
        "type": "channel",
        "noteNumber": 67,
        "velocity": 127,
        "subtype": "noteOn"
      },
      {
        "deltaTime": 0,
        "channel": 0,
        "type": "channel",
        "noteNumber": 70,
        "velocity": 127,
        "subtype": "noteOn"
      },
      {
        "deltaTime": 2880,
        "channel": 0,
        "type": "channel",
        "noteNumber": 70,
        "velocity": 0,
        "subtype": "noteOff"
      },
      {
        "deltaTime": 0,
        "channel": 0,
        "type": "channel",
        "noteNumber": 67,
        "velocity": 0,
        "subtype": "noteOff"
      },
      {
        "deltaTime": 960,
        "channel": 0,
        "type": "channel",
        "noteNumber": 63,
        "velocity": 127,
        "subtype": "noteOn"
      },
      {
        "deltaTime": 0,
        "channel": 0,
        "type": "channel",
        "noteNumber": 70,
        "velocity": 127,
        "subtype": "noteOn"
      },
      {
        "deltaTime": 960,
        "channel": 0,
        "type": "channel",
        "noteNumber": 70,
        "velocity": 0,
        "subtype": "noteOff"
      },
      {
        "deltaTime": 0,
        "channel": 0,
        "type": "channel",
        "noteNumber": 63,
        "velocity": 0,
        "subtype": "noteOff"
      },
      {
        "deltaTime": 0,
        "channel": 0,
        "type": "channel",
        "noteNumber": 60,
        "velocity": 127,
        "subtype": "noteOn"
      },
      {
        "deltaTime": 0,
        "channel": 0,
        "type": "channel",
        "noteNumber": 67,
        "velocity": 127,
        "subtype": "noteOn"
      },
      {
        "deltaTime": 480,
        "channel": 0,
        "type": "channel",
        "noteNumber": 67,
        "velocity": 0,
        "subtype": "noteOff"
      },
      {
        "deltaTime": 0,
        "channel": 0,
        "type": "channel",
        "noteNumber": 60,
        "velocity": 0,
        "subtype": "noteOff"
      },
      {
        "deltaTime": 0,
        "channel": 0,
        "type": "channel",
        "noteNumber": 65,
        "velocity": 127,
        "subtype": "noteOn"
      },
      {
        "deltaTime": 0,
        "channel": 0,
        "type": "channel",
        "noteNumber": 72,
        "velocity": 127,
        "subtype": "noteOn"
      },
      {
        "deltaTime": 480,
        "channel": 0,
        "type": "channel",
        "noteNumber": 72,
        "velocity": 0,
        "subtype": "noteOff"
      },
      {
        "deltaTime": 0,
        "channel": 0,
        "type": "channel",
        "noteNumber": 65,
        "velocity": 0,
        "subtype": "noteOff"
      },
      {
        "deltaTime": 0,
        "channel": 0,
        "type": "channel",
        "noteNumber": 63,
        "velocity": 127,
        "subtype": "noteOn"
      },
      {
        "deltaTime": 0,
        "channel": 0,
        "type": "channel",
        "noteNumber": 70,
        "velocity": 127,
        "subtype": "noteOn"
      },
      {
        "deltaTime": 960,
        "channel": 0,
        "type": "channel",
        "noteNumber": 70,
        "velocity": 0,
        "subtype": "noteOff"
      },
      {
        "deltaTime": 0,
        "channel": 0,
        "type": "channel",
        "noteNumber": 63,
        "velocity": 0,
        "subtype": "noteOff"
      },
      {
        "deltaTime": 0,
        "channel": 0,
        "type": "channel",
        "noteNumber": 58,
        "velocity": 127,
        "subtype": "noteOn"
      },
      {
        "deltaTime": 0,
        "channel": 0,
        "type": "channel",
        "noteNumber": 63,
        "velocity": 127,
        "subtype": "noteOn"
      },
      {
        "deltaTime": 480,
        "channel": 0,
        "type": "channel",
        "noteNumber": 63,
        "velocity": 0,
        "subtype": "noteOff"
      },
      {
        "deltaTime": 0,
        "channel": 0,
        "type": "channel",
        "noteNumber": 58,
        "velocity": 0,
        "subtype": "noteOff"
      },
      {
        "deltaTime": 0,
        "channel": 0,
        "type": "channel",
        "noteNumber": 58,
        "velocity": 127,
        "subtype": "noteOn"
      },
      {
        "deltaTime": 0,
        "channel": 0,
        "type": "channel",
        "noteNumber": 63,
        "velocity": 127,
        "subtype": "noteOn"
      },
      {
        "deltaTime": 480,
        "channel": 0,
        "type": "channel",
        "noteNumber": 63,
        "velocity": 0,
        "subtype": "noteOff"
      },
      {
        "deltaTime": 0,
        "channel": 0,
        "type": "channel",
        "noteNumber": 58,
        "velocity": 0,
        "subtype": "noteOff"
      },
      {
        "deltaTime": 0,
        "channel": 0,
        "type": "channel",
        "noteNumber": 63,
        "velocity": 127,
        "subtype": "noteOn"
      },
      {
        "deltaTime": 0,
        "channel": 0,
        "type": "channel",
        "noteNumber": 70,
        "velocity": 127,
        "subtype": "noteOn"
      },
      {
        "deltaTime": 960,
        "channel": 0,
        "type": "channel",
        "noteNumber": 70,
        "velocity": 0,
        "subtype": "noteOff"
      },
      {
        "deltaTime": 0,
        "channel": 0,
        "type": "channel",
        "noteNumber": 63,
        "velocity": 0,
        "subtype": "noteOff"
      },
      {
        "deltaTime": 0,
        "channel": 0,
        "type": "channel",
        "noteNumber": 63,
        "velocity": 127,
        "subtype": "noteOn"
      },
      {
        "deltaTime": 0,
        "channel": 0,
        "type": "channel",
        "noteNumber": 68,
        "velocity": 127,
        "subtype": "noteOn"
      },
      {
        "deltaTime": 480,
        "channel": 0,
        "type": "channel",
        "noteNumber": 68,
        "velocity": 0,
        "subtype": "noteOff"
      },
      {
        "deltaTime": 0,
        "channel": 0,
        "type": "channel",
        "noteNumber": 63,
        "velocity": 0,
        "subtype": "noteOff"
      },
      {
        "deltaTime": 0,
        "channel": 0,
        "type": "channel",
        "noteNumber": 63,
        "velocity": 127,
        "subtype": "noteOn"
      },
      {
        "deltaTime": 0,
        "channel": 0,
        "type": "channel",
        "noteNumber": 67,
        "velocity": 127,
        "subtype": "noteOn"
      },
      {
        "deltaTime": 480,
        "channel": 0,
        "type": "channel",
        "noteNumber": 67,
        "velocity": 0,
        "subtype": "noteOff"
      },
      {
        "deltaTime": 0,
        "channel": 0,
        "type": "channel",
        "noteNumber": 63,
        "velocity": 0,
        "subtype": "noteOff"
      },
      {
        "deltaTime": 0,
        "channel": 0,
        "type": "channel",
        "noteNumber": 62,
        "velocity": 127,
        "subtype": "noteOn"
      },
      {
        "deltaTime": 0,
        "channel": 0,
        "type": "channel",
        "noteNumber": 65,
        "velocity": 127,
        "subtype": "noteOn"
      },
      {
        "deltaTime": 480,
        "channel": 0,
        "type": "channel",
        "noteNumber": 65,
        "velocity": 0,
        "subtype": "noteOff"
      },
      {
        "deltaTime": 0,
        "channel": 0,
        "type": "channel",
        "noteNumber": 62,
        "velocity": 0,
        "subtype": "noteOff"
      },
      {
        "deltaTime": 0,
        "channel": 0,
        "type": "channel",
        "noteNumber": 62,
        "velocity": 127,
        "subtype": "noteOn"
      },
      {
        "deltaTime": 0,
        "channel": 0,
        "type": "channel",
        "noteNumber": 65,
        "velocity": 127,
        "subtype": "noteOn"
      },
      {
        "deltaTime": 1440,
        "channel": 0,
        "type": "channel",
        "noteNumber": 65,
        "velocity": 0,
        "subtype": "noteOff"
      },
      {
        "deltaTime": 0,
        "channel": 0,
        "type": "channel",
        "noteNumber": 62,
        "velocity": 0,
        "subtype": "noteOff"
      },
      {
        "deltaTime": 960,
        "channel": 0,
        "type": "channel",
        "noteNumber": 67,
        "velocity": 127,
        "subtype": "noteOn"
      },
      {
        "deltaTime": 240,
        "channel": 0,
        "type": "channel",
        "noteNumber": 67,
        "velocity": 0,
        "subtype": "noteOff"
      },
      {
        "deltaTime": 0,
        "channel": 0,
        "type": "channel",
        "noteNumber": 70,
        "velocity": 127,
        "subtype": "noteOn"
      },
      {
        "deltaTime": 1200,
        "channel": 0,
        "type": "channel",
        "noteNumber": 70,
        "velocity": 0,
        "subtype": "noteOff"
      },
      {
        "deltaTime": 0,
        "channel": 0,
        "type": "channel",
        "noteNumber": 67,
        "velocity": 127,
        "subtype": "noteOn"
      },
      {
        "deltaTime": 960,
        "channel": 0,
        "type": "channel",
        "noteNumber": 67,
        "velocity": 0,
        "subtype": "noteOff"
      },
      {
        "deltaTime": 0,
        "channel": 0,
        "type": "channel",
        "noteNumber": 72,
        "velocity": 127,
        "subtype": "noteOn"
      },
      {
        "deltaTime": 480,
        "channel": 0,
        "type": "channel",
        "noteNumber": 72,
        "velocity": 0,
        "subtype": "noteOff"
      },
      {
        "deltaTime": 0,
        "channel": 0,
        "type": "channel",
        "noteNumber": 70,
        "velocity": 127,
        "subtype": "noteOn"
      },
      {
        "deltaTime": 1440,
        "channel": 0,
        "type": "channel",
        "noteNumber": 70,
        "velocity": 0,
        "subtype": "noteOff"
      },
      {
        "deltaTime": 0,
        "channel": 0,
        "type": "channel",
        "noteNumber": 67,
        "velocity": 127,
        "subtype": "noteOn"
      },
      {
        "deltaTime": 1920,
        "channel": 0,
        "type": "channel",
        "noteNumber": 67,
        "velocity": 0,
        "subtype": "noteOff"
      },
      {
        "deltaTime": 480,
        "channel": 0,
        "type": "channel",
        "noteNumber": 63,
        "velocity": 127,
        "subtype": "noteOn"
      },
      {
        "deltaTime": 0,
        "channel": 0,
        "type": "channel",
        "noteNumber": 70,
        "velocity": 127,
        "subtype": "noteOn"
      },
      {
        "deltaTime": 960,
        "channel": 0,
        "type": "channel",
        "noteNumber": 70,
        "velocity": 0,
        "subtype": "noteOff"
      },
      {
        "deltaTime": 0,
        "channel": 0,
        "type": "channel",
        "noteNumber": 63,
        "velocity": 0,
        "subtype": "noteOff"
      },
      {
        "deltaTime": 0,
        "channel": 0,
        "type": "channel",
        "noteNumber": 60,
        "velocity": 127,
        "subtype": "noteOn"
      },
      {
        "deltaTime": 0,
        "channel": 0,
        "type": "channel",
        "noteNumber": 67,
        "velocity": 127,
        "subtype": "noteOn"
      },
      {
        "deltaTime": 480,
        "channel": 0,
        "type": "channel",
        "noteNumber": 67,
        "velocity": 0,
        "subtype": "noteOff"
      },
      {
        "deltaTime": 0,
        "channel": 0,
        "type": "channel",
        "noteNumber": 60,
        "velocity": 0,
        "subtype": "noteOff"
      },
      {
        "deltaTime": 0,
        "channel": 0,
        "type": "channel",
        "noteNumber": 65,
        "velocity": 127,
        "subtype": "noteOn"
      },
      {
        "deltaTime": 0,
        "channel": 0,
        "type": "channel",
        "noteNumber": 72,
        "velocity": 127,
        "subtype": "noteOn"
      },
      {
        "deltaTime": 480,
        "channel": 0,
        "type": "channel",
        "noteNumber": 72,
        "velocity": 0,
        "subtype": "noteOff"
      },
      {
        "deltaTime": 0,
        "channel": 0,
        "type": "channel",
        "noteNumber": 65,
        "velocity": 0,
        "subtype": "noteOff"
      },
      {
        "deltaTime": 0,
        "channel": 0,
        "type": "channel",
        "noteNumber": 63,
        "velocity": 127,
        "subtype": "noteOn"
      },
      {
        "deltaTime": 0,
        "channel": 0,
        "type": "channel",
        "noteNumber": 70,
        "velocity": 127,
        "subtype": "noteOn"
      },
      {
        "deltaTime": 960,
        "channel": 0,
        "type": "channel",
        "noteNumber": 70,
        "velocity": 0,
        "subtype": "noteOff"
      },
      {
        "deltaTime": 0,
        "channel": 0,
        "type": "channel",
        "noteNumber": 63,
        "velocity": 0,
        "subtype": "noteOff"
      },
      {
        "deltaTime": 0,
        "channel": 0,
        "type": "channel",
        "noteNumber": 58,
        "velocity": 127,
        "subtype": "noteOn"
      },
      {
        "deltaTime": 0,
        "channel": 0,
        "type": "channel",
        "noteNumber": 63,
        "velocity": 127,
        "subtype": "noteOn"
      },
      {
        "deltaTime": 480,
        "channel": 0,
        "type": "channel",
        "noteNumber": 63,
        "velocity": 0,
        "subtype": "noteOff"
      },
      {
        "deltaTime": 0,
        "channel": 0,
        "type": "channel",
        "noteNumber": 58,
        "velocity": 0,
        "subtype": "noteOff"
      },
      {
        "deltaTime": 0,
        "channel": 0,
        "type": "channel",
        "noteNumber": 58,
        "velocity": 127,
        "subtype": "noteOn"
      },
      {
        "deltaTime": 0,
        "channel": 0,
        "type": "channel",
        "noteNumber": 63,
        "velocity": 127,
        "subtype": "noteOn"
      },
      {
        "deltaTime": 480,
        "channel": 0,
        "type": "channel",
        "noteNumber": 63,
        "velocity": 0,
        "subtype": "noteOff"
      },
      {
        "deltaTime": 0,
        "channel": 0,
        "type": "channel",
        "noteNumber": 58,
        "velocity": 0,
        "subtype": "noteOff"
      },
      {
        "deltaTime": 0,
        "channel": 0,
        "type": "channel",
        "noteNumber": 63,
        "velocity": 127,
        "subtype": "noteOn"
      },
      {
        "deltaTime": 0,
        "channel": 0,
        "type": "channel",
        "noteNumber": 70,
        "velocity": 127,
        "subtype": "noteOn"
      },
      {
        "deltaTime": 960,
        "channel": 0,
        "type": "channel",
        "noteNumber": 70,
        "velocity": 0,
        "subtype": "noteOff"
      },
      {
        "deltaTime": 0,
        "channel": 0,
        "type": "channel",
        "noteNumber": 63,
        "velocity": 0,
        "subtype": "noteOff"
      },
      {
        "deltaTime": 0,
        "channel": 0,
        "type": "channel",
        "noteNumber": 63,
        "velocity": 127,
        "subtype": "noteOn"
      },
      {
        "deltaTime": 0,
        "channel": 0,
        "type": "channel",
        "noteNumber": 68,
        "velocity": 127,
        "subtype": "noteOn"
      },
      {
        "deltaTime": 480,
        "channel": 0,
        "type": "channel",
        "noteNumber": 68,
        "velocity": 0,
        "subtype": "noteOff"
      },
      {
        "deltaTime": 0,
        "channel": 0,
        "type": "channel",
        "noteNumber": 63,
        "velocity": 0,
        "subtype": "noteOff"
      },
      {
        "deltaTime": 0,
        "channel": 0,
        "type": "channel",
        "noteNumber": 63,
        "velocity": 127,
        "subtype": "noteOn"
      },
      {
        "deltaTime": 0,
        "channel": 0,
        "type": "channel",
        "noteNumber": 67,
        "velocity": 127,
        "subtype": "noteOn"
      },
      {
        "deltaTime": 480,
        "channel": 0,
        "type": "channel",
        "noteNumber": 67,
        "velocity": 0,
        "subtype": "noteOff"
      },
      {
        "deltaTime": 0,
        "channel": 0,
        "type": "channel",
        "noteNumber": 63,
        "velocity": 0,
        "subtype": "noteOff"
      },
      {
        "deltaTime": 0,
        "channel": 0,
        "type": "channel",
        "noteNumber": 62,
        "velocity": 127,
        "subtype": "noteOn"
      },
      {
        "deltaTime": 0,
        "channel": 0,
        "type": "channel",
        "noteNumber": 65,
        "velocity": 127,
        "subtype": "noteOn"
      },
      {
        "deltaTime": 480,
        "channel": 0,
        "type": "channel",
        "noteNumber": 65,
        "velocity": 0,
        "subtype": "noteOff"
      },
      {
        "deltaTime": 0,
        "channel": 0,
        "type": "channel",
        "noteNumber": 62,
        "velocity": 0,
        "subtype": "noteOff"
      },
      {
        "deltaTime": 0,
        "channel": 0,
        "type": "channel",
        "noteNumber": 62,
        "velocity": 127,
        "subtype": "noteOn"
      },
      {
        "deltaTime": 0,
        "channel": 0,
        "type": "channel",
        "noteNumber": 65,
        "velocity": 127,
        "subtype": "noteOn"
      },
      {
        "deltaTime": 1440,
        "channel": 0,
        "type": "channel",
        "noteNumber": 65,
        "velocity": 0,
        "subtype": "noteOff"
      },
      {
        "deltaTime": 0,
        "channel": 0,
        "type": "channel",
        "noteNumber": 62,
        "velocity": 0,
        "subtype": "noteOff"
      },
      {
        "deltaTime": 960,
        "channel": 0,
        "type": "channel",
        "noteNumber": 63,
        "velocity": 127,
        "subtype": "noteOn"
      },
      {
        "deltaTime": 240,
        "channel": 0,
        "type": "channel",
        "noteNumber": 63,
        "velocity": 0,
        "subtype": "noteOff"
      },
      {
        "deltaTime": 0,
        "channel": 0,
        "type": "channel",
        "noteNumber": 65,
        "velocity": 127,
        "subtype": "noteOn"
      },
      {
        "deltaTime": 1200,
        "channel": 0,
        "type": "channel",
        "noteNumber": 65,
        "velocity": 0,
        "subtype": "noteOff"
      },
      {
        "deltaTime": 0,
        "channel": 0,
        "type": "channel",
        "noteNumber": 67,
        "velocity": 127,
        "subtype": "noteOn"
      },
      {
        "deltaTime": 1440,
        "channel": 0,
        "type": "channel",
        "noteNumber": 67,
        "velocity": 0,
        "subtype": "noteOff"
      },
      {
        "deltaTime": 0,
        "channel": 0,
        "type": "channel",
        "noteNumber": 70,
        "velocity": 127,
        "subtype": "noteOn"
      },
      {
        "deltaTime": 1440,
        "channel": 0,
        "type": "channel",
        "noteNumber": 70,
        "velocity": 0,
        "subtype": "noteOff"
      },
      {
        "deltaTime": 0,
        "channel": 0,
        "type": "channel",
        "noteNumber": 67,
        "velocity": 127,
        "subtype": "noteOn"
      },
      {
        "deltaTime": 1920,
        "channel": 0,
        "type": "channel",
        "noteNumber": 67,
        "velocity": 0,
        "subtype": "noteOff"
      },
      {
        "deltaTime": 0,
        "channel": 0,
        "type": "channel",
        "noteNumber": 63,
        "velocity": 127,
        "subtype": "noteOn"
      },
      {
        "deltaTime": 480,
        "channel": 0,
        "type": "channel",
        "noteNumber": 63,
        "velocity": 0,
        "subtype": "noteOff"
      },
      {
        "deltaTime": 0,
        "channel": 0,
        "type": "channel",
        "noteNumber": 63,
        "velocity": 127,
        "subtype": "noteOn"
      },
      {
        "deltaTime": 960,
        "channel": 0,
        "type": "channel",
        "noteNumber": 63,
        "velocity": 0,
        "subtype": "noteOff"
      },
      {
        "deltaTime": 0,
        "channel": 0,
        "type": "channel",
        "noteNumber": 65,
        "velocity": 127,
        "subtype": "noteOn"
      },
      {
        "deltaTime": 960,
        "channel": 0,
        "type": "channel",
        "noteNumber": 65,
        "velocity": 0,
        "subtype": "noteOff"
      },
      {
        "deltaTime": 0,
        "channel": 0,
        "type": "channel",
        "noteNumber": 67,
        "velocity": 127,
        "subtype": "noteOn"
      },
      {
        "deltaTime": 960,
        "channel": 0,
        "type": "channel",
        "noteNumber": 67,
        "velocity": 0,
        "subtype": "noteOff"
      },
      {
        "deltaTime": 0,
        "channel": 0,
        "type": "channel",
        "noteNumber": 67,
        "velocity": 127,
        "subtype": "noteOn"
      },
      {
        "deltaTime": 240,
        "channel": 0,
        "type": "channel",
        "noteNumber": 67,
        "velocity": 0,
        "subtype": "noteOff"
      },
      {
        "deltaTime": 0,
        "channel": 0,
        "type": "channel",
        "noteNumber": 70,
        "velocity": 127,
        "subtype": "noteOn"
      },
      {
        "deltaTime": 720,
        "channel": 0,
        "type": "channel",
        "noteNumber": 70,
        "velocity": 0,
        "subtype": "noteOff"
      },
      {
        "deltaTime": 0,
        "channel": 0,
        "type": "channel",
        "noteNumber": 67,
        "velocity": 127,
        "subtype": "noteOn"
      },
      {
        "deltaTime": 1440,
        "channel": 0,
        "type": "channel",
        "noteNumber": 67,
        "velocity": 0,
        "subtype": "noteOff"
      },
      {
        "deltaTime": 0,
        "channel": 0,
        "type": "channel",
        "noteNumber": 65,
        "velocity": 127,
        "subtype": "noteOn"
      },
      {
        "deltaTime": 1440,
        "channel": 0,
        "type": "channel",
        "noteNumber": 65,
        "velocity": 0,
        "subtype": "noteOff"
      },
      {
        "deltaTime": 960,
        "channel": 0,
        "type": "channel",
        "noteNumber": 63,
        "velocity": 127,
        "subtype": "noteOn"
      },
      {
        "deltaTime": 960,
        "channel": 0,
        "type": "channel",
        "noteNumber": 63,
        "velocity": 0,
        "subtype": "noteOff"
      },
      {
        "deltaTime": 0,
        "channel": 0,
        "type": "channel",
        "noteNumber": 65,
        "velocity": 127,
        "subtype": "noteOn"
      },
      {
        "deltaTime": 960,
        "channel": 0,
        "type": "channel",
        "noteNumber": 65,
        "velocity": 0,
        "subtype": "noteOff"
      },
      {
        "deltaTime": 0,
        "channel": 0,
        "type": "channel",
        "noteNumber": 67,
        "velocity": 127,
        "subtype": "noteOn"
      },
      {
        "deltaTime": 960,
        "channel": 0,
        "type": "channel",
        "noteNumber": 67,
        "velocity": 0,
        "subtype": "noteOff"
      },
      {
        "deltaTime": 0,
        "channel": 0,
        "type": "channel",
        "noteNumber": 70,
        "velocity": 127,
        "subtype": "noteOn"
      },
      {
        "deltaTime": 480,
        "channel": 0,
        "type": "channel",
        "noteNumber": 70,
        "velocity": 0,
        "subtype": "noteOff"
      },
      {
        "deltaTime": 0,
        "channel": 0,
        "type": "channel",
        "noteNumber": 65,
        "velocity": 127,
        "subtype": "noteOn"
      },
      {
        "deltaTime": 480,
        "channel": 0,
        "type": "channel",
        "noteNumber": 65,
        "velocity": 0,
        "subtype": "noteOff"
      },
      {
        "deltaTime": 0,
        "channel": 0,
        "type": "channel",
        "noteNumber": 65,
        "velocity": 127,
        "subtype": "noteOn"
      },
      {
        "deltaTime": 1920,
        "channel": 0,
        "type": "channel",
        "noteNumber": 65,
        "velocity": 0,
        "subtype": "noteOff"
      },
      {
        "deltaTime": 1440,
        "channel": 0,
        "type": "channel",
        "noteNumber": 63,
        "velocity": 127,
        "subtype": "noteOn"
      },
      {
        "deltaTime": 480,
        "channel": 0,
        "type": "channel",
        "noteNumber": 63,
        "velocity": 0,
        "subtype": "noteOff"
      },
      {
        "deltaTime": 0,
        "channel": 0,
        "type": "channel",
        "noteNumber": 63,
        "velocity": 127,
        "subtype": "noteOn"
      },
      {
        "deltaTime": 0,
        "channel": 0,
        "type": "channel",
        "noteNumber": 70,
        "velocity": 127,
        "subtype": "noteOn"
      },
      {
        "deltaTime": 960,
        "channel": 0,
        "type": "channel",
        "noteNumber": 70,
        "velocity": 0,
        "subtype": "noteOff"
      },
      {
        "deltaTime": 0,
        "channel": 0,
        "type": "channel",
        "noteNumber": 63,
        "velocity": 0,
        "subtype": "noteOff"
      },
      {
        "deltaTime": 0,
        "channel": 0,
        "type": "channel",
        "noteNumber": 60,
        "velocity": 127,
        "subtype": "noteOn"
      },
      {
        "deltaTime": 0,
        "channel": 0,
        "type": "channel",
        "noteNumber": 67,
        "velocity": 127,
        "subtype": "noteOn"
      },
      {
        "deltaTime": 480,
        "channel": 0,
        "type": "channel",
        "noteNumber": 67,
        "velocity": 0,
        "subtype": "noteOff"
      },
      {
        "deltaTime": 0,
        "channel": 0,
        "type": "channel",
        "noteNumber": 60,
        "velocity": 0,
        "subtype": "noteOff"
      },
      {
        "deltaTime": 0,
        "channel": 0,
        "type": "channel",
        "noteNumber": 65,
        "velocity": 127,
        "subtype": "noteOn"
      },
      {
        "deltaTime": 0,
        "channel": 0,
        "type": "channel",
        "noteNumber": 72,
        "velocity": 127,
        "subtype": "noteOn"
      },
      {
        "deltaTime": 480,
        "channel": 0,
        "type": "channel",
        "noteNumber": 72,
        "velocity": 0,
        "subtype": "noteOff"
      },
      {
        "deltaTime": 0,
        "channel": 0,
        "type": "channel",
        "noteNumber": 65,
        "velocity": 0,
        "subtype": "noteOff"
      },
      {
        "deltaTime": 0,
        "channel": 0,
        "type": "channel",
        "noteNumber": 63,
        "velocity": 127,
        "subtype": "noteOn"
      },
      {
        "deltaTime": 0,
        "channel": 0,
        "type": "channel",
        "noteNumber": 70,
        "velocity": 127,
        "subtype": "noteOn"
      },
      {
        "deltaTime": 960,
        "channel": 0,
        "type": "channel",
        "noteNumber": 70,
        "velocity": 0,
        "subtype": "noteOff"
      },
      {
        "deltaTime": 0,
        "channel": 0,
        "type": "channel",
        "noteNumber": 63,
        "velocity": 0,
        "subtype": "noteOff"
      },
      {
        "deltaTime": 0,
        "channel": 0,
        "type": "channel",
        "noteNumber": 58,
        "velocity": 127,
        "subtype": "noteOn"
      },
      {
        "deltaTime": 0,
        "channel": 0,
        "type": "channel",
        "noteNumber": 63,
        "velocity": 127,
        "subtype": "noteOn"
      },
      {
        "deltaTime": 480,
        "channel": 0,
        "type": "channel",
        "noteNumber": 63,
        "velocity": 0,
        "subtype": "noteOff"
      },
      {
        "deltaTime": 0,
        "channel": 0,
        "type": "channel",
        "noteNumber": 58,
        "velocity": 0,
        "subtype": "noteOff"
      },
      {
        "deltaTime": 0,
        "channel": 0,
        "type": "channel",
        "noteNumber": 58,
        "velocity": 127,
        "subtype": "noteOn"
      },
      {
        "deltaTime": 0,
        "channel": 0,
        "type": "channel",
        "noteNumber": 63,
        "velocity": 127,
        "subtype": "noteOn"
      },
      {
        "deltaTime": 480,
        "channel": 0,
        "type": "channel",
        "noteNumber": 63,
        "velocity": 0,
        "subtype": "noteOff"
      },
      {
        "deltaTime": 0,
        "channel": 0,
        "type": "channel",
        "noteNumber": 58,
        "velocity": 0,
        "subtype": "noteOff"
      },
      {
        "deltaTime": 0,
        "channel": 0,
        "type": "channel",
        "noteNumber": 63,
        "velocity": 127,
        "subtype": "noteOn"
      },
      {
        "deltaTime": 0,
        "channel": 0,
        "type": "channel",
        "noteNumber": 70,
        "velocity": 127,
        "subtype": "noteOn"
      },
      {
        "deltaTime": 960,
        "channel": 0,
        "type": "channel",
        "noteNumber": 70,
        "velocity": 0,
        "subtype": "noteOff"
      },
      {
        "deltaTime": 0,
        "channel": 0,
        "type": "channel",
        "noteNumber": 63,
        "velocity": 0,
        "subtype": "noteOff"
      },
      {
        "deltaTime": 0,
        "channel": 0,
        "type": "channel",
        "noteNumber": 63,
        "velocity": 127,
        "subtype": "noteOn"
      },
      {
        "deltaTime": 0,
        "channel": 0,
        "type": "channel",
        "noteNumber": 68,
        "velocity": 127,
        "subtype": "noteOn"
      },
      {
        "deltaTime": 480,
        "channel": 0,
        "type": "channel",
        "noteNumber": 68,
        "velocity": 0,
        "subtype": "noteOff"
      },
      {
        "deltaTime": 0,
        "channel": 0,
        "type": "channel",
        "noteNumber": 63,
        "velocity": 0,
        "subtype": "noteOff"
      },
      {
        "deltaTime": 0,
        "channel": 0,
        "type": "channel",
        "noteNumber": 63,
        "velocity": 127,
        "subtype": "noteOn"
      },
      {
        "deltaTime": 0,
        "channel": 0,
        "type": "channel",
        "noteNumber": 67,
        "velocity": 127,
        "subtype": "noteOn"
      },
      {
        "deltaTime": 480,
        "channel": 0,
        "type": "channel",
        "noteNumber": 67,
        "velocity": 0,
        "subtype": "noteOff"
      },
      {
        "deltaTime": 0,
        "channel": 0,
        "type": "channel",
        "noteNumber": 63,
        "velocity": 0,
        "subtype": "noteOff"
      },
      {
        "deltaTime": 0,
        "channel": 0,
        "type": "channel",
        "noteNumber": 62,
        "velocity": 127,
        "subtype": "noteOn"
      },
      {
        "deltaTime": 0,
        "channel": 0,
        "type": "channel",
        "noteNumber": 65,
        "velocity": 127,
        "subtype": "noteOn"
      },
      {
        "deltaTime": 480,
        "channel": 0,
        "type": "channel",
        "noteNumber": 65,
        "velocity": 0,
        "subtype": "noteOff"
      },
      {
        "deltaTime": 0,
        "channel": 0,
        "type": "channel",
        "noteNumber": 62,
        "velocity": 0,
        "subtype": "noteOff"
      },
      {
        "deltaTime": 0,
        "channel": 0,
        "type": "channel",
        "noteNumber": 62,
        "velocity": 127,
        "subtype": "noteOn"
      },
      {
        "deltaTime": 0,
        "channel": 0,
        "type": "channel",
        "noteNumber": 65,
        "velocity": 127,
        "subtype": "noteOn"
      },
      {
        "deltaTime": 1440,
        "channel": 0,
        "type": "channel",
        "noteNumber": 65,
        "velocity": 0,
        "subtype": "noteOff"
      },
      {
        "deltaTime": 0,
        "channel": 0,
        "type": "channel",
        "noteNumber": 62,
        "velocity": 0,
        "subtype": "noteOff"
      },
      {
        "deltaTime": 960,
        "channel": 0,
        "type": "channel",
        "noteNumber": 63,
        "velocity": 127,
        "subtype": "noteOn"
      },
      {
        "deltaTime": 240,
        "channel": 0,
        "type": "channel",
        "noteNumber": 63,
        "velocity": 0,
        "subtype": "noteOff"
      },
      {
        "deltaTime": 0,
        "channel": 0,
        "type": "channel",
        "noteNumber": 65,
        "velocity": 127,
        "subtype": "noteOn"
      },
      {
        "deltaTime": 1200,
        "channel": 0,
        "type": "channel",
        "noteNumber": 65,
        "velocity": 0,
        "subtype": "noteOff"
      },
      {
        "deltaTime": 0,
        "channel": 0,
        "type": "channel",
        "noteNumber": 67,
        "velocity": 127,
        "subtype": "noteOn"
      },
      {
        "deltaTime": 1440,
        "channel": 0,
        "type": "channel",
        "noteNumber": 67,
        "velocity": 0,
        "subtype": "noteOff"
      },
      {
        "deltaTime": 0,
        "channel": 0,
        "type": "channel",
        "noteNumber": 70,
        "velocity": 127,
        "subtype": "noteOn"
      },
      {
        "deltaTime": 1440,
        "channel": 0,
        "type": "channel",
        "noteNumber": 70,
        "velocity": 0,
        "subtype": "noteOff"
      },
      {
        "deltaTime": 0,
        "channel": 0,
        "type": "channel",
        "noteNumber": 67,
        "velocity": 127,
        "subtype": "noteOn"
      },
      {
        "deltaTime": 1440,
        "channel": 0,
        "type": "channel",
        "noteNumber": 67,
        "velocity": 0,
        "subtype": "noteOff"
      },
      {
        "deltaTime": 0,
        "channel": 0,
        "type": "channel",
        "noteNumber": 65,
        "velocity": 127,
        "subtype": "noteOn"
      },
      {
        "deltaTime": 960,
        "channel": 0,
        "type": "channel",
        "noteNumber": 65,
        "velocity": 0,
        "subtype": "noteOff"
      },
      {
        "deltaTime": 0,
        "channel": 0,
        "type": "channel",
        "noteNumber": 63,
        "velocity": 127,
        "subtype": "noteOn"
      },
      {
        "deltaTime": 4800,
        "channel": 0,
        "type": "channel",
        "noteNumber": 63,
        "velocity": 0,
        "subtype": "noteOff"
      },
      {
        "deltaTime": 0,
        "type": "meta",
        "subtype": "endOfTrack"
      }
    ],
    [
      {
        "deltaTime": 0,
        "type": "meta",
        "subtype": "trackName",
        "text": "Guitar 1"
      },
      {
        "deltaTime": 0,
        "channel": 1,
        "type": "channel",
        "subtype": "controller",
        "controllerType": 7,
        "value": 127
      },
      {
        "deltaTime": 0,
        "channel": 1,
        "type": "channel",
        "subtype": "controller",
        "controllerType": 10,
        "value": 64
      },
      {
        "deltaTime": 0,
        "channel": 1,
        "type": "channel",
        "subtype": "controller",
        "controllerType": 91,
        "value": 0
      },
      {
        "deltaTime": 0,
        "channel": 1,
        "type": "channel",
        "subtype": "controller",
        "controllerType": 93,
        "value": 0
      },
      {
        "deltaTime": 0,
        "channel": 1,
        "type": "channel",
        "subtype": "controller",
        "controllerType": 101,
        "value": 0
      },
      {
        "deltaTime": 1,
        "channel": 1,
        "type": "channel",
        "subtype": "controller",
        "controllerType": 100,
        "value": 0
      },
      {
        "deltaTime": 1,
        "channel": 1,
        "type": "channel",
        "subtype": "controller",
        "controllerType": 6,
        "value": 12
      },
      {
        "deltaTime": 1,
        "channel": 1,
        "type": "channel",
        "subtype": "controller",
        "controllerType": 38,
        "value": 0
      },
      {
        "deltaTime": 0,
        "channel": 1,
        "type": "channel",
        "subtype": "pitchBend",
        "value": 8192
      },
      {
        "deltaTime": 0,
        "channel": 1,
        "type": "channel",
        "subtype": "controller",
        "controllerType": 101,
        "value": 0
      },
      {
        "deltaTime": 1,
        "channel": 1,
        "type": "channel",
        "subtype": "controller",
        "controllerType": 100,
        "value": 1
      },
      {
        "deltaTime": 1,
        "channel": 1,
        "type": "channel",
        "subtype": "controller",
        "controllerType": 6,
        "value": 64
      },
      {
        "deltaTime": 1,
        "channel": 1,
        "type": "channel",
        "subtype": "controller",
        "controllerType": 38,
        "value": 0
      },
      {
        "deltaTime": 0,
        "channel": 1,
        "type": "channel",
        "subtype": "controller",
        "controllerType": 101,
        "value": 0
      },
      {
        "deltaTime": 1,
        "channel": 1,
        "type": "channel",
        "subtype": "controller",
        "controllerType": 100,
        "value": 0
      },
      {
        "deltaTime": 1,
        "channel": 1,
        "type": "channel",
        "subtype": "controller",
        "controllerType": 6,
        "value": 12
      },
      {
        "deltaTime": 1,
        "channel": 1,
        "type": "channel",
        "subtype": "controller",
        "controllerType": 38,
        "value": 0
      },
      {
        "deltaTime": 0,
        "channel": 1,
        "type": "channel",
        "subtype": "pitchBend",
        "value": 8192
      },
      {
        "deltaTime": 0,
        "channel": 1,
        "type": "channel",
        "subtype": "controller",
        "controllerType": 101,
        "value": 0
      },
      {
        "deltaTime": 1,
        "channel": 1,
        "type": "channel",
        "subtype": "controller",
        "controllerType": 100,
        "value": 1
      },
      {
        "deltaTime": 1,
        "channel": 1,
        "type": "channel",
        "subtype": "controller",
        "controllerType": 6,
        "value": 64
      },
      {
        "deltaTime": 1,
        "channel": 1,
        "type": "channel",
        "subtype": "controller",
        "controllerType": 38,
        "value": 0
      },
      {
        "deltaTime": 0,
        "channel": 1,
        "type": "channel",
        "subtype": "controller",
        "controllerType": 101,
        "value": 0
      },
      {
        "deltaTime": 1,
        "channel": 1,
        "type": "channel",
        "subtype": "controller",
        "controllerType": 100,
        "value": 2
      },
      {
        "deltaTime": 1,
        "channel": 1,
        "type": "channel",
        "subtype": "controller",
        "controllerType": 6,
        "value": 64
      },
      {
        "deltaTime": 1,
        "channel": 1,
        "type": "channel",
        "subtype": "controller",
        "controllerType": 38,
        "value": 0
      },
      {
        "deltaTime": 0,
        "channel": 1,
        "type": "channel",
        "subtype": "controller",
        "controllerType": 101,
        "value": 0
      },
      {
        "deltaTime": 1,
        "channel": 1,
        "type": "channel",
        "subtype": "controller",
        "controllerType": 100,
        "value": 2
      },
      {
        "deltaTime": 1,
        "channel": 1,
        "type": "channel",
        "subtype": "controller",
        "controllerType": 6,
        "value": 64
      },
      {
        "deltaTime": 1,
        "channel": 1,
        "type": "channel",
        "subtype": "controller",
        "controllerType": 38,
        "value": 0
      },
      {
        "deltaTime": 0,
        "channel": 1,
        "type": "channel",
        "subtype": "programChange",
        "programNumber": 30
      },
      {
        "deltaTime": 0,
        "channel": 1,
        "type": "channel",
        "subtype": "programChange",
        "programNumber": 30
      },
      {
        "deltaTime": 0,
        "channel": 1,
        "type": "channel",
        "subtype": "controller",
        "controllerType": 0,
        "value": 0
      },
      {
        "deltaTime": 0,
        "channel": 1,
        "type": "channel",
        "subtype": "controller",
        "controllerType": 0,
        "value": 0
      },
      {
        "deltaTime": 0,
        "channel": 1,
        "type": "channel",
        "subtype": "controller",
        "controllerType": 7,
        "value": 127
      },
      {
        "deltaTime": 0,
        "channel": 1,
        "type": "channel",
        "subtype": "controller",
        "controllerType": 10,
        "value": 64
      },
      {
        "deltaTime": 0,
        "channel": 1,
        "type": "channel",
        "subtype": "controller",
        "controllerType": 93,
        "value": 0
      },
      {
        "deltaTime": 0,
        "channel": 1,
        "type": "channel",
        "subtype": "controller",
        "controllerType": 91,
        "value": 0
      },
      {
        "deltaTime": 0,
        "channel": 1,
        "type": "channel",
        "subtype": "controller",
        "controllerType": 92,
        "value": 0
      },
      {
        "deltaTime": 0,
        "channel": 1,
        "type": "channel",
        "subtype": "controller",
        "controllerType": 92,
        "value": 0
      },
      {
        "deltaTime": 0,
        "channel": 1,
        "type": "channel",
        "subtype": "controller",
        "controllerType": 95,
        "value": 0
      },
      {
        "deltaTime": 0,
        "channel": 1,
        "type": "channel",
        "subtype": "controller",
        "controllerType": 95,
        "value": 0
      },
      {
        "deltaTime": 2862,
        "channel": 1,
        "type": "channel",
        "noteNumber": 60,
        "velocity": 127,
        "subtype": "noteOn"
      },
      {
        "deltaTime": 0,
        "channel": 1,
        "type": "channel",
        "noteNumber": 49,
        "velocity": 127,
        "subtype": "noteOn"
      },
      {
        "deltaTime": 0,
        "channel": 1,
        "type": "channel",
        "noteNumber": 48,
        "velocity": 127,
        "subtype": "noteOn"
      },
      {
        "deltaTime": 40,
        "channel": 1,
        "type": "channel",
        "noteNumber": 49,
        "velocity": 0,
        "subtype": "noteOff"
      },
      {
        "deltaTime": 680,
        "channel": 1,
        "type": "channel",
        "noteNumber": 48,
        "velocity": 0,
        "subtype": "noteOff"
      },
      {
        "deltaTime": 0,
        "channel": 1,
        "type": "channel",
        "noteNumber": 60,
        "velocity": 0,
        "subtype": "noteOff"
      },
      {
        "deltaTime": 0,
        "channel": 1,
        "type": "channel",
        "noteNumber": 60,
        "velocity": 127,
        "subtype": "noteOn"
      },
      {
        "deltaTime": 0,
        "channel": 1,
        "type": "channel",
        "noteNumber": 49,
        "velocity": 127,
        "subtype": "noteOn"
      },
      {
        "deltaTime": 0,
        "channel": 1,
        "type": "channel",
        "noteNumber": 48,
        "velocity": 127,
        "subtype": "noteOn"
      },
      {
        "deltaTime": 40,
        "channel": 1,
        "type": "channel",
        "noteNumber": 49,
        "velocity": 0,
        "subtype": "noteOff"
      },
      {
        "deltaTime": 680,
        "channel": 1,
        "type": "channel",
        "noteNumber": 48,
        "velocity": 0,
        "subtype": "noteOff"
      },
      {
        "deltaTime": 0,
        "channel": 1,
        "type": "channel",
        "noteNumber": 60,
        "velocity": 0,
        "subtype": "noteOff"
      },
      {
        "deltaTime": 0,
        "channel": 1,
        "type": "channel",
        "noteNumber": 60,
        "velocity": 127,
        "subtype": "noteOn"
      },
      {
        "deltaTime": 0,
        "channel": 1,
        "type": "channel",
        "noteNumber": 49,
        "velocity": 127,
        "subtype": "noteOn"
      },
      {
        "deltaTime": 0,
        "channel": 1,
        "type": "channel",
        "noteNumber": 48,
        "velocity": 127,
        "subtype": "noteOn"
      },
      {
        "deltaTime": 40,
        "channel": 1,
        "type": "channel",
        "noteNumber": 49,
        "velocity": 0,
        "subtype": "noteOff"
      },
      {
        "deltaTime": 440,
        "channel": 1,
        "type": "channel",
        "noteNumber": 48,
        "velocity": 0,
        "subtype": "noteOff"
      },
      {
        "deltaTime": 0,
        "channel": 1,
        "type": "channel",
        "noteNumber": 60,
        "velocity": 0,
        "subtype": "noteOff"
      },
      {
        "deltaTime": 0,
        "channel": 1,
        "type": "channel",
        "noteNumber": 65,
        "velocity": 127,
        "subtype": "noteOn"
      },
      {
        "deltaTime": 0,
        "channel": 1,
        "type": "channel",
        "noteNumber": 54,
        "velocity": 127,
        "subtype": "noteOn"
      },
      {
        "deltaTime": 0,
        "channel": 1,
        "type": "channel",
        "noteNumber": 53,
        "velocity": 127,
        "subtype": "noteOn"
      },
      {
        "deltaTime": 40,
        "channel": 1,
        "type": "channel",
        "noteNumber": 54,
        "velocity": 0,
        "subtype": "noteOff"
      },
      {
        "deltaTime": 440,
        "channel": 1,
        "type": "channel",
        "noteNumber": 53,
        "velocity": 0,
        "subtype": "noteOff"
      },
      {
        "deltaTime": 0,
        "channel": 1,
        "type": "channel",
        "noteNumber": 65,
        "velocity": 0,
        "subtype": "noteOff"
      },
      {
        "deltaTime": 0,
        "channel": 1,
        "type": "channel",
        "noteNumber": 67,
        "velocity": 127,
        "subtype": "noteOn"
      },
      {
        "deltaTime": 0,
        "channel": 1,
        "type": "channel",
        "noteNumber": 54,
        "velocity": 127,
        "subtype": "noteOn"
      },
      {
        "deltaTime": 0,
        "channel": 1,
        "type": "channel",
        "noteNumber": 55,
        "velocity": 127,
        "subtype": "noteOn"
      },
      {
        "deltaTime": 40,
        "channel": 1,
        "type": "channel",
        "noteNumber": 54,
        "velocity": 0,
        "subtype": "noteOff"
      },
      {
        "deltaTime": 440,
        "channel": 1,
        "type": "channel",
        "noteNumber": 55,
        "velocity": 0,
        "subtype": "noteOff"
      },
      {
        "deltaTime": 0,
        "channel": 1,
        "type": "channel",
        "noteNumber": 67,
        "velocity": 0,
        "subtype": "noteOff"
      },
      {
        "deltaTime": 0,
        "channel": 1,
        "type": "channel",
        "noteNumber": 60,
        "velocity": 127,
        "subtype": "noteOn"
      },
      {
        "deltaTime": 0,
        "channel": 1,
        "type": "channel",
        "noteNumber": 49,
        "velocity": 127,
        "subtype": "noteOn"
      },
      {
        "deltaTime": 0,
        "channel": 1,
        "type": "channel",
        "noteNumber": 48,
        "velocity": 127,
        "subtype": "noteOn"
      },
      {
        "deltaTime": 40,
        "channel": 1,
        "type": "channel",
        "noteNumber": 49,
        "velocity": 0,
        "subtype": "noteOff"
      },
      {
        "deltaTime": 680,
        "channel": 1,
        "type": "channel",
        "noteNumber": 48,
        "velocity": 0,
        "subtype": "noteOff"
      },
      {
        "deltaTime": 0,
        "channel": 1,
        "type": "channel",
        "noteNumber": 60,
        "velocity": 0,
        "subtype": "noteOff"
      },
      {
        "deltaTime": 0,
        "channel": 1,
        "type": "channel",
        "noteNumber": 60,
        "velocity": 127,
        "subtype": "noteOn"
      },
      {
        "deltaTime": 0,
        "channel": 1,
        "type": "channel",
        "noteNumber": 49,
        "velocity": 127,
        "subtype": "noteOn"
      },
      {
        "deltaTime": 0,
        "channel": 1,
        "type": "channel",
        "noteNumber": 48,
        "velocity": 127,
        "subtype": "noteOn"
      },
      {
        "deltaTime": 40,
        "channel": 1,
        "type": "channel",
        "noteNumber": 49,
        "velocity": 0,
        "subtype": "noteOff"
      },
      {
        "deltaTime": 680,
        "channel": 1,
        "type": "channel",
        "noteNumber": 48,
        "velocity": 0,
        "subtype": "noteOff"
      },
      {
        "deltaTime": 0,
        "channel": 1,
        "type": "channel",
        "noteNumber": 60,
        "velocity": 0,
        "subtype": "noteOff"
      },
      {
        "deltaTime": 0,
        "channel": 1,
        "type": "channel",
        "noteNumber": 60,
        "velocity": 127,
        "subtype": "noteOn"
      },
      {
        "deltaTime": 0,
        "channel": 1,
        "type": "channel",
        "noteNumber": 49,
        "velocity": 127,
        "subtype": "noteOn"
      },
      {
        "deltaTime": 0,
        "channel": 1,
        "type": "channel",
        "noteNumber": 48,
        "velocity": 127,
        "subtype": "noteOn"
      },
      {
        "deltaTime": 40,
        "channel": 1,
        "type": "channel",
        "noteNumber": 49,
        "velocity": 0,
        "subtype": "noteOff"
      },
      {
        "deltaTime": 440,
        "channel": 1,
        "type": "channel",
        "noteNumber": 48,
        "velocity": 0,
        "subtype": "noteOff"
      },
      {
        "deltaTime": 0,
        "channel": 1,
        "type": "channel",
        "noteNumber": 60,
        "velocity": 0,
        "subtype": "noteOff"
      },
      {
        "deltaTime": 0,
        "channel": 1,
        "type": "channel",
        "noteNumber": 67,
        "velocity": 127,
        "subtype": "noteOn"
      },
      {
        "deltaTime": 0,
        "channel": 1,
        "type": "channel",
        "noteNumber": 54,
        "velocity": 127,
        "subtype": "noteOn"
      },
      {
        "deltaTime": 0,
        "channel": 1,
        "type": "channel",
        "noteNumber": 55,
        "velocity": 127,
        "subtype": "noteOn"
      },
      {
        "deltaTime": 40,
        "channel": 1,
        "type": "channel",
        "noteNumber": 54,
        "velocity": 0,
        "subtype": "noteOff"
      },
      {
        "deltaTime": 440,
        "channel": 1,
        "type": "channel",
        "noteNumber": 55,
        "velocity": 0,
        "subtype": "noteOff"
      },
      {
        "deltaTime": 0,
        "channel": 1,
        "type": "channel",
        "noteNumber": 67,
        "velocity": 0,
        "subtype": "noteOff"
      },
      {
        "deltaTime": 0,
        "channel": 1,
        "type": "channel",
        "noteNumber": 70,
        "velocity": 127,
        "subtype": "noteOn"
      },
      {
        "deltaTime": 0,
        "channel": 1,
        "type": "channel",
        "noteNumber": 58,
        "velocity": 127,
        "subtype": "noteOn"
      },
      {
        "deltaTime": 480,
        "channel": 1,
        "type": "channel",
        "noteNumber": 58,
        "velocity": 0,
        "subtype": "noteOff"
      },
      {
        "deltaTime": 0,
        "channel": 1,
        "type": "channel",
        "noteNumber": 70,
        "velocity": 0,
        "subtype": "noteOff"
      },
      {
        "deltaTime": 0,
        "channel": 1,
        "type": "channel",
        "noteNumber": 62,
        "velocity": 127,
        "subtype": "noteOn"
      },
      {
        "deltaTime": 0,
        "channel": 1,
        "type": "channel",
        "noteNumber": 49,
        "velocity": 127,
        "subtype": "noteOn"
      },
      {
        "deltaTime": 0,
        "channel": 1,
        "type": "channel",
        "noteNumber": 50,
        "velocity": 127,
        "subtype": "noteOn"
      },
      {
        "deltaTime": 40,
        "channel": 1,
        "type": "channel",
        "noteNumber": 49,
        "velocity": 0,
        "subtype": "noteOff"
      },
      {
        "deltaTime": 680,
        "channel": 1,
        "type": "channel",
        "noteNumber": 50,
        "velocity": 0,
        "subtype": "noteOff"
      },
      {
        "deltaTime": 0,
        "channel": 1,
        "type": "channel",
        "noteNumber": 62,
        "velocity": 0,
        "subtype": "noteOff"
      },
      {
        "deltaTime": 0,
        "channel": 1,
        "type": "channel",
        "noteNumber": 62,
        "velocity": 127,
        "subtype": "noteOn"
      },
      {
        "deltaTime": 0,
        "channel": 1,
        "type": "channel",
        "noteNumber": 49,
        "velocity": 127,
        "subtype": "noteOn"
      },
      {
        "deltaTime": 0,
        "channel": 1,
        "type": "channel",
        "noteNumber": 50,
        "velocity": 127,
        "subtype": "noteOn"
      },
      {
        "deltaTime": 40,
        "channel": 1,
        "type": "channel",
        "noteNumber": 49,
        "velocity": 0,
        "subtype": "noteOff"
      },
      {
        "deltaTime": 680,
        "channel": 1,
        "type": "channel",
        "noteNumber": 50,
        "velocity": 0,
        "subtype": "noteOff"
      },
      {
        "deltaTime": 0,
        "channel": 1,
        "type": "channel",
        "noteNumber": 62,
        "velocity": 0,
        "subtype": "noteOff"
      },
      {
        "deltaTime": 0,
        "channel": 1,
        "type": "channel",
        "noteNumber": 62,
        "velocity": 127,
        "subtype": "noteOn"
      },
      {
        "deltaTime": 0,
        "channel": 1,
        "type": "channel",
        "noteNumber": 49,
        "velocity": 127,
        "subtype": "noteOn"
      },
      {
        "deltaTime": 0,
        "channel": 1,
        "type": "channel",
        "noteNumber": 50,
        "velocity": 127,
        "subtype": "noteOn"
      },
      {
        "deltaTime": 40,
        "channel": 1,
        "type": "channel",
        "noteNumber": 49,
        "velocity": 0,
        "subtype": "noteOff"
      },
      {
        "deltaTime": 440,
        "channel": 1,
        "type": "channel",
        "noteNumber": 50,
        "velocity": 0,
        "subtype": "noteOff"
      },
      {
        "deltaTime": 0,
        "channel": 1,
        "type": "channel",
        "noteNumber": 62,
        "velocity": 0,
        "subtype": "noteOff"
      },
      {
        "deltaTime": 0,
        "channel": 1,
        "type": "channel",
        "noteNumber": 70,
        "velocity": 127,
        "subtype": "noteOn"
      },
      {
        "deltaTime": 0,
        "channel": 1,
        "type": "channel",
        "noteNumber": 58,
        "velocity": 127,
        "subtype": "noteOn"
      },
      {
        "deltaTime": 480,
        "channel": 1,
        "type": "channel",
        "noteNumber": 58,
        "velocity": 0,
        "subtype": "noteOff"
      },
      {
        "deltaTime": 0,
        "channel": 1,
        "type": "channel",
        "noteNumber": 70,
        "velocity": 0,
        "subtype": "noteOff"
      },
      {
        "deltaTime": 0,
        "channel": 1,
        "type": "channel",
        "noteNumber": 72,
        "velocity": 127,
        "subtype": "noteOn"
      },
      {
        "deltaTime": 0,
        "channel": 1,
        "type": "channel",
        "noteNumber": 58,
        "velocity": 127,
        "subtype": "noteOn"
      },
      {
        "deltaTime": 0,
        "channel": 1,
        "type": "channel",
        "noteNumber": 60,
        "velocity": 127,
        "subtype": "noteOn"
      },
      {
        "deltaTime": 40,
        "channel": 1,
        "type": "channel",
        "noteNumber": 58,
        "velocity": 0,
        "subtype": "noteOff"
      },
      {
        "deltaTime": 440,
        "channel": 1,
        "type": "channel",
        "noteNumber": 60,
        "velocity": 0,
        "subtype": "noteOff"
      },
      {
        "deltaTime": 0,
        "channel": 1,
        "type": "channel",
        "noteNumber": 72,
        "velocity": 0,
        "subtype": "noteOff"
      },
      {
        "deltaTime": 0,
        "channel": 1,
        "type": "channel",
        "noteNumber": 67,
        "velocity": 127,
        "subtype": "noteOn"
      },
      {
        "deltaTime": 0,
        "channel": 1,
        "type": "channel",
        "noteNumber": 60,
        "velocity": 127,
        "subtype": "noteOn"
      },
      {
        "deltaTime": 0,
        "channel": 1,
        "type": "channel",
        "noteNumber": 55,
        "velocity": 127,
        "subtype": "noteOn"
      },
      {
        "deltaTime": 40,
        "channel": 1,
        "type": "channel",
        "noteNumber": 60,
        "velocity": 0,
        "subtype": "noteOff"
      },
      {
        "deltaTime": 680,
        "channel": 1,
        "type": "channel",
        "noteNumber": 55,
        "velocity": 0,
        "subtype": "noteOff"
      },
      {
        "deltaTime": 0,
        "channel": 1,
        "type": "channel",
        "noteNumber": 67,
        "velocity": 0,
        "subtype": "noteOff"
      },
      {
        "deltaTime": 0,
        "channel": 1,
        "type": "channel",
        "noteNumber": 67,
        "velocity": 127,
        "subtype": "noteOn"
      },
      {
        "deltaTime": 0,
        "channel": 1,
        "type": "channel",
        "noteNumber": 60,
        "velocity": 127,
        "subtype": "noteOn"
      },
      {
        "deltaTime": 0,
        "channel": 1,
        "type": "channel",
        "noteNumber": 55,
        "velocity": 127,
        "subtype": "noteOn"
      },
      {
        "deltaTime": 40,
        "channel": 1,
        "type": "channel",
        "noteNumber": 60,
        "velocity": 0,
        "subtype": "noteOff"
      },
      {
        "deltaTime": 680,
        "channel": 1,
        "type": "channel",
        "noteNumber": 55,
        "velocity": 0,
        "subtype": "noteOff"
      },
      {
        "deltaTime": 0,
        "channel": 1,
        "type": "channel",
        "noteNumber": 67,
        "velocity": 0,
        "subtype": "noteOff"
      },
      {
        "deltaTime": 0,
        "channel": 1,
        "type": "channel",
        "noteNumber": 67,
        "velocity": 127,
        "subtype": "noteOn"
      },
      {
        "deltaTime": 0,
        "channel": 1,
        "type": "channel",
        "noteNumber": 60,
        "velocity": 127,
        "subtype": "noteOn"
      },
      {
        "deltaTime": 0,
        "channel": 1,
        "type": "channel",
        "noteNumber": 55,
        "velocity": 127,
        "subtype": "noteOn"
      },
      {
        "deltaTime": 40,
        "channel": 1,
        "type": "channel",
        "noteNumber": 60,
        "velocity": 0,
        "subtype": "noteOff"
      },
      {
        "deltaTime": 440,
        "channel": 1,
        "type": "channel",
        "noteNumber": 55,
        "velocity": 0,
        "subtype": "noteOff"
      },
      {
        "deltaTime": 0,
        "channel": 1,
        "type": "channel",
        "noteNumber": 67,
        "velocity": 0,
        "subtype": "noteOff"
      },
      {
        "deltaTime": 0,
        "channel": 1,
        "type": "channel",
        "noteNumber": 65,
        "velocity": 127,
        "subtype": "noteOn"
      },
      {
        "deltaTime": 0,
        "channel": 1,
        "type": "channel",
        "noteNumber": 54,
        "velocity": 127,
        "subtype": "noteOn"
      },
      {
        "deltaTime": 0,
        "channel": 1,
        "type": "channel",
        "noteNumber": 53,
        "velocity": 127,
        "subtype": "noteOn"
      },
      {
        "deltaTime": 40,
        "channel": 1,
        "type": "channel",
        "noteNumber": 54,
        "velocity": 0,
        "subtype": "noteOff"
      },
      {
        "deltaTime": 920,
        "channel": 1,
        "type": "channel",
        "noteNumber": 53,
        "velocity": 0,
        "subtype": "noteOff"
      },
      {
        "deltaTime": 0,
        "channel": 1,
        "type": "channel",
        "noteNumber": 65,
        "velocity": 0,
        "subtype": "noteOff"
      },
      {
        "deltaTime": 0,
        "channel": 1,
        "type": "channel",
        "noteNumber": 60,
        "velocity": 127,
        "subtype": "noteOn"
      },
      {
        "deltaTime": 0,
        "channel": 1,
        "type": "channel",
        "noteNumber": 49,
        "velocity": 127,
        "subtype": "noteOn"
      },
      {
        "deltaTime": 0,
        "channel": 1,
        "type": "channel",
        "noteNumber": 48,
        "velocity": 127,
        "subtype": "noteOn"
      },
      {
        "deltaTime": 40,
        "channel": 1,
        "type": "channel",
        "noteNumber": 49,
        "velocity": 0,
        "subtype": "noteOff"
      },
      {
        "deltaTime": 680,
        "channel": 1,
        "type": "channel",
        "noteNumber": 48,
        "velocity": 0,
        "subtype": "noteOff"
      },
      {
        "deltaTime": 0,
        "channel": 1,
        "type": "channel",
        "noteNumber": 60,
        "velocity": 0,
        "subtype": "noteOff"
      },
      {
        "deltaTime": 0,
        "channel": 1,
        "type": "channel",
        "noteNumber": 60,
        "velocity": 127,
        "subtype": "noteOn"
      },
      {
        "deltaTime": 0,
        "channel": 1,
        "type": "channel",
        "noteNumber": 49,
        "velocity": 127,
        "subtype": "noteOn"
      },
      {
        "deltaTime": 0,
        "channel": 1,
        "type": "channel",
        "noteNumber": 48,
        "velocity": 127,
        "subtype": "noteOn"
      },
      {
        "deltaTime": 40,
        "channel": 1,
        "type": "channel",
        "noteNumber": 49,
        "velocity": 0,
        "subtype": "noteOff"
      },
      {
        "deltaTime": 680,
        "channel": 1,
        "type": "channel",
        "noteNumber": 48,
        "velocity": 0,
        "subtype": "noteOff"
      },
      {
        "deltaTime": 0,
        "channel": 1,
        "type": "channel",
        "noteNumber": 60,
        "velocity": 0,
        "subtype": "noteOff"
      },
      {
        "deltaTime": 0,
        "channel": 1,
        "type": "channel",
        "noteNumber": 60,
        "velocity": 127,
        "subtype": "noteOn"
      },
      {
        "deltaTime": 0,
        "channel": 1,
        "type": "channel",
        "noteNumber": 49,
        "velocity": 127,
        "subtype": "noteOn"
      },
      {
        "deltaTime": 0,
        "channel": 1,
        "type": "channel",
        "noteNumber": 48,
        "velocity": 127,
        "subtype": "noteOn"
      },
      {
        "deltaTime": 40,
        "channel": 1,
        "type": "channel",
        "noteNumber": 49,
        "velocity": 0,
        "subtype": "noteOff"
      },
      {
        "deltaTime": 440,
        "channel": 1,
        "type": "channel",
        "noteNumber": 48,
        "velocity": 0,
        "subtype": "noteOff"
      },
      {
        "deltaTime": 0,
        "channel": 1,
        "type": "channel",
        "noteNumber": 60,
        "velocity": 0,
        "subtype": "noteOff"
      },
      {
        "deltaTime": 0,
        "channel": 1,
        "type": "channel",
        "noteNumber": 65,
        "velocity": 127,
        "subtype": "noteOn"
      },
      {
        "deltaTime": 0,
        "channel": 1,
        "type": "channel",
        "noteNumber": 54,
        "velocity": 127,
        "subtype": "noteOn"
      },
      {
        "deltaTime": 0,
        "channel": 1,
        "type": "channel",
        "noteNumber": 53,
        "velocity": 127,
        "subtype": "noteOn"
      },
      {
        "deltaTime": 40,
        "channel": 1,
        "type": "channel",
        "noteNumber": 54,
        "velocity": 0,
        "subtype": "noteOff"
      },
      {
        "deltaTime": 440,
        "channel": 1,
        "type": "channel",
        "noteNumber": 53,
        "velocity": 0,
        "subtype": "noteOff"
      },
      {
        "deltaTime": 0,
        "channel": 1,
        "type": "channel",
        "noteNumber": 65,
        "velocity": 0,
        "subtype": "noteOff"
      },
      {
        "deltaTime": 0,
        "channel": 1,
        "type": "channel",
        "noteNumber": 67,
        "velocity": 127,
        "subtype": "noteOn"
      },
      {
        "deltaTime": 0,
        "channel": 1,
        "type": "channel",
        "noteNumber": 54,
        "velocity": 127,
        "subtype": "noteOn"
      },
      {
        "deltaTime": 0,
        "channel": 1,
        "type": "channel",
        "noteNumber": 55,
        "velocity": 127,
        "subtype": "noteOn"
      },
      {
        "deltaTime": 40,
        "channel": 1,
        "type": "channel",
        "noteNumber": 54,
        "velocity": 0,
        "subtype": "noteOff"
      },
      {
        "deltaTime": 440,
        "channel": 1,
        "type": "channel",
        "noteNumber": 55,
        "velocity": 0,
        "subtype": "noteOff"
      },
      {
        "deltaTime": 0,
        "channel": 1,
        "type": "channel",
        "noteNumber": 67,
        "velocity": 0,
        "subtype": "noteOff"
      },
      {
        "deltaTime": 0,
        "channel": 1,
        "type": "channel",
        "noteNumber": 60,
        "velocity": 127,
        "subtype": "noteOn"
      },
      {
        "deltaTime": 0,
        "channel": 1,
        "type": "channel",
        "noteNumber": 49,
        "velocity": 127,
        "subtype": "noteOn"
      },
      {
        "deltaTime": 0,
        "channel": 1,
        "type": "channel",
        "noteNumber": 48,
        "velocity": 127,
        "subtype": "noteOn"
      },
      {
        "deltaTime": 40,
        "channel": 1,
        "type": "channel",
        "noteNumber": 49,
        "velocity": 0,
        "subtype": "noteOff"
      },
      {
        "deltaTime": 680,
        "channel": 1,
        "type": "channel",
        "noteNumber": 48,
        "velocity": 0,
        "subtype": "noteOff"
      },
      {
        "deltaTime": 0,
        "channel": 1,
        "type": "channel",
        "noteNumber": 60,
        "velocity": 0,
        "subtype": "noteOff"
      },
      {
        "deltaTime": 0,
        "channel": 1,
        "type": "channel",
        "noteNumber": 60,
        "velocity": 127,
        "subtype": "noteOn"
      },
      {
        "deltaTime": 0,
        "channel": 1,
        "type": "channel",
        "noteNumber": 49,
        "velocity": 127,
        "subtype": "noteOn"
      },
      {
        "deltaTime": 0,
        "channel": 1,
        "type": "channel",
        "noteNumber": 48,
        "velocity": 127,
        "subtype": "noteOn"
      },
      {
        "deltaTime": 40,
        "channel": 1,
        "type": "channel",
        "noteNumber": 49,
        "velocity": 0,
        "subtype": "noteOff"
      },
      {
        "deltaTime": 680,
        "channel": 1,
        "type": "channel",
        "noteNumber": 48,
        "velocity": 0,
        "subtype": "noteOff"
      },
      {
        "deltaTime": 0,
        "channel": 1,
        "type": "channel",
        "noteNumber": 60,
        "velocity": 0,
        "subtype": "noteOff"
      },
      {
        "deltaTime": 0,
        "channel": 1,
        "type": "channel",
        "noteNumber": 60,
        "velocity": 127,
        "subtype": "noteOn"
      },
      {
        "deltaTime": 0,
        "channel": 1,
        "type": "channel",
        "noteNumber": 49,
        "velocity": 127,
        "subtype": "noteOn"
      },
      {
        "deltaTime": 0,
        "channel": 1,
        "type": "channel",
        "noteNumber": 48,
        "velocity": 127,
        "subtype": "noteOn"
      },
      {
        "deltaTime": 40,
        "channel": 1,
        "type": "channel",
        "noteNumber": 49,
        "velocity": 0,
        "subtype": "noteOff"
      },
      {
        "deltaTime": 440,
        "channel": 1,
        "type": "channel",
        "noteNumber": 48,
        "velocity": 0,
        "subtype": "noteOff"
      },
      {
        "deltaTime": 0,
        "channel": 1,
        "type": "channel",
        "noteNumber": 60,
        "velocity": 0,
        "subtype": "noteOff"
      },
      {
        "deltaTime": 0,
        "channel": 1,
        "type": "channel",
        "noteNumber": 67,
        "velocity": 127,
        "subtype": "noteOn"
      },
      {
        "deltaTime": 0,
        "channel": 1,
        "type": "channel",
        "noteNumber": 54,
        "velocity": 127,
        "subtype": "noteOn"
      },
      {
        "deltaTime": 0,
        "channel": 1,
        "type": "channel",
        "noteNumber": 55,
        "velocity": 127,
        "subtype": "noteOn"
      },
      {
        "deltaTime": 40,
        "channel": 1,
        "type": "channel",
        "noteNumber": 54,
        "velocity": 0,
        "subtype": "noteOff"
      },
      {
        "deltaTime": 440,
        "channel": 1,
        "type": "channel",
        "noteNumber": 55,
        "velocity": 0,
        "subtype": "noteOff"
      },
      {
        "deltaTime": 0,
        "channel": 1,
        "type": "channel",
        "noteNumber": 67,
        "velocity": 0,
        "subtype": "noteOff"
      },
      {
        "deltaTime": 0,
        "channel": 1,
        "type": "channel",
        "noteNumber": 70,
        "velocity": 127,
        "subtype": "noteOn"
      },
      {
        "deltaTime": 0,
        "channel": 1,
        "type": "channel",
        "noteNumber": 58,
        "velocity": 127,
        "subtype": "noteOn"
      },
      {
        "deltaTime": 480,
        "channel": 1,
        "type": "channel",
        "noteNumber": 58,
        "velocity": 0,
        "subtype": "noteOff"
      },
      {
        "deltaTime": 0,
        "channel": 1,
        "type": "channel",
        "noteNumber": 70,
        "velocity": 0,
        "subtype": "noteOff"
      },
      {
        "deltaTime": 0,
        "channel": 1,
        "type": "channel",
        "noteNumber": 62,
        "velocity": 127,
        "subtype": "noteOn"
      },
      {
        "deltaTime": 0,
        "channel": 1,
        "type": "channel",
        "noteNumber": 49,
        "velocity": 127,
        "subtype": "noteOn"
      },
      {
        "deltaTime": 0,
        "channel": 1,
        "type": "channel",
        "noteNumber": 50,
        "velocity": 127,
        "subtype": "noteOn"
      },
      {
        "deltaTime": 40,
        "channel": 1,
        "type": "channel",
        "noteNumber": 49,
        "velocity": 0,
        "subtype": "noteOff"
      },
      {
        "deltaTime": 680,
        "channel": 1,
        "type": "channel",
        "noteNumber": 50,
        "velocity": 0,
        "subtype": "noteOff"
      },
      {
        "deltaTime": 0,
        "channel": 1,
        "type": "channel",
        "noteNumber": 62,
        "velocity": 0,
        "subtype": "noteOff"
      },
      {
        "deltaTime": 0,
        "channel": 1,
        "type": "channel",
        "noteNumber": 62,
        "velocity": 127,
        "subtype": "noteOn"
      },
      {
        "deltaTime": 0,
        "channel": 1,
        "type": "channel",
        "noteNumber": 49,
        "velocity": 127,
        "subtype": "noteOn"
      },
      {
        "deltaTime": 0,
        "channel": 1,
        "type": "channel",
        "noteNumber": 50,
        "velocity": 127,
        "subtype": "noteOn"
      },
      {
        "deltaTime": 40,
        "channel": 1,
        "type": "channel",
        "noteNumber": 49,
        "velocity": 0,
        "subtype": "noteOff"
      },
      {
        "deltaTime": 680,
        "channel": 1,
        "type": "channel",
        "noteNumber": 50,
        "velocity": 0,
        "subtype": "noteOff"
      },
      {
        "deltaTime": 0,
        "channel": 1,
        "type": "channel",
        "noteNumber": 62,
        "velocity": 0,
        "subtype": "noteOff"
      },
      {
        "deltaTime": 0,
        "channel": 1,
        "type": "channel",
        "noteNumber": 62,
        "velocity": 127,
        "subtype": "noteOn"
      },
      {
        "deltaTime": 0,
        "channel": 1,
        "type": "channel",
        "noteNumber": 49,
        "velocity": 127,
        "subtype": "noteOn"
      },
      {
        "deltaTime": 0,
        "channel": 1,
        "type": "channel",
        "noteNumber": 50,
        "velocity": 127,
        "subtype": "noteOn"
      },
      {
        "deltaTime": 40,
        "channel": 1,
        "type": "channel",
        "noteNumber": 49,
        "velocity": 0,
        "subtype": "noteOff"
      },
      {
        "deltaTime": 440,
        "channel": 1,
        "type": "channel",
        "noteNumber": 50,
        "velocity": 0,
        "subtype": "noteOff"
      },
      {
        "deltaTime": 0,
        "channel": 1,
        "type": "channel",
        "noteNumber": 62,
        "velocity": 0,
        "subtype": "noteOff"
      },
      {
        "deltaTime": 0,
        "channel": 1,
        "type": "channel",
        "noteNumber": 70,
        "velocity": 127,
        "subtype": "noteOn"
      },
      {
        "deltaTime": 0,
        "channel": 1,
        "type": "channel",
        "noteNumber": 58,
        "velocity": 127,
        "subtype": "noteOn"
      },
      {
        "deltaTime": 480,
        "channel": 1,
        "type": "channel",
        "noteNumber": 58,
        "velocity": 0,
        "subtype": "noteOff"
      },
      {
        "deltaTime": 0,
        "channel": 1,
        "type": "channel",
        "noteNumber": 70,
        "velocity": 0,
        "subtype": "noteOff"
      },
      {
        "deltaTime": 0,
        "channel": 1,
        "type": "channel",
        "noteNumber": 72,
        "velocity": 127,
        "subtype": "noteOn"
      },
      {
        "deltaTime": 0,
        "channel": 1,
        "type": "channel",
        "noteNumber": 58,
        "velocity": 127,
        "subtype": "noteOn"
      },
      {
        "deltaTime": 0,
        "channel": 1,
        "type": "channel",
        "noteNumber": 60,
        "velocity": 127,
        "subtype": "noteOn"
      },
      {
        "deltaTime": 40,
        "channel": 1,
        "type": "channel",
        "noteNumber": 58,
        "velocity": 0,
        "subtype": "noteOff"
      },
      {
        "deltaTime": 440,
        "channel": 1,
        "type": "channel",
        "noteNumber": 60,
        "velocity": 0,
        "subtype": "noteOff"
      },
      {
        "deltaTime": 0,
        "channel": 1,
        "type": "channel",
        "noteNumber": 72,
        "velocity": 0,
        "subtype": "noteOff"
      },
      {
        "deltaTime": 0,
        "channel": 1,
        "type": "channel",
        "noteNumber": 67,
        "velocity": 127,
        "subtype": "noteOn"
      },
      {
        "deltaTime": 0,
        "channel": 1,
        "type": "channel",
        "noteNumber": 60,
        "velocity": 127,
        "subtype": "noteOn"
      },
      {
        "deltaTime": 0,
        "channel": 1,
        "type": "channel",
        "noteNumber": 55,
        "velocity": 127,
        "subtype": "noteOn"
      },
      {
        "deltaTime": 40,
        "channel": 1,
        "type": "channel",
        "noteNumber": 60,
        "velocity": 0,
        "subtype": "noteOff"
      },
      {
        "deltaTime": 680,
        "channel": 1,
        "type": "channel",
        "noteNumber": 55,
        "velocity": 0,
        "subtype": "noteOff"
      },
      {
        "deltaTime": 0,
        "channel": 1,
        "type": "channel",
        "noteNumber": 67,
        "velocity": 0,
        "subtype": "noteOff"
      },
      {
        "deltaTime": 0,
        "channel": 1,
        "type": "channel",
        "noteNumber": 67,
        "velocity": 127,
        "subtype": "noteOn"
      },
      {
        "deltaTime": 0,
        "channel": 1,
        "type": "channel",
        "noteNumber": 60,
        "velocity": 127,
        "subtype": "noteOn"
      },
      {
        "deltaTime": 0,
        "channel": 1,
        "type": "channel",
        "noteNumber": 55,
        "velocity": 127,
        "subtype": "noteOn"
      },
      {
        "deltaTime": 40,
        "channel": 1,
        "type": "channel",
        "noteNumber": 60,
        "velocity": 0,
        "subtype": "noteOff"
      },
      {
        "deltaTime": 680,
        "channel": 1,
        "type": "channel",
        "noteNumber": 55,
        "velocity": 0,
        "subtype": "noteOff"
      },
      {
        "deltaTime": 0,
        "channel": 1,
        "type": "channel",
        "noteNumber": 67,
        "velocity": 0,
        "subtype": "noteOff"
      },
      {
        "deltaTime": 0,
        "channel": 1,
        "type": "channel",
        "noteNumber": 67,
        "velocity": 127,
        "subtype": "noteOn"
      },
      {
        "deltaTime": 0,
        "channel": 1,
        "type": "channel",
        "noteNumber": 60,
        "velocity": 127,
        "subtype": "noteOn"
      },
      {
        "deltaTime": 0,
        "channel": 1,
        "type": "channel",
        "noteNumber": 55,
        "velocity": 127,
        "subtype": "noteOn"
      },
      {
        "deltaTime": 40,
        "channel": 1,
        "type": "channel",
        "noteNumber": 60,
        "velocity": 0,
        "subtype": "noteOff"
      },
      {
        "deltaTime": 440,
        "channel": 1,
        "type": "channel",
        "noteNumber": 55,
        "velocity": 0,
        "subtype": "noteOff"
      },
      {
        "deltaTime": 0,
        "channel": 1,
        "type": "channel",
        "noteNumber": 67,
        "velocity": 0,
        "subtype": "noteOff"
      },
      {
        "deltaTime": 0,
        "channel": 1,
        "type": "channel",
        "noteNumber": 65,
        "velocity": 127,
        "subtype": "noteOn"
      },
      {
        "deltaTime": 0,
        "channel": 1,
        "type": "channel",
        "noteNumber": 54,
        "velocity": 127,
        "subtype": "noteOn"
      },
      {
        "deltaTime": 0,
        "channel": 1,
        "type": "channel",
        "noteNumber": 53,
        "velocity": 127,
        "subtype": "noteOn"
      },
      {
        "deltaTime": 40,
        "channel": 1,
        "type": "channel",
        "noteNumber": 54,
        "velocity": 0,
        "subtype": "noteOff"
      },
      {
        "deltaTime": 920,
        "channel": 1,
        "type": "channel",
        "noteNumber": 53,
        "velocity": 0,
        "subtype": "noteOff"
      },
      {
        "deltaTime": 0,
        "channel": 1,
        "type": "channel",
        "noteNumber": 65,
        "velocity": 0,
        "subtype": "noteOff"
      },
      {
        "deltaTime": 23040,
        "channel": 1,
        "type": "channel",
        "noteNumber": 60,
        "velocity": 127,
        "subtype": "noteOn"
      },
      {
        "deltaTime": 0,
        "channel": 1,
        "type": "channel",
        "noteNumber": 49,
        "velocity": 127,
        "subtype": "noteOn"
      },
      {
        "deltaTime": 0,
        "channel": 1,
        "type": "channel",
        "noteNumber": 48,
        "velocity": 127,
        "subtype": "noteOn"
      },
      {
        "deltaTime": 40,
        "channel": 1,
        "type": "channel",
        "noteNumber": 49,
        "velocity": 0,
        "subtype": "noteOff"
      },
      {
        "deltaTime": 680,
        "channel": 1,
        "type": "channel",
        "noteNumber": 48,
        "velocity": 0,
        "subtype": "noteOff"
      },
      {
        "deltaTime": 0,
        "channel": 1,
        "type": "channel",
        "noteNumber": 60,
        "velocity": 0,
        "subtype": "noteOff"
      },
      {
        "deltaTime": 0,
        "channel": 1,
        "type": "channel",
        "noteNumber": 60,
        "velocity": 127,
        "subtype": "noteOn"
      },
      {
        "deltaTime": 0,
        "channel": 1,
        "type": "channel",
        "noteNumber": 49,
        "velocity": 127,
        "subtype": "noteOn"
      },
      {
        "deltaTime": 0,
        "channel": 1,
        "type": "channel",
        "noteNumber": 48,
        "velocity": 127,
        "subtype": "noteOn"
      },
      {
        "deltaTime": 40,
        "channel": 1,
        "type": "channel",
        "noteNumber": 49,
        "velocity": 0,
        "subtype": "noteOff"
      },
      {
        "deltaTime": 680,
        "channel": 1,
        "type": "channel",
        "noteNumber": 48,
        "velocity": 0,
        "subtype": "noteOff"
      },
      {
        "deltaTime": 0,
        "channel": 1,
        "type": "channel",
        "noteNumber": 60,
        "velocity": 0,
        "subtype": "noteOff"
      },
      {
        "deltaTime": 0,
        "channel": 1,
        "type": "channel",
        "noteNumber": 60,
        "velocity": 127,
        "subtype": "noteOn"
      },
      {
        "deltaTime": 0,
        "channel": 1,
        "type": "channel",
        "noteNumber": 49,
        "velocity": 127,
        "subtype": "noteOn"
      },
      {
        "deltaTime": 0,
        "channel": 1,
        "type": "channel",
        "noteNumber": 48,
        "velocity": 127,
        "subtype": "noteOn"
      },
      {
        "deltaTime": 40,
        "channel": 1,
        "type": "channel",
        "noteNumber": 49,
        "velocity": 0,
        "subtype": "noteOff"
      },
      {
        "deltaTime": 440,
        "channel": 1,
        "type": "channel",
        "noteNumber": 48,
        "velocity": 0,
        "subtype": "noteOff"
      },
      {
        "deltaTime": 0,
        "channel": 1,
        "type": "channel",
        "noteNumber": 60,
        "velocity": 0,
        "subtype": "noteOff"
      },
      {
        "deltaTime": 0,
        "channel": 1,
        "type": "channel",
        "noteNumber": 65,
        "velocity": 127,
        "subtype": "noteOn"
      },
      {
        "deltaTime": 0,
        "channel": 1,
        "type": "channel",
        "noteNumber": 54,
        "velocity": 127,
        "subtype": "noteOn"
      },
      {
        "deltaTime": 0,
        "channel": 1,
        "type": "channel",
        "noteNumber": 53,
        "velocity": 127,
        "subtype": "noteOn"
      },
      {
        "deltaTime": 40,
        "channel": 1,
        "type": "channel",
        "noteNumber": 54,
        "velocity": 0,
        "subtype": "noteOff"
      },
      {
        "deltaTime": 440,
        "channel": 1,
        "type": "channel",
        "noteNumber": 53,
        "velocity": 0,
        "subtype": "noteOff"
      },
      {
        "deltaTime": 0,
        "channel": 1,
        "type": "channel",
        "noteNumber": 65,
        "velocity": 0,
        "subtype": "noteOff"
      },
      {
        "deltaTime": 0,
        "channel": 1,
        "type": "channel",
        "noteNumber": 67,
        "velocity": 127,
        "subtype": "noteOn"
      },
      {
        "deltaTime": 0,
        "channel": 1,
        "type": "channel",
        "noteNumber": 54,
        "velocity": 127,
        "subtype": "noteOn"
      },
      {
        "deltaTime": 0,
        "channel": 1,
        "type": "channel",
        "noteNumber": 55,
        "velocity": 127,
        "subtype": "noteOn"
      },
      {
        "deltaTime": 40,
        "channel": 1,
        "type": "channel",
        "noteNumber": 54,
        "velocity": 0,
        "subtype": "noteOff"
      },
      {
        "deltaTime": 440,
        "channel": 1,
        "type": "channel",
        "noteNumber": 55,
        "velocity": 0,
        "subtype": "noteOff"
      },
      {
        "deltaTime": 0,
        "channel": 1,
        "type": "channel",
        "noteNumber": 67,
        "velocity": 0,
        "subtype": "noteOff"
      },
      {
        "deltaTime": 0,
        "channel": 1,
        "type": "channel",
        "noteNumber": 60,
        "velocity": 127,
        "subtype": "noteOn"
      },
      {
        "deltaTime": 0,
        "channel": 1,
        "type": "channel",
        "noteNumber": 49,
        "velocity": 127,
        "subtype": "noteOn"
      },
      {
        "deltaTime": 0,
        "channel": 1,
        "type": "channel",
        "noteNumber": 48,
        "velocity": 127,
        "subtype": "noteOn"
      },
      {
        "deltaTime": 40,
        "channel": 1,
        "type": "channel",
        "noteNumber": 49,
        "velocity": 0,
        "subtype": "noteOff"
      },
      {
        "deltaTime": 680,
        "channel": 1,
        "type": "channel",
        "noteNumber": 48,
        "velocity": 0,
        "subtype": "noteOff"
      },
      {
        "deltaTime": 0,
        "channel": 1,
        "type": "channel",
        "noteNumber": 60,
        "velocity": 0,
        "subtype": "noteOff"
      },
      {
        "deltaTime": 0,
        "channel": 1,
        "type": "channel",
        "noteNumber": 60,
        "velocity": 127,
        "subtype": "noteOn"
      },
      {
        "deltaTime": 0,
        "channel": 1,
        "type": "channel",
        "noteNumber": 49,
        "velocity": 127,
        "subtype": "noteOn"
      },
      {
        "deltaTime": 0,
        "channel": 1,
        "type": "channel",
        "noteNumber": 48,
        "velocity": 127,
        "subtype": "noteOn"
      },
      {
        "deltaTime": 40,
        "channel": 1,
        "type": "channel",
        "noteNumber": 49,
        "velocity": 0,
        "subtype": "noteOff"
      },
      {
        "deltaTime": 680,
        "channel": 1,
        "type": "channel",
        "noteNumber": 48,
        "velocity": 0,
        "subtype": "noteOff"
      },
      {
        "deltaTime": 0,
        "channel": 1,
        "type": "channel",
        "noteNumber": 60,
        "velocity": 0,
        "subtype": "noteOff"
      },
      {
        "deltaTime": 0,
        "channel": 1,
        "type": "channel",
        "noteNumber": 60,
        "velocity": 127,
        "subtype": "noteOn"
      },
      {
        "deltaTime": 0,
        "channel": 1,
        "type": "channel",
        "noteNumber": 49,
        "velocity": 127,
        "subtype": "noteOn"
      },
      {
        "deltaTime": 0,
        "channel": 1,
        "type": "channel",
        "noteNumber": 48,
        "velocity": 127,
        "subtype": "noteOn"
      },
      {
        "deltaTime": 40,
        "channel": 1,
        "type": "channel",
        "noteNumber": 49,
        "velocity": 0,
        "subtype": "noteOff"
      },
      {
        "deltaTime": 440,
        "channel": 1,
        "type": "channel",
        "noteNumber": 48,
        "velocity": 0,
        "subtype": "noteOff"
      },
      {
        "deltaTime": 0,
        "channel": 1,
        "type": "channel",
        "noteNumber": 60,
        "velocity": 0,
        "subtype": "noteOff"
      },
      {
        "deltaTime": 0,
        "channel": 1,
        "type": "channel",
        "noteNumber": 67,
        "velocity": 127,
        "subtype": "noteOn"
      },
      {
        "deltaTime": 0,
        "channel": 1,
        "type": "channel",
        "noteNumber": 54,
        "velocity": 127,
        "subtype": "noteOn"
      },
      {
        "deltaTime": 0,
        "channel": 1,
        "type": "channel",
        "noteNumber": 55,
        "velocity": 127,
        "subtype": "noteOn"
      },
      {
        "deltaTime": 40,
        "channel": 1,
        "type": "channel",
        "noteNumber": 54,
        "velocity": 0,
        "subtype": "noteOff"
      },
      {
        "deltaTime": 440,
        "channel": 1,
        "type": "channel",
        "noteNumber": 55,
        "velocity": 0,
        "subtype": "noteOff"
      },
      {
        "deltaTime": 0,
        "channel": 1,
        "type": "channel",
        "noteNumber": 67,
        "velocity": 0,
        "subtype": "noteOff"
      },
      {
        "deltaTime": 0,
        "channel": 1,
        "type": "channel",
        "noteNumber": 70,
        "velocity": 127,
        "subtype": "noteOn"
      },
      {
        "deltaTime": 0,
        "channel": 1,
        "type": "channel",
        "noteNumber": 58,
        "velocity": 127,
        "subtype": "noteOn"
      },
      {
        "deltaTime": 480,
        "channel": 1,
        "type": "channel",
        "noteNumber": 58,
        "velocity": 0,
        "subtype": "noteOff"
      },
      {
        "deltaTime": 0,
        "channel": 1,
        "type": "channel",
        "noteNumber": 70,
        "velocity": 0,
        "subtype": "noteOff"
      },
      {
        "deltaTime": 0,
        "channel": 1,
        "type": "channel",
        "noteNumber": 62,
        "velocity": 127,
        "subtype": "noteOn"
      },
      {
        "deltaTime": 0,
        "channel": 1,
        "type": "channel",
        "noteNumber": 49,
        "velocity": 127,
        "subtype": "noteOn"
      },
      {
        "deltaTime": 0,
        "channel": 1,
        "type": "channel",
        "noteNumber": 50,
        "velocity": 127,
        "subtype": "noteOn"
      },
      {
        "deltaTime": 40,
        "channel": 1,
        "type": "channel",
        "noteNumber": 49,
        "velocity": 0,
        "subtype": "noteOff"
      },
      {
        "deltaTime": 680,
        "channel": 1,
        "type": "channel",
        "noteNumber": 50,
        "velocity": 0,
        "subtype": "noteOff"
      },
      {
        "deltaTime": 0,
        "channel": 1,
        "type": "channel",
        "noteNumber": 62,
        "velocity": 0,
        "subtype": "noteOff"
      },
      {
        "deltaTime": 0,
        "channel": 1,
        "type": "channel",
        "noteNumber": 62,
        "velocity": 127,
        "subtype": "noteOn"
      },
      {
        "deltaTime": 0,
        "channel": 1,
        "type": "channel",
        "noteNumber": 49,
        "velocity": 127,
        "subtype": "noteOn"
      },
      {
        "deltaTime": 0,
        "channel": 1,
        "type": "channel",
        "noteNumber": 50,
        "velocity": 127,
        "subtype": "noteOn"
      },
      {
        "deltaTime": 40,
        "channel": 1,
        "type": "channel",
        "noteNumber": 49,
        "velocity": 0,
        "subtype": "noteOff"
      },
      {
        "deltaTime": 680,
        "channel": 1,
        "type": "channel",
        "noteNumber": 50,
        "velocity": 0,
        "subtype": "noteOff"
      },
      {
        "deltaTime": 0,
        "channel": 1,
        "type": "channel",
        "noteNumber": 62,
        "velocity": 0,
        "subtype": "noteOff"
      },
      {
        "deltaTime": 0,
        "channel": 1,
        "type": "channel",
        "noteNumber": 62,
        "velocity": 127,
        "subtype": "noteOn"
      },
      {
        "deltaTime": 0,
        "channel": 1,
        "type": "channel",
        "noteNumber": 49,
        "velocity": 127,
        "subtype": "noteOn"
      },
      {
        "deltaTime": 0,
        "channel": 1,
        "type": "channel",
        "noteNumber": 50,
        "velocity": 127,
        "subtype": "noteOn"
      },
      {
        "deltaTime": 40,
        "channel": 1,
        "type": "channel",
        "noteNumber": 49,
        "velocity": 0,
        "subtype": "noteOff"
      },
      {
        "deltaTime": 440,
        "channel": 1,
        "type": "channel",
        "noteNumber": 50,
        "velocity": 0,
        "subtype": "noteOff"
      },
      {
        "deltaTime": 0,
        "channel": 1,
        "type": "channel",
        "noteNumber": 62,
        "velocity": 0,
        "subtype": "noteOff"
      },
      {
        "deltaTime": 0,
        "channel": 1,
        "type": "channel",
        "noteNumber": 70,
        "velocity": 127,
        "subtype": "noteOn"
      },
      {
        "deltaTime": 0,
        "channel": 1,
        "type": "channel",
        "noteNumber": 58,
        "velocity": 127,
        "subtype": "noteOn"
      },
      {
        "deltaTime": 480,
        "channel": 1,
        "type": "channel",
        "noteNumber": 58,
        "velocity": 0,
        "subtype": "noteOff"
      },
      {
        "deltaTime": 0,
        "channel": 1,
        "type": "channel",
        "noteNumber": 70,
        "velocity": 0,
        "subtype": "noteOff"
      },
      {
        "deltaTime": 0,
        "channel": 1,
        "type": "channel",
        "noteNumber": 72,
        "velocity": 127,
        "subtype": "noteOn"
      },
      {
        "deltaTime": 0,
        "channel": 1,
        "type": "channel",
        "noteNumber": 58,
        "velocity": 127,
        "subtype": "noteOn"
      },
      {
        "deltaTime": 0,
        "channel": 1,
        "type": "channel",
        "noteNumber": 60,
        "velocity": 127,
        "subtype": "noteOn"
      },
      {
        "deltaTime": 40,
        "channel": 1,
        "type": "channel",
        "noteNumber": 58,
        "velocity": 0,
        "subtype": "noteOff"
      },
      {
        "deltaTime": 440,
        "channel": 1,
        "type": "channel",
        "noteNumber": 60,
        "velocity": 0,
        "subtype": "noteOff"
      },
      {
        "deltaTime": 0,
        "channel": 1,
        "type": "channel",
        "noteNumber": 72,
        "velocity": 0,
        "subtype": "noteOff"
      },
      {
        "deltaTime": 0,
        "channel": 1,
        "type": "channel",
        "noteNumber": 67,
        "velocity": 127,
        "subtype": "noteOn"
      },
      {
        "deltaTime": 0,
        "channel": 1,
        "type": "channel",
        "noteNumber": 60,
        "velocity": 127,
        "subtype": "noteOn"
      },
      {
        "deltaTime": 0,
        "channel": 1,
        "type": "channel",
        "noteNumber": 55,
        "velocity": 127,
        "subtype": "noteOn"
      },
      {
        "deltaTime": 40,
        "channel": 1,
        "type": "channel",
        "noteNumber": 60,
        "velocity": 0,
        "subtype": "noteOff"
      },
      {
        "deltaTime": 680,
        "channel": 1,
        "type": "channel",
        "noteNumber": 55,
        "velocity": 0,
        "subtype": "noteOff"
      },
      {
        "deltaTime": 0,
        "channel": 1,
        "type": "channel",
        "noteNumber": 67,
        "velocity": 0,
        "subtype": "noteOff"
      },
      {
        "deltaTime": 0,
        "channel": 1,
        "type": "channel",
        "noteNumber": 67,
        "velocity": 127,
        "subtype": "noteOn"
      },
      {
        "deltaTime": 0,
        "channel": 1,
        "type": "channel",
        "noteNumber": 60,
        "velocity": 127,
        "subtype": "noteOn"
      },
      {
        "deltaTime": 0,
        "channel": 1,
        "type": "channel",
        "noteNumber": 55,
        "velocity": 127,
        "subtype": "noteOn"
      },
      {
        "deltaTime": 40,
        "channel": 1,
        "type": "channel",
        "noteNumber": 60,
        "velocity": 0,
        "subtype": "noteOff"
      },
      {
        "deltaTime": 680,
        "channel": 1,
        "type": "channel",
        "noteNumber": 55,
        "velocity": 0,
        "subtype": "noteOff"
      },
      {
        "deltaTime": 0,
        "channel": 1,
        "type": "channel",
        "noteNumber": 67,
        "velocity": 0,
        "subtype": "noteOff"
      },
      {
        "deltaTime": 0,
        "channel": 1,
        "type": "channel",
        "noteNumber": 67,
        "velocity": 127,
        "subtype": "noteOn"
      },
      {
        "deltaTime": 0,
        "channel": 1,
        "type": "channel",
        "noteNumber": 60,
        "velocity": 127,
        "subtype": "noteOn"
      },
      {
        "deltaTime": 0,
        "channel": 1,
        "type": "channel",
        "noteNumber": 55,
        "velocity": 127,
        "subtype": "noteOn"
      },
      {
        "deltaTime": 40,
        "channel": 1,
        "type": "channel",
        "noteNumber": 60,
        "velocity": 0,
        "subtype": "noteOff"
      },
      {
        "deltaTime": 440,
        "channel": 1,
        "type": "channel",
        "noteNumber": 55,
        "velocity": 0,
        "subtype": "noteOff"
      },
      {
        "deltaTime": 0,
        "channel": 1,
        "type": "channel",
        "noteNumber": 67,
        "velocity": 0,
        "subtype": "noteOff"
      },
      {
        "deltaTime": 0,
        "channel": 1,
        "type": "channel",
        "noteNumber": 65,
        "velocity": 127,
        "subtype": "noteOn"
      },
      {
        "deltaTime": 0,
        "channel": 1,
        "type": "channel",
        "noteNumber": 54,
        "velocity": 127,
        "subtype": "noteOn"
      },
      {
        "deltaTime": 0,
        "channel": 1,
        "type": "channel",
        "noteNumber": 53,
        "velocity": 127,
        "subtype": "noteOn"
      },
      {
        "deltaTime": 40,
        "channel": 1,
        "type": "channel",
        "noteNumber": 54,
        "velocity": 0,
        "subtype": "noteOff"
      },
      {
        "deltaTime": 920,
        "channel": 1,
        "type": "channel",
        "noteNumber": 53,
        "velocity": 0,
        "subtype": "noteOff"
      },
      {
        "deltaTime": 0,
        "channel": 1,
        "type": "channel",
        "noteNumber": 65,
        "velocity": 0,
        "subtype": "noteOff"
      },
      {
        "deltaTime": 92160,
        "channel": 1,
        "type": "channel",
        "noteNumber": 67,
        "velocity": 127,
        "subtype": "noteOn"
      },
      {
        "deltaTime": 0,
        "channel": 1,
        "type": "channel",
        "noteNumber": 54,
        "velocity": 127,
        "subtype": "noteOn"
      },
      {
        "deltaTime": 0,
        "channel": 1,
        "type": "channel",
        "noteNumber": 60,
        "velocity": 127,
        "subtype": "noteOn"
      },
      {
        "deltaTime": 0,
        "channel": 1,
        "type": "channel",
        "noteNumber": 51,
        "velocity": 127,
        "subtype": "noteOn"
      },
      {
        "deltaTime": 0,
        "channel": 1,
        "type": "channel",
        "noteNumber": 44,
        "velocity": 127,
        "subtype": "noteOn"
      },
      {
        "deltaTime": 40,
        "channel": 1,
        "type": "channel",
        "noteNumber": 54,
        "velocity": 0,
        "subtype": "noteOff"
      },
      {
        "deltaTime": 680,
        "channel": 1,
        "type": "channel",
        "noteNumber": 51,
        "velocity": 0,
        "subtype": "noteOff"
      },
      {
        "deltaTime": 0,
        "channel": 1,
        "type": "channel",
        "noteNumber": 67,
        "velocity": 0,
        "subtype": "noteOff"
      },
      {
        "deltaTime": 0,
        "channel": 1,
        "type": "channel",
        "noteNumber": 60,
        "velocity": 0,
        "subtype": "noteOff"
      },
      {
        "deltaTime": 0,
        "channel": 1,
        "type": "channel",
        "noteNumber": 44,
        "velocity": 0,
        "subtype": "noteOff"
      },
      {
        "deltaTime": 0,
        "channel": 1,
        "type": "channel",
        "noteNumber": 67,
        "velocity": 127,
        "subtype": "noteOn"
      },
      {
        "deltaTime": 0,
        "channel": 1,
        "type": "channel",
        "noteNumber": 54,
        "velocity": 127,
        "subtype": "noteOn"
      },
      {
        "deltaTime": 0,
        "channel": 1,
        "type": "channel",
        "noteNumber": 60,
        "velocity": 127,
        "subtype": "noteOn"
      },
      {
        "deltaTime": 0,
        "channel": 1,
        "type": "channel",
        "noteNumber": 51,
        "velocity": 127,
        "subtype": "noteOn"
      },
      {
        "deltaTime": 0,
        "channel": 1,
        "type": "channel",
        "noteNumber": 44,
        "velocity": 127,
        "subtype": "noteOn"
      },
      {
        "deltaTime": 40,
        "channel": 1,
        "type": "channel",
        "noteNumber": 54,
        "velocity": 0,
        "subtype": "noteOff"
      },
      {
        "deltaTime": 680,
        "channel": 1,
        "type": "channel",
        "noteNumber": 51,
        "velocity": 0,
        "subtype": "noteOff"
      },
      {
        "deltaTime": 0,
        "channel": 1,
        "type": "channel",
        "noteNumber": 67,
        "velocity": 0,
        "subtype": "noteOff"
      },
      {
        "deltaTime": 0,
        "channel": 1,
        "type": "channel",
        "noteNumber": 60,
        "velocity": 0,
        "subtype": "noteOff"
      },
      {
        "deltaTime": 0,
        "channel": 1,
        "type": "channel",
        "noteNumber": 44,
        "velocity": 0,
        "subtype": "noteOff"
      },
      {
        "deltaTime": 0,
        "channel": 1,
        "type": "channel",
        "noteNumber": 67,
        "velocity": 127,
        "subtype": "noteOn"
      },
      {
        "deltaTime": 0,
        "channel": 1,
        "type": "channel",
        "noteNumber": 54,
        "velocity": 127,
        "subtype": "noteOn"
      },
      {
        "deltaTime": 0,
        "channel": 1,
        "type": "channel",
        "noteNumber": 60,
        "velocity": 127,
        "subtype": "noteOn"
      },
      {
        "deltaTime": 0,
        "channel": 1,
        "type": "channel",
        "noteNumber": 51,
        "velocity": 127,
        "subtype": "noteOn"
      },
      {
        "deltaTime": 0,
        "channel": 1,
        "type": "channel",
        "noteNumber": 44,
        "velocity": 127,
        "subtype": "noteOn"
      },
      {
        "deltaTime": 40,
        "channel": 1,
        "type": "channel",
        "noteNumber": 54,
        "velocity": 0,
        "subtype": "noteOff"
      },
      {
        "deltaTime": 440,
        "channel": 1,
        "type": "channel",
        "noteNumber": 51,
        "velocity": 0,
        "subtype": "noteOff"
      },
      {
        "deltaTime": 0,
        "channel": 1,
        "type": "channel",
        "noteNumber": 67,
        "velocity": 0,
        "subtype": "noteOff"
      },
      {
        "deltaTime": 0,
        "channel": 1,
        "type": "channel",
        "noteNumber": 60,
        "velocity": 0,
        "subtype": "noteOff"
      },
      {
        "deltaTime": 0,
        "channel": 1,
        "type": "channel",
        "noteNumber": 44,
        "velocity": 0,
        "subtype": "noteOff"
      },
      {
        "deltaTime": 0,
        "channel": 1,
        "type": "channel",
        "noteNumber": 54,
        "velocity": 127,
        "subtype": "noteOn"
      },
      {
        "deltaTime": 0,
        "channel": 1,
        "type": "channel",
        "noteNumber": 49,
        "velocity": 127,
        "subtype": "noteOn"
      },
      {
        "deltaTime": 0,
        "channel": 1,
        "type": "channel",
        "noteNumber": 44,
        "velocity": 127,
        "subtype": "noteOn"
      },
      {
        "deltaTime": 0,
        "channel": 1,
        "type": "channel",
        "noteNumber": 37,
        "velocity": 127,
        "subtype": "noteOn"
      },
      {
        "deltaTime": 40,
        "channel": 1,
        "type": "channel",
        "noteNumber": 37,
        "velocity": 0,
        "subtype": "noteOff"
      },
      {
        "deltaTime": 0,
        "channel": 1,
        "type": "channel",
        "noteNumber": 54,
        "velocity": 0,
        "subtype": "noteOff"
      },
      {
        "deltaTime": 0,
        "channel": 1,
        "type": "channel",
        "noteNumber": 49,
        "velocity": 0,
        "subtype": "noteOff"
      },
      {
        "deltaTime": 0,
        "channel": 1,
        "type": "channel",
        "noteNumber": 44,
        "velocity": 0,
        "subtype": "noteOff"
      },
      {
        "deltaTime": 200,
        "channel": 1,
        "type": "channel",
        "noteNumber": 54,
        "velocity": 127,
        "subtype": "noteOn"
      },
      {
        "deltaTime": 0,
        "channel": 1,
        "type": "channel",
        "noteNumber": 49,
        "velocity": 127,
        "subtype": "noteOn"
      },
      {
        "deltaTime": 0,
        "channel": 1,
        "type": "channel",
        "noteNumber": 44,
        "velocity": 127,
        "subtype": "noteOn"
      },
      {
        "deltaTime": 0,
        "channel": 1,
        "type": "channel",
        "noteNumber": 37,
        "velocity": 127,
        "subtype": "noteOn"
      },
      {
        "deltaTime": 40,
        "channel": 1,
        "type": "channel",
        "noteNumber": 37,
        "velocity": 0,
        "subtype": "noteOff"
      },
      {
        "deltaTime": 0,
        "channel": 1,
        "type": "channel",
        "noteNumber": 54,
        "velocity": 0,
        "subtype": "noteOff"
      },
      {
        "deltaTime": 0,
        "channel": 1,
        "type": "channel",
        "noteNumber": 49,
        "velocity": 0,
        "subtype": "noteOff"
      },
      {
        "deltaTime": 0,
        "channel": 1,
        "type": "channel",
        "noteNumber": 44,
        "velocity": 0,
        "subtype": "noteOff"
      },
      {
        "deltaTime": 200,
        "channel": 1,
        "type": "channel",
        "noteNumber": 54,
        "velocity": 127,
        "subtype": "noteOn"
      },
      {
        "deltaTime": 0,
        "channel": 1,
        "type": "channel",
        "noteNumber": 49,
        "velocity": 127,
        "subtype": "noteOn"
      },
      {
        "deltaTime": 0,
        "channel": 1,
        "type": "channel",
        "noteNumber": 44,
        "velocity": 127,
        "subtype": "noteOn"
      },
      {
        "deltaTime": 0,
        "channel": 1,
        "type": "channel",
        "noteNumber": 37,
        "velocity": 127,
        "subtype": "noteOn"
      },
      {
        "deltaTime": 40,
        "channel": 1,
        "type": "channel",
        "noteNumber": 37,
        "velocity": 0,
        "subtype": "noteOff"
      },
      {
        "deltaTime": 0,
        "channel": 1,
        "type": "channel",
        "noteNumber": 54,
        "velocity": 0,
        "subtype": "noteOff"
      },
      {
        "deltaTime": 0,
        "channel": 1,
        "type": "channel",
        "noteNumber": 49,
        "velocity": 0,
        "subtype": "noteOff"
      },
      {
        "deltaTime": 0,
        "channel": 1,
        "type": "channel",
        "noteNumber": 44,
        "velocity": 0,
        "subtype": "noteOff"
      },
      {
        "deltaTime": 200,
        "channel": 1,
        "type": "channel",
        "noteNumber": 54,
        "velocity": 127,
        "subtype": "noteOn"
      },
      {
        "deltaTime": 0,
        "channel": 1,
        "type": "channel",
        "noteNumber": 49,
        "velocity": 127,
        "subtype": "noteOn"
      },
      {
        "deltaTime": 0,
        "channel": 1,
        "type": "channel",
        "noteNumber": 44,
        "velocity": 127,
        "subtype": "noteOn"
      },
      {
        "deltaTime": 0,
        "channel": 1,
        "type": "channel",
        "noteNumber": 37,
        "velocity": 127,
        "subtype": "noteOn"
      },
      {
        "deltaTime": 40,
        "channel": 1,
        "type": "channel",
        "noteNumber": 37,
        "velocity": 0,
        "subtype": "noteOff"
      },
      {
        "deltaTime": 0,
        "channel": 1,
        "type": "channel",
        "noteNumber": 54,
        "velocity": 0,
        "subtype": "noteOff"
      },
      {
        "deltaTime": 0,
        "channel": 1,
        "type": "channel",
        "noteNumber": 49,
        "velocity": 0,
        "subtype": "noteOff"
      },
      {
        "deltaTime": 0,
        "channel": 1,
        "type": "channel",
        "noteNumber": 44,
        "velocity": 0,
        "subtype": "noteOff"
      },
      {
        "deltaTime": 200,
        "channel": 1,
        "type": "channel",
        "noteNumber": 67,
        "velocity": 127,
        "subtype": "noteOn"
      },
      {
        "deltaTime": 0,
        "channel": 1,
        "type": "channel",
        "noteNumber": 54,
        "velocity": 127,
        "subtype": "noteOn"
      },
      {
        "deltaTime": 0,
        "channel": 1,
        "type": "channel",
        "noteNumber": 60,
        "velocity": 127,
        "subtype": "noteOn"
      },
      {
        "deltaTime": 0,
        "channel": 1,
        "type": "channel",
        "noteNumber": 51,
        "velocity": 127,
        "subtype": "noteOn"
      },
      {
        "deltaTime": 0,
        "channel": 1,
        "type": "channel",
        "noteNumber": 44,
        "velocity": 127,
        "subtype": "noteOn"
      },
      {
        "deltaTime": 40,
        "channel": 1,
        "type": "channel",
        "noteNumber": 54,
        "velocity": 0,
        "subtype": "noteOff"
      },
      {
        "deltaTime": 680,
        "channel": 1,
        "type": "channel",
        "noteNumber": 51,
        "velocity": 0,
        "subtype": "noteOff"
      },
      {
        "deltaTime": 0,
        "channel": 1,
        "type": "channel",
        "noteNumber": 67,
        "velocity": 0,
        "subtype": "noteOff"
      },
      {
        "deltaTime": 0,
        "channel": 1,
        "type": "channel",
        "noteNumber": 60,
        "velocity": 0,
        "subtype": "noteOff"
      },
      {
        "deltaTime": 0,
        "channel": 1,
        "type": "channel",
        "noteNumber": 44,
        "velocity": 0,
        "subtype": "noteOff"
      },
      {
        "deltaTime": 0,
        "channel": 1,
        "type": "channel",
        "noteNumber": 67,
        "velocity": 127,
        "subtype": "noteOn"
      },
      {
        "deltaTime": 0,
        "channel": 1,
        "type": "channel",
        "noteNumber": 54,
        "velocity": 127,
        "subtype": "noteOn"
      },
      {
        "deltaTime": 0,
        "channel": 1,
        "type": "channel",
        "noteNumber": 60,
        "velocity": 127,
        "subtype": "noteOn"
      },
      {
        "deltaTime": 0,
        "channel": 1,
        "type": "channel",
        "noteNumber": 51,
        "velocity": 127,
        "subtype": "noteOn"
      },
      {
        "deltaTime": 0,
        "channel": 1,
        "type": "channel",
        "noteNumber": 44,
        "velocity": 127,
        "subtype": "noteOn"
      },
      {
        "deltaTime": 40,
        "channel": 1,
        "type": "channel",
        "noteNumber": 54,
        "velocity": 0,
        "subtype": "noteOff"
      },
      {
        "deltaTime": 680,
        "channel": 1,
        "type": "channel",
        "noteNumber": 51,
        "velocity": 0,
        "subtype": "noteOff"
      },
      {
        "deltaTime": 0,
        "channel": 1,
        "type": "channel",
        "noteNumber": 67,
        "velocity": 0,
        "subtype": "noteOff"
      },
      {
        "deltaTime": 0,
        "channel": 1,
        "type": "channel",
        "noteNumber": 60,
        "velocity": 0,
        "subtype": "noteOff"
      },
      {
        "deltaTime": 0,
        "channel": 1,
        "type": "channel",
        "noteNumber": 44,
        "velocity": 0,
        "subtype": "noteOff"
      },
      {
        "deltaTime": 0,
        "channel": 1,
        "type": "channel",
        "noteNumber": 67,
        "velocity": 127,
        "subtype": "noteOn"
      },
      {
        "deltaTime": 0,
        "channel": 1,
        "type": "channel",
        "noteNumber": 54,
        "velocity": 127,
        "subtype": "noteOn"
      },
      {
        "deltaTime": 0,
        "channel": 1,
        "type": "channel",
        "noteNumber": 60,
        "velocity": 127,
        "subtype": "noteOn"
      },
      {
        "deltaTime": 0,
        "channel": 1,
        "type": "channel",
        "noteNumber": 51,
        "velocity": 127,
        "subtype": "noteOn"
      },
      {
        "deltaTime": 0,
        "channel": 1,
        "type": "channel",
        "noteNumber": 44,
        "velocity": 127,
        "subtype": "noteOn"
      },
      {
        "deltaTime": 40,
        "channel": 1,
        "type": "channel",
        "noteNumber": 54,
        "velocity": 0,
        "subtype": "noteOff"
      },
      {
        "deltaTime": 440,
        "channel": 1,
        "type": "channel",
        "noteNumber": 51,
        "velocity": 0,
        "subtype": "noteOff"
      },
      {
        "deltaTime": 0,
        "channel": 1,
        "type": "channel",
        "noteNumber": 67,
        "velocity": 0,
        "subtype": "noteOff"
      },
      {
        "deltaTime": 0,
        "channel": 1,
        "type": "channel",
        "noteNumber": 60,
        "velocity": 0,
        "subtype": "noteOff"
      },
      {
        "deltaTime": 0,
        "channel": 1,
        "type": "channel",
        "noteNumber": 44,
        "velocity": 0,
        "subtype": "noteOff"
      },
      {
        "deltaTime": 0,
        "channel": 1,
        "type": "channel",
        "noteNumber": 54,
        "velocity": 127,
        "subtype": "noteOn"
      },
      {
        "deltaTime": 0,
        "channel": 1,
        "type": "channel",
        "noteNumber": 49,
        "velocity": 127,
        "subtype": "noteOn"
      },
      {
        "deltaTime": 0,
        "channel": 1,
        "type": "channel",
        "noteNumber": 44,
        "velocity": 127,
        "subtype": "noteOn"
      },
      {
        "deltaTime": 0,
        "channel": 1,
        "type": "channel",
        "noteNumber": 37,
        "velocity": 127,
        "subtype": "noteOn"
      },
      {
        "deltaTime": 40,
        "channel": 1,
        "type": "channel",
        "noteNumber": 37,
        "velocity": 0,
        "subtype": "noteOff"
      },
      {
        "deltaTime": 0,
        "channel": 1,
        "type": "channel",
        "noteNumber": 54,
        "velocity": 0,
        "subtype": "noteOff"
      },
      {
        "deltaTime": 0,
        "channel": 1,
        "type": "channel",
        "noteNumber": 49,
        "velocity": 0,
        "subtype": "noteOff"
      },
      {
        "deltaTime": 0,
        "channel": 1,
        "type": "channel",
        "noteNumber": 44,
        "velocity": 0,
        "subtype": "noteOff"
      },
      {
        "deltaTime": 200,
        "channel": 1,
        "type": "channel",
        "noteNumber": 54,
        "velocity": 127,
        "subtype": "noteOn"
      },
      {
        "deltaTime": 0,
        "channel": 1,
        "type": "channel",
        "noteNumber": 49,
        "velocity": 127,
        "subtype": "noteOn"
      },
      {
        "deltaTime": 0,
        "channel": 1,
        "type": "channel",
        "noteNumber": 44,
        "velocity": 127,
        "subtype": "noteOn"
      },
      {
        "deltaTime": 0,
        "channel": 1,
        "type": "channel",
        "noteNumber": 37,
        "velocity": 127,
        "subtype": "noteOn"
      },
      {
        "deltaTime": 40,
        "channel": 1,
        "type": "channel",
        "noteNumber": 37,
        "velocity": 0,
        "subtype": "noteOff"
      },
      {
        "deltaTime": 0,
        "channel": 1,
        "type": "channel",
        "noteNumber": 54,
        "velocity": 0,
        "subtype": "noteOff"
      },
      {
        "deltaTime": 0,
        "channel": 1,
        "type": "channel",
        "noteNumber": 49,
        "velocity": 0,
        "subtype": "noteOff"
      },
      {
        "deltaTime": 0,
        "channel": 1,
        "type": "channel",
        "noteNumber": 44,
        "velocity": 0,
        "subtype": "noteOff"
      },
      {
        "deltaTime": 200,
        "channel": 1,
        "type": "channel",
        "noteNumber": 54,
        "velocity": 127,
        "subtype": "noteOn"
      },
      {
        "deltaTime": 0,
        "channel": 1,
        "type": "channel",
        "noteNumber": 49,
        "velocity": 127,
        "subtype": "noteOn"
      },
      {
        "deltaTime": 0,
        "channel": 1,
        "type": "channel",
        "noteNumber": 44,
        "velocity": 127,
        "subtype": "noteOn"
      },
      {
        "deltaTime": 0,
        "channel": 1,
        "type": "channel",
        "noteNumber": 37,
        "velocity": 127,
        "subtype": "noteOn"
      },
      {
        "deltaTime": 40,
        "channel": 1,
        "type": "channel",
        "noteNumber": 37,
        "velocity": 0,
        "subtype": "noteOff"
      },
      {
        "deltaTime": 0,
        "channel": 1,
        "type": "channel",
        "noteNumber": 54,
        "velocity": 0,
        "subtype": "noteOff"
      },
      {
        "deltaTime": 0,
        "channel": 1,
        "type": "channel",
        "noteNumber": 49,
        "velocity": 0,
        "subtype": "noteOff"
      },
      {
        "deltaTime": 0,
        "channel": 1,
        "type": "channel",
        "noteNumber": 44,
        "velocity": 0,
        "subtype": "noteOff"
      },
      {
        "deltaTime": 200,
        "channel": 1,
        "type": "channel",
        "noteNumber": 54,
        "velocity": 127,
        "subtype": "noteOn"
      },
      {
        "deltaTime": 0,
        "channel": 1,
        "type": "channel",
        "noteNumber": 49,
        "velocity": 127,
        "subtype": "noteOn"
      },
      {
        "deltaTime": 0,
        "channel": 1,
        "type": "channel",
        "noteNumber": 44,
        "velocity": 127,
        "subtype": "noteOn"
      },
      {
        "deltaTime": 0,
        "channel": 1,
        "type": "channel",
        "noteNumber": 37,
        "velocity": 127,
        "subtype": "noteOn"
      },
      {
        "deltaTime": 40,
        "channel": 1,
        "type": "channel",
        "noteNumber": 37,
        "velocity": 0,
        "subtype": "noteOff"
      },
      {
        "deltaTime": 0,
        "channel": 1,
        "type": "channel",
        "noteNumber": 54,
        "velocity": 0,
        "subtype": "noteOff"
      },
      {
        "deltaTime": 0,
        "channel": 1,
        "type": "channel",
        "noteNumber": 49,
        "velocity": 0,
        "subtype": "noteOff"
      },
      {
        "deltaTime": 0,
        "channel": 1,
        "type": "channel",
        "noteNumber": 44,
        "velocity": 0,
        "subtype": "noteOff"
      },
      {
        "deltaTime": 200,
        "channel": 1,
        "type": "channel",
        "noteNumber": 70,
        "velocity": 127,
        "subtype": "noteOn"
      },
      {
        "deltaTime": 0,
        "channel": 1,
        "type": "channel",
        "noteNumber": 54,
        "velocity": 127,
        "subtype": "noteOn"
      },
      {
        "deltaTime": 0,
        "channel": 1,
        "type": "channel",
        "noteNumber": 62,
        "velocity": 127,
        "subtype": "noteOn"
      },
      {
        "deltaTime": 0,
        "channel": 1,
        "type": "channel",
        "noteNumber": 53,
        "velocity": 127,
        "subtype": "noteOn"
      },
      {
        "deltaTime": 0,
        "channel": 1,
        "type": "channel",
        "noteNumber": 46,
        "velocity": 127,
        "subtype": "noteOn"
      },
      {
        "deltaTime": 40,
        "channel": 1,
        "type": "channel",
        "noteNumber": 54,
        "velocity": 0,
        "subtype": "noteOff"
      },
      {
        "deltaTime": 680,
        "channel": 1,
        "type": "channel",
        "noteNumber": 53,
        "velocity": 0,
        "subtype": "noteOff"
      },
      {
        "deltaTime": 0,
        "channel": 1,
        "type": "channel",
        "noteNumber": 70,
        "velocity": 0,
        "subtype": "noteOff"
      },
      {
        "deltaTime": 0,
        "channel": 1,
        "type": "channel",
        "noteNumber": 62,
        "velocity": 0,
        "subtype": "noteOff"
      },
      {
        "deltaTime": 0,
        "channel": 1,
        "type": "channel",
        "noteNumber": 46,
        "velocity": 0,
        "subtype": "noteOff"
      },
      {
        "deltaTime": 0,
        "channel": 1,
        "type": "channel",
        "noteNumber": 70,
        "velocity": 127,
        "subtype": "noteOn"
      },
      {
        "deltaTime": 0,
        "channel": 1,
        "type": "channel",
        "noteNumber": 54,
        "velocity": 127,
        "subtype": "noteOn"
      },
      {
        "deltaTime": 0,
        "channel": 1,
        "type": "channel",
        "noteNumber": 62,
        "velocity": 127,
        "subtype": "noteOn"
      },
      {
        "deltaTime": 0,
        "channel": 1,
        "type": "channel",
        "noteNumber": 53,
        "velocity": 127,
        "subtype": "noteOn"
      },
      {
        "deltaTime": 0,
        "channel": 1,
        "type": "channel",
        "noteNumber": 46,
        "velocity": 127,
        "subtype": "noteOn"
      },
      {
        "deltaTime": 40,
        "channel": 1,
        "type": "channel",
        "noteNumber": 54,
        "velocity": 0,
        "subtype": "noteOff"
      },
      {
        "deltaTime": 680,
        "channel": 1,
        "type": "channel",
        "noteNumber": 53,
        "velocity": 0,
        "subtype": "noteOff"
      },
      {
        "deltaTime": 0,
        "channel": 1,
        "type": "channel",
        "noteNumber": 70,
        "velocity": 0,
        "subtype": "noteOff"
      },
      {
        "deltaTime": 0,
        "channel": 1,
        "type": "channel",
        "noteNumber": 62,
        "velocity": 0,
        "subtype": "noteOff"
      },
      {
        "deltaTime": 0,
        "channel": 1,
        "type": "channel",
        "noteNumber": 46,
        "velocity": 0,
        "subtype": "noteOff"
      },
      {
        "deltaTime": 0,
        "channel": 1,
        "type": "channel",
        "noteNumber": 70,
        "velocity": 127,
        "subtype": "noteOn"
      },
      {
        "deltaTime": 0,
        "channel": 1,
        "type": "channel",
        "noteNumber": 54,
        "velocity": 127,
        "subtype": "noteOn"
      },
      {
        "deltaTime": 0,
        "channel": 1,
        "type": "channel",
        "noteNumber": 62,
        "velocity": 127,
        "subtype": "noteOn"
      },
      {
        "deltaTime": 0,
        "channel": 1,
        "type": "channel",
        "noteNumber": 53,
        "velocity": 127,
        "subtype": "noteOn"
      },
      {
        "deltaTime": 0,
        "channel": 1,
        "type": "channel",
        "noteNumber": 46,
        "velocity": 127,
        "subtype": "noteOn"
      },
      {
        "deltaTime": 40,
        "channel": 1,
        "type": "channel",
        "noteNumber": 54,
        "velocity": 0,
        "subtype": "noteOff"
      },
      {
        "deltaTime": 440,
        "channel": 1,
        "type": "channel",
        "noteNumber": 53,
        "velocity": 0,
        "subtype": "noteOff"
      },
      {
        "deltaTime": 0,
        "channel": 1,
        "type": "channel",
        "noteNumber": 70,
        "velocity": 0,
        "subtype": "noteOff"
      },
      {
        "deltaTime": 0,
        "channel": 1,
        "type": "channel",
        "noteNumber": 62,
        "velocity": 0,
        "subtype": "noteOff"
      },
      {
        "deltaTime": 0,
        "channel": 1,
        "type": "channel",
        "noteNumber": 46,
        "velocity": 0,
        "subtype": "noteOff"
      },
      {
        "deltaTime": 0,
        "channel": 1,
        "type": "channel",
        "noteNumber": 54,
        "velocity": 127,
        "subtype": "noteOn"
      },
      {
        "deltaTime": 0,
        "channel": 1,
        "type": "channel",
        "noteNumber": 49,
        "velocity": 127,
        "subtype": "noteOn"
      },
      {
        "deltaTime": 0,
        "channel": 1,
        "type": "channel",
        "noteNumber": 44,
        "velocity": 127,
        "subtype": "noteOn"
      },
      {
        "deltaTime": 0,
        "channel": 1,
        "type": "channel",
        "noteNumber": 37,
        "velocity": 127,
        "subtype": "noteOn"
      },
      {
        "deltaTime": 40,
        "channel": 1,
        "type": "channel",
        "noteNumber": 37,
        "velocity": 0,
        "subtype": "noteOff"
      },
      {
        "deltaTime": 0,
        "channel": 1,
        "type": "channel",
        "noteNumber": 54,
        "velocity": 0,
        "subtype": "noteOff"
      },
      {
        "deltaTime": 0,
        "channel": 1,
        "type": "channel",
        "noteNumber": 49,
        "velocity": 0,
        "subtype": "noteOff"
      },
      {
        "deltaTime": 0,
        "channel": 1,
        "type": "channel",
        "noteNumber": 44,
        "velocity": 0,
        "subtype": "noteOff"
      },
      {
        "deltaTime": 200,
        "channel": 1,
        "type": "channel",
        "noteNumber": 54,
        "velocity": 127,
        "subtype": "noteOn"
      },
      {
        "deltaTime": 0,
        "channel": 1,
        "type": "channel",
        "noteNumber": 49,
        "velocity": 127,
        "subtype": "noteOn"
      },
      {
        "deltaTime": 0,
        "channel": 1,
        "type": "channel",
        "noteNumber": 44,
        "velocity": 127,
        "subtype": "noteOn"
      },
      {
        "deltaTime": 0,
        "channel": 1,
        "type": "channel",
        "noteNumber": 37,
        "velocity": 127,
        "subtype": "noteOn"
      },
      {
        "deltaTime": 40,
        "channel": 1,
        "type": "channel",
        "noteNumber": 37,
        "velocity": 0,
        "subtype": "noteOff"
      },
      {
        "deltaTime": 0,
        "channel": 1,
        "type": "channel",
        "noteNumber": 54,
        "velocity": 0,
        "subtype": "noteOff"
      },
      {
        "deltaTime": 0,
        "channel": 1,
        "type": "channel",
        "noteNumber": 49,
        "velocity": 0,
        "subtype": "noteOff"
      },
      {
        "deltaTime": 0,
        "channel": 1,
        "type": "channel",
        "noteNumber": 44,
        "velocity": 0,
        "subtype": "noteOff"
      },
      {
        "deltaTime": 200,
        "channel": 1,
        "type": "channel",
        "noteNumber": 54,
        "velocity": 127,
        "subtype": "noteOn"
      },
      {
        "deltaTime": 0,
        "channel": 1,
        "type": "channel",
        "noteNumber": 49,
        "velocity": 127,
        "subtype": "noteOn"
      },
      {
        "deltaTime": 0,
        "channel": 1,
        "type": "channel",
        "noteNumber": 44,
        "velocity": 127,
        "subtype": "noteOn"
      },
      {
        "deltaTime": 0,
        "channel": 1,
        "type": "channel",
        "noteNumber": 37,
        "velocity": 127,
        "subtype": "noteOn"
      },
      {
        "deltaTime": 40,
        "channel": 1,
        "type": "channel",
        "noteNumber": 37,
        "velocity": 0,
        "subtype": "noteOff"
      },
      {
        "deltaTime": 0,
        "channel": 1,
        "type": "channel",
        "noteNumber": 54,
        "velocity": 0,
        "subtype": "noteOff"
      },
      {
        "deltaTime": 0,
        "channel": 1,
        "type": "channel",
        "noteNumber": 49,
        "velocity": 0,
        "subtype": "noteOff"
      },
      {
        "deltaTime": 0,
        "channel": 1,
        "type": "channel",
        "noteNumber": 44,
        "velocity": 0,
        "subtype": "noteOff"
      },
      {
        "deltaTime": 200,
        "channel": 1,
        "type": "channel",
        "noteNumber": 54,
        "velocity": 127,
        "subtype": "noteOn"
      },
      {
        "deltaTime": 0,
        "channel": 1,
        "type": "channel",
        "noteNumber": 49,
        "velocity": 127,
        "subtype": "noteOn"
      },
      {
        "deltaTime": 0,
        "channel": 1,
        "type": "channel",
        "noteNumber": 44,
        "velocity": 127,
        "subtype": "noteOn"
      },
      {
        "deltaTime": 0,
        "channel": 1,
        "type": "channel",
        "noteNumber": 37,
        "velocity": 127,
        "subtype": "noteOn"
      },
      {
        "deltaTime": 40,
        "channel": 1,
        "type": "channel",
        "noteNumber": 37,
        "velocity": 0,
        "subtype": "noteOff"
      },
      {
        "deltaTime": 0,
        "channel": 1,
        "type": "channel",
        "noteNumber": 54,
        "velocity": 0,
        "subtype": "noteOff"
      },
      {
        "deltaTime": 0,
        "channel": 1,
        "type": "channel",
        "noteNumber": 49,
        "velocity": 0,
        "subtype": "noteOff"
      },
      {
        "deltaTime": 0,
        "channel": 1,
        "type": "channel",
        "noteNumber": 44,
        "velocity": 0,
        "subtype": "noteOff"
      },
      {
        "deltaTime": 200,
        "channel": 1,
        "type": "channel",
        "noteNumber": 70,
        "velocity": 127,
        "subtype": "noteOn"
      },
      {
        "deltaTime": 0,
        "channel": 1,
        "type": "channel",
        "noteNumber": 67,
        "velocity": 127,
        "subtype": "noteOn"
      },
      {
        "deltaTime": 0,
        "channel": 1,
        "type": "channel",
        "noteNumber": 63,
        "velocity": 127,
        "subtype": "noteOn"
      },
      {
        "deltaTime": 0,
        "channel": 1,
        "type": "channel",
        "noteNumber": 55,
        "velocity": 127,
        "subtype": "noteOn"
      },
      {
        "deltaTime": 0,
        "channel": 1,
        "type": "channel",
        "noteNumber": 48,
        "velocity": 127,
        "subtype": "noteOn"
      },
      {
        "deltaTime": 720,
        "channel": 1,
        "type": "channel",
        "noteNumber": 48,
        "velocity": 0,
        "subtype": "noteOff"
      },
      {
        "deltaTime": 0,
        "channel": 1,
        "type": "channel",
        "noteNumber": 63,
        "velocity": 0,
        "subtype": "noteOff"
      },
      {
        "deltaTime": 0,
        "channel": 1,
        "type": "channel",
        "noteNumber": 70,
        "velocity": 0,
        "subtype": "noteOff"
      },
      {
        "deltaTime": 0,
        "channel": 1,
        "type": "channel",
        "noteNumber": 67,
        "velocity": 0,
        "subtype": "noteOff"
      },
      {
        "deltaTime": 0,
        "channel": 1,
        "type": "channel",
        "noteNumber": 55,
        "velocity": 0,
        "subtype": "noteOff"
      },
      {
        "deltaTime": 0,
        "channel": 1,
        "type": "channel",
        "noteNumber": 70,
        "velocity": 127,
        "subtype": "noteOn"
      },
      {
        "deltaTime": 0,
        "channel": 1,
        "type": "channel",
        "noteNumber": 67,
        "velocity": 127,
        "subtype": "noteOn"
      },
      {
        "deltaTime": 0,
        "channel": 1,
        "type": "channel",
        "noteNumber": 63,
        "velocity": 127,
        "subtype": "noteOn"
      },
      {
        "deltaTime": 0,
        "channel": 1,
        "type": "channel",
        "noteNumber": 55,
        "velocity": 127,
        "subtype": "noteOn"
      },
      {
        "deltaTime": 0,
        "channel": 1,
        "type": "channel",
        "noteNumber": 48,
        "velocity": 127,
        "subtype": "noteOn"
      },
      {
        "deltaTime": 720,
        "channel": 1,
        "type": "channel",
        "noteNumber": 48,
        "velocity": 0,
        "subtype": "noteOff"
      },
      {
        "deltaTime": 0,
        "channel": 1,
        "type": "channel",
        "noteNumber": 63,
        "velocity": 0,
        "subtype": "noteOff"
      },
      {
        "deltaTime": 0,
        "channel": 1,
        "type": "channel",
        "noteNumber": 70,
        "velocity": 0,
        "subtype": "noteOff"
      },
      {
        "deltaTime": 0,
        "channel": 1,
        "type": "channel",
        "noteNumber": 67,
        "velocity": 0,
        "subtype": "noteOff"
      },
      {
        "deltaTime": 0,
        "channel": 1,
        "type": "channel",
        "noteNumber": 55,
        "velocity": 0,
        "subtype": "noteOff"
      },
      {
        "deltaTime": 0,
        "channel": 1,
        "type": "channel",
        "noteNumber": 70,
        "velocity": 127,
        "subtype": "noteOn"
      },
      {
        "deltaTime": 0,
        "channel": 1,
        "type": "channel",
        "noteNumber": 67,
        "velocity": 127,
        "subtype": "noteOn"
      },
      {
        "deltaTime": 0,
        "channel": 1,
        "type": "channel",
        "noteNumber": 63,
        "velocity": 127,
        "subtype": "noteOn"
      },
      {
        "deltaTime": 0,
        "channel": 1,
        "type": "channel",
        "noteNumber": 55,
        "velocity": 127,
        "subtype": "noteOn"
      },
      {
        "deltaTime": 0,
        "channel": 1,
        "type": "channel",
        "noteNumber": 48,
        "velocity": 127,
        "subtype": "noteOn"
      },
      {
        "deltaTime": 480,
        "channel": 1,
        "type": "channel",
        "noteNumber": 48,
        "velocity": 0,
        "subtype": "noteOff"
      },
      {
        "deltaTime": 0,
        "channel": 1,
        "type": "channel",
        "noteNumber": 63,
        "velocity": 0,
        "subtype": "noteOff"
      },
      {
        "deltaTime": 0,
        "channel": 1,
        "type": "channel",
        "noteNumber": 70,
        "velocity": 0,
        "subtype": "noteOff"
      },
      {
        "deltaTime": 0,
        "channel": 1,
        "type": "channel",
        "noteNumber": 67,
        "velocity": 0,
        "subtype": "noteOff"
      },
      {
        "deltaTime": 0,
        "channel": 1,
        "type": "channel",
        "noteNumber": 55,
        "velocity": 0,
        "subtype": "noteOff"
      },
      {
        "deltaTime": 0,
        "channel": 1,
        "type": "channel",
        "noteNumber": 65,
        "velocity": 127,
        "subtype": "noteOn"
      },
      {
        "deltaTime": 0,
        "channel": 1,
        "type": "channel",
        "noteNumber": 54,
        "velocity": 127,
        "subtype": "noteOn"
      },
      {
        "deltaTime": 0,
        "channel": 1,
        "type": "channel",
        "noteNumber": 58,
        "velocity": 127,
        "subtype": "noteOn"
      },
      {
        "deltaTime": 0,
        "channel": 1,
        "type": "channel",
        "noteNumber": 50,
        "velocity": 127,
        "subtype": "noteOn"
      },
      {
        "deltaTime": 0,
        "channel": 1,
        "type": "channel",
        "noteNumber": 43,
        "velocity": 127,
        "subtype": "noteOn"
      },
      {
        "deltaTime": 40,
        "channel": 1,
        "type": "channel",
        "noteNumber": 54,
        "velocity": 0,
        "subtype": "noteOff"
      },
      {
        "deltaTime": 920,
        "channel": 1,
        "type": "channel",
        "noteNumber": 50,
        "velocity": 0,
        "subtype": "noteOff"
      },
      {
        "deltaTime": 0,
        "channel": 1,
        "type": "channel",
        "noteNumber": 65,
        "velocity": 0,
        "subtype": "noteOff"
      },
      {
        "deltaTime": 0,
        "channel": 1,
        "type": "channel",
        "noteNumber": 58,
        "velocity": 0,
        "subtype": "noteOff"
      },
      {
        "deltaTime": 0,
        "channel": 1,
        "type": "channel",
        "noteNumber": 43,
        "velocity": 0,
        "subtype": "noteOff"
      },
      {
        "deltaTime": 0,
        "channel": 1,
        "type": "channel",
        "noteNumber": 60,
        "velocity": 127,
        "subtype": "noteOn"
      },
      {
        "deltaTime": 0,
        "channel": 1,
        "type": "channel",
        "noteNumber": 49,
        "velocity": 127,
        "subtype": "noteOn"
      },
      {
        "deltaTime": 0,
        "channel": 1,
        "type": "channel",
        "noteNumber": 48,
        "velocity": 127,
        "subtype": "noteOn"
      },
      {
        "deltaTime": 40,
        "channel": 1,
        "type": "channel",
        "noteNumber": 49,
        "velocity": 0,
        "subtype": "noteOff"
      },
      {
        "deltaTime": 680,
        "channel": 1,
        "type": "channel",
        "noteNumber": 48,
        "velocity": 0,
        "subtype": "noteOff"
      },
      {
        "deltaTime": 0,
        "channel": 1,
        "type": "channel",
        "noteNumber": 60,
        "velocity": 0,
        "subtype": "noteOff"
      },
      {
        "deltaTime": 0,
        "channel": 1,
        "type": "channel",
        "noteNumber": 60,
        "velocity": 127,
        "subtype": "noteOn"
      },
      {
        "deltaTime": 0,
        "channel": 1,
        "type": "channel",
        "noteNumber": 49,
        "velocity": 127,
        "subtype": "noteOn"
      },
      {
        "deltaTime": 0,
        "channel": 1,
        "type": "channel",
        "noteNumber": 48,
        "velocity": 127,
        "subtype": "noteOn"
      },
      {
        "deltaTime": 40,
        "channel": 1,
        "type": "channel",
        "noteNumber": 49,
        "velocity": 0,
        "subtype": "noteOff"
      },
      {
        "deltaTime": 680,
        "channel": 1,
        "type": "channel",
        "noteNumber": 48,
        "velocity": 0,
        "subtype": "noteOff"
      },
      {
        "deltaTime": 0,
        "channel": 1,
        "type": "channel",
        "noteNumber": 60,
        "velocity": 0,
        "subtype": "noteOff"
      },
      {
        "deltaTime": 0,
        "channel": 1,
        "type": "channel",
        "noteNumber": 60,
        "velocity": 127,
        "subtype": "noteOn"
      },
      {
        "deltaTime": 0,
        "channel": 1,
        "type": "channel",
        "noteNumber": 49,
        "velocity": 127,
        "subtype": "noteOn"
      },
      {
        "deltaTime": 0,
        "channel": 1,
        "type": "channel",
        "noteNumber": 48,
        "velocity": 127,
        "subtype": "noteOn"
      },
      {
        "deltaTime": 40,
        "channel": 1,
        "type": "channel",
        "noteNumber": 49,
        "velocity": 0,
        "subtype": "noteOff"
      },
      {
        "deltaTime": 440,
        "channel": 1,
        "type": "channel",
        "noteNumber": 48,
        "velocity": 0,
        "subtype": "noteOff"
      },
      {
        "deltaTime": 0,
        "channel": 1,
        "type": "channel",
        "noteNumber": 60,
        "velocity": 0,
        "subtype": "noteOff"
      },
      {
        "deltaTime": 0,
        "channel": 1,
        "type": "channel",
        "noteNumber": 65,
        "velocity": 127,
        "subtype": "noteOn"
      },
      {
        "deltaTime": 0,
        "channel": 1,
        "type": "channel",
        "noteNumber": 54,
        "velocity": 127,
        "subtype": "noteOn"
      },
      {
        "deltaTime": 0,
        "channel": 1,
        "type": "channel",
        "noteNumber": 53,
        "velocity": 127,
        "subtype": "noteOn"
      },
      {
        "deltaTime": 40,
        "channel": 1,
        "type": "channel",
        "noteNumber": 54,
        "velocity": 0,
        "subtype": "noteOff"
      },
      {
        "deltaTime": 440,
        "channel": 1,
        "type": "channel",
        "noteNumber": 53,
        "velocity": 0,
        "subtype": "noteOff"
      },
      {
        "deltaTime": 0,
        "channel": 1,
        "type": "channel",
        "noteNumber": 65,
        "velocity": 0,
        "subtype": "noteOff"
      },
      {
        "deltaTime": 0,
        "channel": 1,
        "type": "channel",
        "noteNumber": 67,
        "velocity": 127,
        "subtype": "noteOn"
      },
      {
        "deltaTime": 0,
        "channel": 1,
        "type": "channel",
        "noteNumber": 54,
        "velocity": 127,
        "subtype": "noteOn"
      },
      {
        "deltaTime": 0,
        "channel": 1,
        "type": "channel",
        "noteNumber": 55,
        "velocity": 127,
        "subtype": "noteOn"
      },
      {
        "deltaTime": 40,
        "channel": 1,
        "type": "channel",
        "noteNumber": 54,
        "velocity": 0,
        "subtype": "noteOff"
      },
      {
        "deltaTime": 440,
        "channel": 1,
        "type": "channel",
        "noteNumber": 55,
        "velocity": 0,
        "subtype": "noteOff"
      },
      {
        "deltaTime": 0,
        "channel": 1,
        "type": "channel",
        "noteNumber": 67,
        "velocity": 0,
        "subtype": "noteOff"
      },
      {
        "deltaTime": 0,
        "channel": 1,
        "type": "channel",
        "noteNumber": 60,
        "velocity": 127,
        "subtype": "noteOn"
      },
      {
        "deltaTime": 0,
        "channel": 1,
        "type": "channel",
        "noteNumber": 49,
        "velocity": 127,
        "subtype": "noteOn"
      },
      {
        "deltaTime": 0,
        "channel": 1,
        "type": "channel",
        "noteNumber": 48,
        "velocity": 127,
        "subtype": "noteOn"
      },
      {
        "deltaTime": 40,
        "channel": 1,
        "type": "channel",
        "noteNumber": 49,
        "velocity": 0,
        "subtype": "noteOff"
      },
      {
        "deltaTime": 680,
        "channel": 1,
        "type": "channel",
        "noteNumber": 48,
        "velocity": 0,
        "subtype": "noteOff"
      },
      {
        "deltaTime": 0,
        "channel": 1,
        "type": "channel",
        "noteNumber": 60,
        "velocity": 0,
        "subtype": "noteOff"
      },
      {
        "deltaTime": 0,
        "channel": 1,
        "type": "channel",
        "noteNumber": 60,
        "velocity": 127,
        "subtype": "noteOn"
      },
      {
        "deltaTime": 0,
        "channel": 1,
        "type": "channel",
        "noteNumber": 49,
        "velocity": 127,
        "subtype": "noteOn"
      },
      {
        "deltaTime": 0,
        "channel": 1,
        "type": "channel",
        "noteNumber": 48,
        "velocity": 127,
        "subtype": "noteOn"
      },
      {
        "deltaTime": 40,
        "channel": 1,
        "type": "channel",
        "noteNumber": 49,
        "velocity": 0,
        "subtype": "noteOff"
      },
      {
        "deltaTime": 680,
        "channel": 1,
        "type": "channel",
        "noteNumber": 48,
        "velocity": 0,
        "subtype": "noteOff"
      },
      {
        "deltaTime": 0,
        "channel": 1,
        "type": "channel",
        "noteNumber": 60,
        "velocity": 0,
        "subtype": "noteOff"
      },
      {
        "deltaTime": 0,
        "channel": 1,
        "type": "channel",
        "noteNumber": 60,
        "velocity": 127,
        "subtype": "noteOn"
      },
      {
        "deltaTime": 0,
        "channel": 1,
        "type": "channel",
        "noteNumber": 49,
        "velocity": 127,
        "subtype": "noteOn"
      },
      {
        "deltaTime": 0,
        "channel": 1,
        "type": "channel",
        "noteNumber": 48,
        "velocity": 127,
        "subtype": "noteOn"
      },
      {
        "deltaTime": 40,
        "channel": 1,
        "type": "channel",
        "noteNumber": 49,
        "velocity": 0,
        "subtype": "noteOff"
      },
      {
        "deltaTime": 440,
        "channel": 1,
        "type": "channel",
        "noteNumber": 48,
        "velocity": 0,
        "subtype": "noteOff"
      },
      {
        "deltaTime": 0,
        "channel": 1,
        "type": "channel",
        "noteNumber": 60,
        "velocity": 0,
        "subtype": "noteOff"
      },
      {
        "deltaTime": 0,
        "channel": 1,
        "type": "channel",
        "noteNumber": 67,
        "velocity": 127,
        "subtype": "noteOn"
      },
      {
        "deltaTime": 0,
        "channel": 1,
        "type": "channel",
        "noteNumber": 54,
        "velocity": 127,
        "subtype": "noteOn"
      },
      {
        "deltaTime": 0,
        "channel": 1,
        "type": "channel",
        "noteNumber": 55,
        "velocity": 127,
        "subtype": "noteOn"
      },
      {
        "deltaTime": 40,
        "channel": 1,
        "type": "channel",
        "noteNumber": 54,
        "velocity": 0,
        "subtype": "noteOff"
      },
      {
        "deltaTime": 440,
        "channel": 1,
        "type": "channel",
        "noteNumber": 55,
        "velocity": 0,
        "subtype": "noteOff"
      },
      {
        "deltaTime": 0,
        "channel": 1,
        "type": "channel",
        "noteNumber": 67,
        "velocity": 0,
        "subtype": "noteOff"
      },
      {
        "deltaTime": 0,
        "channel": 1,
        "type": "channel",
        "noteNumber": 70,
        "velocity": 127,
        "subtype": "noteOn"
      },
      {
        "deltaTime": 0,
        "channel": 1,
        "type": "channel",
        "noteNumber": 58,
        "velocity": 127,
        "subtype": "noteOn"
      },
      {
        "deltaTime": 480,
        "channel": 1,
        "type": "channel",
        "noteNumber": 58,
        "velocity": 0,
        "subtype": "noteOff"
      },
      {
        "deltaTime": 0,
        "channel": 1,
        "type": "channel",
        "noteNumber": 70,
        "velocity": 0,
        "subtype": "noteOff"
      },
      {
        "deltaTime": 0,
        "channel": 1,
        "type": "channel",
        "noteNumber": 62,
        "velocity": 127,
        "subtype": "noteOn"
      },
      {
        "deltaTime": 0,
        "channel": 1,
        "type": "channel",
        "noteNumber": 49,
        "velocity": 127,
        "subtype": "noteOn"
      },
      {
        "deltaTime": 0,
        "channel": 1,
        "type": "channel",
        "noteNumber": 50,
        "velocity": 127,
        "subtype": "noteOn"
      },
      {
        "deltaTime": 40,
        "channel": 1,
        "type": "channel",
        "noteNumber": 49,
        "velocity": 0,
        "subtype": "noteOff"
      },
      {
        "deltaTime": 680,
        "channel": 1,
        "type": "channel",
        "noteNumber": 50,
        "velocity": 0,
        "subtype": "noteOff"
      },
      {
        "deltaTime": 0,
        "channel": 1,
        "type": "channel",
        "noteNumber": 62,
        "velocity": 0,
        "subtype": "noteOff"
      },
      {
        "deltaTime": 0,
        "channel": 1,
        "type": "channel",
        "noteNumber": 62,
        "velocity": 127,
        "subtype": "noteOn"
      },
      {
        "deltaTime": 0,
        "channel": 1,
        "type": "channel",
        "noteNumber": 49,
        "velocity": 127,
        "subtype": "noteOn"
      },
      {
        "deltaTime": 0,
        "channel": 1,
        "type": "channel",
        "noteNumber": 50,
        "velocity": 127,
        "subtype": "noteOn"
      },
      {
        "deltaTime": 40,
        "channel": 1,
        "type": "channel",
        "noteNumber": 49,
        "velocity": 0,
        "subtype": "noteOff"
      },
      {
        "deltaTime": 680,
        "channel": 1,
        "type": "channel",
        "noteNumber": 50,
        "velocity": 0,
        "subtype": "noteOff"
      },
      {
        "deltaTime": 0,
        "channel": 1,
        "type": "channel",
        "noteNumber": 62,
        "velocity": 0,
        "subtype": "noteOff"
      },
      {
        "deltaTime": 0,
        "channel": 1,
        "type": "channel",
        "noteNumber": 62,
        "velocity": 127,
        "subtype": "noteOn"
      },
      {
        "deltaTime": 0,
        "channel": 1,
        "type": "channel",
        "noteNumber": 49,
        "velocity": 127,
        "subtype": "noteOn"
      },
      {
        "deltaTime": 0,
        "channel": 1,
        "type": "channel",
        "noteNumber": 50,
        "velocity": 127,
        "subtype": "noteOn"
      },
      {
        "deltaTime": 40,
        "channel": 1,
        "type": "channel",
        "noteNumber": 49,
        "velocity": 0,
        "subtype": "noteOff"
      },
      {
        "deltaTime": 440,
        "channel": 1,
        "type": "channel",
        "noteNumber": 50,
        "velocity": 0,
        "subtype": "noteOff"
      },
      {
        "deltaTime": 0,
        "channel": 1,
        "type": "channel",
        "noteNumber": 62,
        "velocity": 0,
        "subtype": "noteOff"
      },
      {
        "deltaTime": 0,
        "channel": 1,
        "type": "channel",
        "noteNumber": 70,
        "velocity": 127,
        "subtype": "noteOn"
      },
      {
        "deltaTime": 0,
        "channel": 1,
        "type": "channel",
        "noteNumber": 58,
        "velocity": 127,
        "subtype": "noteOn"
      },
      {
        "deltaTime": 480,
        "channel": 1,
        "type": "channel",
        "noteNumber": 58,
        "velocity": 0,
        "subtype": "noteOff"
      },
      {
        "deltaTime": 0,
        "channel": 1,
        "type": "channel",
        "noteNumber": 70,
        "velocity": 0,
        "subtype": "noteOff"
      },
      {
        "deltaTime": 0,
        "channel": 1,
        "type": "channel",
        "noteNumber": 72,
        "velocity": 127,
        "subtype": "noteOn"
      },
      {
        "deltaTime": 0,
        "channel": 1,
        "type": "channel",
        "noteNumber": 58,
        "velocity": 127,
        "subtype": "noteOn"
      },
      {
        "deltaTime": 0,
        "channel": 1,
        "type": "channel",
        "noteNumber": 60,
        "velocity": 127,
        "subtype": "noteOn"
      },
      {
        "deltaTime": 40,
        "channel": 1,
        "type": "channel",
        "noteNumber": 58,
        "velocity": 0,
        "subtype": "noteOff"
      },
      {
        "deltaTime": 440,
        "channel": 1,
        "type": "channel",
        "noteNumber": 60,
        "velocity": 0,
        "subtype": "noteOff"
      },
      {
        "deltaTime": 0,
        "channel": 1,
        "type": "channel",
        "noteNumber": 72,
        "velocity": 0,
        "subtype": "noteOff"
      },
      {
        "deltaTime": 0,
        "channel": 1,
        "type": "channel",
        "noteNumber": 67,
        "velocity": 127,
        "subtype": "noteOn"
      },
      {
        "deltaTime": 0,
        "channel": 1,
        "type": "channel",
        "noteNumber": 60,
        "velocity": 127,
        "subtype": "noteOn"
      },
      {
        "deltaTime": 0,
        "channel": 1,
        "type": "channel",
        "noteNumber": 55,
        "velocity": 127,
        "subtype": "noteOn"
      },
      {
        "deltaTime": 40,
        "channel": 1,
        "type": "channel",
        "noteNumber": 60,
        "velocity": 0,
        "subtype": "noteOff"
      },
      {
        "deltaTime": 680,
        "channel": 1,
        "type": "channel",
        "noteNumber": 55,
        "velocity": 0,
        "subtype": "noteOff"
      },
      {
        "deltaTime": 0,
        "channel": 1,
        "type": "channel",
        "noteNumber": 67,
        "velocity": 0,
        "subtype": "noteOff"
      },
      {
        "deltaTime": 0,
        "channel": 1,
        "type": "channel",
        "noteNumber": 67,
        "velocity": 127,
        "subtype": "noteOn"
      },
      {
        "deltaTime": 0,
        "channel": 1,
        "type": "channel",
        "noteNumber": 60,
        "velocity": 127,
        "subtype": "noteOn"
      },
      {
        "deltaTime": 0,
        "channel": 1,
        "type": "channel",
        "noteNumber": 55,
        "velocity": 127,
        "subtype": "noteOn"
      },
      {
        "deltaTime": 40,
        "channel": 1,
        "type": "channel",
        "noteNumber": 60,
        "velocity": 0,
        "subtype": "noteOff"
      },
      {
        "deltaTime": 680,
        "channel": 1,
        "type": "channel",
        "noteNumber": 55,
        "velocity": 0,
        "subtype": "noteOff"
      },
      {
        "deltaTime": 0,
        "channel": 1,
        "type": "channel",
        "noteNumber": 67,
        "velocity": 0,
        "subtype": "noteOff"
      },
      {
        "deltaTime": 0,
        "channel": 1,
        "type": "channel",
        "noteNumber": 67,
        "velocity": 127,
        "subtype": "noteOn"
      },
      {
        "deltaTime": 0,
        "channel": 1,
        "type": "channel",
        "noteNumber": 60,
        "velocity": 127,
        "subtype": "noteOn"
      },
      {
        "deltaTime": 0,
        "channel": 1,
        "type": "channel",
        "noteNumber": 55,
        "velocity": 127,
        "subtype": "noteOn"
      },
      {
        "deltaTime": 40,
        "channel": 1,
        "type": "channel",
        "noteNumber": 60,
        "velocity": 0,
        "subtype": "noteOff"
      },
      {
        "deltaTime": 440,
        "channel": 1,
        "type": "channel",
        "noteNumber": 55,
        "velocity": 0,
        "subtype": "noteOff"
      },
      {
        "deltaTime": 0,
        "channel": 1,
        "type": "channel",
        "noteNumber": 67,
        "velocity": 0,
        "subtype": "noteOff"
      },
      {
        "deltaTime": 0,
        "channel": 1,
        "type": "channel",
        "noteNumber": 65,
        "velocity": 127,
        "subtype": "noteOn"
      },
      {
        "deltaTime": 0,
        "channel": 1,
        "type": "channel",
        "noteNumber": 54,
        "velocity": 127,
        "subtype": "noteOn"
      },
      {
        "deltaTime": 0,
        "channel": 1,
        "type": "channel",
        "noteNumber": 53,
        "velocity": 127,
        "subtype": "noteOn"
      },
      {
        "deltaTime": 40,
        "channel": 1,
        "type": "channel",
        "noteNumber": 54,
        "velocity": 0,
        "subtype": "noteOff"
      },
      {
        "deltaTime": 920,
        "channel": 1,
        "type": "channel",
        "noteNumber": 53,
        "velocity": 0,
        "subtype": "noteOff"
      },
      {
        "deltaTime": 0,
        "channel": 1,
        "type": "channel",
        "noteNumber": 65,
        "velocity": 0,
        "subtype": "noteOff"
      },
      {
        "deltaTime": 161280,
        "channel": 1,
        "type": "channel",
        "noteNumber": 60,
        "velocity": 127,
        "subtype": "noteOn"
      },
      {
        "deltaTime": 0,
        "channel": 1,
        "type": "channel",
        "noteNumber": 49,
        "velocity": 127,
        "subtype": "noteOn"
      },
      {
        "deltaTime": 0,
        "channel": 1,
        "type": "channel",
        "noteNumber": 48,
        "velocity": 127,
        "subtype": "noteOn"
      },
      {
        "deltaTime": 40,
        "channel": 1,
        "type": "channel",
        "noteNumber": 49,
        "velocity": 0,
        "subtype": "noteOff"
      },
      {
        "deltaTime": 680,
        "channel": 1,
        "type": "channel",
        "noteNumber": 48,
        "velocity": 0,
        "subtype": "noteOff"
      },
      {
        "deltaTime": 0,
        "channel": 1,
        "type": "channel",
        "noteNumber": 60,
        "velocity": 0,
        "subtype": "noteOff"
      },
      {
        "deltaTime": 0,
        "channel": 1,
        "type": "channel",
        "noteNumber": 60,
        "velocity": 127,
        "subtype": "noteOn"
      },
      {
        "deltaTime": 0,
        "channel": 1,
        "type": "channel",
        "noteNumber": 49,
        "velocity": 127,
        "subtype": "noteOn"
      },
      {
        "deltaTime": 0,
        "channel": 1,
        "type": "channel",
        "noteNumber": 48,
        "velocity": 127,
        "subtype": "noteOn"
      },
      {
        "deltaTime": 40,
        "channel": 1,
        "type": "channel",
        "noteNumber": 49,
        "velocity": 0,
        "subtype": "noteOff"
      },
      {
        "deltaTime": 680,
        "channel": 1,
        "type": "channel",
        "noteNumber": 48,
        "velocity": 0,
        "subtype": "noteOff"
      },
      {
        "deltaTime": 0,
        "channel": 1,
        "type": "channel",
        "noteNumber": 60,
        "velocity": 0,
        "subtype": "noteOff"
      },
      {
        "deltaTime": 0,
        "channel": 1,
        "type": "channel",
        "noteNumber": 60,
        "velocity": 127,
        "subtype": "noteOn"
      },
      {
        "deltaTime": 0,
        "channel": 1,
        "type": "channel",
        "noteNumber": 49,
        "velocity": 127,
        "subtype": "noteOn"
      },
      {
        "deltaTime": 0,
        "channel": 1,
        "type": "channel",
        "noteNumber": 48,
        "velocity": 127,
        "subtype": "noteOn"
      },
      {
        "deltaTime": 40,
        "channel": 1,
        "type": "channel",
        "noteNumber": 49,
        "velocity": 0,
        "subtype": "noteOff"
      },
      {
        "deltaTime": 440,
        "channel": 1,
        "type": "channel",
        "noteNumber": 48,
        "velocity": 0,
        "subtype": "noteOff"
      },
      {
        "deltaTime": 0,
        "channel": 1,
        "type": "channel",
        "noteNumber": 60,
        "velocity": 0,
        "subtype": "noteOff"
      },
      {
        "deltaTime": 0,
        "channel": 1,
        "type": "channel",
        "noteNumber": 65,
        "velocity": 127,
        "subtype": "noteOn"
      },
      {
        "deltaTime": 0,
        "channel": 1,
        "type": "channel",
        "noteNumber": 54,
        "velocity": 127,
        "subtype": "noteOn"
      },
      {
        "deltaTime": 0,
        "channel": 1,
        "type": "channel",
        "noteNumber": 53,
        "velocity": 127,
        "subtype": "noteOn"
      },
      {
        "deltaTime": 40,
        "channel": 1,
        "type": "channel",
        "noteNumber": 54,
        "velocity": 0,
        "subtype": "noteOff"
      },
      {
        "deltaTime": 440,
        "channel": 1,
        "type": "channel",
        "noteNumber": 53,
        "velocity": 0,
        "subtype": "noteOff"
      },
      {
        "deltaTime": 0,
        "channel": 1,
        "type": "channel",
        "noteNumber": 65,
        "velocity": 0,
        "subtype": "noteOff"
      },
      {
        "deltaTime": 0,
        "channel": 1,
        "type": "channel",
        "noteNumber": 67,
        "velocity": 127,
        "subtype": "noteOn"
      },
      {
        "deltaTime": 0,
        "channel": 1,
        "type": "channel",
        "noteNumber": 54,
        "velocity": 127,
        "subtype": "noteOn"
      },
      {
        "deltaTime": 0,
        "channel": 1,
        "type": "channel",
        "noteNumber": 55,
        "velocity": 127,
        "subtype": "noteOn"
      },
      {
        "deltaTime": 40,
        "channel": 1,
        "type": "channel",
        "noteNumber": 54,
        "velocity": 0,
        "subtype": "noteOff"
      },
      {
        "deltaTime": 440,
        "channel": 1,
        "type": "channel",
        "noteNumber": 55,
        "velocity": 0,
        "subtype": "noteOff"
      },
      {
        "deltaTime": 0,
        "channel": 1,
        "type": "channel",
        "noteNumber": 67,
        "velocity": 0,
        "subtype": "noteOff"
      },
      {
        "deltaTime": 0,
        "channel": 1,
        "type": "channel",
        "noteNumber": 60,
        "velocity": 127,
        "subtype": "noteOn"
      },
      {
        "deltaTime": 0,
        "channel": 1,
        "type": "channel",
        "noteNumber": 49,
        "velocity": 127,
        "subtype": "noteOn"
      },
      {
        "deltaTime": 0,
        "channel": 1,
        "type": "channel",
        "noteNumber": 48,
        "velocity": 127,
        "subtype": "noteOn"
      },
      {
        "deltaTime": 40,
        "channel": 1,
        "type": "channel",
        "noteNumber": 49,
        "velocity": 0,
        "subtype": "noteOff"
      },
      {
        "deltaTime": 680,
        "channel": 1,
        "type": "channel",
        "noteNumber": 48,
        "velocity": 0,
        "subtype": "noteOff"
      },
      {
        "deltaTime": 0,
        "channel": 1,
        "type": "channel",
        "noteNumber": 60,
        "velocity": 0,
        "subtype": "noteOff"
      },
      {
        "deltaTime": 0,
        "channel": 1,
        "type": "channel",
        "noteNumber": 60,
        "velocity": 127,
        "subtype": "noteOn"
      },
      {
        "deltaTime": 0,
        "channel": 1,
        "type": "channel",
        "noteNumber": 49,
        "velocity": 127,
        "subtype": "noteOn"
      },
      {
        "deltaTime": 0,
        "channel": 1,
        "type": "channel",
        "noteNumber": 48,
        "velocity": 127,
        "subtype": "noteOn"
      },
      {
        "deltaTime": 40,
        "channel": 1,
        "type": "channel",
        "noteNumber": 49,
        "velocity": 0,
        "subtype": "noteOff"
      },
      {
        "deltaTime": 680,
        "channel": 1,
        "type": "channel",
        "noteNumber": 48,
        "velocity": 0,
        "subtype": "noteOff"
      },
      {
        "deltaTime": 0,
        "channel": 1,
        "type": "channel",
        "noteNumber": 60,
        "velocity": 0,
        "subtype": "noteOff"
      },
      {
        "deltaTime": 0,
        "channel": 1,
        "type": "channel",
        "noteNumber": 60,
        "velocity": 127,
        "subtype": "noteOn"
      },
      {
        "deltaTime": 0,
        "channel": 1,
        "type": "channel",
        "noteNumber": 49,
        "velocity": 127,
        "subtype": "noteOn"
      },
      {
        "deltaTime": 0,
        "channel": 1,
        "type": "channel",
        "noteNumber": 48,
        "velocity": 127,
        "subtype": "noteOn"
      },
      {
        "deltaTime": 40,
        "channel": 1,
        "type": "channel",
        "noteNumber": 49,
        "velocity": 0,
        "subtype": "noteOff"
      },
      {
        "deltaTime": 440,
        "channel": 1,
        "type": "channel",
        "noteNumber": 48,
        "velocity": 0,
        "subtype": "noteOff"
      },
      {
        "deltaTime": 0,
        "channel": 1,
        "type": "channel",
        "noteNumber": 60,
        "velocity": 0,
        "subtype": "noteOff"
      },
      {
        "deltaTime": 0,
        "channel": 1,
        "type": "channel",
        "noteNumber": 67,
        "velocity": 127,
        "subtype": "noteOn"
      },
      {
        "deltaTime": 0,
        "channel": 1,
        "type": "channel",
        "noteNumber": 54,
        "velocity": 127,
        "subtype": "noteOn"
      },
      {
        "deltaTime": 0,
        "channel": 1,
        "type": "channel",
        "noteNumber": 55,
        "velocity": 127,
        "subtype": "noteOn"
      },
      {
        "deltaTime": 40,
        "channel": 1,
        "type": "channel",
        "noteNumber": 54,
        "velocity": 0,
        "subtype": "noteOff"
      },
      {
        "deltaTime": 440,
        "channel": 1,
        "type": "channel",
        "noteNumber": 55,
        "velocity": 0,
        "subtype": "noteOff"
      },
      {
        "deltaTime": 0,
        "channel": 1,
        "type": "channel",
        "noteNumber": 67,
        "velocity": 0,
        "subtype": "noteOff"
      },
      {
        "deltaTime": 0,
        "channel": 1,
        "type": "channel",
        "noteNumber": 70,
        "velocity": 127,
        "subtype": "noteOn"
      },
      {
        "deltaTime": 0,
        "channel": 1,
        "type": "channel",
        "noteNumber": 58,
        "velocity": 127,
        "subtype": "noteOn"
      },
      {
        "deltaTime": 480,
        "channel": 1,
        "type": "channel",
        "noteNumber": 58,
        "velocity": 0,
        "subtype": "noteOff"
      },
      {
        "deltaTime": 0,
        "channel": 1,
        "type": "channel",
        "noteNumber": 70,
        "velocity": 0,
        "subtype": "noteOff"
      },
      {
        "deltaTime": 0,
        "channel": 1,
        "type": "channel",
        "noteNumber": 62,
        "velocity": 127,
        "subtype": "noteOn"
      },
      {
        "deltaTime": 0,
        "channel": 1,
        "type": "channel",
        "noteNumber": 49,
        "velocity": 127,
        "subtype": "noteOn"
      },
      {
        "deltaTime": 0,
        "channel": 1,
        "type": "channel",
        "noteNumber": 50,
        "velocity": 127,
        "subtype": "noteOn"
      },
      {
        "deltaTime": 40,
        "channel": 1,
        "type": "channel",
        "noteNumber": 49,
        "velocity": 0,
        "subtype": "noteOff"
      },
      {
        "deltaTime": 680,
        "channel": 1,
        "type": "channel",
        "noteNumber": 50,
        "velocity": 0,
        "subtype": "noteOff"
      },
      {
        "deltaTime": 0,
        "channel": 1,
        "type": "channel",
        "noteNumber": 62,
        "velocity": 0,
        "subtype": "noteOff"
      },
      {
        "deltaTime": 0,
        "channel": 1,
        "type": "channel",
        "noteNumber": 62,
        "velocity": 127,
        "subtype": "noteOn"
      },
      {
        "deltaTime": 0,
        "channel": 1,
        "type": "channel",
        "noteNumber": 49,
        "velocity": 127,
        "subtype": "noteOn"
      },
      {
        "deltaTime": 0,
        "channel": 1,
        "type": "channel",
        "noteNumber": 50,
        "velocity": 127,
        "subtype": "noteOn"
      },
      {
        "deltaTime": 40,
        "channel": 1,
        "type": "channel",
        "noteNumber": 49,
        "velocity": 0,
        "subtype": "noteOff"
      },
      {
        "deltaTime": 680,
        "channel": 1,
        "type": "channel",
        "noteNumber": 50,
        "velocity": 0,
        "subtype": "noteOff"
      },
      {
        "deltaTime": 0,
        "channel": 1,
        "type": "channel",
        "noteNumber": 62,
        "velocity": 0,
        "subtype": "noteOff"
      },
      {
        "deltaTime": 0,
        "channel": 1,
        "type": "channel",
        "noteNumber": 62,
        "velocity": 127,
        "subtype": "noteOn"
      },
      {
        "deltaTime": 0,
        "channel": 1,
        "type": "channel",
        "noteNumber": 49,
        "velocity": 127,
        "subtype": "noteOn"
      },
      {
        "deltaTime": 0,
        "channel": 1,
        "type": "channel",
        "noteNumber": 50,
        "velocity": 127,
        "subtype": "noteOn"
      },
      {
        "deltaTime": 40,
        "channel": 1,
        "type": "channel",
        "noteNumber": 49,
        "velocity": 0,
        "subtype": "noteOff"
      },
      {
        "deltaTime": 440,
        "channel": 1,
        "type": "channel",
        "noteNumber": 50,
        "velocity": 0,
        "subtype": "noteOff"
      },
      {
        "deltaTime": 0,
        "channel": 1,
        "type": "channel",
        "noteNumber": 62,
        "velocity": 0,
        "subtype": "noteOff"
      },
      {
        "deltaTime": 0,
        "channel": 1,
        "type": "channel",
        "noteNumber": 70,
        "velocity": 127,
        "subtype": "noteOn"
      },
      {
        "deltaTime": 0,
        "channel": 1,
        "type": "channel",
        "noteNumber": 58,
        "velocity": 127,
        "subtype": "noteOn"
      },
      {
        "deltaTime": 480,
        "channel": 1,
        "type": "channel",
        "noteNumber": 58,
        "velocity": 0,
        "subtype": "noteOff"
      },
      {
        "deltaTime": 0,
        "channel": 1,
        "type": "channel",
        "noteNumber": 70,
        "velocity": 0,
        "subtype": "noteOff"
      },
      {
        "deltaTime": 0,
        "channel": 1,
        "type": "channel",
        "noteNumber": 72,
        "velocity": 127,
        "subtype": "noteOn"
      },
      {
        "deltaTime": 0,
        "channel": 1,
        "type": "channel",
        "noteNumber": 58,
        "velocity": 127,
        "subtype": "noteOn"
      },
      {
        "deltaTime": 0,
        "channel": 1,
        "type": "channel",
        "noteNumber": 60,
        "velocity": 127,
        "subtype": "noteOn"
      },
      {
        "deltaTime": 40,
        "channel": 1,
        "type": "channel",
        "noteNumber": 58,
        "velocity": 0,
        "subtype": "noteOff"
      },
      {
        "deltaTime": 440,
        "channel": 1,
        "type": "channel",
        "noteNumber": 60,
        "velocity": 0,
        "subtype": "noteOff"
      },
      {
        "deltaTime": 0,
        "channel": 1,
        "type": "channel",
        "noteNumber": 72,
        "velocity": 0,
        "subtype": "noteOff"
      },
      {
        "deltaTime": 0,
        "channel": 1,
        "type": "channel",
        "noteNumber": 67,
        "velocity": 127,
        "subtype": "noteOn"
      },
      {
        "deltaTime": 0,
        "channel": 1,
        "type": "channel",
        "noteNumber": 60,
        "velocity": 127,
        "subtype": "noteOn"
      },
      {
        "deltaTime": 0,
        "channel": 1,
        "type": "channel",
        "noteNumber": 55,
        "velocity": 127,
        "subtype": "noteOn"
      },
      {
        "deltaTime": 40,
        "channel": 1,
        "type": "channel",
        "noteNumber": 60,
        "velocity": 0,
        "subtype": "noteOff"
      },
      {
        "deltaTime": 680,
        "channel": 1,
        "type": "channel",
        "noteNumber": 55,
        "velocity": 0,
        "subtype": "noteOff"
      },
      {
        "deltaTime": 0,
        "channel": 1,
        "type": "channel",
        "noteNumber": 67,
        "velocity": 0,
        "subtype": "noteOff"
      },
      {
        "deltaTime": 0,
        "channel": 1,
        "type": "channel",
        "noteNumber": 67,
        "velocity": 127,
        "subtype": "noteOn"
      },
      {
        "deltaTime": 0,
        "channel": 1,
        "type": "channel",
        "noteNumber": 60,
        "velocity": 127,
        "subtype": "noteOn"
      },
      {
        "deltaTime": 0,
        "channel": 1,
        "type": "channel",
        "noteNumber": 55,
        "velocity": 127,
        "subtype": "noteOn"
      },
      {
        "deltaTime": 40,
        "channel": 1,
        "type": "channel",
        "noteNumber": 60,
        "velocity": 0,
        "subtype": "noteOff"
      },
      {
        "deltaTime": 680,
        "channel": 1,
        "type": "channel",
        "noteNumber": 55,
        "velocity": 0,
        "subtype": "noteOff"
      },
      {
        "deltaTime": 0,
        "channel": 1,
        "type": "channel",
        "noteNumber": 67,
        "velocity": 0,
        "subtype": "noteOff"
      },
      {
        "deltaTime": 0,
        "channel": 1,
        "type": "channel",
        "noteNumber": 67,
        "velocity": 127,
        "subtype": "noteOn"
      },
      {
        "deltaTime": 0,
        "channel": 1,
        "type": "channel",
        "noteNumber": 60,
        "velocity": 127,
        "subtype": "noteOn"
      },
      {
        "deltaTime": 0,
        "channel": 1,
        "type": "channel",
        "noteNumber": 55,
        "velocity": 127,
        "subtype": "noteOn"
      },
      {
        "deltaTime": 40,
        "channel": 1,
        "type": "channel",
        "noteNumber": 60,
        "velocity": 0,
        "subtype": "noteOff"
      },
      {
        "deltaTime": 440,
        "channel": 1,
        "type": "channel",
        "noteNumber": 55,
        "velocity": 0,
        "subtype": "noteOff"
      },
      {
        "deltaTime": 0,
        "channel": 1,
        "type": "channel",
        "noteNumber": 67,
        "velocity": 0,
        "subtype": "noteOff"
      },
      {
        "deltaTime": 0,
        "channel": 1,
        "type": "channel",
        "noteNumber": 65,
        "velocity": 127,
        "subtype": "noteOn"
      },
      {
        "deltaTime": 0,
        "channel": 1,
        "type": "channel",
        "noteNumber": 54,
        "velocity": 127,
        "subtype": "noteOn"
      },
      {
        "deltaTime": 0,
        "channel": 1,
        "type": "channel",
        "noteNumber": 53,
        "velocity": 127,
        "subtype": "noteOn"
      },
      {
        "deltaTime": 40,
        "channel": 1,
        "type": "channel",
        "noteNumber": 54,
        "velocity": 0,
        "subtype": "noteOff"
      },
      {
        "deltaTime": 920,
        "channel": 1,
        "type": "channel",
        "noteNumber": 53,
        "velocity": 0,
        "subtype": "noteOff"
      },
      {
        "deltaTime": 0,
        "channel": 1,
        "type": "channel",
        "noteNumber": 65,
        "velocity": 0,
        "subtype": "noteOff"
      },
      {
        "deltaTime": 0,
        "channel": 1,
        "type": "channel",
        "noteNumber": 60,
        "velocity": 127,
        "subtype": "noteOn"
      },
      {
        "deltaTime": 0,
        "channel": 1,
        "type": "channel",
        "noteNumber": 49,
        "velocity": 127,
        "subtype": "noteOn"
      },
      {
        "deltaTime": 0,
        "channel": 1,
        "type": "channel",
        "noteNumber": 48,
        "velocity": 127,
        "subtype": "noteOn"
      },
      {
        "deltaTime": 40,
        "channel": 1,
        "type": "channel",
        "noteNumber": 49,
        "velocity": 0,
        "subtype": "noteOff"
      },
      {
        "deltaTime": 680,
        "channel": 1,
        "type": "channel",
        "noteNumber": 48,
        "velocity": 0,
        "subtype": "noteOff"
      },
      {
        "deltaTime": 0,
        "channel": 1,
        "type": "channel",
        "noteNumber": 60,
        "velocity": 0,
        "subtype": "noteOff"
      },
      {
        "deltaTime": 0,
        "channel": 1,
        "type": "channel",
        "noteNumber": 60,
        "velocity": 127,
        "subtype": "noteOn"
      },
      {
        "deltaTime": 0,
        "channel": 1,
        "type": "channel",
        "noteNumber": 49,
        "velocity": 127,
        "subtype": "noteOn"
      },
      {
        "deltaTime": 0,
        "channel": 1,
        "type": "channel",
        "noteNumber": 48,
        "velocity": 127,
        "subtype": "noteOn"
      },
      {
        "deltaTime": 40,
        "channel": 1,
        "type": "channel",
        "noteNumber": 49,
        "velocity": 0,
        "subtype": "noteOff"
      },
      {
        "deltaTime": 680,
        "channel": 1,
        "type": "channel",
        "noteNumber": 48,
        "velocity": 0,
        "subtype": "noteOff"
      },
      {
        "deltaTime": 0,
        "channel": 1,
        "type": "channel",
        "noteNumber": 60,
        "velocity": 0,
        "subtype": "noteOff"
      },
      {
        "deltaTime": 0,
        "channel": 1,
        "type": "channel",
        "noteNumber": 60,
        "velocity": 127,
        "subtype": "noteOn"
      },
      {
        "deltaTime": 0,
        "channel": 1,
        "type": "channel",
        "noteNumber": 49,
        "velocity": 127,
        "subtype": "noteOn"
      },
      {
        "deltaTime": 0,
        "channel": 1,
        "type": "channel",
        "noteNumber": 48,
        "velocity": 127,
        "subtype": "noteOn"
      },
      {
        "deltaTime": 40,
        "channel": 1,
        "type": "channel",
        "noteNumber": 49,
        "velocity": 0,
        "subtype": "noteOff"
      },
      {
        "deltaTime": 440,
        "channel": 1,
        "type": "channel",
        "noteNumber": 48,
        "velocity": 0,
        "subtype": "noteOff"
      },
      {
        "deltaTime": 0,
        "channel": 1,
        "type": "channel",
        "noteNumber": 60,
        "velocity": 0,
        "subtype": "noteOff"
      },
      {
        "deltaTime": 0,
        "channel": 1,
        "type": "channel",
        "noteNumber": 65,
        "velocity": 127,
        "subtype": "noteOn"
      },
      {
        "deltaTime": 0,
        "channel": 1,
        "type": "channel",
        "noteNumber": 54,
        "velocity": 127,
        "subtype": "noteOn"
      },
      {
        "deltaTime": 0,
        "channel": 1,
        "type": "channel",
        "noteNumber": 53,
        "velocity": 127,
        "subtype": "noteOn"
      },
      {
        "deltaTime": 40,
        "channel": 1,
        "type": "channel",
        "noteNumber": 54,
        "velocity": 0,
        "subtype": "noteOff"
      },
      {
        "deltaTime": 440,
        "channel": 1,
        "type": "channel",
        "noteNumber": 53,
        "velocity": 0,
        "subtype": "noteOff"
      },
      {
        "deltaTime": 0,
        "channel": 1,
        "type": "channel",
        "noteNumber": 65,
        "velocity": 0,
        "subtype": "noteOff"
      },
      {
        "deltaTime": 0,
        "channel": 1,
        "type": "channel",
        "noteNumber": 67,
        "velocity": 127,
        "subtype": "noteOn"
      },
      {
        "deltaTime": 0,
        "channel": 1,
        "type": "channel",
        "noteNumber": 54,
        "velocity": 127,
        "subtype": "noteOn"
      },
      {
        "deltaTime": 0,
        "channel": 1,
        "type": "channel",
        "noteNumber": 55,
        "velocity": 127,
        "subtype": "noteOn"
      },
      {
        "deltaTime": 40,
        "channel": 1,
        "type": "channel",
        "noteNumber": 54,
        "velocity": 0,
        "subtype": "noteOff"
      },
      {
        "deltaTime": 440,
        "channel": 1,
        "type": "channel",
        "noteNumber": 55,
        "velocity": 0,
        "subtype": "noteOff"
      },
      {
        "deltaTime": 0,
        "channel": 1,
        "type": "channel",
        "noteNumber": 67,
        "velocity": 0,
        "subtype": "noteOff"
      },
      {
        "deltaTime": 0,
        "channel": 1,
        "type": "channel",
        "noteNumber": 60,
        "velocity": 127,
        "subtype": "noteOn"
      },
      {
        "deltaTime": 0,
        "channel": 1,
        "type": "channel",
        "noteNumber": 49,
        "velocity": 127,
        "subtype": "noteOn"
      },
      {
        "deltaTime": 0,
        "channel": 1,
        "type": "channel",
        "noteNumber": 48,
        "velocity": 127,
        "subtype": "noteOn"
      },
      {
        "deltaTime": 40,
        "channel": 1,
        "type": "channel",
        "noteNumber": 49,
        "velocity": 0,
        "subtype": "noteOff"
      },
      {
        "deltaTime": 680,
        "channel": 1,
        "type": "channel",
        "noteNumber": 48,
        "velocity": 0,
        "subtype": "noteOff"
      },
      {
        "deltaTime": 0,
        "channel": 1,
        "type": "channel",
        "noteNumber": 60,
        "velocity": 0,
        "subtype": "noteOff"
      },
      {
        "deltaTime": 0,
        "channel": 1,
        "type": "channel",
        "noteNumber": 60,
        "velocity": 127,
        "subtype": "noteOn"
      },
      {
        "deltaTime": 0,
        "channel": 1,
        "type": "channel",
        "noteNumber": 49,
        "velocity": 127,
        "subtype": "noteOn"
      },
      {
        "deltaTime": 0,
        "channel": 1,
        "type": "channel",
        "noteNumber": 48,
        "velocity": 127,
        "subtype": "noteOn"
      },
      {
        "deltaTime": 40,
        "channel": 1,
        "type": "channel",
        "noteNumber": 49,
        "velocity": 0,
        "subtype": "noteOff"
      },
      {
        "deltaTime": 680,
        "channel": 1,
        "type": "channel",
        "noteNumber": 48,
        "velocity": 0,
        "subtype": "noteOff"
      },
      {
        "deltaTime": 0,
        "channel": 1,
        "type": "channel",
        "noteNumber": 60,
        "velocity": 0,
        "subtype": "noteOff"
      },
      {
        "deltaTime": 0,
        "channel": 1,
        "type": "channel",
        "noteNumber": 60,
        "velocity": 127,
        "subtype": "noteOn"
      },
      {
        "deltaTime": 0,
        "channel": 1,
        "type": "channel",
        "noteNumber": 49,
        "velocity": 127,
        "subtype": "noteOn"
      },
      {
        "deltaTime": 0,
        "channel": 1,
        "type": "channel",
        "noteNumber": 48,
        "velocity": 127,
        "subtype": "noteOn"
      },
      {
        "deltaTime": 40,
        "channel": 1,
        "type": "channel",
        "noteNumber": 49,
        "velocity": 0,
        "subtype": "noteOff"
      },
      {
        "deltaTime": 440,
        "channel": 1,
        "type": "channel",
        "noteNumber": 48,
        "velocity": 0,
        "subtype": "noteOff"
      },
      {
        "deltaTime": 0,
        "channel": 1,
        "type": "channel",
        "noteNumber": 60,
        "velocity": 0,
        "subtype": "noteOff"
      },
      {
        "deltaTime": 0,
        "channel": 1,
        "type": "channel",
        "noteNumber": 67,
        "velocity": 127,
        "subtype": "noteOn"
      },
      {
        "deltaTime": 0,
        "channel": 1,
        "type": "channel",
        "noteNumber": 54,
        "velocity": 127,
        "subtype": "noteOn"
      },
      {
        "deltaTime": 0,
        "channel": 1,
        "type": "channel",
        "noteNumber": 55,
        "velocity": 127,
        "subtype": "noteOn"
      },
      {
        "deltaTime": 40,
        "channel": 1,
        "type": "channel",
        "noteNumber": 54,
        "velocity": 0,
        "subtype": "noteOff"
      },
      {
        "deltaTime": 440,
        "channel": 1,
        "type": "channel",
        "noteNumber": 55,
        "velocity": 0,
        "subtype": "noteOff"
      },
      {
        "deltaTime": 0,
        "channel": 1,
        "type": "channel",
        "noteNumber": 67,
        "velocity": 0,
        "subtype": "noteOff"
      },
      {
        "deltaTime": 0,
        "channel": 1,
        "type": "channel",
        "noteNumber": 70,
        "velocity": 127,
        "subtype": "noteOn"
      },
      {
        "deltaTime": 0,
        "channel": 1,
        "type": "channel",
        "noteNumber": 58,
        "velocity": 127,
        "subtype": "noteOn"
      },
      {
        "deltaTime": 480,
        "channel": 1,
        "type": "channel",
        "noteNumber": 58,
        "velocity": 0,
        "subtype": "noteOff"
      },
      {
        "deltaTime": 0,
        "channel": 1,
        "type": "channel",
        "noteNumber": 70,
        "velocity": 0,
        "subtype": "noteOff"
      },
      {
        "deltaTime": 0,
        "channel": 1,
        "type": "channel",
        "noteNumber": 62,
        "velocity": 127,
        "subtype": "noteOn"
      },
      {
        "deltaTime": 0,
        "channel": 1,
        "type": "channel",
        "noteNumber": 49,
        "velocity": 127,
        "subtype": "noteOn"
      },
      {
        "deltaTime": 0,
        "channel": 1,
        "type": "channel",
        "noteNumber": 50,
        "velocity": 127,
        "subtype": "noteOn"
      },
      {
        "deltaTime": 40,
        "channel": 1,
        "type": "channel",
        "noteNumber": 49,
        "velocity": 0,
        "subtype": "noteOff"
      },
      {
        "deltaTime": 680,
        "channel": 1,
        "type": "channel",
        "noteNumber": 50,
        "velocity": 0,
        "subtype": "noteOff"
      },
      {
        "deltaTime": 0,
        "channel": 1,
        "type": "channel",
        "noteNumber": 62,
        "velocity": 0,
        "subtype": "noteOff"
      },
      {
        "deltaTime": 0,
        "channel": 1,
        "type": "channel",
        "noteNumber": 62,
        "velocity": 127,
        "subtype": "noteOn"
      },
      {
        "deltaTime": 0,
        "channel": 1,
        "type": "channel",
        "noteNumber": 49,
        "velocity": 127,
        "subtype": "noteOn"
      },
      {
        "deltaTime": 0,
        "channel": 1,
        "type": "channel",
        "noteNumber": 50,
        "velocity": 127,
        "subtype": "noteOn"
      },
      {
        "deltaTime": 40,
        "channel": 1,
        "type": "channel",
        "noteNumber": 49,
        "velocity": 0,
        "subtype": "noteOff"
      },
      {
        "deltaTime": 680,
        "channel": 1,
        "type": "channel",
        "noteNumber": 50,
        "velocity": 0,
        "subtype": "noteOff"
      },
      {
        "deltaTime": 0,
        "channel": 1,
        "type": "channel",
        "noteNumber": 62,
        "velocity": 0,
        "subtype": "noteOff"
      },
      {
        "deltaTime": 0,
        "channel": 1,
        "type": "channel",
        "noteNumber": 62,
        "velocity": 127,
        "subtype": "noteOn"
      },
      {
        "deltaTime": 0,
        "channel": 1,
        "type": "channel",
        "noteNumber": 49,
        "velocity": 127,
        "subtype": "noteOn"
      },
      {
        "deltaTime": 0,
        "channel": 1,
        "type": "channel",
        "noteNumber": 50,
        "velocity": 127,
        "subtype": "noteOn"
      },
      {
        "deltaTime": 40,
        "channel": 1,
        "type": "channel",
        "noteNumber": 49,
        "velocity": 0,
        "subtype": "noteOff"
      },
      {
        "deltaTime": 440,
        "channel": 1,
        "type": "channel",
        "noteNumber": 50,
        "velocity": 0,
        "subtype": "noteOff"
      },
      {
        "deltaTime": 0,
        "channel": 1,
        "type": "channel",
        "noteNumber": 62,
        "velocity": 0,
        "subtype": "noteOff"
      },
      {
        "deltaTime": 0,
        "channel": 1,
        "type": "channel",
        "noteNumber": 70,
        "velocity": 127,
        "subtype": "noteOn"
      },
      {
        "deltaTime": 0,
        "channel": 1,
        "type": "channel",
        "noteNumber": 58,
        "velocity": 127,
        "subtype": "noteOn"
      },
      {
        "deltaTime": 480,
        "channel": 1,
        "type": "channel",
        "noteNumber": 58,
        "velocity": 0,
        "subtype": "noteOff"
      },
      {
        "deltaTime": 0,
        "channel": 1,
        "type": "channel",
        "noteNumber": 70,
        "velocity": 0,
        "subtype": "noteOff"
      },
      {
        "deltaTime": 0,
        "channel": 1,
        "type": "channel",
        "noteNumber": 72,
        "velocity": 127,
        "subtype": "noteOn"
      },
      {
        "deltaTime": 0,
        "channel": 1,
        "type": "channel",
        "noteNumber": 58,
        "velocity": 127,
        "subtype": "noteOn"
      },
      {
        "deltaTime": 0,
        "channel": 1,
        "type": "channel",
        "noteNumber": 60,
        "velocity": 127,
        "subtype": "noteOn"
      },
      {
        "deltaTime": 40,
        "channel": 1,
        "type": "channel",
        "noteNumber": 58,
        "velocity": 0,
        "subtype": "noteOff"
      },
      {
        "deltaTime": 440,
        "channel": 1,
        "type": "channel",
        "noteNumber": 60,
        "velocity": 0,
        "subtype": "noteOff"
      },
      {
        "deltaTime": 0,
        "channel": 1,
        "type": "channel",
        "noteNumber": 72,
        "velocity": 0,
        "subtype": "noteOff"
      },
      {
        "deltaTime": 0,
        "channel": 1,
        "type": "channel",
        "noteNumber": 67,
        "velocity": 127,
        "subtype": "noteOn"
      },
      {
        "deltaTime": 0,
        "channel": 1,
        "type": "channel",
        "noteNumber": 60,
        "velocity": 127,
        "subtype": "noteOn"
      },
      {
        "deltaTime": 0,
        "channel": 1,
        "type": "channel",
        "noteNumber": 55,
        "velocity": 127,
        "subtype": "noteOn"
      },
      {
        "deltaTime": 40,
        "channel": 1,
        "type": "channel",
        "noteNumber": 60,
        "velocity": 0,
        "subtype": "noteOff"
      },
      {
        "deltaTime": 680,
        "channel": 1,
        "type": "channel",
        "noteNumber": 55,
        "velocity": 0,
        "subtype": "noteOff"
      },
      {
        "deltaTime": 0,
        "channel": 1,
        "type": "channel",
        "noteNumber": 67,
        "velocity": 0,
        "subtype": "noteOff"
      },
      {
        "deltaTime": 0,
        "channel": 1,
        "type": "channel",
        "noteNumber": 67,
        "velocity": 127,
        "subtype": "noteOn"
      },
      {
        "deltaTime": 0,
        "channel": 1,
        "type": "channel",
        "noteNumber": 60,
        "velocity": 127,
        "subtype": "noteOn"
      },
      {
        "deltaTime": 0,
        "channel": 1,
        "type": "channel",
        "noteNumber": 55,
        "velocity": 127,
        "subtype": "noteOn"
      },
      {
        "deltaTime": 40,
        "channel": 1,
        "type": "channel",
        "noteNumber": 60,
        "velocity": 0,
        "subtype": "noteOff"
      },
      {
        "deltaTime": 680,
        "channel": 1,
        "type": "channel",
        "noteNumber": 55,
        "velocity": 0,
        "subtype": "noteOff"
      },
      {
        "deltaTime": 0,
        "channel": 1,
        "type": "channel",
        "noteNumber": 67,
        "velocity": 0,
        "subtype": "noteOff"
      },
      {
        "deltaTime": 0,
        "channel": 1,
        "type": "channel",
        "noteNumber": 67,
        "velocity": 127,
        "subtype": "noteOn"
      },
      {
        "deltaTime": 0,
        "channel": 1,
        "type": "channel",
        "noteNumber": 60,
        "velocity": 127,
        "subtype": "noteOn"
      },
      {
        "deltaTime": 0,
        "channel": 1,
        "type": "channel",
        "noteNumber": 55,
        "velocity": 127,
        "subtype": "noteOn"
      },
      {
        "deltaTime": 40,
        "channel": 1,
        "type": "channel",
        "noteNumber": 60,
        "velocity": 0,
        "subtype": "noteOff"
      },
      {
        "deltaTime": 440,
        "channel": 1,
        "type": "channel",
        "noteNumber": 55,
        "velocity": 0,
        "subtype": "noteOff"
      },
      {
        "deltaTime": 0,
        "channel": 1,
        "type": "channel",
        "noteNumber": 67,
        "velocity": 0,
        "subtype": "noteOff"
      },
      {
        "deltaTime": 0,
        "channel": 1,
        "type": "channel",
        "noteNumber": 65,
        "velocity": 127,
        "subtype": "noteOn"
      },
      {
        "deltaTime": 0,
        "channel": 1,
        "type": "channel",
        "noteNumber": 54,
        "velocity": 127,
        "subtype": "noteOn"
      },
      {
        "deltaTime": 0,
        "channel": 1,
        "type": "channel",
        "noteNumber": 53,
        "velocity": 127,
        "subtype": "noteOn"
      },
      {
        "deltaTime": 40,
        "channel": 1,
        "type": "channel",
        "noteNumber": 54,
        "velocity": 0,
        "subtype": "noteOff"
      },
      {
        "deltaTime": 920,
        "channel": 1,
        "type": "channel",
        "noteNumber": 53,
        "velocity": 0,
        "subtype": "noteOff"
      },
      {
        "deltaTime": 0,
        "channel": 1,
        "type": "channel",
        "noteNumber": 65,
        "velocity": 0,
        "subtype": "noteOff"
      },
      {
        "deltaTime": 0,
        "type": "meta",
        "subtype": "endOfTrack"
      }
    ],
    [
      {
        "deltaTime": 0,
        "type": "meta",
        "subtype": "trackName",
        "text": "Guitar 2"
      },
      {
        "deltaTime": 0,
        "channel": 2,
        "type": "channel",
        "subtype": "controller",
        "controllerType": 7,
        "value": 127
      },
      {
        "deltaTime": 0,
        "channel": 2,
        "type": "channel",
        "subtype": "controller",
        "controllerType": 10,
        "value": 64
      },
      {
        "deltaTime": 0,
        "channel": 2,
        "type": "channel",
        "subtype": "controller",
        "controllerType": 91,
        "value": 0
      },
      {
        "deltaTime": 0,
        "channel": 2,
        "type": "channel",
        "subtype": "controller",
        "controllerType": 93,
        "value": 0
      },
      {
        "deltaTime": 0,
        "channel": 2,
        "type": "channel",
        "subtype": "controller",
        "controllerType": 101,
        "value": 0
      },
      {
        "deltaTime": 1,
        "channel": 2,
        "type": "channel",
        "subtype": "controller",
        "controllerType": 100,
        "value": 0
      },
      {
        "deltaTime": 1,
        "channel": 2,
        "type": "channel",
        "subtype": "controller",
        "controllerType": 6,
        "value": 12
      },
      {
        "deltaTime": 1,
        "channel": 2,
        "type": "channel",
        "subtype": "controller",
        "controllerType": 38,
        "value": 0
      },
      {
        "deltaTime": 0,
        "channel": 2,
        "type": "channel",
        "subtype": "pitchBend",
        "value": 8192
      },
      {
        "deltaTime": 0,
        "channel": 2,
        "type": "channel",
        "subtype": "controller",
        "controllerType": 101,
        "value": 0
      },
      {
        "deltaTime": 1,
        "channel": 2,
        "type": "channel",
        "subtype": "controller",
        "controllerType": 100,
        "value": 1
      },
      {
        "deltaTime": 1,
        "channel": 2,
        "type": "channel",
        "subtype": "controller",
        "controllerType": 6,
        "value": 64
      },
      {
        "deltaTime": 1,
        "channel": 2,
        "type": "channel",
        "subtype": "controller",
        "controllerType": 38,
        "value": 0
      },
      {
        "deltaTime": 0,
        "channel": 2,
        "type": "channel",
        "subtype": "controller",
        "controllerType": 101,
        "value": 0
      },
      {
        "deltaTime": 1,
        "channel": 2,
        "type": "channel",
        "subtype": "controller",
        "controllerType": 100,
        "value": 0
      },
      {
        "deltaTime": 1,
        "channel": 2,
        "type": "channel",
        "subtype": "controller",
        "controllerType": 6,
        "value": 12
      },
      {
        "deltaTime": 1,
        "channel": 2,
        "type": "channel",
        "subtype": "controller",
        "controllerType": 38,
        "value": 0
      },
      {
        "deltaTime": 0,
        "channel": 2,
        "type": "channel",
        "subtype": "pitchBend",
        "value": 8192
      },
      {
        "deltaTime": 0,
        "channel": 2,
        "type": "channel",
        "subtype": "controller",
        "controllerType": 101,
        "value": 0
      },
      {
        "deltaTime": 1,
        "channel": 2,
        "type": "channel",
        "subtype": "controller",
        "controllerType": 100,
        "value": 1
      },
      {
        "deltaTime": 1,
        "channel": 2,
        "type": "channel",
        "subtype": "controller",
        "controllerType": 6,
        "value": 64
      },
      {
        "deltaTime": 1,
        "channel": 2,
        "type": "channel",
        "subtype": "controller",
        "controllerType": 38,
        "value": 0
      },
      {
        "deltaTime": 0,
        "channel": 2,
        "type": "channel",
        "subtype": "controller",
        "controllerType": 101,
        "value": 0
      },
      {
        "deltaTime": 1,
        "channel": 2,
        "type": "channel",
        "subtype": "controller",
        "controllerType": 100,
        "value": 2
      },
      {
        "deltaTime": 1,
        "channel": 2,
        "type": "channel",
        "subtype": "controller",
        "controllerType": 6,
        "value": 64
      },
      {
        "deltaTime": 1,
        "channel": 2,
        "type": "channel",
        "subtype": "controller",
        "controllerType": 38,
        "value": 0
      },
      {
        "deltaTime": 0,
        "channel": 2,
        "type": "channel",
        "subtype": "controller",
        "controllerType": 101,
        "value": 0
      },
      {
        "deltaTime": 1,
        "channel": 2,
        "type": "channel",
        "subtype": "controller",
        "controllerType": 100,
        "value": 2
      },
      {
        "deltaTime": 1,
        "channel": 2,
        "type": "channel",
        "subtype": "controller",
        "controllerType": 6,
        "value": 64
      },
      {
        "deltaTime": 1,
        "channel": 2,
        "type": "channel",
        "subtype": "controller",
        "controllerType": 38,
        "value": 0
      },
      {
        "deltaTime": 0,
        "channel": 2,
        "type": "channel",
        "subtype": "programChange",
        "programNumber": 30
      },
      {
        "deltaTime": 0,
        "channel": 2,
        "type": "channel",
        "subtype": "programChange",
        "programNumber": 30
      },
      {
        "deltaTime": 0,
        "channel": 2,
        "type": "channel",
        "subtype": "controller",
        "controllerType": 0,
        "value": 0
      },
      {
        "deltaTime": 0,
        "channel": 2,
        "type": "channel",
        "subtype": "controller",
        "controllerType": 0,
        "value": 0
      },
      {
        "deltaTime": 0,
        "channel": 2,
        "type": "channel",
        "subtype": "controller",
        "controllerType": 7,
        "value": 127
      },
      {
        "deltaTime": 0,
        "channel": 2,
        "type": "channel",
        "subtype": "controller",
        "controllerType": 10,
        "value": 64
      },
      {
        "deltaTime": 0,
        "channel": 2,
        "type": "channel",
        "subtype": "controller",
        "controllerType": 93,
        "value": 0
      },
      {
        "deltaTime": 0,
        "channel": 2,
        "type": "channel",
        "subtype": "controller",
        "controllerType": 91,
        "value": 0
      },
      {
        "deltaTime": 0,
        "channel": 2,
        "type": "channel",
        "subtype": "controller",
        "controllerType": 92,
        "value": 0
      },
      {
        "deltaTime": 0,
        "channel": 2,
        "type": "channel",
        "subtype": "controller",
        "controllerType": 92,
        "value": 0
      },
      {
        "deltaTime": 0,
        "channel": 2,
        "type": "channel",
        "subtype": "controller",
        "controllerType": 95,
        "value": 0
      },
      {
        "deltaTime": 0,
        "channel": 2,
        "type": "channel",
        "subtype": "controller",
        "controllerType": 95,
        "value": 0
      },
      {
        "deltaTime": 2862,
        "channel": 2,
        "type": "channel",
        "noteNumber": 67,
        "velocity": 127,
        "subtype": "noteOn"
      },
      {
        "deltaTime": 0,
        "channel": 2,
        "type": "channel",
        "noteNumber": 54,
        "velocity": 127,
        "subtype": "noteOn"
      },
      {
        "deltaTime": 0,
        "channel": 2,
        "type": "channel",
        "noteNumber": 60,
        "velocity": 127,
        "subtype": "noteOn"
      },
      {
        "deltaTime": 0,
        "channel": 2,
        "type": "channel",
        "noteNumber": 51,
        "velocity": 127,
        "subtype": "noteOn"
      },
      {
        "deltaTime": 0,
        "channel": 2,
        "type": "channel",
        "noteNumber": 44,
        "velocity": 127,
        "subtype": "noteOn"
      },
      {
        "deltaTime": 40,
        "channel": 2,
        "type": "channel",
        "noteNumber": 54,
        "velocity": 0,
        "subtype": "noteOff"
      },
      {
        "deltaTime": 680,
        "channel": 2,
        "type": "channel",
        "noteNumber": 51,
        "velocity": 0,
        "subtype": "noteOff"
      },
      {
        "deltaTime": 0,
        "channel": 2,
        "type": "channel",
        "noteNumber": 67,
        "velocity": 0,
        "subtype": "noteOff"
      },
      {
        "deltaTime": 0,
        "channel": 2,
        "type": "channel",
        "noteNumber": 60,
        "velocity": 0,
        "subtype": "noteOff"
      },
      {
        "deltaTime": 0,
        "channel": 2,
        "type": "channel",
        "noteNumber": 44,
        "velocity": 0,
        "subtype": "noteOff"
      },
      {
        "deltaTime": 0,
        "channel": 2,
        "type": "channel",
        "noteNumber": 67,
        "velocity": 127,
        "subtype": "noteOn"
      },
      {
        "deltaTime": 0,
        "channel": 2,
        "type": "channel",
        "noteNumber": 54,
        "velocity": 127,
        "subtype": "noteOn"
      },
      {
        "deltaTime": 0,
        "channel": 2,
        "type": "channel",
        "noteNumber": 60,
        "velocity": 127,
        "subtype": "noteOn"
      },
      {
        "deltaTime": 0,
        "channel": 2,
        "type": "channel",
        "noteNumber": 51,
        "velocity": 127,
        "subtype": "noteOn"
      },
      {
        "deltaTime": 0,
        "channel": 2,
        "type": "channel",
        "noteNumber": 44,
        "velocity": 127,
        "subtype": "noteOn"
      },
      {
        "deltaTime": 40,
        "channel": 2,
        "type": "channel",
        "noteNumber": 54,
        "velocity": 0,
        "subtype": "noteOff"
      },
      {
        "deltaTime": 680,
        "channel": 2,
        "type": "channel",
        "noteNumber": 51,
        "velocity": 0,
        "subtype": "noteOff"
      },
      {
        "deltaTime": 0,
        "channel": 2,
        "type": "channel",
        "noteNumber": 67,
        "velocity": 0,
        "subtype": "noteOff"
      },
      {
        "deltaTime": 0,
        "channel": 2,
        "type": "channel",
        "noteNumber": 60,
        "velocity": 0,
        "subtype": "noteOff"
      },
      {
        "deltaTime": 0,
        "channel": 2,
        "type": "channel",
        "noteNumber": 44,
        "velocity": 0,
        "subtype": "noteOff"
      },
      {
        "deltaTime": 0,
        "channel": 2,
        "type": "channel",
        "noteNumber": 67,
        "velocity": 127,
        "subtype": "noteOn"
      },
      {
        "deltaTime": 0,
        "channel": 2,
        "type": "channel",
        "noteNumber": 54,
        "velocity": 127,
        "subtype": "noteOn"
      },
      {
        "deltaTime": 0,
        "channel": 2,
        "type": "channel",
        "noteNumber": 60,
        "velocity": 127,
        "subtype": "noteOn"
      },
      {
        "deltaTime": 0,
        "channel": 2,
        "type": "channel",
        "noteNumber": 51,
        "velocity": 127,
        "subtype": "noteOn"
      },
      {
        "deltaTime": 0,
        "channel": 2,
        "type": "channel",
        "noteNumber": 44,
        "velocity": 127,
        "subtype": "noteOn"
      },
      {
        "deltaTime": 40,
        "channel": 2,
        "type": "channel",
        "noteNumber": 54,
        "velocity": 0,
        "subtype": "noteOff"
      },
      {
        "deltaTime": 440,
        "channel": 2,
        "type": "channel",
        "noteNumber": 51,
        "velocity": 0,
        "subtype": "noteOff"
      },
      {
        "deltaTime": 0,
        "channel": 2,
        "type": "channel",
        "noteNumber": 67,
        "velocity": 0,
        "subtype": "noteOff"
      },
      {
        "deltaTime": 0,
        "channel": 2,
        "type": "channel",
        "noteNumber": 60,
        "velocity": 0,
        "subtype": "noteOff"
      },
      {
        "deltaTime": 0,
        "channel": 2,
        "type": "channel",
        "noteNumber": 44,
        "velocity": 0,
        "subtype": "noteOff"
      },
      {
        "deltaTime": 0,
        "channel": 2,
        "type": "channel",
        "noteNumber": 54,
        "velocity": 127,
        "subtype": "noteOn"
      },
      {
        "deltaTime": 0,
        "channel": 2,
        "type": "channel",
        "noteNumber": 49,
        "velocity": 127,
        "subtype": "noteOn"
      },
      {
        "deltaTime": 0,
        "channel": 2,
        "type": "channel",
        "noteNumber": 44,
        "velocity": 127,
        "subtype": "noteOn"
      },
      {
        "deltaTime": 0,
        "channel": 2,
        "type": "channel",
        "noteNumber": 37,
        "velocity": 127,
        "subtype": "noteOn"
      },
      {
        "deltaTime": 40,
        "channel": 2,
        "type": "channel",
        "noteNumber": 37,
        "velocity": 0,
        "subtype": "noteOff"
      },
      {
        "deltaTime": 0,
        "channel": 2,
        "type": "channel",
        "noteNumber": 54,
        "velocity": 0,
        "subtype": "noteOff"
      },
      {
        "deltaTime": 0,
        "channel": 2,
        "type": "channel",
        "noteNumber": 49,
        "velocity": 0,
        "subtype": "noteOff"
      },
      {
        "deltaTime": 0,
        "channel": 2,
        "type": "channel",
        "noteNumber": 44,
        "velocity": 0,
        "subtype": "noteOff"
      },
      {
        "deltaTime": 200,
        "channel": 2,
        "type": "channel",
        "noteNumber": 54,
        "velocity": 127,
        "subtype": "noteOn"
      },
      {
        "deltaTime": 0,
        "channel": 2,
        "type": "channel",
        "noteNumber": 49,
        "velocity": 127,
        "subtype": "noteOn"
      },
      {
        "deltaTime": 0,
        "channel": 2,
        "type": "channel",
        "noteNumber": 44,
        "velocity": 127,
        "subtype": "noteOn"
      },
      {
        "deltaTime": 0,
        "channel": 2,
        "type": "channel",
        "noteNumber": 37,
        "velocity": 127,
        "subtype": "noteOn"
      },
      {
        "deltaTime": 40,
        "channel": 2,
        "type": "channel",
        "noteNumber": 37,
        "velocity": 0,
        "subtype": "noteOff"
      },
      {
        "deltaTime": 0,
        "channel": 2,
        "type": "channel",
        "noteNumber": 54,
        "velocity": 0,
        "subtype": "noteOff"
      },
      {
        "deltaTime": 0,
        "channel": 2,
        "type": "channel",
        "noteNumber": 49,
        "velocity": 0,
        "subtype": "noteOff"
      },
      {
        "deltaTime": 0,
        "channel": 2,
        "type": "channel",
        "noteNumber": 44,
        "velocity": 0,
        "subtype": "noteOff"
      },
      {
        "deltaTime": 200,
        "channel": 2,
        "type": "channel",
        "noteNumber": 54,
        "velocity": 127,
        "subtype": "noteOn"
      },
      {
        "deltaTime": 0,
        "channel": 2,
        "type": "channel",
        "noteNumber": 49,
        "velocity": 127,
        "subtype": "noteOn"
      },
      {
        "deltaTime": 0,
        "channel": 2,
        "type": "channel",
        "noteNumber": 44,
        "velocity": 127,
        "subtype": "noteOn"
      },
      {
        "deltaTime": 0,
        "channel": 2,
        "type": "channel",
        "noteNumber": 37,
        "velocity": 127,
        "subtype": "noteOn"
      },
      {
        "deltaTime": 40,
        "channel": 2,
        "type": "channel",
        "noteNumber": 37,
        "velocity": 0,
        "subtype": "noteOff"
      },
      {
        "deltaTime": 0,
        "channel": 2,
        "type": "channel",
        "noteNumber": 54,
        "velocity": 0,
        "subtype": "noteOff"
      },
      {
        "deltaTime": 0,
        "channel": 2,
        "type": "channel",
        "noteNumber": 49,
        "velocity": 0,
        "subtype": "noteOff"
      },
      {
        "deltaTime": 0,
        "channel": 2,
        "type": "channel",
        "noteNumber": 44,
        "velocity": 0,
        "subtype": "noteOff"
      },
      {
        "deltaTime": 200,
        "channel": 2,
        "type": "channel",
        "noteNumber": 54,
        "velocity": 127,
        "subtype": "noteOn"
      },
      {
        "deltaTime": 0,
        "channel": 2,
        "type": "channel",
        "noteNumber": 49,
        "velocity": 127,
        "subtype": "noteOn"
      },
      {
        "deltaTime": 0,
        "channel": 2,
        "type": "channel",
        "noteNumber": 44,
        "velocity": 127,
        "subtype": "noteOn"
      },
      {
        "deltaTime": 0,
        "channel": 2,
        "type": "channel",
        "noteNumber": 37,
        "velocity": 127,
        "subtype": "noteOn"
      },
      {
        "deltaTime": 40,
        "channel": 2,
        "type": "channel",
        "noteNumber": 37,
        "velocity": 0,
        "subtype": "noteOff"
      },
      {
        "deltaTime": 0,
        "channel": 2,
        "type": "channel",
        "noteNumber": 54,
        "velocity": 0,
        "subtype": "noteOff"
      },
      {
        "deltaTime": 0,
        "channel": 2,
        "type": "channel",
        "noteNumber": 49,
        "velocity": 0,
        "subtype": "noteOff"
      },
      {
        "deltaTime": 0,
        "channel": 2,
        "type": "channel",
        "noteNumber": 44,
        "velocity": 0,
        "subtype": "noteOff"
      },
      {
        "deltaTime": 200,
        "channel": 2,
        "type": "channel",
        "noteNumber": 67,
        "velocity": 127,
        "subtype": "noteOn"
      },
      {
        "deltaTime": 0,
        "channel": 2,
        "type": "channel",
        "noteNumber": 54,
        "velocity": 127,
        "subtype": "noteOn"
      },
      {
        "deltaTime": 0,
        "channel": 2,
        "type": "channel",
        "noteNumber": 60,
        "velocity": 127,
        "subtype": "noteOn"
      },
      {
        "deltaTime": 0,
        "channel": 2,
        "type": "channel",
        "noteNumber": 51,
        "velocity": 127,
        "subtype": "noteOn"
      },
      {
        "deltaTime": 0,
        "channel": 2,
        "type": "channel",
        "noteNumber": 44,
        "velocity": 127,
        "subtype": "noteOn"
      },
      {
        "deltaTime": 40,
        "channel": 2,
        "type": "channel",
        "noteNumber": 54,
        "velocity": 0,
        "subtype": "noteOff"
      },
      {
        "deltaTime": 680,
        "channel": 2,
        "type": "channel",
        "noteNumber": 51,
        "velocity": 0,
        "subtype": "noteOff"
      },
      {
        "deltaTime": 0,
        "channel": 2,
        "type": "channel",
        "noteNumber": 67,
        "velocity": 0,
        "subtype": "noteOff"
      },
      {
        "deltaTime": 0,
        "channel": 2,
        "type": "channel",
        "noteNumber": 60,
        "velocity": 0,
        "subtype": "noteOff"
      },
      {
        "deltaTime": 0,
        "channel": 2,
        "type": "channel",
        "noteNumber": 44,
        "velocity": 0,
        "subtype": "noteOff"
      },
      {
        "deltaTime": 0,
        "channel": 2,
        "type": "channel",
        "noteNumber": 67,
        "velocity": 127,
        "subtype": "noteOn"
      },
      {
        "deltaTime": 0,
        "channel": 2,
        "type": "channel",
        "noteNumber": 54,
        "velocity": 127,
        "subtype": "noteOn"
      },
      {
        "deltaTime": 0,
        "channel": 2,
        "type": "channel",
        "noteNumber": 60,
        "velocity": 127,
        "subtype": "noteOn"
      },
      {
        "deltaTime": 0,
        "channel": 2,
        "type": "channel",
        "noteNumber": 51,
        "velocity": 127,
        "subtype": "noteOn"
      },
      {
        "deltaTime": 0,
        "channel": 2,
        "type": "channel",
        "noteNumber": 44,
        "velocity": 127,
        "subtype": "noteOn"
      },
      {
        "deltaTime": 40,
        "channel": 2,
        "type": "channel",
        "noteNumber": 54,
        "velocity": 0,
        "subtype": "noteOff"
      },
      {
        "deltaTime": 680,
        "channel": 2,
        "type": "channel",
        "noteNumber": 51,
        "velocity": 0,
        "subtype": "noteOff"
      },
      {
        "deltaTime": 0,
        "channel": 2,
        "type": "channel",
        "noteNumber": 67,
        "velocity": 0,
        "subtype": "noteOff"
      },
      {
        "deltaTime": 0,
        "channel": 2,
        "type": "channel",
        "noteNumber": 60,
        "velocity": 0,
        "subtype": "noteOff"
      },
      {
        "deltaTime": 0,
        "channel": 2,
        "type": "channel",
        "noteNumber": 44,
        "velocity": 0,
        "subtype": "noteOff"
      },
      {
        "deltaTime": 0,
        "channel": 2,
        "type": "channel",
        "noteNumber": 67,
        "velocity": 127,
        "subtype": "noteOn"
      },
      {
        "deltaTime": 0,
        "channel": 2,
        "type": "channel",
        "noteNumber": 54,
        "velocity": 127,
        "subtype": "noteOn"
      },
      {
        "deltaTime": 0,
        "channel": 2,
        "type": "channel",
        "noteNumber": 60,
        "velocity": 127,
        "subtype": "noteOn"
      },
      {
        "deltaTime": 0,
        "channel": 2,
        "type": "channel",
        "noteNumber": 51,
        "velocity": 127,
        "subtype": "noteOn"
      },
      {
        "deltaTime": 0,
        "channel": 2,
        "type": "channel",
        "noteNumber": 44,
        "velocity": 127,
        "subtype": "noteOn"
      },
      {
        "deltaTime": 40,
        "channel": 2,
        "type": "channel",
        "noteNumber": 54,
        "velocity": 0,
        "subtype": "noteOff"
      },
      {
        "deltaTime": 440,
        "channel": 2,
        "type": "channel",
        "noteNumber": 51,
        "velocity": 0,
        "subtype": "noteOff"
      },
      {
        "deltaTime": 0,
        "channel": 2,
        "type": "channel",
        "noteNumber": 67,
        "velocity": 0,
        "subtype": "noteOff"
      },
      {
        "deltaTime": 0,
        "channel": 2,
        "type": "channel",
        "noteNumber": 60,
        "velocity": 0,
        "subtype": "noteOff"
      },
      {
        "deltaTime": 0,
        "channel": 2,
        "type": "channel",
        "noteNumber": 44,
        "velocity": 0,
        "subtype": "noteOff"
      },
      {
        "deltaTime": 0,
        "channel": 2,
        "type": "channel",
        "noteNumber": 54,
        "velocity": 127,
        "subtype": "noteOn"
      },
      {
        "deltaTime": 0,
        "channel": 2,
        "type": "channel",
        "noteNumber": 49,
        "velocity": 127,
        "subtype": "noteOn"
      },
      {
        "deltaTime": 0,
        "channel": 2,
        "type": "channel",
        "noteNumber": 44,
        "velocity": 127,
        "subtype": "noteOn"
      },
      {
        "deltaTime": 0,
        "channel": 2,
        "type": "channel",
        "noteNumber": 37,
        "velocity": 127,
        "subtype": "noteOn"
      },
      {
        "deltaTime": 40,
        "channel": 2,
        "type": "channel",
        "noteNumber": 37,
        "velocity": 0,
        "subtype": "noteOff"
      },
      {
        "deltaTime": 0,
        "channel": 2,
        "type": "channel",
        "noteNumber": 54,
        "velocity": 0,
        "subtype": "noteOff"
      },
      {
        "deltaTime": 0,
        "channel": 2,
        "type": "channel",
        "noteNumber": 49,
        "velocity": 0,
        "subtype": "noteOff"
      },
      {
        "deltaTime": 0,
        "channel": 2,
        "type": "channel",
        "noteNumber": 44,
        "velocity": 0,
        "subtype": "noteOff"
      },
      {
        "deltaTime": 200,
        "channel": 2,
        "type": "channel",
        "noteNumber": 54,
        "velocity": 127,
        "subtype": "noteOn"
      },
      {
        "deltaTime": 0,
        "channel": 2,
        "type": "channel",
        "noteNumber": 49,
        "velocity": 127,
        "subtype": "noteOn"
      },
      {
        "deltaTime": 0,
        "channel": 2,
        "type": "channel",
        "noteNumber": 44,
        "velocity": 127,
        "subtype": "noteOn"
      },
      {
        "deltaTime": 0,
        "channel": 2,
        "type": "channel",
        "noteNumber": 37,
        "velocity": 127,
        "subtype": "noteOn"
      },
      {
        "deltaTime": 40,
        "channel": 2,
        "type": "channel",
        "noteNumber": 37,
        "velocity": 0,
        "subtype": "noteOff"
      },
      {
        "deltaTime": 0,
        "channel": 2,
        "type": "channel",
        "noteNumber": 54,
        "velocity": 0,
        "subtype": "noteOff"
      },
      {
        "deltaTime": 0,
        "channel": 2,
        "type": "channel",
        "noteNumber": 49,
        "velocity": 0,
        "subtype": "noteOff"
      },
      {
        "deltaTime": 0,
        "channel": 2,
        "type": "channel",
        "noteNumber": 44,
        "velocity": 0,
        "subtype": "noteOff"
      },
      {
        "deltaTime": 200,
        "channel": 2,
        "type": "channel",
        "noteNumber": 54,
        "velocity": 127,
        "subtype": "noteOn"
      },
      {
        "deltaTime": 0,
        "channel": 2,
        "type": "channel",
        "noteNumber": 49,
        "velocity": 127,
        "subtype": "noteOn"
      },
      {
        "deltaTime": 0,
        "channel": 2,
        "type": "channel",
        "noteNumber": 44,
        "velocity": 127,
        "subtype": "noteOn"
      },
      {
        "deltaTime": 0,
        "channel": 2,
        "type": "channel",
        "noteNumber": 37,
        "velocity": 127,
        "subtype": "noteOn"
      },
      {
        "deltaTime": 40,
        "channel": 2,
        "type": "channel",
        "noteNumber": 37,
        "velocity": 0,
        "subtype": "noteOff"
      },
      {
        "deltaTime": 0,
        "channel": 2,
        "type": "channel",
        "noteNumber": 54,
        "velocity": 0,
        "subtype": "noteOff"
      },
      {
        "deltaTime": 0,
        "channel": 2,
        "type": "channel",
        "noteNumber": 49,
        "velocity": 0,
        "subtype": "noteOff"
      },
      {
        "deltaTime": 0,
        "channel": 2,
        "type": "channel",
        "noteNumber": 44,
        "velocity": 0,
        "subtype": "noteOff"
      },
      {
        "deltaTime": 200,
        "channel": 2,
        "type": "channel",
        "noteNumber": 54,
        "velocity": 127,
        "subtype": "noteOn"
      },
      {
        "deltaTime": 0,
        "channel": 2,
        "type": "channel",
        "noteNumber": 49,
        "velocity": 127,
        "subtype": "noteOn"
      },
      {
        "deltaTime": 0,
        "channel": 2,
        "type": "channel",
        "noteNumber": 44,
        "velocity": 127,
        "subtype": "noteOn"
      },
      {
        "deltaTime": 0,
        "channel": 2,
        "type": "channel",
        "noteNumber": 37,
        "velocity": 127,
        "subtype": "noteOn"
      },
      {
        "deltaTime": 40,
        "channel": 2,
        "type": "channel",
        "noteNumber": 37,
        "velocity": 0,
        "subtype": "noteOff"
      },
      {
        "deltaTime": 0,
        "channel": 2,
        "type": "channel",
        "noteNumber": 54,
        "velocity": 0,
        "subtype": "noteOff"
      },
      {
        "deltaTime": 0,
        "channel": 2,
        "type": "channel",
        "noteNumber": 49,
        "velocity": 0,
        "subtype": "noteOff"
      },
      {
        "deltaTime": 0,
        "channel": 2,
        "type": "channel",
        "noteNumber": 44,
        "velocity": 0,
        "subtype": "noteOff"
      },
      {
        "deltaTime": 200,
        "channel": 2,
        "type": "channel",
        "noteNumber": 70,
        "velocity": 127,
        "subtype": "noteOn"
      },
      {
        "deltaTime": 0,
        "channel": 2,
        "type": "channel",
        "noteNumber": 54,
        "velocity": 127,
        "subtype": "noteOn"
      },
      {
        "deltaTime": 0,
        "channel": 2,
        "type": "channel",
        "noteNumber": 62,
        "velocity": 127,
        "subtype": "noteOn"
      },
      {
        "deltaTime": 0,
        "channel": 2,
        "type": "channel",
        "noteNumber": 53,
        "velocity": 127,
        "subtype": "noteOn"
      },
      {
        "deltaTime": 0,
        "channel": 2,
        "type": "channel",
        "noteNumber": 46,
        "velocity": 127,
        "subtype": "noteOn"
      },
      {
        "deltaTime": 40,
        "channel": 2,
        "type": "channel",
        "noteNumber": 54,
        "velocity": 0,
        "subtype": "noteOff"
      },
      {
        "deltaTime": 680,
        "channel": 2,
        "type": "channel",
        "noteNumber": 53,
        "velocity": 0,
        "subtype": "noteOff"
      },
      {
        "deltaTime": 0,
        "channel": 2,
        "type": "channel",
        "noteNumber": 70,
        "velocity": 0,
        "subtype": "noteOff"
      },
      {
        "deltaTime": 0,
        "channel": 2,
        "type": "channel",
        "noteNumber": 62,
        "velocity": 0,
        "subtype": "noteOff"
      },
      {
        "deltaTime": 0,
        "channel": 2,
        "type": "channel",
        "noteNumber": 46,
        "velocity": 0,
        "subtype": "noteOff"
      },
      {
        "deltaTime": 0,
        "channel": 2,
        "type": "channel",
        "noteNumber": 70,
        "velocity": 127,
        "subtype": "noteOn"
      },
      {
        "deltaTime": 0,
        "channel": 2,
        "type": "channel",
        "noteNumber": 54,
        "velocity": 127,
        "subtype": "noteOn"
      },
      {
        "deltaTime": 0,
        "channel": 2,
        "type": "channel",
        "noteNumber": 62,
        "velocity": 127,
        "subtype": "noteOn"
      },
      {
        "deltaTime": 0,
        "channel": 2,
        "type": "channel",
        "noteNumber": 53,
        "velocity": 127,
        "subtype": "noteOn"
      },
      {
        "deltaTime": 0,
        "channel": 2,
        "type": "channel",
        "noteNumber": 46,
        "velocity": 127,
        "subtype": "noteOn"
      },
      {
        "deltaTime": 40,
        "channel": 2,
        "type": "channel",
        "noteNumber": 54,
        "velocity": 0,
        "subtype": "noteOff"
      },
      {
        "deltaTime": 680,
        "channel": 2,
        "type": "channel",
        "noteNumber": 53,
        "velocity": 0,
        "subtype": "noteOff"
      },
      {
        "deltaTime": 0,
        "channel": 2,
        "type": "channel",
        "noteNumber": 70,
        "velocity": 0,
        "subtype": "noteOff"
      },
      {
        "deltaTime": 0,
        "channel": 2,
        "type": "channel",
        "noteNumber": 62,
        "velocity": 0,
        "subtype": "noteOff"
      },
      {
        "deltaTime": 0,
        "channel": 2,
        "type": "channel",
        "noteNumber": 46,
        "velocity": 0,
        "subtype": "noteOff"
      },
      {
        "deltaTime": 0,
        "channel": 2,
        "type": "channel",
        "noteNumber": 70,
        "velocity": 127,
        "subtype": "noteOn"
      },
      {
        "deltaTime": 0,
        "channel": 2,
        "type": "channel",
        "noteNumber": 54,
        "velocity": 127,
        "subtype": "noteOn"
      },
      {
        "deltaTime": 0,
        "channel": 2,
        "type": "channel",
        "noteNumber": 62,
        "velocity": 127,
        "subtype": "noteOn"
      },
      {
        "deltaTime": 0,
        "channel": 2,
        "type": "channel",
        "noteNumber": 53,
        "velocity": 127,
        "subtype": "noteOn"
      },
      {
        "deltaTime": 0,
        "channel": 2,
        "type": "channel",
        "noteNumber": 46,
        "velocity": 127,
        "subtype": "noteOn"
      },
      {
        "deltaTime": 40,
        "channel": 2,
        "type": "channel",
        "noteNumber": 54,
        "velocity": 0,
        "subtype": "noteOff"
      },
      {
        "deltaTime": 440,
        "channel": 2,
        "type": "channel",
        "noteNumber": 53,
        "velocity": 0,
        "subtype": "noteOff"
      },
      {
        "deltaTime": 0,
        "channel": 2,
        "type": "channel",
        "noteNumber": 70,
        "velocity": 0,
        "subtype": "noteOff"
      },
      {
        "deltaTime": 0,
        "channel": 2,
        "type": "channel",
        "noteNumber": 62,
        "velocity": 0,
        "subtype": "noteOff"
      },
      {
        "deltaTime": 0,
        "channel": 2,
        "type": "channel",
        "noteNumber": 46,
        "velocity": 0,
        "subtype": "noteOff"
      },
      {
        "deltaTime": 0,
        "channel": 2,
        "type": "channel",
        "noteNumber": 54,
        "velocity": 127,
        "subtype": "noteOn"
      },
      {
        "deltaTime": 0,
        "channel": 2,
        "type": "channel",
        "noteNumber": 49,
        "velocity": 127,
        "subtype": "noteOn"
      },
      {
        "deltaTime": 0,
        "channel": 2,
        "type": "channel",
        "noteNumber": 44,
        "velocity": 127,
        "subtype": "noteOn"
      },
      {
        "deltaTime": 0,
        "channel": 2,
        "type": "channel",
        "noteNumber": 37,
        "velocity": 127,
        "subtype": "noteOn"
      },
      {
        "deltaTime": 40,
        "channel": 2,
        "type": "channel",
        "noteNumber": 37,
        "velocity": 0,
        "subtype": "noteOff"
      },
      {
        "deltaTime": 0,
        "channel": 2,
        "type": "channel",
        "noteNumber": 54,
        "velocity": 0,
        "subtype": "noteOff"
      },
      {
        "deltaTime": 0,
        "channel": 2,
        "type": "channel",
        "noteNumber": 49,
        "velocity": 0,
        "subtype": "noteOff"
      },
      {
        "deltaTime": 0,
        "channel": 2,
        "type": "channel",
        "noteNumber": 44,
        "velocity": 0,
        "subtype": "noteOff"
      },
      {
        "deltaTime": 200,
        "channel": 2,
        "type": "channel",
        "noteNumber": 54,
        "velocity": 127,
        "subtype": "noteOn"
      },
      {
        "deltaTime": 0,
        "channel": 2,
        "type": "channel",
        "noteNumber": 49,
        "velocity": 127,
        "subtype": "noteOn"
      },
      {
        "deltaTime": 0,
        "channel": 2,
        "type": "channel",
        "noteNumber": 44,
        "velocity": 127,
        "subtype": "noteOn"
      },
      {
        "deltaTime": 0,
        "channel": 2,
        "type": "channel",
        "noteNumber": 37,
        "velocity": 127,
        "subtype": "noteOn"
      },
      {
        "deltaTime": 40,
        "channel": 2,
        "type": "channel",
        "noteNumber": 37,
        "velocity": 0,
        "subtype": "noteOff"
      },
      {
        "deltaTime": 0,
        "channel": 2,
        "type": "channel",
        "noteNumber": 54,
        "velocity": 0,
        "subtype": "noteOff"
      },
      {
        "deltaTime": 0,
        "channel": 2,
        "type": "channel",
        "noteNumber": 49,
        "velocity": 0,
        "subtype": "noteOff"
      },
      {
        "deltaTime": 0,
        "channel": 2,
        "type": "channel",
        "noteNumber": 44,
        "velocity": 0,
        "subtype": "noteOff"
      },
      {
        "deltaTime": 200,
        "channel": 2,
        "type": "channel",
        "noteNumber": 54,
        "velocity": 127,
        "subtype": "noteOn"
      },
      {
        "deltaTime": 0,
        "channel": 2,
        "type": "channel",
        "noteNumber": 49,
        "velocity": 127,
        "subtype": "noteOn"
      },
      {
        "deltaTime": 0,
        "channel": 2,
        "type": "channel",
        "noteNumber": 44,
        "velocity": 127,
        "subtype": "noteOn"
      },
      {
        "deltaTime": 0,
        "channel": 2,
        "type": "channel",
        "noteNumber": 37,
        "velocity": 127,
        "subtype": "noteOn"
      },
      {
        "deltaTime": 40,
        "channel": 2,
        "type": "channel",
        "noteNumber": 37,
        "velocity": 0,
        "subtype": "noteOff"
      },
      {
        "deltaTime": 0,
        "channel": 2,
        "type": "channel",
        "noteNumber": 54,
        "velocity": 0,
        "subtype": "noteOff"
      },
      {
        "deltaTime": 0,
        "channel": 2,
        "type": "channel",
        "noteNumber": 49,
        "velocity": 0,
        "subtype": "noteOff"
      },
      {
        "deltaTime": 0,
        "channel": 2,
        "type": "channel",
        "noteNumber": 44,
        "velocity": 0,
        "subtype": "noteOff"
      },
      {
        "deltaTime": 200,
        "channel": 2,
        "type": "channel",
        "noteNumber": 54,
        "velocity": 127,
        "subtype": "noteOn"
      },
      {
        "deltaTime": 0,
        "channel": 2,
        "type": "channel",
        "noteNumber": 49,
        "velocity": 127,
        "subtype": "noteOn"
      },
      {
        "deltaTime": 0,
        "channel": 2,
        "type": "channel",
        "noteNumber": 44,
        "velocity": 127,
        "subtype": "noteOn"
      },
      {
        "deltaTime": 0,
        "channel": 2,
        "type": "channel",
        "noteNumber": 37,
        "velocity": 127,
        "subtype": "noteOn"
      },
      {
        "deltaTime": 40,
        "channel": 2,
        "type": "channel",
        "noteNumber": 37,
        "velocity": 0,
        "subtype": "noteOff"
      },
      {
        "deltaTime": 0,
        "channel": 2,
        "type": "channel",
        "noteNumber": 54,
        "velocity": 0,
        "subtype": "noteOff"
      },
      {
        "deltaTime": 0,
        "channel": 2,
        "type": "channel",
        "noteNumber": 49,
        "velocity": 0,
        "subtype": "noteOff"
      },
      {
        "deltaTime": 0,
        "channel": 2,
        "type": "channel",
        "noteNumber": 44,
        "velocity": 0,
        "subtype": "noteOff"
      },
      {
        "deltaTime": 200,
        "channel": 2,
        "type": "channel",
        "noteNumber": 70,
        "velocity": 127,
        "subtype": "noteOn"
      },
      {
        "deltaTime": 0,
        "channel": 2,
        "type": "channel",
        "noteNumber": 67,
        "velocity": 127,
        "subtype": "noteOn"
      },
      {
        "deltaTime": 0,
        "channel": 2,
        "type": "channel",
        "noteNumber": 63,
        "velocity": 127,
        "subtype": "noteOn"
      },
      {
        "deltaTime": 0,
        "channel": 2,
        "type": "channel",
        "noteNumber": 55,
        "velocity": 127,
        "subtype": "noteOn"
      },
      {
        "deltaTime": 0,
        "channel": 2,
        "type": "channel",
        "noteNumber": 48,
        "velocity": 127,
        "subtype": "noteOn"
      },
      {
        "deltaTime": 720,
        "channel": 2,
        "type": "channel",
        "noteNumber": 48,
        "velocity": 0,
        "subtype": "noteOff"
      },
      {
        "deltaTime": 0,
        "channel": 2,
        "type": "channel",
        "noteNumber": 63,
        "velocity": 0,
        "subtype": "noteOff"
      },
      {
        "deltaTime": 0,
        "channel": 2,
        "type": "channel",
        "noteNumber": 70,
        "velocity": 0,
        "subtype": "noteOff"
      },
      {
        "deltaTime": 0,
        "channel": 2,
        "type": "channel",
        "noteNumber": 67,
        "velocity": 0,
        "subtype": "noteOff"
      },
      {
        "deltaTime": 0,
        "channel": 2,
        "type": "channel",
        "noteNumber": 55,
        "velocity": 0,
        "subtype": "noteOff"
      },
      {
        "deltaTime": 0,
        "channel": 2,
        "type": "channel",
        "noteNumber": 70,
        "velocity": 127,
        "subtype": "noteOn"
      },
      {
        "deltaTime": 0,
        "channel": 2,
        "type": "channel",
        "noteNumber": 67,
        "velocity": 127,
        "subtype": "noteOn"
      },
      {
        "deltaTime": 0,
        "channel": 2,
        "type": "channel",
        "noteNumber": 63,
        "velocity": 127,
        "subtype": "noteOn"
      },
      {
        "deltaTime": 0,
        "channel": 2,
        "type": "channel",
        "noteNumber": 55,
        "velocity": 127,
        "subtype": "noteOn"
      },
      {
        "deltaTime": 0,
        "channel": 2,
        "type": "channel",
        "noteNumber": 48,
        "velocity": 127,
        "subtype": "noteOn"
      },
      {
        "deltaTime": 720,
        "channel": 2,
        "type": "channel",
        "noteNumber": 48,
        "velocity": 0,
        "subtype": "noteOff"
      },
      {
        "deltaTime": 0,
        "channel": 2,
        "type": "channel",
        "noteNumber": 63,
        "velocity": 0,
        "subtype": "noteOff"
      },
      {
        "deltaTime": 0,
        "channel": 2,
        "type": "channel",
        "noteNumber": 70,
        "velocity": 0,
        "subtype": "noteOff"
      },
      {
        "deltaTime": 0,
        "channel": 2,
        "type": "channel",
        "noteNumber": 67,
        "velocity": 0,
        "subtype": "noteOff"
      },
      {
        "deltaTime": 0,
        "channel": 2,
        "type": "channel",
        "noteNumber": 55,
        "velocity": 0,
        "subtype": "noteOff"
      },
      {
        "deltaTime": 0,
        "channel": 2,
        "type": "channel",
        "noteNumber": 70,
        "velocity": 127,
        "subtype": "noteOn"
      },
      {
        "deltaTime": 0,
        "channel": 2,
        "type": "channel",
        "noteNumber": 67,
        "velocity": 127,
        "subtype": "noteOn"
      },
      {
        "deltaTime": 0,
        "channel": 2,
        "type": "channel",
        "noteNumber": 63,
        "velocity": 127,
        "subtype": "noteOn"
      },
      {
        "deltaTime": 0,
        "channel": 2,
        "type": "channel",
        "noteNumber": 55,
        "velocity": 127,
        "subtype": "noteOn"
      },
      {
        "deltaTime": 0,
        "channel": 2,
        "type": "channel",
        "noteNumber": 48,
        "velocity": 127,
        "subtype": "noteOn"
      },
      {
        "deltaTime": 480,
        "channel": 2,
        "type": "channel",
        "noteNumber": 48,
        "velocity": 0,
        "subtype": "noteOff"
      },
      {
        "deltaTime": 0,
        "channel": 2,
        "type": "channel",
        "noteNumber": 63,
        "velocity": 0,
        "subtype": "noteOff"
      },
      {
        "deltaTime": 0,
        "channel": 2,
        "type": "channel",
        "noteNumber": 70,
        "velocity": 0,
        "subtype": "noteOff"
      },
      {
        "deltaTime": 0,
        "channel": 2,
        "type": "channel",
        "noteNumber": 67,
        "velocity": 0,
        "subtype": "noteOff"
      },
      {
        "deltaTime": 0,
        "channel": 2,
        "type": "channel",
        "noteNumber": 55,
        "velocity": 0,
        "subtype": "noteOff"
      },
      {
        "deltaTime": 0,
        "channel": 2,
        "type": "channel",
        "noteNumber": 65,
        "velocity": 127,
        "subtype": "noteOn"
      },
      {
        "deltaTime": 0,
        "channel": 2,
        "type": "channel",
        "noteNumber": 54,
        "velocity": 127,
        "subtype": "noteOn"
      },
      {
        "deltaTime": 0,
        "channel": 2,
        "type": "channel",
        "noteNumber": 58,
        "velocity": 127,
        "subtype": "noteOn"
      },
      {
        "deltaTime": 0,
        "channel": 2,
        "type": "channel",
        "noteNumber": 50,
        "velocity": 127,
        "subtype": "noteOn"
      },
      {
        "deltaTime": 0,
        "channel": 2,
        "type": "channel",
        "noteNumber": 43,
        "velocity": 127,
        "subtype": "noteOn"
      },
      {
        "deltaTime": 40,
        "channel": 2,
        "type": "channel",
        "noteNumber": 54,
        "velocity": 0,
        "subtype": "noteOff"
      },
      {
        "deltaTime": 920,
        "channel": 2,
        "type": "channel",
        "noteNumber": 50,
        "velocity": 0,
        "subtype": "noteOff"
      },
      {
        "deltaTime": 0,
        "channel": 2,
        "type": "channel",
        "noteNumber": 65,
        "velocity": 0,
        "subtype": "noteOff"
      },
      {
        "deltaTime": 0,
        "channel": 2,
        "type": "channel",
        "noteNumber": 58,
        "velocity": 0,
        "subtype": "noteOff"
      },
      {
        "deltaTime": 0,
        "channel": 2,
        "type": "channel",
        "noteNumber": 43,
        "velocity": 0,
        "subtype": "noteOff"
      },
      {
        "deltaTime": 0,
        "channel": 2,
        "type": "channel",
        "noteNumber": 67,
        "velocity": 127,
        "subtype": "noteOn"
      },
      {
        "deltaTime": 0,
        "channel": 2,
        "type": "channel",
        "noteNumber": 54,
        "velocity": 127,
        "subtype": "noteOn"
      },
      {
        "deltaTime": 0,
        "channel": 2,
        "type": "channel",
        "noteNumber": 60,
        "velocity": 127,
        "subtype": "noteOn"
      },
      {
        "deltaTime": 0,
        "channel": 2,
        "type": "channel",
        "noteNumber": 51,
        "velocity": 127,
        "subtype": "noteOn"
      },
      {
        "deltaTime": 0,
        "channel": 2,
        "type": "channel",
        "noteNumber": 44,
        "velocity": 127,
        "subtype": "noteOn"
      },
      {
        "deltaTime": 40,
        "channel": 2,
        "type": "channel",
        "noteNumber": 54,
        "velocity": 0,
        "subtype": "noteOff"
      },
      {
        "deltaTime": 680,
        "channel": 2,
        "type": "channel",
        "noteNumber": 51,
        "velocity": 0,
        "subtype": "noteOff"
      },
      {
        "deltaTime": 0,
        "channel": 2,
        "type": "channel",
        "noteNumber": 67,
        "velocity": 0,
        "subtype": "noteOff"
      },
      {
        "deltaTime": 0,
        "channel": 2,
        "type": "channel",
        "noteNumber": 60,
        "velocity": 0,
        "subtype": "noteOff"
      },
      {
        "deltaTime": 0,
        "channel": 2,
        "type": "channel",
        "noteNumber": 44,
        "velocity": 0,
        "subtype": "noteOff"
      },
      {
        "deltaTime": 0,
        "channel": 2,
        "type": "channel",
        "noteNumber": 67,
        "velocity": 127,
        "subtype": "noteOn"
      },
      {
        "deltaTime": 0,
        "channel": 2,
        "type": "channel",
        "noteNumber": 54,
        "velocity": 127,
        "subtype": "noteOn"
      },
      {
        "deltaTime": 0,
        "channel": 2,
        "type": "channel",
        "noteNumber": 60,
        "velocity": 127,
        "subtype": "noteOn"
      },
      {
        "deltaTime": 0,
        "channel": 2,
        "type": "channel",
        "noteNumber": 51,
        "velocity": 127,
        "subtype": "noteOn"
      },
      {
        "deltaTime": 0,
        "channel": 2,
        "type": "channel",
        "noteNumber": 44,
        "velocity": 127,
        "subtype": "noteOn"
      },
      {
        "deltaTime": 40,
        "channel": 2,
        "type": "channel",
        "noteNumber": 54,
        "velocity": 0,
        "subtype": "noteOff"
      },
      {
        "deltaTime": 680,
        "channel": 2,
        "type": "channel",
        "noteNumber": 51,
        "velocity": 0,
        "subtype": "noteOff"
      },
      {
        "deltaTime": 0,
        "channel": 2,
        "type": "channel",
        "noteNumber": 67,
        "velocity": 0,
        "subtype": "noteOff"
      },
      {
        "deltaTime": 0,
        "channel": 2,
        "type": "channel",
        "noteNumber": 60,
        "velocity": 0,
        "subtype": "noteOff"
      },
      {
        "deltaTime": 0,
        "channel": 2,
        "type": "channel",
        "noteNumber": 44,
        "velocity": 0,
        "subtype": "noteOff"
      },
      {
        "deltaTime": 0,
        "channel": 2,
        "type": "channel",
        "noteNumber": 67,
        "velocity": 127,
        "subtype": "noteOn"
      },
      {
        "deltaTime": 0,
        "channel": 2,
        "type": "channel",
        "noteNumber": 54,
        "velocity": 127,
        "subtype": "noteOn"
      },
      {
        "deltaTime": 0,
        "channel": 2,
        "type": "channel",
        "noteNumber": 60,
        "velocity": 127,
        "subtype": "noteOn"
      },
      {
        "deltaTime": 0,
        "channel": 2,
        "type": "channel",
        "noteNumber": 51,
        "velocity": 127,
        "subtype": "noteOn"
      },
      {
        "deltaTime": 0,
        "channel": 2,
        "type": "channel",
        "noteNumber": 44,
        "velocity": 127,
        "subtype": "noteOn"
      },
      {
        "deltaTime": 40,
        "channel": 2,
        "type": "channel",
        "noteNumber": 54,
        "velocity": 0,
        "subtype": "noteOff"
      },
      {
        "deltaTime": 440,
        "channel": 2,
        "type": "channel",
        "noteNumber": 51,
        "velocity": 0,
        "subtype": "noteOff"
      },
      {
        "deltaTime": 0,
        "channel": 2,
        "type": "channel",
        "noteNumber": 67,
        "velocity": 0,
        "subtype": "noteOff"
      },
      {
        "deltaTime": 0,
        "channel": 2,
        "type": "channel",
        "noteNumber": 60,
        "velocity": 0,
        "subtype": "noteOff"
      },
      {
        "deltaTime": 0,
        "channel": 2,
        "type": "channel",
        "noteNumber": 44,
        "velocity": 0,
        "subtype": "noteOff"
      },
      {
        "deltaTime": 0,
        "channel": 2,
        "type": "channel",
        "noteNumber": 54,
        "velocity": 127,
        "subtype": "noteOn"
      },
      {
        "deltaTime": 0,
        "channel": 2,
        "type": "channel",
        "noteNumber": 49,
        "velocity": 127,
        "subtype": "noteOn"
      },
      {
        "deltaTime": 0,
        "channel": 2,
        "type": "channel",
        "noteNumber": 44,
        "velocity": 127,
        "subtype": "noteOn"
      },
      {
        "deltaTime": 0,
        "channel": 2,
        "type": "channel",
        "noteNumber": 37,
        "velocity": 127,
        "subtype": "noteOn"
      },
      {
        "deltaTime": 40,
        "channel": 2,
        "type": "channel",
        "noteNumber": 37,
        "velocity": 0,
        "subtype": "noteOff"
      },
      {
        "deltaTime": 0,
        "channel": 2,
        "type": "channel",
        "noteNumber": 54,
        "velocity": 0,
        "subtype": "noteOff"
      },
      {
        "deltaTime": 0,
        "channel": 2,
        "type": "channel",
        "noteNumber": 49,
        "velocity": 0,
        "subtype": "noteOff"
      },
      {
        "deltaTime": 0,
        "channel": 2,
        "type": "channel",
        "noteNumber": 44,
        "velocity": 0,
        "subtype": "noteOff"
      },
      {
        "deltaTime": 200,
        "channel": 2,
        "type": "channel",
        "noteNumber": 54,
        "velocity": 127,
        "subtype": "noteOn"
      },
      {
        "deltaTime": 0,
        "channel": 2,
        "type": "channel",
        "noteNumber": 49,
        "velocity": 127,
        "subtype": "noteOn"
      },
      {
        "deltaTime": 0,
        "channel": 2,
        "type": "channel",
        "noteNumber": 44,
        "velocity": 127,
        "subtype": "noteOn"
      },
      {
        "deltaTime": 0,
        "channel": 2,
        "type": "channel",
        "noteNumber": 37,
        "velocity": 127,
        "subtype": "noteOn"
      },
      {
        "deltaTime": 40,
        "channel": 2,
        "type": "channel",
        "noteNumber": 37,
        "velocity": 0,
        "subtype": "noteOff"
      },
      {
        "deltaTime": 0,
        "channel": 2,
        "type": "channel",
        "noteNumber": 54,
        "velocity": 0,
        "subtype": "noteOff"
      },
      {
        "deltaTime": 0,
        "channel": 2,
        "type": "channel",
        "noteNumber": 49,
        "velocity": 0,
        "subtype": "noteOff"
      },
      {
        "deltaTime": 0,
        "channel": 2,
        "type": "channel",
        "noteNumber": 44,
        "velocity": 0,
        "subtype": "noteOff"
      },
      {
        "deltaTime": 200,
        "channel": 2,
        "type": "channel",
        "noteNumber": 54,
        "velocity": 127,
        "subtype": "noteOn"
      },
      {
        "deltaTime": 0,
        "channel": 2,
        "type": "channel",
        "noteNumber": 49,
        "velocity": 127,
        "subtype": "noteOn"
      },
      {
        "deltaTime": 0,
        "channel": 2,
        "type": "channel",
        "noteNumber": 44,
        "velocity": 127,
        "subtype": "noteOn"
      },
      {
        "deltaTime": 0,
        "channel": 2,
        "type": "channel",
        "noteNumber": 37,
        "velocity": 127,
        "subtype": "noteOn"
      },
      {
        "deltaTime": 40,
        "channel": 2,
        "type": "channel",
        "noteNumber": 37,
        "velocity": 0,
        "subtype": "noteOff"
      },
      {
        "deltaTime": 0,
        "channel": 2,
        "type": "channel",
        "noteNumber": 54,
        "velocity": 0,
        "subtype": "noteOff"
      },
      {
        "deltaTime": 0,
        "channel": 2,
        "type": "channel",
        "noteNumber": 49,
        "velocity": 0,
        "subtype": "noteOff"
      },
      {
        "deltaTime": 0,
        "channel": 2,
        "type": "channel",
        "noteNumber": 44,
        "velocity": 0,
        "subtype": "noteOff"
      },
      {
        "deltaTime": 200,
        "channel": 2,
        "type": "channel",
        "noteNumber": 54,
        "velocity": 127,
        "subtype": "noteOn"
      },
      {
        "deltaTime": 0,
        "channel": 2,
        "type": "channel",
        "noteNumber": 49,
        "velocity": 127,
        "subtype": "noteOn"
      },
      {
        "deltaTime": 0,
        "channel": 2,
        "type": "channel",
        "noteNumber": 44,
        "velocity": 127,
        "subtype": "noteOn"
      },
      {
        "deltaTime": 0,
        "channel": 2,
        "type": "channel",
        "noteNumber": 37,
        "velocity": 127,
        "subtype": "noteOn"
      },
      {
        "deltaTime": 40,
        "channel": 2,
        "type": "channel",
        "noteNumber": 37,
        "velocity": 0,
        "subtype": "noteOff"
      },
      {
        "deltaTime": 0,
        "channel": 2,
        "type": "channel",
        "noteNumber": 54,
        "velocity": 0,
        "subtype": "noteOff"
      },
      {
        "deltaTime": 0,
        "channel": 2,
        "type": "channel",
        "noteNumber": 49,
        "velocity": 0,
        "subtype": "noteOff"
      },
      {
        "deltaTime": 0,
        "channel": 2,
        "type": "channel",
        "noteNumber": 44,
        "velocity": 0,
        "subtype": "noteOff"
      },
      {
        "deltaTime": 200,
        "channel": 2,
        "type": "channel",
        "noteNumber": 67,
        "velocity": 127,
        "subtype": "noteOn"
      },
      {
        "deltaTime": 0,
        "channel": 2,
        "type": "channel",
        "noteNumber": 54,
        "velocity": 127,
        "subtype": "noteOn"
      },
      {
        "deltaTime": 0,
        "channel": 2,
        "type": "channel",
        "noteNumber": 60,
        "velocity": 127,
        "subtype": "noteOn"
      },
      {
        "deltaTime": 0,
        "channel": 2,
        "type": "channel",
        "noteNumber": 51,
        "velocity": 127,
        "subtype": "noteOn"
      },
      {
        "deltaTime": 0,
        "channel": 2,
        "type": "channel",
        "noteNumber": 44,
        "velocity": 127,
        "subtype": "noteOn"
      },
      {
        "deltaTime": 40,
        "channel": 2,
        "type": "channel",
        "noteNumber": 54,
        "velocity": 0,
        "subtype": "noteOff"
      },
      {
        "deltaTime": 680,
        "channel": 2,
        "type": "channel",
        "noteNumber": 51,
        "velocity": 0,
        "subtype": "noteOff"
      },
      {
        "deltaTime": 0,
        "channel": 2,
        "type": "channel",
        "noteNumber": 67,
        "velocity": 0,
        "subtype": "noteOff"
      },
      {
        "deltaTime": 0,
        "channel": 2,
        "type": "channel",
        "noteNumber": 60,
        "velocity": 0,
        "subtype": "noteOff"
      },
      {
        "deltaTime": 0,
        "channel": 2,
        "type": "channel",
        "noteNumber": 44,
        "velocity": 0,
        "subtype": "noteOff"
      },
      {
        "deltaTime": 0,
        "channel": 2,
        "type": "channel",
        "noteNumber": 67,
        "velocity": 127,
        "subtype": "noteOn"
      },
      {
        "deltaTime": 0,
        "channel": 2,
        "type": "channel",
        "noteNumber": 54,
        "velocity": 127,
        "subtype": "noteOn"
      },
      {
        "deltaTime": 0,
        "channel": 2,
        "type": "channel",
        "noteNumber": 60,
        "velocity": 127,
        "subtype": "noteOn"
      },
      {
        "deltaTime": 0,
        "channel": 2,
        "type": "channel",
        "noteNumber": 51,
        "velocity": 127,
        "subtype": "noteOn"
      },
      {
        "deltaTime": 0,
        "channel": 2,
        "type": "channel",
        "noteNumber": 44,
        "velocity": 127,
        "subtype": "noteOn"
      },
      {
        "deltaTime": 40,
        "channel": 2,
        "type": "channel",
        "noteNumber": 54,
        "velocity": 0,
        "subtype": "noteOff"
      },
      {
        "deltaTime": 680,
        "channel": 2,
        "type": "channel",
        "noteNumber": 51,
        "velocity": 0,
        "subtype": "noteOff"
      },
      {
        "deltaTime": 0,
        "channel": 2,
        "type": "channel",
        "noteNumber": 67,
        "velocity": 0,
        "subtype": "noteOff"
      },
      {
        "deltaTime": 0,
        "channel": 2,
        "type": "channel",
        "noteNumber": 60,
        "velocity": 0,
        "subtype": "noteOff"
      },
      {
        "deltaTime": 0,
        "channel": 2,
        "type": "channel",
        "noteNumber": 44,
        "velocity": 0,
        "subtype": "noteOff"
      },
      {
        "deltaTime": 0,
        "channel": 2,
        "type": "channel",
        "noteNumber": 67,
        "velocity": 127,
        "subtype": "noteOn"
      },
      {
        "deltaTime": 0,
        "channel": 2,
        "type": "channel",
        "noteNumber": 54,
        "velocity": 127,
        "subtype": "noteOn"
      },
      {
        "deltaTime": 0,
        "channel": 2,
        "type": "channel",
        "noteNumber": 60,
        "velocity": 127,
        "subtype": "noteOn"
      },
      {
        "deltaTime": 0,
        "channel": 2,
        "type": "channel",
        "noteNumber": 51,
        "velocity": 127,
        "subtype": "noteOn"
      },
      {
        "deltaTime": 0,
        "channel": 2,
        "type": "channel",
        "noteNumber": 44,
        "velocity": 127,
        "subtype": "noteOn"
      },
      {
        "deltaTime": 40,
        "channel": 2,
        "type": "channel",
        "noteNumber": 54,
        "velocity": 0,
        "subtype": "noteOff"
      },
      {
        "deltaTime": 440,
        "channel": 2,
        "type": "channel",
        "noteNumber": 51,
        "velocity": 0,
        "subtype": "noteOff"
      },
      {
        "deltaTime": 0,
        "channel": 2,
        "type": "channel",
        "noteNumber": 67,
        "velocity": 0,
        "subtype": "noteOff"
      },
      {
        "deltaTime": 0,
        "channel": 2,
        "type": "channel",
        "noteNumber": 60,
        "velocity": 0,
        "subtype": "noteOff"
      },
      {
        "deltaTime": 0,
        "channel": 2,
        "type": "channel",
        "noteNumber": 44,
        "velocity": 0,
        "subtype": "noteOff"
      },
      {
        "deltaTime": 0,
        "channel": 2,
        "type": "channel",
        "noteNumber": 54,
        "velocity": 127,
        "subtype": "noteOn"
      },
      {
        "deltaTime": 0,
        "channel": 2,
        "type": "channel",
        "noteNumber": 49,
        "velocity": 127,
        "subtype": "noteOn"
      },
      {
        "deltaTime": 0,
        "channel": 2,
        "type": "channel",
        "noteNumber": 44,
        "velocity": 127,
        "subtype": "noteOn"
      },
      {
        "deltaTime": 0,
        "channel": 2,
        "type": "channel",
        "noteNumber": 37,
        "velocity": 127,
        "subtype": "noteOn"
      },
      {
        "deltaTime": 40,
        "channel": 2,
        "type": "channel",
        "noteNumber": 37,
        "velocity": 0,
        "subtype": "noteOff"
      },
      {
        "deltaTime": 0,
        "channel": 2,
        "type": "channel",
        "noteNumber": 54,
        "velocity": 0,
        "subtype": "noteOff"
      },
      {
        "deltaTime": 0,
        "channel": 2,
        "type": "channel",
        "noteNumber": 49,
        "velocity": 0,
        "subtype": "noteOff"
      },
      {
        "deltaTime": 0,
        "channel": 2,
        "type": "channel",
        "noteNumber": 44,
        "velocity": 0,
        "subtype": "noteOff"
      },
      {
        "deltaTime": 200,
        "channel": 2,
        "type": "channel",
        "noteNumber": 54,
        "velocity": 127,
        "subtype": "noteOn"
      },
      {
        "deltaTime": 0,
        "channel": 2,
        "type": "channel",
        "noteNumber": 49,
        "velocity": 127,
        "subtype": "noteOn"
      },
      {
        "deltaTime": 0,
        "channel": 2,
        "type": "channel",
        "noteNumber": 44,
        "velocity": 127,
        "subtype": "noteOn"
      },
      {
        "deltaTime": 0,
        "channel": 2,
        "type": "channel",
        "noteNumber": 37,
        "velocity": 127,
        "subtype": "noteOn"
      },
      {
        "deltaTime": 40,
        "channel": 2,
        "type": "channel",
        "noteNumber": 37,
        "velocity": 0,
        "subtype": "noteOff"
      },
      {
        "deltaTime": 0,
        "channel": 2,
        "type": "channel",
        "noteNumber": 54,
        "velocity": 0,
        "subtype": "noteOff"
      },
      {
        "deltaTime": 0,
        "channel": 2,
        "type": "channel",
        "noteNumber": 49,
        "velocity": 0,
        "subtype": "noteOff"
      },
      {
        "deltaTime": 0,
        "channel": 2,
        "type": "channel",
        "noteNumber": 44,
        "velocity": 0,
        "subtype": "noteOff"
      },
      {
        "deltaTime": 200,
        "channel": 2,
        "type": "channel",
        "noteNumber": 54,
        "velocity": 127,
        "subtype": "noteOn"
      },
      {
        "deltaTime": 0,
        "channel": 2,
        "type": "channel",
        "noteNumber": 49,
        "velocity": 127,
        "subtype": "noteOn"
      },
      {
        "deltaTime": 0,
        "channel": 2,
        "type": "channel",
        "noteNumber": 44,
        "velocity": 127,
        "subtype": "noteOn"
      },
      {
        "deltaTime": 0,
        "channel": 2,
        "type": "channel",
        "noteNumber": 37,
        "velocity": 127,
        "subtype": "noteOn"
      },
      {
        "deltaTime": 40,
        "channel": 2,
        "type": "channel",
        "noteNumber": 37,
        "velocity": 0,
        "subtype": "noteOff"
      },
      {
        "deltaTime": 0,
        "channel": 2,
        "type": "channel",
        "noteNumber": 54,
        "velocity": 0,
        "subtype": "noteOff"
      },
      {
        "deltaTime": 0,
        "channel": 2,
        "type": "channel",
        "noteNumber": 49,
        "velocity": 0,
        "subtype": "noteOff"
      },
      {
        "deltaTime": 0,
        "channel": 2,
        "type": "channel",
        "noteNumber": 44,
        "velocity": 0,
        "subtype": "noteOff"
      },
      {
        "deltaTime": 200,
        "channel": 2,
        "type": "channel",
        "noteNumber": 54,
        "velocity": 127,
        "subtype": "noteOn"
      },
      {
        "deltaTime": 0,
        "channel": 2,
        "type": "channel",
        "noteNumber": 49,
        "velocity": 127,
        "subtype": "noteOn"
      },
      {
        "deltaTime": 0,
        "channel": 2,
        "type": "channel",
        "noteNumber": 44,
        "velocity": 127,
        "subtype": "noteOn"
      },
      {
        "deltaTime": 0,
        "channel": 2,
        "type": "channel",
        "noteNumber": 37,
        "velocity": 127,
        "subtype": "noteOn"
      },
      {
        "deltaTime": 40,
        "channel": 2,
        "type": "channel",
        "noteNumber": 37,
        "velocity": 0,
        "subtype": "noteOff"
      },
      {
        "deltaTime": 0,
        "channel": 2,
        "type": "channel",
        "noteNumber": 54,
        "velocity": 0,
        "subtype": "noteOff"
      },
      {
        "deltaTime": 0,
        "channel": 2,
        "type": "channel",
        "noteNumber": 49,
        "velocity": 0,
        "subtype": "noteOff"
      },
      {
        "deltaTime": 0,
        "channel": 2,
        "type": "channel",
        "noteNumber": 44,
        "velocity": 0,
        "subtype": "noteOff"
      },
      {
        "deltaTime": 200,
        "channel": 2,
        "type": "channel",
        "noteNumber": 70,
        "velocity": 127,
        "subtype": "noteOn"
      },
      {
        "deltaTime": 0,
        "channel": 2,
        "type": "channel",
        "noteNumber": 54,
        "velocity": 127,
        "subtype": "noteOn"
      },
      {
        "deltaTime": 0,
        "channel": 2,
        "type": "channel",
        "noteNumber": 62,
        "velocity": 127,
        "subtype": "noteOn"
      },
      {
        "deltaTime": 0,
        "channel": 2,
        "type": "channel",
        "noteNumber": 53,
        "velocity": 127,
        "subtype": "noteOn"
      },
      {
        "deltaTime": 0,
        "channel": 2,
        "type": "channel",
        "noteNumber": 46,
        "velocity": 127,
        "subtype": "noteOn"
      },
      {
        "deltaTime": 40,
        "channel": 2,
        "type": "channel",
        "noteNumber": 54,
        "velocity": 0,
        "subtype": "noteOff"
      },
      {
        "deltaTime": 680,
        "channel": 2,
        "type": "channel",
        "noteNumber": 53,
        "velocity": 0,
        "subtype": "noteOff"
      },
      {
        "deltaTime": 0,
        "channel": 2,
        "type": "channel",
        "noteNumber": 70,
        "velocity": 0,
        "subtype": "noteOff"
      },
      {
        "deltaTime": 0,
        "channel": 2,
        "type": "channel",
        "noteNumber": 62,
        "velocity": 0,
        "subtype": "noteOff"
      },
      {
        "deltaTime": 0,
        "channel": 2,
        "type": "channel",
        "noteNumber": 46,
        "velocity": 0,
        "subtype": "noteOff"
      },
      {
        "deltaTime": 0,
        "channel": 2,
        "type": "channel",
        "noteNumber": 70,
        "velocity": 127,
        "subtype": "noteOn"
      },
      {
        "deltaTime": 0,
        "channel": 2,
        "type": "channel",
        "noteNumber": 54,
        "velocity": 127,
        "subtype": "noteOn"
      },
      {
        "deltaTime": 0,
        "channel": 2,
        "type": "channel",
        "noteNumber": 62,
        "velocity": 127,
        "subtype": "noteOn"
      },
      {
        "deltaTime": 0,
        "channel": 2,
        "type": "channel",
        "noteNumber": 53,
        "velocity": 127,
        "subtype": "noteOn"
      },
      {
        "deltaTime": 0,
        "channel": 2,
        "type": "channel",
        "noteNumber": 46,
        "velocity": 127,
        "subtype": "noteOn"
      },
      {
        "deltaTime": 40,
        "channel": 2,
        "type": "channel",
        "noteNumber": 54,
        "velocity": 0,
        "subtype": "noteOff"
      },
      {
        "deltaTime": 680,
        "channel": 2,
        "type": "channel",
        "noteNumber": 53,
        "velocity": 0,
        "subtype": "noteOff"
      },
      {
        "deltaTime": 0,
        "channel": 2,
        "type": "channel",
        "noteNumber": 70,
        "velocity": 0,
        "subtype": "noteOff"
      },
      {
        "deltaTime": 0,
        "channel": 2,
        "type": "channel",
        "noteNumber": 62,
        "velocity": 0,
        "subtype": "noteOff"
      },
      {
        "deltaTime": 0,
        "channel": 2,
        "type": "channel",
        "noteNumber": 46,
        "velocity": 0,
        "subtype": "noteOff"
      },
      {
        "deltaTime": 0,
        "channel": 2,
        "type": "channel",
        "noteNumber": 70,
        "velocity": 127,
        "subtype": "noteOn"
      },
      {
        "deltaTime": 0,
        "channel": 2,
        "type": "channel",
        "noteNumber": 54,
        "velocity": 127,
        "subtype": "noteOn"
      },
      {
        "deltaTime": 0,
        "channel": 2,
        "type": "channel",
        "noteNumber": 62,
        "velocity": 127,
        "subtype": "noteOn"
      },
      {
        "deltaTime": 0,
        "channel": 2,
        "type": "channel",
        "noteNumber": 53,
        "velocity": 127,
        "subtype": "noteOn"
      },
      {
        "deltaTime": 0,
        "channel": 2,
        "type": "channel",
        "noteNumber": 46,
        "velocity": 127,
        "subtype": "noteOn"
      },
      {
        "deltaTime": 40,
        "channel": 2,
        "type": "channel",
        "noteNumber": 54,
        "velocity": 0,
        "subtype": "noteOff"
      },
      {
        "deltaTime": 440,
        "channel": 2,
        "type": "channel",
        "noteNumber": 53,
        "velocity": 0,
        "subtype": "noteOff"
      },
      {
        "deltaTime": 0,
        "channel": 2,
        "type": "channel",
        "noteNumber": 70,
        "velocity": 0,
        "subtype": "noteOff"
      },
      {
        "deltaTime": 0,
        "channel": 2,
        "type": "channel",
        "noteNumber": 62,
        "velocity": 0,
        "subtype": "noteOff"
      },
      {
        "deltaTime": 0,
        "channel": 2,
        "type": "channel",
        "noteNumber": 46,
        "velocity": 0,
        "subtype": "noteOff"
      },
      {
        "deltaTime": 0,
        "channel": 2,
        "type": "channel",
        "noteNumber": 54,
        "velocity": 127,
        "subtype": "noteOn"
      },
      {
        "deltaTime": 0,
        "channel": 2,
        "type": "channel",
        "noteNumber": 49,
        "velocity": 127,
        "subtype": "noteOn"
      },
      {
        "deltaTime": 0,
        "channel": 2,
        "type": "channel",
        "noteNumber": 44,
        "velocity": 127,
        "subtype": "noteOn"
      },
      {
        "deltaTime": 0,
        "channel": 2,
        "type": "channel",
        "noteNumber": 37,
        "velocity": 127,
        "subtype": "noteOn"
      },
      {
        "deltaTime": 40,
        "channel": 2,
        "type": "channel",
        "noteNumber": 37,
        "velocity": 0,
        "subtype": "noteOff"
      },
      {
        "deltaTime": 0,
        "channel": 2,
        "type": "channel",
        "noteNumber": 54,
        "velocity": 0,
        "subtype": "noteOff"
      },
      {
        "deltaTime": 0,
        "channel": 2,
        "type": "channel",
        "noteNumber": 49,
        "velocity": 0,
        "subtype": "noteOff"
      },
      {
        "deltaTime": 0,
        "channel": 2,
        "type": "channel",
        "noteNumber": 44,
        "velocity": 0,
        "subtype": "noteOff"
      },
      {
        "deltaTime": 200,
        "channel": 2,
        "type": "channel",
        "noteNumber": 54,
        "velocity": 127,
        "subtype": "noteOn"
      },
      {
        "deltaTime": 0,
        "channel": 2,
        "type": "channel",
        "noteNumber": 49,
        "velocity": 127,
        "subtype": "noteOn"
      },
      {
        "deltaTime": 0,
        "channel": 2,
        "type": "channel",
        "noteNumber": 44,
        "velocity": 127,
        "subtype": "noteOn"
      },
      {
        "deltaTime": 0,
        "channel": 2,
        "type": "channel",
        "noteNumber": 37,
        "velocity": 127,
        "subtype": "noteOn"
      },
      {
        "deltaTime": 40,
        "channel": 2,
        "type": "channel",
        "noteNumber": 37,
        "velocity": 0,
        "subtype": "noteOff"
      },
      {
        "deltaTime": 0,
        "channel": 2,
        "type": "channel",
        "noteNumber": 54,
        "velocity": 0,
        "subtype": "noteOff"
      },
      {
        "deltaTime": 0,
        "channel": 2,
        "type": "channel",
        "noteNumber": 49,
        "velocity": 0,
        "subtype": "noteOff"
      },
      {
        "deltaTime": 0,
        "channel": 2,
        "type": "channel",
        "noteNumber": 44,
        "velocity": 0,
        "subtype": "noteOff"
      },
      {
        "deltaTime": 200,
        "channel": 2,
        "type": "channel",
        "noteNumber": 54,
        "velocity": 127,
        "subtype": "noteOn"
      },
      {
        "deltaTime": 0,
        "channel": 2,
        "type": "channel",
        "noteNumber": 49,
        "velocity": 127,
        "subtype": "noteOn"
      },
      {
        "deltaTime": 0,
        "channel": 2,
        "type": "channel",
        "noteNumber": 44,
        "velocity": 127,
        "subtype": "noteOn"
      },
      {
        "deltaTime": 0,
        "channel": 2,
        "type": "channel",
        "noteNumber": 37,
        "velocity": 127,
        "subtype": "noteOn"
      },
      {
        "deltaTime": 40,
        "channel": 2,
        "type": "channel",
        "noteNumber": 37,
        "velocity": 0,
        "subtype": "noteOff"
      },
      {
        "deltaTime": 0,
        "channel": 2,
        "type": "channel",
        "noteNumber": 54,
        "velocity": 0,
        "subtype": "noteOff"
      },
      {
        "deltaTime": 0,
        "channel": 2,
        "type": "channel",
        "noteNumber": 49,
        "velocity": 0,
        "subtype": "noteOff"
      },
      {
        "deltaTime": 0,
        "channel": 2,
        "type": "channel",
        "noteNumber": 44,
        "velocity": 0,
        "subtype": "noteOff"
      },
      {
        "deltaTime": 200,
        "channel": 2,
        "type": "channel",
        "noteNumber": 54,
        "velocity": 127,
        "subtype": "noteOn"
      },
      {
        "deltaTime": 0,
        "channel": 2,
        "type": "channel",
        "noteNumber": 49,
        "velocity": 127,
        "subtype": "noteOn"
      },
      {
        "deltaTime": 0,
        "channel": 2,
        "type": "channel",
        "noteNumber": 44,
        "velocity": 127,
        "subtype": "noteOn"
      },
      {
        "deltaTime": 0,
        "channel": 2,
        "type": "channel",
        "noteNumber": 37,
        "velocity": 127,
        "subtype": "noteOn"
      },
      {
        "deltaTime": 40,
        "channel": 2,
        "type": "channel",
        "noteNumber": 37,
        "velocity": 0,
        "subtype": "noteOff"
      },
      {
        "deltaTime": 0,
        "channel": 2,
        "type": "channel",
        "noteNumber": 54,
        "velocity": 0,
        "subtype": "noteOff"
      },
      {
        "deltaTime": 0,
        "channel": 2,
        "type": "channel",
        "noteNumber": 49,
        "velocity": 0,
        "subtype": "noteOff"
      },
      {
        "deltaTime": 0,
        "channel": 2,
        "type": "channel",
        "noteNumber": 44,
        "velocity": 0,
        "subtype": "noteOff"
      },
      {
        "deltaTime": 200,
        "channel": 2,
        "type": "channel",
        "noteNumber": 70,
        "velocity": 127,
        "subtype": "noteOn"
      },
      {
        "deltaTime": 0,
        "channel": 2,
        "type": "channel",
        "noteNumber": 67,
        "velocity": 127,
        "subtype": "noteOn"
      },
      {
        "deltaTime": 0,
        "channel": 2,
        "type": "channel",
        "noteNumber": 63,
        "velocity": 127,
        "subtype": "noteOn"
      },
      {
        "deltaTime": 0,
        "channel": 2,
        "type": "channel",
        "noteNumber": 55,
        "velocity": 127,
        "subtype": "noteOn"
      },
      {
        "deltaTime": 0,
        "channel": 2,
        "type": "channel",
        "noteNumber": 48,
        "velocity": 127,
        "subtype": "noteOn"
      },
      {
        "deltaTime": 720,
        "channel": 2,
        "type": "channel",
        "noteNumber": 48,
        "velocity": 0,
        "subtype": "noteOff"
      },
      {
        "deltaTime": 0,
        "channel": 2,
        "type": "channel",
        "noteNumber": 63,
        "velocity": 0,
        "subtype": "noteOff"
      },
      {
        "deltaTime": 0,
        "channel": 2,
        "type": "channel",
        "noteNumber": 70,
        "velocity": 0,
        "subtype": "noteOff"
      },
      {
        "deltaTime": 0,
        "channel": 2,
        "type": "channel",
        "noteNumber": 67,
        "velocity": 0,
        "subtype": "noteOff"
      },
      {
        "deltaTime": 0,
        "channel": 2,
        "type": "channel",
        "noteNumber": 55,
        "velocity": 0,
        "subtype": "noteOff"
      },
      {
        "deltaTime": 0,
        "channel": 2,
        "type": "channel",
        "noteNumber": 70,
        "velocity": 127,
        "subtype": "noteOn"
      },
      {
        "deltaTime": 0,
        "channel": 2,
        "type": "channel",
        "noteNumber": 67,
        "velocity": 127,
        "subtype": "noteOn"
      },
      {
        "deltaTime": 0,
        "channel": 2,
        "type": "channel",
        "noteNumber": 63,
        "velocity": 127,
        "subtype": "noteOn"
      },
      {
        "deltaTime": 0,
        "channel": 2,
        "type": "channel",
        "noteNumber": 55,
        "velocity": 127,
        "subtype": "noteOn"
      },
      {
        "deltaTime": 0,
        "channel": 2,
        "type": "channel",
        "noteNumber": 48,
        "velocity": 127,
        "subtype": "noteOn"
      },
      {
        "deltaTime": 720,
        "channel": 2,
        "type": "channel",
        "noteNumber": 48,
        "velocity": 0,
        "subtype": "noteOff"
      },
      {
        "deltaTime": 0,
        "channel": 2,
        "type": "channel",
        "noteNumber": 63,
        "velocity": 0,
        "subtype": "noteOff"
      },
      {
        "deltaTime": 0,
        "channel": 2,
        "type": "channel",
        "noteNumber": 70,
        "velocity": 0,
        "subtype": "noteOff"
      },
      {
        "deltaTime": 0,
        "channel": 2,
        "type": "channel",
        "noteNumber": 67,
        "velocity": 0,
        "subtype": "noteOff"
      },
      {
        "deltaTime": 0,
        "channel": 2,
        "type": "channel",
        "noteNumber": 55,
        "velocity": 0,
        "subtype": "noteOff"
      },
      {
        "deltaTime": 0,
        "channel": 2,
        "type": "channel",
        "noteNumber": 70,
        "velocity": 127,
        "subtype": "noteOn"
      },
      {
        "deltaTime": 0,
        "channel": 2,
        "type": "channel",
        "noteNumber": 67,
        "velocity": 127,
        "subtype": "noteOn"
      },
      {
        "deltaTime": 0,
        "channel": 2,
        "type": "channel",
        "noteNumber": 63,
        "velocity": 127,
        "subtype": "noteOn"
      },
      {
        "deltaTime": 0,
        "channel": 2,
        "type": "channel",
        "noteNumber": 55,
        "velocity": 127,
        "subtype": "noteOn"
      },
      {
        "deltaTime": 0,
        "channel": 2,
        "type": "channel",
        "noteNumber": 48,
        "velocity": 127,
        "subtype": "noteOn"
      },
      {
        "deltaTime": 480,
        "channel": 2,
        "type": "channel",
        "noteNumber": 48,
        "velocity": 0,
        "subtype": "noteOff"
      },
      {
        "deltaTime": 0,
        "channel": 2,
        "type": "channel",
        "noteNumber": 63,
        "velocity": 0,
        "subtype": "noteOff"
      },
      {
        "deltaTime": 0,
        "channel": 2,
        "type": "channel",
        "noteNumber": 70,
        "velocity": 0,
        "subtype": "noteOff"
      },
      {
        "deltaTime": 0,
        "channel": 2,
        "type": "channel",
        "noteNumber": 67,
        "velocity": 0,
        "subtype": "noteOff"
      },
      {
        "deltaTime": 0,
        "channel": 2,
        "type": "channel",
        "noteNumber": 55,
        "velocity": 0,
        "subtype": "noteOff"
      },
      {
        "deltaTime": 0,
        "channel": 2,
        "type": "channel",
        "noteNumber": 65,
        "velocity": 127,
        "subtype": "noteOn"
      },
      {
        "deltaTime": 0,
        "channel": 2,
        "type": "channel",
        "noteNumber": 54,
        "velocity": 127,
        "subtype": "noteOn"
      },
      {
        "deltaTime": 0,
        "channel": 2,
        "type": "channel",
        "noteNumber": 58,
        "velocity": 127,
        "subtype": "noteOn"
      },
      {
        "deltaTime": 0,
        "channel": 2,
        "type": "channel",
        "noteNumber": 50,
        "velocity": 127,
        "subtype": "noteOn"
      },
      {
        "deltaTime": 0,
        "channel": 2,
        "type": "channel",
        "noteNumber": 43,
        "velocity": 127,
        "subtype": "noteOn"
      },
      {
        "deltaTime": 40,
        "channel": 2,
        "type": "channel",
        "noteNumber": 54,
        "velocity": 0,
        "subtype": "noteOff"
      },
      {
        "deltaTime": 920,
        "channel": 2,
        "type": "channel",
        "noteNumber": 50,
        "velocity": 0,
        "subtype": "noteOff"
      },
      {
        "deltaTime": 0,
        "channel": 2,
        "type": "channel",
        "noteNumber": 65,
        "velocity": 0,
        "subtype": "noteOff"
      },
      {
        "deltaTime": 0,
        "channel": 2,
        "type": "channel",
        "noteNumber": 58,
        "velocity": 0,
        "subtype": "noteOff"
      },
      {
        "deltaTime": 0,
        "channel": 2,
        "type": "channel",
        "noteNumber": 43,
        "velocity": 0,
        "subtype": "noteOff"
      },
      {
        "deltaTime": 0,
        "channel": 2,
        "type": "channel",
        "noteNumber": 51,
        "velocity": 127,
        "subtype": "noteOn"
      },
      {
        "deltaTime": 0,
        "channel": 2,
        "type": "channel",
        "noteNumber": 44,
        "velocity": 127,
        "subtype": "noteOn"
      },
      {
        "deltaTime": 180,
        "channel": 2,
        "type": "channel",
        "noteNumber": 44,
        "velocity": 0,
        "subtype": "noteOff"
      },
      {
        "deltaTime": 0,
        "channel": 2,
        "type": "channel",
        "noteNumber": 51,
        "velocity": 0,
        "subtype": "noteOff"
      },
      {
        "deltaTime": 540,
        "channel": 2,
        "type": "channel",
        "noteNumber": 51,
        "velocity": 127,
        "subtype": "noteOn"
      },
      {
        "deltaTime": 0,
        "channel": 2,
        "type": "channel",
        "noteNumber": 44,
        "velocity": 127,
        "subtype": "noteOn"
      },
      {
        "deltaTime": 180,
        "channel": 2,
        "type": "channel",
        "noteNumber": 44,
        "velocity": 0,
        "subtype": "noteOff"
      },
      {
        "deltaTime": 0,
        "channel": 2,
        "type": "channel",
        "noteNumber": 51,
        "velocity": 0,
        "subtype": "noteOff"
      },
      {
        "deltaTime": 540,
        "channel": 2,
        "type": "channel",
        "noteNumber": 51,
        "velocity": 127,
        "subtype": "noteOn"
      },
      {
        "deltaTime": 0,
        "channel": 2,
        "type": "channel",
        "noteNumber": 44,
        "velocity": 127,
        "subtype": "noteOn"
      },
      {
        "deltaTime": 360,
        "channel": 2,
        "type": "channel",
        "noteNumber": 44,
        "velocity": 0,
        "subtype": "noteOff"
      },
      {
        "deltaTime": 0,
        "channel": 2,
        "type": "channel",
        "noteNumber": 51,
        "velocity": 0,
        "subtype": "noteOff"
      },
      {
        "deltaTime": 1080,
        "channel": 2,
        "type": "channel",
        "noteNumber": 51,
        "velocity": 127,
        "subtype": "noteOn"
      },
      {
        "deltaTime": 0,
        "channel": 2,
        "type": "channel",
        "noteNumber": 44,
        "velocity": 127,
        "subtype": "noteOn"
      },
      {
        "deltaTime": 180,
        "channel": 2,
        "type": "channel",
        "noteNumber": 44,
        "velocity": 0,
        "subtype": "noteOff"
      },
      {
        "deltaTime": 0,
        "channel": 2,
        "type": "channel",
        "noteNumber": 51,
        "velocity": 0,
        "subtype": "noteOff"
      },
      {
        "deltaTime": 540,
        "channel": 2,
        "type": "channel",
        "noteNumber": 51,
        "velocity": 127,
        "subtype": "noteOn"
      },
      {
        "deltaTime": 0,
        "channel": 2,
        "type": "channel",
        "noteNumber": 44,
        "velocity": 127,
        "subtype": "noteOn"
      },
      {
        "deltaTime": 180,
        "channel": 2,
        "type": "channel",
        "noteNumber": 44,
        "velocity": 0,
        "subtype": "noteOff"
      },
      {
        "deltaTime": 0,
        "channel": 2,
        "type": "channel",
        "noteNumber": 51,
        "velocity": 0,
        "subtype": "noteOff"
      },
      {
        "deltaTime": 540,
        "channel": 2,
        "type": "channel",
        "noteNumber": 51,
        "velocity": 127,
        "subtype": "noteOn"
      },
      {
        "deltaTime": 0,
        "channel": 2,
        "type": "channel",
        "noteNumber": 44,
        "velocity": 127,
        "subtype": "noteOn"
      },
      {
        "deltaTime": 360,
        "channel": 2,
        "type": "channel",
        "noteNumber": 44,
        "velocity": 0,
        "subtype": "noteOff"
      },
      {
        "deltaTime": 0,
        "channel": 2,
        "type": "channel",
        "noteNumber": 51,
        "velocity": 0,
        "subtype": "noteOff"
      },
      {
        "deltaTime": 1080,
        "channel": 2,
        "type": "channel",
        "noteNumber": 53,
        "velocity": 127,
        "subtype": "noteOn"
      },
      {
        "deltaTime": 0,
        "channel": 2,
        "type": "channel",
        "noteNumber": 46,
        "velocity": 127,
        "subtype": "noteOn"
      },
      {
        "deltaTime": 180,
        "channel": 2,
        "type": "channel",
        "noteNumber": 46,
        "velocity": 0,
        "subtype": "noteOff"
      },
      {
        "deltaTime": 0,
        "channel": 2,
        "type": "channel",
        "noteNumber": 53,
        "velocity": 0,
        "subtype": "noteOff"
      },
      {
        "deltaTime": 540,
        "channel": 2,
        "type": "channel",
        "noteNumber": 53,
        "velocity": 127,
        "subtype": "noteOn"
      },
      {
        "deltaTime": 0,
        "channel": 2,
        "type": "channel",
        "noteNumber": 46,
        "velocity": 127,
        "subtype": "noteOn"
      },
      {
        "deltaTime": 180,
        "channel": 2,
        "type": "channel",
        "noteNumber": 46,
        "velocity": 0,
        "subtype": "noteOff"
      },
      {
        "deltaTime": 0,
        "channel": 2,
        "type": "channel",
        "noteNumber": 53,
        "velocity": 0,
        "subtype": "noteOff"
      },
      {
        "deltaTime": 540,
        "channel": 2,
        "type": "channel",
        "noteNumber": 53,
        "velocity": 127,
        "subtype": "noteOn"
      },
      {
        "deltaTime": 0,
        "channel": 2,
        "type": "channel",
        "noteNumber": 46,
        "velocity": 127,
        "subtype": "noteOn"
      },
      {
        "deltaTime": 360,
        "channel": 2,
        "type": "channel",
        "noteNumber": 46,
        "velocity": 0,
        "subtype": "noteOff"
      },
      {
        "deltaTime": 0,
        "channel": 2,
        "type": "channel",
        "noteNumber": 53,
        "velocity": 0,
        "subtype": "noteOff"
      },
      {
        "deltaTime": 1080,
        "channel": 2,
        "type": "channel",
        "noteNumber": 55,
        "velocity": 127,
        "subtype": "noteOn"
      },
      {
        "deltaTime": 0,
        "channel": 2,
        "type": "channel",
        "noteNumber": 48,
        "velocity": 127,
        "subtype": "noteOn"
      },
      {
        "deltaTime": 180,
        "channel": 2,
        "type": "channel",
        "noteNumber": 48,
        "velocity": 0,
        "subtype": "noteOff"
      },
      {
        "deltaTime": 0,
        "channel": 2,
        "type": "channel",
        "noteNumber": 55,
        "velocity": 0,
        "subtype": "noteOff"
      },
      {
        "deltaTime": 540,
        "channel": 2,
        "type": "channel",
        "noteNumber": 55,
        "velocity": 127,
        "subtype": "noteOn"
      },
      {
        "deltaTime": 0,
        "channel": 2,
        "type": "channel",
        "noteNumber": 48,
        "velocity": 127,
        "subtype": "noteOn"
      },
      {
        "deltaTime": 180,
        "channel": 2,
        "type": "channel",
        "noteNumber": 48,
        "velocity": 0,
        "subtype": "noteOff"
      },
      {
        "deltaTime": 0,
        "channel": 2,
        "type": "channel",
        "noteNumber": 55,
        "velocity": 0,
        "subtype": "noteOff"
      },
      {
        "deltaTime": 540,
        "channel": 2,
        "type": "channel",
        "noteNumber": 55,
        "velocity": 127,
        "subtype": "noteOn"
      },
      {
        "deltaTime": 0,
        "channel": 2,
        "type": "channel",
        "noteNumber": 48,
        "velocity": 127,
        "subtype": "noteOn"
      },
      {
        "deltaTime": 360,
        "channel": 2,
        "type": "channel",
        "noteNumber": 48,
        "velocity": 0,
        "subtype": "noteOff"
      },
      {
        "deltaTime": 0,
        "channel": 2,
        "type": "channel",
        "noteNumber": 55,
        "velocity": 0,
        "subtype": "noteOff"
      },
      {
        "deltaTime": 1080,
        "channel": 2,
        "type": "channel",
        "noteNumber": 51,
        "velocity": 127,
        "subtype": "noteOn"
      },
      {
        "deltaTime": 0,
        "channel": 2,
        "type": "channel",
        "noteNumber": 44,
        "velocity": 127,
        "subtype": "noteOn"
      },
      {
        "deltaTime": 180,
        "channel": 2,
        "type": "channel",
        "noteNumber": 44,
        "velocity": 0,
        "subtype": "noteOff"
      },
      {
        "deltaTime": 0,
        "channel": 2,
        "type": "channel",
        "noteNumber": 51,
        "velocity": 0,
        "subtype": "noteOff"
      },
      {
        "deltaTime": 540,
        "channel": 2,
        "type": "channel",
        "noteNumber": 51,
        "velocity": 127,
        "subtype": "noteOn"
      },
      {
        "deltaTime": 0,
        "channel": 2,
        "type": "channel",
        "noteNumber": 44,
        "velocity": 127,
        "subtype": "noteOn"
      },
      {
        "deltaTime": 180,
        "channel": 2,
        "type": "channel",
        "noteNumber": 44,
        "velocity": 0,
        "subtype": "noteOff"
      },
      {
        "deltaTime": 0,
        "channel": 2,
        "type": "channel",
        "noteNumber": 51,
        "velocity": 0,
        "subtype": "noteOff"
      },
      {
        "deltaTime": 540,
        "channel": 2,
        "type": "channel",
        "noteNumber": 51,
        "velocity": 127,
        "subtype": "noteOn"
      },
      {
        "deltaTime": 0,
        "channel": 2,
        "type": "channel",
        "noteNumber": 44,
        "velocity": 127,
        "subtype": "noteOn"
      },
      {
        "deltaTime": 360,
        "channel": 2,
        "type": "channel",
        "noteNumber": 44,
        "velocity": 0,
        "subtype": "noteOff"
      },
      {
        "deltaTime": 0,
        "channel": 2,
        "type": "channel",
        "noteNumber": 51,
        "velocity": 0,
        "subtype": "noteOff"
      },
      {
        "deltaTime": 1080,
        "channel": 2,
        "type": "channel",
        "noteNumber": 51,
        "velocity": 127,
        "subtype": "noteOn"
      },
      {
        "deltaTime": 0,
        "channel": 2,
        "type": "channel",
        "noteNumber": 44,
        "velocity": 127,
        "subtype": "noteOn"
      },
      {
        "deltaTime": 180,
        "channel": 2,
        "type": "channel",
        "noteNumber": 44,
        "velocity": 0,
        "subtype": "noteOff"
      },
      {
        "deltaTime": 0,
        "channel": 2,
        "type": "channel",
        "noteNumber": 51,
        "velocity": 0,
        "subtype": "noteOff"
      },
      {
        "deltaTime": 540,
        "channel": 2,
        "type": "channel",
        "noteNumber": 51,
        "velocity": 127,
        "subtype": "noteOn"
      },
      {
        "deltaTime": 0,
        "channel": 2,
        "type": "channel",
        "noteNumber": 44,
        "velocity": 127,
        "subtype": "noteOn"
      },
      {
        "deltaTime": 180,
        "channel": 2,
        "type": "channel",
        "noteNumber": 44,
        "velocity": 0,
        "subtype": "noteOff"
      },
      {
        "deltaTime": 0,
        "channel": 2,
        "type": "channel",
        "noteNumber": 51,
        "velocity": 0,
        "subtype": "noteOff"
      },
      {
        "deltaTime": 540,
        "channel": 2,
        "type": "channel",
        "noteNumber": 51,
        "velocity": 127,
        "subtype": "noteOn"
      },
      {
        "deltaTime": 0,
        "channel": 2,
        "type": "channel",
        "noteNumber": 44,
        "velocity": 127,
        "subtype": "noteOn"
      },
      {
        "deltaTime": 360,
        "channel": 2,
        "type": "channel",
        "noteNumber": 44,
        "velocity": 0,
        "subtype": "noteOff"
      },
      {
        "deltaTime": 0,
        "channel": 2,
        "type": "channel",
        "noteNumber": 51,
        "velocity": 0,
        "subtype": "noteOff"
      },
      {
        "deltaTime": 1080,
        "channel": 2,
        "type": "channel",
        "noteNumber": 53,
        "velocity": 127,
        "subtype": "noteOn"
      },
      {
        "deltaTime": 0,
        "channel": 2,
        "type": "channel",
        "noteNumber": 46,
        "velocity": 127,
        "subtype": "noteOn"
      },
      {
        "deltaTime": 180,
        "channel": 2,
        "type": "channel",
        "noteNumber": 46,
        "velocity": 0,
        "subtype": "noteOff"
      },
      {
        "deltaTime": 0,
        "channel": 2,
        "type": "channel",
        "noteNumber": 53,
        "velocity": 0,
        "subtype": "noteOff"
      },
      {
        "deltaTime": 540,
        "channel": 2,
        "type": "channel",
        "noteNumber": 53,
        "velocity": 127,
        "subtype": "noteOn"
      },
      {
        "deltaTime": 0,
        "channel": 2,
        "type": "channel",
        "noteNumber": 46,
        "velocity": 127,
        "subtype": "noteOn"
      },
      {
        "deltaTime": 180,
        "channel": 2,
        "type": "channel",
        "noteNumber": 46,
        "velocity": 0,
        "subtype": "noteOff"
      },
      {
        "deltaTime": 0,
        "channel": 2,
        "type": "channel",
        "noteNumber": 53,
        "velocity": 0,
        "subtype": "noteOff"
      },
      {
        "deltaTime": 540,
        "channel": 2,
        "type": "channel",
        "noteNumber": 53,
        "velocity": 127,
        "subtype": "noteOn"
      },
      {
        "deltaTime": 0,
        "channel": 2,
        "type": "channel",
        "noteNumber": 46,
        "velocity": 127,
        "subtype": "noteOn"
      },
      {
        "deltaTime": 360,
        "channel": 2,
        "type": "channel",
        "noteNumber": 46,
        "velocity": 0,
        "subtype": "noteOff"
      },
      {
        "deltaTime": 0,
        "channel": 2,
        "type": "channel",
        "noteNumber": 53,
        "velocity": 0,
        "subtype": "noteOff"
      },
      {
        "deltaTime": 1080,
        "channel": 2,
        "type": "channel",
        "noteNumber": 55,
        "velocity": 127,
        "subtype": "noteOn"
      },
      {
        "deltaTime": 0,
        "channel": 2,
        "type": "channel",
        "noteNumber": 48,
        "velocity": 127,
        "subtype": "noteOn"
      },
      {
        "deltaTime": 180,
        "channel": 2,
        "type": "channel",
        "noteNumber": 48,
        "velocity": 0,
        "subtype": "noteOff"
      },
      {
        "deltaTime": 0,
        "channel": 2,
        "type": "channel",
        "noteNumber": 55,
        "velocity": 0,
        "subtype": "noteOff"
      },
      {
        "deltaTime": 540,
        "channel": 2,
        "type": "channel",
        "noteNumber": 55,
        "velocity": 127,
        "subtype": "noteOn"
      },
      {
        "deltaTime": 0,
        "channel": 2,
        "type": "channel",
        "noteNumber": 48,
        "velocity": 127,
        "subtype": "noteOn"
      },
      {
        "deltaTime": 180,
        "channel": 2,
        "type": "channel",
        "noteNumber": 48,
        "velocity": 0,
        "subtype": "noteOff"
      },
      {
        "deltaTime": 0,
        "channel": 2,
        "type": "channel",
        "noteNumber": 55,
        "velocity": 0,
        "subtype": "noteOff"
      },
      {
        "deltaTime": 540,
        "channel": 2,
        "type": "channel",
        "noteNumber": 55,
        "velocity": 127,
        "subtype": "noteOn"
      },
      {
        "deltaTime": 0,
        "channel": 2,
        "type": "channel",
        "noteNumber": 48,
        "velocity": 127,
        "subtype": "noteOn"
      },
      {
        "deltaTime": 360,
        "channel": 2,
        "type": "channel",
        "noteNumber": 48,
        "velocity": 0,
        "subtype": "noteOff"
      },
      {
        "deltaTime": 0,
        "channel": 2,
        "type": "channel",
        "noteNumber": 55,
        "velocity": 0,
        "subtype": "noteOff"
      },
      {
        "deltaTime": 1080,
        "channel": 2,
        "type": "channel",
        "noteNumber": 67,
        "velocity": 127,
        "subtype": "noteOn"
      },
      {
        "deltaTime": 0,
        "channel": 2,
        "type": "channel",
        "noteNumber": 54,
        "velocity": 127,
        "subtype": "noteOn"
      },
      {
        "deltaTime": 0,
        "channel": 2,
        "type": "channel",
        "noteNumber": 60,
        "velocity": 127,
        "subtype": "noteOn"
      },
      {
        "deltaTime": 0,
        "channel": 2,
        "type": "channel",
        "noteNumber": 51,
        "velocity": 127,
        "subtype": "noteOn"
      },
      {
        "deltaTime": 0,
        "channel": 2,
        "type": "channel",
        "noteNumber": 44,
        "velocity": 127,
        "subtype": "noteOn"
      },
      {
        "deltaTime": 40,
        "channel": 2,
        "type": "channel",
        "noteNumber": 54,
        "velocity": 0,
        "subtype": "noteOff"
      },
      {
        "deltaTime": 680,
        "channel": 2,
        "type": "channel",
        "noteNumber": 51,
        "velocity": 0,
        "subtype": "noteOff"
      },
      {
        "deltaTime": 0,
        "channel": 2,
        "type": "channel",
        "noteNumber": 67,
        "velocity": 0,
        "subtype": "noteOff"
      },
      {
        "deltaTime": 0,
        "channel": 2,
        "type": "channel",
        "noteNumber": 60,
        "velocity": 0,
        "subtype": "noteOff"
      },
      {
        "deltaTime": 0,
        "channel": 2,
        "type": "channel",
        "noteNumber": 44,
        "velocity": 0,
        "subtype": "noteOff"
      },
      {
        "deltaTime": 0,
        "channel": 2,
        "type": "channel",
        "noteNumber": 67,
        "velocity": 127,
        "subtype": "noteOn"
      },
      {
        "deltaTime": 0,
        "channel": 2,
        "type": "channel",
        "noteNumber": 54,
        "velocity": 127,
        "subtype": "noteOn"
      },
      {
        "deltaTime": 0,
        "channel": 2,
        "type": "channel",
        "noteNumber": 60,
        "velocity": 127,
        "subtype": "noteOn"
      },
      {
        "deltaTime": 0,
        "channel": 2,
        "type": "channel",
        "noteNumber": 51,
        "velocity": 127,
        "subtype": "noteOn"
      },
      {
        "deltaTime": 0,
        "channel": 2,
        "type": "channel",
        "noteNumber": 44,
        "velocity": 127,
        "subtype": "noteOn"
      },
      {
        "deltaTime": 40,
        "channel": 2,
        "type": "channel",
        "noteNumber": 54,
        "velocity": 0,
        "subtype": "noteOff"
      },
      {
        "deltaTime": 680,
        "channel": 2,
        "type": "channel",
        "noteNumber": 51,
        "velocity": 0,
        "subtype": "noteOff"
      },
      {
        "deltaTime": 0,
        "channel": 2,
        "type": "channel",
        "noteNumber": 67,
        "velocity": 0,
        "subtype": "noteOff"
      },
      {
        "deltaTime": 0,
        "channel": 2,
        "type": "channel",
        "noteNumber": 60,
        "velocity": 0,
        "subtype": "noteOff"
      },
      {
        "deltaTime": 0,
        "channel": 2,
        "type": "channel",
        "noteNumber": 44,
        "velocity": 0,
        "subtype": "noteOff"
      },
      {
        "deltaTime": 0,
        "channel": 2,
        "type": "channel",
        "noteNumber": 67,
        "velocity": 127,
        "subtype": "noteOn"
      },
      {
        "deltaTime": 0,
        "channel": 2,
        "type": "channel",
        "noteNumber": 54,
        "velocity": 127,
        "subtype": "noteOn"
      },
      {
        "deltaTime": 0,
        "channel": 2,
        "type": "channel",
        "noteNumber": 60,
        "velocity": 127,
        "subtype": "noteOn"
      },
      {
        "deltaTime": 0,
        "channel": 2,
        "type": "channel",
        "noteNumber": 51,
        "velocity": 127,
        "subtype": "noteOn"
      },
      {
        "deltaTime": 0,
        "channel": 2,
        "type": "channel",
        "noteNumber": 44,
        "velocity": 127,
        "subtype": "noteOn"
      },
      {
        "deltaTime": 40,
        "channel": 2,
        "type": "channel",
        "noteNumber": 54,
        "velocity": 0,
        "subtype": "noteOff"
      },
      {
        "deltaTime": 440,
        "channel": 2,
        "type": "channel",
        "noteNumber": 51,
        "velocity": 0,
        "subtype": "noteOff"
      },
      {
        "deltaTime": 0,
        "channel": 2,
        "type": "channel",
        "noteNumber": 67,
        "velocity": 0,
        "subtype": "noteOff"
      },
      {
        "deltaTime": 0,
        "channel": 2,
        "type": "channel",
        "noteNumber": 60,
        "velocity": 0,
        "subtype": "noteOff"
      },
      {
        "deltaTime": 0,
        "channel": 2,
        "type": "channel",
        "noteNumber": 44,
        "velocity": 0,
        "subtype": "noteOff"
      },
      {
        "deltaTime": 0,
        "channel": 2,
        "type": "channel",
        "noteNumber": 54,
        "velocity": 127,
        "subtype": "noteOn"
      },
      {
        "deltaTime": 0,
        "channel": 2,
        "type": "channel",
        "noteNumber": 49,
        "velocity": 127,
        "subtype": "noteOn"
      },
      {
        "deltaTime": 0,
        "channel": 2,
        "type": "channel",
        "noteNumber": 44,
        "velocity": 127,
        "subtype": "noteOn"
      },
      {
        "deltaTime": 0,
        "channel": 2,
        "type": "channel",
        "noteNumber": 37,
        "velocity": 127,
        "subtype": "noteOn"
      },
      {
        "deltaTime": 40,
        "channel": 2,
        "type": "channel",
        "noteNumber": 37,
        "velocity": 0,
        "subtype": "noteOff"
      },
      {
        "deltaTime": 0,
        "channel": 2,
        "type": "channel",
        "noteNumber": 54,
        "velocity": 0,
        "subtype": "noteOff"
      },
      {
        "deltaTime": 0,
        "channel": 2,
        "type": "channel",
        "noteNumber": 49,
        "velocity": 0,
        "subtype": "noteOff"
      },
      {
        "deltaTime": 0,
        "channel": 2,
        "type": "channel",
        "noteNumber": 44,
        "velocity": 0,
        "subtype": "noteOff"
      },
      {
        "deltaTime": 200,
        "channel": 2,
        "type": "channel",
        "noteNumber": 54,
        "velocity": 127,
        "subtype": "noteOn"
      },
      {
        "deltaTime": 0,
        "channel": 2,
        "type": "channel",
        "noteNumber": 49,
        "velocity": 127,
        "subtype": "noteOn"
      },
      {
        "deltaTime": 0,
        "channel": 2,
        "type": "channel",
        "noteNumber": 44,
        "velocity": 127,
        "subtype": "noteOn"
      },
      {
        "deltaTime": 0,
        "channel": 2,
        "type": "channel",
        "noteNumber": 37,
        "velocity": 127,
        "subtype": "noteOn"
      },
      {
        "deltaTime": 40,
        "channel": 2,
        "type": "channel",
        "noteNumber": 37,
        "velocity": 0,
        "subtype": "noteOff"
      },
      {
        "deltaTime": 0,
        "channel": 2,
        "type": "channel",
        "noteNumber": 54,
        "velocity": 0,
        "subtype": "noteOff"
      },
      {
        "deltaTime": 0,
        "channel": 2,
        "type": "channel",
        "noteNumber": 49,
        "velocity": 0,
        "subtype": "noteOff"
      },
      {
        "deltaTime": 0,
        "channel": 2,
        "type": "channel",
        "noteNumber": 44,
        "velocity": 0,
        "subtype": "noteOff"
      },
      {
        "deltaTime": 200,
        "channel": 2,
        "type": "channel",
        "noteNumber": 54,
        "velocity": 127,
        "subtype": "noteOn"
      },
      {
        "deltaTime": 0,
        "channel": 2,
        "type": "channel",
        "noteNumber": 49,
        "velocity": 127,
        "subtype": "noteOn"
      },
      {
        "deltaTime": 0,
        "channel": 2,
        "type": "channel",
        "noteNumber": 44,
        "velocity": 127,
        "subtype": "noteOn"
      },
      {
        "deltaTime": 0,
        "channel": 2,
        "type": "channel",
        "noteNumber": 37,
        "velocity": 127,
        "subtype": "noteOn"
      },
      {
        "deltaTime": 40,
        "channel": 2,
        "type": "channel",
        "noteNumber": 37,
        "velocity": 0,
        "subtype": "noteOff"
      },
      {
        "deltaTime": 0,
        "channel": 2,
        "type": "channel",
        "noteNumber": 54,
        "velocity": 0,
        "subtype": "noteOff"
      },
      {
        "deltaTime": 0,
        "channel": 2,
        "type": "channel",
        "noteNumber": 49,
        "velocity": 0,
        "subtype": "noteOff"
      },
      {
        "deltaTime": 0,
        "channel": 2,
        "type": "channel",
        "noteNumber": 44,
        "velocity": 0,
        "subtype": "noteOff"
      },
      {
        "deltaTime": 200,
        "channel": 2,
        "type": "channel",
        "noteNumber": 54,
        "velocity": 127,
        "subtype": "noteOn"
      },
      {
        "deltaTime": 0,
        "channel": 2,
        "type": "channel",
        "noteNumber": 49,
        "velocity": 127,
        "subtype": "noteOn"
      },
      {
        "deltaTime": 0,
        "channel": 2,
        "type": "channel",
        "noteNumber": 44,
        "velocity": 127,
        "subtype": "noteOn"
      },
      {
        "deltaTime": 0,
        "channel": 2,
        "type": "channel",
        "noteNumber": 37,
        "velocity": 127,
        "subtype": "noteOn"
      },
      {
        "deltaTime": 40,
        "channel": 2,
        "type": "channel",
        "noteNumber": 37,
        "velocity": 0,
        "subtype": "noteOff"
      },
      {
        "deltaTime": 0,
        "channel": 2,
        "type": "channel",
        "noteNumber": 54,
        "velocity": 0,
        "subtype": "noteOff"
      },
      {
        "deltaTime": 0,
        "channel": 2,
        "type": "channel",
        "noteNumber": 49,
        "velocity": 0,
        "subtype": "noteOff"
      },
      {
        "deltaTime": 0,
        "channel": 2,
        "type": "channel",
        "noteNumber": 44,
        "velocity": 0,
        "subtype": "noteOff"
      },
      {
        "deltaTime": 200,
        "channel": 2,
        "type": "channel",
        "noteNumber": 67,
        "velocity": 127,
        "subtype": "noteOn"
      },
      {
        "deltaTime": 0,
        "channel": 2,
        "type": "channel",
        "noteNumber": 54,
        "velocity": 127,
        "subtype": "noteOn"
      },
      {
        "deltaTime": 0,
        "channel": 2,
        "type": "channel",
        "noteNumber": 60,
        "velocity": 127,
        "subtype": "noteOn"
      },
      {
        "deltaTime": 0,
        "channel": 2,
        "type": "channel",
        "noteNumber": 51,
        "velocity": 127,
        "subtype": "noteOn"
      },
      {
        "deltaTime": 0,
        "channel": 2,
        "type": "channel",
        "noteNumber": 44,
        "velocity": 127,
        "subtype": "noteOn"
      },
      {
        "deltaTime": 40,
        "channel": 2,
        "type": "channel",
        "noteNumber": 54,
        "velocity": 0,
        "subtype": "noteOff"
      },
      {
        "deltaTime": 680,
        "channel": 2,
        "type": "channel",
        "noteNumber": 51,
        "velocity": 0,
        "subtype": "noteOff"
      },
      {
        "deltaTime": 0,
        "channel": 2,
        "type": "channel",
        "noteNumber": 67,
        "velocity": 0,
        "subtype": "noteOff"
      },
      {
        "deltaTime": 0,
        "channel": 2,
        "type": "channel",
        "noteNumber": 60,
        "velocity": 0,
        "subtype": "noteOff"
      },
      {
        "deltaTime": 0,
        "channel": 2,
        "type": "channel",
        "noteNumber": 44,
        "velocity": 0,
        "subtype": "noteOff"
      },
      {
        "deltaTime": 0,
        "channel": 2,
        "type": "channel",
        "noteNumber": 67,
        "velocity": 127,
        "subtype": "noteOn"
      },
      {
        "deltaTime": 0,
        "channel": 2,
        "type": "channel",
        "noteNumber": 54,
        "velocity": 127,
        "subtype": "noteOn"
      },
      {
        "deltaTime": 0,
        "channel": 2,
        "type": "channel",
        "noteNumber": 60,
        "velocity": 127,
        "subtype": "noteOn"
      },
      {
        "deltaTime": 0,
        "channel": 2,
        "type": "channel",
        "noteNumber": 51,
        "velocity": 127,
        "subtype": "noteOn"
      },
      {
        "deltaTime": 0,
        "channel": 2,
        "type": "channel",
        "noteNumber": 44,
        "velocity": 127,
        "subtype": "noteOn"
      },
      {
        "deltaTime": 40,
        "channel": 2,
        "type": "channel",
        "noteNumber": 54,
        "velocity": 0,
        "subtype": "noteOff"
      },
      {
        "deltaTime": 680,
        "channel": 2,
        "type": "channel",
        "noteNumber": 51,
        "velocity": 0,
        "subtype": "noteOff"
      },
      {
        "deltaTime": 0,
        "channel": 2,
        "type": "channel",
        "noteNumber": 67,
        "velocity": 0,
        "subtype": "noteOff"
      },
      {
        "deltaTime": 0,
        "channel": 2,
        "type": "channel",
        "noteNumber": 60,
        "velocity": 0,
        "subtype": "noteOff"
      },
      {
        "deltaTime": 0,
        "channel": 2,
        "type": "channel",
        "noteNumber": 44,
        "velocity": 0,
        "subtype": "noteOff"
      },
      {
        "deltaTime": 0,
        "channel": 2,
        "type": "channel",
        "noteNumber": 67,
        "velocity": 127,
        "subtype": "noteOn"
      },
      {
        "deltaTime": 0,
        "channel": 2,
        "type": "channel",
        "noteNumber": 54,
        "velocity": 127,
        "subtype": "noteOn"
      },
      {
        "deltaTime": 0,
        "channel": 2,
        "type": "channel",
        "noteNumber": 60,
        "velocity": 127,
        "subtype": "noteOn"
      },
      {
        "deltaTime": 0,
        "channel": 2,
        "type": "channel",
        "noteNumber": 51,
        "velocity": 127,
        "subtype": "noteOn"
      },
      {
        "deltaTime": 0,
        "channel": 2,
        "type": "channel",
        "noteNumber": 44,
        "velocity": 127,
        "subtype": "noteOn"
      },
      {
        "deltaTime": 40,
        "channel": 2,
        "type": "channel",
        "noteNumber": 54,
        "velocity": 0,
        "subtype": "noteOff"
      },
      {
        "deltaTime": 440,
        "channel": 2,
        "type": "channel",
        "noteNumber": 51,
        "velocity": 0,
        "subtype": "noteOff"
      },
      {
        "deltaTime": 0,
        "channel": 2,
        "type": "channel",
        "noteNumber": 67,
        "velocity": 0,
        "subtype": "noteOff"
      },
      {
        "deltaTime": 0,
        "channel": 2,
        "type": "channel",
        "noteNumber": 60,
        "velocity": 0,
        "subtype": "noteOff"
      },
      {
        "deltaTime": 0,
        "channel": 2,
        "type": "channel",
        "noteNumber": 44,
        "velocity": 0,
        "subtype": "noteOff"
      },
      {
        "deltaTime": 0,
        "channel": 2,
        "type": "channel",
        "noteNumber": 54,
        "velocity": 127,
        "subtype": "noteOn"
      },
      {
        "deltaTime": 0,
        "channel": 2,
        "type": "channel",
        "noteNumber": 49,
        "velocity": 127,
        "subtype": "noteOn"
      },
      {
        "deltaTime": 0,
        "channel": 2,
        "type": "channel",
        "noteNumber": 44,
        "velocity": 127,
        "subtype": "noteOn"
      },
      {
        "deltaTime": 0,
        "channel": 2,
        "type": "channel",
        "noteNumber": 37,
        "velocity": 127,
        "subtype": "noteOn"
      },
      {
        "deltaTime": 40,
        "channel": 2,
        "type": "channel",
        "noteNumber": 37,
        "velocity": 0,
        "subtype": "noteOff"
      },
      {
        "deltaTime": 0,
        "channel": 2,
        "type": "channel",
        "noteNumber": 54,
        "velocity": 0,
        "subtype": "noteOff"
      },
      {
        "deltaTime": 0,
        "channel": 2,
        "type": "channel",
        "noteNumber": 49,
        "velocity": 0,
        "subtype": "noteOff"
      },
      {
        "deltaTime": 0,
        "channel": 2,
        "type": "channel",
        "noteNumber": 44,
        "velocity": 0,
        "subtype": "noteOff"
      },
      {
        "deltaTime": 200,
        "channel": 2,
        "type": "channel",
        "noteNumber": 54,
        "velocity": 127,
        "subtype": "noteOn"
      },
      {
        "deltaTime": 0,
        "channel": 2,
        "type": "channel",
        "noteNumber": 49,
        "velocity": 127,
        "subtype": "noteOn"
      },
      {
        "deltaTime": 0,
        "channel": 2,
        "type": "channel",
        "noteNumber": 44,
        "velocity": 127,
        "subtype": "noteOn"
      },
      {
        "deltaTime": 0,
        "channel": 2,
        "type": "channel",
        "noteNumber": 37,
        "velocity": 127,
        "subtype": "noteOn"
      },
      {
        "deltaTime": 40,
        "channel": 2,
        "type": "channel",
        "noteNumber": 37,
        "velocity": 0,
        "subtype": "noteOff"
      },
      {
        "deltaTime": 0,
        "channel": 2,
        "type": "channel",
        "noteNumber": 54,
        "velocity": 0,
        "subtype": "noteOff"
      },
      {
        "deltaTime": 0,
        "channel": 2,
        "type": "channel",
        "noteNumber": 49,
        "velocity": 0,
        "subtype": "noteOff"
      },
      {
        "deltaTime": 0,
        "channel": 2,
        "type": "channel",
        "noteNumber": 44,
        "velocity": 0,
        "subtype": "noteOff"
      },
      {
        "deltaTime": 200,
        "channel": 2,
        "type": "channel",
        "noteNumber": 54,
        "velocity": 127,
        "subtype": "noteOn"
      },
      {
        "deltaTime": 0,
        "channel": 2,
        "type": "channel",
        "noteNumber": 49,
        "velocity": 127,
        "subtype": "noteOn"
      },
      {
        "deltaTime": 0,
        "channel": 2,
        "type": "channel",
        "noteNumber": 44,
        "velocity": 127,
        "subtype": "noteOn"
      },
      {
        "deltaTime": 0,
        "channel": 2,
        "type": "channel",
        "noteNumber": 37,
        "velocity": 127,
        "subtype": "noteOn"
      },
      {
        "deltaTime": 40,
        "channel": 2,
        "type": "channel",
        "noteNumber": 37,
        "velocity": 0,
        "subtype": "noteOff"
      },
      {
        "deltaTime": 0,
        "channel": 2,
        "type": "channel",
        "noteNumber": 54,
        "velocity": 0,
        "subtype": "noteOff"
      },
      {
        "deltaTime": 0,
        "channel": 2,
        "type": "channel",
        "noteNumber": 49,
        "velocity": 0,
        "subtype": "noteOff"
      },
      {
        "deltaTime": 0,
        "channel": 2,
        "type": "channel",
        "noteNumber": 44,
        "velocity": 0,
        "subtype": "noteOff"
      },
      {
        "deltaTime": 200,
        "channel": 2,
        "type": "channel",
        "noteNumber": 54,
        "velocity": 127,
        "subtype": "noteOn"
      },
      {
        "deltaTime": 0,
        "channel": 2,
        "type": "channel",
        "noteNumber": 49,
        "velocity": 127,
        "subtype": "noteOn"
      },
      {
        "deltaTime": 0,
        "channel": 2,
        "type": "channel",
        "noteNumber": 44,
        "velocity": 127,
        "subtype": "noteOn"
      },
      {
        "deltaTime": 0,
        "channel": 2,
        "type": "channel",
        "noteNumber": 37,
        "velocity": 127,
        "subtype": "noteOn"
      },
      {
        "deltaTime": 40,
        "channel": 2,
        "type": "channel",
        "noteNumber": 37,
        "velocity": 0,
        "subtype": "noteOff"
      },
      {
        "deltaTime": 0,
        "channel": 2,
        "type": "channel",
        "noteNumber": 54,
        "velocity": 0,
        "subtype": "noteOff"
      },
      {
        "deltaTime": 0,
        "channel": 2,
        "type": "channel",
        "noteNumber": 49,
        "velocity": 0,
        "subtype": "noteOff"
      },
      {
        "deltaTime": 0,
        "channel": 2,
        "type": "channel",
        "noteNumber": 44,
        "velocity": 0,
        "subtype": "noteOff"
      },
      {
        "deltaTime": 200,
        "channel": 2,
        "type": "channel",
        "noteNumber": 70,
        "velocity": 127,
        "subtype": "noteOn"
      },
      {
        "deltaTime": 0,
        "channel": 2,
        "type": "channel",
        "noteNumber": 54,
        "velocity": 127,
        "subtype": "noteOn"
      },
      {
        "deltaTime": 0,
        "channel": 2,
        "type": "channel",
        "noteNumber": 62,
        "velocity": 127,
        "subtype": "noteOn"
      },
      {
        "deltaTime": 0,
        "channel": 2,
        "type": "channel",
        "noteNumber": 53,
        "velocity": 127,
        "subtype": "noteOn"
      },
      {
        "deltaTime": 0,
        "channel": 2,
        "type": "channel",
        "noteNumber": 46,
        "velocity": 127,
        "subtype": "noteOn"
      },
      {
        "deltaTime": 40,
        "channel": 2,
        "type": "channel",
        "noteNumber": 54,
        "velocity": 0,
        "subtype": "noteOff"
      },
      {
        "deltaTime": 680,
        "channel": 2,
        "type": "channel",
        "noteNumber": 53,
        "velocity": 0,
        "subtype": "noteOff"
      },
      {
        "deltaTime": 0,
        "channel": 2,
        "type": "channel",
        "noteNumber": 70,
        "velocity": 0,
        "subtype": "noteOff"
      },
      {
        "deltaTime": 0,
        "channel": 2,
        "type": "channel",
        "noteNumber": 62,
        "velocity": 0,
        "subtype": "noteOff"
      },
      {
        "deltaTime": 0,
        "channel": 2,
        "type": "channel",
        "noteNumber": 46,
        "velocity": 0,
        "subtype": "noteOff"
      },
      {
        "deltaTime": 0,
        "channel": 2,
        "type": "channel",
        "noteNumber": 70,
        "velocity": 127,
        "subtype": "noteOn"
      },
      {
        "deltaTime": 0,
        "channel": 2,
        "type": "channel",
        "noteNumber": 54,
        "velocity": 127,
        "subtype": "noteOn"
      },
      {
        "deltaTime": 0,
        "channel": 2,
        "type": "channel",
        "noteNumber": 62,
        "velocity": 127,
        "subtype": "noteOn"
      },
      {
        "deltaTime": 0,
        "channel": 2,
        "type": "channel",
        "noteNumber": 53,
        "velocity": 127,
        "subtype": "noteOn"
      },
      {
        "deltaTime": 0,
        "channel": 2,
        "type": "channel",
        "noteNumber": 46,
        "velocity": 127,
        "subtype": "noteOn"
      },
      {
        "deltaTime": 40,
        "channel": 2,
        "type": "channel",
        "noteNumber": 54,
        "velocity": 0,
        "subtype": "noteOff"
      },
      {
        "deltaTime": 680,
        "channel": 2,
        "type": "channel",
        "noteNumber": 53,
        "velocity": 0,
        "subtype": "noteOff"
      },
      {
        "deltaTime": 0,
        "channel": 2,
        "type": "channel",
        "noteNumber": 70,
        "velocity": 0,
        "subtype": "noteOff"
      },
      {
        "deltaTime": 0,
        "channel": 2,
        "type": "channel",
        "noteNumber": 62,
        "velocity": 0,
        "subtype": "noteOff"
      },
      {
        "deltaTime": 0,
        "channel": 2,
        "type": "channel",
        "noteNumber": 46,
        "velocity": 0,
        "subtype": "noteOff"
      },
      {
        "deltaTime": 0,
        "channel": 2,
        "type": "channel",
        "noteNumber": 70,
        "velocity": 127,
        "subtype": "noteOn"
      },
      {
        "deltaTime": 0,
        "channel": 2,
        "type": "channel",
        "noteNumber": 54,
        "velocity": 127,
        "subtype": "noteOn"
      },
      {
        "deltaTime": 0,
        "channel": 2,
        "type": "channel",
        "noteNumber": 62,
        "velocity": 127,
        "subtype": "noteOn"
      },
      {
        "deltaTime": 0,
        "channel": 2,
        "type": "channel",
        "noteNumber": 53,
        "velocity": 127,
        "subtype": "noteOn"
      },
      {
        "deltaTime": 0,
        "channel": 2,
        "type": "channel",
        "noteNumber": 46,
        "velocity": 127,
        "subtype": "noteOn"
      },
      {
        "deltaTime": 40,
        "channel": 2,
        "type": "channel",
        "noteNumber": 54,
        "velocity": 0,
        "subtype": "noteOff"
      },
      {
        "deltaTime": 440,
        "channel": 2,
        "type": "channel",
        "noteNumber": 53,
        "velocity": 0,
        "subtype": "noteOff"
      },
      {
        "deltaTime": 0,
        "channel": 2,
        "type": "channel",
        "noteNumber": 70,
        "velocity": 0,
        "subtype": "noteOff"
      },
      {
        "deltaTime": 0,
        "channel": 2,
        "type": "channel",
        "noteNumber": 62,
        "velocity": 0,
        "subtype": "noteOff"
      },
      {
        "deltaTime": 0,
        "channel": 2,
        "type": "channel",
        "noteNumber": 46,
        "velocity": 0,
        "subtype": "noteOff"
      },
      {
        "deltaTime": 0,
        "channel": 2,
        "type": "channel",
        "noteNumber": 54,
        "velocity": 127,
        "subtype": "noteOn"
      },
      {
        "deltaTime": 0,
        "channel": 2,
        "type": "channel",
        "noteNumber": 49,
        "velocity": 127,
        "subtype": "noteOn"
      },
      {
        "deltaTime": 0,
        "channel": 2,
        "type": "channel",
        "noteNumber": 44,
        "velocity": 127,
        "subtype": "noteOn"
      },
      {
        "deltaTime": 0,
        "channel": 2,
        "type": "channel",
        "noteNumber": 37,
        "velocity": 127,
        "subtype": "noteOn"
      },
      {
        "deltaTime": 40,
        "channel": 2,
        "type": "channel",
        "noteNumber": 37,
        "velocity": 0,
        "subtype": "noteOff"
      },
      {
        "deltaTime": 0,
        "channel": 2,
        "type": "channel",
        "noteNumber": 54,
        "velocity": 0,
        "subtype": "noteOff"
      },
      {
        "deltaTime": 0,
        "channel": 2,
        "type": "channel",
        "noteNumber": 49,
        "velocity": 0,
        "subtype": "noteOff"
      },
      {
        "deltaTime": 0,
        "channel": 2,
        "type": "channel",
        "noteNumber": 44,
        "velocity": 0,
        "subtype": "noteOff"
      },
      {
        "deltaTime": 200,
        "channel": 2,
        "type": "channel",
        "noteNumber": 54,
        "velocity": 127,
        "subtype": "noteOn"
      },
      {
        "deltaTime": 0,
        "channel": 2,
        "type": "channel",
        "noteNumber": 49,
        "velocity": 127,
        "subtype": "noteOn"
      },
      {
        "deltaTime": 0,
        "channel": 2,
        "type": "channel",
        "noteNumber": 44,
        "velocity": 127,
        "subtype": "noteOn"
      },
      {
        "deltaTime": 0,
        "channel": 2,
        "type": "channel",
        "noteNumber": 37,
        "velocity": 127,
        "subtype": "noteOn"
      },
      {
        "deltaTime": 40,
        "channel": 2,
        "type": "channel",
        "noteNumber": 37,
        "velocity": 0,
        "subtype": "noteOff"
      },
      {
        "deltaTime": 0,
        "channel": 2,
        "type": "channel",
        "noteNumber": 54,
        "velocity": 0,
        "subtype": "noteOff"
      },
      {
        "deltaTime": 0,
        "channel": 2,
        "type": "channel",
        "noteNumber": 49,
        "velocity": 0,
        "subtype": "noteOff"
      },
      {
        "deltaTime": 0,
        "channel": 2,
        "type": "channel",
        "noteNumber": 44,
        "velocity": 0,
        "subtype": "noteOff"
      },
      {
        "deltaTime": 200,
        "channel": 2,
        "type": "channel",
        "noteNumber": 54,
        "velocity": 127,
        "subtype": "noteOn"
      },
      {
        "deltaTime": 0,
        "channel": 2,
        "type": "channel",
        "noteNumber": 49,
        "velocity": 127,
        "subtype": "noteOn"
      },
      {
        "deltaTime": 0,
        "channel": 2,
        "type": "channel",
        "noteNumber": 44,
        "velocity": 127,
        "subtype": "noteOn"
      },
      {
        "deltaTime": 0,
        "channel": 2,
        "type": "channel",
        "noteNumber": 37,
        "velocity": 127,
        "subtype": "noteOn"
      },
      {
        "deltaTime": 40,
        "channel": 2,
        "type": "channel",
        "noteNumber": 37,
        "velocity": 0,
        "subtype": "noteOff"
      },
      {
        "deltaTime": 0,
        "channel": 2,
        "type": "channel",
        "noteNumber": 54,
        "velocity": 0,
        "subtype": "noteOff"
      },
      {
        "deltaTime": 0,
        "channel": 2,
        "type": "channel",
        "noteNumber": 49,
        "velocity": 0,
        "subtype": "noteOff"
      },
      {
        "deltaTime": 0,
        "channel": 2,
        "type": "channel",
        "noteNumber": 44,
        "velocity": 0,
        "subtype": "noteOff"
      },
      {
        "deltaTime": 200,
        "channel": 2,
        "type": "channel",
        "noteNumber": 54,
        "velocity": 127,
        "subtype": "noteOn"
      },
      {
        "deltaTime": 0,
        "channel": 2,
        "type": "channel",
        "noteNumber": 49,
        "velocity": 127,
        "subtype": "noteOn"
      },
      {
        "deltaTime": 0,
        "channel": 2,
        "type": "channel",
        "noteNumber": 44,
        "velocity": 127,
        "subtype": "noteOn"
      },
      {
        "deltaTime": 0,
        "channel": 2,
        "type": "channel",
        "noteNumber": 37,
        "velocity": 127,
        "subtype": "noteOn"
      },
      {
        "deltaTime": 40,
        "channel": 2,
        "type": "channel",
        "noteNumber": 37,
        "velocity": 0,
        "subtype": "noteOff"
      },
      {
        "deltaTime": 0,
        "channel": 2,
        "type": "channel",
        "noteNumber": 54,
        "velocity": 0,
        "subtype": "noteOff"
      },
      {
        "deltaTime": 0,
        "channel": 2,
        "type": "channel",
        "noteNumber": 49,
        "velocity": 0,
        "subtype": "noteOff"
      },
      {
        "deltaTime": 0,
        "channel": 2,
        "type": "channel",
        "noteNumber": 44,
        "velocity": 0,
        "subtype": "noteOff"
      },
      {
        "deltaTime": 200,
        "channel": 2,
        "type": "channel",
        "noteNumber": 70,
        "velocity": 127,
        "subtype": "noteOn"
      },
      {
        "deltaTime": 0,
        "channel": 2,
        "type": "channel",
        "noteNumber": 67,
        "velocity": 127,
        "subtype": "noteOn"
      },
      {
        "deltaTime": 0,
        "channel": 2,
        "type": "channel",
        "noteNumber": 63,
        "velocity": 127,
        "subtype": "noteOn"
      },
      {
        "deltaTime": 0,
        "channel": 2,
        "type": "channel",
        "noteNumber": 55,
        "velocity": 127,
        "subtype": "noteOn"
      },
      {
        "deltaTime": 0,
        "channel": 2,
        "type": "channel",
        "noteNumber": 48,
        "velocity": 127,
        "subtype": "noteOn"
      },
      {
        "deltaTime": 720,
        "channel": 2,
        "type": "channel",
        "noteNumber": 48,
        "velocity": 0,
        "subtype": "noteOff"
      },
      {
        "deltaTime": 0,
        "channel": 2,
        "type": "channel",
        "noteNumber": 63,
        "velocity": 0,
        "subtype": "noteOff"
      },
      {
        "deltaTime": 0,
        "channel": 2,
        "type": "channel",
        "noteNumber": 70,
        "velocity": 0,
        "subtype": "noteOff"
      },
      {
        "deltaTime": 0,
        "channel": 2,
        "type": "channel",
        "noteNumber": 67,
        "velocity": 0,
        "subtype": "noteOff"
      },
      {
        "deltaTime": 0,
        "channel": 2,
        "type": "channel",
        "noteNumber": 55,
        "velocity": 0,
        "subtype": "noteOff"
      },
      {
        "deltaTime": 0,
        "channel": 2,
        "type": "channel",
        "noteNumber": 70,
        "velocity": 127,
        "subtype": "noteOn"
      },
      {
        "deltaTime": 0,
        "channel": 2,
        "type": "channel",
        "noteNumber": 67,
        "velocity": 127,
        "subtype": "noteOn"
      },
      {
        "deltaTime": 0,
        "channel": 2,
        "type": "channel",
        "noteNumber": 63,
        "velocity": 127,
        "subtype": "noteOn"
      },
      {
        "deltaTime": 0,
        "channel": 2,
        "type": "channel",
        "noteNumber": 55,
        "velocity": 127,
        "subtype": "noteOn"
      },
      {
        "deltaTime": 0,
        "channel": 2,
        "type": "channel",
        "noteNumber": 48,
        "velocity": 127,
        "subtype": "noteOn"
      },
      {
        "deltaTime": 720,
        "channel": 2,
        "type": "channel",
        "noteNumber": 48,
        "velocity": 0,
        "subtype": "noteOff"
      },
      {
        "deltaTime": 0,
        "channel": 2,
        "type": "channel",
        "noteNumber": 63,
        "velocity": 0,
        "subtype": "noteOff"
      },
      {
        "deltaTime": 0,
        "channel": 2,
        "type": "channel",
        "noteNumber": 70,
        "velocity": 0,
        "subtype": "noteOff"
      },
      {
        "deltaTime": 0,
        "channel": 2,
        "type": "channel",
        "noteNumber": 67,
        "velocity": 0,
        "subtype": "noteOff"
      },
      {
        "deltaTime": 0,
        "channel": 2,
        "type": "channel",
        "noteNumber": 55,
        "velocity": 0,
        "subtype": "noteOff"
      },
      {
        "deltaTime": 0,
        "channel": 2,
        "type": "channel",
        "noteNumber": 70,
        "velocity": 127,
        "subtype": "noteOn"
      },
      {
        "deltaTime": 0,
        "channel": 2,
        "type": "channel",
        "noteNumber": 67,
        "velocity": 127,
        "subtype": "noteOn"
      },
      {
        "deltaTime": 0,
        "channel": 2,
        "type": "channel",
        "noteNumber": 63,
        "velocity": 127,
        "subtype": "noteOn"
      },
      {
        "deltaTime": 0,
        "channel": 2,
        "type": "channel",
        "noteNumber": 55,
        "velocity": 127,
        "subtype": "noteOn"
      },
      {
        "deltaTime": 0,
        "channel": 2,
        "type": "channel",
        "noteNumber": 48,
        "velocity": 127,
        "subtype": "noteOn"
      },
      {
        "deltaTime": 480,
        "channel": 2,
        "type": "channel",
        "noteNumber": 48,
        "velocity": 0,
        "subtype": "noteOff"
      },
      {
        "deltaTime": 0,
        "channel": 2,
        "type": "channel",
        "noteNumber": 63,
        "velocity": 0,
        "subtype": "noteOff"
      },
      {
        "deltaTime": 0,
        "channel": 2,
        "type": "channel",
        "noteNumber": 70,
        "velocity": 0,
        "subtype": "noteOff"
      },
      {
        "deltaTime": 0,
        "channel": 2,
        "type": "channel",
        "noteNumber": 67,
        "velocity": 0,
        "subtype": "noteOff"
      },
      {
        "deltaTime": 0,
        "channel": 2,
        "type": "channel",
        "noteNumber": 55,
        "velocity": 0,
        "subtype": "noteOff"
      },
      {
        "deltaTime": 0,
        "channel": 2,
        "type": "channel",
        "noteNumber": 65,
        "velocity": 127,
        "subtype": "noteOn"
      },
      {
        "deltaTime": 0,
        "channel": 2,
        "type": "channel",
        "noteNumber": 54,
        "velocity": 127,
        "subtype": "noteOn"
      },
      {
        "deltaTime": 0,
        "channel": 2,
        "type": "channel",
        "noteNumber": 58,
        "velocity": 127,
        "subtype": "noteOn"
      },
      {
        "deltaTime": 0,
        "channel": 2,
        "type": "channel",
        "noteNumber": 50,
        "velocity": 127,
        "subtype": "noteOn"
      },
      {
        "deltaTime": 0,
        "channel": 2,
        "type": "channel",
        "noteNumber": 43,
        "velocity": 127,
        "subtype": "noteOn"
      },
      {
        "deltaTime": 40,
        "channel": 2,
        "type": "channel",
        "noteNumber": 54,
        "velocity": 0,
        "subtype": "noteOff"
      },
      {
        "deltaTime": 920,
        "channel": 2,
        "type": "channel",
        "noteNumber": 50,
        "velocity": 0,
        "subtype": "noteOff"
      },
      {
        "deltaTime": 0,
        "channel": 2,
        "type": "channel",
        "noteNumber": 65,
        "velocity": 0,
        "subtype": "noteOff"
      },
      {
        "deltaTime": 0,
        "channel": 2,
        "type": "channel",
        "noteNumber": 58,
        "velocity": 0,
        "subtype": "noteOff"
      },
      {
        "deltaTime": 0,
        "channel": 2,
        "type": "channel",
        "noteNumber": 43,
        "velocity": 0,
        "subtype": "noteOff"
      },
      {
        "deltaTime": 0,
        "channel": 2,
        "type": "channel",
        "noteNumber": 51,
        "velocity": 127,
        "subtype": "noteOn"
      },
      {
        "deltaTime": 0,
        "channel": 2,
        "type": "channel",
        "noteNumber": 44,
        "velocity": 127,
        "subtype": "noteOn"
      },
      {
        "deltaTime": 180,
        "channel": 2,
        "type": "channel",
        "noteNumber": 44,
        "velocity": 0,
        "subtype": "noteOff"
      },
      {
        "deltaTime": 0,
        "channel": 2,
        "type": "channel",
        "noteNumber": 51,
        "velocity": 0,
        "subtype": "noteOff"
      },
      {
        "deltaTime": 540,
        "channel": 2,
        "type": "channel",
        "noteNumber": 51,
        "velocity": 127,
        "subtype": "noteOn"
      },
      {
        "deltaTime": 0,
        "channel": 2,
        "type": "channel",
        "noteNumber": 44,
        "velocity": 127,
        "subtype": "noteOn"
      },
      {
        "deltaTime": 180,
        "channel": 2,
        "type": "channel",
        "noteNumber": 44,
        "velocity": 0,
        "subtype": "noteOff"
      },
      {
        "deltaTime": 0,
        "channel": 2,
        "type": "channel",
        "noteNumber": 51,
        "velocity": 0,
        "subtype": "noteOff"
      },
      {
        "deltaTime": 540,
        "channel": 2,
        "type": "channel",
        "noteNumber": 51,
        "velocity": 127,
        "subtype": "noteOn"
      },
      {
        "deltaTime": 0,
        "channel": 2,
        "type": "channel",
        "noteNumber": 44,
        "velocity": 127,
        "subtype": "noteOn"
      },
      {
        "deltaTime": 360,
        "channel": 2,
        "type": "channel",
        "noteNumber": 44,
        "velocity": 0,
        "subtype": "noteOff"
      },
      {
        "deltaTime": 0,
        "channel": 2,
        "type": "channel",
        "noteNumber": 51,
        "velocity": 0,
        "subtype": "noteOff"
      },
      {
        "deltaTime": 1080,
        "channel": 2,
        "type": "channel",
        "noteNumber": 51,
        "velocity": 127,
        "subtype": "noteOn"
      },
      {
        "deltaTime": 0,
        "channel": 2,
        "type": "channel",
        "noteNumber": 44,
        "velocity": 127,
        "subtype": "noteOn"
      },
      {
        "deltaTime": 180,
        "channel": 2,
        "type": "channel",
        "noteNumber": 44,
        "velocity": 0,
        "subtype": "noteOff"
      },
      {
        "deltaTime": 0,
        "channel": 2,
        "type": "channel",
        "noteNumber": 51,
        "velocity": 0,
        "subtype": "noteOff"
      },
      {
        "deltaTime": 540,
        "channel": 2,
        "type": "channel",
        "noteNumber": 51,
        "velocity": 127,
        "subtype": "noteOn"
      },
      {
        "deltaTime": 0,
        "channel": 2,
        "type": "channel",
        "noteNumber": 44,
        "velocity": 127,
        "subtype": "noteOn"
      },
      {
        "deltaTime": 180,
        "channel": 2,
        "type": "channel",
        "noteNumber": 44,
        "velocity": 0,
        "subtype": "noteOff"
      },
      {
        "deltaTime": 0,
        "channel": 2,
        "type": "channel",
        "noteNumber": 51,
        "velocity": 0,
        "subtype": "noteOff"
      },
      {
        "deltaTime": 540,
        "channel": 2,
        "type": "channel",
        "noteNumber": 51,
        "velocity": 127,
        "subtype": "noteOn"
      },
      {
        "deltaTime": 0,
        "channel": 2,
        "type": "channel",
        "noteNumber": 44,
        "velocity": 127,
        "subtype": "noteOn"
      },
      {
        "deltaTime": 360,
        "channel": 2,
        "type": "channel",
        "noteNumber": 44,
        "velocity": 0,
        "subtype": "noteOff"
      },
      {
        "deltaTime": 0,
        "channel": 2,
        "type": "channel",
        "noteNumber": 51,
        "velocity": 0,
        "subtype": "noteOff"
      },
      {
        "deltaTime": 1080,
        "channel": 2,
        "type": "channel",
        "noteNumber": 53,
        "velocity": 127,
        "subtype": "noteOn"
      },
      {
        "deltaTime": 0,
        "channel": 2,
        "type": "channel",
        "noteNumber": 46,
        "velocity": 127,
        "subtype": "noteOn"
      },
      {
        "deltaTime": 180,
        "channel": 2,
        "type": "channel",
        "noteNumber": 46,
        "velocity": 0,
        "subtype": "noteOff"
      },
      {
        "deltaTime": 0,
        "channel": 2,
        "type": "channel",
        "noteNumber": 53,
        "velocity": 0,
        "subtype": "noteOff"
      },
      {
        "deltaTime": 540,
        "channel": 2,
        "type": "channel",
        "noteNumber": 53,
        "velocity": 127,
        "subtype": "noteOn"
      },
      {
        "deltaTime": 0,
        "channel": 2,
        "type": "channel",
        "noteNumber": 46,
        "velocity": 127,
        "subtype": "noteOn"
      },
      {
        "deltaTime": 180,
        "channel": 2,
        "type": "channel",
        "noteNumber": 46,
        "velocity": 0,
        "subtype": "noteOff"
      },
      {
        "deltaTime": 0,
        "channel": 2,
        "type": "channel",
        "noteNumber": 53,
        "velocity": 0,
        "subtype": "noteOff"
      },
      {
        "deltaTime": 540,
        "channel": 2,
        "type": "channel",
        "noteNumber": 53,
        "velocity": 127,
        "subtype": "noteOn"
      },
      {
        "deltaTime": 0,
        "channel": 2,
        "type": "channel",
        "noteNumber": 46,
        "velocity": 127,
        "subtype": "noteOn"
      },
      {
        "deltaTime": 360,
        "channel": 2,
        "type": "channel",
        "noteNumber": 46,
        "velocity": 0,
        "subtype": "noteOff"
      },
      {
        "deltaTime": 0,
        "channel": 2,
        "type": "channel",
        "noteNumber": 53,
        "velocity": 0,
        "subtype": "noteOff"
      },
      {
        "deltaTime": 1080,
        "channel": 2,
        "type": "channel",
        "noteNumber": 55,
        "velocity": 127,
        "subtype": "noteOn"
      },
      {
        "deltaTime": 0,
        "channel": 2,
        "type": "channel",
        "noteNumber": 48,
        "velocity": 127,
        "subtype": "noteOn"
      },
      {
        "deltaTime": 180,
        "channel": 2,
        "type": "channel",
        "noteNumber": 48,
        "velocity": 0,
        "subtype": "noteOff"
      },
      {
        "deltaTime": 0,
        "channel": 2,
        "type": "channel",
        "noteNumber": 55,
        "velocity": 0,
        "subtype": "noteOff"
      },
      {
        "deltaTime": 540,
        "channel": 2,
        "type": "channel",
        "noteNumber": 55,
        "velocity": 127,
        "subtype": "noteOn"
      },
      {
        "deltaTime": 0,
        "channel": 2,
        "type": "channel",
        "noteNumber": 48,
        "velocity": 127,
        "subtype": "noteOn"
      },
      {
        "deltaTime": 180,
        "channel": 2,
        "type": "channel",
        "noteNumber": 48,
        "velocity": 0,
        "subtype": "noteOff"
      },
      {
        "deltaTime": 0,
        "channel": 2,
        "type": "channel",
        "noteNumber": 55,
        "velocity": 0,
        "subtype": "noteOff"
      },
      {
        "deltaTime": 540,
        "channel": 2,
        "type": "channel",
        "noteNumber": 55,
        "velocity": 127,
        "subtype": "noteOn"
      },
      {
        "deltaTime": 0,
        "channel": 2,
        "type": "channel",
        "noteNumber": 48,
        "velocity": 127,
        "subtype": "noteOn"
      },
      {
        "deltaTime": 360,
        "channel": 2,
        "type": "channel",
        "noteNumber": 48,
        "velocity": 0,
        "subtype": "noteOff"
      },
      {
        "deltaTime": 0,
        "channel": 2,
        "type": "channel",
        "noteNumber": 55,
        "velocity": 0,
        "subtype": "noteOff"
      },
      {
        "deltaTime": 1080,
        "channel": 2,
        "type": "channel",
        "noteNumber": 51,
        "velocity": 127,
        "subtype": "noteOn"
      },
      {
        "deltaTime": 0,
        "channel": 2,
        "type": "channel",
        "noteNumber": 44,
        "velocity": 127,
        "subtype": "noteOn"
      },
      {
        "deltaTime": 180,
        "channel": 2,
        "type": "channel",
        "noteNumber": 44,
        "velocity": 0,
        "subtype": "noteOff"
      },
      {
        "deltaTime": 0,
        "channel": 2,
        "type": "channel",
        "noteNumber": 51,
        "velocity": 0,
        "subtype": "noteOff"
      },
      {
        "deltaTime": 540,
        "channel": 2,
        "type": "channel",
        "noteNumber": 51,
        "velocity": 127,
        "subtype": "noteOn"
      },
      {
        "deltaTime": 0,
        "channel": 2,
        "type": "channel",
        "noteNumber": 44,
        "velocity": 127,
        "subtype": "noteOn"
      },
      {
        "deltaTime": 180,
        "channel": 2,
        "type": "channel",
        "noteNumber": 44,
        "velocity": 0,
        "subtype": "noteOff"
      },
      {
        "deltaTime": 0,
        "channel": 2,
        "type": "channel",
        "noteNumber": 51,
        "velocity": 0,
        "subtype": "noteOff"
      },
      {
        "deltaTime": 540,
        "channel": 2,
        "type": "channel",
        "noteNumber": 51,
        "velocity": 127,
        "subtype": "noteOn"
      },
      {
        "deltaTime": 0,
        "channel": 2,
        "type": "channel",
        "noteNumber": 44,
        "velocity": 127,
        "subtype": "noteOn"
      },
      {
        "deltaTime": 360,
        "channel": 2,
        "type": "channel",
        "noteNumber": 44,
        "velocity": 0,
        "subtype": "noteOff"
      },
      {
        "deltaTime": 0,
        "channel": 2,
        "type": "channel",
        "noteNumber": 51,
        "velocity": 0,
        "subtype": "noteOff"
      },
      {
        "deltaTime": 1080,
        "channel": 2,
        "type": "channel",
        "noteNumber": 51,
        "velocity": 127,
        "subtype": "noteOn"
      },
      {
        "deltaTime": 0,
        "channel": 2,
        "type": "channel",
        "noteNumber": 44,
        "velocity": 127,
        "subtype": "noteOn"
      },
      {
        "deltaTime": 180,
        "channel": 2,
        "type": "channel",
        "noteNumber": 44,
        "velocity": 0,
        "subtype": "noteOff"
      },
      {
        "deltaTime": 0,
        "channel": 2,
        "type": "channel",
        "noteNumber": 51,
        "velocity": 0,
        "subtype": "noteOff"
      },
      {
        "deltaTime": 540,
        "channel": 2,
        "type": "channel",
        "noteNumber": 51,
        "velocity": 127,
        "subtype": "noteOn"
      },
      {
        "deltaTime": 0,
        "channel": 2,
        "type": "channel",
        "noteNumber": 44,
        "velocity": 127,
        "subtype": "noteOn"
      },
      {
        "deltaTime": 180,
        "channel": 2,
        "type": "channel",
        "noteNumber": 44,
        "velocity": 0,
        "subtype": "noteOff"
      },
      {
        "deltaTime": 0,
        "channel": 2,
        "type": "channel",
        "noteNumber": 51,
        "velocity": 0,
        "subtype": "noteOff"
      },
      {
        "deltaTime": 540,
        "channel": 2,
        "type": "channel",
        "noteNumber": 51,
        "velocity": 127,
        "subtype": "noteOn"
      },
      {
        "deltaTime": 0,
        "channel": 2,
        "type": "channel",
        "noteNumber": 44,
        "velocity": 127,
        "subtype": "noteOn"
      },
      {
        "deltaTime": 360,
        "channel": 2,
        "type": "channel",
        "noteNumber": 44,
        "velocity": 0,
        "subtype": "noteOff"
      },
      {
        "deltaTime": 0,
        "channel": 2,
        "type": "channel",
        "noteNumber": 51,
        "velocity": 0,
        "subtype": "noteOff"
      },
      {
        "deltaTime": 1080,
        "channel": 2,
        "type": "channel",
        "noteNumber": 53,
        "velocity": 127,
        "subtype": "noteOn"
      },
      {
        "deltaTime": 0,
        "channel": 2,
        "type": "channel",
        "noteNumber": 46,
        "velocity": 127,
        "subtype": "noteOn"
      },
      {
        "deltaTime": 180,
        "channel": 2,
        "type": "channel",
        "noteNumber": 46,
        "velocity": 0,
        "subtype": "noteOff"
      },
      {
        "deltaTime": 0,
        "channel": 2,
        "type": "channel",
        "noteNumber": 53,
        "velocity": 0,
        "subtype": "noteOff"
      },
      {
        "deltaTime": 540,
        "channel": 2,
        "type": "channel",
        "noteNumber": 53,
        "velocity": 127,
        "subtype": "noteOn"
      },
      {
        "deltaTime": 0,
        "channel": 2,
        "type": "channel",
        "noteNumber": 46,
        "velocity": 127,
        "subtype": "noteOn"
      },
      {
        "deltaTime": 180,
        "channel": 2,
        "type": "channel",
        "noteNumber": 46,
        "velocity": 0,
        "subtype": "noteOff"
      },
      {
        "deltaTime": 0,
        "channel": 2,
        "type": "channel",
        "noteNumber": 53,
        "velocity": 0,
        "subtype": "noteOff"
      },
      {
        "deltaTime": 540,
        "channel": 2,
        "type": "channel",
        "noteNumber": 53,
        "velocity": 127,
        "subtype": "noteOn"
      },
      {
        "deltaTime": 0,
        "channel": 2,
        "type": "channel",
        "noteNumber": 46,
        "velocity": 127,
        "subtype": "noteOn"
      },
      {
        "deltaTime": 360,
        "channel": 2,
        "type": "channel",
        "noteNumber": 46,
        "velocity": 0,
        "subtype": "noteOff"
      },
      {
        "deltaTime": 0,
        "channel": 2,
        "type": "channel",
        "noteNumber": 53,
        "velocity": 0,
        "subtype": "noteOff"
      },
      {
        "deltaTime": 1080,
        "channel": 2,
        "type": "channel",
        "noteNumber": 55,
        "velocity": 127,
        "subtype": "noteOn"
      },
      {
        "deltaTime": 0,
        "channel": 2,
        "type": "channel",
        "noteNumber": 48,
        "velocity": 127,
        "subtype": "noteOn"
      },
      {
        "deltaTime": 180,
        "channel": 2,
        "type": "channel",
        "noteNumber": 48,
        "velocity": 0,
        "subtype": "noteOff"
      },
      {
        "deltaTime": 0,
        "channel": 2,
        "type": "channel",
        "noteNumber": 55,
        "velocity": 0,
        "subtype": "noteOff"
      },
      {
        "deltaTime": 540,
        "channel": 2,
        "type": "channel",
        "noteNumber": 55,
        "velocity": 127,
        "subtype": "noteOn"
      },
      {
        "deltaTime": 0,
        "channel": 2,
        "type": "channel",
        "noteNumber": 48,
        "velocity": 127,
        "subtype": "noteOn"
      },
      {
        "deltaTime": 180,
        "channel": 2,
        "type": "channel",
        "noteNumber": 48,
        "velocity": 0,
        "subtype": "noteOff"
      },
      {
        "deltaTime": 0,
        "channel": 2,
        "type": "channel",
        "noteNumber": 55,
        "velocity": 0,
        "subtype": "noteOff"
      },
      {
        "deltaTime": 540,
        "channel": 2,
        "type": "channel",
        "noteNumber": 55,
        "velocity": 127,
        "subtype": "noteOn"
      },
      {
        "deltaTime": 0,
        "channel": 2,
        "type": "channel",
        "noteNumber": 48,
        "velocity": 127,
        "subtype": "noteOn"
      },
      {
        "deltaTime": 360,
        "channel": 2,
        "type": "channel",
        "noteNumber": 48,
        "velocity": 0,
        "subtype": "noteOff"
      },
      {
        "deltaTime": 0,
        "channel": 2,
        "type": "channel",
        "noteNumber": 55,
        "velocity": 0,
        "subtype": "noteOff"
      },
      {
        "deltaTime": 1080,
        "channel": 2,
        "type": "channel",
        "noteNumber": 63,
        "velocity": 127,
        "subtype": "noteOn"
      },
      {
        "deltaTime": 0,
        "channel": 2,
        "type": "channel",
        "noteNumber": 58,
        "velocity": 127,
        "subtype": "noteOn"
      },
      {
        "deltaTime": 0,
        "channel": 2,
        "type": "channel",
        "noteNumber": 55,
        "velocity": 127,
        "subtype": "noteOn"
      },
      {
        "deltaTime": 0,
        "channel": 2,
        "type": "channel",
        "noteNumber": 51,
        "velocity": 127,
        "subtype": "noteOn"
      },
      {
        "deltaTime": 0,
        "channel": 2,
        "type": "channel",
        "noteNumber": 46,
        "velocity": 127,
        "subtype": "noteOn"
      },
      {
        "deltaTime": 0,
        "channel": 2,
        "type": "channel",
        "noteNumber": 39,
        "velocity": 127,
        "subtype": "noteOn"
      },
      {
        "deltaTime": 7680,
        "channel": 2,
        "type": "channel",
        "noteNumber": 39,
        "velocity": 0,
        "subtype": "noteOff"
      },
      {
        "deltaTime": 0,
        "channel": 2,
        "type": "channel",
        "noteNumber": 58,
        "velocity": 0,
        "subtype": "noteOff"
      },
      {
        "deltaTime": 0,
        "channel": 2,
        "type": "channel",
        "noteNumber": 55,
        "velocity": 0,
        "subtype": "noteOff"
      },
      {
        "deltaTime": 0,
        "channel": 2,
        "type": "channel",
        "noteNumber": 63,
        "velocity": 0,
        "subtype": "noteOff"
      },
      {
        "deltaTime": 0,
        "channel": 2,
        "type": "channel",
        "noteNumber": 46,
        "velocity": 0,
        "subtype": "noteOff"
      },
      {
        "deltaTime": 0,
        "channel": 2,
        "type": "channel",
        "noteNumber": 51,
        "velocity": 0,
        "subtype": "noteOff"
      },
      {
        "deltaTime": 0,
        "channel": 2,
        "type": "channel",
        "noteNumber": 51,
        "velocity": 127,
        "subtype": "noteOn"
      },
      {
        "deltaTime": 0,
        "channel": 2,
        "type": "channel",
        "noteNumber": 44,
        "velocity": 127,
        "subtype": "noteOn"
      },
      {
        "deltaTime": 480,
        "channel": 2,
        "type": "channel",
        "noteNumber": 44,
        "velocity": 0,
        "subtype": "noteOff"
      },
      {
        "deltaTime": 0,
        "channel": 2,
        "type": "channel",
        "noteNumber": 51,
        "velocity": 0,
        "subtype": "noteOff"
      },
      {
        "deltaTime": 0,
        "channel": 2,
        "type": "channel",
        "noteNumber": 51,
        "velocity": 127,
        "subtype": "noteOn"
      },
      {
        "deltaTime": 0,
        "channel": 2,
        "type": "channel",
        "noteNumber": 44,
        "velocity": 127,
        "subtype": "noteOn"
      },
      {
        "deltaTime": 480,
        "channel": 2,
        "type": "channel",
        "noteNumber": 44,
        "velocity": 0,
        "subtype": "noteOff"
      },
      {
        "deltaTime": 0,
        "channel": 2,
        "type": "channel",
        "noteNumber": 51,
        "velocity": 0,
        "subtype": "noteOff"
      },
      {
        "deltaTime": 0,
        "channel": 2,
        "type": "channel",
        "noteNumber": 51,
        "velocity": 127,
        "subtype": "noteOn"
      },
      {
        "deltaTime": 0,
        "channel": 2,
        "type": "channel",
        "noteNumber": 44,
        "velocity": 127,
        "subtype": "noteOn"
      },
      {
        "deltaTime": 480,
        "channel": 2,
        "type": "channel",
        "noteNumber": 44,
        "velocity": 0,
        "subtype": "noteOff"
      },
      {
        "deltaTime": 0,
        "channel": 2,
        "type": "channel",
        "noteNumber": 51,
        "velocity": 0,
        "subtype": "noteOff"
      },
      {
        "deltaTime": 0,
        "channel": 2,
        "type": "channel",
        "noteNumber": 51,
        "velocity": 127,
        "subtype": "noteOn"
      },
      {
        "deltaTime": 0,
        "channel": 2,
        "type": "channel",
        "noteNumber": 44,
        "velocity": 127,
        "subtype": "noteOn"
      },
      {
        "deltaTime": 480,
        "channel": 2,
        "type": "channel",
        "noteNumber": 44,
        "velocity": 0,
        "subtype": "noteOff"
      },
      {
        "deltaTime": 0,
        "channel": 2,
        "type": "channel",
        "noteNumber": 51,
        "velocity": 0,
        "subtype": "noteOff"
      },
      {
        "deltaTime": 0,
        "channel": 2,
        "type": "channel",
        "noteNumber": 51,
        "velocity": 127,
        "subtype": "noteOn"
      },
      {
        "deltaTime": 0,
        "channel": 2,
        "type": "channel",
        "noteNumber": 44,
        "velocity": 127,
        "subtype": "noteOn"
      },
      {
        "deltaTime": 480,
        "channel": 2,
        "type": "channel",
        "noteNumber": 44,
        "velocity": 0,
        "subtype": "noteOff"
      },
      {
        "deltaTime": 0,
        "channel": 2,
        "type": "channel",
        "noteNumber": 51,
        "velocity": 0,
        "subtype": "noteOff"
      },
      {
        "deltaTime": 0,
        "channel": 2,
        "type": "channel",
        "noteNumber": 51,
        "velocity": 127,
        "subtype": "noteOn"
      },
      {
        "deltaTime": 0,
        "channel": 2,
        "type": "channel",
        "noteNumber": 44,
        "velocity": 127,
        "subtype": "noteOn"
      },
      {
        "deltaTime": 480,
        "channel": 2,
        "type": "channel",
        "noteNumber": 44,
        "velocity": 0,
        "subtype": "noteOff"
      },
      {
        "deltaTime": 0,
        "channel": 2,
        "type": "channel",
        "noteNumber": 51,
        "velocity": 0,
        "subtype": "noteOff"
      },
      {
        "deltaTime": 0,
        "channel": 2,
        "type": "channel",
        "noteNumber": 51,
        "velocity": 127,
        "subtype": "noteOn"
      },
      {
        "deltaTime": 0,
        "channel": 2,
        "type": "channel",
        "noteNumber": 44,
        "velocity": 127,
        "subtype": "noteOn"
      },
      {
        "deltaTime": 480,
        "channel": 2,
        "type": "channel",
        "noteNumber": 44,
        "velocity": 0,
        "subtype": "noteOff"
      },
      {
        "deltaTime": 0,
        "channel": 2,
        "type": "channel",
        "noteNumber": 51,
        "velocity": 0,
        "subtype": "noteOff"
      },
      {
        "deltaTime": 0,
        "channel": 2,
        "type": "channel",
        "noteNumber": 51,
        "velocity": 127,
        "subtype": "noteOn"
      },
      {
        "deltaTime": 0,
        "channel": 2,
        "type": "channel",
        "noteNumber": 44,
        "velocity": 127,
        "subtype": "noteOn"
      },
      {
        "deltaTime": 480,
        "channel": 2,
        "type": "channel",
        "noteNumber": 44,
        "velocity": 0,
        "subtype": "noteOff"
      },
      {
        "deltaTime": 0,
        "channel": 2,
        "type": "channel",
        "noteNumber": 51,
        "velocity": 0,
        "subtype": "noteOff"
      },
      {
        "deltaTime": 0,
        "channel": 2,
        "type": "channel",
        "noteNumber": 58,
        "velocity": 127,
        "subtype": "noteOn"
      },
      {
        "deltaTime": 0,
        "channel": 2,
        "type": "channel",
        "noteNumber": 51,
        "velocity": 127,
        "subtype": "noteOn"
      },
      {
        "deltaTime": 0,
        "channel": 2,
        "type": "channel",
        "noteNumber": 46,
        "velocity": 127,
        "subtype": "noteOn"
      },
      {
        "deltaTime": 0,
        "channel": 2,
        "type": "channel",
        "noteNumber": 39,
        "velocity": 127,
        "subtype": "noteOn"
      },
      {
        "deltaTime": 480,
        "channel": 2,
        "type": "channel",
        "noteNumber": 39,
        "velocity": 0,
        "subtype": "noteOff"
      },
      {
        "deltaTime": 0,
        "channel": 2,
        "type": "channel",
        "noteNumber": 58,
        "velocity": 0,
        "subtype": "noteOff"
      },
      {
        "deltaTime": 0,
        "channel": 2,
        "type": "channel",
        "noteNumber": 51,
        "velocity": 0,
        "subtype": "noteOff"
      },
      {
        "deltaTime": 0,
        "channel": 2,
        "type": "channel",
        "noteNumber": 46,
        "velocity": 0,
        "subtype": "noteOff"
      },
      {
        "deltaTime": 0,
        "channel": 2,
        "type": "channel",
        "noteNumber": 58,
        "velocity": 127,
        "subtype": "noteOn"
      },
      {
        "deltaTime": 0,
        "channel": 2,
        "type": "channel",
        "noteNumber": 51,
        "velocity": 127,
        "subtype": "noteOn"
      },
      {
        "deltaTime": 0,
        "channel": 2,
        "type": "channel",
        "noteNumber": 46,
        "velocity": 127,
        "subtype": "noteOn"
      },
      {
        "deltaTime": 0,
        "channel": 2,
        "type": "channel",
        "noteNumber": 39,
        "velocity": 127,
        "subtype": "noteOn"
      },
      {
        "deltaTime": 480,
        "channel": 2,
        "type": "channel",
        "noteNumber": 39,
        "velocity": 0,
        "subtype": "noteOff"
      },
      {
        "deltaTime": 0,
        "channel": 2,
        "type": "channel",
        "noteNumber": 58,
        "velocity": 0,
        "subtype": "noteOff"
      },
      {
        "deltaTime": 0,
        "channel": 2,
        "type": "channel",
        "noteNumber": 51,
        "velocity": 0,
        "subtype": "noteOff"
      },
      {
        "deltaTime": 0,
        "channel": 2,
        "type": "channel",
        "noteNumber": 46,
        "velocity": 0,
        "subtype": "noteOff"
      },
      {
        "deltaTime": 0,
        "channel": 2,
        "type": "channel",
        "noteNumber": 58,
        "velocity": 127,
        "subtype": "noteOn"
      },
      {
        "deltaTime": 0,
        "channel": 2,
        "type": "channel",
        "noteNumber": 51,
        "velocity": 127,
        "subtype": "noteOn"
      },
      {
        "deltaTime": 0,
        "channel": 2,
        "type": "channel",
        "noteNumber": 46,
        "velocity": 127,
        "subtype": "noteOn"
      },
      {
        "deltaTime": 0,
        "channel": 2,
        "type": "channel",
        "noteNumber": 39,
        "velocity": 127,
        "subtype": "noteOn"
      },
      {
        "deltaTime": 480,
        "channel": 2,
        "type": "channel",
        "noteNumber": 39,
        "velocity": 0,
        "subtype": "noteOff"
      },
      {
        "deltaTime": 0,
        "channel": 2,
        "type": "channel",
        "noteNumber": 58,
        "velocity": 0,
        "subtype": "noteOff"
      },
      {
        "deltaTime": 0,
        "channel": 2,
        "type": "channel",
        "noteNumber": 51,
        "velocity": 0,
        "subtype": "noteOff"
      },
      {
        "deltaTime": 0,
        "channel": 2,
        "type": "channel",
        "noteNumber": 46,
        "velocity": 0,
        "subtype": "noteOff"
      },
      {
        "deltaTime": 0,
        "channel": 2,
        "type": "channel",
        "noteNumber": 58,
        "velocity": 127,
        "subtype": "noteOn"
      },
      {
        "deltaTime": 0,
        "channel": 2,
        "type": "channel",
        "noteNumber": 51,
        "velocity": 127,
        "subtype": "noteOn"
      },
      {
        "deltaTime": 0,
        "channel": 2,
        "type": "channel",
        "noteNumber": 46,
        "velocity": 127,
        "subtype": "noteOn"
      },
      {
        "deltaTime": 0,
        "channel": 2,
        "type": "channel",
        "noteNumber": 39,
        "velocity": 127,
        "subtype": "noteOn"
      },
      {
        "deltaTime": 480,
        "channel": 2,
        "type": "channel",
        "noteNumber": 39,
        "velocity": 0,
        "subtype": "noteOff"
      },
      {
        "deltaTime": 0,
        "channel": 2,
        "type": "channel",
        "noteNumber": 58,
        "velocity": 0,
        "subtype": "noteOff"
      },
      {
        "deltaTime": 0,
        "channel": 2,
        "type": "channel",
        "noteNumber": 51,
        "velocity": 0,
        "subtype": "noteOff"
      },
      {
        "deltaTime": 0,
        "channel": 2,
        "type": "channel",
        "noteNumber": 46,
        "velocity": 0,
        "subtype": "noteOff"
      },
      {
        "deltaTime": 0,
        "channel": 2,
        "type": "channel",
        "noteNumber": 58,
        "velocity": 127,
        "subtype": "noteOn"
      },
      {
        "deltaTime": 0,
        "channel": 2,
        "type": "channel",
        "noteNumber": 51,
        "velocity": 127,
        "subtype": "noteOn"
      },
      {
        "deltaTime": 0,
        "channel": 2,
        "type": "channel",
        "noteNumber": 46,
        "velocity": 127,
        "subtype": "noteOn"
      },
      {
        "deltaTime": 0,
        "channel": 2,
        "type": "channel",
        "noteNumber": 39,
        "velocity": 127,
        "subtype": "noteOn"
      },
      {
        "deltaTime": 480,
        "channel": 2,
        "type": "channel",
        "noteNumber": 39,
        "velocity": 0,
        "subtype": "noteOff"
      },
      {
        "deltaTime": 0,
        "channel": 2,
        "type": "channel",
        "noteNumber": 58,
        "velocity": 0,
        "subtype": "noteOff"
      },
      {
        "deltaTime": 0,
        "channel": 2,
        "type": "channel",
        "noteNumber": 51,
        "velocity": 0,
        "subtype": "noteOff"
      },
      {
        "deltaTime": 0,
        "channel": 2,
        "type": "channel",
        "noteNumber": 46,
        "velocity": 0,
        "subtype": "noteOff"
      },
      {
        "deltaTime": 0,
        "channel": 2,
        "type": "channel",
        "noteNumber": 58,
        "velocity": 127,
        "subtype": "noteOn"
      },
      {
        "deltaTime": 0,
        "channel": 2,
        "type": "channel",
        "noteNumber": 51,
        "velocity": 127,
        "subtype": "noteOn"
      },
      {
        "deltaTime": 0,
        "channel": 2,
        "type": "channel",
        "noteNumber": 46,
        "velocity": 127,
        "subtype": "noteOn"
      },
      {
        "deltaTime": 0,
        "channel": 2,
        "type": "channel",
        "noteNumber": 39,
        "velocity": 127,
        "subtype": "noteOn"
      },
      {
        "deltaTime": 480,
        "channel": 2,
        "type": "channel",
        "noteNumber": 39,
        "velocity": 0,
        "subtype": "noteOff"
      },
      {
        "deltaTime": 0,
        "channel": 2,
        "type": "channel",
        "noteNumber": 58,
        "velocity": 0,
        "subtype": "noteOff"
      },
      {
        "deltaTime": 0,
        "channel": 2,
        "type": "channel",
        "noteNumber": 51,
        "velocity": 0,
        "subtype": "noteOff"
      },
      {
        "deltaTime": 0,
        "channel": 2,
        "type": "channel",
        "noteNumber": 46,
        "velocity": 0,
        "subtype": "noteOff"
      },
      {
        "deltaTime": 0,
        "channel": 2,
        "type": "channel",
        "noteNumber": 58,
        "velocity": 127,
        "subtype": "noteOn"
      },
      {
        "deltaTime": 0,
        "channel": 2,
        "type": "channel",
        "noteNumber": 51,
        "velocity": 127,
        "subtype": "noteOn"
      },
      {
        "deltaTime": 0,
        "channel": 2,
        "type": "channel",
        "noteNumber": 46,
        "velocity": 127,
        "subtype": "noteOn"
      },
      {
        "deltaTime": 0,
        "channel": 2,
        "type": "channel",
        "noteNumber": 39,
        "velocity": 127,
        "subtype": "noteOn"
      },
      {
        "deltaTime": 480,
        "channel": 2,
        "type": "channel",
        "noteNumber": 39,
        "velocity": 0,
        "subtype": "noteOff"
      },
      {
        "deltaTime": 0,
        "channel": 2,
        "type": "channel",
        "noteNumber": 58,
        "velocity": 0,
        "subtype": "noteOff"
      },
      {
        "deltaTime": 0,
        "channel": 2,
        "type": "channel",
        "noteNumber": 51,
        "velocity": 0,
        "subtype": "noteOff"
      },
      {
        "deltaTime": 0,
        "channel": 2,
        "type": "channel",
        "noteNumber": 46,
        "velocity": 0,
        "subtype": "noteOff"
      },
      {
        "deltaTime": 0,
        "channel": 2,
        "type": "channel",
        "noteNumber": 58,
        "velocity": 127,
        "subtype": "noteOn"
      },
      {
        "deltaTime": 0,
        "channel": 2,
        "type": "channel",
        "noteNumber": 51,
        "velocity": 127,
        "subtype": "noteOn"
      },
      {
        "deltaTime": 0,
        "channel": 2,
        "type": "channel",
        "noteNumber": 46,
        "velocity": 127,
        "subtype": "noteOn"
      },
      {
        "deltaTime": 0,
        "channel": 2,
        "type": "channel",
        "noteNumber": 39,
        "velocity": 127,
        "subtype": "noteOn"
      },
      {
        "deltaTime": 480,
        "channel": 2,
        "type": "channel",
        "noteNumber": 39,
        "velocity": 0,
        "subtype": "noteOff"
      },
      {
        "deltaTime": 0,
        "channel": 2,
        "type": "channel",
        "noteNumber": 58,
        "velocity": 0,
        "subtype": "noteOff"
      },
      {
        "deltaTime": 0,
        "channel": 2,
        "type": "channel",
        "noteNumber": 51,
        "velocity": 0,
        "subtype": "noteOff"
      },
      {
        "deltaTime": 0,
        "channel": 2,
        "type": "channel",
        "noteNumber": 46,
        "velocity": 0,
        "subtype": "noteOff"
      },
      {
        "deltaTime": 0,
        "channel": 2,
        "type": "channel",
        "noteNumber": 63,
        "velocity": 127,
        "subtype": "noteOn"
      },
      {
        "deltaTime": 0,
        "channel": 2,
        "type": "channel",
        "noteNumber": 55,
        "velocity": 127,
        "subtype": "noteOn"
      },
      {
        "deltaTime": 0,
        "channel": 2,
        "type": "channel",
        "noteNumber": 48,
        "velocity": 127,
        "subtype": "noteOn"
      },
      {
        "deltaTime": 480,
        "channel": 2,
        "type": "channel",
        "noteNumber": 48,
        "velocity": 0,
        "subtype": "noteOff"
      },
      {
        "deltaTime": 0,
        "channel": 2,
        "type": "channel",
        "noteNumber": 55,
        "velocity": 0,
        "subtype": "noteOff"
      },
      {
        "deltaTime": 0,
        "channel": 2,
        "type": "channel",
        "noteNumber": 63,
        "velocity": 0,
        "subtype": "noteOff"
      },
      {
        "deltaTime": 0,
        "channel": 2,
        "type": "channel",
        "noteNumber": 63,
        "velocity": 127,
        "subtype": "noteOn"
      },
      {
        "deltaTime": 0,
        "channel": 2,
        "type": "channel",
        "noteNumber": 55,
        "velocity": 127,
        "subtype": "noteOn"
      },
      {
        "deltaTime": 0,
        "channel": 2,
        "type": "channel",
        "noteNumber": 48,
        "velocity": 127,
        "subtype": "noteOn"
      },
      {
        "deltaTime": 480,
        "channel": 2,
        "type": "channel",
        "noteNumber": 48,
        "velocity": 0,
        "subtype": "noteOff"
      },
      {
        "deltaTime": 0,
        "channel": 2,
        "type": "channel",
        "noteNumber": 55,
        "velocity": 0,
        "subtype": "noteOff"
      },
      {
        "deltaTime": 0,
        "channel": 2,
        "type": "channel",
        "noteNumber": 63,
        "velocity": 0,
        "subtype": "noteOff"
      },
      {
        "deltaTime": 0,
        "channel": 2,
        "type": "channel",
        "noteNumber": 63,
        "velocity": 127,
        "subtype": "noteOn"
      },
      {
        "deltaTime": 0,
        "channel": 2,
        "type": "channel",
        "noteNumber": 55,
        "velocity": 127,
        "subtype": "noteOn"
      },
      {
        "deltaTime": 0,
        "channel": 2,
        "type": "channel",
        "noteNumber": 48,
        "velocity": 127,
        "subtype": "noteOn"
      },
      {
        "deltaTime": 480,
        "channel": 2,
        "type": "channel",
        "noteNumber": 48,
        "velocity": 0,
        "subtype": "noteOff"
      },
      {
        "deltaTime": 0,
        "channel": 2,
        "type": "channel",
        "noteNumber": 55,
        "velocity": 0,
        "subtype": "noteOff"
      },
      {
        "deltaTime": 0,
        "channel": 2,
        "type": "channel",
        "noteNumber": 63,
        "velocity": 0,
        "subtype": "noteOff"
      },
      {
        "deltaTime": 0,
        "channel": 2,
        "type": "channel",
        "noteNumber": 63,
        "velocity": 127,
        "subtype": "noteOn"
      },
      {
        "deltaTime": 0,
        "channel": 2,
        "type": "channel",
        "noteNumber": 55,
        "velocity": 127,
        "subtype": "noteOn"
      },
      {
        "deltaTime": 0,
        "channel": 2,
        "type": "channel",
        "noteNumber": 48,
        "velocity": 127,
        "subtype": "noteOn"
      },
      {
        "deltaTime": 480,
        "channel": 2,
        "type": "channel",
        "noteNumber": 48,
        "velocity": 0,
        "subtype": "noteOff"
      },
      {
        "deltaTime": 0,
        "channel": 2,
        "type": "channel",
        "noteNumber": 55,
        "velocity": 0,
        "subtype": "noteOff"
      },
      {
        "deltaTime": 0,
        "channel": 2,
        "type": "channel",
        "noteNumber": 63,
        "velocity": 0,
        "subtype": "noteOff"
      },
      {
        "deltaTime": 0,
        "channel": 2,
        "type": "channel",
        "noteNumber": 63,
        "velocity": 127,
        "subtype": "noteOn"
      },
      {
        "deltaTime": 0,
        "channel": 2,
        "type": "channel",
        "noteNumber": 55,
        "velocity": 127,
        "subtype": "noteOn"
      },
      {
        "deltaTime": 0,
        "channel": 2,
        "type": "channel",
        "noteNumber": 48,
        "velocity": 127,
        "subtype": "noteOn"
      },
      {
        "deltaTime": 480,
        "channel": 2,
        "type": "channel",
        "noteNumber": 48,
        "velocity": 0,
        "subtype": "noteOff"
      },
      {
        "deltaTime": 0,
        "channel": 2,
        "type": "channel",
        "noteNumber": 55,
        "velocity": 0,
        "subtype": "noteOff"
      },
      {
        "deltaTime": 0,
        "channel": 2,
        "type": "channel",
        "noteNumber": 63,
        "velocity": 0,
        "subtype": "noteOff"
      },
      {
        "deltaTime": 0,
        "channel": 2,
        "type": "channel",
        "noteNumber": 63,
        "velocity": 127,
        "subtype": "noteOn"
      },
      {
        "deltaTime": 0,
        "channel": 2,
        "type": "channel",
        "noteNumber": 55,
        "velocity": 127,
        "subtype": "noteOn"
      },
      {
        "deltaTime": 0,
        "channel": 2,
        "type": "channel",
        "noteNumber": 48,
        "velocity": 127,
        "subtype": "noteOn"
      },
      {
        "deltaTime": 480,
        "channel": 2,
        "type": "channel",
        "noteNumber": 48,
        "velocity": 0,
        "subtype": "noteOff"
      },
      {
        "deltaTime": 0,
        "channel": 2,
        "type": "channel",
        "noteNumber": 55,
        "velocity": 0,
        "subtype": "noteOff"
      },
      {
        "deltaTime": 0,
        "channel": 2,
        "type": "channel",
        "noteNumber": 63,
        "velocity": 0,
        "subtype": "noteOff"
      },
      {
        "deltaTime": 0,
        "channel": 2,
        "type": "channel",
        "noteNumber": 63,
        "velocity": 127,
        "subtype": "noteOn"
      },
      {
        "deltaTime": 0,
        "channel": 2,
        "type": "channel",
        "noteNumber": 55,
        "velocity": 127,
        "subtype": "noteOn"
      },
      {
        "deltaTime": 0,
        "channel": 2,
        "type": "channel",
        "noteNumber": 48,
        "velocity": 127,
        "subtype": "noteOn"
      },
      {
        "deltaTime": 480,
        "channel": 2,
        "type": "channel",
        "noteNumber": 48,
        "velocity": 0,
        "subtype": "noteOff"
      },
      {
        "deltaTime": 0,
        "channel": 2,
        "type": "channel",
        "noteNumber": 55,
        "velocity": 0,
        "subtype": "noteOff"
      },
      {
        "deltaTime": 0,
        "channel": 2,
        "type": "channel",
        "noteNumber": 63,
        "velocity": 0,
        "subtype": "noteOff"
      },
      {
        "deltaTime": 0,
        "channel": 2,
        "type": "channel",
        "noteNumber": 63,
        "velocity": 127,
        "subtype": "noteOn"
      },
      {
        "deltaTime": 0,
        "channel": 2,
        "type": "channel",
        "noteNumber": 55,
        "velocity": 127,
        "subtype": "noteOn"
      },
      {
        "deltaTime": 0,
        "channel": 2,
        "type": "channel",
        "noteNumber": 48,
        "velocity": 127,
        "subtype": "noteOn"
      },
      {
        "deltaTime": 480,
        "channel": 2,
        "type": "channel",
        "noteNumber": 48,
        "velocity": 0,
        "subtype": "noteOff"
      },
      {
        "deltaTime": 0,
        "channel": 2,
        "type": "channel",
        "noteNumber": 55,
        "velocity": 0,
        "subtype": "noteOff"
      },
      {
        "deltaTime": 0,
        "channel": 2,
        "type": "channel",
        "noteNumber": 63,
        "velocity": 0,
        "subtype": "noteOff"
      },
      {
        "deltaTime": 0,
        "channel": 2,
        "type": "channel",
        "noteNumber": 65,
        "velocity": 127,
        "subtype": "noteOn"
      },
      {
        "deltaTime": 0,
        "channel": 2,
        "type": "channel",
        "noteNumber": 58,
        "velocity": 127,
        "subtype": "noteOn"
      },
      {
        "deltaTime": 0,
        "channel": 2,
        "type": "channel",
        "noteNumber": 53,
        "velocity": 127,
        "subtype": "noteOn"
      },
      {
        "deltaTime": 0,
        "channel": 2,
        "type": "channel",
        "noteNumber": 46,
        "velocity": 127,
        "subtype": "noteOn"
      },
      {
        "deltaTime": 480,
        "channel": 2,
        "type": "channel",
        "noteNumber": 46,
        "velocity": 0,
        "subtype": "noteOff"
      },
      {
        "deltaTime": 0,
        "channel": 2,
        "type": "channel",
        "noteNumber": 65,
        "velocity": 0,
        "subtype": "noteOff"
      },
      {
        "deltaTime": 0,
        "channel": 2,
        "type": "channel",
        "noteNumber": 58,
        "velocity": 0,
        "subtype": "noteOff"
      },
      {
        "deltaTime": 0,
        "channel": 2,
        "type": "channel",
        "noteNumber": 53,
        "velocity": 0,
        "subtype": "noteOff"
      },
      {
        "deltaTime": 0,
        "channel": 2,
        "type": "channel",
        "noteNumber": 65,
        "velocity": 127,
        "subtype": "noteOn"
      },
      {
        "deltaTime": 0,
        "channel": 2,
        "type": "channel",
        "noteNumber": 58,
        "velocity": 127,
        "subtype": "noteOn"
      },
      {
        "deltaTime": 0,
        "channel": 2,
        "type": "channel",
        "noteNumber": 53,
        "velocity": 127,
        "subtype": "noteOn"
      },
      {
        "deltaTime": 0,
        "channel": 2,
        "type": "channel",
        "noteNumber": 46,
        "velocity": 127,
        "subtype": "noteOn"
      },
      {
        "deltaTime": 480,
        "channel": 2,
        "type": "channel",
        "noteNumber": 46,
        "velocity": 0,
        "subtype": "noteOff"
      },
      {
        "deltaTime": 0,
        "channel": 2,
        "type": "channel",
        "noteNumber": 65,
        "velocity": 0,
        "subtype": "noteOff"
      },
      {
        "deltaTime": 0,
        "channel": 2,
        "type": "channel",
        "noteNumber": 58,
        "velocity": 0,
        "subtype": "noteOff"
      },
      {
        "deltaTime": 0,
        "channel": 2,
        "type": "channel",
        "noteNumber": 53,
        "velocity": 0,
        "subtype": "noteOff"
      },
      {
        "deltaTime": 0,
        "channel": 2,
        "type": "channel",
        "noteNumber": 65,
        "velocity": 127,
        "subtype": "noteOn"
      },
      {
        "deltaTime": 0,
        "channel": 2,
        "type": "channel",
        "noteNumber": 58,
        "velocity": 127,
        "subtype": "noteOn"
      },
      {
        "deltaTime": 0,
        "channel": 2,
        "type": "channel",
        "noteNumber": 53,
        "velocity": 127,
        "subtype": "noteOn"
      },
      {
        "deltaTime": 0,
        "channel": 2,
        "type": "channel",
        "noteNumber": 46,
        "velocity": 127,
        "subtype": "noteOn"
      },
      {
        "deltaTime": 480,
        "channel": 2,
        "type": "channel",
        "noteNumber": 46,
        "velocity": 0,
        "subtype": "noteOff"
      },
      {
        "deltaTime": 0,
        "channel": 2,
        "type": "channel",
        "noteNumber": 65,
        "velocity": 0,
        "subtype": "noteOff"
      },
      {
        "deltaTime": 0,
        "channel": 2,
        "type": "channel",
        "noteNumber": 58,
        "velocity": 0,
        "subtype": "noteOff"
      },
      {
        "deltaTime": 0,
        "channel": 2,
        "type": "channel",
        "noteNumber": 53,
        "velocity": 0,
        "subtype": "noteOff"
      },
      {
        "deltaTime": 0,
        "channel": 2,
        "type": "channel",
        "noteNumber": 65,
        "velocity": 127,
        "subtype": "noteOn"
      },
      {
        "deltaTime": 0,
        "channel": 2,
        "type": "channel",
        "noteNumber": 58,
        "velocity": 127,
        "subtype": "noteOn"
      },
      {
        "deltaTime": 0,
        "channel": 2,
        "type": "channel",
        "noteNumber": 53,
        "velocity": 127,
        "subtype": "noteOn"
      },
      {
        "deltaTime": 0,
        "channel": 2,
        "type": "channel",
        "noteNumber": 46,
        "velocity": 127,
        "subtype": "noteOn"
      },
      {
        "deltaTime": 480,
        "channel": 2,
        "type": "channel",
        "noteNumber": 46,
        "velocity": 0,
        "subtype": "noteOff"
      },
      {
        "deltaTime": 0,
        "channel": 2,
        "type": "channel",
        "noteNumber": 65,
        "velocity": 0,
        "subtype": "noteOff"
      },
      {
        "deltaTime": 0,
        "channel": 2,
        "type": "channel",
        "noteNumber": 58,
        "velocity": 0,
        "subtype": "noteOff"
      },
      {
        "deltaTime": 0,
        "channel": 2,
        "type": "channel",
        "noteNumber": 53,
        "velocity": 0,
        "subtype": "noteOff"
      },
      {
        "deltaTime": 0,
        "channel": 2,
        "type": "channel",
        "noteNumber": 65,
        "velocity": 127,
        "subtype": "noteOn"
      },
      {
        "deltaTime": 0,
        "channel": 2,
        "type": "channel",
        "noteNumber": 58,
        "velocity": 127,
        "subtype": "noteOn"
      },
      {
        "deltaTime": 0,
        "channel": 2,
        "type": "channel",
        "noteNumber": 53,
        "velocity": 127,
        "subtype": "noteOn"
      },
      {
        "deltaTime": 0,
        "channel": 2,
        "type": "channel",
        "noteNumber": 46,
        "velocity": 127,
        "subtype": "noteOn"
      },
      {
        "deltaTime": 480,
        "channel": 2,
        "type": "channel",
        "noteNumber": 46,
        "velocity": 0,
        "subtype": "noteOff"
      },
      {
        "deltaTime": 0,
        "channel": 2,
        "type": "channel",
        "noteNumber": 65,
        "velocity": 0,
        "subtype": "noteOff"
      },
      {
        "deltaTime": 0,
        "channel": 2,
        "type": "channel",
        "noteNumber": 58,
        "velocity": 0,
        "subtype": "noteOff"
      },
      {
        "deltaTime": 0,
        "channel": 2,
        "type": "channel",
        "noteNumber": 53,
        "velocity": 0,
        "subtype": "noteOff"
      },
      {
        "deltaTime": 0,
        "channel": 2,
        "type": "channel",
        "noteNumber": 65,
        "velocity": 127,
        "subtype": "noteOn"
      },
      {
        "deltaTime": 0,
        "channel": 2,
        "type": "channel",
        "noteNumber": 58,
        "velocity": 127,
        "subtype": "noteOn"
      },
      {
        "deltaTime": 0,
        "channel": 2,
        "type": "channel",
        "noteNumber": 53,
        "velocity": 127,
        "subtype": "noteOn"
      },
      {
        "deltaTime": 0,
        "channel": 2,
        "type": "channel",
        "noteNumber": 46,
        "velocity": 127,
        "subtype": "noteOn"
      },
      {
        "deltaTime": 480,
        "channel": 2,
        "type": "channel",
        "noteNumber": 46,
        "velocity": 0,
        "subtype": "noteOff"
      },
      {
        "deltaTime": 0,
        "channel": 2,
        "type": "channel",
        "noteNumber": 65,
        "velocity": 0,
        "subtype": "noteOff"
      },
      {
        "deltaTime": 0,
        "channel": 2,
        "type": "channel",
        "noteNumber": 58,
        "velocity": 0,
        "subtype": "noteOff"
      },
      {
        "deltaTime": 0,
        "channel": 2,
        "type": "channel",
        "noteNumber": 53,
        "velocity": 0,
        "subtype": "noteOff"
      },
      {
        "deltaTime": 0,
        "channel": 2,
        "type": "channel",
        "noteNumber": 65,
        "velocity": 127,
        "subtype": "noteOn"
      },
      {
        "deltaTime": 0,
        "channel": 2,
        "type": "channel",
        "noteNumber": 58,
        "velocity": 127,
        "subtype": "noteOn"
      },
      {
        "deltaTime": 0,
        "channel": 2,
        "type": "channel",
        "noteNumber": 53,
        "velocity": 127,
        "subtype": "noteOn"
      },
      {
        "deltaTime": 0,
        "channel": 2,
        "type": "channel",
        "noteNumber": 46,
        "velocity": 127,
        "subtype": "noteOn"
      },
      {
        "deltaTime": 480,
        "channel": 2,
        "type": "channel",
        "noteNumber": 46,
        "velocity": 0,
        "subtype": "noteOff"
      },
      {
        "deltaTime": 0,
        "channel": 2,
        "type": "channel",
        "noteNumber": 65,
        "velocity": 0,
        "subtype": "noteOff"
      },
      {
        "deltaTime": 0,
        "channel": 2,
        "type": "channel",
        "noteNumber": 58,
        "velocity": 0,
        "subtype": "noteOff"
      },
      {
        "deltaTime": 0,
        "channel": 2,
        "type": "channel",
        "noteNumber": 53,
        "velocity": 0,
        "subtype": "noteOff"
      },
      {
        "deltaTime": 0,
        "channel": 2,
        "type": "channel",
        "noteNumber": 65,
        "velocity": 127,
        "subtype": "noteOn"
      },
      {
        "deltaTime": 0,
        "channel": 2,
        "type": "channel",
        "noteNumber": 58,
        "velocity": 127,
        "subtype": "noteOn"
      },
      {
        "deltaTime": 0,
        "channel": 2,
        "type": "channel",
        "noteNumber": 53,
        "velocity": 127,
        "subtype": "noteOn"
      },
      {
        "deltaTime": 0,
        "channel": 2,
        "type": "channel",
        "noteNumber": 46,
        "velocity": 127,
        "subtype": "noteOn"
      },
      {
        "deltaTime": 480,
        "channel": 2,
        "type": "channel",
        "noteNumber": 46,
        "velocity": 0,
        "subtype": "noteOff"
      },
      {
        "deltaTime": 0,
        "channel": 2,
        "type": "channel",
        "noteNumber": 65,
        "velocity": 0,
        "subtype": "noteOff"
      },
      {
        "deltaTime": 0,
        "channel": 2,
        "type": "channel",
        "noteNumber": 58,
        "velocity": 0,
        "subtype": "noteOff"
      },
      {
        "deltaTime": 0,
        "channel": 2,
        "type": "channel",
        "noteNumber": 53,
        "velocity": 0,
        "subtype": "noteOff"
      },
      {
        "deltaTime": 0,
        "channel": 2,
        "type": "channel",
        "noteNumber": 63,
        "velocity": 127,
        "subtype": "noteOn"
      },
      {
        "deltaTime": 0,
        "channel": 2,
        "type": "channel",
        "noteNumber": 56,
        "velocity": 127,
        "subtype": "noteOn"
      },
      {
        "deltaTime": 0,
        "channel": 2,
        "type": "channel",
        "noteNumber": 51,
        "velocity": 127,
        "subtype": "noteOn"
      },
      {
        "deltaTime": 0,
        "channel": 2,
        "type": "channel",
        "noteNumber": 44,
        "velocity": 127,
        "subtype": "noteOn"
      },
      {
        "deltaTime": 480,
        "channel": 2,
        "type": "channel",
        "noteNumber": 44,
        "velocity": 0,
        "subtype": "noteOff"
      },
      {
        "deltaTime": 0,
        "channel": 2,
        "type": "channel",
        "noteNumber": 63,
        "velocity": 0,
        "subtype": "noteOff"
      },
      {
        "deltaTime": 0,
        "channel": 2,
        "type": "channel",
        "noteNumber": 56,
        "velocity": 0,
        "subtype": "noteOff"
      },
      {
        "deltaTime": 0,
        "channel": 2,
        "type": "channel",
        "noteNumber": 51,
        "velocity": 0,
        "subtype": "noteOff"
      },
      {
        "deltaTime": 0,
        "channel": 2,
        "type": "channel",
        "noteNumber": 63,
        "velocity": 127,
        "subtype": "noteOn"
      },
      {
        "deltaTime": 0,
        "channel": 2,
        "type": "channel",
        "noteNumber": 56,
        "velocity": 127,
        "subtype": "noteOn"
      },
      {
        "deltaTime": 0,
        "channel": 2,
        "type": "channel",
        "noteNumber": 51,
        "velocity": 127,
        "subtype": "noteOn"
      },
      {
        "deltaTime": 0,
        "channel": 2,
        "type": "channel",
        "noteNumber": 44,
        "velocity": 127,
        "subtype": "noteOn"
      },
      {
        "deltaTime": 480,
        "channel": 2,
        "type": "channel",
        "noteNumber": 44,
        "velocity": 0,
        "subtype": "noteOff"
      },
      {
        "deltaTime": 0,
        "channel": 2,
        "type": "channel",
        "noteNumber": 63,
        "velocity": 0,
        "subtype": "noteOff"
      },
      {
        "deltaTime": 0,
        "channel": 2,
        "type": "channel",
        "noteNumber": 56,
        "velocity": 0,
        "subtype": "noteOff"
      },
      {
        "deltaTime": 0,
        "channel": 2,
        "type": "channel",
        "noteNumber": 51,
        "velocity": 0,
        "subtype": "noteOff"
      },
      {
        "deltaTime": 0,
        "channel": 2,
        "type": "channel",
        "noteNumber": 63,
        "velocity": 127,
        "subtype": "noteOn"
      },
      {
        "deltaTime": 0,
        "channel": 2,
        "type": "channel",
        "noteNumber": 56,
        "velocity": 127,
        "subtype": "noteOn"
      },
      {
        "deltaTime": 0,
        "channel": 2,
        "type": "channel",
        "noteNumber": 51,
        "velocity": 127,
        "subtype": "noteOn"
      },
      {
        "deltaTime": 0,
        "channel": 2,
        "type": "channel",
        "noteNumber": 44,
        "velocity": 127,
        "subtype": "noteOn"
      },
      {
        "deltaTime": 480,
        "channel": 2,
        "type": "channel",
        "noteNumber": 44,
        "velocity": 0,
        "subtype": "noteOff"
      },
      {
        "deltaTime": 0,
        "channel": 2,
        "type": "channel",
        "noteNumber": 63,
        "velocity": 0,
        "subtype": "noteOff"
      },
      {
        "deltaTime": 0,
        "channel": 2,
        "type": "channel",
        "noteNumber": 56,
        "velocity": 0,
        "subtype": "noteOff"
      },
      {
        "deltaTime": 0,
        "channel": 2,
        "type": "channel",
        "noteNumber": 51,
        "velocity": 0,
        "subtype": "noteOff"
      },
      {
        "deltaTime": 0,
        "channel": 2,
        "type": "channel",
        "noteNumber": 63,
        "velocity": 127,
        "subtype": "noteOn"
      },
      {
        "deltaTime": 0,
        "channel": 2,
        "type": "channel",
        "noteNumber": 56,
        "velocity": 127,
        "subtype": "noteOn"
      },
      {
        "deltaTime": 0,
        "channel": 2,
        "type": "channel",
        "noteNumber": 51,
        "velocity": 127,
        "subtype": "noteOn"
      },
      {
        "deltaTime": 0,
        "channel": 2,
        "type": "channel",
        "noteNumber": 44,
        "velocity": 127,
        "subtype": "noteOn"
      },
      {
        "deltaTime": 480,
        "channel": 2,
        "type": "channel",
        "noteNumber": 44,
        "velocity": 0,
        "subtype": "noteOff"
      },
      {
        "deltaTime": 0,
        "channel": 2,
        "type": "channel",
        "noteNumber": 63,
        "velocity": 0,
        "subtype": "noteOff"
      },
      {
        "deltaTime": 0,
        "channel": 2,
        "type": "channel",
        "noteNumber": 56,
        "velocity": 0,
        "subtype": "noteOff"
      },
      {
        "deltaTime": 0,
        "channel": 2,
        "type": "channel",
        "noteNumber": 51,
        "velocity": 0,
        "subtype": "noteOff"
      },
      {
        "deltaTime": 0,
        "channel": 2,
        "type": "channel",
        "noteNumber": 63,
        "velocity": 127,
        "subtype": "noteOn"
      },
      {
        "deltaTime": 0,
        "channel": 2,
        "type": "channel",
        "noteNumber": 56,
        "velocity": 127,
        "subtype": "noteOn"
      },
      {
        "deltaTime": 0,
        "channel": 2,
        "type": "channel",
        "noteNumber": 51,
        "velocity": 127,
        "subtype": "noteOn"
      },
      {
        "deltaTime": 0,
        "channel": 2,
        "type": "channel",
        "noteNumber": 44,
        "velocity": 127,
        "subtype": "noteOn"
      },
      {
        "deltaTime": 480,
        "channel": 2,
        "type": "channel",
        "noteNumber": 44,
        "velocity": 0,
        "subtype": "noteOff"
      },
      {
        "deltaTime": 0,
        "channel": 2,
        "type": "channel",
        "noteNumber": 63,
        "velocity": 0,
        "subtype": "noteOff"
      },
      {
        "deltaTime": 0,
        "channel": 2,
        "type": "channel",
        "noteNumber": 56,
        "velocity": 0,
        "subtype": "noteOff"
      },
      {
        "deltaTime": 0,
        "channel": 2,
        "type": "channel",
        "noteNumber": 51,
        "velocity": 0,
        "subtype": "noteOff"
      },
      {
        "deltaTime": 0,
        "channel": 2,
        "type": "channel",
        "noteNumber": 63,
        "velocity": 127,
        "subtype": "noteOn"
      },
      {
        "deltaTime": 0,
        "channel": 2,
        "type": "channel",
        "noteNumber": 56,
        "velocity": 127,
        "subtype": "noteOn"
      },
      {
        "deltaTime": 0,
        "channel": 2,
        "type": "channel",
        "noteNumber": 51,
        "velocity": 127,
        "subtype": "noteOn"
      },
      {
        "deltaTime": 0,
        "channel": 2,
        "type": "channel",
        "noteNumber": 44,
        "velocity": 127,
        "subtype": "noteOn"
      },
      {
        "deltaTime": 480,
        "channel": 2,
        "type": "channel",
        "noteNumber": 44,
        "velocity": 0,
        "subtype": "noteOff"
      },
      {
        "deltaTime": 0,
        "channel": 2,
        "type": "channel",
        "noteNumber": 63,
        "velocity": 0,
        "subtype": "noteOff"
      },
      {
        "deltaTime": 0,
        "channel": 2,
        "type": "channel",
        "noteNumber": 56,
        "velocity": 0,
        "subtype": "noteOff"
      },
      {
        "deltaTime": 0,
        "channel": 2,
        "type": "channel",
        "noteNumber": 51,
        "velocity": 0,
        "subtype": "noteOff"
      },
      {
        "deltaTime": 0,
        "channel": 2,
        "type": "channel",
        "noteNumber": 63,
        "velocity": 127,
        "subtype": "noteOn"
      },
      {
        "deltaTime": 0,
        "channel": 2,
        "type": "channel",
        "noteNumber": 56,
        "velocity": 127,
        "subtype": "noteOn"
      },
      {
        "deltaTime": 0,
        "channel": 2,
        "type": "channel",
        "noteNumber": 51,
        "velocity": 127,
        "subtype": "noteOn"
      },
      {
        "deltaTime": 0,
        "channel": 2,
        "type": "channel",
        "noteNumber": 44,
        "velocity": 127,
        "subtype": "noteOn"
      },
      {
        "deltaTime": 480,
        "channel": 2,
        "type": "channel",
        "noteNumber": 44,
        "velocity": 0,
        "subtype": "noteOff"
      },
      {
        "deltaTime": 0,
        "channel": 2,
        "type": "channel",
        "noteNumber": 63,
        "velocity": 0,
        "subtype": "noteOff"
      },
      {
        "deltaTime": 0,
        "channel": 2,
        "type": "channel",
        "noteNumber": 56,
        "velocity": 0,
        "subtype": "noteOff"
      },
      {
        "deltaTime": 0,
        "channel": 2,
        "type": "channel",
        "noteNumber": 51,
        "velocity": 0,
        "subtype": "noteOff"
      },
      {
        "deltaTime": 0,
        "channel": 2,
        "type": "channel",
        "noteNumber": 63,
        "velocity": 127,
        "subtype": "noteOn"
      },
      {
        "deltaTime": 0,
        "channel": 2,
        "type": "channel",
        "noteNumber": 56,
        "velocity": 127,
        "subtype": "noteOn"
      },
      {
        "deltaTime": 0,
        "channel": 2,
        "type": "channel",
        "noteNumber": 51,
        "velocity": 127,
        "subtype": "noteOn"
      },
      {
        "deltaTime": 0,
        "channel": 2,
        "type": "channel",
        "noteNumber": 44,
        "velocity": 127,
        "subtype": "noteOn"
      },
      {
        "deltaTime": 480,
        "channel": 2,
        "type": "channel",
        "noteNumber": 44,
        "velocity": 0,
        "subtype": "noteOff"
      },
      {
        "deltaTime": 0,
        "channel": 2,
        "type": "channel",
        "noteNumber": 63,
        "velocity": 0,
        "subtype": "noteOff"
      },
      {
        "deltaTime": 0,
        "channel": 2,
        "type": "channel",
        "noteNumber": 56,
        "velocity": 0,
        "subtype": "noteOff"
      },
      {
        "deltaTime": 0,
        "channel": 2,
        "type": "channel",
        "noteNumber": 51,
        "velocity": 0,
        "subtype": "noteOff"
      },
      {
        "deltaTime": 0,
        "channel": 2,
        "type": "channel",
        "noteNumber": 58,
        "velocity": 127,
        "subtype": "noteOn"
      },
      {
        "deltaTime": 0,
        "channel": 2,
        "type": "channel",
        "noteNumber": 51,
        "velocity": 127,
        "subtype": "noteOn"
      },
      {
        "deltaTime": 0,
        "channel": 2,
        "type": "channel",
        "noteNumber": 46,
        "velocity": 127,
        "subtype": "noteOn"
      },
      {
        "deltaTime": 0,
        "channel": 2,
        "type": "channel",
        "noteNumber": 39,
        "velocity": 127,
        "subtype": "noteOn"
      },
      {
        "deltaTime": 480,
        "channel": 2,
        "type": "channel",
        "noteNumber": 39,
        "velocity": 0,
        "subtype": "noteOff"
      },
      {
        "deltaTime": 0,
        "channel": 2,
        "type": "channel",
        "noteNumber": 58,
        "velocity": 0,
        "subtype": "noteOff"
      },
      {
        "deltaTime": 0,
        "channel": 2,
        "type": "channel",
        "noteNumber": 51,
        "velocity": 0,
        "subtype": "noteOff"
      },
      {
        "deltaTime": 0,
        "channel": 2,
        "type": "channel",
        "noteNumber": 46,
        "velocity": 0,
        "subtype": "noteOff"
      },
      {
        "deltaTime": 0,
        "channel": 2,
        "type": "channel",
        "noteNumber": 58,
        "velocity": 127,
        "subtype": "noteOn"
      },
      {
        "deltaTime": 0,
        "channel": 2,
        "type": "channel",
        "noteNumber": 51,
        "velocity": 127,
        "subtype": "noteOn"
      },
      {
        "deltaTime": 0,
        "channel": 2,
        "type": "channel",
        "noteNumber": 46,
        "velocity": 127,
        "subtype": "noteOn"
      },
      {
        "deltaTime": 0,
        "channel": 2,
        "type": "channel",
        "noteNumber": 39,
        "velocity": 127,
        "subtype": "noteOn"
      },
      {
        "deltaTime": 480,
        "channel": 2,
        "type": "channel",
        "noteNumber": 39,
        "velocity": 0,
        "subtype": "noteOff"
      },
      {
        "deltaTime": 0,
        "channel": 2,
        "type": "channel",
        "noteNumber": 58,
        "velocity": 0,
        "subtype": "noteOff"
      },
      {
        "deltaTime": 0,
        "channel": 2,
        "type": "channel",
        "noteNumber": 51,
        "velocity": 0,
        "subtype": "noteOff"
      },
      {
        "deltaTime": 0,
        "channel": 2,
        "type": "channel",
        "noteNumber": 46,
        "velocity": 0,
        "subtype": "noteOff"
      },
      {
        "deltaTime": 0,
        "channel": 2,
        "type": "channel",
        "noteNumber": 58,
        "velocity": 127,
        "subtype": "noteOn"
      },
      {
        "deltaTime": 0,
        "channel": 2,
        "type": "channel",
        "noteNumber": 51,
        "velocity": 127,
        "subtype": "noteOn"
      },
      {
        "deltaTime": 0,
        "channel": 2,
        "type": "channel",
        "noteNumber": 46,
        "velocity": 127,
        "subtype": "noteOn"
      },
      {
        "deltaTime": 0,
        "channel": 2,
        "type": "channel",
        "noteNumber": 39,
        "velocity": 127,
        "subtype": "noteOn"
      },
      {
        "deltaTime": 480,
        "channel": 2,
        "type": "channel",
        "noteNumber": 39,
        "velocity": 0,
        "subtype": "noteOff"
      },
      {
        "deltaTime": 0,
        "channel": 2,
        "type": "channel",
        "noteNumber": 58,
        "velocity": 0,
        "subtype": "noteOff"
      },
      {
        "deltaTime": 0,
        "channel": 2,
        "type": "channel",
        "noteNumber": 51,
        "velocity": 0,
        "subtype": "noteOff"
      },
      {
        "deltaTime": 0,
        "channel": 2,
        "type": "channel",
        "noteNumber": 46,
        "velocity": 0,
        "subtype": "noteOff"
      },
      {
        "deltaTime": 0,
        "channel": 2,
        "type": "channel",
        "noteNumber": 58,
        "velocity": 127,
        "subtype": "noteOn"
      },
      {
        "deltaTime": 0,
        "channel": 2,
        "type": "channel",
        "noteNumber": 51,
        "velocity": 127,
        "subtype": "noteOn"
      },
      {
        "deltaTime": 0,
        "channel": 2,
        "type": "channel",
        "noteNumber": 46,
        "velocity": 127,
        "subtype": "noteOn"
      },
      {
        "deltaTime": 0,
        "channel": 2,
        "type": "channel",
        "noteNumber": 39,
        "velocity": 127,
        "subtype": "noteOn"
      },
      {
        "deltaTime": 480,
        "channel": 2,
        "type": "channel",
        "noteNumber": 39,
        "velocity": 0,
        "subtype": "noteOff"
      },
      {
        "deltaTime": 0,
        "channel": 2,
        "type": "channel",
        "noteNumber": 58,
        "velocity": 0,
        "subtype": "noteOff"
      },
      {
        "deltaTime": 0,
        "channel": 2,
        "type": "channel",
        "noteNumber": 51,
        "velocity": 0,
        "subtype": "noteOff"
      },
      {
        "deltaTime": 0,
        "channel": 2,
        "type": "channel",
        "noteNumber": 46,
        "velocity": 0,
        "subtype": "noteOff"
      },
      {
        "deltaTime": 0,
        "channel": 2,
        "type": "channel",
        "noteNumber": 58,
        "velocity": 127,
        "subtype": "noteOn"
      },
      {
        "deltaTime": 0,
        "channel": 2,
        "type": "channel",
        "noteNumber": 51,
        "velocity": 127,
        "subtype": "noteOn"
      },
      {
        "deltaTime": 0,
        "channel": 2,
        "type": "channel",
        "noteNumber": 46,
        "velocity": 127,
        "subtype": "noteOn"
      },
      {
        "deltaTime": 0,
        "channel": 2,
        "type": "channel",
        "noteNumber": 39,
        "velocity": 127,
        "subtype": "noteOn"
      },
      {
        "deltaTime": 480,
        "channel": 2,
        "type": "channel",
        "noteNumber": 39,
        "velocity": 0,
        "subtype": "noteOff"
      },
      {
        "deltaTime": 0,
        "channel": 2,
        "type": "channel",
        "noteNumber": 58,
        "velocity": 0,
        "subtype": "noteOff"
      },
      {
        "deltaTime": 0,
        "channel": 2,
        "type": "channel",
        "noteNumber": 51,
        "velocity": 0,
        "subtype": "noteOff"
      },
      {
        "deltaTime": 0,
        "channel": 2,
        "type": "channel",
        "noteNumber": 46,
        "velocity": 0,
        "subtype": "noteOff"
      },
      {
        "deltaTime": 0,
        "channel": 2,
        "type": "channel",
        "noteNumber": 58,
        "velocity": 127,
        "subtype": "noteOn"
      },
      {
        "deltaTime": 0,
        "channel": 2,
        "type": "channel",
        "noteNumber": 51,
        "velocity": 127,
        "subtype": "noteOn"
      },
      {
        "deltaTime": 0,
        "channel": 2,
        "type": "channel",
        "noteNumber": 46,
        "velocity": 127,
        "subtype": "noteOn"
      },
      {
        "deltaTime": 0,
        "channel": 2,
        "type": "channel",
        "noteNumber": 39,
        "velocity": 127,
        "subtype": "noteOn"
      },
      {
        "deltaTime": 480,
        "channel": 2,
        "type": "channel",
        "noteNumber": 39,
        "velocity": 0,
        "subtype": "noteOff"
      },
      {
        "deltaTime": 0,
        "channel": 2,
        "type": "channel",
        "noteNumber": 58,
        "velocity": 0,
        "subtype": "noteOff"
      },
      {
        "deltaTime": 0,
        "channel": 2,
        "type": "channel",
        "noteNumber": 51,
        "velocity": 0,
        "subtype": "noteOff"
      },
      {
        "deltaTime": 0,
        "channel": 2,
        "type": "channel",
        "noteNumber": 46,
        "velocity": 0,
        "subtype": "noteOff"
      },
      {
        "deltaTime": 0,
        "channel": 2,
        "type": "channel",
        "noteNumber": 58,
        "velocity": 127,
        "subtype": "noteOn"
      },
      {
        "deltaTime": 0,
        "channel": 2,
        "type": "channel",
        "noteNumber": 51,
        "velocity": 127,
        "subtype": "noteOn"
      },
      {
        "deltaTime": 0,
        "channel": 2,
        "type": "channel",
        "noteNumber": 46,
        "velocity": 127,
        "subtype": "noteOn"
      },
      {
        "deltaTime": 0,
        "channel": 2,
        "type": "channel",
        "noteNumber": 39,
        "velocity": 127,
        "subtype": "noteOn"
      },
      {
        "deltaTime": 480,
        "channel": 2,
        "type": "channel",
        "noteNumber": 39,
        "velocity": 0,
        "subtype": "noteOff"
      },
      {
        "deltaTime": 0,
        "channel": 2,
        "type": "channel",
        "noteNumber": 58,
        "velocity": 0,
        "subtype": "noteOff"
      },
      {
        "deltaTime": 0,
        "channel": 2,
        "type": "channel",
        "noteNumber": 51,
        "velocity": 0,
        "subtype": "noteOff"
      },
      {
        "deltaTime": 0,
        "channel": 2,
        "type": "channel",
        "noteNumber": 46,
        "velocity": 0,
        "subtype": "noteOff"
      },
      {
        "deltaTime": 0,
        "channel": 2,
        "type": "channel",
        "noteNumber": 58,
        "velocity": 127,
        "subtype": "noteOn"
      },
      {
        "deltaTime": 0,
        "channel": 2,
        "type": "channel",
        "noteNumber": 51,
        "velocity": 127,
        "subtype": "noteOn"
      },
      {
        "deltaTime": 0,
        "channel": 2,
        "type": "channel",
        "noteNumber": 46,
        "velocity": 127,
        "subtype": "noteOn"
      },
      {
        "deltaTime": 0,
        "channel": 2,
        "type": "channel",
        "noteNumber": 39,
        "velocity": 127,
        "subtype": "noteOn"
      },
      {
        "deltaTime": 480,
        "channel": 2,
        "type": "channel",
        "noteNumber": 39,
        "velocity": 0,
        "subtype": "noteOff"
      },
      {
        "deltaTime": 0,
        "channel": 2,
        "type": "channel",
        "noteNumber": 58,
        "velocity": 0,
        "subtype": "noteOff"
      },
      {
        "deltaTime": 0,
        "channel": 2,
        "type": "channel",
        "noteNumber": 51,
        "velocity": 0,
        "subtype": "noteOff"
      },
      {
        "deltaTime": 0,
        "channel": 2,
        "type": "channel",
        "noteNumber": 46,
        "velocity": 0,
        "subtype": "noteOff"
      },
      {
        "deltaTime": 0,
        "channel": 2,
        "type": "channel",
        "noteNumber": 65,
        "velocity": 127,
        "subtype": "noteOn"
      },
      {
        "deltaTime": 0,
        "channel": 2,
        "type": "channel",
        "noteNumber": 58,
        "velocity": 127,
        "subtype": "noteOn"
      },
      {
        "deltaTime": 0,
        "channel": 2,
        "type": "channel",
        "noteNumber": 53,
        "velocity": 127,
        "subtype": "noteOn"
      },
      {
        "deltaTime": 0,
        "channel": 2,
        "type": "channel",
        "noteNumber": 46,
        "velocity": 127,
        "subtype": "noteOn"
      },
      {
        "deltaTime": 480,
        "channel": 2,
        "type": "channel",
        "noteNumber": 46,
        "velocity": 0,
        "subtype": "noteOff"
      },
      {
        "deltaTime": 0,
        "channel": 2,
        "type": "channel",
        "noteNumber": 65,
        "velocity": 0,
        "subtype": "noteOff"
      },
      {
        "deltaTime": 0,
        "channel": 2,
        "type": "channel",
        "noteNumber": 58,
        "velocity": 0,
        "subtype": "noteOff"
      },
      {
        "deltaTime": 0,
        "channel": 2,
        "type": "channel",
        "noteNumber": 53,
        "velocity": 0,
        "subtype": "noteOff"
      },
      {
        "deltaTime": 0,
        "channel": 2,
        "type": "channel",
        "noteNumber": 65,
        "velocity": 127,
        "subtype": "noteOn"
      },
      {
        "deltaTime": 0,
        "channel": 2,
        "type": "channel",
        "noteNumber": 58,
        "velocity": 127,
        "subtype": "noteOn"
      },
      {
        "deltaTime": 0,
        "channel": 2,
        "type": "channel",
        "noteNumber": 53,
        "velocity": 127,
        "subtype": "noteOn"
      },
      {
        "deltaTime": 0,
        "channel": 2,
        "type": "channel",
        "noteNumber": 46,
        "velocity": 127,
        "subtype": "noteOn"
      },
      {
        "deltaTime": 480,
        "channel": 2,
        "type": "channel",
        "noteNumber": 46,
        "velocity": 0,
        "subtype": "noteOff"
      },
      {
        "deltaTime": 0,
        "channel": 2,
        "type": "channel",
        "noteNumber": 65,
        "velocity": 0,
        "subtype": "noteOff"
      },
      {
        "deltaTime": 0,
        "channel": 2,
        "type": "channel",
        "noteNumber": 58,
        "velocity": 0,
        "subtype": "noteOff"
      },
      {
        "deltaTime": 0,
        "channel": 2,
        "type": "channel",
        "noteNumber": 53,
        "velocity": 0,
        "subtype": "noteOff"
      },
      {
        "deltaTime": 0,
        "channel": 2,
        "type": "channel",
        "noteNumber": 65,
        "velocity": 127,
        "subtype": "noteOn"
      },
      {
        "deltaTime": 0,
        "channel": 2,
        "type": "channel",
        "noteNumber": 58,
        "velocity": 127,
        "subtype": "noteOn"
      },
      {
        "deltaTime": 0,
        "channel": 2,
        "type": "channel",
        "noteNumber": 53,
        "velocity": 127,
        "subtype": "noteOn"
      },
      {
        "deltaTime": 0,
        "channel": 2,
        "type": "channel",
        "noteNumber": 46,
        "velocity": 127,
        "subtype": "noteOn"
      },
      {
        "deltaTime": 480,
        "channel": 2,
        "type": "channel",
        "noteNumber": 46,
        "velocity": 0,
        "subtype": "noteOff"
      },
      {
        "deltaTime": 0,
        "channel": 2,
        "type": "channel",
        "noteNumber": 65,
        "velocity": 0,
        "subtype": "noteOff"
      },
      {
        "deltaTime": 0,
        "channel": 2,
        "type": "channel",
        "noteNumber": 58,
        "velocity": 0,
        "subtype": "noteOff"
      },
      {
        "deltaTime": 0,
        "channel": 2,
        "type": "channel",
        "noteNumber": 53,
        "velocity": 0,
        "subtype": "noteOff"
      },
      {
        "deltaTime": 0,
        "channel": 2,
        "type": "channel",
        "noteNumber": 65,
        "velocity": 127,
        "subtype": "noteOn"
      },
      {
        "deltaTime": 0,
        "channel": 2,
        "type": "channel",
        "noteNumber": 58,
        "velocity": 127,
        "subtype": "noteOn"
      },
      {
        "deltaTime": 0,
        "channel": 2,
        "type": "channel",
        "noteNumber": 53,
        "velocity": 127,
        "subtype": "noteOn"
      },
      {
        "deltaTime": 0,
        "channel": 2,
        "type": "channel",
        "noteNumber": 46,
        "velocity": 127,
        "subtype": "noteOn"
      },
      {
        "deltaTime": 480,
        "channel": 2,
        "type": "channel",
        "noteNumber": 46,
        "velocity": 0,
        "subtype": "noteOff"
      },
      {
        "deltaTime": 0,
        "channel": 2,
        "type": "channel",
        "noteNumber": 65,
        "velocity": 0,
        "subtype": "noteOff"
      },
      {
        "deltaTime": 0,
        "channel": 2,
        "type": "channel",
        "noteNumber": 58,
        "velocity": 0,
        "subtype": "noteOff"
      },
      {
        "deltaTime": 0,
        "channel": 2,
        "type": "channel",
        "noteNumber": 53,
        "velocity": 0,
        "subtype": "noteOff"
      },
      {
        "deltaTime": 0,
        "channel": 2,
        "type": "channel",
        "noteNumber": 65,
        "velocity": 127,
        "subtype": "noteOn"
      },
      {
        "deltaTime": 0,
        "channel": 2,
        "type": "channel",
        "noteNumber": 58,
        "velocity": 127,
        "subtype": "noteOn"
      },
      {
        "deltaTime": 0,
        "channel": 2,
        "type": "channel",
        "noteNumber": 53,
        "velocity": 127,
        "subtype": "noteOn"
      },
      {
        "deltaTime": 0,
        "channel": 2,
        "type": "channel",
        "noteNumber": 46,
        "velocity": 127,
        "subtype": "noteOn"
      },
      {
        "deltaTime": 480,
        "channel": 2,
        "type": "channel",
        "noteNumber": 46,
        "velocity": 0,
        "subtype": "noteOff"
      },
      {
        "deltaTime": 0,
        "channel": 2,
        "type": "channel",
        "noteNumber": 65,
        "velocity": 0,
        "subtype": "noteOff"
      },
      {
        "deltaTime": 0,
        "channel": 2,
        "type": "channel",
        "noteNumber": 58,
        "velocity": 0,
        "subtype": "noteOff"
      },
      {
        "deltaTime": 0,
        "channel": 2,
        "type": "channel",
        "noteNumber": 53,
        "velocity": 0,
        "subtype": "noteOff"
      },
      {
        "deltaTime": 0,
        "channel": 2,
        "type": "channel",
        "noteNumber": 65,
        "velocity": 127,
        "subtype": "noteOn"
      },
      {
        "deltaTime": 0,
        "channel": 2,
        "type": "channel",
        "noteNumber": 58,
        "velocity": 127,
        "subtype": "noteOn"
      },
      {
        "deltaTime": 0,
        "channel": 2,
        "type": "channel",
        "noteNumber": 53,
        "velocity": 127,
        "subtype": "noteOn"
      },
      {
        "deltaTime": 0,
        "channel": 2,
        "type": "channel",
        "noteNumber": 46,
        "velocity": 127,
        "subtype": "noteOn"
      },
      {
        "deltaTime": 480,
        "channel": 2,
        "type": "channel",
        "noteNumber": 46,
        "velocity": 0,
        "subtype": "noteOff"
      },
      {
        "deltaTime": 0,
        "channel": 2,
        "type": "channel",
        "noteNumber": 65,
        "velocity": 0,
        "subtype": "noteOff"
      },
      {
        "deltaTime": 0,
        "channel": 2,
        "type": "channel",
        "noteNumber": 58,
        "velocity": 0,
        "subtype": "noteOff"
      },
      {
        "deltaTime": 0,
        "channel": 2,
        "type": "channel",
        "noteNumber": 53,
        "velocity": 0,
        "subtype": "noteOff"
      },
      {
        "deltaTime": 0,
        "channel": 2,
        "type": "channel",
        "noteNumber": 65,
        "velocity": 127,
        "subtype": "noteOn"
      },
      {
        "deltaTime": 0,
        "channel": 2,
        "type": "channel",
        "noteNumber": 58,
        "velocity": 127,
        "subtype": "noteOn"
      },
      {
        "deltaTime": 0,
        "channel": 2,
        "type": "channel",
        "noteNumber": 53,
        "velocity": 127,
        "subtype": "noteOn"
      },
      {
        "deltaTime": 0,
        "channel": 2,
        "type": "channel",
        "noteNumber": 46,
        "velocity": 127,
        "subtype": "noteOn"
      },
      {
        "deltaTime": 480,
        "channel": 2,
        "type": "channel",
        "noteNumber": 46,
        "velocity": 0,
        "subtype": "noteOff"
      },
      {
        "deltaTime": 0,
        "channel": 2,
        "type": "channel",
        "noteNumber": 65,
        "velocity": 0,
        "subtype": "noteOff"
      },
      {
        "deltaTime": 0,
        "channel": 2,
        "type": "channel",
        "noteNumber": 58,
        "velocity": 0,
        "subtype": "noteOff"
      },
      {
        "deltaTime": 0,
        "channel": 2,
        "type": "channel",
        "noteNumber": 53,
        "velocity": 0,
        "subtype": "noteOff"
      },
      {
        "deltaTime": 0,
        "channel": 2,
        "type": "channel",
        "noteNumber": 65,
        "velocity": 127,
        "subtype": "noteOn"
      },
      {
        "deltaTime": 0,
        "channel": 2,
        "type": "channel",
        "noteNumber": 58,
        "velocity": 127,
        "subtype": "noteOn"
      },
      {
        "deltaTime": 0,
        "channel": 2,
        "type": "channel",
        "noteNumber": 53,
        "velocity": 127,
        "subtype": "noteOn"
      },
      {
        "deltaTime": 0,
        "channel": 2,
        "type": "channel",
        "noteNumber": 46,
        "velocity": 127,
        "subtype": "noteOn"
      },
      {
        "deltaTime": 480,
        "channel": 2,
        "type": "channel",
        "noteNumber": 46,
        "velocity": 0,
        "subtype": "noteOff"
      },
      {
        "deltaTime": 0,
        "channel": 2,
        "type": "channel",
        "noteNumber": 65,
        "velocity": 0,
        "subtype": "noteOff"
      },
      {
        "deltaTime": 0,
        "channel": 2,
        "type": "channel",
        "noteNumber": 58,
        "velocity": 0,
        "subtype": "noteOff"
      },
      {
        "deltaTime": 0,
        "channel": 2,
        "type": "channel",
        "noteNumber": 53,
        "velocity": 0,
        "subtype": "noteOff"
      },
      {
        "deltaTime": 0,
        "channel": 2,
        "type": "channel",
        "noteNumber": 65,
        "velocity": 127,
        "subtype": "noteOn"
      },
      {
        "deltaTime": 0,
        "channel": 2,
        "type": "channel",
        "noteNumber": 58,
        "velocity": 127,
        "subtype": "noteOn"
      },
      {
        "deltaTime": 0,
        "channel": 2,
        "type": "channel",
        "noteNumber": 53,
        "velocity": 127,
        "subtype": "noteOn"
      },
      {
        "deltaTime": 0,
        "channel": 2,
        "type": "channel",
        "noteNumber": 46,
        "velocity": 127,
        "subtype": "noteOn"
      },
      {
        "deltaTime": 480,
        "channel": 2,
        "type": "channel",
        "noteNumber": 46,
        "velocity": 0,
        "subtype": "noteOff"
      },
      {
        "deltaTime": 0,
        "channel": 2,
        "type": "channel",
        "noteNumber": 65,
        "velocity": 0,
        "subtype": "noteOff"
      },
      {
        "deltaTime": 0,
        "channel": 2,
        "type": "channel",
        "noteNumber": 58,
        "velocity": 0,
        "subtype": "noteOff"
      },
      {
        "deltaTime": 0,
        "channel": 2,
        "type": "channel",
        "noteNumber": 53,
        "velocity": 0,
        "subtype": "noteOff"
      },
      {
        "deltaTime": 0,
        "channel": 2,
        "type": "channel",
        "noteNumber": 65,
        "velocity": 127,
        "subtype": "noteOn"
      },
      {
        "deltaTime": 0,
        "channel": 2,
        "type": "channel",
        "noteNumber": 58,
        "velocity": 127,
        "subtype": "noteOn"
      },
      {
        "deltaTime": 0,
        "channel": 2,
        "type": "channel",
        "noteNumber": 53,
        "velocity": 127,
        "subtype": "noteOn"
      },
      {
        "deltaTime": 0,
        "channel": 2,
        "type": "channel",
        "noteNumber": 46,
        "velocity": 127,
        "subtype": "noteOn"
      },
      {
        "deltaTime": 480,
        "channel": 2,
        "type": "channel",
        "noteNumber": 46,
        "velocity": 0,
        "subtype": "noteOff"
      },
      {
        "deltaTime": 0,
        "channel": 2,
        "type": "channel",
        "noteNumber": 65,
        "velocity": 0,
        "subtype": "noteOff"
      },
      {
        "deltaTime": 0,
        "channel": 2,
        "type": "channel",
        "noteNumber": 58,
        "velocity": 0,
        "subtype": "noteOff"
      },
      {
        "deltaTime": 0,
        "channel": 2,
        "type": "channel",
        "noteNumber": 53,
        "velocity": 0,
        "subtype": "noteOff"
      },
      {
        "deltaTime": 0,
        "channel": 2,
        "type": "channel",
        "noteNumber": 65,
        "velocity": 127,
        "subtype": "noteOn"
      },
      {
        "deltaTime": 0,
        "channel": 2,
        "type": "channel",
        "noteNumber": 58,
        "velocity": 127,
        "subtype": "noteOn"
      },
      {
        "deltaTime": 0,
        "channel": 2,
        "type": "channel",
        "noteNumber": 53,
        "velocity": 127,
        "subtype": "noteOn"
      },
      {
        "deltaTime": 0,
        "channel": 2,
        "type": "channel",
        "noteNumber": 46,
        "velocity": 127,
        "subtype": "noteOn"
      },
      {
        "deltaTime": 480,
        "channel": 2,
        "type": "channel",
        "noteNumber": 46,
        "velocity": 0,
        "subtype": "noteOff"
      },
      {
        "deltaTime": 0,
        "channel": 2,
        "type": "channel",
        "noteNumber": 65,
        "velocity": 0,
        "subtype": "noteOff"
      },
      {
        "deltaTime": 0,
        "channel": 2,
        "type": "channel",
        "noteNumber": 58,
        "velocity": 0,
        "subtype": "noteOff"
      },
      {
        "deltaTime": 0,
        "channel": 2,
        "type": "channel",
        "noteNumber": 53,
        "velocity": 0,
        "subtype": "noteOff"
      },
      {
        "deltaTime": 0,
        "channel": 2,
        "type": "channel",
        "noteNumber": 65,
        "velocity": 127,
        "subtype": "noteOn"
      },
      {
        "deltaTime": 0,
        "channel": 2,
        "type": "channel",
        "noteNumber": 58,
        "velocity": 127,
        "subtype": "noteOn"
      },
      {
        "deltaTime": 0,
        "channel": 2,
        "type": "channel",
        "noteNumber": 53,
        "velocity": 127,
        "subtype": "noteOn"
      },
      {
        "deltaTime": 0,
        "channel": 2,
        "type": "channel",
        "noteNumber": 46,
        "velocity": 127,
        "subtype": "noteOn"
      },
      {
        "deltaTime": 480,
        "channel": 2,
        "type": "channel",
        "noteNumber": 46,
        "velocity": 0,
        "subtype": "noteOff"
      },
      {
        "deltaTime": 0,
        "channel": 2,
        "type": "channel",
        "noteNumber": 65,
        "velocity": 0,
        "subtype": "noteOff"
      },
      {
        "deltaTime": 0,
        "channel": 2,
        "type": "channel",
        "noteNumber": 58,
        "velocity": 0,
        "subtype": "noteOff"
      },
      {
        "deltaTime": 0,
        "channel": 2,
        "type": "channel",
        "noteNumber": 53,
        "velocity": 0,
        "subtype": "noteOff"
      },
      {
        "deltaTime": 0,
        "channel": 2,
        "type": "channel",
        "noteNumber": 65,
        "velocity": 127,
        "subtype": "noteOn"
      },
      {
        "deltaTime": 0,
        "channel": 2,
        "type": "channel",
        "noteNumber": 58,
        "velocity": 127,
        "subtype": "noteOn"
      },
      {
        "deltaTime": 0,
        "channel": 2,
        "type": "channel",
        "noteNumber": 53,
        "velocity": 127,
        "subtype": "noteOn"
      },
      {
        "deltaTime": 0,
        "channel": 2,
        "type": "channel",
        "noteNumber": 46,
        "velocity": 127,
        "subtype": "noteOn"
      },
      {
        "deltaTime": 480,
        "channel": 2,
        "type": "channel",
        "noteNumber": 46,
        "velocity": 0,
        "subtype": "noteOff"
      },
      {
        "deltaTime": 0,
        "channel": 2,
        "type": "channel",
        "noteNumber": 65,
        "velocity": 0,
        "subtype": "noteOff"
      },
      {
        "deltaTime": 0,
        "channel": 2,
        "type": "channel",
        "noteNumber": 58,
        "velocity": 0,
        "subtype": "noteOff"
      },
      {
        "deltaTime": 0,
        "channel": 2,
        "type": "channel",
        "noteNumber": 53,
        "velocity": 0,
        "subtype": "noteOff"
      },
      {
        "deltaTime": 0,
        "channel": 2,
        "type": "channel",
        "noteNumber": 65,
        "velocity": 127,
        "subtype": "noteOn"
      },
      {
        "deltaTime": 0,
        "channel": 2,
        "type": "channel",
        "noteNumber": 58,
        "velocity": 127,
        "subtype": "noteOn"
      },
      {
        "deltaTime": 0,
        "channel": 2,
        "type": "channel",
        "noteNumber": 53,
        "velocity": 127,
        "subtype": "noteOn"
      },
      {
        "deltaTime": 0,
        "channel": 2,
        "type": "channel",
        "noteNumber": 46,
        "velocity": 127,
        "subtype": "noteOn"
      },
      {
        "deltaTime": 480,
        "channel": 2,
        "type": "channel",
        "noteNumber": 46,
        "velocity": 0,
        "subtype": "noteOff"
      },
      {
        "deltaTime": 0,
        "channel": 2,
        "type": "channel",
        "noteNumber": 65,
        "velocity": 0,
        "subtype": "noteOff"
      },
      {
        "deltaTime": 0,
        "channel": 2,
        "type": "channel",
        "noteNumber": 58,
        "velocity": 0,
        "subtype": "noteOff"
      },
      {
        "deltaTime": 0,
        "channel": 2,
        "type": "channel",
        "noteNumber": 53,
        "velocity": 0,
        "subtype": "noteOff"
      },
      {
        "deltaTime": 0,
        "channel": 2,
        "type": "channel",
        "noteNumber": 65,
        "velocity": 127,
        "subtype": "noteOn"
      },
      {
        "deltaTime": 0,
        "channel": 2,
        "type": "channel",
        "noteNumber": 58,
        "velocity": 127,
        "subtype": "noteOn"
      },
      {
        "deltaTime": 0,
        "channel": 2,
        "type": "channel",
        "noteNumber": 53,
        "velocity": 127,
        "subtype": "noteOn"
      },
      {
        "deltaTime": 0,
        "channel": 2,
        "type": "channel",
        "noteNumber": 46,
        "velocity": 127,
        "subtype": "noteOn"
      },
      {
        "deltaTime": 480,
        "channel": 2,
        "type": "channel",
        "noteNumber": 46,
        "velocity": 0,
        "subtype": "noteOff"
      },
      {
        "deltaTime": 0,
        "channel": 2,
        "type": "channel",
        "noteNumber": 65,
        "velocity": 0,
        "subtype": "noteOff"
      },
      {
        "deltaTime": 0,
        "channel": 2,
        "type": "channel",
        "noteNumber": 58,
        "velocity": 0,
        "subtype": "noteOff"
      },
      {
        "deltaTime": 0,
        "channel": 2,
        "type": "channel",
        "noteNumber": 53,
        "velocity": 0,
        "subtype": "noteOff"
      },
      {
        "deltaTime": 0,
        "channel": 2,
        "type": "channel",
        "noteNumber": 65,
        "velocity": 127,
        "subtype": "noteOn"
      },
      {
        "deltaTime": 0,
        "channel": 2,
        "type": "channel",
        "noteNumber": 58,
        "velocity": 127,
        "subtype": "noteOn"
      },
      {
        "deltaTime": 0,
        "channel": 2,
        "type": "channel",
        "noteNumber": 53,
        "velocity": 127,
        "subtype": "noteOn"
      },
      {
        "deltaTime": 0,
        "channel": 2,
        "type": "channel",
        "noteNumber": 46,
        "velocity": 127,
        "subtype": "noteOn"
      },
      {
        "deltaTime": 480,
        "channel": 2,
        "type": "channel",
        "noteNumber": 46,
        "velocity": 0,
        "subtype": "noteOff"
      },
      {
        "deltaTime": 0,
        "channel": 2,
        "type": "channel",
        "noteNumber": 65,
        "velocity": 0,
        "subtype": "noteOff"
      },
      {
        "deltaTime": 0,
        "channel": 2,
        "type": "channel",
        "noteNumber": 58,
        "velocity": 0,
        "subtype": "noteOff"
      },
      {
        "deltaTime": 0,
        "channel": 2,
        "type": "channel",
        "noteNumber": 53,
        "velocity": 0,
        "subtype": "noteOff"
      },
      {
        "deltaTime": 0,
        "channel": 2,
        "type": "channel",
        "noteNumber": 55,
        "velocity": 127,
        "subtype": "noteOn"
      },
      {
        "deltaTime": 0,
        "channel": 2,
        "type": "channel",
        "noteNumber": 48,
        "velocity": 127,
        "subtype": "noteOn"
      },
      {
        "deltaTime": 480,
        "channel": 2,
        "type": "channel",
        "noteNumber": 48,
        "velocity": 0,
        "subtype": "noteOff"
      },
      {
        "deltaTime": 0,
        "channel": 2,
        "type": "channel",
        "noteNumber": 55,
        "velocity": 0,
        "subtype": "noteOff"
      },
      {
        "deltaTime": 0,
        "channel": 2,
        "type": "channel",
        "noteNumber": 55,
        "velocity": 127,
        "subtype": "noteOn"
      },
      {
        "deltaTime": 0,
        "channel": 2,
        "type": "channel",
        "noteNumber": 48,
        "velocity": 127,
        "subtype": "noteOn"
      },
      {
        "deltaTime": 480,
        "channel": 2,
        "type": "channel",
        "noteNumber": 48,
        "velocity": 0,
        "subtype": "noteOff"
      },
      {
        "deltaTime": 0,
        "channel": 2,
        "type": "channel",
        "noteNumber": 55,
        "velocity": 0,
        "subtype": "noteOff"
      },
      {
        "deltaTime": 0,
        "channel": 2,
        "type": "channel",
        "noteNumber": 55,
        "velocity": 127,
        "subtype": "noteOn"
      },
      {
        "deltaTime": 0,
        "channel": 2,
        "type": "channel",
        "noteNumber": 48,
        "velocity": 127,
        "subtype": "noteOn"
      },
      {
        "deltaTime": 480,
        "channel": 2,
        "type": "channel",
        "noteNumber": 48,
        "velocity": 0,
        "subtype": "noteOff"
      },
      {
        "deltaTime": 0,
        "channel": 2,
        "type": "channel",
        "noteNumber": 55,
        "velocity": 0,
        "subtype": "noteOff"
      },
      {
        "deltaTime": 0,
        "channel": 2,
        "type": "channel",
        "noteNumber": 55,
        "velocity": 127,
        "subtype": "noteOn"
      },
      {
        "deltaTime": 0,
        "channel": 2,
        "type": "channel",
        "noteNumber": 48,
        "velocity": 127,
        "subtype": "noteOn"
      },
      {
        "deltaTime": 480,
        "channel": 2,
        "type": "channel",
        "noteNumber": 48,
        "velocity": 0,
        "subtype": "noteOff"
      },
      {
        "deltaTime": 0,
        "channel": 2,
        "type": "channel",
        "noteNumber": 55,
        "velocity": 0,
        "subtype": "noteOff"
      },
      {
        "deltaTime": 0,
        "channel": 2,
        "type": "channel",
        "noteNumber": 55,
        "velocity": 127,
        "subtype": "noteOn"
      },
      {
        "deltaTime": 0,
        "channel": 2,
        "type": "channel",
        "noteNumber": 48,
        "velocity": 127,
        "subtype": "noteOn"
      },
      {
        "deltaTime": 480,
        "channel": 2,
        "type": "channel",
        "noteNumber": 48,
        "velocity": 0,
        "subtype": "noteOff"
      },
      {
        "deltaTime": 0,
        "channel": 2,
        "type": "channel",
        "noteNumber": 55,
        "velocity": 0,
        "subtype": "noteOff"
      },
      {
        "deltaTime": 0,
        "channel": 2,
        "type": "channel",
        "noteNumber": 55,
        "velocity": 127,
        "subtype": "noteOn"
      },
      {
        "deltaTime": 0,
        "channel": 2,
        "type": "channel",
        "noteNumber": 48,
        "velocity": 127,
        "subtype": "noteOn"
      },
      {
        "deltaTime": 480,
        "channel": 2,
        "type": "channel",
        "noteNumber": 48,
        "velocity": 0,
        "subtype": "noteOff"
      },
      {
        "deltaTime": 0,
        "channel": 2,
        "type": "channel",
        "noteNumber": 55,
        "velocity": 0,
        "subtype": "noteOff"
      },
      {
        "deltaTime": 0,
        "channel": 2,
        "type": "channel",
        "noteNumber": 55,
        "velocity": 127,
        "subtype": "noteOn"
      },
      {
        "deltaTime": 0,
        "channel": 2,
        "type": "channel",
        "noteNumber": 48,
        "velocity": 127,
        "subtype": "noteOn"
      },
      {
        "deltaTime": 480,
        "channel": 2,
        "type": "channel",
        "noteNumber": 48,
        "velocity": 0,
        "subtype": "noteOff"
      },
      {
        "deltaTime": 0,
        "channel": 2,
        "type": "channel",
        "noteNumber": 55,
        "velocity": 0,
        "subtype": "noteOff"
      },
      {
        "deltaTime": 0,
        "channel": 2,
        "type": "channel",
        "noteNumber": 55,
        "velocity": 127,
        "subtype": "noteOn"
      },
      {
        "deltaTime": 0,
        "channel": 2,
        "type": "channel",
        "noteNumber": 48,
        "velocity": 127,
        "subtype": "noteOn"
      },
      {
        "deltaTime": 480,
        "channel": 2,
        "type": "channel",
        "noteNumber": 48,
        "velocity": 0,
        "subtype": "noteOff"
      },
      {
        "deltaTime": 0,
        "channel": 2,
        "type": "channel",
        "noteNumber": 55,
        "velocity": 0,
        "subtype": "noteOff"
      },
      {
        "deltaTime": 0,
        "channel": 2,
        "type": "channel",
        "noteNumber": 65,
        "velocity": 127,
        "subtype": "noteOn"
      },
      {
        "deltaTime": 0,
        "channel": 2,
        "type": "channel",
        "noteNumber": 58,
        "velocity": 127,
        "subtype": "noteOn"
      },
      {
        "deltaTime": 0,
        "channel": 2,
        "type": "channel",
        "noteNumber": 53,
        "velocity": 127,
        "subtype": "noteOn"
      },
      {
        "deltaTime": 0,
        "channel": 2,
        "type": "channel",
        "noteNumber": 46,
        "velocity": 127,
        "subtype": "noteOn"
      },
      {
        "deltaTime": 480,
        "channel": 2,
        "type": "channel",
        "noteNumber": 46,
        "velocity": 0,
        "subtype": "noteOff"
      },
      {
        "deltaTime": 0,
        "channel": 2,
        "type": "channel",
        "noteNumber": 65,
        "velocity": 0,
        "subtype": "noteOff"
      },
      {
        "deltaTime": 0,
        "channel": 2,
        "type": "channel",
        "noteNumber": 58,
        "velocity": 0,
        "subtype": "noteOff"
      },
      {
        "deltaTime": 0,
        "channel": 2,
        "type": "channel",
        "noteNumber": 53,
        "velocity": 0,
        "subtype": "noteOff"
      },
      {
        "deltaTime": 0,
        "channel": 2,
        "type": "channel",
        "noteNumber": 65,
        "velocity": 127,
        "subtype": "noteOn"
      },
      {
        "deltaTime": 0,
        "channel": 2,
        "type": "channel",
        "noteNumber": 58,
        "velocity": 127,
        "subtype": "noteOn"
      },
      {
        "deltaTime": 0,
        "channel": 2,
        "type": "channel",
        "noteNumber": 53,
        "velocity": 127,
        "subtype": "noteOn"
      },
      {
        "deltaTime": 0,
        "channel": 2,
        "type": "channel",
        "noteNumber": 46,
        "velocity": 127,
        "subtype": "noteOn"
      },
      {
        "deltaTime": 480,
        "channel": 2,
        "type": "channel",
        "noteNumber": 46,
        "velocity": 0,
        "subtype": "noteOff"
      },
      {
        "deltaTime": 0,
        "channel": 2,
        "type": "channel",
        "noteNumber": 65,
        "velocity": 0,
        "subtype": "noteOff"
      },
      {
        "deltaTime": 0,
        "channel": 2,
        "type": "channel",
        "noteNumber": 58,
        "velocity": 0,
        "subtype": "noteOff"
      },
      {
        "deltaTime": 0,
        "channel": 2,
        "type": "channel",
        "noteNumber": 53,
        "velocity": 0,
        "subtype": "noteOff"
      },
      {
        "deltaTime": 0,
        "channel": 2,
        "type": "channel",
        "noteNumber": 65,
        "velocity": 127,
        "subtype": "noteOn"
      },
      {
        "deltaTime": 0,
        "channel": 2,
        "type": "channel",
        "noteNumber": 58,
        "velocity": 127,
        "subtype": "noteOn"
      },
      {
        "deltaTime": 0,
        "channel": 2,
        "type": "channel",
        "noteNumber": 53,
        "velocity": 127,
        "subtype": "noteOn"
      },
      {
        "deltaTime": 0,
        "channel": 2,
        "type": "channel",
        "noteNumber": 46,
        "velocity": 127,
        "subtype": "noteOn"
      },
      {
        "deltaTime": 480,
        "channel": 2,
        "type": "channel",
        "noteNumber": 46,
        "velocity": 0,
        "subtype": "noteOff"
      },
      {
        "deltaTime": 0,
        "channel": 2,
        "type": "channel",
        "noteNumber": 65,
        "velocity": 0,
        "subtype": "noteOff"
      },
      {
        "deltaTime": 0,
        "channel": 2,
        "type": "channel",
        "noteNumber": 58,
        "velocity": 0,
        "subtype": "noteOff"
      },
      {
        "deltaTime": 0,
        "channel": 2,
        "type": "channel",
        "noteNumber": 53,
        "velocity": 0,
        "subtype": "noteOff"
      },
      {
        "deltaTime": 0,
        "channel": 2,
        "type": "channel",
        "noteNumber": 65,
        "velocity": 127,
        "subtype": "noteOn"
      },
      {
        "deltaTime": 0,
        "channel": 2,
        "type": "channel",
        "noteNumber": 58,
        "velocity": 127,
        "subtype": "noteOn"
      },
      {
        "deltaTime": 0,
        "channel": 2,
        "type": "channel",
        "noteNumber": 53,
        "velocity": 127,
        "subtype": "noteOn"
      },
      {
        "deltaTime": 0,
        "channel": 2,
        "type": "channel",
        "noteNumber": 46,
        "velocity": 127,
        "subtype": "noteOn"
      },
      {
        "deltaTime": 480,
        "channel": 2,
        "type": "channel",
        "noteNumber": 46,
        "velocity": 0,
        "subtype": "noteOff"
      },
      {
        "deltaTime": 0,
        "channel": 2,
        "type": "channel",
        "noteNumber": 65,
        "velocity": 0,
        "subtype": "noteOff"
      },
      {
        "deltaTime": 0,
        "channel": 2,
        "type": "channel",
        "noteNumber": 58,
        "velocity": 0,
        "subtype": "noteOff"
      },
      {
        "deltaTime": 0,
        "channel": 2,
        "type": "channel",
        "noteNumber": 53,
        "velocity": 0,
        "subtype": "noteOff"
      },
      {
        "deltaTime": 0,
        "channel": 2,
        "type": "channel",
        "noteNumber": 65,
        "velocity": 127,
        "subtype": "noteOn"
      },
      {
        "deltaTime": 0,
        "channel": 2,
        "type": "channel",
        "noteNumber": 58,
        "velocity": 127,
        "subtype": "noteOn"
      },
      {
        "deltaTime": 0,
        "channel": 2,
        "type": "channel",
        "noteNumber": 53,
        "velocity": 127,
        "subtype": "noteOn"
      },
      {
        "deltaTime": 0,
        "channel": 2,
        "type": "channel",
        "noteNumber": 46,
        "velocity": 127,
        "subtype": "noteOn"
      },
      {
        "deltaTime": 480,
        "channel": 2,
        "type": "channel",
        "noteNumber": 46,
        "velocity": 0,
        "subtype": "noteOff"
      },
      {
        "deltaTime": 0,
        "channel": 2,
        "type": "channel",
        "noteNumber": 65,
        "velocity": 0,
        "subtype": "noteOff"
      },
      {
        "deltaTime": 0,
        "channel": 2,
        "type": "channel",
        "noteNumber": 58,
        "velocity": 0,
        "subtype": "noteOff"
      },
      {
        "deltaTime": 0,
        "channel": 2,
        "type": "channel",
        "noteNumber": 53,
        "velocity": 0,
        "subtype": "noteOff"
      },
      {
        "deltaTime": 0,
        "channel": 2,
        "type": "channel",
        "noteNumber": 65,
        "velocity": 127,
        "subtype": "noteOn"
      },
      {
        "deltaTime": 0,
        "channel": 2,
        "type": "channel",
        "noteNumber": 58,
        "velocity": 127,
        "subtype": "noteOn"
      },
      {
        "deltaTime": 0,
        "channel": 2,
        "type": "channel",
        "noteNumber": 53,
        "velocity": 127,
        "subtype": "noteOn"
      },
      {
        "deltaTime": 0,
        "channel": 2,
        "type": "channel",
        "noteNumber": 46,
        "velocity": 127,
        "subtype": "noteOn"
      },
      {
        "deltaTime": 480,
        "channel": 2,
        "type": "channel",
        "noteNumber": 46,
        "velocity": 0,
        "subtype": "noteOff"
      },
      {
        "deltaTime": 0,
        "channel": 2,
        "type": "channel",
        "noteNumber": 65,
        "velocity": 0,
        "subtype": "noteOff"
      },
      {
        "deltaTime": 0,
        "channel": 2,
        "type": "channel",
        "noteNumber": 58,
        "velocity": 0,
        "subtype": "noteOff"
      },
      {
        "deltaTime": 0,
        "channel": 2,
        "type": "channel",
        "noteNumber": 53,
        "velocity": 0,
        "subtype": "noteOff"
      },
      {
        "deltaTime": 0,
        "channel": 2,
        "type": "channel",
        "noteNumber": 65,
        "velocity": 127,
        "subtype": "noteOn"
      },
      {
        "deltaTime": 0,
        "channel": 2,
        "type": "channel",
        "noteNumber": 58,
        "velocity": 127,
        "subtype": "noteOn"
      },
      {
        "deltaTime": 0,
        "channel": 2,
        "type": "channel",
        "noteNumber": 53,
        "velocity": 127,
        "subtype": "noteOn"
      },
      {
        "deltaTime": 0,
        "channel": 2,
        "type": "channel",
        "noteNumber": 46,
        "velocity": 127,
        "subtype": "noteOn"
      },
      {
        "deltaTime": 480,
        "channel": 2,
        "type": "channel",
        "noteNumber": 46,
        "velocity": 0,
        "subtype": "noteOff"
      },
      {
        "deltaTime": 0,
        "channel": 2,
        "type": "channel",
        "noteNumber": 65,
        "velocity": 0,
        "subtype": "noteOff"
      },
      {
        "deltaTime": 0,
        "channel": 2,
        "type": "channel",
        "noteNumber": 58,
        "velocity": 0,
        "subtype": "noteOff"
      },
      {
        "deltaTime": 0,
        "channel": 2,
        "type": "channel",
        "noteNumber": 53,
        "velocity": 0,
        "subtype": "noteOff"
      },
      {
        "deltaTime": 0,
        "channel": 2,
        "type": "channel",
        "noteNumber": 65,
        "velocity": 127,
        "subtype": "noteOn"
      },
      {
        "deltaTime": 0,
        "channel": 2,
        "type": "channel",
        "noteNumber": 58,
        "velocity": 127,
        "subtype": "noteOn"
      },
      {
        "deltaTime": 0,
        "channel": 2,
        "type": "channel",
        "noteNumber": 53,
        "velocity": 127,
        "subtype": "noteOn"
      },
      {
        "deltaTime": 0,
        "channel": 2,
        "type": "channel",
        "noteNumber": 46,
        "velocity": 127,
        "subtype": "noteOn"
      },
      {
        "deltaTime": 480,
        "channel": 2,
        "type": "channel",
        "noteNumber": 46,
        "velocity": 0,
        "subtype": "noteOff"
      },
      {
        "deltaTime": 0,
        "channel": 2,
        "type": "channel",
        "noteNumber": 65,
        "velocity": 0,
        "subtype": "noteOff"
      },
      {
        "deltaTime": 0,
        "channel": 2,
        "type": "channel",
        "noteNumber": 58,
        "velocity": 0,
        "subtype": "noteOff"
      },
      {
        "deltaTime": 0,
        "channel": 2,
        "type": "channel",
        "noteNumber": 53,
        "velocity": 0,
        "subtype": "noteOff"
      },
      {
        "deltaTime": 0,
        "channel": 2,
        "type": "channel",
        "noteNumber": 55,
        "velocity": 127,
        "subtype": "noteOn"
      },
      {
        "deltaTime": 0,
        "channel": 2,
        "type": "channel",
        "noteNumber": 48,
        "velocity": 127,
        "subtype": "noteOn"
      },
      {
        "deltaTime": 480,
        "channel": 2,
        "type": "channel",
        "noteNumber": 48,
        "velocity": 0,
        "subtype": "noteOff"
      },
      {
        "deltaTime": 0,
        "channel": 2,
        "type": "channel",
        "noteNumber": 55,
        "velocity": 0,
        "subtype": "noteOff"
      },
      {
        "deltaTime": 0,
        "channel": 2,
        "type": "channel",
        "noteNumber": 55,
        "velocity": 127,
        "subtype": "noteOn"
      },
      {
        "deltaTime": 0,
        "channel": 2,
        "type": "channel",
        "noteNumber": 48,
        "velocity": 127,
        "subtype": "noteOn"
      },
      {
        "deltaTime": 480,
        "channel": 2,
        "type": "channel",
        "noteNumber": 48,
        "velocity": 0,
        "subtype": "noteOff"
      },
      {
        "deltaTime": 0,
        "channel": 2,
        "type": "channel",
        "noteNumber": 55,
        "velocity": 0,
        "subtype": "noteOff"
      },
      {
        "deltaTime": 0,
        "channel": 2,
        "type": "channel",
        "noteNumber": 55,
        "velocity": 127,
        "subtype": "noteOn"
      },
      {
        "deltaTime": 0,
        "channel": 2,
        "type": "channel",
        "noteNumber": 48,
        "velocity": 127,
        "subtype": "noteOn"
      },
      {
        "deltaTime": 480,
        "channel": 2,
        "type": "channel",
        "noteNumber": 48,
        "velocity": 0,
        "subtype": "noteOff"
      },
      {
        "deltaTime": 0,
        "channel": 2,
        "type": "channel",
        "noteNumber": 55,
        "velocity": 0,
        "subtype": "noteOff"
      },
      {
        "deltaTime": 0,
        "channel": 2,
        "type": "channel",
        "noteNumber": 55,
        "velocity": 127,
        "subtype": "noteOn"
      },
      {
        "deltaTime": 0,
        "channel": 2,
        "type": "channel",
        "noteNumber": 48,
        "velocity": 127,
        "subtype": "noteOn"
      },
      {
        "deltaTime": 480,
        "channel": 2,
        "type": "channel",
        "noteNumber": 48,
        "velocity": 0,
        "subtype": "noteOff"
      },
      {
        "deltaTime": 0,
        "channel": 2,
        "type": "channel",
        "noteNumber": 55,
        "velocity": 0,
        "subtype": "noteOff"
      },
      {
        "deltaTime": 0,
        "channel": 2,
        "type": "channel",
        "noteNumber": 55,
        "velocity": 127,
        "subtype": "noteOn"
      },
      {
        "deltaTime": 0,
        "channel": 2,
        "type": "channel",
        "noteNumber": 48,
        "velocity": 127,
        "subtype": "noteOn"
      },
      {
        "deltaTime": 480,
        "channel": 2,
        "type": "channel",
        "noteNumber": 48,
        "velocity": 0,
        "subtype": "noteOff"
      },
      {
        "deltaTime": 0,
        "channel": 2,
        "type": "channel",
        "noteNumber": 55,
        "velocity": 0,
        "subtype": "noteOff"
      },
      {
        "deltaTime": 0,
        "channel": 2,
        "type": "channel",
        "noteNumber": 55,
        "velocity": 127,
        "subtype": "noteOn"
      },
      {
        "deltaTime": 0,
        "channel": 2,
        "type": "channel",
        "noteNumber": 48,
        "velocity": 127,
        "subtype": "noteOn"
      },
      {
        "deltaTime": 480,
        "channel": 2,
        "type": "channel",
        "noteNumber": 48,
        "velocity": 0,
        "subtype": "noteOff"
      },
      {
        "deltaTime": 0,
        "channel": 2,
        "type": "channel",
        "noteNumber": 55,
        "velocity": 0,
        "subtype": "noteOff"
      },
      {
        "deltaTime": 0,
        "channel": 2,
        "type": "channel",
        "noteNumber": 55,
        "velocity": 127,
        "subtype": "noteOn"
      },
      {
        "deltaTime": 0,
        "channel": 2,
        "type": "channel",
        "noteNumber": 48,
        "velocity": 127,
        "subtype": "noteOn"
      },
      {
        "deltaTime": 480,
        "channel": 2,
        "type": "channel",
        "noteNumber": 48,
        "velocity": 0,
        "subtype": "noteOff"
      },
      {
        "deltaTime": 0,
        "channel": 2,
        "type": "channel",
        "noteNumber": 55,
        "velocity": 0,
        "subtype": "noteOff"
      },
      {
        "deltaTime": 0,
        "channel": 2,
        "type": "channel",
        "noteNumber": 55,
        "velocity": 127,
        "subtype": "noteOn"
      },
      {
        "deltaTime": 0,
        "channel": 2,
        "type": "channel",
        "noteNumber": 48,
        "velocity": 127,
        "subtype": "noteOn"
      },
      {
        "deltaTime": 480,
        "channel": 2,
        "type": "channel",
        "noteNumber": 48,
        "velocity": 0,
        "subtype": "noteOff"
      },
      {
        "deltaTime": 0,
        "channel": 2,
        "type": "channel",
        "noteNumber": 55,
        "velocity": 0,
        "subtype": "noteOff"
      },
      {
        "deltaTime": 0,
        "channel": 2,
        "type": "channel",
        "noteNumber": 65,
        "velocity": 127,
        "subtype": "noteOn"
      },
      {
        "deltaTime": 0,
        "channel": 2,
        "type": "channel",
        "noteNumber": 58,
        "velocity": 127,
        "subtype": "noteOn"
      },
      {
        "deltaTime": 0,
        "channel": 2,
        "type": "channel",
        "noteNumber": 53,
        "velocity": 127,
        "subtype": "noteOn"
      },
      {
        "deltaTime": 0,
        "channel": 2,
        "type": "channel",
        "noteNumber": 46,
        "velocity": 127,
        "subtype": "noteOn"
      },
      {
        "deltaTime": 480,
        "channel": 2,
        "type": "channel",
        "noteNumber": 46,
        "velocity": 0,
        "subtype": "noteOff"
      },
      {
        "deltaTime": 0,
        "channel": 2,
        "type": "channel",
        "noteNumber": 65,
        "velocity": 0,
        "subtype": "noteOff"
      },
      {
        "deltaTime": 0,
        "channel": 2,
        "type": "channel",
        "noteNumber": 58,
        "velocity": 0,
        "subtype": "noteOff"
      },
      {
        "deltaTime": 0,
        "channel": 2,
        "type": "channel",
        "noteNumber": 53,
        "velocity": 0,
        "subtype": "noteOff"
      },
      {
        "deltaTime": 0,
        "channel": 2,
        "type": "channel",
        "noteNumber": 65,
        "velocity": 127,
        "subtype": "noteOn"
      },
      {
        "deltaTime": 0,
        "channel": 2,
        "type": "channel",
        "noteNumber": 58,
        "velocity": 127,
        "subtype": "noteOn"
      },
      {
        "deltaTime": 0,
        "channel": 2,
        "type": "channel",
        "noteNumber": 53,
        "velocity": 127,
        "subtype": "noteOn"
      },
      {
        "deltaTime": 0,
        "channel": 2,
        "type": "channel",
        "noteNumber": 46,
        "velocity": 127,
        "subtype": "noteOn"
      },
      {
        "deltaTime": 480,
        "channel": 2,
        "type": "channel",
        "noteNumber": 46,
        "velocity": 0,
        "subtype": "noteOff"
      },
      {
        "deltaTime": 0,
        "channel": 2,
        "type": "channel",
        "noteNumber": 65,
        "velocity": 0,
        "subtype": "noteOff"
      },
      {
        "deltaTime": 0,
        "channel": 2,
        "type": "channel",
        "noteNumber": 58,
        "velocity": 0,
        "subtype": "noteOff"
      },
      {
        "deltaTime": 0,
        "channel": 2,
        "type": "channel",
        "noteNumber": 53,
        "velocity": 0,
        "subtype": "noteOff"
      },
      {
        "deltaTime": 0,
        "channel": 2,
        "type": "channel",
        "noteNumber": 65,
        "velocity": 127,
        "subtype": "noteOn"
      },
      {
        "deltaTime": 0,
        "channel": 2,
        "type": "channel",
        "noteNumber": 58,
        "velocity": 127,
        "subtype": "noteOn"
      },
      {
        "deltaTime": 0,
        "channel": 2,
        "type": "channel",
        "noteNumber": 53,
        "velocity": 127,
        "subtype": "noteOn"
      },
      {
        "deltaTime": 0,
        "channel": 2,
        "type": "channel",
        "noteNumber": 46,
        "velocity": 127,
        "subtype": "noteOn"
      },
      {
        "deltaTime": 480,
        "channel": 2,
        "type": "channel",
        "noteNumber": 46,
        "velocity": 0,
        "subtype": "noteOff"
      },
      {
        "deltaTime": 0,
        "channel": 2,
        "type": "channel",
        "noteNumber": 65,
        "velocity": 0,
        "subtype": "noteOff"
      },
      {
        "deltaTime": 0,
        "channel": 2,
        "type": "channel",
        "noteNumber": 58,
        "velocity": 0,
        "subtype": "noteOff"
      },
      {
        "deltaTime": 0,
        "channel": 2,
        "type": "channel",
        "noteNumber": 53,
        "velocity": 0,
        "subtype": "noteOff"
      },
      {
        "deltaTime": 0,
        "channel": 2,
        "type": "channel",
        "noteNumber": 65,
        "velocity": 127,
        "subtype": "noteOn"
      },
      {
        "deltaTime": 0,
        "channel": 2,
        "type": "channel",
        "noteNumber": 58,
        "velocity": 127,
        "subtype": "noteOn"
      },
      {
        "deltaTime": 0,
        "channel": 2,
        "type": "channel",
        "noteNumber": 53,
        "velocity": 127,
        "subtype": "noteOn"
      },
      {
        "deltaTime": 0,
        "channel": 2,
        "type": "channel",
        "noteNumber": 46,
        "velocity": 127,
        "subtype": "noteOn"
      },
      {
        "deltaTime": 480,
        "channel": 2,
        "type": "channel",
        "noteNumber": 46,
        "velocity": 0,
        "subtype": "noteOff"
      },
      {
        "deltaTime": 0,
        "channel": 2,
        "type": "channel",
        "noteNumber": 65,
        "velocity": 0,
        "subtype": "noteOff"
      },
      {
        "deltaTime": 0,
        "channel": 2,
        "type": "channel",
        "noteNumber": 58,
        "velocity": 0,
        "subtype": "noteOff"
      },
      {
        "deltaTime": 0,
        "channel": 2,
        "type": "channel",
        "noteNumber": 53,
        "velocity": 0,
        "subtype": "noteOff"
      },
      {
        "deltaTime": 0,
        "channel": 2,
        "type": "channel",
        "noteNumber": 65,
        "velocity": 127,
        "subtype": "noteOn"
      },
      {
        "deltaTime": 0,
        "channel": 2,
        "type": "channel",
        "noteNumber": 58,
        "velocity": 127,
        "subtype": "noteOn"
      },
      {
        "deltaTime": 0,
        "channel": 2,
        "type": "channel",
        "noteNumber": 53,
        "velocity": 127,
        "subtype": "noteOn"
      },
      {
        "deltaTime": 0,
        "channel": 2,
        "type": "channel",
        "noteNumber": 46,
        "velocity": 127,
        "subtype": "noteOn"
      },
      {
        "deltaTime": 480,
        "channel": 2,
        "type": "channel",
        "noteNumber": 46,
        "velocity": 0,
        "subtype": "noteOff"
      },
      {
        "deltaTime": 0,
        "channel": 2,
        "type": "channel",
        "noteNumber": 65,
        "velocity": 0,
        "subtype": "noteOff"
      },
      {
        "deltaTime": 0,
        "channel": 2,
        "type": "channel",
        "noteNumber": 58,
        "velocity": 0,
        "subtype": "noteOff"
      },
      {
        "deltaTime": 0,
        "channel": 2,
        "type": "channel",
        "noteNumber": 53,
        "velocity": 0,
        "subtype": "noteOff"
      },
      {
        "deltaTime": 0,
        "channel": 2,
        "type": "channel",
        "noteNumber": 65,
        "velocity": 127,
        "subtype": "noteOn"
      },
      {
        "deltaTime": 0,
        "channel": 2,
        "type": "channel",
        "noteNumber": 58,
        "velocity": 127,
        "subtype": "noteOn"
      },
      {
        "deltaTime": 0,
        "channel": 2,
        "type": "channel",
        "noteNumber": 53,
        "velocity": 127,
        "subtype": "noteOn"
      },
      {
        "deltaTime": 0,
        "channel": 2,
        "type": "channel",
        "noteNumber": 46,
        "velocity": 127,
        "subtype": "noteOn"
      },
      {
        "deltaTime": 480,
        "channel": 2,
        "type": "channel",
        "noteNumber": 46,
        "velocity": 0,
        "subtype": "noteOff"
      },
      {
        "deltaTime": 0,
        "channel": 2,
        "type": "channel",
        "noteNumber": 65,
        "velocity": 0,
        "subtype": "noteOff"
      },
      {
        "deltaTime": 0,
        "channel": 2,
        "type": "channel",
        "noteNumber": 58,
        "velocity": 0,
        "subtype": "noteOff"
      },
      {
        "deltaTime": 0,
        "channel": 2,
        "type": "channel",
        "noteNumber": 53,
        "velocity": 0,
        "subtype": "noteOff"
      },
      {
        "deltaTime": 0,
        "channel": 2,
        "type": "channel",
        "noteNumber": 65,
        "velocity": 127,
        "subtype": "noteOn"
      },
      {
        "deltaTime": 0,
        "channel": 2,
        "type": "channel",
        "noteNumber": 58,
        "velocity": 127,
        "subtype": "noteOn"
      },
      {
        "deltaTime": 0,
        "channel": 2,
        "type": "channel",
        "noteNumber": 53,
        "velocity": 127,
        "subtype": "noteOn"
      },
      {
        "deltaTime": 0,
        "channel": 2,
        "type": "channel",
        "noteNumber": 46,
        "velocity": 127,
        "subtype": "noteOn"
      },
      {
        "deltaTime": 480,
        "channel": 2,
        "type": "channel",
        "noteNumber": 46,
        "velocity": 0,
        "subtype": "noteOff"
      },
      {
        "deltaTime": 0,
        "channel": 2,
        "type": "channel",
        "noteNumber": 65,
        "velocity": 0,
        "subtype": "noteOff"
      },
      {
        "deltaTime": 0,
        "channel": 2,
        "type": "channel",
        "noteNumber": 58,
        "velocity": 0,
        "subtype": "noteOff"
      },
      {
        "deltaTime": 0,
        "channel": 2,
        "type": "channel",
        "noteNumber": 53,
        "velocity": 0,
        "subtype": "noteOff"
      },
      {
        "deltaTime": 0,
        "channel": 2,
        "type": "channel",
        "noteNumber": 65,
        "velocity": 127,
        "subtype": "noteOn"
      },
      {
        "deltaTime": 0,
        "channel": 2,
        "type": "channel",
        "noteNumber": 58,
        "velocity": 127,
        "subtype": "noteOn"
      },
      {
        "deltaTime": 0,
        "channel": 2,
        "type": "channel",
        "noteNumber": 53,
        "velocity": 127,
        "subtype": "noteOn"
      },
      {
        "deltaTime": 0,
        "channel": 2,
        "type": "channel",
        "noteNumber": 46,
        "velocity": 127,
        "subtype": "noteOn"
      },
      {
        "deltaTime": 480,
        "channel": 2,
        "type": "channel",
        "noteNumber": 46,
        "velocity": 0,
        "subtype": "noteOff"
      },
      {
        "deltaTime": 0,
        "channel": 2,
        "type": "channel",
        "noteNumber": 65,
        "velocity": 0,
        "subtype": "noteOff"
      },
      {
        "deltaTime": 0,
        "channel": 2,
        "type": "channel",
        "noteNumber": 58,
        "velocity": 0,
        "subtype": "noteOff"
      },
      {
        "deltaTime": 0,
        "channel": 2,
        "type": "channel",
        "noteNumber": 53,
        "velocity": 0,
        "subtype": "noteOff"
      },
      {
        "deltaTime": 0,
        "channel": 2,
        "type": "channel",
        "noteNumber": 63,
        "velocity": 127,
        "subtype": "noteOn"
      },
      {
        "deltaTime": 0,
        "channel": 2,
        "type": "channel",
        "noteNumber": 56,
        "velocity": 127,
        "subtype": "noteOn"
      },
      {
        "deltaTime": 0,
        "channel": 2,
        "type": "channel",
        "noteNumber": 51,
        "velocity": 127,
        "subtype": "noteOn"
      },
      {
        "deltaTime": 0,
        "channel": 2,
        "type": "channel",
        "noteNumber": 44,
        "velocity": 127,
        "subtype": "noteOn"
      },
      {
        "deltaTime": 480,
        "channel": 2,
        "type": "channel",
        "noteNumber": 44,
        "velocity": 0,
        "subtype": "noteOff"
      },
      {
        "deltaTime": 0,
        "channel": 2,
        "type": "channel",
        "noteNumber": 63,
        "velocity": 0,
        "subtype": "noteOff"
      },
      {
        "deltaTime": 0,
        "channel": 2,
        "type": "channel",
        "noteNumber": 56,
        "velocity": 0,
        "subtype": "noteOff"
      },
      {
        "deltaTime": 0,
        "channel": 2,
        "type": "channel",
        "noteNumber": 51,
        "velocity": 0,
        "subtype": "noteOff"
      },
      {
        "deltaTime": 0,
        "channel": 2,
        "type": "channel",
        "noteNumber": 63,
        "velocity": 127,
        "subtype": "noteOn"
      },
      {
        "deltaTime": 0,
        "channel": 2,
        "type": "channel",
        "noteNumber": 56,
        "velocity": 127,
        "subtype": "noteOn"
      },
      {
        "deltaTime": 0,
        "channel": 2,
        "type": "channel",
        "noteNumber": 51,
        "velocity": 127,
        "subtype": "noteOn"
      },
      {
        "deltaTime": 0,
        "channel": 2,
        "type": "channel",
        "noteNumber": 44,
        "velocity": 127,
        "subtype": "noteOn"
      },
      {
        "deltaTime": 480,
        "channel": 2,
        "type": "channel",
        "noteNumber": 44,
        "velocity": 0,
        "subtype": "noteOff"
      },
      {
        "deltaTime": 0,
        "channel": 2,
        "type": "channel",
        "noteNumber": 63,
        "velocity": 0,
        "subtype": "noteOff"
      },
      {
        "deltaTime": 0,
        "channel": 2,
        "type": "channel",
        "noteNumber": 56,
        "velocity": 0,
        "subtype": "noteOff"
      },
      {
        "deltaTime": 0,
        "channel": 2,
        "type": "channel",
        "noteNumber": 51,
        "velocity": 0,
        "subtype": "noteOff"
      },
      {
        "deltaTime": 0,
        "channel": 2,
        "type": "channel",
        "noteNumber": 63,
        "velocity": 127,
        "subtype": "noteOn"
      },
      {
        "deltaTime": 0,
        "channel": 2,
        "type": "channel",
        "noteNumber": 56,
        "velocity": 127,
        "subtype": "noteOn"
      },
      {
        "deltaTime": 0,
        "channel": 2,
        "type": "channel",
        "noteNumber": 51,
        "velocity": 127,
        "subtype": "noteOn"
      },
      {
        "deltaTime": 0,
        "channel": 2,
        "type": "channel",
        "noteNumber": 44,
        "velocity": 127,
        "subtype": "noteOn"
      },
      {
        "deltaTime": 480,
        "channel": 2,
        "type": "channel",
        "noteNumber": 44,
        "velocity": 0,
        "subtype": "noteOff"
      },
      {
        "deltaTime": 0,
        "channel": 2,
        "type": "channel",
        "noteNumber": 63,
        "velocity": 0,
        "subtype": "noteOff"
      },
      {
        "deltaTime": 0,
        "channel": 2,
        "type": "channel",
        "noteNumber": 56,
        "velocity": 0,
        "subtype": "noteOff"
      },
      {
        "deltaTime": 0,
        "channel": 2,
        "type": "channel",
        "noteNumber": 51,
        "velocity": 0,
        "subtype": "noteOff"
      },
      {
        "deltaTime": 0,
        "channel": 2,
        "type": "channel",
        "noteNumber": 63,
        "velocity": 127,
        "subtype": "noteOn"
      },
      {
        "deltaTime": 0,
        "channel": 2,
        "type": "channel",
        "noteNumber": 56,
        "velocity": 127,
        "subtype": "noteOn"
      },
      {
        "deltaTime": 0,
        "channel": 2,
        "type": "channel",
        "noteNumber": 51,
        "velocity": 127,
        "subtype": "noteOn"
      },
      {
        "deltaTime": 0,
        "channel": 2,
        "type": "channel",
        "noteNumber": 44,
        "velocity": 127,
        "subtype": "noteOn"
      },
      {
        "deltaTime": 480,
        "channel": 2,
        "type": "channel",
        "noteNumber": 44,
        "velocity": 0,
        "subtype": "noteOff"
      },
      {
        "deltaTime": 0,
        "channel": 2,
        "type": "channel",
        "noteNumber": 63,
        "velocity": 0,
        "subtype": "noteOff"
      },
      {
        "deltaTime": 0,
        "channel": 2,
        "type": "channel",
        "noteNumber": 56,
        "velocity": 0,
        "subtype": "noteOff"
      },
      {
        "deltaTime": 0,
        "channel": 2,
        "type": "channel",
        "noteNumber": 51,
        "velocity": 0,
        "subtype": "noteOff"
      },
      {
        "deltaTime": 0,
        "channel": 2,
        "type": "channel",
        "noteNumber": 63,
        "velocity": 127,
        "subtype": "noteOn"
      },
      {
        "deltaTime": 0,
        "channel": 2,
        "type": "channel",
        "noteNumber": 56,
        "velocity": 127,
        "subtype": "noteOn"
      },
      {
        "deltaTime": 0,
        "channel": 2,
        "type": "channel",
        "noteNumber": 51,
        "velocity": 127,
        "subtype": "noteOn"
      },
      {
        "deltaTime": 0,
        "channel": 2,
        "type": "channel",
        "noteNumber": 44,
        "velocity": 127,
        "subtype": "noteOn"
      },
      {
        "deltaTime": 480,
        "channel": 2,
        "type": "channel",
        "noteNumber": 44,
        "velocity": 0,
        "subtype": "noteOff"
      },
      {
        "deltaTime": 0,
        "channel": 2,
        "type": "channel",
        "noteNumber": 63,
        "velocity": 0,
        "subtype": "noteOff"
      },
      {
        "deltaTime": 0,
        "channel": 2,
        "type": "channel",
        "noteNumber": 56,
        "velocity": 0,
        "subtype": "noteOff"
      },
      {
        "deltaTime": 0,
        "channel": 2,
        "type": "channel",
        "noteNumber": 51,
        "velocity": 0,
        "subtype": "noteOff"
      },
      {
        "deltaTime": 0,
        "channel": 2,
        "type": "channel",
        "noteNumber": 63,
        "velocity": 127,
        "subtype": "noteOn"
      },
      {
        "deltaTime": 0,
        "channel": 2,
        "type": "channel",
        "noteNumber": 56,
        "velocity": 127,
        "subtype": "noteOn"
      },
      {
        "deltaTime": 0,
        "channel": 2,
        "type": "channel",
        "noteNumber": 51,
        "velocity": 127,
        "subtype": "noteOn"
      },
      {
        "deltaTime": 0,
        "channel": 2,
        "type": "channel",
        "noteNumber": 44,
        "velocity": 127,
        "subtype": "noteOn"
      },
      {
        "deltaTime": 480,
        "channel": 2,
        "type": "channel",
        "noteNumber": 44,
        "velocity": 0,
        "subtype": "noteOff"
      },
      {
        "deltaTime": 0,
        "channel": 2,
        "type": "channel",
        "noteNumber": 63,
        "velocity": 0,
        "subtype": "noteOff"
      },
      {
        "deltaTime": 0,
        "channel": 2,
        "type": "channel",
        "noteNumber": 56,
        "velocity": 0,
        "subtype": "noteOff"
      },
      {
        "deltaTime": 0,
        "channel": 2,
        "type": "channel",
        "noteNumber": 51,
        "velocity": 0,
        "subtype": "noteOff"
      },
      {
        "deltaTime": 0,
        "channel": 2,
        "type": "channel",
        "noteNumber": 63,
        "velocity": 127,
        "subtype": "noteOn"
      },
      {
        "deltaTime": 0,
        "channel": 2,
        "type": "channel",
        "noteNumber": 56,
        "velocity": 127,
        "subtype": "noteOn"
      },
      {
        "deltaTime": 0,
        "channel": 2,
        "type": "channel",
        "noteNumber": 51,
        "velocity": 127,
        "subtype": "noteOn"
      },
      {
        "deltaTime": 0,
        "channel": 2,
        "type": "channel",
        "noteNumber": 44,
        "velocity": 127,
        "subtype": "noteOn"
      },
      {
        "deltaTime": 480,
        "channel": 2,
        "type": "channel",
        "noteNumber": 44,
        "velocity": 0,
        "subtype": "noteOff"
      },
      {
        "deltaTime": 0,
        "channel": 2,
        "type": "channel",
        "noteNumber": 63,
        "velocity": 0,
        "subtype": "noteOff"
      },
      {
        "deltaTime": 0,
        "channel": 2,
        "type": "channel",
        "noteNumber": 56,
        "velocity": 0,
        "subtype": "noteOff"
      },
      {
        "deltaTime": 0,
        "channel": 2,
        "type": "channel",
        "noteNumber": 51,
        "velocity": 0,
        "subtype": "noteOff"
      },
      {
        "deltaTime": 0,
        "channel": 2,
        "type": "channel",
        "noteNumber": 63,
        "velocity": 127,
        "subtype": "noteOn"
      },
      {
        "deltaTime": 0,
        "channel": 2,
        "type": "channel",
        "noteNumber": 56,
        "velocity": 127,
        "subtype": "noteOn"
      },
      {
        "deltaTime": 0,
        "channel": 2,
        "type": "channel",
        "noteNumber": 51,
        "velocity": 127,
        "subtype": "noteOn"
      },
      {
        "deltaTime": 0,
        "channel": 2,
        "type": "channel",
        "noteNumber": 44,
        "velocity": 127,
        "subtype": "noteOn"
      },
      {
        "deltaTime": 480,
        "channel": 2,
        "type": "channel",
        "noteNumber": 44,
        "velocity": 0,
        "subtype": "noteOff"
      },
      {
        "deltaTime": 0,
        "channel": 2,
        "type": "channel",
        "noteNumber": 63,
        "velocity": 0,
        "subtype": "noteOff"
      },
      {
        "deltaTime": 0,
        "channel": 2,
        "type": "channel",
        "noteNumber": 56,
        "velocity": 0,
        "subtype": "noteOff"
      },
      {
        "deltaTime": 0,
        "channel": 2,
        "type": "channel",
        "noteNumber": 51,
        "velocity": 0,
        "subtype": "noteOff"
      },
      {
        "deltaTime": 0,
        "channel": 2,
        "type": "channel",
        "noteNumber": 58,
        "velocity": 127,
        "subtype": "noteOn"
      },
      {
        "deltaTime": 0,
        "channel": 2,
        "type": "channel",
        "noteNumber": 51,
        "velocity": 127,
        "subtype": "noteOn"
      },
      {
        "deltaTime": 0,
        "channel": 2,
        "type": "channel",
        "noteNumber": 46,
        "velocity": 127,
        "subtype": "noteOn"
      },
      {
        "deltaTime": 0,
        "channel": 2,
        "type": "channel",
        "noteNumber": 39,
        "velocity": 127,
        "subtype": "noteOn"
      },
      {
        "deltaTime": 480,
        "channel": 2,
        "type": "channel",
        "noteNumber": 39,
        "velocity": 0,
        "subtype": "noteOff"
      },
      {
        "deltaTime": 0,
        "channel": 2,
        "type": "channel",
        "noteNumber": 58,
        "velocity": 0,
        "subtype": "noteOff"
      },
      {
        "deltaTime": 0,
        "channel": 2,
        "type": "channel",
        "noteNumber": 51,
        "velocity": 0,
        "subtype": "noteOff"
      },
      {
        "deltaTime": 0,
        "channel": 2,
        "type": "channel",
        "noteNumber": 46,
        "velocity": 0,
        "subtype": "noteOff"
      },
      {
        "deltaTime": 0,
        "channel": 2,
        "type": "channel",
        "noteNumber": 58,
        "velocity": 127,
        "subtype": "noteOn"
      },
      {
        "deltaTime": 0,
        "channel": 2,
        "type": "channel",
        "noteNumber": 51,
        "velocity": 127,
        "subtype": "noteOn"
      },
      {
        "deltaTime": 0,
        "channel": 2,
        "type": "channel",
        "noteNumber": 46,
        "velocity": 127,
        "subtype": "noteOn"
      },
      {
        "deltaTime": 0,
        "channel": 2,
        "type": "channel",
        "noteNumber": 39,
        "velocity": 127,
        "subtype": "noteOn"
      },
      {
        "deltaTime": 480,
        "channel": 2,
        "type": "channel",
        "noteNumber": 39,
        "velocity": 0,
        "subtype": "noteOff"
      },
      {
        "deltaTime": 0,
        "channel": 2,
        "type": "channel",
        "noteNumber": 58,
        "velocity": 0,
        "subtype": "noteOff"
      },
      {
        "deltaTime": 0,
        "channel": 2,
        "type": "channel",
        "noteNumber": 51,
        "velocity": 0,
        "subtype": "noteOff"
      },
      {
        "deltaTime": 0,
        "channel": 2,
        "type": "channel",
        "noteNumber": 46,
        "velocity": 0,
        "subtype": "noteOff"
      },
      {
        "deltaTime": 0,
        "channel": 2,
        "type": "channel",
        "noteNumber": 58,
        "velocity": 127,
        "subtype": "noteOn"
      },
      {
        "deltaTime": 0,
        "channel": 2,
        "type": "channel",
        "noteNumber": 51,
        "velocity": 127,
        "subtype": "noteOn"
      },
      {
        "deltaTime": 0,
        "channel": 2,
        "type": "channel",
        "noteNumber": 46,
        "velocity": 127,
        "subtype": "noteOn"
      },
      {
        "deltaTime": 0,
        "channel": 2,
        "type": "channel",
        "noteNumber": 39,
        "velocity": 127,
        "subtype": "noteOn"
      },
      {
        "deltaTime": 480,
        "channel": 2,
        "type": "channel",
        "noteNumber": 39,
        "velocity": 0,
        "subtype": "noteOff"
      },
      {
        "deltaTime": 0,
        "channel": 2,
        "type": "channel",
        "noteNumber": 58,
        "velocity": 0,
        "subtype": "noteOff"
      },
      {
        "deltaTime": 0,
        "channel": 2,
        "type": "channel",
        "noteNumber": 51,
        "velocity": 0,
        "subtype": "noteOff"
      },
      {
        "deltaTime": 0,
        "channel": 2,
        "type": "channel",
        "noteNumber": 46,
        "velocity": 0,
        "subtype": "noteOff"
      },
      {
        "deltaTime": 0,
        "channel": 2,
        "type": "channel",
        "noteNumber": 58,
        "velocity": 127,
        "subtype": "noteOn"
      },
      {
        "deltaTime": 0,
        "channel": 2,
        "type": "channel",
        "noteNumber": 51,
        "velocity": 127,
        "subtype": "noteOn"
      },
      {
        "deltaTime": 0,
        "channel": 2,
        "type": "channel",
        "noteNumber": 46,
        "velocity": 127,
        "subtype": "noteOn"
      },
      {
        "deltaTime": 0,
        "channel": 2,
        "type": "channel",
        "noteNumber": 39,
        "velocity": 127,
        "subtype": "noteOn"
      },
      {
        "deltaTime": 480,
        "channel": 2,
        "type": "channel",
        "noteNumber": 39,
        "velocity": 0,
        "subtype": "noteOff"
      },
      {
        "deltaTime": 0,
        "channel": 2,
        "type": "channel",
        "noteNumber": 58,
        "velocity": 0,
        "subtype": "noteOff"
      },
      {
        "deltaTime": 0,
        "channel": 2,
        "type": "channel",
        "noteNumber": 51,
        "velocity": 0,
        "subtype": "noteOff"
      },
      {
        "deltaTime": 0,
        "channel": 2,
        "type": "channel",
        "noteNumber": 46,
        "velocity": 0,
        "subtype": "noteOff"
      },
      {
        "deltaTime": 0,
        "channel": 2,
        "type": "channel",
        "noteNumber": 58,
        "velocity": 127,
        "subtype": "noteOn"
      },
      {
        "deltaTime": 0,
        "channel": 2,
        "type": "channel",
        "noteNumber": 51,
        "velocity": 127,
        "subtype": "noteOn"
      },
      {
        "deltaTime": 0,
        "channel": 2,
        "type": "channel",
        "noteNumber": 46,
        "velocity": 127,
        "subtype": "noteOn"
      },
      {
        "deltaTime": 0,
        "channel": 2,
        "type": "channel",
        "noteNumber": 39,
        "velocity": 127,
        "subtype": "noteOn"
      },
      {
        "deltaTime": 480,
        "channel": 2,
        "type": "channel",
        "noteNumber": 39,
        "velocity": 0,
        "subtype": "noteOff"
      },
      {
        "deltaTime": 0,
        "channel": 2,
        "type": "channel",
        "noteNumber": 58,
        "velocity": 0,
        "subtype": "noteOff"
      },
      {
        "deltaTime": 0,
        "channel": 2,
        "type": "channel",
        "noteNumber": 51,
        "velocity": 0,
        "subtype": "noteOff"
      },
      {
        "deltaTime": 0,
        "channel": 2,
        "type": "channel",
        "noteNumber": 46,
        "velocity": 0,
        "subtype": "noteOff"
      },
      {
        "deltaTime": 0,
        "channel": 2,
        "type": "channel",
        "noteNumber": 58,
        "velocity": 127,
        "subtype": "noteOn"
      },
      {
        "deltaTime": 0,
        "channel": 2,
        "type": "channel",
        "noteNumber": 51,
        "velocity": 127,
        "subtype": "noteOn"
      },
      {
        "deltaTime": 0,
        "channel": 2,
        "type": "channel",
        "noteNumber": 46,
        "velocity": 127,
        "subtype": "noteOn"
      },
      {
        "deltaTime": 0,
        "channel": 2,
        "type": "channel",
        "noteNumber": 39,
        "velocity": 127,
        "subtype": "noteOn"
      },
      {
        "deltaTime": 480,
        "channel": 2,
        "type": "channel",
        "noteNumber": 39,
        "velocity": 0,
        "subtype": "noteOff"
      },
      {
        "deltaTime": 0,
        "channel": 2,
        "type": "channel",
        "noteNumber": 58,
        "velocity": 0,
        "subtype": "noteOff"
      },
      {
        "deltaTime": 0,
        "channel": 2,
        "type": "channel",
        "noteNumber": 51,
        "velocity": 0,
        "subtype": "noteOff"
      },
      {
        "deltaTime": 0,
        "channel": 2,
        "type": "channel",
        "noteNumber": 46,
        "velocity": 0,
        "subtype": "noteOff"
      },
      {
        "deltaTime": 0,
        "channel": 2,
        "type": "channel",
        "noteNumber": 58,
        "velocity": 127,
        "subtype": "noteOn"
      },
      {
        "deltaTime": 0,
        "channel": 2,
        "type": "channel",
        "noteNumber": 51,
        "velocity": 127,
        "subtype": "noteOn"
      },
      {
        "deltaTime": 0,
        "channel": 2,
        "type": "channel",
        "noteNumber": 46,
        "velocity": 127,
        "subtype": "noteOn"
      },
      {
        "deltaTime": 0,
        "channel": 2,
        "type": "channel",
        "noteNumber": 39,
        "velocity": 127,
        "subtype": "noteOn"
      },
      {
        "deltaTime": 480,
        "channel": 2,
        "type": "channel",
        "noteNumber": 39,
        "velocity": 0,
        "subtype": "noteOff"
      },
      {
        "deltaTime": 0,
        "channel": 2,
        "type": "channel",
        "noteNumber": 58,
        "velocity": 0,
        "subtype": "noteOff"
      },
      {
        "deltaTime": 0,
        "channel": 2,
        "type": "channel",
        "noteNumber": 51,
        "velocity": 0,
        "subtype": "noteOff"
      },
      {
        "deltaTime": 0,
        "channel": 2,
        "type": "channel",
        "noteNumber": 46,
        "velocity": 0,
        "subtype": "noteOff"
      },
      {
        "deltaTime": 0,
        "channel": 2,
        "type": "channel",
        "noteNumber": 58,
        "velocity": 127,
        "subtype": "noteOn"
      },
      {
        "deltaTime": 0,
        "channel": 2,
        "type": "channel",
        "noteNumber": 51,
        "velocity": 127,
        "subtype": "noteOn"
      },
      {
        "deltaTime": 0,
        "channel": 2,
        "type": "channel",
        "noteNumber": 46,
        "velocity": 127,
        "subtype": "noteOn"
      },
      {
        "deltaTime": 0,
        "channel": 2,
        "type": "channel",
        "noteNumber": 39,
        "velocity": 127,
        "subtype": "noteOn"
      },
      {
        "deltaTime": 480,
        "channel": 2,
        "type": "channel",
        "noteNumber": 39,
        "velocity": 0,
        "subtype": "noteOff"
      },
      {
        "deltaTime": 0,
        "channel": 2,
        "type": "channel",
        "noteNumber": 58,
        "velocity": 0,
        "subtype": "noteOff"
      },
      {
        "deltaTime": 0,
        "channel": 2,
        "type": "channel",
        "noteNumber": 51,
        "velocity": 0,
        "subtype": "noteOff"
      },
      {
        "deltaTime": 0,
        "channel": 2,
        "type": "channel",
        "noteNumber": 46,
        "velocity": 0,
        "subtype": "noteOff"
      },
      {
        "deltaTime": 0,
        "channel": 2,
        "type": "channel",
        "noteNumber": 65,
        "velocity": 127,
        "subtype": "noteOn"
      },
      {
        "deltaTime": 0,
        "channel": 2,
        "type": "channel",
        "noteNumber": 58,
        "velocity": 127,
        "subtype": "noteOn"
      },
      {
        "deltaTime": 0,
        "channel": 2,
        "type": "channel",
        "noteNumber": 53,
        "velocity": 127,
        "subtype": "noteOn"
      },
      {
        "deltaTime": 0,
        "channel": 2,
        "type": "channel",
        "noteNumber": 46,
        "velocity": 127,
        "subtype": "noteOn"
      },
      {
        "deltaTime": 480,
        "channel": 2,
        "type": "channel",
        "noteNumber": 46,
        "velocity": 0,
        "subtype": "noteOff"
      },
      {
        "deltaTime": 0,
        "channel": 2,
        "type": "channel",
        "noteNumber": 65,
        "velocity": 0,
        "subtype": "noteOff"
      },
      {
        "deltaTime": 0,
        "channel": 2,
        "type": "channel",
        "noteNumber": 58,
        "velocity": 0,
        "subtype": "noteOff"
      },
      {
        "deltaTime": 0,
        "channel": 2,
        "type": "channel",
        "noteNumber": 53,
        "velocity": 0,
        "subtype": "noteOff"
      },
      {
        "deltaTime": 0,
        "channel": 2,
        "type": "channel",
        "noteNumber": 65,
        "velocity": 127,
        "subtype": "noteOn"
      },
      {
        "deltaTime": 0,
        "channel": 2,
        "type": "channel",
        "noteNumber": 58,
        "velocity": 127,
        "subtype": "noteOn"
      },
      {
        "deltaTime": 0,
        "channel": 2,
        "type": "channel",
        "noteNumber": 53,
        "velocity": 127,
        "subtype": "noteOn"
      },
      {
        "deltaTime": 0,
        "channel": 2,
        "type": "channel",
        "noteNumber": 46,
        "velocity": 127,
        "subtype": "noteOn"
      },
      {
        "deltaTime": 480,
        "channel": 2,
        "type": "channel",
        "noteNumber": 46,
        "velocity": 0,
        "subtype": "noteOff"
      },
      {
        "deltaTime": 0,
        "channel": 2,
        "type": "channel",
        "noteNumber": 65,
        "velocity": 0,
        "subtype": "noteOff"
      },
      {
        "deltaTime": 0,
        "channel": 2,
        "type": "channel",
        "noteNumber": 58,
        "velocity": 0,
        "subtype": "noteOff"
      },
      {
        "deltaTime": 0,
        "channel": 2,
        "type": "channel",
        "noteNumber": 53,
        "velocity": 0,
        "subtype": "noteOff"
      },
      {
        "deltaTime": 0,
        "channel": 2,
        "type": "channel",
        "noteNumber": 65,
        "velocity": 127,
        "subtype": "noteOn"
      },
      {
        "deltaTime": 0,
        "channel": 2,
        "type": "channel",
        "noteNumber": 58,
        "velocity": 127,
        "subtype": "noteOn"
      },
      {
        "deltaTime": 0,
        "channel": 2,
        "type": "channel",
        "noteNumber": 53,
        "velocity": 127,
        "subtype": "noteOn"
      },
      {
        "deltaTime": 0,
        "channel": 2,
        "type": "channel",
        "noteNumber": 46,
        "velocity": 127,
        "subtype": "noteOn"
      },
      {
        "deltaTime": 480,
        "channel": 2,
        "type": "channel",
        "noteNumber": 46,
        "velocity": 0,
        "subtype": "noteOff"
      },
      {
        "deltaTime": 0,
        "channel": 2,
        "type": "channel",
        "noteNumber": 65,
        "velocity": 0,
        "subtype": "noteOff"
      },
      {
        "deltaTime": 0,
        "channel": 2,
        "type": "channel",
        "noteNumber": 58,
        "velocity": 0,
        "subtype": "noteOff"
      },
      {
        "deltaTime": 0,
        "channel": 2,
        "type": "channel",
        "noteNumber": 53,
        "velocity": 0,
        "subtype": "noteOff"
      },
      {
        "deltaTime": 0,
        "channel": 2,
        "type": "channel",
        "noteNumber": 65,
        "velocity": 127,
        "subtype": "noteOn"
      },
      {
        "deltaTime": 0,
        "channel": 2,
        "type": "channel",
        "noteNumber": 58,
        "velocity": 127,
        "subtype": "noteOn"
      },
      {
        "deltaTime": 0,
        "channel": 2,
        "type": "channel",
        "noteNumber": 53,
        "velocity": 127,
        "subtype": "noteOn"
      },
      {
        "deltaTime": 0,
        "channel": 2,
        "type": "channel",
        "noteNumber": 46,
        "velocity": 127,
        "subtype": "noteOn"
      },
      {
        "deltaTime": 480,
        "channel": 2,
        "type": "channel",
        "noteNumber": 46,
        "velocity": 0,
        "subtype": "noteOff"
      },
      {
        "deltaTime": 0,
        "channel": 2,
        "type": "channel",
        "noteNumber": 65,
        "velocity": 0,
        "subtype": "noteOff"
      },
      {
        "deltaTime": 0,
        "channel": 2,
        "type": "channel",
        "noteNumber": 58,
        "velocity": 0,
        "subtype": "noteOff"
      },
      {
        "deltaTime": 0,
        "channel": 2,
        "type": "channel",
        "noteNumber": 53,
        "velocity": 0,
        "subtype": "noteOff"
      },
      {
        "deltaTime": 0,
        "channel": 2,
        "type": "channel",
        "noteNumber": 65,
        "velocity": 127,
        "subtype": "noteOn"
      },
      {
        "deltaTime": 0,
        "channel": 2,
        "type": "channel",
        "noteNumber": 58,
        "velocity": 127,
        "subtype": "noteOn"
      },
      {
        "deltaTime": 0,
        "channel": 2,
        "type": "channel",
        "noteNumber": 53,
        "velocity": 127,
        "subtype": "noteOn"
      },
      {
        "deltaTime": 0,
        "channel": 2,
        "type": "channel",
        "noteNumber": 46,
        "velocity": 127,
        "subtype": "noteOn"
      },
      {
        "deltaTime": 480,
        "channel": 2,
        "type": "channel",
        "noteNumber": 46,
        "velocity": 0,
        "subtype": "noteOff"
      },
      {
        "deltaTime": 0,
        "channel": 2,
        "type": "channel",
        "noteNumber": 65,
        "velocity": 0,
        "subtype": "noteOff"
      },
      {
        "deltaTime": 0,
        "channel": 2,
        "type": "channel",
        "noteNumber": 58,
        "velocity": 0,
        "subtype": "noteOff"
      },
      {
        "deltaTime": 0,
        "channel": 2,
        "type": "channel",
        "noteNumber": 53,
        "velocity": 0,
        "subtype": "noteOff"
      },
      {
        "deltaTime": 0,
        "channel": 2,
        "type": "channel",
        "noteNumber": 65,
        "velocity": 127,
        "subtype": "noteOn"
      },
      {
        "deltaTime": 0,
        "channel": 2,
        "type": "channel",
        "noteNumber": 58,
        "velocity": 127,
        "subtype": "noteOn"
      },
      {
        "deltaTime": 0,
        "channel": 2,
        "type": "channel",
        "noteNumber": 53,
        "velocity": 127,
        "subtype": "noteOn"
      },
      {
        "deltaTime": 0,
        "channel": 2,
        "type": "channel",
        "noteNumber": 46,
        "velocity": 127,
        "subtype": "noteOn"
      },
      {
        "deltaTime": 480,
        "channel": 2,
        "type": "channel",
        "noteNumber": 46,
        "velocity": 0,
        "subtype": "noteOff"
      },
      {
        "deltaTime": 0,
        "channel": 2,
        "type": "channel",
        "noteNumber": 65,
        "velocity": 0,
        "subtype": "noteOff"
      },
      {
        "deltaTime": 0,
        "channel": 2,
        "type": "channel",
        "noteNumber": 58,
        "velocity": 0,
        "subtype": "noteOff"
      },
      {
        "deltaTime": 0,
        "channel": 2,
        "type": "channel",
        "noteNumber": 53,
        "velocity": 0,
        "subtype": "noteOff"
      },
      {
        "deltaTime": 0,
        "channel": 2,
        "type": "channel",
        "noteNumber": 65,
        "velocity": 127,
        "subtype": "noteOn"
      },
      {
        "deltaTime": 0,
        "channel": 2,
        "type": "channel",
        "noteNumber": 58,
        "velocity": 127,
        "subtype": "noteOn"
      },
      {
        "deltaTime": 0,
        "channel": 2,
        "type": "channel",
        "noteNumber": 53,
        "velocity": 127,
        "subtype": "noteOn"
      },
      {
        "deltaTime": 0,
        "channel": 2,
        "type": "channel",
        "noteNumber": 46,
        "velocity": 127,
        "subtype": "noteOn"
      },
      {
        "deltaTime": 480,
        "channel": 2,
        "type": "channel",
        "noteNumber": 46,
        "velocity": 0,
        "subtype": "noteOff"
      },
      {
        "deltaTime": 0,
        "channel": 2,
        "type": "channel",
        "noteNumber": 65,
        "velocity": 0,
        "subtype": "noteOff"
      },
      {
        "deltaTime": 0,
        "channel": 2,
        "type": "channel",
        "noteNumber": 58,
        "velocity": 0,
        "subtype": "noteOff"
      },
      {
        "deltaTime": 0,
        "channel": 2,
        "type": "channel",
        "noteNumber": 53,
        "velocity": 0,
        "subtype": "noteOff"
      },
      {
        "deltaTime": 0,
        "channel": 2,
        "type": "channel",
        "noteNumber": 65,
        "velocity": 127,
        "subtype": "noteOn"
      },
      {
        "deltaTime": 0,
        "channel": 2,
        "type": "channel",
        "noteNumber": 58,
        "velocity": 127,
        "subtype": "noteOn"
      },
      {
        "deltaTime": 0,
        "channel": 2,
        "type": "channel",
        "noteNumber": 53,
        "velocity": 127,
        "subtype": "noteOn"
      },
      {
        "deltaTime": 0,
        "channel": 2,
        "type": "channel",
        "noteNumber": 46,
        "velocity": 127,
        "subtype": "noteOn"
      },
      {
        "deltaTime": 480,
        "channel": 2,
        "type": "channel",
        "noteNumber": 46,
        "velocity": 0,
        "subtype": "noteOff"
      },
      {
        "deltaTime": 0,
        "channel": 2,
        "type": "channel",
        "noteNumber": 65,
        "velocity": 0,
        "subtype": "noteOff"
      },
      {
        "deltaTime": 0,
        "channel": 2,
        "type": "channel",
        "noteNumber": 58,
        "velocity": 0,
        "subtype": "noteOff"
      },
      {
        "deltaTime": 0,
        "channel": 2,
        "type": "channel",
        "noteNumber": 53,
        "velocity": 0,
        "subtype": "noteOff"
      },
      {
        "deltaTime": 0,
        "channel": 2,
        "type": "channel",
        "noteNumber": 65,
        "velocity": 127,
        "subtype": "noteOn"
      },
      {
        "deltaTime": 0,
        "channel": 2,
        "type": "channel",
        "noteNumber": 58,
        "velocity": 127,
        "subtype": "noteOn"
      },
      {
        "deltaTime": 0,
        "channel": 2,
        "type": "channel",
        "noteNumber": 53,
        "velocity": 127,
        "subtype": "noteOn"
      },
      {
        "deltaTime": 0,
        "channel": 2,
        "type": "channel",
        "noteNumber": 46,
        "velocity": 127,
        "subtype": "noteOn"
      },
      {
        "deltaTime": 480,
        "channel": 2,
        "type": "channel",
        "noteNumber": 46,
        "velocity": 0,
        "subtype": "noteOff"
      },
      {
        "deltaTime": 0,
        "channel": 2,
        "type": "channel",
        "noteNumber": 65,
        "velocity": 0,
        "subtype": "noteOff"
      },
      {
        "deltaTime": 0,
        "channel": 2,
        "type": "channel",
        "noteNumber": 58,
        "velocity": 0,
        "subtype": "noteOff"
      },
      {
        "deltaTime": 0,
        "channel": 2,
        "type": "channel",
        "noteNumber": 53,
        "velocity": 0,
        "subtype": "noteOff"
      },
      {
        "deltaTime": 0,
        "channel": 2,
        "type": "channel",
        "noteNumber": 65,
        "velocity": 127,
        "subtype": "noteOn"
      },
      {
        "deltaTime": 0,
        "channel": 2,
        "type": "channel",
        "noteNumber": 58,
        "velocity": 127,
        "subtype": "noteOn"
      },
      {
        "deltaTime": 0,
        "channel": 2,
        "type": "channel",
        "noteNumber": 53,
        "velocity": 127,
        "subtype": "noteOn"
      },
      {
        "deltaTime": 0,
        "channel": 2,
        "type": "channel",
        "noteNumber": 46,
        "velocity": 127,
        "subtype": "noteOn"
      },
      {
        "deltaTime": 480,
        "channel": 2,
        "type": "channel",
        "noteNumber": 46,
        "velocity": 0,
        "subtype": "noteOff"
      },
      {
        "deltaTime": 0,
        "channel": 2,
        "type": "channel",
        "noteNumber": 65,
        "velocity": 0,
        "subtype": "noteOff"
      },
      {
        "deltaTime": 0,
        "channel": 2,
        "type": "channel",
        "noteNumber": 58,
        "velocity": 0,
        "subtype": "noteOff"
      },
      {
        "deltaTime": 0,
        "channel": 2,
        "type": "channel",
        "noteNumber": 53,
        "velocity": 0,
        "subtype": "noteOff"
      },
      {
        "deltaTime": 0,
        "channel": 2,
        "type": "channel",
        "noteNumber": 65,
        "velocity": 127,
        "subtype": "noteOn"
      },
      {
        "deltaTime": 0,
        "channel": 2,
        "type": "channel",
        "noteNumber": 58,
        "velocity": 127,
        "subtype": "noteOn"
      },
      {
        "deltaTime": 0,
        "channel": 2,
        "type": "channel",
        "noteNumber": 53,
        "velocity": 127,
        "subtype": "noteOn"
      },
      {
        "deltaTime": 0,
        "channel": 2,
        "type": "channel",
        "noteNumber": 46,
        "velocity": 127,
        "subtype": "noteOn"
      },
      {
        "deltaTime": 480,
        "channel": 2,
        "type": "channel",
        "noteNumber": 46,
        "velocity": 0,
        "subtype": "noteOff"
      },
      {
        "deltaTime": 0,
        "channel": 2,
        "type": "channel",
        "noteNumber": 65,
        "velocity": 0,
        "subtype": "noteOff"
      },
      {
        "deltaTime": 0,
        "channel": 2,
        "type": "channel",
        "noteNumber": 58,
        "velocity": 0,
        "subtype": "noteOff"
      },
      {
        "deltaTime": 0,
        "channel": 2,
        "type": "channel",
        "noteNumber": 53,
        "velocity": 0,
        "subtype": "noteOff"
      },
      {
        "deltaTime": 0,
        "channel": 2,
        "type": "channel",
        "noteNumber": 65,
        "velocity": 127,
        "subtype": "noteOn"
      },
      {
        "deltaTime": 0,
        "channel": 2,
        "type": "channel",
        "noteNumber": 58,
        "velocity": 127,
        "subtype": "noteOn"
      },
      {
        "deltaTime": 0,
        "channel": 2,
        "type": "channel",
        "noteNumber": 53,
        "velocity": 127,
        "subtype": "noteOn"
      },
      {
        "deltaTime": 0,
        "channel": 2,
        "type": "channel",
        "noteNumber": 46,
        "velocity": 127,
        "subtype": "noteOn"
      },
      {
        "deltaTime": 480,
        "channel": 2,
        "type": "channel",
        "noteNumber": 46,
        "velocity": 0,
        "subtype": "noteOff"
      },
      {
        "deltaTime": 0,
        "channel": 2,
        "type": "channel",
        "noteNumber": 65,
        "velocity": 0,
        "subtype": "noteOff"
      },
      {
        "deltaTime": 0,
        "channel": 2,
        "type": "channel",
        "noteNumber": 58,
        "velocity": 0,
        "subtype": "noteOff"
      },
      {
        "deltaTime": 0,
        "channel": 2,
        "type": "channel",
        "noteNumber": 53,
        "velocity": 0,
        "subtype": "noteOff"
      },
      {
        "deltaTime": 0,
        "channel": 2,
        "type": "channel",
        "noteNumber": 65,
        "velocity": 127,
        "subtype": "noteOn"
      },
      {
        "deltaTime": 0,
        "channel": 2,
        "type": "channel",
        "noteNumber": 58,
        "velocity": 127,
        "subtype": "noteOn"
      },
      {
        "deltaTime": 0,
        "channel": 2,
        "type": "channel",
        "noteNumber": 53,
        "velocity": 127,
        "subtype": "noteOn"
      },
      {
        "deltaTime": 0,
        "channel": 2,
        "type": "channel",
        "noteNumber": 46,
        "velocity": 127,
        "subtype": "noteOn"
      },
      {
        "deltaTime": 480,
        "channel": 2,
        "type": "channel",
        "noteNumber": 46,
        "velocity": 0,
        "subtype": "noteOff"
      },
      {
        "deltaTime": 0,
        "channel": 2,
        "type": "channel",
        "noteNumber": 65,
        "velocity": 0,
        "subtype": "noteOff"
      },
      {
        "deltaTime": 0,
        "channel": 2,
        "type": "channel",
        "noteNumber": 58,
        "velocity": 0,
        "subtype": "noteOff"
      },
      {
        "deltaTime": 0,
        "channel": 2,
        "type": "channel",
        "noteNumber": 53,
        "velocity": 0,
        "subtype": "noteOff"
      },
      {
        "deltaTime": 0,
        "channel": 2,
        "type": "channel",
        "noteNumber": 65,
        "velocity": 127,
        "subtype": "noteOn"
      },
      {
        "deltaTime": 0,
        "channel": 2,
        "type": "channel",
        "noteNumber": 58,
        "velocity": 127,
        "subtype": "noteOn"
      },
      {
        "deltaTime": 0,
        "channel": 2,
        "type": "channel",
        "noteNumber": 53,
        "velocity": 127,
        "subtype": "noteOn"
      },
      {
        "deltaTime": 0,
        "channel": 2,
        "type": "channel",
        "noteNumber": 46,
        "velocity": 127,
        "subtype": "noteOn"
      },
      {
        "deltaTime": 480,
        "channel": 2,
        "type": "channel",
        "noteNumber": 46,
        "velocity": 0,
        "subtype": "noteOff"
      },
      {
        "deltaTime": 0,
        "channel": 2,
        "type": "channel",
        "noteNumber": 65,
        "velocity": 0,
        "subtype": "noteOff"
      },
      {
        "deltaTime": 0,
        "channel": 2,
        "type": "channel",
        "noteNumber": 58,
        "velocity": 0,
        "subtype": "noteOff"
      },
      {
        "deltaTime": 0,
        "channel": 2,
        "type": "channel",
        "noteNumber": 53,
        "velocity": 0,
        "subtype": "noteOff"
      },
      {
        "deltaTime": 0,
        "channel": 2,
        "type": "channel",
        "noteNumber": 65,
        "velocity": 127,
        "subtype": "noteOn"
      },
      {
        "deltaTime": 0,
        "channel": 2,
        "type": "channel",
        "noteNumber": 58,
        "velocity": 127,
        "subtype": "noteOn"
      },
      {
        "deltaTime": 0,
        "channel": 2,
        "type": "channel",
        "noteNumber": 53,
        "velocity": 127,
        "subtype": "noteOn"
      },
      {
        "deltaTime": 0,
        "channel": 2,
        "type": "channel",
        "noteNumber": 46,
        "velocity": 127,
        "subtype": "noteOn"
      },
      {
        "deltaTime": 480,
        "channel": 2,
        "type": "channel",
        "noteNumber": 46,
        "velocity": 0,
        "subtype": "noteOff"
      },
      {
        "deltaTime": 0,
        "channel": 2,
        "type": "channel",
        "noteNumber": 65,
        "velocity": 0,
        "subtype": "noteOff"
      },
      {
        "deltaTime": 0,
        "channel": 2,
        "type": "channel",
        "noteNumber": 58,
        "velocity": 0,
        "subtype": "noteOff"
      },
      {
        "deltaTime": 0,
        "channel": 2,
        "type": "channel",
        "noteNumber": 53,
        "velocity": 0,
        "subtype": "noteOff"
      },
      {
        "deltaTime": 0,
        "channel": 2,
        "type": "channel",
        "noteNumber": 65,
        "velocity": 127,
        "subtype": "noteOn"
      },
      {
        "deltaTime": 0,
        "channel": 2,
        "type": "channel",
        "noteNumber": 58,
        "velocity": 127,
        "subtype": "noteOn"
      },
      {
        "deltaTime": 0,
        "channel": 2,
        "type": "channel",
        "noteNumber": 53,
        "velocity": 127,
        "subtype": "noteOn"
      },
      {
        "deltaTime": 0,
        "channel": 2,
        "type": "channel",
        "noteNumber": 46,
        "velocity": 127,
        "subtype": "noteOn"
      },
      {
        "deltaTime": 480,
        "channel": 2,
        "type": "channel",
        "noteNumber": 46,
        "velocity": 0,
        "subtype": "noteOff"
      },
      {
        "deltaTime": 0,
        "channel": 2,
        "type": "channel",
        "noteNumber": 65,
        "velocity": 0,
        "subtype": "noteOff"
      },
      {
        "deltaTime": 0,
        "channel": 2,
        "type": "channel",
        "noteNumber": 58,
        "velocity": 0,
        "subtype": "noteOff"
      },
      {
        "deltaTime": 0,
        "channel": 2,
        "type": "channel",
        "noteNumber": 53,
        "velocity": 0,
        "subtype": "noteOff"
      },
      {
        "deltaTime": 11520,
        "channel": 2,
        "type": "channel",
        "noteNumber": 67,
        "velocity": 127,
        "subtype": "noteOn"
      },
      {
        "deltaTime": 0,
        "channel": 2,
        "type": "channel",
        "noteNumber": 54,
        "velocity": 127,
        "subtype": "noteOn"
      },
      {
        "deltaTime": 0,
        "channel": 2,
        "type": "channel",
        "noteNumber": 60,
        "velocity": 127,
        "subtype": "noteOn"
      },
      {
        "deltaTime": 0,
        "channel": 2,
        "type": "channel",
        "noteNumber": 51,
        "velocity": 127,
        "subtype": "noteOn"
      },
      {
        "deltaTime": 0,
        "channel": 2,
        "type": "channel",
        "noteNumber": 44,
        "velocity": 127,
        "subtype": "noteOn"
      },
      {
        "deltaTime": 40,
        "channel": 2,
        "type": "channel",
        "noteNumber": 54,
        "velocity": 0,
        "subtype": "noteOff"
      },
      {
        "deltaTime": 680,
        "channel": 2,
        "type": "channel",
        "noteNumber": 51,
        "velocity": 0,
        "subtype": "noteOff"
      },
      {
        "deltaTime": 0,
        "channel": 2,
        "type": "channel",
        "noteNumber": 67,
        "velocity": 0,
        "subtype": "noteOff"
      },
      {
        "deltaTime": 0,
        "channel": 2,
        "type": "channel",
        "noteNumber": 60,
        "velocity": 0,
        "subtype": "noteOff"
      },
      {
        "deltaTime": 0,
        "channel": 2,
        "type": "channel",
        "noteNumber": 44,
        "velocity": 0,
        "subtype": "noteOff"
      },
      {
        "deltaTime": 0,
        "channel": 2,
        "type": "channel",
        "noteNumber": 67,
        "velocity": 127,
        "subtype": "noteOn"
      },
      {
        "deltaTime": 0,
        "channel": 2,
        "type": "channel",
        "noteNumber": 54,
        "velocity": 127,
        "subtype": "noteOn"
      },
      {
        "deltaTime": 0,
        "channel": 2,
        "type": "channel",
        "noteNumber": 60,
        "velocity": 127,
        "subtype": "noteOn"
      },
      {
        "deltaTime": 0,
        "channel": 2,
        "type": "channel",
        "noteNumber": 51,
        "velocity": 127,
        "subtype": "noteOn"
      },
      {
        "deltaTime": 0,
        "channel": 2,
        "type": "channel",
        "noteNumber": 44,
        "velocity": 127,
        "subtype": "noteOn"
      },
      {
        "deltaTime": 40,
        "channel": 2,
        "type": "channel",
        "noteNumber": 54,
        "velocity": 0,
        "subtype": "noteOff"
      },
      {
        "deltaTime": 680,
        "channel": 2,
        "type": "channel",
        "noteNumber": 51,
        "velocity": 0,
        "subtype": "noteOff"
      },
      {
        "deltaTime": 0,
        "channel": 2,
        "type": "channel",
        "noteNumber": 67,
        "velocity": 0,
        "subtype": "noteOff"
      },
      {
        "deltaTime": 0,
        "channel": 2,
        "type": "channel",
        "noteNumber": 60,
        "velocity": 0,
        "subtype": "noteOff"
      },
      {
        "deltaTime": 0,
        "channel": 2,
        "type": "channel",
        "noteNumber": 44,
        "velocity": 0,
        "subtype": "noteOff"
      },
      {
        "deltaTime": 0,
        "channel": 2,
        "type": "channel",
        "noteNumber": 67,
        "velocity": 127,
        "subtype": "noteOn"
      },
      {
        "deltaTime": 0,
        "channel": 2,
        "type": "channel",
        "noteNumber": 54,
        "velocity": 127,
        "subtype": "noteOn"
      },
      {
        "deltaTime": 0,
        "channel": 2,
        "type": "channel",
        "noteNumber": 60,
        "velocity": 127,
        "subtype": "noteOn"
      },
      {
        "deltaTime": 0,
        "channel": 2,
        "type": "channel",
        "noteNumber": 51,
        "velocity": 127,
        "subtype": "noteOn"
      },
      {
        "deltaTime": 0,
        "channel": 2,
        "type": "channel",
        "noteNumber": 44,
        "velocity": 127,
        "subtype": "noteOn"
      },
      {
        "deltaTime": 40,
        "channel": 2,
        "type": "channel",
        "noteNumber": 54,
        "velocity": 0,
        "subtype": "noteOff"
      },
      {
        "deltaTime": 440,
        "channel": 2,
        "type": "channel",
        "noteNumber": 51,
        "velocity": 0,
        "subtype": "noteOff"
      },
      {
        "deltaTime": 0,
        "channel": 2,
        "type": "channel",
        "noteNumber": 67,
        "velocity": 0,
        "subtype": "noteOff"
      },
      {
        "deltaTime": 0,
        "channel": 2,
        "type": "channel",
        "noteNumber": 60,
        "velocity": 0,
        "subtype": "noteOff"
      },
      {
        "deltaTime": 0,
        "channel": 2,
        "type": "channel",
        "noteNumber": 44,
        "velocity": 0,
        "subtype": "noteOff"
      },
      {
        "deltaTime": 0,
        "channel": 2,
        "type": "channel",
        "noteNumber": 54,
        "velocity": 127,
        "subtype": "noteOn"
      },
      {
        "deltaTime": 0,
        "channel": 2,
        "type": "channel",
        "noteNumber": 49,
        "velocity": 127,
        "subtype": "noteOn"
      },
      {
        "deltaTime": 0,
        "channel": 2,
        "type": "channel",
        "noteNumber": 44,
        "velocity": 127,
        "subtype": "noteOn"
      },
      {
        "deltaTime": 0,
        "channel": 2,
        "type": "channel",
        "noteNumber": 37,
        "velocity": 127,
        "subtype": "noteOn"
      },
      {
        "deltaTime": 40,
        "channel": 2,
        "type": "channel",
        "noteNumber": 37,
        "velocity": 0,
        "subtype": "noteOff"
      },
      {
        "deltaTime": 0,
        "channel": 2,
        "type": "channel",
        "noteNumber": 54,
        "velocity": 0,
        "subtype": "noteOff"
      },
      {
        "deltaTime": 0,
        "channel": 2,
        "type": "channel",
        "noteNumber": 49,
        "velocity": 0,
        "subtype": "noteOff"
      },
      {
        "deltaTime": 0,
        "channel": 2,
        "type": "channel",
        "noteNumber": 44,
        "velocity": 0,
        "subtype": "noteOff"
      },
      {
        "deltaTime": 200,
        "channel": 2,
        "type": "channel",
        "noteNumber": 54,
        "velocity": 127,
        "subtype": "noteOn"
      },
      {
        "deltaTime": 0,
        "channel": 2,
        "type": "channel",
        "noteNumber": 49,
        "velocity": 127,
        "subtype": "noteOn"
      },
      {
        "deltaTime": 0,
        "channel": 2,
        "type": "channel",
        "noteNumber": 44,
        "velocity": 127,
        "subtype": "noteOn"
      },
      {
        "deltaTime": 0,
        "channel": 2,
        "type": "channel",
        "noteNumber": 37,
        "velocity": 127,
        "subtype": "noteOn"
      },
      {
        "deltaTime": 40,
        "channel": 2,
        "type": "channel",
        "noteNumber": 37,
        "velocity": 0,
        "subtype": "noteOff"
      },
      {
        "deltaTime": 0,
        "channel": 2,
        "type": "channel",
        "noteNumber": 54,
        "velocity": 0,
        "subtype": "noteOff"
      },
      {
        "deltaTime": 0,
        "channel": 2,
        "type": "channel",
        "noteNumber": 49,
        "velocity": 0,
        "subtype": "noteOff"
      },
      {
        "deltaTime": 0,
        "channel": 2,
        "type": "channel",
        "noteNumber": 44,
        "velocity": 0,
        "subtype": "noteOff"
      },
      {
        "deltaTime": 200,
        "channel": 2,
        "type": "channel",
        "noteNumber": 54,
        "velocity": 127,
        "subtype": "noteOn"
      },
      {
        "deltaTime": 0,
        "channel": 2,
        "type": "channel",
        "noteNumber": 49,
        "velocity": 127,
        "subtype": "noteOn"
      },
      {
        "deltaTime": 0,
        "channel": 2,
        "type": "channel",
        "noteNumber": 44,
        "velocity": 127,
        "subtype": "noteOn"
      },
      {
        "deltaTime": 0,
        "channel": 2,
        "type": "channel",
        "noteNumber": 37,
        "velocity": 127,
        "subtype": "noteOn"
      },
      {
        "deltaTime": 40,
        "channel": 2,
        "type": "channel",
        "noteNumber": 37,
        "velocity": 0,
        "subtype": "noteOff"
      },
      {
        "deltaTime": 0,
        "channel": 2,
        "type": "channel",
        "noteNumber": 54,
        "velocity": 0,
        "subtype": "noteOff"
      },
      {
        "deltaTime": 0,
        "channel": 2,
        "type": "channel",
        "noteNumber": 49,
        "velocity": 0,
        "subtype": "noteOff"
      },
      {
        "deltaTime": 0,
        "channel": 2,
        "type": "channel",
        "noteNumber": 44,
        "velocity": 0,
        "subtype": "noteOff"
      },
      {
        "deltaTime": 200,
        "channel": 2,
        "type": "channel",
        "noteNumber": 54,
        "velocity": 127,
        "subtype": "noteOn"
      },
      {
        "deltaTime": 0,
        "channel": 2,
        "type": "channel",
        "noteNumber": 49,
        "velocity": 127,
        "subtype": "noteOn"
      },
      {
        "deltaTime": 0,
        "channel": 2,
        "type": "channel",
        "noteNumber": 44,
        "velocity": 127,
        "subtype": "noteOn"
      },
      {
        "deltaTime": 0,
        "channel": 2,
        "type": "channel",
        "noteNumber": 37,
        "velocity": 127,
        "subtype": "noteOn"
      },
      {
        "deltaTime": 40,
        "channel": 2,
        "type": "channel",
        "noteNumber": 37,
        "velocity": 0,
        "subtype": "noteOff"
      },
      {
        "deltaTime": 0,
        "channel": 2,
        "type": "channel",
        "noteNumber": 54,
        "velocity": 0,
        "subtype": "noteOff"
      },
      {
        "deltaTime": 0,
        "channel": 2,
        "type": "channel",
        "noteNumber": 49,
        "velocity": 0,
        "subtype": "noteOff"
      },
      {
        "deltaTime": 0,
        "channel": 2,
        "type": "channel",
        "noteNumber": 44,
        "velocity": 0,
        "subtype": "noteOff"
      },
      {
        "deltaTime": 200,
        "channel": 2,
        "type": "channel",
        "noteNumber": 67,
        "velocity": 127,
        "subtype": "noteOn"
      },
      {
        "deltaTime": 0,
        "channel": 2,
        "type": "channel",
        "noteNumber": 54,
        "velocity": 127,
        "subtype": "noteOn"
      },
      {
        "deltaTime": 0,
        "channel": 2,
        "type": "channel",
        "noteNumber": 60,
        "velocity": 127,
        "subtype": "noteOn"
      },
      {
        "deltaTime": 0,
        "channel": 2,
        "type": "channel",
        "noteNumber": 51,
        "velocity": 127,
        "subtype": "noteOn"
      },
      {
        "deltaTime": 0,
        "channel": 2,
        "type": "channel",
        "noteNumber": 44,
        "velocity": 127,
        "subtype": "noteOn"
      },
      {
        "deltaTime": 40,
        "channel": 2,
        "type": "channel",
        "noteNumber": 54,
        "velocity": 0,
        "subtype": "noteOff"
      },
      {
        "deltaTime": 680,
        "channel": 2,
        "type": "channel",
        "noteNumber": 51,
        "velocity": 0,
        "subtype": "noteOff"
      },
      {
        "deltaTime": 0,
        "channel": 2,
        "type": "channel",
        "noteNumber": 67,
        "velocity": 0,
        "subtype": "noteOff"
      },
      {
        "deltaTime": 0,
        "channel": 2,
        "type": "channel",
        "noteNumber": 60,
        "velocity": 0,
        "subtype": "noteOff"
      },
      {
        "deltaTime": 0,
        "channel": 2,
        "type": "channel",
        "noteNumber": 44,
        "velocity": 0,
        "subtype": "noteOff"
      },
      {
        "deltaTime": 0,
        "channel": 2,
        "type": "channel",
        "noteNumber": 67,
        "velocity": 127,
        "subtype": "noteOn"
      },
      {
        "deltaTime": 0,
        "channel": 2,
        "type": "channel",
        "noteNumber": 54,
        "velocity": 127,
        "subtype": "noteOn"
      },
      {
        "deltaTime": 0,
        "channel": 2,
        "type": "channel",
        "noteNumber": 60,
        "velocity": 127,
        "subtype": "noteOn"
      },
      {
        "deltaTime": 0,
        "channel": 2,
        "type": "channel",
        "noteNumber": 51,
        "velocity": 127,
        "subtype": "noteOn"
      },
      {
        "deltaTime": 0,
        "channel": 2,
        "type": "channel",
        "noteNumber": 44,
        "velocity": 127,
        "subtype": "noteOn"
      },
      {
        "deltaTime": 40,
        "channel": 2,
        "type": "channel",
        "noteNumber": 54,
        "velocity": 0,
        "subtype": "noteOff"
      },
      {
        "deltaTime": 680,
        "channel": 2,
        "type": "channel",
        "noteNumber": 51,
        "velocity": 0,
        "subtype": "noteOff"
      },
      {
        "deltaTime": 0,
        "channel": 2,
        "type": "channel",
        "noteNumber": 67,
        "velocity": 0,
        "subtype": "noteOff"
      },
      {
        "deltaTime": 0,
        "channel": 2,
        "type": "channel",
        "noteNumber": 60,
        "velocity": 0,
        "subtype": "noteOff"
      },
      {
        "deltaTime": 0,
        "channel": 2,
        "type": "channel",
        "noteNumber": 44,
        "velocity": 0,
        "subtype": "noteOff"
      },
      {
        "deltaTime": 0,
        "channel": 2,
        "type": "channel",
        "noteNumber": 67,
        "velocity": 127,
        "subtype": "noteOn"
      },
      {
        "deltaTime": 0,
        "channel": 2,
        "type": "channel",
        "noteNumber": 54,
        "velocity": 127,
        "subtype": "noteOn"
      },
      {
        "deltaTime": 0,
        "channel": 2,
        "type": "channel",
        "noteNumber": 60,
        "velocity": 127,
        "subtype": "noteOn"
      },
      {
        "deltaTime": 0,
        "channel": 2,
        "type": "channel",
        "noteNumber": 51,
        "velocity": 127,
        "subtype": "noteOn"
      },
      {
        "deltaTime": 0,
        "channel": 2,
        "type": "channel",
        "noteNumber": 44,
        "velocity": 127,
        "subtype": "noteOn"
      },
      {
        "deltaTime": 40,
        "channel": 2,
        "type": "channel",
        "noteNumber": 54,
        "velocity": 0,
        "subtype": "noteOff"
      },
      {
        "deltaTime": 440,
        "channel": 2,
        "type": "channel",
        "noteNumber": 51,
        "velocity": 0,
        "subtype": "noteOff"
      },
      {
        "deltaTime": 0,
        "channel": 2,
        "type": "channel",
        "noteNumber": 67,
        "velocity": 0,
        "subtype": "noteOff"
      },
      {
        "deltaTime": 0,
        "channel": 2,
        "type": "channel",
        "noteNumber": 60,
        "velocity": 0,
        "subtype": "noteOff"
      },
      {
        "deltaTime": 0,
        "channel": 2,
        "type": "channel",
        "noteNumber": 44,
        "velocity": 0,
        "subtype": "noteOff"
      },
      {
        "deltaTime": 0,
        "channel": 2,
        "type": "channel",
        "noteNumber": 54,
        "velocity": 127,
        "subtype": "noteOn"
      },
      {
        "deltaTime": 0,
        "channel": 2,
        "type": "channel",
        "noteNumber": 49,
        "velocity": 127,
        "subtype": "noteOn"
      },
      {
        "deltaTime": 0,
        "channel": 2,
        "type": "channel",
        "noteNumber": 44,
        "velocity": 127,
        "subtype": "noteOn"
      },
      {
        "deltaTime": 0,
        "channel": 2,
        "type": "channel",
        "noteNumber": 37,
        "velocity": 127,
        "subtype": "noteOn"
      },
      {
        "deltaTime": 40,
        "channel": 2,
        "type": "channel",
        "noteNumber": 37,
        "velocity": 0,
        "subtype": "noteOff"
      },
      {
        "deltaTime": 0,
        "channel": 2,
        "type": "channel",
        "noteNumber": 54,
        "velocity": 0,
        "subtype": "noteOff"
      },
      {
        "deltaTime": 0,
        "channel": 2,
        "type": "channel",
        "noteNumber": 49,
        "velocity": 0,
        "subtype": "noteOff"
      },
      {
        "deltaTime": 0,
        "channel": 2,
        "type": "channel",
        "noteNumber": 44,
        "velocity": 0,
        "subtype": "noteOff"
      },
      {
        "deltaTime": 200,
        "channel": 2,
        "type": "channel",
        "noteNumber": 54,
        "velocity": 127,
        "subtype": "noteOn"
      },
      {
        "deltaTime": 0,
        "channel": 2,
        "type": "channel",
        "noteNumber": 49,
        "velocity": 127,
        "subtype": "noteOn"
      },
      {
        "deltaTime": 0,
        "channel": 2,
        "type": "channel",
        "noteNumber": 44,
        "velocity": 127,
        "subtype": "noteOn"
      },
      {
        "deltaTime": 0,
        "channel": 2,
        "type": "channel",
        "noteNumber": 37,
        "velocity": 127,
        "subtype": "noteOn"
      },
      {
        "deltaTime": 40,
        "channel": 2,
        "type": "channel",
        "noteNumber": 37,
        "velocity": 0,
        "subtype": "noteOff"
      },
      {
        "deltaTime": 0,
        "channel": 2,
        "type": "channel",
        "noteNumber": 54,
        "velocity": 0,
        "subtype": "noteOff"
      },
      {
        "deltaTime": 0,
        "channel": 2,
        "type": "channel",
        "noteNumber": 49,
        "velocity": 0,
        "subtype": "noteOff"
      },
      {
        "deltaTime": 0,
        "channel": 2,
        "type": "channel",
        "noteNumber": 44,
        "velocity": 0,
        "subtype": "noteOff"
      },
      {
        "deltaTime": 200,
        "channel": 2,
        "type": "channel",
        "noteNumber": 54,
        "velocity": 127,
        "subtype": "noteOn"
      },
      {
        "deltaTime": 0,
        "channel": 2,
        "type": "channel",
        "noteNumber": 49,
        "velocity": 127,
        "subtype": "noteOn"
      },
      {
        "deltaTime": 0,
        "channel": 2,
        "type": "channel",
        "noteNumber": 44,
        "velocity": 127,
        "subtype": "noteOn"
      },
      {
        "deltaTime": 0,
        "channel": 2,
        "type": "channel",
        "noteNumber": 37,
        "velocity": 127,
        "subtype": "noteOn"
      },
      {
        "deltaTime": 40,
        "channel": 2,
        "type": "channel",
        "noteNumber": 37,
        "velocity": 0,
        "subtype": "noteOff"
      },
      {
        "deltaTime": 0,
        "channel": 2,
        "type": "channel",
        "noteNumber": 54,
        "velocity": 0,
        "subtype": "noteOff"
      },
      {
        "deltaTime": 0,
        "channel": 2,
        "type": "channel",
        "noteNumber": 49,
        "velocity": 0,
        "subtype": "noteOff"
      },
      {
        "deltaTime": 0,
        "channel": 2,
        "type": "channel",
        "noteNumber": 44,
        "velocity": 0,
        "subtype": "noteOff"
      },
      {
        "deltaTime": 200,
        "channel": 2,
        "type": "channel",
        "noteNumber": 54,
        "velocity": 127,
        "subtype": "noteOn"
      },
      {
        "deltaTime": 0,
        "channel": 2,
        "type": "channel",
        "noteNumber": 49,
        "velocity": 127,
        "subtype": "noteOn"
      },
      {
        "deltaTime": 0,
        "channel": 2,
        "type": "channel",
        "noteNumber": 44,
        "velocity": 127,
        "subtype": "noteOn"
      },
      {
        "deltaTime": 0,
        "channel": 2,
        "type": "channel",
        "noteNumber": 37,
        "velocity": 127,
        "subtype": "noteOn"
      },
      {
        "deltaTime": 40,
        "channel": 2,
        "type": "channel",
        "noteNumber": 37,
        "velocity": 0,
        "subtype": "noteOff"
      },
      {
        "deltaTime": 0,
        "channel": 2,
        "type": "channel",
        "noteNumber": 54,
        "velocity": 0,
        "subtype": "noteOff"
      },
      {
        "deltaTime": 0,
        "channel": 2,
        "type": "channel",
        "noteNumber": 49,
        "velocity": 0,
        "subtype": "noteOff"
      },
      {
        "deltaTime": 0,
        "channel": 2,
        "type": "channel",
        "noteNumber": 44,
        "velocity": 0,
        "subtype": "noteOff"
      },
      {
        "deltaTime": 200,
        "channel": 2,
        "type": "channel",
        "noteNumber": 70,
        "velocity": 127,
        "subtype": "noteOn"
      },
      {
        "deltaTime": 0,
        "channel": 2,
        "type": "channel",
        "noteNumber": 54,
        "velocity": 127,
        "subtype": "noteOn"
      },
      {
        "deltaTime": 0,
        "channel": 2,
        "type": "channel",
        "noteNumber": 62,
        "velocity": 127,
        "subtype": "noteOn"
      },
      {
        "deltaTime": 0,
        "channel": 2,
        "type": "channel",
        "noteNumber": 53,
        "velocity": 127,
        "subtype": "noteOn"
      },
      {
        "deltaTime": 0,
        "channel": 2,
        "type": "channel",
        "noteNumber": 46,
        "velocity": 127,
        "subtype": "noteOn"
      },
      {
        "deltaTime": 40,
        "channel": 2,
        "type": "channel",
        "noteNumber": 54,
        "velocity": 0,
        "subtype": "noteOff"
      },
      {
        "deltaTime": 680,
        "channel": 2,
        "type": "channel",
        "noteNumber": 53,
        "velocity": 0,
        "subtype": "noteOff"
      },
      {
        "deltaTime": 0,
        "channel": 2,
        "type": "channel",
        "noteNumber": 70,
        "velocity": 0,
        "subtype": "noteOff"
      },
      {
        "deltaTime": 0,
        "channel": 2,
        "type": "channel",
        "noteNumber": 62,
        "velocity": 0,
        "subtype": "noteOff"
      },
      {
        "deltaTime": 0,
        "channel": 2,
        "type": "channel",
        "noteNumber": 46,
        "velocity": 0,
        "subtype": "noteOff"
      },
      {
        "deltaTime": 0,
        "channel": 2,
        "type": "channel",
        "noteNumber": 70,
        "velocity": 127,
        "subtype": "noteOn"
      },
      {
        "deltaTime": 0,
        "channel": 2,
        "type": "channel",
        "noteNumber": 54,
        "velocity": 127,
        "subtype": "noteOn"
      },
      {
        "deltaTime": 0,
        "channel": 2,
        "type": "channel",
        "noteNumber": 62,
        "velocity": 127,
        "subtype": "noteOn"
      },
      {
        "deltaTime": 0,
        "channel": 2,
        "type": "channel",
        "noteNumber": 53,
        "velocity": 127,
        "subtype": "noteOn"
      },
      {
        "deltaTime": 0,
        "channel": 2,
        "type": "channel",
        "noteNumber": 46,
        "velocity": 127,
        "subtype": "noteOn"
      },
      {
        "deltaTime": 40,
        "channel": 2,
        "type": "channel",
        "noteNumber": 54,
        "velocity": 0,
        "subtype": "noteOff"
      },
      {
        "deltaTime": 680,
        "channel": 2,
        "type": "channel",
        "noteNumber": 53,
        "velocity": 0,
        "subtype": "noteOff"
      },
      {
        "deltaTime": 0,
        "channel": 2,
        "type": "channel",
        "noteNumber": 70,
        "velocity": 0,
        "subtype": "noteOff"
      },
      {
        "deltaTime": 0,
        "channel": 2,
        "type": "channel",
        "noteNumber": 62,
        "velocity": 0,
        "subtype": "noteOff"
      },
      {
        "deltaTime": 0,
        "channel": 2,
        "type": "channel",
        "noteNumber": 46,
        "velocity": 0,
        "subtype": "noteOff"
      },
      {
        "deltaTime": 0,
        "channel": 2,
        "type": "channel",
        "noteNumber": 70,
        "velocity": 127,
        "subtype": "noteOn"
      },
      {
        "deltaTime": 0,
        "channel": 2,
        "type": "channel",
        "noteNumber": 54,
        "velocity": 127,
        "subtype": "noteOn"
      },
      {
        "deltaTime": 0,
        "channel": 2,
        "type": "channel",
        "noteNumber": 62,
        "velocity": 127,
        "subtype": "noteOn"
      },
      {
        "deltaTime": 0,
        "channel": 2,
        "type": "channel",
        "noteNumber": 53,
        "velocity": 127,
        "subtype": "noteOn"
      },
      {
        "deltaTime": 0,
        "channel": 2,
        "type": "channel",
        "noteNumber": 46,
        "velocity": 127,
        "subtype": "noteOn"
      },
      {
        "deltaTime": 40,
        "channel": 2,
        "type": "channel",
        "noteNumber": 54,
        "velocity": 0,
        "subtype": "noteOff"
      },
      {
        "deltaTime": 440,
        "channel": 2,
        "type": "channel",
        "noteNumber": 53,
        "velocity": 0,
        "subtype": "noteOff"
      },
      {
        "deltaTime": 0,
        "channel": 2,
        "type": "channel",
        "noteNumber": 70,
        "velocity": 0,
        "subtype": "noteOff"
      },
      {
        "deltaTime": 0,
        "channel": 2,
        "type": "channel",
        "noteNumber": 62,
        "velocity": 0,
        "subtype": "noteOff"
      },
      {
        "deltaTime": 0,
        "channel": 2,
        "type": "channel",
        "noteNumber": 46,
        "velocity": 0,
        "subtype": "noteOff"
      },
      {
        "deltaTime": 0,
        "channel": 2,
        "type": "channel",
        "noteNumber": 54,
        "velocity": 127,
        "subtype": "noteOn"
      },
      {
        "deltaTime": 0,
        "channel": 2,
        "type": "channel",
        "noteNumber": 49,
        "velocity": 127,
        "subtype": "noteOn"
      },
      {
        "deltaTime": 0,
        "channel": 2,
        "type": "channel",
        "noteNumber": 44,
        "velocity": 127,
        "subtype": "noteOn"
      },
      {
        "deltaTime": 0,
        "channel": 2,
        "type": "channel",
        "noteNumber": 37,
        "velocity": 127,
        "subtype": "noteOn"
      },
      {
        "deltaTime": 40,
        "channel": 2,
        "type": "channel",
        "noteNumber": 37,
        "velocity": 0,
        "subtype": "noteOff"
      },
      {
        "deltaTime": 0,
        "channel": 2,
        "type": "channel",
        "noteNumber": 54,
        "velocity": 0,
        "subtype": "noteOff"
      },
      {
        "deltaTime": 0,
        "channel": 2,
        "type": "channel",
        "noteNumber": 49,
        "velocity": 0,
        "subtype": "noteOff"
      },
      {
        "deltaTime": 0,
        "channel": 2,
        "type": "channel",
        "noteNumber": 44,
        "velocity": 0,
        "subtype": "noteOff"
      },
      {
        "deltaTime": 200,
        "channel": 2,
        "type": "channel",
        "noteNumber": 54,
        "velocity": 127,
        "subtype": "noteOn"
      },
      {
        "deltaTime": 0,
        "channel": 2,
        "type": "channel",
        "noteNumber": 49,
        "velocity": 127,
        "subtype": "noteOn"
      },
      {
        "deltaTime": 0,
        "channel": 2,
        "type": "channel",
        "noteNumber": 44,
        "velocity": 127,
        "subtype": "noteOn"
      },
      {
        "deltaTime": 0,
        "channel": 2,
        "type": "channel",
        "noteNumber": 37,
        "velocity": 127,
        "subtype": "noteOn"
      },
      {
        "deltaTime": 40,
        "channel": 2,
        "type": "channel",
        "noteNumber": 37,
        "velocity": 0,
        "subtype": "noteOff"
      },
      {
        "deltaTime": 0,
        "channel": 2,
        "type": "channel",
        "noteNumber": 54,
        "velocity": 0,
        "subtype": "noteOff"
      },
      {
        "deltaTime": 0,
        "channel": 2,
        "type": "channel",
        "noteNumber": 49,
        "velocity": 0,
        "subtype": "noteOff"
      },
      {
        "deltaTime": 0,
        "channel": 2,
        "type": "channel",
        "noteNumber": 44,
        "velocity": 0,
        "subtype": "noteOff"
      },
      {
        "deltaTime": 200,
        "channel": 2,
        "type": "channel",
        "noteNumber": 54,
        "velocity": 127,
        "subtype": "noteOn"
      },
      {
        "deltaTime": 0,
        "channel": 2,
        "type": "channel",
        "noteNumber": 49,
        "velocity": 127,
        "subtype": "noteOn"
      },
      {
        "deltaTime": 0,
        "channel": 2,
        "type": "channel",
        "noteNumber": 44,
        "velocity": 127,
        "subtype": "noteOn"
      },
      {
        "deltaTime": 0,
        "channel": 2,
        "type": "channel",
        "noteNumber": 37,
        "velocity": 127,
        "subtype": "noteOn"
      },
      {
        "deltaTime": 40,
        "channel": 2,
        "type": "channel",
        "noteNumber": 37,
        "velocity": 0,
        "subtype": "noteOff"
      },
      {
        "deltaTime": 0,
        "channel": 2,
        "type": "channel",
        "noteNumber": 54,
        "velocity": 0,
        "subtype": "noteOff"
      },
      {
        "deltaTime": 0,
        "channel": 2,
        "type": "channel",
        "noteNumber": 49,
        "velocity": 0,
        "subtype": "noteOff"
      },
      {
        "deltaTime": 0,
        "channel": 2,
        "type": "channel",
        "noteNumber": 44,
        "velocity": 0,
        "subtype": "noteOff"
      },
      {
        "deltaTime": 200,
        "channel": 2,
        "type": "channel",
        "noteNumber": 54,
        "velocity": 127,
        "subtype": "noteOn"
      },
      {
        "deltaTime": 0,
        "channel": 2,
        "type": "channel",
        "noteNumber": 49,
        "velocity": 127,
        "subtype": "noteOn"
      },
      {
        "deltaTime": 0,
        "channel": 2,
        "type": "channel",
        "noteNumber": 44,
        "velocity": 127,
        "subtype": "noteOn"
      },
      {
        "deltaTime": 0,
        "channel": 2,
        "type": "channel",
        "noteNumber": 37,
        "velocity": 127,
        "subtype": "noteOn"
      },
      {
        "deltaTime": 40,
        "channel": 2,
        "type": "channel",
        "noteNumber": 37,
        "velocity": 0,
        "subtype": "noteOff"
      },
      {
        "deltaTime": 0,
        "channel": 2,
        "type": "channel",
        "noteNumber": 54,
        "velocity": 0,
        "subtype": "noteOff"
      },
      {
        "deltaTime": 0,
        "channel": 2,
        "type": "channel",
        "noteNumber": 49,
        "velocity": 0,
        "subtype": "noteOff"
      },
      {
        "deltaTime": 0,
        "channel": 2,
        "type": "channel",
        "noteNumber": 44,
        "velocity": 0,
        "subtype": "noteOff"
      },
      {
        "deltaTime": 200,
        "channel": 2,
        "type": "channel",
        "noteNumber": 70,
        "velocity": 127,
        "subtype": "noteOn"
      },
      {
        "deltaTime": 0,
        "channel": 2,
        "type": "channel",
        "noteNumber": 67,
        "velocity": 127,
        "subtype": "noteOn"
      },
      {
        "deltaTime": 0,
        "channel": 2,
        "type": "channel",
        "noteNumber": 63,
        "velocity": 127,
        "subtype": "noteOn"
      },
      {
        "deltaTime": 0,
        "channel": 2,
        "type": "channel",
        "noteNumber": 55,
        "velocity": 127,
        "subtype": "noteOn"
      },
      {
        "deltaTime": 0,
        "channel": 2,
        "type": "channel",
        "noteNumber": 48,
        "velocity": 127,
        "subtype": "noteOn"
      },
      {
        "deltaTime": 720,
        "channel": 2,
        "type": "channel",
        "noteNumber": 48,
        "velocity": 0,
        "subtype": "noteOff"
      },
      {
        "deltaTime": 0,
        "channel": 2,
        "type": "channel",
        "noteNumber": 63,
        "velocity": 0,
        "subtype": "noteOff"
      },
      {
        "deltaTime": 0,
        "channel": 2,
        "type": "channel",
        "noteNumber": 70,
        "velocity": 0,
        "subtype": "noteOff"
      },
      {
        "deltaTime": 0,
        "channel": 2,
        "type": "channel",
        "noteNumber": 67,
        "velocity": 0,
        "subtype": "noteOff"
      },
      {
        "deltaTime": 0,
        "channel": 2,
        "type": "channel",
        "noteNumber": 55,
        "velocity": 0,
        "subtype": "noteOff"
      },
      {
        "deltaTime": 0,
        "channel": 2,
        "type": "channel",
        "noteNumber": 70,
        "velocity": 127,
        "subtype": "noteOn"
      },
      {
        "deltaTime": 0,
        "channel": 2,
        "type": "channel",
        "noteNumber": 67,
        "velocity": 127,
        "subtype": "noteOn"
      },
      {
        "deltaTime": 0,
        "channel": 2,
        "type": "channel",
        "noteNumber": 63,
        "velocity": 127,
        "subtype": "noteOn"
      },
      {
        "deltaTime": 0,
        "channel": 2,
        "type": "channel",
        "noteNumber": 55,
        "velocity": 127,
        "subtype": "noteOn"
      },
      {
        "deltaTime": 0,
        "channel": 2,
        "type": "channel",
        "noteNumber": 48,
        "velocity": 127,
        "subtype": "noteOn"
      },
      {
        "deltaTime": 720,
        "channel": 2,
        "type": "channel",
        "noteNumber": 48,
        "velocity": 0,
        "subtype": "noteOff"
      },
      {
        "deltaTime": 0,
        "channel": 2,
        "type": "channel",
        "noteNumber": 63,
        "velocity": 0,
        "subtype": "noteOff"
      },
      {
        "deltaTime": 0,
        "channel": 2,
        "type": "channel",
        "noteNumber": 70,
        "velocity": 0,
        "subtype": "noteOff"
      },
      {
        "deltaTime": 0,
        "channel": 2,
        "type": "channel",
        "noteNumber": 67,
        "velocity": 0,
        "subtype": "noteOff"
      },
      {
        "deltaTime": 0,
        "channel": 2,
        "type": "channel",
        "noteNumber": 55,
        "velocity": 0,
        "subtype": "noteOff"
      },
      {
        "deltaTime": 0,
        "channel": 2,
        "type": "channel",
        "noteNumber": 70,
        "velocity": 127,
        "subtype": "noteOn"
      },
      {
        "deltaTime": 0,
        "channel": 2,
        "type": "channel",
        "noteNumber": 67,
        "velocity": 127,
        "subtype": "noteOn"
      },
      {
        "deltaTime": 0,
        "channel": 2,
        "type": "channel",
        "noteNumber": 63,
        "velocity": 127,
        "subtype": "noteOn"
      },
      {
        "deltaTime": 0,
        "channel": 2,
        "type": "channel",
        "noteNumber": 55,
        "velocity": 127,
        "subtype": "noteOn"
      },
      {
        "deltaTime": 0,
        "channel": 2,
        "type": "channel",
        "noteNumber": 48,
        "velocity": 127,
        "subtype": "noteOn"
      },
      {
        "deltaTime": 480,
        "channel": 2,
        "type": "channel",
        "noteNumber": 48,
        "velocity": 0,
        "subtype": "noteOff"
      },
      {
        "deltaTime": 0,
        "channel": 2,
        "type": "channel",
        "noteNumber": 63,
        "velocity": 0,
        "subtype": "noteOff"
      },
      {
        "deltaTime": 0,
        "channel": 2,
        "type": "channel",
        "noteNumber": 70,
        "velocity": 0,
        "subtype": "noteOff"
      },
      {
        "deltaTime": 0,
        "channel": 2,
        "type": "channel",
        "noteNumber": 67,
        "velocity": 0,
        "subtype": "noteOff"
      },
      {
        "deltaTime": 0,
        "channel": 2,
        "type": "channel",
        "noteNumber": 55,
        "velocity": 0,
        "subtype": "noteOff"
      },
      {
        "deltaTime": 0,
        "channel": 2,
        "type": "channel",
        "noteNumber": 65,
        "velocity": 127,
        "subtype": "noteOn"
      },
      {
        "deltaTime": 0,
        "channel": 2,
        "type": "channel",
        "noteNumber": 54,
        "velocity": 127,
        "subtype": "noteOn"
      },
      {
        "deltaTime": 0,
        "channel": 2,
        "type": "channel",
        "noteNumber": 58,
        "velocity": 127,
        "subtype": "noteOn"
      },
      {
        "deltaTime": 0,
        "channel": 2,
        "type": "channel",
        "noteNumber": 50,
        "velocity": 127,
        "subtype": "noteOn"
      },
      {
        "deltaTime": 0,
        "channel": 2,
        "type": "channel",
        "noteNumber": 43,
        "velocity": 127,
        "subtype": "noteOn"
      },
      {
        "deltaTime": 40,
        "channel": 2,
        "type": "channel",
        "noteNumber": 54,
        "velocity": 0,
        "subtype": "noteOff"
      },
      {
        "deltaTime": 920,
        "channel": 2,
        "type": "channel",
        "noteNumber": 50,
        "velocity": 0,
        "subtype": "noteOff"
      },
      {
        "deltaTime": 0,
        "channel": 2,
        "type": "channel",
        "noteNumber": 65,
        "velocity": 0,
        "subtype": "noteOff"
      },
      {
        "deltaTime": 0,
        "channel": 2,
        "type": "channel",
        "noteNumber": 58,
        "velocity": 0,
        "subtype": "noteOff"
      },
      {
        "deltaTime": 0,
        "channel": 2,
        "type": "channel",
        "noteNumber": 43,
        "velocity": 0,
        "subtype": "noteOff"
      },
      {
        "deltaTime": 0,
        "channel": 2,
        "type": "channel",
        "noteNumber": 51,
        "velocity": 127,
        "subtype": "noteOn"
      },
      {
        "deltaTime": 0,
        "channel": 2,
        "type": "channel",
        "noteNumber": 44,
        "velocity": 127,
        "subtype": "noteOn"
      },
      {
        "deltaTime": 180,
        "channel": 2,
        "type": "channel",
        "noteNumber": 44,
        "velocity": 0,
        "subtype": "noteOff"
      },
      {
        "deltaTime": 0,
        "channel": 2,
        "type": "channel",
        "noteNumber": 51,
        "velocity": 0,
        "subtype": "noteOff"
      },
      {
        "deltaTime": 540,
        "channel": 2,
        "type": "channel",
        "noteNumber": 51,
        "velocity": 127,
        "subtype": "noteOn"
      },
      {
        "deltaTime": 0,
        "channel": 2,
        "type": "channel",
        "noteNumber": 44,
        "velocity": 127,
        "subtype": "noteOn"
      },
      {
        "deltaTime": 180,
        "channel": 2,
        "type": "channel",
        "noteNumber": 44,
        "velocity": 0,
        "subtype": "noteOff"
      },
      {
        "deltaTime": 0,
        "channel": 2,
        "type": "channel",
        "noteNumber": 51,
        "velocity": 0,
        "subtype": "noteOff"
      },
      {
        "deltaTime": 540,
        "channel": 2,
        "type": "channel",
        "noteNumber": 51,
        "velocity": 127,
        "subtype": "noteOn"
      },
      {
        "deltaTime": 0,
        "channel": 2,
        "type": "channel",
        "noteNumber": 44,
        "velocity": 127,
        "subtype": "noteOn"
      },
      {
        "deltaTime": 360,
        "channel": 2,
        "type": "channel",
        "noteNumber": 44,
        "velocity": 0,
        "subtype": "noteOff"
      },
      {
        "deltaTime": 0,
        "channel": 2,
        "type": "channel",
        "noteNumber": 51,
        "velocity": 0,
        "subtype": "noteOff"
      },
      {
        "deltaTime": 1080,
        "channel": 2,
        "type": "channel",
        "noteNumber": 51,
        "velocity": 127,
        "subtype": "noteOn"
      },
      {
        "deltaTime": 0,
        "channel": 2,
        "type": "channel",
        "noteNumber": 44,
        "velocity": 127,
        "subtype": "noteOn"
      },
      {
        "deltaTime": 180,
        "channel": 2,
        "type": "channel",
        "noteNumber": 44,
        "velocity": 0,
        "subtype": "noteOff"
      },
      {
        "deltaTime": 0,
        "channel": 2,
        "type": "channel",
        "noteNumber": 51,
        "velocity": 0,
        "subtype": "noteOff"
      },
      {
        "deltaTime": 540,
        "channel": 2,
        "type": "channel",
        "noteNumber": 51,
        "velocity": 127,
        "subtype": "noteOn"
      },
      {
        "deltaTime": 0,
        "channel": 2,
        "type": "channel",
        "noteNumber": 44,
        "velocity": 127,
        "subtype": "noteOn"
      },
      {
        "deltaTime": 180,
        "channel": 2,
        "type": "channel",
        "noteNumber": 44,
        "velocity": 0,
        "subtype": "noteOff"
      },
      {
        "deltaTime": 0,
        "channel": 2,
        "type": "channel",
        "noteNumber": 51,
        "velocity": 0,
        "subtype": "noteOff"
      },
      {
        "deltaTime": 540,
        "channel": 2,
        "type": "channel",
        "noteNumber": 51,
        "velocity": 127,
        "subtype": "noteOn"
      },
      {
        "deltaTime": 0,
        "channel": 2,
        "type": "channel",
        "noteNumber": 44,
        "velocity": 127,
        "subtype": "noteOn"
      },
      {
        "deltaTime": 360,
        "channel": 2,
        "type": "channel",
        "noteNumber": 44,
        "velocity": 0,
        "subtype": "noteOff"
      },
      {
        "deltaTime": 0,
        "channel": 2,
        "type": "channel",
        "noteNumber": 51,
        "velocity": 0,
        "subtype": "noteOff"
      },
      {
        "deltaTime": 1080,
        "channel": 2,
        "type": "channel",
        "noteNumber": 53,
        "velocity": 127,
        "subtype": "noteOn"
      },
      {
        "deltaTime": 0,
        "channel": 2,
        "type": "channel",
        "noteNumber": 46,
        "velocity": 127,
        "subtype": "noteOn"
      },
      {
        "deltaTime": 180,
        "channel": 2,
        "type": "channel",
        "noteNumber": 46,
        "velocity": 0,
        "subtype": "noteOff"
      },
      {
        "deltaTime": 0,
        "channel": 2,
        "type": "channel",
        "noteNumber": 53,
        "velocity": 0,
        "subtype": "noteOff"
      },
      {
        "deltaTime": 540,
        "channel": 2,
        "type": "channel",
        "noteNumber": 53,
        "velocity": 127,
        "subtype": "noteOn"
      },
      {
        "deltaTime": 0,
        "channel": 2,
        "type": "channel",
        "noteNumber": 46,
        "velocity": 127,
        "subtype": "noteOn"
      },
      {
        "deltaTime": 180,
        "channel": 2,
        "type": "channel",
        "noteNumber": 46,
        "velocity": 0,
        "subtype": "noteOff"
      },
      {
        "deltaTime": 0,
        "channel": 2,
        "type": "channel",
        "noteNumber": 53,
        "velocity": 0,
        "subtype": "noteOff"
      },
      {
        "deltaTime": 540,
        "channel": 2,
        "type": "channel",
        "noteNumber": 53,
        "velocity": 127,
        "subtype": "noteOn"
      },
      {
        "deltaTime": 0,
        "channel": 2,
        "type": "channel",
        "noteNumber": 46,
        "velocity": 127,
        "subtype": "noteOn"
      },
      {
        "deltaTime": 360,
        "channel": 2,
        "type": "channel",
        "noteNumber": 46,
        "velocity": 0,
        "subtype": "noteOff"
      },
      {
        "deltaTime": 0,
        "channel": 2,
        "type": "channel",
        "noteNumber": 53,
        "velocity": 0,
        "subtype": "noteOff"
      },
      {
        "deltaTime": 1080,
        "channel": 2,
        "type": "channel",
        "noteNumber": 55,
        "velocity": 127,
        "subtype": "noteOn"
      },
      {
        "deltaTime": 0,
        "channel": 2,
        "type": "channel",
        "noteNumber": 48,
        "velocity": 127,
        "subtype": "noteOn"
      },
      {
        "deltaTime": 180,
        "channel": 2,
        "type": "channel",
        "noteNumber": 48,
        "velocity": 0,
        "subtype": "noteOff"
      },
      {
        "deltaTime": 0,
        "channel": 2,
        "type": "channel",
        "noteNumber": 55,
        "velocity": 0,
        "subtype": "noteOff"
      },
      {
        "deltaTime": 540,
        "channel": 2,
        "type": "channel",
        "noteNumber": 55,
        "velocity": 127,
        "subtype": "noteOn"
      },
      {
        "deltaTime": 0,
        "channel": 2,
        "type": "channel",
        "noteNumber": 48,
        "velocity": 127,
        "subtype": "noteOn"
      },
      {
        "deltaTime": 180,
        "channel": 2,
        "type": "channel",
        "noteNumber": 48,
        "velocity": 0,
        "subtype": "noteOff"
      },
      {
        "deltaTime": 0,
        "channel": 2,
        "type": "channel",
        "noteNumber": 55,
        "velocity": 0,
        "subtype": "noteOff"
      },
      {
        "deltaTime": 540,
        "channel": 2,
        "type": "channel",
        "noteNumber": 55,
        "velocity": 127,
        "subtype": "noteOn"
      },
      {
        "deltaTime": 0,
        "channel": 2,
        "type": "channel",
        "noteNumber": 48,
        "velocity": 127,
        "subtype": "noteOn"
      },
      {
        "deltaTime": 360,
        "channel": 2,
        "type": "channel",
        "noteNumber": 48,
        "velocity": 0,
        "subtype": "noteOff"
      },
      {
        "deltaTime": 0,
        "channel": 2,
        "type": "channel",
        "noteNumber": 55,
        "velocity": 0,
        "subtype": "noteOff"
      },
      {
        "deltaTime": 1080,
        "channel": 2,
        "type": "channel",
        "noteNumber": 51,
        "velocity": 127,
        "subtype": "noteOn"
      },
      {
        "deltaTime": 0,
        "channel": 2,
        "type": "channel",
        "noteNumber": 44,
        "velocity": 127,
        "subtype": "noteOn"
      },
      {
        "deltaTime": 180,
        "channel": 2,
        "type": "channel",
        "noteNumber": 44,
        "velocity": 0,
        "subtype": "noteOff"
      },
      {
        "deltaTime": 0,
        "channel": 2,
        "type": "channel",
        "noteNumber": 51,
        "velocity": 0,
        "subtype": "noteOff"
      },
      {
        "deltaTime": 540,
        "channel": 2,
        "type": "channel",
        "noteNumber": 51,
        "velocity": 127,
        "subtype": "noteOn"
      },
      {
        "deltaTime": 0,
        "channel": 2,
        "type": "channel",
        "noteNumber": 44,
        "velocity": 127,
        "subtype": "noteOn"
      },
      {
        "deltaTime": 180,
        "channel": 2,
        "type": "channel",
        "noteNumber": 44,
        "velocity": 0,
        "subtype": "noteOff"
      },
      {
        "deltaTime": 0,
        "channel": 2,
        "type": "channel",
        "noteNumber": 51,
        "velocity": 0,
        "subtype": "noteOff"
      },
      {
        "deltaTime": 540,
        "channel": 2,
        "type": "channel",
        "noteNumber": 51,
        "velocity": 127,
        "subtype": "noteOn"
      },
      {
        "deltaTime": 0,
        "channel": 2,
        "type": "channel",
        "noteNumber": 44,
        "velocity": 127,
        "subtype": "noteOn"
      },
      {
        "deltaTime": 360,
        "channel": 2,
        "type": "channel",
        "noteNumber": 44,
        "velocity": 0,
        "subtype": "noteOff"
      },
      {
        "deltaTime": 0,
        "channel": 2,
        "type": "channel",
        "noteNumber": 51,
        "velocity": 0,
        "subtype": "noteOff"
      },
      {
        "deltaTime": 1080,
        "channel": 2,
        "type": "channel",
        "noteNumber": 51,
        "velocity": 127,
        "subtype": "noteOn"
      },
      {
        "deltaTime": 0,
        "channel": 2,
        "type": "channel",
        "noteNumber": 44,
        "velocity": 127,
        "subtype": "noteOn"
      },
      {
        "deltaTime": 180,
        "channel": 2,
        "type": "channel",
        "noteNumber": 44,
        "velocity": 0,
        "subtype": "noteOff"
      },
      {
        "deltaTime": 0,
        "channel": 2,
        "type": "channel",
        "noteNumber": 51,
        "velocity": 0,
        "subtype": "noteOff"
      },
      {
        "deltaTime": 540,
        "channel": 2,
        "type": "channel",
        "noteNumber": 51,
        "velocity": 127,
        "subtype": "noteOn"
      },
      {
        "deltaTime": 0,
        "channel": 2,
        "type": "channel",
        "noteNumber": 44,
        "velocity": 127,
        "subtype": "noteOn"
      },
      {
        "deltaTime": 180,
        "channel": 2,
        "type": "channel",
        "noteNumber": 44,
        "velocity": 0,
        "subtype": "noteOff"
      },
      {
        "deltaTime": 0,
        "channel": 2,
        "type": "channel",
        "noteNumber": 51,
        "velocity": 0,
        "subtype": "noteOff"
      },
      {
        "deltaTime": 540,
        "channel": 2,
        "type": "channel",
        "noteNumber": 51,
        "velocity": 127,
        "subtype": "noteOn"
      },
      {
        "deltaTime": 0,
        "channel": 2,
        "type": "channel",
        "noteNumber": 44,
        "velocity": 127,
        "subtype": "noteOn"
      },
      {
        "deltaTime": 360,
        "channel": 2,
        "type": "channel",
        "noteNumber": 44,
        "velocity": 0,
        "subtype": "noteOff"
      },
      {
        "deltaTime": 0,
        "channel": 2,
        "type": "channel",
        "noteNumber": 51,
        "velocity": 0,
        "subtype": "noteOff"
      },
      {
        "deltaTime": 1080,
        "channel": 2,
        "type": "channel",
        "noteNumber": 53,
        "velocity": 127,
        "subtype": "noteOn"
      },
      {
        "deltaTime": 0,
        "channel": 2,
        "type": "channel",
        "noteNumber": 46,
        "velocity": 127,
        "subtype": "noteOn"
      },
      {
        "deltaTime": 180,
        "channel": 2,
        "type": "channel",
        "noteNumber": 46,
        "velocity": 0,
        "subtype": "noteOff"
      },
      {
        "deltaTime": 0,
        "channel": 2,
        "type": "channel",
        "noteNumber": 53,
        "velocity": 0,
        "subtype": "noteOff"
      },
      {
        "deltaTime": 540,
        "channel": 2,
        "type": "channel",
        "noteNumber": 53,
        "velocity": 127,
        "subtype": "noteOn"
      },
      {
        "deltaTime": 0,
        "channel": 2,
        "type": "channel",
        "noteNumber": 46,
        "velocity": 127,
        "subtype": "noteOn"
      },
      {
        "deltaTime": 180,
        "channel": 2,
        "type": "channel",
        "noteNumber": 46,
        "velocity": 0,
        "subtype": "noteOff"
      },
      {
        "deltaTime": 0,
        "channel": 2,
        "type": "channel",
        "noteNumber": 53,
        "velocity": 0,
        "subtype": "noteOff"
      },
      {
        "deltaTime": 540,
        "channel": 2,
        "type": "channel",
        "noteNumber": 53,
        "velocity": 127,
        "subtype": "noteOn"
      },
      {
        "deltaTime": 0,
        "channel": 2,
        "type": "channel",
        "noteNumber": 46,
        "velocity": 127,
        "subtype": "noteOn"
      },
      {
        "deltaTime": 360,
        "channel": 2,
        "type": "channel",
        "noteNumber": 46,
        "velocity": 0,
        "subtype": "noteOff"
      },
      {
        "deltaTime": 0,
        "channel": 2,
        "type": "channel",
        "noteNumber": 53,
        "velocity": 0,
        "subtype": "noteOff"
      },
      {
        "deltaTime": 1080,
        "channel": 2,
        "type": "channel",
        "noteNumber": 55,
        "velocity": 127,
        "subtype": "noteOn"
      },
      {
        "deltaTime": 0,
        "channel": 2,
        "type": "channel",
        "noteNumber": 48,
        "velocity": 127,
        "subtype": "noteOn"
      },
      {
        "deltaTime": 180,
        "channel": 2,
        "type": "channel",
        "noteNumber": 48,
        "velocity": 0,
        "subtype": "noteOff"
      },
      {
        "deltaTime": 0,
        "channel": 2,
        "type": "channel",
        "noteNumber": 55,
        "velocity": 0,
        "subtype": "noteOff"
      },
      {
        "deltaTime": 540,
        "channel": 2,
        "type": "channel",
        "noteNumber": 55,
        "velocity": 127,
        "subtype": "noteOn"
      },
      {
        "deltaTime": 0,
        "channel": 2,
        "type": "channel",
        "noteNumber": 48,
        "velocity": 127,
        "subtype": "noteOn"
      },
      {
        "deltaTime": 180,
        "channel": 2,
        "type": "channel",
        "noteNumber": 48,
        "velocity": 0,
        "subtype": "noteOff"
      },
      {
        "deltaTime": 0,
        "channel": 2,
        "type": "channel",
        "noteNumber": 55,
        "velocity": 0,
        "subtype": "noteOff"
      },
      {
        "deltaTime": 540,
        "channel": 2,
        "type": "channel",
        "noteNumber": 55,
        "velocity": 127,
        "subtype": "noteOn"
      },
      {
        "deltaTime": 0,
        "channel": 2,
        "type": "channel",
        "noteNumber": 48,
        "velocity": 127,
        "subtype": "noteOn"
      },
      {
        "deltaTime": 360,
        "channel": 2,
        "type": "channel",
        "noteNumber": 48,
        "velocity": 0,
        "subtype": "noteOff"
      },
      {
        "deltaTime": 0,
        "channel": 2,
        "type": "channel",
        "noteNumber": 55,
        "velocity": 0,
        "subtype": "noteOff"
      },
      {
        "deltaTime": 1080,
        "channel": 2,
        "type": "channel",
        "noteNumber": 51,
        "velocity": 127,
        "subtype": "noteOn"
      },
      {
        "deltaTime": 0,
        "channel": 2,
        "type": "channel",
        "noteNumber": 44,
        "velocity": 127,
        "subtype": "noteOn"
      },
      {
        "deltaTime": 180,
        "channel": 2,
        "type": "channel",
        "noteNumber": 44,
        "velocity": 0,
        "subtype": "noteOff"
      },
      {
        "deltaTime": 0,
        "channel": 2,
        "type": "channel",
        "noteNumber": 51,
        "velocity": 0,
        "subtype": "noteOff"
      },
      {
        "deltaTime": 540,
        "channel": 2,
        "type": "channel",
        "noteNumber": 51,
        "velocity": 127,
        "subtype": "noteOn"
      },
      {
        "deltaTime": 0,
        "channel": 2,
        "type": "channel",
        "noteNumber": 44,
        "velocity": 127,
        "subtype": "noteOn"
      },
      {
        "deltaTime": 180,
        "channel": 2,
        "type": "channel",
        "noteNumber": 44,
        "velocity": 0,
        "subtype": "noteOff"
      },
      {
        "deltaTime": 0,
        "channel": 2,
        "type": "channel",
        "noteNumber": 51,
        "velocity": 0,
        "subtype": "noteOff"
      },
      {
        "deltaTime": 540,
        "channel": 2,
        "type": "channel",
        "noteNumber": 51,
        "velocity": 127,
        "subtype": "noteOn"
      },
      {
        "deltaTime": 0,
        "channel": 2,
        "type": "channel",
        "noteNumber": 44,
        "velocity": 127,
        "subtype": "noteOn"
      },
      {
        "deltaTime": 360,
        "channel": 2,
        "type": "channel",
        "noteNumber": 44,
        "velocity": 0,
        "subtype": "noteOff"
      },
      {
        "deltaTime": 0,
        "channel": 2,
        "type": "channel",
        "noteNumber": 51,
        "velocity": 0,
        "subtype": "noteOff"
      },
      {
        "deltaTime": 1080,
        "channel": 2,
        "type": "channel",
        "noteNumber": 51,
        "velocity": 127,
        "subtype": "noteOn"
      },
      {
        "deltaTime": 0,
        "channel": 2,
        "type": "channel",
        "noteNumber": 44,
        "velocity": 127,
        "subtype": "noteOn"
      },
      {
        "deltaTime": 180,
        "channel": 2,
        "type": "channel",
        "noteNumber": 44,
        "velocity": 0,
        "subtype": "noteOff"
      },
      {
        "deltaTime": 0,
        "channel": 2,
        "type": "channel",
        "noteNumber": 51,
        "velocity": 0,
        "subtype": "noteOff"
      },
      {
        "deltaTime": 540,
        "channel": 2,
        "type": "channel",
        "noteNumber": 51,
        "velocity": 127,
        "subtype": "noteOn"
      },
      {
        "deltaTime": 0,
        "channel": 2,
        "type": "channel",
        "noteNumber": 44,
        "velocity": 127,
        "subtype": "noteOn"
      },
      {
        "deltaTime": 180,
        "channel": 2,
        "type": "channel",
        "noteNumber": 44,
        "velocity": 0,
        "subtype": "noteOff"
      },
      {
        "deltaTime": 0,
        "channel": 2,
        "type": "channel",
        "noteNumber": 51,
        "velocity": 0,
        "subtype": "noteOff"
      },
      {
        "deltaTime": 540,
        "channel": 2,
        "type": "channel",
        "noteNumber": 51,
        "velocity": 127,
        "subtype": "noteOn"
      },
      {
        "deltaTime": 0,
        "channel": 2,
        "type": "channel",
        "noteNumber": 44,
        "velocity": 127,
        "subtype": "noteOn"
      },
      {
        "deltaTime": 360,
        "channel": 2,
        "type": "channel",
        "noteNumber": 44,
        "velocity": 0,
        "subtype": "noteOff"
      },
      {
        "deltaTime": 0,
        "channel": 2,
        "type": "channel",
        "noteNumber": 51,
        "velocity": 0,
        "subtype": "noteOff"
      },
      {
        "deltaTime": 1080,
        "channel": 2,
        "type": "channel",
        "noteNumber": 53,
        "velocity": 127,
        "subtype": "noteOn"
      },
      {
        "deltaTime": 0,
        "channel": 2,
        "type": "channel",
        "noteNumber": 46,
        "velocity": 127,
        "subtype": "noteOn"
      },
      {
        "deltaTime": 180,
        "channel": 2,
        "type": "channel",
        "noteNumber": 46,
        "velocity": 0,
        "subtype": "noteOff"
      },
      {
        "deltaTime": 0,
        "channel": 2,
        "type": "channel",
        "noteNumber": 53,
        "velocity": 0,
        "subtype": "noteOff"
      },
      {
        "deltaTime": 540,
        "channel": 2,
        "type": "channel",
        "noteNumber": 53,
        "velocity": 127,
        "subtype": "noteOn"
      },
      {
        "deltaTime": 0,
        "channel": 2,
        "type": "channel",
        "noteNumber": 46,
        "velocity": 127,
        "subtype": "noteOn"
      },
      {
        "deltaTime": 180,
        "channel": 2,
        "type": "channel",
        "noteNumber": 46,
        "velocity": 0,
        "subtype": "noteOff"
      },
      {
        "deltaTime": 0,
        "channel": 2,
        "type": "channel",
        "noteNumber": 53,
        "velocity": 0,
        "subtype": "noteOff"
      },
      {
        "deltaTime": 540,
        "channel": 2,
        "type": "channel",
        "noteNumber": 53,
        "velocity": 127,
        "subtype": "noteOn"
      },
      {
        "deltaTime": 0,
        "channel": 2,
        "type": "channel",
        "noteNumber": 46,
        "velocity": 127,
        "subtype": "noteOn"
      },
      {
        "deltaTime": 360,
        "channel": 2,
        "type": "channel",
        "noteNumber": 46,
        "velocity": 0,
        "subtype": "noteOff"
      },
      {
        "deltaTime": 0,
        "channel": 2,
        "type": "channel",
        "noteNumber": 53,
        "velocity": 0,
        "subtype": "noteOff"
      },
      {
        "deltaTime": 1080,
        "channel": 2,
        "type": "channel",
        "noteNumber": 55,
        "velocity": 127,
        "subtype": "noteOn"
      },
      {
        "deltaTime": 0,
        "channel": 2,
        "type": "channel",
        "noteNumber": 48,
        "velocity": 127,
        "subtype": "noteOn"
      },
      {
        "deltaTime": 180,
        "channel": 2,
        "type": "channel",
        "noteNumber": 48,
        "velocity": 0,
        "subtype": "noteOff"
      },
      {
        "deltaTime": 0,
        "channel": 2,
        "type": "channel",
        "noteNumber": 55,
        "velocity": 0,
        "subtype": "noteOff"
      },
      {
        "deltaTime": 540,
        "channel": 2,
        "type": "channel",
        "noteNumber": 55,
        "velocity": 127,
        "subtype": "noteOn"
      },
      {
        "deltaTime": 0,
        "channel": 2,
        "type": "channel",
        "noteNumber": 48,
        "velocity": 127,
        "subtype": "noteOn"
      },
      {
        "deltaTime": 180,
        "channel": 2,
        "type": "channel",
        "noteNumber": 48,
        "velocity": 0,
        "subtype": "noteOff"
      },
      {
        "deltaTime": 0,
        "channel": 2,
        "type": "channel",
        "noteNumber": 55,
        "velocity": 0,
        "subtype": "noteOff"
      },
      {
        "deltaTime": 540,
        "channel": 2,
        "type": "channel",
        "noteNumber": 55,
        "velocity": 127,
        "subtype": "noteOn"
      },
      {
        "deltaTime": 0,
        "channel": 2,
        "type": "channel",
        "noteNumber": 48,
        "velocity": 127,
        "subtype": "noteOn"
      },
      {
        "deltaTime": 360,
        "channel": 2,
        "type": "channel",
        "noteNumber": 48,
        "velocity": 0,
        "subtype": "noteOff"
      },
      {
        "deltaTime": 0,
        "channel": 2,
        "type": "channel",
        "noteNumber": 55,
        "velocity": 0,
        "subtype": "noteOff"
      },
      {
        "deltaTime": 1080,
        "channel": 2,
        "type": "channel",
        "noteNumber": 51,
        "velocity": 127,
        "subtype": "noteOn"
      },
      {
        "deltaTime": 0,
        "channel": 2,
        "type": "channel",
        "noteNumber": 44,
        "velocity": 127,
        "subtype": "noteOn"
      },
      {
        "deltaTime": 180,
        "channel": 2,
        "type": "channel",
        "noteNumber": 44,
        "velocity": 0,
        "subtype": "noteOff"
      },
      {
        "deltaTime": 0,
        "channel": 2,
        "type": "channel",
        "noteNumber": 51,
        "velocity": 0,
        "subtype": "noteOff"
      },
      {
        "deltaTime": 540,
        "channel": 2,
        "type": "channel",
        "noteNumber": 51,
        "velocity": 127,
        "subtype": "noteOn"
      },
      {
        "deltaTime": 0,
        "channel": 2,
        "type": "channel",
        "noteNumber": 44,
        "velocity": 127,
        "subtype": "noteOn"
      },
      {
        "deltaTime": 180,
        "channel": 2,
        "type": "channel",
        "noteNumber": 44,
        "velocity": 0,
        "subtype": "noteOff"
      },
      {
        "deltaTime": 0,
        "channel": 2,
        "type": "channel",
        "noteNumber": 51,
        "velocity": 0,
        "subtype": "noteOff"
      },
      {
        "deltaTime": 540,
        "channel": 2,
        "type": "channel",
        "noteNumber": 51,
        "velocity": 127,
        "subtype": "noteOn"
      },
      {
        "deltaTime": 0,
        "channel": 2,
        "type": "channel",
        "noteNumber": 44,
        "velocity": 127,
        "subtype": "noteOn"
      },
      {
        "deltaTime": 360,
        "channel": 2,
        "type": "channel",
        "noteNumber": 44,
        "velocity": 0,
        "subtype": "noteOff"
      },
      {
        "deltaTime": 0,
        "channel": 2,
        "type": "channel",
        "noteNumber": 51,
        "velocity": 0,
        "subtype": "noteOff"
      },
      {
        "deltaTime": 1080,
        "channel": 2,
        "type": "channel",
        "noteNumber": 51,
        "velocity": 127,
        "subtype": "noteOn"
      },
      {
        "deltaTime": 0,
        "channel": 2,
        "type": "channel",
        "noteNumber": 44,
        "velocity": 127,
        "subtype": "noteOn"
      },
      {
        "deltaTime": 180,
        "channel": 2,
        "type": "channel",
        "noteNumber": 44,
        "velocity": 0,
        "subtype": "noteOff"
      },
      {
        "deltaTime": 0,
        "channel": 2,
        "type": "channel",
        "noteNumber": 51,
        "velocity": 0,
        "subtype": "noteOff"
      },
      {
        "deltaTime": 540,
        "channel": 2,
        "type": "channel",
        "noteNumber": 51,
        "velocity": 127,
        "subtype": "noteOn"
      },
      {
        "deltaTime": 0,
        "channel": 2,
        "type": "channel",
        "noteNumber": 44,
        "velocity": 127,
        "subtype": "noteOn"
      },
      {
        "deltaTime": 180,
        "channel": 2,
        "type": "channel",
        "noteNumber": 44,
        "velocity": 0,
        "subtype": "noteOff"
      },
      {
        "deltaTime": 0,
        "channel": 2,
        "type": "channel",
        "noteNumber": 51,
        "velocity": 0,
        "subtype": "noteOff"
      },
      {
        "deltaTime": 540,
        "channel": 2,
        "type": "channel",
        "noteNumber": 51,
        "velocity": 127,
        "subtype": "noteOn"
      },
      {
        "deltaTime": 0,
        "channel": 2,
        "type": "channel",
        "noteNumber": 44,
        "velocity": 127,
        "subtype": "noteOn"
      },
      {
        "deltaTime": 360,
        "channel": 2,
        "type": "channel",
        "noteNumber": 44,
        "velocity": 0,
        "subtype": "noteOff"
      },
      {
        "deltaTime": 0,
        "channel": 2,
        "type": "channel",
        "noteNumber": 51,
        "velocity": 0,
        "subtype": "noteOff"
      },
      {
        "deltaTime": 1080,
        "channel": 2,
        "type": "channel",
        "noteNumber": 53,
        "velocity": 127,
        "subtype": "noteOn"
      },
      {
        "deltaTime": 0,
        "channel": 2,
        "type": "channel",
        "noteNumber": 46,
        "velocity": 127,
        "subtype": "noteOn"
      },
      {
        "deltaTime": 180,
        "channel": 2,
        "type": "channel",
        "noteNumber": 46,
        "velocity": 0,
        "subtype": "noteOff"
      },
      {
        "deltaTime": 0,
        "channel": 2,
        "type": "channel",
        "noteNumber": 53,
        "velocity": 0,
        "subtype": "noteOff"
      },
      {
        "deltaTime": 540,
        "channel": 2,
        "type": "channel",
        "noteNumber": 53,
        "velocity": 127,
        "subtype": "noteOn"
      },
      {
        "deltaTime": 0,
        "channel": 2,
        "type": "channel",
        "noteNumber": 46,
        "velocity": 127,
        "subtype": "noteOn"
      },
      {
        "deltaTime": 180,
        "channel": 2,
        "type": "channel",
        "noteNumber": 46,
        "velocity": 0,
        "subtype": "noteOff"
      },
      {
        "deltaTime": 0,
        "channel": 2,
        "type": "channel",
        "noteNumber": 53,
        "velocity": 0,
        "subtype": "noteOff"
      },
      {
        "deltaTime": 540,
        "channel": 2,
        "type": "channel",
        "noteNumber": 53,
        "velocity": 127,
        "subtype": "noteOn"
      },
      {
        "deltaTime": 0,
        "channel": 2,
        "type": "channel",
        "noteNumber": 46,
        "velocity": 127,
        "subtype": "noteOn"
      },
      {
        "deltaTime": 360,
        "channel": 2,
        "type": "channel",
        "noteNumber": 46,
        "velocity": 0,
        "subtype": "noteOff"
      },
      {
        "deltaTime": 0,
        "channel": 2,
        "type": "channel",
        "noteNumber": 53,
        "velocity": 0,
        "subtype": "noteOff"
      },
      {
        "deltaTime": 1080,
        "channel": 2,
        "type": "channel",
        "noteNumber": 55,
        "velocity": 127,
        "subtype": "noteOn"
      },
      {
        "deltaTime": 0,
        "channel": 2,
        "type": "channel",
        "noteNumber": 48,
        "velocity": 127,
        "subtype": "noteOn"
      },
      {
        "deltaTime": 180,
        "channel": 2,
        "type": "channel",
        "noteNumber": 48,
        "velocity": 0,
        "subtype": "noteOff"
      },
      {
        "deltaTime": 0,
        "channel": 2,
        "type": "channel",
        "noteNumber": 55,
        "velocity": 0,
        "subtype": "noteOff"
      },
      {
        "deltaTime": 540,
        "channel": 2,
        "type": "channel",
        "noteNumber": 55,
        "velocity": 127,
        "subtype": "noteOn"
      },
      {
        "deltaTime": 0,
        "channel": 2,
        "type": "channel",
        "noteNumber": 48,
        "velocity": 127,
        "subtype": "noteOn"
      },
      {
        "deltaTime": 180,
        "channel": 2,
        "type": "channel",
        "noteNumber": 48,
        "velocity": 0,
        "subtype": "noteOff"
      },
      {
        "deltaTime": 0,
        "channel": 2,
        "type": "channel",
        "noteNumber": 55,
        "velocity": 0,
        "subtype": "noteOff"
      },
      {
        "deltaTime": 540,
        "channel": 2,
        "type": "channel",
        "noteNumber": 55,
        "velocity": 127,
        "subtype": "noteOn"
      },
      {
        "deltaTime": 0,
        "channel": 2,
        "type": "channel",
        "noteNumber": 48,
        "velocity": 127,
        "subtype": "noteOn"
      },
      {
        "deltaTime": 360,
        "channel": 2,
        "type": "channel",
        "noteNumber": 48,
        "velocity": 0,
        "subtype": "noteOff"
      },
      {
        "deltaTime": 0,
        "channel": 2,
        "type": "channel",
        "noteNumber": 55,
        "velocity": 0,
        "subtype": "noteOff"
      },
      {
        "deltaTime": 1080,
        "channel": 2,
        "type": "channel",
        "noteNumber": 63,
        "velocity": 127,
        "subtype": "noteOn"
      },
      {
        "deltaTime": 0,
        "channel": 2,
        "type": "channel",
        "noteNumber": 58,
        "velocity": 127,
        "subtype": "noteOn"
      },
      {
        "deltaTime": 0,
        "channel": 2,
        "type": "channel",
        "noteNumber": 55,
        "velocity": 127,
        "subtype": "noteOn"
      },
      {
        "deltaTime": 0,
        "channel": 2,
        "type": "channel",
        "noteNumber": 51,
        "velocity": 127,
        "subtype": "noteOn"
      },
      {
        "deltaTime": 0,
        "channel": 2,
        "type": "channel",
        "noteNumber": 46,
        "velocity": 127,
        "subtype": "noteOn"
      },
      {
        "deltaTime": 0,
        "channel": 2,
        "type": "channel",
        "noteNumber": 39,
        "velocity": 127,
        "subtype": "noteOn"
      },
      {
        "deltaTime": 7680,
        "channel": 2,
        "type": "channel",
        "noteNumber": 39,
        "velocity": 0,
        "subtype": "noteOff"
      },
      {
        "deltaTime": 0,
        "channel": 2,
        "type": "channel",
        "noteNumber": 58,
        "velocity": 0,
        "subtype": "noteOff"
      },
      {
        "deltaTime": 0,
        "channel": 2,
        "type": "channel",
        "noteNumber": 55,
        "velocity": 0,
        "subtype": "noteOff"
      },
      {
        "deltaTime": 0,
        "channel": 2,
        "type": "channel",
        "noteNumber": 63,
        "velocity": 0,
        "subtype": "noteOff"
      },
      {
        "deltaTime": 0,
        "channel": 2,
        "type": "channel",
        "noteNumber": 46,
        "velocity": 0,
        "subtype": "noteOff"
      },
      {
        "deltaTime": 0,
        "channel": 2,
        "type": "channel",
        "noteNumber": 51,
        "velocity": 0,
        "subtype": "noteOff"
      },
      {
        "deltaTime": 0,
        "channel": 2,
        "type": "channel",
        "noteNumber": 51,
        "velocity": 127,
        "subtype": "noteOn"
      },
      {
        "deltaTime": 0,
        "channel": 2,
        "type": "channel",
        "noteNumber": 44,
        "velocity": 127,
        "subtype": "noteOn"
      },
      {
        "deltaTime": 480,
        "channel": 2,
        "type": "channel",
        "noteNumber": 44,
        "velocity": 0,
        "subtype": "noteOff"
      },
      {
        "deltaTime": 0,
        "channel": 2,
        "type": "channel",
        "noteNumber": 51,
        "velocity": 0,
        "subtype": "noteOff"
      },
      {
        "deltaTime": 0,
        "channel": 2,
        "type": "channel",
        "noteNumber": 51,
        "velocity": 127,
        "subtype": "noteOn"
      },
      {
        "deltaTime": 0,
        "channel": 2,
        "type": "channel",
        "noteNumber": 44,
        "velocity": 127,
        "subtype": "noteOn"
      },
      {
        "deltaTime": 480,
        "channel": 2,
        "type": "channel",
        "noteNumber": 44,
        "velocity": 0,
        "subtype": "noteOff"
      },
      {
        "deltaTime": 0,
        "channel": 2,
        "type": "channel",
        "noteNumber": 51,
        "velocity": 0,
        "subtype": "noteOff"
      },
      {
        "deltaTime": 0,
        "channel": 2,
        "type": "channel",
        "noteNumber": 51,
        "velocity": 127,
        "subtype": "noteOn"
      },
      {
        "deltaTime": 0,
        "channel": 2,
        "type": "channel",
        "noteNumber": 44,
        "velocity": 127,
        "subtype": "noteOn"
      },
      {
        "deltaTime": 480,
        "channel": 2,
        "type": "channel",
        "noteNumber": 44,
        "velocity": 0,
        "subtype": "noteOff"
      },
      {
        "deltaTime": 0,
        "channel": 2,
        "type": "channel",
        "noteNumber": 51,
        "velocity": 0,
        "subtype": "noteOff"
      },
      {
        "deltaTime": 0,
        "channel": 2,
        "type": "channel",
        "noteNumber": 51,
        "velocity": 127,
        "subtype": "noteOn"
      },
      {
        "deltaTime": 0,
        "channel": 2,
        "type": "channel",
        "noteNumber": 44,
        "velocity": 127,
        "subtype": "noteOn"
      },
      {
        "deltaTime": 480,
        "channel": 2,
        "type": "channel",
        "noteNumber": 44,
        "velocity": 0,
        "subtype": "noteOff"
      },
      {
        "deltaTime": 0,
        "channel": 2,
        "type": "channel",
        "noteNumber": 51,
        "velocity": 0,
        "subtype": "noteOff"
      },
      {
        "deltaTime": 0,
        "channel": 2,
        "type": "channel",
        "noteNumber": 51,
        "velocity": 127,
        "subtype": "noteOn"
      },
      {
        "deltaTime": 0,
        "channel": 2,
        "type": "channel",
        "noteNumber": 44,
        "velocity": 127,
        "subtype": "noteOn"
      },
      {
        "deltaTime": 480,
        "channel": 2,
        "type": "channel",
        "noteNumber": 44,
        "velocity": 0,
        "subtype": "noteOff"
      },
      {
        "deltaTime": 0,
        "channel": 2,
        "type": "channel",
        "noteNumber": 51,
        "velocity": 0,
        "subtype": "noteOff"
      },
      {
        "deltaTime": 0,
        "channel": 2,
        "type": "channel",
        "noteNumber": 51,
        "velocity": 127,
        "subtype": "noteOn"
      },
      {
        "deltaTime": 0,
        "channel": 2,
        "type": "channel",
        "noteNumber": 44,
        "velocity": 127,
        "subtype": "noteOn"
      },
      {
        "deltaTime": 480,
        "channel": 2,
        "type": "channel",
        "noteNumber": 44,
        "velocity": 0,
        "subtype": "noteOff"
      },
      {
        "deltaTime": 0,
        "channel": 2,
        "type": "channel",
        "noteNumber": 51,
        "velocity": 0,
        "subtype": "noteOff"
      },
      {
        "deltaTime": 0,
        "channel": 2,
        "type": "channel",
        "noteNumber": 51,
        "velocity": 127,
        "subtype": "noteOn"
      },
      {
        "deltaTime": 0,
        "channel": 2,
        "type": "channel",
        "noteNumber": 44,
        "velocity": 127,
        "subtype": "noteOn"
      },
      {
        "deltaTime": 480,
        "channel": 2,
        "type": "channel",
        "noteNumber": 44,
        "velocity": 0,
        "subtype": "noteOff"
      },
      {
        "deltaTime": 0,
        "channel": 2,
        "type": "channel",
        "noteNumber": 51,
        "velocity": 0,
        "subtype": "noteOff"
      },
      {
        "deltaTime": 0,
        "channel": 2,
        "type": "channel",
        "noteNumber": 51,
        "velocity": 127,
        "subtype": "noteOn"
      },
      {
        "deltaTime": 0,
        "channel": 2,
        "type": "channel",
        "noteNumber": 44,
        "velocity": 127,
        "subtype": "noteOn"
      },
      {
        "deltaTime": 480,
        "channel": 2,
        "type": "channel",
        "noteNumber": 44,
        "velocity": 0,
        "subtype": "noteOff"
      },
      {
        "deltaTime": 0,
        "channel": 2,
        "type": "channel",
        "noteNumber": 51,
        "velocity": 0,
        "subtype": "noteOff"
      },
      {
        "deltaTime": 0,
        "channel": 2,
        "type": "channel",
        "noteNumber": 58,
        "velocity": 127,
        "subtype": "noteOn"
      },
      {
        "deltaTime": 0,
        "channel": 2,
        "type": "channel",
        "noteNumber": 51,
        "velocity": 127,
        "subtype": "noteOn"
      },
      {
        "deltaTime": 0,
        "channel": 2,
        "type": "channel",
        "noteNumber": 46,
        "velocity": 127,
        "subtype": "noteOn"
      },
      {
        "deltaTime": 0,
        "channel": 2,
        "type": "channel",
        "noteNumber": 39,
        "velocity": 127,
        "subtype": "noteOn"
      },
      {
        "deltaTime": 480,
        "channel": 2,
        "type": "channel",
        "noteNumber": 39,
        "velocity": 0,
        "subtype": "noteOff"
      },
      {
        "deltaTime": 0,
        "channel": 2,
        "type": "channel",
        "noteNumber": 58,
        "velocity": 0,
        "subtype": "noteOff"
      },
      {
        "deltaTime": 0,
        "channel": 2,
        "type": "channel",
        "noteNumber": 51,
        "velocity": 0,
        "subtype": "noteOff"
      },
      {
        "deltaTime": 0,
        "channel": 2,
        "type": "channel",
        "noteNumber": 46,
        "velocity": 0,
        "subtype": "noteOff"
      },
      {
        "deltaTime": 0,
        "channel": 2,
        "type": "channel",
        "noteNumber": 58,
        "velocity": 127,
        "subtype": "noteOn"
      },
      {
        "deltaTime": 0,
        "channel": 2,
        "type": "channel",
        "noteNumber": 51,
        "velocity": 127,
        "subtype": "noteOn"
      },
      {
        "deltaTime": 0,
        "channel": 2,
        "type": "channel",
        "noteNumber": 46,
        "velocity": 127,
        "subtype": "noteOn"
      },
      {
        "deltaTime": 0,
        "channel": 2,
        "type": "channel",
        "noteNumber": 39,
        "velocity": 127,
        "subtype": "noteOn"
      },
      {
        "deltaTime": 480,
        "channel": 2,
        "type": "channel",
        "noteNumber": 39,
        "velocity": 0,
        "subtype": "noteOff"
      },
      {
        "deltaTime": 0,
        "channel": 2,
        "type": "channel",
        "noteNumber": 58,
        "velocity": 0,
        "subtype": "noteOff"
      },
      {
        "deltaTime": 0,
        "channel": 2,
        "type": "channel",
        "noteNumber": 51,
        "velocity": 0,
        "subtype": "noteOff"
      },
      {
        "deltaTime": 0,
        "channel": 2,
        "type": "channel",
        "noteNumber": 46,
        "velocity": 0,
        "subtype": "noteOff"
      },
      {
        "deltaTime": 0,
        "channel": 2,
        "type": "channel",
        "noteNumber": 58,
        "velocity": 127,
        "subtype": "noteOn"
      },
      {
        "deltaTime": 0,
        "channel": 2,
        "type": "channel",
        "noteNumber": 51,
        "velocity": 127,
        "subtype": "noteOn"
      },
      {
        "deltaTime": 0,
        "channel": 2,
        "type": "channel",
        "noteNumber": 46,
        "velocity": 127,
        "subtype": "noteOn"
      },
      {
        "deltaTime": 0,
        "channel": 2,
        "type": "channel",
        "noteNumber": 39,
        "velocity": 127,
        "subtype": "noteOn"
      },
      {
        "deltaTime": 480,
        "channel": 2,
        "type": "channel",
        "noteNumber": 39,
        "velocity": 0,
        "subtype": "noteOff"
      },
      {
        "deltaTime": 0,
        "channel": 2,
        "type": "channel",
        "noteNumber": 58,
        "velocity": 0,
        "subtype": "noteOff"
      },
      {
        "deltaTime": 0,
        "channel": 2,
        "type": "channel",
        "noteNumber": 51,
        "velocity": 0,
        "subtype": "noteOff"
      },
      {
        "deltaTime": 0,
        "channel": 2,
        "type": "channel",
        "noteNumber": 46,
        "velocity": 0,
        "subtype": "noteOff"
      },
      {
        "deltaTime": 0,
        "channel": 2,
        "type": "channel",
        "noteNumber": 58,
        "velocity": 127,
        "subtype": "noteOn"
      },
      {
        "deltaTime": 0,
        "channel": 2,
        "type": "channel",
        "noteNumber": 51,
        "velocity": 127,
        "subtype": "noteOn"
      },
      {
        "deltaTime": 0,
        "channel": 2,
        "type": "channel",
        "noteNumber": 46,
        "velocity": 127,
        "subtype": "noteOn"
      },
      {
        "deltaTime": 0,
        "channel": 2,
        "type": "channel",
        "noteNumber": 39,
        "velocity": 127,
        "subtype": "noteOn"
      },
      {
        "deltaTime": 480,
        "channel": 2,
        "type": "channel",
        "noteNumber": 39,
        "velocity": 0,
        "subtype": "noteOff"
      },
      {
        "deltaTime": 0,
        "channel": 2,
        "type": "channel",
        "noteNumber": 58,
        "velocity": 0,
        "subtype": "noteOff"
      },
      {
        "deltaTime": 0,
        "channel": 2,
        "type": "channel",
        "noteNumber": 51,
        "velocity": 0,
        "subtype": "noteOff"
      },
      {
        "deltaTime": 0,
        "channel": 2,
        "type": "channel",
        "noteNumber": 46,
        "velocity": 0,
        "subtype": "noteOff"
      },
      {
        "deltaTime": 0,
        "channel": 2,
        "type": "channel",
        "noteNumber": 58,
        "velocity": 127,
        "subtype": "noteOn"
      },
      {
        "deltaTime": 0,
        "channel": 2,
        "type": "channel",
        "noteNumber": 51,
        "velocity": 127,
        "subtype": "noteOn"
      },
      {
        "deltaTime": 0,
        "channel": 2,
        "type": "channel",
        "noteNumber": 46,
        "velocity": 127,
        "subtype": "noteOn"
      },
      {
        "deltaTime": 0,
        "channel": 2,
        "type": "channel",
        "noteNumber": 39,
        "velocity": 127,
        "subtype": "noteOn"
      },
      {
        "deltaTime": 480,
        "channel": 2,
        "type": "channel",
        "noteNumber": 39,
        "velocity": 0,
        "subtype": "noteOff"
      },
      {
        "deltaTime": 0,
        "channel": 2,
        "type": "channel",
        "noteNumber": 58,
        "velocity": 0,
        "subtype": "noteOff"
      },
      {
        "deltaTime": 0,
        "channel": 2,
        "type": "channel",
        "noteNumber": 51,
        "velocity": 0,
        "subtype": "noteOff"
      },
      {
        "deltaTime": 0,
        "channel": 2,
        "type": "channel",
        "noteNumber": 46,
        "velocity": 0,
        "subtype": "noteOff"
      },
      {
        "deltaTime": 0,
        "channel": 2,
        "type": "channel",
        "noteNumber": 58,
        "velocity": 127,
        "subtype": "noteOn"
      },
      {
        "deltaTime": 0,
        "channel": 2,
        "type": "channel",
        "noteNumber": 51,
        "velocity": 127,
        "subtype": "noteOn"
      },
      {
        "deltaTime": 0,
        "channel": 2,
        "type": "channel",
        "noteNumber": 46,
        "velocity": 127,
        "subtype": "noteOn"
      },
      {
        "deltaTime": 0,
        "channel": 2,
        "type": "channel",
        "noteNumber": 39,
        "velocity": 127,
        "subtype": "noteOn"
      },
      {
        "deltaTime": 480,
        "channel": 2,
        "type": "channel",
        "noteNumber": 39,
        "velocity": 0,
        "subtype": "noteOff"
      },
      {
        "deltaTime": 0,
        "channel": 2,
        "type": "channel",
        "noteNumber": 58,
        "velocity": 0,
        "subtype": "noteOff"
      },
      {
        "deltaTime": 0,
        "channel": 2,
        "type": "channel",
        "noteNumber": 51,
        "velocity": 0,
        "subtype": "noteOff"
      },
      {
        "deltaTime": 0,
        "channel": 2,
        "type": "channel",
        "noteNumber": 46,
        "velocity": 0,
        "subtype": "noteOff"
      },
      {
        "deltaTime": 0,
        "channel": 2,
        "type": "channel",
        "noteNumber": 58,
        "velocity": 127,
        "subtype": "noteOn"
      },
      {
        "deltaTime": 0,
        "channel": 2,
        "type": "channel",
        "noteNumber": 51,
        "velocity": 127,
        "subtype": "noteOn"
      },
      {
        "deltaTime": 0,
        "channel": 2,
        "type": "channel",
        "noteNumber": 46,
        "velocity": 127,
        "subtype": "noteOn"
      },
      {
        "deltaTime": 0,
        "channel": 2,
        "type": "channel",
        "noteNumber": 39,
        "velocity": 127,
        "subtype": "noteOn"
      },
      {
        "deltaTime": 480,
        "channel": 2,
        "type": "channel",
        "noteNumber": 39,
        "velocity": 0,
        "subtype": "noteOff"
      },
      {
        "deltaTime": 0,
        "channel": 2,
        "type": "channel",
        "noteNumber": 58,
        "velocity": 0,
        "subtype": "noteOff"
      },
      {
        "deltaTime": 0,
        "channel": 2,
        "type": "channel",
        "noteNumber": 51,
        "velocity": 0,
        "subtype": "noteOff"
      },
      {
        "deltaTime": 0,
        "channel": 2,
        "type": "channel",
        "noteNumber": 46,
        "velocity": 0,
        "subtype": "noteOff"
      },
      {
        "deltaTime": 0,
        "channel": 2,
        "type": "channel",
        "noteNumber": 58,
        "velocity": 127,
        "subtype": "noteOn"
      },
      {
        "deltaTime": 0,
        "channel": 2,
        "type": "channel",
        "noteNumber": 51,
        "velocity": 127,
        "subtype": "noteOn"
      },
      {
        "deltaTime": 0,
        "channel": 2,
        "type": "channel",
        "noteNumber": 46,
        "velocity": 127,
        "subtype": "noteOn"
      },
      {
        "deltaTime": 0,
        "channel": 2,
        "type": "channel",
        "noteNumber": 39,
        "velocity": 127,
        "subtype": "noteOn"
      },
      {
        "deltaTime": 480,
        "channel": 2,
        "type": "channel",
        "noteNumber": 39,
        "velocity": 0,
        "subtype": "noteOff"
      },
      {
        "deltaTime": 0,
        "channel": 2,
        "type": "channel",
        "noteNumber": 58,
        "velocity": 0,
        "subtype": "noteOff"
      },
      {
        "deltaTime": 0,
        "channel": 2,
        "type": "channel",
        "noteNumber": 51,
        "velocity": 0,
        "subtype": "noteOff"
      },
      {
        "deltaTime": 0,
        "channel": 2,
        "type": "channel",
        "noteNumber": 46,
        "velocity": 0,
        "subtype": "noteOff"
      },
      {
        "deltaTime": 0,
        "channel": 2,
        "type": "channel",
        "noteNumber": 63,
        "velocity": 127,
        "subtype": "noteOn"
      },
      {
        "deltaTime": 0,
        "channel": 2,
        "type": "channel",
        "noteNumber": 55,
        "velocity": 127,
        "subtype": "noteOn"
      },
      {
        "deltaTime": 0,
        "channel": 2,
        "type": "channel",
        "noteNumber": 48,
        "velocity": 127,
        "subtype": "noteOn"
      },
      {
        "deltaTime": 480,
        "channel": 2,
        "type": "channel",
        "noteNumber": 48,
        "velocity": 0,
        "subtype": "noteOff"
      },
      {
        "deltaTime": 0,
        "channel": 2,
        "type": "channel",
        "noteNumber": 55,
        "velocity": 0,
        "subtype": "noteOff"
      },
      {
        "deltaTime": 0,
        "channel": 2,
        "type": "channel",
        "noteNumber": 63,
        "velocity": 0,
        "subtype": "noteOff"
      },
      {
        "deltaTime": 0,
        "channel": 2,
        "type": "channel",
        "noteNumber": 63,
        "velocity": 127,
        "subtype": "noteOn"
      },
      {
        "deltaTime": 0,
        "channel": 2,
        "type": "channel",
        "noteNumber": 55,
        "velocity": 127,
        "subtype": "noteOn"
      },
      {
        "deltaTime": 0,
        "channel": 2,
        "type": "channel",
        "noteNumber": 48,
        "velocity": 127,
        "subtype": "noteOn"
      },
      {
        "deltaTime": 480,
        "channel": 2,
        "type": "channel",
        "noteNumber": 48,
        "velocity": 0,
        "subtype": "noteOff"
      },
      {
        "deltaTime": 0,
        "channel": 2,
        "type": "channel",
        "noteNumber": 55,
        "velocity": 0,
        "subtype": "noteOff"
      },
      {
        "deltaTime": 0,
        "channel": 2,
        "type": "channel",
        "noteNumber": 63,
        "velocity": 0,
        "subtype": "noteOff"
      },
      {
        "deltaTime": 0,
        "channel": 2,
        "type": "channel",
        "noteNumber": 63,
        "velocity": 127,
        "subtype": "noteOn"
      },
      {
        "deltaTime": 0,
        "channel": 2,
        "type": "channel",
        "noteNumber": 55,
        "velocity": 127,
        "subtype": "noteOn"
      },
      {
        "deltaTime": 0,
        "channel": 2,
        "type": "channel",
        "noteNumber": 48,
        "velocity": 127,
        "subtype": "noteOn"
      },
      {
        "deltaTime": 480,
        "channel": 2,
        "type": "channel",
        "noteNumber": 48,
        "velocity": 0,
        "subtype": "noteOff"
      },
      {
        "deltaTime": 0,
        "channel": 2,
        "type": "channel",
        "noteNumber": 55,
        "velocity": 0,
        "subtype": "noteOff"
      },
      {
        "deltaTime": 0,
        "channel": 2,
        "type": "channel",
        "noteNumber": 63,
        "velocity": 0,
        "subtype": "noteOff"
      },
      {
        "deltaTime": 0,
        "channel": 2,
        "type": "channel",
        "noteNumber": 63,
        "velocity": 127,
        "subtype": "noteOn"
      },
      {
        "deltaTime": 0,
        "channel": 2,
        "type": "channel",
        "noteNumber": 55,
        "velocity": 127,
        "subtype": "noteOn"
      },
      {
        "deltaTime": 0,
        "channel": 2,
        "type": "channel",
        "noteNumber": 48,
        "velocity": 127,
        "subtype": "noteOn"
      },
      {
        "deltaTime": 480,
        "channel": 2,
        "type": "channel",
        "noteNumber": 48,
        "velocity": 0,
        "subtype": "noteOff"
      },
      {
        "deltaTime": 0,
        "channel": 2,
        "type": "channel",
        "noteNumber": 55,
        "velocity": 0,
        "subtype": "noteOff"
      },
      {
        "deltaTime": 0,
        "channel": 2,
        "type": "channel",
        "noteNumber": 63,
        "velocity": 0,
        "subtype": "noteOff"
      },
      {
        "deltaTime": 0,
        "channel": 2,
        "type": "channel",
        "noteNumber": 63,
        "velocity": 127,
        "subtype": "noteOn"
      },
      {
        "deltaTime": 0,
        "channel": 2,
        "type": "channel",
        "noteNumber": 55,
        "velocity": 127,
        "subtype": "noteOn"
      },
      {
        "deltaTime": 0,
        "channel": 2,
        "type": "channel",
        "noteNumber": 48,
        "velocity": 127,
        "subtype": "noteOn"
      },
      {
        "deltaTime": 480,
        "channel": 2,
        "type": "channel",
        "noteNumber": 48,
        "velocity": 0,
        "subtype": "noteOff"
      },
      {
        "deltaTime": 0,
        "channel": 2,
        "type": "channel",
        "noteNumber": 55,
        "velocity": 0,
        "subtype": "noteOff"
      },
      {
        "deltaTime": 0,
        "channel": 2,
        "type": "channel",
        "noteNumber": 63,
        "velocity": 0,
        "subtype": "noteOff"
      },
      {
        "deltaTime": 0,
        "channel": 2,
        "type": "channel",
        "noteNumber": 63,
        "velocity": 127,
        "subtype": "noteOn"
      },
      {
        "deltaTime": 0,
        "channel": 2,
        "type": "channel",
        "noteNumber": 55,
        "velocity": 127,
        "subtype": "noteOn"
      },
      {
        "deltaTime": 0,
        "channel": 2,
        "type": "channel",
        "noteNumber": 48,
        "velocity": 127,
        "subtype": "noteOn"
      },
      {
        "deltaTime": 480,
        "channel": 2,
        "type": "channel",
        "noteNumber": 48,
        "velocity": 0,
        "subtype": "noteOff"
      },
      {
        "deltaTime": 0,
        "channel": 2,
        "type": "channel",
        "noteNumber": 55,
        "velocity": 0,
        "subtype": "noteOff"
      },
      {
        "deltaTime": 0,
        "channel": 2,
        "type": "channel",
        "noteNumber": 63,
        "velocity": 0,
        "subtype": "noteOff"
      },
      {
        "deltaTime": 0,
        "channel": 2,
        "type": "channel",
        "noteNumber": 63,
        "velocity": 127,
        "subtype": "noteOn"
      },
      {
        "deltaTime": 0,
        "channel": 2,
        "type": "channel",
        "noteNumber": 55,
        "velocity": 127,
        "subtype": "noteOn"
      },
      {
        "deltaTime": 0,
        "channel": 2,
        "type": "channel",
        "noteNumber": 48,
        "velocity": 127,
        "subtype": "noteOn"
      },
      {
        "deltaTime": 480,
        "channel": 2,
        "type": "channel",
        "noteNumber": 48,
        "velocity": 0,
        "subtype": "noteOff"
      },
      {
        "deltaTime": 0,
        "channel": 2,
        "type": "channel",
        "noteNumber": 55,
        "velocity": 0,
        "subtype": "noteOff"
      },
      {
        "deltaTime": 0,
        "channel": 2,
        "type": "channel",
        "noteNumber": 63,
        "velocity": 0,
        "subtype": "noteOff"
      },
      {
        "deltaTime": 0,
        "channel": 2,
        "type": "channel",
        "noteNumber": 63,
        "velocity": 127,
        "subtype": "noteOn"
      },
      {
        "deltaTime": 0,
        "channel": 2,
        "type": "channel",
        "noteNumber": 55,
        "velocity": 127,
        "subtype": "noteOn"
      },
      {
        "deltaTime": 0,
        "channel": 2,
        "type": "channel",
        "noteNumber": 48,
        "velocity": 127,
        "subtype": "noteOn"
      },
      {
        "deltaTime": 480,
        "channel": 2,
        "type": "channel",
        "noteNumber": 48,
        "velocity": 0,
        "subtype": "noteOff"
      },
      {
        "deltaTime": 0,
        "channel": 2,
        "type": "channel",
        "noteNumber": 55,
        "velocity": 0,
        "subtype": "noteOff"
      },
      {
        "deltaTime": 0,
        "channel": 2,
        "type": "channel",
        "noteNumber": 63,
        "velocity": 0,
        "subtype": "noteOff"
      },
      {
        "deltaTime": 0,
        "channel": 2,
        "type": "channel",
        "noteNumber": 65,
        "velocity": 127,
        "subtype": "noteOn"
      },
      {
        "deltaTime": 0,
        "channel": 2,
        "type": "channel",
        "noteNumber": 58,
        "velocity": 127,
        "subtype": "noteOn"
      },
      {
        "deltaTime": 0,
        "channel": 2,
        "type": "channel",
        "noteNumber": 53,
        "velocity": 127,
        "subtype": "noteOn"
      },
      {
        "deltaTime": 0,
        "channel": 2,
        "type": "channel",
        "noteNumber": 46,
        "velocity": 127,
        "subtype": "noteOn"
      },
      {
        "deltaTime": 480,
        "channel": 2,
        "type": "channel",
        "noteNumber": 46,
        "velocity": 0,
        "subtype": "noteOff"
      },
      {
        "deltaTime": 0,
        "channel": 2,
        "type": "channel",
        "noteNumber": 65,
        "velocity": 0,
        "subtype": "noteOff"
      },
      {
        "deltaTime": 0,
        "channel": 2,
        "type": "channel",
        "noteNumber": 58,
        "velocity": 0,
        "subtype": "noteOff"
      },
      {
        "deltaTime": 0,
        "channel": 2,
        "type": "channel",
        "noteNumber": 53,
        "velocity": 0,
        "subtype": "noteOff"
      },
      {
        "deltaTime": 0,
        "channel": 2,
        "type": "channel",
        "noteNumber": 65,
        "velocity": 127,
        "subtype": "noteOn"
      },
      {
        "deltaTime": 0,
        "channel": 2,
        "type": "channel",
        "noteNumber": 58,
        "velocity": 127,
        "subtype": "noteOn"
      },
      {
        "deltaTime": 0,
        "channel": 2,
        "type": "channel",
        "noteNumber": 53,
        "velocity": 127,
        "subtype": "noteOn"
      },
      {
        "deltaTime": 0,
        "channel": 2,
        "type": "channel",
        "noteNumber": 46,
        "velocity": 127,
        "subtype": "noteOn"
      },
      {
        "deltaTime": 480,
        "channel": 2,
        "type": "channel",
        "noteNumber": 46,
        "velocity": 0,
        "subtype": "noteOff"
      },
      {
        "deltaTime": 0,
        "channel": 2,
        "type": "channel",
        "noteNumber": 65,
        "velocity": 0,
        "subtype": "noteOff"
      },
      {
        "deltaTime": 0,
        "channel": 2,
        "type": "channel",
        "noteNumber": 58,
        "velocity": 0,
        "subtype": "noteOff"
      },
      {
        "deltaTime": 0,
        "channel": 2,
        "type": "channel",
        "noteNumber": 53,
        "velocity": 0,
        "subtype": "noteOff"
      },
      {
        "deltaTime": 0,
        "channel": 2,
        "type": "channel",
        "noteNumber": 65,
        "velocity": 127,
        "subtype": "noteOn"
      },
      {
        "deltaTime": 0,
        "channel": 2,
        "type": "channel",
        "noteNumber": 58,
        "velocity": 127,
        "subtype": "noteOn"
      },
      {
        "deltaTime": 0,
        "channel": 2,
        "type": "channel",
        "noteNumber": 53,
        "velocity": 127,
        "subtype": "noteOn"
      },
      {
        "deltaTime": 0,
        "channel": 2,
        "type": "channel",
        "noteNumber": 46,
        "velocity": 127,
        "subtype": "noteOn"
      },
      {
        "deltaTime": 480,
        "channel": 2,
        "type": "channel",
        "noteNumber": 46,
        "velocity": 0,
        "subtype": "noteOff"
      },
      {
        "deltaTime": 0,
        "channel": 2,
        "type": "channel",
        "noteNumber": 65,
        "velocity": 0,
        "subtype": "noteOff"
      },
      {
        "deltaTime": 0,
        "channel": 2,
        "type": "channel",
        "noteNumber": 58,
        "velocity": 0,
        "subtype": "noteOff"
      },
      {
        "deltaTime": 0,
        "channel": 2,
        "type": "channel",
        "noteNumber": 53,
        "velocity": 0,
        "subtype": "noteOff"
      },
      {
        "deltaTime": 0,
        "channel": 2,
        "type": "channel",
        "noteNumber": 65,
        "velocity": 127,
        "subtype": "noteOn"
      },
      {
        "deltaTime": 0,
        "channel": 2,
        "type": "channel",
        "noteNumber": 58,
        "velocity": 127,
        "subtype": "noteOn"
      },
      {
        "deltaTime": 0,
        "channel": 2,
        "type": "channel",
        "noteNumber": 53,
        "velocity": 127,
        "subtype": "noteOn"
      },
      {
        "deltaTime": 0,
        "channel": 2,
        "type": "channel",
        "noteNumber": 46,
        "velocity": 127,
        "subtype": "noteOn"
      },
      {
        "deltaTime": 480,
        "channel": 2,
        "type": "channel",
        "noteNumber": 46,
        "velocity": 0,
        "subtype": "noteOff"
      },
      {
        "deltaTime": 0,
        "channel": 2,
        "type": "channel",
        "noteNumber": 65,
        "velocity": 0,
        "subtype": "noteOff"
      },
      {
        "deltaTime": 0,
        "channel": 2,
        "type": "channel",
        "noteNumber": 58,
        "velocity": 0,
        "subtype": "noteOff"
      },
      {
        "deltaTime": 0,
        "channel": 2,
        "type": "channel",
        "noteNumber": 53,
        "velocity": 0,
        "subtype": "noteOff"
      },
      {
        "deltaTime": 0,
        "channel": 2,
        "type": "channel",
        "noteNumber": 65,
        "velocity": 127,
        "subtype": "noteOn"
      },
      {
        "deltaTime": 0,
        "channel": 2,
        "type": "channel",
        "noteNumber": 58,
        "velocity": 127,
        "subtype": "noteOn"
      },
      {
        "deltaTime": 0,
        "channel": 2,
        "type": "channel",
        "noteNumber": 53,
        "velocity": 127,
        "subtype": "noteOn"
      },
      {
        "deltaTime": 0,
        "channel": 2,
        "type": "channel",
        "noteNumber": 46,
        "velocity": 127,
        "subtype": "noteOn"
      },
      {
        "deltaTime": 480,
        "channel": 2,
        "type": "channel",
        "noteNumber": 46,
        "velocity": 0,
        "subtype": "noteOff"
      },
      {
        "deltaTime": 0,
        "channel": 2,
        "type": "channel",
        "noteNumber": 65,
        "velocity": 0,
        "subtype": "noteOff"
      },
      {
        "deltaTime": 0,
        "channel": 2,
        "type": "channel",
        "noteNumber": 58,
        "velocity": 0,
        "subtype": "noteOff"
      },
      {
        "deltaTime": 0,
        "channel": 2,
        "type": "channel",
        "noteNumber": 53,
        "velocity": 0,
        "subtype": "noteOff"
      },
      {
        "deltaTime": 0,
        "channel": 2,
        "type": "channel",
        "noteNumber": 65,
        "velocity": 127,
        "subtype": "noteOn"
      },
      {
        "deltaTime": 0,
        "channel": 2,
        "type": "channel",
        "noteNumber": 58,
        "velocity": 127,
        "subtype": "noteOn"
      },
      {
        "deltaTime": 0,
        "channel": 2,
        "type": "channel",
        "noteNumber": 53,
        "velocity": 127,
        "subtype": "noteOn"
      },
      {
        "deltaTime": 0,
        "channel": 2,
        "type": "channel",
        "noteNumber": 46,
        "velocity": 127,
        "subtype": "noteOn"
      },
      {
        "deltaTime": 480,
        "channel": 2,
        "type": "channel",
        "noteNumber": 46,
        "velocity": 0,
        "subtype": "noteOff"
      },
      {
        "deltaTime": 0,
        "channel": 2,
        "type": "channel",
        "noteNumber": 65,
        "velocity": 0,
        "subtype": "noteOff"
      },
      {
        "deltaTime": 0,
        "channel": 2,
        "type": "channel",
        "noteNumber": 58,
        "velocity": 0,
        "subtype": "noteOff"
      },
      {
        "deltaTime": 0,
        "channel": 2,
        "type": "channel",
        "noteNumber": 53,
        "velocity": 0,
        "subtype": "noteOff"
      },
      {
        "deltaTime": 0,
        "channel": 2,
        "type": "channel",
        "noteNumber": 65,
        "velocity": 127,
        "subtype": "noteOn"
      },
      {
        "deltaTime": 0,
        "channel": 2,
        "type": "channel",
        "noteNumber": 58,
        "velocity": 127,
        "subtype": "noteOn"
      },
      {
        "deltaTime": 0,
        "channel": 2,
        "type": "channel",
        "noteNumber": 53,
        "velocity": 127,
        "subtype": "noteOn"
      },
      {
        "deltaTime": 0,
        "channel": 2,
        "type": "channel",
        "noteNumber": 46,
        "velocity": 127,
        "subtype": "noteOn"
      },
      {
        "deltaTime": 480,
        "channel": 2,
        "type": "channel",
        "noteNumber": 46,
        "velocity": 0,
        "subtype": "noteOff"
      },
      {
        "deltaTime": 0,
        "channel": 2,
        "type": "channel",
        "noteNumber": 65,
        "velocity": 0,
        "subtype": "noteOff"
      },
      {
        "deltaTime": 0,
        "channel": 2,
        "type": "channel",
        "noteNumber": 58,
        "velocity": 0,
        "subtype": "noteOff"
      },
      {
        "deltaTime": 0,
        "channel": 2,
        "type": "channel",
        "noteNumber": 53,
        "velocity": 0,
        "subtype": "noteOff"
      },
      {
        "deltaTime": 0,
        "channel": 2,
        "type": "channel",
        "noteNumber": 65,
        "velocity": 127,
        "subtype": "noteOn"
      },
      {
        "deltaTime": 0,
        "channel": 2,
        "type": "channel",
        "noteNumber": 58,
        "velocity": 127,
        "subtype": "noteOn"
      },
      {
        "deltaTime": 0,
        "channel": 2,
        "type": "channel",
        "noteNumber": 53,
        "velocity": 127,
        "subtype": "noteOn"
      },
      {
        "deltaTime": 0,
        "channel": 2,
        "type": "channel",
        "noteNumber": 46,
        "velocity": 127,
        "subtype": "noteOn"
      },
      {
        "deltaTime": 480,
        "channel": 2,
        "type": "channel",
        "noteNumber": 46,
        "velocity": 0,
        "subtype": "noteOff"
      },
      {
        "deltaTime": 0,
        "channel": 2,
        "type": "channel",
        "noteNumber": 65,
        "velocity": 0,
        "subtype": "noteOff"
      },
      {
        "deltaTime": 0,
        "channel": 2,
        "type": "channel",
        "noteNumber": 58,
        "velocity": 0,
        "subtype": "noteOff"
      },
      {
        "deltaTime": 0,
        "channel": 2,
        "type": "channel",
        "noteNumber": 53,
        "velocity": 0,
        "subtype": "noteOff"
      },
      {
        "deltaTime": 0,
        "channel": 2,
        "type": "channel",
        "noteNumber": 63,
        "velocity": 127,
        "subtype": "noteOn"
      },
      {
        "deltaTime": 0,
        "channel": 2,
        "type": "channel",
        "noteNumber": 56,
        "velocity": 127,
        "subtype": "noteOn"
      },
      {
        "deltaTime": 0,
        "channel": 2,
        "type": "channel",
        "noteNumber": 51,
        "velocity": 127,
        "subtype": "noteOn"
      },
      {
        "deltaTime": 0,
        "channel": 2,
        "type": "channel",
        "noteNumber": 44,
        "velocity": 127,
        "subtype": "noteOn"
      },
      {
        "deltaTime": 480,
        "channel": 2,
        "type": "channel",
        "noteNumber": 44,
        "velocity": 0,
        "subtype": "noteOff"
      },
      {
        "deltaTime": 0,
        "channel": 2,
        "type": "channel",
        "noteNumber": 63,
        "velocity": 0,
        "subtype": "noteOff"
      },
      {
        "deltaTime": 0,
        "channel": 2,
        "type": "channel",
        "noteNumber": 56,
        "velocity": 0,
        "subtype": "noteOff"
      },
      {
        "deltaTime": 0,
        "channel": 2,
        "type": "channel",
        "noteNumber": 51,
        "velocity": 0,
        "subtype": "noteOff"
      },
      {
        "deltaTime": 0,
        "channel": 2,
        "type": "channel",
        "noteNumber": 63,
        "velocity": 127,
        "subtype": "noteOn"
      },
      {
        "deltaTime": 0,
        "channel": 2,
        "type": "channel",
        "noteNumber": 56,
        "velocity": 127,
        "subtype": "noteOn"
      },
      {
        "deltaTime": 0,
        "channel": 2,
        "type": "channel",
        "noteNumber": 51,
        "velocity": 127,
        "subtype": "noteOn"
      },
      {
        "deltaTime": 0,
        "channel": 2,
        "type": "channel",
        "noteNumber": 44,
        "velocity": 127,
        "subtype": "noteOn"
      },
      {
        "deltaTime": 480,
        "channel": 2,
        "type": "channel",
        "noteNumber": 44,
        "velocity": 0,
        "subtype": "noteOff"
      },
      {
        "deltaTime": 0,
        "channel": 2,
        "type": "channel",
        "noteNumber": 63,
        "velocity": 0,
        "subtype": "noteOff"
      },
      {
        "deltaTime": 0,
        "channel": 2,
        "type": "channel",
        "noteNumber": 56,
        "velocity": 0,
        "subtype": "noteOff"
      },
      {
        "deltaTime": 0,
        "channel": 2,
        "type": "channel",
        "noteNumber": 51,
        "velocity": 0,
        "subtype": "noteOff"
      },
      {
        "deltaTime": 0,
        "channel": 2,
        "type": "channel",
        "noteNumber": 63,
        "velocity": 127,
        "subtype": "noteOn"
      },
      {
        "deltaTime": 0,
        "channel": 2,
        "type": "channel",
        "noteNumber": 56,
        "velocity": 127,
        "subtype": "noteOn"
      },
      {
        "deltaTime": 0,
        "channel": 2,
        "type": "channel",
        "noteNumber": 51,
        "velocity": 127,
        "subtype": "noteOn"
      },
      {
        "deltaTime": 0,
        "channel": 2,
        "type": "channel",
        "noteNumber": 44,
        "velocity": 127,
        "subtype": "noteOn"
      },
      {
        "deltaTime": 480,
        "channel": 2,
        "type": "channel",
        "noteNumber": 44,
        "velocity": 0,
        "subtype": "noteOff"
      },
      {
        "deltaTime": 0,
        "channel": 2,
        "type": "channel",
        "noteNumber": 63,
        "velocity": 0,
        "subtype": "noteOff"
      },
      {
        "deltaTime": 0,
        "channel": 2,
        "type": "channel",
        "noteNumber": 56,
        "velocity": 0,
        "subtype": "noteOff"
      },
      {
        "deltaTime": 0,
        "channel": 2,
        "type": "channel",
        "noteNumber": 51,
        "velocity": 0,
        "subtype": "noteOff"
      },
      {
        "deltaTime": 0,
        "channel": 2,
        "type": "channel",
        "noteNumber": 63,
        "velocity": 127,
        "subtype": "noteOn"
      },
      {
        "deltaTime": 0,
        "channel": 2,
        "type": "channel",
        "noteNumber": 56,
        "velocity": 127,
        "subtype": "noteOn"
      },
      {
        "deltaTime": 0,
        "channel": 2,
        "type": "channel",
        "noteNumber": 51,
        "velocity": 127,
        "subtype": "noteOn"
      },
      {
        "deltaTime": 0,
        "channel": 2,
        "type": "channel",
        "noteNumber": 44,
        "velocity": 127,
        "subtype": "noteOn"
      },
      {
        "deltaTime": 480,
        "channel": 2,
        "type": "channel",
        "noteNumber": 44,
        "velocity": 0,
        "subtype": "noteOff"
      },
      {
        "deltaTime": 0,
        "channel": 2,
        "type": "channel",
        "noteNumber": 63,
        "velocity": 0,
        "subtype": "noteOff"
      },
      {
        "deltaTime": 0,
        "channel": 2,
        "type": "channel",
        "noteNumber": 56,
        "velocity": 0,
        "subtype": "noteOff"
      },
      {
        "deltaTime": 0,
        "channel": 2,
        "type": "channel",
        "noteNumber": 51,
        "velocity": 0,
        "subtype": "noteOff"
      },
      {
        "deltaTime": 0,
        "channel": 2,
        "type": "channel",
        "noteNumber": 63,
        "velocity": 127,
        "subtype": "noteOn"
      },
      {
        "deltaTime": 0,
        "channel": 2,
        "type": "channel",
        "noteNumber": 56,
        "velocity": 127,
        "subtype": "noteOn"
      },
      {
        "deltaTime": 0,
        "channel": 2,
        "type": "channel",
        "noteNumber": 51,
        "velocity": 127,
        "subtype": "noteOn"
      },
      {
        "deltaTime": 0,
        "channel": 2,
        "type": "channel",
        "noteNumber": 44,
        "velocity": 127,
        "subtype": "noteOn"
      },
      {
        "deltaTime": 480,
        "channel": 2,
        "type": "channel",
        "noteNumber": 44,
        "velocity": 0,
        "subtype": "noteOff"
      },
      {
        "deltaTime": 0,
        "channel": 2,
        "type": "channel",
        "noteNumber": 63,
        "velocity": 0,
        "subtype": "noteOff"
      },
      {
        "deltaTime": 0,
        "channel": 2,
        "type": "channel",
        "noteNumber": 56,
        "velocity": 0,
        "subtype": "noteOff"
      },
      {
        "deltaTime": 0,
        "channel": 2,
        "type": "channel",
        "noteNumber": 51,
        "velocity": 0,
        "subtype": "noteOff"
      },
      {
        "deltaTime": 0,
        "channel": 2,
        "type": "channel",
        "noteNumber": 63,
        "velocity": 127,
        "subtype": "noteOn"
      },
      {
        "deltaTime": 0,
        "channel": 2,
        "type": "channel",
        "noteNumber": 56,
        "velocity": 127,
        "subtype": "noteOn"
      },
      {
        "deltaTime": 0,
        "channel": 2,
        "type": "channel",
        "noteNumber": 51,
        "velocity": 127,
        "subtype": "noteOn"
      },
      {
        "deltaTime": 0,
        "channel": 2,
        "type": "channel",
        "noteNumber": 44,
        "velocity": 127,
        "subtype": "noteOn"
      },
      {
        "deltaTime": 480,
        "channel": 2,
        "type": "channel",
        "noteNumber": 44,
        "velocity": 0,
        "subtype": "noteOff"
      },
      {
        "deltaTime": 0,
        "channel": 2,
        "type": "channel",
        "noteNumber": 63,
        "velocity": 0,
        "subtype": "noteOff"
      },
      {
        "deltaTime": 0,
        "channel": 2,
        "type": "channel",
        "noteNumber": 56,
        "velocity": 0,
        "subtype": "noteOff"
      },
      {
        "deltaTime": 0,
        "channel": 2,
        "type": "channel",
        "noteNumber": 51,
        "velocity": 0,
        "subtype": "noteOff"
      },
      {
        "deltaTime": 0,
        "channel": 2,
        "type": "channel",
        "noteNumber": 63,
        "velocity": 127,
        "subtype": "noteOn"
      },
      {
        "deltaTime": 0,
        "channel": 2,
        "type": "channel",
        "noteNumber": 56,
        "velocity": 127,
        "subtype": "noteOn"
      },
      {
        "deltaTime": 0,
        "channel": 2,
        "type": "channel",
        "noteNumber": 51,
        "velocity": 127,
        "subtype": "noteOn"
      },
      {
        "deltaTime": 0,
        "channel": 2,
        "type": "channel",
        "noteNumber": 44,
        "velocity": 127,
        "subtype": "noteOn"
      },
      {
        "deltaTime": 480,
        "channel": 2,
        "type": "channel",
        "noteNumber": 44,
        "velocity": 0,
        "subtype": "noteOff"
      },
      {
        "deltaTime": 0,
        "channel": 2,
        "type": "channel",
        "noteNumber": 63,
        "velocity": 0,
        "subtype": "noteOff"
      },
      {
        "deltaTime": 0,
        "channel": 2,
        "type": "channel",
        "noteNumber": 56,
        "velocity": 0,
        "subtype": "noteOff"
      },
      {
        "deltaTime": 0,
        "channel": 2,
        "type": "channel",
        "noteNumber": 51,
        "velocity": 0,
        "subtype": "noteOff"
      },
      {
        "deltaTime": 0,
        "channel": 2,
        "type": "channel",
        "noteNumber": 63,
        "velocity": 127,
        "subtype": "noteOn"
      },
      {
        "deltaTime": 0,
        "channel": 2,
        "type": "channel",
        "noteNumber": 56,
        "velocity": 127,
        "subtype": "noteOn"
      },
      {
        "deltaTime": 0,
        "channel": 2,
        "type": "channel",
        "noteNumber": 51,
        "velocity": 127,
        "subtype": "noteOn"
      },
      {
        "deltaTime": 0,
        "channel": 2,
        "type": "channel",
        "noteNumber": 44,
        "velocity": 127,
        "subtype": "noteOn"
      },
      {
        "deltaTime": 480,
        "channel": 2,
        "type": "channel",
        "noteNumber": 44,
        "velocity": 0,
        "subtype": "noteOff"
      },
      {
        "deltaTime": 0,
        "channel": 2,
        "type": "channel",
        "noteNumber": 63,
        "velocity": 0,
        "subtype": "noteOff"
      },
      {
        "deltaTime": 0,
        "channel": 2,
        "type": "channel",
        "noteNumber": 56,
        "velocity": 0,
        "subtype": "noteOff"
      },
      {
        "deltaTime": 0,
        "channel": 2,
        "type": "channel",
        "noteNumber": 51,
        "velocity": 0,
        "subtype": "noteOff"
      },
      {
        "deltaTime": 0,
        "channel": 2,
        "type": "channel",
        "noteNumber": 58,
        "velocity": 127,
        "subtype": "noteOn"
      },
      {
        "deltaTime": 0,
        "channel": 2,
        "type": "channel",
        "noteNumber": 51,
        "velocity": 127,
        "subtype": "noteOn"
      },
      {
        "deltaTime": 0,
        "channel": 2,
        "type": "channel",
        "noteNumber": 46,
        "velocity": 127,
        "subtype": "noteOn"
      },
      {
        "deltaTime": 0,
        "channel": 2,
        "type": "channel",
        "noteNumber": 39,
        "velocity": 127,
        "subtype": "noteOn"
      },
      {
        "deltaTime": 480,
        "channel": 2,
        "type": "channel",
        "noteNumber": 39,
        "velocity": 0,
        "subtype": "noteOff"
      },
      {
        "deltaTime": 0,
        "channel": 2,
        "type": "channel",
        "noteNumber": 58,
        "velocity": 0,
        "subtype": "noteOff"
      },
      {
        "deltaTime": 0,
        "channel": 2,
        "type": "channel",
        "noteNumber": 51,
        "velocity": 0,
        "subtype": "noteOff"
      },
      {
        "deltaTime": 0,
        "channel": 2,
        "type": "channel",
        "noteNumber": 46,
        "velocity": 0,
        "subtype": "noteOff"
      },
      {
        "deltaTime": 0,
        "channel": 2,
        "type": "channel",
        "noteNumber": 58,
        "velocity": 127,
        "subtype": "noteOn"
      },
      {
        "deltaTime": 0,
        "channel": 2,
        "type": "channel",
        "noteNumber": 51,
        "velocity": 127,
        "subtype": "noteOn"
      },
      {
        "deltaTime": 0,
        "channel": 2,
        "type": "channel",
        "noteNumber": 46,
        "velocity": 127,
        "subtype": "noteOn"
      },
      {
        "deltaTime": 0,
        "channel": 2,
        "type": "channel",
        "noteNumber": 39,
        "velocity": 127,
        "subtype": "noteOn"
      },
      {
        "deltaTime": 480,
        "channel": 2,
        "type": "channel",
        "noteNumber": 39,
        "velocity": 0,
        "subtype": "noteOff"
      },
      {
        "deltaTime": 0,
        "channel": 2,
        "type": "channel",
        "noteNumber": 58,
        "velocity": 0,
        "subtype": "noteOff"
      },
      {
        "deltaTime": 0,
        "channel": 2,
        "type": "channel",
        "noteNumber": 51,
        "velocity": 0,
        "subtype": "noteOff"
      },
      {
        "deltaTime": 0,
        "channel": 2,
        "type": "channel",
        "noteNumber": 46,
        "velocity": 0,
        "subtype": "noteOff"
      },
      {
        "deltaTime": 0,
        "channel": 2,
        "type": "channel",
        "noteNumber": 58,
        "velocity": 127,
        "subtype": "noteOn"
      },
      {
        "deltaTime": 0,
        "channel": 2,
        "type": "channel",
        "noteNumber": 51,
        "velocity": 127,
        "subtype": "noteOn"
      },
      {
        "deltaTime": 0,
        "channel": 2,
        "type": "channel",
        "noteNumber": 46,
        "velocity": 127,
        "subtype": "noteOn"
      },
      {
        "deltaTime": 0,
        "channel": 2,
        "type": "channel",
        "noteNumber": 39,
        "velocity": 127,
        "subtype": "noteOn"
      },
      {
        "deltaTime": 480,
        "channel": 2,
        "type": "channel",
        "noteNumber": 39,
        "velocity": 0,
        "subtype": "noteOff"
      },
      {
        "deltaTime": 0,
        "channel": 2,
        "type": "channel",
        "noteNumber": 58,
        "velocity": 0,
        "subtype": "noteOff"
      },
      {
        "deltaTime": 0,
        "channel": 2,
        "type": "channel",
        "noteNumber": 51,
        "velocity": 0,
        "subtype": "noteOff"
      },
      {
        "deltaTime": 0,
        "channel": 2,
        "type": "channel",
        "noteNumber": 46,
        "velocity": 0,
        "subtype": "noteOff"
      },
      {
        "deltaTime": 0,
        "channel": 2,
        "type": "channel",
        "noteNumber": 58,
        "velocity": 127,
        "subtype": "noteOn"
      },
      {
        "deltaTime": 0,
        "channel": 2,
        "type": "channel",
        "noteNumber": 51,
        "velocity": 127,
        "subtype": "noteOn"
      },
      {
        "deltaTime": 0,
        "channel": 2,
        "type": "channel",
        "noteNumber": 46,
        "velocity": 127,
        "subtype": "noteOn"
      },
      {
        "deltaTime": 0,
        "channel": 2,
        "type": "channel",
        "noteNumber": 39,
        "velocity": 127,
        "subtype": "noteOn"
      },
      {
        "deltaTime": 480,
        "channel": 2,
        "type": "channel",
        "noteNumber": 39,
        "velocity": 0,
        "subtype": "noteOff"
      },
      {
        "deltaTime": 0,
        "channel": 2,
        "type": "channel",
        "noteNumber": 58,
        "velocity": 0,
        "subtype": "noteOff"
      },
      {
        "deltaTime": 0,
        "channel": 2,
        "type": "channel",
        "noteNumber": 51,
        "velocity": 0,
        "subtype": "noteOff"
      },
      {
        "deltaTime": 0,
        "channel": 2,
        "type": "channel",
        "noteNumber": 46,
        "velocity": 0,
        "subtype": "noteOff"
      },
      {
        "deltaTime": 0,
        "channel": 2,
        "type": "channel",
        "noteNumber": 58,
        "velocity": 127,
        "subtype": "noteOn"
      },
      {
        "deltaTime": 0,
        "channel": 2,
        "type": "channel",
        "noteNumber": 51,
        "velocity": 127,
        "subtype": "noteOn"
      },
      {
        "deltaTime": 0,
        "channel": 2,
        "type": "channel",
        "noteNumber": 46,
        "velocity": 127,
        "subtype": "noteOn"
      },
      {
        "deltaTime": 0,
        "channel": 2,
        "type": "channel",
        "noteNumber": 39,
        "velocity": 127,
        "subtype": "noteOn"
      },
      {
        "deltaTime": 480,
        "channel": 2,
        "type": "channel",
        "noteNumber": 39,
        "velocity": 0,
        "subtype": "noteOff"
      },
      {
        "deltaTime": 0,
        "channel": 2,
        "type": "channel",
        "noteNumber": 58,
        "velocity": 0,
        "subtype": "noteOff"
      },
      {
        "deltaTime": 0,
        "channel": 2,
        "type": "channel",
        "noteNumber": 51,
        "velocity": 0,
        "subtype": "noteOff"
      },
      {
        "deltaTime": 0,
        "channel": 2,
        "type": "channel",
        "noteNumber": 46,
        "velocity": 0,
        "subtype": "noteOff"
      },
      {
        "deltaTime": 0,
        "channel": 2,
        "type": "channel",
        "noteNumber": 58,
        "velocity": 127,
        "subtype": "noteOn"
      },
      {
        "deltaTime": 0,
        "channel": 2,
        "type": "channel",
        "noteNumber": 51,
        "velocity": 127,
        "subtype": "noteOn"
      },
      {
        "deltaTime": 0,
        "channel": 2,
        "type": "channel",
        "noteNumber": 46,
        "velocity": 127,
        "subtype": "noteOn"
      },
      {
        "deltaTime": 0,
        "channel": 2,
        "type": "channel",
        "noteNumber": 39,
        "velocity": 127,
        "subtype": "noteOn"
      },
      {
        "deltaTime": 480,
        "channel": 2,
        "type": "channel",
        "noteNumber": 39,
        "velocity": 0,
        "subtype": "noteOff"
      },
      {
        "deltaTime": 0,
        "channel": 2,
        "type": "channel",
        "noteNumber": 58,
        "velocity": 0,
        "subtype": "noteOff"
      },
      {
        "deltaTime": 0,
        "channel": 2,
        "type": "channel",
        "noteNumber": 51,
        "velocity": 0,
        "subtype": "noteOff"
      },
      {
        "deltaTime": 0,
        "channel": 2,
        "type": "channel",
        "noteNumber": 46,
        "velocity": 0,
        "subtype": "noteOff"
      },
      {
        "deltaTime": 0,
        "channel": 2,
        "type": "channel",
        "noteNumber": 58,
        "velocity": 127,
        "subtype": "noteOn"
      },
      {
        "deltaTime": 0,
        "channel": 2,
        "type": "channel",
        "noteNumber": 51,
        "velocity": 127,
        "subtype": "noteOn"
      },
      {
        "deltaTime": 0,
        "channel": 2,
        "type": "channel",
        "noteNumber": 46,
        "velocity": 127,
        "subtype": "noteOn"
      },
      {
        "deltaTime": 0,
        "channel": 2,
        "type": "channel",
        "noteNumber": 39,
        "velocity": 127,
        "subtype": "noteOn"
      },
      {
        "deltaTime": 480,
        "channel": 2,
        "type": "channel",
        "noteNumber": 39,
        "velocity": 0,
        "subtype": "noteOff"
      },
      {
        "deltaTime": 0,
        "channel": 2,
        "type": "channel",
        "noteNumber": 58,
        "velocity": 0,
        "subtype": "noteOff"
      },
      {
        "deltaTime": 0,
        "channel": 2,
        "type": "channel",
        "noteNumber": 51,
        "velocity": 0,
        "subtype": "noteOff"
      },
      {
        "deltaTime": 0,
        "channel": 2,
        "type": "channel",
        "noteNumber": 46,
        "velocity": 0,
        "subtype": "noteOff"
      },
      {
        "deltaTime": 0,
        "channel": 2,
        "type": "channel",
        "noteNumber": 58,
        "velocity": 127,
        "subtype": "noteOn"
      },
      {
        "deltaTime": 0,
        "channel": 2,
        "type": "channel",
        "noteNumber": 51,
        "velocity": 127,
        "subtype": "noteOn"
      },
      {
        "deltaTime": 0,
        "channel": 2,
        "type": "channel",
        "noteNumber": 46,
        "velocity": 127,
        "subtype": "noteOn"
      },
      {
        "deltaTime": 0,
        "channel": 2,
        "type": "channel",
        "noteNumber": 39,
        "velocity": 127,
        "subtype": "noteOn"
      },
      {
        "deltaTime": 480,
        "channel": 2,
        "type": "channel",
        "noteNumber": 39,
        "velocity": 0,
        "subtype": "noteOff"
      },
      {
        "deltaTime": 0,
        "channel": 2,
        "type": "channel",
        "noteNumber": 58,
        "velocity": 0,
        "subtype": "noteOff"
      },
      {
        "deltaTime": 0,
        "channel": 2,
        "type": "channel",
        "noteNumber": 51,
        "velocity": 0,
        "subtype": "noteOff"
      },
      {
        "deltaTime": 0,
        "channel": 2,
        "type": "channel",
        "noteNumber": 46,
        "velocity": 0,
        "subtype": "noteOff"
      },
      {
        "deltaTime": 0,
        "channel": 2,
        "type": "channel",
        "noteNumber": 65,
        "velocity": 127,
        "subtype": "noteOn"
      },
      {
        "deltaTime": 0,
        "channel": 2,
        "type": "channel",
        "noteNumber": 58,
        "velocity": 127,
        "subtype": "noteOn"
      },
      {
        "deltaTime": 0,
        "channel": 2,
        "type": "channel",
        "noteNumber": 53,
        "velocity": 127,
        "subtype": "noteOn"
      },
      {
        "deltaTime": 0,
        "channel": 2,
        "type": "channel",
        "noteNumber": 46,
        "velocity": 127,
        "subtype": "noteOn"
      },
      {
        "deltaTime": 480,
        "channel": 2,
        "type": "channel",
        "noteNumber": 46,
        "velocity": 0,
        "subtype": "noteOff"
      },
      {
        "deltaTime": 0,
        "channel": 2,
        "type": "channel",
        "noteNumber": 65,
        "velocity": 0,
        "subtype": "noteOff"
      },
      {
        "deltaTime": 0,
        "channel": 2,
        "type": "channel",
        "noteNumber": 58,
        "velocity": 0,
        "subtype": "noteOff"
      },
      {
        "deltaTime": 0,
        "channel": 2,
        "type": "channel",
        "noteNumber": 53,
        "velocity": 0,
        "subtype": "noteOff"
      },
      {
        "deltaTime": 0,
        "channel": 2,
        "type": "channel",
        "noteNumber": 65,
        "velocity": 127,
        "subtype": "noteOn"
      },
      {
        "deltaTime": 0,
        "channel": 2,
        "type": "channel",
        "noteNumber": 58,
        "velocity": 127,
        "subtype": "noteOn"
      },
      {
        "deltaTime": 0,
        "channel": 2,
        "type": "channel",
        "noteNumber": 53,
        "velocity": 127,
        "subtype": "noteOn"
      },
      {
        "deltaTime": 0,
        "channel": 2,
        "type": "channel",
        "noteNumber": 46,
        "velocity": 127,
        "subtype": "noteOn"
      },
      {
        "deltaTime": 480,
        "channel": 2,
        "type": "channel",
        "noteNumber": 46,
        "velocity": 0,
        "subtype": "noteOff"
      },
      {
        "deltaTime": 0,
        "channel": 2,
        "type": "channel",
        "noteNumber": 65,
        "velocity": 0,
        "subtype": "noteOff"
      },
      {
        "deltaTime": 0,
        "channel": 2,
        "type": "channel",
        "noteNumber": 58,
        "velocity": 0,
        "subtype": "noteOff"
      },
      {
        "deltaTime": 0,
        "channel": 2,
        "type": "channel",
        "noteNumber": 53,
        "velocity": 0,
        "subtype": "noteOff"
      },
      {
        "deltaTime": 0,
        "channel": 2,
        "type": "channel",
        "noteNumber": 65,
        "velocity": 127,
        "subtype": "noteOn"
      },
      {
        "deltaTime": 0,
        "channel": 2,
        "type": "channel",
        "noteNumber": 58,
        "velocity": 127,
        "subtype": "noteOn"
      },
      {
        "deltaTime": 0,
        "channel": 2,
        "type": "channel",
        "noteNumber": 53,
        "velocity": 127,
        "subtype": "noteOn"
      },
      {
        "deltaTime": 0,
        "channel": 2,
        "type": "channel",
        "noteNumber": 46,
        "velocity": 127,
        "subtype": "noteOn"
      },
      {
        "deltaTime": 480,
        "channel": 2,
        "type": "channel",
        "noteNumber": 46,
        "velocity": 0,
        "subtype": "noteOff"
      },
      {
        "deltaTime": 0,
        "channel": 2,
        "type": "channel",
        "noteNumber": 65,
        "velocity": 0,
        "subtype": "noteOff"
      },
      {
        "deltaTime": 0,
        "channel": 2,
        "type": "channel",
        "noteNumber": 58,
        "velocity": 0,
        "subtype": "noteOff"
      },
      {
        "deltaTime": 0,
        "channel": 2,
        "type": "channel",
        "noteNumber": 53,
        "velocity": 0,
        "subtype": "noteOff"
      },
      {
        "deltaTime": 0,
        "channel": 2,
        "type": "channel",
        "noteNumber": 65,
        "velocity": 127,
        "subtype": "noteOn"
      },
      {
        "deltaTime": 0,
        "channel": 2,
        "type": "channel",
        "noteNumber": 58,
        "velocity": 127,
        "subtype": "noteOn"
      },
      {
        "deltaTime": 0,
        "channel": 2,
        "type": "channel",
        "noteNumber": 53,
        "velocity": 127,
        "subtype": "noteOn"
      },
      {
        "deltaTime": 0,
        "channel": 2,
        "type": "channel",
        "noteNumber": 46,
        "velocity": 127,
        "subtype": "noteOn"
      },
      {
        "deltaTime": 480,
        "channel": 2,
        "type": "channel",
        "noteNumber": 46,
        "velocity": 0,
        "subtype": "noteOff"
      },
      {
        "deltaTime": 0,
        "channel": 2,
        "type": "channel",
        "noteNumber": 65,
        "velocity": 0,
        "subtype": "noteOff"
      },
      {
        "deltaTime": 0,
        "channel": 2,
        "type": "channel",
        "noteNumber": 58,
        "velocity": 0,
        "subtype": "noteOff"
      },
      {
        "deltaTime": 0,
        "channel": 2,
        "type": "channel",
        "noteNumber": 53,
        "velocity": 0,
        "subtype": "noteOff"
      },
      {
        "deltaTime": 0,
        "channel": 2,
        "type": "channel",
        "noteNumber": 65,
        "velocity": 127,
        "subtype": "noteOn"
      },
      {
        "deltaTime": 0,
        "channel": 2,
        "type": "channel",
        "noteNumber": 58,
        "velocity": 127,
        "subtype": "noteOn"
      },
      {
        "deltaTime": 0,
        "channel": 2,
        "type": "channel",
        "noteNumber": 53,
        "velocity": 127,
        "subtype": "noteOn"
      },
      {
        "deltaTime": 0,
        "channel": 2,
        "type": "channel",
        "noteNumber": 46,
        "velocity": 127,
        "subtype": "noteOn"
      },
      {
        "deltaTime": 480,
        "channel": 2,
        "type": "channel",
        "noteNumber": 46,
        "velocity": 0,
        "subtype": "noteOff"
      },
      {
        "deltaTime": 0,
        "channel": 2,
        "type": "channel",
        "noteNumber": 65,
        "velocity": 0,
        "subtype": "noteOff"
      },
      {
        "deltaTime": 0,
        "channel": 2,
        "type": "channel",
        "noteNumber": 58,
        "velocity": 0,
        "subtype": "noteOff"
      },
      {
        "deltaTime": 0,
        "channel": 2,
        "type": "channel",
        "noteNumber": 53,
        "velocity": 0,
        "subtype": "noteOff"
      },
      {
        "deltaTime": 0,
        "channel": 2,
        "type": "channel",
        "noteNumber": 65,
        "velocity": 127,
        "subtype": "noteOn"
      },
      {
        "deltaTime": 0,
        "channel": 2,
        "type": "channel",
        "noteNumber": 58,
        "velocity": 127,
        "subtype": "noteOn"
      },
      {
        "deltaTime": 0,
        "channel": 2,
        "type": "channel",
        "noteNumber": 53,
        "velocity": 127,
        "subtype": "noteOn"
      },
      {
        "deltaTime": 0,
        "channel": 2,
        "type": "channel",
        "noteNumber": 46,
        "velocity": 127,
        "subtype": "noteOn"
      },
      {
        "deltaTime": 480,
        "channel": 2,
        "type": "channel",
        "noteNumber": 46,
        "velocity": 0,
        "subtype": "noteOff"
      },
      {
        "deltaTime": 0,
        "channel": 2,
        "type": "channel",
        "noteNumber": 65,
        "velocity": 0,
        "subtype": "noteOff"
      },
      {
        "deltaTime": 0,
        "channel": 2,
        "type": "channel",
        "noteNumber": 58,
        "velocity": 0,
        "subtype": "noteOff"
      },
      {
        "deltaTime": 0,
        "channel": 2,
        "type": "channel",
        "noteNumber": 53,
        "velocity": 0,
        "subtype": "noteOff"
      },
      {
        "deltaTime": 0,
        "channel": 2,
        "type": "channel",
        "noteNumber": 65,
        "velocity": 127,
        "subtype": "noteOn"
      },
      {
        "deltaTime": 0,
        "channel": 2,
        "type": "channel",
        "noteNumber": 58,
        "velocity": 127,
        "subtype": "noteOn"
      },
      {
        "deltaTime": 0,
        "channel": 2,
        "type": "channel",
        "noteNumber": 53,
        "velocity": 127,
        "subtype": "noteOn"
      },
      {
        "deltaTime": 0,
        "channel": 2,
        "type": "channel",
        "noteNumber": 46,
        "velocity": 127,
        "subtype": "noteOn"
      },
      {
        "deltaTime": 480,
        "channel": 2,
        "type": "channel",
        "noteNumber": 46,
        "velocity": 0,
        "subtype": "noteOff"
      },
      {
        "deltaTime": 0,
        "channel": 2,
        "type": "channel",
        "noteNumber": 65,
        "velocity": 0,
        "subtype": "noteOff"
      },
      {
        "deltaTime": 0,
        "channel": 2,
        "type": "channel",
        "noteNumber": 58,
        "velocity": 0,
        "subtype": "noteOff"
      },
      {
        "deltaTime": 0,
        "channel": 2,
        "type": "channel",
        "noteNumber": 53,
        "velocity": 0,
        "subtype": "noteOff"
      },
      {
        "deltaTime": 0,
        "channel": 2,
        "type": "channel",
        "noteNumber": 65,
        "velocity": 127,
        "subtype": "noteOn"
      },
      {
        "deltaTime": 0,
        "channel": 2,
        "type": "channel",
        "noteNumber": 58,
        "velocity": 127,
        "subtype": "noteOn"
      },
      {
        "deltaTime": 0,
        "channel": 2,
        "type": "channel",
        "noteNumber": 53,
        "velocity": 127,
        "subtype": "noteOn"
      },
      {
        "deltaTime": 0,
        "channel": 2,
        "type": "channel",
        "noteNumber": 46,
        "velocity": 127,
        "subtype": "noteOn"
      },
      {
        "deltaTime": 480,
        "channel": 2,
        "type": "channel",
        "noteNumber": 46,
        "velocity": 0,
        "subtype": "noteOff"
      },
      {
        "deltaTime": 0,
        "channel": 2,
        "type": "channel",
        "noteNumber": 65,
        "velocity": 0,
        "subtype": "noteOff"
      },
      {
        "deltaTime": 0,
        "channel": 2,
        "type": "channel",
        "noteNumber": 58,
        "velocity": 0,
        "subtype": "noteOff"
      },
      {
        "deltaTime": 0,
        "channel": 2,
        "type": "channel",
        "noteNumber": 53,
        "velocity": 0,
        "subtype": "noteOff"
      },
      {
        "deltaTime": 0,
        "channel": 2,
        "type": "channel",
        "noteNumber": 65,
        "velocity": 127,
        "subtype": "noteOn"
      },
      {
        "deltaTime": 0,
        "channel": 2,
        "type": "channel",
        "noteNumber": 58,
        "velocity": 127,
        "subtype": "noteOn"
      },
      {
        "deltaTime": 0,
        "channel": 2,
        "type": "channel",
        "noteNumber": 53,
        "velocity": 127,
        "subtype": "noteOn"
      },
      {
        "deltaTime": 0,
        "channel": 2,
        "type": "channel",
        "noteNumber": 46,
        "velocity": 127,
        "subtype": "noteOn"
      },
      {
        "deltaTime": 480,
        "channel": 2,
        "type": "channel",
        "noteNumber": 46,
        "velocity": 0,
        "subtype": "noteOff"
      },
      {
        "deltaTime": 0,
        "channel": 2,
        "type": "channel",
        "noteNumber": 65,
        "velocity": 0,
        "subtype": "noteOff"
      },
      {
        "deltaTime": 0,
        "channel": 2,
        "type": "channel",
        "noteNumber": 58,
        "velocity": 0,
        "subtype": "noteOff"
      },
      {
        "deltaTime": 0,
        "channel": 2,
        "type": "channel",
        "noteNumber": 53,
        "velocity": 0,
        "subtype": "noteOff"
      },
      {
        "deltaTime": 0,
        "channel": 2,
        "type": "channel",
        "noteNumber": 65,
        "velocity": 127,
        "subtype": "noteOn"
      },
      {
        "deltaTime": 0,
        "channel": 2,
        "type": "channel",
        "noteNumber": 58,
        "velocity": 127,
        "subtype": "noteOn"
      },
      {
        "deltaTime": 0,
        "channel": 2,
        "type": "channel",
        "noteNumber": 53,
        "velocity": 127,
        "subtype": "noteOn"
      },
      {
        "deltaTime": 0,
        "channel": 2,
        "type": "channel",
        "noteNumber": 46,
        "velocity": 127,
        "subtype": "noteOn"
      },
      {
        "deltaTime": 480,
        "channel": 2,
        "type": "channel",
        "noteNumber": 46,
        "velocity": 0,
        "subtype": "noteOff"
      },
      {
        "deltaTime": 0,
        "channel": 2,
        "type": "channel",
        "noteNumber": 65,
        "velocity": 0,
        "subtype": "noteOff"
      },
      {
        "deltaTime": 0,
        "channel": 2,
        "type": "channel",
        "noteNumber": 58,
        "velocity": 0,
        "subtype": "noteOff"
      },
      {
        "deltaTime": 0,
        "channel": 2,
        "type": "channel",
        "noteNumber": 53,
        "velocity": 0,
        "subtype": "noteOff"
      },
      {
        "deltaTime": 0,
        "channel": 2,
        "type": "channel",
        "noteNumber": 65,
        "velocity": 127,
        "subtype": "noteOn"
      },
      {
        "deltaTime": 0,
        "channel": 2,
        "type": "channel",
        "noteNumber": 58,
        "velocity": 127,
        "subtype": "noteOn"
      },
      {
        "deltaTime": 0,
        "channel": 2,
        "type": "channel",
        "noteNumber": 53,
        "velocity": 127,
        "subtype": "noteOn"
      },
      {
        "deltaTime": 0,
        "channel": 2,
        "type": "channel",
        "noteNumber": 46,
        "velocity": 127,
        "subtype": "noteOn"
      },
      {
        "deltaTime": 480,
        "channel": 2,
        "type": "channel",
        "noteNumber": 46,
        "velocity": 0,
        "subtype": "noteOff"
      },
      {
        "deltaTime": 0,
        "channel": 2,
        "type": "channel",
        "noteNumber": 65,
        "velocity": 0,
        "subtype": "noteOff"
      },
      {
        "deltaTime": 0,
        "channel": 2,
        "type": "channel",
        "noteNumber": 58,
        "velocity": 0,
        "subtype": "noteOff"
      },
      {
        "deltaTime": 0,
        "channel": 2,
        "type": "channel",
        "noteNumber": 53,
        "velocity": 0,
        "subtype": "noteOff"
      },
      {
        "deltaTime": 0,
        "channel": 2,
        "type": "channel",
        "noteNumber": 65,
        "velocity": 127,
        "subtype": "noteOn"
      },
      {
        "deltaTime": 0,
        "channel": 2,
        "type": "channel",
        "noteNumber": 58,
        "velocity": 127,
        "subtype": "noteOn"
      },
      {
        "deltaTime": 0,
        "channel": 2,
        "type": "channel",
        "noteNumber": 53,
        "velocity": 127,
        "subtype": "noteOn"
      },
      {
        "deltaTime": 0,
        "channel": 2,
        "type": "channel",
        "noteNumber": 46,
        "velocity": 127,
        "subtype": "noteOn"
      },
      {
        "deltaTime": 480,
        "channel": 2,
        "type": "channel",
        "noteNumber": 46,
        "velocity": 0,
        "subtype": "noteOff"
      },
      {
        "deltaTime": 0,
        "channel": 2,
        "type": "channel",
        "noteNumber": 65,
        "velocity": 0,
        "subtype": "noteOff"
      },
      {
        "deltaTime": 0,
        "channel": 2,
        "type": "channel",
        "noteNumber": 58,
        "velocity": 0,
        "subtype": "noteOff"
      },
      {
        "deltaTime": 0,
        "channel": 2,
        "type": "channel",
        "noteNumber": 53,
        "velocity": 0,
        "subtype": "noteOff"
      },
      {
        "deltaTime": 0,
        "channel": 2,
        "type": "channel",
        "noteNumber": 65,
        "velocity": 127,
        "subtype": "noteOn"
      },
      {
        "deltaTime": 0,
        "channel": 2,
        "type": "channel",
        "noteNumber": 58,
        "velocity": 127,
        "subtype": "noteOn"
      },
      {
        "deltaTime": 0,
        "channel": 2,
        "type": "channel",
        "noteNumber": 53,
        "velocity": 127,
        "subtype": "noteOn"
      },
      {
        "deltaTime": 0,
        "channel": 2,
        "type": "channel",
        "noteNumber": 46,
        "velocity": 127,
        "subtype": "noteOn"
      },
      {
        "deltaTime": 480,
        "channel": 2,
        "type": "channel",
        "noteNumber": 46,
        "velocity": 0,
        "subtype": "noteOff"
      },
      {
        "deltaTime": 0,
        "channel": 2,
        "type": "channel",
        "noteNumber": 65,
        "velocity": 0,
        "subtype": "noteOff"
      },
      {
        "deltaTime": 0,
        "channel": 2,
        "type": "channel",
        "noteNumber": 58,
        "velocity": 0,
        "subtype": "noteOff"
      },
      {
        "deltaTime": 0,
        "channel": 2,
        "type": "channel",
        "noteNumber": 53,
        "velocity": 0,
        "subtype": "noteOff"
      },
      {
        "deltaTime": 0,
        "channel": 2,
        "type": "channel",
        "noteNumber": 65,
        "velocity": 127,
        "subtype": "noteOn"
      },
      {
        "deltaTime": 0,
        "channel": 2,
        "type": "channel",
        "noteNumber": 58,
        "velocity": 127,
        "subtype": "noteOn"
      },
      {
        "deltaTime": 0,
        "channel": 2,
        "type": "channel",
        "noteNumber": 53,
        "velocity": 127,
        "subtype": "noteOn"
      },
      {
        "deltaTime": 0,
        "channel": 2,
        "type": "channel",
        "noteNumber": 46,
        "velocity": 127,
        "subtype": "noteOn"
      },
      {
        "deltaTime": 480,
        "channel": 2,
        "type": "channel",
        "noteNumber": 46,
        "velocity": 0,
        "subtype": "noteOff"
      },
      {
        "deltaTime": 0,
        "channel": 2,
        "type": "channel",
        "noteNumber": 65,
        "velocity": 0,
        "subtype": "noteOff"
      },
      {
        "deltaTime": 0,
        "channel": 2,
        "type": "channel",
        "noteNumber": 58,
        "velocity": 0,
        "subtype": "noteOff"
      },
      {
        "deltaTime": 0,
        "channel": 2,
        "type": "channel",
        "noteNumber": 53,
        "velocity": 0,
        "subtype": "noteOff"
      },
      {
        "deltaTime": 0,
        "channel": 2,
        "type": "channel",
        "noteNumber": 65,
        "velocity": 127,
        "subtype": "noteOn"
      },
      {
        "deltaTime": 0,
        "channel": 2,
        "type": "channel",
        "noteNumber": 58,
        "velocity": 127,
        "subtype": "noteOn"
      },
      {
        "deltaTime": 0,
        "channel": 2,
        "type": "channel",
        "noteNumber": 53,
        "velocity": 127,
        "subtype": "noteOn"
      },
      {
        "deltaTime": 0,
        "channel": 2,
        "type": "channel",
        "noteNumber": 46,
        "velocity": 127,
        "subtype": "noteOn"
      },
      {
        "deltaTime": 480,
        "channel": 2,
        "type": "channel",
        "noteNumber": 46,
        "velocity": 0,
        "subtype": "noteOff"
      },
      {
        "deltaTime": 0,
        "channel": 2,
        "type": "channel",
        "noteNumber": 65,
        "velocity": 0,
        "subtype": "noteOff"
      },
      {
        "deltaTime": 0,
        "channel": 2,
        "type": "channel",
        "noteNumber": 58,
        "velocity": 0,
        "subtype": "noteOff"
      },
      {
        "deltaTime": 0,
        "channel": 2,
        "type": "channel",
        "noteNumber": 53,
        "velocity": 0,
        "subtype": "noteOff"
      },
      {
        "deltaTime": 0,
        "channel": 2,
        "type": "channel",
        "noteNumber": 65,
        "velocity": 127,
        "subtype": "noteOn"
      },
      {
        "deltaTime": 0,
        "channel": 2,
        "type": "channel",
        "noteNumber": 58,
        "velocity": 127,
        "subtype": "noteOn"
      },
      {
        "deltaTime": 0,
        "channel": 2,
        "type": "channel",
        "noteNumber": 53,
        "velocity": 127,
        "subtype": "noteOn"
      },
      {
        "deltaTime": 0,
        "channel": 2,
        "type": "channel",
        "noteNumber": 46,
        "velocity": 127,
        "subtype": "noteOn"
      },
      {
        "deltaTime": 480,
        "channel": 2,
        "type": "channel",
        "noteNumber": 46,
        "velocity": 0,
        "subtype": "noteOff"
      },
      {
        "deltaTime": 0,
        "channel": 2,
        "type": "channel",
        "noteNumber": 65,
        "velocity": 0,
        "subtype": "noteOff"
      },
      {
        "deltaTime": 0,
        "channel": 2,
        "type": "channel",
        "noteNumber": 58,
        "velocity": 0,
        "subtype": "noteOff"
      },
      {
        "deltaTime": 0,
        "channel": 2,
        "type": "channel",
        "noteNumber": 53,
        "velocity": 0,
        "subtype": "noteOff"
      },
      {
        "deltaTime": 0,
        "channel": 2,
        "type": "channel",
        "noteNumber": 55,
        "velocity": 127,
        "subtype": "noteOn"
      },
      {
        "deltaTime": 0,
        "channel": 2,
        "type": "channel",
        "noteNumber": 48,
        "velocity": 127,
        "subtype": "noteOn"
      },
      {
        "deltaTime": 480,
        "channel": 2,
        "type": "channel",
        "noteNumber": 48,
        "velocity": 0,
        "subtype": "noteOff"
      },
      {
        "deltaTime": 0,
        "channel": 2,
        "type": "channel",
        "noteNumber": 55,
        "velocity": 0,
        "subtype": "noteOff"
      },
      {
        "deltaTime": 0,
        "channel": 2,
        "type": "channel",
        "noteNumber": 55,
        "velocity": 127,
        "subtype": "noteOn"
      },
      {
        "deltaTime": 0,
        "channel": 2,
        "type": "channel",
        "noteNumber": 48,
        "velocity": 127,
        "subtype": "noteOn"
      },
      {
        "deltaTime": 480,
        "channel": 2,
        "type": "channel",
        "noteNumber": 48,
        "velocity": 0,
        "subtype": "noteOff"
      },
      {
        "deltaTime": 0,
        "channel": 2,
        "type": "channel",
        "noteNumber": 55,
        "velocity": 0,
        "subtype": "noteOff"
      },
      {
        "deltaTime": 0,
        "channel": 2,
        "type": "channel",
        "noteNumber": 55,
        "velocity": 127,
        "subtype": "noteOn"
      },
      {
        "deltaTime": 0,
        "channel": 2,
        "type": "channel",
        "noteNumber": 48,
        "velocity": 127,
        "subtype": "noteOn"
      },
      {
        "deltaTime": 480,
        "channel": 2,
        "type": "channel",
        "noteNumber": 48,
        "velocity": 0,
        "subtype": "noteOff"
      },
      {
        "deltaTime": 0,
        "channel": 2,
        "type": "channel",
        "noteNumber": 55,
        "velocity": 0,
        "subtype": "noteOff"
      },
      {
        "deltaTime": 0,
        "channel": 2,
        "type": "channel",
        "noteNumber": 55,
        "velocity": 127,
        "subtype": "noteOn"
      },
      {
        "deltaTime": 0,
        "channel": 2,
        "type": "channel",
        "noteNumber": 48,
        "velocity": 127,
        "subtype": "noteOn"
      },
      {
        "deltaTime": 480,
        "channel": 2,
        "type": "channel",
        "noteNumber": 48,
        "velocity": 0,
        "subtype": "noteOff"
      },
      {
        "deltaTime": 0,
        "channel": 2,
        "type": "channel",
        "noteNumber": 55,
        "velocity": 0,
        "subtype": "noteOff"
      },
      {
        "deltaTime": 0,
        "channel": 2,
        "type": "channel",
        "noteNumber": 55,
        "velocity": 127,
        "subtype": "noteOn"
      },
      {
        "deltaTime": 0,
        "channel": 2,
        "type": "channel",
        "noteNumber": 48,
        "velocity": 127,
        "subtype": "noteOn"
      },
      {
        "deltaTime": 480,
        "channel": 2,
        "type": "channel",
        "noteNumber": 48,
        "velocity": 0,
        "subtype": "noteOff"
      },
      {
        "deltaTime": 0,
        "channel": 2,
        "type": "channel",
        "noteNumber": 55,
        "velocity": 0,
        "subtype": "noteOff"
      },
      {
        "deltaTime": 0,
        "channel": 2,
        "type": "channel",
        "noteNumber": 55,
        "velocity": 127,
        "subtype": "noteOn"
      },
      {
        "deltaTime": 0,
        "channel": 2,
        "type": "channel",
        "noteNumber": 48,
        "velocity": 127,
        "subtype": "noteOn"
      },
      {
        "deltaTime": 480,
        "channel": 2,
        "type": "channel",
        "noteNumber": 48,
        "velocity": 0,
        "subtype": "noteOff"
      },
      {
        "deltaTime": 0,
        "channel": 2,
        "type": "channel",
        "noteNumber": 55,
        "velocity": 0,
        "subtype": "noteOff"
      },
      {
        "deltaTime": 0,
        "channel": 2,
        "type": "channel",
        "noteNumber": 55,
        "velocity": 127,
        "subtype": "noteOn"
      },
      {
        "deltaTime": 0,
        "channel": 2,
        "type": "channel",
        "noteNumber": 48,
        "velocity": 127,
        "subtype": "noteOn"
      },
      {
        "deltaTime": 480,
        "channel": 2,
        "type": "channel",
        "noteNumber": 48,
        "velocity": 0,
        "subtype": "noteOff"
      },
      {
        "deltaTime": 0,
        "channel": 2,
        "type": "channel",
        "noteNumber": 55,
        "velocity": 0,
        "subtype": "noteOff"
      },
      {
        "deltaTime": 0,
        "channel": 2,
        "type": "channel",
        "noteNumber": 55,
        "velocity": 127,
        "subtype": "noteOn"
      },
      {
        "deltaTime": 0,
        "channel": 2,
        "type": "channel",
        "noteNumber": 48,
        "velocity": 127,
        "subtype": "noteOn"
      },
      {
        "deltaTime": 480,
        "channel": 2,
        "type": "channel",
        "noteNumber": 48,
        "velocity": 0,
        "subtype": "noteOff"
      },
      {
        "deltaTime": 0,
        "channel": 2,
        "type": "channel",
        "noteNumber": 55,
        "velocity": 0,
        "subtype": "noteOff"
      },
      {
        "deltaTime": 0,
        "channel": 2,
        "type": "channel",
        "noteNumber": 65,
        "velocity": 127,
        "subtype": "noteOn"
      },
      {
        "deltaTime": 0,
        "channel": 2,
        "type": "channel",
        "noteNumber": 58,
        "velocity": 127,
        "subtype": "noteOn"
      },
      {
        "deltaTime": 0,
        "channel": 2,
        "type": "channel",
        "noteNumber": 53,
        "velocity": 127,
        "subtype": "noteOn"
      },
      {
        "deltaTime": 0,
        "channel": 2,
        "type": "channel",
        "noteNumber": 46,
        "velocity": 127,
        "subtype": "noteOn"
      },
      {
        "deltaTime": 480,
        "channel": 2,
        "type": "channel",
        "noteNumber": 46,
        "velocity": 0,
        "subtype": "noteOff"
      },
      {
        "deltaTime": 0,
        "channel": 2,
        "type": "channel",
        "noteNumber": 65,
        "velocity": 0,
        "subtype": "noteOff"
      },
      {
        "deltaTime": 0,
        "channel": 2,
        "type": "channel",
        "noteNumber": 58,
        "velocity": 0,
        "subtype": "noteOff"
      },
      {
        "deltaTime": 0,
        "channel": 2,
        "type": "channel",
        "noteNumber": 53,
        "velocity": 0,
        "subtype": "noteOff"
      },
      {
        "deltaTime": 0,
        "channel": 2,
        "type": "channel",
        "noteNumber": 65,
        "velocity": 127,
        "subtype": "noteOn"
      },
      {
        "deltaTime": 0,
        "channel": 2,
        "type": "channel",
        "noteNumber": 58,
        "velocity": 127,
        "subtype": "noteOn"
      },
      {
        "deltaTime": 0,
        "channel": 2,
        "type": "channel",
        "noteNumber": 53,
        "velocity": 127,
        "subtype": "noteOn"
      },
      {
        "deltaTime": 0,
        "channel": 2,
        "type": "channel",
        "noteNumber": 46,
        "velocity": 127,
        "subtype": "noteOn"
      },
      {
        "deltaTime": 480,
        "channel": 2,
        "type": "channel",
        "noteNumber": 46,
        "velocity": 0,
        "subtype": "noteOff"
      },
      {
        "deltaTime": 0,
        "channel": 2,
        "type": "channel",
        "noteNumber": 65,
        "velocity": 0,
        "subtype": "noteOff"
      },
      {
        "deltaTime": 0,
        "channel": 2,
        "type": "channel",
        "noteNumber": 58,
        "velocity": 0,
        "subtype": "noteOff"
      },
      {
        "deltaTime": 0,
        "channel": 2,
        "type": "channel",
        "noteNumber": 53,
        "velocity": 0,
        "subtype": "noteOff"
      },
      {
        "deltaTime": 0,
        "channel": 2,
        "type": "channel",
        "noteNumber": 65,
        "velocity": 127,
        "subtype": "noteOn"
      },
      {
        "deltaTime": 0,
        "channel": 2,
        "type": "channel",
        "noteNumber": 58,
        "velocity": 127,
        "subtype": "noteOn"
      },
      {
        "deltaTime": 0,
        "channel": 2,
        "type": "channel",
        "noteNumber": 53,
        "velocity": 127,
        "subtype": "noteOn"
      },
      {
        "deltaTime": 0,
        "channel": 2,
        "type": "channel",
        "noteNumber": 46,
        "velocity": 127,
        "subtype": "noteOn"
      },
      {
        "deltaTime": 480,
        "channel": 2,
        "type": "channel",
        "noteNumber": 46,
        "velocity": 0,
        "subtype": "noteOff"
      },
      {
        "deltaTime": 0,
        "channel": 2,
        "type": "channel",
        "noteNumber": 65,
        "velocity": 0,
        "subtype": "noteOff"
      },
      {
        "deltaTime": 0,
        "channel": 2,
        "type": "channel",
        "noteNumber": 58,
        "velocity": 0,
        "subtype": "noteOff"
      },
      {
        "deltaTime": 0,
        "channel": 2,
        "type": "channel",
        "noteNumber": 53,
        "velocity": 0,
        "subtype": "noteOff"
      },
      {
        "deltaTime": 0,
        "channel": 2,
        "type": "channel",
        "noteNumber": 65,
        "velocity": 127,
        "subtype": "noteOn"
      },
      {
        "deltaTime": 0,
        "channel": 2,
        "type": "channel",
        "noteNumber": 58,
        "velocity": 127,
        "subtype": "noteOn"
      },
      {
        "deltaTime": 0,
        "channel": 2,
        "type": "channel",
        "noteNumber": 53,
        "velocity": 127,
        "subtype": "noteOn"
      },
      {
        "deltaTime": 0,
        "channel": 2,
        "type": "channel",
        "noteNumber": 46,
        "velocity": 127,
        "subtype": "noteOn"
      },
      {
        "deltaTime": 480,
        "channel": 2,
        "type": "channel",
        "noteNumber": 46,
        "velocity": 0,
        "subtype": "noteOff"
      },
      {
        "deltaTime": 0,
        "channel": 2,
        "type": "channel",
        "noteNumber": 65,
        "velocity": 0,
        "subtype": "noteOff"
      },
      {
        "deltaTime": 0,
        "channel": 2,
        "type": "channel",
        "noteNumber": 58,
        "velocity": 0,
        "subtype": "noteOff"
      },
      {
        "deltaTime": 0,
        "channel": 2,
        "type": "channel",
        "noteNumber": 53,
        "velocity": 0,
        "subtype": "noteOff"
      },
      {
        "deltaTime": 0,
        "channel": 2,
        "type": "channel",
        "noteNumber": 65,
        "velocity": 127,
        "subtype": "noteOn"
      },
      {
        "deltaTime": 0,
        "channel": 2,
        "type": "channel",
        "noteNumber": 58,
        "velocity": 127,
        "subtype": "noteOn"
      },
      {
        "deltaTime": 0,
        "channel": 2,
        "type": "channel",
        "noteNumber": 53,
        "velocity": 127,
        "subtype": "noteOn"
      },
      {
        "deltaTime": 0,
        "channel": 2,
        "type": "channel",
        "noteNumber": 46,
        "velocity": 127,
        "subtype": "noteOn"
      },
      {
        "deltaTime": 480,
        "channel": 2,
        "type": "channel",
        "noteNumber": 46,
        "velocity": 0,
        "subtype": "noteOff"
      },
      {
        "deltaTime": 0,
        "channel": 2,
        "type": "channel",
        "noteNumber": 65,
        "velocity": 0,
        "subtype": "noteOff"
      },
      {
        "deltaTime": 0,
        "channel": 2,
        "type": "channel",
        "noteNumber": 58,
        "velocity": 0,
        "subtype": "noteOff"
      },
      {
        "deltaTime": 0,
        "channel": 2,
        "type": "channel",
        "noteNumber": 53,
        "velocity": 0,
        "subtype": "noteOff"
      },
      {
        "deltaTime": 0,
        "channel": 2,
        "type": "channel",
        "noteNumber": 65,
        "velocity": 127,
        "subtype": "noteOn"
      },
      {
        "deltaTime": 0,
        "channel": 2,
        "type": "channel",
        "noteNumber": 58,
        "velocity": 127,
        "subtype": "noteOn"
      },
      {
        "deltaTime": 0,
        "channel": 2,
        "type": "channel",
        "noteNumber": 53,
        "velocity": 127,
        "subtype": "noteOn"
      },
      {
        "deltaTime": 0,
        "channel": 2,
        "type": "channel",
        "noteNumber": 46,
        "velocity": 127,
        "subtype": "noteOn"
      },
      {
        "deltaTime": 480,
        "channel": 2,
        "type": "channel",
        "noteNumber": 46,
        "velocity": 0,
        "subtype": "noteOff"
      },
      {
        "deltaTime": 0,
        "channel": 2,
        "type": "channel",
        "noteNumber": 65,
        "velocity": 0,
        "subtype": "noteOff"
      },
      {
        "deltaTime": 0,
        "channel": 2,
        "type": "channel",
        "noteNumber": 58,
        "velocity": 0,
        "subtype": "noteOff"
      },
      {
        "deltaTime": 0,
        "channel": 2,
        "type": "channel",
        "noteNumber": 53,
        "velocity": 0,
        "subtype": "noteOff"
      },
      {
        "deltaTime": 0,
        "channel": 2,
        "type": "channel",
        "noteNumber": 65,
        "velocity": 127,
        "subtype": "noteOn"
      },
      {
        "deltaTime": 0,
        "channel": 2,
        "type": "channel",
        "noteNumber": 58,
        "velocity": 127,
        "subtype": "noteOn"
      },
      {
        "deltaTime": 0,
        "channel": 2,
        "type": "channel",
        "noteNumber": 53,
        "velocity": 127,
        "subtype": "noteOn"
      },
      {
        "deltaTime": 0,
        "channel": 2,
        "type": "channel",
        "noteNumber": 46,
        "velocity": 127,
        "subtype": "noteOn"
      },
      {
        "deltaTime": 480,
        "channel": 2,
        "type": "channel",
        "noteNumber": 46,
        "velocity": 0,
        "subtype": "noteOff"
      },
      {
        "deltaTime": 0,
        "channel": 2,
        "type": "channel",
        "noteNumber": 65,
        "velocity": 0,
        "subtype": "noteOff"
      },
      {
        "deltaTime": 0,
        "channel": 2,
        "type": "channel",
        "noteNumber": 58,
        "velocity": 0,
        "subtype": "noteOff"
      },
      {
        "deltaTime": 0,
        "channel": 2,
        "type": "channel",
        "noteNumber": 53,
        "velocity": 0,
        "subtype": "noteOff"
      },
      {
        "deltaTime": 0,
        "channel": 2,
        "type": "channel",
        "noteNumber": 65,
        "velocity": 127,
        "subtype": "noteOn"
      },
      {
        "deltaTime": 0,
        "channel": 2,
        "type": "channel",
        "noteNumber": 58,
        "velocity": 127,
        "subtype": "noteOn"
      },
      {
        "deltaTime": 0,
        "channel": 2,
        "type": "channel",
        "noteNumber": 53,
        "velocity": 127,
        "subtype": "noteOn"
      },
      {
        "deltaTime": 0,
        "channel": 2,
        "type": "channel",
        "noteNumber": 46,
        "velocity": 127,
        "subtype": "noteOn"
      },
      {
        "deltaTime": 480,
        "channel": 2,
        "type": "channel",
        "noteNumber": 46,
        "velocity": 0,
        "subtype": "noteOff"
      },
      {
        "deltaTime": 0,
        "channel": 2,
        "type": "channel",
        "noteNumber": 65,
        "velocity": 0,
        "subtype": "noteOff"
      },
      {
        "deltaTime": 0,
        "channel": 2,
        "type": "channel",
        "noteNumber": 58,
        "velocity": 0,
        "subtype": "noteOff"
      },
      {
        "deltaTime": 0,
        "channel": 2,
        "type": "channel",
        "noteNumber": 53,
        "velocity": 0,
        "subtype": "noteOff"
      },
      {
        "deltaTime": 0,
        "channel": 2,
        "type": "channel",
        "noteNumber": 55,
        "velocity": 127,
        "subtype": "noteOn"
      },
      {
        "deltaTime": 0,
        "channel": 2,
        "type": "channel",
        "noteNumber": 48,
        "velocity": 127,
        "subtype": "noteOn"
      },
      {
        "deltaTime": 480,
        "channel": 2,
        "type": "channel",
        "noteNumber": 48,
        "velocity": 0,
        "subtype": "noteOff"
      },
      {
        "deltaTime": 0,
        "channel": 2,
        "type": "channel",
        "noteNumber": 55,
        "velocity": 0,
        "subtype": "noteOff"
      },
      {
        "deltaTime": 0,
        "channel": 2,
        "type": "channel",
        "noteNumber": 55,
        "velocity": 127,
        "subtype": "noteOn"
      },
      {
        "deltaTime": 0,
        "channel": 2,
        "type": "channel",
        "noteNumber": 48,
        "velocity": 127,
        "subtype": "noteOn"
      },
      {
        "deltaTime": 480,
        "channel": 2,
        "type": "channel",
        "noteNumber": 48,
        "velocity": 0,
        "subtype": "noteOff"
      },
      {
        "deltaTime": 0,
        "channel": 2,
        "type": "channel",
        "noteNumber": 55,
        "velocity": 0,
        "subtype": "noteOff"
      },
      {
        "deltaTime": 0,
        "channel": 2,
        "type": "channel",
        "noteNumber": 55,
        "velocity": 127,
        "subtype": "noteOn"
      },
      {
        "deltaTime": 0,
        "channel": 2,
        "type": "channel",
        "noteNumber": 48,
        "velocity": 127,
        "subtype": "noteOn"
      },
      {
        "deltaTime": 480,
        "channel": 2,
        "type": "channel",
        "noteNumber": 48,
        "velocity": 0,
        "subtype": "noteOff"
      },
      {
        "deltaTime": 0,
        "channel": 2,
        "type": "channel",
        "noteNumber": 55,
        "velocity": 0,
        "subtype": "noteOff"
      },
      {
        "deltaTime": 0,
        "channel": 2,
        "type": "channel",
        "noteNumber": 55,
        "velocity": 127,
        "subtype": "noteOn"
      },
      {
        "deltaTime": 0,
        "channel": 2,
        "type": "channel",
        "noteNumber": 48,
        "velocity": 127,
        "subtype": "noteOn"
      },
      {
        "deltaTime": 480,
        "channel": 2,
        "type": "channel",
        "noteNumber": 48,
        "velocity": 0,
        "subtype": "noteOff"
      },
      {
        "deltaTime": 0,
        "channel": 2,
        "type": "channel",
        "noteNumber": 55,
        "velocity": 0,
        "subtype": "noteOff"
      },
      {
        "deltaTime": 0,
        "channel": 2,
        "type": "channel",
        "noteNumber": 55,
        "velocity": 127,
        "subtype": "noteOn"
      },
      {
        "deltaTime": 0,
        "channel": 2,
        "type": "channel",
        "noteNumber": 48,
        "velocity": 127,
        "subtype": "noteOn"
      },
      {
        "deltaTime": 480,
        "channel": 2,
        "type": "channel",
        "noteNumber": 48,
        "velocity": 0,
        "subtype": "noteOff"
      },
      {
        "deltaTime": 0,
        "channel": 2,
        "type": "channel",
        "noteNumber": 55,
        "velocity": 0,
        "subtype": "noteOff"
      },
      {
        "deltaTime": 0,
        "channel": 2,
        "type": "channel",
        "noteNumber": 55,
        "velocity": 127,
        "subtype": "noteOn"
      },
      {
        "deltaTime": 0,
        "channel": 2,
        "type": "channel",
        "noteNumber": 48,
        "velocity": 127,
        "subtype": "noteOn"
      },
      {
        "deltaTime": 480,
        "channel": 2,
        "type": "channel",
        "noteNumber": 48,
        "velocity": 0,
        "subtype": "noteOff"
      },
      {
        "deltaTime": 0,
        "channel": 2,
        "type": "channel",
        "noteNumber": 55,
        "velocity": 0,
        "subtype": "noteOff"
      },
      {
        "deltaTime": 0,
        "channel": 2,
        "type": "channel",
        "noteNumber": 55,
        "velocity": 127,
        "subtype": "noteOn"
      },
      {
        "deltaTime": 0,
        "channel": 2,
        "type": "channel",
        "noteNumber": 48,
        "velocity": 127,
        "subtype": "noteOn"
      },
      {
        "deltaTime": 480,
        "channel": 2,
        "type": "channel",
        "noteNumber": 48,
        "velocity": 0,
        "subtype": "noteOff"
      },
      {
        "deltaTime": 0,
        "channel": 2,
        "type": "channel",
        "noteNumber": 55,
        "velocity": 0,
        "subtype": "noteOff"
      },
      {
        "deltaTime": 0,
        "channel": 2,
        "type": "channel",
        "noteNumber": 55,
        "velocity": 127,
        "subtype": "noteOn"
      },
      {
        "deltaTime": 0,
        "channel": 2,
        "type": "channel",
        "noteNumber": 48,
        "velocity": 127,
        "subtype": "noteOn"
      },
      {
        "deltaTime": 480,
        "channel": 2,
        "type": "channel",
        "noteNumber": 48,
        "velocity": 0,
        "subtype": "noteOff"
      },
      {
        "deltaTime": 0,
        "channel": 2,
        "type": "channel",
        "noteNumber": 55,
        "velocity": 0,
        "subtype": "noteOff"
      },
      {
        "deltaTime": 0,
        "channel": 2,
        "type": "channel",
        "noteNumber": 65,
        "velocity": 127,
        "subtype": "noteOn"
      },
      {
        "deltaTime": 0,
        "channel": 2,
        "type": "channel",
        "noteNumber": 58,
        "velocity": 127,
        "subtype": "noteOn"
      },
      {
        "deltaTime": 0,
        "channel": 2,
        "type": "channel",
        "noteNumber": 53,
        "velocity": 127,
        "subtype": "noteOn"
      },
      {
        "deltaTime": 0,
        "channel": 2,
        "type": "channel",
        "noteNumber": 46,
        "velocity": 127,
        "subtype": "noteOn"
      },
      {
        "deltaTime": 480,
        "channel": 2,
        "type": "channel",
        "noteNumber": 46,
        "velocity": 0,
        "subtype": "noteOff"
      },
      {
        "deltaTime": 0,
        "channel": 2,
        "type": "channel",
        "noteNumber": 65,
        "velocity": 0,
        "subtype": "noteOff"
      },
      {
        "deltaTime": 0,
        "channel": 2,
        "type": "channel",
        "noteNumber": 58,
        "velocity": 0,
        "subtype": "noteOff"
      },
      {
        "deltaTime": 0,
        "channel": 2,
        "type": "channel",
        "noteNumber": 53,
        "velocity": 0,
        "subtype": "noteOff"
      },
      {
        "deltaTime": 0,
        "channel": 2,
        "type": "channel",
        "noteNumber": 65,
        "velocity": 127,
        "subtype": "noteOn"
      },
      {
        "deltaTime": 0,
        "channel": 2,
        "type": "channel",
        "noteNumber": 58,
        "velocity": 127,
        "subtype": "noteOn"
      },
      {
        "deltaTime": 0,
        "channel": 2,
        "type": "channel",
        "noteNumber": 53,
        "velocity": 127,
        "subtype": "noteOn"
      },
      {
        "deltaTime": 0,
        "channel": 2,
        "type": "channel",
        "noteNumber": 46,
        "velocity": 127,
        "subtype": "noteOn"
      },
      {
        "deltaTime": 480,
        "channel": 2,
        "type": "channel",
        "noteNumber": 46,
        "velocity": 0,
        "subtype": "noteOff"
      },
      {
        "deltaTime": 0,
        "channel": 2,
        "type": "channel",
        "noteNumber": 65,
        "velocity": 0,
        "subtype": "noteOff"
      },
      {
        "deltaTime": 0,
        "channel": 2,
        "type": "channel",
        "noteNumber": 58,
        "velocity": 0,
        "subtype": "noteOff"
      },
      {
        "deltaTime": 0,
        "channel": 2,
        "type": "channel",
        "noteNumber": 53,
        "velocity": 0,
        "subtype": "noteOff"
      },
      {
        "deltaTime": 0,
        "channel": 2,
        "type": "channel",
        "noteNumber": 65,
        "velocity": 127,
        "subtype": "noteOn"
      },
      {
        "deltaTime": 0,
        "channel": 2,
        "type": "channel",
        "noteNumber": 58,
        "velocity": 127,
        "subtype": "noteOn"
      },
      {
        "deltaTime": 0,
        "channel": 2,
        "type": "channel",
        "noteNumber": 53,
        "velocity": 127,
        "subtype": "noteOn"
      },
      {
        "deltaTime": 0,
        "channel": 2,
        "type": "channel",
        "noteNumber": 46,
        "velocity": 127,
        "subtype": "noteOn"
      },
      {
        "deltaTime": 480,
        "channel": 2,
        "type": "channel",
        "noteNumber": 46,
        "velocity": 0,
        "subtype": "noteOff"
      },
      {
        "deltaTime": 0,
        "channel": 2,
        "type": "channel",
        "noteNumber": 65,
        "velocity": 0,
        "subtype": "noteOff"
      },
      {
        "deltaTime": 0,
        "channel": 2,
        "type": "channel",
        "noteNumber": 58,
        "velocity": 0,
        "subtype": "noteOff"
      },
      {
        "deltaTime": 0,
        "channel": 2,
        "type": "channel",
        "noteNumber": 53,
        "velocity": 0,
        "subtype": "noteOff"
      },
      {
        "deltaTime": 0,
        "channel": 2,
        "type": "channel",
        "noteNumber": 65,
        "velocity": 127,
        "subtype": "noteOn"
      },
      {
        "deltaTime": 0,
        "channel": 2,
        "type": "channel",
        "noteNumber": 58,
        "velocity": 127,
        "subtype": "noteOn"
      },
      {
        "deltaTime": 0,
        "channel": 2,
        "type": "channel",
        "noteNumber": 53,
        "velocity": 127,
        "subtype": "noteOn"
      },
      {
        "deltaTime": 0,
        "channel": 2,
        "type": "channel",
        "noteNumber": 46,
        "velocity": 127,
        "subtype": "noteOn"
      },
      {
        "deltaTime": 480,
        "channel": 2,
        "type": "channel",
        "noteNumber": 46,
        "velocity": 0,
        "subtype": "noteOff"
      },
      {
        "deltaTime": 0,
        "channel": 2,
        "type": "channel",
        "noteNumber": 65,
        "velocity": 0,
        "subtype": "noteOff"
      },
      {
        "deltaTime": 0,
        "channel": 2,
        "type": "channel",
        "noteNumber": 58,
        "velocity": 0,
        "subtype": "noteOff"
      },
      {
        "deltaTime": 0,
        "channel": 2,
        "type": "channel",
        "noteNumber": 53,
        "velocity": 0,
        "subtype": "noteOff"
      },
      {
        "deltaTime": 0,
        "channel": 2,
        "type": "channel",
        "noteNumber": 65,
        "velocity": 127,
        "subtype": "noteOn"
      },
      {
        "deltaTime": 0,
        "channel": 2,
        "type": "channel",
        "noteNumber": 58,
        "velocity": 127,
        "subtype": "noteOn"
      },
      {
        "deltaTime": 0,
        "channel": 2,
        "type": "channel",
        "noteNumber": 53,
        "velocity": 127,
        "subtype": "noteOn"
      },
      {
        "deltaTime": 0,
        "channel": 2,
        "type": "channel",
        "noteNumber": 46,
        "velocity": 127,
        "subtype": "noteOn"
      },
      {
        "deltaTime": 480,
        "channel": 2,
        "type": "channel",
        "noteNumber": 46,
        "velocity": 0,
        "subtype": "noteOff"
      },
      {
        "deltaTime": 0,
        "channel": 2,
        "type": "channel",
        "noteNumber": 65,
        "velocity": 0,
        "subtype": "noteOff"
      },
      {
        "deltaTime": 0,
        "channel": 2,
        "type": "channel",
        "noteNumber": 58,
        "velocity": 0,
        "subtype": "noteOff"
      },
      {
        "deltaTime": 0,
        "channel": 2,
        "type": "channel",
        "noteNumber": 53,
        "velocity": 0,
        "subtype": "noteOff"
      },
      {
        "deltaTime": 0,
        "channel": 2,
        "type": "channel",
        "noteNumber": 65,
        "velocity": 127,
        "subtype": "noteOn"
      },
      {
        "deltaTime": 0,
        "channel": 2,
        "type": "channel",
        "noteNumber": 58,
        "velocity": 127,
        "subtype": "noteOn"
      },
      {
        "deltaTime": 0,
        "channel": 2,
        "type": "channel",
        "noteNumber": 53,
        "velocity": 127,
        "subtype": "noteOn"
      },
      {
        "deltaTime": 0,
        "channel": 2,
        "type": "channel",
        "noteNumber": 46,
        "velocity": 127,
        "subtype": "noteOn"
      },
      {
        "deltaTime": 480,
        "channel": 2,
        "type": "channel",
        "noteNumber": 46,
        "velocity": 0,
        "subtype": "noteOff"
      },
      {
        "deltaTime": 0,
        "channel": 2,
        "type": "channel",
        "noteNumber": 65,
        "velocity": 0,
        "subtype": "noteOff"
      },
      {
        "deltaTime": 0,
        "channel": 2,
        "type": "channel",
        "noteNumber": 58,
        "velocity": 0,
        "subtype": "noteOff"
      },
      {
        "deltaTime": 0,
        "channel": 2,
        "type": "channel",
        "noteNumber": 53,
        "velocity": 0,
        "subtype": "noteOff"
      },
      {
        "deltaTime": 0,
        "channel": 2,
        "type": "channel",
        "noteNumber": 65,
        "velocity": 127,
        "subtype": "noteOn"
      },
      {
        "deltaTime": 0,
        "channel": 2,
        "type": "channel",
        "noteNumber": 58,
        "velocity": 127,
        "subtype": "noteOn"
      },
      {
        "deltaTime": 0,
        "channel": 2,
        "type": "channel",
        "noteNumber": 53,
        "velocity": 127,
        "subtype": "noteOn"
      },
      {
        "deltaTime": 0,
        "channel": 2,
        "type": "channel",
        "noteNumber": 46,
        "velocity": 127,
        "subtype": "noteOn"
      },
      {
        "deltaTime": 480,
        "channel": 2,
        "type": "channel",
        "noteNumber": 46,
        "velocity": 0,
        "subtype": "noteOff"
      },
      {
        "deltaTime": 0,
        "channel": 2,
        "type": "channel",
        "noteNumber": 65,
        "velocity": 0,
        "subtype": "noteOff"
      },
      {
        "deltaTime": 0,
        "channel": 2,
        "type": "channel",
        "noteNumber": 58,
        "velocity": 0,
        "subtype": "noteOff"
      },
      {
        "deltaTime": 0,
        "channel": 2,
        "type": "channel",
        "noteNumber": 53,
        "velocity": 0,
        "subtype": "noteOff"
      },
      {
        "deltaTime": 0,
        "channel": 2,
        "type": "channel",
        "noteNumber": 65,
        "velocity": 127,
        "subtype": "noteOn"
      },
      {
        "deltaTime": 0,
        "channel": 2,
        "type": "channel",
        "noteNumber": 58,
        "velocity": 127,
        "subtype": "noteOn"
      },
      {
        "deltaTime": 0,
        "channel": 2,
        "type": "channel",
        "noteNumber": 53,
        "velocity": 127,
        "subtype": "noteOn"
      },
      {
        "deltaTime": 0,
        "channel": 2,
        "type": "channel",
        "noteNumber": 46,
        "velocity": 127,
        "subtype": "noteOn"
      },
      {
        "deltaTime": 480,
        "channel": 2,
        "type": "channel",
        "noteNumber": 46,
        "velocity": 0,
        "subtype": "noteOff"
      },
      {
        "deltaTime": 0,
        "channel": 2,
        "type": "channel",
        "noteNumber": 65,
        "velocity": 0,
        "subtype": "noteOff"
      },
      {
        "deltaTime": 0,
        "channel": 2,
        "type": "channel",
        "noteNumber": 58,
        "velocity": 0,
        "subtype": "noteOff"
      },
      {
        "deltaTime": 0,
        "channel": 2,
        "type": "channel",
        "noteNumber": 53,
        "velocity": 0,
        "subtype": "noteOff"
      },
      {
        "deltaTime": 0,
        "channel": 2,
        "type": "channel",
        "noteNumber": 63,
        "velocity": 127,
        "subtype": "noteOn"
      },
      {
        "deltaTime": 0,
        "channel": 2,
        "type": "channel",
        "noteNumber": 56,
        "velocity": 127,
        "subtype": "noteOn"
      },
      {
        "deltaTime": 0,
        "channel": 2,
        "type": "channel",
        "noteNumber": 51,
        "velocity": 127,
        "subtype": "noteOn"
      },
      {
        "deltaTime": 0,
        "channel": 2,
        "type": "channel",
        "noteNumber": 44,
        "velocity": 127,
        "subtype": "noteOn"
      },
      {
        "deltaTime": 480,
        "channel": 2,
        "type": "channel",
        "noteNumber": 44,
        "velocity": 0,
        "subtype": "noteOff"
      },
      {
        "deltaTime": 0,
        "channel": 2,
        "type": "channel",
        "noteNumber": 63,
        "velocity": 0,
        "subtype": "noteOff"
      },
      {
        "deltaTime": 0,
        "channel": 2,
        "type": "channel",
        "noteNumber": 56,
        "velocity": 0,
        "subtype": "noteOff"
      },
      {
        "deltaTime": 0,
        "channel": 2,
        "type": "channel",
        "noteNumber": 51,
        "velocity": 0,
        "subtype": "noteOff"
      },
      {
        "deltaTime": 0,
        "channel": 2,
        "type": "channel",
        "noteNumber": 63,
        "velocity": 127,
        "subtype": "noteOn"
      },
      {
        "deltaTime": 0,
        "channel": 2,
        "type": "channel",
        "noteNumber": 56,
        "velocity": 127,
        "subtype": "noteOn"
      },
      {
        "deltaTime": 0,
        "channel": 2,
        "type": "channel",
        "noteNumber": 51,
        "velocity": 127,
        "subtype": "noteOn"
      },
      {
        "deltaTime": 0,
        "channel": 2,
        "type": "channel",
        "noteNumber": 44,
        "velocity": 127,
        "subtype": "noteOn"
      },
      {
        "deltaTime": 480,
        "channel": 2,
        "type": "channel",
        "noteNumber": 44,
        "velocity": 0,
        "subtype": "noteOff"
      },
      {
        "deltaTime": 0,
        "channel": 2,
        "type": "channel",
        "noteNumber": 63,
        "velocity": 0,
        "subtype": "noteOff"
      },
      {
        "deltaTime": 0,
        "channel": 2,
        "type": "channel",
        "noteNumber": 56,
        "velocity": 0,
        "subtype": "noteOff"
      },
      {
        "deltaTime": 0,
        "channel": 2,
        "type": "channel",
        "noteNumber": 51,
        "velocity": 0,
        "subtype": "noteOff"
      },
      {
        "deltaTime": 0,
        "channel": 2,
        "type": "channel",
        "noteNumber": 63,
        "velocity": 127,
        "subtype": "noteOn"
      },
      {
        "deltaTime": 0,
        "channel": 2,
        "type": "channel",
        "noteNumber": 56,
        "velocity": 127,
        "subtype": "noteOn"
      },
      {
        "deltaTime": 0,
        "channel": 2,
        "type": "channel",
        "noteNumber": 51,
        "velocity": 127,
        "subtype": "noteOn"
      },
      {
        "deltaTime": 0,
        "channel": 2,
        "type": "channel",
        "noteNumber": 44,
        "velocity": 127,
        "subtype": "noteOn"
      },
      {
        "deltaTime": 480,
        "channel": 2,
        "type": "channel",
        "noteNumber": 44,
        "velocity": 0,
        "subtype": "noteOff"
      },
      {
        "deltaTime": 0,
        "channel": 2,
        "type": "channel",
        "noteNumber": 63,
        "velocity": 0,
        "subtype": "noteOff"
      },
      {
        "deltaTime": 0,
        "channel": 2,
        "type": "channel",
        "noteNumber": 56,
        "velocity": 0,
        "subtype": "noteOff"
      },
      {
        "deltaTime": 0,
        "channel": 2,
        "type": "channel",
        "noteNumber": 51,
        "velocity": 0,
        "subtype": "noteOff"
      },
      {
        "deltaTime": 0,
        "channel": 2,
        "type": "channel",
        "noteNumber": 63,
        "velocity": 127,
        "subtype": "noteOn"
      },
      {
        "deltaTime": 0,
        "channel": 2,
        "type": "channel",
        "noteNumber": 56,
        "velocity": 127,
        "subtype": "noteOn"
      },
      {
        "deltaTime": 0,
        "channel": 2,
        "type": "channel",
        "noteNumber": 51,
        "velocity": 127,
        "subtype": "noteOn"
      },
      {
        "deltaTime": 0,
        "channel": 2,
        "type": "channel",
        "noteNumber": 44,
        "velocity": 127,
        "subtype": "noteOn"
      },
      {
        "deltaTime": 480,
        "channel": 2,
        "type": "channel",
        "noteNumber": 44,
        "velocity": 0,
        "subtype": "noteOff"
      },
      {
        "deltaTime": 0,
        "channel": 2,
        "type": "channel",
        "noteNumber": 63,
        "velocity": 0,
        "subtype": "noteOff"
      },
      {
        "deltaTime": 0,
        "channel": 2,
        "type": "channel",
        "noteNumber": 56,
        "velocity": 0,
        "subtype": "noteOff"
      },
      {
        "deltaTime": 0,
        "channel": 2,
        "type": "channel",
        "noteNumber": 51,
        "velocity": 0,
        "subtype": "noteOff"
      },
      {
        "deltaTime": 0,
        "channel": 2,
        "type": "channel",
        "noteNumber": 63,
        "velocity": 127,
        "subtype": "noteOn"
      },
      {
        "deltaTime": 0,
        "channel": 2,
        "type": "channel",
        "noteNumber": 56,
        "velocity": 127,
        "subtype": "noteOn"
      },
      {
        "deltaTime": 0,
        "channel": 2,
        "type": "channel",
        "noteNumber": 51,
        "velocity": 127,
        "subtype": "noteOn"
      },
      {
        "deltaTime": 0,
        "channel": 2,
        "type": "channel",
        "noteNumber": 44,
        "velocity": 127,
        "subtype": "noteOn"
      },
      {
        "deltaTime": 480,
        "channel": 2,
        "type": "channel",
        "noteNumber": 44,
        "velocity": 0,
        "subtype": "noteOff"
      },
      {
        "deltaTime": 0,
        "channel": 2,
        "type": "channel",
        "noteNumber": 63,
        "velocity": 0,
        "subtype": "noteOff"
      },
      {
        "deltaTime": 0,
        "channel": 2,
        "type": "channel",
        "noteNumber": 56,
        "velocity": 0,
        "subtype": "noteOff"
      },
      {
        "deltaTime": 0,
        "channel": 2,
        "type": "channel",
        "noteNumber": 51,
        "velocity": 0,
        "subtype": "noteOff"
      },
      {
        "deltaTime": 0,
        "channel": 2,
        "type": "channel",
        "noteNumber": 63,
        "velocity": 127,
        "subtype": "noteOn"
      },
      {
        "deltaTime": 0,
        "channel": 2,
        "type": "channel",
        "noteNumber": 56,
        "velocity": 127,
        "subtype": "noteOn"
      },
      {
        "deltaTime": 0,
        "channel": 2,
        "type": "channel",
        "noteNumber": 51,
        "velocity": 127,
        "subtype": "noteOn"
      },
      {
        "deltaTime": 0,
        "channel": 2,
        "type": "channel",
        "noteNumber": 44,
        "velocity": 127,
        "subtype": "noteOn"
      },
      {
        "deltaTime": 480,
        "channel": 2,
        "type": "channel",
        "noteNumber": 44,
        "velocity": 0,
        "subtype": "noteOff"
      },
      {
        "deltaTime": 0,
        "channel": 2,
        "type": "channel",
        "noteNumber": 63,
        "velocity": 0,
        "subtype": "noteOff"
      },
      {
        "deltaTime": 0,
        "channel": 2,
        "type": "channel",
        "noteNumber": 56,
        "velocity": 0,
        "subtype": "noteOff"
      },
      {
        "deltaTime": 0,
        "channel": 2,
        "type": "channel",
        "noteNumber": 51,
        "velocity": 0,
        "subtype": "noteOff"
      },
      {
        "deltaTime": 0,
        "channel": 2,
        "type": "channel",
        "noteNumber": 63,
        "velocity": 127,
        "subtype": "noteOn"
      },
      {
        "deltaTime": 0,
        "channel": 2,
        "type": "channel",
        "noteNumber": 56,
        "velocity": 127,
        "subtype": "noteOn"
      },
      {
        "deltaTime": 0,
        "channel": 2,
        "type": "channel",
        "noteNumber": 51,
        "velocity": 127,
        "subtype": "noteOn"
      },
      {
        "deltaTime": 0,
        "channel": 2,
        "type": "channel",
        "noteNumber": 44,
        "velocity": 127,
        "subtype": "noteOn"
      },
      {
        "deltaTime": 480,
        "channel": 2,
        "type": "channel",
        "noteNumber": 44,
        "velocity": 0,
        "subtype": "noteOff"
      },
      {
        "deltaTime": 0,
        "channel": 2,
        "type": "channel",
        "noteNumber": 63,
        "velocity": 0,
        "subtype": "noteOff"
      },
      {
        "deltaTime": 0,
        "channel": 2,
        "type": "channel",
        "noteNumber": 56,
        "velocity": 0,
        "subtype": "noteOff"
      },
      {
        "deltaTime": 0,
        "channel": 2,
        "type": "channel",
        "noteNumber": 51,
        "velocity": 0,
        "subtype": "noteOff"
      },
      {
        "deltaTime": 0,
        "channel": 2,
        "type": "channel",
        "noteNumber": 63,
        "velocity": 127,
        "subtype": "noteOn"
      },
      {
        "deltaTime": 0,
        "channel": 2,
        "type": "channel",
        "noteNumber": 56,
        "velocity": 127,
        "subtype": "noteOn"
      },
      {
        "deltaTime": 0,
        "channel": 2,
        "type": "channel",
        "noteNumber": 51,
        "velocity": 127,
        "subtype": "noteOn"
      },
      {
        "deltaTime": 0,
        "channel": 2,
        "type": "channel",
        "noteNumber": 44,
        "velocity": 127,
        "subtype": "noteOn"
      },
      {
        "deltaTime": 480,
        "channel": 2,
        "type": "channel",
        "noteNumber": 44,
        "velocity": 0,
        "subtype": "noteOff"
      },
      {
        "deltaTime": 0,
        "channel": 2,
        "type": "channel",
        "noteNumber": 63,
        "velocity": 0,
        "subtype": "noteOff"
      },
      {
        "deltaTime": 0,
        "channel": 2,
        "type": "channel",
        "noteNumber": 56,
        "velocity": 0,
        "subtype": "noteOff"
      },
      {
        "deltaTime": 0,
        "channel": 2,
        "type": "channel",
        "noteNumber": 51,
        "velocity": 0,
        "subtype": "noteOff"
      },
      {
        "deltaTime": 0,
        "channel": 2,
        "type": "channel",
        "noteNumber": 58,
        "velocity": 127,
        "subtype": "noteOn"
      },
      {
        "deltaTime": 0,
        "channel": 2,
        "type": "channel",
        "noteNumber": 51,
        "velocity": 127,
        "subtype": "noteOn"
      },
      {
        "deltaTime": 0,
        "channel": 2,
        "type": "channel",
        "noteNumber": 46,
        "velocity": 127,
        "subtype": "noteOn"
      },
      {
        "deltaTime": 0,
        "channel": 2,
        "type": "channel",
        "noteNumber": 39,
        "velocity": 127,
        "subtype": "noteOn"
      },
      {
        "deltaTime": 480,
        "channel": 2,
        "type": "channel",
        "noteNumber": 39,
        "velocity": 0,
        "subtype": "noteOff"
      },
      {
        "deltaTime": 0,
        "channel": 2,
        "type": "channel",
        "noteNumber": 58,
        "velocity": 0,
        "subtype": "noteOff"
      },
      {
        "deltaTime": 0,
        "channel": 2,
        "type": "channel",
        "noteNumber": 51,
        "velocity": 0,
        "subtype": "noteOff"
      },
      {
        "deltaTime": 0,
        "channel": 2,
        "type": "channel",
        "noteNumber": 46,
        "velocity": 0,
        "subtype": "noteOff"
      },
      {
        "deltaTime": 0,
        "channel": 2,
        "type": "channel",
        "noteNumber": 58,
        "velocity": 127,
        "subtype": "noteOn"
      },
      {
        "deltaTime": 0,
        "channel": 2,
        "type": "channel",
        "noteNumber": 51,
        "velocity": 127,
        "subtype": "noteOn"
      },
      {
        "deltaTime": 0,
        "channel": 2,
        "type": "channel",
        "noteNumber": 46,
        "velocity": 127,
        "subtype": "noteOn"
      },
      {
        "deltaTime": 0,
        "channel": 2,
        "type": "channel",
        "noteNumber": 39,
        "velocity": 127,
        "subtype": "noteOn"
      },
      {
        "deltaTime": 480,
        "channel": 2,
        "type": "channel",
        "noteNumber": 39,
        "velocity": 0,
        "subtype": "noteOff"
      },
      {
        "deltaTime": 0,
        "channel": 2,
        "type": "channel",
        "noteNumber": 58,
        "velocity": 0,
        "subtype": "noteOff"
      },
      {
        "deltaTime": 0,
        "channel": 2,
        "type": "channel",
        "noteNumber": 51,
        "velocity": 0,
        "subtype": "noteOff"
      },
      {
        "deltaTime": 0,
        "channel": 2,
        "type": "channel",
        "noteNumber": 46,
        "velocity": 0,
        "subtype": "noteOff"
      },
      {
        "deltaTime": 0,
        "channel": 2,
        "type": "channel",
        "noteNumber": 58,
        "velocity": 127,
        "subtype": "noteOn"
      },
      {
        "deltaTime": 0,
        "channel": 2,
        "type": "channel",
        "noteNumber": 51,
        "velocity": 127,
        "subtype": "noteOn"
      },
      {
        "deltaTime": 0,
        "channel": 2,
        "type": "channel",
        "noteNumber": 46,
        "velocity": 127,
        "subtype": "noteOn"
      },
      {
        "deltaTime": 0,
        "channel": 2,
        "type": "channel",
        "noteNumber": 39,
        "velocity": 127,
        "subtype": "noteOn"
      },
      {
        "deltaTime": 480,
        "channel": 2,
        "type": "channel",
        "noteNumber": 39,
        "velocity": 0,
        "subtype": "noteOff"
      },
      {
        "deltaTime": 0,
        "channel": 2,
        "type": "channel",
        "noteNumber": 58,
        "velocity": 0,
        "subtype": "noteOff"
      },
      {
        "deltaTime": 0,
        "channel": 2,
        "type": "channel",
        "noteNumber": 51,
        "velocity": 0,
        "subtype": "noteOff"
      },
      {
        "deltaTime": 0,
        "channel": 2,
        "type": "channel",
        "noteNumber": 46,
        "velocity": 0,
        "subtype": "noteOff"
      },
      {
        "deltaTime": 0,
        "channel": 2,
        "type": "channel",
        "noteNumber": 58,
        "velocity": 127,
        "subtype": "noteOn"
      },
      {
        "deltaTime": 0,
        "channel": 2,
        "type": "channel",
        "noteNumber": 51,
        "velocity": 127,
        "subtype": "noteOn"
      },
      {
        "deltaTime": 0,
        "channel": 2,
        "type": "channel",
        "noteNumber": 46,
        "velocity": 127,
        "subtype": "noteOn"
      },
      {
        "deltaTime": 0,
        "channel": 2,
        "type": "channel",
        "noteNumber": 39,
        "velocity": 127,
        "subtype": "noteOn"
      },
      {
        "deltaTime": 480,
        "channel": 2,
        "type": "channel",
        "noteNumber": 39,
        "velocity": 0,
        "subtype": "noteOff"
      },
      {
        "deltaTime": 0,
        "channel": 2,
        "type": "channel",
        "noteNumber": 58,
        "velocity": 0,
        "subtype": "noteOff"
      },
      {
        "deltaTime": 0,
        "channel": 2,
        "type": "channel",
        "noteNumber": 51,
        "velocity": 0,
        "subtype": "noteOff"
      },
      {
        "deltaTime": 0,
        "channel": 2,
        "type": "channel",
        "noteNumber": 46,
        "velocity": 0,
        "subtype": "noteOff"
      },
      {
        "deltaTime": 0,
        "channel": 2,
        "type": "channel",
        "noteNumber": 58,
        "velocity": 127,
        "subtype": "noteOn"
      },
      {
        "deltaTime": 0,
        "channel": 2,
        "type": "channel",
        "noteNumber": 51,
        "velocity": 127,
        "subtype": "noteOn"
      },
      {
        "deltaTime": 0,
        "channel": 2,
        "type": "channel",
        "noteNumber": 46,
        "velocity": 127,
        "subtype": "noteOn"
      },
      {
        "deltaTime": 0,
        "channel": 2,
        "type": "channel",
        "noteNumber": 39,
        "velocity": 127,
        "subtype": "noteOn"
      },
      {
        "deltaTime": 480,
        "channel": 2,
        "type": "channel",
        "noteNumber": 39,
        "velocity": 0,
        "subtype": "noteOff"
      },
      {
        "deltaTime": 0,
        "channel": 2,
        "type": "channel",
        "noteNumber": 58,
        "velocity": 0,
        "subtype": "noteOff"
      },
      {
        "deltaTime": 0,
        "channel": 2,
        "type": "channel",
        "noteNumber": 51,
        "velocity": 0,
        "subtype": "noteOff"
      },
      {
        "deltaTime": 0,
        "channel": 2,
        "type": "channel",
        "noteNumber": 46,
        "velocity": 0,
        "subtype": "noteOff"
      },
      {
        "deltaTime": 0,
        "channel": 2,
        "type": "channel",
        "noteNumber": 58,
        "velocity": 127,
        "subtype": "noteOn"
      },
      {
        "deltaTime": 0,
        "channel": 2,
        "type": "channel",
        "noteNumber": 51,
        "velocity": 127,
        "subtype": "noteOn"
      },
      {
        "deltaTime": 0,
        "channel": 2,
        "type": "channel",
        "noteNumber": 46,
        "velocity": 127,
        "subtype": "noteOn"
      },
      {
        "deltaTime": 0,
        "channel": 2,
        "type": "channel",
        "noteNumber": 39,
        "velocity": 127,
        "subtype": "noteOn"
      },
      {
        "deltaTime": 480,
        "channel": 2,
        "type": "channel",
        "noteNumber": 39,
        "velocity": 0,
        "subtype": "noteOff"
      },
      {
        "deltaTime": 0,
        "channel": 2,
        "type": "channel",
        "noteNumber": 58,
        "velocity": 0,
        "subtype": "noteOff"
      },
      {
        "deltaTime": 0,
        "channel": 2,
        "type": "channel",
        "noteNumber": 51,
        "velocity": 0,
        "subtype": "noteOff"
      },
      {
        "deltaTime": 0,
        "channel": 2,
        "type": "channel",
        "noteNumber": 46,
        "velocity": 0,
        "subtype": "noteOff"
      },
      {
        "deltaTime": 0,
        "channel": 2,
        "type": "channel",
        "noteNumber": 58,
        "velocity": 127,
        "subtype": "noteOn"
      },
      {
        "deltaTime": 0,
        "channel": 2,
        "type": "channel",
        "noteNumber": 51,
        "velocity": 127,
        "subtype": "noteOn"
      },
      {
        "deltaTime": 0,
        "channel": 2,
        "type": "channel",
        "noteNumber": 46,
        "velocity": 127,
        "subtype": "noteOn"
      },
      {
        "deltaTime": 0,
        "channel": 2,
        "type": "channel",
        "noteNumber": 39,
        "velocity": 127,
        "subtype": "noteOn"
      },
      {
        "deltaTime": 480,
        "channel": 2,
        "type": "channel",
        "noteNumber": 39,
        "velocity": 0,
        "subtype": "noteOff"
      },
      {
        "deltaTime": 0,
        "channel": 2,
        "type": "channel",
        "noteNumber": 58,
        "velocity": 0,
        "subtype": "noteOff"
      },
      {
        "deltaTime": 0,
        "channel": 2,
        "type": "channel",
        "noteNumber": 51,
        "velocity": 0,
        "subtype": "noteOff"
      },
      {
        "deltaTime": 0,
        "channel": 2,
        "type": "channel",
        "noteNumber": 46,
        "velocity": 0,
        "subtype": "noteOff"
      },
      {
        "deltaTime": 0,
        "channel": 2,
        "type": "channel",
        "noteNumber": 58,
        "velocity": 127,
        "subtype": "noteOn"
      },
      {
        "deltaTime": 0,
        "channel": 2,
        "type": "channel",
        "noteNumber": 51,
        "velocity": 127,
        "subtype": "noteOn"
      },
      {
        "deltaTime": 0,
        "channel": 2,
        "type": "channel",
        "noteNumber": 46,
        "velocity": 127,
        "subtype": "noteOn"
      },
      {
        "deltaTime": 0,
        "channel": 2,
        "type": "channel",
        "noteNumber": 39,
        "velocity": 127,
        "subtype": "noteOn"
      },
      {
        "deltaTime": 480,
        "channel": 2,
        "type": "channel",
        "noteNumber": 39,
        "velocity": 0,
        "subtype": "noteOff"
      },
      {
        "deltaTime": 0,
        "channel": 2,
        "type": "channel",
        "noteNumber": 58,
        "velocity": 0,
        "subtype": "noteOff"
      },
      {
        "deltaTime": 0,
        "channel": 2,
        "type": "channel",
        "noteNumber": 51,
        "velocity": 0,
        "subtype": "noteOff"
      },
      {
        "deltaTime": 0,
        "channel": 2,
        "type": "channel",
        "noteNumber": 46,
        "velocity": 0,
        "subtype": "noteOff"
      },
      {
        "deltaTime": 0,
        "channel": 2,
        "type": "channel",
        "noteNumber": 65,
        "velocity": 127,
        "subtype": "noteOn"
      },
      {
        "deltaTime": 0,
        "channel": 2,
        "type": "channel",
        "noteNumber": 58,
        "velocity": 127,
        "subtype": "noteOn"
      },
      {
        "deltaTime": 0,
        "channel": 2,
        "type": "channel",
        "noteNumber": 53,
        "velocity": 127,
        "subtype": "noteOn"
      },
      {
        "deltaTime": 0,
        "channel": 2,
        "type": "channel",
        "noteNumber": 46,
        "velocity": 127,
        "subtype": "noteOn"
      },
      {
        "deltaTime": 480,
        "channel": 2,
        "type": "channel",
        "noteNumber": 46,
        "velocity": 0,
        "subtype": "noteOff"
      },
      {
        "deltaTime": 0,
        "channel": 2,
        "type": "channel",
        "noteNumber": 65,
        "velocity": 0,
        "subtype": "noteOff"
      },
      {
        "deltaTime": 0,
        "channel": 2,
        "type": "channel",
        "noteNumber": 58,
        "velocity": 0,
        "subtype": "noteOff"
      },
      {
        "deltaTime": 0,
        "channel": 2,
        "type": "channel",
        "noteNumber": 53,
        "velocity": 0,
        "subtype": "noteOff"
      },
      {
        "deltaTime": 0,
        "channel": 2,
        "type": "channel",
        "noteNumber": 65,
        "velocity": 127,
        "subtype": "noteOn"
      },
      {
        "deltaTime": 0,
        "channel": 2,
        "type": "channel",
        "noteNumber": 58,
        "velocity": 127,
        "subtype": "noteOn"
      },
      {
        "deltaTime": 0,
        "channel": 2,
        "type": "channel",
        "noteNumber": 53,
        "velocity": 127,
        "subtype": "noteOn"
      },
      {
        "deltaTime": 0,
        "channel": 2,
        "type": "channel",
        "noteNumber": 46,
        "velocity": 127,
        "subtype": "noteOn"
      },
      {
        "deltaTime": 480,
        "channel": 2,
        "type": "channel",
        "noteNumber": 46,
        "velocity": 0,
        "subtype": "noteOff"
      },
      {
        "deltaTime": 0,
        "channel": 2,
        "type": "channel",
        "noteNumber": 65,
        "velocity": 0,
        "subtype": "noteOff"
      },
      {
        "deltaTime": 0,
        "channel": 2,
        "type": "channel",
        "noteNumber": 58,
        "velocity": 0,
        "subtype": "noteOff"
      },
      {
        "deltaTime": 0,
        "channel": 2,
        "type": "channel",
        "noteNumber": 53,
        "velocity": 0,
        "subtype": "noteOff"
      },
      {
        "deltaTime": 0,
        "channel": 2,
        "type": "channel",
        "noteNumber": 65,
        "velocity": 127,
        "subtype": "noteOn"
      },
      {
        "deltaTime": 0,
        "channel": 2,
        "type": "channel",
        "noteNumber": 58,
        "velocity": 127,
        "subtype": "noteOn"
      },
      {
        "deltaTime": 0,
        "channel": 2,
        "type": "channel",
        "noteNumber": 53,
        "velocity": 127,
        "subtype": "noteOn"
      },
      {
        "deltaTime": 0,
        "channel": 2,
        "type": "channel",
        "noteNumber": 46,
        "velocity": 127,
        "subtype": "noteOn"
      },
      {
        "deltaTime": 480,
        "channel": 2,
        "type": "channel",
        "noteNumber": 46,
        "velocity": 0,
        "subtype": "noteOff"
      },
      {
        "deltaTime": 0,
        "channel": 2,
        "type": "channel",
        "noteNumber": 65,
        "velocity": 0,
        "subtype": "noteOff"
      },
      {
        "deltaTime": 0,
        "channel": 2,
        "type": "channel",
        "noteNumber": 58,
        "velocity": 0,
        "subtype": "noteOff"
      },
      {
        "deltaTime": 0,
        "channel": 2,
        "type": "channel",
        "noteNumber": 53,
        "velocity": 0,
        "subtype": "noteOff"
      },
      {
        "deltaTime": 0,
        "channel": 2,
        "type": "channel",
        "noteNumber": 65,
        "velocity": 127,
        "subtype": "noteOn"
      },
      {
        "deltaTime": 0,
        "channel": 2,
        "type": "channel",
        "noteNumber": 58,
        "velocity": 127,
        "subtype": "noteOn"
      },
      {
        "deltaTime": 0,
        "channel": 2,
        "type": "channel",
        "noteNumber": 53,
        "velocity": 127,
        "subtype": "noteOn"
      },
      {
        "deltaTime": 0,
        "channel": 2,
        "type": "channel",
        "noteNumber": 46,
        "velocity": 127,
        "subtype": "noteOn"
      },
      {
        "deltaTime": 480,
        "channel": 2,
        "type": "channel",
        "noteNumber": 46,
        "velocity": 0,
        "subtype": "noteOff"
      },
      {
        "deltaTime": 0,
        "channel": 2,
        "type": "channel",
        "noteNumber": 65,
        "velocity": 0,
        "subtype": "noteOff"
      },
      {
        "deltaTime": 0,
        "channel": 2,
        "type": "channel",
        "noteNumber": 58,
        "velocity": 0,
        "subtype": "noteOff"
      },
      {
        "deltaTime": 0,
        "channel": 2,
        "type": "channel",
        "noteNumber": 53,
        "velocity": 0,
        "subtype": "noteOff"
      },
      {
        "deltaTime": 0,
        "channel": 2,
        "type": "channel",
        "noteNumber": 65,
        "velocity": 127,
        "subtype": "noteOn"
      },
      {
        "deltaTime": 0,
        "channel": 2,
        "type": "channel",
        "noteNumber": 58,
        "velocity": 127,
        "subtype": "noteOn"
      },
      {
        "deltaTime": 0,
        "channel": 2,
        "type": "channel",
        "noteNumber": 53,
        "velocity": 127,
        "subtype": "noteOn"
      },
      {
        "deltaTime": 0,
        "channel": 2,
        "type": "channel",
        "noteNumber": 46,
        "velocity": 127,
        "subtype": "noteOn"
      },
      {
        "deltaTime": 480,
        "channel": 2,
        "type": "channel",
        "noteNumber": 46,
        "velocity": 0,
        "subtype": "noteOff"
      },
      {
        "deltaTime": 0,
        "channel": 2,
        "type": "channel",
        "noteNumber": 65,
        "velocity": 0,
        "subtype": "noteOff"
      },
      {
        "deltaTime": 0,
        "channel": 2,
        "type": "channel",
        "noteNumber": 58,
        "velocity": 0,
        "subtype": "noteOff"
      },
      {
        "deltaTime": 0,
        "channel": 2,
        "type": "channel",
        "noteNumber": 53,
        "velocity": 0,
        "subtype": "noteOff"
      },
      {
        "deltaTime": 0,
        "channel": 2,
        "type": "channel",
        "noteNumber": 65,
        "velocity": 127,
        "subtype": "noteOn"
      },
      {
        "deltaTime": 0,
        "channel": 2,
        "type": "channel",
        "noteNumber": 58,
        "velocity": 127,
        "subtype": "noteOn"
      },
      {
        "deltaTime": 0,
        "channel": 2,
        "type": "channel",
        "noteNumber": 53,
        "velocity": 127,
        "subtype": "noteOn"
      },
      {
        "deltaTime": 0,
        "channel": 2,
        "type": "channel",
        "noteNumber": 46,
        "velocity": 127,
        "subtype": "noteOn"
      },
      {
        "deltaTime": 480,
        "channel": 2,
        "type": "channel",
        "noteNumber": 46,
        "velocity": 0,
        "subtype": "noteOff"
      },
      {
        "deltaTime": 0,
        "channel": 2,
        "type": "channel",
        "noteNumber": 65,
        "velocity": 0,
        "subtype": "noteOff"
      },
      {
        "deltaTime": 0,
        "channel": 2,
        "type": "channel",
        "noteNumber": 58,
        "velocity": 0,
        "subtype": "noteOff"
      },
      {
        "deltaTime": 0,
        "channel": 2,
        "type": "channel",
        "noteNumber": 53,
        "velocity": 0,
        "subtype": "noteOff"
      },
      {
        "deltaTime": 0,
        "channel": 2,
        "type": "channel",
        "noteNumber": 65,
        "velocity": 127,
        "subtype": "noteOn"
      },
      {
        "deltaTime": 0,
        "channel": 2,
        "type": "channel",
        "noteNumber": 58,
        "velocity": 127,
        "subtype": "noteOn"
      },
      {
        "deltaTime": 0,
        "channel": 2,
        "type": "channel",
        "noteNumber": 53,
        "velocity": 127,
        "subtype": "noteOn"
      },
      {
        "deltaTime": 0,
        "channel": 2,
        "type": "channel",
        "noteNumber": 46,
        "velocity": 127,
        "subtype": "noteOn"
      },
      {
        "deltaTime": 480,
        "channel": 2,
        "type": "channel",
        "noteNumber": 46,
        "velocity": 0,
        "subtype": "noteOff"
      },
      {
        "deltaTime": 0,
        "channel": 2,
        "type": "channel",
        "noteNumber": 65,
        "velocity": 0,
        "subtype": "noteOff"
      },
      {
        "deltaTime": 0,
        "channel": 2,
        "type": "channel",
        "noteNumber": 58,
        "velocity": 0,
        "subtype": "noteOff"
      },
      {
        "deltaTime": 0,
        "channel": 2,
        "type": "channel",
        "noteNumber": 53,
        "velocity": 0,
        "subtype": "noteOff"
      },
      {
        "deltaTime": 0,
        "channel": 2,
        "type": "channel",
        "noteNumber": 65,
        "velocity": 127,
        "subtype": "noteOn"
      },
      {
        "deltaTime": 0,
        "channel": 2,
        "type": "channel",
        "noteNumber": 58,
        "velocity": 127,
        "subtype": "noteOn"
      },
      {
        "deltaTime": 0,
        "channel": 2,
        "type": "channel",
        "noteNumber": 53,
        "velocity": 127,
        "subtype": "noteOn"
      },
      {
        "deltaTime": 0,
        "channel": 2,
        "type": "channel",
        "noteNumber": 46,
        "velocity": 127,
        "subtype": "noteOn"
      },
      {
        "deltaTime": 480,
        "channel": 2,
        "type": "channel",
        "noteNumber": 46,
        "velocity": 0,
        "subtype": "noteOff"
      },
      {
        "deltaTime": 0,
        "channel": 2,
        "type": "channel",
        "noteNumber": 65,
        "velocity": 0,
        "subtype": "noteOff"
      },
      {
        "deltaTime": 0,
        "channel": 2,
        "type": "channel",
        "noteNumber": 58,
        "velocity": 0,
        "subtype": "noteOff"
      },
      {
        "deltaTime": 0,
        "channel": 2,
        "type": "channel",
        "noteNumber": 53,
        "velocity": 0,
        "subtype": "noteOff"
      },
      {
        "deltaTime": 0,
        "channel": 2,
        "type": "channel",
        "noteNumber": 65,
        "velocity": 127,
        "subtype": "noteOn"
      },
      {
        "deltaTime": 0,
        "channel": 2,
        "type": "channel",
        "noteNumber": 58,
        "velocity": 127,
        "subtype": "noteOn"
      },
      {
        "deltaTime": 0,
        "channel": 2,
        "type": "channel",
        "noteNumber": 53,
        "velocity": 127,
        "subtype": "noteOn"
      },
      {
        "deltaTime": 0,
        "channel": 2,
        "type": "channel",
        "noteNumber": 46,
        "velocity": 127,
        "subtype": "noteOn"
      },
      {
        "deltaTime": 480,
        "channel": 2,
        "type": "channel",
        "noteNumber": 46,
        "velocity": 0,
        "subtype": "noteOff"
      },
      {
        "deltaTime": 0,
        "channel": 2,
        "type": "channel",
        "noteNumber": 65,
        "velocity": 0,
        "subtype": "noteOff"
      },
      {
        "deltaTime": 0,
        "channel": 2,
        "type": "channel",
        "noteNumber": 58,
        "velocity": 0,
        "subtype": "noteOff"
      },
      {
        "deltaTime": 0,
        "channel": 2,
        "type": "channel",
        "noteNumber": 53,
        "velocity": 0,
        "subtype": "noteOff"
      },
      {
        "deltaTime": 0,
        "channel": 2,
        "type": "channel",
        "noteNumber": 65,
        "velocity": 127,
        "subtype": "noteOn"
      },
      {
        "deltaTime": 0,
        "channel": 2,
        "type": "channel",
        "noteNumber": 58,
        "velocity": 127,
        "subtype": "noteOn"
      },
      {
        "deltaTime": 0,
        "channel": 2,
        "type": "channel",
        "noteNumber": 53,
        "velocity": 127,
        "subtype": "noteOn"
      },
      {
        "deltaTime": 0,
        "channel": 2,
        "type": "channel",
        "noteNumber": 46,
        "velocity": 127,
        "subtype": "noteOn"
      },
      {
        "deltaTime": 480,
        "channel": 2,
        "type": "channel",
        "noteNumber": 46,
        "velocity": 0,
        "subtype": "noteOff"
      },
      {
        "deltaTime": 0,
        "channel": 2,
        "type": "channel",
        "noteNumber": 65,
        "velocity": 0,
        "subtype": "noteOff"
      },
      {
        "deltaTime": 0,
        "channel": 2,
        "type": "channel",
        "noteNumber": 58,
        "velocity": 0,
        "subtype": "noteOff"
      },
      {
        "deltaTime": 0,
        "channel": 2,
        "type": "channel",
        "noteNumber": 53,
        "velocity": 0,
        "subtype": "noteOff"
      },
      {
        "deltaTime": 0,
        "channel": 2,
        "type": "channel",
        "noteNumber": 65,
        "velocity": 127,
        "subtype": "noteOn"
      },
      {
        "deltaTime": 0,
        "channel": 2,
        "type": "channel",
        "noteNumber": 58,
        "velocity": 127,
        "subtype": "noteOn"
      },
      {
        "deltaTime": 0,
        "channel": 2,
        "type": "channel",
        "noteNumber": 53,
        "velocity": 127,
        "subtype": "noteOn"
      },
      {
        "deltaTime": 0,
        "channel": 2,
        "type": "channel",
        "noteNumber": 46,
        "velocity": 127,
        "subtype": "noteOn"
      },
      {
        "deltaTime": 480,
        "channel": 2,
        "type": "channel",
        "noteNumber": 46,
        "velocity": 0,
        "subtype": "noteOff"
      },
      {
        "deltaTime": 0,
        "channel": 2,
        "type": "channel",
        "noteNumber": 65,
        "velocity": 0,
        "subtype": "noteOff"
      },
      {
        "deltaTime": 0,
        "channel": 2,
        "type": "channel",
        "noteNumber": 58,
        "velocity": 0,
        "subtype": "noteOff"
      },
      {
        "deltaTime": 0,
        "channel": 2,
        "type": "channel",
        "noteNumber": 53,
        "velocity": 0,
        "subtype": "noteOff"
      },
      {
        "deltaTime": 0,
        "channel": 2,
        "type": "channel",
        "noteNumber": 65,
        "velocity": 127,
        "subtype": "noteOn"
      },
      {
        "deltaTime": 0,
        "channel": 2,
        "type": "channel",
        "noteNumber": 58,
        "velocity": 127,
        "subtype": "noteOn"
      },
      {
        "deltaTime": 0,
        "channel": 2,
        "type": "channel",
        "noteNumber": 53,
        "velocity": 127,
        "subtype": "noteOn"
      },
      {
        "deltaTime": 0,
        "channel": 2,
        "type": "channel",
        "noteNumber": 46,
        "velocity": 127,
        "subtype": "noteOn"
      },
      {
        "deltaTime": 480,
        "channel": 2,
        "type": "channel",
        "noteNumber": 46,
        "velocity": 0,
        "subtype": "noteOff"
      },
      {
        "deltaTime": 0,
        "channel": 2,
        "type": "channel",
        "noteNumber": 65,
        "velocity": 0,
        "subtype": "noteOff"
      },
      {
        "deltaTime": 0,
        "channel": 2,
        "type": "channel",
        "noteNumber": 58,
        "velocity": 0,
        "subtype": "noteOff"
      },
      {
        "deltaTime": 0,
        "channel": 2,
        "type": "channel",
        "noteNumber": 53,
        "velocity": 0,
        "subtype": "noteOff"
      },
      {
        "deltaTime": 0,
        "channel": 2,
        "type": "channel",
        "noteNumber": 65,
        "velocity": 127,
        "subtype": "noteOn"
      },
      {
        "deltaTime": 0,
        "channel": 2,
        "type": "channel",
        "noteNumber": 58,
        "velocity": 127,
        "subtype": "noteOn"
      },
      {
        "deltaTime": 0,
        "channel": 2,
        "type": "channel",
        "noteNumber": 53,
        "velocity": 127,
        "subtype": "noteOn"
      },
      {
        "deltaTime": 0,
        "channel": 2,
        "type": "channel",
        "noteNumber": 46,
        "velocity": 127,
        "subtype": "noteOn"
      },
      {
        "deltaTime": 480,
        "channel": 2,
        "type": "channel",
        "noteNumber": 46,
        "velocity": 0,
        "subtype": "noteOff"
      },
      {
        "deltaTime": 0,
        "channel": 2,
        "type": "channel",
        "noteNumber": 65,
        "velocity": 0,
        "subtype": "noteOff"
      },
      {
        "deltaTime": 0,
        "channel": 2,
        "type": "channel",
        "noteNumber": 58,
        "velocity": 0,
        "subtype": "noteOff"
      },
      {
        "deltaTime": 0,
        "channel": 2,
        "type": "channel",
        "noteNumber": 53,
        "velocity": 0,
        "subtype": "noteOff"
      },
      {
        "deltaTime": 0,
        "channel": 2,
        "type": "channel",
        "noteNumber": 65,
        "velocity": 127,
        "subtype": "noteOn"
      },
      {
        "deltaTime": 0,
        "channel": 2,
        "type": "channel",
        "noteNumber": 58,
        "velocity": 127,
        "subtype": "noteOn"
      },
      {
        "deltaTime": 0,
        "channel": 2,
        "type": "channel",
        "noteNumber": 53,
        "velocity": 127,
        "subtype": "noteOn"
      },
      {
        "deltaTime": 0,
        "channel": 2,
        "type": "channel",
        "noteNumber": 46,
        "velocity": 127,
        "subtype": "noteOn"
      },
      {
        "deltaTime": 480,
        "channel": 2,
        "type": "channel",
        "noteNumber": 46,
        "velocity": 0,
        "subtype": "noteOff"
      },
      {
        "deltaTime": 0,
        "channel": 2,
        "type": "channel",
        "noteNumber": 65,
        "velocity": 0,
        "subtype": "noteOff"
      },
      {
        "deltaTime": 0,
        "channel": 2,
        "type": "channel",
        "noteNumber": 58,
        "velocity": 0,
        "subtype": "noteOff"
      },
      {
        "deltaTime": 0,
        "channel": 2,
        "type": "channel",
        "noteNumber": 53,
        "velocity": 0,
        "subtype": "noteOff"
      },
      {
        "deltaTime": 0,
        "channel": 2,
        "type": "channel",
        "noteNumber": 65,
        "velocity": 127,
        "subtype": "noteOn"
      },
      {
        "deltaTime": 0,
        "channel": 2,
        "type": "channel",
        "noteNumber": 58,
        "velocity": 127,
        "subtype": "noteOn"
      },
      {
        "deltaTime": 0,
        "channel": 2,
        "type": "channel",
        "noteNumber": 53,
        "velocity": 127,
        "subtype": "noteOn"
      },
      {
        "deltaTime": 0,
        "channel": 2,
        "type": "channel",
        "noteNumber": 46,
        "velocity": 127,
        "subtype": "noteOn"
      },
      {
        "deltaTime": 480,
        "channel": 2,
        "type": "channel",
        "noteNumber": 46,
        "velocity": 0,
        "subtype": "noteOff"
      },
      {
        "deltaTime": 0,
        "channel": 2,
        "type": "channel",
        "noteNumber": 65,
        "velocity": 0,
        "subtype": "noteOff"
      },
      {
        "deltaTime": 0,
        "channel": 2,
        "type": "channel",
        "noteNumber": 58,
        "velocity": 0,
        "subtype": "noteOff"
      },
      {
        "deltaTime": 0,
        "channel": 2,
        "type": "channel",
        "noteNumber": 53,
        "velocity": 0,
        "subtype": "noteOff"
      },
      {
        "deltaTime": 0,
        "channel": 2,
        "type": "channel",
        "noteNumber": 65,
        "velocity": 127,
        "subtype": "noteOn"
      },
      {
        "deltaTime": 0,
        "channel": 2,
        "type": "channel",
        "noteNumber": 58,
        "velocity": 127,
        "subtype": "noteOn"
      },
      {
        "deltaTime": 0,
        "channel": 2,
        "type": "channel",
        "noteNumber": 53,
        "velocity": 127,
        "subtype": "noteOn"
      },
      {
        "deltaTime": 0,
        "channel": 2,
        "type": "channel",
        "noteNumber": 46,
        "velocity": 127,
        "subtype": "noteOn"
      },
      {
        "deltaTime": 480,
        "channel": 2,
        "type": "channel",
        "noteNumber": 46,
        "velocity": 0,
        "subtype": "noteOff"
      },
      {
        "deltaTime": 0,
        "channel": 2,
        "type": "channel",
        "noteNumber": 65,
        "velocity": 0,
        "subtype": "noteOff"
      },
      {
        "deltaTime": 0,
        "channel": 2,
        "type": "channel",
        "noteNumber": 58,
        "velocity": 0,
        "subtype": "noteOff"
      },
      {
        "deltaTime": 0,
        "channel": 2,
        "type": "channel",
        "noteNumber": 53,
        "velocity": 0,
        "subtype": "noteOff"
      },
      {
        "deltaTime": 0,
        "channel": 2,
        "type": "channel",
        "noteNumber": 51,
        "velocity": 127,
        "subtype": "noteOn"
      },
      {
        "deltaTime": 0,
        "channel": 2,
        "type": "channel",
        "noteNumber": 44,
        "velocity": 127,
        "subtype": "noteOn"
      },
      {
        "deltaTime": 180,
        "channel": 2,
        "type": "channel",
        "noteNumber": 44,
        "velocity": 0,
        "subtype": "noteOff"
      },
      {
        "deltaTime": 0,
        "channel": 2,
        "type": "channel",
        "noteNumber": 51,
        "velocity": 0,
        "subtype": "noteOff"
      },
      {
        "deltaTime": 540,
        "channel": 2,
        "type": "channel",
        "noteNumber": 51,
        "velocity": 127,
        "subtype": "noteOn"
      },
      {
        "deltaTime": 0,
        "channel": 2,
        "type": "channel",
        "noteNumber": 44,
        "velocity": 127,
        "subtype": "noteOn"
      },
      {
        "deltaTime": 180,
        "channel": 2,
        "type": "channel",
        "noteNumber": 44,
        "velocity": 0,
        "subtype": "noteOff"
      },
      {
        "deltaTime": 0,
        "channel": 2,
        "type": "channel",
        "noteNumber": 51,
        "velocity": 0,
        "subtype": "noteOff"
      },
      {
        "deltaTime": 540,
        "channel": 2,
        "type": "channel",
        "noteNumber": 51,
        "velocity": 127,
        "subtype": "noteOn"
      },
      {
        "deltaTime": 0,
        "channel": 2,
        "type": "channel",
        "noteNumber": 44,
        "velocity": 127,
        "subtype": "noteOn"
      },
      {
        "deltaTime": 360,
        "channel": 2,
        "type": "channel",
        "noteNumber": 44,
        "velocity": 0,
        "subtype": "noteOff"
      },
      {
        "deltaTime": 0,
        "channel": 2,
        "type": "channel",
        "noteNumber": 51,
        "velocity": 0,
        "subtype": "noteOff"
      },
      {
        "deltaTime": 1080,
        "channel": 2,
        "type": "channel",
        "noteNumber": 51,
        "velocity": 127,
        "subtype": "noteOn"
      },
      {
        "deltaTime": 0,
        "channel": 2,
        "type": "channel",
        "noteNumber": 44,
        "velocity": 127,
        "subtype": "noteOn"
      },
      {
        "deltaTime": 180,
        "channel": 2,
        "type": "channel",
        "noteNumber": 44,
        "velocity": 0,
        "subtype": "noteOff"
      },
      {
        "deltaTime": 0,
        "channel": 2,
        "type": "channel",
        "noteNumber": 51,
        "velocity": 0,
        "subtype": "noteOff"
      },
      {
        "deltaTime": 540,
        "channel": 2,
        "type": "channel",
        "noteNumber": 51,
        "velocity": 127,
        "subtype": "noteOn"
      },
      {
        "deltaTime": 0,
        "channel": 2,
        "type": "channel",
        "noteNumber": 44,
        "velocity": 127,
        "subtype": "noteOn"
      },
      {
        "deltaTime": 180,
        "channel": 2,
        "type": "channel",
        "noteNumber": 44,
        "velocity": 0,
        "subtype": "noteOff"
      },
      {
        "deltaTime": 0,
        "channel": 2,
        "type": "channel",
        "noteNumber": 51,
        "velocity": 0,
        "subtype": "noteOff"
      },
      {
        "deltaTime": 540,
        "channel": 2,
        "type": "channel",
        "noteNumber": 51,
        "velocity": 127,
        "subtype": "noteOn"
      },
      {
        "deltaTime": 0,
        "channel": 2,
        "type": "channel",
        "noteNumber": 44,
        "velocity": 127,
        "subtype": "noteOn"
      },
      {
        "deltaTime": 360,
        "channel": 2,
        "type": "channel",
        "noteNumber": 44,
        "velocity": 0,
        "subtype": "noteOff"
      },
      {
        "deltaTime": 0,
        "channel": 2,
        "type": "channel",
        "noteNumber": 51,
        "velocity": 0,
        "subtype": "noteOff"
      },
      {
        "deltaTime": 1080,
        "channel": 2,
        "type": "channel",
        "noteNumber": 53,
        "velocity": 127,
        "subtype": "noteOn"
      },
      {
        "deltaTime": 0,
        "channel": 2,
        "type": "channel",
        "noteNumber": 46,
        "velocity": 127,
        "subtype": "noteOn"
      },
      {
        "deltaTime": 180,
        "channel": 2,
        "type": "channel",
        "noteNumber": 46,
        "velocity": 0,
        "subtype": "noteOff"
      },
      {
        "deltaTime": 0,
        "channel": 2,
        "type": "channel",
        "noteNumber": 53,
        "velocity": 0,
        "subtype": "noteOff"
      },
      {
        "deltaTime": 540,
        "channel": 2,
        "type": "channel",
        "noteNumber": 53,
        "velocity": 127,
        "subtype": "noteOn"
      },
      {
        "deltaTime": 0,
        "channel": 2,
        "type": "channel",
        "noteNumber": 46,
        "velocity": 127,
        "subtype": "noteOn"
      },
      {
        "deltaTime": 180,
        "channel": 2,
        "type": "channel",
        "noteNumber": 46,
        "velocity": 0,
        "subtype": "noteOff"
      },
      {
        "deltaTime": 0,
        "channel": 2,
        "type": "channel",
        "noteNumber": 53,
        "velocity": 0,
        "subtype": "noteOff"
      },
      {
        "deltaTime": 540,
        "channel": 2,
        "type": "channel",
        "noteNumber": 53,
        "velocity": 127,
        "subtype": "noteOn"
      },
      {
        "deltaTime": 0,
        "channel": 2,
        "type": "channel",
        "noteNumber": 46,
        "velocity": 127,
        "subtype": "noteOn"
      },
      {
        "deltaTime": 360,
        "channel": 2,
        "type": "channel",
        "noteNumber": 46,
        "velocity": 0,
        "subtype": "noteOff"
      },
      {
        "deltaTime": 0,
        "channel": 2,
        "type": "channel",
        "noteNumber": 53,
        "velocity": 0,
        "subtype": "noteOff"
      },
      {
        "deltaTime": 1080,
        "channel": 2,
        "type": "channel",
        "noteNumber": 55,
        "velocity": 127,
        "subtype": "noteOn"
      },
      {
        "deltaTime": 0,
        "channel": 2,
        "type": "channel",
        "noteNumber": 48,
        "velocity": 127,
        "subtype": "noteOn"
      },
      {
        "deltaTime": 180,
        "channel": 2,
        "type": "channel",
        "noteNumber": 48,
        "velocity": 0,
        "subtype": "noteOff"
      },
      {
        "deltaTime": 0,
        "channel": 2,
        "type": "channel",
        "noteNumber": 55,
        "velocity": 0,
        "subtype": "noteOff"
      },
      {
        "deltaTime": 540,
        "channel": 2,
        "type": "channel",
        "noteNumber": 55,
        "velocity": 127,
        "subtype": "noteOn"
      },
      {
        "deltaTime": 0,
        "channel": 2,
        "type": "channel",
        "noteNumber": 48,
        "velocity": 127,
        "subtype": "noteOn"
      },
      {
        "deltaTime": 180,
        "channel": 2,
        "type": "channel",
        "noteNumber": 48,
        "velocity": 0,
        "subtype": "noteOff"
      },
      {
        "deltaTime": 0,
        "channel": 2,
        "type": "channel",
        "noteNumber": 55,
        "velocity": 0,
        "subtype": "noteOff"
      },
      {
        "deltaTime": 540,
        "channel": 2,
        "type": "channel",
        "noteNumber": 55,
        "velocity": 127,
        "subtype": "noteOn"
      },
      {
        "deltaTime": 0,
        "channel": 2,
        "type": "channel",
        "noteNumber": 48,
        "velocity": 127,
        "subtype": "noteOn"
      },
      {
        "deltaTime": 360,
        "channel": 2,
        "type": "channel",
        "noteNumber": 48,
        "velocity": 0,
        "subtype": "noteOff"
      },
      {
        "deltaTime": 0,
        "channel": 2,
        "type": "channel",
        "noteNumber": 55,
        "velocity": 0,
        "subtype": "noteOff"
      },
      {
        "deltaTime": 1080,
        "channel": 2,
        "type": "channel",
        "noteNumber": 51,
        "velocity": 127,
        "subtype": "noteOn"
      },
      {
        "deltaTime": 0,
        "channel": 2,
        "type": "channel",
        "noteNumber": 44,
        "velocity": 127,
        "subtype": "noteOn"
      },
      {
        "deltaTime": 180,
        "channel": 2,
        "type": "channel",
        "noteNumber": 44,
        "velocity": 0,
        "subtype": "noteOff"
      },
      {
        "deltaTime": 0,
        "channel": 2,
        "type": "channel",
        "noteNumber": 51,
        "velocity": 0,
        "subtype": "noteOff"
      },
      {
        "deltaTime": 540,
        "channel": 2,
        "type": "channel",
        "noteNumber": 51,
        "velocity": 127,
        "subtype": "noteOn"
      },
      {
        "deltaTime": 0,
        "channel": 2,
        "type": "channel",
        "noteNumber": 44,
        "velocity": 127,
        "subtype": "noteOn"
      },
      {
        "deltaTime": 180,
        "channel": 2,
        "type": "channel",
        "noteNumber": 44,
        "velocity": 0,
        "subtype": "noteOff"
      },
      {
        "deltaTime": 0,
        "channel": 2,
        "type": "channel",
        "noteNumber": 51,
        "velocity": 0,
        "subtype": "noteOff"
      },
      {
        "deltaTime": 540,
        "channel": 2,
        "type": "channel",
        "noteNumber": 51,
        "velocity": 127,
        "subtype": "noteOn"
      },
      {
        "deltaTime": 0,
        "channel": 2,
        "type": "channel",
        "noteNumber": 44,
        "velocity": 127,
        "subtype": "noteOn"
      },
      {
        "deltaTime": 360,
        "channel": 2,
        "type": "channel",
        "noteNumber": 44,
        "velocity": 0,
        "subtype": "noteOff"
      },
      {
        "deltaTime": 0,
        "channel": 2,
        "type": "channel",
        "noteNumber": 51,
        "velocity": 0,
        "subtype": "noteOff"
      },
      {
        "deltaTime": 1080,
        "channel": 2,
        "type": "channel",
        "noteNumber": 51,
        "velocity": 127,
        "subtype": "noteOn"
      },
      {
        "deltaTime": 0,
        "channel": 2,
        "type": "channel",
        "noteNumber": 44,
        "velocity": 127,
        "subtype": "noteOn"
      },
      {
        "deltaTime": 180,
        "channel": 2,
        "type": "channel",
        "noteNumber": 44,
        "velocity": 0,
        "subtype": "noteOff"
      },
      {
        "deltaTime": 0,
        "channel": 2,
        "type": "channel",
        "noteNumber": 51,
        "velocity": 0,
        "subtype": "noteOff"
      },
      {
        "deltaTime": 540,
        "channel": 2,
        "type": "channel",
        "noteNumber": 51,
        "velocity": 127,
        "subtype": "noteOn"
      },
      {
        "deltaTime": 0,
        "channel": 2,
        "type": "channel",
        "noteNumber": 44,
        "velocity": 127,
        "subtype": "noteOn"
      },
      {
        "deltaTime": 180,
        "channel": 2,
        "type": "channel",
        "noteNumber": 44,
        "velocity": 0,
        "subtype": "noteOff"
      },
      {
        "deltaTime": 0,
        "channel": 2,
        "type": "channel",
        "noteNumber": 51,
        "velocity": 0,
        "subtype": "noteOff"
      },
      {
        "deltaTime": 540,
        "channel": 2,
        "type": "channel",
        "noteNumber": 51,
        "velocity": 127,
        "subtype": "noteOn"
      },
      {
        "deltaTime": 0,
        "channel": 2,
        "type": "channel",
        "noteNumber": 44,
        "velocity": 127,
        "subtype": "noteOn"
      },
      {
        "deltaTime": 360,
        "channel": 2,
        "type": "channel",
        "noteNumber": 44,
        "velocity": 0,
        "subtype": "noteOff"
      },
      {
        "deltaTime": 0,
        "channel": 2,
        "type": "channel",
        "noteNumber": 51,
        "velocity": 0,
        "subtype": "noteOff"
      },
      {
        "deltaTime": 1080,
        "channel": 2,
        "type": "channel",
        "noteNumber": 53,
        "velocity": 127,
        "subtype": "noteOn"
      },
      {
        "deltaTime": 0,
        "channel": 2,
        "type": "channel",
        "noteNumber": 46,
        "velocity": 127,
        "subtype": "noteOn"
      },
      {
        "deltaTime": 180,
        "channel": 2,
        "type": "channel",
        "noteNumber": 46,
        "velocity": 0,
        "subtype": "noteOff"
      },
      {
        "deltaTime": 0,
        "channel": 2,
        "type": "channel",
        "noteNumber": 53,
        "velocity": 0,
        "subtype": "noteOff"
      },
      {
        "deltaTime": 540,
        "channel": 2,
        "type": "channel",
        "noteNumber": 53,
        "velocity": 127,
        "subtype": "noteOn"
      },
      {
        "deltaTime": 0,
        "channel": 2,
        "type": "channel",
        "noteNumber": 46,
        "velocity": 127,
        "subtype": "noteOn"
      },
      {
        "deltaTime": 180,
        "channel": 2,
        "type": "channel",
        "noteNumber": 46,
        "velocity": 0,
        "subtype": "noteOff"
      },
      {
        "deltaTime": 0,
        "channel": 2,
        "type": "channel",
        "noteNumber": 53,
        "velocity": 0,
        "subtype": "noteOff"
      },
      {
        "deltaTime": 540,
        "channel": 2,
        "type": "channel",
        "noteNumber": 53,
        "velocity": 127,
        "subtype": "noteOn"
      },
      {
        "deltaTime": 0,
        "channel": 2,
        "type": "channel",
        "noteNumber": 46,
        "velocity": 127,
        "subtype": "noteOn"
      },
      {
        "deltaTime": 360,
        "channel": 2,
        "type": "channel",
        "noteNumber": 46,
        "velocity": 0,
        "subtype": "noteOff"
      },
      {
        "deltaTime": 0,
        "channel": 2,
        "type": "channel",
        "noteNumber": 53,
        "velocity": 0,
        "subtype": "noteOff"
      },
      {
        "deltaTime": 1080,
        "channel": 2,
        "type": "channel",
        "noteNumber": 55,
        "velocity": 127,
        "subtype": "noteOn"
      },
      {
        "deltaTime": 0,
        "channel": 2,
        "type": "channel",
        "noteNumber": 48,
        "velocity": 127,
        "subtype": "noteOn"
      },
      {
        "deltaTime": 180,
        "channel": 2,
        "type": "channel",
        "noteNumber": 48,
        "velocity": 0,
        "subtype": "noteOff"
      },
      {
        "deltaTime": 0,
        "channel": 2,
        "type": "channel",
        "noteNumber": 55,
        "velocity": 0,
        "subtype": "noteOff"
      },
      {
        "deltaTime": 540,
        "channel": 2,
        "type": "channel",
        "noteNumber": 55,
        "velocity": 127,
        "subtype": "noteOn"
      },
      {
        "deltaTime": 0,
        "channel": 2,
        "type": "channel",
        "noteNumber": 48,
        "velocity": 127,
        "subtype": "noteOn"
      },
      {
        "deltaTime": 180,
        "channel": 2,
        "type": "channel",
        "noteNumber": 48,
        "velocity": 0,
        "subtype": "noteOff"
      },
      {
        "deltaTime": 0,
        "channel": 2,
        "type": "channel",
        "noteNumber": 55,
        "velocity": 0,
        "subtype": "noteOff"
      },
      {
        "deltaTime": 540,
        "channel": 2,
        "type": "channel",
        "noteNumber": 55,
        "velocity": 127,
        "subtype": "noteOn"
      },
      {
        "deltaTime": 0,
        "channel": 2,
        "type": "channel",
        "noteNumber": 48,
        "velocity": 127,
        "subtype": "noteOn"
      },
      {
        "deltaTime": 360,
        "channel": 2,
        "type": "channel",
        "noteNumber": 48,
        "velocity": 0,
        "subtype": "noteOff"
      },
      {
        "deltaTime": 0,
        "channel": 2,
        "type": "channel",
        "noteNumber": 55,
        "velocity": 0,
        "subtype": "noteOff"
      },
      {
        "deltaTime": 1080,
        "channel": 2,
        "type": "channel",
        "noteNumber": 51,
        "velocity": 127,
        "subtype": "noteOn"
      },
      {
        "deltaTime": 0,
        "channel": 2,
        "type": "channel",
        "noteNumber": 44,
        "velocity": 127,
        "subtype": "noteOn"
      },
      {
        "deltaTime": 180,
        "channel": 2,
        "type": "channel",
        "noteNumber": 44,
        "velocity": 0,
        "subtype": "noteOff"
      },
      {
        "deltaTime": 0,
        "channel": 2,
        "type": "channel",
        "noteNumber": 51,
        "velocity": 0,
        "subtype": "noteOff"
      },
      {
        "deltaTime": 540,
        "channel": 2,
        "type": "channel",
        "noteNumber": 51,
        "velocity": 127,
        "subtype": "noteOn"
      },
      {
        "deltaTime": 0,
        "channel": 2,
        "type": "channel",
        "noteNumber": 44,
        "velocity": 127,
        "subtype": "noteOn"
      },
      {
        "deltaTime": 180,
        "channel": 2,
        "type": "channel",
        "noteNumber": 44,
        "velocity": 0,
        "subtype": "noteOff"
      },
      {
        "deltaTime": 0,
        "channel": 2,
        "type": "channel",
        "noteNumber": 51,
        "velocity": 0,
        "subtype": "noteOff"
      },
      {
        "deltaTime": 540,
        "channel": 2,
        "type": "channel",
        "noteNumber": 51,
        "velocity": 127,
        "subtype": "noteOn"
      },
      {
        "deltaTime": 0,
        "channel": 2,
        "type": "channel",
        "noteNumber": 44,
        "velocity": 127,
        "subtype": "noteOn"
      },
      {
        "deltaTime": 360,
        "channel": 2,
        "type": "channel",
        "noteNumber": 44,
        "velocity": 0,
        "subtype": "noteOff"
      },
      {
        "deltaTime": 0,
        "channel": 2,
        "type": "channel",
        "noteNumber": 51,
        "velocity": 0,
        "subtype": "noteOff"
      },
      {
        "deltaTime": 1080,
        "channel": 2,
        "type": "channel",
        "noteNumber": 51,
        "velocity": 127,
        "subtype": "noteOn"
      },
      {
        "deltaTime": 0,
        "channel": 2,
        "type": "channel",
        "noteNumber": 44,
        "velocity": 127,
        "subtype": "noteOn"
      },
      {
        "deltaTime": 180,
        "channel": 2,
        "type": "channel",
        "noteNumber": 44,
        "velocity": 0,
        "subtype": "noteOff"
      },
      {
        "deltaTime": 0,
        "channel": 2,
        "type": "channel",
        "noteNumber": 51,
        "velocity": 0,
        "subtype": "noteOff"
      },
      {
        "deltaTime": 540,
        "channel": 2,
        "type": "channel",
        "noteNumber": 51,
        "velocity": 127,
        "subtype": "noteOn"
      },
      {
        "deltaTime": 0,
        "channel": 2,
        "type": "channel",
        "noteNumber": 44,
        "velocity": 127,
        "subtype": "noteOn"
      },
      {
        "deltaTime": 180,
        "channel": 2,
        "type": "channel",
        "noteNumber": 44,
        "velocity": 0,
        "subtype": "noteOff"
      },
      {
        "deltaTime": 0,
        "channel": 2,
        "type": "channel",
        "noteNumber": 51,
        "velocity": 0,
        "subtype": "noteOff"
      },
      {
        "deltaTime": 540,
        "channel": 2,
        "type": "channel",
        "noteNumber": 51,
        "velocity": 127,
        "subtype": "noteOn"
      },
      {
        "deltaTime": 0,
        "channel": 2,
        "type": "channel",
        "noteNumber": 44,
        "velocity": 127,
        "subtype": "noteOn"
      },
      {
        "deltaTime": 360,
        "channel": 2,
        "type": "channel",
        "noteNumber": 44,
        "velocity": 0,
        "subtype": "noteOff"
      },
      {
        "deltaTime": 0,
        "channel": 2,
        "type": "channel",
        "noteNumber": 51,
        "velocity": 0,
        "subtype": "noteOff"
      },
      {
        "deltaTime": 1080,
        "channel": 2,
        "type": "channel",
        "noteNumber": 53,
        "velocity": 127,
        "subtype": "noteOn"
      },
      {
        "deltaTime": 0,
        "channel": 2,
        "type": "channel",
        "noteNumber": 46,
        "velocity": 127,
        "subtype": "noteOn"
      },
      {
        "deltaTime": 180,
        "channel": 2,
        "type": "channel",
        "noteNumber": 46,
        "velocity": 0,
        "subtype": "noteOff"
      },
      {
        "deltaTime": 0,
        "channel": 2,
        "type": "channel",
        "noteNumber": 53,
        "velocity": 0,
        "subtype": "noteOff"
      },
      {
        "deltaTime": 540,
        "channel": 2,
        "type": "channel",
        "noteNumber": 53,
        "velocity": 127,
        "subtype": "noteOn"
      },
      {
        "deltaTime": 0,
        "channel": 2,
        "type": "channel",
        "noteNumber": 46,
        "velocity": 127,
        "subtype": "noteOn"
      },
      {
        "deltaTime": 180,
        "channel": 2,
        "type": "channel",
        "noteNumber": 46,
        "velocity": 0,
        "subtype": "noteOff"
      },
      {
        "deltaTime": 0,
        "channel": 2,
        "type": "channel",
        "noteNumber": 53,
        "velocity": 0,
        "subtype": "noteOff"
      },
      {
        "deltaTime": 540,
        "channel": 2,
        "type": "channel",
        "noteNumber": 53,
        "velocity": 127,
        "subtype": "noteOn"
      },
      {
        "deltaTime": 0,
        "channel": 2,
        "type": "channel",
        "noteNumber": 46,
        "velocity": 127,
        "subtype": "noteOn"
      },
      {
        "deltaTime": 360,
        "channel": 2,
        "type": "channel",
        "noteNumber": 46,
        "velocity": 0,
        "subtype": "noteOff"
      },
      {
        "deltaTime": 0,
        "channel": 2,
        "type": "channel",
        "noteNumber": 53,
        "velocity": 0,
        "subtype": "noteOff"
      },
      {
        "deltaTime": 1080,
        "channel": 2,
        "type": "channel",
        "noteNumber": 55,
        "velocity": 127,
        "subtype": "noteOn"
      },
      {
        "deltaTime": 0,
        "channel": 2,
        "type": "channel",
        "noteNumber": 48,
        "velocity": 127,
        "subtype": "noteOn"
      },
      {
        "deltaTime": 180,
        "channel": 2,
        "type": "channel",
        "noteNumber": 48,
        "velocity": 0,
        "subtype": "noteOff"
      },
      {
        "deltaTime": 0,
        "channel": 2,
        "type": "channel",
        "noteNumber": 55,
        "velocity": 0,
        "subtype": "noteOff"
      },
      {
        "deltaTime": 540,
        "channel": 2,
        "type": "channel",
        "noteNumber": 55,
        "velocity": 127,
        "subtype": "noteOn"
      },
      {
        "deltaTime": 0,
        "channel": 2,
        "type": "channel",
        "noteNumber": 48,
        "velocity": 127,
        "subtype": "noteOn"
      },
      {
        "deltaTime": 180,
        "channel": 2,
        "type": "channel",
        "noteNumber": 48,
        "velocity": 0,
        "subtype": "noteOff"
      },
      {
        "deltaTime": 0,
        "channel": 2,
        "type": "channel",
        "noteNumber": 55,
        "velocity": 0,
        "subtype": "noteOff"
      },
      {
        "deltaTime": 540,
        "channel": 2,
        "type": "channel",
        "noteNumber": 55,
        "velocity": 127,
        "subtype": "noteOn"
      },
      {
        "deltaTime": 0,
        "channel": 2,
        "type": "channel",
        "noteNumber": 48,
        "velocity": 127,
        "subtype": "noteOn"
      },
      {
        "deltaTime": 360,
        "channel": 2,
        "type": "channel",
        "noteNumber": 48,
        "velocity": 0,
        "subtype": "noteOff"
      },
      {
        "deltaTime": 0,
        "channel": 2,
        "type": "channel",
        "noteNumber": 55,
        "velocity": 0,
        "subtype": "noteOff"
      },
      {
        "deltaTime": 1080,
        "channel": 2,
        "type": "channel",
        "noteNumber": 51,
        "velocity": 127,
        "subtype": "noteOn"
      },
      {
        "deltaTime": 0,
        "channel": 2,
        "type": "channel",
        "noteNumber": 44,
        "velocity": 127,
        "subtype": "noteOn"
      },
      {
        "deltaTime": 180,
        "channel": 2,
        "type": "channel",
        "noteNumber": 44,
        "velocity": 0,
        "subtype": "noteOff"
      },
      {
        "deltaTime": 0,
        "channel": 2,
        "type": "channel",
        "noteNumber": 51,
        "velocity": 0,
        "subtype": "noteOff"
      },
      {
        "deltaTime": 540,
        "channel": 2,
        "type": "channel",
        "noteNumber": 51,
        "velocity": 127,
        "subtype": "noteOn"
      },
      {
        "deltaTime": 0,
        "channel": 2,
        "type": "channel",
        "noteNumber": 44,
        "velocity": 127,
        "subtype": "noteOn"
      },
      {
        "deltaTime": 180,
        "channel": 2,
        "type": "channel",
        "noteNumber": 44,
        "velocity": 0,
        "subtype": "noteOff"
      },
      {
        "deltaTime": 0,
        "channel": 2,
        "type": "channel",
        "noteNumber": 51,
        "velocity": 0,
        "subtype": "noteOff"
      },
      {
        "deltaTime": 540,
        "channel": 2,
        "type": "channel",
        "noteNumber": 51,
        "velocity": 127,
        "subtype": "noteOn"
      },
      {
        "deltaTime": 0,
        "channel": 2,
        "type": "channel",
        "noteNumber": 44,
        "velocity": 127,
        "subtype": "noteOn"
      },
      {
        "deltaTime": 360,
        "channel": 2,
        "type": "channel",
        "noteNumber": 44,
        "velocity": 0,
        "subtype": "noteOff"
      },
      {
        "deltaTime": 0,
        "channel": 2,
        "type": "channel",
        "noteNumber": 51,
        "velocity": 0,
        "subtype": "noteOff"
      },
      {
        "deltaTime": 1080,
        "channel": 2,
        "type": "channel",
        "noteNumber": 51,
        "velocity": 127,
        "subtype": "noteOn"
      },
      {
        "deltaTime": 0,
        "channel": 2,
        "type": "channel",
        "noteNumber": 44,
        "velocity": 127,
        "subtype": "noteOn"
      },
      {
        "deltaTime": 180,
        "channel": 2,
        "type": "channel",
        "noteNumber": 44,
        "velocity": 0,
        "subtype": "noteOff"
      },
      {
        "deltaTime": 0,
        "channel": 2,
        "type": "channel",
        "noteNumber": 51,
        "velocity": 0,
        "subtype": "noteOff"
      },
      {
        "deltaTime": 540,
        "channel": 2,
        "type": "channel",
        "noteNumber": 51,
        "velocity": 127,
        "subtype": "noteOn"
      },
      {
        "deltaTime": 0,
        "channel": 2,
        "type": "channel",
        "noteNumber": 44,
        "velocity": 127,
        "subtype": "noteOn"
      },
      {
        "deltaTime": 180,
        "channel": 2,
        "type": "channel",
        "noteNumber": 44,
        "velocity": 0,
        "subtype": "noteOff"
      },
      {
        "deltaTime": 0,
        "channel": 2,
        "type": "channel",
        "noteNumber": 51,
        "velocity": 0,
        "subtype": "noteOff"
      },
      {
        "deltaTime": 540,
        "channel": 2,
        "type": "channel",
        "noteNumber": 51,
        "velocity": 127,
        "subtype": "noteOn"
      },
      {
        "deltaTime": 0,
        "channel": 2,
        "type": "channel",
        "noteNumber": 44,
        "velocity": 127,
        "subtype": "noteOn"
      },
      {
        "deltaTime": 360,
        "channel": 2,
        "type": "channel",
        "noteNumber": 44,
        "velocity": 0,
        "subtype": "noteOff"
      },
      {
        "deltaTime": 0,
        "channel": 2,
        "type": "channel",
        "noteNumber": 51,
        "velocity": 0,
        "subtype": "noteOff"
      },
      {
        "deltaTime": 1080,
        "channel": 2,
        "type": "channel",
        "noteNumber": 53,
        "velocity": 127,
        "subtype": "noteOn"
      },
      {
        "deltaTime": 0,
        "channel": 2,
        "type": "channel",
        "noteNumber": 46,
        "velocity": 127,
        "subtype": "noteOn"
      },
      {
        "deltaTime": 180,
        "channel": 2,
        "type": "channel",
        "noteNumber": 46,
        "velocity": 0,
        "subtype": "noteOff"
      },
      {
        "deltaTime": 0,
        "channel": 2,
        "type": "channel",
        "noteNumber": 53,
        "velocity": 0,
        "subtype": "noteOff"
      },
      {
        "deltaTime": 540,
        "channel": 2,
        "type": "channel",
        "noteNumber": 53,
        "velocity": 127,
        "subtype": "noteOn"
      },
      {
        "deltaTime": 0,
        "channel": 2,
        "type": "channel",
        "noteNumber": 46,
        "velocity": 127,
        "subtype": "noteOn"
      },
      {
        "deltaTime": 180,
        "channel": 2,
        "type": "channel",
        "noteNumber": 46,
        "velocity": 0,
        "subtype": "noteOff"
      },
      {
        "deltaTime": 0,
        "channel": 2,
        "type": "channel",
        "noteNumber": 53,
        "velocity": 0,
        "subtype": "noteOff"
      },
      {
        "deltaTime": 540,
        "channel": 2,
        "type": "channel",
        "noteNumber": 53,
        "velocity": 127,
        "subtype": "noteOn"
      },
      {
        "deltaTime": 0,
        "channel": 2,
        "type": "channel",
        "noteNumber": 46,
        "velocity": 127,
        "subtype": "noteOn"
      },
      {
        "deltaTime": 360,
        "channel": 2,
        "type": "channel",
        "noteNumber": 46,
        "velocity": 0,
        "subtype": "noteOff"
      },
      {
        "deltaTime": 0,
        "channel": 2,
        "type": "channel",
        "noteNumber": 53,
        "velocity": 0,
        "subtype": "noteOff"
      },
      {
        "deltaTime": 1080,
        "channel": 2,
        "type": "channel",
        "noteNumber": 55,
        "velocity": 127,
        "subtype": "noteOn"
      },
      {
        "deltaTime": 0,
        "channel": 2,
        "type": "channel",
        "noteNumber": 48,
        "velocity": 127,
        "subtype": "noteOn"
      },
      {
        "deltaTime": 180,
        "channel": 2,
        "type": "channel",
        "noteNumber": 48,
        "velocity": 0,
        "subtype": "noteOff"
      },
      {
        "deltaTime": 0,
        "channel": 2,
        "type": "channel",
        "noteNumber": 55,
        "velocity": 0,
        "subtype": "noteOff"
      },
      {
        "deltaTime": 540,
        "channel": 2,
        "type": "channel",
        "noteNumber": 55,
        "velocity": 127,
        "subtype": "noteOn"
      },
      {
        "deltaTime": 0,
        "channel": 2,
        "type": "channel",
        "noteNumber": 48,
        "velocity": 127,
        "subtype": "noteOn"
      },
      {
        "deltaTime": 180,
        "channel": 2,
        "type": "channel",
        "noteNumber": 48,
        "velocity": 0,
        "subtype": "noteOff"
      },
      {
        "deltaTime": 0,
        "channel": 2,
        "type": "channel",
        "noteNumber": 55,
        "velocity": 0,
        "subtype": "noteOff"
      },
      {
        "deltaTime": 540,
        "channel": 2,
        "type": "channel",
        "noteNumber": 55,
        "velocity": 127,
        "subtype": "noteOn"
      },
      {
        "deltaTime": 0,
        "channel": 2,
        "type": "channel",
        "noteNumber": 48,
        "velocity": 127,
        "subtype": "noteOn"
      },
      {
        "deltaTime": 360,
        "channel": 2,
        "type": "channel",
        "noteNumber": 48,
        "velocity": 0,
        "subtype": "noteOff"
      },
      {
        "deltaTime": 0,
        "channel": 2,
        "type": "channel",
        "noteNumber": 55,
        "velocity": 0,
        "subtype": "noteOff"
      },
      {
        "deltaTime": 1080,
        "channel": 2,
        "type": "channel",
        "noteNumber": 67,
        "velocity": 127,
        "subtype": "noteOn"
      },
      {
        "deltaTime": 0,
        "channel": 2,
        "type": "channel",
        "noteNumber": 54,
        "velocity": 127,
        "subtype": "noteOn"
      },
      {
        "deltaTime": 0,
        "channel": 2,
        "type": "channel",
        "noteNumber": 60,
        "velocity": 127,
        "subtype": "noteOn"
      },
      {
        "deltaTime": 0,
        "channel": 2,
        "type": "channel",
        "noteNumber": 51,
        "velocity": 127,
        "subtype": "noteOn"
      },
      {
        "deltaTime": 0,
        "channel": 2,
        "type": "channel",
        "noteNumber": 44,
        "velocity": 127,
        "subtype": "noteOn"
      },
      {
        "deltaTime": 40,
        "channel": 2,
        "type": "channel",
        "noteNumber": 54,
        "velocity": 0,
        "subtype": "noteOff"
      },
      {
        "deltaTime": 680,
        "channel": 2,
        "type": "channel",
        "noteNumber": 51,
        "velocity": 0,
        "subtype": "noteOff"
      },
      {
        "deltaTime": 0,
        "channel": 2,
        "type": "channel",
        "noteNumber": 67,
        "velocity": 0,
        "subtype": "noteOff"
      },
      {
        "deltaTime": 0,
        "channel": 2,
        "type": "channel",
        "noteNumber": 60,
        "velocity": 0,
        "subtype": "noteOff"
      },
      {
        "deltaTime": 0,
        "channel": 2,
        "type": "channel",
        "noteNumber": 44,
        "velocity": 0,
        "subtype": "noteOff"
      },
      {
        "deltaTime": 0,
        "channel": 2,
        "type": "channel",
        "noteNumber": 67,
        "velocity": 127,
        "subtype": "noteOn"
      },
      {
        "deltaTime": 0,
        "channel": 2,
        "type": "channel",
        "noteNumber": 54,
        "velocity": 127,
        "subtype": "noteOn"
      },
      {
        "deltaTime": 0,
        "channel": 2,
        "type": "channel",
        "noteNumber": 60,
        "velocity": 127,
        "subtype": "noteOn"
      },
      {
        "deltaTime": 0,
        "channel": 2,
        "type": "channel",
        "noteNumber": 51,
        "velocity": 127,
        "subtype": "noteOn"
      },
      {
        "deltaTime": 0,
        "channel": 2,
        "type": "channel",
        "noteNumber": 44,
        "velocity": 127,
        "subtype": "noteOn"
      },
      {
        "deltaTime": 40,
        "channel": 2,
        "type": "channel",
        "noteNumber": 54,
        "velocity": 0,
        "subtype": "noteOff"
      },
      {
        "deltaTime": 680,
        "channel": 2,
        "type": "channel",
        "noteNumber": 51,
        "velocity": 0,
        "subtype": "noteOff"
      },
      {
        "deltaTime": 0,
        "channel": 2,
        "type": "channel",
        "noteNumber": 67,
        "velocity": 0,
        "subtype": "noteOff"
      },
      {
        "deltaTime": 0,
        "channel": 2,
        "type": "channel",
        "noteNumber": 60,
        "velocity": 0,
        "subtype": "noteOff"
      },
      {
        "deltaTime": 0,
        "channel": 2,
        "type": "channel",
        "noteNumber": 44,
        "velocity": 0,
        "subtype": "noteOff"
      },
      {
        "deltaTime": 0,
        "channel": 2,
        "type": "channel",
        "noteNumber": 67,
        "velocity": 127,
        "subtype": "noteOn"
      },
      {
        "deltaTime": 0,
        "channel": 2,
        "type": "channel",
        "noteNumber": 54,
        "velocity": 127,
        "subtype": "noteOn"
      },
      {
        "deltaTime": 0,
        "channel": 2,
        "type": "channel",
        "noteNumber": 60,
        "velocity": 127,
        "subtype": "noteOn"
      },
      {
        "deltaTime": 0,
        "channel": 2,
        "type": "channel",
        "noteNumber": 51,
        "velocity": 127,
        "subtype": "noteOn"
      },
      {
        "deltaTime": 0,
        "channel": 2,
        "type": "channel",
        "noteNumber": 44,
        "velocity": 127,
        "subtype": "noteOn"
      },
      {
        "deltaTime": 40,
        "channel": 2,
        "type": "channel",
        "noteNumber": 54,
        "velocity": 0,
        "subtype": "noteOff"
      },
      {
        "deltaTime": 440,
        "channel": 2,
        "type": "channel",
        "noteNumber": 51,
        "velocity": 0,
        "subtype": "noteOff"
      },
      {
        "deltaTime": 0,
        "channel": 2,
        "type": "channel",
        "noteNumber": 67,
        "velocity": 0,
        "subtype": "noteOff"
      },
      {
        "deltaTime": 0,
        "channel": 2,
        "type": "channel",
        "noteNumber": 60,
        "velocity": 0,
        "subtype": "noteOff"
      },
      {
        "deltaTime": 0,
        "channel": 2,
        "type": "channel",
        "noteNumber": 44,
        "velocity": 0,
        "subtype": "noteOff"
      },
      {
        "deltaTime": 0,
        "channel": 2,
        "type": "channel",
        "noteNumber": 54,
        "velocity": 127,
        "subtype": "noteOn"
      },
      {
        "deltaTime": 0,
        "channel": 2,
        "type": "channel",
        "noteNumber": 49,
        "velocity": 127,
        "subtype": "noteOn"
      },
      {
        "deltaTime": 0,
        "channel": 2,
        "type": "channel",
        "noteNumber": 44,
        "velocity": 127,
        "subtype": "noteOn"
      },
      {
        "deltaTime": 0,
        "channel": 2,
        "type": "channel",
        "noteNumber": 37,
        "velocity": 127,
        "subtype": "noteOn"
      },
      {
        "deltaTime": 40,
        "channel": 2,
        "type": "channel",
        "noteNumber": 37,
        "velocity": 0,
        "subtype": "noteOff"
      },
      {
        "deltaTime": 0,
        "channel": 2,
        "type": "channel",
        "noteNumber": 54,
        "velocity": 0,
        "subtype": "noteOff"
      },
      {
        "deltaTime": 0,
        "channel": 2,
        "type": "channel",
        "noteNumber": 49,
        "velocity": 0,
        "subtype": "noteOff"
      },
      {
        "deltaTime": 0,
        "channel": 2,
        "type": "channel",
        "noteNumber": 44,
        "velocity": 0,
        "subtype": "noteOff"
      },
      {
        "deltaTime": 200,
        "channel": 2,
        "type": "channel",
        "noteNumber": 54,
        "velocity": 127,
        "subtype": "noteOn"
      },
      {
        "deltaTime": 0,
        "channel": 2,
        "type": "channel",
        "noteNumber": 49,
        "velocity": 127,
        "subtype": "noteOn"
      },
      {
        "deltaTime": 0,
        "channel": 2,
        "type": "channel",
        "noteNumber": 44,
        "velocity": 127,
        "subtype": "noteOn"
      },
      {
        "deltaTime": 0,
        "channel": 2,
        "type": "channel",
        "noteNumber": 37,
        "velocity": 127,
        "subtype": "noteOn"
      },
      {
        "deltaTime": 40,
        "channel": 2,
        "type": "channel",
        "noteNumber": 37,
        "velocity": 0,
        "subtype": "noteOff"
      },
      {
        "deltaTime": 0,
        "channel": 2,
        "type": "channel",
        "noteNumber": 54,
        "velocity": 0,
        "subtype": "noteOff"
      },
      {
        "deltaTime": 0,
        "channel": 2,
        "type": "channel",
        "noteNumber": 49,
        "velocity": 0,
        "subtype": "noteOff"
      },
      {
        "deltaTime": 0,
        "channel": 2,
        "type": "channel",
        "noteNumber": 44,
        "velocity": 0,
        "subtype": "noteOff"
      },
      {
        "deltaTime": 200,
        "channel": 2,
        "type": "channel",
        "noteNumber": 54,
        "velocity": 127,
        "subtype": "noteOn"
      },
      {
        "deltaTime": 0,
        "channel": 2,
        "type": "channel",
        "noteNumber": 49,
        "velocity": 127,
        "subtype": "noteOn"
      },
      {
        "deltaTime": 0,
        "channel": 2,
        "type": "channel",
        "noteNumber": 44,
        "velocity": 127,
        "subtype": "noteOn"
      },
      {
        "deltaTime": 0,
        "channel": 2,
        "type": "channel",
        "noteNumber": 37,
        "velocity": 127,
        "subtype": "noteOn"
      },
      {
        "deltaTime": 40,
        "channel": 2,
        "type": "channel",
        "noteNumber": 37,
        "velocity": 0,
        "subtype": "noteOff"
      },
      {
        "deltaTime": 0,
        "channel": 2,
        "type": "channel",
        "noteNumber": 54,
        "velocity": 0,
        "subtype": "noteOff"
      },
      {
        "deltaTime": 0,
        "channel": 2,
        "type": "channel",
        "noteNumber": 49,
        "velocity": 0,
        "subtype": "noteOff"
      },
      {
        "deltaTime": 0,
        "channel": 2,
        "type": "channel",
        "noteNumber": 44,
        "velocity": 0,
        "subtype": "noteOff"
      },
      {
        "deltaTime": 200,
        "channel": 2,
        "type": "channel",
        "noteNumber": 54,
        "velocity": 127,
        "subtype": "noteOn"
      },
      {
        "deltaTime": 0,
        "channel": 2,
        "type": "channel",
        "noteNumber": 49,
        "velocity": 127,
        "subtype": "noteOn"
      },
      {
        "deltaTime": 0,
        "channel": 2,
        "type": "channel",
        "noteNumber": 44,
        "velocity": 127,
        "subtype": "noteOn"
      },
      {
        "deltaTime": 0,
        "channel": 2,
        "type": "channel",
        "noteNumber": 37,
        "velocity": 127,
        "subtype": "noteOn"
      },
      {
        "deltaTime": 40,
        "channel": 2,
        "type": "channel",
        "noteNumber": 37,
        "velocity": 0,
        "subtype": "noteOff"
      },
      {
        "deltaTime": 0,
        "channel": 2,
        "type": "channel",
        "noteNumber": 54,
        "velocity": 0,
        "subtype": "noteOff"
      },
      {
        "deltaTime": 0,
        "channel": 2,
        "type": "channel",
        "noteNumber": 49,
        "velocity": 0,
        "subtype": "noteOff"
      },
      {
        "deltaTime": 0,
        "channel": 2,
        "type": "channel",
        "noteNumber": 44,
        "velocity": 0,
        "subtype": "noteOff"
      },
      {
        "deltaTime": 200,
        "channel": 2,
        "type": "channel",
        "noteNumber": 67,
        "velocity": 127,
        "subtype": "noteOn"
      },
      {
        "deltaTime": 0,
        "channel": 2,
        "type": "channel",
        "noteNumber": 54,
        "velocity": 127,
        "subtype": "noteOn"
      },
      {
        "deltaTime": 0,
        "channel": 2,
        "type": "channel",
        "noteNumber": 60,
        "velocity": 127,
        "subtype": "noteOn"
      },
      {
        "deltaTime": 0,
        "channel": 2,
        "type": "channel",
        "noteNumber": 51,
        "velocity": 127,
        "subtype": "noteOn"
      },
      {
        "deltaTime": 0,
        "channel": 2,
        "type": "channel",
        "noteNumber": 44,
        "velocity": 127,
        "subtype": "noteOn"
      },
      {
        "deltaTime": 40,
        "channel": 2,
        "type": "channel",
        "noteNumber": 54,
        "velocity": 0,
        "subtype": "noteOff"
      },
      {
        "deltaTime": 680,
        "channel": 2,
        "type": "channel",
        "noteNumber": 51,
        "velocity": 0,
        "subtype": "noteOff"
      },
      {
        "deltaTime": 0,
        "channel": 2,
        "type": "channel",
        "noteNumber": 67,
        "velocity": 0,
        "subtype": "noteOff"
      },
      {
        "deltaTime": 0,
        "channel": 2,
        "type": "channel",
        "noteNumber": 60,
        "velocity": 0,
        "subtype": "noteOff"
      },
      {
        "deltaTime": 0,
        "channel": 2,
        "type": "channel",
        "noteNumber": 44,
        "velocity": 0,
        "subtype": "noteOff"
      },
      {
        "deltaTime": 0,
        "channel": 2,
        "type": "channel",
        "noteNumber": 67,
        "velocity": 127,
        "subtype": "noteOn"
      },
      {
        "deltaTime": 0,
        "channel": 2,
        "type": "channel",
        "noteNumber": 54,
        "velocity": 127,
        "subtype": "noteOn"
      },
      {
        "deltaTime": 0,
        "channel": 2,
        "type": "channel",
        "noteNumber": 60,
        "velocity": 127,
        "subtype": "noteOn"
      },
      {
        "deltaTime": 0,
        "channel": 2,
        "type": "channel",
        "noteNumber": 51,
        "velocity": 127,
        "subtype": "noteOn"
      },
      {
        "deltaTime": 0,
        "channel": 2,
        "type": "channel",
        "noteNumber": 44,
        "velocity": 127,
        "subtype": "noteOn"
      },
      {
        "deltaTime": 40,
        "channel": 2,
        "type": "channel",
        "noteNumber": 54,
        "velocity": 0,
        "subtype": "noteOff"
      },
      {
        "deltaTime": 680,
        "channel": 2,
        "type": "channel",
        "noteNumber": 51,
        "velocity": 0,
        "subtype": "noteOff"
      },
      {
        "deltaTime": 0,
        "channel": 2,
        "type": "channel",
        "noteNumber": 67,
        "velocity": 0,
        "subtype": "noteOff"
      },
      {
        "deltaTime": 0,
        "channel": 2,
        "type": "channel",
        "noteNumber": 60,
        "velocity": 0,
        "subtype": "noteOff"
      },
      {
        "deltaTime": 0,
        "channel": 2,
        "type": "channel",
        "noteNumber": 44,
        "velocity": 0,
        "subtype": "noteOff"
      },
      {
        "deltaTime": 0,
        "channel": 2,
        "type": "channel",
        "noteNumber": 67,
        "velocity": 127,
        "subtype": "noteOn"
      },
      {
        "deltaTime": 0,
        "channel": 2,
        "type": "channel",
        "noteNumber": 54,
        "velocity": 127,
        "subtype": "noteOn"
      },
      {
        "deltaTime": 0,
        "channel": 2,
        "type": "channel",
        "noteNumber": 60,
        "velocity": 127,
        "subtype": "noteOn"
      },
      {
        "deltaTime": 0,
        "channel": 2,
        "type": "channel",
        "noteNumber": 51,
        "velocity": 127,
        "subtype": "noteOn"
      },
      {
        "deltaTime": 0,
        "channel": 2,
        "type": "channel",
        "noteNumber": 44,
        "velocity": 127,
        "subtype": "noteOn"
      },
      {
        "deltaTime": 40,
        "channel": 2,
        "type": "channel",
        "noteNumber": 54,
        "velocity": 0,
        "subtype": "noteOff"
      },
      {
        "deltaTime": 440,
        "channel": 2,
        "type": "channel",
        "noteNumber": 51,
        "velocity": 0,
        "subtype": "noteOff"
      },
      {
        "deltaTime": 0,
        "channel": 2,
        "type": "channel",
        "noteNumber": 67,
        "velocity": 0,
        "subtype": "noteOff"
      },
      {
        "deltaTime": 0,
        "channel": 2,
        "type": "channel",
        "noteNumber": 60,
        "velocity": 0,
        "subtype": "noteOff"
      },
      {
        "deltaTime": 0,
        "channel": 2,
        "type": "channel",
        "noteNumber": 44,
        "velocity": 0,
        "subtype": "noteOff"
      },
      {
        "deltaTime": 0,
        "channel": 2,
        "type": "channel",
        "noteNumber": 54,
        "velocity": 127,
        "subtype": "noteOn"
      },
      {
        "deltaTime": 0,
        "channel": 2,
        "type": "channel",
        "noteNumber": 49,
        "velocity": 127,
        "subtype": "noteOn"
      },
      {
        "deltaTime": 0,
        "channel": 2,
        "type": "channel",
        "noteNumber": 44,
        "velocity": 127,
        "subtype": "noteOn"
      },
      {
        "deltaTime": 0,
        "channel": 2,
        "type": "channel",
        "noteNumber": 37,
        "velocity": 127,
        "subtype": "noteOn"
      },
      {
        "deltaTime": 40,
        "channel": 2,
        "type": "channel",
        "noteNumber": 37,
        "velocity": 0,
        "subtype": "noteOff"
      },
      {
        "deltaTime": 0,
        "channel": 2,
        "type": "channel",
        "noteNumber": 54,
        "velocity": 0,
        "subtype": "noteOff"
      },
      {
        "deltaTime": 0,
        "channel": 2,
        "type": "channel",
        "noteNumber": 49,
        "velocity": 0,
        "subtype": "noteOff"
      },
      {
        "deltaTime": 0,
        "channel": 2,
        "type": "channel",
        "noteNumber": 44,
        "velocity": 0,
        "subtype": "noteOff"
      },
      {
        "deltaTime": 200,
        "channel": 2,
        "type": "channel",
        "noteNumber": 54,
        "velocity": 127,
        "subtype": "noteOn"
      },
      {
        "deltaTime": 0,
        "channel": 2,
        "type": "channel",
        "noteNumber": 49,
        "velocity": 127,
        "subtype": "noteOn"
      },
      {
        "deltaTime": 0,
        "channel": 2,
        "type": "channel",
        "noteNumber": 44,
        "velocity": 127,
        "subtype": "noteOn"
      },
      {
        "deltaTime": 0,
        "channel": 2,
        "type": "channel",
        "noteNumber": 37,
        "velocity": 127,
        "subtype": "noteOn"
      },
      {
        "deltaTime": 40,
        "channel": 2,
        "type": "channel",
        "noteNumber": 37,
        "velocity": 0,
        "subtype": "noteOff"
      },
      {
        "deltaTime": 0,
        "channel": 2,
        "type": "channel",
        "noteNumber": 54,
        "velocity": 0,
        "subtype": "noteOff"
      },
      {
        "deltaTime": 0,
        "channel": 2,
        "type": "channel",
        "noteNumber": 49,
        "velocity": 0,
        "subtype": "noteOff"
      },
      {
        "deltaTime": 0,
        "channel": 2,
        "type": "channel",
        "noteNumber": 44,
        "velocity": 0,
        "subtype": "noteOff"
      },
      {
        "deltaTime": 200,
        "channel": 2,
        "type": "channel",
        "noteNumber": 54,
        "velocity": 127,
        "subtype": "noteOn"
      },
      {
        "deltaTime": 0,
        "channel": 2,
        "type": "channel",
        "noteNumber": 49,
        "velocity": 127,
        "subtype": "noteOn"
      },
      {
        "deltaTime": 0,
        "channel": 2,
        "type": "channel",
        "noteNumber": 44,
        "velocity": 127,
        "subtype": "noteOn"
      },
      {
        "deltaTime": 0,
        "channel": 2,
        "type": "channel",
        "noteNumber": 37,
        "velocity": 127,
        "subtype": "noteOn"
      },
      {
        "deltaTime": 40,
        "channel": 2,
        "type": "channel",
        "noteNumber": 37,
        "velocity": 0,
        "subtype": "noteOff"
      },
      {
        "deltaTime": 0,
        "channel": 2,
        "type": "channel",
        "noteNumber": 54,
        "velocity": 0,
        "subtype": "noteOff"
      },
      {
        "deltaTime": 0,
        "channel": 2,
        "type": "channel",
        "noteNumber": 49,
        "velocity": 0,
        "subtype": "noteOff"
      },
      {
        "deltaTime": 0,
        "channel": 2,
        "type": "channel",
        "noteNumber": 44,
        "velocity": 0,
        "subtype": "noteOff"
      },
      {
        "deltaTime": 200,
        "channel": 2,
        "type": "channel",
        "noteNumber": 54,
        "velocity": 127,
        "subtype": "noteOn"
      },
      {
        "deltaTime": 0,
        "channel": 2,
        "type": "channel",
        "noteNumber": 49,
        "velocity": 127,
        "subtype": "noteOn"
      },
      {
        "deltaTime": 0,
        "channel": 2,
        "type": "channel",
        "noteNumber": 44,
        "velocity": 127,
        "subtype": "noteOn"
      },
      {
        "deltaTime": 0,
        "channel": 2,
        "type": "channel",
        "noteNumber": 37,
        "velocity": 127,
        "subtype": "noteOn"
      },
      {
        "deltaTime": 40,
        "channel": 2,
        "type": "channel",
        "noteNumber": 37,
        "velocity": 0,
        "subtype": "noteOff"
      },
      {
        "deltaTime": 0,
        "channel": 2,
        "type": "channel",
        "noteNumber": 54,
        "velocity": 0,
        "subtype": "noteOff"
      },
      {
        "deltaTime": 0,
        "channel": 2,
        "type": "channel",
        "noteNumber": 49,
        "velocity": 0,
        "subtype": "noteOff"
      },
      {
        "deltaTime": 0,
        "channel": 2,
        "type": "channel",
        "noteNumber": 44,
        "velocity": 0,
        "subtype": "noteOff"
      },
      {
        "deltaTime": 200,
        "channel": 2,
        "type": "channel",
        "noteNumber": 70,
        "velocity": 127,
        "subtype": "noteOn"
      },
      {
        "deltaTime": 0,
        "channel": 2,
        "type": "channel",
        "noteNumber": 54,
        "velocity": 127,
        "subtype": "noteOn"
      },
      {
        "deltaTime": 0,
        "channel": 2,
        "type": "channel",
        "noteNumber": 62,
        "velocity": 127,
        "subtype": "noteOn"
      },
      {
        "deltaTime": 0,
        "channel": 2,
        "type": "channel",
        "noteNumber": 53,
        "velocity": 127,
        "subtype": "noteOn"
      },
      {
        "deltaTime": 0,
        "channel": 2,
        "type": "channel",
        "noteNumber": 46,
        "velocity": 127,
        "subtype": "noteOn"
      },
      {
        "deltaTime": 40,
        "channel": 2,
        "type": "channel",
        "noteNumber": 54,
        "velocity": 0,
        "subtype": "noteOff"
      },
      {
        "deltaTime": 680,
        "channel": 2,
        "type": "channel",
        "noteNumber": 53,
        "velocity": 0,
        "subtype": "noteOff"
      },
      {
        "deltaTime": 0,
        "channel": 2,
        "type": "channel",
        "noteNumber": 70,
        "velocity": 0,
        "subtype": "noteOff"
      },
      {
        "deltaTime": 0,
        "channel": 2,
        "type": "channel",
        "noteNumber": 62,
        "velocity": 0,
        "subtype": "noteOff"
      },
      {
        "deltaTime": 0,
        "channel": 2,
        "type": "channel",
        "noteNumber": 46,
        "velocity": 0,
        "subtype": "noteOff"
      },
      {
        "deltaTime": 0,
        "channel": 2,
        "type": "channel",
        "noteNumber": 70,
        "velocity": 127,
        "subtype": "noteOn"
      },
      {
        "deltaTime": 0,
        "channel": 2,
        "type": "channel",
        "noteNumber": 54,
        "velocity": 127,
        "subtype": "noteOn"
      },
      {
        "deltaTime": 0,
        "channel": 2,
        "type": "channel",
        "noteNumber": 62,
        "velocity": 127,
        "subtype": "noteOn"
      },
      {
        "deltaTime": 0,
        "channel": 2,
        "type": "channel",
        "noteNumber": 53,
        "velocity": 127,
        "subtype": "noteOn"
      },
      {
        "deltaTime": 0,
        "channel": 2,
        "type": "channel",
        "noteNumber": 46,
        "velocity": 127,
        "subtype": "noteOn"
      },
      {
        "deltaTime": 40,
        "channel": 2,
        "type": "channel",
        "noteNumber": 54,
        "velocity": 0,
        "subtype": "noteOff"
      },
      {
        "deltaTime": 680,
        "channel": 2,
        "type": "channel",
        "noteNumber": 53,
        "velocity": 0,
        "subtype": "noteOff"
      },
      {
        "deltaTime": 0,
        "channel": 2,
        "type": "channel",
        "noteNumber": 70,
        "velocity": 0,
        "subtype": "noteOff"
      },
      {
        "deltaTime": 0,
        "channel": 2,
        "type": "channel",
        "noteNumber": 62,
        "velocity": 0,
        "subtype": "noteOff"
      },
      {
        "deltaTime": 0,
        "channel": 2,
        "type": "channel",
        "noteNumber": 46,
        "velocity": 0,
        "subtype": "noteOff"
      },
      {
        "deltaTime": 0,
        "channel": 2,
        "type": "channel",
        "noteNumber": 70,
        "velocity": 127,
        "subtype": "noteOn"
      },
      {
        "deltaTime": 0,
        "channel": 2,
        "type": "channel",
        "noteNumber": 54,
        "velocity": 127,
        "subtype": "noteOn"
      },
      {
        "deltaTime": 0,
        "channel": 2,
        "type": "channel",
        "noteNumber": 62,
        "velocity": 127,
        "subtype": "noteOn"
      },
      {
        "deltaTime": 0,
        "channel": 2,
        "type": "channel",
        "noteNumber": 53,
        "velocity": 127,
        "subtype": "noteOn"
      },
      {
        "deltaTime": 0,
        "channel": 2,
        "type": "channel",
        "noteNumber": 46,
        "velocity": 127,
        "subtype": "noteOn"
      },
      {
        "deltaTime": 40,
        "channel": 2,
        "type": "channel",
        "noteNumber": 54,
        "velocity": 0,
        "subtype": "noteOff"
      },
      {
        "deltaTime": 440,
        "channel": 2,
        "type": "channel",
        "noteNumber": 53,
        "velocity": 0,
        "subtype": "noteOff"
      },
      {
        "deltaTime": 0,
        "channel": 2,
        "type": "channel",
        "noteNumber": 70,
        "velocity": 0,
        "subtype": "noteOff"
      },
      {
        "deltaTime": 0,
        "channel": 2,
        "type": "channel",
        "noteNumber": 62,
        "velocity": 0,
        "subtype": "noteOff"
      },
      {
        "deltaTime": 0,
        "channel": 2,
        "type": "channel",
        "noteNumber": 46,
        "velocity": 0,
        "subtype": "noteOff"
      },
      {
        "deltaTime": 0,
        "channel": 2,
        "type": "channel",
        "noteNumber": 54,
        "velocity": 127,
        "subtype": "noteOn"
      },
      {
        "deltaTime": 0,
        "channel": 2,
        "type": "channel",
        "noteNumber": 49,
        "velocity": 127,
        "subtype": "noteOn"
      },
      {
        "deltaTime": 0,
        "channel": 2,
        "type": "channel",
        "noteNumber": 44,
        "velocity": 127,
        "subtype": "noteOn"
      },
      {
        "deltaTime": 0,
        "channel": 2,
        "type": "channel",
        "noteNumber": 37,
        "velocity": 127,
        "subtype": "noteOn"
      },
      {
        "deltaTime": 40,
        "channel": 2,
        "type": "channel",
        "noteNumber": 37,
        "velocity": 0,
        "subtype": "noteOff"
      },
      {
        "deltaTime": 0,
        "channel": 2,
        "type": "channel",
        "noteNumber": 54,
        "velocity": 0,
        "subtype": "noteOff"
      },
      {
        "deltaTime": 0,
        "channel": 2,
        "type": "channel",
        "noteNumber": 49,
        "velocity": 0,
        "subtype": "noteOff"
      },
      {
        "deltaTime": 0,
        "channel": 2,
        "type": "channel",
        "noteNumber": 44,
        "velocity": 0,
        "subtype": "noteOff"
      },
      {
        "deltaTime": 200,
        "channel": 2,
        "type": "channel",
        "noteNumber": 54,
        "velocity": 127,
        "subtype": "noteOn"
      },
      {
        "deltaTime": 0,
        "channel": 2,
        "type": "channel",
        "noteNumber": 49,
        "velocity": 127,
        "subtype": "noteOn"
      },
      {
        "deltaTime": 0,
        "channel": 2,
        "type": "channel",
        "noteNumber": 44,
        "velocity": 127,
        "subtype": "noteOn"
      },
      {
        "deltaTime": 0,
        "channel": 2,
        "type": "channel",
        "noteNumber": 37,
        "velocity": 127,
        "subtype": "noteOn"
      },
      {
        "deltaTime": 40,
        "channel": 2,
        "type": "channel",
        "noteNumber": 37,
        "velocity": 0,
        "subtype": "noteOff"
      },
      {
        "deltaTime": 0,
        "channel": 2,
        "type": "channel",
        "noteNumber": 54,
        "velocity": 0,
        "subtype": "noteOff"
      },
      {
        "deltaTime": 0,
        "channel": 2,
        "type": "channel",
        "noteNumber": 49,
        "velocity": 0,
        "subtype": "noteOff"
      },
      {
        "deltaTime": 0,
        "channel": 2,
        "type": "channel",
        "noteNumber": 44,
        "velocity": 0,
        "subtype": "noteOff"
      },
      {
        "deltaTime": 200,
        "channel": 2,
        "type": "channel",
        "noteNumber": 54,
        "velocity": 127,
        "subtype": "noteOn"
      },
      {
        "deltaTime": 0,
        "channel": 2,
        "type": "channel",
        "noteNumber": 49,
        "velocity": 127,
        "subtype": "noteOn"
      },
      {
        "deltaTime": 0,
        "channel": 2,
        "type": "channel",
        "noteNumber": 44,
        "velocity": 127,
        "subtype": "noteOn"
      },
      {
        "deltaTime": 0,
        "channel": 2,
        "type": "channel",
        "noteNumber": 37,
        "velocity": 127,
        "subtype": "noteOn"
      },
      {
        "deltaTime": 40,
        "channel": 2,
        "type": "channel",
        "noteNumber": 37,
        "velocity": 0,
        "subtype": "noteOff"
      },
      {
        "deltaTime": 0,
        "channel": 2,
        "type": "channel",
        "noteNumber": 54,
        "velocity": 0,
        "subtype": "noteOff"
      },
      {
        "deltaTime": 0,
        "channel": 2,
        "type": "channel",
        "noteNumber": 49,
        "velocity": 0,
        "subtype": "noteOff"
      },
      {
        "deltaTime": 0,
        "channel": 2,
        "type": "channel",
        "noteNumber": 44,
        "velocity": 0,
        "subtype": "noteOff"
      },
      {
        "deltaTime": 200,
        "channel": 2,
        "type": "channel",
        "noteNumber": 54,
        "velocity": 127,
        "subtype": "noteOn"
      },
      {
        "deltaTime": 0,
        "channel": 2,
        "type": "channel",
        "noteNumber": 49,
        "velocity": 127,
        "subtype": "noteOn"
      },
      {
        "deltaTime": 0,
        "channel": 2,
        "type": "channel",
        "noteNumber": 44,
        "velocity": 127,
        "subtype": "noteOn"
      },
      {
        "deltaTime": 0,
        "channel": 2,
        "type": "channel",
        "noteNumber": 37,
        "velocity": 127,
        "subtype": "noteOn"
      },
      {
        "deltaTime": 40,
        "channel": 2,
        "type": "channel",
        "noteNumber": 37,
        "velocity": 0,
        "subtype": "noteOff"
      },
      {
        "deltaTime": 0,
        "channel": 2,
        "type": "channel",
        "noteNumber": 54,
        "velocity": 0,
        "subtype": "noteOff"
      },
      {
        "deltaTime": 0,
        "channel": 2,
        "type": "channel",
        "noteNumber": 49,
        "velocity": 0,
        "subtype": "noteOff"
      },
      {
        "deltaTime": 0,
        "channel": 2,
        "type": "channel",
        "noteNumber": 44,
        "velocity": 0,
        "subtype": "noteOff"
      },
      {
        "deltaTime": 200,
        "channel": 2,
        "type": "channel",
        "noteNumber": 70,
        "velocity": 127,
        "subtype": "noteOn"
      },
      {
        "deltaTime": 0,
        "channel": 2,
        "type": "channel",
        "noteNumber": 67,
        "velocity": 127,
        "subtype": "noteOn"
      },
      {
        "deltaTime": 0,
        "channel": 2,
        "type": "channel",
        "noteNumber": 63,
        "velocity": 127,
        "subtype": "noteOn"
      },
      {
        "deltaTime": 0,
        "channel": 2,
        "type": "channel",
        "noteNumber": 55,
        "velocity": 127,
        "subtype": "noteOn"
      },
      {
        "deltaTime": 0,
        "channel": 2,
        "type": "channel",
        "noteNumber": 48,
        "velocity": 127,
        "subtype": "noteOn"
      },
      {
        "deltaTime": 720,
        "channel": 2,
        "type": "channel",
        "noteNumber": 48,
        "velocity": 0,
        "subtype": "noteOff"
      },
      {
        "deltaTime": 0,
        "channel": 2,
        "type": "channel",
        "noteNumber": 63,
        "velocity": 0,
        "subtype": "noteOff"
      },
      {
        "deltaTime": 0,
        "channel": 2,
        "type": "channel",
        "noteNumber": 70,
        "velocity": 0,
        "subtype": "noteOff"
      },
      {
        "deltaTime": 0,
        "channel": 2,
        "type": "channel",
        "noteNumber": 67,
        "velocity": 0,
        "subtype": "noteOff"
      },
      {
        "deltaTime": 0,
        "channel": 2,
        "type": "channel",
        "noteNumber": 55,
        "velocity": 0,
        "subtype": "noteOff"
      },
      {
        "deltaTime": 0,
        "channel": 2,
        "type": "channel",
        "noteNumber": 70,
        "velocity": 127,
        "subtype": "noteOn"
      },
      {
        "deltaTime": 0,
        "channel": 2,
        "type": "channel",
        "noteNumber": 67,
        "velocity": 127,
        "subtype": "noteOn"
      },
      {
        "deltaTime": 0,
        "channel": 2,
        "type": "channel",
        "noteNumber": 63,
        "velocity": 127,
        "subtype": "noteOn"
      },
      {
        "deltaTime": 0,
        "channel": 2,
        "type": "channel",
        "noteNumber": 55,
        "velocity": 127,
        "subtype": "noteOn"
      },
      {
        "deltaTime": 0,
        "channel": 2,
        "type": "channel",
        "noteNumber": 48,
        "velocity": 127,
        "subtype": "noteOn"
      },
      {
        "deltaTime": 720,
        "channel": 2,
        "type": "channel",
        "noteNumber": 48,
        "velocity": 0,
        "subtype": "noteOff"
      },
      {
        "deltaTime": 0,
        "channel": 2,
        "type": "channel",
        "noteNumber": 63,
        "velocity": 0,
        "subtype": "noteOff"
      },
      {
        "deltaTime": 0,
        "channel": 2,
        "type": "channel",
        "noteNumber": 70,
        "velocity": 0,
        "subtype": "noteOff"
      },
      {
        "deltaTime": 0,
        "channel": 2,
        "type": "channel",
        "noteNumber": 67,
        "velocity": 0,
        "subtype": "noteOff"
      },
      {
        "deltaTime": 0,
        "channel": 2,
        "type": "channel",
        "noteNumber": 55,
        "velocity": 0,
        "subtype": "noteOff"
      },
      {
        "deltaTime": 0,
        "channel": 2,
        "type": "channel",
        "noteNumber": 70,
        "velocity": 127,
        "subtype": "noteOn"
      },
      {
        "deltaTime": 0,
        "channel": 2,
        "type": "channel",
        "noteNumber": 67,
        "velocity": 127,
        "subtype": "noteOn"
      },
      {
        "deltaTime": 0,
        "channel": 2,
        "type": "channel",
        "noteNumber": 63,
        "velocity": 127,
        "subtype": "noteOn"
      },
      {
        "deltaTime": 0,
        "channel": 2,
        "type": "channel",
        "noteNumber": 55,
        "velocity": 127,
        "subtype": "noteOn"
      },
      {
        "deltaTime": 0,
        "channel": 2,
        "type": "channel",
        "noteNumber": 48,
        "velocity": 127,
        "subtype": "noteOn"
      },
      {
        "deltaTime": 480,
        "channel": 2,
        "type": "channel",
        "noteNumber": 48,
        "velocity": 0,
        "subtype": "noteOff"
      },
      {
        "deltaTime": 0,
        "channel": 2,
        "type": "channel",
        "noteNumber": 63,
        "velocity": 0,
        "subtype": "noteOff"
      },
      {
        "deltaTime": 0,
        "channel": 2,
        "type": "channel",
        "noteNumber": 70,
        "velocity": 0,
        "subtype": "noteOff"
      },
      {
        "deltaTime": 0,
        "channel": 2,
        "type": "channel",
        "noteNumber": 67,
        "velocity": 0,
        "subtype": "noteOff"
      },
      {
        "deltaTime": 0,
        "channel": 2,
        "type": "channel",
        "noteNumber": 55,
        "velocity": 0,
        "subtype": "noteOff"
      },
      {
        "deltaTime": 0,
        "channel": 2,
        "type": "channel",
        "noteNumber": 65,
        "velocity": 127,
        "subtype": "noteOn"
      },
      {
        "deltaTime": 0,
        "channel": 2,
        "type": "channel",
        "noteNumber": 54,
        "velocity": 127,
        "subtype": "noteOn"
      },
      {
        "deltaTime": 0,
        "channel": 2,
        "type": "channel",
        "noteNumber": 58,
        "velocity": 127,
        "subtype": "noteOn"
      },
      {
        "deltaTime": 0,
        "channel": 2,
        "type": "channel",
        "noteNumber": 50,
        "velocity": 127,
        "subtype": "noteOn"
      },
      {
        "deltaTime": 0,
        "channel": 2,
        "type": "channel",
        "noteNumber": 43,
        "velocity": 127,
        "subtype": "noteOn"
      },
      {
        "deltaTime": 40,
        "channel": 2,
        "type": "channel",
        "noteNumber": 54,
        "velocity": 0,
        "subtype": "noteOff"
      },
      {
        "deltaTime": 920,
        "channel": 2,
        "type": "channel",
        "noteNumber": 50,
        "velocity": 0,
        "subtype": "noteOff"
      },
      {
        "deltaTime": 0,
        "channel": 2,
        "type": "channel",
        "noteNumber": 65,
        "velocity": 0,
        "subtype": "noteOff"
      },
      {
        "deltaTime": 0,
        "channel": 2,
        "type": "channel",
        "noteNumber": 58,
        "velocity": 0,
        "subtype": "noteOff"
      },
      {
        "deltaTime": 0,
        "channel": 2,
        "type": "channel",
        "noteNumber": 43,
        "velocity": 0,
        "subtype": "noteOff"
      },
      {
        "deltaTime": 0,
        "channel": 2,
        "type": "channel",
        "noteNumber": 67,
        "velocity": 127,
        "subtype": "noteOn"
      },
      {
        "deltaTime": 0,
        "channel": 2,
        "type": "channel",
        "noteNumber": 54,
        "velocity": 127,
        "subtype": "noteOn"
      },
      {
        "deltaTime": 0,
        "channel": 2,
        "type": "channel",
        "noteNumber": 60,
        "velocity": 127,
        "subtype": "noteOn"
      },
      {
        "deltaTime": 0,
        "channel": 2,
        "type": "channel",
        "noteNumber": 51,
        "velocity": 127,
        "subtype": "noteOn"
      },
      {
        "deltaTime": 0,
        "channel": 2,
        "type": "channel",
        "noteNumber": 44,
        "velocity": 127,
        "subtype": "noteOn"
      },
      {
        "deltaTime": 40,
        "channel": 2,
        "type": "channel",
        "noteNumber": 54,
        "velocity": 0,
        "subtype": "noteOff"
      },
      {
        "deltaTime": 680,
        "channel": 2,
        "type": "channel",
        "noteNumber": 51,
        "velocity": 0,
        "subtype": "noteOff"
      },
      {
        "deltaTime": 0,
        "channel": 2,
        "type": "channel",
        "noteNumber": 67,
        "velocity": 0,
        "subtype": "noteOff"
      },
      {
        "deltaTime": 0,
        "channel": 2,
        "type": "channel",
        "noteNumber": 60,
        "velocity": 0,
        "subtype": "noteOff"
      },
      {
        "deltaTime": 0,
        "channel": 2,
        "type": "channel",
        "noteNumber": 44,
        "velocity": 0,
        "subtype": "noteOff"
      },
      {
        "deltaTime": 0,
        "channel": 2,
        "type": "channel",
        "noteNumber": 67,
        "velocity": 127,
        "subtype": "noteOn"
      },
      {
        "deltaTime": 0,
        "channel": 2,
        "type": "channel",
        "noteNumber": 54,
        "velocity": 127,
        "subtype": "noteOn"
      },
      {
        "deltaTime": 0,
        "channel": 2,
        "type": "channel",
        "noteNumber": 60,
        "velocity": 127,
        "subtype": "noteOn"
      },
      {
        "deltaTime": 0,
        "channel": 2,
        "type": "channel",
        "noteNumber": 51,
        "velocity": 127,
        "subtype": "noteOn"
      },
      {
        "deltaTime": 0,
        "channel": 2,
        "type": "channel",
        "noteNumber": 44,
        "velocity": 127,
        "subtype": "noteOn"
      },
      {
        "deltaTime": 40,
        "channel": 2,
        "type": "channel",
        "noteNumber": 54,
        "velocity": 0,
        "subtype": "noteOff"
      },
      {
        "deltaTime": 680,
        "channel": 2,
        "type": "channel",
        "noteNumber": 51,
        "velocity": 0,
        "subtype": "noteOff"
      },
      {
        "deltaTime": 0,
        "channel": 2,
        "type": "channel",
        "noteNumber": 67,
        "velocity": 0,
        "subtype": "noteOff"
      },
      {
        "deltaTime": 0,
        "channel": 2,
        "type": "channel",
        "noteNumber": 60,
        "velocity": 0,
        "subtype": "noteOff"
      },
      {
        "deltaTime": 0,
        "channel": 2,
        "type": "channel",
        "noteNumber": 44,
        "velocity": 0,
        "subtype": "noteOff"
      },
      {
        "deltaTime": 0,
        "channel": 2,
        "type": "channel",
        "noteNumber": 67,
        "velocity": 127,
        "subtype": "noteOn"
      },
      {
        "deltaTime": 0,
        "channel": 2,
        "type": "channel",
        "noteNumber": 54,
        "velocity": 127,
        "subtype": "noteOn"
      },
      {
        "deltaTime": 0,
        "channel": 2,
        "type": "channel",
        "noteNumber": 60,
        "velocity": 127,
        "subtype": "noteOn"
      },
      {
        "deltaTime": 0,
        "channel": 2,
        "type": "channel",
        "noteNumber": 51,
        "velocity": 127,
        "subtype": "noteOn"
      },
      {
        "deltaTime": 0,
        "channel": 2,
        "type": "channel",
        "noteNumber": 44,
        "velocity": 127,
        "subtype": "noteOn"
      },
      {
        "deltaTime": 40,
        "channel": 2,
        "type": "channel",
        "noteNumber": 54,
        "velocity": 0,
        "subtype": "noteOff"
      },
      {
        "deltaTime": 440,
        "channel": 2,
        "type": "channel",
        "noteNumber": 51,
        "velocity": 0,
        "subtype": "noteOff"
      },
      {
        "deltaTime": 0,
        "channel": 2,
        "type": "channel",
        "noteNumber": 67,
        "velocity": 0,
        "subtype": "noteOff"
      },
      {
        "deltaTime": 0,
        "channel": 2,
        "type": "channel",
        "noteNumber": 60,
        "velocity": 0,
        "subtype": "noteOff"
      },
      {
        "deltaTime": 0,
        "channel": 2,
        "type": "channel",
        "noteNumber": 44,
        "velocity": 0,
        "subtype": "noteOff"
      },
      {
        "deltaTime": 0,
        "channel": 2,
        "type": "channel",
        "noteNumber": 54,
        "velocity": 127,
        "subtype": "noteOn"
      },
      {
        "deltaTime": 0,
        "channel": 2,
        "type": "channel",
        "noteNumber": 49,
        "velocity": 127,
        "subtype": "noteOn"
      },
      {
        "deltaTime": 0,
        "channel": 2,
        "type": "channel",
        "noteNumber": 44,
        "velocity": 127,
        "subtype": "noteOn"
      },
      {
        "deltaTime": 0,
        "channel": 2,
        "type": "channel",
        "noteNumber": 37,
        "velocity": 127,
        "subtype": "noteOn"
      },
      {
        "deltaTime": 40,
        "channel": 2,
        "type": "channel",
        "noteNumber": 37,
        "velocity": 0,
        "subtype": "noteOff"
      },
      {
        "deltaTime": 0,
        "channel": 2,
        "type": "channel",
        "noteNumber": 54,
        "velocity": 0,
        "subtype": "noteOff"
      },
      {
        "deltaTime": 0,
        "channel": 2,
        "type": "channel",
        "noteNumber": 49,
        "velocity": 0,
        "subtype": "noteOff"
      },
      {
        "deltaTime": 0,
        "channel": 2,
        "type": "channel",
        "noteNumber": 44,
        "velocity": 0,
        "subtype": "noteOff"
      },
      {
        "deltaTime": 200,
        "channel": 2,
        "type": "channel",
        "noteNumber": 54,
        "velocity": 127,
        "subtype": "noteOn"
      },
      {
        "deltaTime": 0,
        "channel": 2,
        "type": "channel",
        "noteNumber": 49,
        "velocity": 127,
        "subtype": "noteOn"
      },
      {
        "deltaTime": 0,
        "channel": 2,
        "type": "channel",
        "noteNumber": 44,
        "velocity": 127,
        "subtype": "noteOn"
      },
      {
        "deltaTime": 0,
        "channel": 2,
        "type": "channel",
        "noteNumber": 37,
        "velocity": 127,
        "subtype": "noteOn"
      },
      {
        "deltaTime": 40,
        "channel": 2,
        "type": "channel",
        "noteNumber": 37,
        "velocity": 0,
        "subtype": "noteOff"
      },
      {
        "deltaTime": 0,
        "channel": 2,
        "type": "channel",
        "noteNumber": 54,
        "velocity": 0,
        "subtype": "noteOff"
      },
      {
        "deltaTime": 0,
        "channel": 2,
        "type": "channel",
        "noteNumber": 49,
        "velocity": 0,
        "subtype": "noteOff"
      },
      {
        "deltaTime": 0,
        "channel": 2,
        "type": "channel",
        "noteNumber": 44,
        "velocity": 0,
        "subtype": "noteOff"
      },
      {
        "deltaTime": 200,
        "channel": 2,
        "type": "channel",
        "noteNumber": 54,
        "velocity": 127,
        "subtype": "noteOn"
      },
      {
        "deltaTime": 0,
        "channel": 2,
        "type": "channel",
        "noteNumber": 49,
        "velocity": 127,
        "subtype": "noteOn"
      },
      {
        "deltaTime": 0,
        "channel": 2,
        "type": "channel",
        "noteNumber": 44,
        "velocity": 127,
        "subtype": "noteOn"
      },
      {
        "deltaTime": 0,
        "channel": 2,
        "type": "channel",
        "noteNumber": 37,
        "velocity": 127,
        "subtype": "noteOn"
      },
      {
        "deltaTime": 40,
        "channel": 2,
        "type": "channel",
        "noteNumber": 37,
        "velocity": 0,
        "subtype": "noteOff"
      },
      {
        "deltaTime": 0,
        "channel": 2,
        "type": "channel",
        "noteNumber": 54,
        "velocity": 0,
        "subtype": "noteOff"
      },
      {
        "deltaTime": 0,
        "channel": 2,
        "type": "channel",
        "noteNumber": 49,
        "velocity": 0,
        "subtype": "noteOff"
      },
      {
        "deltaTime": 0,
        "channel": 2,
        "type": "channel",
        "noteNumber": 44,
        "velocity": 0,
        "subtype": "noteOff"
      },
      {
        "deltaTime": 200,
        "channel": 2,
        "type": "channel",
        "noteNumber": 54,
        "velocity": 127,
        "subtype": "noteOn"
      },
      {
        "deltaTime": 0,
        "channel": 2,
        "type": "channel",
        "noteNumber": 49,
        "velocity": 127,
        "subtype": "noteOn"
      },
      {
        "deltaTime": 0,
        "channel": 2,
        "type": "channel",
        "noteNumber": 44,
        "velocity": 127,
        "subtype": "noteOn"
      },
      {
        "deltaTime": 0,
        "channel": 2,
        "type": "channel",
        "noteNumber": 37,
        "velocity": 127,
        "subtype": "noteOn"
      },
      {
        "deltaTime": 40,
        "channel": 2,
        "type": "channel",
        "noteNumber": 37,
        "velocity": 0,
        "subtype": "noteOff"
      },
      {
        "deltaTime": 0,
        "channel": 2,
        "type": "channel",
        "noteNumber": 54,
        "velocity": 0,
        "subtype": "noteOff"
      },
      {
        "deltaTime": 0,
        "channel": 2,
        "type": "channel",
        "noteNumber": 49,
        "velocity": 0,
        "subtype": "noteOff"
      },
      {
        "deltaTime": 0,
        "channel": 2,
        "type": "channel",
        "noteNumber": 44,
        "velocity": 0,
        "subtype": "noteOff"
      },
      {
        "deltaTime": 200,
        "channel": 2,
        "type": "channel",
        "noteNumber": 67,
        "velocity": 127,
        "subtype": "noteOn"
      },
      {
        "deltaTime": 0,
        "channel": 2,
        "type": "channel",
        "noteNumber": 54,
        "velocity": 127,
        "subtype": "noteOn"
      },
      {
        "deltaTime": 0,
        "channel": 2,
        "type": "channel",
        "noteNumber": 60,
        "velocity": 127,
        "subtype": "noteOn"
      },
      {
        "deltaTime": 0,
        "channel": 2,
        "type": "channel",
        "noteNumber": 51,
        "velocity": 127,
        "subtype": "noteOn"
      },
      {
        "deltaTime": 0,
        "channel": 2,
        "type": "channel",
        "noteNumber": 44,
        "velocity": 127,
        "subtype": "noteOn"
      },
      {
        "deltaTime": 40,
        "channel": 2,
        "type": "channel",
        "noteNumber": 54,
        "velocity": 0,
        "subtype": "noteOff"
      },
      {
        "deltaTime": 680,
        "channel": 2,
        "type": "channel",
        "noteNumber": 51,
        "velocity": 0,
        "subtype": "noteOff"
      },
      {
        "deltaTime": 0,
        "channel": 2,
        "type": "channel",
        "noteNumber": 67,
        "velocity": 0,
        "subtype": "noteOff"
      },
      {
        "deltaTime": 0,
        "channel": 2,
        "type": "channel",
        "noteNumber": 60,
        "velocity": 0,
        "subtype": "noteOff"
      },
      {
        "deltaTime": 0,
        "channel": 2,
        "type": "channel",
        "noteNumber": 44,
        "velocity": 0,
        "subtype": "noteOff"
      },
      {
        "deltaTime": 0,
        "channel": 2,
        "type": "channel",
        "noteNumber": 67,
        "velocity": 127,
        "subtype": "noteOn"
      },
      {
        "deltaTime": 0,
        "channel": 2,
        "type": "channel",
        "noteNumber": 54,
        "velocity": 127,
        "subtype": "noteOn"
      },
      {
        "deltaTime": 0,
        "channel": 2,
        "type": "channel",
        "noteNumber": 60,
        "velocity": 127,
        "subtype": "noteOn"
      },
      {
        "deltaTime": 0,
        "channel": 2,
        "type": "channel",
        "noteNumber": 51,
        "velocity": 127,
        "subtype": "noteOn"
      },
      {
        "deltaTime": 0,
        "channel": 2,
        "type": "channel",
        "noteNumber": 44,
        "velocity": 127,
        "subtype": "noteOn"
      },
      {
        "deltaTime": 40,
        "channel": 2,
        "type": "channel",
        "noteNumber": 54,
        "velocity": 0,
        "subtype": "noteOff"
      },
      {
        "deltaTime": 680,
        "channel": 2,
        "type": "channel",
        "noteNumber": 51,
        "velocity": 0,
        "subtype": "noteOff"
      },
      {
        "deltaTime": 0,
        "channel": 2,
        "type": "channel",
        "noteNumber": 67,
        "velocity": 0,
        "subtype": "noteOff"
      },
      {
        "deltaTime": 0,
        "channel": 2,
        "type": "channel",
        "noteNumber": 60,
        "velocity": 0,
        "subtype": "noteOff"
      },
      {
        "deltaTime": 0,
        "channel": 2,
        "type": "channel",
        "noteNumber": 44,
        "velocity": 0,
        "subtype": "noteOff"
      },
      {
        "deltaTime": 0,
        "channel": 2,
        "type": "channel",
        "noteNumber": 67,
        "velocity": 127,
        "subtype": "noteOn"
      },
      {
        "deltaTime": 0,
        "channel": 2,
        "type": "channel",
        "noteNumber": 54,
        "velocity": 127,
        "subtype": "noteOn"
      },
      {
        "deltaTime": 0,
        "channel": 2,
        "type": "channel",
        "noteNumber": 60,
        "velocity": 127,
        "subtype": "noteOn"
      },
      {
        "deltaTime": 0,
        "channel": 2,
        "type": "channel",
        "noteNumber": 51,
        "velocity": 127,
        "subtype": "noteOn"
      },
      {
        "deltaTime": 0,
        "channel": 2,
        "type": "channel",
        "noteNumber": 44,
        "velocity": 127,
        "subtype": "noteOn"
      },
      {
        "deltaTime": 40,
        "channel": 2,
        "type": "channel",
        "noteNumber": 54,
        "velocity": 0,
        "subtype": "noteOff"
      },
      {
        "deltaTime": 440,
        "channel": 2,
        "type": "channel",
        "noteNumber": 51,
        "velocity": 0,
        "subtype": "noteOff"
      },
      {
        "deltaTime": 0,
        "channel": 2,
        "type": "channel",
        "noteNumber": 67,
        "velocity": 0,
        "subtype": "noteOff"
      },
      {
        "deltaTime": 0,
        "channel": 2,
        "type": "channel",
        "noteNumber": 60,
        "velocity": 0,
        "subtype": "noteOff"
      },
      {
        "deltaTime": 0,
        "channel": 2,
        "type": "channel",
        "noteNumber": 44,
        "velocity": 0,
        "subtype": "noteOff"
      },
      {
        "deltaTime": 0,
        "channel": 2,
        "type": "channel",
        "noteNumber": 54,
        "velocity": 127,
        "subtype": "noteOn"
      },
      {
        "deltaTime": 0,
        "channel": 2,
        "type": "channel",
        "noteNumber": 49,
        "velocity": 127,
        "subtype": "noteOn"
      },
      {
        "deltaTime": 0,
        "channel": 2,
        "type": "channel",
        "noteNumber": 44,
        "velocity": 127,
        "subtype": "noteOn"
      },
      {
        "deltaTime": 0,
        "channel": 2,
        "type": "channel",
        "noteNumber": 37,
        "velocity": 127,
        "subtype": "noteOn"
      },
      {
        "deltaTime": 40,
        "channel": 2,
        "type": "channel",
        "noteNumber": 37,
        "velocity": 0,
        "subtype": "noteOff"
      },
      {
        "deltaTime": 0,
        "channel": 2,
        "type": "channel",
        "noteNumber": 54,
        "velocity": 0,
        "subtype": "noteOff"
      },
      {
        "deltaTime": 0,
        "channel": 2,
        "type": "channel",
        "noteNumber": 49,
        "velocity": 0,
        "subtype": "noteOff"
      },
      {
        "deltaTime": 0,
        "channel": 2,
        "type": "channel",
        "noteNumber": 44,
        "velocity": 0,
        "subtype": "noteOff"
      },
      {
        "deltaTime": 200,
        "channel": 2,
        "type": "channel",
        "noteNumber": 54,
        "velocity": 127,
        "subtype": "noteOn"
      },
      {
        "deltaTime": 0,
        "channel": 2,
        "type": "channel",
        "noteNumber": 49,
        "velocity": 127,
        "subtype": "noteOn"
      },
      {
        "deltaTime": 0,
        "channel": 2,
        "type": "channel",
        "noteNumber": 44,
        "velocity": 127,
        "subtype": "noteOn"
      },
      {
        "deltaTime": 0,
        "channel": 2,
        "type": "channel",
        "noteNumber": 37,
        "velocity": 127,
        "subtype": "noteOn"
      },
      {
        "deltaTime": 40,
        "channel": 2,
        "type": "channel",
        "noteNumber": 37,
        "velocity": 0,
        "subtype": "noteOff"
      },
      {
        "deltaTime": 0,
        "channel": 2,
        "type": "channel",
        "noteNumber": 54,
        "velocity": 0,
        "subtype": "noteOff"
      },
      {
        "deltaTime": 0,
        "channel": 2,
        "type": "channel",
        "noteNumber": 49,
        "velocity": 0,
        "subtype": "noteOff"
      },
      {
        "deltaTime": 0,
        "channel": 2,
        "type": "channel",
        "noteNumber": 44,
        "velocity": 0,
        "subtype": "noteOff"
      },
      {
        "deltaTime": 200,
        "channel": 2,
        "type": "channel",
        "noteNumber": 54,
        "velocity": 127,
        "subtype": "noteOn"
      },
      {
        "deltaTime": 0,
        "channel": 2,
        "type": "channel",
        "noteNumber": 49,
        "velocity": 127,
        "subtype": "noteOn"
      },
      {
        "deltaTime": 0,
        "channel": 2,
        "type": "channel",
        "noteNumber": 44,
        "velocity": 127,
        "subtype": "noteOn"
      },
      {
        "deltaTime": 0,
        "channel": 2,
        "type": "channel",
        "noteNumber": 37,
        "velocity": 127,
        "subtype": "noteOn"
      },
      {
        "deltaTime": 40,
        "channel": 2,
        "type": "channel",
        "noteNumber": 37,
        "velocity": 0,
        "subtype": "noteOff"
      },
      {
        "deltaTime": 0,
        "channel": 2,
        "type": "channel",
        "noteNumber": 54,
        "velocity": 0,
        "subtype": "noteOff"
      },
      {
        "deltaTime": 0,
        "channel": 2,
        "type": "channel",
        "noteNumber": 49,
        "velocity": 0,
        "subtype": "noteOff"
      },
      {
        "deltaTime": 0,
        "channel": 2,
        "type": "channel",
        "noteNumber": 44,
        "velocity": 0,
        "subtype": "noteOff"
      },
      {
        "deltaTime": 200,
        "channel": 2,
        "type": "channel",
        "noteNumber": 54,
        "velocity": 127,
        "subtype": "noteOn"
      },
      {
        "deltaTime": 0,
        "channel": 2,
        "type": "channel",
        "noteNumber": 49,
        "velocity": 127,
        "subtype": "noteOn"
      },
      {
        "deltaTime": 0,
        "channel": 2,
        "type": "channel",
        "noteNumber": 44,
        "velocity": 127,
        "subtype": "noteOn"
      },
      {
        "deltaTime": 0,
        "channel": 2,
        "type": "channel",
        "noteNumber": 37,
        "velocity": 127,
        "subtype": "noteOn"
      },
      {
        "deltaTime": 40,
        "channel": 2,
        "type": "channel",
        "noteNumber": 37,
        "velocity": 0,
        "subtype": "noteOff"
      },
      {
        "deltaTime": 0,
        "channel": 2,
        "type": "channel",
        "noteNumber": 54,
        "velocity": 0,
        "subtype": "noteOff"
      },
      {
        "deltaTime": 0,
        "channel": 2,
        "type": "channel",
        "noteNumber": 49,
        "velocity": 0,
        "subtype": "noteOff"
      },
      {
        "deltaTime": 0,
        "channel": 2,
        "type": "channel",
        "noteNumber": 44,
        "velocity": 0,
        "subtype": "noteOff"
      },
      {
        "deltaTime": 200,
        "channel": 2,
        "type": "channel",
        "noteNumber": 70,
        "velocity": 127,
        "subtype": "noteOn"
      },
      {
        "deltaTime": 0,
        "channel": 2,
        "type": "channel",
        "noteNumber": 54,
        "velocity": 127,
        "subtype": "noteOn"
      },
      {
        "deltaTime": 0,
        "channel": 2,
        "type": "channel",
        "noteNumber": 62,
        "velocity": 127,
        "subtype": "noteOn"
      },
      {
        "deltaTime": 0,
        "channel": 2,
        "type": "channel",
        "noteNumber": 53,
        "velocity": 127,
        "subtype": "noteOn"
      },
      {
        "deltaTime": 0,
        "channel": 2,
        "type": "channel",
        "noteNumber": 46,
        "velocity": 127,
        "subtype": "noteOn"
      },
      {
        "deltaTime": 40,
        "channel": 2,
        "type": "channel",
        "noteNumber": 54,
        "velocity": 0,
        "subtype": "noteOff"
      },
      {
        "deltaTime": 680,
        "channel": 2,
        "type": "channel",
        "noteNumber": 53,
        "velocity": 0,
        "subtype": "noteOff"
      },
      {
        "deltaTime": 0,
        "channel": 2,
        "type": "channel",
        "noteNumber": 70,
        "velocity": 0,
        "subtype": "noteOff"
      },
      {
        "deltaTime": 0,
        "channel": 2,
        "type": "channel",
        "noteNumber": 62,
        "velocity": 0,
        "subtype": "noteOff"
      },
      {
        "deltaTime": 0,
        "channel": 2,
        "type": "channel",
        "noteNumber": 46,
        "velocity": 0,
        "subtype": "noteOff"
      },
      {
        "deltaTime": 0,
        "channel": 2,
        "type": "channel",
        "noteNumber": 70,
        "velocity": 127,
        "subtype": "noteOn"
      },
      {
        "deltaTime": 0,
        "channel": 2,
        "type": "channel",
        "noteNumber": 54,
        "velocity": 127,
        "subtype": "noteOn"
      },
      {
        "deltaTime": 0,
        "channel": 2,
        "type": "channel",
        "noteNumber": 62,
        "velocity": 127,
        "subtype": "noteOn"
      },
      {
        "deltaTime": 0,
        "channel": 2,
        "type": "channel",
        "noteNumber": 53,
        "velocity": 127,
        "subtype": "noteOn"
      },
      {
        "deltaTime": 0,
        "channel": 2,
        "type": "channel",
        "noteNumber": 46,
        "velocity": 127,
        "subtype": "noteOn"
      },
      {
        "deltaTime": 40,
        "channel": 2,
        "type": "channel",
        "noteNumber": 54,
        "velocity": 0,
        "subtype": "noteOff"
      },
      {
        "deltaTime": 680,
        "channel": 2,
        "type": "channel",
        "noteNumber": 53,
        "velocity": 0,
        "subtype": "noteOff"
      },
      {
        "deltaTime": 0,
        "channel": 2,
        "type": "channel",
        "noteNumber": 70,
        "velocity": 0,
        "subtype": "noteOff"
      },
      {
        "deltaTime": 0,
        "channel": 2,
        "type": "channel",
        "noteNumber": 62,
        "velocity": 0,
        "subtype": "noteOff"
      },
      {
        "deltaTime": 0,
        "channel": 2,
        "type": "channel",
        "noteNumber": 46,
        "velocity": 0,
        "subtype": "noteOff"
      },
      {
        "deltaTime": 0,
        "channel": 2,
        "type": "channel",
        "noteNumber": 70,
        "velocity": 127,
        "subtype": "noteOn"
      },
      {
        "deltaTime": 0,
        "channel": 2,
        "type": "channel",
        "noteNumber": 54,
        "velocity": 127,
        "subtype": "noteOn"
      },
      {
        "deltaTime": 0,
        "channel": 2,
        "type": "channel",
        "noteNumber": 62,
        "velocity": 127,
        "subtype": "noteOn"
      },
      {
        "deltaTime": 0,
        "channel": 2,
        "type": "channel",
        "noteNumber": 53,
        "velocity": 127,
        "subtype": "noteOn"
      },
      {
        "deltaTime": 0,
        "channel": 2,
        "type": "channel",
        "noteNumber": 46,
        "velocity": 127,
        "subtype": "noteOn"
      },
      {
        "deltaTime": 40,
        "channel": 2,
        "type": "channel",
        "noteNumber": 54,
        "velocity": 0,
        "subtype": "noteOff"
      },
      {
        "deltaTime": 440,
        "channel": 2,
        "type": "channel",
        "noteNumber": 53,
        "velocity": 0,
        "subtype": "noteOff"
      },
      {
        "deltaTime": 0,
        "channel": 2,
        "type": "channel",
        "noteNumber": 70,
        "velocity": 0,
        "subtype": "noteOff"
      },
      {
        "deltaTime": 0,
        "channel": 2,
        "type": "channel",
        "noteNumber": 62,
        "velocity": 0,
        "subtype": "noteOff"
      },
      {
        "deltaTime": 0,
        "channel": 2,
        "type": "channel",
        "noteNumber": 46,
        "velocity": 0,
        "subtype": "noteOff"
      },
      {
        "deltaTime": 0,
        "channel": 2,
        "type": "channel",
        "noteNumber": 54,
        "velocity": 127,
        "subtype": "noteOn"
      },
      {
        "deltaTime": 0,
        "channel": 2,
        "type": "channel",
        "noteNumber": 49,
        "velocity": 127,
        "subtype": "noteOn"
      },
      {
        "deltaTime": 0,
        "channel": 2,
        "type": "channel",
        "noteNumber": 44,
        "velocity": 127,
        "subtype": "noteOn"
      },
      {
        "deltaTime": 0,
        "channel": 2,
        "type": "channel",
        "noteNumber": 37,
        "velocity": 127,
        "subtype": "noteOn"
      },
      {
        "deltaTime": 40,
        "channel": 2,
        "type": "channel",
        "noteNumber": 37,
        "velocity": 0,
        "subtype": "noteOff"
      },
      {
        "deltaTime": 0,
        "channel": 2,
        "type": "channel",
        "noteNumber": 54,
        "velocity": 0,
        "subtype": "noteOff"
      },
      {
        "deltaTime": 0,
        "channel": 2,
        "type": "channel",
        "noteNumber": 49,
        "velocity": 0,
        "subtype": "noteOff"
      },
      {
        "deltaTime": 0,
        "channel": 2,
        "type": "channel",
        "noteNumber": 44,
        "velocity": 0,
        "subtype": "noteOff"
      },
      {
        "deltaTime": 200,
        "channel": 2,
        "type": "channel",
        "noteNumber": 54,
        "velocity": 127,
        "subtype": "noteOn"
      },
      {
        "deltaTime": 0,
        "channel": 2,
        "type": "channel",
        "noteNumber": 49,
        "velocity": 127,
        "subtype": "noteOn"
      },
      {
        "deltaTime": 0,
        "channel": 2,
        "type": "channel",
        "noteNumber": 44,
        "velocity": 127,
        "subtype": "noteOn"
      },
      {
        "deltaTime": 0,
        "channel": 2,
        "type": "channel",
        "noteNumber": 37,
        "velocity": 127,
        "subtype": "noteOn"
      },
      {
        "deltaTime": 40,
        "channel": 2,
        "type": "channel",
        "noteNumber": 37,
        "velocity": 0,
        "subtype": "noteOff"
      },
      {
        "deltaTime": 0,
        "channel": 2,
        "type": "channel",
        "noteNumber": 54,
        "velocity": 0,
        "subtype": "noteOff"
      },
      {
        "deltaTime": 0,
        "channel": 2,
        "type": "channel",
        "noteNumber": 49,
        "velocity": 0,
        "subtype": "noteOff"
      },
      {
        "deltaTime": 0,
        "channel": 2,
        "type": "channel",
        "noteNumber": 44,
        "velocity": 0,
        "subtype": "noteOff"
      },
      {
        "deltaTime": 200,
        "channel": 2,
        "type": "channel",
        "noteNumber": 54,
        "velocity": 127,
        "subtype": "noteOn"
      },
      {
        "deltaTime": 0,
        "channel": 2,
        "type": "channel",
        "noteNumber": 49,
        "velocity": 127,
        "subtype": "noteOn"
      },
      {
        "deltaTime": 0,
        "channel": 2,
        "type": "channel",
        "noteNumber": 44,
        "velocity": 127,
        "subtype": "noteOn"
      },
      {
        "deltaTime": 0,
        "channel": 2,
        "type": "channel",
        "noteNumber": 37,
        "velocity": 127,
        "subtype": "noteOn"
      },
      {
        "deltaTime": 40,
        "channel": 2,
        "type": "channel",
        "noteNumber": 37,
        "velocity": 0,
        "subtype": "noteOff"
      },
      {
        "deltaTime": 0,
        "channel": 2,
        "type": "channel",
        "noteNumber": 54,
        "velocity": 0,
        "subtype": "noteOff"
      },
      {
        "deltaTime": 0,
        "channel": 2,
        "type": "channel",
        "noteNumber": 49,
        "velocity": 0,
        "subtype": "noteOff"
      },
      {
        "deltaTime": 0,
        "channel": 2,
        "type": "channel",
        "noteNumber": 44,
        "velocity": 0,
        "subtype": "noteOff"
      },
      {
        "deltaTime": 200,
        "channel": 2,
        "type": "channel",
        "noteNumber": 54,
        "velocity": 127,
        "subtype": "noteOn"
      },
      {
        "deltaTime": 0,
        "channel": 2,
        "type": "channel",
        "noteNumber": 49,
        "velocity": 127,
        "subtype": "noteOn"
      },
      {
        "deltaTime": 0,
        "channel": 2,
        "type": "channel",
        "noteNumber": 44,
        "velocity": 127,
        "subtype": "noteOn"
      },
      {
        "deltaTime": 0,
        "channel": 2,
        "type": "channel",
        "noteNumber": 37,
        "velocity": 127,
        "subtype": "noteOn"
      },
      {
        "deltaTime": 40,
        "channel": 2,
        "type": "channel",
        "noteNumber": 37,
        "velocity": 0,
        "subtype": "noteOff"
      },
      {
        "deltaTime": 0,
        "channel": 2,
        "type": "channel",
        "noteNumber": 54,
        "velocity": 0,
        "subtype": "noteOff"
      },
      {
        "deltaTime": 0,
        "channel": 2,
        "type": "channel",
        "noteNumber": 49,
        "velocity": 0,
        "subtype": "noteOff"
      },
      {
        "deltaTime": 0,
        "channel": 2,
        "type": "channel",
        "noteNumber": 44,
        "velocity": 0,
        "subtype": "noteOff"
      },
      {
        "deltaTime": 200,
        "channel": 2,
        "type": "channel",
        "noteNumber": 70,
        "velocity": 127,
        "subtype": "noteOn"
      },
      {
        "deltaTime": 0,
        "channel": 2,
        "type": "channel",
        "noteNumber": 67,
        "velocity": 127,
        "subtype": "noteOn"
      },
      {
        "deltaTime": 0,
        "channel": 2,
        "type": "channel",
        "noteNumber": 63,
        "velocity": 127,
        "subtype": "noteOn"
      },
      {
        "deltaTime": 0,
        "channel": 2,
        "type": "channel",
        "noteNumber": 55,
        "velocity": 127,
        "subtype": "noteOn"
      },
      {
        "deltaTime": 0,
        "channel": 2,
        "type": "channel",
        "noteNumber": 48,
        "velocity": 127,
        "subtype": "noteOn"
      },
      {
        "deltaTime": 720,
        "channel": 2,
        "type": "channel",
        "noteNumber": 48,
        "velocity": 0,
        "subtype": "noteOff"
      },
      {
        "deltaTime": 0,
        "channel": 2,
        "type": "channel",
        "noteNumber": 63,
        "velocity": 0,
        "subtype": "noteOff"
      },
      {
        "deltaTime": 0,
        "channel": 2,
        "type": "channel",
        "noteNumber": 70,
        "velocity": 0,
        "subtype": "noteOff"
      },
      {
        "deltaTime": 0,
        "channel": 2,
        "type": "channel",
        "noteNumber": 67,
        "velocity": 0,
        "subtype": "noteOff"
      },
      {
        "deltaTime": 0,
        "channel": 2,
        "type": "channel",
        "noteNumber": 55,
        "velocity": 0,
        "subtype": "noteOff"
      },
      {
        "deltaTime": 0,
        "channel": 2,
        "type": "channel",
        "noteNumber": 70,
        "velocity": 127,
        "subtype": "noteOn"
      },
      {
        "deltaTime": 0,
        "channel": 2,
        "type": "channel",
        "noteNumber": 67,
        "velocity": 127,
        "subtype": "noteOn"
      },
      {
        "deltaTime": 0,
        "channel": 2,
        "type": "channel",
        "noteNumber": 63,
        "velocity": 127,
        "subtype": "noteOn"
      },
      {
        "deltaTime": 0,
        "channel": 2,
        "type": "channel",
        "noteNumber": 55,
        "velocity": 127,
        "subtype": "noteOn"
      },
      {
        "deltaTime": 0,
        "channel": 2,
        "type": "channel",
        "noteNumber": 48,
        "velocity": 127,
        "subtype": "noteOn"
      },
      {
        "deltaTime": 720,
        "channel": 2,
        "type": "channel",
        "noteNumber": 48,
        "velocity": 0,
        "subtype": "noteOff"
      },
      {
        "deltaTime": 0,
        "channel": 2,
        "type": "channel",
        "noteNumber": 63,
        "velocity": 0,
        "subtype": "noteOff"
      },
      {
        "deltaTime": 0,
        "channel": 2,
        "type": "channel",
        "noteNumber": 70,
        "velocity": 0,
        "subtype": "noteOff"
      },
      {
        "deltaTime": 0,
        "channel": 2,
        "type": "channel",
        "noteNumber": 67,
        "velocity": 0,
        "subtype": "noteOff"
      },
      {
        "deltaTime": 0,
        "channel": 2,
        "type": "channel",
        "noteNumber": 55,
        "velocity": 0,
        "subtype": "noteOff"
      },
      {
        "deltaTime": 0,
        "channel": 2,
        "type": "channel",
        "noteNumber": 70,
        "velocity": 127,
        "subtype": "noteOn"
      },
      {
        "deltaTime": 0,
        "channel": 2,
        "type": "channel",
        "noteNumber": 67,
        "velocity": 127,
        "subtype": "noteOn"
      },
      {
        "deltaTime": 0,
        "channel": 2,
        "type": "channel",
        "noteNumber": 63,
        "velocity": 127,
        "subtype": "noteOn"
      },
      {
        "deltaTime": 0,
        "channel": 2,
        "type": "channel",
        "noteNumber": 55,
        "velocity": 127,
        "subtype": "noteOn"
      },
      {
        "deltaTime": 0,
        "channel": 2,
        "type": "channel",
        "noteNumber": 48,
        "velocity": 127,
        "subtype": "noteOn"
      },
      {
        "deltaTime": 480,
        "channel": 2,
        "type": "channel",
        "noteNumber": 48,
        "velocity": 0,
        "subtype": "noteOff"
      },
      {
        "deltaTime": 0,
        "channel": 2,
        "type": "channel",
        "noteNumber": 63,
        "velocity": 0,
        "subtype": "noteOff"
      },
      {
        "deltaTime": 0,
        "channel": 2,
        "type": "channel",
        "noteNumber": 70,
        "velocity": 0,
        "subtype": "noteOff"
      },
      {
        "deltaTime": 0,
        "channel": 2,
        "type": "channel",
        "noteNumber": 67,
        "velocity": 0,
        "subtype": "noteOff"
      },
      {
        "deltaTime": 0,
        "channel": 2,
        "type": "channel",
        "noteNumber": 55,
        "velocity": 0,
        "subtype": "noteOff"
      },
      {
        "deltaTime": 0,
        "channel": 2,
        "type": "channel",
        "noteNumber": 65,
        "velocity": 127,
        "subtype": "noteOn"
      },
      {
        "deltaTime": 0,
        "channel": 2,
        "type": "channel",
        "noteNumber": 54,
        "velocity": 127,
        "subtype": "noteOn"
      },
      {
        "deltaTime": 0,
        "channel": 2,
        "type": "channel",
        "noteNumber": 58,
        "velocity": 127,
        "subtype": "noteOn"
      },
      {
        "deltaTime": 0,
        "channel": 2,
        "type": "channel",
        "noteNumber": 50,
        "velocity": 127,
        "subtype": "noteOn"
      },
      {
        "deltaTime": 0,
        "channel": 2,
        "type": "channel",
        "noteNumber": 43,
        "velocity": 127,
        "subtype": "noteOn"
      },
      {
        "deltaTime": 40,
        "channel": 2,
        "type": "channel",
        "noteNumber": 54,
        "velocity": 0,
        "subtype": "noteOff"
      },
      {
        "deltaTime": 920,
        "channel": 2,
        "type": "channel",
        "noteNumber": 50,
        "velocity": 0,
        "subtype": "noteOff"
      },
      {
        "deltaTime": 0,
        "channel": 2,
        "type": "channel",
        "noteNumber": 65,
        "velocity": 0,
        "subtype": "noteOff"
      },
      {
        "deltaTime": 0,
        "channel": 2,
        "type": "channel",
        "noteNumber": 58,
        "velocity": 0,
        "subtype": "noteOff"
      },
      {
        "deltaTime": 0,
        "channel": 2,
        "type": "channel",
        "noteNumber": 43,
        "velocity": 0,
        "subtype": "noteOff"
      },
      {
        "deltaTime": 7680,
        "channel": 2,
        "type": "channel",
        "noteNumber": 58,
        "velocity": 127,
        "subtype": "noteOn"
      },
      {
        "deltaTime": 0,
        "channel": 2,
        "type": "channel",
        "noteNumber": 53,
        "velocity": 127,
        "subtype": "noteOn"
      },
      {
        "deltaTime": 0,
        "channel": 2,
        "type": "channel",
        "noteNumber": 46,
        "velocity": 127,
        "subtype": "noteOn"
      },
      {
        "deltaTime": 360,
        "channel": 2,
        "type": "channel",
        "noteNumber": 46,
        "velocity": 0,
        "subtype": "noteOff"
      },
      {
        "deltaTime": 0,
        "channel": 2,
        "type": "channel",
        "noteNumber": 53,
        "velocity": 0,
        "subtype": "noteOff"
      },
      {
        "deltaTime": 0,
        "channel": 2,
        "type": "channel",
        "noteNumber": 58,
        "velocity": 0,
        "subtype": "noteOff"
      },
      {
        "deltaTime": 120,
        "channel": 2,
        "type": "channel",
        "noteNumber": 58,
        "velocity": 127,
        "subtype": "noteOn"
      },
      {
        "deltaTime": 0,
        "channel": 2,
        "type": "channel",
        "noteNumber": 53,
        "velocity": 127,
        "subtype": "noteOn"
      },
      {
        "deltaTime": 0,
        "channel": 2,
        "type": "channel",
        "noteNumber": 46,
        "velocity": 127,
        "subtype": "noteOn"
      },
      {
        "deltaTime": 360,
        "channel": 2,
        "type": "channel",
        "noteNumber": 46,
        "velocity": 0,
        "subtype": "noteOff"
      },
      {
        "deltaTime": 0,
        "channel": 2,
        "type": "channel",
        "noteNumber": 53,
        "velocity": 0,
        "subtype": "noteOff"
      },
      {
        "deltaTime": 0,
        "channel": 2,
        "type": "channel",
        "noteNumber": 58,
        "velocity": 0,
        "subtype": "noteOff"
      },
      {
        "deltaTime": 120,
        "channel": 2,
        "type": "channel",
        "noteNumber": 58,
        "velocity": 127,
        "subtype": "noteOn"
      },
      {
        "deltaTime": 0,
        "channel": 2,
        "type": "channel",
        "noteNumber": 53,
        "velocity": 127,
        "subtype": "noteOn"
      },
      {
        "deltaTime": 0,
        "channel": 2,
        "type": "channel",
        "noteNumber": 46,
        "velocity": 127,
        "subtype": "noteOn"
      },
      {
        "deltaTime": 360,
        "channel": 2,
        "type": "channel",
        "noteNumber": 46,
        "velocity": 0,
        "subtype": "noteOff"
      },
      {
        "deltaTime": 0,
        "channel": 2,
        "type": "channel",
        "noteNumber": 53,
        "velocity": 0,
        "subtype": "noteOff"
      },
      {
        "deltaTime": 0,
        "channel": 2,
        "type": "channel",
        "noteNumber": 58,
        "velocity": 0,
        "subtype": "noteOff"
      },
      {
        "deltaTime": 120,
        "channel": 2,
        "type": "channel",
        "noteNumber": 58,
        "velocity": 127,
        "subtype": "noteOn"
      },
      {
        "deltaTime": 0,
        "channel": 2,
        "type": "channel",
        "noteNumber": 53,
        "velocity": 127,
        "subtype": "noteOn"
      },
      {
        "deltaTime": 0,
        "channel": 2,
        "type": "channel",
        "noteNumber": 46,
        "velocity": 127,
        "subtype": "noteOn"
      },
      {
        "deltaTime": 360,
        "channel": 2,
        "type": "channel",
        "noteNumber": 46,
        "velocity": 0,
        "subtype": "noteOff"
      },
      {
        "deltaTime": 0,
        "channel": 2,
        "type": "channel",
        "noteNumber": 53,
        "velocity": 0,
        "subtype": "noteOff"
      },
      {
        "deltaTime": 0,
        "channel": 2,
        "type": "channel",
        "noteNumber": 58,
        "velocity": 0,
        "subtype": "noteOff"
      },
      {
        "deltaTime": 120,
        "channel": 2,
        "type": "channel",
        "noteNumber": 58,
        "velocity": 127,
        "subtype": "noteOn"
      },
      {
        "deltaTime": 0,
        "channel": 2,
        "type": "channel",
        "noteNumber": 53,
        "velocity": 127,
        "subtype": "noteOn"
      },
      {
        "deltaTime": 0,
        "channel": 2,
        "type": "channel",
        "noteNumber": 46,
        "velocity": 127,
        "subtype": "noteOn"
      },
      {
        "deltaTime": 360,
        "channel": 2,
        "type": "channel",
        "noteNumber": 46,
        "velocity": 0,
        "subtype": "noteOff"
      },
      {
        "deltaTime": 0,
        "channel": 2,
        "type": "channel",
        "noteNumber": 53,
        "velocity": 0,
        "subtype": "noteOff"
      },
      {
        "deltaTime": 0,
        "channel": 2,
        "type": "channel",
        "noteNumber": 58,
        "velocity": 0,
        "subtype": "noteOff"
      },
      {
        "deltaTime": 120,
        "channel": 2,
        "type": "channel",
        "noteNumber": 58,
        "velocity": 127,
        "subtype": "noteOn"
      },
      {
        "deltaTime": 0,
        "channel": 2,
        "type": "channel",
        "noteNumber": 53,
        "velocity": 127,
        "subtype": "noteOn"
      },
      {
        "deltaTime": 0,
        "channel": 2,
        "type": "channel",
        "noteNumber": 46,
        "velocity": 127,
        "subtype": "noteOn"
      },
      {
        "deltaTime": 360,
        "channel": 2,
        "type": "channel",
        "noteNumber": 46,
        "velocity": 0,
        "subtype": "noteOff"
      },
      {
        "deltaTime": 0,
        "channel": 2,
        "type": "channel",
        "noteNumber": 53,
        "velocity": 0,
        "subtype": "noteOff"
      },
      {
        "deltaTime": 0,
        "channel": 2,
        "type": "channel",
        "noteNumber": 58,
        "velocity": 0,
        "subtype": "noteOff"
      },
      {
        "deltaTime": 120,
        "channel": 2,
        "type": "channel",
        "noteNumber": 58,
        "velocity": 127,
        "subtype": "noteOn"
      },
      {
        "deltaTime": 0,
        "channel": 2,
        "type": "channel",
        "noteNumber": 53,
        "velocity": 127,
        "subtype": "noteOn"
      },
      {
        "deltaTime": 0,
        "channel": 2,
        "type": "channel",
        "noteNumber": 46,
        "velocity": 127,
        "subtype": "noteOn"
      },
      {
        "deltaTime": 360,
        "channel": 2,
        "type": "channel",
        "noteNumber": 46,
        "velocity": 0,
        "subtype": "noteOff"
      },
      {
        "deltaTime": 0,
        "channel": 2,
        "type": "channel",
        "noteNumber": 53,
        "velocity": 0,
        "subtype": "noteOff"
      },
      {
        "deltaTime": 0,
        "channel": 2,
        "type": "channel",
        "noteNumber": 58,
        "velocity": 0,
        "subtype": "noteOff"
      },
      {
        "deltaTime": 120,
        "channel": 2,
        "type": "channel",
        "noteNumber": 58,
        "velocity": 127,
        "subtype": "noteOn"
      },
      {
        "deltaTime": 0,
        "channel": 2,
        "type": "channel",
        "noteNumber": 53,
        "velocity": 127,
        "subtype": "noteOn"
      },
      {
        "deltaTime": 0,
        "channel": 2,
        "type": "channel",
        "noteNumber": 46,
        "velocity": 127,
        "subtype": "noteOn"
      },
      {
        "deltaTime": 360,
        "channel": 2,
        "type": "channel",
        "noteNumber": 46,
        "velocity": 0,
        "subtype": "noteOff"
      },
      {
        "deltaTime": 0,
        "channel": 2,
        "type": "channel",
        "noteNumber": 53,
        "velocity": 0,
        "subtype": "noteOff"
      },
      {
        "deltaTime": 0,
        "channel": 2,
        "type": "channel",
        "noteNumber": 58,
        "velocity": 0,
        "subtype": "noteOff"
      },
      {
        "deltaTime": 120,
        "channel": 2,
        "type": "channel",
        "noteNumber": 58,
        "velocity": 127,
        "subtype": "noteOn"
      },
      {
        "deltaTime": 0,
        "channel": 2,
        "type": "channel",
        "noteNumber": 53,
        "velocity": 127,
        "subtype": "noteOn"
      },
      {
        "deltaTime": 0,
        "channel": 2,
        "type": "channel",
        "noteNumber": 46,
        "velocity": 127,
        "subtype": "noteOn"
      },
      {
        "deltaTime": 480,
        "channel": 2,
        "type": "channel",
        "noteNumber": 46,
        "velocity": 0,
        "subtype": "noteOff"
      },
      {
        "deltaTime": 0,
        "channel": 2,
        "type": "channel",
        "noteNumber": 53,
        "velocity": 0,
        "subtype": "noteOff"
      },
      {
        "deltaTime": 0,
        "channel": 2,
        "type": "channel",
        "noteNumber": 58,
        "velocity": 0,
        "subtype": "noteOff"
      },
      {
        "deltaTime": 0,
        "channel": 2,
        "type": "channel",
        "noteNumber": 58,
        "velocity": 127,
        "subtype": "noteOn"
      },
      {
        "deltaTime": 0,
        "channel": 2,
        "type": "channel",
        "noteNumber": 53,
        "velocity": 127,
        "subtype": "noteOn"
      },
      {
        "deltaTime": 0,
        "channel": 2,
        "type": "channel",
        "noteNumber": 46,
        "velocity": 127,
        "subtype": "noteOn"
      },
      {
        "deltaTime": 480,
        "channel": 2,
        "type": "channel",
        "noteNumber": 46,
        "velocity": 0,
        "subtype": "noteOff"
      },
      {
        "deltaTime": 0,
        "channel": 2,
        "type": "channel",
        "noteNumber": 53,
        "velocity": 0,
        "subtype": "noteOff"
      },
      {
        "deltaTime": 0,
        "channel": 2,
        "type": "channel",
        "noteNumber": 58,
        "velocity": 0,
        "subtype": "noteOff"
      },
      {
        "deltaTime": 0,
        "channel": 2,
        "type": "channel",
        "noteNumber": 58,
        "velocity": 127,
        "subtype": "noteOn"
      },
      {
        "deltaTime": 0,
        "channel": 2,
        "type": "channel",
        "noteNumber": 53,
        "velocity": 127,
        "subtype": "noteOn"
      },
      {
        "deltaTime": 0,
        "channel": 2,
        "type": "channel",
        "noteNumber": 46,
        "velocity": 127,
        "subtype": "noteOn"
      },
      {
        "deltaTime": 480,
        "channel": 2,
        "type": "channel",
        "noteNumber": 46,
        "velocity": 0,
        "subtype": "noteOff"
      },
      {
        "deltaTime": 0,
        "channel": 2,
        "type": "channel",
        "noteNumber": 53,
        "velocity": 0,
        "subtype": "noteOff"
      },
      {
        "deltaTime": 0,
        "channel": 2,
        "type": "channel",
        "noteNumber": 58,
        "velocity": 0,
        "subtype": "noteOff"
      },
      {
        "deltaTime": 0,
        "channel": 2,
        "type": "channel",
        "noteNumber": 58,
        "velocity": 127,
        "subtype": "noteOn"
      },
      {
        "deltaTime": 0,
        "channel": 2,
        "type": "channel",
        "noteNumber": 53,
        "velocity": 127,
        "subtype": "noteOn"
      },
      {
        "deltaTime": 0,
        "channel": 2,
        "type": "channel",
        "noteNumber": 46,
        "velocity": 127,
        "subtype": "noteOn"
      },
      {
        "deltaTime": 480,
        "channel": 2,
        "type": "channel",
        "noteNumber": 46,
        "velocity": 0,
        "subtype": "noteOff"
      },
      {
        "deltaTime": 0,
        "channel": 2,
        "type": "channel",
        "noteNumber": 53,
        "velocity": 0,
        "subtype": "noteOff"
      },
      {
        "deltaTime": 0,
        "channel": 2,
        "type": "channel",
        "noteNumber": 58,
        "velocity": 0,
        "subtype": "noteOff"
      },
      {
        "deltaTime": 0,
        "channel": 2,
        "type": "channel",
        "noteNumber": 58,
        "velocity": 127,
        "subtype": "noteOn"
      },
      {
        "deltaTime": 0,
        "channel": 2,
        "type": "channel",
        "noteNumber": 53,
        "velocity": 127,
        "subtype": "noteOn"
      },
      {
        "deltaTime": 0,
        "channel": 2,
        "type": "channel",
        "noteNumber": 46,
        "velocity": 127,
        "subtype": "noteOn"
      },
      {
        "deltaTime": 480,
        "channel": 2,
        "type": "channel",
        "noteNumber": 46,
        "velocity": 0,
        "subtype": "noteOff"
      },
      {
        "deltaTime": 0,
        "channel": 2,
        "type": "channel",
        "noteNumber": 53,
        "velocity": 0,
        "subtype": "noteOff"
      },
      {
        "deltaTime": 0,
        "channel": 2,
        "type": "channel",
        "noteNumber": 58,
        "velocity": 0,
        "subtype": "noteOff"
      },
      {
        "deltaTime": 0,
        "channel": 2,
        "type": "channel",
        "noteNumber": 58,
        "velocity": 127,
        "subtype": "noteOn"
      },
      {
        "deltaTime": 0,
        "channel": 2,
        "type": "channel",
        "noteNumber": 53,
        "velocity": 127,
        "subtype": "noteOn"
      },
      {
        "deltaTime": 0,
        "channel": 2,
        "type": "channel",
        "noteNumber": 46,
        "velocity": 127,
        "subtype": "noteOn"
      },
      {
        "deltaTime": 480,
        "channel": 2,
        "type": "channel",
        "noteNumber": 46,
        "velocity": 0,
        "subtype": "noteOff"
      },
      {
        "deltaTime": 0,
        "channel": 2,
        "type": "channel",
        "noteNumber": 53,
        "velocity": 0,
        "subtype": "noteOff"
      },
      {
        "deltaTime": 0,
        "channel": 2,
        "type": "channel",
        "noteNumber": 58,
        "velocity": 0,
        "subtype": "noteOff"
      },
      {
        "deltaTime": 0,
        "channel": 2,
        "type": "channel",
        "noteNumber": 58,
        "velocity": 127,
        "subtype": "noteOn"
      },
      {
        "deltaTime": 0,
        "channel": 2,
        "type": "channel",
        "noteNumber": 53,
        "velocity": 127,
        "subtype": "noteOn"
      },
      {
        "deltaTime": 0,
        "channel": 2,
        "type": "channel",
        "noteNumber": 46,
        "velocity": 127,
        "subtype": "noteOn"
      },
      {
        "deltaTime": 240,
        "channel": 2,
        "type": "channel",
        "subtype": "pitchBend",
        "value": 7552
      },
      {
        "deltaTime": 0,
        "channel": 2,
        "type": "channel",
        "subtype": "pitchBend",
        "value": 7552
      },
      {
        "deltaTime": 0,
        "channel": 2,
        "type": "channel",
        "subtype": "pitchBend",
        "value": 7552
      },
      {
        "deltaTime": 102,
        "channel": 2,
        "type": "channel",
        "subtype": "pitchBend",
        "value": 6784
      },
      {
        "deltaTime": 0,
        "channel": 2,
        "type": "channel",
        "subtype": "pitchBend",
        "value": 6784
      },
      {
        "deltaTime": 0,
        "channel": 2,
        "type": "channel",
        "subtype": "pitchBend",
        "value": 6784
      },
      {
        "deltaTime": 104,
        "channel": 2,
        "type": "channel",
        "subtype": "pitchBend",
        "value": 6144
      },
      {
        "deltaTime": 0,
        "channel": 2,
        "type": "channel",
        "subtype": "pitchBend",
        "value": 6144
      },
      {
        "deltaTime": 0,
        "channel": 2,
        "type": "channel",
        "subtype": "pitchBend",
        "value": 6144
      },
      {
        "deltaTime": 102,
        "channel": 2,
        "type": "channel",
        "subtype": "pitchBend",
        "value": 5504
      },
      {
        "deltaTime": 0,
        "channel": 2,
        "type": "channel",
        "subtype": "pitchBend",
        "value": 5504
      },
      {
        "deltaTime": 0,
        "channel": 2,
        "type": "channel",
        "subtype": "pitchBend",
        "value": 5504
      },
      {
        "deltaTime": 104,
        "channel": 2,
        "type": "channel",
        "subtype": "pitchBend",
        "value": 4736
      },
      {
        "deltaTime": 0,
        "channel": 2,
        "type": "channel",
        "subtype": "pitchBend",
        "value": 4736
      },
      {
        "deltaTime": 0,
        "channel": 2,
        "type": "channel",
        "subtype": "pitchBend",
        "value": 4736
      },
      {
        "deltaTime": 102,
        "channel": 2,
        "type": "channel",
        "subtype": "pitchBend",
        "value": 4096
      },
      {
        "deltaTime": 0,
        "channel": 2,
        "type": "channel",
        "subtype": "pitchBend",
        "value": 4096
      },
      {
        "deltaTime": 0,
        "channel": 2,
        "type": "channel",
        "subtype": "pitchBend",
        "value": 4096
      },
      {
        "deltaTime": 104,
        "channel": 2,
        "type": "channel",
        "subtype": "pitchBend",
        "value": 3456
      },
      {
        "deltaTime": 0,
        "channel": 2,
        "type": "channel",
        "subtype": "pitchBend",
        "value": 3456
      },
      {
        "deltaTime": 0,
        "channel": 2,
        "type": "channel",
        "subtype": "pitchBend",
        "value": 3456
      },
      {
        "deltaTime": 102,
        "channel": 2,
        "type": "channel",
        "noteNumber": 46,
        "velocity": 0,
        "subtype": "noteOff"
      },
      {
        "deltaTime": 0,
        "channel": 2,
        "type": "channel",
        "noteNumber": 53,
        "velocity": 0,
        "subtype": "noteOff"
      },
      {
        "deltaTime": 0,
        "channel": 2,
        "type": "channel",
        "noteNumber": 58,
        "velocity": 0,
        "subtype": "noteOff"
      },
      {
        "deltaTime": 0,
        "channel": 2,
        "type": "channel",
        "subtype": "pitchBend",
        "value": 8192
      },
      {
        "deltaTime": 0,
        "channel": 2,
        "type": "channel",
        "subtype": "pitchBend",
        "value": 8192
      },
      {
        "deltaTime": 0,
        "channel": 2,
        "type": "channel",
        "subtype": "pitchBend",
        "value": 8192
      },
      {
        "deltaTime": 0,
        "channel": 2,
        "type": "channel",
        "noteNumber": 51,
        "velocity": 127,
        "subtype": "noteOn"
      },
      {
        "deltaTime": 0,
        "channel": 2,
        "type": "channel",
        "noteNumber": 44,
        "velocity": 127,
        "subtype": "noteOn"
      },
      {
        "deltaTime": 480,
        "channel": 2,
        "type": "channel",
        "noteNumber": 44,
        "velocity": 0,
        "subtype": "noteOff"
      },
      {
        "deltaTime": 0,
        "channel": 2,
        "type": "channel",
        "noteNumber": 51,
        "velocity": 0,
        "subtype": "noteOff"
      },
      {
        "deltaTime": 0,
        "channel": 2,
        "type": "channel",
        "noteNumber": 51,
        "velocity": 127,
        "subtype": "noteOn"
      },
      {
        "deltaTime": 0,
        "channel": 2,
        "type": "channel",
        "noteNumber": 44,
        "velocity": 127,
        "subtype": "noteOn"
      },
      {
        "deltaTime": 480,
        "channel": 2,
        "type": "channel",
        "noteNumber": 44,
        "velocity": 0,
        "subtype": "noteOff"
      },
      {
        "deltaTime": 0,
        "channel": 2,
        "type": "channel",
        "noteNumber": 51,
        "velocity": 0,
        "subtype": "noteOff"
      },
      {
        "deltaTime": 0,
        "channel": 2,
        "type": "channel",
        "noteNumber": 51,
        "velocity": 127,
        "subtype": "noteOn"
      },
      {
        "deltaTime": 0,
        "channel": 2,
        "type": "channel",
        "noteNumber": 44,
        "velocity": 127,
        "subtype": "noteOn"
      },
      {
        "deltaTime": 480,
        "channel": 2,
        "type": "channel",
        "noteNumber": 44,
        "velocity": 0,
        "subtype": "noteOff"
      },
      {
        "deltaTime": 0,
        "channel": 2,
        "type": "channel",
        "noteNumber": 51,
        "velocity": 0,
        "subtype": "noteOff"
      },
      {
        "deltaTime": 0,
        "channel": 2,
        "type": "channel",
        "noteNumber": 51,
        "velocity": 127,
        "subtype": "noteOn"
      },
      {
        "deltaTime": 0,
        "channel": 2,
        "type": "channel",
        "noteNumber": 44,
        "velocity": 127,
        "subtype": "noteOn"
      },
      {
        "deltaTime": 480,
        "channel": 2,
        "type": "channel",
        "noteNumber": 44,
        "velocity": 0,
        "subtype": "noteOff"
      },
      {
        "deltaTime": 0,
        "channel": 2,
        "type": "channel",
        "noteNumber": 51,
        "velocity": 0,
        "subtype": "noteOff"
      },
      {
        "deltaTime": 0,
        "channel": 2,
        "type": "channel",
        "noteNumber": 51,
        "velocity": 127,
        "subtype": "noteOn"
      },
      {
        "deltaTime": 0,
        "channel": 2,
        "type": "channel",
        "noteNumber": 44,
        "velocity": 127,
        "subtype": "noteOn"
      },
      {
        "deltaTime": 480,
        "channel": 2,
        "type": "channel",
        "noteNumber": 44,
        "velocity": 0,
        "subtype": "noteOff"
      },
      {
        "deltaTime": 0,
        "channel": 2,
        "type": "channel",
        "noteNumber": 51,
        "velocity": 0,
        "subtype": "noteOff"
      },
      {
        "deltaTime": 0,
        "channel": 2,
        "type": "channel",
        "noteNumber": 51,
        "velocity": 127,
        "subtype": "noteOn"
      },
      {
        "deltaTime": 0,
        "channel": 2,
        "type": "channel",
        "noteNumber": 44,
        "velocity": 127,
        "subtype": "noteOn"
      },
      {
        "deltaTime": 480,
        "channel": 2,
        "type": "channel",
        "noteNumber": 44,
        "velocity": 0,
        "subtype": "noteOff"
      },
      {
        "deltaTime": 0,
        "channel": 2,
        "type": "channel",
        "noteNumber": 51,
        "velocity": 0,
        "subtype": "noteOff"
      },
      {
        "deltaTime": 0,
        "channel": 2,
        "type": "channel",
        "noteNumber": 51,
        "velocity": 127,
        "subtype": "noteOn"
      },
      {
        "deltaTime": 0,
        "channel": 2,
        "type": "channel",
        "noteNumber": 44,
        "velocity": 127,
        "subtype": "noteOn"
      },
      {
        "deltaTime": 480,
        "channel": 2,
        "type": "channel",
        "noteNumber": 44,
        "velocity": 0,
        "subtype": "noteOff"
      },
      {
        "deltaTime": 0,
        "channel": 2,
        "type": "channel",
        "noteNumber": 51,
        "velocity": 0,
        "subtype": "noteOff"
      },
      {
        "deltaTime": 0,
        "channel": 2,
        "type": "channel",
        "noteNumber": 51,
        "velocity": 127,
        "subtype": "noteOn"
      },
      {
        "deltaTime": 0,
        "channel": 2,
        "type": "channel",
        "noteNumber": 44,
        "velocity": 127,
        "subtype": "noteOn"
      },
      {
        "deltaTime": 480,
        "channel": 2,
        "type": "channel",
        "noteNumber": 44,
        "velocity": 0,
        "subtype": "noteOff"
      },
      {
        "deltaTime": 0,
        "channel": 2,
        "type": "channel",
        "noteNumber": 51,
        "velocity": 0,
        "subtype": "noteOff"
      },
      {
        "deltaTime": 0,
        "channel": 2,
        "type": "channel",
        "noteNumber": 58,
        "velocity": 127,
        "subtype": "noteOn"
      },
      {
        "deltaTime": 0,
        "channel": 2,
        "type": "channel",
        "noteNumber": 51,
        "velocity": 127,
        "subtype": "noteOn"
      },
      {
        "deltaTime": 0,
        "channel": 2,
        "type": "channel",
        "noteNumber": 46,
        "velocity": 127,
        "subtype": "noteOn"
      },
      {
        "deltaTime": 0,
        "channel": 2,
        "type": "channel",
        "noteNumber": 39,
        "velocity": 127,
        "subtype": "noteOn"
      },
      {
        "deltaTime": 480,
        "channel": 2,
        "type": "channel",
        "noteNumber": 39,
        "velocity": 0,
        "subtype": "noteOff"
      },
      {
        "deltaTime": 0,
        "channel": 2,
        "type": "channel",
        "noteNumber": 58,
        "velocity": 0,
        "subtype": "noteOff"
      },
      {
        "deltaTime": 0,
        "channel": 2,
        "type": "channel",
        "noteNumber": 51,
        "velocity": 0,
        "subtype": "noteOff"
      },
      {
        "deltaTime": 0,
        "channel": 2,
        "type": "channel",
        "noteNumber": 46,
        "velocity": 0,
        "subtype": "noteOff"
      },
      {
        "deltaTime": 0,
        "channel": 2,
        "type": "channel",
        "noteNumber": 58,
        "velocity": 127,
        "subtype": "noteOn"
      },
      {
        "deltaTime": 0,
        "channel": 2,
        "type": "channel",
        "noteNumber": 51,
        "velocity": 127,
        "subtype": "noteOn"
      },
      {
        "deltaTime": 0,
        "channel": 2,
        "type": "channel",
        "noteNumber": 46,
        "velocity": 127,
        "subtype": "noteOn"
      },
      {
        "deltaTime": 0,
        "channel": 2,
        "type": "channel",
        "noteNumber": 39,
        "velocity": 127,
        "subtype": "noteOn"
      },
      {
        "deltaTime": 480,
        "channel": 2,
        "type": "channel",
        "noteNumber": 39,
        "velocity": 0,
        "subtype": "noteOff"
      },
      {
        "deltaTime": 0,
        "channel": 2,
        "type": "channel",
        "noteNumber": 58,
        "velocity": 0,
        "subtype": "noteOff"
      },
      {
        "deltaTime": 0,
        "channel": 2,
        "type": "channel",
        "noteNumber": 51,
        "velocity": 0,
        "subtype": "noteOff"
      },
      {
        "deltaTime": 0,
        "channel": 2,
        "type": "channel",
        "noteNumber": 46,
        "velocity": 0,
        "subtype": "noteOff"
      },
      {
        "deltaTime": 0,
        "channel": 2,
        "type": "channel",
        "noteNumber": 58,
        "velocity": 127,
        "subtype": "noteOn"
      },
      {
        "deltaTime": 0,
        "channel": 2,
        "type": "channel",
        "noteNumber": 51,
        "velocity": 127,
        "subtype": "noteOn"
      },
      {
        "deltaTime": 0,
        "channel": 2,
        "type": "channel",
        "noteNumber": 46,
        "velocity": 127,
        "subtype": "noteOn"
      },
      {
        "deltaTime": 0,
        "channel": 2,
        "type": "channel",
        "noteNumber": 39,
        "velocity": 127,
        "subtype": "noteOn"
      },
      {
        "deltaTime": 480,
        "channel": 2,
        "type": "channel",
        "noteNumber": 39,
        "velocity": 0,
        "subtype": "noteOff"
      },
      {
        "deltaTime": 0,
        "channel": 2,
        "type": "channel",
        "noteNumber": 58,
        "velocity": 0,
        "subtype": "noteOff"
      },
      {
        "deltaTime": 0,
        "channel": 2,
        "type": "channel",
        "noteNumber": 51,
        "velocity": 0,
        "subtype": "noteOff"
      },
      {
        "deltaTime": 0,
        "channel": 2,
        "type": "channel",
        "noteNumber": 46,
        "velocity": 0,
        "subtype": "noteOff"
      },
      {
        "deltaTime": 0,
        "channel": 2,
        "type": "channel",
        "noteNumber": 58,
        "velocity": 127,
        "subtype": "noteOn"
      },
      {
        "deltaTime": 0,
        "channel": 2,
        "type": "channel",
        "noteNumber": 51,
        "velocity": 127,
        "subtype": "noteOn"
      },
      {
        "deltaTime": 0,
        "channel": 2,
        "type": "channel",
        "noteNumber": 46,
        "velocity": 127,
        "subtype": "noteOn"
      },
      {
        "deltaTime": 0,
        "channel": 2,
        "type": "channel",
        "noteNumber": 39,
        "velocity": 127,
        "subtype": "noteOn"
      },
      {
        "deltaTime": 480,
        "channel": 2,
        "type": "channel",
        "noteNumber": 39,
        "velocity": 0,
        "subtype": "noteOff"
      },
      {
        "deltaTime": 0,
        "channel": 2,
        "type": "channel",
        "noteNumber": 58,
        "velocity": 0,
        "subtype": "noteOff"
      },
      {
        "deltaTime": 0,
        "channel": 2,
        "type": "channel",
        "noteNumber": 51,
        "velocity": 0,
        "subtype": "noteOff"
      },
      {
        "deltaTime": 0,
        "channel": 2,
        "type": "channel",
        "noteNumber": 46,
        "velocity": 0,
        "subtype": "noteOff"
      },
      {
        "deltaTime": 0,
        "channel": 2,
        "type": "channel",
        "noteNumber": 58,
        "velocity": 127,
        "subtype": "noteOn"
      },
      {
        "deltaTime": 0,
        "channel": 2,
        "type": "channel",
        "noteNumber": 51,
        "velocity": 127,
        "subtype": "noteOn"
      },
      {
        "deltaTime": 0,
        "channel": 2,
        "type": "channel",
        "noteNumber": 46,
        "velocity": 127,
        "subtype": "noteOn"
      },
      {
        "deltaTime": 0,
        "channel": 2,
        "type": "channel",
        "noteNumber": 39,
        "velocity": 127,
        "subtype": "noteOn"
      },
      {
        "deltaTime": 480,
        "channel": 2,
        "type": "channel",
        "noteNumber": 39,
        "velocity": 0,
        "subtype": "noteOff"
      },
      {
        "deltaTime": 0,
        "channel": 2,
        "type": "channel",
        "noteNumber": 58,
        "velocity": 0,
        "subtype": "noteOff"
      },
      {
        "deltaTime": 0,
        "channel": 2,
        "type": "channel",
        "noteNumber": 51,
        "velocity": 0,
        "subtype": "noteOff"
      },
      {
        "deltaTime": 0,
        "channel": 2,
        "type": "channel",
        "noteNumber": 46,
        "velocity": 0,
        "subtype": "noteOff"
      },
      {
        "deltaTime": 0,
        "channel": 2,
        "type": "channel",
        "noteNumber": 58,
        "velocity": 127,
        "subtype": "noteOn"
      },
      {
        "deltaTime": 0,
        "channel": 2,
        "type": "channel",
        "noteNumber": 51,
        "velocity": 127,
        "subtype": "noteOn"
      },
      {
        "deltaTime": 0,
        "channel": 2,
        "type": "channel",
        "noteNumber": 46,
        "velocity": 127,
        "subtype": "noteOn"
      },
      {
        "deltaTime": 0,
        "channel": 2,
        "type": "channel",
        "noteNumber": 39,
        "velocity": 127,
        "subtype": "noteOn"
      },
      {
        "deltaTime": 480,
        "channel": 2,
        "type": "channel",
        "noteNumber": 39,
        "velocity": 0,
        "subtype": "noteOff"
      },
      {
        "deltaTime": 0,
        "channel": 2,
        "type": "channel",
        "noteNumber": 58,
        "velocity": 0,
        "subtype": "noteOff"
      },
      {
        "deltaTime": 0,
        "channel": 2,
        "type": "channel",
        "noteNumber": 51,
        "velocity": 0,
        "subtype": "noteOff"
      },
      {
        "deltaTime": 0,
        "channel": 2,
        "type": "channel",
        "noteNumber": 46,
        "velocity": 0,
        "subtype": "noteOff"
      },
      {
        "deltaTime": 0,
        "channel": 2,
        "type": "channel",
        "noteNumber": 58,
        "velocity": 127,
        "subtype": "noteOn"
      },
      {
        "deltaTime": 0,
        "channel": 2,
        "type": "channel",
        "noteNumber": 51,
        "velocity": 127,
        "subtype": "noteOn"
      },
      {
        "deltaTime": 0,
        "channel": 2,
        "type": "channel",
        "noteNumber": 46,
        "velocity": 127,
        "subtype": "noteOn"
      },
      {
        "deltaTime": 0,
        "channel": 2,
        "type": "channel",
        "noteNumber": 39,
        "velocity": 127,
        "subtype": "noteOn"
      },
      {
        "deltaTime": 480,
        "channel": 2,
        "type": "channel",
        "noteNumber": 39,
        "velocity": 0,
        "subtype": "noteOff"
      },
      {
        "deltaTime": 0,
        "channel": 2,
        "type": "channel",
        "noteNumber": 58,
        "velocity": 0,
        "subtype": "noteOff"
      },
      {
        "deltaTime": 0,
        "channel": 2,
        "type": "channel",
        "noteNumber": 51,
        "velocity": 0,
        "subtype": "noteOff"
      },
      {
        "deltaTime": 0,
        "channel": 2,
        "type": "channel",
        "noteNumber": 46,
        "velocity": 0,
        "subtype": "noteOff"
      },
      {
        "deltaTime": 0,
        "channel": 2,
        "type": "channel",
        "noteNumber": 58,
        "velocity": 127,
        "subtype": "noteOn"
      },
      {
        "deltaTime": 0,
        "channel": 2,
        "type": "channel",
        "noteNumber": 51,
        "velocity": 127,
        "subtype": "noteOn"
      },
      {
        "deltaTime": 0,
        "channel": 2,
        "type": "channel",
        "noteNumber": 46,
        "velocity": 127,
        "subtype": "noteOn"
      },
      {
        "deltaTime": 0,
        "channel": 2,
        "type": "channel",
        "noteNumber": 39,
        "velocity": 127,
        "subtype": "noteOn"
      },
      {
        "deltaTime": 480,
        "channel": 2,
        "type": "channel",
        "noteNumber": 39,
        "velocity": 0,
        "subtype": "noteOff"
      },
      {
        "deltaTime": 0,
        "channel": 2,
        "type": "channel",
        "noteNumber": 58,
        "velocity": 0,
        "subtype": "noteOff"
      },
      {
        "deltaTime": 0,
        "channel": 2,
        "type": "channel",
        "noteNumber": 51,
        "velocity": 0,
        "subtype": "noteOff"
      },
      {
        "deltaTime": 0,
        "channel": 2,
        "type": "channel",
        "noteNumber": 46,
        "velocity": 0,
        "subtype": "noteOff"
      },
      {
        "deltaTime": 0,
        "channel": 2,
        "type": "channel",
        "noteNumber": 63,
        "velocity": 127,
        "subtype": "noteOn"
      },
      {
        "deltaTime": 0,
        "channel": 2,
        "type": "channel",
        "noteNumber": 55,
        "velocity": 127,
        "subtype": "noteOn"
      },
      {
        "deltaTime": 0,
        "channel": 2,
        "type": "channel",
        "noteNumber": 48,
        "velocity": 127,
        "subtype": "noteOn"
      },
      {
        "deltaTime": 480,
        "channel": 2,
        "type": "channel",
        "noteNumber": 48,
        "velocity": 0,
        "subtype": "noteOff"
      },
      {
        "deltaTime": 0,
        "channel": 2,
        "type": "channel",
        "noteNumber": 55,
        "velocity": 0,
        "subtype": "noteOff"
      },
      {
        "deltaTime": 0,
        "channel": 2,
        "type": "channel",
        "noteNumber": 63,
        "velocity": 0,
        "subtype": "noteOff"
      },
      {
        "deltaTime": 0,
        "channel": 2,
        "type": "channel",
        "noteNumber": 63,
        "velocity": 127,
        "subtype": "noteOn"
      },
      {
        "deltaTime": 0,
        "channel": 2,
        "type": "channel",
        "noteNumber": 55,
        "velocity": 127,
        "subtype": "noteOn"
      },
      {
        "deltaTime": 0,
        "channel": 2,
        "type": "channel",
        "noteNumber": 48,
        "velocity": 127,
        "subtype": "noteOn"
      },
      {
        "deltaTime": 480,
        "channel": 2,
        "type": "channel",
        "noteNumber": 48,
        "velocity": 0,
        "subtype": "noteOff"
      },
      {
        "deltaTime": 0,
        "channel": 2,
        "type": "channel",
        "noteNumber": 55,
        "velocity": 0,
        "subtype": "noteOff"
      },
      {
        "deltaTime": 0,
        "channel": 2,
        "type": "channel",
        "noteNumber": 63,
        "velocity": 0,
        "subtype": "noteOff"
      },
      {
        "deltaTime": 0,
        "channel": 2,
        "type": "channel",
        "noteNumber": 63,
        "velocity": 127,
        "subtype": "noteOn"
      },
      {
        "deltaTime": 0,
        "channel": 2,
        "type": "channel",
        "noteNumber": 55,
        "velocity": 127,
        "subtype": "noteOn"
      },
      {
        "deltaTime": 0,
        "channel": 2,
        "type": "channel",
        "noteNumber": 48,
        "velocity": 127,
        "subtype": "noteOn"
      },
      {
        "deltaTime": 480,
        "channel": 2,
        "type": "channel",
        "noteNumber": 48,
        "velocity": 0,
        "subtype": "noteOff"
      },
      {
        "deltaTime": 0,
        "channel": 2,
        "type": "channel",
        "noteNumber": 55,
        "velocity": 0,
        "subtype": "noteOff"
      },
      {
        "deltaTime": 0,
        "channel": 2,
        "type": "channel",
        "noteNumber": 63,
        "velocity": 0,
        "subtype": "noteOff"
      },
      {
        "deltaTime": 0,
        "channel": 2,
        "type": "channel",
        "noteNumber": 63,
        "velocity": 127,
        "subtype": "noteOn"
      },
      {
        "deltaTime": 0,
        "channel": 2,
        "type": "channel",
        "noteNumber": 55,
        "velocity": 127,
        "subtype": "noteOn"
      },
      {
        "deltaTime": 0,
        "channel": 2,
        "type": "channel",
        "noteNumber": 48,
        "velocity": 127,
        "subtype": "noteOn"
      },
      {
        "deltaTime": 480,
        "channel": 2,
        "type": "channel",
        "noteNumber": 48,
        "velocity": 0,
        "subtype": "noteOff"
      },
      {
        "deltaTime": 0,
        "channel": 2,
        "type": "channel",
        "noteNumber": 55,
        "velocity": 0,
        "subtype": "noteOff"
      },
      {
        "deltaTime": 0,
        "channel": 2,
        "type": "channel",
        "noteNumber": 63,
        "velocity": 0,
        "subtype": "noteOff"
      },
      {
        "deltaTime": 0,
        "channel": 2,
        "type": "channel",
        "noteNumber": 63,
        "velocity": 127,
        "subtype": "noteOn"
      },
      {
        "deltaTime": 0,
        "channel": 2,
        "type": "channel",
        "noteNumber": 55,
        "velocity": 127,
        "subtype": "noteOn"
      },
      {
        "deltaTime": 0,
        "channel": 2,
        "type": "channel",
        "noteNumber": 48,
        "velocity": 127,
        "subtype": "noteOn"
      },
      {
        "deltaTime": 480,
        "channel": 2,
        "type": "channel",
        "noteNumber": 48,
        "velocity": 0,
        "subtype": "noteOff"
      },
      {
        "deltaTime": 0,
        "channel": 2,
        "type": "channel",
        "noteNumber": 55,
        "velocity": 0,
        "subtype": "noteOff"
      },
      {
        "deltaTime": 0,
        "channel": 2,
        "type": "channel",
        "noteNumber": 63,
        "velocity": 0,
        "subtype": "noteOff"
      },
      {
        "deltaTime": 0,
        "channel": 2,
        "type": "channel",
        "noteNumber": 63,
        "velocity": 127,
        "subtype": "noteOn"
      },
      {
        "deltaTime": 0,
        "channel": 2,
        "type": "channel",
        "noteNumber": 55,
        "velocity": 127,
        "subtype": "noteOn"
      },
      {
        "deltaTime": 0,
        "channel": 2,
        "type": "channel",
        "noteNumber": 48,
        "velocity": 127,
        "subtype": "noteOn"
      },
      {
        "deltaTime": 480,
        "channel": 2,
        "type": "channel",
        "noteNumber": 48,
        "velocity": 0,
        "subtype": "noteOff"
      },
      {
        "deltaTime": 0,
        "channel": 2,
        "type": "channel",
        "noteNumber": 55,
        "velocity": 0,
        "subtype": "noteOff"
      },
      {
        "deltaTime": 0,
        "channel": 2,
        "type": "channel",
        "noteNumber": 63,
        "velocity": 0,
        "subtype": "noteOff"
      },
      {
        "deltaTime": 0,
        "channel": 2,
        "type": "channel",
        "noteNumber": 63,
        "velocity": 127,
        "subtype": "noteOn"
      },
      {
        "deltaTime": 0,
        "channel": 2,
        "type": "channel",
        "noteNumber": 55,
        "velocity": 127,
        "subtype": "noteOn"
      },
      {
        "deltaTime": 0,
        "channel": 2,
        "type": "channel",
        "noteNumber": 48,
        "velocity": 127,
        "subtype": "noteOn"
      },
      {
        "deltaTime": 480,
        "channel": 2,
        "type": "channel",
        "noteNumber": 48,
        "velocity": 0,
        "subtype": "noteOff"
      },
      {
        "deltaTime": 0,
        "channel": 2,
        "type": "channel",
        "noteNumber": 55,
        "velocity": 0,
        "subtype": "noteOff"
      },
      {
        "deltaTime": 0,
        "channel": 2,
        "type": "channel",
        "noteNumber": 63,
        "velocity": 0,
        "subtype": "noteOff"
      },
      {
        "deltaTime": 0,
        "channel": 2,
        "type": "channel",
        "noteNumber": 63,
        "velocity": 127,
        "subtype": "noteOn"
      },
      {
        "deltaTime": 0,
        "channel": 2,
        "type": "channel",
        "noteNumber": 55,
        "velocity": 127,
        "subtype": "noteOn"
      },
      {
        "deltaTime": 0,
        "channel": 2,
        "type": "channel",
        "noteNumber": 48,
        "velocity": 127,
        "subtype": "noteOn"
      },
      {
        "deltaTime": 480,
        "channel": 2,
        "type": "channel",
        "noteNumber": 48,
        "velocity": 0,
        "subtype": "noteOff"
      },
      {
        "deltaTime": 0,
        "channel": 2,
        "type": "channel",
        "noteNumber": 55,
        "velocity": 0,
        "subtype": "noteOff"
      },
      {
        "deltaTime": 0,
        "channel": 2,
        "type": "channel",
        "noteNumber": 63,
        "velocity": 0,
        "subtype": "noteOff"
      },
      {
        "deltaTime": 0,
        "channel": 2,
        "type": "channel",
        "noteNumber": 65,
        "velocity": 127,
        "subtype": "noteOn"
      },
      {
        "deltaTime": 0,
        "channel": 2,
        "type": "channel",
        "noteNumber": 58,
        "velocity": 127,
        "subtype": "noteOn"
      },
      {
        "deltaTime": 0,
        "channel": 2,
        "type": "channel",
        "noteNumber": 53,
        "velocity": 127,
        "subtype": "noteOn"
      },
      {
        "deltaTime": 0,
        "channel": 2,
        "type": "channel",
        "noteNumber": 46,
        "velocity": 127,
        "subtype": "noteOn"
      },
      {
        "deltaTime": 480,
        "channel": 2,
        "type": "channel",
        "noteNumber": 46,
        "velocity": 0,
        "subtype": "noteOff"
      },
      {
        "deltaTime": 0,
        "channel": 2,
        "type": "channel",
        "noteNumber": 65,
        "velocity": 0,
        "subtype": "noteOff"
      },
      {
        "deltaTime": 0,
        "channel": 2,
        "type": "channel",
        "noteNumber": 58,
        "velocity": 0,
        "subtype": "noteOff"
      },
      {
        "deltaTime": 0,
        "channel": 2,
        "type": "channel",
        "noteNumber": 53,
        "velocity": 0,
        "subtype": "noteOff"
      },
      {
        "deltaTime": 0,
        "channel": 2,
        "type": "channel",
        "noteNumber": 65,
        "velocity": 127,
        "subtype": "noteOn"
      },
      {
        "deltaTime": 0,
        "channel": 2,
        "type": "channel",
        "noteNumber": 58,
        "velocity": 127,
        "subtype": "noteOn"
      },
      {
        "deltaTime": 0,
        "channel": 2,
        "type": "channel",
        "noteNumber": 53,
        "velocity": 127,
        "subtype": "noteOn"
      },
      {
        "deltaTime": 0,
        "channel": 2,
        "type": "channel",
        "noteNumber": 46,
        "velocity": 127,
        "subtype": "noteOn"
      },
      {
        "deltaTime": 480,
        "channel": 2,
        "type": "channel",
        "noteNumber": 46,
        "velocity": 0,
        "subtype": "noteOff"
      },
      {
        "deltaTime": 0,
        "channel": 2,
        "type": "channel",
        "noteNumber": 65,
        "velocity": 0,
        "subtype": "noteOff"
      },
      {
        "deltaTime": 0,
        "channel": 2,
        "type": "channel",
        "noteNumber": 58,
        "velocity": 0,
        "subtype": "noteOff"
      },
      {
        "deltaTime": 0,
        "channel": 2,
        "type": "channel",
        "noteNumber": 53,
        "velocity": 0,
        "subtype": "noteOff"
      },
      {
        "deltaTime": 0,
        "channel": 2,
        "type": "channel",
        "noteNumber": 65,
        "velocity": 127,
        "subtype": "noteOn"
      },
      {
        "deltaTime": 0,
        "channel": 2,
        "type": "channel",
        "noteNumber": 58,
        "velocity": 127,
        "subtype": "noteOn"
      },
      {
        "deltaTime": 0,
        "channel": 2,
        "type": "channel",
        "noteNumber": 53,
        "velocity": 127,
        "subtype": "noteOn"
      },
      {
        "deltaTime": 0,
        "channel": 2,
        "type": "channel",
        "noteNumber": 46,
        "velocity": 127,
        "subtype": "noteOn"
      },
      {
        "deltaTime": 480,
        "channel": 2,
        "type": "channel",
        "noteNumber": 46,
        "velocity": 0,
        "subtype": "noteOff"
      },
      {
        "deltaTime": 0,
        "channel": 2,
        "type": "channel",
        "noteNumber": 65,
        "velocity": 0,
        "subtype": "noteOff"
      },
      {
        "deltaTime": 0,
        "channel": 2,
        "type": "channel",
        "noteNumber": 58,
        "velocity": 0,
        "subtype": "noteOff"
      },
      {
        "deltaTime": 0,
        "channel": 2,
        "type": "channel",
        "noteNumber": 53,
        "velocity": 0,
        "subtype": "noteOff"
      },
      {
        "deltaTime": 0,
        "channel": 2,
        "type": "channel",
        "noteNumber": 65,
        "velocity": 127,
        "subtype": "noteOn"
      },
      {
        "deltaTime": 0,
        "channel": 2,
        "type": "channel",
        "noteNumber": 58,
        "velocity": 127,
        "subtype": "noteOn"
      },
      {
        "deltaTime": 0,
        "channel": 2,
        "type": "channel",
        "noteNumber": 53,
        "velocity": 127,
        "subtype": "noteOn"
      },
      {
        "deltaTime": 0,
        "channel": 2,
        "type": "channel",
        "noteNumber": 46,
        "velocity": 127,
        "subtype": "noteOn"
      },
      {
        "deltaTime": 480,
        "channel": 2,
        "type": "channel",
        "noteNumber": 46,
        "velocity": 0,
        "subtype": "noteOff"
      },
      {
        "deltaTime": 0,
        "channel": 2,
        "type": "channel",
        "noteNumber": 65,
        "velocity": 0,
        "subtype": "noteOff"
      },
      {
        "deltaTime": 0,
        "channel": 2,
        "type": "channel",
        "noteNumber": 58,
        "velocity": 0,
        "subtype": "noteOff"
      },
      {
        "deltaTime": 0,
        "channel": 2,
        "type": "channel",
        "noteNumber": 53,
        "velocity": 0,
        "subtype": "noteOff"
      },
      {
        "deltaTime": 0,
        "channel": 2,
        "type": "channel",
        "noteNumber": 65,
        "velocity": 127,
        "subtype": "noteOn"
      },
      {
        "deltaTime": 0,
        "channel": 2,
        "type": "channel",
        "noteNumber": 58,
        "velocity": 127,
        "subtype": "noteOn"
      },
      {
        "deltaTime": 0,
        "channel": 2,
        "type": "channel",
        "noteNumber": 53,
        "velocity": 127,
        "subtype": "noteOn"
      },
      {
        "deltaTime": 0,
        "channel": 2,
        "type": "channel",
        "noteNumber": 46,
        "velocity": 127,
        "subtype": "noteOn"
      },
      {
        "deltaTime": 480,
        "channel": 2,
        "type": "channel",
        "noteNumber": 46,
        "velocity": 0,
        "subtype": "noteOff"
      },
      {
        "deltaTime": 0,
        "channel": 2,
        "type": "channel",
        "noteNumber": 65,
        "velocity": 0,
        "subtype": "noteOff"
      },
      {
        "deltaTime": 0,
        "channel": 2,
        "type": "channel",
        "noteNumber": 58,
        "velocity": 0,
        "subtype": "noteOff"
      },
      {
        "deltaTime": 0,
        "channel": 2,
        "type": "channel",
        "noteNumber": 53,
        "velocity": 0,
        "subtype": "noteOff"
      },
      {
        "deltaTime": 0,
        "channel": 2,
        "type": "channel",
        "noteNumber": 65,
        "velocity": 127,
        "subtype": "noteOn"
      },
      {
        "deltaTime": 0,
        "channel": 2,
        "type": "channel",
        "noteNumber": 58,
        "velocity": 127,
        "subtype": "noteOn"
      },
      {
        "deltaTime": 0,
        "channel": 2,
        "type": "channel",
        "noteNumber": 53,
        "velocity": 127,
        "subtype": "noteOn"
      },
      {
        "deltaTime": 0,
        "channel": 2,
        "type": "channel",
        "noteNumber": 46,
        "velocity": 127,
        "subtype": "noteOn"
      },
      {
        "deltaTime": 480,
        "channel": 2,
        "type": "channel",
        "noteNumber": 46,
        "velocity": 0,
        "subtype": "noteOff"
      },
      {
        "deltaTime": 0,
        "channel": 2,
        "type": "channel",
        "noteNumber": 65,
        "velocity": 0,
        "subtype": "noteOff"
      },
      {
        "deltaTime": 0,
        "channel": 2,
        "type": "channel",
        "noteNumber": 58,
        "velocity": 0,
        "subtype": "noteOff"
      },
      {
        "deltaTime": 0,
        "channel": 2,
        "type": "channel",
        "noteNumber": 53,
        "velocity": 0,
        "subtype": "noteOff"
      },
      {
        "deltaTime": 0,
        "channel": 2,
        "type": "channel",
        "noteNumber": 65,
        "velocity": 127,
        "subtype": "noteOn"
      },
      {
        "deltaTime": 0,
        "channel": 2,
        "type": "channel",
        "noteNumber": 58,
        "velocity": 127,
        "subtype": "noteOn"
      },
      {
        "deltaTime": 0,
        "channel": 2,
        "type": "channel",
        "noteNumber": 53,
        "velocity": 127,
        "subtype": "noteOn"
      },
      {
        "deltaTime": 0,
        "channel": 2,
        "type": "channel",
        "noteNumber": 46,
        "velocity": 127,
        "subtype": "noteOn"
      },
      {
        "deltaTime": 480,
        "channel": 2,
        "type": "channel",
        "noteNumber": 46,
        "velocity": 0,
        "subtype": "noteOff"
      },
      {
        "deltaTime": 0,
        "channel": 2,
        "type": "channel",
        "noteNumber": 65,
        "velocity": 0,
        "subtype": "noteOff"
      },
      {
        "deltaTime": 0,
        "channel": 2,
        "type": "channel",
        "noteNumber": 58,
        "velocity": 0,
        "subtype": "noteOff"
      },
      {
        "deltaTime": 0,
        "channel": 2,
        "type": "channel",
        "noteNumber": 53,
        "velocity": 0,
        "subtype": "noteOff"
      },
      {
        "deltaTime": 0,
        "channel": 2,
        "type": "channel",
        "noteNumber": 65,
        "velocity": 127,
        "subtype": "noteOn"
      },
      {
        "deltaTime": 0,
        "channel": 2,
        "type": "channel",
        "noteNumber": 58,
        "velocity": 127,
        "subtype": "noteOn"
      },
      {
        "deltaTime": 0,
        "channel": 2,
        "type": "channel",
        "noteNumber": 53,
        "velocity": 127,
        "subtype": "noteOn"
      },
      {
        "deltaTime": 0,
        "channel": 2,
        "type": "channel",
        "noteNumber": 46,
        "velocity": 127,
        "subtype": "noteOn"
      },
      {
        "deltaTime": 480,
        "channel": 2,
        "type": "channel",
        "noteNumber": 46,
        "velocity": 0,
        "subtype": "noteOff"
      },
      {
        "deltaTime": 0,
        "channel": 2,
        "type": "channel",
        "noteNumber": 65,
        "velocity": 0,
        "subtype": "noteOff"
      },
      {
        "deltaTime": 0,
        "channel": 2,
        "type": "channel",
        "noteNumber": 58,
        "velocity": 0,
        "subtype": "noteOff"
      },
      {
        "deltaTime": 0,
        "channel": 2,
        "type": "channel",
        "noteNumber": 53,
        "velocity": 0,
        "subtype": "noteOff"
      },
      {
        "deltaTime": 0,
        "channel": 2,
        "type": "channel",
        "noteNumber": 63,
        "velocity": 127,
        "subtype": "noteOn"
      },
      {
        "deltaTime": 0,
        "channel": 2,
        "type": "channel",
        "noteNumber": 56,
        "velocity": 127,
        "subtype": "noteOn"
      },
      {
        "deltaTime": 0,
        "channel": 2,
        "type": "channel",
        "noteNumber": 51,
        "velocity": 127,
        "subtype": "noteOn"
      },
      {
        "deltaTime": 0,
        "channel": 2,
        "type": "channel",
        "noteNumber": 44,
        "velocity": 127,
        "subtype": "noteOn"
      },
      {
        "deltaTime": 480,
        "channel": 2,
        "type": "channel",
        "noteNumber": 44,
        "velocity": 0,
        "subtype": "noteOff"
      },
      {
        "deltaTime": 0,
        "channel": 2,
        "type": "channel",
        "noteNumber": 63,
        "velocity": 0,
        "subtype": "noteOff"
      },
      {
        "deltaTime": 0,
        "channel": 2,
        "type": "channel",
        "noteNumber": 56,
        "velocity": 0,
        "subtype": "noteOff"
      },
      {
        "deltaTime": 0,
        "channel": 2,
        "type": "channel",
        "noteNumber": 51,
        "velocity": 0,
        "subtype": "noteOff"
      },
      {
        "deltaTime": 0,
        "channel": 2,
        "type": "channel",
        "noteNumber": 63,
        "velocity": 127,
        "subtype": "noteOn"
      },
      {
        "deltaTime": 0,
        "channel": 2,
        "type": "channel",
        "noteNumber": 56,
        "velocity": 127,
        "subtype": "noteOn"
      },
      {
        "deltaTime": 0,
        "channel": 2,
        "type": "channel",
        "noteNumber": 51,
        "velocity": 127,
        "subtype": "noteOn"
      },
      {
        "deltaTime": 0,
        "channel": 2,
        "type": "channel",
        "noteNumber": 44,
        "velocity": 127,
        "subtype": "noteOn"
      },
      {
        "deltaTime": 480,
        "channel": 2,
        "type": "channel",
        "noteNumber": 44,
        "velocity": 0,
        "subtype": "noteOff"
      },
      {
        "deltaTime": 0,
        "channel": 2,
        "type": "channel",
        "noteNumber": 63,
        "velocity": 0,
        "subtype": "noteOff"
      },
      {
        "deltaTime": 0,
        "channel": 2,
        "type": "channel",
        "noteNumber": 56,
        "velocity": 0,
        "subtype": "noteOff"
      },
      {
        "deltaTime": 0,
        "channel": 2,
        "type": "channel",
        "noteNumber": 51,
        "velocity": 0,
        "subtype": "noteOff"
      },
      {
        "deltaTime": 0,
        "channel": 2,
        "type": "channel",
        "noteNumber": 63,
        "velocity": 127,
        "subtype": "noteOn"
      },
      {
        "deltaTime": 0,
        "channel": 2,
        "type": "channel",
        "noteNumber": 56,
        "velocity": 127,
        "subtype": "noteOn"
      },
      {
        "deltaTime": 0,
        "channel": 2,
        "type": "channel",
        "noteNumber": 51,
        "velocity": 127,
        "subtype": "noteOn"
      },
      {
        "deltaTime": 0,
        "channel": 2,
        "type": "channel",
        "noteNumber": 44,
        "velocity": 127,
        "subtype": "noteOn"
      },
      {
        "deltaTime": 480,
        "channel": 2,
        "type": "channel",
        "noteNumber": 44,
        "velocity": 0,
        "subtype": "noteOff"
      },
      {
        "deltaTime": 0,
        "channel": 2,
        "type": "channel",
        "noteNumber": 63,
        "velocity": 0,
        "subtype": "noteOff"
      },
      {
        "deltaTime": 0,
        "channel": 2,
        "type": "channel",
        "noteNumber": 56,
        "velocity": 0,
        "subtype": "noteOff"
      },
      {
        "deltaTime": 0,
        "channel": 2,
        "type": "channel",
        "noteNumber": 51,
        "velocity": 0,
        "subtype": "noteOff"
      },
      {
        "deltaTime": 0,
        "channel": 2,
        "type": "channel",
        "noteNumber": 63,
        "velocity": 127,
        "subtype": "noteOn"
      },
      {
        "deltaTime": 0,
        "channel": 2,
        "type": "channel",
        "noteNumber": 56,
        "velocity": 127,
        "subtype": "noteOn"
      },
      {
        "deltaTime": 0,
        "channel": 2,
        "type": "channel",
        "noteNumber": 51,
        "velocity": 127,
        "subtype": "noteOn"
      },
      {
        "deltaTime": 0,
        "channel": 2,
        "type": "channel",
        "noteNumber": 44,
        "velocity": 127,
        "subtype": "noteOn"
      },
      {
        "deltaTime": 480,
        "channel": 2,
        "type": "channel",
        "noteNumber": 44,
        "velocity": 0,
        "subtype": "noteOff"
      },
      {
        "deltaTime": 0,
        "channel": 2,
        "type": "channel",
        "noteNumber": 63,
        "velocity": 0,
        "subtype": "noteOff"
      },
      {
        "deltaTime": 0,
        "channel": 2,
        "type": "channel",
        "noteNumber": 56,
        "velocity": 0,
        "subtype": "noteOff"
      },
      {
        "deltaTime": 0,
        "channel": 2,
        "type": "channel",
        "noteNumber": 51,
        "velocity": 0,
        "subtype": "noteOff"
      },
      {
        "deltaTime": 0,
        "channel": 2,
        "type": "channel",
        "noteNumber": 63,
        "velocity": 127,
        "subtype": "noteOn"
      },
      {
        "deltaTime": 0,
        "channel": 2,
        "type": "channel",
        "noteNumber": 56,
        "velocity": 127,
        "subtype": "noteOn"
      },
      {
        "deltaTime": 0,
        "channel": 2,
        "type": "channel",
        "noteNumber": 51,
        "velocity": 127,
        "subtype": "noteOn"
      },
      {
        "deltaTime": 0,
        "channel": 2,
        "type": "channel",
        "noteNumber": 44,
        "velocity": 127,
        "subtype": "noteOn"
      },
      {
        "deltaTime": 480,
        "channel": 2,
        "type": "channel",
        "noteNumber": 44,
        "velocity": 0,
        "subtype": "noteOff"
      },
      {
        "deltaTime": 0,
        "channel": 2,
        "type": "channel",
        "noteNumber": 63,
        "velocity": 0,
        "subtype": "noteOff"
      },
      {
        "deltaTime": 0,
        "channel": 2,
        "type": "channel",
        "noteNumber": 56,
        "velocity": 0,
        "subtype": "noteOff"
      },
      {
        "deltaTime": 0,
        "channel": 2,
        "type": "channel",
        "noteNumber": 51,
        "velocity": 0,
        "subtype": "noteOff"
      },
      {
        "deltaTime": 0,
        "channel": 2,
        "type": "channel",
        "noteNumber": 63,
        "velocity": 127,
        "subtype": "noteOn"
      },
      {
        "deltaTime": 0,
        "channel": 2,
        "type": "channel",
        "noteNumber": 56,
        "velocity": 127,
        "subtype": "noteOn"
      },
      {
        "deltaTime": 0,
        "channel": 2,
        "type": "channel",
        "noteNumber": 51,
        "velocity": 127,
        "subtype": "noteOn"
      },
      {
        "deltaTime": 0,
        "channel": 2,
        "type": "channel",
        "noteNumber": 44,
        "velocity": 127,
        "subtype": "noteOn"
      },
      {
        "deltaTime": 480,
        "channel": 2,
        "type": "channel",
        "noteNumber": 44,
        "velocity": 0,
        "subtype": "noteOff"
      },
      {
        "deltaTime": 0,
        "channel": 2,
        "type": "channel",
        "noteNumber": 63,
        "velocity": 0,
        "subtype": "noteOff"
      },
      {
        "deltaTime": 0,
        "channel": 2,
        "type": "channel",
        "noteNumber": 56,
        "velocity": 0,
        "subtype": "noteOff"
      },
      {
        "deltaTime": 0,
        "channel": 2,
        "type": "channel",
        "noteNumber": 51,
        "velocity": 0,
        "subtype": "noteOff"
      },
      {
        "deltaTime": 0,
        "channel": 2,
        "type": "channel",
        "noteNumber": 63,
        "velocity": 127,
        "subtype": "noteOn"
      },
      {
        "deltaTime": 0,
        "channel": 2,
        "type": "channel",
        "noteNumber": 56,
        "velocity": 127,
        "subtype": "noteOn"
      },
      {
        "deltaTime": 0,
        "channel": 2,
        "type": "channel",
        "noteNumber": 51,
        "velocity": 127,
        "subtype": "noteOn"
      },
      {
        "deltaTime": 0,
        "channel": 2,
        "type": "channel",
        "noteNumber": 44,
        "velocity": 127,
        "subtype": "noteOn"
      },
      {
        "deltaTime": 480,
        "channel": 2,
        "type": "channel",
        "noteNumber": 44,
        "velocity": 0,
        "subtype": "noteOff"
      },
      {
        "deltaTime": 0,
        "channel": 2,
        "type": "channel",
        "noteNumber": 63,
        "velocity": 0,
        "subtype": "noteOff"
      },
      {
        "deltaTime": 0,
        "channel": 2,
        "type": "channel",
        "noteNumber": 56,
        "velocity": 0,
        "subtype": "noteOff"
      },
      {
        "deltaTime": 0,
        "channel": 2,
        "type": "channel",
        "noteNumber": 51,
        "velocity": 0,
        "subtype": "noteOff"
      },
      {
        "deltaTime": 0,
        "channel": 2,
        "type": "channel",
        "noteNumber": 63,
        "velocity": 127,
        "subtype": "noteOn"
      },
      {
        "deltaTime": 0,
        "channel": 2,
        "type": "channel",
        "noteNumber": 56,
        "velocity": 127,
        "subtype": "noteOn"
      },
      {
        "deltaTime": 0,
        "channel": 2,
        "type": "channel",
        "noteNumber": 51,
        "velocity": 127,
        "subtype": "noteOn"
      },
      {
        "deltaTime": 0,
        "channel": 2,
        "type": "channel",
        "noteNumber": 44,
        "velocity": 127,
        "subtype": "noteOn"
      },
      {
        "deltaTime": 480,
        "channel": 2,
        "type": "channel",
        "noteNumber": 44,
        "velocity": 0,
        "subtype": "noteOff"
      },
      {
        "deltaTime": 0,
        "channel": 2,
        "type": "channel",
        "noteNumber": 63,
        "velocity": 0,
        "subtype": "noteOff"
      },
      {
        "deltaTime": 0,
        "channel": 2,
        "type": "channel",
        "noteNumber": 56,
        "velocity": 0,
        "subtype": "noteOff"
      },
      {
        "deltaTime": 0,
        "channel": 2,
        "type": "channel",
        "noteNumber": 51,
        "velocity": 0,
        "subtype": "noteOff"
      },
      {
        "deltaTime": 0,
        "channel": 2,
        "type": "channel",
        "noteNumber": 58,
        "velocity": 127,
        "subtype": "noteOn"
      },
      {
        "deltaTime": 0,
        "channel": 2,
        "type": "channel",
        "noteNumber": 51,
        "velocity": 127,
        "subtype": "noteOn"
      },
      {
        "deltaTime": 0,
        "channel": 2,
        "type": "channel",
        "noteNumber": 46,
        "velocity": 127,
        "subtype": "noteOn"
      },
      {
        "deltaTime": 0,
        "channel": 2,
        "type": "channel",
        "noteNumber": 39,
        "velocity": 127,
        "subtype": "noteOn"
      },
      {
        "deltaTime": 480,
        "channel": 2,
        "type": "channel",
        "noteNumber": 39,
        "velocity": 0,
        "subtype": "noteOff"
      },
      {
        "deltaTime": 0,
        "channel": 2,
        "type": "channel",
        "noteNumber": 58,
        "velocity": 0,
        "subtype": "noteOff"
      },
      {
        "deltaTime": 0,
        "channel": 2,
        "type": "channel",
        "noteNumber": 51,
        "velocity": 0,
        "subtype": "noteOff"
      },
      {
        "deltaTime": 0,
        "channel": 2,
        "type": "channel",
        "noteNumber": 46,
        "velocity": 0,
        "subtype": "noteOff"
      },
      {
        "deltaTime": 0,
        "channel": 2,
        "type": "channel",
        "noteNumber": 58,
        "velocity": 127,
        "subtype": "noteOn"
      },
      {
        "deltaTime": 0,
        "channel": 2,
        "type": "channel",
        "noteNumber": 51,
        "velocity": 127,
        "subtype": "noteOn"
      },
      {
        "deltaTime": 0,
        "channel": 2,
        "type": "channel",
        "noteNumber": 46,
        "velocity": 127,
        "subtype": "noteOn"
      },
      {
        "deltaTime": 0,
        "channel": 2,
        "type": "channel",
        "noteNumber": 39,
        "velocity": 127,
        "subtype": "noteOn"
      },
      {
        "deltaTime": 480,
        "channel": 2,
        "type": "channel",
        "noteNumber": 39,
        "velocity": 0,
        "subtype": "noteOff"
      },
      {
        "deltaTime": 0,
        "channel": 2,
        "type": "channel",
        "noteNumber": 58,
        "velocity": 0,
        "subtype": "noteOff"
      },
      {
        "deltaTime": 0,
        "channel": 2,
        "type": "channel",
        "noteNumber": 51,
        "velocity": 0,
        "subtype": "noteOff"
      },
      {
        "deltaTime": 0,
        "channel": 2,
        "type": "channel",
        "noteNumber": 46,
        "velocity": 0,
        "subtype": "noteOff"
      },
      {
        "deltaTime": 0,
        "channel": 2,
        "type": "channel",
        "noteNumber": 58,
        "velocity": 127,
        "subtype": "noteOn"
      },
      {
        "deltaTime": 0,
        "channel": 2,
        "type": "channel",
        "noteNumber": 51,
        "velocity": 127,
        "subtype": "noteOn"
      },
      {
        "deltaTime": 0,
        "channel": 2,
        "type": "channel",
        "noteNumber": 46,
        "velocity": 127,
        "subtype": "noteOn"
      },
      {
        "deltaTime": 0,
        "channel": 2,
        "type": "channel",
        "noteNumber": 39,
        "velocity": 127,
        "subtype": "noteOn"
      },
      {
        "deltaTime": 480,
        "channel": 2,
        "type": "channel",
        "noteNumber": 39,
        "velocity": 0,
        "subtype": "noteOff"
      },
      {
        "deltaTime": 0,
        "channel": 2,
        "type": "channel",
        "noteNumber": 58,
        "velocity": 0,
        "subtype": "noteOff"
      },
      {
        "deltaTime": 0,
        "channel": 2,
        "type": "channel",
        "noteNumber": 51,
        "velocity": 0,
        "subtype": "noteOff"
      },
      {
        "deltaTime": 0,
        "channel": 2,
        "type": "channel",
        "noteNumber": 46,
        "velocity": 0,
        "subtype": "noteOff"
      },
      {
        "deltaTime": 0,
        "channel": 2,
        "type": "channel",
        "noteNumber": 58,
        "velocity": 127,
        "subtype": "noteOn"
      },
      {
        "deltaTime": 0,
        "channel": 2,
        "type": "channel",
        "noteNumber": 51,
        "velocity": 127,
        "subtype": "noteOn"
      },
      {
        "deltaTime": 0,
        "channel": 2,
        "type": "channel",
        "noteNumber": 46,
        "velocity": 127,
        "subtype": "noteOn"
      },
      {
        "deltaTime": 0,
        "channel": 2,
        "type": "channel",
        "noteNumber": 39,
        "velocity": 127,
        "subtype": "noteOn"
      },
      {
        "deltaTime": 480,
        "channel": 2,
        "type": "channel",
        "noteNumber": 39,
        "velocity": 0,
        "subtype": "noteOff"
      },
      {
        "deltaTime": 0,
        "channel": 2,
        "type": "channel",
        "noteNumber": 58,
        "velocity": 0,
        "subtype": "noteOff"
      },
      {
        "deltaTime": 0,
        "channel": 2,
        "type": "channel",
        "noteNumber": 51,
        "velocity": 0,
        "subtype": "noteOff"
      },
      {
        "deltaTime": 0,
        "channel": 2,
        "type": "channel",
        "noteNumber": 46,
        "velocity": 0,
        "subtype": "noteOff"
      },
      {
        "deltaTime": 0,
        "channel": 2,
        "type": "channel",
        "noteNumber": 58,
        "velocity": 127,
        "subtype": "noteOn"
      },
      {
        "deltaTime": 0,
        "channel": 2,
        "type": "channel",
        "noteNumber": 51,
        "velocity": 127,
        "subtype": "noteOn"
      },
      {
        "deltaTime": 0,
        "channel": 2,
        "type": "channel",
        "noteNumber": 46,
        "velocity": 127,
        "subtype": "noteOn"
      },
      {
        "deltaTime": 0,
        "channel": 2,
        "type": "channel",
        "noteNumber": 39,
        "velocity": 127,
        "subtype": "noteOn"
      },
      {
        "deltaTime": 480,
        "channel": 2,
        "type": "channel",
        "noteNumber": 39,
        "velocity": 0,
        "subtype": "noteOff"
      },
      {
        "deltaTime": 0,
        "channel": 2,
        "type": "channel",
        "noteNumber": 58,
        "velocity": 0,
        "subtype": "noteOff"
      },
      {
        "deltaTime": 0,
        "channel": 2,
        "type": "channel",
        "noteNumber": 51,
        "velocity": 0,
        "subtype": "noteOff"
      },
      {
        "deltaTime": 0,
        "channel": 2,
        "type": "channel",
        "noteNumber": 46,
        "velocity": 0,
        "subtype": "noteOff"
      },
      {
        "deltaTime": 0,
        "channel": 2,
        "type": "channel",
        "noteNumber": 58,
        "velocity": 127,
        "subtype": "noteOn"
      },
      {
        "deltaTime": 0,
        "channel": 2,
        "type": "channel",
        "noteNumber": 51,
        "velocity": 127,
        "subtype": "noteOn"
      },
      {
        "deltaTime": 0,
        "channel": 2,
        "type": "channel",
        "noteNumber": 46,
        "velocity": 127,
        "subtype": "noteOn"
      },
      {
        "deltaTime": 0,
        "channel": 2,
        "type": "channel",
        "noteNumber": 39,
        "velocity": 127,
        "subtype": "noteOn"
      },
      {
        "deltaTime": 480,
        "channel": 2,
        "type": "channel",
        "noteNumber": 39,
        "velocity": 0,
        "subtype": "noteOff"
      },
      {
        "deltaTime": 0,
        "channel": 2,
        "type": "channel",
        "noteNumber": 58,
        "velocity": 0,
        "subtype": "noteOff"
      },
      {
        "deltaTime": 0,
        "channel": 2,
        "type": "channel",
        "noteNumber": 51,
        "velocity": 0,
        "subtype": "noteOff"
      },
      {
        "deltaTime": 0,
        "channel": 2,
        "type": "channel",
        "noteNumber": 46,
        "velocity": 0,
        "subtype": "noteOff"
      },
      {
        "deltaTime": 0,
        "channel": 2,
        "type": "channel",
        "noteNumber": 58,
        "velocity": 127,
        "subtype": "noteOn"
      },
      {
        "deltaTime": 0,
        "channel": 2,
        "type": "channel",
        "noteNumber": 51,
        "velocity": 127,
        "subtype": "noteOn"
      },
      {
        "deltaTime": 0,
        "channel": 2,
        "type": "channel",
        "noteNumber": 46,
        "velocity": 127,
        "subtype": "noteOn"
      },
      {
        "deltaTime": 0,
        "channel": 2,
        "type": "channel",
        "noteNumber": 39,
        "velocity": 127,
        "subtype": "noteOn"
      },
      {
        "deltaTime": 480,
        "channel": 2,
        "type": "channel",
        "noteNumber": 39,
        "velocity": 0,
        "subtype": "noteOff"
      },
      {
        "deltaTime": 0,
        "channel": 2,
        "type": "channel",
        "noteNumber": 58,
        "velocity": 0,
        "subtype": "noteOff"
      },
      {
        "deltaTime": 0,
        "channel": 2,
        "type": "channel",
        "noteNumber": 51,
        "velocity": 0,
        "subtype": "noteOff"
      },
      {
        "deltaTime": 0,
        "channel": 2,
        "type": "channel",
        "noteNumber": 46,
        "velocity": 0,
        "subtype": "noteOff"
      },
      {
        "deltaTime": 0,
        "channel": 2,
        "type": "channel",
        "noteNumber": 58,
        "velocity": 127,
        "subtype": "noteOn"
      },
      {
        "deltaTime": 0,
        "channel": 2,
        "type": "channel",
        "noteNumber": 51,
        "velocity": 127,
        "subtype": "noteOn"
      },
      {
        "deltaTime": 0,
        "channel": 2,
        "type": "channel",
        "noteNumber": 46,
        "velocity": 127,
        "subtype": "noteOn"
      },
      {
        "deltaTime": 0,
        "channel": 2,
        "type": "channel",
        "noteNumber": 39,
        "velocity": 127,
        "subtype": "noteOn"
      },
      {
        "deltaTime": 480,
        "channel": 2,
        "type": "channel",
        "noteNumber": 39,
        "velocity": 0,
        "subtype": "noteOff"
      },
      {
        "deltaTime": 0,
        "channel": 2,
        "type": "channel",
        "noteNumber": 58,
        "velocity": 0,
        "subtype": "noteOff"
      },
      {
        "deltaTime": 0,
        "channel": 2,
        "type": "channel",
        "noteNumber": 51,
        "velocity": 0,
        "subtype": "noteOff"
      },
      {
        "deltaTime": 0,
        "channel": 2,
        "type": "channel",
        "noteNumber": 46,
        "velocity": 0,
        "subtype": "noteOff"
      },
      {
        "deltaTime": 0,
        "channel": 2,
        "type": "channel",
        "noteNumber": 65,
        "velocity": 127,
        "subtype": "noteOn"
      },
      {
        "deltaTime": 0,
        "channel": 2,
        "type": "channel",
        "noteNumber": 58,
        "velocity": 127,
        "subtype": "noteOn"
      },
      {
        "deltaTime": 0,
        "channel": 2,
        "type": "channel",
        "noteNumber": 53,
        "velocity": 127,
        "subtype": "noteOn"
      },
      {
        "deltaTime": 0,
        "channel": 2,
        "type": "channel",
        "noteNumber": 46,
        "velocity": 127,
        "subtype": "noteOn"
      },
      {
        "deltaTime": 480,
        "channel": 2,
        "type": "channel",
        "noteNumber": 46,
        "velocity": 0,
        "subtype": "noteOff"
      },
      {
        "deltaTime": 0,
        "channel": 2,
        "type": "channel",
        "noteNumber": 65,
        "velocity": 0,
        "subtype": "noteOff"
      },
      {
        "deltaTime": 0,
        "channel": 2,
        "type": "channel",
        "noteNumber": 58,
        "velocity": 0,
        "subtype": "noteOff"
      },
      {
        "deltaTime": 0,
        "channel": 2,
        "type": "channel",
        "noteNumber": 53,
        "velocity": 0,
        "subtype": "noteOff"
      },
      {
        "deltaTime": 0,
        "channel": 2,
        "type": "channel",
        "noteNumber": 65,
        "velocity": 127,
        "subtype": "noteOn"
      },
      {
        "deltaTime": 0,
        "channel": 2,
        "type": "channel",
        "noteNumber": 58,
        "velocity": 127,
        "subtype": "noteOn"
      },
      {
        "deltaTime": 0,
        "channel": 2,
        "type": "channel",
        "noteNumber": 53,
        "velocity": 127,
        "subtype": "noteOn"
      },
      {
        "deltaTime": 0,
        "channel": 2,
        "type": "channel",
        "noteNumber": 46,
        "velocity": 127,
        "subtype": "noteOn"
      },
      {
        "deltaTime": 480,
        "channel": 2,
        "type": "channel",
        "noteNumber": 46,
        "velocity": 0,
        "subtype": "noteOff"
      },
      {
        "deltaTime": 0,
        "channel": 2,
        "type": "channel",
        "noteNumber": 65,
        "velocity": 0,
        "subtype": "noteOff"
      },
      {
        "deltaTime": 0,
        "channel": 2,
        "type": "channel",
        "noteNumber": 58,
        "velocity": 0,
        "subtype": "noteOff"
      },
      {
        "deltaTime": 0,
        "channel": 2,
        "type": "channel",
        "noteNumber": 53,
        "velocity": 0,
        "subtype": "noteOff"
      },
      {
        "deltaTime": 0,
        "channel": 2,
        "type": "channel",
        "noteNumber": 65,
        "velocity": 127,
        "subtype": "noteOn"
      },
      {
        "deltaTime": 0,
        "channel": 2,
        "type": "channel",
        "noteNumber": 58,
        "velocity": 127,
        "subtype": "noteOn"
      },
      {
        "deltaTime": 0,
        "channel": 2,
        "type": "channel",
        "noteNumber": 53,
        "velocity": 127,
        "subtype": "noteOn"
      },
      {
        "deltaTime": 0,
        "channel": 2,
        "type": "channel",
        "noteNumber": 46,
        "velocity": 127,
        "subtype": "noteOn"
      },
      {
        "deltaTime": 480,
        "channel": 2,
        "type": "channel",
        "noteNumber": 46,
        "velocity": 0,
        "subtype": "noteOff"
      },
      {
        "deltaTime": 0,
        "channel": 2,
        "type": "channel",
        "noteNumber": 65,
        "velocity": 0,
        "subtype": "noteOff"
      },
      {
        "deltaTime": 0,
        "channel": 2,
        "type": "channel",
        "noteNumber": 58,
        "velocity": 0,
        "subtype": "noteOff"
      },
      {
        "deltaTime": 0,
        "channel": 2,
        "type": "channel",
        "noteNumber": 53,
        "velocity": 0,
        "subtype": "noteOff"
      },
      {
        "deltaTime": 0,
        "channel": 2,
        "type": "channel",
        "noteNumber": 65,
        "velocity": 127,
        "subtype": "noteOn"
      },
      {
        "deltaTime": 0,
        "channel": 2,
        "type": "channel",
        "noteNumber": 58,
        "velocity": 127,
        "subtype": "noteOn"
      },
      {
        "deltaTime": 0,
        "channel": 2,
        "type": "channel",
        "noteNumber": 53,
        "velocity": 127,
        "subtype": "noteOn"
      },
      {
        "deltaTime": 0,
        "channel": 2,
        "type": "channel",
        "noteNumber": 46,
        "velocity": 127,
        "subtype": "noteOn"
      },
      {
        "deltaTime": 480,
        "channel": 2,
        "type": "channel",
        "noteNumber": 46,
        "velocity": 0,
        "subtype": "noteOff"
      },
      {
        "deltaTime": 0,
        "channel": 2,
        "type": "channel",
        "noteNumber": 65,
        "velocity": 0,
        "subtype": "noteOff"
      },
      {
        "deltaTime": 0,
        "channel": 2,
        "type": "channel",
        "noteNumber": 58,
        "velocity": 0,
        "subtype": "noteOff"
      },
      {
        "deltaTime": 0,
        "channel": 2,
        "type": "channel",
        "noteNumber": 53,
        "velocity": 0,
        "subtype": "noteOff"
      },
      {
        "deltaTime": 0,
        "channel": 2,
        "type": "channel",
        "noteNumber": 65,
        "velocity": 127,
        "subtype": "noteOn"
      },
      {
        "deltaTime": 0,
        "channel": 2,
        "type": "channel",
        "noteNumber": 58,
        "velocity": 127,
        "subtype": "noteOn"
      },
      {
        "deltaTime": 0,
        "channel": 2,
        "type": "channel",
        "noteNumber": 53,
        "velocity": 127,
        "subtype": "noteOn"
      },
      {
        "deltaTime": 0,
        "channel": 2,
        "type": "channel",
        "noteNumber": 46,
        "velocity": 127,
        "subtype": "noteOn"
      },
      {
        "deltaTime": 480,
        "channel": 2,
        "type": "channel",
        "noteNumber": 46,
        "velocity": 0,
        "subtype": "noteOff"
      },
      {
        "deltaTime": 0,
        "channel": 2,
        "type": "channel",
        "noteNumber": 65,
        "velocity": 0,
        "subtype": "noteOff"
      },
      {
        "deltaTime": 0,
        "channel": 2,
        "type": "channel",
        "noteNumber": 58,
        "velocity": 0,
        "subtype": "noteOff"
      },
      {
        "deltaTime": 0,
        "channel": 2,
        "type": "channel",
        "noteNumber": 53,
        "velocity": 0,
        "subtype": "noteOff"
      },
      {
        "deltaTime": 0,
        "channel": 2,
        "type": "channel",
        "noteNumber": 65,
        "velocity": 127,
        "subtype": "noteOn"
      },
      {
        "deltaTime": 0,
        "channel": 2,
        "type": "channel",
        "noteNumber": 58,
        "velocity": 127,
        "subtype": "noteOn"
      },
      {
        "deltaTime": 0,
        "channel": 2,
        "type": "channel",
        "noteNumber": 53,
        "velocity": 127,
        "subtype": "noteOn"
      },
      {
        "deltaTime": 0,
        "channel": 2,
        "type": "channel",
        "noteNumber": 46,
        "velocity": 127,
        "subtype": "noteOn"
      },
      {
        "deltaTime": 480,
        "channel": 2,
        "type": "channel",
        "noteNumber": 46,
        "velocity": 0,
        "subtype": "noteOff"
      },
      {
        "deltaTime": 0,
        "channel": 2,
        "type": "channel",
        "noteNumber": 65,
        "velocity": 0,
        "subtype": "noteOff"
      },
      {
        "deltaTime": 0,
        "channel": 2,
        "type": "channel",
        "noteNumber": 58,
        "velocity": 0,
        "subtype": "noteOff"
      },
      {
        "deltaTime": 0,
        "channel": 2,
        "type": "channel",
        "noteNumber": 53,
        "velocity": 0,
        "subtype": "noteOff"
      },
      {
        "deltaTime": 0,
        "channel": 2,
        "type": "channel",
        "noteNumber": 65,
        "velocity": 127,
        "subtype": "noteOn"
      },
      {
        "deltaTime": 0,
        "channel": 2,
        "type": "channel",
        "noteNumber": 58,
        "velocity": 127,
        "subtype": "noteOn"
      },
      {
        "deltaTime": 0,
        "channel": 2,
        "type": "channel",
        "noteNumber": 53,
        "velocity": 127,
        "subtype": "noteOn"
      },
      {
        "deltaTime": 0,
        "channel": 2,
        "type": "channel",
        "noteNumber": 46,
        "velocity": 127,
        "subtype": "noteOn"
      },
      {
        "deltaTime": 480,
        "channel": 2,
        "type": "channel",
        "noteNumber": 46,
        "velocity": 0,
        "subtype": "noteOff"
      },
      {
        "deltaTime": 0,
        "channel": 2,
        "type": "channel",
        "noteNumber": 65,
        "velocity": 0,
        "subtype": "noteOff"
      },
      {
        "deltaTime": 0,
        "channel": 2,
        "type": "channel",
        "noteNumber": 58,
        "velocity": 0,
        "subtype": "noteOff"
      },
      {
        "deltaTime": 0,
        "channel": 2,
        "type": "channel",
        "noteNumber": 53,
        "velocity": 0,
        "subtype": "noteOff"
      },
      {
        "deltaTime": 0,
        "channel": 2,
        "type": "channel",
        "noteNumber": 65,
        "velocity": 127,
        "subtype": "noteOn"
      },
      {
        "deltaTime": 0,
        "channel": 2,
        "type": "channel",
        "noteNumber": 58,
        "velocity": 127,
        "subtype": "noteOn"
      },
      {
        "deltaTime": 0,
        "channel": 2,
        "type": "channel",
        "noteNumber": 53,
        "velocity": 127,
        "subtype": "noteOn"
      },
      {
        "deltaTime": 0,
        "channel": 2,
        "type": "channel",
        "noteNumber": 46,
        "velocity": 127,
        "subtype": "noteOn"
      },
      {
        "deltaTime": 480,
        "channel": 2,
        "type": "channel",
        "noteNumber": 46,
        "velocity": 0,
        "subtype": "noteOff"
      },
      {
        "deltaTime": 0,
        "channel": 2,
        "type": "channel",
        "noteNumber": 65,
        "velocity": 0,
        "subtype": "noteOff"
      },
      {
        "deltaTime": 0,
        "channel": 2,
        "type": "channel",
        "noteNumber": 58,
        "velocity": 0,
        "subtype": "noteOff"
      },
      {
        "deltaTime": 0,
        "channel": 2,
        "type": "channel",
        "noteNumber": 53,
        "velocity": 0,
        "subtype": "noteOff"
      },
      {
        "deltaTime": 0,
        "channel": 2,
        "type": "channel",
        "noteNumber": 65,
        "velocity": 127,
        "subtype": "noteOn"
      },
      {
        "deltaTime": 0,
        "channel": 2,
        "type": "channel",
        "noteNumber": 58,
        "velocity": 127,
        "subtype": "noteOn"
      },
      {
        "deltaTime": 0,
        "channel": 2,
        "type": "channel",
        "noteNumber": 53,
        "velocity": 127,
        "subtype": "noteOn"
      },
      {
        "deltaTime": 0,
        "channel": 2,
        "type": "channel",
        "noteNumber": 46,
        "velocity": 127,
        "subtype": "noteOn"
      },
      {
        "deltaTime": 480,
        "channel": 2,
        "type": "channel",
        "noteNumber": 46,
        "velocity": 0,
        "subtype": "noteOff"
      },
      {
        "deltaTime": 0,
        "channel": 2,
        "type": "channel",
        "noteNumber": 65,
        "velocity": 0,
        "subtype": "noteOff"
      },
      {
        "deltaTime": 0,
        "channel": 2,
        "type": "channel",
        "noteNumber": 58,
        "velocity": 0,
        "subtype": "noteOff"
      },
      {
        "deltaTime": 0,
        "channel": 2,
        "type": "channel",
        "noteNumber": 53,
        "velocity": 0,
        "subtype": "noteOff"
      },
      {
        "deltaTime": 0,
        "channel": 2,
        "type": "channel",
        "noteNumber": 65,
        "velocity": 127,
        "subtype": "noteOn"
      },
      {
        "deltaTime": 0,
        "channel": 2,
        "type": "channel",
        "noteNumber": 58,
        "velocity": 127,
        "subtype": "noteOn"
      },
      {
        "deltaTime": 0,
        "channel": 2,
        "type": "channel",
        "noteNumber": 53,
        "velocity": 127,
        "subtype": "noteOn"
      },
      {
        "deltaTime": 0,
        "channel": 2,
        "type": "channel",
        "noteNumber": 46,
        "velocity": 127,
        "subtype": "noteOn"
      },
      {
        "deltaTime": 480,
        "channel": 2,
        "type": "channel",
        "noteNumber": 46,
        "velocity": 0,
        "subtype": "noteOff"
      },
      {
        "deltaTime": 0,
        "channel": 2,
        "type": "channel",
        "noteNumber": 65,
        "velocity": 0,
        "subtype": "noteOff"
      },
      {
        "deltaTime": 0,
        "channel": 2,
        "type": "channel",
        "noteNumber": 58,
        "velocity": 0,
        "subtype": "noteOff"
      },
      {
        "deltaTime": 0,
        "channel": 2,
        "type": "channel",
        "noteNumber": 53,
        "velocity": 0,
        "subtype": "noteOff"
      },
      {
        "deltaTime": 0,
        "channel": 2,
        "type": "channel",
        "noteNumber": 65,
        "velocity": 127,
        "subtype": "noteOn"
      },
      {
        "deltaTime": 0,
        "channel": 2,
        "type": "channel",
        "noteNumber": 58,
        "velocity": 127,
        "subtype": "noteOn"
      },
      {
        "deltaTime": 0,
        "channel": 2,
        "type": "channel",
        "noteNumber": 53,
        "velocity": 127,
        "subtype": "noteOn"
      },
      {
        "deltaTime": 0,
        "channel": 2,
        "type": "channel",
        "noteNumber": 46,
        "velocity": 127,
        "subtype": "noteOn"
      },
      {
        "deltaTime": 480,
        "channel": 2,
        "type": "channel",
        "noteNumber": 46,
        "velocity": 0,
        "subtype": "noteOff"
      },
      {
        "deltaTime": 0,
        "channel": 2,
        "type": "channel",
        "noteNumber": 65,
        "velocity": 0,
        "subtype": "noteOff"
      },
      {
        "deltaTime": 0,
        "channel": 2,
        "type": "channel",
        "noteNumber": 58,
        "velocity": 0,
        "subtype": "noteOff"
      },
      {
        "deltaTime": 0,
        "channel": 2,
        "type": "channel",
        "noteNumber": 53,
        "velocity": 0,
        "subtype": "noteOff"
      },
      {
        "deltaTime": 0,
        "channel": 2,
        "type": "channel",
        "noteNumber": 65,
        "velocity": 127,
        "subtype": "noteOn"
      },
      {
        "deltaTime": 0,
        "channel": 2,
        "type": "channel",
        "noteNumber": 58,
        "velocity": 127,
        "subtype": "noteOn"
      },
      {
        "deltaTime": 0,
        "channel": 2,
        "type": "channel",
        "noteNumber": 53,
        "velocity": 127,
        "subtype": "noteOn"
      },
      {
        "deltaTime": 0,
        "channel": 2,
        "type": "channel",
        "noteNumber": 46,
        "velocity": 127,
        "subtype": "noteOn"
      },
      {
        "deltaTime": 480,
        "channel": 2,
        "type": "channel",
        "noteNumber": 46,
        "velocity": 0,
        "subtype": "noteOff"
      },
      {
        "deltaTime": 0,
        "channel": 2,
        "type": "channel",
        "noteNumber": 65,
        "velocity": 0,
        "subtype": "noteOff"
      },
      {
        "deltaTime": 0,
        "channel": 2,
        "type": "channel",
        "noteNumber": 58,
        "velocity": 0,
        "subtype": "noteOff"
      },
      {
        "deltaTime": 0,
        "channel": 2,
        "type": "channel",
        "noteNumber": 53,
        "velocity": 0,
        "subtype": "noteOff"
      },
      {
        "deltaTime": 0,
        "channel": 2,
        "type": "channel",
        "noteNumber": 65,
        "velocity": 127,
        "subtype": "noteOn"
      },
      {
        "deltaTime": 0,
        "channel": 2,
        "type": "channel",
        "noteNumber": 58,
        "velocity": 127,
        "subtype": "noteOn"
      },
      {
        "deltaTime": 0,
        "channel": 2,
        "type": "channel",
        "noteNumber": 53,
        "velocity": 127,
        "subtype": "noteOn"
      },
      {
        "deltaTime": 0,
        "channel": 2,
        "type": "channel",
        "noteNumber": 46,
        "velocity": 127,
        "subtype": "noteOn"
      },
      {
        "deltaTime": 480,
        "channel": 2,
        "type": "channel",
        "noteNumber": 46,
        "velocity": 0,
        "subtype": "noteOff"
      },
      {
        "deltaTime": 0,
        "channel": 2,
        "type": "channel",
        "noteNumber": 65,
        "velocity": 0,
        "subtype": "noteOff"
      },
      {
        "deltaTime": 0,
        "channel": 2,
        "type": "channel",
        "noteNumber": 58,
        "velocity": 0,
        "subtype": "noteOff"
      },
      {
        "deltaTime": 0,
        "channel": 2,
        "type": "channel",
        "noteNumber": 53,
        "velocity": 0,
        "subtype": "noteOff"
      },
      {
        "deltaTime": 0,
        "channel": 2,
        "type": "channel",
        "noteNumber": 65,
        "velocity": 127,
        "subtype": "noteOn"
      },
      {
        "deltaTime": 0,
        "channel": 2,
        "type": "channel",
        "noteNumber": 58,
        "velocity": 127,
        "subtype": "noteOn"
      },
      {
        "deltaTime": 0,
        "channel": 2,
        "type": "channel",
        "noteNumber": 53,
        "velocity": 127,
        "subtype": "noteOn"
      },
      {
        "deltaTime": 0,
        "channel": 2,
        "type": "channel",
        "noteNumber": 46,
        "velocity": 127,
        "subtype": "noteOn"
      },
      {
        "deltaTime": 480,
        "channel": 2,
        "type": "channel",
        "noteNumber": 46,
        "velocity": 0,
        "subtype": "noteOff"
      },
      {
        "deltaTime": 0,
        "channel": 2,
        "type": "channel",
        "noteNumber": 65,
        "velocity": 0,
        "subtype": "noteOff"
      },
      {
        "deltaTime": 0,
        "channel": 2,
        "type": "channel",
        "noteNumber": 58,
        "velocity": 0,
        "subtype": "noteOff"
      },
      {
        "deltaTime": 0,
        "channel": 2,
        "type": "channel",
        "noteNumber": 53,
        "velocity": 0,
        "subtype": "noteOff"
      },
      {
        "deltaTime": 0,
        "channel": 2,
        "type": "channel",
        "noteNumber": 65,
        "velocity": 127,
        "subtype": "noteOn"
      },
      {
        "deltaTime": 0,
        "channel": 2,
        "type": "channel",
        "noteNumber": 58,
        "velocity": 127,
        "subtype": "noteOn"
      },
      {
        "deltaTime": 0,
        "channel": 2,
        "type": "channel",
        "noteNumber": 53,
        "velocity": 127,
        "subtype": "noteOn"
      },
      {
        "deltaTime": 0,
        "channel": 2,
        "type": "channel",
        "noteNumber": 46,
        "velocity": 127,
        "subtype": "noteOn"
      },
      {
        "deltaTime": 480,
        "channel": 2,
        "type": "channel",
        "noteNumber": 46,
        "velocity": 0,
        "subtype": "noteOff"
      },
      {
        "deltaTime": 0,
        "channel": 2,
        "type": "channel",
        "noteNumber": 65,
        "velocity": 0,
        "subtype": "noteOff"
      },
      {
        "deltaTime": 0,
        "channel": 2,
        "type": "channel",
        "noteNumber": 58,
        "velocity": 0,
        "subtype": "noteOff"
      },
      {
        "deltaTime": 0,
        "channel": 2,
        "type": "channel",
        "noteNumber": 53,
        "velocity": 0,
        "subtype": "noteOff"
      },
      {
        "deltaTime": 0,
        "channel": 2,
        "type": "channel",
        "noteNumber": 65,
        "velocity": 127,
        "subtype": "noteOn"
      },
      {
        "deltaTime": 0,
        "channel": 2,
        "type": "channel",
        "noteNumber": 58,
        "velocity": 127,
        "subtype": "noteOn"
      },
      {
        "deltaTime": 0,
        "channel": 2,
        "type": "channel",
        "noteNumber": 53,
        "velocity": 127,
        "subtype": "noteOn"
      },
      {
        "deltaTime": 0,
        "channel": 2,
        "type": "channel",
        "noteNumber": 46,
        "velocity": 127,
        "subtype": "noteOn"
      },
      {
        "deltaTime": 480,
        "channel": 2,
        "type": "channel",
        "noteNumber": 46,
        "velocity": 0,
        "subtype": "noteOff"
      },
      {
        "deltaTime": 0,
        "channel": 2,
        "type": "channel",
        "noteNumber": 65,
        "velocity": 0,
        "subtype": "noteOff"
      },
      {
        "deltaTime": 0,
        "channel": 2,
        "type": "channel",
        "noteNumber": 58,
        "velocity": 0,
        "subtype": "noteOff"
      },
      {
        "deltaTime": 0,
        "channel": 2,
        "type": "channel",
        "noteNumber": 53,
        "velocity": 0,
        "subtype": "noteOff"
      },
      {
        "deltaTime": 0,
        "channel": 2,
        "type": "channel",
        "noteNumber": 55,
        "velocity": 127,
        "subtype": "noteOn"
      },
      {
        "deltaTime": 0,
        "channel": 2,
        "type": "channel",
        "noteNumber": 48,
        "velocity": 127,
        "subtype": "noteOn"
      },
      {
        "deltaTime": 480,
        "channel": 2,
        "type": "channel",
        "noteNumber": 48,
        "velocity": 0,
        "subtype": "noteOff"
      },
      {
        "deltaTime": 0,
        "channel": 2,
        "type": "channel",
        "noteNumber": 55,
        "velocity": 0,
        "subtype": "noteOff"
      },
      {
        "deltaTime": 0,
        "channel": 2,
        "type": "channel",
        "noteNumber": 55,
        "velocity": 127,
        "subtype": "noteOn"
      },
      {
        "deltaTime": 0,
        "channel": 2,
        "type": "channel",
        "noteNumber": 48,
        "velocity": 127,
        "subtype": "noteOn"
      },
      {
        "deltaTime": 480,
        "channel": 2,
        "type": "channel",
        "noteNumber": 48,
        "velocity": 0,
        "subtype": "noteOff"
      },
      {
        "deltaTime": 0,
        "channel": 2,
        "type": "channel",
        "noteNumber": 55,
        "velocity": 0,
        "subtype": "noteOff"
      },
      {
        "deltaTime": 0,
        "channel": 2,
        "type": "channel",
        "noteNumber": 55,
        "velocity": 127,
        "subtype": "noteOn"
      },
      {
        "deltaTime": 0,
        "channel": 2,
        "type": "channel",
        "noteNumber": 48,
        "velocity": 127,
        "subtype": "noteOn"
      },
      {
        "deltaTime": 480,
        "channel": 2,
        "type": "channel",
        "noteNumber": 48,
        "velocity": 0,
        "subtype": "noteOff"
      },
      {
        "deltaTime": 0,
        "channel": 2,
        "type": "channel",
        "noteNumber": 55,
        "velocity": 0,
        "subtype": "noteOff"
      },
      {
        "deltaTime": 0,
        "channel": 2,
        "type": "channel",
        "noteNumber": 55,
        "velocity": 127,
        "subtype": "noteOn"
      },
      {
        "deltaTime": 0,
        "channel": 2,
        "type": "channel",
        "noteNumber": 48,
        "velocity": 127,
        "subtype": "noteOn"
      },
      {
        "deltaTime": 480,
        "channel": 2,
        "type": "channel",
        "noteNumber": 48,
        "velocity": 0,
        "subtype": "noteOff"
      },
      {
        "deltaTime": 0,
        "channel": 2,
        "type": "channel",
        "noteNumber": 55,
        "velocity": 0,
        "subtype": "noteOff"
      },
      {
        "deltaTime": 0,
        "channel": 2,
        "type": "channel",
        "noteNumber": 55,
        "velocity": 127,
        "subtype": "noteOn"
      },
      {
        "deltaTime": 0,
        "channel": 2,
        "type": "channel",
        "noteNumber": 48,
        "velocity": 127,
        "subtype": "noteOn"
      },
      {
        "deltaTime": 480,
        "channel": 2,
        "type": "channel",
        "noteNumber": 48,
        "velocity": 0,
        "subtype": "noteOff"
      },
      {
        "deltaTime": 0,
        "channel": 2,
        "type": "channel",
        "noteNumber": 55,
        "velocity": 0,
        "subtype": "noteOff"
      },
      {
        "deltaTime": 0,
        "channel": 2,
        "type": "channel",
        "noteNumber": 55,
        "velocity": 127,
        "subtype": "noteOn"
      },
      {
        "deltaTime": 0,
        "channel": 2,
        "type": "channel",
        "noteNumber": 48,
        "velocity": 127,
        "subtype": "noteOn"
      },
      {
        "deltaTime": 480,
        "channel": 2,
        "type": "channel",
        "noteNumber": 48,
        "velocity": 0,
        "subtype": "noteOff"
      },
      {
        "deltaTime": 0,
        "channel": 2,
        "type": "channel",
        "noteNumber": 55,
        "velocity": 0,
        "subtype": "noteOff"
      },
      {
        "deltaTime": 0,
        "channel": 2,
        "type": "channel",
        "noteNumber": 55,
        "velocity": 127,
        "subtype": "noteOn"
      },
      {
        "deltaTime": 0,
        "channel": 2,
        "type": "channel",
        "noteNumber": 48,
        "velocity": 127,
        "subtype": "noteOn"
      },
      {
        "deltaTime": 480,
        "channel": 2,
        "type": "channel",
        "noteNumber": 48,
        "velocity": 0,
        "subtype": "noteOff"
      },
      {
        "deltaTime": 0,
        "channel": 2,
        "type": "channel",
        "noteNumber": 55,
        "velocity": 0,
        "subtype": "noteOff"
      },
      {
        "deltaTime": 0,
        "channel": 2,
        "type": "channel",
        "noteNumber": 55,
        "velocity": 127,
        "subtype": "noteOn"
      },
      {
        "deltaTime": 0,
        "channel": 2,
        "type": "channel",
        "noteNumber": 48,
        "velocity": 127,
        "subtype": "noteOn"
      },
      {
        "deltaTime": 480,
        "channel": 2,
        "type": "channel",
        "noteNumber": 48,
        "velocity": 0,
        "subtype": "noteOff"
      },
      {
        "deltaTime": 0,
        "channel": 2,
        "type": "channel",
        "noteNumber": 55,
        "velocity": 0,
        "subtype": "noteOff"
      },
      {
        "deltaTime": 0,
        "channel": 2,
        "type": "channel",
        "noteNumber": 65,
        "velocity": 127,
        "subtype": "noteOn"
      },
      {
        "deltaTime": 0,
        "channel": 2,
        "type": "channel",
        "noteNumber": 58,
        "velocity": 127,
        "subtype": "noteOn"
      },
      {
        "deltaTime": 0,
        "channel": 2,
        "type": "channel",
        "noteNumber": 53,
        "velocity": 127,
        "subtype": "noteOn"
      },
      {
        "deltaTime": 0,
        "channel": 2,
        "type": "channel",
        "noteNumber": 46,
        "velocity": 127,
        "subtype": "noteOn"
      },
      {
        "deltaTime": 480,
        "channel": 2,
        "type": "channel",
        "noteNumber": 46,
        "velocity": 0,
        "subtype": "noteOff"
      },
      {
        "deltaTime": 0,
        "channel": 2,
        "type": "channel",
        "noteNumber": 65,
        "velocity": 0,
        "subtype": "noteOff"
      },
      {
        "deltaTime": 0,
        "channel": 2,
        "type": "channel",
        "noteNumber": 58,
        "velocity": 0,
        "subtype": "noteOff"
      },
      {
        "deltaTime": 0,
        "channel": 2,
        "type": "channel",
        "noteNumber": 53,
        "velocity": 0,
        "subtype": "noteOff"
      },
      {
        "deltaTime": 0,
        "channel": 2,
        "type": "channel",
        "noteNumber": 65,
        "velocity": 127,
        "subtype": "noteOn"
      },
      {
        "deltaTime": 0,
        "channel": 2,
        "type": "channel",
        "noteNumber": 58,
        "velocity": 127,
        "subtype": "noteOn"
      },
      {
        "deltaTime": 0,
        "channel": 2,
        "type": "channel",
        "noteNumber": 53,
        "velocity": 127,
        "subtype": "noteOn"
      },
      {
        "deltaTime": 0,
        "channel": 2,
        "type": "channel",
        "noteNumber": 46,
        "velocity": 127,
        "subtype": "noteOn"
      },
      {
        "deltaTime": 480,
        "channel": 2,
        "type": "channel",
        "noteNumber": 46,
        "velocity": 0,
        "subtype": "noteOff"
      },
      {
        "deltaTime": 0,
        "channel": 2,
        "type": "channel",
        "noteNumber": 65,
        "velocity": 0,
        "subtype": "noteOff"
      },
      {
        "deltaTime": 0,
        "channel": 2,
        "type": "channel",
        "noteNumber": 58,
        "velocity": 0,
        "subtype": "noteOff"
      },
      {
        "deltaTime": 0,
        "channel": 2,
        "type": "channel",
        "noteNumber": 53,
        "velocity": 0,
        "subtype": "noteOff"
      },
      {
        "deltaTime": 0,
        "channel": 2,
        "type": "channel",
        "noteNumber": 65,
        "velocity": 127,
        "subtype": "noteOn"
      },
      {
        "deltaTime": 0,
        "channel": 2,
        "type": "channel",
        "noteNumber": 58,
        "velocity": 127,
        "subtype": "noteOn"
      },
      {
        "deltaTime": 0,
        "channel": 2,
        "type": "channel",
        "noteNumber": 53,
        "velocity": 127,
        "subtype": "noteOn"
      },
      {
        "deltaTime": 0,
        "channel": 2,
        "type": "channel",
        "noteNumber": 46,
        "velocity": 127,
        "subtype": "noteOn"
      },
      {
        "deltaTime": 480,
        "channel": 2,
        "type": "channel",
        "noteNumber": 46,
        "velocity": 0,
        "subtype": "noteOff"
      },
      {
        "deltaTime": 0,
        "channel": 2,
        "type": "channel",
        "noteNumber": 65,
        "velocity": 0,
        "subtype": "noteOff"
      },
      {
        "deltaTime": 0,
        "channel": 2,
        "type": "channel",
        "noteNumber": 58,
        "velocity": 0,
        "subtype": "noteOff"
      },
      {
        "deltaTime": 0,
        "channel": 2,
        "type": "channel",
        "noteNumber": 53,
        "velocity": 0,
        "subtype": "noteOff"
      },
      {
        "deltaTime": 0,
        "channel": 2,
        "type": "channel",
        "noteNumber": 65,
        "velocity": 127,
        "subtype": "noteOn"
      },
      {
        "deltaTime": 0,
        "channel": 2,
        "type": "channel",
        "noteNumber": 58,
        "velocity": 127,
        "subtype": "noteOn"
      },
      {
        "deltaTime": 0,
        "channel": 2,
        "type": "channel",
        "noteNumber": 53,
        "velocity": 127,
        "subtype": "noteOn"
      },
      {
        "deltaTime": 0,
        "channel": 2,
        "type": "channel",
        "noteNumber": 46,
        "velocity": 127,
        "subtype": "noteOn"
      },
      {
        "deltaTime": 480,
        "channel": 2,
        "type": "channel",
        "noteNumber": 46,
        "velocity": 0,
        "subtype": "noteOff"
      },
      {
        "deltaTime": 0,
        "channel": 2,
        "type": "channel",
        "noteNumber": 65,
        "velocity": 0,
        "subtype": "noteOff"
      },
      {
        "deltaTime": 0,
        "channel": 2,
        "type": "channel",
        "noteNumber": 58,
        "velocity": 0,
        "subtype": "noteOff"
      },
      {
        "deltaTime": 0,
        "channel": 2,
        "type": "channel",
        "noteNumber": 53,
        "velocity": 0,
        "subtype": "noteOff"
      },
      {
        "deltaTime": 0,
        "channel": 2,
        "type": "channel",
        "noteNumber": 65,
        "velocity": 127,
        "subtype": "noteOn"
      },
      {
        "deltaTime": 0,
        "channel": 2,
        "type": "channel",
        "noteNumber": 58,
        "velocity": 127,
        "subtype": "noteOn"
      },
      {
        "deltaTime": 0,
        "channel": 2,
        "type": "channel",
        "noteNumber": 53,
        "velocity": 127,
        "subtype": "noteOn"
      },
      {
        "deltaTime": 0,
        "channel": 2,
        "type": "channel",
        "noteNumber": 46,
        "velocity": 127,
        "subtype": "noteOn"
      },
      {
        "deltaTime": 480,
        "channel": 2,
        "type": "channel",
        "noteNumber": 46,
        "velocity": 0,
        "subtype": "noteOff"
      },
      {
        "deltaTime": 0,
        "channel": 2,
        "type": "channel",
        "noteNumber": 65,
        "velocity": 0,
        "subtype": "noteOff"
      },
      {
        "deltaTime": 0,
        "channel": 2,
        "type": "channel",
        "noteNumber": 58,
        "velocity": 0,
        "subtype": "noteOff"
      },
      {
        "deltaTime": 0,
        "channel": 2,
        "type": "channel",
        "noteNumber": 53,
        "velocity": 0,
        "subtype": "noteOff"
      },
      {
        "deltaTime": 0,
        "channel": 2,
        "type": "channel",
        "noteNumber": 65,
        "velocity": 127,
        "subtype": "noteOn"
      },
      {
        "deltaTime": 0,
        "channel": 2,
        "type": "channel",
        "noteNumber": 58,
        "velocity": 127,
        "subtype": "noteOn"
      },
      {
        "deltaTime": 0,
        "channel": 2,
        "type": "channel",
        "noteNumber": 53,
        "velocity": 127,
        "subtype": "noteOn"
      },
      {
        "deltaTime": 0,
        "channel": 2,
        "type": "channel",
        "noteNumber": 46,
        "velocity": 127,
        "subtype": "noteOn"
      },
      {
        "deltaTime": 480,
        "channel": 2,
        "type": "channel",
        "noteNumber": 46,
        "velocity": 0,
        "subtype": "noteOff"
      },
      {
        "deltaTime": 0,
        "channel": 2,
        "type": "channel",
        "noteNumber": 65,
        "velocity": 0,
        "subtype": "noteOff"
      },
      {
        "deltaTime": 0,
        "channel": 2,
        "type": "channel",
        "noteNumber": 58,
        "velocity": 0,
        "subtype": "noteOff"
      },
      {
        "deltaTime": 0,
        "channel": 2,
        "type": "channel",
        "noteNumber": 53,
        "velocity": 0,
        "subtype": "noteOff"
      },
      {
        "deltaTime": 0,
        "channel": 2,
        "type": "channel",
        "noteNumber": 65,
        "velocity": 127,
        "subtype": "noteOn"
      },
      {
        "deltaTime": 0,
        "channel": 2,
        "type": "channel",
        "noteNumber": 58,
        "velocity": 127,
        "subtype": "noteOn"
      },
      {
        "deltaTime": 0,
        "channel": 2,
        "type": "channel",
        "noteNumber": 53,
        "velocity": 127,
        "subtype": "noteOn"
      },
      {
        "deltaTime": 0,
        "channel": 2,
        "type": "channel",
        "noteNumber": 46,
        "velocity": 127,
        "subtype": "noteOn"
      },
      {
        "deltaTime": 480,
        "channel": 2,
        "type": "channel",
        "noteNumber": 46,
        "velocity": 0,
        "subtype": "noteOff"
      },
      {
        "deltaTime": 0,
        "channel": 2,
        "type": "channel",
        "noteNumber": 65,
        "velocity": 0,
        "subtype": "noteOff"
      },
      {
        "deltaTime": 0,
        "channel": 2,
        "type": "channel",
        "noteNumber": 58,
        "velocity": 0,
        "subtype": "noteOff"
      },
      {
        "deltaTime": 0,
        "channel": 2,
        "type": "channel",
        "noteNumber": 53,
        "velocity": 0,
        "subtype": "noteOff"
      },
      {
        "deltaTime": 0,
        "channel": 2,
        "type": "channel",
        "noteNumber": 65,
        "velocity": 127,
        "subtype": "noteOn"
      },
      {
        "deltaTime": 0,
        "channel": 2,
        "type": "channel",
        "noteNumber": 58,
        "velocity": 127,
        "subtype": "noteOn"
      },
      {
        "deltaTime": 0,
        "channel": 2,
        "type": "channel",
        "noteNumber": 53,
        "velocity": 127,
        "subtype": "noteOn"
      },
      {
        "deltaTime": 0,
        "channel": 2,
        "type": "channel",
        "noteNumber": 46,
        "velocity": 127,
        "subtype": "noteOn"
      },
      {
        "deltaTime": 480,
        "channel": 2,
        "type": "channel",
        "noteNumber": 46,
        "velocity": 0,
        "subtype": "noteOff"
      },
      {
        "deltaTime": 0,
        "channel": 2,
        "type": "channel",
        "noteNumber": 65,
        "velocity": 0,
        "subtype": "noteOff"
      },
      {
        "deltaTime": 0,
        "channel": 2,
        "type": "channel",
        "noteNumber": 58,
        "velocity": 0,
        "subtype": "noteOff"
      },
      {
        "deltaTime": 0,
        "channel": 2,
        "type": "channel",
        "noteNumber": 53,
        "velocity": 0,
        "subtype": "noteOff"
      },
      {
        "deltaTime": 0,
        "channel": 2,
        "type": "channel",
        "noteNumber": 55,
        "velocity": 127,
        "subtype": "noteOn"
      },
      {
        "deltaTime": 0,
        "channel": 2,
        "type": "channel",
        "noteNumber": 48,
        "velocity": 127,
        "subtype": "noteOn"
      },
      {
        "deltaTime": 480,
        "channel": 2,
        "type": "channel",
        "noteNumber": 48,
        "velocity": 0,
        "subtype": "noteOff"
      },
      {
        "deltaTime": 0,
        "channel": 2,
        "type": "channel",
        "noteNumber": 55,
        "velocity": 0,
        "subtype": "noteOff"
      },
      {
        "deltaTime": 0,
        "channel": 2,
        "type": "channel",
        "noteNumber": 55,
        "velocity": 127,
        "subtype": "noteOn"
      },
      {
        "deltaTime": 0,
        "channel": 2,
        "type": "channel",
        "noteNumber": 48,
        "velocity": 127,
        "subtype": "noteOn"
      },
      {
        "deltaTime": 480,
        "channel": 2,
        "type": "channel",
        "noteNumber": 48,
        "velocity": 0,
        "subtype": "noteOff"
      },
      {
        "deltaTime": 0,
        "channel": 2,
        "type": "channel",
        "noteNumber": 55,
        "velocity": 0,
        "subtype": "noteOff"
      },
      {
        "deltaTime": 0,
        "channel": 2,
        "type": "channel",
        "noteNumber": 55,
        "velocity": 127,
        "subtype": "noteOn"
      },
      {
        "deltaTime": 0,
        "channel": 2,
        "type": "channel",
        "noteNumber": 48,
        "velocity": 127,
        "subtype": "noteOn"
      },
      {
        "deltaTime": 480,
        "channel": 2,
        "type": "channel",
        "noteNumber": 48,
        "velocity": 0,
        "subtype": "noteOff"
      },
      {
        "deltaTime": 0,
        "channel": 2,
        "type": "channel",
        "noteNumber": 55,
        "velocity": 0,
        "subtype": "noteOff"
      },
      {
        "deltaTime": 0,
        "channel": 2,
        "type": "channel",
        "noteNumber": 55,
        "velocity": 127,
        "subtype": "noteOn"
      },
      {
        "deltaTime": 0,
        "channel": 2,
        "type": "channel",
        "noteNumber": 48,
        "velocity": 127,
        "subtype": "noteOn"
      },
      {
        "deltaTime": 480,
        "channel": 2,
        "type": "channel",
        "noteNumber": 48,
        "velocity": 0,
        "subtype": "noteOff"
      },
      {
        "deltaTime": 0,
        "channel": 2,
        "type": "channel",
        "noteNumber": 55,
        "velocity": 0,
        "subtype": "noteOff"
      },
      {
        "deltaTime": 0,
        "channel": 2,
        "type": "channel",
        "noteNumber": 55,
        "velocity": 127,
        "subtype": "noteOn"
      },
      {
        "deltaTime": 0,
        "channel": 2,
        "type": "channel",
        "noteNumber": 48,
        "velocity": 127,
        "subtype": "noteOn"
      },
      {
        "deltaTime": 480,
        "channel": 2,
        "type": "channel",
        "noteNumber": 48,
        "velocity": 0,
        "subtype": "noteOff"
      },
      {
        "deltaTime": 0,
        "channel": 2,
        "type": "channel",
        "noteNumber": 55,
        "velocity": 0,
        "subtype": "noteOff"
      },
      {
        "deltaTime": 0,
        "channel": 2,
        "type": "channel",
        "noteNumber": 55,
        "velocity": 127,
        "subtype": "noteOn"
      },
      {
        "deltaTime": 0,
        "channel": 2,
        "type": "channel",
        "noteNumber": 48,
        "velocity": 127,
        "subtype": "noteOn"
      },
      {
        "deltaTime": 480,
        "channel": 2,
        "type": "channel",
        "noteNumber": 48,
        "velocity": 0,
        "subtype": "noteOff"
      },
      {
        "deltaTime": 0,
        "channel": 2,
        "type": "channel",
        "noteNumber": 55,
        "velocity": 0,
        "subtype": "noteOff"
      },
      {
        "deltaTime": 0,
        "channel": 2,
        "type": "channel",
        "noteNumber": 55,
        "velocity": 127,
        "subtype": "noteOn"
      },
      {
        "deltaTime": 0,
        "channel": 2,
        "type": "channel",
        "noteNumber": 48,
        "velocity": 127,
        "subtype": "noteOn"
      },
      {
        "deltaTime": 480,
        "channel": 2,
        "type": "channel",
        "noteNumber": 48,
        "velocity": 0,
        "subtype": "noteOff"
      },
      {
        "deltaTime": 0,
        "channel": 2,
        "type": "channel",
        "noteNumber": 55,
        "velocity": 0,
        "subtype": "noteOff"
      },
      {
        "deltaTime": 0,
        "channel": 2,
        "type": "channel",
        "noteNumber": 55,
        "velocity": 127,
        "subtype": "noteOn"
      },
      {
        "deltaTime": 0,
        "channel": 2,
        "type": "channel",
        "noteNumber": 48,
        "velocity": 127,
        "subtype": "noteOn"
      },
      {
        "deltaTime": 480,
        "channel": 2,
        "type": "channel",
        "noteNumber": 48,
        "velocity": 0,
        "subtype": "noteOff"
      },
      {
        "deltaTime": 0,
        "channel": 2,
        "type": "channel",
        "noteNumber": 55,
        "velocity": 0,
        "subtype": "noteOff"
      },
      {
        "deltaTime": 0,
        "channel": 2,
        "type": "channel",
        "noteNumber": 65,
        "velocity": 127,
        "subtype": "noteOn"
      },
      {
        "deltaTime": 0,
        "channel": 2,
        "type": "channel",
        "noteNumber": 58,
        "velocity": 127,
        "subtype": "noteOn"
      },
      {
        "deltaTime": 0,
        "channel": 2,
        "type": "channel",
        "noteNumber": 53,
        "velocity": 127,
        "subtype": "noteOn"
      },
      {
        "deltaTime": 0,
        "channel": 2,
        "type": "channel",
        "noteNumber": 46,
        "velocity": 127,
        "subtype": "noteOn"
      },
      {
        "deltaTime": 480,
        "channel": 2,
        "type": "channel",
        "noteNumber": 46,
        "velocity": 0,
        "subtype": "noteOff"
      },
      {
        "deltaTime": 0,
        "channel": 2,
        "type": "channel",
        "noteNumber": 65,
        "velocity": 0,
        "subtype": "noteOff"
      },
      {
        "deltaTime": 0,
        "channel": 2,
        "type": "channel",
        "noteNumber": 58,
        "velocity": 0,
        "subtype": "noteOff"
      },
      {
        "deltaTime": 0,
        "channel": 2,
        "type": "channel",
        "noteNumber": 53,
        "velocity": 0,
        "subtype": "noteOff"
      },
      {
        "deltaTime": 0,
        "channel": 2,
        "type": "channel",
        "noteNumber": 65,
        "velocity": 127,
        "subtype": "noteOn"
      },
      {
        "deltaTime": 0,
        "channel": 2,
        "type": "channel",
        "noteNumber": 58,
        "velocity": 127,
        "subtype": "noteOn"
      },
      {
        "deltaTime": 0,
        "channel": 2,
        "type": "channel",
        "noteNumber": 53,
        "velocity": 127,
        "subtype": "noteOn"
      },
      {
        "deltaTime": 0,
        "channel": 2,
        "type": "channel",
        "noteNumber": 46,
        "velocity": 127,
        "subtype": "noteOn"
      },
      {
        "deltaTime": 480,
        "channel": 2,
        "type": "channel",
        "noteNumber": 46,
        "velocity": 0,
        "subtype": "noteOff"
      },
      {
        "deltaTime": 0,
        "channel": 2,
        "type": "channel",
        "noteNumber": 65,
        "velocity": 0,
        "subtype": "noteOff"
      },
      {
        "deltaTime": 0,
        "channel": 2,
        "type": "channel",
        "noteNumber": 58,
        "velocity": 0,
        "subtype": "noteOff"
      },
      {
        "deltaTime": 0,
        "channel": 2,
        "type": "channel",
        "noteNumber": 53,
        "velocity": 0,
        "subtype": "noteOff"
      },
      {
        "deltaTime": 0,
        "channel": 2,
        "type": "channel",
        "noteNumber": 65,
        "velocity": 127,
        "subtype": "noteOn"
      },
      {
        "deltaTime": 0,
        "channel": 2,
        "type": "channel",
        "noteNumber": 58,
        "velocity": 127,
        "subtype": "noteOn"
      },
      {
        "deltaTime": 0,
        "channel": 2,
        "type": "channel",
        "noteNumber": 53,
        "velocity": 127,
        "subtype": "noteOn"
      },
      {
        "deltaTime": 0,
        "channel": 2,
        "type": "channel",
        "noteNumber": 46,
        "velocity": 127,
        "subtype": "noteOn"
      },
      {
        "deltaTime": 480,
        "channel": 2,
        "type": "channel",
        "noteNumber": 46,
        "velocity": 0,
        "subtype": "noteOff"
      },
      {
        "deltaTime": 0,
        "channel": 2,
        "type": "channel",
        "noteNumber": 65,
        "velocity": 0,
        "subtype": "noteOff"
      },
      {
        "deltaTime": 0,
        "channel": 2,
        "type": "channel",
        "noteNumber": 58,
        "velocity": 0,
        "subtype": "noteOff"
      },
      {
        "deltaTime": 0,
        "channel": 2,
        "type": "channel",
        "noteNumber": 53,
        "velocity": 0,
        "subtype": "noteOff"
      },
      {
        "deltaTime": 0,
        "channel": 2,
        "type": "channel",
        "noteNumber": 65,
        "velocity": 127,
        "subtype": "noteOn"
      },
      {
        "deltaTime": 0,
        "channel": 2,
        "type": "channel",
        "noteNumber": 58,
        "velocity": 127,
        "subtype": "noteOn"
      },
      {
        "deltaTime": 0,
        "channel": 2,
        "type": "channel",
        "noteNumber": 53,
        "velocity": 127,
        "subtype": "noteOn"
      },
      {
        "deltaTime": 0,
        "channel": 2,
        "type": "channel",
        "noteNumber": 46,
        "velocity": 127,
        "subtype": "noteOn"
      },
      {
        "deltaTime": 480,
        "channel": 2,
        "type": "channel",
        "noteNumber": 46,
        "velocity": 0,
        "subtype": "noteOff"
      },
      {
        "deltaTime": 0,
        "channel": 2,
        "type": "channel",
        "noteNumber": 65,
        "velocity": 0,
        "subtype": "noteOff"
      },
      {
        "deltaTime": 0,
        "channel": 2,
        "type": "channel",
        "noteNumber": 58,
        "velocity": 0,
        "subtype": "noteOff"
      },
      {
        "deltaTime": 0,
        "channel": 2,
        "type": "channel",
        "noteNumber": 53,
        "velocity": 0,
        "subtype": "noteOff"
      },
      {
        "deltaTime": 0,
        "channel": 2,
        "type": "channel",
        "noteNumber": 65,
        "velocity": 127,
        "subtype": "noteOn"
      },
      {
        "deltaTime": 0,
        "channel": 2,
        "type": "channel",
        "noteNumber": 58,
        "velocity": 127,
        "subtype": "noteOn"
      },
      {
        "deltaTime": 0,
        "channel": 2,
        "type": "channel",
        "noteNumber": 53,
        "velocity": 127,
        "subtype": "noteOn"
      },
      {
        "deltaTime": 0,
        "channel": 2,
        "type": "channel",
        "noteNumber": 46,
        "velocity": 127,
        "subtype": "noteOn"
      },
      {
        "deltaTime": 480,
        "channel": 2,
        "type": "channel",
        "noteNumber": 46,
        "velocity": 0,
        "subtype": "noteOff"
      },
      {
        "deltaTime": 0,
        "channel": 2,
        "type": "channel",
        "noteNumber": 65,
        "velocity": 0,
        "subtype": "noteOff"
      },
      {
        "deltaTime": 0,
        "channel": 2,
        "type": "channel",
        "noteNumber": 58,
        "velocity": 0,
        "subtype": "noteOff"
      },
      {
        "deltaTime": 0,
        "channel": 2,
        "type": "channel",
        "noteNumber": 53,
        "velocity": 0,
        "subtype": "noteOff"
      },
      {
        "deltaTime": 0,
        "channel": 2,
        "type": "channel",
        "noteNumber": 65,
        "velocity": 127,
        "subtype": "noteOn"
      },
      {
        "deltaTime": 0,
        "channel": 2,
        "type": "channel",
        "noteNumber": 58,
        "velocity": 127,
        "subtype": "noteOn"
      },
      {
        "deltaTime": 0,
        "channel": 2,
        "type": "channel",
        "noteNumber": 53,
        "velocity": 127,
        "subtype": "noteOn"
      },
      {
        "deltaTime": 0,
        "channel": 2,
        "type": "channel",
        "noteNumber": 46,
        "velocity": 127,
        "subtype": "noteOn"
      },
      {
        "deltaTime": 480,
        "channel": 2,
        "type": "channel",
        "noteNumber": 46,
        "velocity": 0,
        "subtype": "noteOff"
      },
      {
        "deltaTime": 0,
        "channel": 2,
        "type": "channel",
        "noteNumber": 65,
        "velocity": 0,
        "subtype": "noteOff"
      },
      {
        "deltaTime": 0,
        "channel": 2,
        "type": "channel",
        "noteNumber": 58,
        "velocity": 0,
        "subtype": "noteOff"
      },
      {
        "deltaTime": 0,
        "channel": 2,
        "type": "channel",
        "noteNumber": 53,
        "velocity": 0,
        "subtype": "noteOff"
      },
      {
        "deltaTime": 0,
        "channel": 2,
        "type": "channel",
        "noteNumber": 65,
        "velocity": 127,
        "subtype": "noteOn"
      },
      {
        "deltaTime": 0,
        "channel": 2,
        "type": "channel",
        "noteNumber": 58,
        "velocity": 127,
        "subtype": "noteOn"
      },
      {
        "deltaTime": 0,
        "channel": 2,
        "type": "channel",
        "noteNumber": 53,
        "velocity": 127,
        "subtype": "noteOn"
      },
      {
        "deltaTime": 0,
        "channel": 2,
        "type": "channel",
        "noteNumber": 46,
        "velocity": 127,
        "subtype": "noteOn"
      },
      {
        "deltaTime": 480,
        "channel": 2,
        "type": "channel",
        "noteNumber": 46,
        "velocity": 0,
        "subtype": "noteOff"
      },
      {
        "deltaTime": 0,
        "channel": 2,
        "type": "channel",
        "noteNumber": 65,
        "velocity": 0,
        "subtype": "noteOff"
      },
      {
        "deltaTime": 0,
        "channel": 2,
        "type": "channel",
        "noteNumber": 58,
        "velocity": 0,
        "subtype": "noteOff"
      },
      {
        "deltaTime": 0,
        "channel": 2,
        "type": "channel",
        "noteNumber": 53,
        "velocity": 0,
        "subtype": "noteOff"
      },
      {
        "deltaTime": 0,
        "channel": 2,
        "type": "channel",
        "noteNumber": 65,
        "velocity": 127,
        "subtype": "noteOn"
      },
      {
        "deltaTime": 0,
        "channel": 2,
        "type": "channel",
        "noteNumber": 58,
        "velocity": 127,
        "subtype": "noteOn"
      },
      {
        "deltaTime": 0,
        "channel": 2,
        "type": "channel",
        "noteNumber": 53,
        "velocity": 127,
        "subtype": "noteOn"
      },
      {
        "deltaTime": 0,
        "channel": 2,
        "type": "channel",
        "noteNumber": 46,
        "velocity": 127,
        "subtype": "noteOn"
      },
      {
        "deltaTime": 480,
        "channel": 2,
        "type": "channel",
        "noteNumber": 46,
        "velocity": 0,
        "subtype": "noteOff"
      },
      {
        "deltaTime": 0,
        "channel": 2,
        "type": "channel",
        "noteNumber": 65,
        "velocity": 0,
        "subtype": "noteOff"
      },
      {
        "deltaTime": 0,
        "channel": 2,
        "type": "channel",
        "noteNumber": 58,
        "velocity": 0,
        "subtype": "noteOff"
      },
      {
        "deltaTime": 0,
        "channel": 2,
        "type": "channel",
        "noteNumber": 53,
        "velocity": 0,
        "subtype": "noteOff"
      },
      {
        "deltaTime": 0,
        "channel": 2,
        "type": "channel",
        "noteNumber": 63,
        "velocity": 127,
        "subtype": "noteOn"
      },
      {
        "deltaTime": 0,
        "channel": 2,
        "type": "channel",
        "noteNumber": 56,
        "velocity": 127,
        "subtype": "noteOn"
      },
      {
        "deltaTime": 0,
        "channel": 2,
        "type": "channel",
        "noteNumber": 51,
        "velocity": 127,
        "subtype": "noteOn"
      },
      {
        "deltaTime": 0,
        "channel": 2,
        "type": "channel",
        "noteNumber": 44,
        "velocity": 127,
        "subtype": "noteOn"
      },
      {
        "deltaTime": 480,
        "channel": 2,
        "type": "channel",
        "noteNumber": 44,
        "velocity": 0,
        "subtype": "noteOff"
      },
      {
        "deltaTime": 0,
        "channel": 2,
        "type": "channel",
        "noteNumber": 63,
        "velocity": 0,
        "subtype": "noteOff"
      },
      {
        "deltaTime": 0,
        "channel": 2,
        "type": "channel",
        "noteNumber": 56,
        "velocity": 0,
        "subtype": "noteOff"
      },
      {
        "deltaTime": 0,
        "channel": 2,
        "type": "channel",
        "noteNumber": 51,
        "velocity": 0,
        "subtype": "noteOff"
      },
      {
        "deltaTime": 0,
        "channel": 2,
        "type": "channel",
        "noteNumber": 63,
        "velocity": 127,
        "subtype": "noteOn"
      },
      {
        "deltaTime": 0,
        "channel": 2,
        "type": "channel",
        "noteNumber": 56,
        "velocity": 127,
        "subtype": "noteOn"
      },
      {
        "deltaTime": 0,
        "channel": 2,
        "type": "channel",
        "noteNumber": 51,
        "velocity": 127,
        "subtype": "noteOn"
      },
      {
        "deltaTime": 0,
        "channel": 2,
        "type": "channel",
        "noteNumber": 44,
        "velocity": 127,
        "subtype": "noteOn"
      },
      {
        "deltaTime": 480,
        "channel": 2,
        "type": "channel",
        "noteNumber": 44,
        "velocity": 0,
        "subtype": "noteOff"
      },
      {
        "deltaTime": 0,
        "channel": 2,
        "type": "channel",
        "noteNumber": 63,
        "velocity": 0,
        "subtype": "noteOff"
      },
      {
        "deltaTime": 0,
        "channel": 2,
        "type": "channel",
        "noteNumber": 56,
        "velocity": 0,
        "subtype": "noteOff"
      },
      {
        "deltaTime": 0,
        "channel": 2,
        "type": "channel",
        "noteNumber": 51,
        "velocity": 0,
        "subtype": "noteOff"
      },
      {
        "deltaTime": 0,
        "channel": 2,
        "type": "channel",
        "noteNumber": 63,
        "velocity": 127,
        "subtype": "noteOn"
      },
      {
        "deltaTime": 0,
        "channel": 2,
        "type": "channel",
        "noteNumber": 56,
        "velocity": 127,
        "subtype": "noteOn"
      },
      {
        "deltaTime": 0,
        "channel": 2,
        "type": "channel",
        "noteNumber": 51,
        "velocity": 127,
        "subtype": "noteOn"
      },
      {
        "deltaTime": 0,
        "channel": 2,
        "type": "channel",
        "noteNumber": 44,
        "velocity": 127,
        "subtype": "noteOn"
      },
      {
        "deltaTime": 480,
        "channel": 2,
        "type": "channel",
        "noteNumber": 44,
        "velocity": 0,
        "subtype": "noteOff"
      },
      {
        "deltaTime": 0,
        "channel": 2,
        "type": "channel",
        "noteNumber": 63,
        "velocity": 0,
        "subtype": "noteOff"
      },
      {
        "deltaTime": 0,
        "channel": 2,
        "type": "channel",
        "noteNumber": 56,
        "velocity": 0,
        "subtype": "noteOff"
      },
      {
        "deltaTime": 0,
        "channel": 2,
        "type": "channel",
        "noteNumber": 51,
        "velocity": 0,
        "subtype": "noteOff"
      },
      {
        "deltaTime": 0,
        "channel": 2,
        "type": "channel",
        "noteNumber": 63,
        "velocity": 127,
        "subtype": "noteOn"
      },
      {
        "deltaTime": 0,
        "channel": 2,
        "type": "channel",
        "noteNumber": 56,
        "velocity": 127,
        "subtype": "noteOn"
      },
      {
        "deltaTime": 0,
        "channel": 2,
        "type": "channel",
        "noteNumber": 51,
        "velocity": 127,
        "subtype": "noteOn"
      },
      {
        "deltaTime": 0,
        "channel": 2,
        "type": "channel",
        "noteNumber": 44,
        "velocity": 127,
        "subtype": "noteOn"
      },
      {
        "deltaTime": 480,
        "channel": 2,
        "type": "channel",
        "noteNumber": 44,
        "velocity": 0,
        "subtype": "noteOff"
      },
      {
        "deltaTime": 0,
        "channel": 2,
        "type": "channel",
        "noteNumber": 63,
        "velocity": 0,
        "subtype": "noteOff"
      },
      {
        "deltaTime": 0,
        "channel": 2,
        "type": "channel",
        "noteNumber": 56,
        "velocity": 0,
        "subtype": "noteOff"
      },
      {
        "deltaTime": 0,
        "channel": 2,
        "type": "channel",
        "noteNumber": 51,
        "velocity": 0,
        "subtype": "noteOff"
      },
      {
        "deltaTime": 0,
        "channel": 2,
        "type": "channel",
        "noteNumber": 63,
        "velocity": 127,
        "subtype": "noteOn"
      },
      {
        "deltaTime": 0,
        "channel": 2,
        "type": "channel",
        "noteNumber": 56,
        "velocity": 127,
        "subtype": "noteOn"
      },
      {
        "deltaTime": 0,
        "channel": 2,
        "type": "channel",
        "noteNumber": 51,
        "velocity": 127,
        "subtype": "noteOn"
      },
      {
        "deltaTime": 0,
        "channel": 2,
        "type": "channel",
        "noteNumber": 44,
        "velocity": 127,
        "subtype": "noteOn"
      },
      {
        "deltaTime": 480,
        "channel": 2,
        "type": "channel",
        "noteNumber": 44,
        "velocity": 0,
        "subtype": "noteOff"
      },
      {
        "deltaTime": 0,
        "channel": 2,
        "type": "channel",
        "noteNumber": 63,
        "velocity": 0,
        "subtype": "noteOff"
      },
      {
        "deltaTime": 0,
        "channel": 2,
        "type": "channel",
        "noteNumber": 56,
        "velocity": 0,
        "subtype": "noteOff"
      },
      {
        "deltaTime": 0,
        "channel": 2,
        "type": "channel",
        "noteNumber": 51,
        "velocity": 0,
        "subtype": "noteOff"
      },
      {
        "deltaTime": 0,
        "channel": 2,
        "type": "channel",
        "noteNumber": 63,
        "velocity": 127,
        "subtype": "noteOn"
      },
      {
        "deltaTime": 0,
        "channel": 2,
        "type": "channel",
        "noteNumber": 56,
        "velocity": 127,
        "subtype": "noteOn"
      },
      {
        "deltaTime": 0,
        "channel": 2,
        "type": "channel",
        "noteNumber": 51,
        "velocity": 127,
        "subtype": "noteOn"
      },
      {
        "deltaTime": 0,
        "channel": 2,
        "type": "channel",
        "noteNumber": 44,
        "velocity": 127,
        "subtype": "noteOn"
      },
      {
        "deltaTime": 480,
        "channel": 2,
        "type": "channel",
        "noteNumber": 44,
        "velocity": 0,
        "subtype": "noteOff"
      },
      {
        "deltaTime": 0,
        "channel": 2,
        "type": "channel",
        "noteNumber": 63,
        "velocity": 0,
        "subtype": "noteOff"
      },
      {
        "deltaTime": 0,
        "channel": 2,
        "type": "channel",
        "noteNumber": 56,
        "velocity": 0,
        "subtype": "noteOff"
      },
      {
        "deltaTime": 0,
        "channel": 2,
        "type": "channel",
        "noteNumber": 51,
        "velocity": 0,
        "subtype": "noteOff"
      },
      {
        "deltaTime": 0,
        "channel": 2,
        "type": "channel",
        "noteNumber": 63,
        "velocity": 127,
        "subtype": "noteOn"
      },
      {
        "deltaTime": 0,
        "channel": 2,
        "type": "channel",
        "noteNumber": 56,
        "velocity": 127,
        "subtype": "noteOn"
      },
      {
        "deltaTime": 0,
        "channel": 2,
        "type": "channel",
        "noteNumber": 51,
        "velocity": 127,
        "subtype": "noteOn"
      },
      {
        "deltaTime": 0,
        "channel": 2,
        "type": "channel",
        "noteNumber": 44,
        "velocity": 127,
        "subtype": "noteOn"
      },
      {
        "deltaTime": 480,
        "channel": 2,
        "type": "channel",
        "noteNumber": 44,
        "velocity": 0,
        "subtype": "noteOff"
      },
      {
        "deltaTime": 0,
        "channel": 2,
        "type": "channel",
        "noteNumber": 63,
        "velocity": 0,
        "subtype": "noteOff"
      },
      {
        "deltaTime": 0,
        "channel": 2,
        "type": "channel",
        "noteNumber": 56,
        "velocity": 0,
        "subtype": "noteOff"
      },
      {
        "deltaTime": 0,
        "channel": 2,
        "type": "channel",
        "noteNumber": 51,
        "velocity": 0,
        "subtype": "noteOff"
      },
      {
        "deltaTime": 0,
        "channel": 2,
        "type": "channel",
        "noteNumber": 63,
        "velocity": 127,
        "subtype": "noteOn"
      },
      {
        "deltaTime": 0,
        "channel": 2,
        "type": "channel",
        "noteNumber": 56,
        "velocity": 127,
        "subtype": "noteOn"
      },
      {
        "deltaTime": 0,
        "channel": 2,
        "type": "channel",
        "noteNumber": 51,
        "velocity": 127,
        "subtype": "noteOn"
      },
      {
        "deltaTime": 0,
        "channel": 2,
        "type": "channel",
        "noteNumber": 44,
        "velocity": 127,
        "subtype": "noteOn"
      },
      {
        "deltaTime": 480,
        "channel": 2,
        "type": "channel",
        "noteNumber": 44,
        "velocity": 0,
        "subtype": "noteOff"
      },
      {
        "deltaTime": 0,
        "channel": 2,
        "type": "channel",
        "noteNumber": 63,
        "velocity": 0,
        "subtype": "noteOff"
      },
      {
        "deltaTime": 0,
        "channel": 2,
        "type": "channel",
        "noteNumber": 56,
        "velocity": 0,
        "subtype": "noteOff"
      },
      {
        "deltaTime": 0,
        "channel": 2,
        "type": "channel",
        "noteNumber": 51,
        "velocity": 0,
        "subtype": "noteOff"
      },
      {
        "deltaTime": 0,
        "channel": 2,
        "type": "channel",
        "noteNumber": 58,
        "velocity": 127,
        "subtype": "noteOn"
      },
      {
        "deltaTime": 0,
        "channel": 2,
        "type": "channel",
        "noteNumber": 51,
        "velocity": 127,
        "subtype": "noteOn"
      },
      {
        "deltaTime": 0,
        "channel": 2,
        "type": "channel",
        "noteNumber": 46,
        "velocity": 127,
        "subtype": "noteOn"
      },
      {
        "deltaTime": 0,
        "channel": 2,
        "type": "channel",
        "noteNumber": 39,
        "velocity": 127,
        "subtype": "noteOn"
      },
      {
        "deltaTime": 480,
        "channel": 2,
        "type": "channel",
        "noteNumber": 39,
        "velocity": 0,
        "subtype": "noteOff"
      },
      {
        "deltaTime": 0,
        "channel": 2,
        "type": "channel",
        "noteNumber": 58,
        "velocity": 0,
        "subtype": "noteOff"
      },
      {
        "deltaTime": 0,
        "channel": 2,
        "type": "channel",
        "noteNumber": 51,
        "velocity": 0,
        "subtype": "noteOff"
      },
      {
        "deltaTime": 0,
        "channel": 2,
        "type": "channel",
        "noteNumber": 46,
        "velocity": 0,
        "subtype": "noteOff"
      },
      {
        "deltaTime": 0,
        "channel": 2,
        "type": "channel",
        "noteNumber": 58,
        "velocity": 127,
        "subtype": "noteOn"
      },
      {
        "deltaTime": 0,
        "channel": 2,
        "type": "channel",
        "noteNumber": 51,
        "velocity": 127,
        "subtype": "noteOn"
      },
      {
        "deltaTime": 0,
        "channel": 2,
        "type": "channel",
        "noteNumber": 46,
        "velocity": 127,
        "subtype": "noteOn"
      },
      {
        "deltaTime": 0,
        "channel": 2,
        "type": "channel",
        "noteNumber": 39,
        "velocity": 127,
        "subtype": "noteOn"
      },
      {
        "deltaTime": 480,
        "channel": 2,
        "type": "channel",
        "noteNumber": 39,
        "velocity": 0,
        "subtype": "noteOff"
      },
      {
        "deltaTime": 0,
        "channel": 2,
        "type": "channel",
        "noteNumber": 58,
        "velocity": 0,
        "subtype": "noteOff"
      },
      {
        "deltaTime": 0,
        "channel": 2,
        "type": "channel",
        "noteNumber": 51,
        "velocity": 0,
        "subtype": "noteOff"
      },
      {
        "deltaTime": 0,
        "channel": 2,
        "type": "channel",
        "noteNumber": 46,
        "velocity": 0,
        "subtype": "noteOff"
      },
      {
        "deltaTime": 0,
        "channel": 2,
        "type": "channel",
        "noteNumber": 58,
        "velocity": 127,
        "subtype": "noteOn"
      },
      {
        "deltaTime": 0,
        "channel": 2,
        "type": "channel",
        "noteNumber": 51,
        "velocity": 127,
        "subtype": "noteOn"
      },
      {
        "deltaTime": 0,
        "channel": 2,
        "type": "channel",
        "noteNumber": 46,
        "velocity": 127,
        "subtype": "noteOn"
      },
      {
        "deltaTime": 0,
        "channel": 2,
        "type": "channel",
        "noteNumber": 39,
        "velocity": 127,
        "subtype": "noteOn"
      },
      {
        "deltaTime": 480,
        "channel": 2,
        "type": "channel",
        "noteNumber": 39,
        "velocity": 0,
        "subtype": "noteOff"
      },
      {
        "deltaTime": 0,
        "channel": 2,
        "type": "channel",
        "noteNumber": 58,
        "velocity": 0,
        "subtype": "noteOff"
      },
      {
        "deltaTime": 0,
        "channel": 2,
        "type": "channel",
        "noteNumber": 51,
        "velocity": 0,
        "subtype": "noteOff"
      },
      {
        "deltaTime": 0,
        "channel": 2,
        "type": "channel",
        "noteNumber": 46,
        "velocity": 0,
        "subtype": "noteOff"
      },
      {
        "deltaTime": 0,
        "channel": 2,
        "type": "channel",
        "noteNumber": 58,
        "velocity": 127,
        "subtype": "noteOn"
      },
      {
        "deltaTime": 0,
        "channel": 2,
        "type": "channel",
        "noteNumber": 51,
        "velocity": 127,
        "subtype": "noteOn"
      },
      {
        "deltaTime": 0,
        "channel": 2,
        "type": "channel",
        "noteNumber": 46,
        "velocity": 127,
        "subtype": "noteOn"
      },
      {
        "deltaTime": 0,
        "channel": 2,
        "type": "channel",
        "noteNumber": 39,
        "velocity": 127,
        "subtype": "noteOn"
      },
      {
        "deltaTime": 480,
        "channel": 2,
        "type": "channel",
        "noteNumber": 39,
        "velocity": 0,
        "subtype": "noteOff"
      },
      {
        "deltaTime": 0,
        "channel": 2,
        "type": "channel",
        "noteNumber": 58,
        "velocity": 0,
        "subtype": "noteOff"
      },
      {
        "deltaTime": 0,
        "channel": 2,
        "type": "channel",
        "noteNumber": 51,
        "velocity": 0,
        "subtype": "noteOff"
      },
      {
        "deltaTime": 0,
        "channel": 2,
        "type": "channel",
        "noteNumber": 46,
        "velocity": 0,
        "subtype": "noteOff"
      },
      {
        "deltaTime": 0,
        "channel": 2,
        "type": "channel",
        "noteNumber": 58,
        "velocity": 127,
        "subtype": "noteOn"
      },
      {
        "deltaTime": 0,
        "channel": 2,
        "type": "channel",
        "noteNumber": 51,
        "velocity": 127,
        "subtype": "noteOn"
      },
      {
        "deltaTime": 0,
        "channel": 2,
        "type": "channel",
        "noteNumber": 46,
        "velocity": 127,
        "subtype": "noteOn"
      },
      {
        "deltaTime": 0,
        "channel": 2,
        "type": "channel",
        "noteNumber": 39,
        "velocity": 127,
        "subtype": "noteOn"
      },
      {
        "deltaTime": 480,
        "channel": 2,
        "type": "channel",
        "noteNumber": 39,
        "velocity": 0,
        "subtype": "noteOff"
      },
      {
        "deltaTime": 0,
        "channel": 2,
        "type": "channel",
        "noteNumber": 58,
        "velocity": 0,
        "subtype": "noteOff"
      },
      {
        "deltaTime": 0,
        "channel": 2,
        "type": "channel",
        "noteNumber": 51,
        "velocity": 0,
        "subtype": "noteOff"
      },
      {
        "deltaTime": 0,
        "channel": 2,
        "type": "channel",
        "noteNumber": 46,
        "velocity": 0,
        "subtype": "noteOff"
      },
      {
        "deltaTime": 0,
        "channel": 2,
        "type": "channel",
        "noteNumber": 58,
        "velocity": 127,
        "subtype": "noteOn"
      },
      {
        "deltaTime": 0,
        "channel": 2,
        "type": "channel",
        "noteNumber": 51,
        "velocity": 127,
        "subtype": "noteOn"
      },
      {
        "deltaTime": 0,
        "channel": 2,
        "type": "channel",
        "noteNumber": 46,
        "velocity": 127,
        "subtype": "noteOn"
      },
      {
        "deltaTime": 0,
        "channel": 2,
        "type": "channel",
        "noteNumber": 39,
        "velocity": 127,
        "subtype": "noteOn"
      },
      {
        "deltaTime": 480,
        "channel": 2,
        "type": "channel",
        "noteNumber": 39,
        "velocity": 0,
        "subtype": "noteOff"
      },
      {
        "deltaTime": 0,
        "channel": 2,
        "type": "channel",
        "noteNumber": 58,
        "velocity": 0,
        "subtype": "noteOff"
      },
      {
        "deltaTime": 0,
        "channel": 2,
        "type": "channel",
        "noteNumber": 51,
        "velocity": 0,
        "subtype": "noteOff"
      },
      {
        "deltaTime": 0,
        "channel": 2,
        "type": "channel",
        "noteNumber": 46,
        "velocity": 0,
        "subtype": "noteOff"
      },
      {
        "deltaTime": 0,
        "channel": 2,
        "type": "channel",
        "noteNumber": 58,
        "velocity": 127,
        "subtype": "noteOn"
      },
      {
        "deltaTime": 0,
        "channel": 2,
        "type": "channel",
        "noteNumber": 51,
        "velocity": 127,
        "subtype": "noteOn"
      },
      {
        "deltaTime": 0,
        "channel": 2,
        "type": "channel",
        "noteNumber": 46,
        "velocity": 127,
        "subtype": "noteOn"
      },
      {
        "deltaTime": 0,
        "channel": 2,
        "type": "channel",
        "noteNumber": 39,
        "velocity": 127,
        "subtype": "noteOn"
      },
      {
        "deltaTime": 480,
        "channel": 2,
        "type": "channel",
        "noteNumber": 39,
        "velocity": 0,
        "subtype": "noteOff"
      },
      {
        "deltaTime": 0,
        "channel": 2,
        "type": "channel",
        "noteNumber": 58,
        "velocity": 0,
        "subtype": "noteOff"
      },
      {
        "deltaTime": 0,
        "channel": 2,
        "type": "channel",
        "noteNumber": 51,
        "velocity": 0,
        "subtype": "noteOff"
      },
      {
        "deltaTime": 0,
        "channel": 2,
        "type": "channel",
        "noteNumber": 46,
        "velocity": 0,
        "subtype": "noteOff"
      },
      {
        "deltaTime": 0,
        "channel": 2,
        "type": "channel",
        "noteNumber": 58,
        "velocity": 127,
        "subtype": "noteOn"
      },
      {
        "deltaTime": 0,
        "channel": 2,
        "type": "channel",
        "noteNumber": 51,
        "velocity": 127,
        "subtype": "noteOn"
      },
      {
        "deltaTime": 0,
        "channel": 2,
        "type": "channel",
        "noteNumber": 46,
        "velocity": 127,
        "subtype": "noteOn"
      },
      {
        "deltaTime": 0,
        "channel": 2,
        "type": "channel",
        "noteNumber": 39,
        "velocity": 127,
        "subtype": "noteOn"
      },
      {
        "deltaTime": 480,
        "channel": 2,
        "type": "channel",
        "noteNumber": 39,
        "velocity": 0,
        "subtype": "noteOff"
      },
      {
        "deltaTime": 0,
        "channel": 2,
        "type": "channel",
        "noteNumber": 58,
        "velocity": 0,
        "subtype": "noteOff"
      },
      {
        "deltaTime": 0,
        "channel": 2,
        "type": "channel",
        "noteNumber": 51,
        "velocity": 0,
        "subtype": "noteOff"
      },
      {
        "deltaTime": 0,
        "channel": 2,
        "type": "channel",
        "noteNumber": 46,
        "velocity": 0,
        "subtype": "noteOff"
      },
      {
        "deltaTime": 0,
        "channel": 2,
        "type": "channel",
        "noteNumber": 65,
        "velocity": 127,
        "subtype": "noteOn"
      },
      {
        "deltaTime": 0,
        "channel": 2,
        "type": "channel",
        "noteNumber": 58,
        "velocity": 127,
        "subtype": "noteOn"
      },
      {
        "deltaTime": 0,
        "channel": 2,
        "type": "channel",
        "noteNumber": 53,
        "velocity": 127,
        "subtype": "noteOn"
      },
      {
        "deltaTime": 0,
        "channel": 2,
        "type": "channel",
        "noteNumber": 46,
        "velocity": 127,
        "subtype": "noteOn"
      },
      {
        "deltaTime": 480,
        "channel": 2,
        "type": "channel",
        "noteNumber": 46,
        "velocity": 0,
        "subtype": "noteOff"
      },
      {
        "deltaTime": 0,
        "channel": 2,
        "type": "channel",
        "noteNumber": 65,
        "velocity": 0,
        "subtype": "noteOff"
      },
      {
        "deltaTime": 0,
        "channel": 2,
        "type": "channel",
        "noteNumber": 58,
        "velocity": 0,
        "subtype": "noteOff"
      },
      {
        "deltaTime": 0,
        "channel": 2,
        "type": "channel",
        "noteNumber": 53,
        "velocity": 0,
        "subtype": "noteOff"
      },
      {
        "deltaTime": 0,
        "channel": 2,
        "type": "channel",
        "noteNumber": 65,
        "velocity": 127,
        "subtype": "noteOn"
      },
      {
        "deltaTime": 0,
        "channel": 2,
        "type": "channel",
        "noteNumber": 58,
        "velocity": 127,
        "subtype": "noteOn"
      },
      {
        "deltaTime": 0,
        "channel": 2,
        "type": "channel",
        "noteNumber": 53,
        "velocity": 127,
        "subtype": "noteOn"
      },
      {
        "deltaTime": 0,
        "channel": 2,
        "type": "channel",
        "noteNumber": 46,
        "velocity": 127,
        "subtype": "noteOn"
      },
      {
        "deltaTime": 480,
        "channel": 2,
        "type": "channel",
        "noteNumber": 46,
        "velocity": 0,
        "subtype": "noteOff"
      },
      {
        "deltaTime": 0,
        "channel": 2,
        "type": "channel",
        "noteNumber": 65,
        "velocity": 0,
        "subtype": "noteOff"
      },
      {
        "deltaTime": 0,
        "channel": 2,
        "type": "channel",
        "noteNumber": 58,
        "velocity": 0,
        "subtype": "noteOff"
      },
      {
        "deltaTime": 0,
        "channel": 2,
        "type": "channel",
        "noteNumber": 53,
        "velocity": 0,
        "subtype": "noteOff"
      },
      {
        "deltaTime": 0,
        "channel": 2,
        "type": "channel",
        "noteNumber": 65,
        "velocity": 127,
        "subtype": "noteOn"
      },
      {
        "deltaTime": 0,
        "channel": 2,
        "type": "channel",
        "noteNumber": 58,
        "velocity": 127,
        "subtype": "noteOn"
      },
      {
        "deltaTime": 0,
        "channel": 2,
        "type": "channel",
        "noteNumber": 53,
        "velocity": 127,
        "subtype": "noteOn"
      },
      {
        "deltaTime": 0,
        "channel": 2,
        "type": "channel",
        "noteNumber": 46,
        "velocity": 127,
        "subtype": "noteOn"
      },
      {
        "deltaTime": 480,
        "channel": 2,
        "type": "channel",
        "noteNumber": 46,
        "velocity": 0,
        "subtype": "noteOff"
      },
      {
        "deltaTime": 0,
        "channel": 2,
        "type": "channel",
        "noteNumber": 65,
        "velocity": 0,
        "subtype": "noteOff"
      },
      {
        "deltaTime": 0,
        "channel": 2,
        "type": "channel",
        "noteNumber": 58,
        "velocity": 0,
        "subtype": "noteOff"
      },
      {
        "deltaTime": 0,
        "channel": 2,
        "type": "channel",
        "noteNumber": 53,
        "velocity": 0,
        "subtype": "noteOff"
      },
      {
        "deltaTime": 0,
        "channel": 2,
        "type": "channel",
        "noteNumber": 65,
        "velocity": 127,
        "subtype": "noteOn"
      },
      {
        "deltaTime": 0,
        "channel": 2,
        "type": "channel",
        "noteNumber": 58,
        "velocity": 127,
        "subtype": "noteOn"
      },
      {
        "deltaTime": 0,
        "channel": 2,
        "type": "channel",
        "noteNumber": 53,
        "velocity": 127,
        "subtype": "noteOn"
      },
      {
        "deltaTime": 0,
        "channel": 2,
        "type": "channel",
        "noteNumber": 46,
        "velocity": 127,
        "subtype": "noteOn"
      },
      {
        "deltaTime": 480,
        "channel": 2,
        "type": "channel",
        "noteNumber": 46,
        "velocity": 0,
        "subtype": "noteOff"
      },
      {
        "deltaTime": 0,
        "channel": 2,
        "type": "channel",
        "noteNumber": 65,
        "velocity": 0,
        "subtype": "noteOff"
      },
      {
        "deltaTime": 0,
        "channel": 2,
        "type": "channel",
        "noteNumber": 58,
        "velocity": 0,
        "subtype": "noteOff"
      },
      {
        "deltaTime": 0,
        "channel": 2,
        "type": "channel",
        "noteNumber": 53,
        "velocity": 0,
        "subtype": "noteOff"
      },
      {
        "deltaTime": 0,
        "channel": 2,
        "type": "channel",
        "noteNumber": 65,
        "velocity": 127,
        "subtype": "noteOn"
      },
      {
        "deltaTime": 0,
        "channel": 2,
        "type": "channel",
        "noteNumber": 58,
        "velocity": 127,
        "subtype": "noteOn"
      },
      {
        "deltaTime": 0,
        "channel": 2,
        "type": "channel",
        "noteNumber": 53,
        "velocity": 127,
        "subtype": "noteOn"
      },
      {
        "deltaTime": 0,
        "channel": 2,
        "type": "channel",
        "noteNumber": 46,
        "velocity": 127,
        "subtype": "noteOn"
      },
      {
        "deltaTime": 480,
        "channel": 2,
        "type": "channel",
        "noteNumber": 46,
        "velocity": 0,
        "subtype": "noteOff"
      },
      {
        "deltaTime": 0,
        "channel": 2,
        "type": "channel",
        "noteNumber": 65,
        "velocity": 0,
        "subtype": "noteOff"
      },
      {
        "deltaTime": 0,
        "channel": 2,
        "type": "channel",
        "noteNumber": 58,
        "velocity": 0,
        "subtype": "noteOff"
      },
      {
        "deltaTime": 0,
        "channel": 2,
        "type": "channel",
        "noteNumber": 53,
        "velocity": 0,
        "subtype": "noteOff"
      },
      {
        "deltaTime": 0,
        "channel": 2,
        "type": "channel",
        "noteNumber": 65,
        "velocity": 127,
        "subtype": "noteOn"
      },
      {
        "deltaTime": 0,
        "channel": 2,
        "type": "channel",
        "noteNumber": 58,
        "velocity": 127,
        "subtype": "noteOn"
      },
      {
        "deltaTime": 0,
        "channel": 2,
        "type": "channel",
        "noteNumber": 53,
        "velocity": 127,
        "subtype": "noteOn"
      },
      {
        "deltaTime": 0,
        "channel": 2,
        "type": "channel",
        "noteNumber": 46,
        "velocity": 127,
        "subtype": "noteOn"
      },
      {
        "deltaTime": 480,
        "channel": 2,
        "type": "channel",
        "noteNumber": 46,
        "velocity": 0,
        "subtype": "noteOff"
      },
      {
        "deltaTime": 0,
        "channel": 2,
        "type": "channel",
        "noteNumber": 65,
        "velocity": 0,
        "subtype": "noteOff"
      },
      {
        "deltaTime": 0,
        "channel": 2,
        "type": "channel",
        "noteNumber": 58,
        "velocity": 0,
        "subtype": "noteOff"
      },
      {
        "deltaTime": 0,
        "channel": 2,
        "type": "channel",
        "noteNumber": 53,
        "velocity": 0,
        "subtype": "noteOff"
      },
      {
        "deltaTime": 0,
        "channel": 2,
        "type": "channel",
        "noteNumber": 65,
        "velocity": 127,
        "subtype": "noteOn"
      },
      {
        "deltaTime": 0,
        "channel": 2,
        "type": "channel",
        "noteNumber": 58,
        "velocity": 127,
        "subtype": "noteOn"
      },
      {
        "deltaTime": 0,
        "channel": 2,
        "type": "channel",
        "noteNumber": 53,
        "velocity": 127,
        "subtype": "noteOn"
      },
      {
        "deltaTime": 0,
        "channel": 2,
        "type": "channel",
        "noteNumber": 46,
        "velocity": 127,
        "subtype": "noteOn"
      },
      {
        "deltaTime": 480,
        "channel": 2,
        "type": "channel",
        "noteNumber": 46,
        "velocity": 0,
        "subtype": "noteOff"
      },
      {
        "deltaTime": 0,
        "channel": 2,
        "type": "channel",
        "noteNumber": 65,
        "velocity": 0,
        "subtype": "noteOff"
      },
      {
        "deltaTime": 0,
        "channel": 2,
        "type": "channel",
        "noteNumber": 58,
        "velocity": 0,
        "subtype": "noteOff"
      },
      {
        "deltaTime": 0,
        "channel": 2,
        "type": "channel",
        "noteNumber": 53,
        "velocity": 0,
        "subtype": "noteOff"
      },
      {
        "deltaTime": 0,
        "channel": 2,
        "type": "channel",
        "noteNumber": 65,
        "velocity": 127,
        "subtype": "noteOn"
      },
      {
        "deltaTime": 0,
        "channel": 2,
        "type": "channel",
        "noteNumber": 58,
        "velocity": 127,
        "subtype": "noteOn"
      },
      {
        "deltaTime": 0,
        "channel": 2,
        "type": "channel",
        "noteNumber": 53,
        "velocity": 127,
        "subtype": "noteOn"
      },
      {
        "deltaTime": 0,
        "channel": 2,
        "type": "channel",
        "noteNumber": 46,
        "velocity": 127,
        "subtype": "noteOn"
      },
      {
        "deltaTime": 480,
        "channel": 2,
        "type": "channel",
        "noteNumber": 46,
        "velocity": 0,
        "subtype": "noteOff"
      },
      {
        "deltaTime": 0,
        "channel": 2,
        "type": "channel",
        "noteNumber": 65,
        "velocity": 0,
        "subtype": "noteOff"
      },
      {
        "deltaTime": 0,
        "channel": 2,
        "type": "channel",
        "noteNumber": 58,
        "velocity": 0,
        "subtype": "noteOff"
      },
      {
        "deltaTime": 0,
        "channel": 2,
        "type": "channel",
        "noteNumber": 53,
        "velocity": 0,
        "subtype": "noteOff"
      },
      {
        "deltaTime": 0,
        "channel": 2,
        "type": "channel",
        "noteNumber": 65,
        "velocity": 127,
        "subtype": "noteOn"
      },
      {
        "deltaTime": 0,
        "channel": 2,
        "type": "channel",
        "noteNumber": 58,
        "velocity": 127,
        "subtype": "noteOn"
      },
      {
        "deltaTime": 0,
        "channel": 2,
        "type": "channel",
        "noteNumber": 53,
        "velocity": 127,
        "subtype": "noteOn"
      },
      {
        "deltaTime": 0,
        "channel": 2,
        "type": "channel",
        "noteNumber": 46,
        "velocity": 127,
        "subtype": "noteOn"
      },
      {
        "deltaTime": 480,
        "channel": 2,
        "type": "channel",
        "noteNumber": 46,
        "velocity": 0,
        "subtype": "noteOff"
      },
      {
        "deltaTime": 0,
        "channel": 2,
        "type": "channel",
        "noteNumber": 65,
        "velocity": 0,
        "subtype": "noteOff"
      },
      {
        "deltaTime": 0,
        "channel": 2,
        "type": "channel",
        "noteNumber": 58,
        "velocity": 0,
        "subtype": "noteOff"
      },
      {
        "deltaTime": 0,
        "channel": 2,
        "type": "channel",
        "noteNumber": 53,
        "velocity": 0,
        "subtype": "noteOff"
      },
      {
        "deltaTime": 0,
        "channel": 2,
        "type": "channel",
        "noteNumber": 65,
        "velocity": 127,
        "subtype": "noteOn"
      },
      {
        "deltaTime": 0,
        "channel": 2,
        "type": "channel",
        "noteNumber": 58,
        "velocity": 127,
        "subtype": "noteOn"
      },
      {
        "deltaTime": 0,
        "channel": 2,
        "type": "channel",
        "noteNumber": 53,
        "velocity": 127,
        "subtype": "noteOn"
      },
      {
        "deltaTime": 0,
        "channel": 2,
        "type": "channel",
        "noteNumber": 46,
        "velocity": 127,
        "subtype": "noteOn"
      },
      {
        "deltaTime": 480,
        "channel": 2,
        "type": "channel",
        "noteNumber": 46,
        "velocity": 0,
        "subtype": "noteOff"
      },
      {
        "deltaTime": 0,
        "channel": 2,
        "type": "channel",
        "noteNumber": 65,
        "velocity": 0,
        "subtype": "noteOff"
      },
      {
        "deltaTime": 0,
        "channel": 2,
        "type": "channel",
        "noteNumber": 58,
        "velocity": 0,
        "subtype": "noteOff"
      },
      {
        "deltaTime": 0,
        "channel": 2,
        "type": "channel",
        "noteNumber": 53,
        "velocity": 0,
        "subtype": "noteOff"
      },
      {
        "deltaTime": 0,
        "channel": 2,
        "type": "channel",
        "noteNumber": 65,
        "velocity": 127,
        "subtype": "noteOn"
      },
      {
        "deltaTime": 0,
        "channel": 2,
        "type": "channel",
        "noteNumber": 58,
        "velocity": 127,
        "subtype": "noteOn"
      },
      {
        "deltaTime": 0,
        "channel": 2,
        "type": "channel",
        "noteNumber": 53,
        "velocity": 127,
        "subtype": "noteOn"
      },
      {
        "deltaTime": 0,
        "channel": 2,
        "type": "channel",
        "noteNumber": 46,
        "velocity": 127,
        "subtype": "noteOn"
      },
      {
        "deltaTime": 480,
        "channel": 2,
        "type": "channel",
        "noteNumber": 46,
        "velocity": 0,
        "subtype": "noteOff"
      },
      {
        "deltaTime": 0,
        "channel": 2,
        "type": "channel",
        "noteNumber": 65,
        "velocity": 0,
        "subtype": "noteOff"
      },
      {
        "deltaTime": 0,
        "channel": 2,
        "type": "channel",
        "noteNumber": 58,
        "velocity": 0,
        "subtype": "noteOff"
      },
      {
        "deltaTime": 0,
        "channel": 2,
        "type": "channel",
        "noteNumber": 53,
        "velocity": 0,
        "subtype": "noteOff"
      },
      {
        "deltaTime": 0,
        "channel": 2,
        "type": "channel",
        "noteNumber": 65,
        "velocity": 127,
        "subtype": "noteOn"
      },
      {
        "deltaTime": 0,
        "channel": 2,
        "type": "channel",
        "noteNumber": 58,
        "velocity": 127,
        "subtype": "noteOn"
      },
      {
        "deltaTime": 0,
        "channel": 2,
        "type": "channel",
        "noteNumber": 53,
        "velocity": 127,
        "subtype": "noteOn"
      },
      {
        "deltaTime": 0,
        "channel": 2,
        "type": "channel",
        "noteNumber": 46,
        "velocity": 127,
        "subtype": "noteOn"
      },
      {
        "deltaTime": 480,
        "channel": 2,
        "type": "channel",
        "noteNumber": 46,
        "velocity": 0,
        "subtype": "noteOff"
      },
      {
        "deltaTime": 0,
        "channel": 2,
        "type": "channel",
        "noteNumber": 65,
        "velocity": 0,
        "subtype": "noteOff"
      },
      {
        "deltaTime": 0,
        "channel": 2,
        "type": "channel",
        "noteNumber": 58,
        "velocity": 0,
        "subtype": "noteOff"
      },
      {
        "deltaTime": 0,
        "channel": 2,
        "type": "channel",
        "noteNumber": 53,
        "velocity": 0,
        "subtype": "noteOff"
      },
      {
        "deltaTime": 0,
        "channel": 2,
        "type": "channel",
        "noteNumber": 65,
        "velocity": 127,
        "subtype": "noteOn"
      },
      {
        "deltaTime": 0,
        "channel": 2,
        "type": "channel",
        "noteNumber": 58,
        "velocity": 127,
        "subtype": "noteOn"
      },
      {
        "deltaTime": 0,
        "channel": 2,
        "type": "channel",
        "noteNumber": 53,
        "velocity": 127,
        "subtype": "noteOn"
      },
      {
        "deltaTime": 0,
        "channel": 2,
        "type": "channel",
        "noteNumber": 46,
        "velocity": 127,
        "subtype": "noteOn"
      },
      {
        "deltaTime": 480,
        "channel": 2,
        "type": "channel",
        "noteNumber": 46,
        "velocity": 0,
        "subtype": "noteOff"
      },
      {
        "deltaTime": 0,
        "channel": 2,
        "type": "channel",
        "noteNumber": 65,
        "velocity": 0,
        "subtype": "noteOff"
      },
      {
        "deltaTime": 0,
        "channel": 2,
        "type": "channel",
        "noteNumber": 58,
        "velocity": 0,
        "subtype": "noteOff"
      },
      {
        "deltaTime": 0,
        "channel": 2,
        "type": "channel",
        "noteNumber": 53,
        "velocity": 0,
        "subtype": "noteOff"
      },
      {
        "deltaTime": 0,
        "channel": 2,
        "type": "channel",
        "noteNumber": 65,
        "velocity": 127,
        "subtype": "noteOn"
      },
      {
        "deltaTime": 0,
        "channel": 2,
        "type": "channel",
        "noteNumber": 58,
        "velocity": 127,
        "subtype": "noteOn"
      },
      {
        "deltaTime": 0,
        "channel": 2,
        "type": "channel",
        "noteNumber": 53,
        "velocity": 127,
        "subtype": "noteOn"
      },
      {
        "deltaTime": 0,
        "channel": 2,
        "type": "channel",
        "noteNumber": 46,
        "velocity": 127,
        "subtype": "noteOn"
      },
      {
        "deltaTime": 480,
        "channel": 2,
        "type": "channel",
        "noteNumber": 46,
        "velocity": 0,
        "subtype": "noteOff"
      },
      {
        "deltaTime": 0,
        "channel": 2,
        "type": "channel",
        "noteNumber": 65,
        "velocity": 0,
        "subtype": "noteOff"
      },
      {
        "deltaTime": 0,
        "channel": 2,
        "type": "channel",
        "noteNumber": 58,
        "velocity": 0,
        "subtype": "noteOff"
      },
      {
        "deltaTime": 0,
        "channel": 2,
        "type": "channel",
        "noteNumber": 53,
        "velocity": 0,
        "subtype": "noteOff"
      },
      {
        "deltaTime": 0,
        "channel": 2,
        "type": "channel",
        "noteNumber": 65,
        "velocity": 127,
        "subtype": "noteOn"
      },
      {
        "deltaTime": 0,
        "channel": 2,
        "type": "channel",
        "noteNumber": 58,
        "velocity": 127,
        "subtype": "noteOn"
      },
      {
        "deltaTime": 0,
        "channel": 2,
        "type": "channel",
        "noteNumber": 53,
        "velocity": 127,
        "subtype": "noteOn"
      },
      {
        "deltaTime": 0,
        "channel": 2,
        "type": "channel",
        "noteNumber": 46,
        "velocity": 127,
        "subtype": "noteOn"
      },
      {
        "deltaTime": 480,
        "channel": 2,
        "type": "channel",
        "noteNumber": 46,
        "velocity": 0,
        "subtype": "noteOff"
      },
      {
        "deltaTime": 0,
        "channel": 2,
        "type": "channel",
        "noteNumber": 65,
        "velocity": 0,
        "subtype": "noteOff"
      },
      {
        "deltaTime": 0,
        "channel": 2,
        "type": "channel",
        "noteNumber": 58,
        "velocity": 0,
        "subtype": "noteOff"
      },
      {
        "deltaTime": 0,
        "channel": 2,
        "type": "channel",
        "noteNumber": 53,
        "velocity": 0,
        "subtype": "noteOff"
      },
      {
        "deltaTime": 0,
        "channel": 2,
        "type": "channel",
        "noteNumber": 65,
        "velocity": 127,
        "subtype": "noteOn"
      },
      {
        "deltaTime": 0,
        "channel": 2,
        "type": "channel",
        "noteNumber": 58,
        "velocity": 127,
        "subtype": "noteOn"
      },
      {
        "deltaTime": 0,
        "channel": 2,
        "type": "channel",
        "noteNumber": 53,
        "velocity": 127,
        "subtype": "noteOn"
      },
      {
        "deltaTime": 0,
        "channel": 2,
        "type": "channel",
        "noteNumber": 46,
        "velocity": 127,
        "subtype": "noteOn"
      },
      {
        "deltaTime": 480,
        "channel": 2,
        "type": "channel",
        "noteNumber": 46,
        "velocity": 0,
        "subtype": "noteOff"
      },
      {
        "deltaTime": 0,
        "channel": 2,
        "type": "channel",
        "noteNumber": 65,
        "velocity": 0,
        "subtype": "noteOff"
      },
      {
        "deltaTime": 0,
        "channel": 2,
        "type": "channel",
        "noteNumber": 58,
        "velocity": 0,
        "subtype": "noteOff"
      },
      {
        "deltaTime": 0,
        "channel": 2,
        "type": "channel",
        "noteNumber": 53,
        "velocity": 0,
        "subtype": "noteOff"
      },
      {
        "deltaTime": 0,
        "channel": 2,
        "type": "channel",
        "noteNumber": 67,
        "velocity": 127,
        "subtype": "noteOn"
      },
      {
        "deltaTime": 0,
        "channel": 2,
        "type": "channel",
        "noteNumber": 54,
        "velocity": 127,
        "subtype": "noteOn"
      },
      {
        "deltaTime": 0,
        "channel": 2,
        "type": "channel",
        "noteNumber": 60,
        "velocity": 127,
        "subtype": "noteOn"
      },
      {
        "deltaTime": 0,
        "channel": 2,
        "type": "channel",
        "noteNumber": 51,
        "velocity": 127,
        "subtype": "noteOn"
      },
      {
        "deltaTime": 0,
        "channel": 2,
        "type": "channel",
        "noteNumber": 44,
        "velocity": 127,
        "subtype": "noteOn"
      },
      {
        "deltaTime": 40,
        "channel": 2,
        "type": "channel",
        "noteNumber": 54,
        "velocity": 0,
        "subtype": "noteOff"
      },
      {
        "deltaTime": 680,
        "channel": 2,
        "type": "channel",
        "noteNumber": 51,
        "velocity": 0,
        "subtype": "noteOff"
      },
      {
        "deltaTime": 0,
        "channel": 2,
        "type": "channel",
        "noteNumber": 67,
        "velocity": 0,
        "subtype": "noteOff"
      },
      {
        "deltaTime": 0,
        "channel": 2,
        "type": "channel",
        "noteNumber": 60,
        "velocity": 0,
        "subtype": "noteOff"
      },
      {
        "deltaTime": 0,
        "channel": 2,
        "type": "channel",
        "noteNumber": 44,
        "velocity": 0,
        "subtype": "noteOff"
      },
      {
        "deltaTime": 0,
        "channel": 2,
        "type": "channel",
        "noteNumber": 67,
        "velocity": 127,
        "subtype": "noteOn"
      },
      {
        "deltaTime": 0,
        "channel": 2,
        "type": "channel",
        "noteNumber": 54,
        "velocity": 127,
        "subtype": "noteOn"
      },
      {
        "deltaTime": 0,
        "channel": 2,
        "type": "channel",
        "noteNumber": 60,
        "velocity": 127,
        "subtype": "noteOn"
      },
      {
        "deltaTime": 0,
        "channel": 2,
        "type": "channel",
        "noteNumber": 51,
        "velocity": 127,
        "subtype": "noteOn"
      },
      {
        "deltaTime": 0,
        "channel": 2,
        "type": "channel",
        "noteNumber": 44,
        "velocity": 127,
        "subtype": "noteOn"
      },
      {
        "deltaTime": 40,
        "channel": 2,
        "type": "channel",
        "noteNumber": 54,
        "velocity": 0,
        "subtype": "noteOff"
      },
      {
        "deltaTime": 680,
        "channel": 2,
        "type": "channel",
        "noteNumber": 51,
        "velocity": 0,
        "subtype": "noteOff"
      },
      {
        "deltaTime": 0,
        "channel": 2,
        "type": "channel",
        "noteNumber": 67,
        "velocity": 0,
        "subtype": "noteOff"
      },
      {
        "deltaTime": 0,
        "channel": 2,
        "type": "channel",
        "noteNumber": 60,
        "velocity": 0,
        "subtype": "noteOff"
      },
      {
        "deltaTime": 0,
        "channel": 2,
        "type": "channel",
        "noteNumber": 44,
        "velocity": 0,
        "subtype": "noteOff"
      },
      {
        "deltaTime": 0,
        "channel": 2,
        "type": "channel",
        "noteNumber": 67,
        "velocity": 127,
        "subtype": "noteOn"
      },
      {
        "deltaTime": 0,
        "channel": 2,
        "type": "channel",
        "noteNumber": 54,
        "velocity": 127,
        "subtype": "noteOn"
      },
      {
        "deltaTime": 0,
        "channel": 2,
        "type": "channel",
        "noteNumber": 60,
        "velocity": 127,
        "subtype": "noteOn"
      },
      {
        "deltaTime": 0,
        "channel": 2,
        "type": "channel",
        "noteNumber": 51,
        "velocity": 127,
        "subtype": "noteOn"
      },
      {
        "deltaTime": 0,
        "channel": 2,
        "type": "channel",
        "noteNumber": 44,
        "velocity": 127,
        "subtype": "noteOn"
      },
      {
        "deltaTime": 40,
        "channel": 2,
        "type": "channel",
        "noteNumber": 54,
        "velocity": 0,
        "subtype": "noteOff"
      },
      {
        "deltaTime": 440,
        "channel": 2,
        "type": "channel",
        "noteNumber": 51,
        "velocity": 0,
        "subtype": "noteOff"
      },
      {
        "deltaTime": 0,
        "channel": 2,
        "type": "channel",
        "noteNumber": 67,
        "velocity": 0,
        "subtype": "noteOff"
      },
      {
        "deltaTime": 0,
        "channel": 2,
        "type": "channel",
        "noteNumber": 60,
        "velocity": 0,
        "subtype": "noteOff"
      },
      {
        "deltaTime": 0,
        "channel": 2,
        "type": "channel",
        "noteNumber": 44,
        "velocity": 0,
        "subtype": "noteOff"
      },
      {
        "deltaTime": 0,
        "channel": 2,
        "type": "channel",
        "noteNumber": 54,
        "velocity": 127,
        "subtype": "noteOn"
      },
      {
        "deltaTime": 0,
        "channel": 2,
        "type": "channel",
        "noteNumber": 49,
        "velocity": 127,
        "subtype": "noteOn"
      },
      {
        "deltaTime": 0,
        "channel": 2,
        "type": "channel",
        "noteNumber": 44,
        "velocity": 127,
        "subtype": "noteOn"
      },
      {
        "deltaTime": 0,
        "channel": 2,
        "type": "channel",
        "noteNumber": 37,
        "velocity": 127,
        "subtype": "noteOn"
      },
      {
        "deltaTime": 40,
        "channel": 2,
        "type": "channel",
        "noteNumber": 37,
        "velocity": 0,
        "subtype": "noteOff"
      },
      {
        "deltaTime": 0,
        "channel": 2,
        "type": "channel",
        "noteNumber": 54,
        "velocity": 0,
        "subtype": "noteOff"
      },
      {
        "deltaTime": 0,
        "channel": 2,
        "type": "channel",
        "noteNumber": 49,
        "velocity": 0,
        "subtype": "noteOff"
      },
      {
        "deltaTime": 0,
        "channel": 2,
        "type": "channel",
        "noteNumber": 44,
        "velocity": 0,
        "subtype": "noteOff"
      },
      {
        "deltaTime": 200,
        "channel": 2,
        "type": "channel",
        "noteNumber": 54,
        "velocity": 127,
        "subtype": "noteOn"
      },
      {
        "deltaTime": 0,
        "channel": 2,
        "type": "channel",
        "noteNumber": 49,
        "velocity": 127,
        "subtype": "noteOn"
      },
      {
        "deltaTime": 0,
        "channel": 2,
        "type": "channel",
        "noteNumber": 44,
        "velocity": 127,
        "subtype": "noteOn"
      },
      {
        "deltaTime": 0,
        "channel": 2,
        "type": "channel",
        "noteNumber": 37,
        "velocity": 127,
        "subtype": "noteOn"
      },
      {
        "deltaTime": 40,
        "channel": 2,
        "type": "channel",
        "noteNumber": 37,
        "velocity": 0,
        "subtype": "noteOff"
      },
      {
        "deltaTime": 0,
        "channel": 2,
        "type": "channel",
        "noteNumber": 54,
        "velocity": 0,
        "subtype": "noteOff"
      },
      {
        "deltaTime": 0,
        "channel": 2,
        "type": "channel",
        "noteNumber": 49,
        "velocity": 0,
        "subtype": "noteOff"
      },
      {
        "deltaTime": 0,
        "channel": 2,
        "type": "channel",
        "noteNumber": 44,
        "velocity": 0,
        "subtype": "noteOff"
      },
      {
        "deltaTime": 200,
        "channel": 2,
        "type": "channel",
        "noteNumber": 54,
        "velocity": 127,
        "subtype": "noteOn"
      },
      {
        "deltaTime": 0,
        "channel": 2,
        "type": "channel",
        "noteNumber": 49,
        "velocity": 127,
        "subtype": "noteOn"
      },
      {
        "deltaTime": 0,
        "channel": 2,
        "type": "channel",
        "noteNumber": 44,
        "velocity": 127,
        "subtype": "noteOn"
      },
      {
        "deltaTime": 0,
        "channel": 2,
        "type": "channel",
        "noteNumber": 37,
        "velocity": 127,
        "subtype": "noteOn"
      },
      {
        "deltaTime": 40,
        "channel": 2,
        "type": "channel",
        "noteNumber": 37,
        "velocity": 0,
        "subtype": "noteOff"
      },
      {
        "deltaTime": 0,
        "channel": 2,
        "type": "channel",
        "noteNumber": 54,
        "velocity": 0,
        "subtype": "noteOff"
      },
      {
        "deltaTime": 0,
        "channel": 2,
        "type": "channel",
        "noteNumber": 49,
        "velocity": 0,
        "subtype": "noteOff"
      },
      {
        "deltaTime": 0,
        "channel": 2,
        "type": "channel",
        "noteNumber": 44,
        "velocity": 0,
        "subtype": "noteOff"
      },
      {
        "deltaTime": 200,
        "channel": 2,
        "type": "channel",
        "noteNumber": 54,
        "velocity": 127,
        "subtype": "noteOn"
      },
      {
        "deltaTime": 0,
        "channel": 2,
        "type": "channel",
        "noteNumber": 49,
        "velocity": 127,
        "subtype": "noteOn"
      },
      {
        "deltaTime": 0,
        "channel": 2,
        "type": "channel",
        "noteNumber": 44,
        "velocity": 127,
        "subtype": "noteOn"
      },
      {
        "deltaTime": 0,
        "channel": 2,
        "type": "channel",
        "noteNumber": 37,
        "velocity": 127,
        "subtype": "noteOn"
      },
      {
        "deltaTime": 40,
        "channel": 2,
        "type": "channel",
        "noteNumber": 37,
        "velocity": 0,
        "subtype": "noteOff"
      },
      {
        "deltaTime": 0,
        "channel": 2,
        "type": "channel",
        "noteNumber": 54,
        "velocity": 0,
        "subtype": "noteOff"
      },
      {
        "deltaTime": 0,
        "channel": 2,
        "type": "channel",
        "noteNumber": 49,
        "velocity": 0,
        "subtype": "noteOff"
      },
      {
        "deltaTime": 0,
        "channel": 2,
        "type": "channel",
        "noteNumber": 44,
        "velocity": 0,
        "subtype": "noteOff"
      },
      {
        "deltaTime": 200,
        "channel": 2,
        "type": "channel",
        "noteNumber": 67,
        "velocity": 127,
        "subtype": "noteOn"
      },
      {
        "deltaTime": 0,
        "channel": 2,
        "type": "channel",
        "noteNumber": 54,
        "velocity": 127,
        "subtype": "noteOn"
      },
      {
        "deltaTime": 0,
        "channel": 2,
        "type": "channel",
        "noteNumber": 60,
        "velocity": 127,
        "subtype": "noteOn"
      },
      {
        "deltaTime": 0,
        "channel": 2,
        "type": "channel",
        "noteNumber": 51,
        "velocity": 127,
        "subtype": "noteOn"
      },
      {
        "deltaTime": 0,
        "channel": 2,
        "type": "channel",
        "noteNumber": 44,
        "velocity": 127,
        "subtype": "noteOn"
      },
      {
        "deltaTime": 40,
        "channel": 2,
        "type": "channel",
        "noteNumber": 54,
        "velocity": 0,
        "subtype": "noteOff"
      },
      {
        "deltaTime": 680,
        "channel": 2,
        "type": "channel",
        "noteNumber": 51,
        "velocity": 0,
        "subtype": "noteOff"
      },
      {
        "deltaTime": 0,
        "channel": 2,
        "type": "channel",
        "noteNumber": 67,
        "velocity": 0,
        "subtype": "noteOff"
      },
      {
        "deltaTime": 0,
        "channel": 2,
        "type": "channel",
        "noteNumber": 60,
        "velocity": 0,
        "subtype": "noteOff"
      },
      {
        "deltaTime": 0,
        "channel": 2,
        "type": "channel",
        "noteNumber": 44,
        "velocity": 0,
        "subtype": "noteOff"
      },
      {
        "deltaTime": 0,
        "channel": 2,
        "type": "channel",
        "noteNumber": 67,
        "velocity": 127,
        "subtype": "noteOn"
      },
      {
        "deltaTime": 0,
        "channel": 2,
        "type": "channel",
        "noteNumber": 54,
        "velocity": 127,
        "subtype": "noteOn"
      },
      {
        "deltaTime": 0,
        "channel": 2,
        "type": "channel",
        "noteNumber": 60,
        "velocity": 127,
        "subtype": "noteOn"
      },
      {
        "deltaTime": 0,
        "channel": 2,
        "type": "channel",
        "noteNumber": 51,
        "velocity": 127,
        "subtype": "noteOn"
      },
      {
        "deltaTime": 0,
        "channel": 2,
        "type": "channel",
        "noteNumber": 44,
        "velocity": 127,
        "subtype": "noteOn"
      },
      {
        "deltaTime": 40,
        "channel": 2,
        "type": "channel",
        "noteNumber": 54,
        "velocity": 0,
        "subtype": "noteOff"
      },
      {
        "deltaTime": 680,
        "channel": 2,
        "type": "channel",
        "noteNumber": 51,
        "velocity": 0,
        "subtype": "noteOff"
      },
      {
        "deltaTime": 0,
        "channel": 2,
        "type": "channel",
        "noteNumber": 67,
        "velocity": 0,
        "subtype": "noteOff"
      },
      {
        "deltaTime": 0,
        "channel": 2,
        "type": "channel",
        "noteNumber": 60,
        "velocity": 0,
        "subtype": "noteOff"
      },
      {
        "deltaTime": 0,
        "channel": 2,
        "type": "channel",
        "noteNumber": 44,
        "velocity": 0,
        "subtype": "noteOff"
      },
      {
        "deltaTime": 0,
        "channel": 2,
        "type": "channel",
        "noteNumber": 67,
        "velocity": 127,
        "subtype": "noteOn"
      },
      {
        "deltaTime": 0,
        "channel": 2,
        "type": "channel",
        "noteNumber": 54,
        "velocity": 127,
        "subtype": "noteOn"
      },
      {
        "deltaTime": 0,
        "channel": 2,
        "type": "channel",
        "noteNumber": 60,
        "velocity": 127,
        "subtype": "noteOn"
      },
      {
        "deltaTime": 0,
        "channel": 2,
        "type": "channel",
        "noteNumber": 51,
        "velocity": 127,
        "subtype": "noteOn"
      },
      {
        "deltaTime": 0,
        "channel": 2,
        "type": "channel",
        "noteNumber": 44,
        "velocity": 127,
        "subtype": "noteOn"
      },
      {
        "deltaTime": 40,
        "channel": 2,
        "type": "channel",
        "noteNumber": 54,
        "velocity": 0,
        "subtype": "noteOff"
      },
      {
        "deltaTime": 440,
        "channel": 2,
        "type": "channel",
        "noteNumber": 51,
        "velocity": 0,
        "subtype": "noteOff"
      },
      {
        "deltaTime": 0,
        "channel": 2,
        "type": "channel",
        "noteNumber": 67,
        "velocity": 0,
        "subtype": "noteOff"
      },
      {
        "deltaTime": 0,
        "channel": 2,
        "type": "channel",
        "noteNumber": 60,
        "velocity": 0,
        "subtype": "noteOff"
      },
      {
        "deltaTime": 0,
        "channel": 2,
        "type": "channel",
        "noteNumber": 44,
        "velocity": 0,
        "subtype": "noteOff"
      },
      {
        "deltaTime": 0,
        "channel": 2,
        "type": "channel",
        "noteNumber": 54,
        "velocity": 127,
        "subtype": "noteOn"
      },
      {
        "deltaTime": 0,
        "channel": 2,
        "type": "channel",
        "noteNumber": 49,
        "velocity": 127,
        "subtype": "noteOn"
      },
      {
        "deltaTime": 0,
        "channel": 2,
        "type": "channel",
        "noteNumber": 44,
        "velocity": 127,
        "subtype": "noteOn"
      },
      {
        "deltaTime": 0,
        "channel": 2,
        "type": "channel",
        "noteNumber": 37,
        "velocity": 127,
        "subtype": "noteOn"
      },
      {
        "deltaTime": 40,
        "channel": 2,
        "type": "channel",
        "noteNumber": 37,
        "velocity": 0,
        "subtype": "noteOff"
      },
      {
        "deltaTime": 0,
        "channel": 2,
        "type": "channel",
        "noteNumber": 54,
        "velocity": 0,
        "subtype": "noteOff"
      },
      {
        "deltaTime": 0,
        "channel": 2,
        "type": "channel",
        "noteNumber": 49,
        "velocity": 0,
        "subtype": "noteOff"
      },
      {
        "deltaTime": 0,
        "channel": 2,
        "type": "channel",
        "noteNumber": 44,
        "velocity": 0,
        "subtype": "noteOff"
      },
      {
        "deltaTime": 200,
        "channel": 2,
        "type": "channel",
        "noteNumber": 54,
        "velocity": 127,
        "subtype": "noteOn"
      },
      {
        "deltaTime": 0,
        "channel": 2,
        "type": "channel",
        "noteNumber": 49,
        "velocity": 127,
        "subtype": "noteOn"
      },
      {
        "deltaTime": 0,
        "channel": 2,
        "type": "channel",
        "noteNumber": 44,
        "velocity": 127,
        "subtype": "noteOn"
      },
      {
        "deltaTime": 0,
        "channel": 2,
        "type": "channel",
        "noteNumber": 37,
        "velocity": 127,
        "subtype": "noteOn"
      },
      {
        "deltaTime": 40,
        "channel": 2,
        "type": "channel",
        "noteNumber": 37,
        "velocity": 0,
        "subtype": "noteOff"
      },
      {
        "deltaTime": 0,
        "channel": 2,
        "type": "channel",
        "noteNumber": 54,
        "velocity": 0,
        "subtype": "noteOff"
      },
      {
        "deltaTime": 0,
        "channel": 2,
        "type": "channel",
        "noteNumber": 49,
        "velocity": 0,
        "subtype": "noteOff"
      },
      {
        "deltaTime": 0,
        "channel": 2,
        "type": "channel",
        "noteNumber": 44,
        "velocity": 0,
        "subtype": "noteOff"
      },
      {
        "deltaTime": 200,
        "channel": 2,
        "type": "channel",
        "noteNumber": 54,
        "velocity": 127,
        "subtype": "noteOn"
      },
      {
        "deltaTime": 0,
        "channel": 2,
        "type": "channel",
        "noteNumber": 49,
        "velocity": 127,
        "subtype": "noteOn"
      },
      {
        "deltaTime": 0,
        "channel": 2,
        "type": "channel",
        "noteNumber": 44,
        "velocity": 127,
        "subtype": "noteOn"
      },
      {
        "deltaTime": 0,
        "channel": 2,
        "type": "channel",
        "noteNumber": 37,
        "velocity": 127,
        "subtype": "noteOn"
      },
      {
        "deltaTime": 40,
        "channel": 2,
        "type": "channel",
        "noteNumber": 37,
        "velocity": 0,
        "subtype": "noteOff"
      },
      {
        "deltaTime": 0,
        "channel": 2,
        "type": "channel",
        "noteNumber": 54,
        "velocity": 0,
        "subtype": "noteOff"
      },
      {
        "deltaTime": 0,
        "channel": 2,
        "type": "channel",
        "noteNumber": 49,
        "velocity": 0,
        "subtype": "noteOff"
      },
      {
        "deltaTime": 0,
        "channel": 2,
        "type": "channel",
        "noteNumber": 44,
        "velocity": 0,
        "subtype": "noteOff"
      },
      {
        "deltaTime": 200,
        "channel": 2,
        "type": "channel",
        "noteNumber": 54,
        "velocity": 127,
        "subtype": "noteOn"
      },
      {
        "deltaTime": 0,
        "channel": 2,
        "type": "channel",
        "noteNumber": 49,
        "velocity": 127,
        "subtype": "noteOn"
      },
      {
        "deltaTime": 0,
        "channel": 2,
        "type": "channel",
        "noteNumber": 44,
        "velocity": 127,
        "subtype": "noteOn"
      },
      {
        "deltaTime": 0,
        "channel": 2,
        "type": "channel",
        "noteNumber": 37,
        "velocity": 127,
        "subtype": "noteOn"
      },
      {
        "deltaTime": 40,
        "channel": 2,
        "type": "channel",
        "noteNumber": 37,
        "velocity": 0,
        "subtype": "noteOff"
      },
      {
        "deltaTime": 0,
        "channel": 2,
        "type": "channel",
        "noteNumber": 54,
        "velocity": 0,
        "subtype": "noteOff"
      },
      {
        "deltaTime": 0,
        "channel": 2,
        "type": "channel",
        "noteNumber": 49,
        "velocity": 0,
        "subtype": "noteOff"
      },
      {
        "deltaTime": 0,
        "channel": 2,
        "type": "channel",
        "noteNumber": 44,
        "velocity": 0,
        "subtype": "noteOff"
      },
      {
        "deltaTime": 200,
        "channel": 2,
        "type": "channel",
        "noteNumber": 63,
        "velocity": 127,
        "subtype": "noteOn"
      },
      {
        "deltaTime": 0,
        "channel": 2,
        "type": "channel",
        "noteNumber": 58,
        "velocity": 127,
        "subtype": "noteOn"
      },
      {
        "deltaTime": 0,
        "channel": 2,
        "type": "channel",
        "noteNumber": 55,
        "velocity": 127,
        "subtype": "noteOn"
      },
      {
        "deltaTime": 0,
        "channel": 2,
        "type": "channel",
        "noteNumber": 51,
        "velocity": 127,
        "subtype": "noteOn"
      },
      {
        "deltaTime": 0,
        "channel": 2,
        "type": "channel",
        "noteNumber": 46,
        "velocity": 127,
        "subtype": "noteOn"
      },
      {
        "deltaTime": 0,
        "channel": 2,
        "type": "channel",
        "noteNumber": 39,
        "velocity": 127,
        "subtype": "noteOn"
      },
      {
        "deltaTime": 5760,
        "channel": 2,
        "type": "channel",
        "noteNumber": 39,
        "velocity": 0,
        "subtype": "noteOff"
      },
      {
        "deltaTime": 0,
        "channel": 2,
        "type": "channel",
        "noteNumber": 58,
        "velocity": 0,
        "subtype": "noteOff"
      },
      {
        "deltaTime": 0,
        "channel": 2,
        "type": "channel",
        "noteNumber": 55,
        "velocity": 0,
        "subtype": "noteOff"
      },
      {
        "deltaTime": 0,
        "channel": 2,
        "type": "channel",
        "noteNumber": 63,
        "velocity": 0,
        "subtype": "noteOff"
      },
      {
        "deltaTime": 0,
        "channel": 2,
        "type": "channel",
        "noteNumber": 46,
        "velocity": 0,
        "subtype": "noteOff"
      },
      {
        "deltaTime": 0,
        "channel": 2,
        "type": "channel",
        "noteNumber": 51,
        "velocity": 0,
        "subtype": "noteOff"
      },
      {
        "deltaTime": 0,
        "type": "meta",
        "subtype": "endOfTrack"
      }
    ],
    [
      {
        "deltaTime": 0,
        "type": "meta",
        "subtype": "trackName",
        "text": "Guitar 3"
      },
      {
        "deltaTime": 0,
        "channel": 3,
        "type": "channel",
        "subtype": "controller",
        "controllerType": 7,
        "value": 127
      },
      {
        "deltaTime": 0,
        "channel": 3,
        "type": "channel",
        "subtype": "controller",
        "controllerType": 10,
        "value": 127
      },
      {
        "deltaTime": 0,
        "channel": 3,
        "type": "channel",
        "subtype": "controller",
        "controllerType": 91,
        "value": 0
      },
      {
        "deltaTime": 0,
        "channel": 3,
        "type": "channel",
        "subtype": "controller",
        "controllerType": 93,
        "value": 0
      },
      {
        "deltaTime": 0,
        "channel": 3,
        "type": "channel",
        "subtype": "controller",
        "controllerType": 101,
        "value": 0
      },
      {
        "deltaTime": 1,
        "channel": 3,
        "type": "channel",
        "subtype": "controller",
        "controllerType": 100,
        "value": 0
      },
      {
        "deltaTime": 1,
        "channel": 3,
        "type": "channel",
        "subtype": "controller",
        "controllerType": 6,
        "value": 12
      },
      {
        "deltaTime": 1,
        "channel": 3,
        "type": "channel",
        "subtype": "controller",
        "controllerType": 38,
        "value": 0
      },
      {
        "deltaTime": 0,
        "channel": 3,
        "type": "channel",
        "subtype": "pitchBend",
        "value": 8192
      },
      {
        "deltaTime": 0,
        "channel": 3,
        "type": "channel",
        "subtype": "controller",
        "controllerType": 101,
        "value": 0
      },
      {
        "deltaTime": 1,
        "channel": 3,
        "type": "channel",
        "subtype": "controller",
        "controllerType": 100,
        "value": 1
      },
      {
        "deltaTime": 1,
        "channel": 3,
        "type": "channel",
        "subtype": "controller",
        "controllerType": 6,
        "value": 64
      },
      {
        "deltaTime": 1,
        "channel": 3,
        "type": "channel",
        "subtype": "controller",
        "controllerType": 38,
        "value": 0
      },
      {
        "deltaTime": 0,
        "channel": 3,
        "type": "channel",
        "subtype": "controller",
        "controllerType": 101,
        "value": 0
      },
      {
        "deltaTime": 1,
        "channel": 3,
        "type": "channel",
        "subtype": "controller",
        "controllerType": 100,
        "value": 0
      },
      {
        "deltaTime": 1,
        "channel": 3,
        "type": "channel",
        "subtype": "controller",
        "controllerType": 6,
        "value": 12
      },
      {
        "deltaTime": 1,
        "channel": 3,
        "type": "channel",
        "subtype": "controller",
        "controllerType": 38,
        "value": 0
      },
      {
        "deltaTime": 0,
        "channel": 3,
        "type": "channel",
        "subtype": "pitchBend",
        "value": 8192
      },
      {
        "deltaTime": 0,
        "channel": 3,
        "type": "channel",
        "subtype": "controller",
        "controllerType": 101,
        "value": 0
      },
      {
        "deltaTime": 1,
        "channel": 3,
        "type": "channel",
        "subtype": "controller",
        "controllerType": 100,
        "value": 1
      },
      {
        "deltaTime": 1,
        "channel": 3,
        "type": "channel",
        "subtype": "controller",
        "controllerType": 6,
        "value": 64
      },
      {
        "deltaTime": 1,
        "channel": 3,
        "type": "channel",
        "subtype": "controller",
        "controllerType": 38,
        "value": 0
      },
      {
        "deltaTime": 0,
        "channel": 3,
        "type": "channel",
        "subtype": "controller",
        "controllerType": 101,
        "value": 0
      },
      {
        "deltaTime": 1,
        "channel": 3,
        "type": "channel",
        "subtype": "controller",
        "controllerType": 100,
        "value": 2
      },
      {
        "deltaTime": 1,
        "channel": 3,
        "type": "channel",
        "subtype": "controller",
        "controllerType": 6,
        "value": 64
      },
      {
        "deltaTime": 1,
        "channel": 3,
        "type": "channel",
        "subtype": "controller",
        "controllerType": 38,
        "value": 0
      },
      {
        "deltaTime": 0,
        "channel": 3,
        "type": "channel",
        "subtype": "controller",
        "controllerType": 101,
        "value": 0
      },
      {
        "deltaTime": 1,
        "channel": 3,
        "type": "channel",
        "subtype": "controller",
        "controllerType": 100,
        "value": 2
      },
      {
        "deltaTime": 1,
        "channel": 3,
        "type": "channel",
        "subtype": "controller",
        "controllerType": 6,
        "value": 64
      },
      {
        "deltaTime": 1,
        "channel": 3,
        "type": "channel",
        "subtype": "controller",
        "controllerType": 38,
        "value": 0
      },
      {
        "deltaTime": 0,
        "channel": 3,
        "type": "channel",
        "subtype": "programChange",
        "programNumber": 27
      },
      {
        "deltaTime": 0,
        "channel": 3,
        "type": "channel",
        "subtype": "programChange",
        "programNumber": 27
      },
      {
        "deltaTime": 0,
        "channel": 3,
        "type": "channel",
        "subtype": "controller",
        "controllerType": 0,
        "value": 0
      },
      {
        "deltaTime": 0,
        "channel": 3,
        "type": "channel",
        "subtype": "controller",
        "controllerType": 0,
        "value": 0
      },
      {
        "deltaTime": 0,
        "channel": 3,
        "type": "channel",
        "subtype": "controller",
        "controllerType": 7,
        "value": 127
      },
      {
        "deltaTime": 0,
        "channel": 3,
        "type": "channel",
        "subtype": "controller",
        "controllerType": 10,
        "value": 127
      },
      {
        "deltaTime": 0,
        "channel": 3,
        "type": "channel",
        "subtype": "controller",
        "controllerType": 93,
        "value": 0
      },
      {
        "deltaTime": 0,
        "channel": 3,
        "type": "channel",
        "subtype": "controller",
        "controllerType": 91,
        "value": 0
      },
      {
        "deltaTime": 0,
        "channel": 3,
        "type": "channel",
        "subtype": "controller",
        "controllerType": 92,
        "value": 0
      },
      {
        "deltaTime": 0,
        "channel": 3,
        "type": "channel",
        "subtype": "controller",
        "controllerType": 92,
        "value": 0
      },
      {
        "deltaTime": 0,
        "channel": 3,
        "type": "channel",
        "subtype": "controller",
        "controllerType": 95,
        "value": 0
      },
      {
        "deltaTime": 0,
        "channel": 3,
        "type": "channel",
        "subtype": "controller",
        "controllerType": 95,
        "value": 0
      },
      {
        "deltaTime": 61422,
        "channel": 3,
        "type": "channel",
        "noteNumber": 70,
        "velocity": 63,
        "subtype": "noteOn"
      },
      {
        "deltaTime": 0,
        "channel": 3,
        "type": "channel",
        "noteNumber": 67,
        "velocity": 63,
        "subtype": "noteOn"
      },
      {
        "deltaTime": 0,
        "channel": 3,
        "type": "channel",
        "noteNumber": 63,
        "velocity": 63,
        "subtype": "noteOn"
      },
      {
        "deltaTime": 480,
        "channel": 3,
        "type": "channel",
        "noteNumber": 63,
        "velocity": 0,
        "subtype": "noteOff"
      },
      {
        "deltaTime": 0,
        "channel": 3,
        "type": "channel",
        "noteNumber": 67,
        "velocity": 0,
        "subtype": "noteOff"
      },
      {
        "deltaTime": 0,
        "channel": 3,
        "type": "channel",
        "noteNumber": 70,
        "velocity": 0,
        "subtype": "noteOff"
      },
      {
        "deltaTime": 480,
        "channel": 3,
        "type": "channel",
        "noteNumber": 70,
        "velocity": 63,
        "subtype": "noteOn"
      },
      {
        "deltaTime": 0,
        "channel": 3,
        "type": "channel",
        "noteNumber": 67,
        "velocity": 63,
        "subtype": "noteOn"
      },
      {
        "deltaTime": 0,
        "channel": 3,
        "type": "channel",
        "noteNumber": 63,
        "velocity": 63,
        "subtype": "noteOn"
      },
      {
        "deltaTime": 480,
        "channel": 3,
        "type": "channel",
        "noteNumber": 63,
        "velocity": 0,
        "subtype": "noteOff"
      },
      {
        "deltaTime": 0,
        "channel": 3,
        "type": "channel",
        "noteNumber": 67,
        "velocity": 0,
        "subtype": "noteOff"
      },
      {
        "deltaTime": 0,
        "channel": 3,
        "type": "channel",
        "noteNumber": 70,
        "velocity": 0,
        "subtype": "noteOff"
      },
      {
        "deltaTime": 1440,
        "channel": 3,
        "type": "channel",
        "noteNumber": 70,
        "velocity": 63,
        "subtype": "noteOn"
      },
      {
        "deltaTime": 0,
        "channel": 3,
        "type": "channel",
        "noteNumber": 65,
        "velocity": 63,
        "subtype": "noteOn"
      },
      {
        "deltaTime": 0,
        "channel": 3,
        "type": "channel",
        "noteNumber": 63,
        "velocity": 63,
        "subtype": "noteOn"
      },
      {
        "deltaTime": 480,
        "channel": 3,
        "type": "channel",
        "noteNumber": 63,
        "velocity": 0,
        "subtype": "noteOff"
      },
      {
        "deltaTime": 0,
        "channel": 3,
        "type": "channel",
        "noteNumber": 65,
        "velocity": 0,
        "subtype": "noteOff"
      },
      {
        "deltaTime": 0,
        "channel": 3,
        "type": "channel",
        "noteNumber": 70,
        "velocity": 0,
        "subtype": "noteOff"
      },
      {
        "deltaTime": 480,
        "channel": 3,
        "type": "channel",
        "noteNumber": 70,
        "velocity": 63,
        "subtype": "noteOn"
      },
      {
        "deltaTime": 0,
        "channel": 3,
        "type": "channel",
        "noteNumber": 65,
        "velocity": 63,
        "subtype": "noteOn"
      },
      {
        "deltaTime": 0,
        "channel": 3,
        "type": "channel",
        "noteNumber": 63,
        "velocity": 63,
        "subtype": "noteOn"
      },
      {
        "deltaTime": 480,
        "channel": 3,
        "type": "channel",
        "noteNumber": 63,
        "velocity": 0,
        "subtype": "noteOff"
      },
      {
        "deltaTime": 0,
        "channel": 3,
        "type": "channel",
        "noteNumber": 65,
        "velocity": 0,
        "subtype": "noteOff"
      },
      {
        "deltaTime": 0,
        "channel": 3,
        "type": "channel",
        "noteNumber": 70,
        "velocity": 0,
        "subtype": "noteOff"
      },
      {
        "deltaTime": 1440,
        "channel": 3,
        "type": "channel",
        "noteNumber": 70,
        "velocity": 63,
        "subtype": "noteOn"
      },
      {
        "deltaTime": 0,
        "channel": 3,
        "type": "channel",
        "noteNumber": 65,
        "velocity": 63,
        "subtype": "noteOn"
      },
      {
        "deltaTime": 0,
        "channel": 3,
        "type": "channel",
        "noteNumber": 63,
        "velocity": 63,
        "subtype": "noteOn"
      },
      {
        "deltaTime": 480,
        "channel": 3,
        "type": "channel",
        "noteNumber": 63,
        "velocity": 0,
        "subtype": "noteOff"
      },
      {
        "deltaTime": 0,
        "channel": 3,
        "type": "channel",
        "noteNumber": 65,
        "velocity": 0,
        "subtype": "noteOff"
      },
      {
        "deltaTime": 0,
        "channel": 3,
        "type": "channel",
        "noteNumber": 70,
        "velocity": 0,
        "subtype": "noteOff"
      },
      {
        "deltaTime": 480,
        "channel": 3,
        "type": "channel",
        "noteNumber": 70,
        "velocity": 63,
        "subtype": "noteOn"
      },
      {
        "deltaTime": 0,
        "channel": 3,
        "type": "channel",
        "noteNumber": 65,
        "velocity": 63,
        "subtype": "noteOn"
      },
      {
        "deltaTime": 0,
        "channel": 3,
        "type": "channel",
        "noteNumber": 63,
        "velocity": 63,
        "subtype": "noteOn"
      },
      {
        "deltaTime": 480,
        "channel": 3,
        "type": "channel",
        "noteNumber": 63,
        "velocity": 0,
        "subtype": "noteOff"
      },
      {
        "deltaTime": 0,
        "channel": 3,
        "type": "channel",
        "noteNumber": 65,
        "velocity": 0,
        "subtype": "noteOff"
      },
      {
        "deltaTime": 0,
        "channel": 3,
        "type": "channel",
        "noteNumber": 70,
        "velocity": 0,
        "subtype": "noteOff"
      },
      {
        "deltaTime": 1440,
        "channel": 3,
        "type": "channel",
        "noteNumber": 70,
        "velocity": 63,
        "subtype": "noteOn"
      },
      {
        "deltaTime": 0,
        "channel": 3,
        "type": "channel",
        "noteNumber": 65,
        "velocity": 63,
        "subtype": "noteOn"
      },
      {
        "deltaTime": 0,
        "channel": 3,
        "type": "channel",
        "noteNumber": 63,
        "velocity": 63,
        "subtype": "noteOn"
      },
      {
        "deltaTime": 480,
        "channel": 3,
        "type": "channel",
        "noteNumber": 63,
        "velocity": 0,
        "subtype": "noteOff"
      },
      {
        "deltaTime": 0,
        "channel": 3,
        "type": "channel",
        "noteNumber": 65,
        "velocity": 0,
        "subtype": "noteOff"
      },
      {
        "deltaTime": 0,
        "channel": 3,
        "type": "channel",
        "noteNumber": 70,
        "velocity": 0,
        "subtype": "noteOff"
      },
      {
        "deltaTime": 480,
        "channel": 3,
        "type": "channel",
        "noteNumber": 70,
        "velocity": 63,
        "subtype": "noteOn"
      },
      {
        "deltaTime": 0,
        "channel": 3,
        "type": "channel",
        "noteNumber": 65,
        "velocity": 63,
        "subtype": "noteOn"
      },
      {
        "deltaTime": 0,
        "channel": 3,
        "type": "channel",
        "noteNumber": 63,
        "velocity": 63,
        "subtype": "noteOn"
      },
      {
        "deltaTime": 480,
        "channel": 3,
        "type": "channel",
        "noteNumber": 63,
        "velocity": 0,
        "subtype": "noteOff"
      },
      {
        "deltaTime": 0,
        "channel": 3,
        "type": "channel",
        "noteNumber": 65,
        "velocity": 0,
        "subtype": "noteOff"
      },
      {
        "deltaTime": 0,
        "channel": 3,
        "type": "channel",
        "noteNumber": 70,
        "velocity": 0,
        "subtype": "noteOff"
      },
      {
        "deltaTime": 1440,
        "channel": 3,
        "type": "channel",
        "noteNumber": 70,
        "velocity": 63,
        "subtype": "noteOn"
      },
      {
        "deltaTime": 0,
        "channel": 3,
        "type": "channel",
        "noteNumber": 67,
        "velocity": 63,
        "subtype": "noteOn"
      },
      {
        "deltaTime": 0,
        "channel": 3,
        "type": "channel",
        "noteNumber": 63,
        "velocity": 63,
        "subtype": "noteOn"
      },
      {
        "deltaTime": 480,
        "channel": 3,
        "type": "channel",
        "noteNumber": 63,
        "velocity": 0,
        "subtype": "noteOff"
      },
      {
        "deltaTime": 0,
        "channel": 3,
        "type": "channel",
        "noteNumber": 67,
        "velocity": 0,
        "subtype": "noteOff"
      },
      {
        "deltaTime": 0,
        "channel": 3,
        "type": "channel",
        "noteNumber": 70,
        "velocity": 0,
        "subtype": "noteOff"
      },
      {
        "deltaTime": 480,
        "channel": 3,
        "type": "channel",
        "noteNumber": 70,
        "velocity": 63,
        "subtype": "noteOn"
      },
      {
        "deltaTime": 0,
        "channel": 3,
        "type": "channel",
        "noteNumber": 67,
        "velocity": 63,
        "subtype": "noteOn"
      },
      {
        "deltaTime": 0,
        "channel": 3,
        "type": "channel",
        "noteNumber": 63,
        "velocity": 63,
        "subtype": "noteOn"
      },
      {
        "deltaTime": 480,
        "channel": 3,
        "type": "channel",
        "noteNumber": 63,
        "velocity": 0,
        "subtype": "noteOff"
      },
      {
        "deltaTime": 0,
        "channel": 3,
        "type": "channel",
        "noteNumber": 67,
        "velocity": 0,
        "subtype": "noteOff"
      },
      {
        "deltaTime": 0,
        "channel": 3,
        "type": "channel",
        "noteNumber": 70,
        "velocity": 0,
        "subtype": "noteOff"
      },
      {
        "deltaTime": 1440,
        "channel": 3,
        "type": "channel",
        "noteNumber": 70,
        "velocity": 63,
        "subtype": "noteOn"
      },
      {
        "deltaTime": 0,
        "channel": 3,
        "type": "channel",
        "noteNumber": 65,
        "velocity": 63,
        "subtype": "noteOn"
      },
      {
        "deltaTime": 0,
        "channel": 3,
        "type": "channel",
        "noteNumber": 63,
        "velocity": 63,
        "subtype": "noteOn"
      },
      {
        "deltaTime": 480,
        "channel": 3,
        "type": "channel",
        "noteNumber": 63,
        "velocity": 0,
        "subtype": "noteOff"
      },
      {
        "deltaTime": 0,
        "channel": 3,
        "type": "channel",
        "noteNumber": 65,
        "velocity": 0,
        "subtype": "noteOff"
      },
      {
        "deltaTime": 0,
        "channel": 3,
        "type": "channel",
        "noteNumber": 70,
        "velocity": 0,
        "subtype": "noteOff"
      },
      {
        "deltaTime": 480,
        "channel": 3,
        "type": "channel",
        "noteNumber": 70,
        "velocity": 63,
        "subtype": "noteOn"
      },
      {
        "deltaTime": 0,
        "channel": 3,
        "type": "channel",
        "noteNumber": 65,
        "velocity": 63,
        "subtype": "noteOn"
      },
      {
        "deltaTime": 0,
        "channel": 3,
        "type": "channel",
        "noteNumber": 63,
        "velocity": 63,
        "subtype": "noteOn"
      },
      {
        "deltaTime": 480,
        "channel": 3,
        "type": "channel",
        "noteNumber": 63,
        "velocity": 0,
        "subtype": "noteOff"
      },
      {
        "deltaTime": 0,
        "channel": 3,
        "type": "channel",
        "noteNumber": 65,
        "velocity": 0,
        "subtype": "noteOff"
      },
      {
        "deltaTime": 0,
        "channel": 3,
        "type": "channel",
        "noteNumber": 70,
        "velocity": 0,
        "subtype": "noteOff"
      },
      {
        "deltaTime": 1440,
        "channel": 3,
        "type": "channel",
        "noteNumber": 70,
        "velocity": 63,
        "subtype": "noteOn"
      },
      {
        "deltaTime": 0,
        "channel": 3,
        "type": "channel",
        "noteNumber": 65,
        "velocity": 63,
        "subtype": "noteOn"
      },
      {
        "deltaTime": 0,
        "channel": 3,
        "type": "channel",
        "noteNumber": 63,
        "velocity": 63,
        "subtype": "noteOn"
      },
      {
        "deltaTime": 480,
        "channel": 3,
        "type": "channel",
        "noteNumber": 63,
        "velocity": 0,
        "subtype": "noteOff"
      },
      {
        "deltaTime": 0,
        "channel": 3,
        "type": "channel",
        "noteNumber": 65,
        "velocity": 0,
        "subtype": "noteOff"
      },
      {
        "deltaTime": 0,
        "channel": 3,
        "type": "channel",
        "noteNumber": 70,
        "velocity": 0,
        "subtype": "noteOff"
      },
      {
        "deltaTime": 480,
        "channel": 3,
        "type": "channel",
        "noteNumber": 70,
        "velocity": 63,
        "subtype": "noteOn"
      },
      {
        "deltaTime": 0,
        "channel": 3,
        "type": "channel",
        "noteNumber": 65,
        "velocity": 63,
        "subtype": "noteOn"
      },
      {
        "deltaTime": 0,
        "channel": 3,
        "type": "channel",
        "noteNumber": 63,
        "velocity": 63,
        "subtype": "noteOn"
      },
      {
        "deltaTime": 480,
        "channel": 3,
        "type": "channel",
        "noteNumber": 63,
        "velocity": 0,
        "subtype": "noteOff"
      },
      {
        "deltaTime": 0,
        "channel": 3,
        "type": "channel",
        "noteNumber": 65,
        "velocity": 0,
        "subtype": "noteOff"
      },
      {
        "deltaTime": 0,
        "channel": 3,
        "type": "channel",
        "noteNumber": 70,
        "velocity": 0,
        "subtype": "noteOff"
      },
      {
        "deltaTime": 1440,
        "channel": 3,
        "type": "channel",
        "noteNumber": 70,
        "velocity": 63,
        "subtype": "noteOn"
      },
      {
        "deltaTime": 0,
        "channel": 3,
        "type": "channel",
        "noteNumber": 65,
        "velocity": 63,
        "subtype": "noteOn"
      },
      {
        "deltaTime": 0,
        "channel": 3,
        "type": "channel",
        "noteNumber": 63,
        "velocity": 63,
        "subtype": "noteOn"
      },
      {
        "deltaTime": 480,
        "channel": 3,
        "type": "channel",
        "noteNumber": 63,
        "velocity": 0,
        "subtype": "noteOff"
      },
      {
        "deltaTime": 0,
        "channel": 3,
        "type": "channel",
        "noteNumber": 65,
        "velocity": 0,
        "subtype": "noteOff"
      },
      {
        "deltaTime": 0,
        "channel": 3,
        "type": "channel",
        "noteNumber": 70,
        "velocity": 0,
        "subtype": "noteOff"
      },
      {
        "deltaTime": 480,
        "channel": 3,
        "type": "channel",
        "noteNumber": 70,
        "velocity": 63,
        "subtype": "noteOn"
      },
      {
        "deltaTime": 0,
        "channel": 3,
        "type": "channel",
        "noteNumber": 65,
        "velocity": 63,
        "subtype": "noteOn"
      },
      {
        "deltaTime": 0,
        "channel": 3,
        "type": "channel",
        "noteNumber": 63,
        "velocity": 63,
        "subtype": "noteOn"
      },
      {
        "deltaTime": 480,
        "channel": 3,
        "type": "channel",
        "noteNumber": 63,
        "velocity": 0,
        "subtype": "noteOff"
      },
      {
        "deltaTime": 0,
        "channel": 3,
        "type": "channel",
        "noteNumber": 65,
        "velocity": 0,
        "subtype": "noteOff"
      },
      {
        "deltaTime": 0,
        "channel": 3,
        "type": "channel",
        "noteNumber": 70,
        "velocity": 0,
        "subtype": "noteOff"
      },
      {
        "deltaTime": 93600,
        "channel": 3,
        "type": "channel",
        "noteNumber": 70,
        "velocity": 63,
        "subtype": "noteOn"
      },
      {
        "deltaTime": 0,
        "channel": 3,
        "type": "channel",
        "noteNumber": 67,
        "velocity": 63,
        "subtype": "noteOn"
      },
      {
        "deltaTime": 0,
        "channel": 3,
        "type": "channel",
        "noteNumber": 63,
        "velocity": 63,
        "subtype": "noteOn"
      },
      {
        "deltaTime": 480,
        "channel": 3,
        "type": "channel",
        "noteNumber": 63,
        "velocity": 0,
        "subtype": "noteOff"
      },
      {
        "deltaTime": 0,
        "channel": 3,
        "type": "channel",
        "noteNumber": 67,
        "velocity": 0,
        "subtype": "noteOff"
      },
      {
        "deltaTime": 0,
        "channel": 3,
        "type": "channel",
        "noteNumber": 70,
        "velocity": 0,
        "subtype": "noteOff"
      },
      {
        "deltaTime": 480,
        "channel": 3,
        "type": "channel",
        "noteNumber": 70,
        "velocity": 63,
        "subtype": "noteOn"
      },
      {
        "deltaTime": 0,
        "channel": 3,
        "type": "channel",
        "noteNumber": 67,
        "velocity": 63,
        "subtype": "noteOn"
      },
      {
        "deltaTime": 0,
        "channel": 3,
        "type": "channel",
        "noteNumber": 63,
        "velocity": 63,
        "subtype": "noteOn"
      },
      {
        "deltaTime": 480,
        "channel": 3,
        "type": "channel",
        "noteNumber": 63,
        "velocity": 0,
        "subtype": "noteOff"
      },
      {
        "deltaTime": 0,
        "channel": 3,
        "type": "channel",
        "noteNumber": 67,
        "velocity": 0,
        "subtype": "noteOff"
      },
      {
        "deltaTime": 0,
        "channel": 3,
        "type": "channel",
        "noteNumber": 70,
        "velocity": 0,
        "subtype": "noteOff"
      },
      {
        "deltaTime": 1440,
        "channel": 3,
        "type": "channel",
        "noteNumber": 70,
        "velocity": 63,
        "subtype": "noteOn"
      },
      {
        "deltaTime": 0,
        "channel": 3,
        "type": "channel",
        "noteNumber": 65,
        "velocity": 63,
        "subtype": "noteOn"
      },
      {
        "deltaTime": 0,
        "channel": 3,
        "type": "channel",
        "noteNumber": 63,
        "velocity": 63,
        "subtype": "noteOn"
      },
      {
        "deltaTime": 480,
        "channel": 3,
        "type": "channel",
        "noteNumber": 63,
        "velocity": 0,
        "subtype": "noteOff"
      },
      {
        "deltaTime": 0,
        "channel": 3,
        "type": "channel",
        "noteNumber": 65,
        "velocity": 0,
        "subtype": "noteOff"
      },
      {
        "deltaTime": 0,
        "channel": 3,
        "type": "channel",
        "noteNumber": 70,
        "velocity": 0,
        "subtype": "noteOff"
      },
      {
        "deltaTime": 480,
        "channel": 3,
        "type": "channel",
        "noteNumber": 70,
        "velocity": 63,
        "subtype": "noteOn"
      },
      {
        "deltaTime": 0,
        "channel": 3,
        "type": "channel",
        "noteNumber": 65,
        "velocity": 63,
        "subtype": "noteOn"
      },
      {
        "deltaTime": 0,
        "channel": 3,
        "type": "channel",
        "noteNumber": 63,
        "velocity": 63,
        "subtype": "noteOn"
      },
      {
        "deltaTime": 480,
        "channel": 3,
        "type": "channel",
        "noteNumber": 63,
        "velocity": 0,
        "subtype": "noteOff"
      },
      {
        "deltaTime": 0,
        "channel": 3,
        "type": "channel",
        "noteNumber": 65,
        "velocity": 0,
        "subtype": "noteOff"
      },
      {
        "deltaTime": 0,
        "channel": 3,
        "type": "channel",
        "noteNumber": 70,
        "velocity": 0,
        "subtype": "noteOff"
      },
      {
        "deltaTime": 1440,
        "channel": 3,
        "type": "channel",
        "noteNumber": 70,
        "velocity": 63,
        "subtype": "noteOn"
      },
      {
        "deltaTime": 0,
        "channel": 3,
        "type": "channel",
        "noteNumber": 65,
        "velocity": 63,
        "subtype": "noteOn"
      },
      {
        "deltaTime": 0,
        "channel": 3,
        "type": "channel",
        "noteNumber": 63,
        "velocity": 63,
        "subtype": "noteOn"
      },
      {
        "deltaTime": 480,
        "channel": 3,
        "type": "channel",
        "noteNumber": 63,
        "velocity": 0,
        "subtype": "noteOff"
      },
      {
        "deltaTime": 0,
        "channel": 3,
        "type": "channel",
        "noteNumber": 65,
        "velocity": 0,
        "subtype": "noteOff"
      },
      {
        "deltaTime": 0,
        "channel": 3,
        "type": "channel",
        "noteNumber": 70,
        "velocity": 0,
        "subtype": "noteOff"
      },
      {
        "deltaTime": 480,
        "channel": 3,
        "type": "channel",
        "noteNumber": 70,
        "velocity": 63,
        "subtype": "noteOn"
      },
      {
        "deltaTime": 0,
        "channel": 3,
        "type": "channel",
        "noteNumber": 65,
        "velocity": 63,
        "subtype": "noteOn"
      },
      {
        "deltaTime": 0,
        "channel": 3,
        "type": "channel",
        "noteNumber": 63,
        "velocity": 63,
        "subtype": "noteOn"
      },
      {
        "deltaTime": 480,
        "channel": 3,
        "type": "channel",
        "noteNumber": 63,
        "velocity": 0,
        "subtype": "noteOff"
      },
      {
        "deltaTime": 0,
        "channel": 3,
        "type": "channel",
        "noteNumber": 65,
        "velocity": 0,
        "subtype": "noteOff"
      },
      {
        "deltaTime": 0,
        "channel": 3,
        "type": "channel",
        "noteNumber": 70,
        "velocity": 0,
        "subtype": "noteOff"
      },
      {
        "deltaTime": 1440,
        "channel": 3,
        "type": "channel",
        "noteNumber": 70,
        "velocity": 63,
        "subtype": "noteOn"
      },
      {
        "deltaTime": 0,
        "channel": 3,
        "type": "channel",
        "noteNumber": 65,
        "velocity": 63,
        "subtype": "noteOn"
      },
      {
        "deltaTime": 0,
        "channel": 3,
        "type": "channel",
        "noteNumber": 63,
        "velocity": 63,
        "subtype": "noteOn"
      },
      {
        "deltaTime": 480,
        "channel": 3,
        "type": "channel",
        "noteNumber": 63,
        "velocity": 0,
        "subtype": "noteOff"
      },
      {
        "deltaTime": 0,
        "channel": 3,
        "type": "channel",
        "noteNumber": 65,
        "velocity": 0,
        "subtype": "noteOff"
      },
      {
        "deltaTime": 0,
        "channel": 3,
        "type": "channel",
        "noteNumber": 70,
        "velocity": 0,
        "subtype": "noteOff"
      },
      {
        "deltaTime": 480,
        "channel": 3,
        "type": "channel",
        "noteNumber": 70,
        "velocity": 63,
        "subtype": "noteOn"
      },
      {
        "deltaTime": 0,
        "channel": 3,
        "type": "channel",
        "noteNumber": 65,
        "velocity": 63,
        "subtype": "noteOn"
      },
      {
        "deltaTime": 0,
        "channel": 3,
        "type": "channel",
        "noteNumber": 63,
        "velocity": 63,
        "subtype": "noteOn"
      },
      {
        "deltaTime": 480,
        "channel": 3,
        "type": "channel",
        "noteNumber": 63,
        "velocity": 0,
        "subtype": "noteOff"
      },
      {
        "deltaTime": 0,
        "channel": 3,
        "type": "channel",
        "noteNumber": 65,
        "velocity": 0,
        "subtype": "noteOff"
      },
      {
        "deltaTime": 0,
        "channel": 3,
        "type": "channel",
        "noteNumber": 70,
        "velocity": 0,
        "subtype": "noteOff"
      },
      {
        "deltaTime": 1440,
        "channel": 3,
        "type": "channel",
        "noteNumber": 70,
        "velocity": 63,
        "subtype": "noteOn"
      },
      {
        "deltaTime": 0,
        "channel": 3,
        "type": "channel",
        "noteNumber": 67,
        "velocity": 63,
        "subtype": "noteOn"
      },
      {
        "deltaTime": 0,
        "channel": 3,
        "type": "channel",
        "noteNumber": 63,
        "velocity": 63,
        "subtype": "noteOn"
      },
      {
        "deltaTime": 480,
        "channel": 3,
        "type": "channel",
        "noteNumber": 63,
        "velocity": 0,
        "subtype": "noteOff"
      },
      {
        "deltaTime": 0,
        "channel": 3,
        "type": "channel",
        "noteNumber": 67,
        "velocity": 0,
        "subtype": "noteOff"
      },
      {
        "deltaTime": 0,
        "channel": 3,
        "type": "channel",
        "noteNumber": 70,
        "velocity": 0,
        "subtype": "noteOff"
      },
      {
        "deltaTime": 480,
        "channel": 3,
        "type": "channel",
        "noteNumber": 70,
        "velocity": 63,
        "subtype": "noteOn"
      },
      {
        "deltaTime": 0,
        "channel": 3,
        "type": "channel",
        "noteNumber": 67,
        "velocity": 63,
        "subtype": "noteOn"
      },
      {
        "deltaTime": 0,
        "channel": 3,
        "type": "channel",
        "noteNumber": 63,
        "velocity": 63,
        "subtype": "noteOn"
      },
      {
        "deltaTime": 480,
        "channel": 3,
        "type": "channel",
        "noteNumber": 63,
        "velocity": 0,
        "subtype": "noteOff"
      },
      {
        "deltaTime": 0,
        "channel": 3,
        "type": "channel",
        "noteNumber": 67,
        "velocity": 0,
        "subtype": "noteOff"
      },
      {
        "deltaTime": 0,
        "channel": 3,
        "type": "channel",
        "noteNumber": 70,
        "velocity": 0,
        "subtype": "noteOff"
      },
      {
        "deltaTime": 1440,
        "channel": 3,
        "type": "channel",
        "noteNumber": 70,
        "velocity": 63,
        "subtype": "noteOn"
      },
      {
        "deltaTime": 0,
        "channel": 3,
        "type": "channel",
        "noteNumber": 65,
        "velocity": 63,
        "subtype": "noteOn"
      },
      {
        "deltaTime": 0,
        "channel": 3,
        "type": "channel",
        "noteNumber": 63,
        "velocity": 63,
        "subtype": "noteOn"
      },
      {
        "deltaTime": 480,
        "channel": 3,
        "type": "channel",
        "noteNumber": 63,
        "velocity": 0,
        "subtype": "noteOff"
      },
      {
        "deltaTime": 0,
        "channel": 3,
        "type": "channel",
        "noteNumber": 65,
        "velocity": 0,
        "subtype": "noteOff"
      },
      {
        "deltaTime": 0,
        "channel": 3,
        "type": "channel",
        "noteNumber": 70,
        "velocity": 0,
        "subtype": "noteOff"
      },
      {
        "deltaTime": 480,
        "channel": 3,
        "type": "channel",
        "noteNumber": 70,
        "velocity": 63,
        "subtype": "noteOn"
      },
      {
        "deltaTime": 0,
        "channel": 3,
        "type": "channel",
        "noteNumber": 65,
        "velocity": 63,
        "subtype": "noteOn"
      },
      {
        "deltaTime": 0,
        "channel": 3,
        "type": "channel",
        "noteNumber": 63,
        "velocity": 63,
        "subtype": "noteOn"
      },
      {
        "deltaTime": 480,
        "channel": 3,
        "type": "channel",
        "noteNumber": 63,
        "velocity": 0,
        "subtype": "noteOff"
      },
      {
        "deltaTime": 0,
        "channel": 3,
        "type": "channel",
        "noteNumber": 65,
        "velocity": 0,
        "subtype": "noteOff"
      },
      {
        "deltaTime": 0,
        "channel": 3,
        "type": "channel",
        "noteNumber": 70,
        "velocity": 0,
        "subtype": "noteOff"
      },
      {
        "deltaTime": 1440,
        "channel": 3,
        "type": "channel",
        "noteNumber": 70,
        "velocity": 63,
        "subtype": "noteOn"
      },
      {
        "deltaTime": 0,
        "channel": 3,
        "type": "channel",
        "noteNumber": 65,
        "velocity": 63,
        "subtype": "noteOn"
      },
      {
        "deltaTime": 0,
        "channel": 3,
        "type": "channel",
        "noteNumber": 63,
        "velocity": 63,
        "subtype": "noteOn"
      },
      {
        "deltaTime": 480,
        "channel": 3,
        "type": "channel",
        "noteNumber": 63,
        "velocity": 0,
        "subtype": "noteOff"
      },
      {
        "deltaTime": 0,
        "channel": 3,
        "type": "channel",
        "noteNumber": 65,
        "velocity": 0,
        "subtype": "noteOff"
      },
      {
        "deltaTime": 0,
        "channel": 3,
        "type": "channel",
        "noteNumber": 70,
        "velocity": 0,
        "subtype": "noteOff"
      },
      {
        "deltaTime": 480,
        "channel": 3,
        "type": "channel",
        "noteNumber": 70,
        "velocity": 63,
        "subtype": "noteOn"
      },
      {
        "deltaTime": 0,
        "channel": 3,
        "type": "channel",
        "noteNumber": 65,
        "velocity": 63,
        "subtype": "noteOn"
      },
      {
        "deltaTime": 0,
        "channel": 3,
        "type": "channel",
        "noteNumber": 63,
        "velocity": 63,
        "subtype": "noteOn"
      },
      {
        "deltaTime": 480,
        "channel": 3,
        "type": "channel",
        "noteNumber": 63,
        "velocity": 0,
        "subtype": "noteOff"
      },
      {
        "deltaTime": 0,
        "channel": 3,
        "type": "channel",
        "noteNumber": 65,
        "velocity": 0,
        "subtype": "noteOff"
      },
      {
        "deltaTime": 0,
        "channel": 3,
        "type": "channel",
        "noteNumber": 70,
        "velocity": 0,
        "subtype": "noteOff"
      },
      {
        "deltaTime": 1440,
        "channel": 3,
        "type": "channel",
        "noteNumber": 70,
        "velocity": 63,
        "subtype": "noteOn"
      },
      {
        "deltaTime": 0,
        "channel": 3,
        "type": "channel",
        "noteNumber": 65,
        "velocity": 63,
        "subtype": "noteOn"
      },
      {
        "deltaTime": 0,
        "channel": 3,
        "type": "channel",
        "noteNumber": 63,
        "velocity": 63,
        "subtype": "noteOn"
      },
      {
        "deltaTime": 480,
        "channel": 3,
        "type": "channel",
        "noteNumber": 63,
        "velocity": 0,
        "subtype": "noteOff"
      },
      {
        "deltaTime": 0,
        "channel": 3,
        "type": "channel",
        "noteNumber": 65,
        "velocity": 0,
        "subtype": "noteOff"
      },
      {
        "deltaTime": 0,
        "channel": 3,
        "type": "channel",
        "noteNumber": 70,
        "velocity": 0,
        "subtype": "noteOff"
      },
      {
        "deltaTime": 480,
        "channel": 3,
        "type": "channel",
        "noteNumber": 70,
        "velocity": 63,
        "subtype": "noteOn"
      },
      {
        "deltaTime": 0,
        "channel": 3,
        "type": "channel",
        "noteNumber": 65,
        "velocity": 63,
        "subtype": "noteOn"
      },
      {
        "deltaTime": 0,
        "channel": 3,
        "type": "channel",
        "noteNumber": 63,
        "velocity": 63,
        "subtype": "noteOn"
      },
      {
        "deltaTime": 480,
        "channel": 3,
        "type": "channel",
        "noteNumber": 63,
        "velocity": 0,
        "subtype": "noteOff"
      },
      {
        "deltaTime": 0,
        "channel": 3,
        "type": "channel",
        "noteNumber": 65,
        "velocity": 0,
        "subtype": "noteOff"
      },
      {
        "deltaTime": 0,
        "channel": 3,
        "type": "channel",
        "noteNumber": 70,
        "velocity": 0,
        "subtype": "noteOff"
      },
      {
        "deltaTime": 1440,
        "channel": 3,
        "type": "channel",
        "noteNumber": 70,
        "velocity": 63,
        "subtype": "noteOn"
      },
      {
        "deltaTime": 0,
        "channel": 3,
        "type": "channel",
        "noteNumber": 67,
        "velocity": 63,
        "subtype": "noteOn"
      },
      {
        "deltaTime": 0,
        "channel": 3,
        "type": "channel",
        "noteNumber": 63,
        "velocity": 63,
        "subtype": "noteOn"
      },
      {
        "deltaTime": 480,
        "channel": 3,
        "type": "channel",
        "noteNumber": 63,
        "velocity": 0,
        "subtype": "noteOff"
      },
      {
        "deltaTime": 0,
        "channel": 3,
        "type": "channel",
        "noteNumber": 67,
        "velocity": 0,
        "subtype": "noteOff"
      },
      {
        "deltaTime": 0,
        "channel": 3,
        "type": "channel",
        "noteNumber": 70,
        "velocity": 0,
        "subtype": "noteOff"
      },
      {
        "deltaTime": 480,
        "channel": 3,
        "type": "channel",
        "noteNumber": 70,
        "velocity": 63,
        "subtype": "noteOn"
      },
      {
        "deltaTime": 0,
        "channel": 3,
        "type": "channel",
        "noteNumber": 67,
        "velocity": 63,
        "subtype": "noteOn"
      },
      {
        "deltaTime": 0,
        "channel": 3,
        "type": "channel",
        "noteNumber": 63,
        "velocity": 63,
        "subtype": "noteOn"
      },
      {
        "deltaTime": 480,
        "channel": 3,
        "type": "channel",
        "noteNumber": 63,
        "velocity": 0,
        "subtype": "noteOff"
      },
      {
        "deltaTime": 0,
        "channel": 3,
        "type": "channel",
        "noteNumber": 67,
        "velocity": 0,
        "subtype": "noteOff"
      },
      {
        "deltaTime": 0,
        "channel": 3,
        "type": "channel",
        "noteNumber": 70,
        "velocity": 0,
        "subtype": "noteOff"
      },
      {
        "deltaTime": 1440,
        "channel": 3,
        "type": "channel",
        "noteNumber": 70,
        "velocity": 63,
        "subtype": "noteOn"
      },
      {
        "deltaTime": 0,
        "channel": 3,
        "type": "channel",
        "noteNumber": 65,
        "velocity": 63,
        "subtype": "noteOn"
      },
      {
        "deltaTime": 0,
        "channel": 3,
        "type": "channel",
        "noteNumber": 63,
        "velocity": 63,
        "subtype": "noteOn"
      },
      {
        "deltaTime": 480,
        "channel": 3,
        "type": "channel",
        "noteNumber": 63,
        "velocity": 0,
        "subtype": "noteOff"
      },
      {
        "deltaTime": 0,
        "channel": 3,
        "type": "channel",
        "noteNumber": 65,
        "velocity": 0,
        "subtype": "noteOff"
      },
      {
        "deltaTime": 0,
        "channel": 3,
        "type": "channel",
        "noteNumber": 70,
        "velocity": 0,
        "subtype": "noteOff"
      },
      {
        "deltaTime": 480,
        "channel": 3,
        "type": "channel",
        "noteNumber": 70,
        "velocity": 63,
        "subtype": "noteOn"
      },
      {
        "deltaTime": 0,
        "channel": 3,
        "type": "channel",
        "noteNumber": 65,
        "velocity": 63,
        "subtype": "noteOn"
      },
      {
        "deltaTime": 0,
        "channel": 3,
        "type": "channel",
        "noteNumber": 63,
        "velocity": 63,
        "subtype": "noteOn"
      },
      {
        "deltaTime": 480,
        "channel": 3,
        "type": "channel",
        "noteNumber": 63,
        "velocity": 0,
        "subtype": "noteOff"
      },
      {
        "deltaTime": 0,
        "channel": 3,
        "type": "channel",
        "noteNumber": 65,
        "velocity": 0,
        "subtype": "noteOff"
      },
      {
        "deltaTime": 0,
        "channel": 3,
        "type": "channel",
        "noteNumber": 70,
        "velocity": 0,
        "subtype": "noteOff"
      },
      {
        "deltaTime": 1440,
        "channel": 3,
        "type": "channel",
        "noteNumber": 70,
        "velocity": 63,
        "subtype": "noteOn"
      },
      {
        "deltaTime": 0,
        "channel": 3,
        "type": "channel",
        "noteNumber": 65,
        "velocity": 63,
        "subtype": "noteOn"
      },
      {
        "deltaTime": 0,
        "channel": 3,
        "type": "channel",
        "noteNumber": 63,
        "velocity": 63,
        "subtype": "noteOn"
      },
      {
        "deltaTime": 480,
        "channel": 3,
        "type": "channel",
        "noteNumber": 63,
        "velocity": 0,
        "subtype": "noteOff"
      },
      {
        "deltaTime": 0,
        "channel": 3,
        "type": "channel",
        "noteNumber": 65,
        "velocity": 0,
        "subtype": "noteOff"
      },
      {
        "deltaTime": 0,
        "channel": 3,
        "type": "channel",
        "noteNumber": 70,
        "velocity": 0,
        "subtype": "noteOff"
      },
      {
        "deltaTime": 480,
        "channel": 3,
        "type": "channel",
        "noteNumber": 70,
        "velocity": 63,
        "subtype": "noteOn"
      },
      {
        "deltaTime": 0,
        "channel": 3,
        "type": "channel",
        "noteNumber": 65,
        "velocity": 63,
        "subtype": "noteOn"
      },
      {
        "deltaTime": 0,
        "channel": 3,
        "type": "channel",
        "noteNumber": 63,
        "velocity": 63,
        "subtype": "noteOn"
      },
      {
        "deltaTime": 480,
        "channel": 3,
        "type": "channel",
        "noteNumber": 63,
        "velocity": 0,
        "subtype": "noteOff"
      },
      {
        "deltaTime": 0,
        "channel": 3,
        "type": "channel",
        "noteNumber": 65,
        "velocity": 0,
        "subtype": "noteOff"
      },
      {
        "deltaTime": 0,
        "channel": 3,
        "type": "channel",
        "noteNumber": 70,
        "velocity": 0,
        "subtype": "noteOff"
      },
      {
        "deltaTime": 1440,
        "channel": 3,
        "type": "channel",
        "noteNumber": 70,
        "velocity": 63,
        "subtype": "noteOn"
      },
      {
        "deltaTime": 0,
        "channel": 3,
        "type": "channel",
        "noteNumber": 65,
        "velocity": 63,
        "subtype": "noteOn"
      },
      {
        "deltaTime": 0,
        "channel": 3,
        "type": "channel",
        "noteNumber": 63,
        "velocity": 63,
        "subtype": "noteOn"
      },
      {
        "deltaTime": 480,
        "channel": 3,
        "type": "channel",
        "noteNumber": 63,
        "velocity": 0,
        "subtype": "noteOff"
      },
      {
        "deltaTime": 0,
        "channel": 3,
        "type": "channel",
        "noteNumber": 65,
        "velocity": 0,
        "subtype": "noteOff"
      },
      {
        "deltaTime": 0,
        "channel": 3,
        "type": "channel",
        "noteNumber": 70,
        "velocity": 0,
        "subtype": "noteOff"
      },
      {
        "deltaTime": 480,
        "channel": 3,
        "type": "channel",
        "noteNumber": 70,
        "velocity": 63,
        "subtype": "noteOn"
      },
      {
        "deltaTime": 0,
        "channel": 3,
        "type": "channel",
        "noteNumber": 65,
        "velocity": 63,
        "subtype": "noteOn"
      },
      {
        "deltaTime": 0,
        "channel": 3,
        "type": "channel",
        "noteNumber": 63,
        "velocity": 63,
        "subtype": "noteOn"
      },
      {
        "deltaTime": 480,
        "channel": 3,
        "type": "channel",
        "noteNumber": 63,
        "velocity": 0,
        "subtype": "noteOff"
      },
      {
        "deltaTime": 0,
        "channel": 3,
        "type": "channel",
        "noteNumber": 65,
        "velocity": 0,
        "subtype": "noteOff"
      },
      {
        "deltaTime": 0,
        "channel": 3,
        "type": "channel",
        "noteNumber": 70,
        "velocity": 0,
        "subtype": "noteOff"
      },
      {
        "deltaTime": 1440,
        "channel": 3,
        "type": "channel",
        "noteNumber": 70,
        "velocity": 63,
        "subtype": "noteOn"
      },
      {
        "deltaTime": 0,
        "channel": 3,
        "type": "channel",
        "noteNumber": 67,
        "velocity": 63,
        "subtype": "noteOn"
      },
      {
        "deltaTime": 0,
        "channel": 3,
        "type": "channel",
        "noteNumber": 63,
        "velocity": 63,
        "subtype": "noteOn"
      },
      {
        "deltaTime": 480,
        "channel": 3,
        "type": "channel",
        "noteNumber": 63,
        "velocity": 0,
        "subtype": "noteOff"
      },
      {
        "deltaTime": 0,
        "channel": 3,
        "type": "channel",
        "noteNumber": 67,
        "velocity": 0,
        "subtype": "noteOff"
      },
      {
        "deltaTime": 0,
        "channel": 3,
        "type": "channel",
        "noteNumber": 70,
        "velocity": 0,
        "subtype": "noteOff"
      },
      {
        "deltaTime": 480,
        "channel": 3,
        "type": "channel",
        "noteNumber": 70,
        "velocity": 63,
        "subtype": "noteOn"
      },
      {
        "deltaTime": 0,
        "channel": 3,
        "type": "channel",
        "noteNumber": 67,
        "velocity": 63,
        "subtype": "noteOn"
      },
      {
        "deltaTime": 0,
        "channel": 3,
        "type": "channel",
        "noteNumber": 63,
        "velocity": 63,
        "subtype": "noteOn"
      },
      {
        "deltaTime": 480,
        "channel": 3,
        "type": "channel",
        "noteNumber": 63,
        "velocity": 0,
        "subtype": "noteOff"
      },
      {
        "deltaTime": 0,
        "channel": 3,
        "type": "channel",
        "noteNumber": 67,
        "velocity": 0,
        "subtype": "noteOff"
      },
      {
        "deltaTime": 0,
        "channel": 3,
        "type": "channel",
        "noteNumber": 70,
        "velocity": 0,
        "subtype": "noteOff"
      },
      {
        "deltaTime": 1440,
        "channel": 3,
        "type": "channel",
        "noteNumber": 70,
        "velocity": 63,
        "subtype": "noteOn"
      },
      {
        "deltaTime": 0,
        "channel": 3,
        "type": "channel",
        "noteNumber": 65,
        "velocity": 63,
        "subtype": "noteOn"
      },
      {
        "deltaTime": 0,
        "channel": 3,
        "type": "channel",
        "noteNumber": 63,
        "velocity": 63,
        "subtype": "noteOn"
      },
      {
        "deltaTime": 480,
        "channel": 3,
        "type": "channel",
        "noteNumber": 63,
        "velocity": 0,
        "subtype": "noteOff"
      },
      {
        "deltaTime": 0,
        "channel": 3,
        "type": "channel",
        "noteNumber": 65,
        "velocity": 0,
        "subtype": "noteOff"
      },
      {
        "deltaTime": 0,
        "channel": 3,
        "type": "channel",
        "noteNumber": 70,
        "velocity": 0,
        "subtype": "noteOff"
      },
      {
        "deltaTime": 480,
        "channel": 3,
        "type": "channel",
        "noteNumber": 70,
        "velocity": 63,
        "subtype": "noteOn"
      },
      {
        "deltaTime": 0,
        "channel": 3,
        "type": "channel",
        "noteNumber": 65,
        "velocity": 63,
        "subtype": "noteOn"
      },
      {
        "deltaTime": 0,
        "channel": 3,
        "type": "channel",
        "noteNumber": 63,
        "velocity": 63,
        "subtype": "noteOn"
      },
      {
        "deltaTime": 480,
        "channel": 3,
        "type": "channel",
        "noteNumber": 63,
        "velocity": 0,
        "subtype": "noteOff"
      },
      {
        "deltaTime": 0,
        "channel": 3,
        "type": "channel",
        "noteNumber": 65,
        "velocity": 0,
        "subtype": "noteOff"
      },
      {
        "deltaTime": 0,
        "channel": 3,
        "type": "channel",
        "noteNumber": 70,
        "velocity": 0,
        "subtype": "noteOff"
      },
      {
        "deltaTime": 1440,
        "channel": 3,
        "type": "channel",
        "noteNumber": 70,
        "velocity": 63,
        "subtype": "noteOn"
      },
      {
        "deltaTime": 0,
        "channel": 3,
        "type": "channel",
        "noteNumber": 65,
        "velocity": 63,
        "subtype": "noteOn"
      },
      {
        "deltaTime": 0,
        "channel": 3,
        "type": "channel",
        "noteNumber": 63,
        "velocity": 63,
        "subtype": "noteOn"
      },
      {
        "deltaTime": 480,
        "channel": 3,
        "type": "channel",
        "noteNumber": 63,
        "velocity": 0,
        "subtype": "noteOff"
      },
      {
        "deltaTime": 0,
        "channel": 3,
        "type": "channel",
        "noteNumber": 65,
        "velocity": 0,
        "subtype": "noteOff"
      },
      {
        "deltaTime": 0,
        "channel": 3,
        "type": "channel",
        "noteNumber": 70,
        "velocity": 0,
        "subtype": "noteOff"
      },
      {
        "deltaTime": 480,
        "channel": 3,
        "type": "channel",
        "noteNumber": 70,
        "velocity": 63,
        "subtype": "noteOn"
      },
      {
        "deltaTime": 0,
        "channel": 3,
        "type": "channel",
        "noteNumber": 65,
        "velocity": 63,
        "subtype": "noteOn"
      },
      {
        "deltaTime": 0,
        "channel": 3,
        "type": "channel",
        "noteNumber": 63,
        "velocity": 63,
        "subtype": "noteOn"
      },
      {
        "deltaTime": 480,
        "channel": 3,
        "type": "channel",
        "noteNumber": 63,
        "velocity": 0,
        "subtype": "noteOff"
      },
      {
        "deltaTime": 0,
        "channel": 3,
        "type": "channel",
        "noteNumber": 65,
        "velocity": 0,
        "subtype": "noteOff"
      },
      {
        "deltaTime": 0,
        "channel": 3,
        "type": "channel",
        "noteNumber": 70,
        "velocity": 0,
        "subtype": "noteOff"
      },
      {
        "deltaTime": 1440,
        "channel": 3,
        "type": "channel",
        "noteNumber": 70,
        "velocity": 63,
        "subtype": "noteOn"
      },
      {
        "deltaTime": 0,
        "channel": 3,
        "type": "channel",
        "noteNumber": 65,
        "velocity": 63,
        "subtype": "noteOn"
      },
      {
        "deltaTime": 0,
        "channel": 3,
        "type": "channel",
        "noteNumber": 63,
        "velocity": 63,
        "subtype": "noteOn"
      },
      {
        "deltaTime": 480,
        "channel": 3,
        "type": "channel",
        "noteNumber": 63,
        "velocity": 0,
        "subtype": "noteOff"
      },
      {
        "deltaTime": 0,
        "channel": 3,
        "type": "channel",
        "noteNumber": 65,
        "velocity": 0,
        "subtype": "noteOff"
      },
      {
        "deltaTime": 0,
        "channel": 3,
        "type": "channel",
        "noteNumber": 70,
        "velocity": 0,
        "subtype": "noteOff"
      },
      {
        "deltaTime": 480,
        "channel": 3,
        "type": "channel",
        "noteNumber": 70,
        "velocity": 63,
        "subtype": "noteOn"
      },
      {
        "deltaTime": 0,
        "channel": 3,
        "type": "channel",
        "noteNumber": 65,
        "velocity": 63,
        "subtype": "noteOn"
      },
      {
        "deltaTime": 0,
        "channel": 3,
        "type": "channel",
        "noteNumber": 63,
        "velocity": 63,
        "subtype": "noteOn"
      },
      {
        "deltaTime": 480,
        "channel": 3,
        "type": "channel",
        "noteNumber": 63,
        "velocity": 0,
        "subtype": "noteOff"
      },
      {
        "deltaTime": 0,
        "channel": 3,
        "type": "channel",
        "noteNumber": 65,
        "velocity": 0,
        "subtype": "noteOff"
      },
      {
        "deltaTime": 0,
        "channel": 3,
        "type": "channel",
        "noteNumber": 70,
        "velocity": 0,
        "subtype": "noteOff"
      },
      {
        "deltaTime": 70560,
        "channel": 3,
        "type": "channel",
        "noteNumber": 70,
        "velocity": 63,
        "subtype": "noteOn"
      },
      {
        "deltaTime": 0,
        "channel": 3,
        "type": "channel",
        "noteNumber": 67,
        "velocity": 63,
        "subtype": "noteOn"
      },
      {
        "deltaTime": 0,
        "channel": 3,
        "type": "channel",
        "noteNumber": 63,
        "velocity": 63,
        "subtype": "noteOn"
      },
      {
        "deltaTime": 480,
        "channel": 3,
        "type": "channel",
        "noteNumber": 63,
        "velocity": 0,
        "subtype": "noteOff"
      },
      {
        "deltaTime": 0,
        "channel": 3,
        "type": "channel",
        "noteNumber": 67,
        "velocity": 0,
        "subtype": "noteOff"
      },
      {
        "deltaTime": 0,
        "channel": 3,
        "type": "channel",
        "noteNumber": 70,
        "velocity": 0,
        "subtype": "noteOff"
      },
      {
        "deltaTime": 480,
        "channel": 3,
        "type": "channel",
        "noteNumber": 70,
        "velocity": 63,
        "subtype": "noteOn"
      },
      {
        "deltaTime": 0,
        "channel": 3,
        "type": "channel",
        "noteNumber": 67,
        "velocity": 63,
        "subtype": "noteOn"
      },
      {
        "deltaTime": 0,
        "channel": 3,
        "type": "channel",
        "noteNumber": 63,
        "velocity": 63,
        "subtype": "noteOn"
      },
      {
        "deltaTime": 480,
        "channel": 3,
        "type": "channel",
        "noteNumber": 63,
        "velocity": 0,
        "subtype": "noteOff"
      },
      {
        "deltaTime": 0,
        "channel": 3,
        "type": "channel",
        "noteNumber": 67,
        "velocity": 0,
        "subtype": "noteOff"
      },
      {
        "deltaTime": 0,
        "channel": 3,
        "type": "channel",
        "noteNumber": 70,
        "velocity": 0,
        "subtype": "noteOff"
      },
      {
        "deltaTime": 1440,
        "channel": 3,
        "type": "channel",
        "noteNumber": 70,
        "velocity": 63,
        "subtype": "noteOn"
      },
      {
        "deltaTime": 0,
        "channel": 3,
        "type": "channel",
        "noteNumber": 65,
        "velocity": 63,
        "subtype": "noteOn"
      },
      {
        "deltaTime": 0,
        "channel": 3,
        "type": "channel",
        "noteNumber": 63,
        "velocity": 63,
        "subtype": "noteOn"
      },
      {
        "deltaTime": 480,
        "channel": 3,
        "type": "channel",
        "noteNumber": 63,
        "velocity": 0,
        "subtype": "noteOff"
      },
      {
        "deltaTime": 0,
        "channel": 3,
        "type": "channel",
        "noteNumber": 65,
        "velocity": 0,
        "subtype": "noteOff"
      },
      {
        "deltaTime": 0,
        "channel": 3,
        "type": "channel",
        "noteNumber": 70,
        "velocity": 0,
        "subtype": "noteOff"
      },
      {
        "deltaTime": 480,
        "channel": 3,
        "type": "channel",
        "noteNumber": 70,
        "velocity": 63,
        "subtype": "noteOn"
      },
      {
        "deltaTime": 0,
        "channel": 3,
        "type": "channel",
        "noteNumber": 65,
        "velocity": 63,
        "subtype": "noteOn"
      },
      {
        "deltaTime": 0,
        "channel": 3,
        "type": "channel",
        "noteNumber": 63,
        "velocity": 63,
        "subtype": "noteOn"
      },
      {
        "deltaTime": 480,
        "channel": 3,
        "type": "channel",
        "noteNumber": 63,
        "velocity": 0,
        "subtype": "noteOff"
      },
      {
        "deltaTime": 0,
        "channel": 3,
        "type": "channel",
        "noteNumber": 65,
        "velocity": 0,
        "subtype": "noteOff"
      },
      {
        "deltaTime": 0,
        "channel": 3,
        "type": "channel",
        "noteNumber": 70,
        "velocity": 0,
        "subtype": "noteOff"
      },
      {
        "deltaTime": 1440,
        "channel": 3,
        "type": "channel",
        "noteNumber": 70,
        "velocity": 63,
        "subtype": "noteOn"
      },
      {
        "deltaTime": 0,
        "channel": 3,
        "type": "channel",
        "noteNumber": 65,
        "velocity": 63,
        "subtype": "noteOn"
      },
      {
        "deltaTime": 0,
        "channel": 3,
        "type": "channel",
        "noteNumber": 63,
        "velocity": 63,
        "subtype": "noteOn"
      },
      {
        "deltaTime": 480,
        "channel": 3,
        "type": "channel",
        "noteNumber": 63,
        "velocity": 0,
        "subtype": "noteOff"
      },
      {
        "deltaTime": 0,
        "channel": 3,
        "type": "channel",
        "noteNumber": 65,
        "velocity": 0,
        "subtype": "noteOff"
      },
      {
        "deltaTime": 0,
        "channel": 3,
        "type": "channel",
        "noteNumber": 70,
        "velocity": 0,
        "subtype": "noteOff"
      },
      {
        "deltaTime": 480,
        "channel": 3,
        "type": "channel",
        "noteNumber": 70,
        "velocity": 63,
        "subtype": "noteOn"
      },
      {
        "deltaTime": 0,
        "channel": 3,
        "type": "channel",
        "noteNumber": 65,
        "velocity": 63,
        "subtype": "noteOn"
      },
      {
        "deltaTime": 0,
        "channel": 3,
        "type": "channel",
        "noteNumber": 63,
        "velocity": 63,
        "subtype": "noteOn"
      },
      {
        "deltaTime": 480,
        "channel": 3,
        "type": "channel",
        "noteNumber": 63,
        "velocity": 0,
        "subtype": "noteOff"
      },
      {
        "deltaTime": 0,
        "channel": 3,
        "type": "channel",
        "noteNumber": 65,
        "velocity": 0,
        "subtype": "noteOff"
      },
      {
        "deltaTime": 0,
        "channel": 3,
        "type": "channel",
        "noteNumber": 70,
        "velocity": 0,
        "subtype": "noteOff"
      },
      {
        "deltaTime": 1440,
        "channel": 3,
        "type": "channel",
        "noteNumber": 70,
        "velocity": 63,
        "subtype": "noteOn"
      },
      {
        "deltaTime": 0,
        "channel": 3,
        "type": "channel",
        "noteNumber": 65,
        "velocity": 63,
        "subtype": "noteOn"
      },
      {
        "deltaTime": 0,
        "channel": 3,
        "type": "channel",
        "noteNumber": 63,
        "velocity": 63,
        "subtype": "noteOn"
      },
      {
        "deltaTime": 480,
        "channel": 3,
        "type": "channel",
        "noteNumber": 63,
        "velocity": 0,
        "subtype": "noteOff"
      },
      {
        "deltaTime": 0,
        "channel": 3,
        "type": "channel",
        "noteNumber": 65,
        "velocity": 0,
        "subtype": "noteOff"
      },
      {
        "deltaTime": 0,
        "channel": 3,
        "type": "channel",
        "noteNumber": 70,
        "velocity": 0,
        "subtype": "noteOff"
      },
      {
        "deltaTime": 480,
        "channel": 3,
        "type": "channel",
        "noteNumber": 70,
        "velocity": 63,
        "subtype": "noteOn"
      },
      {
        "deltaTime": 0,
        "channel": 3,
        "type": "channel",
        "noteNumber": 65,
        "velocity": 63,
        "subtype": "noteOn"
      },
      {
        "deltaTime": 0,
        "channel": 3,
        "type": "channel",
        "noteNumber": 63,
        "velocity": 63,
        "subtype": "noteOn"
      },
      {
        "deltaTime": 480,
        "channel": 3,
        "type": "channel",
        "noteNumber": 63,
        "velocity": 0,
        "subtype": "noteOff"
      },
      {
        "deltaTime": 0,
        "channel": 3,
        "type": "channel",
        "noteNumber": 65,
        "velocity": 0,
        "subtype": "noteOff"
      },
      {
        "deltaTime": 0,
        "channel": 3,
        "type": "channel",
        "noteNumber": 70,
        "velocity": 0,
        "subtype": "noteOff"
      },
      {
        "deltaTime": 1440,
        "channel": 3,
        "type": "channel",
        "noteNumber": 70,
        "velocity": 63,
        "subtype": "noteOn"
      },
      {
        "deltaTime": 0,
        "channel": 3,
        "type": "channel",
        "noteNumber": 67,
        "velocity": 63,
        "subtype": "noteOn"
      },
      {
        "deltaTime": 0,
        "channel": 3,
        "type": "channel",
        "noteNumber": 63,
        "velocity": 63,
        "subtype": "noteOn"
      },
      {
        "deltaTime": 480,
        "channel": 3,
        "type": "channel",
        "noteNumber": 63,
        "velocity": 0,
        "subtype": "noteOff"
      },
      {
        "deltaTime": 0,
        "channel": 3,
        "type": "channel",
        "noteNumber": 67,
        "velocity": 0,
        "subtype": "noteOff"
      },
      {
        "deltaTime": 0,
        "channel": 3,
        "type": "channel",
        "noteNumber": 70,
        "velocity": 0,
        "subtype": "noteOff"
      },
      {
        "deltaTime": 480,
        "channel": 3,
        "type": "channel",
        "noteNumber": 70,
        "velocity": 63,
        "subtype": "noteOn"
      },
      {
        "deltaTime": 0,
        "channel": 3,
        "type": "channel",
        "noteNumber": 67,
        "velocity": 63,
        "subtype": "noteOn"
      },
      {
        "deltaTime": 0,
        "channel": 3,
        "type": "channel",
        "noteNumber": 63,
        "velocity": 63,
        "subtype": "noteOn"
      },
      {
        "deltaTime": 480,
        "channel": 3,
        "type": "channel",
        "noteNumber": 63,
        "velocity": 0,
        "subtype": "noteOff"
      },
      {
        "deltaTime": 0,
        "channel": 3,
        "type": "channel",
        "noteNumber": 67,
        "velocity": 0,
        "subtype": "noteOff"
      },
      {
        "deltaTime": 0,
        "channel": 3,
        "type": "channel",
        "noteNumber": 70,
        "velocity": 0,
        "subtype": "noteOff"
      },
      {
        "deltaTime": 1440,
        "channel": 3,
        "type": "channel",
        "noteNumber": 70,
        "velocity": 63,
        "subtype": "noteOn"
      },
      {
        "deltaTime": 0,
        "channel": 3,
        "type": "channel",
        "noteNumber": 65,
        "velocity": 63,
        "subtype": "noteOn"
      },
      {
        "deltaTime": 0,
        "channel": 3,
        "type": "channel",
        "noteNumber": 63,
        "velocity": 63,
        "subtype": "noteOn"
      },
      {
        "deltaTime": 480,
        "channel": 3,
        "type": "channel",
        "noteNumber": 63,
        "velocity": 0,
        "subtype": "noteOff"
      },
      {
        "deltaTime": 0,
        "channel": 3,
        "type": "channel",
        "noteNumber": 65,
        "velocity": 0,
        "subtype": "noteOff"
      },
      {
        "deltaTime": 0,
        "channel": 3,
        "type": "channel",
        "noteNumber": 70,
        "velocity": 0,
        "subtype": "noteOff"
      },
      {
        "deltaTime": 480,
        "channel": 3,
        "type": "channel",
        "noteNumber": 70,
        "velocity": 63,
        "subtype": "noteOn"
      },
      {
        "deltaTime": 0,
        "channel": 3,
        "type": "channel",
        "noteNumber": 65,
        "velocity": 63,
        "subtype": "noteOn"
      },
      {
        "deltaTime": 0,
        "channel": 3,
        "type": "channel",
        "noteNumber": 63,
        "velocity": 63,
        "subtype": "noteOn"
      },
      {
        "deltaTime": 480,
        "channel": 3,
        "type": "channel",
        "noteNumber": 63,
        "velocity": 0,
        "subtype": "noteOff"
      },
      {
        "deltaTime": 0,
        "channel": 3,
        "type": "channel",
        "noteNumber": 65,
        "velocity": 0,
        "subtype": "noteOff"
      },
      {
        "deltaTime": 0,
        "channel": 3,
        "type": "channel",
        "noteNumber": 70,
        "velocity": 0,
        "subtype": "noteOff"
      },
      {
        "deltaTime": 1440,
        "channel": 3,
        "type": "channel",
        "noteNumber": 70,
        "velocity": 63,
        "subtype": "noteOn"
      },
      {
        "deltaTime": 0,
        "channel": 3,
        "type": "channel",
        "noteNumber": 65,
        "velocity": 63,
        "subtype": "noteOn"
      },
      {
        "deltaTime": 0,
        "channel": 3,
        "type": "channel",
        "noteNumber": 63,
        "velocity": 63,
        "subtype": "noteOn"
      },
      {
        "deltaTime": 480,
        "channel": 3,
        "type": "channel",
        "noteNumber": 63,
        "velocity": 0,
        "subtype": "noteOff"
      },
      {
        "deltaTime": 0,
        "channel": 3,
        "type": "channel",
        "noteNumber": 65,
        "velocity": 0,
        "subtype": "noteOff"
      },
      {
        "deltaTime": 0,
        "channel": 3,
        "type": "channel",
        "noteNumber": 70,
        "velocity": 0,
        "subtype": "noteOff"
      },
      {
        "deltaTime": 480,
        "channel": 3,
        "type": "channel",
        "noteNumber": 70,
        "velocity": 63,
        "subtype": "noteOn"
      },
      {
        "deltaTime": 0,
        "channel": 3,
        "type": "channel",
        "noteNumber": 65,
        "velocity": 63,
        "subtype": "noteOn"
      },
      {
        "deltaTime": 0,
        "channel": 3,
        "type": "channel",
        "noteNumber": 63,
        "velocity": 63,
        "subtype": "noteOn"
      },
      {
        "deltaTime": 480,
        "channel": 3,
        "type": "channel",
        "noteNumber": 63,
        "velocity": 0,
        "subtype": "noteOff"
      },
      {
        "deltaTime": 0,
        "channel": 3,
        "type": "channel",
        "noteNumber": 65,
        "velocity": 0,
        "subtype": "noteOff"
      },
      {
        "deltaTime": 0,
        "channel": 3,
        "type": "channel",
        "noteNumber": 70,
        "velocity": 0,
        "subtype": "noteOff"
      },
      {
        "deltaTime": 1440,
        "channel": 3,
        "type": "channel",
        "noteNumber": 70,
        "velocity": 63,
        "subtype": "noteOn"
      },
      {
        "deltaTime": 0,
        "channel": 3,
        "type": "channel",
        "noteNumber": 65,
        "velocity": 63,
        "subtype": "noteOn"
      },
      {
        "deltaTime": 0,
        "channel": 3,
        "type": "channel",
        "noteNumber": 63,
        "velocity": 63,
        "subtype": "noteOn"
      },
      {
        "deltaTime": 480,
        "channel": 3,
        "type": "channel",
        "noteNumber": 63,
        "velocity": 0,
        "subtype": "noteOff"
      },
      {
        "deltaTime": 0,
        "channel": 3,
        "type": "channel",
        "noteNumber": 65,
        "velocity": 0,
        "subtype": "noteOff"
      },
      {
        "deltaTime": 0,
        "channel": 3,
        "type": "channel",
        "noteNumber": 70,
        "velocity": 0,
        "subtype": "noteOff"
      },
      {
        "deltaTime": 480,
        "channel": 3,
        "type": "channel",
        "noteNumber": 70,
        "velocity": 63,
        "subtype": "noteOn"
      },
      {
        "deltaTime": 0,
        "channel": 3,
        "type": "channel",
        "noteNumber": 65,
        "velocity": 63,
        "subtype": "noteOn"
      },
      {
        "deltaTime": 0,
        "channel": 3,
        "type": "channel",
        "noteNumber": 63,
        "velocity": 63,
        "subtype": "noteOn"
      },
      {
        "deltaTime": 480,
        "channel": 3,
        "type": "channel",
        "noteNumber": 63,
        "velocity": 0,
        "subtype": "noteOff"
      },
      {
        "deltaTime": 0,
        "channel": 3,
        "type": "channel",
        "noteNumber": 65,
        "velocity": 0,
        "subtype": "noteOff"
      },
      {
        "deltaTime": 0,
        "channel": 3,
        "type": "channel",
        "noteNumber": 70,
        "velocity": 0,
        "subtype": "noteOff"
      },
      {
        "deltaTime": 1440,
        "channel": 3,
        "type": "channel",
        "noteNumber": 70,
        "velocity": 63,
        "subtype": "noteOn"
      },
      {
        "deltaTime": 0,
        "channel": 3,
        "type": "channel",
        "noteNumber": 67,
        "velocity": 63,
        "subtype": "noteOn"
      },
      {
        "deltaTime": 0,
        "channel": 3,
        "type": "channel",
        "noteNumber": 63,
        "velocity": 63,
        "subtype": "noteOn"
      },
      {
        "deltaTime": 480,
        "channel": 3,
        "type": "channel",
        "noteNumber": 63,
        "velocity": 0,
        "subtype": "noteOff"
      },
      {
        "deltaTime": 0,
        "channel": 3,
        "type": "channel",
        "noteNumber": 67,
        "velocity": 0,
        "subtype": "noteOff"
      },
      {
        "deltaTime": 0,
        "channel": 3,
        "type": "channel",
        "noteNumber": 70,
        "velocity": 0,
        "subtype": "noteOff"
      },
      {
        "deltaTime": 480,
        "channel": 3,
        "type": "channel",
        "noteNumber": 70,
        "velocity": 63,
        "subtype": "noteOn"
      },
      {
        "deltaTime": 0,
        "channel": 3,
        "type": "channel",
        "noteNumber": 67,
        "velocity": 63,
        "subtype": "noteOn"
      },
      {
        "deltaTime": 0,
        "channel": 3,
        "type": "channel",
        "noteNumber": 63,
        "velocity": 63,
        "subtype": "noteOn"
      },
      {
        "deltaTime": 480,
        "channel": 3,
        "type": "channel",
        "noteNumber": 63,
        "velocity": 0,
        "subtype": "noteOff"
      },
      {
        "deltaTime": 0,
        "channel": 3,
        "type": "channel",
        "noteNumber": 67,
        "velocity": 0,
        "subtype": "noteOff"
      },
      {
        "deltaTime": 0,
        "channel": 3,
        "type": "channel",
        "noteNumber": 70,
        "velocity": 0,
        "subtype": "noteOff"
      },
      {
        "deltaTime": 1440,
        "channel": 3,
        "type": "channel",
        "noteNumber": 70,
        "velocity": 63,
        "subtype": "noteOn"
      },
      {
        "deltaTime": 0,
        "channel": 3,
        "type": "channel",
        "noteNumber": 65,
        "velocity": 63,
        "subtype": "noteOn"
      },
      {
        "deltaTime": 0,
        "channel": 3,
        "type": "channel",
        "noteNumber": 63,
        "velocity": 63,
        "subtype": "noteOn"
      },
      {
        "deltaTime": 480,
        "channel": 3,
        "type": "channel",
        "noteNumber": 63,
        "velocity": 0,
        "subtype": "noteOff"
      },
      {
        "deltaTime": 0,
        "channel": 3,
        "type": "channel",
        "noteNumber": 65,
        "velocity": 0,
        "subtype": "noteOff"
      },
      {
        "deltaTime": 0,
        "channel": 3,
        "type": "channel",
        "noteNumber": 70,
        "velocity": 0,
        "subtype": "noteOff"
      },
      {
        "deltaTime": 480,
        "channel": 3,
        "type": "channel",
        "noteNumber": 70,
        "velocity": 63,
        "subtype": "noteOn"
      },
      {
        "deltaTime": 0,
        "channel": 3,
        "type": "channel",
        "noteNumber": 65,
        "velocity": 63,
        "subtype": "noteOn"
      },
      {
        "deltaTime": 0,
        "channel": 3,
        "type": "channel",
        "noteNumber": 63,
        "velocity": 63,
        "subtype": "noteOn"
      },
      {
        "deltaTime": 480,
        "channel": 3,
        "type": "channel",
        "noteNumber": 63,
        "velocity": 0,
        "subtype": "noteOff"
      },
      {
        "deltaTime": 0,
        "channel": 3,
        "type": "channel",
        "noteNumber": 65,
        "velocity": 0,
        "subtype": "noteOff"
      },
      {
        "deltaTime": 0,
        "channel": 3,
        "type": "channel",
        "noteNumber": 70,
        "velocity": 0,
        "subtype": "noteOff"
      },
      {
        "deltaTime": 1440,
        "channel": 3,
        "type": "channel",
        "noteNumber": 70,
        "velocity": 63,
        "subtype": "noteOn"
      },
      {
        "deltaTime": 0,
        "channel": 3,
        "type": "channel",
        "noteNumber": 65,
        "velocity": 63,
        "subtype": "noteOn"
      },
      {
        "deltaTime": 0,
        "channel": 3,
        "type": "channel",
        "noteNumber": 63,
        "velocity": 63,
        "subtype": "noteOn"
      },
      {
        "deltaTime": 480,
        "channel": 3,
        "type": "channel",
        "noteNumber": 63,
        "velocity": 0,
        "subtype": "noteOff"
      },
      {
        "deltaTime": 0,
        "channel": 3,
        "type": "channel",
        "noteNumber": 65,
        "velocity": 0,
        "subtype": "noteOff"
      },
      {
        "deltaTime": 0,
        "channel": 3,
        "type": "channel",
        "noteNumber": 70,
        "velocity": 0,
        "subtype": "noteOff"
      },
      {
        "deltaTime": 480,
        "channel": 3,
        "type": "channel",
        "noteNumber": 70,
        "velocity": 63,
        "subtype": "noteOn"
      },
      {
        "deltaTime": 0,
        "channel": 3,
        "type": "channel",
        "noteNumber": 65,
        "velocity": 63,
        "subtype": "noteOn"
      },
      {
        "deltaTime": 0,
        "channel": 3,
        "type": "channel",
        "noteNumber": 63,
        "velocity": 63,
        "subtype": "noteOn"
      },
      {
        "deltaTime": 480,
        "channel": 3,
        "type": "channel",
        "noteNumber": 63,
        "velocity": 0,
        "subtype": "noteOff"
      },
      {
        "deltaTime": 0,
        "channel": 3,
        "type": "channel",
        "noteNumber": 65,
        "velocity": 0,
        "subtype": "noteOff"
      },
      {
        "deltaTime": 0,
        "channel": 3,
        "type": "channel",
        "noteNumber": 70,
        "velocity": 0,
        "subtype": "noteOff"
      },
      {
        "deltaTime": 1440,
        "channel": 3,
        "type": "channel",
        "noteNumber": 70,
        "velocity": 63,
        "subtype": "noteOn"
      },
      {
        "deltaTime": 0,
        "channel": 3,
        "type": "channel",
        "noteNumber": 65,
        "velocity": 63,
        "subtype": "noteOn"
      },
      {
        "deltaTime": 0,
        "channel": 3,
        "type": "channel",
        "noteNumber": 63,
        "velocity": 63,
        "subtype": "noteOn"
      },
      {
        "deltaTime": 480,
        "channel": 3,
        "type": "channel",
        "noteNumber": 63,
        "velocity": 0,
        "subtype": "noteOff"
      },
      {
        "deltaTime": 0,
        "channel": 3,
        "type": "channel",
        "noteNumber": 65,
        "velocity": 0,
        "subtype": "noteOff"
      },
      {
        "deltaTime": 0,
        "channel": 3,
        "type": "channel",
        "noteNumber": 70,
        "velocity": 0,
        "subtype": "noteOff"
      },
      {
        "deltaTime": 480,
        "channel": 3,
        "type": "channel",
        "noteNumber": 70,
        "velocity": 63,
        "subtype": "noteOn"
      },
      {
        "deltaTime": 0,
        "channel": 3,
        "type": "channel",
        "noteNumber": 65,
        "velocity": 63,
        "subtype": "noteOn"
      },
      {
        "deltaTime": 0,
        "channel": 3,
        "type": "channel",
        "noteNumber": 63,
        "velocity": 63,
        "subtype": "noteOn"
      },
      {
        "deltaTime": 480,
        "channel": 3,
        "type": "channel",
        "noteNumber": 63,
        "velocity": 0,
        "subtype": "noteOff"
      },
      {
        "deltaTime": 0,
        "channel": 3,
        "type": "channel",
        "noteNumber": 65,
        "velocity": 0,
        "subtype": "noteOff"
      },
      {
        "deltaTime": 0,
        "channel": 3,
        "type": "channel",
        "noteNumber": 70,
        "velocity": 0,
        "subtype": "noteOff"
      },
      {
        "deltaTime": 1440,
        "channel": 3,
        "type": "channel",
        "noteNumber": 70,
        "velocity": 63,
        "subtype": "noteOn"
      },
      {
        "deltaTime": 0,
        "channel": 3,
        "type": "channel",
        "noteNumber": 67,
        "velocity": 63,
        "subtype": "noteOn"
      },
      {
        "deltaTime": 0,
        "channel": 3,
        "type": "channel",
        "noteNumber": 63,
        "velocity": 63,
        "subtype": "noteOn"
      },
      {
        "deltaTime": 480,
        "channel": 3,
        "type": "channel",
        "noteNumber": 63,
        "velocity": 0,
        "subtype": "noteOff"
      },
      {
        "deltaTime": 0,
        "channel": 3,
        "type": "channel",
        "noteNumber": 67,
        "velocity": 0,
        "subtype": "noteOff"
      },
      {
        "deltaTime": 0,
        "channel": 3,
        "type": "channel",
        "noteNumber": 70,
        "velocity": 0,
        "subtype": "noteOff"
      },
      {
        "deltaTime": 480,
        "channel": 3,
        "type": "channel",
        "noteNumber": 70,
        "velocity": 63,
        "subtype": "noteOn"
      },
      {
        "deltaTime": 0,
        "channel": 3,
        "type": "channel",
        "noteNumber": 67,
        "velocity": 63,
        "subtype": "noteOn"
      },
      {
        "deltaTime": 0,
        "channel": 3,
        "type": "channel",
        "noteNumber": 63,
        "velocity": 63,
        "subtype": "noteOn"
      },
      {
        "deltaTime": 480,
        "channel": 3,
        "type": "channel",
        "noteNumber": 63,
        "velocity": 0,
        "subtype": "noteOff"
      },
      {
        "deltaTime": 0,
        "channel": 3,
        "type": "channel",
        "noteNumber": 67,
        "velocity": 0,
        "subtype": "noteOff"
      },
      {
        "deltaTime": 0,
        "channel": 3,
        "type": "channel",
        "noteNumber": 70,
        "velocity": 0,
        "subtype": "noteOff"
      },
      {
        "deltaTime": 1440,
        "channel": 3,
        "type": "channel",
        "noteNumber": 70,
        "velocity": 63,
        "subtype": "noteOn"
      },
      {
        "deltaTime": 0,
        "channel": 3,
        "type": "channel",
        "noteNumber": 65,
        "velocity": 63,
        "subtype": "noteOn"
      },
      {
        "deltaTime": 0,
        "channel": 3,
        "type": "channel",
        "noteNumber": 63,
        "velocity": 63,
        "subtype": "noteOn"
      },
      {
        "deltaTime": 480,
        "channel": 3,
        "type": "channel",
        "noteNumber": 63,
        "velocity": 0,
        "subtype": "noteOff"
      },
      {
        "deltaTime": 0,
        "channel": 3,
        "type": "channel",
        "noteNumber": 65,
        "velocity": 0,
        "subtype": "noteOff"
      },
      {
        "deltaTime": 0,
        "channel": 3,
        "type": "channel",
        "noteNumber": 70,
        "velocity": 0,
        "subtype": "noteOff"
      },
      {
        "deltaTime": 480,
        "channel": 3,
        "type": "channel",
        "noteNumber": 70,
        "velocity": 63,
        "subtype": "noteOn"
      },
      {
        "deltaTime": 0,
        "channel": 3,
        "type": "channel",
        "noteNumber": 65,
        "velocity": 63,
        "subtype": "noteOn"
      },
      {
        "deltaTime": 0,
        "channel": 3,
        "type": "channel",
        "noteNumber": 63,
        "velocity": 63,
        "subtype": "noteOn"
      },
      {
        "deltaTime": 480,
        "channel": 3,
        "type": "channel",
        "noteNumber": 63,
        "velocity": 0,
        "subtype": "noteOff"
      },
      {
        "deltaTime": 0,
        "channel": 3,
        "type": "channel",
        "noteNumber": 65,
        "velocity": 0,
        "subtype": "noteOff"
      },
      {
        "deltaTime": 0,
        "channel": 3,
        "type": "channel",
        "noteNumber": 70,
        "velocity": 0,
        "subtype": "noteOff"
      },
      {
        "deltaTime": 1440,
        "channel": 3,
        "type": "channel",
        "noteNumber": 70,
        "velocity": 63,
        "subtype": "noteOn"
      },
      {
        "deltaTime": 0,
        "channel": 3,
        "type": "channel",
        "noteNumber": 65,
        "velocity": 63,
        "subtype": "noteOn"
      },
      {
        "deltaTime": 0,
        "channel": 3,
        "type": "channel",
        "noteNumber": 63,
        "velocity": 63,
        "subtype": "noteOn"
      },
      {
        "deltaTime": 480,
        "channel": 3,
        "type": "channel",
        "noteNumber": 63,
        "velocity": 0,
        "subtype": "noteOff"
      },
      {
        "deltaTime": 0,
        "channel": 3,
        "type": "channel",
        "noteNumber": 65,
        "velocity": 0,
        "subtype": "noteOff"
      },
      {
        "deltaTime": 0,
        "channel": 3,
        "type": "channel",
        "noteNumber": 70,
        "velocity": 0,
        "subtype": "noteOff"
      },
      {
        "deltaTime": 480,
        "channel": 3,
        "type": "channel",
        "noteNumber": 70,
        "velocity": 63,
        "subtype": "noteOn"
      },
      {
        "deltaTime": 0,
        "channel": 3,
        "type": "channel",
        "noteNumber": 65,
        "velocity": 63,
        "subtype": "noteOn"
      },
      {
        "deltaTime": 0,
        "channel": 3,
        "type": "channel",
        "noteNumber": 63,
        "velocity": 63,
        "subtype": "noteOn"
      },
      {
        "deltaTime": 480,
        "channel": 3,
        "type": "channel",
        "noteNumber": 63,
        "velocity": 0,
        "subtype": "noteOff"
      },
      {
        "deltaTime": 0,
        "channel": 3,
        "type": "channel",
        "noteNumber": 65,
        "velocity": 0,
        "subtype": "noteOff"
      },
      {
        "deltaTime": 0,
        "channel": 3,
        "type": "channel",
        "noteNumber": 70,
        "velocity": 0,
        "subtype": "noteOff"
      },
      {
        "deltaTime": 1440,
        "channel": 3,
        "type": "channel",
        "noteNumber": 70,
        "velocity": 63,
        "subtype": "noteOn"
      },
      {
        "deltaTime": 0,
        "channel": 3,
        "type": "channel",
        "noteNumber": 65,
        "velocity": 63,
        "subtype": "noteOn"
      },
      {
        "deltaTime": 0,
        "channel": 3,
        "type": "channel",
        "noteNumber": 63,
        "velocity": 63,
        "subtype": "noteOn"
      },
      {
        "deltaTime": 480,
        "channel": 3,
        "type": "channel",
        "noteNumber": 63,
        "velocity": 0,
        "subtype": "noteOff"
      },
      {
        "deltaTime": 0,
        "channel": 3,
        "type": "channel",
        "noteNumber": 65,
        "velocity": 0,
        "subtype": "noteOff"
      },
      {
        "deltaTime": 0,
        "channel": 3,
        "type": "channel",
        "noteNumber": 70,
        "velocity": 0,
        "subtype": "noteOff"
      },
      {
        "deltaTime": 480,
        "channel": 3,
        "type": "channel",
        "noteNumber": 70,
        "velocity": 63,
        "subtype": "noteOn"
      },
      {
        "deltaTime": 0,
        "channel": 3,
        "type": "channel",
        "noteNumber": 65,
        "velocity": 63,
        "subtype": "noteOn"
      },
      {
        "deltaTime": 0,
        "channel": 3,
        "type": "channel",
        "noteNumber": 63,
        "velocity": 63,
        "subtype": "noteOn"
      },
      {
        "deltaTime": 480,
        "channel": 3,
        "type": "channel",
        "noteNumber": 63,
        "velocity": 0,
        "subtype": "noteOff"
      },
      {
        "deltaTime": 0,
        "channel": 3,
        "type": "channel",
        "noteNumber": 65,
        "velocity": 0,
        "subtype": "noteOff"
      },
      {
        "deltaTime": 0,
        "channel": 3,
        "type": "channel",
        "noteNumber": 70,
        "velocity": 0,
        "subtype": "noteOff"
      },
      {
        "deltaTime": 0,
        "type": "meta",
        "subtype": "endOfTrack"
      }
    ],
    [
      {
        "deltaTime": 0,
        "type": "meta",
        "subtype": "trackName",
        "text": "Guitar 4"
      },
      {
        "deltaTime": 0,
        "channel": 4,
        "type": "channel",
        "subtype": "controller",
        "controllerType": 7,
        "value": 127
      },
      {
        "deltaTime": 0,
        "channel": 4,
        "type": "channel",
        "subtype": "controller",
        "controllerType": 10,
        "value": 127
      },
      {
        "deltaTime": 0,
        "channel": 4,
        "type": "channel",
        "subtype": "controller",
        "controllerType": 91,
        "value": 0
      },
      {
        "deltaTime": 0,
        "channel": 4,
        "type": "channel",
        "subtype": "controller",
        "controllerType": 93,
        "value": 0
      },
      {
        "deltaTime": 0,
        "channel": 4,
        "type": "channel",
        "subtype": "controller",
        "controllerType": 101,
        "value": 0
      },
      {
        "deltaTime": 1,
        "channel": 4,
        "type": "channel",
        "subtype": "controller",
        "controllerType": 100,
        "value": 0
      },
      {
        "deltaTime": 1,
        "channel": 4,
        "type": "channel",
        "subtype": "controller",
        "controllerType": 6,
        "value": 12
      },
      {
        "deltaTime": 1,
        "channel": 4,
        "type": "channel",
        "subtype": "controller",
        "controllerType": 38,
        "value": 0
      },
      {
        "deltaTime": 0,
        "channel": 4,
        "type": "channel",
        "subtype": "pitchBend",
        "value": 8192
      },
      {
        "deltaTime": 0,
        "channel": 4,
        "type": "channel",
        "subtype": "controller",
        "controllerType": 101,
        "value": 0
      },
      {
        "deltaTime": 1,
        "channel": 4,
        "type": "channel",
        "subtype": "controller",
        "controllerType": 100,
        "value": 1
      },
      {
        "deltaTime": 1,
        "channel": 4,
        "type": "channel",
        "subtype": "controller",
        "controllerType": 6,
        "value": 64
      },
      {
        "deltaTime": 1,
        "channel": 4,
        "type": "channel",
        "subtype": "controller",
        "controllerType": 38,
        "value": 0
      },
      {
        "deltaTime": 0,
        "channel": 4,
        "type": "channel",
        "subtype": "controller",
        "controllerType": 101,
        "value": 0
      },
      {
        "deltaTime": 1,
        "channel": 4,
        "type": "channel",
        "subtype": "controller",
        "controllerType": 100,
        "value": 0
      },
      {
        "deltaTime": 1,
        "channel": 4,
        "type": "channel",
        "subtype": "controller",
        "controllerType": 6,
        "value": 12
      },
      {
        "deltaTime": 1,
        "channel": 4,
        "type": "channel",
        "subtype": "controller",
        "controllerType": 38,
        "value": 0
      },
      {
        "deltaTime": 0,
        "channel": 4,
        "type": "channel",
        "subtype": "pitchBend",
        "value": 8192
      },
      {
        "deltaTime": 0,
        "channel": 4,
        "type": "channel",
        "subtype": "controller",
        "controllerType": 101,
        "value": 0
      },
      {
        "deltaTime": 1,
        "channel": 4,
        "type": "channel",
        "subtype": "controller",
        "controllerType": 100,
        "value": 1
      },
      {
        "deltaTime": 1,
        "channel": 4,
        "type": "channel",
        "subtype": "controller",
        "controllerType": 6,
        "value": 64
      },
      {
        "deltaTime": 1,
        "channel": 4,
        "type": "channel",
        "subtype": "controller",
        "controllerType": 38,
        "value": 0
      },
      {
        "deltaTime": 0,
        "channel": 4,
        "type": "channel",
        "subtype": "controller",
        "controllerType": 101,
        "value": 0
      },
      {
        "deltaTime": 1,
        "channel": 4,
        "type": "channel",
        "subtype": "controller",
        "controllerType": 100,
        "value": 2
      },
      {
        "deltaTime": 1,
        "channel": 4,
        "type": "channel",
        "subtype": "controller",
        "controllerType": 6,
        "value": 64
      },
      {
        "deltaTime": 1,
        "channel": 4,
        "type": "channel",
        "subtype": "controller",
        "controllerType": 38,
        "value": 0
      },
      {
        "deltaTime": 0,
        "channel": 4,
        "type": "channel",
        "subtype": "controller",
        "controllerType": 101,
        "value": 0
      },
      {
        "deltaTime": 1,
        "channel": 4,
        "type": "channel",
        "subtype": "controller",
        "controllerType": 100,
        "value": 2
      },
      {
        "deltaTime": 1,
        "channel": 4,
        "type": "channel",
        "subtype": "controller",
        "controllerType": 6,
        "value": 64
      },
      {
        "deltaTime": 1,
        "channel": 4,
        "type": "channel",
        "subtype": "controller",
        "controllerType": 38,
        "value": 0
      },
      {
        "deltaTime": 0,
        "channel": 4,
        "type": "channel",
        "subtype": "programChange",
        "programNumber": 27
      },
      {
        "deltaTime": 0,
        "channel": 4,
        "type": "channel",
        "subtype": "programChange",
        "programNumber": 27
      },
      {
        "deltaTime": 0,
        "channel": 4,
        "type": "channel",
        "subtype": "controller",
        "controllerType": 0,
        "value": 0
      },
      {
        "deltaTime": 0,
        "channel": 4,
        "type": "channel",
        "subtype": "controller",
        "controllerType": 0,
        "value": 0
      },
      {
        "deltaTime": 0,
        "channel": 4,
        "type": "channel",
        "subtype": "controller",
        "controllerType": 7,
        "value": 127
      },
      {
        "deltaTime": 0,
        "channel": 4,
        "type": "channel",
        "subtype": "controller",
        "controllerType": 10,
        "value": 127
      },
      {
        "deltaTime": 0,
        "channel": 4,
        "type": "channel",
        "subtype": "controller",
        "controllerType": 93,
        "value": 0
      },
      {
        "deltaTime": 0,
        "channel": 4,
        "type": "channel",
        "subtype": "controller",
        "controllerType": 91,
        "value": 0
      },
      {
        "deltaTime": 0,
        "channel": 4,
        "type": "channel",
        "subtype": "controller",
        "controllerType": 92,
        "value": 0
      },
      {
        "deltaTime": 0,
        "channel": 4,
        "type": "channel",
        "subtype": "controller",
        "controllerType": 92,
        "value": 0
      },
      {
        "deltaTime": 0,
        "channel": 4,
        "type": "channel",
        "subtype": "controller",
        "controllerType": 95,
        "value": 0
      },
      {
        "deltaTime": 0,
        "channel": 4,
        "type": "channel",
        "subtype": "controller",
        "controllerType": 95,
        "value": 0
      },
      {
        "deltaTime": 26862,
        "channel": 4,
        "type": "channel",
        "noteNumber": 70,
        "velocity": 127,
        "subtype": "noteOn"
      },
      {
        "deltaTime": 0,
        "channel": 4,
        "type": "channel",
        "noteNumber": 67,
        "velocity": 127,
        "subtype": "noteOn"
      },
      {
        "deltaTime": 0,
        "channel": 4,
        "type": "channel",
        "noteNumber": 63,
        "velocity": 127,
        "subtype": "noteOn"
      },
      {
        "deltaTime": 480,
        "channel": 4,
        "type": "channel",
        "noteNumber": 63,
        "velocity": 0,
        "subtype": "noteOff"
      },
      {
        "deltaTime": 0,
        "channel": 4,
        "type": "channel",
        "noteNumber": 67,
        "velocity": 0,
        "subtype": "noteOff"
      },
      {
        "deltaTime": 0,
        "channel": 4,
        "type": "channel",
        "noteNumber": 70,
        "velocity": 0,
        "subtype": "noteOff"
      },
      {
        "deltaTime": 480,
        "channel": 4,
        "type": "channel",
        "noteNumber": 70,
        "velocity": 127,
        "subtype": "noteOn"
      },
      {
        "deltaTime": 0,
        "channel": 4,
        "type": "channel",
        "noteNumber": 67,
        "velocity": 127,
        "subtype": "noteOn"
      },
      {
        "deltaTime": 0,
        "channel": 4,
        "type": "channel",
        "noteNumber": 63,
        "velocity": 127,
        "subtype": "noteOn"
      },
      {
        "deltaTime": 480,
        "channel": 4,
        "type": "channel",
        "noteNumber": 63,
        "velocity": 0,
        "subtype": "noteOff"
      },
      {
        "deltaTime": 0,
        "channel": 4,
        "type": "channel",
        "noteNumber": 67,
        "velocity": 0,
        "subtype": "noteOff"
      },
      {
        "deltaTime": 0,
        "channel": 4,
        "type": "channel",
        "noteNumber": 70,
        "velocity": 0,
        "subtype": "noteOff"
      },
      {
        "deltaTime": 1440,
        "channel": 4,
        "type": "channel",
        "noteNumber": 70,
        "velocity": 127,
        "subtype": "noteOn"
      },
      {
        "deltaTime": 0,
        "channel": 4,
        "type": "channel",
        "noteNumber": 65,
        "velocity": 127,
        "subtype": "noteOn"
      },
      {
        "deltaTime": 0,
        "channel": 4,
        "type": "channel",
        "noteNumber": 63,
        "velocity": 127,
        "subtype": "noteOn"
      },
      {
        "deltaTime": 480,
        "channel": 4,
        "type": "channel",
        "noteNumber": 63,
        "velocity": 0,
        "subtype": "noteOff"
      },
      {
        "deltaTime": 0,
        "channel": 4,
        "type": "channel",
        "noteNumber": 65,
        "velocity": 0,
        "subtype": "noteOff"
      },
      {
        "deltaTime": 0,
        "channel": 4,
        "type": "channel",
        "noteNumber": 70,
        "velocity": 0,
        "subtype": "noteOff"
      },
      {
        "deltaTime": 480,
        "channel": 4,
        "type": "channel",
        "noteNumber": 70,
        "velocity": 127,
        "subtype": "noteOn"
      },
      {
        "deltaTime": 0,
        "channel": 4,
        "type": "channel",
        "noteNumber": 65,
        "velocity": 127,
        "subtype": "noteOn"
      },
      {
        "deltaTime": 0,
        "channel": 4,
        "type": "channel",
        "noteNumber": 63,
        "velocity": 127,
        "subtype": "noteOn"
      },
      {
        "deltaTime": 480,
        "channel": 4,
        "type": "channel",
        "noteNumber": 63,
        "velocity": 0,
        "subtype": "noteOff"
      },
      {
        "deltaTime": 0,
        "channel": 4,
        "type": "channel",
        "noteNumber": 65,
        "velocity": 0,
        "subtype": "noteOff"
      },
      {
        "deltaTime": 0,
        "channel": 4,
        "type": "channel",
        "noteNumber": 70,
        "velocity": 0,
        "subtype": "noteOff"
      },
      {
        "deltaTime": 1440,
        "channel": 4,
        "type": "channel",
        "noteNumber": 70,
        "velocity": 127,
        "subtype": "noteOn"
      },
      {
        "deltaTime": 0,
        "channel": 4,
        "type": "channel",
        "noteNumber": 65,
        "velocity": 127,
        "subtype": "noteOn"
      },
      {
        "deltaTime": 0,
        "channel": 4,
        "type": "channel",
        "noteNumber": 63,
        "velocity": 127,
        "subtype": "noteOn"
      },
      {
        "deltaTime": 480,
        "channel": 4,
        "type": "channel",
        "noteNumber": 63,
        "velocity": 0,
        "subtype": "noteOff"
      },
      {
        "deltaTime": 0,
        "channel": 4,
        "type": "channel",
        "noteNumber": 65,
        "velocity": 0,
        "subtype": "noteOff"
      },
      {
        "deltaTime": 0,
        "channel": 4,
        "type": "channel",
        "noteNumber": 70,
        "velocity": 0,
        "subtype": "noteOff"
      },
      {
        "deltaTime": 480,
        "channel": 4,
        "type": "channel",
        "noteNumber": 70,
        "velocity": 127,
        "subtype": "noteOn"
      },
      {
        "deltaTime": 0,
        "channel": 4,
        "type": "channel",
        "noteNumber": 65,
        "velocity": 127,
        "subtype": "noteOn"
      },
      {
        "deltaTime": 0,
        "channel": 4,
        "type": "channel",
        "noteNumber": 63,
        "velocity": 127,
        "subtype": "noteOn"
      },
      {
        "deltaTime": 480,
        "channel": 4,
        "type": "channel",
        "noteNumber": 63,
        "velocity": 0,
        "subtype": "noteOff"
      },
      {
        "deltaTime": 0,
        "channel": 4,
        "type": "channel",
        "noteNumber": 65,
        "velocity": 0,
        "subtype": "noteOff"
      },
      {
        "deltaTime": 0,
        "channel": 4,
        "type": "channel",
        "noteNumber": 70,
        "velocity": 0,
        "subtype": "noteOff"
      },
      {
        "deltaTime": 1440,
        "channel": 4,
        "type": "channel",
        "noteNumber": 70,
        "velocity": 127,
        "subtype": "noteOn"
      },
      {
        "deltaTime": 0,
        "channel": 4,
        "type": "channel",
        "noteNumber": 65,
        "velocity": 127,
        "subtype": "noteOn"
      },
      {
        "deltaTime": 0,
        "channel": 4,
        "type": "channel",
        "noteNumber": 63,
        "velocity": 127,
        "subtype": "noteOn"
      },
      {
        "deltaTime": 480,
        "channel": 4,
        "type": "channel",
        "noteNumber": 63,
        "velocity": 0,
        "subtype": "noteOff"
      },
      {
        "deltaTime": 0,
        "channel": 4,
        "type": "channel",
        "noteNumber": 65,
        "velocity": 0,
        "subtype": "noteOff"
      },
      {
        "deltaTime": 0,
        "channel": 4,
        "type": "channel",
        "noteNumber": 70,
        "velocity": 0,
        "subtype": "noteOff"
      },
      {
        "deltaTime": 480,
        "channel": 4,
        "type": "channel",
        "noteNumber": 70,
        "velocity": 127,
        "subtype": "noteOn"
      },
      {
        "deltaTime": 0,
        "channel": 4,
        "type": "channel",
        "noteNumber": 65,
        "velocity": 127,
        "subtype": "noteOn"
      },
      {
        "deltaTime": 0,
        "channel": 4,
        "type": "channel",
        "noteNumber": 63,
        "velocity": 127,
        "subtype": "noteOn"
      },
      {
        "deltaTime": 480,
        "channel": 4,
        "type": "channel",
        "noteNumber": 63,
        "velocity": 0,
        "subtype": "noteOff"
      },
      {
        "deltaTime": 0,
        "channel": 4,
        "type": "channel",
        "noteNumber": 65,
        "velocity": 0,
        "subtype": "noteOff"
      },
      {
        "deltaTime": 0,
        "channel": 4,
        "type": "channel",
        "noteNumber": 70,
        "velocity": 0,
        "subtype": "noteOff"
      },
      {
        "deltaTime": 1440,
        "channel": 4,
        "type": "channel",
        "noteNumber": 70,
        "velocity": 127,
        "subtype": "noteOn"
      },
      {
        "deltaTime": 0,
        "channel": 4,
        "type": "channel",
        "noteNumber": 67,
        "velocity": 127,
        "subtype": "noteOn"
      },
      {
        "deltaTime": 0,
        "channel": 4,
        "type": "channel",
        "noteNumber": 63,
        "velocity": 127,
        "subtype": "noteOn"
      },
      {
        "deltaTime": 480,
        "channel": 4,
        "type": "channel",
        "noteNumber": 63,
        "velocity": 0,
        "subtype": "noteOff"
      },
      {
        "deltaTime": 0,
        "channel": 4,
        "type": "channel",
        "noteNumber": 67,
        "velocity": 0,
        "subtype": "noteOff"
      },
      {
        "deltaTime": 0,
        "channel": 4,
        "type": "channel",
        "noteNumber": 70,
        "velocity": 0,
        "subtype": "noteOff"
      },
      {
        "deltaTime": 480,
        "channel": 4,
        "type": "channel",
        "noteNumber": 70,
        "velocity": 127,
        "subtype": "noteOn"
      },
      {
        "deltaTime": 0,
        "channel": 4,
        "type": "channel",
        "noteNumber": 67,
        "velocity": 127,
        "subtype": "noteOn"
      },
      {
        "deltaTime": 0,
        "channel": 4,
        "type": "channel",
        "noteNumber": 63,
        "velocity": 127,
        "subtype": "noteOn"
      },
      {
        "deltaTime": 480,
        "channel": 4,
        "type": "channel",
        "noteNumber": 63,
        "velocity": 0,
        "subtype": "noteOff"
      },
      {
        "deltaTime": 0,
        "channel": 4,
        "type": "channel",
        "noteNumber": 67,
        "velocity": 0,
        "subtype": "noteOff"
      },
      {
        "deltaTime": 0,
        "channel": 4,
        "type": "channel",
        "noteNumber": 70,
        "velocity": 0,
        "subtype": "noteOff"
      },
      {
        "deltaTime": 1440,
        "channel": 4,
        "type": "channel",
        "noteNumber": 70,
        "velocity": 127,
        "subtype": "noteOn"
      },
      {
        "deltaTime": 0,
        "channel": 4,
        "type": "channel",
        "noteNumber": 65,
        "velocity": 127,
        "subtype": "noteOn"
      },
      {
        "deltaTime": 0,
        "channel": 4,
        "type": "channel",
        "noteNumber": 63,
        "velocity": 127,
        "subtype": "noteOn"
      },
      {
        "deltaTime": 480,
        "channel": 4,
        "type": "channel",
        "noteNumber": 63,
        "velocity": 0,
        "subtype": "noteOff"
      },
      {
        "deltaTime": 0,
        "channel": 4,
        "type": "channel",
        "noteNumber": 65,
        "velocity": 0,
        "subtype": "noteOff"
      },
      {
        "deltaTime": 0,
        "channel": 4,
        "type": "channel",
        "noteNumber": 70,
        "velocity": 0,
        "subtype": "noteOff"
      },
      {
        "deltaTime": 480,
        "channel": 4,
        "type": "channel",
        "noteNumber": 70,
        "velocity": 127,
        "subtype": "noteOn"
      },
      {
        "deltaTime": 0,
        "channel": 4,
        "type": "channel",
        "noteNumber": 65,
        "velocity": 127,
        "subtype": "noteOn"
      },
      {
        "deltaTime": 0,
        "channel": 4,
        "type": "channel",
        "noteNumber": 63,
        "velocity": 127,
        "subtype": "noteOn"
      },
      {
        "deltaTime": 480,
        "channel": 4,
        "type": "channel",
        "noteNumber": 63,
        "velocity": 0,
        "subtype": "noteOff"
      },
      {
        "deltaTime": 0,
        "channel": 4,
        "type": "channel",
        "noteNumber": 65,
        "velocity": 0,
        "subtype": "noteOff"
      },
      {
        "deltaTime": 0,
        "channel": 4,
        "type": "channel",
        "noteNumber": 70,
        "velocity": 0,
        "subtype": "noteOff"
      },
      {
        "deltaTime": 1440,
        "channel": 4,
        "type": "channel",
        "noteNumber": 70,
        "velocity": 127,
        "subtype": "noteOn"
      },
      {
        "deltaTime": 0,
        "channel": 4,
        "type": "channel",
        "noteNumber": 65,
        "velocity": 127,
        "subtype": "noteOn"
      },
      {
        "deltaTime": 0,
        "channel": 4,
        "type": "channel",
        "noteNumber": 63,
        "velocity": 127,
        "subtype": "noteOn"
      },
      {
        "deltaTime": 480,
        "channel": 4,
        "type": "channel",
        "noteNumber": 63,
        "velocity": 0,
        "subtype": "noteOff"
      },
      {
        "deltaTime": 0,
        "channel": 4,
        "type": "channel",
        "noteNumber": 65,
        "velocity": 0,
        "subtype": "noteOff"
      },
      {
        "deltaTime": 0,
        "channel": 4,
        "type": "channel",
        "noteNumber": 70,
        "velocity": 0,
        "subtype": "noteOff"
      },
      {
        "deltaTime": 480,
        "channel": 4,
        "type": "channel",
        "noteNumber": 70,
        "velocity": 127,
        "subtype": "noteOn"
      },
      {
        "deltaTime": 0,
        "channel": 4,
        "type": "channel",
        "noteNumber": 65,
        "velocity": 127,
        "subtype": "noteOn"
      },
      {
        "deltaTime": 0,
        "channel": 4,
        "type": "channel",
        "noteNumber": 63,
        "velocity": 127,
        "subtype": "noteOn"
      },
      {
        "deltaTime": 480,
        "channel": 4,
        "type": "channel",
        "noteNumber": 63,
        "velocity": 0,
        "subtype": "noteOff"
      },
      {
        "deltaTime": 0,
        "channel": 4,
        "type": "channel",
        "noteNumber": 65,
        "velocity": 0,
        "subtype": "noteOff"
      },
      {
        "deltaTime": 0,
        "channel": 4,
        "type": "channel",
        "noteNumber": 70,
        "velocity": 0,
        "subtype": "noteOff"
      },
      {
        "deltaTime": 1440,
        "channel": 4,
        "type": "channel",
        "noteNumber": 70,
        "velocity": 127,
        "subtype": "noteOn"
      },
      {
        "deltaTime": 0,
        "channel": 4,
        "type": "channel",
        "noteNumber": 65,
        "velocity": 127,
        "subtype": "noteOn"
      },
      {
        "deltaTime": 0,
        "channel": 4,
        "type": "channel",
        "noteNumber": 63,
        "velocity": 127,
        "subtype": "noteOn"
      },
      {
        "deltaTime": 480,
        "channel": 4,
        "type": "channel",
        "noteNumber": 63,
        "velocity": 0,
        "subtype": "noteOff"
      },
      {
        "deltaTime": 0,
        "channel": 4,
        "type": "channel",
        "noteNumber": 65,
        "velocity": 0,
        "subtype": "noteOff"
      },
      {
        "deltaTime": 0,
        "channel": 4,
        "type": "channel",
        "noteNumber": 70,
        "velocity": 0,
        "subtype": "noteOff"
      },
      {
        "deltaTime": 480,
        "channel": 4,
        "type": "channel",
        "noteNumber": 70,
        "velocity": 127,
        "subtype": "noteOn"
      },
      {
        "deltaTime": 0,
        "channel": 4,
        "type": "channel",
        "noteNumber": 65,
        "velocity": 127,
        "subtype": "noteOn"
      },
      {
        "deltaTime": 0,
        "channel": 4,
        "type": "channel",
        "noteNumber": 63,
        "velocity": 127,
        "subtype": "noteOn"
      },
      {
        "deltaTime": 480,
        "channel": 4,
        "type": "channel",
        "noteNumber": 63,
        "velocity": 0,
        "subtype": "noteOff"
      },
      {
        "deltaTime": 0,
        "channel": 4,
        "type": "channel",
        "noteNumber": 65,
        "velocity": 0,
        "subtype": "noteOff"
      },
      {
        "deltaTime": 0,
        "channel": 4,
        "type": "channel",
        "noteNumber": 70,
        "velocity": 0,
        "subtype": "noteOff"
      },
      {
        "deltaTime": 12960,
        "channel": 4,
        "type": "channel",
        "noteNumber": 70,
        "velocity": 127,
        "subtype": "noteOn"
      },
      {
        "deltaTime": 0,
        "channel": 4,
        "type": "channel",
        "noteNumber": 67,
        "velocity": 127,
        "subtype": "noteOn"
      },
      {
        "deltaTime": 0,
        "channel": 4,
        "type": "channel",
        "noteNumber": 63,
        "velocity": 127,
        "subtype": "noteOn"
      },
      {
        "deltaTime": 480,
        "channel": 4,
        "type": "channel",
        "noteNumber": 63,
        "velocity": 0,
        "subtype": "noteOff"
      },
      {
        "deltaTime": 0,
        "channel": 4,
        "type": "channel",
        "noteNumber": 67,
        "velocity": 0,
        "subtype": "noteOff"
      },
      {
        "deltaTime": 0,
        "channel": 4,
        "type": "channel",
        "noteNumber": 70,
        "velocity": 0,
        "subtype": "noteOff"
      },
      {
        "deltaTime": 480,
        "channel": 4,
        "type": "channel",
        "noteNumber": 70,
        "velocity": 127,
        "subtype": "noteOn"
      },
      {
        "deltaTime": 0,
        "channel": 4,
        "type": "channel",
        "noteNumber": 67,
        "velocity": 127,
        "subtype": "noteOn"
      },
      {
        "deltaTime": 0,
        "channel": 4,
        "type": "channel",
        "noteNumber": 63,
        "velocity": 127,
        "subtype": "noteOn"
      },
      {
        "deltaTime": 480,
        "channel": 4,
        "type": "channel",
        "noteNumber": 63,
        "velocity": 0,
        "subtype": "noteOff"
      },
      {
        "deltaTime": 0,
        "channel": 4,
        "type": "channel",
        "noteNumber": 67,
        "velocity": 0,
        "subtype": "noteOff"
      },
      {
        "deltaTime": 0,
        "channel": 4,
        "type": "channel",
        "noteNumber": 70,
        "velocity": 0,
        "subtype": "noteOff"
      },
      {
        "deltaTime": 1440,
        "channel": 4,
        "type": "channel",
        "noteNumber": 70,
        "velocity": 127,
        "subtype": "noteOn"
      },
      {
        "deltaTime": 0,
        "channel": 4,
        "type": "channel",
        "noteNumber": 65,
        "velocity": 127,
        "subtype": "noteOn"
      },
      {
        "deltaTime": 0,
        "channel": 4,
        "type": "channel",
        "noteNumber": 63,
        "velocity": 127,
        "subtype": "noteOn"
      },
      {
        "deltaTime": 480,
        "channel": 4,
        "type": "channel",
        "noteNumber": 63,
        "velocity": 0,
        "subtype": "noteOff"
      },
      {
        "deltaTime": 0,
        "channel": 4,
        "type": "channel",
        "noteNumber": 65,
        "velocity": 0,
        "subtype": "noteOff"
      },
      {
        "deltaTime": 0,
        "channel": 4,
        "type": "channel",
        "noteNumber": 70,
        "velocity": 0,
        "subtype": "noteOff"
      },
      {
        "deltaTime": 480,
        "channel": 4,
        "type": "channel",
        "noteNumber": 70,
        "velocity": 127,
        "subtype": "noteOn"
      },
      {
        "deltaTime": 0,
        "channel": 4,
        "type": "channel",
        "noteNumber": 65,
        "velocity": 127,
        "subtype": "noteOn"
      },
      {
        "deltaTime": 0,
        "channel": 4,
        "type": "channel",
        "noteNumber": 63,
        "velocity": 127,
        "subtype": "noteOn"
      },
      {
        "deltaTime": 480,
        "channel": 4,
        "type": "channel",
        "noteNumber": 63,
        "velocity": 0,
        "subtype": "noteOff"
      },
      {
        "deltaTime": 0,
        "channel": 4,
        "type": "channel",
        "noteNumber": 65,
        "velocity": 0,
        "subtype": "noteOff"
      },
      {
        "deltaTime": 0,
        "channel": 4,
        "type": "channel",
        "noteNumber": 70,
        "velocity": 0,
        "subtype": "noteOff"
      },
      {
        "deltaTime": 1440,
        "channel": 4,
        "type": "channel",
        "noteNumber": 70,
        "velocity": 127,
        "subtype": "noteOn"
      },
      {
        "deltaTime": 0,
        "channel": 4,
        "type": "channel",
        "noteNumber": 65,
        "velocity": 127,
        "subtype": "noteOn"
      },
      {
        "deltaTime": 0,
        "channel": 4,
        "type": "channel",
        "noteNumber": 63,
        "velocity": 127,
        "subtype": "noteOn"
      },
      {
        "deltaTime": 480,
        "channel": 4,
        "type": "channel",
        "noteNumber": 63,
        "velocity": 0,
        "subtype": "noteOff"
      },
      {
        "deltaTime": 0,
        "channel": 4,
        "type": "channel",
        "noteNumber": 65,
        "velocity": 0,
        "subtype": "noteOff"
      },
      {
        "deltaTime": 0,
        "channel": 4,
        "type": "channel",
        "noteNumber": 70,
        "velocity": 0,
        "subtype": "noteOff"
      },
      {
        "deltaTime": 480,
        "channel": 4,
        "type": "channel",
        "noteNumber": 70,
        "velocity": 127,
        "subtype": "noteOn"
      },
      {
        "deltaTime": 0,
        "channel": 4,
        "type": "channel",
        "noteNumber": 65,
        "velocity": 127,
        "subtype": "noteOn"
      },
      {
        "deltaTime": 0,
        "channel": 4,
        "type": "channel",
        "noteNumber": 63,
        "velocity": 127,
        "subtype": "noteOn"
      },
      {
        "deltaTime": 480,
        "channel": 4,
        "type": "channel",
        "noteNumber": 63,
        "velocity": 0,
        "subtype": "noteOff"
      },
      {
        "deltaTime": 0,
        "channel": 4,
        "type": "channel",
        "noteNumber": 65,
        "velocity": 0,
        "subtype": "noteOff"
      },
      {
        "deltaTime": 0,
        "channel": 4,
        "type": "channel",
        "noteNumber": 70,
        "velocity": 0,
        "subtype": "noteOff"
      },
      {
        "deltaTime": 1440,
        "channel": 4,
        "type": "channel",
        "noteNumber": 70,
        "velocity": 127,
        "subtype": "noteOn"
      },
      {
        "deltaTime": 0,
        "channel": 4,
        "type": "channel",
        "noteNumber": 65,
        "velocity": 127,
        "subtype": "noteOn"
      },
      {
        "deltaTime": 0,
        "channel": 4,
        "type": "channel",
        "noteNumber": 63,
        "velocity": 127,
        "subtype": "noteOn"
      },
      {
        "deltaTime": 480,
        "channel": 4,
        "type": "channel",
        "noteNumber": 63,
        "velocity": 0,
        "subtype": "noteOff"
      },
      {
        "deltaTime": 0,
        "channel": 4,
        "type": "channel",
        "noteNumber": 65,
        "velocity": 0,
        "subtype": "noteOff"
      },
      {
        "deltaTime": 0,
        "channel": 4,
        "type": "channel",
        "noteNumber": 70,
        "velocity": 0,
        "subtype": "noteOff"
      },
      {
        "deltaTime": 480,
        "channel": 4,
        "type": "channel",
        "noteNumber": 70,
        "velocity": 127,
        "subtype": "noteOn"
      },
      {
        "deltaTime": 0,
        "channel": 4,
        "type": "channel",
        "noteNumber": 65,
        "velocity": 127,
        "subtype": "noteOn"
      },
      {
        "deltaTime": 0,
        "channel": 4,
        "type": "channel",
        "noteNumber": 63,
        "velocity": 127,
        "subtype": "noteOn"
      },
      {
        "deltaTime": 480,
        "channel": 4,
        "type": "channel",
        "noteNumber": 63,
        "velocity": 0,
        "subtype": "noteOff"
      },
      {
        "deltaTime": 0,
        "channel": 4,
        "type": "channel",
        "noteNumber": 65,
        "velocity": 0,
        "subtype": "noteOff"
      },
      {
        "deltaTime": 0,
        "channel": 4,
        "type": "channel",
        "noteNumber": 70,
        "velocity": 0,
        "subtype": "noteOff"
      },
      {
        "deltaTime": 1440,
        "channel": 4,
        "type": "channel",
        "noteNumber": 70,
        "velocity": 127,
        "subtype": "noteOn"
      },
      {
        "deltaTime": 0,
        "channel": 4,
        "type": "channel",
        "noteNumber": 67,
        "velocity": 127,
        "subtype": "noteOn"
      },
      {
        "deltaTime": 0,
        "channel": 4,
        "type": "channel",
        "noteNumber": 63,
        "velocity": 127,
        "subtype": "noteOn"
      },
      {
        "deltaTime": 480,
        "channel": 4,
        "type": "channel",
        "noteNumber": 63,
        "velocity": 0,
        "subtype": "noteOff"
      },
      {
        "deltaTime": 0,
        "channel": 4,
        "type": "channel",
        "noteNumber": 67,
        "velocity": 0,
        "subtype": "noteOff"
      },
      {
        "deltaTime": 0,
        "channel": 4,
        "type": "channel",
        "noteNumber": 70,
        "velocity": 0,
        "subtype": "noteOff"
      },
      {
        "deltaTime": 480,
        "channel": 4,
        "type": "channel",
        "noteNumber": 70,
        "velocity": 127,
        "subtype": "noteOn"
      },
      {
        "deltaTime": 0,
        "channel": 4,
        "type": "channel",
        "noteNumber": 67,
        "velocity": 127,
        "subtype": "noteOn"
      },
      {
        "deltaTime": 0,
        "channel": 4,
        "type": "channel",
        "noteNumber": 63,
        "velocity": 127,
        "subtype": "noteOn"
      },
      {
        "deltaTime": 480,
        "channel": 4,
        "type": "channel",
        "noteNumber": 63,
        "velocity": 0,
        "subtype": "noteOff"
      },
      {
        "deltaTime": 0,
        "channel": 4,
        "type": "channel",
        "noteNumber": 67,
        "velocity": 0,
        "subtype": "noteOff"
      },
      {
        "deltaTime": 0,
        "channel": 4,
        "type": "channel",
        "noteNumber": 70,
        "velocity": 0,
        "subtype": "noteOff"
      },
      {
        "deltaTime": 1440,
        "channel": 4,
        "type": "channel",
        "noteNumber": 70,
        "velocity": 127,
        "subtype": "noteOn"
      },
      {
        "deltaTime": 0,
        "channel": 4,
        "type": "channel",
        "noteNumber": 65,
        "velocity": 127,
        "subtype": "noteOn"
      },
      {
        "deltaTime": 0,
        "channel": 4,
        "type": "channel",
        "noteNumber": 63,
        "velocity": 127,
        "subtype": "noteOn"
      },
      {
        "deltaTime": 480,
        "channel": 4,
        "type": "channel",
        "noteNumber": 63,
        "velocity": 0,
        "subtype": "noteOff"
      },
      {
        "deltaTime": 0,
        "channel": 4,
        "type": "channel",
        "noteNumber": 65,
        "velocity": 0,
        "subtype": "noteOff"
      },
      {
        "deltaTime": 0,
        "channel": 4,
        "type": "channel",
        "noteNumber": 70,
        "velocity": 0,
        "subtype": "noteOff"
      },
      {
        "deltaTime": 480,
        "channel": 4,
        "type": "channel",
        "noteNumber": 70,
        "velocity": 127,
        "subtype": "noteOn"
      },
      {
        "deltaTime": 0,
        "channel": 4,
        "type": "channel",
        "noteNumber": 65,
        "velocity": 127,
        "subtype": "noteOn"
      },
      {
        "deltaTime": 0,
        "channel": 4,
        "type": "channel",
        "noteNumber": 63,
        "velocity": 127,
        "subtype": "noteOn"
      },
      {
        "deltaTime": 480,
        "channel": 4,
        "type": "channel",
        "noteNumber": 63,
        "velocity": 0,
        "subtype": "noteOff"
      },
      {
        "deltaTime": 0,
        "channel": 4,
        "type": "channel",
        "noteNumber": 65,
        "velocity": 0,
        "subtype": "noteOff"
      },
      {
        "deltaTime": 0,
        "channel": 4,
        "type": "channel",
        "noteNumber": 70,
        "velocity": 0,
        "subtype": "noteOff"
      },
      {
        "deltaTime": 1440,
        "channel": 4,
        "type": "channel",
        "noteNumber": 70,
        "velocity": 127,
        "subtype": "noteOn"
      },
      {
        "deltaTime": 0,
        "channel": 4,
        "type": "channel",
        "noteNumber": 65,
        "velocity": 127,
        "subtype": "noteOn"
      },
      {
        "deltaTime": 0,
        "channel": 4,
        "type": "channel",
        "noteNumber": 63,
        "velocity": 127,
        "subtype": "noteOn"
      },
      {
        "deltaTime": 480,
        "channel": 4,
        "type": "channel",
        "noteNumber": 63,
        "velocity": 0,
        "subtype": "noteOff"
      },
      {
        "deltaTime": 0,
        "channel": 4,
        "type": "channel",
        "noteNumber": 65,
        "velocity": 0,
        "subtype": "noteOff"
      },
      {
        "deltaTime": 0,
        "channel": 4,
        "type": "channel",
        "noteNumber": 70,
        "velocity": 0,
        "subtype": "noteOff"
      },
      {
        "deltaTime": 480,
        "channel": 4,
        "type": "channel",
        "noteNumber": 70,
        "velocity": 127,
        "subtype": "noteOn"
      },
      {
        "deltaTime": 0,
        "channel": 4,
        "type": "channel",
        "noteNumber": 65,
        "velocity": 127,
        "subtype": "noteOn"
      },
      {
        "deltaTime": 0,
        "channel": 4,
        "type": "channel",
        "noteNumber": 63,
        "velocity": 127,
        "subtype": "noteOn"
      },
      {
        "deltaTime": 480,
        "channel": 4,
        "type": "channel",
        "noteNumber": 63,
        "velocity": 0,
        "subtype": "noteOff"
      },
      {
        "deltaTime": 0,
        "channel": 4,
        "type": "channel",
        "noteNumber": 65,
        "velocity": 0,
        "subtype": "noteOff"
      },
      {
        "deltaTime": 0,
        "channel": 4,
        "type": "channel",
        "noteNumber": 70,
        "velocity": 0,
        "subtype": "noteOff"
      },
      {
        "deltaTime": 1440,
        "channel": 4,
        "type": "channel",
        "noteNumber": 70,
        "velocity": 127,
        "subtype": "noteOn"
      },
      {
        "deltaTime": 0,
        "channel": 4,
        "type": "channel",
        "noteNumber": 65,
        "velocity": 127,
        "subtype": "noteOn"
      },
      {
        "deltaTime": 0,
        "channel": 4,
        "type": "channel",
        "noteNumber": 63,
        "velocity": 127,
        "subtype": "noteOn"
      },
      {
        "deltaTime": 480,
        "channel": 4,
        "type": "channel",
        "noteNumber": 63,
        "velocity": 0,
        "subtype": "noteOff"
      },
      {
        "deltaTime": 0,
        "channel": 4,
        "type": "channel",
        "noteNumber": 65,
        "velocity": 0,
        "subtype": "noteOff"
      },
      {
        "deltaTime": 0,
        "channel": 4,
        "type": "channel",
        "noteNumber": 70,
        "velocity": 0,
        "subtype": "noteOff"
      },
      {
        "deltaTime": 480,
        "channel": 4,
        "type": "channel",
        "noteNumber": 70,
        "velocity": 127,
        "subtype": "noteOn"
      },
      {
        "deltaTime": 0,
        "channel": 4,
        "type": "channel",
        "noteNumber": 65,
        "velocity": 127,
        "subtype": "noteOn"
      },
      {
        "deltaTime": 0,
        "channel": 4,
        "type": "channel",
        "noteNumber": 63,
        "velocity": 127,
        "subtype": "noteOn"
      },
      {
        "deltaTime": 480,
        "channel": 4,
        "type": "channel",
        "noteNumber": 63,
        "velocity": 0,
        "subtype": "noteOff"
      },
      {
        "deltaTime": 0,
        "channel": 4,
        "type": "channel",
        "noteNumber": 65,
        "velocity": 0,
        "subtype": "noteOff"
      },
      {
        "deltaTime": 0,
        "channel": 4,
        "type": "channel",
        "noteNumber": 70,
        "velocity": 0,
        "subtype": "noteOff"
      },
      {
        "deltaTime": 93600,
        "channel": 4,
        "type": "channel",
        "noteNumber": 70,
        "velocity": 127,
        "subtype": "noteOn"
      },
      {
        "deltaTime": 0,
        "channel": 4,
        "type": "channel",
        "noteNumber": 67,
        "velocity": 127,
        "subtype": "noteOn"
      },
      {
        "deltaTime": 0,
        "channel": 4,
        "type": "channel",
        "noteNumber": 63,
        "velocity": 127,
        "subtype": "noteOn"
      },
      {
        "deltaTime": 480,
        "channel": 4,
        "type": "channel",
        "noteNumber": 63,
        "velocity": 0,
        "subtype": "noteOff"
      },
      {
        "deltaTime": 0,
        "channel": 4,
        "type": "channel",
        "noteNumber": 67,
        "velocity": 0,
        "subtype": "noteOff"
      },
      {
        "deltaTime": 0,
        "channel": 4,
        "type": "channel",
        "noteNumber": 70,
        "velocity": 0,
        "subtype": "noteOff"
      },
      {
        "deltaTime": 480,
        "channel": 4,
        "type": "channel",
        "noteNumber": 70,
        "velocity": 127,
        "subtype": "noteOn"
      },
      {
        "deltaTime": 0,
        "channel": 4,
        "type": "channel",
        "noteNumber": 67,
        "velocity": 127,
        "subtype": "noteOn"
      },
      {
        "deltaTime": 0,
        "channel": 4,
        "type": "channel",
        "noteNumber": 63,
        "velocity": 127,
        "subtype": "noteOn"
      },
      {
        "deltaTime": 480,
        "channel": 4,
        "type": "channel",
        "noteNumber": 63,
        "velocity": 0,
        "subtype": "noteOff"
      },
      {
        "deltaTime": 0,
        "channel": 4,
        "type": "channel",
        "noteNumber": 67,
        "velocity": 0,
        "subtype": "noteOff"
      },
      {
        "deltaTime": 0,
        "channel": 4,
        "type": "channel",
        "noteNumber": 70,
        "velocity": 0,
        "subtype": "noteOff"
      },
      {
        "deltaTime": 1440,
        "channel": 4,
        "type": "channel",
        "noteNumber": 70,
        "velocity": 127,
        "subtype": "noteOn"
      },
      {
        "deltaTime": 0,
        "channel": 4,
        "type": "channel",
        "noteNumber": 65,
        "velocity": 127,
        "subtype": "noteOn"
      },
      {
        "deltaTime": 0,
        "channel": 4,
        "type": "channel",
        "noteNumber": 63,
        "velocity": 127,
        "subtype": "noteOn"
      },
      {
        "deltaTime": 480,
        "channel": 4,
        "type": "channel",
        "noteNumber": 63,
        "velocity": 0,
        "subtype": "noteOff"
      },
      {
        "deltaTime": 0,
        "channel": 4,
        "type": "channel",
        "noteNumber": 65,
        "velocity": 0,
        "subtype": "noteOff"
      },
      {
        "deltaTime": 0,
        "channel": 4,
        "type": "channel",
        "noteNumber": 70,
        "velocity": 0,
        "subtype": "noteOff"
      },
      {
        "deltaTime": 480,
        "channel": 4,
        "type": "channel",
        "noteNumber": 70,
        "velocity": 127,
        "subtype": "noteOn"
      },
      {
        "deltaTime": 0,
        "channel": 4,
        "type": "channel",
        "noteNumber": 65,
        "velocity": 127,
        "subtype": "noteOn"
      },
      {
        "deltaTime": 0,
        "channel": 4,
        "type": "channel",
        "noteNumber": 63,
        "velocity": 127,
        "subtype": "noteOn"
      },
      {
        "deltaTime": 480,
        "channel": 4,
        "type": "channel",
        "noteNumber": 63,
        "velocity": 0,
        "subtype": "noteOff"
      },
      {
        "deltaTime": 0,
        "channel": 4,
        "type": "channel",
        "noteNumber": 65,
        "velocity": 0,
        "subtype": "noteOff"
      },
      {
        "deltaTime": 0,
        "channel": 4,
        "type": "channel",
        "noteNumber": 70,
        "velocity": 0,
        "subtype": "noteOff"
      },
      {
        "deltaTime": 1440,
        "channel": 4,
        "type": "channel",
        "noteNumber": 70,
        "velocity": 127,
        "subtype": "noteOn"
      },
      {
        "deltaTime": 0,
        "channel": 4,
        "type": "channel",
        "noteNumber": 65,
        "velocity": 127,
        "subtype": "noteOn"
      },
      {
        "deltaTime": 0,
        "channel": 4,
        "type": "channel",
        "noteNumber": 63,
        "velocity": 127,
        "subtype": "noteOn"
      },
      {
        "deltaTime": 480,
        "channel": 4,
        "type": "channel",
        "noteNumber": 63,
        "velocity": 0,
        "subtype": "noteOff"
      },
      {
        "deltaTime": 0,
        "channel": 4,
        "type": "channel",
        "noteNumber": 65,
        "velocity": 0,
        "subtype": "noteOff"
      },
      {
        "deltaTime": 0,
        "channel": 4,
        "type": "channel",
        "noteNumber": 70,
        "velocity": 0,
        "subtype": "noteOff"
      },
      {
        "deltaTime": 480,
        "channel": 4,
        "type": "channel",
        "noteNumber": 70,
        "velocity": 127,
        "subtype": "noteOn"
      },
      {
        "deltaTime": 0,
        "channel": 4,
        "type": "channel",
        "noteNumber": 65,
        "velocity": 127,
        "subtype": "noteOn"
      },
      {
        "deltaTime": 0,
        "channel": 4,
        "type": "channel",
        "noteNumber": 63,
        "velocity": 127,
        "subtype": "noteOn"
      },
      {
        "deltaTime": 480,
        "channel": 4,
        "type": "channel",
        "noteNumber": 63,
        "velocity": 0,
        "subtype": "noteOff"
      },
      {
        "deltaTime": 0,
        "channel": 4,
        "type": "channel",
        "noteNumber": 65,
        "velocity": 0,
        "subtype": "noteOff"
      },
      {
        "deltaTime": 0,
        "channel": 4,
        "type": "channel",
        "noteNumber": 70,
        "velocity": 0,
        "subtype": "noteOff"
      },
      {
        "deltaTime": 1440,
        "channel": 4,
        "type": "channel",
        "noteNumber": 70,
        "velocity": 127,
        "subtype": "noteOn"
      },
      {
        "deltaTime": 0,
        "channel": 4,
        "type": "channel",
        "noteNumber": 65,
        "velocity": 127,
        "subtype": "noteOn"
      },
      {
        "deltaTime": 0,
        "channel": 4,
        "type": "channel",
        "noteNumber": 63,
        "velocity": 127,
        "subtype": "noteOn"
      },
      {
        "deltaTime": 480,
        "channel": 4,
        "type": "channel",
        "noteNumber": 63,
        "velocity": 0,
        "subtype": "noteOff"
      },
      {
        "deltaTime": 0,
        "channel": 4,
        "type": "channel",
        "noteNumber": 65,
        "velocity": 0,
        "subtype": "noteOff"
      },
      {
        "deltaTime": 0,
        "channel": 4,
        "type": "channel",
        "noteNumber": 70,
        "velocity": 0,
        "subtype": "noteOff"
      },
      {
        "deltaTime": 480,
        "channel": 4,
        "type": "channel",
        "noteNumber": 70,
        "velocity": 127,
        "subtype": "noteOn"
      },
      {
        "deltaTime": 0,
        "channel": 4,
        "type": "channel",
        "noteNumber": 65,
        "velocity": 127,
        "subtype": "noteOn"
      },
      {
        "deltaTime": 0,
        "channel": 4,
        "type": "channel",
        "noteNumber": 63,
        "velocity": 127,
        "subtype": "noteOn"
      },
      {
        "deltaTime": 480,
        "channel": 4,
        "type": "channel",
        "noteNumber": 63,
        "velocity": 0,
        "subtype": "noteOff"
      },
      {
        "deltaTime": 0,
        "channel": 4,
        "type": "channel",
        "noteNumber": 65,
        "velocity": 0,
        "subtype": "noteOff"
      },
      {
        "deltaTime": 0,
        "channel": 4,
        "type": "channel",
        "noteNumber": 70,
        "velocity": 0,
        "subtype": "noteOff"
      },
      {
        "deltaTime": 1440,
        "channel": 4,
        "type": "channel",
        "noteNumber": 70,
        "velocity": 127,
        "subtype": "noteOn"
      },
      {
        "deltaTime": 0,
        "channel": 4,
        "type": "channel",
        "noteNumber": 67,
        "velocity": 127,
        "subtype": "noteOn"
      },
      {
        "deltaTime": 0,
        "channel": 4,
        "type": "channel",
        "noteNumber": 63,
        "velocity": 127,
        "subtype": "noteOn"
      },
      {
        "deltaTime": 480,
        "channel": 4,
        "type": "channel",
        "noteNumber": 63,
        "velocity": 0,
        "subtype": "noteOff"
      },
      {
        "deltaTime": 0,
        "channel": 4,
        "type": "channel",
        "noteNumber": 67,
        "velocity": 0,
        "subtype": "noteOff"
      },
      {
        "deltaTime": 0,
        "channel": 4,
        "type": "channel",
        "noteNumber": 70,
        "velocity": 0,
        "subtype": "noteOff"
      },
      {
        "deltaTime": 480,
        "channel": 4,
        "type": "channel",
        "noteNumber": 70,
        "velocity": 127,
        "subtype": "noteOn"
      },
      {
        "deltaTime": 0,
        "channel": 4,
        "type": "channel",
        "noteNumber": 67,
        "velocity": 127,
        "subtype": "noteOn"
      },
      {
        "deltaTime": 0,
        "channel": 4,
        "type": "channel",
        "noteNumber": 63,
        "velocity": 127,
        "subtype": "noteOn"
      },
      {
        "deltaTime": 480,
        "channel": 4,
        "type": "channel",
        "noteNumber": 63,
        "velocity": 0,
        "subtype": "noteOff"
      },
      {
        "deltaTime": 0,
        "channel": 4,
        "type": "channel",
        "noteNumber": 67,
        "velocity": 0,
        "subtype": "noteOff"
      },
      {
        "deltaTime": 0,
        "channel": 4,
        "type": "channel",
        "noteNumber": 70,
        "velocity": 0,
        "subtype": "noteOff"
      },
      {
        "deltaTime": 1440,
        "channel": 4,
        "type": "channel",
        "noteNumber": 70,
        "velocity": 127,
        "subtype": "noteOn"
      },
      {
        "deltaTime": 0,
        "channel": 4,
        "type": "channel",
        "noteNumber": 65,
        "velocity": 127,
        "subtype": "noteOn"
      },
      {
        "deltaTime": 0,
        "channel": 4,
        "type": "channel",
        "noteNumber": 63,
        "velocity": 127,
        "subtype": "noteOn"
      },
      {
        "deltaTime": 480,
        "channel": 4,
        "type": "channel",
        "noteNumber": 63,
        "velocity": 0,
        "subtype": "noteOff"
      },
      {
        "deltaTime": 0,
        "channel": 4,
        "type": "channel",
        "noteNumber": 65,
        "velocity": 0,
        "subtype": "noteOff"
      },
      {
        "deltaTime": 0,
        "channel": 4,
        "type": "channel",
        "noteNumber": 70,
        "velocity": 0,
        "subtype": "noteOff"
      },
      {
        "deltaTime": 480,
        "channel": 4,
        "type": "channel",
        "noteNumber": 70,
        "velocity": 127,
        "subtype": "noteOn"
      },
      {
        "deltaTime": 0,
        "channel": 4,
        "type": "channel",
        "noteNumber": 65,
        "velocity": 127,
        "subtype": "noteOn"
      },
      {
        "deltaTime": 0,
        "channel": 4,
        "type": "channel",
        "noteNumber": 63,
        "velocity": 127,
        "subtype": "noteOn"
      },
      {
        "deltaTime": 480,
        "channel": 4,
        "type": "channel",
        "noteNumber": 63,
        "velocity": 0,
        "subtype": "noteOff"
      },
      {
        "deltaTime": 0,
        "channel": 4,
        "type": "channel",
        "noteNumber": 65,
        "velocity": 0,
        "subtype": "noteOff"
      },
      {
        "deltaTime": 0,
        "channel": 4,
        "type": "channel",
        "noteNumber": 70,
        "velocity": 0,
        "subtype": "noteOff"
      },
      {
        "deltaTime": 1440,
        "channel": 4,
        "type": "channel",
        "noteNumber": 70,
        "velocity": 127,
        "subtype": "noteOn"
      },
      {
        "deltaTime": 0,
        "channel": 4,
        "type": "channel",
        "noteNumber": 65,
        "velocity": 127,
        "subtype": "noteOn"
      },
      {
        "deltaTime": 0,
        "channel": 4,
        "type": "channel",
        "noteNumber": 63,
        "velocity": 127,
        "subtype": "noteOn"
      },
      {
        "deltaTime": 480,
        "channel": 4,
        "type": "channel",
        "noteNumber": 63,
        "velocity": 0,
        "subtype": "noteOff"
      },
      {
        "deltaTime": 0,
        "channel": 4,
        "type": "channel",
        "noteNumber": 65,
        "velocity": 0,
        "subtype": "noteOff"
      },
      {
        "deltaTime": 0,
        "channel": 4,
        "type": "channel",
        "noteNumber": 70,
        "velocity": 0,
        "subtype": "noteOff"
      },
      {
        "deltaTime": 480,
        "channel": 4,
        "type": "channel",
        "noteNumber": 70,
        "velocity": 127,
        "subtype": "noteOn"
      },
      {
        "deltaTime": 0,
        "channel": 4,
        "type": "channel",
        "noteNumber": 65,
        "velocity": 127,
        "subtype": "noteOn"
      },
      {
        "deltaTime": 0,
        "channel": 4,
        "type": "channel",
        "noteNumber": 63,
        "velocity": 127,
        "subtype": "noteOn"
      },
      {
        "deltaTime": 480,
        "channel": 4,
        "type": "channel",
        "noteNumber": 63,
        "velocity": 0,
        "subtype": "noteOff"
      },
      {
        "deltaTime": 0,
        "channel": 4,
        "type": "channel",
        "noteNumber": 65,
        "velocity": 0,
        "subtype": "noteOff"
      },
      {
        "deltaTime": 0,
        "channel": 4,
        "type": "channel",
        "noteNumber": 70,
        "velocity": 0,
        "subtype": "noteOff"
      },
      {
        "deltaTime": 1440,
        "channel": 4,
        "type": "channel",
        "noteNumber": 70,
        "velocity": 127,
        "subtype": "noteOn"
      },
      {
        "deltaTime": 0,
        "channel": 4,
        "type": "channel",
        "noteNumber": 65,
        "velocity": 127,
        "subtype": "noteOn"
      },
      {
        "deltaTime": 0,
        "channel": 4,
        "type": "channel",
        "noteNumber": 63,
        "velocity": 127,
        "subtype": "noteOn"
      },
      {
        "deltaTime": 480,
        "channel": 4,
        "type": "channel",
        "noteNumber": 63,
        "velocity": 0,
        "subtype": "noteOff"
      },
      {
        "deltaTime": 0,
        "channel": 4,
        "type": "channel",
        "noteNumber": 65,
        "velocity": 0,
        "subtype": "noteOff"
      },
      {
        "deltaTime": 0,
        "channel": 4,
        "type": "channel",
        "noteNumber": 70,
        "velocity": 0,
        "subtype": "noteOff"
      },
      {
        "deltaTime": 480,
        "channel": 4,
        "type": "channel",
        "noteNumber": 70,
        "velocity": 127,
        "subtype": "noteOn"
      },
      {
        "deltaTime": 0,
        "channel": 4,
        "type": "channel",
        "noteNumber": 65,
        "velocity": 127,
        "subtype": "noteOn"
      },
      {
        "deltaTime": 0,
        "channel": 4,
        "type": "channel",
        "noteNumber": 63,
        "velocity": 127,
        "subtype": "noteOn"
      },
      {
        "deltaTime": 480,
        "channel": 4,
        "type": "channel",
        "noteNumber": 63,
        "velocity": 0,
        "subtype": "noteOff"
      },
      {
        "deltaTime": 0,
        "channel": 4,
        "type": "channel",
        "noteNumber": 65,
        "velocity": 0,
        "subtype": "noteOff"
      },
      {
        "deltaTime": 0,
        "channel": 4,
        "type": "channel",
        "noteNumber": 70,
        "velocity": 0,
        "subtype": "noteOff"
      },
      {
        "deltaTime": 1440,
        "channel": 4,
        "type": "channel",
        "noteNumber": 70,
        "velocity": 127,
        "subtype": "noteOn"
      },
      {
        "deltaTime": 0,
        "channel": 4,
        "type": "channel",
        "noteNumber": 67,
        "velocity": 127,
        "subtype": "noteOn"
      },
      {
        "deltaTime": 0,
        "channel": 4,
        "type": "channel",
        "noteNumber": 63,
        "velocity": 127,
        "subtype": "noteOn"
      },
      {
        "deltaTime": 480,
        "channel": 4,
        "type": "channel",
        "noteNumber": 63,
        "velocity": 0,
        "subtype": "noteOff"
      },
      {
        "deltaTime": 0,
        "channel": 4,
        "type": "channel",
        "noteNumber": 67,
        "velocity": 0,
        "subtype": "noteOff"
      },
      {
        "deltaTime": 0,
        "channel": 4,
        "type": "channel",
        "noteNumber": 70,
        "velocity": 0,
        "subtype": "noteOff"
      },
      {
        "deltaTime": 480,
        "channel": 4,
        "type": "channel",
        "noteNumber": 70,
        "velocity": 127,
        "subtype": "noteOn"
      },
      {
        "deltaTime": 0,
        "channel": 4,
        "type": "channel",
        "noteNumber": 67,
        "velocity": 127,
        "subtype": "noteOn"
      },
      {
        "deltaTime": 0,
        "channel": 4,
        "type": "channel",
        "noteNumber": 63,
        "velocity": 127,
        "subtype": "noteOn"
      },
      {
        "deltaTime": 480,
        "channel": 4,
        "type": "channel",
        "noteNumber": 63,
        "velocity": 0,
        "subtype": "noteOff"
      },
      {
        "deltaTime": 0,
        "channel": 4,
        "type": "channel",
        "noteNumber": 67,
        "velocity": 0,
        "subtype": "noteOff"
      },
      {
        "deltaTime": 0,
        "channel": 4,
        "type": "channel",
        "noteNumber": 70,
        "velocity": 0,
        "subtype": "noteOff"
      },
      {
        "deltaTime": 1440,
        "channel": 4,
        "type": "channel",
        "noteNumber": 70,
        "velocity": 127,
        "subtype": "noteOn"
      },
      {
        "deltaTime": 0,
        "channel": 4,
        "type": "channel",
        "noteNumber": 65,
        "velocity": 127,
        "subtype": "noteOn"
      },
      {
        "deltaTime": 0,
        "channel": 4,
        "type": "channel",
        "noteNumber": 63,
        "velocity": 127,
        "subtype": "noteOn"
      },
      {
        "deltaTime": 480,
        "channel": 4,
        "type": "channel",
        "noteNumber": 63,
        "velocity": 0,
        "subtype": "noteOff"
      },
      {
        "deltaTime": 0,
        "channel": 4,
        "type": "channel",
        "noteNumber": 65,
        "velocity": 0,
        "subtype": "noteOff"
      },
      {
        "deltaTime": 0,
        "channel": 4,
        "type": "channel",
        "noteNumber": 70,
        "velocity": 0,
        "subtype": "noteOff"
      },
      {
        "deltaTime": 480,
        "channel": 4,
        "type": "channel",
        "noteNumber": 70,
        "velocity": 127,
        "subtype": "noteOn"
      },
      {
        "deltaTime": 0,
        "channel": 4,
        "type": "channel",
        "noteNumber": 65,
        "velocity": 127,
        "subtype": "noteOn"
      },
      {
        "deltaTime": 0,
        "channel": 4,
        "type": "channel",
        "noteNumber": 63,
        "velocity": 127,
        "subtype": "noteOn"
      },
      {
        "deltaTime": 480,
        "channel": 4,
        "type": "channel",
        "noteNumber": 63,
        "velocity": 0,
        "subtype": "noteOff"
      },
      {
        "deltaTime": 0,
        "channel": 4,
        "type": "channel",
        "noteNumber": 65,
        "velocity": 0,
        "subtype": "noteOff"
      },
      {
        "deltaTime": 0,
        "channel": 4,
        "type": "channel",
        "noteNumber": 70,
        "velocity": 0,
        "subtype": "noteOff"
      },
      {
        "deltaTime": 1440,
        "channel": 4,
        "type": "channel",
        "noteNumber": 70,
        "velocity": 127,
        "subtype": "noteOn"
      },
      {
        "deltaTime": 0,
        "channel": 4,
        "type": "channel",
        "noteNumber": 65,
        "velocity": 127,
        "subtype": "noteOn"
      },
      {
        "deltaTime": 0,
        "channel": 4,
        "type": "channel",
        "noteNumber": 63,
        "velocity": 127,
        "subtype": "noteOn"
      },
      {
        "deltaTime": 480,
        "channel": 4,
        "type": "channel",
        "noteNumber": 63,
        "velocity": 0,
        "subtype": "noteOff"
      },
      {
        "deltaTime": 0,
        "channel": 4,
        "type": "channel",
        "noteNumber": 65,
        "velocity": 0,
        "subtype": "noteOff"
      },
      {
        "deltaTime": 0,
        "channel": 4,
        "type": "channel",
        "noteNumber": 70,
        "velocity": 0,
        "subtype": "noteOff"
      },
      {
        "deltaTime": 480,
        "channel": 4,
        "type": "channel",
        "noteNumber": 70,
        "velocity": 127,
        "subtype": "noteOn"
      },
      {
        "deltaTime": 0,
        "channel": 4,
        "type": "channel",
        "noteNumber": 65,
        "velocity": 127,
        "subtype": "noteOn"
      },
      {
        "deltaTime": 0,
        "channel": 4,
        "type": "channel",
        "noteNumber": 63,
        "velocity": 127,
        "subtype": "noteOn"
      },
      {
        "deltaTime": 480,
        "channel": 4,
        "type": "channel",
        "noteNumber": 63,
        "velocity": 0,
        "subtype": "noteOff"
      },
      {
        "deltaTime": 0,
        "channel": 4,
        "type": "channel",
        "noteNumber": 65,
        "velocity": 0,
        "subtype": "noteOff"
      },
      {
        "deltaTime": 0,
        "channel": 4,
        "type": "channel",
        "noteNumber": 70,
        "velocity": 0,
        "subtype": "noteOff"
      },
      {
        "deltaTime": 1440,
        "channel": 4,
        "type": "channel",
        "noteNumber": 70,
        "velocity": 127,
        "subtype": "noteOn"
      },
      {
        "deltaTime": 0,
        "channel": 4,
        "type": "channel",
        "noteNumber": 65,
        "velocity": 127,
        "subtype": "noteOn"
      },
      {
        "deltaTime": 0,
        "channel": 4,
        "type": "channel",
        "noteNumber": 63,
        "velocity": 127,
        "subtype": "noteOn"
      },
      {
        "deltaTime": 480,
        "channel": 4,
        "type": "channel",
        "noteNumber": 63,
        "velocity": 0,
        "subtype": "noteOff"
      },
      {
        "deltaTime": 0,
        "channel": 4,
        "type": "channel",
        "noteNumber": 65,
        "velocity": 0,
        "subtype": "noteOff"
      },
      {
        "deltaTime": 0,
        "channel": 4,
        "type": "channel",
        "noteNumber": 70,
        "velocity": 0,
        "subtype": "noteOff"
      },
      {
        "deltaTime": 480,
        "channel": 4,
        "type": "channel",
        "noteNumber": 70,
        "velocity": 127,
        "subtype": "noteOn"
      },
      {
        "deltaTime": 0,
        "channel": 4,
        "type": "channel",
        "noteNumber": 65,
        "velocity": 127,
        "subtype": "noteOn"
      },
      {
        "deltaTime": 0,
        "channel": 4,
        "type": "channel",
        "noteNumber": 63,
        "velocity": 127,
        "subtype": "noteOn"
      },
      {
        "deltaTime": 480,
        "channel": 4,
        "type": "channel",
        "noteNumber": 63,
        "velocity": 0,
        "subtype": "noteOff"
      },
      {
        "deltaTime": 0,
        "channel": 4,
        "type": "channel",
        "noteNumber": 65,
        "velocity": 0,
        "subtype": "noteOff"
      },
      {
        "deltaTime": 0,
        "channel": 4,
        "type": "channel",
        "noteNumber": 70,
        "velocity": 0,
        "subtype": "noteOff"
      },
      {
        "deltaTime": 1440,
        "channel": 4,
        "type": "channel",
        "noteNumber": 70,
        "velocity": 127,
        "subtype": "noteOn"
      },
      {
        "deltaTime": 0,
        "channel": 4,
        "type": "channel",
        "noteNumber": 67,
        "velocity": 127,
        "subtype": "noteOn"
      },
      {
        "deltaTime": 0,
        "channel": 4,
        "type": "channel",
        "noteNumber": 63,
        "velocity": 127,
        "subtype": "noteOn"
      },
      {
        "deltaTime": 480,
        "channel": 4,
        "type": "channel",
        "noteNumber": 63,
        "velocity": 0,
        "subtype": "noteOff"
      },
      {
        "deltaTime": 0,
        "channel": 4,
        "type": "channel",
        "noteNumber": 67,
        "velocity": 0,
        "subtype": "noteOff"
      },
      {
        "deltaTime": 0,
        "channel": 4,
        "type": "channel",
        "noteNumber": 70,
        "velocity": 0,
        "subtype": "noteOff"
      },
      {
        "deltaTime": 480,
        "channel": 4,
        "type": "channel",
        "noteNumber": 70,
        "velocity": 127,
        "subtype": "noteOn"
      },
      {
        "deltaTime": 0,
        "channel": 4,
        "type": "channel",
        "noteNumber": 67,
        "velocity": 127,
        "subtype": "noteOn"
      },
      {
        "deltaTime": 0,
        "channel": 4,
        "type": "channel",
        "noteNumber": 63,
        "velocity": 127,
        "subtype": "noteOn"
      },
      {
        "deltaTime": 480,
        "channel": 4,
        "type": "channel",
        "noteNumber": 63,
        "velocity": 0,
        "subtype": "noteOff"
      },
      {
        "deltaTime": 0,
        "channel": 4,
        "type": "channel",
        "noteNumber": 67,
        "velocity": 0,
        "subtype": "noteOff"
      },
      {
        "deltaTime": 0,
        "channel": 4,
        "type": "channel",
        "noteNumber": 70,
        "velocity": 0,
        "subtype": "noteOff"
      },
      {
        "deltaTime": 1440,
        "channel": 4,
        "type": "channel",
        "noteNumber": 70,
        "velocity": 127,
        "subtype": "noteOn"
      },
      {
        "deltaTime": 0,
        "channel": 4,
        "type": "channel",
        "noteNumber": 65,
        "velocity": 127,
        "subtype": "noteOn"
      },
      {
        "deltaTime": 0,
        "channel": 4,
        "type": "channel",
        "noteNumber": 63,
        "velocity": 127,
        "subtype": "noteOn"
      },
      {
        "deltaTime": 480,
        "channel": 4,
        "type": "channel",
        "noteNumber": 63,
        "velocity": 0,
        "subtype": "noteOff"
      },
      {
        "deltaTime": 0,
        "channel": 4,
        "type": "channel",
        "noteNumber": 65,
        "velocity": 0,
        "subtype": "noteOff"
      },
      {
        "deltaTime": 0,
        "channel": 4,
        "type": "channel",
        "noteNumber": 70,
        "velocity": 0,
        "subtype": "noteOff"
      },
      {
        "deltaTime": 480,
        "channel": 4,
        "type": "channel",
        "noteNumber": 70,
        "velocity": 127,
        "subtype": "noteOn"
      },
      {
        "deltaTime": 0,
        "channel": 4,
        "type": "channel",
        "noteNumber": 65,
        "velocity": 127,
        "subtype": "noteOn"
      },
      {
        "deltaTime": 0,
        "channel": 4,
        "type": "channel",
        "noteNumber": 63,
        "velocity": 127,
        "subtype": "noteOn"
      },
      {
        "deltaTime": 480,
        "channel": 4,
        "type": "channel",
        "noteNumber": 63,
        "velocity": 0,
        "subtype": "noteOff"
      },
      {
        "deltaTime": 0,
        "channel": 4,
        "type": "channel",
        "noteNumber": 65,
        "velocity": 0,
        "subtype": "noteOff"
      },
      {
        "deltaTime": 0,
        "channel": 4,
        "type": "channel",
        "noteNumber": 70,
        "velocity": 0,
        "subtype": "noteOff"
      },
      {
        "deltaTime": 1440,
        "channel": 4,
        "type": "channel",
        "noteNumber": 70,
        "velocity": 127,
        "subtype": "noteOn"
      },
      {
        "deltaTime": 0,
        "channel": 4,
        "type": "channel",
        "noteNumber": 65,
        "velocity": 127,
        "subtype": "noteOn"
      },
      {
        "deltaTime": 0,
        "channel": 4,
        "type": "channel",
        "noteNumber": 63,
        "velocity": 127,
        "subtype": "noteOn"
      },
      {
        "deltaTime": 480,
        "channel": 4,
        "type": "channel",
        "noteNumber": 63,
        "velocity": 0,
        "subtype": "noteOff"
      },
      {
        "deltaTime": 0,
        "channel": 4,
        "type": "channel",
        "noteNumber": 65,
        "velocity": 0,
        "subtype": "noteOff"
      },
      {
        "deltaTime": 0,
        "channel": 4,
        "type": "channel",
        "noteNumber": 70,
        "velocity": 0,
        "subtype": "noteOff"
      },
      {
        "deltaTime": 480,
        "channel": 4,
        "type": "channel",
        "noteNumber": 70,
        "velocity": 127,
        "subtype": "noteOn"
      },
      {
        "deltaTime": 0,
        "channel": 4,
        "type": "channel",
        "noteNumber": 65,
        "velocity": 127,
        "subtype": "noteOn"
      },
      {
        "deltaTime": 0,
        "channel": 4,
        "type": "channel",
        "noteNumber": 63,
        "velocity": 127,
        "subtype": "noteOn"
      },
      {
        "deltaTime": 480,
        "channel": 4,
        "type": "channel",
        "noteNumber": 63,
        "velocity": 0,
        "subtype": "noteOff"
      },
      {
        "deltaTime": 0,
        "channel": 4,
        "type": "channel",
        "noteNumber": 65,
        "velocity": 0,
        "subtype": "noteOff"
      },
      {
        "deltaTime": 0,
        "channel": 4,
        "type": "channel",
        "noteNumber": 70,
        "velocity": 0,
        "subtype": "noteOff"
      },
      {
        "deltaTime": 1440,
        "channel": 4,
        "type": "channel",
        "noteNumber": 70,
        "velocity": 127,
        "subtype": "noteOn"
      },
      {
        "deltaTime": 0,
        "channel": 4,
        "type": "channel",
        "noteNumber": 65,
        "velocity": 127,
        "subtype": "noteOn"
      },
      {
        "deltaTime": 0,
        "channel": 4,
        "type": "channel",
        "noteNumber": 63,
        "velocity": 127,
        "subtype": "noteOn"
      },
      {
        "deltaTime": 480,
        "channel": 4,
        "type": "channel",
        "noteNumber": 63,
        "velocity": 0,
        "subtype": "noteOff"
      },
      {
        "deltaTime": 0,
        "channel": 4,
        "type": "channel",
        "noteNumber": 65,
        "velocity": 0,
        "subtype": "noteOff"
      },
      {
        "deltaTime": 0,
        "channel": 4,
        "type": "channel",
        "noteNumber": 70,
        "velocity": 0,
        "subtype": "noteOff"
      },
      {
        "deltaTime": 480,
        "channel": 4,
        "type": "channel",
        "noteNumber": 70,
        "velocity": 127,
        "subtype": "noteOn"
      },
      {
        "deltaTime": 0,
        "channel": 4,
        "type": "channel",
        "noteNumber": 65,
        "velocity": 127,
        "subtype": "noteOn"
      },
      {
        "deltaTime": 0,
        "channel": 4,
        "type": "channel",
        "noteNumber": 63,
        "velocity": 127,
        "subtype": "noteOn"
      },
      {
        "deltaTime": 480,
        "channel": 4,
        "type": "channel",
        "noteNumber": 63,
        "velocity": 0,
        "subtype": "noteOff"
      },
      {
        "deltaTime": 0,
        "channel": 4,
        "type": "channel",
        "noteNumber": 65,
        "velocity": 0,
        "subtype": "noteOff"
      },
      {
        "deltaTime": 0,
        "channel": 4,
        "type": "channel",
        "noteNumber": 70,
        "velocity": 0,
        "subtype": "noteOff"
      },
      {
        "deltaTime": 70560,
        "channel": 4,
        "type": "channel",
        "noteNumber": 70,
        "velocity": 127,
        "subtype": "noteOn"
      },
      {
        "deltaTime": 0,
        "channel": 4,
        "type": "channel",
        "noteNumber": 67,
        "velocity": 127,
        "subtype": "noteOn"
      },
      {
        "deltaTime": 0,
        "channel": 4,
        "type": "channel",
        "noteNumber": 63,
        "velocity": 127,
        "subtype": "noteOn"
      },
      {
        "deltaTime": 480,
        "channel": 4,
        "type": "channel",
        "noteNumber": 63,
        "velocity": 0,
        "subtype": "noteOff"
      },
      {
        "deltaTime": 0,
        "channel": 4,
        "type": "channel",
        "noteNumber": 67,
        "velocity": 0,
        "subtype": "noteOff"
      },
      {
        "deltaTime": 0,
        "channel": 4,
        "type": "channel",
        "noteNumber": 70,
        "velocity": 0,
        "subtype": "noteOff"
      },
      {
        "deltaTime": 480,
        "channel": 4,
        "type": "channel",
        "noteNumber": 70,
        "velocity": 127,
        "subtype": "noteOn"
      },
      {
        "deltaTime": 0,
        "channel": 4,
        "type": "channel",
        "noteNumber": 67,
        "velocity": 127,
        "subtype": "noteOn"
      },
      {
        "deltaTime": 0,
        "channel": 4,
        "type": "channel",
        "noteNumber": 63,
        "velocity": 127,
        "subtype": "noteOn"
      },
      {
        "deltaTime": 480,
        "channel": 4,
        "type": "channel",
        "noteNumber": 63,
        "velocity": 0,
        "subtype": "noteOff"
      },
      {
        "deltaTime": 0,
        "channel": 4,
        "type": "channel",
        "noteNumber": 67,
        "velocity": 0,
        "subtype": "noteOff"
      },
      {
        "deltaTime": 0,
        "channel": 4,
        "type": "channel",
        "noteNumber": 70,
        "velocity": 0,
        "subtype": "noteOff"
      },
      {
        "deltaTime": 1440,
        "channel": 4,
        "type": "channel",
        "noteNumber": 70,
        "velocity": 127,
        "subtype": "noteOn"
      },
      {
        "deltaTime": 0,
        "channel": 4,
        "type": "channel",
        "noteNumber": 65,
        "velocity": 127,
        "subtype": "noteOn"
      },
      {
        "deltaTime": 0,
        "channel": 4,
        "type": "channel",
        "noteNumber": 63,
        "velocity": 127,
        "subtype": "noteOn"
      },
      {
        "deltaTime": 480,
        "channel": 4,
        "type": "channel",
        "noteNumber": 63,
        "velocity": 0,
        "subtype": "noteOff"
      },
      {
        "deltaTime": 0,
        "channel": 4,
        "type": "channel",
        "noteNumber": 65,
        "velocity": 0,
        "subtype": "noteOff"
      },
      {
        "deltaTime": 0,
        "channel": 4,
        "type": "channel",
        "noteNumber": 70,
        "velocity": 0,
        "subtype": "noteOff"
      },
      {
        "deltaTime": 480,
        "channel": 4,
        "type": "channel",
        "noteNumber": 70,
        "velocity": 127,
        "subtype": "noteOn"
      },
      {
        "deltaTime": 0,
        "channel": 4,
        "type": "channel",
        "noteNumber": 65,
        "velocity": 127,
        "subtype": "noteOn"
      },
      {
        "deltaTime": 0,
        "channel": 4,
        "type": "channel",
        "noteNumber": 63,
        "velocity": 127,
        "subtype": "noteOn"
      },
      {
        "deltaTime": 480,
        "channel": 4,
        "type": "channel",
        "noteNumber": 63,
        "velocity": 0,
        "subtype": "noteOff"
      },
      {
        "deltaTime": 0,
        "channel": 4,
        "type": "channel",
        "noteNumber": 65,
        "velocity": 0,
        "subtype": "noteOff"
      },
      {
        "deltaTime": 0,
        "channel": 4,
        "type": "channel",
        "noteNumber": 70,
        "velocity": 0,
        "subtype": "noteOff"
      },
      {
        "deltaTime": 1440,
        "channel": 4,
        "type": "channel",
        "noteNumber": 70,
        "velocity": 127,
        "subtype": "noteOn"
      },
      {
        "deltaTime": 0,
        "channel": 4,
        "type": "channel",
        "noteNumber": 65,
        "velocity": 127,
        "subtype": "noteOn"
      },
      {
        "deltaTime": 0,
        "channel": 4,
        "type": "channel",
        "noteNumber": 63,
        "velocity": 127,
        "subtype": "noteOn"
      },
      {
        "deltaTime": 480,
        "channel": 4,
        "type": "channel",
        "noteNumber": 63,
        "velocity": 0,
        "subtype": "noteOff"
      },
      {
        "deltaTime": 0,
        "channel": 4,
        "type": "channel",
        "noteNumber": 65,
        "velocity": 0,
        "subtype": "noteOff"
      },
      {
        "deltaTime": 0,
        "channel": 4,
        "type": "channel",
        "noteNumber": 70,
        "velocity": 0,
        "subtype": "noteOff"
      },
      {
        "deltaTime": 480,
        "channel": 4,
        "type": "channel",
        "noteNumber": 70,
        "velocity": 127,
        "subtype": "noteOn"
      },
      {
        "deltaTime": 0,
        "channel": 4,
        "type": "channel",
        "noteNumber": 65,
        "velocity": 127,
        "subtype": "noteOn"
      },
      {
        "deltaTime": 0,
        "channel": 4,
        "type": "channel",
        "noteNumber": 63,
        "velocity": 127,
        "subtype": "noteOn"
      },
      {
        "deltaTime": 480,
        "channel": 4,
        "type": "channel",
        "noteNumber": 63,
        "velocity": 0,
        "subtype": "noteOff"
      },
      {
        "deltaTime": 0,
        "channel": 4,
        "type": "channel",
        "noteNumber": 65,
        "velocity": 0,
        "subtype": "noteOff"
      },
      {
        "deltaTime": 0,
        "channel": 4,
        "type": "channel",
        "noteNumber": 70,
        "velocity": 0,
        "subtype": "noteOff"
      },
      {
        "deltaTime": 1440,
        "channel": 4,
        "type": "channel",
        "noteNumber": 70,
        "velocity": 127,
        "subtype": "noteOn"
      },
      {
        "deltaTime": 0,
        "channel": 4,
        "type": "channel",
        "noteNumber": 65,
        "velocity": 127,
        "subtype": "noteOn"
      },
      {
        "deltaTime": 0,
        "channel": 4,
        "type": "channel",
        "noteNumber": 63,
        "velocity": 127,
        "subtype": "noteOn"
      },
      {
        "deltaTime": 480,
        "channel": 4,
        "type": "channel",
        "noteNumber": 63,
        "velocity": 0,
        "subtype": "noteOff"
      },
      {
        "deltaTime": 0,
        "channel": 4,
        "type": "channel",
        "noteNumber": 65,
        "velocity": 0,
        "subtype": "noteOff"
      },
      {
        "deltaTime": 0,
        "channel": 4,
        "type": "channel",
        "noteNumber": 70,
        "velocity": 0,
        "subtype": "noteOff"
      },
      {
        "deltaTime": 480,
        "channel": 4,
        "type": "channel",
        "noteNumber": 70,
        "velocity": 127,
        "subtype": "noteOn"
      },
      {
        "deltaTime": 0,
        "channel": 4,
        "type": "channel",
        "noteNumber": 65,
        "velocity": 127,
        "subtype": "noteOn"
      },
      {
        "deltaTime": 0,
        "channel": 4,
        "type": "channel",
        "noteNumber": 63,
        "velocity": 127,
        "subtype": "noteOn"
      },
      {
        "deltaTime": 480,
        "channel": 4,
        "type": "channel",
        "noteNumber": 63,
        "velocity": 0,
        "subtype": "noteOff"
      },
      {
        "deltaTime": 0,
        "channel": 4,
        "type": "channel",
        "noteNumber": 65,
        "velocity": 0,
        "subtype": "noteOff"
      },
      {
        "deltaTime": 0,
        "channel": 4,
        "type": "channel",
        "noteNumber": 70,
        "velocity": 0,
        "subtype": "noteOff"
      },
      {
        "deltaTime": 1440,
        "channel": 4,
        "type": "channel",
        "noteNumber": 70,
        "velocity": 127,
        "subtype": "noteOn"
      },
      {
        "deltaTime": 0,
        "channel": 4,
        "type": "channel",
        "noteNumber": 67,
        "velocity": 127,
        "subtype": "noteOn"
      },
      {
        "deltaTime": 0,
        "channel": 4,
        "type": "channel",
        "noteNumber": 63,
        "velocity": 127,
        "subtype": "noteOn"
      },
      {
        "deltaTime": 480,
        "channel": 4,
        "type": "channel",
        "noteNumber": 63,
        "velocity": 0,
        "subtype": "noteOff"
      },
      {
        "deltaTime": 0,
        "channel": 4,
        "type": "channel",
        "noteNumber": 67,
        "velocity": 0,
        "subtype": "noteOff"
      },
      {
        "deltaTime": 0,
        "channel": 4,
        "type": "channel",
        "noteNumber": 70,
        "velocity": 0,
        "subtype": "noteOff"
      },
      {
        "deltaTime": 480,
        "channel": 4,
        "type": "channel",
        "noteNumber": 70,
        "velocity": 127,
        "subtype": "noteOn"
      },
      {
        "deltaTime": 0,
        "channel": 4,
        "type": "channel",
        "noteNumber": 67,
        "velocity": 127,
        "subtype": "noteOn"
      },
      {
        "deltaTime": 0,
        "channel": 4,
        "type": "channel",
        "noteNumber": 63,
        "velocity": 127,
        "subtype": "noteOn"
      },
      {
        "deltaTime": 480,
        "channel": 4,
        "type": "channel",
        "noteNumber": 63,
        "velocity": 0,
        "subtype": "noteOff"
      },
      {
        "deltaTime": 0,
        "channel": 4,
        "type": "channel",
        "noteNumber": 67,
        "velocity": 0,
        "subtype": "noteOff"
      },
      {
        "deltaTime": 0,
        "channel": 4,
        "type": "channel",
        "noteNumber": 70,
        "velocity": 0,
        "subtype": "noteOff"
      },
      {
        "deltaTime": 1440,
        "channel": 4,
        "type": "channel",
        "noteNumber": 70,
        "velocity": 127,
        "subtype": "noteOn"
      },
      {
        "deltaTime": 0,
        "channel": 4,
        "type": "channel",
        "noteNumber": 65,
        "velocity": 127,
        "subtype": "noteOn"
      },
      {
        "deltaTime": 0,
        "channel": 4,
        "type": "channel",
        "noteNumber": 63,
        "velocity": 127,
        "subtype": "noteOn"
      },
      {
        "deltaTime": 480,
        "channel": 4,
        "type": "channel",
        "noteNumber": 63,
        "velocity": 0,
        "subtype": "noteOff"
      },
      {
        "deltaTime": 0,
        "channel": 4,
        "type": "channel",
        "noteNumber": 65,
        "velocity": 0,
        "subtype": "noteOff"
      },
      {
        "deltaTime": 0,
        "channel": 4,
        "type": "channel",
        "noteNumber": 70,
        "velocity": 0,
        "subtype": "noteOff"
      },
      {
        "deltaTime": 480,
        "channel": 4,
        "type": "channel",
        "noteNumber": 70,
        "velocity": 127,
        "subtype": "noteOn"
      },
      {
        "deltaTime": 0,
        "channel": 4,
        "type": "channel",
        "noteNumber": 65,
        "velocity": 127,
        "subtype": "noteOn"
      },
      {
        "deltaTime": 0,
        "channel": 4,
        "type": "channel",
        "noteNumber": 63,
        "velocity": 127,
        "subtype": "noteOn"
      },
      {
        "deltaTime": 480,
        "channel": 4,
        "type": "channel",
        "noteNumber": 63,
        "velocity": 0,
        "subtype": "noteOff"
      },
      {
        "deltaTime": 0,
        "channel": 4,
        "type": "channel",
        "noteNumber": 65,
        "velocity": 0,
        "subtype": "noteOff"
      },
      {
        "deltaTime": 0,
        "channel": 4,
        "type": "channel",
        "noteNumber": 70,
        "velocity": 0,
        "subtype": "noteOff"
      },
      {
        "deltaTime": 1440,
        "channel": 4,
        "type": "channel",
        "noteNumber": 70,
        "velocity": 127,
        "subtype": "noteOn"
      },
      {
        "deltaTime": 0,
        "channel": 4,
        "type": "channel",
        "noteNumber": 65,
        "velocity": 127,
        "subtype": "noteOn"
      },
      {
        "deltaTime": 0,
        "channel": 4,
        "type": "channel",
        "noteNumber": 63,
        "velocity": 127,
        "subtype": "noteOn"
      },
      {
        "deltaTime": 480,
        "channel": 4,
        "type": "channel",
        "noteNumber": 63,
        "velocity": 0,
        "subtype": "noteOff"
      },
      {
        "deltaTime": 0,
        "channel": 4,
        "type": "channel",
        "noteNumber": 65,
        "velocity": 0,
        "subtype": "noteOff"
      },
      {
        "deltaTime": 0,
        "channel": 4,
        "type": "channel",
        "noteNumber": 70,
        "velocity": 0,
        "subtype": "noteOff"
      },
      {
        "deltaTime": 480,
        "channel": 4,
        "type": "channel",
        "noteNumber": 70,
        "velocity": 127,
        "subtype": "noteOn"
      },
      {
        "deltaTime": 0,
        "channel": 4,
        "type": "channel",
        "noteNumber": 65,
        "velocity": 127,
        "subtype": "noteOn"
      },
      {
        "deltaTime": 0,
        "channel": 4,
        "type": "channel",
        "noteNumber": 63,
        "velocity": 127,
        "subtype": "noteOn"
      },
      {
        "deltaTime": 480,
        "channel": 4,
        "type": "channel",
        "noteNumber": 63,
        "velocity": 0,
        "subtype": "noteOff"
      },
      {
        "deltaTime": 0,
        "channel": 4,
        "type": "channel",
        "noteNumber": 65,
        "velocity": 0,
        "subtype": "noteOff"
      },
      {
        "deltaTime": 0,
        "channel": 4,
        "type": "channel",
        "noteNumber": 70,
        "velocity": 0,
        "subtype": "noteOff"
      },
      {
        "deltaTime": 1440,
        "channel": 4,
        "type": "channel",
        "noteNumber": 70,
        "velocity": 127,
        "subtype": "noteOn"
      },
      {
        "deltaTime": 0,
        "channel": 4,
        "type": "channel",
        "noteNumber": 65,
        "velocity": 127,
        "subtype": "noteOn"
      },
      {
        "deltaTime": 0,
        "channel": 4,
        "type": "channel",
        "noteNumber": 63,
        "velocity": 127,
        "subtype": "noteOn"
      },
      {
        "deltaTime": 480,
        "channel": 4,
        "type": "channel",
        "noteNumber": 63,
        "velocity": 0,
        "subtype": "noteOff"
      },
      {
        "deltaTime": 0,
        "channel": 4,
        "type": "channel",
        "noteNumber": 65,
        "velocity": 0,
        "subtype": "noteOff"
      },
      {
        "deltaTime": 0,
        "channel": 4,
        "type": "channel",
        "noteNumber": 70,
        "velocity": 0,
        "subtype": "noteOff"
      },
      {
        "deltaTime": 480,
        "channel": 4,
        "type": "channel",
        "noteNumber": 70,
        "velocity": 127,
        "subtype": "noteOn"
      },
      {
        "deltaTime": 0,
        "channel": 4,
        "type": "channel",
        "noteNumber": 65,
        "velocity": 127,
        "subtype": "noteOn"
      },
      {
        "deltaTime": 0,
        "channel": 4,
        "type": "channel",
        "noteNumber": 63,
        "velocity": 127,
        "subtype": "noteOn"
      },
      {
        "deltaTime": 480,
        "channel": 4,
        "type": "channel",
        "noteNumber": 63,
        "velocity": 0,
        "subtype": "noteOff"
      },
      {
        "deltaTime": 0,
        "channel": 4,
        "type": "channel",
        "noteNumber": 65,
        "velocity": 0,
        "subtype": "noteOff"
      },
      {
        "deltaTime": 0,
        "channel": 4,
        "type": "channel",
        "noteNumber": 70,
        "velocity": 0,
        "subtype": "noteOff"
      },
      {
        "deltaTime": 1440,
        "channel": 4,
        "type": "channel",
        "noteNumber": 70,
        "velocity": 127,
        "subtype": "noteOn"
      },
      {
        "deltaTime": 0,
        "channel": 4,
        "type": "channel",
        "noteNumber": 67,
        "velocity": 127,
        "subtype": "noteOn"
      },
      {
        "deltaTime": 0,
        "channel": 4,
        "type": "channel",
        "noteNumber": 63,
        "velocity": 127,
        "subtype": "noteOn"
      },
      {
        "deltaTime": 480,
        "channel": 4,
        "type": "channel",
        "noteNumber": 63,
        "velocity": 0,
        "subtype": "noteOff"
      },
      {
        "deltaTime": 0,
        "channel": 4,
        "type": "channel",
        "noteNumber": 67,
        "velocity": 0,
        "subtype": "noteOff"
      },
      {
        "deltaTime": 0,
        "channel": 4,
        "type": "channel",
        "noteNumber": 70,
        "velocity": 0,
        "subtype": "noteOff"
      },
      {
        "deltaTime": 480,
        "channel": 4,
        "type": "channel",
        "noteNumber": 70,
        "velocity": 127,
        "subtype": "noteOn"
      },
      {
        "deltaTime": 0,
        "channel": 4,
        "type": "channel",
        "noteNumber": 67,
        "velocity": 127,
        "subtype": "noteOn"
      },
      {
        "deltaTime": 0,
        "channel": 4,
        "type": "channel",
        "noteNumber": 63,
        "velocity": 127,
        "subtype": "noteOn"
      },
      {
        "deltaTime": 480,
        "channel": 4,
        "type": "channel",
        "noteNumber": 63,
        "velocity": 0,
        "subtype": "noteOff"
      },
      {
        "deltaTime": 0,
        "channel": 4,
        "type": "channel",
        "noteNumber": 67,
        "velocity": 0,
        "subtype": "noteOff"
      },
      {
        "deltaTime": 0,
        "channel": 4,
        "type": "channel",
        "noteNumber": 70,
        "velocity": 0,
        "subtype": "noteOff"
      },
      {
        "deltaTime": 1440,
        "channel": 4,
        "type": "channel",
        "noteNumber": 70,
        "velocity": 127,
        "subtype": "noteOn"
      },
      {
        "deltaTime": 0,
        "channel": 4,
        "type": "channel",
        "noteNumber": 65,
        "velocity": 127,
        "subtype": "noteOn"
      },
      {
        "deltaTime": 0,
        "channel": 4,
        "type": "channel",
        "noteNumber": 63,
        "velocity": 127,
        "subtype": "noteOn"
      },
      {
        "deltaTime": 480,
        "channel": 4,
        "type": "channel",
        "noteNumber": 63,
        "velocity": 0,
        "subtype": "noteOff"
      },
      {
        "deltaTime": 0,
        "channel": 4,
        "type": "channel",
        "noteNumber": 65,
        "velocity": 0,
        "subtype": "noteOff"
      },
      {
        "deltaTime": 0,
        "channel": 4,
        "type": "channel",
        "noteNumber": 70,
        "velocity": 0,
        "subtype": "noteOff"
      },
      {
        "deltaTime": 480,
        "channel": 4,
        "type": "channel",
        "noteNumber": 70,
        "velocity": 127,
        "subtype": "noteOn"
      },
      {
        "deltaTime": 0,
        "channel": 4,
        "type": "channel",
        "noteNumber": 65,
        "velocity": 127,
        "subtype": "noteOn"
      },
      {
        "deltaTime": 0,
        "channel": 4,
        "type": "channel",
        "noteNumber": 63,
        "velocity": 127,
        "subtype": "noteOn"
      },
      {
        "deltaTime": 480,
        "channel": 4,
        "type": "channel",
        "noteNumber": 63,
        "velocity": 0,
        "subtype": "noteOff"
      },
      {
        "deltaTime": 0,
        "channel": 4,
        "type": "channel",
        "noteNumber": 65,
        "velocity": 0,
        "subtype": "noteOff"
      },
      {
        "deltaTime": 0,
        "channel": 4,
        "type": "channel",
        "noteNumber": 70,
        "velocity": 0,
        "subtype": "noteOff"
      },
      {
        "deltaTime": 1440,
        "channel": 4,
        "type": "channel",
        "noteNumber": 70,
        "velocity": 127,
        "subtype": "noteOn"
      },
      {
        "deltaTime": 0,
        "channel": 4,
        "type": "channel",
        "noteNumber": 65,
        "velocity": 127,
        "subtype": "noteOn"
      },
      {
        "deltaTime": 0,
        "channel": 4,
        "type": "channel",
        "noteNumber": 63,
        "velocity": 127,
        "subtype": "noteOn"
      },
      {
        "deltaTime": 480,
        "channel": 4,
        "type": "channel",
        "noteNumber": 63,
        "velocity": 0,
        "subtype": "noteOff"
      },
      {
        "deltaTime": 0,
        "channel": 4,
        "type": "channel",
        "noteNumber": 65,
        "velocity": 0,
        "subtype": "noteOff"
      },
      {
        "deltaTime": 0,
        "channel": 4,
        "type": "channel",
        "noteNumber": 70,
        "velocity": 0,
        "subtype": "noteOff"
      },
      {
        "deltaTime": 480,
        "channel": 4,
        "type": "channel",
        "noteNumber": 70,
        "velocity": 127,
        "subtype": "noteOn"
      },
      {
        "deltaTime": 0,
        "channel": 4,
        "type": "channel",
        "noteNumber": 65,
        "velocity": 127,
        "subtype": "noteOn"
      },
      {
        "deltaTime": 0,
        "channel": 4,
        "type": "channel",
        "noteNumber": 63,
        "velocity": 127,
        "subtype": "noteOn"
      },
      {
        "deltaTime": 480,
        "channel": 4,
        "type": "channel",
        "noteNumber": 63,
        "velocity": 0,
        "subtype": "noteOff"
      },
      {
        "deltaTime": 0,
        "channel": 4,
        "type": "channel",
        "noteNumber": 65,
        "velocity": 0,
        "subtype": "noteOff"
      },
      {
        "deltaTime": 0,
        "channel": 4,
        "type": "channel",
        "noteNumber": 70,
        "velocity": 0,
        "subtype": "noteOff"
      },
      {
        "deltaTime": 1440,
        "channel": 4,
        "type": "channel",
        "noteNumber": 70,
        "velocity": 127,
        "subtype": "noteOn"
      },
      {
        "deltaTime": 0,
        "channel": 4,
        "type": "channel",
        "noteNumber": 65,
        "velocity": 127,
        "subtype": "noteOn"
      },
      {
        "deltaTime": 0,
        "channel": 4,
        "type": "channel",
        "noteNumber": 63,
        "velocity": 127,
        "subtype": "noteOn"
      },
      {
        "deltaTime": 480,
        "channel": 4,
        "type": "channel",
        "noteNumber": 63,
        "velocity": 0,
        "subtype": "noteOff"
      },
      {
        "deltaTime": 0,
        "channel": 4,
        "type": "channel",
        "noteNumber": 65,
        "velocity": 0,
        "subtype": "noteOff"
      },
      {
        "deltaTime": 0,
        "channel": 4,
        "type": "channel",
        "noteNumber": 70,
        "velocity": 0,
        "subtype": "noteOff"
      },
      {
        "deltaTime": 480,
        "channel": 4,
        "type": "channel",
        "noteNumber": 70,
        "velocity": 127,
        "subtype": "noteOn"
      },
      {
        "deltaTime": 0,
        "channel": 4,
        "type": "channel",
        "noteNumber": 65,
        "velocity": 127,
        "subtype": "noteOn"
      },
      {
        "deltaTime": 0,
        "channel": 4,
        "type": "channel",
        "noteNumber": 63,
        "velocity": 127,
        "subtype": "noteOn"
      },
      {
        "deltaTime": 480,
        "channel": 4,
        "type": "channel",
        "noteNumber": 63,
        "velocity": 0,
        "subtype": "noteOff"
      },
      {
        "deltaTime": 0,
        "channel": 4,
        "type": "channel",
        "noteNumber": 65,
        "velocity": 0,
        "subtype": "noteOff"
      },
      {
        "deltaTime": 0,
        "channel": 4,
        "type": "channel",
        "noteNumber": 70,
        "velocity": 0,
        "subtype": "noteOff"
      },
      {
        "deltaTime": 1440,
        "channel": 4,
        "type": "channel",
        "noteNumber": 70,
        "velocity": 127,
        "subtype": "noteOn"
      },
      {
        "deltaTime": 0,
        "channel": 4,
        "type": "channel",
        "noteNumber": 67,
        "velocity": 127,
        "subtype": "noteOn"
      },
      {
        "deltaTime": 0,
        "channel": 4,
        "type": "channel",
        "noteNumber": 63,
        "velocity": 127,
        "subtype": "noteOn"
      },
      {
        "deltaTime": 480,
        "channel": 4,
        "type": "channel",
        "noteNumber": 63,
        "velocity": 0,
        "subtype": "noteOff"
      },
      {
        "deltaTime": 0,
        "channel": 4,
        "type": "channel",
        "noteNumber": 67,
        "velocity": 0,
        "subtype": "noteOff"
      },
      {
        "deltaTime": 0,
        "channel": 4,
        "type": "channel",
        "noteNumber": 70,
        "velocity": 0,
        "subtype": "noteOff"
      },
      {
        "deltaTime": 480,
        "channel": 4,
        "type": "channel",
        "noteNumber": 70,
        "velocity": 127,
        "subtype": "noteOn"
      },
      {
        "deltaTime": 0,
        "channel": 4,
        "type": "channel",
        "noteNumber": 67,
        "velocity": 127,
        "subtype": "noteOn"
      },
      {
        "deltaTime": 0,
        "channel": 4,
        "type": "channel",
        "noteNumber": 63,
        "velocity": 127,
        "subtype": "noteOn"
      },
      {
        "deltaTime": 480,
        "channel": 4,
        "type": "channel",
        "noteNumber": 63,
        "velocity": 0,
        "subtype": "noteOff"
      },
      {
        "deltaTime": 0,
        "channel": 4,
        "type": "channel",
        "noteNumber": 67,
        "velocity": 0,
        "subtype": "noteOff"
      },
      {
        "deltaTime": 0,
        "channel": 4,
        "type": "channel",
        "noteNumber": 70,
        "velocity": 0,
        "subtype": "noteOff"
      },
      {
        "deltaTime": 1440,
        "channel": 4,
        "type": "channel",
        "noteNumber": 70,
        "velocity": 127,
        "subtype": "noteOn"
      },
      {
        "deltaTime": 0,
        "channel": 4,
        "type": "channel",
        "noteNumber": 65,
        "velocity": 127,
        "subtype": "noteOn"
      },
      {
        "deltaTime": 0,
        "channel": 4,
        "type": "channel",
        "noteNumber": 63,
        "velocity": 127,
        "subtype": "noteOn"
      },
      {
        "deltaTime": 480,
        "channel": 4,
        "type": "channel",
        "noteNumber": 63,
        "velocity": 0,
        "subtype": "noteOff"
      },
      {
        "deltaTime": 0,
        "channel": 4,
        "type": "channel",
        "noteNumber": 65,
        "velocity": 0,
        "subtype": "noteOff"
      },
      {
        "deltaTime": 0,
        "channel": 4,
        "type": "channel",
        "noteNumber": 70,
        "velocity": 0,
        "subtype": "noteOff"
      },
      {
        "deltaTime": 480,
        "channel": 4,
        "type": "channel",
        "noteNumber": 70,
        "velocity": 127,
        "subtype": "noteOn"
      },
      {
        "deltaTime": 0,
        "channel": 4,
        "type": "channel",
        "noteNumber": 65,
        "velocity": 127,
        "subtype": "noteOn"
      },
      {
        "deltaTime": 0,
        "channel": 4,
        "type": "channel",
        "noteNumber": 63,
        "velocity": 127,
        "subtype": "noteOn"
      },
      {
        "deltaTime": 480,
        "channel": 4,
        "type": "channel",
        "noteNumber": 63,
        "velocity": 0,
        "subtype": "noteOff"
      },
      {
        "deltaTime": 0,
        "channel": 4,
        "type": "channel",
        "noteNumber": 65,
        "velocity": 0,
        "subtype": "noteOff"
      },
      {
        "deltaTime": 0,
        "channel": 4,
        "type": "channel",
        "noteNumber": 70,
        "velocity": 0,
        "subtype": "noteOff"
      },
      {
        "deltaTime": 1440,
        "channel": 4,
        "type": "channel",
        "noteNumber": 70,
        "velocity": 127,
        "subtype": "noteOn"
      },
      {
        "deltaTime": 0,
        "channel": 4,
        "type": "channel",
        "noteNumber": 65,
        "velocity": 127,
        "subtype": "noteOn"
      },
      {
        "deltaTime": 0,
        "channel": 4,
        "type": "channel",
        "noteNumber": 63,
        "velocity": 127,
        "subtype": "noteOn"
      },
      {
        "deltaTime": 480,
        "channel": 4,
        "type": "channel",
        "noteNumber": 63,
        "velocity": 0,
        "subtype": "noteOff"
      },
      {
        "deltaTime": 0,
        "channel": 4,
        "type": "channel",
        "noteNumber": 65,
        "velocity": 0,
        "subtype": "noteOff"
      },
      {
        "deltaTime": 0,
        "channel": 4,
        "type": "channel",
        "noteNumber": 70,
        "velocity": 0,
        "subtype": "noteOff"
      },
      {
        "deltaTime": 480,
        "channel": 4,
        "type": "channel",
        "noteNumber": 70,
        "velocity": 127,
        "subtype": "noteOn"
      },
      {
        "deltaTime": 0,
        "channel": 4,
        "type": "channel",
        "noteNumber": 65,
        "velocity": 127,
        "subtype": "noteOn"
      },
      {
        "deltaTime": 0,
        "channel": 4,
        "type": "channel",
        "noteNumber": 63,
        "velocity": 127,
        "subtype": "noteOn"
      },
      {
        "deltaTime": 480,
        "channel": 4,
        "type": "channel",
        "noteNumber": 63,
        "velocity": 0,
        "subtype": "noteOff"
      },
      {
        "deltaTime": 0,
        "channel": 4,
        "type": "channel",
        "noteNumber": 65,
        "velocity": 0,
        "subtype": "noteOff"
      },
      {
        "deltaTime": 0,
        "channel": 4,
        "type": "channel",
        "noteNumber": 70,
        "velocity": 0,
        "subtype": "noteOff"
      },
      {
        "deltaTime": 1440,
        "channel": 4,
        "type": "channel",
        "noteNumber": 70,
        "velocity": 127,
        "subtype": "noteOn"
      },
      {
        "deltaTime": 0,
        "channel": 4,
        "type": "channel",
        "noteNumber": 65,
        "velocity": 127,
        "subtype": "noteOn"
      },
      {
        "deltaTime": 0,
        "channel": 4,
        "type": "channel",
        "noteNumber": 63,
        "velocity": 127,
        "subtype": "noteOn"
      },
      {
        "deltaTime": 480,
        "channel": 4,
        "type": "channel",
        "noteNumber": 63,
        "velocity": 0,
        "subtype": "noteOff"
      },
      {
        "deltaTime": 0,
        "channel": 4,
        "type": "channel",
        "noteNumber": 65,
        "velocity": 0,
        "subtype": "noteOff"
      },
      {
        "deltaTime": 0,
        "channel": 4,
        "type": "channel",
        "noteNumber": 70,
        "velocity": 0,
        "subtype": "noteOff"
      },
      {
        "deltaTime": 480,
        "channel": 4,
        "type": "channel",
        "noteNumber": 70,
        "velocity": 127,
        "subtype": "noteOn"
      },
      {
        "deltaTime": 0,
        "channel": 4,
        "type": "channel",
        "noteNumber": 65,
        "velocity": 127,
        "subtype": "noteOn"
      },
      {
        "deltaTime": 0,
        "channel": 4,
        "type": "channel",
        "noteNumber": 63,
        "velocity": 127,
        "subtype": "noteOn"
      },
      {
        "deltaTime": 480,
        "channel": 4,
        "type": "channel",
        "noteNumber": 63,
        "velocity": 0,
        "subtype": "noteOff"
      },
      {
        "deltaTime": 0,
        "channel": 4,
        "type": "channel",
        "noteNumber": 65,
        "velocity": 0,
        "subtype": "noteOff"
      },
      {
        "deltaTime": 0,
        "channel": 4,
        "type": "channel",
        "noteNumber": 70,
        "velocity": 0,
        "subtype": "noteOff"
      },
      {
        "deltaTime": 0,
        "type": "meta",
        "subtype": "endOfTrack"
      }
    ],
    [
      {
        "deltaTime": 0,
        "type": "meta",
        "subtype": "trackName",
        "text": "Guitar 5"
      },
      {
        "deltaTime": 0,
        "channel": 5,
        "type": "channel",
        "subtype": "controller",
        "controllerType": 7,
        "value": 127
      },
      {
        "deltaTime": 0,
        "channel": 5,
        "type": "channel",
        "subtype": "controller",
        "controllerType": 10,
        "value": 0
      },
      {
        "deltaTime": 0,
        "channel": 5,
        "type": "channel",
        "subtype": "controller",
        "controllerType": 91,
        "value": 0
      },
      {
        "deltaTime": 0,
        "channel": 5,
        "type": "channel",
        "subtype": "controller",
        "controllerType": 93,
        "value": 0
      },
      {
        "deltaTime": 0,
        "channel": 5,
        "type": "channel",
        "subtype": "controller",
        "controllerType": 101,
        "value": 0
      },
      {
        "deltaTime": 1,
        "channel": 5,
        "type": "channel",
        "subtype": "controller",
        "controllerType": 100,
        "value": 0
      },
      {
        "deltaTime": 1,
        "channel": 5,
        "type": "channel",
        "subtype": "controller",
        "controllerType": 6,
        "value": 12
      },
      {
        "deltaTime": 1,
        "channel": 5,
        "type": "channel",
        "subtype": "controller",
        "controllerType": 38,
        "value": 0
      },
      {
        "deltaTime": 0,
        "channel": 5,
        "type": "channel",
        "subtype": "pitchBend",
        "value": 8192
      },
      {
        "deltaTime": 0,
        "channel": 5,
        "type": "channel",
        "subtype": "controller",
        "controllerType": 101,
        "value": 0
      },
      {
        "deltaTime": 1,
        "channel": 5,
        "type": "channel",
        "subtype": "controller",
        "controllerType": 100,
        "value": 1
      },
      {
        "deltaTime": 1,
        "channel": 5,
        "type": "channel",
        "subtype": "controller",
        "controllerType": 6,
        "value": 64
      },
      {
        "deltaTime": 1,
        "channel": 5,
        "type": "channel",
        "subtype": "controller",
        "controllerType": 38,
        "value": 0
      },
      {
        "deltaTime": 0,
        "channel": 5,
        "type": "channel",
        "subtype": "controller",
        "controllerType": 101,
        "value": 0
      },
      {
        "deltaTime": 1,
        "channel": 5,
        "type": "channel",
        "subtype": "controller",
        "controllerType": 100,
        "value": 0
      },
      {
        "deltaTime": 1,
        "channel": 5,
        "type": "channel",
        "subtype": "controller",
        "controllerType": 6,
        "value": 12
      },
      {
        "deltaTime": 1,
        "channel": 5,
        "type": "channel",
        "subtype": "controller",
        "controllerType": 38,
        "value": 0
      },
      {
        "deltaTime": 0,
        "channel": 5,
        "type": "channel",
        "subtype": "pitchBend",
        "value": 8192
      },
      {
        "deltaTime": 0,
        "channel": 5,
        "type": "channel",
        "subtype": "controller",
        "controllerType": 101,
        "value": 0
      },
      {
        "deltaTime": 1,
        "channel": 5,
        "type": "channel",
        "subtype": "controller",
        "controllerType": 100,
        "value": 1
      },
      {
        "deltaTime": 1,
        "channel": 5,
        "type": "channel",
        "subtype": "controller",
        "controllerType": 6,
        "value": 64
      },
      {
        "deltaTime": 1,
        "channel": 5,
        "type": "channel",
        "subtype": "controller",
        "controllerType": 38,
        "value": 0
      },
      {
        "deltaTime": 0,
        "channel": 5,
        "type": "channel",
        "subtype": "controller",
        "controllerType": 101,
        "value": 0
      },
      {
        "deltaTime": 1,
        "channel": 5,
        "type": "channel",
        "subtype": "controller",
        "controllerType": 100,
        "value": 2
      },
      {
        "deltaTime": 1,
        "channel": 5,
        "type": "channel",
        "subtype": "controller",
        "controllerType": 6,
        "value": 64
      },
      {
        "deltaTime": 1,
        "channel": 5,
        "type": "channel",
        "subtype": "controller",
        "controllerType": 38,
        "value": 0
      },
      {
        "deltaTime": 0,
        "channel": 5,
        "type": "channel",
        "subtype": "controller",
        "controllerType": 101,
        "value": 0
      },
      {
        "deltaTime": 1,
        "channel": 5,
        "type": "channel",
        "subtype": "controller",
        "controllerType": 100,
        "value": 2
      },
      {
        "deltaTime": 1,
        "channel": 5,
        "type": "channel",
        "subtype": "controller",
        "controllerType": 6,
        "value": 64
      },
      {
        "deltaTime": 1,
        "channel": 5,
        "type": "channel",
        "subtype": "controller",
        "controllerType": 38,
        "value": 0
      },
      {
        "deltaTime": 0,
        "channel": 5,
        "type": "channel",
        "subtype": "programChange",
        "programNumber": 27
      },
      {
        "deltaTime": 0,
        "channel": 5,
        "type": "channel",
        "subtype": "programChange",
        "programNumber": 27
      },
      {
        "deltaTime": 0,
        "channel": 5,
        "type": "channel",
        "subtype": "controller",
        "controllerType": 0,
        "value": 0
      },
      {
        "deltaTime": 0,
        "channel": 5,
        "type": "channel",
        "subtype": "controller",
        "controllerType": 0,
        "value": 0
      },
      {
        "deltaTime": 0,
        "channel": 5,
        "type": "channel",
        "subtype": "controller",
        "controllerType": 7,
        "value": 127
      },
      {
        "deltaTime": 0,
        "channel": 5,
        "type": "channel",
        "subtype": "controller",
        "controllerType": 10,
        "value": 0
      },
      {
        "deltaTime": 0,
        "channel": 5,
        "type": "channel",
        "subtype": "controller",
        "controllerType": 93,
        "value": 0
      },
      {
        "deltaTime": 0,
        "channel": 5,
        "type": "channel",
        "subtype": "controller",
        "controllerType": 91,
        "value": 0
      },
      {
        "deltaTime": 0,
        "channel": 5,
        "type": "channel",
        "subtype": "controller",
        "controllerType": 92,
        "value": 0
      },
      {
        "deltaTime": 0,
        "channel": 5,
        "type": "channel",
        "subtype": "controller",
        "controllerType": 92,
        "value": 0
      },
      {
        "deltaTime": 0,
        "channel": 5,
        "type": "channel",
        "subtype": "controller",
        "controllerType": 95,
        "value": 0
      },
      {
        "deltaTime": 0,
        "channel": 5,
        "type": "channel",
        "subtype": "controller",
        "controllerType": 95,
        "value": 0
      },
      {
        "deltaTime": 25902,
        "channel": 5,
        "type": "channel",
        "noteNumber": 70,
        "velocity": 127,
        "subtype": "noteOn"
      },
      {
        "deltaTime": 0,
        "channel": 5,
        "type": "channel",
        "noteNumber": 67,
        "velocity": 127,
        "subtype": "noteOn"
      },
      {
        "deltaTime": 0,
        "channel": 5,
        "type": "channel",
        "noteNumber": 63,
        "velocity": 127,
        "subtype": "noteOn"
      },
      {
        "deltaTime": 480,
        "channel": 5,
        "type": "channel",
        "noteNumber": 63,
        "velocity": 0,
        "subtype": "noteOff"
      },
      {
        "deltaTime": 0,
        "channel": 5,
        "type": "channel",
        "noteNumber": 67,
        "velocity": 0,
        "subtype": "noteOff"
      },
      {
        "deltaTime": 0,
        "channel": 5,
        "type": "channel",
        "noteNumber": 70,
        "velocity": 0,
        "subtype": "noteOff"
      },
      {
        "deltaTime": 2400,
        "channel": 5,
        "type": "channel",
        "noteNumber": 70,
        "velocity": 127,
        "subtype": "noteOn"
      },
      {
        "deltaTime": 0,
        "channel": 5,
        "type": "channel",
        "noteNumber": 65,
        "velocity": 127,
        "subtype": "noteOn"
      },
      {
        "deltaTime": 0,
        "channel": 5,
        "type": "channel",
        "noteNumber": 63,
        "velocity": 127,
        "subtype": "noteOn"
      },
      {
        "deltaTime": 480,
        "channel": 5,
        "type": "channel",
        "noteNumber": 63,
        "velocity": 0,
        "subtype": "noteOff"
      },
      {
        "deltaTime": 0,
        "channel": 5,
        "type": "channel",
        "noteNumber": 65,
        "velocity": 0,
        "subtype": "noteOff"
      },
      {
        "deltaTime": 0,
        "channel": 5,
        "type": "channel",
        "noteNumber": 70,
        "velocity": 0,
        "subtype": "noteOff"
      },
      {
        "deltaTime": 2400,
        "channel": 5,
        "type": "channel",
        "noteNumber": 70,
        "velocity": 127,
        "subtype": "noteOn"
      },
      {
        "deltaTime": 0,
        "channel": 5,
        "type": "channel",
        "noteNumber": 65,
        "velocity": 127,
        "subtype": "noteOn"
      },
      {
        "deltaTime": 0,
        "channel": 5,
        "type": "channel",
        "noteNumber": 63,
        "velocity": 127,
        "subtype": "noteOn"
      },
      {
        "deltaTime": 480,
        "channel": 5,
        "type": "channel",
        "noteNumber": 63,
        "velocity": 0,
        "subtype": "noteOff"
      },
      {
        "deltaTime": 0,
        "channel": 5,
        "type": "channel",
        "noteNumber": 65,
        "velocity": 0,
        "subtype": "noteOff"
      },
      {
        "deltaTime": 0,
        "channel": 5,
        "type": "channel",
        "noteNumber": 70,
        "velocity": 0,
        "subtype": "noteOff"
      },
      {
        "deltaTime": 2400,
        "channel": 5,
        "type": "channel",
        "noteNumber": 70,
        "velocity": 127,
        "subtype": "noteOn"
      },
      {
        "deltaTime": 0,
        "channel": 5,
        "type": "channel",
        "noteNumber": 65,
        "velocity": 127,
        "subtype": "noteOn"
      },
      {
        "deltaTime": 0,
        "channel": 5,
        "type": "channel",
        "noteNumber": 63,
        "velocity": 127,
        "subtype": "noteOn"
      },
      {
        "deltaTime": 480,
        "channel": 5,
        "type": "channel",
        "noteNumber": 63,
        "velocity": 0,
        "subtype": "noteOff"
      },
      {
        "deltaTime": 0,
        "channel": 5,
        "type": "channel",
        "noteNumber": 65,
        "velocity": 0,
        "subtype": "noteOff"
      },
      {
        "deltaTime": 0,
        "channel": 5,
        "type": "channel",
        "noteNumber": 70,
        "velocity": 0,
        "subtype": "noteOff"
      },
      {
        "deltaTime": 2400,
        "channel": 5,
        "type": "channel",
        "noteNumber": 70,
        "velocity": 127,
        "subtype": "noteOn"
      },
      {
        "deltaTime": 0,
        "channel": 5,
        "type": "channel",
        "noteNumber": 67,
        "velocity": 127,
        "subtype": "noteOn"
      },
      {
        "deltaTime": 0,
        "channel": 5,
        "type": "channel",
        "noteNumber": 63,
        "velocity": 127,
        "subtype": "noteOn"
      },
      {
        "deltaTime": 480,
        "channel": 5,
        "type": "channel",
        "noteNumber": 63,
        "velocity": 0,
        "subtype": "noteOff"
      },
      {
        "deltaTime": 0,
        "channel": 5,
        "type": "channel",
        "noteNumber": 67,
        "velocity": 0,
        "subtype": "noteOff"
      },
      {
        "deltaTime": 0,
        "channel": 5,
        "type": "channel",
        "noteNumber": 70,
        "velocity": 0,
        "subtype": "noteOff"
      },
      {
        "deltaTime": 2400,
        "channel": 5,
        "type": "channel",
        "noteNumber": 70,
        "velocity": 127,
        "subtype": "noteOn"
      },
      {
        "deltaTime": 0,
        "channel": 5,
        "type": "channel",
        "noteNumber": 65,
        "velocity": 127,
        "subtype": "noteOn"
      },
      {
        "deltaTime": 0,
        "channel": 5,
        "type": "channel",
        "noteNumber": 63,
        "velocity": 127,
        "subtype": "noteOn"
      },
      {
        "deltaTime": 480,
        "channel": 5,
        "type": "channel",
        "noteNumber": 63,
        "velocity": 0,
        "subtype": "noteOff"
      },
      {
        "deltaTime": 0,
        "channel": 5,
        "type": "channel",
        "noteNumber": 65,
        "velocity": 0,
        "subtype": "noteOff"
      },
      {
        "deltaTime": 0,
        "channel": 5,
        "type": "channel",
        "noteNumber": 70,
        "velocity": 0,
        "subtype": "noteOff"
      },
      {
        "deltaTime": 2400,
        "channel": 5,
        "type": "channel",
        "noteNumber": 70,
        "velocity": 127,
        "subtype": "noteOn"
      },
      {
        "deltaTime": 0,
        "channel": 5,
        "type": "channel",
        "noteNumber": 65,
        "velocity": 127,
        "subtype": "noteOn"
      },
      {
        "deltaTime": 0,
        "channel": 5,
        "type": "channel",
        "noteNumber": 63,
        "velocity": 127,
        "subtype": "noteOn"
      },
      {
        "deltaTime": 480,
        "channel": 5,
        "type": "channel",
        "noteNumber": 63,
        "velocity": 0,
        "subtype": "noteOff"
      },
      {
        "deltaTime": 0,
        "channel": 5,
        "type": "channel",
        "noteNumber": 65,
        "velocity": 0,
        "subtype": "noteOff"
      },
      {
        "deltaTime": 0,
        "channel": 5,
        "type": "channel",
        "noteNumber": 70,
        "velocity": 0,
        "subtype": "noteOff"
      },
      {
        "deltaTime": 2400,
        "channel": 5,
        "type": "channel",
        "noteNumber": 70,
        "velocity": 127,
        "subtype": "noteOn"
      },
      {
        "deltaTime": 0,
        "channel": 5,
        "type": "channel",
        "noteNumber": 65,
        "velocity": 127,
        "subtype": "noteOn"
      },
      {
        "deltaTime": 0,
        "channel": 5,
        "type": "channel",
        "noteNumber": 63,
        "velocity": 127,
        "subtype": "noteOn"
      },
      {
        "deltaTime": 480,
        "channel": 5,
        "type": "channel",
        "noteNumber": 63,
        "velocity": 0,
        "subtype": "noteOff"
      },
      {
        "deltaTime": 0,
        "channel": 5,
        "type": "channel",
        "noteNumber": 65,
        "velocity": 0,
        "subtype": "noteOff"
      },
      {
        "deltaTime": 0,
        "channel": 5,
        "type": "channel",
        "noteNumber": 70,
        "velocity": 0,
        "subtype": "noteOff"
      },
      {
        "deltaTime": 13920,
        "channel": 5,
        "type": "channel",
        "noteNumber": 70,
        "velocity": 127,
        "subtype": "noteOn"
      },
      {
        "deltaTime": 0,
        "channel": 5,
        "type": "channel",
        "noteNumber": 67,
        "velocity": 127,
        "subtype": "noteOn"
      },
      {
        "deltaTime": 0,
        "channel": 5,
        "type": "channel",
        "noteNumber": 63,
        "velocity": 127,
        "subtype": "noteOn"
      },
      {
        "deltaTime": 480,
        "channel": 5,
        "type": "channel",
        "noteNumber": 63,
        "velocity": 0,
        "subtype": "noteOff"
      },
      {
        "deltaTime": 0,
        "channel": 5,
        "type": "channel",
        "noteNumber": 67,
        "velocity": 0,
        "subtype": "noteOff"
      },
      {
        "deltaTime": 0,
        "channel": 5,
        "type": "channel",
        "noteNumber": 70,
        "velocity": 0,
        "subtype": "noteOff"
      },
      {
        "deltaTime": 2400,
        "channel": 5,
        "type": "channel",
        "noteNumber": 70,
        "velocity": 127,
        "subtype": "noteOn"
      },
      {
        "deltaTime": 0,
        "channel": 5,
        "type": "channel",
        "noteNumber": 65,
        "velocity": 127,
        "subtype": "noteOn"
      },
      {
        "deltaTime": 0,
        "channel": 5,
        "type": "channel",
        "noteNumber": 63,
        "velocity": 127,
        "subtype": "noteOn"
      },
      {
        "deltaTime": 480,
        "channel": 5,
        "type": "channel",
        "noteNumber": 63,
        "velocity": 0,
        "subtype": "noteOff"
      },
      {
        "deltaTime": 0,
        "channel": 5,
        "type": "channel",
        "noteNumber": 65,
        "velocity": 0,
        "subtype": "noteOff"
      },
      {
        "deltaTime": 0,
        "channel": 5,
        "type": "channel",
        "noteNumber": 70,
        "velocity": 0,
        "subtype": "noteOff"
      },
      {
        "deltaTime": 2400,
        "channel": 5,
        "type": "channel",
        "noteNumber": 70,
        "velocity": 127,
        "subtype": "noteOn"
      },
      {
        "deltaTime": 0,
        "channel": 5,
        "type": "channel",
        "noteNumber": 65,
        "velocity": 127,
        "subtype": "noteOn"
      },
      {
        "deltaTime": 0,
        "channel": 5,
        "type": "channel",
        "noteNumber": 63,
        "velocity": 127,
        "subtype": "noteOn"
      },
      {
        "deltaTime": 480,
        "channel": 5,
        "type": "channel",
        "noteNumber": 63,
        "velocity": 0,
        "subtype": "noteOff"
      },
      {
        "deltaTime": 0,
        "channel": 5,
        "type": "channel",
        "noteNumber": 65,
        "velocity": 0,
        "subtype": "noteOff"
      },
      {
        "deltaTime": 0,
        "channel": 5,
        "type": "channel",
        "noteNumber": 70,
        "velocity": 0,
        "subtype": "noteOff"
      },
      {
        "deltaTime": 2400,
        "channel": 5,
        "type": "channel",
        "noteNumber": 70,
        "velocity": 127,
        "subtype": "noteOn"
      },
      {
        "deltaTime": 0,
        "channel": 5,
        "type": "channel",
        "noteNumber": 65,
        "velocity": 127,
        "subtype": "noteOn"
      },
      {
        "deltaTime": 0,
        "channel": 5,
        "type": "channel",
        "noteNumber": 63,
        "velocity": 127,
        "subtype": "noteOn"
      },
      {
        "deltaTime": 480,
        "channel": 5,
        "type": "channel",
        "noteNumber": 63,
        "velocity": 0,
        "subtype": "noteOff"
      },
      {
        "deltaTime": 0,
        "channel": 5,
        "type": "channel",
        "noteNumber": 65,
        "velocity": 0,
        "subtype": "noteOff"
      },
      {
        "deltaTime": 0,
        "channel": 5,
        "type": "channel",
        "noteNumber": 70,
        "velocity": 0,
        "subtype": "noteOff"
      },
      {
        "deltaTime": 2400,
        "channel": 5,
        "type": "channel",
        "noteNumber": 70,
        "velocity": 127,
        "subtype": "noteOn"
      },
      {
        "deltaTime": 0,
        "channel": 5,
        "type": "channel",
        "noteNumber": 67,
        "velocity": 127,
        "subtype": "noteOn"
      },
      {
        "deltaTime": 0,
        "channel": 5,
        "type": "channel",
        "noteNumber": 63,
        "velocity": 127,
        "subtype": "noteOn"
      },
      {
        "deltaTime": 480,
        "channel": 5,
        "type": "channel",
        "noteNumber": 63,
        "velocity": 0,
        "subtype": "noteOff"
      },
      {
        "deltaTime": 0,
        "channel": 5,
        "type": "channel",
        "noteNumber": 67,
        "velocity": 0,
        "subtype": "noteOff"
      },
      {
        "deltaTime": 0,
        "channel": 5,
        "type": "channel",
        "noteNumber": 70,
        "velocity": 0,
        "subtype": "noteOff"
      },
      {
        "deltaTime": 2400,
        "channel": 5,
        "type": "channel",
        "noteNumber": 70,
        "velocity": 127,
        "subtype": "noteOn"
      },
      {
        "deltaTime": 0,
        "channel": 5,
        "type": "channel",
        "noteNumber": 65,
        "velocity": 127,
        "subtype": "noteOn"
      },
      {
        "deltaTime": 0,
        "channel": 5,
        "type": "channel",
        "noteNumber": 63,
        "velocity": 127,
        "subtype": "noteOn"
      },
      {
        "deltaTime": 480,
        "channel": 5,
        "type": "channel",
        "noteNumber": 63,
        "velocity": 0,
        "subtype": "noteOff"
      },
      {
        "deltaTime": 0,
        "channel": 5,
        "type": "channel",
        "noteNumber": 65,
        "velocity": 0,
        "subtype": "noteOff"
      },
      {
        "deltaTime": 0,
        "channel": 5,
        "type": "channel",
        "noteNumber": 70,
        "velocity": 0,
        "subtype": "noteOff"
      },
      {
        "deltaTime": 2400,
        "channel": 5,
        "type": "channel",
        "noteNumber": 70,
        "velocity": 127,
        "subtype": "noteOn"
      },
      {
        "deltaTime": 0,
        "channel": 5,
        "type": "channel",
        "noteNumber": 65,
        "velocity": 127,
        "subtype": "noteOn"
      },
      {
        "deltaTime": 0,
        "channel": 5,
        "type": "channel",
        "noteNumber": 63,
        "velocity": 127,
        "subtype": "noteOn"
      },
      {
        "deltaTime": 480,
        "channel": 5,
        "type": "channel",
        "noteNumber": 63,
        "velocity": 0,
        "subtype": "noteOff"
      },
      {
        "deltaTime": 0,
        "channel": 5,
        "type": "channel",
        "noteNumber": 65,
        "velocity": 0,
        "subtype": "noteOff"
      },
      {
        "deltaTime": 0,
        "channel": 5,
        "type": "channel",
        "noteNumber": 70,
        "velocity": 0,
        "subtype": "noteOff"
      },
      {
        "deltaTime": 2400,
        "channel": 5,
        "type": "channel",
        "noteNumber": 70,
        "velocity": 127,
        "subtype": "noteOn"
      },
      {
        "deltaTime": 0,
        "channel": 5,
        "type": "channel",
        "noteNumber": 65,
        "velocity": 127,
        "subtype": "noteOn"
      },
      {
        "deltaTime": 0,
        "channel": 5,
        "type": "channel",
        "noteNumber": 63,
        "velocity": 127,
        "subtype": "noteOn"
      },
      {
        "deltaTime": 480,
        "channel": 5,
        "type": "channel",
        "noteNumber": 63,
        "velocity": 0,
        "subtype": "noteOff"
      },
      {
        "deltaTime": 0,
        "channel": 5,
        "type": "channel",
        "noteNumber": 65,
        "velocity": 0,
        "subtype": "noteOff"
      },
      {
        "deltaTime": 0,
        "channel": 5,
        "type": "channel",
        "noteNumber": 70,
        "velocity": 0,
        "subtype": "noteOff"
      },
      {
        "deltaTime": 2400,
        "channel": 5,
        "type": "channel",
        "subtype": "programChange",
        "programNumber": 30
      },
      {
        "deltaTime": 0,
        "channel": 5,
        "type": "channel",
        "subtype": "programChange",
        "programNumber": 30
      },
      {
        "deltaTime": 0,
        "channel": 5,
        "type": "channel",
        "subtype": "controller",
        "controllerType": 10,
        "value": 64
      },
      {
        "deltaTime": 0,
        "channel": 5,
        "type": "channel",
        "subtype": "controller",
        "controllerType": 10,
        "value": 64
      },
      {
        "deltaTime": 0,
        "channel": 5,
        "type": "channel",
        "noteNumber": 63,
        "velocity": 127,
        "subtype": "noteOn"
      },
      {
        "deltaTime": 0,
        "channel": 5,
        "type": "channel",
        "noteNumber": 58,
        "velocity": 127,
        "subtype": "noteOn"
      },
      {
        "deltaTime": 0,
        "channel": 5,
        "type": "channel",
        "noteNumber": 55,
        "velocity": 127,
        "subtype": "noteOn"
      },
      {
        "deltaTime": 0,
        "channel": 5,
        "type": "channel",
        "noteNumber": 51,
        "velocity": 127,
        "subtype": "noteOn"
      },
      {
        "deltaTime": 0,
        "channel": 5,
        "type": "channel",
        "noteNumber": 46,
        "velocity": 127,
        "subtype": "noteOn"
      },
      {
        "deltaTime": 0,
        "channel": 5,
        "type": "channel",
        "noteNumber": 39,
        "velocity": 127,
        "subtype": "noteOn"
      },
      {
        "deltaTime": 7680,
        "channel": 5,
        "type": "channel",
        "noteNumber": 39,
        "velocity": 0,
        "subtype": "noteOff"
      },
      {
        "deltaTime": 0,
        "channel": 5,
        "type": "channel",
        "noteNumber": 58,
        "velocity": 0,
        "subtype": "noteOff"
      },
      {
        "deltaTime": 0,
        "channel": 5,
        "type": "channel",
        "noteNumber": 55,
        "velocity": 0,
        "subtype": "noteOff"
      },
      {
        "deltaTime": 0,
        "channel": 5,
        "type": "channel",
        "noteNumber": 63,
        "velocity": 0,
        "subtype": "noteOff"
      },
      {
        "deltaTime": 0,
        "channel": 5,
        "type": "channel",
        "noteNumber": 46,
        "velocity": 0,
        "subtype": "noteOff"
      },
      {
        "deltaTime": 0,
        "channel": 5,
        "type": "channel",
        "noteNumber": 51,
        "velocity": 0,
        "subtype": "noteOff"
      },
      {
        "deltaTime": 0,
        "channel": 5,
        "type": "channel",
        "noteNumber": 79,
        "velocity": 127,
        "subtype": "noteOn"
      },
      {
        "deltaTime": 960,
        "channel": 5,
        "type": "channel",
        "noteNumber": 70,
        "velocity": 127,
        "subtype": "noteOn"
      },
      {
        "deltaTime": 480,
        "channel": 5,
        "type": "channel",
        "noteNumber": 79,
        "velocity": 0,
        "subtype": "noteOff"
      },
      {
        "deltaTime": 0,
        "channel": 5,
        "type": "channel",
        "noteNumber": 79,
        "velocity": 127,
        "subtype": "noteOn"
      },
      {
        "deltaTime": 960,
        "channel": 5,
        "type": "channel",
        "noteNumber": 70,
        "velocity": 0,
        "subtype": "noteOff"
      },
      {
        "deltaTime": 0,
        "channel": 5,
        "type": "channel",
        "noteNumber": 74,
        "velocity": 127,
        "subtype": "noteOn"
      },
      {
        "deltaTime": 480,
        "channel": 5,
        "type": "channel",
        "noteNumber": 79,
        "velocity": 0,
        "subtype": "noteOff"
      },
      {
        "deltaTime": 0,
        "channel": 5,
        "type": "channel",
        "noteNumber": 75,
        "velocity": 127,
        "subtype": "noteOn"
      },
      {
        "deltaTime": 480,
        "channel": 5,
        "type": "channel",
        "noteNumber": 74,
        "velocity": 0,
        "subtype": "noteOff"
      },
      {
        "deltaTime": 0,
        "channel": 5,
        "type": "channel",
        "noteNumber": 74,
        "velocity": 127,
        "subtype": "noteOn"
      },
      {
        "deltaTime": 960,
        "channel": 5,
        "type": "channel",
        "noteNumber": 75,
        "velocity": 0,
        "subtype": "noteOff"
      },
      {
        "deltaTime": 0,
        "channel": 5,
        "type": "channel",
        "noteNumber": 75,
        "velocity": 127,
        "subtype": "noteOn"
      },
      {
        "deltaTime": 960,
        "channel": 5,
        "type": "channel",
        "noteNumber": 75,
        "velocity": 0,
        "subtype": "noteOff"
      },
      {
        "deltaTime": 0,
        "channel": 5,
        "type": "channel",
        "noteNumber": 79,
        "velocity": 127,
        "subtype": "noteOn"
      },
      {
        "deltaTime": 480,
        "channel": 5,
        "type": "channel",
        "noteNumber": 74,
        "velocity": 0,
        "subtype": "noteOff"
      },
      {
        "deltaTime": 0,
        "channel": 5,
        "type": "channel",
        "noteNumber": 70,
        "velocity": 127,
        "subtype": "noteOn"
      },
      {
        "deltaTime": 480,
        "channel": 5,
        "type": "channel",
        "noteNumber": 79,
        "velocity": 0,
        "subtype": "noteOff"
      },
      {
        "deltaTime": 0,
        "channel": 5,
        "type": "channel",
        "noteNumber": 79,
        "velocity": 127,
        "subtype": "noteOn"
      },
      {
        "deltaTime": 480,
        "channel": 5,
        "type": "channel",
        "noteNumber": 79,
        "velocity": 0,
        "subtype": "noteOff"
      },
      {
        "deltaTime": 0,
        "channel": 5,
        "type": "channel",
        "noteNumber": 77,
        "velocity": 127,
        "subtype": "noteOn"
      },
      {
        "deltaTime": 480,
        "channel": 5,
        "type": "channel",
        "noteNumber": 70,
        "velocity": 0,
        "subtype": "noteOff"
      },
      {
        "deltaTime": 0,
        "channel": 5,
        "type": "channel",
        "noteNumber": 70,
        "velocity": 127,
        "subtype": "noteOn"
      },
      {
        "deltaTime": 480,
        "channel": 5,
        "type": "channel",
        "noteNumber": 77,
        "velocity": 0,
        "subtype": "noteOff"
      },
      {
        "deltaTime": 0,
        "channel": 5,
        "type": "channel",
        "noteNumber": 79,
        "velocity": 127,
        "subtype": "noteOn"
      },
      {
        "deltaTime": 960,
        "channel": 5,
        "type": "channel",
        "noteNumber": 70,
        "velocity": 0,
        "subtype": "noteOff"
      },
      {
        "deltaTime": 0,
        "channel": 5,
        "type": "channel",
        "noteNumber": 70,
        "velocity": 127,
        "subtype": "noteOn"
      },
      {
        "deltaTime": 480,
        "channel": 5,
        "type": "channel",
        "noteNumber": 79,
        "velocity": 0,
        "subtype": "noteOff"
      },
      {
        "deltaTime": 0,
        "channel": 5,
        "type": "channel",
        "noteNumber": 79,
        "velocity": 127,
        "subtype": "noteOn"
      },
      {
        "deltaTime": 960,
        "channel": 5,
        "type": "channel",
        "noteNumber": 79,
        "velocity": 0,
        "subtype": "noteOff"
      },
      {
        "deltaTime": 0,
        "channel": 5,
        "type": "channel",
        "noteNumber": 75,
        "velocity": 127,
        "subtype": "noteOn"
      },
      {
        "deltaTime": 960,
        "channel": 5,
        "type": "channel",
        "noteNumber": 70,
        "velocity": 0,
        "subtype": "noteOff"
      },
      {
        "deltaTime": 0,
        "channel": 5,
        "type": "channel",
        "noteNumber": 74,
        "velocity": 127,
        "subtype": "noteOn"
      },
      {
        "deltaTime": 480,
        "channel": 5,
        "type": "channel",
        "noteNumber": 75,
        "velocity": 0,
        "subtype": "noteOff"
      },
      {
        "deltaTime": 0,
        "channel": 5,
        "type": "channel",
        "noteNumber": 75,
        "velocity": 127,
        "subtype": "noteOn"
      },
      {
        "deltaTime": 480,
        "channel": 5,
        "type": "channel",
        "noteNumber": 74,
        "velocity": 0,
        "subtype": "noteOff"
      },
      {
        "deltaTime": 0,
        "channel": 5,
        "type": "channel",
        "noteNumber": 74,
        "velocity": 127,
        "subtype": "noteOn"
      },
      {
        "deltaTime": 960,
        "channel": 5,
        "type": "channel",
        "noteNumber": 75,
        "velocity": 0,
        "subtype": "noteOff"
      },
      {
        "deltaTime": 0,
        "channel": 5,
        "type": "channel",
        "noteNumber": 77,
        "velocity": 127,
        "subtype": "noteOn"
      },
      {
        "deltaTime": 480,
        "channel": 5,
        "type": "channel",
        "noteNumber": 74,
        "velocity": 0,
        "subtype": "noteOff"
      },
      {
        "deltaTime": 0,
        "channel": 5,
        "type": "channel",
        "noteNumber": 70,
        "velocity": 127,
        "subtype": "noteOn"
      },
      {
        "deltaTime": 480,
        "channel": 5,
        "type": "channel",
        "noteNumber": 70,
        "velocity": 0,
        "subtype": "noteOff"
      },
      {
        "deltaTime": 0,
        "channel": 5,
        "type": "channel",
        "noteNumber": 70,
        "velocity": 127,
        "subtype": "noteOn"
      },
      {
        "deltaTime": 480,
        "channel": 5,
        "type": "channel",
        "noteNumber": 77,
        "velocity": 0,
        "subtype": "noteOff"
      },
      {
        "deltaTime": 0,
        "channel": 5,
        "type": "channel",
        "noteNumber": 77,
        "velocity": 127,
        "subtype": "noteOn"
      },
      {
        "deltaTime": 480,
        "channel": 5,
        "type": "channel",
        "noteNumber": 70,
        "velocity": 0,
        "subtype": "noteOff"
      },
      {
        "deltaTime": 0,
        "channel": 5,
        "type": "channel",
        "noteNumber": 70,
        "velocity": 127,
        "subtype": "noteOn"
      },
      {
        "deltaTime": 480,
        "channel": 5,
        "type": "channel",
        "noteNumber": 77,
        "velocity": 0,
        "subtype": "noteOff"
      },
      {
        "deltaTime": 0,
        "channel": 5,
        "type": "channel",
        "noteNumber": 79,
        "velocity": 127,
        "subtype": "noteOn"
      },
      {
        "deltaTime": 960,
        "channel": 5,
        "type": "channel",
        "noteNumber": 70,
        "velocity": 0,
        "subtype": "noteOff"
      },
      {
        "deltaTime": 0,
        "channel": 5,
        "type": "channel",
        "noteNumber": 70,
        "velocity": 127,
        "subtype": "noteOn"
      },
      {
        "deltaTime": 480,
        "channel": 5,
        "type": "channel",
        "noteNumber": 79,
        "velocity": 0,
        "subtype": "noteOff"
      },
      {
        "deltaTime": 0,
        "channel": 5,
        "type": "channel",
        "noteNumber": 79,
        "velocity": 127,
        "subtype": "noteOn"
      },
      {
        "deltaTime": 960,
        "channel": 5,
        "type": "channel",
        "noteNumber": 70,
        "velocity": 0,
        "subtype": "noteOff"
      },
      {
        "deltaTime": 0,
        "channel": 5,
        "type": "channel",
        "noteNumber": 74,
        "velocity": 127,
        "subtype": "noteOn"
      },
      {
        "deltaTime": 480,
        "channel": 5,
        "type": "channel",
        "noteNumber": 79,
        "velocity": 0,
        "subtype": "noteOff"
      },
      {
        "deltaTime": 0,
        "channel": 5,
        "type": "channel",
        "noteNumber": 75,
        "velocity": 127,
        "subtype": "noteOn"
      },
      {
        "deltaTime": 480,
        "channel": 5,
        "type": "channel",
        "noteNumber": 74,
        "velocity": 0,
        "subtype": "noteOff"
      },
      {
        "deltaTime": 0,
        "channel": 5,
        "type": "channel",
        "noteNumber": 74,
        "velocity": 127,
        "subtype": "noteOn"
      },
      {
        "deltaTime": 960,
        "channel": 5,
        "type": "channel",
        "noteNumber": 75,
        "velocity": 0,
        "subtype": "noteOff"
      },
      {
        "deltaTime": 0,
        "channel": 5,
        "type": "channel",
        "noteNumber": 75,
        "velocity": 127,
        "subtype": "noteOn"
      },
      {
        "deltaTime": 960,
        "channel": 5,
        "type": "channel",
        "noteNumber": 75,
        "velocity": 0,
        "subtype": "noteOff"
      },
      {
        "deltaTime": 0,
        "channel": 5,
        "type": "channel",
        "noteNumber": 79,
        "velocity": 127,
        "subtype": "noteOn"
      },
      {
        "deltaTime": 480,
        "channel": 5,
        "type": "channel",
        "noteNumber": 74,
        "velocity": 0,
        "subtype": "noteOff"
      },
      {
        "deltaTime": 0,
        "channel": 5,
        "type": "channel",
        "noteNumber": 70,
        "velocity": 127,
        "subtype": "noteOn"
      },
      {
        "deltaTime": 480,
        "channel": 5,
        "type": "channel",
        "noteNumber": 79,
        "velocity": 0,
        "subtype": "noteOff"
      },
      {
        "deltaTime": 0,
        "channel": 5,
        "type": "channel",
        "noteNumber": 79,
        "velocity": 127,
        "subtype": "noteOn"
      },
      {
        "deltaTime": 480,
        "channel": 5,
        "type": "channel",
        "noteNumber": 79,
        "velocity": 0,
        "subtype": "noteOff"
      },
      {
        "deltaTime": 0,
        "channel": 5,
        "type": "channel",
        "noteNumber": 77,
        "velocity": 127,
        "subtype": "noteOn"
      },
      {
        "deltaTime": 480,
        "channel": 5,
        "type": "channel",
        "noteNumber": 70,
        "velocity": 0,
        "subtype": "noteOff"
      },
      {
        "deltaTime": 0,
        "channel": 5,
        "type": "channel",
        "noteNumber": 70,
        "velocity": 127,
        "subtype": "noteOn"
      },
      {
        "deltaTime": 480,
        "channel": 5,
        "type": "channel",
        "noteNumber": 77,
        "velocity": 0,
        "subtype": "noteOff"
      },
      {
        "deltaTime": 0,
        "channel": 5,
        "type": "channel",
        "noteNumber": 79,
        "velocity": 127,
        "subtype": "noteOn"
      },
      {
        "deltaTime": 960,
        "channel": 5,
        "type": "channel",
        "noteNumber": 70,
        "velocity": 0,
        "subtype": "noteOff"
      },
      {
        "deltaTime": 0,
        "channel": 5,
        "type": "channel",
        "noteNumber": 70,
        "velocity": 127,
        "subtype": "noteOn"
      },
      {
        "deltaTime": 480,
        "channel": 5,
        "type": "channel",
        "noteNumber": 79,
        "velocity": 0,
        "subtype": "noteOff"
      },
      {
        "deltaTime": 0,
        "channel": 5,
        "type": "channel",
        "noteNumber": 79,
        "velocity": 127,
        "subtype": "noteOn"
      },
      {
        "deltaTime": 960,
        "channel": 5,
        "type": "channel",
        "noteNumber": 79,
        "velocity": 0,
        "subtype": "noteOff"
      },
      {
        "deltaTime": 0,
        "channel": 5,
        "type": "channel",
        "noteNumber": 75,
        "velocity": 127,
        "subtype": "noteOn"
      },
      {
        "deltaTime": 960,
        "channel": 5,
        "type": "channel",
        "noteNumber": 70,
        "velocity": 0,
        "subtype": "noteOff"
      },
      {
        "deltaTime": 0,
        "channel": 5,
        "type": "channel",
        "noteNumber": 74,
        "velocity": 127,
        "subtype": "noteOn"
      },
      {
        "deltaTime": 480,
        "channel": 5,
        "type": "channel",
        "noteNumber": 75,
        "velocity": 0,
        "subtype": "noteOff"
      },
      {
        "deltaTime": 0,
        "channel": 5,
        "type": "channel",
        "noteNumber": 75,
        "velocity": 127,
        "subtype": "noteOn"
      },
      {
        "deltaTime": 480,
        "channel": 5,
        "type": "channel",
        "noteNumber": 74,
        "velocity": 0,
        "subtype": "noteOff"
      },
      {
        "deltaTime": 0,
        "channel": 5,
        "type": "channel",
        "noteNumber": 74,
        "velocity": 127,
        "subtype": "noteOn"
      },
      {
        "deltaTime": 960,
        "channel": 5,
        "type": "channel",
        "noteNumber": 75,
        "velocity": 0,
        "subtype": "noteOff"
      },
      {
        "deltaTime": 0,
        "channel": 5,
        "type": "channel",
        "noteNumber": 77,
        "velocity": 127,
        "subtype": "noteOn"
      },
      {
        "deltaTime": 480,
        "channel": 5,
        "type": "channel",
        "noteNumber": 74,
        "velocity": 0,
        "subtype": "noteOff"
      },
      {
        "deltaTime": 0,
        "channel": 5,
        "type": "channel",
        "noteNumber": 70,
        "velocity": 127,
        "subtype": "noteOn"
      },
      {
        "deltaTime": 480,
        "channel": 5,
        "type": "channel",
        "noteNumber": 70,
        "velocity": 0,
        "subtype": "noteOff"
      },
      {
        "deltaTime": 0,
        "channel": 5,
        "type": "channel",
        "noteNumber": 70,
        "velocity": 127,
        "subtype": "noteOn"
      },
      {
        "deltaTime": 480,
        "channel": 5,
        "type": "channel",
        "noteNumber": 77,
        "velocity": 0,
        "subtype": "noteOff"
      },
      {
        "deltaTime": 0,
        "channel": 5,
        "type": "channel",
        "noteNumber": 77,
        "velocity": 127,
        "subtype": "noteOn"
      },
      {
        "deltaTime": 480,
        "channel": 5,
        "type": "channel",
        "noteNumber": 70,
        "velocity": 0,
        "subtype": "noteOff"
      },
      {
        "deltaTime": 0,
        "channel": 5,
        "type": "channel",
        "noteNumber": 70,
        "velocity": 127,
        "subtype": "noteOn"
      },
      {
        "deltaTime": 480,
        "channel": 5,
        "type": "channel",
        "noteNumber": 70,
        "velocity": 0,
        "subtype": "noteOff"
      },
      {
        "deltaTime": 0,
        "channel": 5,
        "type": "channel",
        "noteNumber": 77,
        "velocity": 0,
        "subtype": "noteOff"
      },
      {
        "deltaTime": 0,
        "channel": 5,
        "type": "channel",
        "noteNumber": 63,
        "velocity": 127,
        "subtype": "noteOn"
      },
      {
        "deltaTime": 0,
        "channel": 5,
        "type": "channel",
        "noteNumber": 63,
        "velocity": 127,
        "subtype": "noteOn"
      },
      {
        "deltaTime": 480,
        "channel": 5,
        "type": "channel",
        "noteNumber": 63,
        "velocity": 0,
        "subtype": "noteOff"
      },
      {
        "deltaTime": 0,
        "channel": 5,
        "type": "channel",
        "noteNumber": 63,
        "velocity": 0,
        "subtype": "noteOff"
      },
      {
        "deltaTime": 0,
        "channel": 5,
        "type": "channel",
        "noteNumber": 63,
        "velocity": 127,
        "subtype": "noteOn"
      },
      {
        "deltaTime": 0,
        "channel": 5,
        "type": "channel",
        "noteNumber": 63,
        "velocity": 127,
        "subtype": "noteOn"
      },
      {
        "deltaTime": 480,
        "channel": 5,
        "type": "channel",
        "noteNumber": 63,
        "velocity": 0,
        "subtype": "noteOff"
      },
      {
        "deltaTime": 0,
        "channel": 5,
        "type": "channel",
        "noteNumber": 63,
        "velocity": 0,
        "subtype": "noteOff"
      },
      {
        "deltaTime": 0,
        "channel": 5,
        "type": "channel",
        "noteNumber": 63,
        "velocity": 127,
        "subtype": "noteOn"
      },
      {
        "deltaTime": 0,
        "channel": 5,
        "type": "channel",
        "noteNumber": 65,
        "velocity": 127,
        "subtype": "noteOn"
      },
      {
        "deltaTime": 480,
        "channel": 5,
        "type": "channel",
        "noteNumber": 65,
        "velocity": 0,
        "subtype": "noteOff"
      },
      {
        "deltaTime": 0,
        "channel": 5,
        "type": "channel",
        "noteNumber": 63,
        "velocity": 0,
        "subtype": "noteOff"
      },
      {
        "deltaTime": 0,
        "channel": 5,
        "type": "channel",
        "noteNumber": 63,
        "velocity": 127,
        "subtype": "noteOn"
      },
      {
        "deltaTime": 0,
        "channel": 5,
        "type": "channel",
        "noteNumber": 65,
        "velocity": 127,
        "subtype": "noteOn"
      },
      {
        "deltaTime": 480,
        "channel": 5,
        "type": "channel",
        "noteNumber": 65,
        "velocity": 0,
        "subtype": "noteOff"
      },
      {
        "deltaTime": 0,
        "channel": 5,
        "type": "channel",
        "noteNumber": 63,
        "velocity": 0,
        "subtype": "noteOff"
      },
      {
        "deltaTime": 0,
        "channel": 5,
        "type": "channel",
        "noteNumber": 63,
        "velocity": 127,
        "subtype": "noteOn"
      },
      {
        "deltaTime": 0,
        "channel": 5,
        "type": "channel",
        "noteNumber": 67,
        "velocity": 127,
        "subtype": "noteOn"
      },
      {
        "deltaTime": 480,
        "channel": 5,
        "type": "channel",
        "noteNumber": 67,
        "velocity": 0,
        "subtype": "noteOff"
      },
      {
        "deltaTime": 0,
        "channel": 5,
        "type": "channel",
        "noteNumber": 63,
        "velocity": 0,
        "subtype": "noteOff"
      },
      {
        "deltaTime": 0,
        "channel": 5,
        "type": "channel",
        "noteNumber": 63,
        "velocity": 127,
        "subtype": "noteOn"
      },
      {
        "deltaTime": 0,
        "channel": 5,
        "type": "channel",
        "noteNumber": 67,
        "velocity": 127,
        "subtype": "noteOn"
      },
      {
        "deltaTime": 480,
        "channel": 5,
        "type": "channel",
        "noteNumber": 67,
        "velocity": 0,
        "subtype": "noteOff"
      },
      {
        "deltaTime": 0,
        "channel": 5,
        "type": "channel",
        "noteNumber": 63,
        "velocity": 0,
        "subtype": "noteOff"
      },
      {
        "deltaTime": 0,
        "channel": 5,
        "type": "channel",
        "noteNumber": 63,
        "velocity": 127,
        "subtype": "noteOn"
      },
      {
        "deltaTime": 0,
        "channel": 5,
        "type": "channel",
        "noteNumber": 70,
        "velocity": 127,
        "subtype": "noteOn"
      },
      {
        "deltaTime": 480,
        "channel": 5,
        "type": "channel",
        "noteNumber": 70,
        "velocity": 0,
        "subtype": "noteOff"
      },
      {
        "deltaTime": 0,
        "channel": 5,
        "type": "channel",
        "noteNumber": 63,
        "velocity": 0,
        "subtype": "noteOff"
      },
      {
        "deltaTime": 0,
        "channel": 5,
        "type": "channel",
        "noteNumber": 63,
        "velocity": 127,
        "subtype": "noteOn"
      },
      {
        "deltaTime": 0,
        "channel": 5,
        "type": "channel",
        "noteNumber": 70,
        "velocity": 127,
        "subtype": "noteOn"
      },
      {
        "deltaTime": 480,
        "channel": 5,
        "type": "channel",
        "noteNumber": 70,
        "velocity": 0,
        "subtype": "noteOff"
      },
      {
        "deltaTime": 0,
        "channel": 5,
        "type": "channel",
        "noteNumber": 63,
        "velocity": 0,
        "subtype": "noteOff"
      },
      {
        "deltaTime": 0,
        "channel": 5,
        "type": "channel",
        "noteNumber": 63,
        "velocity": 127,
        "subtype": "noteOn"
      },
      {
        "deltaTime": 0,
        "channel": 5,
        "type": "channel",
        "noteNumber": 67,
        "velocity": 127,
        "subtype": "noteOn"
      },
      {
        "deltaTime": 480,
        "channel": 5,
        "type": "channel",
        "noteNumber": 67,
        "velocity": 0,
        "subtype": "noteOff"
      },
      {
        "deltaTime": 0,
        "channel": 5,
        "type": "channel",
        "noteNumber": 63,
        "velocity": 0,
        "subtype": "noteOff"
      },
      {
        "deltaTime": 0,
        "channel": 5,
        "type": "channel",
        "noteNumber": 63,
        "velocity": 127,
        "subtype": "noteOn"
      },
      {
        "deltaTime": 0,
        "channel": 5,
        "type": "channel",
        "noteNumber": 67,
        "velocity": 127,
        "subtype": "noteOn"
      },
      {
        "deltaTime": 480,
        "channel": 5,
        "type": "channel",
        "noteNumber": 67,
        "velocity": 0,
        "subtype": "noteOff"
      },
      {
        "deltaTime": 0,
        "channel": 5,
        "type": "channel",
        "noteNumber": 63,
        "velocity": 0,
        "subtype": "noteOff"
      },
      {
        "deltaTime": 0,
        "channel": 5,
        "type": "channel",
        "noteNumber": 63,
        "velocity": 127,
        "subtype": "noteOn"
      },
      {
        "deltaTime": 0,
        "channel": 5,
        "type": "channel",
        "noteNumber": 67,
        "velocity": 127,
        "subtype": "noteOn"
      },
      {
        "deltaTime": 480,
        "channel": 5,
        "type": "channel",
        "noteNumber": 67,
        "velocity": 0,
        "subtype": "noteOff"
      },
      {
        "deltaTime": 0,
        "channel": 5,
        "type": "channel",
        "noteNumber": 63,
        "velocity": 0,
        "subtype": "noteOff"
      },
      {
        "deltaTime": 0,
        "channel": 5,
        "type": "channel",
        "noteNumber": 63,
        "velocity": 127,
        "subtype": "noteOn"
      },
      {
        "deltaTime": 0,
        "channel": 5,
        "type": "channel",
        "noteNumber": 67,
        "velocity": 127,
        "subtype": "noteOn"
      },
      {
        "deltaTime": 480,
        "channel": 5,
        "type": "channel",
        "noteNumber": 67,
        "velocity": 0,
        "subtype": "noteOff"
      },
      {
        "deltaTime": 0,
        "channel": 5,
        "type": "channel",
        "noteNumber": 63,
        "velocity": 0,
        "subtype": "noteOff"
      },
      {
        "deltaTime": 0,
        "channel": 5,
        "type": "channel",
        "noteNumber": 63,
        "velocity": 127,
        "subtype": "noteOn"
      },
      {
        "deltaTime": 0,
        "channel": 5,
        "type": "channel",
        "noteNumber": 65,
        "velocity": 127,
        "subtype": "noteOn"
      },
      {
        "deltaTime": 480,
        "channel": 5,
        "type": "channel",
        "noteNumber": 65,
        "velocity": 0,
        "subtype": "noteOff"
      },
      {
        "deltaTime": 0,
        "channel": 5,
        "type": "channel",
        "noteNumber": 63,
        "velocity": 0,
        "subtype": "noteOff"
      },
      {
        "deltaTime": 0,
        "channel": 5,
        "type": "channel",
        "noteNumber": 63,
        "velocity": 127,
        "subtype": "noteOn"
      },
      {
        "deltaTime": 0,
        "channel": 5,
        "type": "channel",
        "noteNumber": 65,
        "velocity": 127,
        "subtype": "noteOn"
      },
      {
        "deltaTime": 480,
        "channel": 5,
        "type": "channel",
        "noteNumber": 65,
        "velocity": 0,
        "subtype": "noteOff"
      },
      {
        "deltaTime": 0,
        "channel": 5,
        "type": "channel",
        "noteNumber": 63,
        "velocity": 0,
        "subtype": "noteOff"
      },
      {
        "deltaTime": 0,
        "channel": 5,
        "type": "channel",
        "noteNumber": 63,
        "velocity": 127,
        "subtype": "noteOn"
      },
      {
        "deltaTime": 0,
        "channel": 5,
        "type": "channel",
        "noteNumber": 65,
        "velocity": 127,
        "subtype": "noteOn"
      },
      {
        "deltaTime": 480,
        "channel": 5,
        "type": "channel",
        "noteNumber": 65,
        "velocity": 0,
        "subtype": "noteOff"
      },
      {
        "deltaTime": 0,
        "channel": 5,
        "type": "channel",
        "noteNumber": 63,
        "velocity": 0,
        "subtype": "noteOff"
      },
      {
        "deltaTime": 0,
        "channel": 5,
        "type": "channel",
        "noteNumber": 63,
        "velocity": 127,
        "subtype": "noteOn"
      },
      {
        "deltaTime": 0,
        "channel": 5,
        "type": "channel",
        "noteNumber": 65,
        "velocity": 127,
        "subtype": "noteOn"
      },
      {
        "deltaTime": 480,
        "channel": 5,
        "type": "channel",
        "noteNumber": 65,
        "velocity": 0,
        "subtype": "noteOff"
      },
      {
        "deltaTime": 0,
        "channel": 5,
        "type": "channel",
        "noteNumber": 63,
        "velocity": 0,
        "subtype": "noteOff"
      },
      {
        "deltaTime": 0,
        "channel": 5,
        "type": "channel",
        "noteNumber": 63,
        "velocity": 127,
        "subtype": "noteOn"
      },
      {
        "deltaTime": 0,
        "channel": 5,
        "type": "channel",
        "noteNumber": 63,
        "velocity": 127,
        "subtype": "noteOn"
      },
      {
        "deltaTime": 480,
        "channel": 5,
        "type": "channel",
        "noteNumber": 63,
        "velocity": 0,
        "subtype": "noteOff"
      },
      {
        "deltaTime": 0,
        "channel": 5,
        "type": "channel",
        "noteNumber": 63,
        "velocity": 0,
        "subtype": "noteOff"
      },
      {
        "deltaTime": 0,
        "channel": 5,
        "type": "channel",
        "noteNumber": 63,
        "velocity": 127,
        "subtype": "noteOn"
      },
      {
        "deltaTime": 0,
        "channel": 5,
        "type": "channel",
        "noteNumber": 63,
        "velocity": 127,
        "subtype": "noteOn"
      },
      {
        "deltaTime": 480,
        "channel": 5,
        "type": "channel",
        "noteNumber": 63,
        "velocity": 0,
        "subtype": "noteOff"
      },
      {
        "deltaTime": 0,
        "channel": 5,
        "type": "channel",
        "noteNumber": 63,
        "velocity": 0,
        "subtype": "noteOff"
      },
      {
        "deltaTime": 0,
        "channel": 5,
        "type": "channel",
        "noteNumber": 63,
        "velocity": 127,
        "subtype": "noteOn"
      },
      {
        "deltaTime": 0,
        "channel": 5,
        "type": "channel",
        "noteNumber": 65,
        "velocity": 127,
        "subtype": "noteOn"
      },
      {
        "deltaTime": 480,
        "channel": 5,
        "type": "channel",
        "noteNumber": 65,
        "velocity": 0,
        "subtype": "noteOff"
      },
      {
        "deltaTime": 0,
        "channel": 5,
        "type": "channel",
        "noteNumber": 63,
        "velocity": 0,
        "subtype": "noteOff"
      },
      {
        "deltaTime": 0,
        "channel": 5,
        "type": "channel",
        "noteNumber": 63,
        "velocity": 127,
        "subtype": "noteOn"
      },
      {
        "deltaTime": 0,
        "channel": 5,
        "type": "channel",
        "noteNumber": 65,
        "velocity": 127,
        "subtype": "noteOn"
      },
      {
        "deltaTime": 480,
        "channel": 5,
        "type": "channel",
        "noteNumber": 65,
        "velocity": 0,
        "subtype": "noteOff"
      },
      {
        "deltaTime": 0,
        "channel": 5,
        "type": "channel",
        "noteNumber": 63,
        "velocity": 0,
        "subtype": "noteOff"
      },
      {
        "deltaTime": 0,
        "channel": 5,
        "type": "channel",
        "noteNumber": 63,
        "velocity": 127,
        "subtype": "noteOn"
      },
      {
        "deltaTime": 0,
        "channel": 5,
        "type": "channel",
        "noteNumber": 67,
        "velocity": 127,
        "subtype": "noteOn"
      },
      {
        "deltaTime": 480,
        "channel": 5,
        "type": "channel",
        "noteNumber": 67,
        "velocity": 0,
        "subtype": "noteOff"
      },
      {
        "deltaTime": 0,
        "channel": 5,
        "type": "channel",
        "noteNumber": 63,
        "velocity": 0,
        "subtype": "noteOff"
      },
      {
        "deltaTime": 0,
        "channel": 5,
        "type": "channel",
        "noteNumber": 63,
        "velocity": 127,
        "subtype": "noteOn"
      },
      {
        "deltaTime": 0,
        "channel": 5,
        "type": "channel",
        "noteNumber": 67,
        "velocity": 127,
        "subtype": "noteOn"
      },
      {
        "deltaTime": 480,
        "channel": 5,
        "type": "channel",
        "noteNumber": 67,
        "velocity": 0,
        "subtype": "noteOff"
      },
      {
        "deltaTime": 0,
        "channel": 5,
        "type": "channel",
        "noteNumber": 63,
        "velocity": 0,
        "subtype": "noteOff"
      },
      {
        "deltaTime": 0,
        "channel": 5,
        "type": "channel",
        "noteNumber": 63,
        "velocity": 127,
        "subtype": "noteOn"
      },
      {
        "deltaTime": 0,
        "channel": 5,
        "type": "channel",
        "noteNumber": 70,
        "velocity": 127,
        "subtype": "noteOn"
      },
      {
        "deltaTime": 480,
        "channel": 5,
        "type": "channel",
        "noteNumber": 70,
        "velocity": 0,
        "subtype": "noteOff"
      },
      {
        "deltaTime": 0,
        "channel": 5,
        "type": "channel",
        "noteNumber": 63,
        "velocity": 0,
        "subtype": "noteOff"
      },
      {
        "deltaTime": 0,
        "channel": 5,
        "type": "channel",
        "noteNumber": 63,
        "velocity": 127,
        "subtype": "noteOn"
      },
      {
        "deltaTime": 0,
        "channel": 5,
        "type": "channel",
        "noteNumber": 70,
        "velocity": 127,
        "subtype": "noteOn"
      },
      {
        "deltaTime": 480,
        "channel": 5,
        "type": "channel",
        "noteNumber": 70,
        "velocity": 0,
        "subtype": "noteOff"
      },
      {
        "deltaTime": 0,
        "channel": 5,
        "type": "channel",
        "noteNumber": 63,
        "velocity": 0,
        "subtype": "noteOff"
      },
      {
        "deltaTime": 0,
        "channel": 5,
        "type": "channel",
        "noteNumber": 63,
        "velocity": 127,
        "subtype": "noteOn"
      },
      {
        "deltaTime": 0,
        "channel": 5,
        "type": "channel",
        "noteNumber": 65,
        "velocity": 127,
        "subtype": "noteOn"
      },
      {
        "deltaTime": 480,
        "channel": 5,
        "type": "channel",
        "noteNumber": 65,
        "velocity": 0,
        "subtype": "noteOff"
      },
      {
        "deltaTime": 0,
        "channel": 5,
        "type": "channel",
        "noteNumber": 63,
        "velocity": 0,
        "subtype": "noteOff"
      },
      {
        "deltaTime": 0,
        "channel": 5,
        "type": "channel",
        "noteNumber": 63,
        "velocity": 127,
        "subtype": "noteOn"
      },
      {
        "deltaTime": 0,
        "channel": 5,
        "type": "channel",
        "noteNumber": 65,
        "velocity": 127,
        "subtype": "noteOn"
      },
      {
        "deltaTime": 480,
        "channel": 5,
        "type": "channel",
        "noteNumber": 65,
        "velocity": 0,
        "subtype": "noteOff"
      },
      {
        "deltaTime": 0,
        "channel": 5,
        "type": "channel",
        "noteNumber": 63,
        "velocity": 0,
        "subtype": "noteOff"
      },
      {
        "deltaTime": 0,
        "channel": 5,
        "type": "channel",
        "noteNumber": 63,
        "velocity": 127,
        "subtype": "noteOn"
      },
      {
        "deltaTime": 0,
        "channel": 5,
        "type": "channel",
        "noteNumber": 65,
        "velocity": 127,
        "subtype": "noteOn"
      },
      {
        "deltaTime": 480,
        "channel": 5,
        "type": "channel",
        "noteNumber": 65,
        "velocity": 0,
        "subtype": "noteOff"
      },
      {
        "deltaTime": 0,
        "channel": 5,
        "type": "channel",
        "noteNumber": 63,
        "velocity": 0,
        "subtype": "noteOff"
      },
      {
        "deltaTime": 0,
        "channel": 5,
        "type": "channel",
        "noteNumber": 63,
        "velocity": 127,
        "subtype": "noteOn"
      },
      {
        "deltaTime": 0,
        "channel": 5,
        "type": "channel",
        "noteNumber": 65,
        "velocity": 127,
        "subtype": "noteOn"
      },
      {
        "deltaTime": 480,
        "channel": 5,
        "type": "channel",
        "noteNumber": 65,
        "velocity": 0,
        "subtype": "noteOff"
      },
      {
        "deltaTime": 0,
        "channel": 5,
        "type": "channel",
        "noteNumber": 63,
        "velocity": 0,
        "subtype": "noteOff"
      },
      {
        "deltaTime": 0,
        "channel": 5,
        "type": "channel",
        "noteNumber": 63,
        "velocity": 127,
        "subtype": "noteOn"
      },
      {
        "deltaTime": 0,
        "channel": 5,
        "type": "channel",
        "noteNumber": 65,
        "velocity": 127,
        "subtype": "noteOn"
      },
      {
        "deltaTime": 480,
        "channel": 5,
        "type": "channel",
        "noteNumber": 65,
        "velocity": 0,
        "subtype": "noteOff"
      },
      {
        "deltaTime": 0,
        "channel": 5,
        "type": "channel",
        "noteNumber": 63,
        "velocity": 0,
        "subtype": "noteOff"
      },
      {
        "deltaTime": 0,
        "channel": 5,
        "type": "channel",
        "noteNumber": 63,
        "velocity": 127,
        "subtype": "noteOn"
      },
      {
        "deltaTime": 0,
        "channel": 5,
        "type": "channel",
        "noteNumber": 65,
        "velocity": 127,
        "subtype": "noteOn"
      },
      {
        "deltaTime": 480,
        "channel": 5,
        "type": "channel",
        "noteNumber": 65,
        "velocity": 0,
        "subtype": "noteOff"
      },
      {
        "deltaTime": 0,
        "channel": 5,
        "type": "channel",
        "noteNumber": 63,
        "velocity": 0,
        "subtype": "noteOff"
      },
      {
        "deltaTime": 0,
        "channel": 5,
        "type": "channel",
        "noteNumber": 63,
        "velocity": 127,
        "subtype": "noteOn"
      },
      {
        "deltaTime": 0,
        "channel": 5,
        "type": "channel",
        "noteNumber": 65,
        "velocity": 127,
        "subtype": "noteOn"
      },
      {
        "deltaTime": 480,
        "channel": 5,
        "type": "channel",
        "noteNumber": 65,
        "velocity": 0,
        "subtype": "noteOff"
      },
      {
        "deltaTime": 0,
        "channel": 5,
        "type": "channel",
        "noteNumber": 58,
        "velocity": 127,
        "subtype": "noteOn"
      },
      {
        "deltaTime": 480,
        "channel": 5,
        "type": "channel",
        "noteNumber": 63,
        "velocity": 0,
        "subtype": "noteOff"
      },
      {
        "deltaTime": 0,
        "channel": 5,
        "type": "channel",
        "noteNumber": 79,
        "velocity": 127,
        "subtype": "noteOn"
      },
      {
        "deltaTime": 960,
        "channel": 5,
        "type": "channel",
        "noteNumber": 70,
        "velocity": 127,
        "subtype": "noteOn"
      },
      {
        "deltaTime": 480,
        "channel": 5,
        "type": "channel",
        "noteNumber": 79,
        "velocity": 0,
        "subtype": "noteOff"
      },
      {
        "deltaTime": 0,
        "channel": 5,
        "type": "channel",
        "noteNumber": 79,
        "velocity": 127,
        "subtype": "noteOn"
      },
      {
        "deltaTime": 1440,
        "channel": 5,
        "type": "channel",
        "noteNumber": 70,
        "velocity": 0,
        "subtype": "noteOff"
      },
      {
        "deltaTime": 0,
        "channel": 5,
        "type": "channel",
        "noteNumber": 70,
        "velocity": 127,
        "subtype": "noteOn"
      },
      {
        "deltaTime": 480,
        "channel": 5,
        "type": "channel",
        "noteNumber": 58,
        "velocity": 0,
        "subtype": "noteOff"
      },
      {
        "deltaTime": 0,
        "channel": 5,
        "type": "channel",
        "noteNumber": 74,
        "velocity": 127,
        "subtype": "noteOn"
      },
      {
        "deltaTime": 960,
        "channel": 5,
        "type": "channel",
        "noteNumber": 74,
        "velocity": 0,
        "subtype": "noteOff"
      },
      {
        "deltaTime": 0,
        "channel": 5,
        "type": "channel",
        "noteNumber": 75,
        "velocity": 127,
        "subtype": "noteOn"
      },
      {
        "deltaTime": 960,
        "channel": 5,
        "type": "channel",
        "noteNumber": 75,
        "velocity": 0,
        "subtype": "noteOff"
      },
      {
        "deltaTime": 0,
        "channel": 5,
        "type": "channel",
        "noteNumber": 79,
        "velocity": 0,
        "subtype": "noteOff"
      },
      {
        "deltaTime": 0,
        "channel": 5,
        "type": "channel",
        "noteNumber": 74,
        "velocity": 127,
        "subtype": "noteOn"
      },
      {
        "deltaTime": 960,
        "channel": 5,
        "type": "channel",
        "noteNumber": 74,
        "velocity": 0,
        "subtype": "noteOff"
      },
      {
        "deltaTime": 0,
        "channel": 5,
        "type": "channel",
        "noteNumber": 75,
        "velocity": 127,
        "subtype": "noteOn"
      },
      {
        "deltaTime": 480,
        "channel": 5,
        "type": "channel",
        "noteNumber": 75,
        "velocity": 0,
        "subtype": "noteOff"
      },
      {
        "deltaTime": 0,
        "channel": 5,
        "type": "channel",
        "noteNumber": 70,
        "velocity": 0,
        "subtype": "noteOff"
      },
      {
        "deltaTime": 0,
        "channel": 5,
        "type": "channel",
        "noteNumber": 75,
        "velocity": 127,
        "subtype": "noteOn"
      },
      {
        "deltaTime": 480,
        "channel": 5,
        "type": "channel",
        "noteNumber": 77,
        "velocity": 127,
        "subtype": "noteOn"
      },
      {
        "deltaTime": 960,
        "channel": 5,
        "type": "channel",
        "noteNumber": 70,
        "velocity": 127,
        "subtype": "noteOn"
      },
      {
        "deltaTime": 480,
        "channel": 5,
        "type": "channel",
        "noteNumber": 70,
        "velocity": 0,
        "subtype": "noteOff"
      },
      {
        "deltaTime": 0,
        "channel": 5,
        "type": "channel",
        "noteNumber": 70,
        "velocity": 127,
        "subtype": "noteOn"
      },
      {
        "deltaTime": 480,
        "channel": 5,
        "type": "channel",
        "noteNumber": 77,
        "velocity": 0,
        "subtype": "noteOff"
      },
      {
        "deltaTime": 0,
        "channel": 5,
        "type": "channel",
        "noteNumber": 77,
        "velocity": 127,
        "subtype": "noteOn"
      },
      {
        "deltaTime": 960,
        "channel": 5,
        "type": "channel",
        "noteNumber": 70,
        "velocity": 0,
        "subtype": "noteOff"
      },
      {
        "deltaTime": 0,
        "channel": 5,
        "type": "channel",
        "noteNumber": 70,
        "velocity": 127,
        "subtype": "noteOn"
      },
      {
        "deltaTime": 480,
        "channel": 5,
        "type": "channel",
        "noteNumber": 70,
        "velocity": 0,
        "subtype": "noteOff"
      },
      {
        "deltaTime": 0,
        "channel": 5,
        "type": "channel",
        "noteNumber": 75,
        "velocity": 0,
        "subtype": "noteOff"
      },
      {
        "deltaTime": 0,
        "channel": 5,
        "type": "channel",
        "noteNumber": 70,
        "velocity": 127,
        "subtype": "noteOn"
      },
      {
        "deltaTime": 480,
        "channel": 5,
        "type": "channel",
        "noteNumber": 77,
        "velocity": 0,
        "subtype": "noteOff"
      },
      {
        "deltaTime": 0,
        "channel": 5,
        "type": "channel",
        "noteNumber": 77,
        "velocity": 127,
        "subtype": "noteOn"
      },
      {
        "deltaTime": 480,
        "channel": 5,
        "type": "channel",
        "noteNumber": 77,
        "velocity": 0,
        "subtype": "noteOff"
      },
      {
        "deltaTime": 0,
        "channel": 5,
        "type": "channel",
        "noteNumber": 77,
        "velocity": 127,
        "subtype": "noteOn"
      },
      {
        "deltaTime": 480,
        "channel": 5,
        "type": "channel",
        "noteNumber": 70,
        "velocity": 0,
        "subtype": "noteOff"
      },
      {
        "deltaTime": 0,
        "channel": 5,
        "type": "channel",
        "noteNumber": 70,
        "velocity": 127,
        "subtype": "noteOn"
      },
      {
        "deltaTime": 480,
        "channel": 5,
        "type": "channel",
        "noteNumber": 70,
        "velocity": 0,
        "subtype": "noteOff"
      },
      {
        "deltaTime": 0,
        "channel": 5,
        "type": "channel",
        "noteNumber": 70,
        "velocity": 127,
        "subtype": "noteOn"
      },
      {
        "deltaTime": 480,
        "channel": 5,
        "type": "channel",
        "noteNumber": 77,
        "velocity": 0,
        "subtype": "noteOff"
      },
      {
        "deltaTime": 0,
        "channel": 5,
        "type": "channel",
        "noteNumber": 77,
        "velocity": 127,
        "subtype": "noteOn"
      },
      {
        "deltaTime": 960,
        "channel": 5,
        "type": "channel",
        "noteNumber": 77,
        "velocity": 0,
        "subtype": "noteOff"
      },
      {
        "deltaTime": 0,
        "channel": 5,
        "type": "channel",
        "noteNumber": 70,
        "velocity": 0,
        "subtype": "noteOff"
      },
      {
        "deltaTime": 0,
        "channel": 5,
        "type": "channel",
        "noteNumber": 70,
        "velocity": 127,
        "subtype": "noteOn"
      },
      {
        "deltaTime": 480,
        "channel": 5,
        "type": "channel",
        "noteNumber": 70,
        "velocity": 0,
        "subtype": "noteOff"
      },
      {
        "deltaTime": 0,
        "channel": 5,
        "type": "channel",
        "noteNumber": 70,
        "velocity": 127,
        "subtype": "noteOn"
      },
      {
        "deltaTime": 480,
        "channel": 5,
        "type": "channel",
        "noteNumber": 70,
        "velocity": 0,
        "subtype": "noteOff"
      },
      {
        "deltaTime": 0,
        "channel": 5,
        "type": "channel",
        "noteNumber": 70,
        "velocity": 127,
        "subtype": "noteOn"
      },
      {
        "deltaTime": 480,
        "channel": 5,
        "type": "channel",
        "noteNumber": 70,
        "velocity": 0,
        "subtype": "noteOff"
      },
      {
        "deltaTime": 23040,
        "channel": 5,
        "type": "channel",
        "subtype": "programChange",
        "programNumber": 27
      },
      {
        "deltaTime": 0,
        "channel": 5,
        "type": "channel",
        "subtype": "programChange",
        "programNumber": 27
      },
      {
        "deltaTime": 0,
        "channel": 5,
        "type": "channel",
        "subtype": "controller",
        "controllerType": 10,
        "value": 0
      },
      {
        "deltaTime": 0,
        "channel": 5,
        "type": "channel",
        "subtype": "controller",
        "controllerType": 10,
        "value": 0
      },
      {
        "deltaTime": 0,
        "channel": 5,
        "type": "channel",
        "noteNumber": 70,
        "velocity": 127,
        "subtype": "noteOn"
      },
      {
        "deltaTime": 0,
        "channel": 5,
        "type": "channel",
        "noteNumber": 67,
        "velocity": 127,
        "subtype": "noteOn"
      },
      {
        "deltaTime": 0,
        "channel": 5,
        "type": "channel",
        "noteNumber": 63,
        "velocity": 127,
        "subtype": "noteOn"
      },
      {
        "deltaTime": 480,
        "channel": 5,
        "type": "channel",
        "noteNumber": 63,
        "velocity": 0,
        "subtype": "noteOff"
      },
      {
        "deltaTime": 0,
        "channel": 5,
        "type": "channel",
        "noteNumber": 67,
        "velocity": 0,
        "subtype": "noteOff"
      },
      {
        "deltaTime": 0,
        "channel": 5,
        "type": "channel",
        "noteNumber": 70,
        "velocity": 0,
        "subtype": "noteOff"
      },
      {
        "deltaTime": 2400,
        "channel": 5,
        "type": "channel",
        "noteNumber": 70,
        "velocity": 127,
        "subtype": "noteOn"
      },
      {
        "deltaTime": 0,
        "channel": 5,
        "type": "channel",
        "noteNumber": 65,
        "velocity": 127,
        "subtype": "noteOn"
      },
      {
        "deltaTime": 0,
        "channel": 5,
        "type": "channel",
        "noteNumber": 63,
        "velocity": 127,
        "subtype": "noteOn"
      },
      {
        "deltaTime": 480,
        "channel": 5,
        "type": "channel",
        "noteNumber": 63,
        "velocity": 0,
        "subtype": "noteOff"
      },
      {
        "deltaTime": 0,
        "channel": 5,
        "type": "channel",
        "noteNumber": 65,
        "velocity": 0,
        "subtype": "noteOff"
      },
      {
        "deltaTime": 0,
        "channel": 5,
        "type": "channel",
        "noteNumber": 70,
        "velocity": 0,
        "subtype": "noteOff"
      },
      {
        "deltaTime": 2400,
        "channel": 5,
        "type": "channel",
        "noteNumber": 70,
        "velocity": 127,
        "subtype": "noteOn"
      },
      {
        "deltaTime": 0,
        "channel": 5,
        "type": "channel",
        "noteNumber": 65,
        "velocity": 127,
        "subtype": "noteOn"
      },
      {
        "deltaTime": 0,
        "channel": 5,
        "type": "channel",
        "noteNumber": 63,
        "velocity": 127,
        "subtype": "noteOn"
      },
      {
        "deltaTime": 480,
        "channel": 5,
        "type": "channel",
        "noteNumber": 63,
        "velocity": 0,
        "subtype": "noteOff"
      },
      {
        "deltaTime": 0,
        "channel": 5,
        "type": "channel",
        "noteNumber": 65,
        "velocity": 0,
        "subtype": "noteOff"
      },
      {
        "deltaTime": 0,
        "channel": 5,
        "type": "channel",
        "noteNumber": 70,
        "velocity": 0,
        "subtype": "noteOff"
      },
      {
        "deltaTime": 2400,
        "channel": 5,
        "type": "channel",
        "noteNumber": 70,
        "velocity": 127,
        "subtype": "noteOn"
      },
      {
        "deltaTime": 0,
        "channel": 5,
        "type": "channel",
        "noteNumber": 65,
        "velocity": 127,
        "subtype": "noteOn"
      },
      {
        "deltaTime": 0,
        "channel": 5,
        "type": "channel",
        "noteNumber": 63,
        "velocity": 127,
        "subtype": "noteOn"
      },
      {
        "deltaTime": 480,
        "channel": 5,
        "type": "channel",
        "noteNumber": 63,
        "velocity": 0,
        "subtype": "noteOff"
      },
      {
        "deltaTime": 0,
        "channel": 5,
        "type": "channel",
        "noteNumber": 65,
        "velocity": 0,
        "subtype": "noteOff"
      },
      {
        "deltaTime": 0,
        "channel": 5,
        "type": "channel",
        "noteNumber": 70,
        "velocity": 0,
        "subtype": "noteOff"
      },
      {
        "deltaTime": 2400,
        "channel": 5,
        "type": "channel",
        "noteNumber": 70,
        "velocity": 127,
        "subtype": "noteOn"
      },
      {
        "deltaTime": 0,
        "channel": 5,
        "type": "channel",
        "noteNumber": 67,
        "velocity": 127,
        "subtype": "noteOn"
      },
      {
        "deltaTime": 0,
        "channel": 5,
        "type": "channel",
        "noteNumber": 63,
        "velocity": 127,
        "subtype": "noteOn"
      },
      {
        "deltaTime": 480,
        "channel": 5,
        "type": "channel",
        "noteNumber": 63,
        "velocity": 0,
        "subtype": "noteOff"
      },
      {
        "deltaTime": 0,
        "channel": 5,
        "type": "channel",
        "noteNumber": 67,
        "velocity": 0,
        "subtype": "noteOff"
      },
      {
        "deltaTime": 0,
        "channel": 5,
        "type": "channel",
        "noteNumber": 70,
        "velocity": 0,
        "subtype": "noteOff"
      },
      {
        "deltaTime": 2400,
        "channel": 5,
        "type": "channel",
        "noteNumber": 70,
        "velocity": 127,
        "subtype": "noteOn"
      },
      {
        "deltaTime": 0,
        "channel": 5,
        "type": "channel",
        "noteNumber": 65,
        "velocity": 127,
        "subtype": "noteOn"
      },
      {
        "deltaTime": 0,
        "channel": 5,
        "type": "channel",
        "noteNumber": 63,
        "velocity": 127,
        "subtype": "noteOn"
      },
      {
        "deltaTime": 480,
        "channel": 5,
        "type": "channel",
        "noteNumber": 63,
        "velocity": 0,
        "subtype": "noteOff"
      },
      {
        "deltaTime": 0,
        "channel": 5,
        "type": "channel",
        "noteNumber": 65,
        "velocity": 0,
        "subtype": "noteOff"
      },
      {
        "deltaTime": 0,
        "channel": 5,
        "type": "channel",
        "noteNumber": 70,
        "velocity": 0,
        "subtype": "noteOff"
      },
      {
        "deltaTime": 2400,
        "channel": 5,
        "type": "channel",
        "noteNumber": 70,
        "velocity": 127,
        "subtype": "noteOn"
      },
      {
        "deltaTime": 0,
        "channel": 5,
        "type": "channel",
        "noteNumber": 65,
        "velocity": 127,
        "subtype": "noteOn"
      },
      {
        "deltaTime": 0,
        "channel": 5,
        "type": "channel",
        "noteNumber": 63,
        "velocity": 127,
        "subtype": "noteOn"
      },
      {
        "deltaTime": 480,
        "channel": 5,
        "type": "channel",
        "noteNumber": 63,
        "velocity": 0,
        "subtype": "noteOff"
      },
      {
        "deltaTime": 0,
        "channel": 5,
        "type": "channel",
        "noteNumber": 65,
        "velocity": 0,
        "subtype": "noteOff"
      },
      {
        "deltaTime": 0,
        "channel": 5,
        "type": "channel",
        "noteNumber": 70,
        "velocity": 0,
        "subtype": "noteOff"
      },
      {
        "deltaTime": 2400,
        "channel": 5,
        "type": "channel",
        "noteNumber": 70,
        "velocity": 127,
        "subtype": "noteOn"
      },
      {
        "deltaTime": 0,
        "channel": 5,
        "type": "channel",
        "noteNumber": 65,
        "velocity": 127,
        "subtype": "noteOn"
      },
      {
        "deltaTime": 0,
        "channel": 5,
        "type": "channel",
        "noteNumber": 63,
        "velocity": 127,
        "subtype": "noteOn"
      },
      {
        "deltaTime": 480,
        "channel": 5,
        "type": "channel",
        "noteNumber": 63,
        "velocity": 0,
        "subtype": "noteOff"
      },
      {
        "deltaTime": 0,
        "channel": 5,
        "type": "channel",
        "noteNumber": 65,
        "velocity": 0,
        "subtype": "noteOff"
      },
      {
        "deltaTime": 0,
        "channel": 5,
        "type": "channel",
        "noteNumber": 70,
        "velocity": 0,
        "subtype": "noteOff"
      },
      {
        "deltaTime": 2400,
        "channel": 5,
        "type": "channel",
        "noteNumber": 70,
        "velocity": 127,
        "subtype": "noteOn"
      },
      {
        "deltaTime": 0,
        "channel": 5,
        "type": "channel",
        "noteNumber": 67,
        "velocity": 127,
        "subtype": "noteOn"
      },
      {
        "deltaTime": 0,
        "channel": 5,
        "type": "channel",
        "noteNumber": 63,
        "velocity": 127,
        "subtype": "noteOn"
      },
      {
        "deltaTime": 480,
        "channel": 5,
        "type": "channel",
        "noteNumber": 63,
        "velocity": 0,
        "subtype": "noteOff"
      },
      {
        "deltaTime": 0,
        "channel": 5,
        "type": "channel",
        "noteNumber": 67,
        "velocity": 0,
        "subtype": "noteOff"
      },
      {
        "deltaTime": 0,
        "channel": 5,
        "type": "channel",
        "noteNumber": 70,
        "velocity": 0,
        "subtype": "noteOff"
      },
      {
        "deltaTime": 2400,
        "channel": 5,
        "type": "channel",
        "noteNumber": 70,
        "velocity": 127,
        "subtype": "noteOn"
      },
      {
        "deltaTime": 0,
        "channel": 5,
        "type": "channel",
        "noteNumber": 65,
        "velocity": 127,
        "subtype": "noteOn"
      },
      {
        "deltaTime": 0,
        "channel": 5,
        "type": "channel",
        "noteNumber": 63,
        "velocity": 127,
        "subtype": "noteOn"
      },
      {
        "deltaTime": 480,
        "channel": 5,
        "type": "channel",
        "noteNumber": 63,
        "velocity": 0,
        "subtype": "noteOff"
      },
      {
        "deltaTime": 0,
        "channel": 5,
        "type": "channel",
        "noteNumber": 65,
        "velocity": 0,
        "subtype": "noteOff"
      },
      {
        "deltaTime": 0,
        "channel": 5,
        "type": "channel",
        "noteNumber": 70,
        "velocity": 0,
        "subtype": "noteOff"
      },
      {
        "deltaTime": 2400,
        "channel": 5,
        "type": "channel",
        "noteNumber": 70,
        "velocity": 127,
        "subtype": "noteOn"
      },
      {
        "deltaTime": 0,
        "channel": 5,
        "type": "channel",
        "noteNumber": 65,
        "velocity": 127,
        "subtype": "noteOn"
      },
      {
        "deltaTime": 0,
        "channel": 5,
        "type": "channel",
        "noteNumber": 63,
        "velocity": 127,
        "subtype": "noteOn"
      },
      {
        "deltaTime": 480,
        "channel": 5,
        "type": "channel",
        "noteNumber": 63,
        "velocity": 0,
        "subtype": "noteOff"
      },
      {
        "deltaTime": 0,
        "channel": 5,
        "type": "channel",
        "noteNumber": 65,
        "velocity": 0,
        "subtype": "noteOff"
      },
      {
        "deltaTime": 0,
        "channel": 5,
        "type": "channel",
        "noteNumber": 70,
        "velocity": 0,
        "subtype": "noteOff"
      },
      {
        "deltaTime": 2400,
        "channel": 5,
        "type": "channel",
        "noteNumber": 70,
        "velocity": 127,
        "subtype": "noteOn"
      },
      {
        "deltaTime": 0,
        "channel": 5,
        "type": "channel",
        "noteNumber": 65,
        "velocity": 127,
        "subtype": "noteOn"
      },
      {
        "deltaTime": 0,
        "channel": 5,
        "type": "channel",
        "noteNumber": 63,
        "velocity": 127,
        "subtype": "noteOn"
      },
      {
        "deltaTime": 480,
        "channel": 5,
        "type": "channel",
        "noteNumber": 63,
        "velocity": 0,
        "subtype": "noteOff"
      },
      {
        "deltaTime": 0,
        "channel": 5,
        "type": "channel",
        "noteNumber": 65,
        "velocity": 0,
        "subtype": "noteOff"
      },
      {
        "deltaTime": 0,
        "channel": 5,
        "type": "channel",
        "noteNumber": 70,
        "velocity": 0,
        "subtype": "noteOff"
      },
      {
        "deltaTime": 2400,
        "channel": 5,
        "type": "channel",
        "noteNumber": 70,
        "velocity": 127,
        "subtype": "noteOn"
      },
      {
        "deltaTime": 0,
        "channel": 5,
        "type": "channel",
        "noteNumber": 67,
        "velocity": 127,
        "subtype": "noteOn"
      },
      {
        "deltaTime": 0,
        "channel": 5,
        "type": "channel",
        "noteNumber": 63,
        "velocity": 127,
        "subtype": "noteOn"
      },
      {
        "deltaTime": 480,
        "channel": 5,
        "type": "channel",
        "noteNumber": 63,
        "velocity": 0,
        "subtype": "noteOff"
      },
      {
        "deltaTime": 0,
        "channel": 5,
        "type": "channel",
        "noteNumber": 67,
        "velocity": 0,
        "subtype": "noteOff"
      },
      {
        "deltaTime": 0,
        "channel": 5,
        "type": "channel",
        "noteNumber": 70,
        "velocity": 0,
        "subtype": "noteOff"
      },
      {
        "deltaTime": 2400,
        "channel": 5,
        "type": "channel",
        "noteNumber": 70,
        "velocity": 127,
        "subtype": "noteOn"
      },
      {
        "deltaTime": 0,
        "channel": 5,
        "type": "channel",
        "noteNumber": 65,
        "velocity": 127,
        "subtype": "noteOn"
      },
      {
        "deltaTime": 0,
        "channel": 5,
        "type": "channel",
        "noteNumber": 63,
        "velocity": 127,
        "subtype": "noteOn"
      },
      {
        "deltaTime": 480,
        "channel": 5,
        "type": "channel",
        "noteNumber": 63,
        "velocity": 0,
        "subtype": "noteOff"
      },
      {
        "deltaTime": 0,
        "channel": 5,
        "type": "channel",
        "noteNumber": 65,
        "velocity": 0,
        "subtype": "noteOff"
      },
      {
        "deltaTime": 0,
        "channel": 5,
        "type": "channel",
        "noteNumber": 70,
        "velocity": 0,
        "subtype": "noteOff"
      },
      {
        "deltaTime": 2400,
        "channel": 5,
        "type": "channel",
        "noteNumber": 70,
        "velocity": 127,
        "subtype": "noteOn"
      },
      {
        "deltaTime": 0,
        "channel": 5,
        "type": "channel",
        "noteNumber": 65,
        "velocity": 127,
        "subtype": "noteOn"
      },
      {
        "deltaTime": 0,
        "channel": 5,
        "type": "channel",
        "noteNumber": 63,
        "velocity": 127,
        "subtype": "noteOn"
      },
      {
        "deltaTime": 480,
        "channel": 5,
        "type": "channel",
        "noteNumber": 63,
        "velocity": 0,
        "subtype": "noteOff"
      },
      {
        "deltaTime": 0,
        "channel": 5,
        "type": "channel",
        "noteNumber": 65,
        "velocity": 0,
        "subtype": "noteOff"
      },
      {
        "deltaTime": 0,
        "channel": 5,
        "type": "channel",
        "noteNumber": 70,
        "velocity": 0,
        "subtype": "noteOff"
      },
      {
        "deltaTime": 2400,
        "channel": 5,
        "type": "channel",
        "noteNumber": 70,
        "velocity": 127,
        "subtype": "noteOn"
      },
      {
        "deltaTime": 0,
        "channel": 5,
        "type": "channel",
        "noteNumber": 65,
        "velocity": 127,
        "subtype": "noteOn"
      },
      {
        "deltaTime": 0,
        "channel": 5,
        "type": "channel",
        "noteNumber": 63,
        "velocity": 127,
        "subtype": "noteOn"
      },
      {
        "deltaTime": 480,
        "channel": 5,
        "type": "channel",
        "noteNumber": 63,
        "velocity": 0,
        "subtype": "noteOff"
      },
      {
        "deltaTime": 0,
        "channel": 5,
        "type": "channel",
        "noteNumber": 65,
        "velocity": 0,
        "subtype": "noteOff"
      },
      {
        "deltaTime": 0,
        "channel": 5,
        "type": "channel",
        "noteNumber": 70,
        "velocity": 0,
        "subtype": "noteOff"
      },
      {
        "deltaTime": 2400,
        "channel": 5,
        "type": "channel",
        "subtype": "programChange",
        "programNumber": 30
      },
      {
        "deltaTime": 0,
        "channel": 5,
        "type": "channel",
        "subtype": "programChange",
        "programNumber": 30
      },
      {
        "deltaTime": 0,
        "channel": 5,
        "type": "channel",
        "subtype": "controller",
        "controllerType": 10,
        "value": 64
      },
      {
        "deltaTime": 0,
        "channel": 5,
        "type": "channel",
        "subtype": "controller",
        "controllerType": 10,
        "value": 64
      },
      {
        "deltaTime": 0,
        "channel": 5,
        "type": "channel",
        "noteNumber": 63,
        "velocity": 127,
        "subtype": "noteOn"
      },
      {
        "deltaTime": 0,
        "channel": 5,
        "type": "channel",
        "noteNumber": 58,
        "velocity": 127,
        "subtype": "noteOn"
      },
      {
        "deltaTime": 0,
        "channel": 5,
        "type": "channel",
        "noteNumber": 55,
        "velocity": 127,
        "subtype": "noteOn"
      },
      {
        "deltaTime": 0,
        "channel": 5,
        "type": "channel",
        "noteNumber": 51,
        "velocity": 127,
        "subtype": "noteOn"
      },
      {
        "deltaTime": 0,
        "channel": 5,
        "type": "channel",
        "noteNumber": 46,
        "velocity": 127,
        "subtype": "noteOn"
      },
      {
        "deltaTime": 0,
        "channel": 5,
        "type": "channel",
        "noteNumber": 39,
        "velocity": 127,
        "subtype": "noteOn"
      },
      {
        "deltaTime": 7680,
        "channel": 5,
        "type": "channel",
        "noteNumber": 39,
        "velocity": 0,
        "subtype": "noteOff"
      },
      {
        "deltaTime": 0,
        "channel": 5,
        "type": "channel",
        "noteNumber": 58,
        "velocity": 0,
        "subtype": "noteOff"
      },
      {
        "deltaTime": 0,
        "channel": 5,
        "type": "channel",
        "noteNumber": 55,
        "velocity": 0,
        "subtype": "noteOff"
      },
      {
        "deltaTime": 0,
        "channel": 5,
        "type": "channel",
        "noteNumber": 63,
        "velocity": 0,
        "subtype": "noteOff"
      },
      {
        "deltaTime": 0,
        "channel": 5,
        "type": "channel",
        "noteNumber": 46,
        "velocity": 0,
        "subtype": "noteOff"
      },
      {
        "deltaTime": 0,
        "channel": 5,
        "type": "channel",
        "noteNumber": 51,
        "velocity": 0,
        "subtype": "noteOff"
      },
      {
        "deltaTime": 0,
        "channel": 5,
        "type": "channel",
        "noteNumber": 79,
        "velocity": 127,
        "subtype": "noteOn"
      },
      {
        "deltaTime": 960,
        "channel": 5,
        "type": "channel",
        "noteNumber": 70,
        "velocity": 127,
        "subtype": "noteOn"
      },
      {
        "deltaTime": 480,
        "channel": 5,
        "type": "channel",
        "noteNumber": 79,
        "velocity": 0,
        "subtype": "noteOff"
      },
      {
        "deltaTime": 0,
        "channel": 5,
        "type": "channel",
        "noteNumber": 79,
        "velocity": 127,
        "subtype": "noteOn"
      },
      {
        "deltaTime": 960,
        "channel": 5,
        "type": "channel",
        "noteNumber": 70,
        "velocity": 0,
        "subtype": "noteOff"
      },
      {
        "deltaTime": 0,
        "channel": 5,
        "type": "channel",
        "noteNumber": 74,
        "velocity": 127,
        "subtype": "noteOn"
      },
      {
        "deltaTime": 480,
        "channel": 5,
        "type": "channel",
        "noteNumber": 79,
        "velocity": 0,
        "subtype": "noteOff"
      },
      {
        "deltaTime": 0,
        "channel": 5,
        "type": "channel",
        "noteNumber": 75,
        "velocity": 127,
        "subtype": "noteOn"
      },
      {
        "deltaTime": 480,
        "channel": 5,
        "type": "channel",
        "noteNumber": 74,
        "velocity": 0,
        "subtype": "noteOff"
      },
      {
        "deltaTime": 0,
        "channel": 5,
        "type": "channel",
        "noteNumber": 74,
        "velocity": 127,
        "subtype": "noteOn"
      },
      {
        "deltaTime": 960,
        "channel": 5,
        "type": "channel",
        "noteNumber": 75,
        "velocity": 0,
        "subtype": "noteOff"
      },
      {
        "deltaTime": 0,
        "channel": 5,
        "type": "channel",
        "noteNumber": 75,
        "velocity": 127,
        "subtype": "noteOn"
      },
      {
        "deltaTime": 960,
        "channel": 5,
        "type": "channel",
        "noteNumber": 75,
        "velocity": 0,
        "subtype": "noteOff"
      },
      {
        "deltaTime": 0,
        "channel": 5,
        "type": "channel",
        "noteNumber": 79,
        "velocity": 127,
        "subtype": "noteOn"
      },
      {
        "deltaTime": 480,
        "channel": 5,
        "type": "channel",
        "noteNumber": 74,
        "velocity": 0,
        "subtype": "noteOff"
      },
      {
        "deltaTime": 0,
        "channel": 5,
        "type": "channel",
        "noteNumber": 70,
        "velocity": 127,
        "subtype": "noteOn"
      },
      {
        "deltaTime": 480,
        "channel": 5,
        "type": "channel",
        "noteNumber": 79,
        "velocity": 0,
        "subtype": "noteOff"
      },
      {
        "deltaTime": 0,
        "channel": 5,
        "type": "channel",
        "noteNumber": 79,
        "velocity": 127,
        "subtype": "noteOn"
      },
      {
        "deltaTime": 480,
        "channel": 5,
        "type": "channel",
        "noteNumber": 79,
        "velocity": 0,
        "subtype": "noteOff"
      },
      {
        "deltaTime": 0,
        "channel": 5,
        "type": "channel",
        "noteNumber": 77,
        "velocity": 127,
        "subtype": "noteOn"
      },
      {
        "deltaTime": 480,
        "channel": 5,
        "type": "channel",
        "noteNumber": 70,
        "velocity": 0,
        "subtype": "noteOff"
      },
      {
        "deltaTime": 0,
        "channel": 5,
        "type": "channel",
        "noteNumber": 70,
        "velocity": 127,
        "subtype": "noteOn"
      },
      {
        "deltaTime": 480,
        "channel": 5,
        "type": "channel",
        "noteNumber": 77,
        "velocity": 0,
        "subtype": "noteOff"
      },
      {
        "deltaTime": 0,
        "channel": 5,
        "type": "channel",
        "noteNumber": 79,
        "velocity": 127,
        "subtype": "noteOn"
      },
      {
        "deltaTime": 960,
        "channel": 5,
        "type": "channel",
        "noteNumber": 70,
        "velocity": 0,
        "subtype": "noteOff"
      },
      {
        "deltaTime": 0,
        "channel": 5,
        "type": "channel",
        "noteNumber": 70,
        "velocity": 127,
        "subtype": "noteOn"
      },
      {
        "deltaTime": 480,
        "channel": 5,
        "type": "channel",
        "noteNumber": 79,
        "velocity": 0,
        "subtype": "noteOff"
      },
      {
        "deltaTime": 0,
        "channel": 5,
        "type": "channel",
        "noteNumber": 79,
        "velocity": 127,
        "subtype": "noteOn"
      },
      {
        "deltaTime": 960,
        "channel": 5,
        "type": "channel",
        "noteNumber": 79,
        "velocity": 0,
        "subtype": "noteOff"
      },
      {
        "deltaTime": 0,
        "channel": 5,
        "type": "channel",
        "noteNumber": 75,
        "velocity": 127,
        "subtype": "noteOn"
      },
      {
        "deltaTime": 960,
        "channel": 5,
        "type": "channel",
        "noteNumber": 70,
        "velocity": 0,
        "subtype": "noteOff"
      },
      {
        "deltaTime": 0,
        "channel": 5,
        "type": "channel",
        "noteNumber": 74,
        "velocity": 127,
        "subtype": "noteOn"
      },
      {
        "deltaTime": 480,
        "channel": 5,
        "type": "channel",
        "noteNumber": 75,
        "velocity": 0,
        "subtype": "noteOff"
      },
      {
        "deltaTime": 0,
        "channel": 5,
        "type": "channel",
        "noteNumber": 75,
        "velocity": 127,
        "subtype": "noteOn"
      },
      {
        "deltaTime": 480,
        "channel": 5,
        "type": "channel",
        "noteNumber": 74,
        "velocity": 0,
        "subtype": "noteOff"
      },
      {
        "deltaTime": 0,
        "channel": 5,
        "type": "channel",
        "noteNumber": 74,
        "velocity": 127,
        "subtype": "noteOn"
      },
      {
        "deltaTime": 960,
        "channel": 5,
        "type": "channel",
        "noteNumber": 75,
        "velocity": 0,
        "subtype": "noteOff"
      },
      {
        "deltaTime": 0,
        "channel": 5,
        "type": "channel",
        "noteNumber": 77,
        "velocity": 127,
        "subtype": "noteOn"
      },
      {
        "deltaTime": 480,
        "channel": 5,
        "type": "channel",
        "noteNumber": 74,
        "velocity": 0,
        "subtype": "noteOff"
      },
      {
        "deltaTime": 0,
        "channel": 5,
        "type": "channel",
        "noteNumber": 70,
        "velocity": 127,
        "subtype": "noteOn"
      },
      {
        "deltaTime": 480,
        "channel": 5,
        "type": "channel",
        "noteNumber": 70,
        "velocity": 0,
        "subtype": "noteOff"
      },
      {
        "deltaTime": 0,
        "channel": 5,
        "type": "channel",
        "noteNumber": 70,
        "velocity": 127,
        "subtype": "noteOn"
      },
      {
        "deltaTime": 480,
        "channel": 5,
        "type": "channel",
        "noteNumber": 77,
        "velocity": 0,
        "subtype": "noteOff"
      },
      {
        "deltaTime": 0,
        "channel": 5,
        "type": "channel",
        "noteNumber": 77,
        "velocity": 127,
        "subtype": "noteOn"
      },
      {
        "deltaTime": 480,
        "channel": 5,
        "type": "channel",
        "noteNumber": 70,
        "velocity": 0,
        "subtype": "noteOff"
      },
      {
        "deltaTime": 0,
        "channel": 5,
        "type": "channel",
        "noteNumber": 70,
        "velocity": 127,
        "subtype": "noteOn"
      },
      {
        "deltaTime": 480,
        "channel": 5,
        "type": "channel",
        "noteNumber": 77,
        "velocity": 0,
        "subtype": "noteOff"
      },
      {
        "deltaTime": 0,
        "channel": 5,
        "type": "channel",
        "noteNumber": 79,
        "velocity": 127,
        "subtype": "noteOn"
      },
      {
        "deltaTime": 960,
        "channel": 5,
        "type": "channel",
        "noteNumber": 70,
        "velocity": 0,
        "subtype": "noteOff"
      },
      {
        "deltaTime": 0,
        "channel": 5,
        "type": "channel",
        "noteNumber": 70,
        "velocity": 127,
        "subtype": "noteOn"
      },
      {
        "deltaTime": 480,
        "channel": 5,
        "type": "channel",
        "noteNumber": 79,
        "velocity": 0,
        "subtype": "noteOff"
      },
      {
        "deltaTime": 0,
        "channel": 5,
        "type": "channel",
        "noteNumber": 79,
        "velocity": 127,
        "subtype": "noteOn"
      },
      {
        "deltaTime": 960,
        "channel": 5,
        "type": "channel",
        "noteNumber": 70,
        "velocity": 0,
        "subtype": "noteOff"
      },
      {
        "deltaTime": 0,
        "channel": 5,
        "type": "channel",
        "noteNumber": 74,
        "velocity": 127,
        "subtype": "noteOn"
      },
      {
        "deltaTime": 480,
        "channel": 5,
        "type": "channel",
        "noteNumber": 79,
        "velocity": 0,
        "subtype": "noteOff"
      },
      {
        "deltaTime": 0,
        "channel": 5,
        "type": "channel",
        "noteNumber": 75,
        "velocity": 127,
        "subtype": "noteOn"
      },
      {
        "deltaTime": 480,
        "channel": 5,
        "type": "channel",
        "noteNumber": 74,
        "velocity": 0,
        "subtype": "noteOff"
      },
      {
        "deltaTime": 0,
        "channel": 5,
        "type": "channel",
        "noteNumber": 74,
        "velocity": 127,
        "subtype": "noteOn"
      },
      {
        "deltaTime": 960,
        "channel": 5,
        "type": "channel",
        "noteNumber": 75,
        "velocity": 0,
        "subtype": "noteOff"
      },
      {
        "deltaTime": 0,
        "channel": 5,
        "type": "channel",
        "noteNumber": 75,
        "velocity": 127,
        "subtype": "noteOn"
      },
      {
        "deltaTime": 960,
        "channel": 5,
        "type": "channel",
        "noteNumber": 75,
        "velocity": 0,
        "subtype": "noteOff"
      },
      {
        "deltaTime": 0,
        "channel": 5,
        "type": "channel",
        "noteNumber": 79,
        "velocity": 127,
        "subtype": "noteOn"
      },
      {
        "deltaTime": 480,
        "channel": 5,
        "type": "channel",
        "noteNumber": 74,
        "velocity": 0,
        "subtype": "noteOff"
      },
      {
        "deltaTime": 0,
        "channel": 5,
        "type": "channel",
        "noteNumber": 70,
        "velocity": 127,
        "subtype": "noteOn"
      },
      {
        "deltaTime": 480,
        "channel": 5,
        "type": "channel",
        "noteNumber": 79,
        "velocity": 0,
        "subtype": "noteOff"
      },
      {
        "deltaTime": 0,
        "channel": 5,
        "type": "channel",
        "noteNumber": 79,
        "velocity": 127,
        "subtype": "noteOn"
      },
      {
        "deltaTime": 480,
        "channel": 5,
        "type": "channel",
        "noteNumber": 79,
        "velocity": 0,
        "subtype": "noteOff"
      },
      {
        "deltaTime": 0,
        "channel": 5,
        "type": "channel",
        "noteNumber": 77,
        "velocity": 127,
        "subtype": "noteOn"
      },
      {
        "deltaTime": 480,
        "channel": 5,
        "type": "channel",
        "noteNumber": 70,
        "velocity": 0,
        "subtype": "noteOff"
      },
      {
        "deltaTime": 0,
        "channel": 5,
        "type": "channel",
        "noteNumber": 70,
        "velocity": 127,
        "subtype": "noteOn"
      },
      {
        "deltaTime": 480,
        "channel": 5,
        "type": "channel",
        "noteNumber": 77,
        "velocity": 0,
        "subtype": "noteOff"
      },
      {
        "deltaTime": 0,
        "channel": 5,
        "type": "channel",
        "noteNumber": 79,
        "velocity": 127,
        "subtype": "noteOn"
      },
      {
        "deltaTime": 960,
        "channel": 5,
        "type": "channel",
        "noteNumber": 70,
        "velocity": 0,
        "subtype": "noteOff"
      },
      {
        "deltaTime": 0,
        "channel": 5,
        "type": "channel",
        "noteNumber": 70,
        "velocity": 127,
        "subtype": "noteOn"
      },
      {
        "deltaTime": 480,
        "channel": 5,
        "type": "channel",
        "noteNumber": 79,
        "velocity": 0,
        "subtype": "noteOff"
      },
      {
        "deltaTime": 0,
        "channel": 5,
        "type": "channel",
        "noteNumber": 79,
        "velocity": 127,
        "subtype": "noteOn"
      },
      {
        "deltaTime": 960,
        "channel": 5,
        "type": "channel",
        "noteNumber": 79,
        "velocity": 0,
        "subtype": "noteOff"
      },
      {
        "deltaTime": 0,
        "channel": 5,
        "type": "channel",
        "noteNumber": 75,
        "velocity": 127,
        "subtype": "noteOn"
      },
      {
        "deltaTime": 960,
        "channel": 5,
        "type": "channel",
        "noteNumber": 70,
        "velocity": 0,
        "subtype": "noteOff"
      },
      {
        "deltaTime": 0,
        "channel": 5,
        "type": "channel",
        "noteNumber": 74,
        "velocity": 127,
        "subtype": "noteOn"
      },
      {
        "deltaTime": 480,
        "channel": 5,
        "type": "channel",
        "noteNumber": 75,
        "velocity": 0,
        "subtype": "noteOff"
      },
      {
        "deltaTime": 0,
        "channel": 5,
        "type": "channel",
        "noteNumber": 75,
        "velocity": 127,
        "subtype": "noteOn"
      },
      {
        "deltaTime": 480,
        "channel": 5,
        "type": "channel",
        "noteNumber": 74,
        "velocity": 0,
        "subtype": "noteOff"
      },
      {
        "deltaTime": 0,
        "channel": 5,
        "type": "channel",
        "noteNumber": 74,
        "velocity": 127,
        "subtype": "noteOn"
      },
      {
        "deltaTime": 960,
        "channel": 5,
        "type": "channel",
        "noteNumber": 75,
        "velocity": 0,
        "subtype": "noteOff"
      },
      {
        "deltaTime": 0,
        "channel": 5,
        "type": "channel",
        "noteNumber": 77,
        "velocity": 127,
        "subtype": "noteOn"
      },
      {
        "deltaTime": 480,
        "channel": 5,
        "type": "channel",
        "noteNumber": 74,
        "velocity": 0,
        "subtype": "noteOff"
      },
      {
        "deltaTime": 0,
        "channel": 5,
        "type": "channel",
        "noteNumber": 70,
        "velocity": 127,
        "subtype": "noteOn"
      },
      {
        "deltaTime": 480,
        "channel": 5,
        "type": "channel",
        "noteNumber": 70,
        "velocity": 0,
        "subtype": "noteOff"
      },
      {
        "deltaTime": 0,
        "channel": 5,
        "type": "channel",
        "noteNumber": 70,
        "velocity": 127,
        "subtype": "noteOn"
      },
      {
        "deltaTime": 480,
        "channel": 5,
        "type": "channel",
        "noteNumber": 77,
        "velocity": 0,
        "subtype": "noteOff"
      },
      {
        "deltaTime": 0,
        "channel": 5,
        "type": "channel",
        "noteNumber": 77,
        "velocity": 127,
        "subtype": "noteOn"
      },
      {
        "deltaTime": 480,
        "channel": 5,
        "type": "channel",
        "noteNumber": 70,
        "velocity": 0,
        "subtype": "noteOff"
      },
      {
        "deltaTime": 0,
        "channel": 5,
        "type": "channel",
        "noteNumber": 70,
        "velocity": 127,
        "subtype": "noteOn"
      },
      {
        "deltaTime": 480,
        "channel": 5,
        "type": "channel",
        "noteNumber": 70,
        "velocity": 0,
        "subtype": "noteOff"
      },
      {
        "deltaTime": 0,
        "channel": 5,
        "type": "channel",
        "noteNumber": 77,
        "velocity": 0,
        "subtype": "noteOff"
      },
      {
        "deltaTime": 0,
        "channel": 5,
        "type": "channel",
        "noteNumber": 63,
        "velocity": 127,
        "subtype": "noteOn"
      },
      {
        "deltaTime": 0,
        "channel": 5,
        "type": "channel",
        "noteNumber": 63,
        "velocity": 127,
        "subtype": "noteOn"
      },
      {
        "deltaTime": 480,
        "channel": 5,
        "type": "channel",
        "noteNumber": 63,
        "velocity": 0,
        "subtype": "noteOff"
      },
      {
        "deltaTime": 0,
        "channel": 5,
        "type": "channel",
        "noteNumber": 63,
        "velocity": 0,
        "subtype": "noteOff"
      },
      {
        "deltaTime": 0,
        "channel": 5,
        "type": "channel",
        "noteNumber": 63,
        "velocity": 127,
        "subtype": "noteOn"
      },
      {
        "deltaTime": 0,
        "channel": 5,
        "type": "channel",
        "noteNumber": 63,
        "velocity": 127,
        "subtype": "noteOn"
      },
      {
        "deltaTime": 480,
        "channel": 5,
        "type": "channel",
        "noteNumber": 63,
        "velocity": 0,
        "subtype": "noteOff"
      },
      {
        "deltaTime": 0,
        "channel": 5,
        "type": "channel",
        "noteNumber": 63,
        "velocity": 0,
        "subtype": "noteOff"
      },
      {
        "deltaTime": 0,
        "channel": 5,
        "type": "channel",
        "noteNumber": 63,
        "velocity": 127,
        "subtype": "noteOn"
      },
      {
        "deltaTime": 0,
        "channel": 5,
        "type": "channel",
        "noteNumber": 65,
        "velocity": 127,
        "subtype": "noteOn"
      },
      {
        "deltaTime": 480,
        "channel": 5,
        "type": "channel",
        "noteNumber": 65,
        "velocity": 0,
        "subtype": "noteOff"
      },
      {
        "deltaTime": 0,
        "channel": 5,
        "type": "channel",
        "noteNumber": 63,
        "velocity": 0,
        "subtype": "noteOff"
      },
      {
        "deltaTime": 0,
        "channel": 5,
        "type": "channel",
        "noteNumber": 63,
        "velocity": 127,
        "subtype": "noteOn"
      },
      {
        "deltaTime": 0,
        "channel": 5,
        "type": "channel",
        "noteNumber": 65,
        "velocity": 127,
        "subtype": "noteOn"
      },
      {
        "deltaTime": 480,
        "channel": 5,
        "type": "channel",
        "noteNumber": 65,
        "velocity": 0,
        "subtype": "noteOff"
      },
      {
        "deltaTime": 0,
        "channel": 5,
        "type": "channel",
        "noteNumber": 63,
        "velocity": 0,
        "subtype": "noteOff"
      },
      {
        "deltaTime": 0,
        "channel": 5,
        "type": "channel",
        "noteNumber": 63,
        "velocity": 127,
        "subtype": "noteOn"
      },
      {
        "deltaTime": 0,
        "channel": 5,
        "type": "channel",
        "noteNumber": 67,
        "velocity": 127,
        "subtype": "noteOn"
      },
      {
        "deltaTime": 480,
        "channel": 5,
        "type": "channel",
        "noteNumber": 67,
        "velocity": 0,
        "subtype": "noteOff"
      },
      {
        "deltaTime": 0,
        "channel": 5,
        "type": "channel",
        "noteNumber": 63,
        "velocity": 0,
        "subtype": "noteOff"
      },
      {
        "deltaTime": 0,
        "channel": 5,
        "type": "channel",
        "noteNumber": 63,
        "velocity": 127,
        "subtype": "noteOn"
      },
      {
        "deltaTime": 0,
        "channel": 5,
        "type": "channel",
        "noteNumber": 67,
        "velocity": 127,
        "subtype": "noteOn"
      },
      {
        "deltaTime": 480,
        "channel": 5,
        "type": "channel",
        "noteNumber": 67,
        "velocity": 0,
        "subtype": "noteOff"
      },
      {
        "deltaTime": 0,
        "channel": 5,
        "type": "channel",
        "noteNumber": 63,
        "velocity": 0,
        "subtype": "noteOff"
      },
      {
        "deltaTime": 0,
        "channel": 5,
        "type": "channel",
        "noteNumber": 63,
        "velocity": 127,
        "subtype": "noteOn"
      },
      {
        "deltaTime": 0,
        "channel": 5,
        "type": "channel",
        "noteNumber": 70,
        "velocity": 127,
        "subtype": "noteOn"
      },
      {
        "deltaTime": 480,
        "channel": 5,
        "type": "channel",
        "noteNumber": 70,
        "velocity": 0,
        "subtype": "noteOff"
      },
      {
        "deltaTime": 0,
        "channel": 5,
        "type": "channel",
        "noteNumber": 63,
        "velocity": 0,
        "subtype": "noteOff"
      },
      {
        "deltaTime": 0,
        "channel": 5,
        "type": "channel",
        "noteNumber": 63,
        "velocity": 127,
        "subtype": "noteOn"
      },
      {
        "deltaTime": 0,
        "channel": 5,
        "type": "channel",
        "noteNumber": 70,
        "velocity": 127,
        "subtype": "noteOn"
      },
      {
        "deltaTime": 480,
        "channel": 5,
        "type": "channel",
        "noteNumber": 70,
        "velocity": 0,
        "subtype": "noteOff"
      },
      {
        "deltaTime": 0,
        "channel": 5,
        "type": "channel",
        "noteNumber": 63,
        "velocity": 0,
        "subtype": "noteOff"
      },
      {
        "deltaTime": 0,
        "channel": 5,
        "type": "channel",
        "noteNumber": 63,
        "velocity": 127,
        "subtype": "noteOn"
      },
      {
        "deltaTime": 0,
        "channel": 5,
        "type": "channel",
        "noteNumber": 67,
        "velocity": 127,
        "subtype": "noteOn"
      },
      {
        "deltaTime": 480,
        "channel": 5,
        "type": "channel",
        "noteNumber": 67,
        "velocity": 0,
        "subtype": "noteOff"
      },
      {
        "deltaTime": 0,
        "channel": 5,
        "type": "channel",
        "noteNumber": 63,
        "velocity": 0,
        "subtype": "noteOff"
      },
      {
        "deltaTime": 0,
        "channel": 5,
        "type": "channel",
        "noteNumber": 63,
        "velocity": 127,
        "subtype": "noteOn"
      },
      {
        "deltaTime": 0,
        "channel": 5,
        "type": "channel",
        "noteNumber": 67,
        "velocity": 127,
        "subtype": "noteOn"
      },
      {
        "deltaTime": 480,
        "channel": 5,
        "type": "channel",
        "noteNumber": 67,
        "velocity": 0,
        "subtype": "noteOff"
      },
      {
        "deltaTime": 0,
        "channel": 5,
        "type": "channel",
        "noteNumber": 63,
        "velocity": 0,
        "subtype": "noteOff"
      },
      {
        "deltaTime": 0,
        "channel": 5,
        "type": "channel",
        "noteNumber": 63,
        "velocity": 127,
        "subtype": "noteOn"
      },
      {
        "deltaTime": 0,
        "channel": 5,
        "type": "channel",
        "noteNumber": 67,
        "velocity": 127,
        "subtype": "noteOn"
      },
      {
        "deltaTime": 480,
        "channel": 5,
        "type": "channel",
        "noteNumber": 67,
        "velocity": 0,
        "subtype": "noteOff"
      },
      {
        "deltaTime": 0,
        "channel": 5,
        "type": "channel",
        "noteNumber": 63,
        "velocity": 0,
        "subtype": "noteOff"
      },
      {
        "deltaTime": 0,
        "channel": 5,
        "type": "channel",
        "noteNumber": 63,
        "velocity": 127,
        "subtype": "noteOn"
      },
      {
        "deltaTime": 0,
        "channel": 5,
        "type": "channel",
        "noteNumber": 67,
        "velocity": 127,
        "subtype": "noteOn"
      },
      {
        "deltaTime": 480,
        "channel": 5,
        "type": "channel",
        "noteNumber": 67,
        "velocity": 0,
        "subtype": "noteOff"
      },
      {
        "deltaTime": 0,
        "channel": 5,
        "type": "channel",
        "noteNumber": 63,
        "velocity": 0,
        "subtype": "noteOff"
      },
      {
        "deltaTime": 0,
        "channel": 5,
        "type": "channel",
        "noteNumber": 63,
        "velocity": 127,
        "subtype": "noteOn"
      },
      {
        "deltaTime": 0,
        "channel": 5,
        "type": "channel",
        "noteNumber": 65,
        "velocity": 127,
        "subtype": "noteOn"
      },
      {
        "deltaTime": 480,
        "channel": 5,
        "type": "channel",
        "noteNumber": 65,
        "velocity": 0,
        "subtype": "noteOff"
      },
      {
        "deltaTime": 0,
        "channel": 5,
        "type": "channel",
        "noteNumber": 63,
        "velocity": 0,
        "subtype": "noteOff"
      },
      {
        "deltaTime": 0,
        "channel": 5,
        "type": "channel",
        "noteNumber": 63,
        "velocity": 127,
        "subtype": "noteOn"
      },
      {
        "deltaTime": 0,
        "channel": 5,
        "type": "channel",
        "noteNumber": 65,
        "velocity": 127,
        "subtype": "noteOn"
      },
      {
        "deltaTime": 480,
        "channel": 5,
        "type": "channel",
        "noteNumber": 65,
        "velocity": 0,
        "subtype": "noteOff"
      },
      {
        "deltaTime": 0,
        "channel": 5,
        "type": "channel",
        "noteNumber": 63,
        "velocity": 0,
        "subtype": "noteOff"
      },
      {
        "deltaTime": 0,
        "channel": 5,
        "type": "channel",
        "noteNumber": 63,
        "velocity": 127,
        "subtype": "noteOn"
      },
      {
        "deltaTime": 0,
        "channel": 5,
        "type": "channel",
        "noteNumber": 65,
        "velocity": 127,
        "subtype": "noteOn"
      },
      {
        "deltaTime": 480,
        "channel": 5,
        "type": "channel",
        "noteNumber": 65,
        "velocity": 0,
        "subtype": "noteOff"
      },
      {
        "deltaTime": 0,
        "channel": 5,
        "type": "channel",
        "noteNumber": 63,
        "velocity": 0,
        "subtype": "noteOff"
      },
      {
        "deltaTime": 0,
        "channel": 5,
        "type": "channel",
        "noteNumber": 63,
        "velocity": 127,
        "subtype": "noteOn"
      },
      {
        "deltaTime": 0,
        "channel": 5,
        "type": "channel",
        "noteNumber": 65,
        "velocity": 127,
        "subtype": "noteOn"
      },
      {
        "deltaTime": 480,
        "channel": 5,
        "type": "channel",
        "noteNumber": 65,
        "velocity": 0,
        "subtype": "noteOff"
      },
      {
        "deltaTime": 0,
        "channel": 5,
        "type": "channel",
        "noteNumber": 63,
        "velocity": 0,
        "subtype": "noteOff"
      },
      {
        "deltaTime": 0,
        "channel": 5,
        "type": "channel",
        "noteNumber": 63,
        "velocity": 127,
        "subtype": "noteOn"
      },
      {
        "deltaTime": 0,
        "channel": 5,
        "type": "channel",
        "noteNumber": 63,
        "velocity": 127,
        "subtype": "noteOn"
      },
      {
        "deltaTime": 480,
        "channel": 5,
        "type": "channel",
        "noteNumber": 63,
        "velocity": 0,
        "subtype": "noteOff"
      },
      {
        "deltaTime": 0,
        "channel": 5,
        "type": "channel",
        "noteNumber": 63,
        "velocity": 0,
        "subtype": "noteOff"
      },
      {
        "deltaTime": 0,
        "channel": 5,
        "type": "channel",
        "noteNumber": 63,
        "velocity": 127,
        "subtype": "noteOn"
      },
      {
        "deltaTime": 0,
        "channel": 5,
        "type": "channel",
        "noteNumber": 63,
        "velocity": 127,
        "subtype": "noteOn"
      },
      {
        "deltaTime": 480,
        "channel": 5,
        "type": "channel",
        "noteNumber": 63,
        "velocity": 0,
        "subtype": "noteOff"
      },
      {
        "deltaTime": 0,
        "channel": 5,
        "type": "channel",
        "noteNumber": 63,
        "velocity": 0,
        "subtype": "noteOff"
      },
      {
        "deltaTime": 0,
        "channel": 5,
        "type": "channel",
        "noteNumber": 63,
        "velocity": 127,
        "subtype": "noteOn"
      },
      {
        "deltaTime": 0,
        "channel": 5,
        "type": "channel",
        "noteNumber": 65,
        "velocity": 127,
        "subtype": "noteOn"
      },
      {
        "deltaTime": 480,
        "channel": 5,
        "type": "channel",
        "noteNumber": 65,
        "velocity": 0,
        "subtype": "noteOff"
      },
      {
        "deltaTime": 0,
        "channel": 5,
        "type": "channel",
        "noteNumber": 63,
        "velocity": 0,
        "subtype": "noteOff"
      },
      {
        "deltaTime": 0,
        "channel": 5,
        "type": "channel",
        "noteNumber": 63,
        "velocity": 127,
        "subtype": "noteOn"
      },
      {
        "deltaTime": 0,
        "channel": 5,
        "type": "channel",
        "noteNumber": 65,
        "velocity": 127,
        "subtype": "noteOn"
      },
      {
        "deltaTime": 480,
        "channel": 5,
        "type": "channel",
        "noteNumber": 65,
        "velocity": 0,
        "subtype": "noteOff"
      },
      {
        "deltaTime": 0,
        "channel": 5,
        "type": "channel",
        "noteNumber": 63,
        "velocity": 0,
        "subtype": "noteOff"
      },
      {
        "deltaTime": 0,
        "channel": 5,
        "type": "channel",
        "noteNumber": 63,
        "velocity": 127,
        "subtype": "noteOn"
      },
      {
        "deltaTime": 0,
        "channel": 5,
        "type": "channel",
        "noteNumber": 67,
        "velocity": 127,
        "subtype": "noteOn"
      },
      {
        "deltaTime": 480,
        "channel": 5,
        "type": "channel",
        "noteNumber": 67,
        "velocity": 0,
        "subtype": "noteOff"
      },
      {
        "deltaTime": 0,
        "channel": 5,
        "type": "channel",
        "noteNumber": 63,
        "velocity": 0,
        "subtype": "noteOff"
      },
      {
        "deltaTime": 0,
        "channel": 5,
        "type": "channel",
        "noteNumber": 63,
        "velocity": 127,
        "subtype": "noteOn"
      },
      {
        "deltaTime": 0,
        "channel": 5,
        "type": "channel",
        "noteNumber": 67,
        "velocity": 127,
        "subtype": "noteOn"
      },
      {
        "deltaTime": 480,
        "channel": 5,
        "type": "channel",
        "noteNumber": 67,
        "velocity": 0,
        "subtype": "noteOff"
      },
      {
        "deltaTime": 0,
        "channel": 5,
        "type": "channel",
        "noteNumber": 63,
        "velocity": 0,
        "subtype": "noteOff"
      },
      {
        "deltaTime": 0,
        "channel": 5,
        "type": "channel",
        "noteNumber": 63,
        "velocity": 127,
        "subtype": "noteOn"
      },
      {
        "deltaTime": 0,
        "channel": 5,
        "type": "channel",
        "noteNumber": 70,
        "velocity": 127,
        "subtype": "noteOn"
      },
      {
        "deltaTime": 480,
        "channel": 5,
        "type": "channel",
        "noteNumber": 70,
        "velocity": 0,
        "subtype": "noteOff"
      },
      {
        "deltaTime": 0,
        "channel": 5,
        "type": "channel",
        "noteNumber": 63,
        "velocity": 0,
        "subtype": "noteOff"
      },
      {
        "deltaTime": 0,
        "channel": 5,
        "type": "channel",
        "noteNumber": 63,
        "velocity": 127,
        "subtype": "noteOn"
      },
      {
        "deltaTime": 0,
        "channel": 5,
        "type": "channel",
        "noteNumber": 70,
        "velocity": 127,
        "subtype": "noteOn"
      },
      {
        "deltaTime": 480,
        "channel": 5,
        "type": "channel",
        "noteNumber": 70,
        "velocity": 0,
        "subtype": "noteOff"
      },
      {
        "deltaTime": 0,
        "channel": 5,
        "type": "channel",
        "noteNumber": 63,
        "velocity": 0,
        "subtype": "noteOff"
      },
      {
        "deltaTime": 0,
        "channel": 5,
        "type": "channel",
        "noteNumber": 63,
        "velocity": 127,
        "subtype": "noteOn"
      },
      {
        "deltaTime": 0,
        "channel": 5,
        "type": "channel",
        "noteNumber": 65,
        "velocity": 127,
        "subtype": "noteOn"
      },
      {
        "deltaTime": 480,
        "channel": 5,
        "type": "channel",
        "noteNumber": 65,
        "velocity": 0,
        "subtype": "noteOff"
      },
      {
        "deltaTime": 0,
        "channel": 5,
        "type": "channel",
        "noteNumber": 63,
        "velocity": 0,
        "subtype": "noteOff"
      },
      {
        "deltaTime": 0,
        "channel": 5,
        "type": "channel",
        "noteNumber": 63,
        "velocity": 127,
        "subtype": "noteOn"
      },
      {
        "deltaTime": 0,
        "channel": 5,
        "type": "channel",
        "noteNumber": 65,
        "velocity": 127,
        "subtype": "noteOn"
      },
      {
        "deltaTime": 480,
        "channel": 5,
        "type": "channel",
        "noteNumber": 65,
        "velocity": 0,
        "subtype": "noteOff"
      },
      {
        "deltaTime": 0,
        "channel": 5,
        "type": "channel",
        "noteNumber": 63,
        "velocity": 0,
        "subtype": "noteOff"
      },
      {
        "deltaTime": 0,
        "channel": 5,
        "type": "channel",
        "noteNumber": 63,
        "velocity": 127,
        "subtype": "noteOn"
      },
      {
        "deltaTime": 0,
        "channel": 5,
        "type": "channel",
        "noteNumber": 65,
        "velocity": 127,
        "subtype": "noteOn"
      },
      {
        "deltaTime": 480,
        "channel": 5,
        "type": "channel",
        "noteNumber": 65,
        "velocity": 0,
        "subtype": "noteOff"
      },
      {
        "deltaTime": 0,
        "channel": 5,
        "type": "channel",
        "noteNumber": 63,
        "velocity": 0,
        "subtype": "noteOff"
      },
      {
        "deltaTime": 0,
        "channel": 5,
        "type": "channel",
        "noteNumber": 63,
        "velocity": 127,
        "subtype": "noteOn"
      },
      {
        "deltaTime": 0,
        "channel": 5,
        "type": "channel",
        "noteNumber": 65,
        "velocity": 127,
        "subtype": "noteOn"
      },
      {
        "deltaTime": 480,
        "channel": 5,
        "type": "channel",
        "noteNumber": 65,
        "velocity": 0,
        "subtype": "noteOff"
      },
      {
        "deltaTime": 0,
        "channel": 5,
        "type": "channel",
        "noteNumber": 63,
        "velocity": 0,
        "subtype": "noteOff"
      },
      {
        "deltaTime": 0,
        "channel": 5,
        "type": "channel",
        "noteNumber": 63,
        "velocity": 127,
        "subtype": "noteOn"
      },
      {
        "deltaTime": 0,
        "channel": 5,
        "type": "channel",
        "noteNumber": 65,
        "velocity": 127,
        "subtype": "noteOn"
      },
      {
        "deltaTime": 480,
        "channel": 5,
        "type": "channel",
        "noteNumber": 65,
        "velocity": 0,
        "subtype": "noteOff"
      },
      {
        "deltaTime": 0,
        "channel": 5,
        "type": "channel",
        "noteNumber": 63,
        "velocity": 0,
        "subtype": "noteOff"
      },
      {
        "deltaTime": 0,
        "channel": 5,
        "type": "channel",
        "noteNumber": 63,
        "velocity": 127,
        "subtype": "noteOn"
      },
      {
        "deltaTime": 0,
        "channel": 5,
        "type": "channel",
        "noteNumber": 65,
        "velocity": 127,
        "subtype": "noteOn"
      },
      {
        "deltaTime": 480,
        "channel": 5,
        "type": "channel",
        "noteNumber": 65,
        "velocity": 0,
        "subtype": "noteOff"
      },
      {
        "deltaTime": 0,
        "channel": 5,
        "type": "channel",
        "noteNumber": 63,
        "velocity": 0,
        "subtype": "noteOff"
      },
      {
        "deltaTime": 0,
        "channel": 5,
        "type": "channel",
        "noteNumber": 63,
        "velocity": 127,
        "subtype": "noteOn"
      },
      {
        "deltaTime": 0,
        "channel": 5,
        "type": "channel",
        "noteNumber": 65,
        "velocity": 127,
        "subtype": "noteOn"
      },
      {
        "deltaTime": 480,
        "channel": 5,
        "type": "channel",
        "noteNumber": 65,
        "velocity": 0,
        "subtype": "noteOff"
      },
      {
        "deltaTime": 0,
        "channel": 5,
        "type": "channel",
        "noteNumber": 58,
        "velocity": 127,
        "subtype": "noteOn"
      },
      {
        "deltaTime": 480,
        "channel": 5,
        "type": "channel",
        "noteNumber": 63,
        "velocity": 0,
        "subtype": "noteOff"
      },
      {
        "deltaTime": 0,
        "channel": 5,
        "type": "channel",
        "noteNumber": 79,
        "velocity": 127,
        "subtype": "noteOn"
      },
      {
        "deltaTime": 960,
        "channel": 5,
        "type": "channel",
        "noteNumber": 70,
        "velocity": 127,
        "subtype": "noteOn"
      },
      {
        "deltaTime": 480,
        "channel": 5,
        "type": "channel",
        "noteNumber": 79,
        "velocity": 0,
        "subtype": "noteOff"
      },
      {
        "deltaTime": 0,
        "channel": 5,
        "type": "channel",
        "noteNumber": 79,
        "velocity": 127,
        "subtype": "noteOn"
      },
      {
        "deltaTime": 1440,
        "channel": 5,
        "type": "channel",
        "noteNumber": 70,
        "velocity": 0,
        "subtype": "noteOff"
      },
      {
        "deltaTime": 0,
        "channel": 5,
        "type": "channel",
        "noteNumber": 70,
        "velocity": 127,
        "subtype": "noteOn"
      },
      {
        "deltaTime": 480,
        "channel": 5,
        "type": "channel",
        "noteNumber": 58,
        "velocity": 0,
        "subtype": "noteOff"
      },
      {
        "deltaTime": 0,
        "channel": 5,
        "type": "channel",
        "noteNumber": 74,
        "velocity": 127,
        "subtype": "noteOn"
      },
      {
        "deltaTime": 960,
        "channel": 5,
        "type": "channel",
        "noteNumber": 74,
        "velocity": 0,
        "subtype": "noteOff"
      },
      {
        "deltaTime": 0,
        "channel": 5,
        "type": "channel",
        "noteNumber": 75,
        "velocity": 127,
        "subtype": "noteOn"
      },
      {
        "deltaTime": 960,
        "channel": 5,
        "type": "channel",
        "noteNumber": 75,
        "velocity": 0,
        "subtype": "noteOff"
      },
      {
        "deltaTime": 0,
        "channel": 5,
        "type": "channel",
        "noteNumber": 79,
        "velocity": 0,
        "subtype": "noteOff"
      },
      {
        "deltaTime": 0,
        "channel": 5,
        "type": "channel",
        "noteNumber": 74,
        "velocity": 127,
        "subtype": "noteOn"
      },
      {
        "deltaTime": 960,
        "channel": 5,
        "type": "channel",
        "noteNumber": 74,
        "velocity": 0,
        "subtype": "noteOff"
      },
      {
        "deltaTime": 0,
        "channel": 5,
        "type": "channel",
        "noteNumber": 75,
        "velocity": 127,
        "subtype": "noteOn"
      },
      {
        "deltaTime": 480,
        "channel": 5,
        "type": "channel",
        "noteNumber": 75,
        "velocity": 0,
        "subtype": "noteOff"
      },
      {
        "deltaTime": 0,
        "channel": 5,
        "type": "channel",
        "noteNumber": 70,
        "velocity": 0,
        "subtype": "noteOff"
      },
      {
        "deltaTime": 0,
        "channel": 5,
        "type": "channel",
        "noteNumber": 75,
        "velocity": 127,
        "subtype": "noteOn"
      },
      {
        "deltaTime": 480,
        "channel": 5,
        "type": "channel",
        "noteNumber": 77,
        "velocity": 127,
        "subtype": "noteOn"
      },
      {
        "deltaTime": 960,
        "channel": 5,
        "type": "channel",
        "noteNumber": 70,
        "velocity": 127,
        "subtype": "noteOn"
      },
      {
        "deltaTime": 480,
        "channel": 5,
        "type": "channel",
        "noteNumber": 70,
        "velocity": 0,
        "subtype": "noteOff"
      },
      {
        "deltaTime": 0,
        "channel": 5,
        "type": "channel",
        "noteNumber": 70,
        "velocity": 127,
        "subtype": "noteOn"
      },
      {
        "deltaTime": 480,
        "channel": 5,
        "type": "channel",
        "noteNumber": 77,
        "velocity": 0,
        "subtype": "noteOff"
      },
      {
        "deltaTime": 0,
        "channel": 5,
        "type": "channel",
        "noteNumber": 77,
        "velocity": 127,
        "subtype": "noteOn"
      },
      {
        "deltaTime": 960,
        "channel": 5,
        "type": "channel",
        "noteNumber": 70,
        "velocity": 0,
        "subtype": "noteOff"
      },
      {
        "deltaTime": 0,
        "channel": 5,
        "type": "channel",
        "noteNumber": 70,
        "velocity": 127,
        "subtype": "noteOn"
      },
      {
        "deltaTime": 480,
        "channel": 5,
        "type": "channel",
        "noteNumber": 70,
        "velocity": 0,
        "subtype": "noteOff"
      },
      {
        "deltaTime": 0,
        "channel": 5,
        "type": "channel",
        "noteNumber": 75,
        "velocity": 0,
        "subtype": "noteOff"
      },
      {
        "deltaTime": 0,
        "channel": 5,
        "type": "channel",
        "noteNumber": 70,
        "velocity": 127,
        "subtype": "noteOn"
      },
      {
        "deltaTime": 480,
        "channel": 5,
        "type": "channel",
        "noteNumber": 77,
        "velocity": 0,
        "subtype": "noteOff"
      },
      {
        "deltaTime": 0,
        "channel": 5,
        "type": "channel",
        "noteNumber": 77,
        "velocity": 127,
        "subtype": "noteOn"
      },
      {
        "deltaTime": 480,
        "channel": 5,
        "type": "channel",
        "noteNumber": 77,
        "velocity": 0,
        "subtype": "noteOff"
      },
      {
        "deltaTime": 0,
        "channel": 5,
        "type": "channel",
        "noteNumber": 77,
        "velocity": 127,
        "subtype": "noteOn"
      },
      {
        "deltaTime": 480,
        "channel": 5,
        "type": "channel",
        "noteNumber": 70,
        "velocity": 0,
        "subtype": "noteOff"
      },
      {
        "deltaTime": 0,
        "channel": 5,
        "type": "channel",
        "noteNumber": 70,
        "velocity": 127,
        "subtype": "noteOn"
      },
      {
        "deltaTime": 480,
        "channel": 5,
        "type": "channel",
        "noteNumber": 70,
        "velocity": 0,
        "subtype": "noteOff"
      },
      {
        "deltaTime": 0,
        "channel": 5,
        "type": "channel",
        "noteNumber": 70,
        "velocity": 127,
        "subtype": "noteOn"
      },
      {
        "deltaTime": 480,
        "channel": 5,
        "type": "channel",
        "noteNumber": 77,
        "velocity": 0,
        "subtype": "noteOff"
      },
      {
        "deltaTime": 0,
        "channel": 5,
        "type": "channel",
        "noteNumber": 77,
        "velocity": 127,
        "subtype": "noteOn"
      },
      {
        "deltaTime": 960,
        "channel": 5,
        "type": "channel",
        "noteNumber": 77,
        "velocity": 0,
        "subtype": "noteOff"
      },
      {
        "deltaTime": 0,
        "channel": 5,
        "type": "channel",
        "noteNumber": 70,
        "velocity": 0,
        "subtype": "noteOff"
      },
      {
        "deltaTime": 0,
        "channel": 5,
        "type": "channel",
        "noteNumber": 70,
        "velocity": 127,
        "subtype": "noteOn"
      },
      {
        "deltaTime": 480,
        "channel": 5,
        "type": "channel",
        "noteNumber": 70,
        "velocity": 0,
        "subtype": "noteOff"
      },
      {
        "deltaTime": 0,
        "channel": 5,
        "type": "channel",
        "noteNumber": 70,
        "velocity": 127,
        "subtype": "noteOn"
      },
      {
        "deltaTime": 480,
        "channel": 5,
        "type": "channel",
        "noteNumber": 70,
        "velocity": 0,
        "subtype": "noteOff"
      },
      {
        "deltaTime": 0,
        "channel": 5,
        "type": "channel",
        "noteNumber": 70,
        "velocity": 127,
        "subtype": "noteOn"
      },
      {
        "deltaTime": 480,
        "channel": 5,
        "type": "channel",
        "noteNumber": 70,
        "velocity": 0,
        "subtype": "noteOff"
      },
      {
        "deltaTime": 0,
        "channel": 5,
        "type": "channel",
        "subtype": "programChange",
        "programNumber": 27
      },
      {
        "deltaTime": 0,
        "channel": 5,
        "type": "channel",
        "subtype": "programChange",
        "programNumber": 27
      },
      {
        "deltaTime": 0,
        "channel": 5,
        "type": "channel",
        "subtype": "controller",
        "controllerType": 10,
        "value": 0
      },
      {
        "deltaTime": 0,
        "channel": 5,
        "type": "channel",
        "subtype": "controller",
        "controllerType": 10,
        "value": 0
      },
      {
        "deltaTime": 0,
        "channel": 5,
        "type": "channel",
        "noteNumber": 70,
        "velocity": 127,
        "subtype": "noteOn"
      },
      {
        "deltaTime": 0,
        "channel": 5,
        "type": "channel",
        "noteNumber": 67,
        "velocity": 127,
        "subtype": "noteOn"
      },
      {
        "deltaTime": 0,
        "channel": 5,
        "type": "channel",
        "noteNumber": 63,
        "velocity": 127,
        "subtype": "noteOn"
      },
      {
        "deltaTime": 480,
        "channel": 5,
        "type": "channel",
        "noteNumber": 63,
        "velocity": 0,
        "subtype": "noteOff"
      },
      {
        "deltaTime": 0,
        "channel": 5,
        "type": "channel",
        "noteNumber": 67,
        "velocity": 0,
        "subtype": "noteOff"
      },
      {
        "deltaTime": 0,
        "channel": 5,
        "type": "channel",
        "noteNumber": 70,
        "velocity": 0,
        "subtype": "noteOff"
      },
      {
        "deltaTime": 2400,
        "channel": 5,
        "type": "channel",
        "noteNumber": 70,
        "velocity": 127,
        "subtype": "noteOn"
      },
      {
        "deltaTime": 0,
        "channel": 5,
        "type": "channel",
        "noteNumber": 65,
        "velocity": 127,
        "subtype": "noteOn"
      },
      {
        "deltaTime": 0,
        "channel": 5,
        "type": "channel",
        "noteNumber": 63,
        "velocity": 127,
        "subtype": "noteOn"
      },
      {
        "deltaTime": 480,
        "channel": 5,
        "type": "channel",
        "noteNumber": 63,
        "velocity": 0,
        "subtype": "noteOff"
      },
      {
        "deltaTime": 0,
        "channel": 5,
        "type": "channel",
        "noteNumber": 65,
        "velocity": 0,
        "subtype": "noteOff"
      },
      {
        "deltaTime": 0,
        "channel": 5,
        "type": "channel",
        "noteNumber": 70,
        "velocity": 0,
        "subtype": "noteOff"
      },
      {
        "deltaTime": 2400,
        "channel": 5,
        "type": "channel",
        "noteNumber": 70,
        "velocity": 127,
        "subtype": "noteOn"
      },
      {
        "deltaTime": 0,
        "channel": 5,
        "type": "channel",
        "noteNumber": 65,
        "velocity": 127,
        "subtype": "noteOn"
      },
      {
        "deltaTime": 0,
        "channel": 5,
        "type": "channel",
        "noteNumber": 63,
        "velocity": 127,
        "subtype": "noteOn"
      },
      {
        "deltaTime": 480,
        "channel": 5,
        "type": "channel",
        "noteNumber": 63,
        "velocity": 0,
        "subtype": "noteOff"
      },
      {
        "deltaTime": 0,
        "channel": 5,
        "type": "channel",
        "noteNumber": 65,
        "velocity": 0,
        "subtype": "noteOff"
      },
      {
        "deltaTime": 0,
        "channel": 5,
        "type": "channel",
        "noteNumber": 70,
        "velocity": 0,
        "subtype": "noteOff"
      },
      {
        "deltaTime": 2400,
        "channel": 5,
        "type": "channel",
        "noteNumber": 70,
        "velocity": 127,
        "subtype": "noteOn"
      },
      {
        "deltaTime": 0,
        "channel": 5,
        "type": "channel",
        "noteNumber": 65,
        "velocity": 127,
        "subtype": "noteOn"
      },
      {
        "deltaTime": 0,
        "channel": 5,
        "type": "channel",
        "noteNumber": 63,
        "velocity": 127,
        "subtype": "noteOn"
      },
      {
        "deltaTime": 480,
        "channel": 5,
        "type": "channel",
        "noteNumber": 63,
        "velocity": 0,
        "subtype": "noteOff"
      },
      {
        "deltaTime": 0,
        "channel": 5,
        "type": "channel",
        "noteNumber": 65,
        "velocity": 0,
        "subtype": "noteOff"
      },
      {
        "deltaTime": 0,
        "channel": 5,
        "type": "channel",
        "noteNumber": 70,
        "velocity": 0,
        "subtype": "noteOff"
      },
      {
        "deltaTime": 2400,
        "channel": 5,
        "type": "channel",
        "noteNumber": 70,
        "velocity": 127,
        "subtype": "noteOn"
      },
      {
        "deltaTime": 0,
        "channel": 5,
        "type": "channel",
        "noteNumber": 67,
        "velocity": 127,
        "subtype": "noteOn"
      },
      {
        "deltaTime": 0,
        "channel": 5,
        "type": "channel",
        "noteNumber": 63,
        "velocity": 127,
        "subtype": "noteOn"
      },
      {
        "deltaTime": 480,
        "channel": 5,
        "type": "channel",
        "noteNumber": 63,
        "velocity": 0,
        "subtype": "noteOff"
      },
      {
        "deltaTime": 0,
        "channel": 5,
        "type": "channel",
        "noteNumber": 67,
        "velocity": 0,
        "subtype": "noteOff"
      },
      {
        "deltaTime": 0,
        "channel": 5,
        "type": "channel",
        "noteNumber": 70,
        "velocity": 0,
        "subtype": "noteOff"
      },
      {
        "deltaTime": 2400,
        "channel": 5,
        "type": "channel",
        "noteNumber": 70,
        "velocity": 127,
        "subtype": "noteOn"
      },
      {
        "deltaTime": 0,
        "channel": 5,
        "type": "channel",
        "noteNumber": 65,
        "velocity": 127,
        "subtype": "noteOn"
      },
      {
        "deltaTime": 0,
        "channel": 5,
        "type": "channel",
        "noteNumber": 63,
        "velocity": 127,
        "subtype": "noteOn"
      },
      {
        "deltaTime": 480,
        "channel": 5,
        "type": "channel",
        "noteNumber": 63,
        "velocity": 0,
        "subtype": "noteOff"
      },
      {
        "deltaTime": 0,
        "channel": 5,
        "type": "channel",
        "noteNumber": 65,
        "velocity": 0,
        "subtype": "noteOff"
      },
      {
        "deltaTime": 0,
        "channel": 5,
        "type": "channel",
        "noteNumber": 70,
        "velocity": 0,
        "subtype": "noteOff"
      },
      {
        "deltaTime": 2400,
        "channel": 5,
        "type": "channel",
        "noteNumber": 70,
        "velocity": 127,
        "subtype": "noteOn"
      },
      {
        "deltaTime": 0,
        "channel": 5,
        "type": "channel",
        "noteNumber": 65,
        "velocity": 127,
        "subtype": "noteOn"
      },
      {
        "deltaTime": 0,
        "channel": 5,
        "type": "channel",
        "noteNumber": 63,
        "velocity": 127,
        "subtype": "noteOn"
      },
      {
        "deltaTime": 480,
        "channel": 5,
        "type": "channel",
        "noteNumber": 63,
        "velocity": 0,
        "subtype": "noteOff"
      },
      {
        "deltaTime": 0,
        "channel": 5,
        "type": "channel",
        "noteNumber": 65,
        "velocity": 0,
        "subtype": "noteOff"
      },
      {
        "deltaTime": 0,
        "channel": 5,
        "type": "channel",
        "noteNumber": 70,
        "velocity": 0,
        "subtype": "noteOff"
      },
      {
        "deltaTime": 2400,
        "channel": 5,
        "type": "channel",
        "noteNumber": 70,
        "velocity": 127,
        "subtype": "noteOn"
      },
      {
        "deltaTime": 0,
        "channel": 5,
        "type": "channel",
        "noteNumber": 65,
        "velocity": 127,
        "subtype": "noteOn"
      },
      {
        "deltaTime": 0,
        "channel": 5,
        "type": "channel",
        "noteNumber": 63,
        "velocity": 127,
        "subtype": "noteOn"
      },
      {
        "deltaTime": 480,
        "channel": 5,
        "type": "channel",
        "noteNumber": 63,
        "velocity": 0,
        "subtype": "noteOff"
      },
      {
        "deltaTime": 0,
        "channel": 5,
        "type": "channel",
        "noteNumber": 65,
        "velocity": 0,
        "subtype": "noteOff"
      },
      {
        "deltaTime": 0,
        "channel": 5,
        "type": "channel",
        "noteNumber": 70,
        "velocity": 0,
        "subtype": "noteOff"
      },
      {
        "deltaTime": 2400,
        "channel": 5,
        "type": "channel",
        "noteNumber": 70,
        "velocity": 127,
        "subtype": "noteOn"
      },
      {
        "deltaTime": 0,
        "channel": 5,
        "type": "channel",
        "noteNumber": 67,
        "velocity": 127,
        "subtype": "noteOn"
      },
      {
        "deltaTime": 0,
        "channel": 5,
        "type": "channel",
        "noteNumber": 63,
        "velocity": 127,
        "subtype": "noteOn"
      },
      {
        "deltaTime": 480,
        "channel": 5,
        "type": "channel",
        "noteNumber": 63,
        "velocity": 0,
        "subtype": "noteOff"
      },
      {
        "deltaTime": 0,
        "channel": 5,
        "type": "channel",
        "noteNumber": 67,
        "velocity": 0,
        "subtype": "noteOff"
      },
      {
        "deltaTime": 0,
        "channel": 5,
        "type": "channel",
        "noteNumber": 70,
        "velocity": 0,
        "subtype": "noteOff"
      },
      {
        "deltaTime": 2400,
        "channel": 5,
        "type": "channel",
        "noteNumber": 70,
        "velocity": 127,
        "subtype": "noteOn"
      },
      {
        "deltaTime": 0,
        "channel": 5,
        "type": "channel",
        "noteNumber": 65,
        "velocity": 127,
        "subtype": "noteOn"
      },
      {
        "deltaTime": 0,
        "channel": 5,
        "type": "channel",
        "noteNumber": 63,
        "velocity": 127,
        "subtype": "noteOn"
      },
      {
        "deltaTime": 480,
        "channel": 5,
        "type": "channel",
        "noteNumber": 63,
        "velocity": 0,
        "subtype": "noteOff"
      },
      {
        "deltaTime": 0,
        "channel": 5,
        "type": "channel",
        "noteNumber": 65,
        "velocity": 0,
        "subtype": "noteOff"
      },
      {
        "deltaTime": 0,
        "channel": 5,
        "type": "channel",
        "noteNumber": 70,
        "velocity": 0,
        "subtype": "noteOff"
      },
      {
        "deltaTime": 2400,
        "channel": 5,
        "type": "channel",
        "noteNumber": 70,
        "velocity": 127,
        "subtype": "noteOn"
      },
      {
        "deltaTime": 0,
        "channel": 5,
        "type": "channel",
        "noteNumber": 65,
        "velocity": 127,
        "subtype": "noteOn"
      },
      {
        "deltaTime": 0,
        "channel": 5,
        "type": "channel",
        "noteNumber": 63,
        "velocity": 127,
        "subtype": "noteOn"
      },
      {
        "deltaTime": 480,
        "channel": 5,
        "type": "channel",
        "noteNumber": 63,
        "velocity": 0,
        "subtype": "noteOff"
      },
      {
        "deltaTime": 0,
        "channel": 5,
        "type": "channel",
        "noteNumber": 65,
        "velocity": 0,
        "subtype": "noteOff"
      },
      {
        "deltaTime": 0,
        "channel": 5,
        "type": "channel",
        "noteNumber": 70,
        "velocity": 0,
        "subtype": "noteOff"
      },
      {
        "deltaTime": 2400,
        "channel": 5,
        "type": "channel",
        "noteNumber": 70,
        "velocity": 127,
        "subtype": "noteOn"
      },
      {
        "deltaTime": 0,
        "channel": 5,
        "type": "channel",
        "noteNumber": 65,
        "velocity": 127,
        "subtype": "noteOn"
      },
      {
        "deltaTime": 0,
        "channel": 5,
        "type": "channel",
        "noteNumber": 63,
        "velocity": 127,
        "subtype": "noteOn"
      },
      {
        "deltaTime": 480,
        "channel": 5,
        "type": "channel",
        "noteNumber": 63,
        "velocity": 0,
        "subtype": "noteOff"
      },
      {
        "deltaTime": 0,
        "channel": 5,
        "type": "channel",
        "noteNumber": 65,
        "velocity": 0,
        "subtype": "noteOff"
      },
      {
        "deltaTime": 0,
        "channel": 5,
        "type": "channel",
        "noteNumber": 70,
        "velocity": 0,
        "subtype": "noteOff"
      },
      {
        "deltaTime": 2400,
        "channel": 5,
        "type": "channel",
        "noteNumber": 70,
        "velocity": 127,
        "subtype": "noteOn"
      },
      {
        "deltaTime": 0,
        "channel": 5,
        "type": "channel",
        "noteNumber": 67,
        "velocity": 127,
        "subtype": "noteOn"
      },
      {
        "deltaTime": 0,
        "channel": 5,
        "type": "channel",
        "noteNumber": 63,
        "velocity": 127,
        "subtype": "noteOn"
      },
      {
        "deltaTime": 480,
        "channel": 5,
        "type": "channel",
        "noteNumber": 63,
        "velocity": 0,
        "subtype": "noteOff"
      },
      {
        "deltaTime": 0,
        "channel": 5,
        "type": "channel",
        "noteNumber": 67,
        "velocity": 0,
        "subtype": "noteOff"
      },
      {
        "deltaTime": 0,
        "channel": 5,
        "type": "channel",
        "noteNumber": 70,
        "velocity": 0,
        "subtype": "noteOff"
      },
      {
        "deltaTime": 2400,
        "channel": 5,
        "type": "channel",
        "noteNumber": 70,
        "velocity": 127,
        "subtype": "noteOn"
      },
      {
        "deltaTime": 0,
        "channel": 5,
        "type": "channel",
        "noteNumber": 65,
        "velocity": 127,
        "subtype": "noteOn"
      },
      {
        "deltaTime": 0,
        "channel": 5,
        "type": "channel",
        "noteNumber": 63,
        "velocity": 127,
        "subtype": "noteOn"
      },
      {
        "deltaTime": 480,
        "channel": 5,
        "type": "channel",
        "noteNumber": 63,
        "velocity": 0,
        "subtype": "noteOff"
      },
      {
        "deltaTime": 0,
        "channel": 5,
        "type": "channel",
        "noteNumber": 65,
        "velocity": 0,
        "subtype": "noteOff"
      },
      {
        "deltaTime": 0,
        "channel": 5,
        "type": "channel",
        "noteNumber": 70,
        "velocity": 0,
        "subtype": "noteOff"
      },
      {
        "deltaTime": 2400,
        "channel": 5,
        "type": "channel",
        "noteNumber": 70,
        "velocity": 127,
        "subtype": "noteOn"
      },
      {
        "deltaTime": 0,
        "channel": 5,
        "type": "channel",
        "noteNumber": 65,
        "velocity": 127,
        "subtype": "noteOn"
      },
      {
        "deltaTime": 0,
        "channel": 5,
        "type": "channel",
        "noteNumber": 63,
        "velocity": 127,
        "subtype": "noteOn"
      },
      {
        "deltaTime": 480,
        "channel": 5,
        "type": "channel",
        "noteNumber": 63,
        "velocity": 0,
        "subtype": "noteOff"
      },
      {
        "deltaTime": 0,
        "channel": 5,
        "type": "channel",
        "noteNumber": 65,
        "velocity": 0,
        "subtype": "noteOff"
      },
      {
        "deltaTime": 0,
        "channel": 5,
        "type": "channel",
        "noteNumber": 70,
        "velocity": 0,
        "subtype": "noteOff"
      },
      {
        "deltaTime": 2400,
        "channel": 5,
        "type": "channel",
        "noteNumber": 70,
        "velocity": 127,
        "subtype": "noteOn"
      },
      {
        "deltaTime": 0,
        "channel": 5,
        "type": "channel",
        "noteNumber": 65,
        "velocity": 127,
        "subtype": "noteOn"
      },
      {
        "deltaTime": 0,
        "channel": 5,
        "type": "channel",
        "noteNumber": 63,
        "velocity": 127,
        "subtype": "noteOn"
      },
      {
        "deltaTime": 480,
        "channel": 5,
        "type": "channel",
        "noteNumber": 63,
        "velocity": 0,
        "subtype": "noteOff"
      },
      {
        "deltaTime": 0,
        "channel": 5,
        "type": "channel",
        "noteNumber": 65,
        "velocity": 0,
        "subtype": "noteOff"
      },
      {
        "deltaTime": 0,
        "channel": 5,
        "type": "channel",
        "noteNumber": 70,
        "velocity": 0,
        "subtype": "noteOff"
      },
      {
        "deltaTime": 40800,
        "channel": 5,
        "type": "channel",
        "subtype": "programChange",
        "programNumber": 30
      },
      {
        "deltaTime": 0,
        "channel": 5,
        "type": "channel",
        "subtype": "programChange",
        "programNumber": 30
      },
      {
        "deltaTime": 0,
        "channel": 5,
        "type": "channel",
        "subtype": "controller",
        "controllerType": 10,
        "value": 64
      },
      {
        "deltaTime": 0,
        "channel": 5,
        "type": "channel",
        "subtype": "controller",
        "controllerType": 10,
        "value": 64
      },
      {
        "deltaTime": 0,
        "channel": 5,
        "type": "channel",
        "noteNumber": 79,
        "velocity": 127,
        "subtype": "noteOn"
      },
      {
        "deltaTime": 960,
        "channel": 5,
        "type": "channel",
        "noteNumber": 70,
        "velocity": 127,
        "subtype": "noteOn"
      },
      {
        "deltaTime": 480,
        "channel": 5,
        "type": "channel",
        "noteNumber": 79,
        "velocity": 0,
        "subtype": "noteOff"
      },
      {
        "deltaTime": 0,
        "channel": 5,
        "type": "channel",
        "noteNumber": 79,
        "velocity": 127,
        "subtype": "noteOn"
      },
      {
        "deltaTime": 960,
        "channel": 5,
        "type": "channel",
        "noteNumber": 70,
        "velocity": 0,
        "subtype": "noteOff"
      },
      {
        "deltaTime": 0,
        "channel": 5,
        "type": "channel",
        "noteNumber": 74,
        "velocity": 127,
        "subtype": "noteOn"
      },
      {
        "deltaTime": 480,
        "channel": 5,
        "type": "channel",
        "noteNumber": 79,
        "velocity": 0,
        "subtype": "noteOff"
      },
      {
        "deltaTime": 0,
        "channel": 5,
        "type": "channel",
        "noteNumber": 75,
        "velocity": 127,
        "subtype": "noteOn"
      },
      {
        "deltaTime": 480,
        "channel": 5,
        "type": "channel",
        "noteNumber": 74,
        "velocity": 0,
        "subtype": "noteOff"
      },
      {
        "deltaTime": 0,
        "channel": 5,
        "type": "channel",
        "noteNumber": 74,
        "velocity": 127,
        "subtype": "noteOn"
      },
      {
        "deltaTime": 960,
        "channel": 5,
        "type": "channel",
        "noteNumber": 75,
        "velocity": 0,
        "subtype": "noteOff"
      },
      {
        "deltaTime": 0,
        "channel": 5,
        "type": "channel",
        "noteNumber": 75,
        "velocity": 127,
        "subtype": "noteOn"
      },
      {
        "deltaTime": 960,
        "channel": 5,
        "type": "channel",
        "noteNumber": 75,
        "velocity": 0,
        "subtype": "noteOff"
      },
      {
        "deltaTime": 0,
        "channel": 5,
        "type": "channel",
        "noteNumber": 79,
        "velocity": 127,
        "subtype": "noteOn"
      },
      {
        "deltaTime": 480,
        "channel": 5,
        "type": "channel",
        "noteNumber": 74,
        "velocity": 0,
        "subtype": "noteOff"
      },
      {
        "deltaTime": 0,
        "channel": 5,
        "type": "channel",
        "noteNumber": 70,
        "velocity": 127,
        "subtype": "noteOn"
      },
      {
        "deltaTime": 480,
        "channel": 5,
        "type": "channel",
        "noteNumber": 79,
        "velocity": 0,
        "subtype": "noteOff"
      },
      {
        "deltaTime": 0,
        "channel": 5,
        "type": "channel",
        "noteNumber": 79,
        "velocity": 127,
        "subtype": "noteOn"
      },
      {
        "deltaTime": 480,
        "channel": 5,
        "type": "channel",
        "noteNumber": 79,
        "velocity": 0,
        "subtype": "noteOff"
      },
      {
        "deltaTime": 0,
        "channel": 5,
        "type": "channel",
        "noteNumber": 77,
        "velocity": 127,
        "subtype": "noteOn"
      },
      {
        "deltaTime": 480,
        "channel": 5,
        "type": "channel",
        "noteNumber": 70,
        "velocity": 0,
        "subtype": "noteOff"
      },
      {
        "deltaTime": 0,
        "channel": 5,
        "type": "channel",
        "noteNumber": 70,
        "velocity": 127,
        "subtype": "noteOn"
      },
      {
        "deltaTime": 480,
        "channel": 5,
        "type": "channel",
        "noteNumber": 77,
        "velocity": 0,
        "subtype": "noteOff"
      },
      {
        "deltaTime": 0,
        "channel": 5,
        "type": "channel",
        "noteNumber": 79,
        "velocity": 127,
        "subtype": "noteOn"
      },
      {
        "deltaTime": 960,
        "channel": 5,
        "type": "channel",
        "noteNumber": 70,
        "velocity": 0,
        "subtype": "noteOff"
      },
      {
        "deltaTime": 0,
        "channel": 5,
        "type": "channel",
        "noteNumber": 70,
        "velocity": 127,
        "subtype": "noteOn"
      },
      {
        "deltaTime": 480,
        "channel": 5,
        "type": "channel",
        "noteNumber": 79,
        "velocity": 0,
        "subtype": "noteOff"
      },
      {
        "deltaTime": 0,
        "channel": 5,
        "type": "channel",
        "noteNumber": 79,
        "velocity": 127,
        "subtype": "noteOn"
      },
      {
        "deltaTime": 960,
        "channel": 5,
        "type": "channel",
        "noteNumber": 79,
        "velocity": 0,
        "subtype": "noteOff"
      },
      {
        "deltaTime": 0,
        "channel": 5,
        "type": "channel",
        "noteNumber": 75,
        "velocity": 127,
        "subtype": "noteOn"
      },
      {
        "deltaTime": 960,
        "channel": 5,
        "type": "channel",
        "noteNumber": 70,
        "velocity": 0,
        "subtype": "noteOff"
      },
      {
        "deltaTime": 0,
        "channel": 5,
        "type": "channel",
        "noteNumber": 74,
        "velocity": 127,
        "subtype": "noteOn"
      },
      {
        "deltaTime": 480,
        "channel": 5,
        "type": "channel",
        "noteNumber": 75,
        "velocity": 0,
        "subtype": "noteOff"
      },
      {
        "deltaTime": 0,
        "channel": 5,
        "type": "channel",
        "noteNumber": 75,
        "velocity": 127,
        "subtype": "noteOn"
      },
      {
        "deltaTime": 480,
        "channel": 5,
        "type": "channel",
        "noteNumber": 74,
        "velocity": 0,
        "subtype": "noteOff"
      },
      {
        "deltaTime": 0,
        "channel": 5,
        "type": "channel",
        "noteNumber": 74,
        "velocity": 127,
        "subtype": "noteOn"
      },
      {
        "deltaTime": 960,
        "channel": 5,
        "type": "channel",
        "noteNumber": 75,
        "velocity": 0,
        "subtype": "noteOff"
      },
      {
        "deltaTime": 0,
        "channel": 5,
        "type": "channel",
        "noteNumber": 77,
        "velocity": 127,
        "subtype": "noteOn"
      },
      {
        "deltaTime": 480,
        "channel": 5,
        "type": "channel",
        "noteNumber": 74,
        "velocity": 0,
        "subtype": "noteOff"
      },
      {
        "deltaTime": 0,
        "channel": 5,
        "type": "channel",
        "noteNumber": 70,
        "velocity": 127,
        "subtype": "noteOn"
      },
      {
        "deltaTime": 480,
        "channel": 5,
        "type": "channel",
        "noteNumber": 70,
        "velocity": 0,
        "subtype": "noteOff"
      },
      {
        "deltaTime": 0,
        "channel": 5,
        "type": "channel",
        "noteNumber": 70,
        "velocity": 127,
        "subtype": "noteOn"
      },
      {
        "deltaTime": 480,
        "channel": 5,
        "type": "channel",
        "noteNumber": 77,
        "velocity": 0,
        "subtype": "noteOff"
      },
      {
        "deltaTime": 0,
        "channel": 5,
        "type": "channel",
        "noteNumber": 77,
        "velocity": 127,
        "subtype": "noteOn"
      },
      {
        "deltaTime": 480,
        "channel": 5,
        "type": "channel",
        "noteNumber": 70,
        "velocity": 0,
        "subtype": "noteOff"
      },
      {
        "deltaTime": 0,
        "channel": 5,
        "type": "channel",
        "noteNumber": 70,
        "velocity": 127,
        "subtype": "noteOn"
      },
      {
        "deltaTime": 480,
        "channel": 5,
        "type": "channel",
        "noteNumber": 77,
        "velocity": 0,
        "subtype": "noteOff"
      },
      {
        "deltaTime": 0,
        "channel": 5,
        "type": "channel",
        "noteNumber": 79,
        "velocity": 127,
        "subtype": "noteOn"
      },
      {
        "deltaTime": 960,
        "channel": 5,
        "type": "channel",
        "noteNumber": 70,
        "velocity": 0,
        "subtype": "noteOff"
      },
      {
        "deltaTime": 0,
        "channel": 5,
        "type": "channel",
        "noteNumber": 70,
        "velocity": 127,
        "subtype": "noteOn"
      },
      {
        "deltaTime": 480,
        "channel": 5,
        "type": "channel",
        "noteNumber": 79,
        "velocity": 0,
        "subtype": "noteOff"
      },
      {
        "deltaTime": 0,
        "channel": 5,
        "type": "channel",
        "noteNumber": 79,
        "velocity": 127,
        "subtype": "noteOn"
      },
      {
        "deltaTime": 960,
        "channel": 5,
        "type": "channel",
        "noteNumber": 70,
        "velocity": 0,
        "subtype": "noteOff"
      },
      {
        "deltaTime": 0,
        "channel": 5,
        "type": "channel",
        "noteNumber": 74,
        "velocity": 127,
        "subtype": "noteOn"
      },
      {
        "deltaTime": 480,
        "channel": 5,
        "type": "channel",
        "noteNumber": 79,
        "velocity": 0,
        "subtype": "noteOff"
      },
      {
        "deltaTime": 0,
        "channel": 5,
        "type": "channel",
        "noteNumber": 75,
        "velocity": 127,
        "subtype": "noteOn"
      },
      {
        "deltaTime": 480,
        "channel": 5,
        "type": "channel",
        "noteNumber": 74,
        "velocity": 0,
        "subtype": "noteOff"
      },
      {
        "deltaTime": 0,
        "channel": 5,
        "type": "channel",
        "noteNumber": 74,
        "velocity": 127,
        "subtype": "noteOn"
      },
      {
        "deltaTime": 960,
        "channel": 5,
        "type": "channel",
        "noteNumber": 75,
        "velocity": 0,
        "subtype": "noteOff"
      },
      {
        "deltaTime": 0,
        "channel": 5,
        "type": "channel",
        "noteNumber": 75,
        "velocity": 127,
        "subtype": "noteOn"
      },
      {
        "deltaTime": 960,
        "channel": 5,
        "type": "channel",
        "noteNumber": 75,
        "velocity": 0,
        "subtype": "noteOff"
      },
      {
        "deltaTime": 0,
        "channel": 5,
        "type": "channel",
        "noteNumber": 79,
        "velocity": 127,
        "subtype": "noteOn"
      },
      {
        "deltaTime": 480,
        "channel": 5,
        "type": "channel",
        "noteNumber": 74,
        "velocity": 0,
        "subtype": "noteOff"
      },
      {
        "deltaTime": 0,
        "channel": 5,
        "type": "channel",
        "noteNumber": 70,
        "velocity": 127,
        "subtype": "noteOn"
      },
      {
        "deltaTime": 480,
        "channel": 5,
        "type": "channel",
        "noteNumber": 79,
        "velocity": 0,
        "subtype": "noteOff"
      },
      {
        "deltaTime": 0,
        "channel": 5,
        "type": "channel",
        "noteNumber": 79,
        "velocity": 127,
        "subtype": "noteOn"
      },
      {
        "deltaTime": 480,
        "channel": 5,
        "type": "channel",
        "noteNumber": 79,
        "velocity": 0,
        "subtype": "noteOff"
      },
      {
        "deltaTime": 0,
        "channel": 5,
        "type": "channel",
        "noteNumber": 77,
        "velocity": 127,
        "subtype": "noteOn"
      },
      {
        "deltaTime": 480,
        "channel": 5,
        "type": "channel",
        "noteNumber": 70,
        "velocity": 0,
        "subtype": "noteOff"
      },
      {
        "deltaTime": 0,
        "channel": 5,
        "type": "channel",
        "noteNumber": 70,
        "velocity": 127,
        "subtype": "noteOn"
      },
      {
        "deltaTime": 480,
        "channel": 5,
        "type": "channel",
        "noteNumber": 77,
        "velocity": 0,
        "subtype": "noteOff"
      },
      {
        "deltaTime": 0,
        "channel": 5,
        "type": "channel",
        "noteNumber": 79,
        "velocity": 127,
        "subtype": "noteOn"
      },
      {
        "deltaTime": 960,
        "channel": 5,
        "type": "channel",
        "noteNumber": 70,
        "velocity": 0,
        "subtype": "noteOff"
      },
      {
        "deltaTime": 0,
        "channel": 5,
        "type": "channel",
        "noteNumber": 70,
        "velocity": 127,
        "subtype": "noteOn"
      },
      {
        "deltaTime": 480,
        "channel": 5,
        "type": "channel",
        "noteNumber": 79,
        "velocity": 0,
        "subtype": "noteOff"
      },
      {
        "deltaTime": 0,
        "channel": 5,
        "type": "channel",
        "noteNumber": 79,
        "velocity": 127,
        "subtype": "noteOn"
      },
      {
        "deltaTime": 960,
        "channel": 5,
        "type": "channel",
        "noteNumber": 79,
        "velocity": 0,
        "subtype": "noteOff"
      },
      {
        "deltaTime": 0,
        "channel": 5,
        "type": "channel",
        "noteNumber": 75,
        "velocity": 127,
        "subtype": "noteOn"
      },
      {
        "deltaTime": 960,
        "channel": 5,
        "type": "channel",
        "noteNumber": 70,
        "velocity": 0,
        "subtype": "noteOff"
      },
      {
        "deltaTime": 0,
        "channel": 5,
        "type": "channel",
        "noteNumber": 74,
        "velocity": 127,
        "subtype": "noteOn"
      },
      {
        "deltaTime": 480,
        "channel": 5,
        "type": "channel",
        "noteNumber": 75,
        "velocity": 0,
        "subtype": "noteOff"
      },
      {
        "deltaTime": 0,
        "channel": 5,
        "type": "channel",
        "noteNumber": 75,
        "velocity": 127,
        "subtype": "noteOn"
      },
      {
        "deltaTime": 480,
        "channel": 5,
        "type": "channel",
        "noteNumber": 74,
        "velocity": 0,
        "subtype": "noteOff"
      },
      {
        "deltaTime": 0,
        "channel": 5,
        "type": "channel",
        "noteNumber": 74,
        "velocity": 127,
        "subtype": "noteOn"
      },
      {
        "deltaTime": 960,
        "channel": 5,
        "type": "channel",
        "noteNumber": 75,
        "velocity": 0,
        "subtype": "noteOff"
      },
      {
        "deltaTime": 0,
        "channel": 5,
        "type": "channel",
        "noteNumber": 77,
        "velocity": 127,
        "subtype": "noteOn"
      },
      {
        "deltaTime": 480,
        "channel": 5,
        "type": "channel",
        "noteNumber": 74,
        "velocity": 0,
        "subtype": "noteOff"
      },
      {
        "deltaTime": 0,
        "channel": 5,
        "type": "channel",
        "noteNumber": 70,
        "velocity": 127,
        "subtype": "noteOn"
      },
      {
        "deltaTime": 480,
        "channel": 5,
        "type": "channel",
        "noteNumber": 70,
        "velocity": 0,
        "subtype": "noteOff"
      },
      {
        "deltaTime": 0,
        "channel": 5,
        "type": "channel",
        "noteNumber": 70,
        "velocity": 127,
        "subtype": "noteOn"
      },
      {
        "deltaTime": 480,
        "channel": 5,
        "type": "channel",
        "noteNumber": 77,
        "velocity": 0,
        "subtype": "noteOff"
      },
      {
        "deltaTime": 0,
        "channel": 5,
        "type": "channel",
        "noteNumber": 77,
        "velocity": 127,
        "subtype": "noteOn"
      },
      {
        "deltaTime": 480,
        "channel": 5,
        "type": "channel",
        "noteNumber": 70,
        "velocity": 0,
        "subtype": "noteOff"
      },
      {
        "deltaTime": 0,
        "channel": 5,
        "type": "channel",
        "noteNumber": 70,
        "velocity": 127,
        "subtype": "noteOn"
      },
      {
        "deltaTime": 480,
        "channel": 5,
        "type": "channel",
        "noteNumber": 70,
        "velocity": 0,
        "subtype": "noteOff"
      },
      {
        "deltaTime": 0,
        "channel": 5,
        "type": "channel",
        "noteNumber": 77,
        "velocity": 0,
        "subtype": "noteOff"
      },
      {
        "deltaTime": 0,
        "channel": 5,
        "type": "channel",
        "noteNumber": 63,
        "velocity": 127,
        "subtype": "noteOn"
      },
      {
        "deltaTime": 0,
        "channel": 5,
        "type": "channel",
        "noteNumber": 63,
        "velocity": 127,
        "subtype": "noteOn"
      },
      {
        "deltaTime": 480,
        "channel": 5,
        "type": "channel",
        "noteNumber": 63,
        "velocity": 0,
        "subtype": "noteOff"
      },
      {
        "deltaTime": 0,
        "channel": 5,
        "type": "channel",
        "noteNumber": 63,
        "velocity": 0,
        "subtype": "noteOff"
      },
      {
        "deltaTime": 0,
        "channel": 5,
        "type": "channel",
        "noteNumber": 63,
        "velocity": 127,
        "subtype": "noteOn"
      },
      {
        "deltaTime": 0,
        "channel": 5,
        "type": "channel",
        "noteNumber": 63,
        "velocity": 127,
        "subtype": "noteOn"
      },
      {
        "deltaTime": 480,
        "channel": 5,
        "type": "channel",
        "noteNumber": 63,
        "velocity": 0,
        "subtype": "noteOff"
      },
      {
        "deltaTime": 0,
        "channel": 5,
        "type": "channel",
        "noteNumber": 63,
        "velocity": 0,
        "subtype": "noteOff"
      },
      {
        "deltaTime": 0,
        "channel": 5,
        "type": "channel",
        "noteNumber": 63,
        "velocity": 127,
        "subtype": "noteOn"
      },
      {
        "deltaTime": 0,
        "channel": 5,
        "type": "channel",
        "noteNumber": 65,
        "velocity": 127,
        "subtype": "noteOn"
      },
      {
        "deltaTime": 480,
        "channel": 5,
        "type": "channel",
        "noteNumber": 65,
        "velocity": 0,
        "subtype": "noteOff"
      },
      {
        "deltaTime": 0,
        "channel": 5,
        "type": "channel",
        "noteNumber": 63,
        "velocity": 0,
        "subtype": "noteOff"
      },
      {
        "deltaTime": 0,
        "channel": 5,
        "type": "channel",
        "noteNumber": 63,
        "velocity": 127,
        "subtype": "noteOn"
      },
      {
        "deltaTime": 0,
        "channel": 5,
        "type": "channel",
        "noteNumber": 65,
        "velocity": 127,
        "subtype": "noteOn"
      },
      {
        "deltaTime": 480,
        "channel": 5,
        "type": "channel",
        "noteNumber": 65,
        "velocity": 0,
        "subtype": "noteOff"
      },
      {
        "deltaTime": 0,
        "channel": 5,
        "type": "channel",
        "noteNumber": 63,
        "velocity": 0,
        "subtype": "noteOff"
      },
      {
        "deltaTime": 0,
        "channel": 5,
        "type": "channel",
        "noteNumber": 63,
        "velocity": 127,
        "subtype": "noteOn"
      },
      {
        "deltaTime": 0,
        "channel": 5,
        "type": "channel",
        "noteNumber": 67,
        "velocity": 127,
        "subtype": "noteOn"
      },
      {
        "deltaTime": 480,
        "channel": 5,
        "type": "channel",
        "noteNumber": 67,
        "velocity": 0,
        "subtype": "noteOff"
      },
      {
        "deltaTime": 0,
        "channel": 5,
        "type": "channel",
        "noteNumber": 63,
        "velocity": 0,
        "subtype": "noteOff"
      },
      {
        "deltaTime": 0,
        "channel": 5,
        "type": "channel",
        "noteNumber": 63,
        "velocity": 127,
        "subtype": "noteOn"
      },
      {
        "deltaTime": 0,
        "channel": 5,
        "type": "channel",
        "noteNumber": 67,
        "velocity": 127,
        "subtype": "noteOn"
      },
      {
        "deltaTime": 480,
        "channel": 5,
        "type": "channel",
        "noteNumber": 67,
        "velocity": 0,
        "subtype": "noteOff"
      },
      {
        "deltaTime": 0,
        "channel": 5,
        "type": "channel",
        "noteNumber": 63,
        "velocity": 0,
        "subtype": "noteOff"
      },
      {
        "deltaTime": 0,
        "channel": 5,
        "type": "channel",
        "noteNumber": 63,
        "velocity": 127,
        "subtype": "noteOn"
      },
      {
        "deltaTime": 0,
        "channel": 5,
        "type": "channel",
        "noteNumber": 70,
        "velocity": 127,
        "subtype": "noteOn"
      },
      {
        "deltaTime": 480,
        "channel": 5,
        "type": "channel",
        "noteNumber": 70,
        "velocity": 0,
        "subtype": "noteOff"
      },
      {
        "deltaTime": 0,
        "channel": 5,
        "type": "channel",
        "noteNumber": 63,
        "velocity": 0,
        "subtype": "noteOff"
      },
      {
        "deltaTime": 0,
        "channel": 5,
        "type": "channel",
        "noteNumber": 63,
        "velocity": 127,
        "subtype": "noteOn"
      },
      {
        "deltaTime": 0,
        "channel": 5,
        "type": "channel",
        "noteNumber": 70,
        "velocity": 127,
        "subtype": "noteOn"
      },
      {
        "deltaTime": 480,
        "channel": 5,
        "type": "channel",
        "noteNumber": 70,
        "velocity": 0,
        "subtype": "noteOff"
      },
      {
        "deltaTime": 0,
        "channel": 5,
        "type": "channel",
        "noteNumber": 63,
        "velocity": 0,
        "subtype": "noteOff"
      },
      {
        "deltaTime": 0,
        "channel": 5,
        "type": "channel",
        "noteNumber": 63,
        "velocity": 127,
        "subtype": "noteOn"
      },
      {
        "deltaTime": 0,
        "channel": 5,
        "type": "channel",
        "noteNumber": 67,
        "velocity": 127,
        "subtype": "noteOn"
      },
      {
        "deltaTime": 480,
        "channel": 5,
        "type": "channel",
        "noteNumber": 67,
        "velocity": 0,
        "subtype": "noteOff"
      },
      {
        "deltaTime": 0,
        "channel": 5,
        "type": "channel",
        "noteNumber": 63,
        "velocity": 0,
        "subtype": "noteOff"
      },
      {
        "deltaTime": 0,
        "channel": 5,
        "type": "channel",
        "noteNumber": 63,
        "velocity": 127,
        "subtype": "noteOn"
      },
      {
        "deltaTime": 0,
        "channel": 5,
        "type": "channel",
        "noteNumber": 67,
        "velocity": 127,
        "subtype": "noteOn"
      },
      {
        "deltaTime": 480,
        "channel": 5,
        "type": "channel",
        "noteNumber": 67,
        "velocity": 0,
        "subtype": "noteOff"
      },
      {
        "deltaTime": 0,
        "channel": 5,
        "type": "channel",
        "noteNumber": 63,
        "velocity": 0,
        "subtype": "noteOff"
      },
      {
        "deltaTime": 0,
        "channel": 5,
        "type": "channel",
        "noteNumber": 63,
        "velocity": 127,
        "subtype": "noteOn"
      },
      {
        "deltaTime": 0,
        "channel": 5,
        "type": "channel",
        "noteNumber": 67,
        "velocity": 127,
        "subtype": "noteOn"
      },
      {
        "deltaTime": 480,
        "channel": 5,
        "type": "channel",
        "noteNumber": 67,
        "velocity": 0,
        "subtype": "noteOff"
      },
      {
        "deltaTime": 0,
        "channel": 5,
        "type": "channel",
        "noteNumber": 63,
        "velocity": 0,
        "subtype": "noteOff"
      },
      {
        "deltaTime": 0,
        "channel": 5,
        "type": "channel",
        "noteNumber": 63,
        "velocity": 127,
        "subtype": "noteOn"
      },
      {
        "deltaTime": 0,
        "channel": 5,
        "type": "channel",
        "noteNumber": 67,
        "velocity": 127,
        "subtype": "noteOn"
      },
      {
        "deltaTime": 480,
        "channel": 5,
        "type": "channel",
        "noteNumber": 67,
        "velocity": 0,
        "subtype": "noteOff"
      },
      {
        "deltaTime": 0,
        "channel": 5,
        "type": "channel",
        "noteNumber": 63,
        "velocity": 0,
        "subtype": "noteOff"
      },
      {
        "deltaTime": 0,
        "channel": 5,
        "type": "channel",
        "noteNumber": 63,
        "velocity": 127,
        "subtype": "noteOn"
      },
      {
        "deltaTime": 0,
        "channel": 5,
        "type": "channel",
        "noteNumber": 65,
        "velocity": 127,
        "subtype": "noteOn"
      },
      {
        "deltaTime": 480,
        "channel": 5,
        "type": "channel",
        "noteNumber": 65,
        "velocity": 0,
        "subtype": "noteOff"
      },
      {
        "deltaTime": 0,
        "channel": 5,
        "type": "channel",
        "noteNumber": 63,
        "velocity": 0,
        "subtype": "noteOff"
      },
      {
        "deltaTime": 0,
        "channel": 5,
        "type": "channel",
        "noteNumber": 63,
        "velocity": 127,
        "subtype": "noteOn"
      },
      {
        "deltaTime": 0,
        "channel": 5,
        "type": "channel",
        "noteNumber": 65,
        "velocity": 127,
        "subtype": "noteOn"
      },
      {
        "deltaTime": 480,
        "channel": 5,
        "type": "channel",
        "noteNumber": 65,
        "velocity": 0,
        "subtype": "noteOff"
      },
      {
        "deltaTime": 0,
        "channel": 5,
        "type": "channel",
        "noteNumber": 63,
        "velocity": 0,
        "subtype": "noteOff"
      },
      {
        "deltaTime": 0,
        "channel": 5,
        "type": "channel",
        "noteNumber": 63,
        "velocity": 127,
        "subtype": "noteOn"
      },
      {
        "deltaTime": 0,
        "channel": 5,
        "type": "channel",
        "noteNumber": 65,
        "velocity": 127,
        "subtype": "noteOn"
      },
      {
        "deltaTime": 480,
        "channel": 5,
        "type": "channel",
        "noteNumber": 65,
        "velocity": 0,
        "subtype": "noteOff"
      },
      {
        "deltaTime": 0,
        "channel": 5,
        "type": "channel",
        "noteNumber": 63,
        "velocity": 0,
        "subtype": "noteOff"
      },
      {
        "deltaTime": 0,
        "channel": 5,
        "type": "channel",
        "noteNumber": 63,
        "velocity": 127,
        "subtype": "noteOn"
      },
      {
        "deltaTime": 0,
        "channel": 5,
        "type": "channel",
        "noteNumber": 65,
        "velocity": 127,
        "subtype": "noteOn"
      },
      {
        "deltaTime": 480,
        "channel": 5,
        "type": "channel",
        "noteNumber": 65,
        "velocity": 0,
        "subtype": "noteOff"
      },
      {
        "deltaTime": 0,
        "channel": 5,
        "type": "channel",
        "noteNumber": 63,
        "velocity": 0,
        "subtype": "noteOff"
      },
      {
        "deltaTime": 0,
        "channel": 5,
        "type": "channel",
        "noteNumber": 63,
        "velocity": 127,
        "subtype": "noteOn"
      },
      {
        "deltaTime": 0,
        "channel": 5,
        "type": "channel",
        "noteNumber": 63,
        "velocity": 127,
        "subtype": "noteOn"
      },
      {
        "deltaTime": 480,
        "channel": 5,
        "type": "channel",
        "noteNumber": 63,
        "velocity": 0,
        "subtype": "noteOff"
      },
      {
        "deltaTime": 0,
        "channel": 5,
        "type": "channel",
        "noteNumber": 63,
        "velocity": 0,
        "subtype": "noteOff"
      },
      {
        "deltaTime": 0,
        "channel": 5,
        "type": "channel",
        "noteNumber": 63,
        "velocity": 127,
        "subtype": "noteOn"
      },
      {
        "deltaTime": 0,
        "channel": 5,
        "type": "channel",
        "noteNumber": 63,
        "velocity": 127,
        "subtype": "noteOn"
      },
      {
        "deltaTime": 480,
        "channel": 5,
        "type": "channel",
        "noteNumber": 63,
        "velocity": 0,
        "subtype": "noteOff"
      },
      {
        "deltaTime": 0,
        "channel": 5,
        "type": "channel",
        "noteNumber": 63,
        "velocity": 0,
        "subtype": "noteOff"
      },
      {
        "deltaTime": 0,
        "channel": 5,
        "type": "channel",
        "noteNumber": 63,
        "velocity": 127,
        "subtype": "noteOn"
      },
      {
        "deltaTime": 0,
        "channel": 5,
        "type": "channel",
        "noteNumber": 65,
        "velocity": 127,
        "subtype": "noteOn"
      },
      {
        "deltaTime": 480,
        "channel": 5,
        "type": "channel",
        "noteNumber": 65,
        "velocity": 0,
        "subtype": "noteOff"
      },
      {
        "deltaTime": 0,
        "channel": 5,
        "type": "channel",
        "noteNumber": 63,
        "velocity": 0,
        "subtype": "noteOff"
      },
      {
        "deltaTime": 0,
        "channel": 5,
        "type": "channel",
        "noteNumber": 63,
        "velocity": 127,
        "subtype": "noteOn"
      },
      {
        "deltaTime": 0,
        "channel": 5,
        "type": "channel",
        "noteNumber": 65,
        "velocity": 127,
        "subtype": "noteOn"
      },
      {
        "deltaTime": 480,
        "channel": 5,
        "type": "channel",
        "noteNumber": 65,
        "velocity": 0,
        "subtype": "noteOff"
      },
      {
        "deltaTime": 0,
        "channel": 5,
        "type": "channel",
        "noteNumber": 63,
        "velocity": 0,
        "subtype": "noteOff"
      },
      {
        "deltaTime": 0,
        "channel": 5,
        "type": "channel",
        "noteNumber": 63,
        "velocity": 127,
        "subtype": "noteOn"
      },
      {
        "deltaTime": 0,
        "channel": 5,
        "type": "channel",
        "noteNumber": 67,
        "velocity": 127,
        "subtype": "noteOn"
      },
      {
        "deltaTime": 480,
        "channel": 5,
        "type": "channel",
        "noteNumber": 67,
        "velocity": 0,
        "subtype": "noteOff"
      },
      {
        "deltaTime": 0,
        "channel": 5,
        "type": "channel",
        "noteNumber": 63,
        "velocity": 0,
        "subtype": "noteOff"
      },
      {
        "deltaTime": 0,
        "channel": 5,
        "type": "channel",
        "noteNumber": 63,
        "velocity": 127,
        "subtype": "noteOn"
      },
      {
        "deltaTime": 0,
        "channel": 5,
        "type": "channel",
        "noteNumber": 67,
        "velocity": 127,
        "subtype": "noteOn"
      },
      {
        "deltaTime": 480,
        "channel": 5,
        "type": "channel",
        "noteNumber": 67,
        "velocity": 0,
        "subtype": "noteOff"
      },
      {
        "deltaTime": 0,
        "channel": 5,
        "type": "channel",
        "noteNumber": 63,
        "velocity": 0,
        "subtype": "noteOff"
      },
      {
        "deltaTime": 0,
        "channel": 5,
        "type": "channel",
        "noteNumber": 63,
        "velocity": 127,
        "subtype": "noteOn"
      },
      {
        "deltaTime": 0,
        "channel": 5,
        "type": "channel",
        "noteNumber": 70,
        "velocity": 127,
        "subtype": "noteOn"
      },
      {
        "deltaTime": 480,
        "channel": 5,
        "type": "channel",
        "noteNumber": 70,
        "velocity": 0,
        "subtype": "noteOff"
      },
      {
        "deltaTime": 0,
        "channel": 5,
        "type": "channel",
        "noteNumber": 63,
        "velocity": 0,
        "subtype": "noteOff"
      },
      {
        "deltaTime": 0,
        "channel": 5,
        "type": "channel",
        "noteNumber": 63,
        "velocity": 127,
        "subtype": "noteOn"
      },
      {
        "deltaTime": 0,
        "channel": 5,
        "type": "channel",
        "noteNumber": 70,
        "velocity": 127,
        "subtype": "noteOn"
      },
      {
        "deltaTime": 480,
        "channel": 5,
        "type": "channel",
        "noteNumber": 70,
        "velocity": 0,
        "subtype": "noteOff"
      },
      {
        "deltaTime": 0,
        "channel": 5,
        "type": "channel",
        "noteNumber": 63,
        "velocity": 0,
        "subtype": "noteOff"
      },
      {
        "deltaTime": 0,
        "channel": 5,
        "type": "channel",
        "noteNumber": 63,
        "velocity": 127,
        "subtype": "noteOn"
      },
      {
        "deltaTime": 0,
        "channel": 5,
        "type": "channel",
        "noteNumber": 65,
        "velocity": 127,
        "subtype": "noteOn"
      },
      {
        "deltaTime": 480,
        "channel": 5,
        "type": "channel",
        "noteNumber": 65,
        "velocity": 0,
        "subtype": "noteOff"
      },
      {
        "deltaTime": 0,
        "channel": 5,
        "type": "channel",
        "noteNumber": 63,
        "velocity": 0,
        "subtype": "noteOff"
      },
      {
        "deltaTime": 0,
        "channel": 5,
        "type": "channel",
        "noteNumber": 63,
        "velocity": 127,
        "subtype": "noteOn"
      },
      {
        "deltaTime": 0,
        "channel": 5,
        "type": "channel",
        "noteNumber": 65,
        "velocity": 127,
        "subtype": "noteOn"
      },
      {
        "deltaTime": 480,
        "channel": 5,
        "type": "channel",
        "noteNumber": 65,
        "velocity": 0,
        "subtype": "noteOff"
      },
      {
        "deltaTime": 0,
        "channel": 5,
        "type": "channel",
        "noteNumber": 63,
        "velocity": 0,
        "subtype": "noteOff"
      },
      {
        "deltaTime": 0,
        "channel": 5,
        "type": "channel",
        "noteNumber": 63,
        "velocity": 127,
        "subtype": "noteOn"
      },
      {
        "deltaTime": 0,
        "channel": 5,
        "type": "channel",
        "noteNumber": 65,
        "velocity": 127,
        "subtype": "noteOn"
      },
      {
        "deltaTime": 480,
        "channel": 5,
        "type": "channel",
        "noteNumber": 65,
        "velocity": 0,
        "subtype": "noteOff"
      },
      {
        "deltaTime": 0,
        "channel": 5,
        "type": "channel",
        "noteNumber": 63,
        "velocity": 0,
        "subtype": "noteOff"
      },
      {
        "deltaTime": 0,
        "channel": 5,
        "type": "channel",
        "noteNumber": 63,
        "velocity": 127,
        "subtype": "noteOn"
      },
      {
        "deltaTime": 0,
        "channel": 5,
        "type": "channel",
        "noteNumber": 65,
        "velocity": 127,
        "subtype": "noteOn"
      },
      {
        "deltaTime": 480,
        "channel": 5,
        "type": "channel",
        "noteNumber": 65,
        "velocity": 0,
        "subtype": "noteOff"
      },
      {
        "deltaTime": 0,
        "channel": 5,
        "type": "channel",
        "noteNumber": 63,
        "velocity": 0,
        "subtype": "noteOff"
      },
      {
        "deltaTime": 0,
        "channel": 5,
        "type": "channel",
        "noteNumber": 63,
        "velocity": 127,
        "subtype": "noteOn"
      },
      {
        "deltaTime": 0,
        "channel": 5,
        "type": "channel",
        "noteNumber": 65,
        "velocity": 127,
        "subtype": "noteOn"
      },
      {
        "deltaTime": 480,
        "channel": 5,
        "type": "channel",
        "noteNumber": 65,
        "velocity": 0,
        "subtype": "noteOff"
      },
      {
        "deltaTime": 0,
        "channel": 5,
        "type": "channel",
        "noteNumber": 63,
        "velocity": 0,
        "subtype": "noteOff"
      },
      {
        "deltaTime": 0,
        "channel": 5,
        "type": "channel",
        "noteNumber": 63,
        "velocity": 127,
        "subtype": "noteOn"
      },
      {
        "deltaTime": 0,
        "channel": 5,
        "type": "channel",
        "noteNumber": 65,
        "velocity": 127,
        "subtype": "noteOn"
      },
      {
        "deltaTime": 480,
        "channel": 5,
        "type": "channel",
        "noteNumber": 65,
        "velocity": 0,
        "subtype": "noteOff"
      },
      {
        "deltaTime": 0,
        "channel": 5,
        "type": "channel",
        "noteNumber": 63,
        "velocity": 0,
        "subtype": "noteOff"
      },
      {
        "deltaTime": 0,
        "channel": 5,
        "type": "channel",
        "noteNumber": 63,
        "velocity": 127,
        "subtype": "noteOn"
      },
      {
        "deltaTime": 0,
        "channel": 5,
        "type": "channel",
        "noteNumber": 65,
        "velocity": 127,
        "subtype": "noteOn"
      },
      {
        "deltaTime": 480,
        "channel": 5,
        "type": "channel",
        "noteNumber": 65,
        "velocity": 0,
        "subtype": "noteOff"
      },
      {
        "deltaTime": 0,
        "channel": 5,
        "type": "channel",
        "noteNumber": 58,
        "velocity": 127,
        "subtype": "noteOn"
      },
      {
        "deltaTime": 480,
        "channel": 5,
        "type": "channel",
        "noteNumber": 63,
        "velocity": 0,
        "subtype": "noteOff"
      },
      {
        "deltaTime": 0,
        "channel": 5,
        "type": "channel",
        "noteNumber": 79,
        "velocity": 127,
        "subtype": "noteOn"
      },
      {
        "deltaTime": 960,
        "channel": 5,
        "type": "channel",
        "noteNumber": 70,
        "velocity": 127,
        "subtype": "noteOn"
      },
      {
        "deltaTime": 480,
        "channel": 5,
        "type": "channel",
        "noteNumber": 79,
        "velocity": 0,
        "subtype": "noteOff"
      },
      {
        "deltaTime": 0,
        "channel": 5,
        "type": "channel",
        "noteNumber": 79,
        "velocity": 127,
        "subtype": "noteOn"
      },
      {
        "deltaTime": 1440,
        "channel": 5,
        "type": "channel",
        "noteNumber": 70,
        "velocity": 0,
        "subtype": "noteOff"
      },
      {
        "deltaTime": 0,
        "channel": 5,
        "type": "channel",
        "noteNumber": 70,
        "velocity": 127,
        "subtype": "noteOn"
      },
      {
        "deltaTime": 480,
        "channel": 5,
        "type": "channel",
        "noteNumber": 58,
        "velocity": 0,
        "subtype": "noteOff"
      },
      {
        "deltaTime": 0,
        "channel": 5,
        "type": "channel",
        "noteNumber": 74,
        "velocity": 127,
        "subtype": "noteOn"
      },
      {
        "deltaTime": 960,
        "channel": 5,
        "type": "channel",
        "noteNumber": 74,
        "velocity": 0,
        "subtype": "noteOff"
      },
      {
        "deltaTime": 0,
        "channel": 5,
        "type": "channel",
        "noteNumber": 75,
        "velocity": 127,
        "subtype": "noteOn"
      },
      {
        "deltaTime": 960,
        "channel": 5,
        "type": "channel",
        "noteNumber": 75,
        "velocity": 0,
        "subtype": "noteOff"
      },
      {
        "deltaTime": 0,
        "channel": 5,
        "type": "channel",
        "noteNumber": 79,
        "velocity": 0,
        "subtype": "noteOff"
      },
      {
        "deltaTime": 0,
        "channel": 5,
        "type": "channel",
        "noteNumber": 74,
        "velocity": 127,
        "subtype": "noteOn"
      },
      {
        "deltaTime": 960,
        "channel": 5,
        "type": "channel",
        "noteNumber": 74,
        "velocity": 0,
        "subtype": "noteOff"
      },
      {
        "deltaTime": 0,
        "channel": 5,
        "type": "channel",
        "noteNumber": 75,
        "velocity": 127,
        "subtype": "noteOn"
      },
      {
        "deltaTime": 480,
        "channel": 5,
        "type": "channel",
        "noteNumber": 75,
        "velocity": 0,
        "subtype": "noteOff"
      },
      {
        "deltaTime": 0,
        "channel": 5,
        "type": "channel",
        "noteNumber": 70,
        "velocity": 0,
        "subtype": "noteOff"
      },
      {
        "deltaTime": 0,
        "channel": 5,
        "type": "channel",
        "noteNumber": 75,
        "velocity": 127,
        "subtype": "noteOn"
      },
      {
        "deltaTime": 480,
        "channel": 5,
        "type": "channel",
        "noteNumber": 77,
        "velocity": 127,
        "subtype": "noteOn"
      },
      {
        "deltaTime": 960,
        "channel": 5,
        "type": "channel",
        "noteNumber": 75,
        "velocity": 0,
        "subtype": "noteOff"
      },
      {
        "deltaTime": 0,
        "channel": 5,
        "type": "channel",
        "noteNumber": 70,
        "velocity": 127,
        "subtype": "noteOn"
      },
      {
        "deltaTime": 960,
        "channel": 5,
        "type": "channel",
        "noteNumber": 77,
        "velocity": 0,
        "subtype": "noteOff"
      },
      {
        "deltaTime": 0,
        "channel": 5,
        "type": "channel",
        "noteNumber": 77,
        "velocity": 127,
        "subtype": "noteOn"
      },
      {
        "deltaTime": 960,
        "channel": 5,
        "type": "channel",
        "noteNumber": 70,
        "velocity": 0,
        "subtype": "noteOff"
      },
      {
        "deltaTime": 0,
        "channel": 5,
        "type": "channel",
        "noteNumber": 70,
        "velocity": 127,
        "subtype": "noteOn"
      },
      {
        "deltaTime": 960,
        "channel": 5,
        "type": "channel",
        "noteNumber": 77,
        "velocity": 0,
        "subtype": "noteOff"
      },
      {
        "deltaTime": 0,
        "channel": 5,
        "type": "channel",
        "noteNumber": 77,
        "velocity": 127,
        "subtype": "noteOn"
      },
      {
        "deltaTime": 480,
        "channel": 5,
        "type": "channel",
        "noteNumber": 77,
        "velocity": 0,
        "subtype": "noteOff"
      },
      {
        "deltaTime": 0,
        "channel": 5,
        "type": "channel",
        "noteNumber": 77,
        "velocity": 127,
        "subtype": "noteOn"
      },
      {
        "deltaTime": 480,
        "channel": 5,
        "type": "channel",
        "noteNumber": 70,
        "velocity": 0,
        "subtype": "noteOff"
      },
      {
        "deltaTime": 0,
        "channel": 5,
        "type": "channel",
        "noteNumber": 70,
        "velocity": 127,
        "subtype": "noteOn"
      },
      {
        "deltaTime": 480,
        "channel": 5,
        "type": "channel",
        "noteNumber": 70,
        "velocity": 0,
        "subtype": "noteOff"
      },
      {
        "deltaTime": 0,
        "channel": 5,
        "type": "channel",
        "noteNumber": 70,
        "velocity": 127,
        "subtype": "noteOn"
      },
      {
        "deltaTime": 480,
        "channel": 5,
        "type": "channel",
        "noteNumber": 77,
        "velocity": 0,
        "subtype": "noteOff"
      },
      {
        "deltaTime": 0,
        "channel": 5,
        "type": "channel",
        "noteNumber": 77,
        "velocity": 127,
        "subtype": "noteOn"
      },
      {
        "deltaTime": 960,
        "channel": 5,
        "type": "channel",
        "noteNumber": 77,
        "velocity": 0,
        "subtype": "noteOff"
      },
      {
        "deltaTime": 0,
        "channel": 5,
        "type": "channel",
        "noteNumber": 70,
        "velocity": 0,
        "subtype": "noteOff"
      },
      {
        "deltaTime": 0,
        "channel": 5,
        "type": "channel",
        "noteNumber": 70,
        "velocity": 127,
        "subtype": "noteOn"
      },
      {
        "deltaTime": 480,
        "channel": 5,
        "type": "channel",
        "noteNumber": 70,
        "velocity": 0,
        "subtype": "noteOff"
      },
      {
        "deltaTime": 0,
        "channel": 5,
        "type": "channel",
        "noteNumber": 70,
        "velocity": 127,
        "subtype": "noteOn"
      },
      {
        "deltaTime": 480,
        "channel": 5,
        "type": "channel",
        "noteNumber": 70,
        "velocity": 0,
        "subtype": "noteOff"
      },
      {
        "deltaTime": 0,
        "channel": 5,
        "type": "channel",
        "noteNumber": 77,
        "velocity": 127,
        "subtype": "noteOn"
      },
      {
        "deltaTime": 480,
        "channel": 5,
        "type": "channel",
        "noteNumber": 77,
        "velocity": 0,
        "subtype": "noteOff"
      },
      {
        "deltaTime": 0,
        "channel": 5,
        "type": "channel",
        "noteNumber": 79,
        "velocity": 127,
        "subtype": "noteOn"
      },
      {
        "deltaTime": 0,
        "channel": 5,
        "type": "channel",
        "noteNumber": 70,
        "velocity": 127,
        "subtype": "noteOn"
      },
      {
        "deltaTime": 2880,
        "channel": 5,
        "type": "channel",
        "noteNumber": 70,
        "velocity": 0,
        "subtype": "noteOff"
      },
      {
        "deltaTime": 0,
        "channel": 5,
        "type": "channel",
        "noteNumber": 79,
        "velocity": 0,
        "subtype": "noteOff"
      },
      {
        "deltaTime": 0,
        "channel": 5,
        "type": "channel",
        "noteNumber": 75,
        "velocity": 127,
        "subtype": "noteOn"
      },
      {
        "deltaTime": 0,
        "channel": 5,
        "type": "channel",
        "noteNumber": 70,
        "velocity": 127,
        "subtype": "noteOn"
      },
      {
        "deltaTime": 2880,
        "channel": 5,
        "type": "channel",
        "noteNumber": 70,
        "velocity": 0,
        "subtype": "noteOff"
      },
      {
        "deltaTime": 0,
        "channel": 5,
        "type": "channel",
        "noteNumber": 75,
        "velocity": 0,
        "subtype": "noteOff"
      },
      {
        "deltaTime": 0,
        "channel": 5,
        "type": "channel",
        "noteNumber": 63,
        "velocity": 127,
        "subtype": "noteOn"
      },
      {
        "deltaTime": 0,
        "channel": 5,
        "type": "channel",
        "noteNumber": 58,
        "velocity": 127,
        "subtype": "noteOn"
      },
      {
        "deltaTime": 0,
        "channel": 5,
        "type": "channel",
        "noteNumber": 55,
        "velocity": 127,
        "subtype": "noteOn"
      },
      {
        "deltaTime": 0,
        "channel": 5,
        "type": "channel",
        "noteNumber": 51,
        "velocity": 127,
        "subtype": "noteOn"
      },
      {
        "deltaTime": 0,
        "channel": 5,
        "type": "channel",
        "noteNumber": 46,
        "velocity": 127,
        "subtype": "noteOn"
      },
      {
        "deltaTime": 0,
        "channel": 5,
        "type": "channel",
        "noteNumber": 39,
        "velocity": 127,
        "subtype": "noteOn"
      },
      {
        "deltaTime": 5760,
        "channel": 5,
        "type": "channel",
        "noteNumber": 39,
        "velocity": 0,
        "subtype": "noteOff"
      },
      {
        "deltaTime": 0,
        "channel": 5,
        "type": "channel",
        "noteNumber": 58,
        "velocity": 0,
        "subtype": "noteOff"
      },
      {
        "deltaTime": 0,
        "channel": 5,
        "type": "channel",
        "noteNumber": 55,
        "velocity": 0,
        "subtype": "noteOff"
      },
      {
        "deltaTime": 0,
        "channel": 5,
        "type": "channel",
        "noteNumber": 63,
        "velocity": 0,
        "subtype": "noteOff"
      },
      {
        "deltaTime": 0,
        "channel": 5,
        "type": "channel",
        "noteNumber": 46,
        "velocity": 0,
        "subtype": "noteOff"
      },
      {
        "deltaTime": 0,
        "channel": 5,
        "type": "channel",
        "noteNumber": 51,
        "velocity": 0,
        "subtype": "noteOff"
      },
      {
        "deltaTime": 0,
        "type": "meta",
        "subtype": "endOfTrack"
      }
    ],
    [
      {
        "deltaTime": 0,
        "type": "meta",
        "subtype": "trackName",
        "text": "Bass"
      },
      {
        "deltaTime": 0,
        "channel": 6,
        "type": "channel",
        "subtype": "controller",
        "controllerType": 0,
        "value": 121
      },
      {
        "deltaTime": 0,
        "channel": 6,
        "type": "channel",
        "subtype": "controller",
        "controllerType": 7,
        "value": 127
      },
      {
        "deltaTime": 0,
        "channel": 6,
        "type": "channel",
        "subtype": "controller",
        "controllerType": 10,
        "value": 64
      },
      {
        "deltaTime": 0,
        "channel": 6,
        "type": "channel",
        "subtype": "controller",
        "controllerType": 91,
        "value": 0
      },
      {
        "deltaTime": 0,
        "channel": 6,
        "type": "channel",
        "subtype": "controller",
        "controllerType": 93,
        "value": 0
      },
      {
        "deltaTime": 0,
        "channel": 6,
        "type": "channel",
        "subtype": "controller",
        "controllerType": 101,
        "value": 0
      },
      {
        "deltaTime": 1,
        "channel": 6,
        "type": "channel",
        "subtype": "controller",
        "controllerType": 100,
        "value": 0
      },
      {
        "deltaTime": 1,
        "channel": 6,
        "type": "channel",
        "subtype": "controller",
        "controllerType": 6,
        "value": 12
      },
      {
        "deltaTime": 1,
        "channel": 6,
        "type": "channel",
        "subtype": "controller",
        "controllerType": 38,
        "value": 0
      },
      {
        "deltaTime": 0,
        "channel": 6,
        "type": "channel",
        "subtype": "pitchBend",
        "value": 8192
      },
      {
        "deltaTime": 0,
        "channel": 6,
        "type": "channel",
        "subtype": "controller",
        "controllerType": 101,
        "value": 0
      },
      {
        "deltaTime": 1,
        "channel": 6,
        "type": "channel",
        "subtype": "controller",
        "controllerType": 100,
        "value": 1
      },
      {
        "deltaTime": 1,
        "channel": 6,
        "type": "channel",
        "subtype": "controller",
        "controllerType": 6,
        "value": 64
      },
      {
        "deltaTime": 1,
        "channel": 6,
        "type": "channel",
        "subtype": "controller",
        "controllerType": 38,
        "value": 0
      },
      {
        "deltaTime": 0,
        "channel": 6,
        "type": "channel",
        "subtype": "controller",
        "controllerType": 101,
        "value": 0
      },
      {
        "deltaTime": 1,
        "channel": 6,
        "type": "channel",
        "subtype": "controller",
        "controllerType": 100,
        "value": 0
      },
      {
        "deltaTime": 1,
        "channel": 6,
        "type": "channel",
        "subtype": "controller",
        "controllerType": 6,
        "value": 12
      },
      {
        "deltaTime": 1,
        "channel": 6,
        "type": "channel",
        "subtype": "controller",
        "controllerType": 38,
        "value": 0
      },
      {
        "deltaTime": 0,
        "channel": 6,
        "type": "channel",
        "subtype": "pitchBend",
        "value": 8192
      },
      {
        "deltaTime": 0,
        "channel": 6,
        "type": "channel",
        "subtype": "controller",
        "controllerType": 101,
        "value": 0
      },
      {
        "deltaTime": 1,
        "channel": 6,
        "type": "channel",
        "subtype": "controller",
        "controllerType": 100,
        "value": 1
      },
      {
        "deltaTime": 1,
        "channel": 6,
        "type": "channel",
        "subtype": "controller",
        "controllerType": 6,
        "value": 64
      },
      {
        "deltaTime": 1,
        "channel": 6,
        "type": "channel",
        "subtype": "controller",
        "controllerType": 38,
        "value": 0
      },
      {
        "deltaTime": 0,
        "channel": 6,
        "type": "channel",
        "subtype": "controller",
        "controllerType": 101,
        "value": 0
      },
      {
        "deltaTime": 1,
        "channel": 6,
        "type": "channel",
        "subtype": "controller",
        "controllerType": 100,
        "value": 2
      },
      {
        "deltaTime": 1,
        "channel": 6,
        "type": "channel",
        "subtype": "controller",
        "controllerType": 6,
        "value": 64
      },
      {
        "deltaTime": 1,
        "channel": 6,
        "type": "channel",
        "subtype": "controller",
        "controllerType": 38,
        "value": 0
      },
      {
        "deltaTime": 0,
        "channel": 6,
        "type": "channel",
        "subtype": "controller",
        "controllerType": 101,
        "value": 0
      },
      {
        "deltaTime": 1,
        "channel": 6,
        "type": "channel",
        "subtype": "controller",
        "controllerType": 100,
        "value": 2
      },
      {
        "deltaTime": 1,
        "channel": 6,
        "type": "channel",
        "subtype": "controller",
        "controllerType": 6,
        "value": 64
      },
      {
        "deltaTime": 1,
        "channel": 6,
        "type": "channel",
        "subtype": "controller",
        "controllerType": 38,
        "value": 0
      },
      {
        "deltaTime": 0,
        "channel": 6,
        "type": "channel",
        "subtype": "programChange",
        "programNumber": 33
      },
      {
        "deltaTime": 0,
        "channel": 6,
        "type": "channel",
        "subtype": "programChange",
        "programNumber": 33
      },
      {
        "deltaTime": 0,
        "channel": 6,
        "type": "channel",
        "subtype": "controller",
        "controllerType": 0,
        "value": 0
      },
      {
        "deltaTime": 0,
        "channel": 6,
        "type": "channel",
        "subtype": "controller",
        "controllerType": 0,
        "value": 0
      },
      {
        "deltaTime": 0,
        "channel": 6,
        "type": "channel",
        "subtype": "controller",
        "controllerType": 7,
        "value": 127
      },
      {
        "deltaTime": 0,
        "channel": 6,
        "type": "channel",
        "subtype": "controller",
        "controllerType": 10,
        "value": 64
      },
      {
        "deltaTime": 0,
        "channel": 6,
        "type": "channel",
        "subtype": "controller",
        "controllerType": 93,
        "value": 0
      },
      {
        "deltaTime": 0,
        "channel": 6,
        "type": "channel",
        "subtype": "controller",
        "controllerType": 91,
        "value": 0
      },
      {
        "deltaTime": 0,
        "channel": 6,
        "type": "channel",
        "subtype": "controller",
        "controllerType": 92,
        "value": 0
      },
      {
        "deltaTime": 0,
        "channel": 6,
        "type": "channel",
        "subtype": "controller",
        "controllerType": 92,
        "value": 0
      },
      {
        "deltaTime": 0,
        "channel": 6,
        "type": "channel",
        "subtype": "controller",
        "controllerType": 95,
        "value": 0
      },
      {
        "deltaTime": 0,
        "channel": 6,
        "type": "channel",
        "subtype": "controller",
        "controllerType": 95,
        "value": 0
      },
      {
        "deltaTime": 0,
        "channel": 6,
        "type": "channel",
        "subtype": "controller",
        "controllerType": 32,
        "value": 0
      },
      {
        "deltaTime": 0,
        "channel": 6,
        "type": "channel",
        "subtype": "programChange",
        "programNumber": 33
      },
      {
        "deltaTime": 2862,
        "channel": 6,
        "type": "channel",
        "noteNumber": 32,
        "velocity": 127,
        "subtype": "noteOn"
      },
      {
        "deltaTime": 720,
        "channel": 6,
        "type": "channel",
        "noteNumber": 32,
        "velocity": 0,
        "subtype": "noteOff"
      },
      {
        "deltaTime": 0,
        "channel": 6,
        "type": "channel",
        "noteNumber": 32,
        "velocity": 127,
        "subtype": "noteOn"
      },
      {
        "deltaTime": 720,
        "channel": 6,
        "type": "channel",
        "noteNumber": 32,
        "velocity": 0,
        "subtype": "noteOff"
      },
      {
        "deltaTime": 0,
        "channel": 6,
        "type": "channel",
        "noteNumber": 32,
        "velocity": 127,
        "subtype": "noteOn"
      },
      {
        "deltaTime": 480,
        "channel": 6,
        "type": "channel",
        "noteNumber": 32,
        "velocity": 0,
        "subtype": "noteOff"
      },
      {
        "deltaTime": 960,
        "channel": 6,
        "type": "channel",
        "noteNumber": 32,
        "velocity": 127,
        "subtype": "noteOn"
      },
      {
        "deltaTime": 720,
        "channel": 6,
        "type": "channel",
        "noteNumber": 32,
        "velocity": 0,
        "subtype": "noteOff"
      },
      {
        "deltaTime": 0,
        "channel": 6,
        "type": "channel",
        "noteNumber": 32,
        "velocity": 127,
        "subtype": "noteOn"
      },
      {
        "deltaTime": 720,
        "channel": 6,
        "type": "channel",
        "noteNumber": 32,
        "velocity": 0,
        "subtype": "noteOff"
      },
      {
        "deltaTime": 0,
        "channel": 6,
        "type": "channel",
        "noteNumber": 32,
        "velocity": 127,
        "subtype": "noteOn"
      },
      {
        "deltaTime": 480,
        "channel": 6,
        "type": "channel",
        "noteNumber": 32,
        "velocity": 0,
        "subtype": "noteOff"
      },
      {
        "deltaTime": 960,
        "channel": 6,
        "type": "channel",
        "noteNumber": 34,
        "velocity": 127,
        "subtype": "noteOn"
      },
      {
        "deltaTime": 720,
        "channel": 6,
        "type": "channel",
        "noteNumber": 34,
        "velocity": 0,
        "subtype": "noteOff"
      },
      {
        "deltaTime": 0,
        "channel": 6,
        "type": "channel",
        "noteNumber": 34,
        "velocity": 127,
        "subtype": "noteOn"
      },
      {
        "deltaTime": 720,
        "channel": 6,
        "type": "channel",
        "noteNumber": 34,
        "velocity": 0,
        "subtype": "noteOff"
      },
      {
        "deltaTime": 0,
        "channel": 6,
        "type": "channel",
        "noteNumber": 34,
        "velocity": 127,
        "subtype": "noteOn"
      },
      {
        "deltaTime": 480,
        "channel": 6,
        "type": "channel",
        "noteNumber": 34,
        "velocity": 0,
        "subtype": "noteOff"
      },
      {
        "deltaTime": 960,
        "channel": 6,
        "type": "channel",
        "noteNumber": 36,
        "velocity": 127,
        "subtype": "noteOn"
      },
      {
        "deltaTime": 720,
        "channel": 6,
        "type": "channel",
        "noteNumber": 36,
        "velocity": 0,
        "subtype": "noteOff"
      },
      {
        "deltaTime": 0,
        "channel": 6,
        "type": "channel",
        "noteNumber": 36,
        "velocity": 127,
        "subtype": "noteOn"
      },
      {
        "deltaTime": 720,
        "channel": 6,
        "type": "channel",
        "noteNumber": 36,
        "velocity": 0,
        "subtype": "noteOff"
      },
      {
        "deltaTime": 0,
        "channel": 6,
        "type": "channel",
        "noteNumber": 36,
        "velocity": 127,
        "subtype": "noteOn"
      },
      {
        "deltaTime": 480,
        "channel": 6,
        "type": "channel",
        "noteNumber": 36,
        "velocity": 0,
        "subtype": "noteOff"
      },
      {
        "deltaTime": 0,
        "channel": 6,
        "type": "channel",
        "noteNumber": 31,
        "velocity": 127,
        "subtype": "noteOn"
      },
      {
        "deltaTime": 960,
        "channel": 6,
        "type": "channel",
        "noteNumber": 31,
        "velocity": 0,
        "subtype": "noteOff"
      },
      {
        "deltaTime": 0,
        "channel": 6,
        "type": "channel",
        "noteNumber": 32,
        "velocity": 127,
        "subtype": "noteOn"
      },
      {
        "deltaTime": 720,
        "channel": 6,
        "type": "channel",
        "noteNumber": 32,
        "velocity": 0,
        "subtype": "noteOff"
      },
      {
        "deltaTime": 0,
        "channel": 6,
        "type": "channel",
        "noteNumber": 32,
        "velocity": 127,
        "subtype": "noteOn"
      },
      {
        "deltaTime": 720,
        "channel": 6,
        "type": "channel",
        "noteNumber": 32,
        "velocity": 0,
        "subtype": "noteOff"
      },
      {
        "deltaTime": 0,
        "channel": 6,
        "type": "channel",
        "noteNumber": 32,
        "velocity": 127,
        "subtype": "noteOn"
      },
      {
        "deltaTime": 480,
        "channel": 6,
        "type": "channel",
        "noteNumber": 32,
        "velocity": 0,
        "subtype": "noteOff"
      },
      {
        "deltaTime": 960,
        "channel": 6,
        "type": "channel",
        "noteNumber": 32,
        "velocity": 127,
        "subtype": "noteOn"
      },
      {
        "deltaTime": 720,
        "channel": 6,
        "type": "channel",
        "noteNumber": 32,
        "velocity": 0,
        "subtype": "noteOff"
      },
      {
        "deltaTime": 0,
        "channel": 6,
        "type": "channel",
        "noteNumber": 32,
        "velocity": 127,
        "subtype": "noteOn"
      },
      {
        "deltaTime": 720,
        "channel": 6,
        "type": "channel",
        "noteNumber": 32,
        "velocity": 0,
        "subtype": "noteOff"
      },
      {
        "deltaTime": 0,
        "channel": 6,
        "type": "channel",
        "noteNumber": 32,
        "velocity": 127,
        "subtype": "noteOn"
      },
      {
        "deltaTime": 480,
        "channel": 6,
        "type": "channel",
        "noteNumber": 32,
        "velocity": 0,
        "subtype": "noteOff"
      },
      {
        "deltaTime": 960,
        "channel": 6,
        "type": "channel",
        "noteNumber": 34,
        "velocity": 127,
        "subtype": "noteOn"
      },
      {
        "deltaTime": 720,
        "channel": 6,
        "type": "channel",
        "noteNumber": 34,
        "velocity": 0,
        "subtype": "noteOff"
      },
      {
        "deltaTime": 0,
        "channel": 6,
        "type": "channel",
        "noteNumber": 34,
        "velocity": 127,
        "subtype": "noteOn"
      },
      {
        "deltaTime": 720,
        "channel": 6,
        "type": "channel",
        "noteNumber": 34,
        "velocity": 0,
        "subtype": "noteOff"
      },
      {
        "deltaTime": 0,
        "channel": 6,
        "type": "channel",
        "noteNumber": 34,
        "velocity": 127,
        "subtype": "noteOn"
      },
      {
        "deltaTime": 480,
        "channel": 6,
        "type": "channel",
        "noteNumber": 34,
        "velocity": 0,
        "subtype": "noteOff"
      },
      {
        "deltaTime": 960,
        "channel": 6,
        "type": "channel",
        "noteNumber": 36,
        "velocity": 127,
        "subtype": "noteOn"
      },
      {
        "deltaTime": 720,
        "channel": 6,
        "type": "channel",
        "noteNumber": 36,
        "velocity": 0,
        "subtype": "noteOff"
      },
      {
        "deltaTime": 0,
        "channel": 6,
        "type": "channel",
        "noteNumber": 36,
        "velocity": 127,
        "subtype": "noteOn"
      },
      {
        "deltaTime": 720,
        "channel": 6,
        "type": "channel",
        "noteNumber": 36,
        "velocity": 0,
        "subtype": "noteOff"
      },
      {
        "deltaTime": 0,
        "channel": 6,
        "type": "channel",
        "noteNumber": 36,
        "velocity": 127,
        "subtype": "noteOn"
      },
      {
        "deltaTime": 480,
        "channel": 6,
        "type": "channel",
        "noteNumber": 36,
        "velocity": 0,
        "subtype": "noteOff"
      },
      {
        "deltaTime": 0,
        "channel": 6,
        "type": "channel",
        "noteNumber": 31,
        "velocity": 127,
        "subtype": "noteOn"
      },
      {
        "deltaTime": 960,
        "channel": 6,
        "type": "channel",
        "noteNumber": 31,
        "velocity": 0,
        "subtype": "noteOff"
      },
      {
        "deltaTime": 0,
        "channel": 6,
        "type": "channel",
        "noteNumber": 32,
        "velocity": 127,
        "subtype": "noteOn"
      },
      {
        "deltaTime": 240,
        "channel": 6,
        "type": "channel",
        "noteNumber": 32,
        "velocity": 0,
        "subtype": "noteOff"
      },
      {
        "deltaTime": 480,
        "channel": 6,
        "type": "channel",
        "noteNumber": 32,
        "velocity": 127,
        "subtype": "noteOn"
      },
      {
        "deltaTime": 240,
        "channel": 6,
        "type": "channel",
        "noteNumber": 32,
        "velocity": 0,
        "subtype": "noteOff"
      },
      {
        "deltaTime": 480,
        "channel": 6,
        "type": "channel",
        "noteNumber": 32,
        "velocity": 127,
        "subtype": "noteOn"
      },
      {
        "deltaTime": 480,
        "channel": 6,
        "type": "channel",
        "noteNumber": 32,
        "velocity": 0,
        "subtype": "noteOff"
      },
      {
        "deltaTime": 960,
        "channel": 6,
        "type": "channel",
        "noteNumber": 32,
        "velocity": 127,
        "subtype": "noteOn"
      },
      {
        "deltaTime": 240,
        "channel": 6,
        "type": "channel",
        "noteNumber": 32,
        "velocity": 0,
        "subtype": "noteOff"
      },
      {
        "deltaTime": 480,
        "channel": 6,
        "type": "channel",
        "noteNumber": 32,
        "velocity": 127,
        "subtype": "noteOn"
      },
      {
        "deltaTime": 240,
        "channel": 6,
        "type": "channel",
        "noteNumber": 32,
        "velocity": 0,
        "subtype": "noteOff"
      },
      {
        "deltaTime": 480,
        "channel": 6,
        "type": "channel",
        "noteNumber": 32,
        "velocity": 127,
        "subtype": "noteOn"
      },
      {
        "deltaTime": 480,
        "channel": 6,
        "type": "channel",
        "noteNumber": 32,
        "velocity": 0,
        "subtype": "noteOff"
      },
      {
        "deltaTime": 960,
        "channel": 6,
        "type": "channel",
        "noteNumber": 34,
        "velocity": 127,
        "subtype": "noteOn"
      },
      {
        "deltaTime": 240,
        "channel": 6,
        "type": "channel",
        "noteNumber": 34,
        "velocity": 0,
        "subtype": "noteOff"
      },
      {
        "deltaTime": 480,
        "channel": 6,
        "type": "channel",
        "noteNumber": 34,
        "velocity": 127,
        "subtype": "noteOn"
      },
      {
        "deltaTime": 240,
        "channel": 6,
        "type": "channel",
        "noteNumber": 34,
        "velocity": 0,
        "subtype": "noteOff"
      },
      {
        "deltaTime": 480,
        "channel": 6,
        "type": "channel",
        "noteNumber": 34,
        "velocity": 127,
        "subtype": "noteOn"
      },
      {
        "deltaTime": 480,
        "channel": 6,
        "type": "channel",
        "noteNumber": 34,
        "velocity": 0,
        "subtype": "noteOff"
      },
      {
        "deltaTime": 960,
        "channel": 6,
        "type": "channel",
        "noteNumber": 36,
        "velocity": 127,
        "subtype": "noteOn"
      },
      {
        "deltaTime": 240,
        "channel": 6,
        "type": "channel",
        "noteNumber": 36,
        "velocity": 0,
        "subtype": "noteOff"
      },
      {
        "deltaTime": 480,
        "channel": 6,
        "type": "channel",
        "noteNumber": 36,
        "velocity": 127,
        "subtype": "noteOn"
      },
      {
        "deltaTime": 240,
        "channel": 6,
        "type": "channel",
        "noteNumber": 36,
        "velocity": 0,
        "subtype": "noteOff"
      },
      {
        "deltaTime": 480,
        "channel": 6,
        "type": "channel",
        "noteNumber": 36,
        "velocity": 127,
        "subtype": "noteOn"
      },
      {
        "deltaTime": 480,
        "channel": 6,
        "type": "channel",
        "noteNumber": 36,
        "velocity": 0,
        "subtype": "noteOff"
      },
      {
        "deltaTime": 960,
        "channel": 6,
        "type": "channel",
        "noteNumber": 32,
        "velocity": 127,
        "subtype": "noteOn"
      },
      {
        "deltaTime": 240,
        "channel": 6,
        "type": "channel",
        "noteNumber": 32,
        "velocity": 0,
        "subtype": "noteOff"
      },
      {
        "deltaTime": 480,
        "channel": 6,
        "type": "channel",
        "noteNumber": 32,
        "velocity": 127,
        "subtype": "noteOn"
      },
      {
        "deltaTime": 240,
        "channel": 6,
        "type": "channel",
        "noteNumber": 32,
        "velocity": 0,
        "subtype": "noteOff"
      },
      {
        "deltaTime": 480,
        "channel": 6,
        "type": "channel",
        "noteNumber": 32,
        "velocity": 127,
        "subtype": "noteOn"
      },
      {
        "deltaTime": 480,
        "channel": 6,
        "type": "channel",
        "noteNumber": 32,
        "velocity": 0,
        "subtype": "noteOff"
      },
      {
        "deltaTime": 960,
        "channel": 6,
        "type": "channel",
        "noteNumber": 32,
        "velocity": 127,
        "subtype": "noteOn"
      },
      {
        "deltaTime": 240,
        "channel": 6,
        "type": "channel",
        "noteNumber": 32,
        "velocity": 0,
        "subtype": "noteOff"
      },
      {
        "deltaTime": 480,
        "channel": 6,
        "type": "channel",
        "noteNumber": 32,
        "velocity": 127,
        "subtype": "noteOn"
      },
      {
        "deltaTime": 240,
        "channel": 6,
        "type": "channel",
        "noteNumber": 32,
        "velocity": 0,
        "subtype": "noteOff"
      },
      {
        "deltaTime": 480,
        "channel": 6,
        "type": "channel",
        "noteNumber": 32,
        "velocity": 127,
        "subtype": "noteOn"
      },
      {
        "deltaTime": 480,
        "channel": 6,
        "type": "channel",
        "noteNumber": 32,
        "velocity": 0,
        "subtype": "noteOff"
      },
      {
        "deltaTime": 960,
        "channel": 6,
        "type": "channel",
        "noteNumber": 34,
        "velocity": 127,
        "subtype": "noteOn"
      },
      {
        "deltaTime": 240,
        "channel": 6,
        "type": "channel",
        "noteNumber": 34,
        "velocity": 0,
        "subtype": "noteOff"
      },
      {
        "deltaTime": 480,
        "channel": 6,
        "type": "channel",
        "noteNumber": 34,
        "velocity": 127,
        "subtype": "noteOn"
      },
      {
        "deltaTime": 240,
        "channel": 6,
        "type": "channel",
        "noteNumber": 34,
        "velocity": 0,
        "subtype": "noteOff"
      },
      {
        "deltaTime": 480,
        "channel": 6,
        "type": "channel",
        "noteNumber": 34,
        "velocity": 127,
        "subtype": "noteOn"
      },
      {
        "deltaTime": 480,
        "channel": 6,
        "type": "channel",
        "noteNumber": 34,
        "velocity": 0,
        "subtype": "noteOff"
      },
      {
        "deltaTime": 960,
        "channel": 6,
        "type": "channel",
        "noteNumber": 36,
        "velocity": 127,
        "subtype": "noteOn"
      },
      {
        "deltaTime": 240,
        "channel": 6,
        "type": "channel",
        "noteNumber": 36,
        "velocity": 0,
        "subtype": "noteOff"
      },
      {
        "deltaTime": 480,
        "channel": 6,
        "type": "channel",
        "noteNumber": 36,
        "velocity": 127,
        "subtype": "noteOn"
      },
      {
        "deltaTime": 240,
        "channel": 6,
        "type": "channel",
        "noteNumber": 36,
        "velocity": 0,
        "subtype": "noteOff"
      },
      {
        "deltaTime": 480,
        "channel": 6,
        "type": "channel",
        "noteNumber": 36,
        "velocity": 127,
        "subtype": "noteOn"
      },
      {
        "deltaTime": 480,
        "channel": 6,
        "type": "channel",
        "noteNumber": 36,
        "velocity": 0,
        "subtype": "noteOff"
      },
      {
        "deltaTime": 960,
        "channel": 6,
        "type": "channel",
        "noteNumber": 32,
        "velocity": 127,
        "subtype": "noteOn"
      },
      {
        "deltaTime": 720,
        "channel": 6,
        "type": "channel",
        "noteNumber": 32,
        "velocity": 0,
        "subtype": "noteOff"
      },
      {
        "deltaTime": 0,
        "channel": 6,
        "type": "channel",
        "noteNumber": 32,
        "velocity": 127,
        "subtype": "noteOn"
      },
      {
        "deltaTime": 720,
        "channel": 6,
        "type": "channel",
        "noteNumber": 32,
        "velocity": 0,
        "subtype": "noteOff"
      },
      {
        "deltaTime": 0,
        "channel": 6,
        "type": "channel",
        "noteNumber": 32,
        "velocity": 127,
        "subtype": "noteOn"
      },
      {
        "deltaTime": 480,
        "channel": 6,
        "type": "channel",
        "noteNumber": 32,
        "velocity": 0,
        "subtype": "noteOff"
      },
      {
        "deltaTime": 960,
        "channel": 6,
        "type": "channel",
        "noteNumber": 32,
        "velocity": 127,
        "subtype": "noteOn"
      },
      {
        "deltaTime": 720,
        "channel": 6,
        "type": "channel",
        "noteNumber": 32,
        "velocity": 0,
        "subtype": "noteOff"
      },
      {
        "deltaTime": 0,
        "channel": 6,
        "type": "channel",
        "noteNumber": 32,
        "velocity": 127,
        "subtype": "noteOn"
      },
      {
        "deltaTime": 720,
        "channel": 6,
        "type": "channel",
        "noteNumber": 32,
        "velocity": 0,
        "subtype": "noteOff"
      },
      {
        "deltaTime": 0,
        "channel": 6,
        "type": "channel",
        "noteNumber": 32,
        "velocity": 127,
        "subtype": "noteOn"
      },
      {
        "deltaTime": 480,
        "channel": 6,
        "type": "channel",
        "noteNumber": 32,
        "velocity": 0,
        "subtype": "noteOff"
      },
      {
        "deltaTime": 960,
        "channel": 6,
        "type": "channel",
        "noteNumber": 34,
        "velocity": 127,
        "subtype": "noteOn"
      },
      {
        "deltaTime": 720,
        "channel": 6,
        "type": "channel",
        "noteNumber": 34,
        "velocity": 0,
        "subtype": "noteOff"
      },
      {
        "deltaTime": 0,
        "channel": 6,
        "type": "channel",
        "noteNumber": 34,
        "velocity": 127,
        "subtype": "noteOn"
      },
      {
        "deltaTime": 720,
        "channel": 6,
        "type": "channel",
        "noteNumber": 34,
        "velocity": 0,
        "subtype": "noteOff"
      },
      {
        "deltaTime": 0,
        "channel": 6,
        "type": "channel",
        "noteNumber": 34,
        "velocity": 127,
        "subtype": "noteOn"
      },
      {
        "deltaTime": 480,
        "channel": 6,
        "type": "channel",
        "noteNumber": 34,
        "velocity": 0,
        "subtype": "noteOff"
      },
      {
        "deltaTime": 960,
        "channel": 6,
        "type": "channel",
        "noteNumber": 36,
        "velocity": 127,
        "subtype": "noteOn"
      },
      {
        "deltaTime": 720,
        "channel": 6,
        "type": "channel",
        "noteNumber": 36,
        "velocity": 0,
        "subtype": "noteOff"
      },
      {
        "deltaTime": 0,
        "channel": 6,
        "type": "channel",
        "noteNumber": 36,
        "velocity": 127,
        "subtype": "noteOn"
      },
      {
        "deltaTime": 720,
        "channel": 6,
        "type": "channel",
        "noteNumber": 36,
        "velocity": 0,
        "subtype": "noteOff"
      },
      {
        "deltaTime": 0,
        "channel": 6,
        "type": "channel",
        "noteNumber": 36,
        "velocity": 127,
        "subtype": "noteOn"
      },
      {
        "deltaTime": 480,
        "channel": 6,
        "type": "channel",
        "noteNumber": 36,
        "velocity": 0,
        "subtype": "noteOff"
      },
      {
        "deltaTime": 0,
        "channel": 6,
        "type": "channel",
        "noteNumber": 31,
        "velocity": 127,
        "subtype": "noteOn"
      },
      {
        "deltaTime": 960,
        "channel": 6,
        "type": "channel",
        "noteNumber": 31,
        "velocity": 0,
        "subtype": "noteOff"
      },
      {
        "deltaTime": 0,
        "channel": 6,
        "type": "channel",
        "noteNumber": 32,
        "velocity": 127,
        "subtype": "noteOn"
      },
      {
        "deltaTime": 240,
        "channel": 6,
        "type": "channel",
        "noteNumber": 32,
        "velocity": 0,
        "subtype": "noteOff"
      },
      {
        "deltaTime": 480,
        "channel": 6,
        "type": "channel",
        "noteNumber": 32,
        "velocity": 127,
        "subtype": "noteOn"
      },
      {
        "deltaTime": 240,
        "channel": 6,
        "type": "channel",
        "noteNumber": 32,
        "velocity": 0,
        "subtype": "noteOff"
      },
      {
        "deltaTime": 480,
        "channel": 6,
        "type": "channel",
        "noteNumber": 32,
        "velocity": 127,
        "subtype": "noteOn"
      },
      {
        "deltaTime": 480,
        "channel": 6,
        "type": "channel",
        "noteNumber": 32,
        "velocity": 0,
        "subtype": "noteOff"
      },
      {
        "deltaTime": 960,
        "channel": 6,
        "type": "channel",
        "noteNumber": 32,
        "velocity": 127,
        "subtype": "noteOn"
      },
      {
        "deltaTime": 240,
        "channel": 6,
        "type": "channel",
        "noteNumber": 32,
        "velocity": 0,
        "subtype": "noteOff"
      },
      {
        "deltaTime": 480,
        "channel": 6,
        "type": "channel",
        "noteNumber": 32,
        "velocity": 127,
        "subtype": "noteOn"
      },
      {
        "deltaTime": 240,
        "channel": 6,
        "type": "channel",
        "noteNumber": 32,
        "velocity": 0,
        "subtype": "noteOff"
      },
      {
        "deltaTime": 480,
        "channel": 6,
        "type": "channel",
        "noteNumber": 32,
        "velocity": 127,
        "subtype": "noteOn"
      },
      {
        "deltaTime": 480,
        "channel": 6,
        "type": "channel",
        "noteNumber": 32,
        "velocity": 0,
        "subtype": "noteOff"
      },
      {
        "deltaTime": 960,
        "channel": 6,
        "type": "channel",
        "noteNumber": 34,
        "velocity": 127,
        "subtype": "noteOn"
      },
      {
        "deltaTime": 240,
        "channel": 6,
        "type": "channel",
        "noteNumber": 34,
        "velocity": 0,
        "subtype": "noteOff"
      },
      {
        "deltaTime": 480,
        "channel": 6,
        "type": "channel",
        "noteNumber": 34,
        "velocity": 127,
        "subtype": "noteOn"
      },
      {
        "deltaTime": 240,
        "channel": 6,
        "type": "channel",
        "noteNumber": 34,
        "velocity": 0,
        "subtype": "noteOff"
      },
      {
        "deltaTime": 480,
        "channel": 6,
        "type": "channel",
        "noteNumber": 34,
        "velocity": 127,
        "subtype": "noteOn"
      },
      {
        "deltaTime": 480,
        "channel": 6,
        "type": "channel",
        "noteNumber": 34,
        "velocity": 0,
        "subtype": "noteOff"
      },
      {
        "deltaTime": 960,
        "channel": 6,
        "type": "channel",
        "noteNumber": 36,
        "velocity": 127,
        "subtype": "noteOn"
      },
      {
        "deltaTime": 240,
        "channel": 6,
        "type": "channel",
        "noteNumber": 36,
        "velocity": 0,
        "subtype": "noteOff"
      },
      {
        "deltaTime": 480,
        "channel": 6,
        "type": "channel",
        "noteNumber": 36,
        "velocity": 127,
        "subtype": "noteOn"
      },
      {
        "deltaTime": 240,
        "channel": 6,
        "type": "channel",
        "noteNumber": 36,
        "velocity": 0,
        "subtype": "noteOff"
      },
      {
        "deltaTime": 480,
        "channel": 6,
        "type": "channel",
        "noteNumber": 36,
        "velocity": 127,
        "subtype": "noteOn"
      },
      {
        "deltaTime": 480,
        "channel": 6,
        "type": "channel",
        "noteNumber": 36,
        "velocity": 0,
        "subtype": "noteOff"
      },
      {
        "deltaTime": 960,
        "channel": 6,
        "type": "channel",
        "noteNumber": 32,
        "velocity": 127,
        "subtype": "noteOn"
      },
      {
        "deltaTime": 240,
        "channel": 6,
        "type": "channel",
        "noteNumber": 32,
        "velocity": 0,
        "subtype": "noteOff"
      },
      {
        "deltaTime": 480,
        "channel": 6,
        "type": "channel",
        "noteNumber": 32,
        "velocity": 127,
        "subtype": "noteOn"
      },
      {
        "deltaTime": 240,
        "channel": 6,
        "type": "channel",
        "noteNumber": 32,
        "velocity": 0,
        "subtype": "noteOff"
      },
      {
        "deltaTime": 480,
        "channel": 6,
        "type": "channel",
        "noteNumber": 32,
        "velocity": 127,
        "subtype": "noteOn"
      },
      {
        "deltaTime": 480,
        "channel": 6,
        "type": "channel",
        "noteNumber": 32,
        "velocity": 0,
        "subtype": "noteOff"
      },
      {
        "deltaTime": 960,
        "channel": 6,
        "type": "channel",
        "noteNumber": 32,
        "velocity": 127,
        "subtype": "noteOn"
      },
      {
        "deltaTime": 240,
        "channel": 6,
        "type": "channel",
        "noteNumber": 32,
        "velocity": 0,
        "subtype": "noteOff"
      },
      {
        "deltaTime": 480,
        "channel": 6,
        "type": "channel",
        "noteNumber": 32,
        "velocity": 127,
        "subtype": "noteOn"
      },
      {
        "deltaTime": 240,
        "channel": 6,
        "type": "channel",
        "noteNumber": 32,
        "velocity": 0,
        "subtype": "noteOff"
      },
      {
        "deltaTime": 480,
        "channel": 6,
        "type": "channel",
        "noteNumber": 32,
        "velocity": 127,
        "subtype": "noteOn"
      },
      {
        "deltaTime": 480,
        "channel": 6,
        "type": "channel",
        "noteNumber": 32,
        "velocity": 0,
        "subtype": "noteOff"
      },
      {
        "deltaTime": 960,
        "channel": 6,
        "type": "channel",
        "noteNumber": 34,
        "velocity": 127,
        "subtype": "noteOn"
      },
      {
        "deltaTime": 240,
        "channel": 6,
        "type": "channel",
        "noteNumber": 34,
        "velocity": 0,
        "subtype": "noteOff"
      },
      {
        "deltaTime": 480,
        "channel": 6,
        "type": "channel",
        "noteNumber": 34,
        "velocity": 127,
        "subtype": "noteOn"
      },
      {
        "deltaTime": 240,
        "channel": 6,
        "type": "channel",
        "noteNumber": 34,
        "velocity": 0,
        "subtype": "noteOff"
      },
      {
        "deltaTime": 480,
        "channel": 6,
        "type": "channel",
        "noteNumber": 34,
        "velocity": 127,
        "subtype": "noteOn"
      },
      {
        "deltaTime": 480,
        "channel": 6,
        "type": "channel",
        "noteNumber": 34,
        "velocity": 0,
        "subtype": "noteOff"
      },
      {
        "deltaTime": 960,
        "channel": 6,
        "type": "channel",
        "noteNumber": 36,
        "velocity": 127,
        "subtype": "noteOn"
      },
      {
        "deltaTime": 240,
        "channel": 6,
        "type": "channel",
        "noteNumber": 36,
        "velocity": 0,
        "subtype": "noteOff"
      },
      {
        "deltaTime": 480,
        "channel": 6,
        "type": "channel",
        "noteNumber": 36,
        "velocity": 127,
        "subtype": "noteOn"
      },
      {
        "deltaTime": 240,
        "channel": 6,
        "type": "channel",
        "noteNumber": 36,
        "velocity": 0,
        "subtype": "noteOff"
      },
      {
        "deltaTime": 480,
        "channel": 6,
        "type": "channel",
        "noteNumber": 36,
        "velocity": 127,
        "subtype": "noteOn"
      },
      {
        "deltaTime": 480,
        "channel": 6,
        "type": "channel",
        "noteNumber": 36,
        "velocity": 0,
        "subtype": "noteOff"
      },
      {
        "deltaTime": 960,
        "channel": 6,
        "type": "channel",
        "noteNumber": 27,
        "velocity": 127,
        "subtype": "noteOn"
      },
      {
        "deltaTime": 7680,
        "channel": 6,
        "type": "channel",
        "noteNumber": 27,
        "velocity": 0,
        "subtype": "noteOff"
      },
      {
        "deltaTime": 0,
        "channel": 6,
        "type": "channel",
        "noteNumber": 32,
        "velocity": 127,
        "subtype": "noteOn"
      },
      {
        "deltaTime": 480,
        "channel": 6,
        "type": "channel",
        "noteNumber": 32,
        "velocity": 0,
        "subtype": "noteOff"
      },
      {
        "deltaTime": 0,
        "channel": 6,
        "type": "channel",
        "noteNumber": 32,
        "velocity": 127,
        "subtype": "noteOn"
      },
      {
        "deltaTime": 480,
        "channel": 6,
        "type": "channel",
        "noteNumber": 32,
        "velocity": 0,
        "subtype": "noteOff"
      },
      {
        "deltaTime": 0,
        "channel": 6,
        "type": "channel",
        "noteNumber": 32,
        "velocity": 127,
        "subtype": "noteOn"
      },
      {
        "deltaTime": 480,
        "channel": 6,
        "type": "channel",
        "noteNumber": 32,
        "velocity": 0,
        "subtype": "noteOff"
      },
      {
        "deltaTime": 0,
        "channel": 6,
        "type": "channel",
        "noteNumber": 32,
        "velocity": 127,
        "subtype": "noteOn"
      },
      {
        "deltaTime": 480,
        "channel": 6,
        "type": "channel",
        "noteNumber": 32,
        "velocity": 0,
        "subtype": "noteOff"
      },
      {
        "deltaTime": 0,
        "channel": 6,
        "type": "channel",
        "noteNumber": 32,
        "velocity": 127,
        "subtype": "noteOn"
      },
      {
        "deltaTime": 480,
        "channel": 6,
        "type": "channel",
        "noteNumber": 32,
        "velocity": 0,
        "subtype": "noteOff"
      },
      {
        "deltaTime": 0,
        "channel": 6,
        "type": "channel",
        "noteNumber": 32,
        "velocity": 127,
        "subtype": "noteOn"
      },
      {
        "deltaTime": 480,
        "channel": 6,
        "type": "channel",
        "noteNumber": 32,
        "velocity": 0,
        "subtype": "noteOff"
      },
      {
        "deltaTime": 0,
        "channel": 6,
        "type": "channel",
        "noteNumber": 32,
        "velocity": 127,
        "subtype": "noteOn"
      },
      {
        "deltaTime": 480,
        "channel": 6,
        "type": "channel",
        "noteNumber": 32,
        "velocity": 0,
        "subtype": "noteOff"
      },
      {
        "deltaTime": 0,
        "channel": 6,
        "type": "channel",
        "noteNumber": 32,
        "velocity": 127,
        "subtype": "noteOn"
      },
      {
        "deltaTime": 480,
        "channel": 6,
        "type": "channel",
        "noteNumber": 32,
        "velocity": 0,
        "subtype": "noteOff"
      },
      {
        "deltaTime": 0,
        "channel": 6,
        "type": "channel",
        "noteNumber": 27,
        "velocity": 127,
        "subtype": "noteOn"
      },
      {
        "deltaTime": 480,
        "channel": 6,
        "type": "channel",
        "noteNumber": 27,
        "velocity": 0,
        "subtype": "noteOff"
      },
      {
        "deltaTime": 0,
        "channel": 6,
        "type": "channel",
        "noteNumber": 27,
        "velocity": 127,
        "subtype": "noteOn"
      },
      {
        "deltaTime": 480,
        "channel": 6,
        "type": "channel",
        "noteNumber": 27,
        "velocity": 0,
        "subtype": "noteOff"
      },
      {
        "deltaTime": 0,
        "channel": 6,
        "type": "channel",
        "noteNumber": 27,
        "velocity": 127,
        "subtype": "noteOn"
      },
      {
        "deltaTime": 480,
        "channel": 6,
        "type": "channel",
        "noteNumber": 27,
        "velocity": 0,
        "subtype": "noteOff"
      },
      {
        "deltaTime": 0,
        "channel": 6,
        "type": "channel",
        "noteNumber": 27,
        "velocity": 127,
        "subtype": "noteOn"
      },
      {
        "deltaTime": 480,
        "channel": 6,
        "type": "channel",
        "noteNumber": 27,
        "velocity": 0,
        "subtype": "noteOff"
      },
      {
        "deltaTime": 0,
        "channel": 6,
        "type": "channel",
        "noteNumber": 27,
        "velocity": 127,
        "subtype": "noteOn"
      },
      {
        "deltaTime": 480,
        "channel": 6,
        "type": "channel",
        "noteNumber": 27,
        "velocity": 0,
        "subtype": "noteOff"
      },
      {
        "deltaTime": 0,
        "channel": 6,
        "type": "channel",
        "noteNumber": 27,
        "velocity": 127,
        "subtype": "noteOn"
      },
      {
        "deltaTime": 480,
        "channel": 6,
        "type": "channel",
        "noteNumber": 27,
        "velocity": 0,
        "subtype": "noteOff"
      },
      {
        "deltaTime": 0,
        "channel": 6,
        "type": "channel",
        "noteNumber": 27,
        "velocity": 127,
        "subtype": "noteOn"
      },
      {
        "deltaTime": 480,
        "channel": 6,
        "type": "channel",
        "noteNumber": 27,
        "velocity": 0,
        "subtype": "noteOff"
      },
      {
        "deltaTime": 0,
        "channel": 6,
        "type": "channel",
        "noteNumber": 27,
        "velocity": 127,
        "subtype": "noteOn"
      },
      {
        "deltaTime": 480,
        "channel": 6,
        "type": "channel",
        "noteNumber": 27,
        "velocity": 0,
        "subtype": "noteOff"
      },
      {
        "deltaTime": 0,
        "channel": 6,
        "type": "channel",
        "noteNumber": 36,
        "velocity": 127,
        "subtype": "noteOn"
      },
      {
        "deltaTime": 480,
        "channel": 6,
        "type": "channel",
        "noteNumber": 36,
        "velocity": 0,
        "subtype": "noteOff"
      },
      {
        "deltaTime": 0,
        "channel": 6,
        "type": "channel",
        "noteNumber": 36,
        "velocity": 127,
        "subtype": "noteOn"
      },
      {
        "deltaTime": 480,
        "channel": 6,
        "type": "channel",
        "noteNumber": 36,
        "velocity": 0,
        "subtype": "noteOff"
      },
      {
        "deltaTime": 0,
        "channel": 6,
        "type": "channel",
        "noteNumber": 36,
        "velocity": 127,
        "subtype": "noteOn"
      },
      {
        "deltaTime": 480,
        "channel": 6,
        "type": "channel",
        "noteNumber": 36,
        "velocity": 0,
        "subtype": "noteOff"
      },
      {
        "deltaTime": 0,
        "channel": 6,
        "type": "channel",
        "noteNumber": 36,
        "velocity": 127,
        "subtype": "noteOn"
      },
      {
        "deltaTime": 480,
        "channel": 6,
        "type": "channel",
        "noteNumber": 36,
        "velocity": 0,
        "subtype": "noteOff"
      },
      {
        "deltaTime": 0,
        "channel": 6,
        "type": "channel",
        "noteNumber": 36,
        "velocity": 127,
        "subtype": "noteOn"
      },
      {
        "deltaTime": 480,
        "channel": 6,
        "type": "channel",
        "noteNumber": 36,
        "velocity": 0,
        "subtype": "noteOff"
      },
      {
        "deltaTime": 0,
        "channel": 6,
        "type": "channel",
        "noteNumber": 36,
        "velocity": 127,
        "subtype": "noteOn"
      },
      {
        "deltaTime": 480,
        "channel": 6,
        "type": "channel",
        "noteNumber": 36,
        "velocity": 0,
        "subtype": "noteOff"
      },
      {
        "deltaTime": 0,
        "channel": 6,
        "type": "channel",
        "noteNumber": 36,
        "velocity": 127,
        "subtype": "noteOn"
      },
      {
        "deltaTime": 480,
        "channel": 6,
        "type": "channel",
        "noteNumber": 36,
        "velocity": 0,
        "subtype": "noteOff"
      },
      {
        "deltaTime": 0,
        "channel": 6,
        "type": "channel",
        "noteNumber": 36,
        "velocity": 127,
        "subtype": "noteOn"
      },
      {
        "deltaTime": 480,
        "channel": 6,
        "type": "channel",
        "noteNumber": 36,
        "velocity": 0,
        "subtype": "noteOff"
      },
      {
        "deltaTime": 0,
        "channel": 6,
        "type": "channel",
        "noteNumber": 34,
        "velocity": 127,
        "subtype": "noteOn"
      },
      {
        "deltaTime": 480,
        "channel": 6,
        "type": "channel",
        "noteNumber": 34,
        "velocity": 0,
        "subtype": "noteOff"
      },
      {
        "deltaTime": 0,
        "channel": 6,
        "type": "channel",
        "noteNumber": 34,
        "velocity": 127,
        "subtype": "noteOn"
      },
      {
        "deltaTime": 480,
        "channel": 6,
        "type": "channel",
        "noteNumber": 34,
        "velocity": 0,
        "subtype": "noteOff"
      },
      {
        "deltaTime": 0,
        "channel": 6,
        "type": "channel",
        "noteNumber": 34,
        "velocity": 127,
        "subtype": "noteOn"
      },
      {
        "deltaTime": 480,
        "channel": 6,
        "type": "channel",
        "noteNumber": 34,
        "velocity": 0,
        "subtype": "noteOff"
      },
      {
        "deltaTime": 0,
        "channel": 6,
        "type": "channel",
        "noteNumber": 34,
        "velocity": 127,
        "subtype": "noteOn"
      },
      {
        "deltaTime": 480,
        "channel": 6,
        "type": "channel",
        "noteNumber": 34,
        "velocity": 0,
        "subtype": "noteOff"
      },
      {
        "deltaTime": 0,
        "channel": 6,
        "type": "channel",
        "noteNumber": 34,
        "velocity": 127,
        "subtype": "noteOn"
      },
      {
        "deltaTime": 480,
        "channel": 6,
        "type": "channel",
        "noteNumber": 34,
        "velocity": 0,
        "subtype": "noteOff"
      },
      {
        "deltaTime": 0,
        "channel": 6,
        "type": "channel",
        "noteNumber": 36,
        "velocity": 127,
        "subtype": "noteOn"
      },
      {
        "deltaTime": 480,
        "channel": 6,
        "type": "channel",
        "noteNumber": 36,
        "velocity": 0,
        "subtype": "noteOff"
      },
      {
        "deltaTime": 0,
        "channel": 6,
        "type": "channel",
        "noteNumber": 39,
        "velocity": 127,
        "subtype": "noteOn"
      },
      {
        "deltaTime": 480,
        "channel": 6,
        "type": "channel",
        "noteNumber": 39,
        "velocity": 0,
        "subtype": "noteOff"
      },
      {
        "deltaTime": 0,
        "channel": 6,
        "type": "channel",
        "noteNumber": 36,
        "velocity": 127,
        "subtype": "noteOn"
      },
      {
        "deltaTime": 480,
        "channel": 6,
        "type": "channel",
        "noteNumber": 36,
        "velocity": 0,
        "subtype": "noteOff"
      },
      {
        "deltaTime": 0,
        "channel": 6,
        "type": "channel",
        "noteNumber": 32,
        "velocity": 127,
        "subtype": "noteOn"
      },
      {
        "deltaTime": 480,
        "channel": 6,
        "type": "channel",
        "noteNumber": 32,
        "velocity": 0,
        "subtype": "noteOff"
      },
      {
        "deltaTime": 0,
        "channel": 6,
        "type": "channel",
        "noteNumber": 32,
        "velocity": 127,
        "subtype": "noteOn"
      },
      {
        "deltaTime": 480,
        "channel": 6,
        "type": "channel",
        "noteNumber": 32,
        "velocity": 0,
        "subtype": "noteOff"
      },
      {
        "deltaTime": 0,
        "channel": 6,
        "type": "channel",
        "noteNumber": 32,
        "velocity": 127,
        "subtype": "noteOn"
      },
      {
        "deltaTime": 480,
        "channel": 6,
        "type": "channel",
        "noteNumber": 32,
        "velocity": 0,
        "subtype": "noteOff"
      },
      {
        "deltaTime": 0,
        "channel": 6,
        "type": "channel",
        "noteNumber": 32,
        "velocity": 127,
        "subtype": "noteOn"
      },
      {
        "deltaTime": 480,
        "channel": 6,
        "type": "channel",
        "noteNumber": 32,
        "velocity": 0,
        "subtype": "noteOff"
      },
      {
        "deltaTime": 0,
        "channel": 6,
        "type": "channel",
        "noteNumber": 32,
        "velocity": 127,
        "subtype": "noteOn"
      },
      {
        "deltaTime": 480,
        "channel": 6,
        "type": "channel",
        "noteNumber": 32,
        "velocity": 0,
        "subtype": "noteOff"
      },
      {
        "deltaTime": 0,
        "channel": 6,
        "type": "channel",
        "noteNumber": 32,
        "velocity": 127,
        "subtype": "noteOn"
      },
      {
        "deltaTime": 480,
        "channel": 6,
        "type": "channel",
        "noteNumber": 32,
        "velocity": 0,
        "subtype": "noteOff"
      },
      {
        "deltaTime": 0,
        "channel": 6,
        "type": "channel",
        "noteNumber": 32,
        "velocity": 127,
        "subtype": "noteOn"
      },
      {
        "deltaTime": 480,
        "channel": 6,
        "type": "channel",
        "noteNumber": 32,
        "velocity": 0,
        "subtype": "noteOff"
      },
      {
        "deltaTime": 0,
        "channel": 6,
        "type": "channel",
        "noteNumber": 32,
        "velocity": 127,
        "subtype": "noteOn"
      },
      {
        "deltaTime": 480,
        "channel": 6,
        "type": "channel",
        "noteNumber": 32,
        "velocity": 0,
        "subtype": "noteOff"
      },
      {
        "deltaTime": 0,
        "channel": 6,
        "type": "channel",
        "noteNumber": 27,
        "velocity": 127,
        "subtype": "noteOn"
      },
      {
        "deltaTime": 480,
        "channel": 6,
        "type": "channel",
        "noteNumber": 27,
        "velocity": 0,
        "subtype": "noteOff"
      },
      {
        "deltaTime": 0,
        "channel": 6,
        "type": "channel",
        "noteNumber": 27,
        "velocity": 127,
        "subtype": "noteOn"
      },
      {
        "deltaTime": 480,
        "channel": 6,
        "type": "channel",
        "noteNumber": 27,
        "velocity": 0,
        "subtype": "noteOff"
      },
      {
        "deltaTime": 0,
        "channel": 6,
        "type": "channel",
        "noteNumber": 27,
        "velocity": 127,
        "subtype": "noteOn"
      },
      {
        "deltaTime": 480,
        "channel": 6,
        "type": "channel",
        "noteNumber": 27,
        "velocity": 0,
        "subtype": "noteOff"
      },
      {
        "deltaTime": 0,
        "channel": 6,
        "type": "channel",
        "noteNumber": 27,
        "velocity": 127,
        "subtype": "noteOn"
      },
      {
        "deltaTime": 480,
        "channel": 6,
        "type": "channel",
        "noteNumber": 27,
        "velocity": 0,
        "subtype": "noteOff"
      },
      {
        "deltaTime": 0,
        "channel": 6,
        "type": "channel",
        "noteNumber": 27,
        "velocity": 127,
        "subtype": "noteOn"
      },
      {
        "deltaTime": 480,
        "channel": 6,
        "type": "channel",
        "noteNumber": 27,
        "velocity": 0,
        "subtype": "noteOff"
      },
      {
        "deltaTime": 0,
        "channel": 6,
        "type": "channel",
        "noteNumber": 27,
        "velocity": 127,
        "subtype": "noteOn"
      },
      {
        "deltaTime": 480,
        "channel": 6,
        "type": "channel",
        "noteNumber": 27,
        "velocity": 0,
        "subtype": "noteOff"
      },
      {
        "deltaTime": 0,
        "channel": 6,
        "type": "channel",
        "noteNumber": 27,
        "velocity": 127,
        "subtype": "noteOn"
      },
      {
        "deltaTime": 480,
        "channel": 6,
        "type": "channel",
        "noteNumber": 27,
        "velocity": 0,
        "subtype": "noteOff"
      },
      {
        "deltaTime": 0,
        "channel": 6,
        "type": "channel",
        "noteNumber": 27,
        "velocity": 127,
        "subtype": "noteOn"
      },
      {
        "deltaTime": 480,
        "channel": 6,
        "type": "channel",
        "noteNumber": 27,
        "velocity": 0,
        "subtype": "noteOff"
      },
      {
        "deltaTime": 0,
        "channel": 6,
        "type": "channel",
        "noteNumber": 34,
        "velocity": 127,
        "subtype": "noteOn"
      },
      {
        "deltaTime": 480,
        "channel": 6,
        "type": "channel",
        "noteNumber": 34,
        "velocity": 0,
        "subtype": "noteOff"
      },
      {
        "deltaTime": 0,
        "channel": 6,
        "type": "channel",
        "noteNumber": 34,
        "velocity": 127,
        "subtype": "noteOn"
      },
      {
        "deltaTime": 480,
        "channel": 6,
        "type": "channel",
        "noteNumber": 34,
        "velocity": 0,
        "subtype": "noteOff"
      },
      {
        "deltaTime": 0,
        "channel": 6,
        "type": "channel",
        "noteNumber": 34,
        "velocity": 127,
        "subtype": "noteOn"
      },
      {
        "deltaTime": 480,
        "channel": 6,
        "type": "channel",
        "noteNumber": 34,
        "velocity": 0,
        "subtype": "noteOff"
      },
      {
        "deltaTime": 0,
        "channel": 6,
        "type": "channel",
        "noteNumber": 34,
        "velocity": 127,
        "subtype": "noteOn"
      },
      {
        "deltaTime": 480,
        "channel": 6,
        "type": "channel",
        "noteNumber": 34,
        "velocity": 0,
        "subtype": "noteOff"
      },
      {
        "deltaTime": 0,
        "channel": 6,
        "type": "channel",
        "noteNumber": 34,
        "velocity": 127,
        "subtype": "noteOn"
      },
      {
        "deltaTime": 480,
        "channel": 6,
        "type": "channel",
        "noteNumber": 34,
        "velocity": 0,
        "subtype": "noteOff"
      },
      {
        "deltaTime": 0,
        "channel": 6,
        "type": "channel",
        "noteNumber": 34,
        "velocity": 127,
        "subtype": "noteOn"
      },
      {
        "deltaTime": 480,
        "channel": 6,
        "type": "channel",
        "noteNumber": 34,
        "velocity": 0,
        "subtype": "noteOff"
      },
      {
        "deltaTime": 0,
        "channel": 6,
        "type": "channel",
        "noteNumber": 34,
        "velocity": 127,
        "subtype": "noteOn"
      },
      {
        "deltaTime": 480,
        "channel": 6,
        "type": "channel",
        "noteNumber": 34,
        "velocity": 0,
        "subtype": "noteOff"
      },
      {
        "deltaTime": 0,
        "channel": 6,
        "type": "channel",
        "noteNumber": 34,
        "velocity": 127,
        "subtype": "noteOn"
      },
      {
        "deltaTime": 480,
        "channel": 6,
        "type": "channel",
        "noteNumber": 34,
        "velocity": 0,
        "subtype": "noteOff"
      },
      {
        "deltaTime": 0,
        "channel": 6,
        "type": "channel",
        "noteNumber": 34,
        "velocity": 127,
        "subtype": "noteOn"
      },
      {
        "deltaTime": 480,
        "channel": 6,
        "type": "channel",
        "noteNumber": 34,
        "velocity": 0,
        "subtype": "noteOff"
      },
      {
        "deltaTime": 0,
        "channel": 6,
        "type": "channel",
        "noteNumber": 34,
        "velocity": 127,
        "subtype": "noteOn"
      },
      {
        "deltaTime": 480,
        "channel": 6,
        "type": "channel",
        "noteNumber": 34,
        "velocity": 0,
        "subtype": "noteOff"
      },
      {
        "deltaTime": 0,
        "channel": 6,
        "type": "channel",
        "noteNumber": 34,
        "velocity": 127,
        "subtype": "noteOn"
      },
      {
        "deltaTime": 480,
        "channel": 6,
        "type": "channel",
        "noteNumber": 34,
        "velocity": 0,
        "subtype": "noteOff"
      },
      {
        "deltaTime": 0,
        "channel": 6,
        "type": "channel",
        "noteNumber": 34,
        "velocity": 127,
        "subtype": "noteOn"
      },
      {
        "deltaTime": 480,
        "channel": 6,
        "type": "channel",
        "noteNumber": 34,
        "velocity": 0,
        "subtype": "noteOff"
      },
      {
        "deltaTime": 0,
        "channel": 6,
        "type": "channel",
        "noteNumber": 34,
        "velocity": 127,
        "subtype": "noteOn"
      },
      {
        "deltaTime": 480,
        "channel": 6,
        "type": "channel",
        "noteNumber": 34,
        "velocity": 0,
        "subtype": "noteOff"
      },
      {
        "deltaTime": 0,
        "channel": 6,
        "type": "channel",
        "noteNumber": 34,
        "velocity": 127,
        "subtype": "noteOn"
      },
      {
        "deltaTime": 480,
        "channel": 6,
        "type": "channel",
        "noteNumber": 34,
        "velocity": 0,
        "subtype": "noteOff"
      },
      {
        "deltaTime": 0,
        "channel": 6,
        "type": "channel",
        "noteNumber": 34,
        "velocity": 127,
        "subtype": "noteOn"
      },
      {
        "deltaTime": 480,
        "channel": 6,
        "type": "channel",
        "noteNumber": 34,
        "velocity": 0,
        "subtype": "noteOff"
      },
      {
        "deltaTime": 0,
        "channel": 6,
        "type": "channel",
        "noteNumber": 34,
        "velocity": 127,
        "subtype": "noteOn"
      },
      {
        "deltaTime": 480,
        "channel": 6,
        "type": "channel",
        "noteNumber": 34,
        "velocity": 0,
        "subtype": "noteOff"
      },
      {
        "deltaTime": 0,
        "channel": 6,
        "type": "channel",
        "noteNumber": 36,
        "velocity": 127,
        "subtype": "noteOn"
      },
      {
        "deltaTime": 480,
        "channel": 6,
        "type": "channel",
        "noteNumber": 36,
        "velocity": 0,
        "subtype": "noteOff"
      },
      {
        "deltaTime": 0,
        "channel": 6,
        "type": "channel",
        "noteNumber": 36,
        "velocity": 127,
        "subtype": "noteOn"
      },
      {
        "deltaTime": 480,
        "channel": 6,
        "type": "channel",
        "noteNumber": 36,
        "velocity": 0,
        "subtype": "noteOff"
      },
      {
        "deltaTime": 0,
        "channel": 6,
        "type": "channel",
        "noteNumber": 36,
        "velocity": 127,
        "subtype": "noteOn"
      },
      {
        "deltaTime": 480,
        "channel": 6,
        "type": "channel",
        "noteNumber": 36,
        "velocity": 0,
        "subtype": "noteOff"
      },
      {
        "deltaTime": 0,
        "channel": 6,
        "type": "channel",
        "noteNumber": 36,
        "velocity": 127,
        "subtype": "noteOn"
      },
      {
        "deltaTime": 480,
        "channel": 6,
        "type": "channel",
        "noteNumber": 36,
        "velocity": 0,
        "subtype": "noteOff"
      },
      {
        "deltaTime": 0,
        "channel": 6,
        "type": "channel",
        "noteNumber": 36,
        "velocity": 127,
        "subtype": "noteOn"
      },
      {
        "deltaTime": 480,
        "channel": 6,
        "type": "channel",
        "noteNumber": 36,
        "velocity": 0,
        "subtype": "noteOff"
      },
      {
        "deltaTime": 0,
        "channel": 6,
        "type": "channel",
        "noteNumber": 36,
        "velocity": 127,
        "subtype": "noteOn"
      },
      {
        "deltaTime": 480,
        "channel": 6,
        "type": "channel",
        "noteNumber": 36,
        "velocity": 0,
        "subtype": "noteOff"
      },
      {
        "deltaTime": 0,
        "channel": 6,
        "type": "channel",
        "noteNumber": 36,
        "velocity": 127,
        "subtype": "noteOn"
      },
      {
        "deltaTime": 480,
        "channel": 6,
        "type": "channel",
        "noteNumber": 36,
        "velocity": 0,
        "subtype": "noteOff"
      },
      {
        "deltaTime": 0,
        "channel": 6,
        "type": "channel",
        "noteNumber": 36,
        "velocity": 127,
        "subtype": "noteOn"
      },
      {
        "deltaTime": 480,
        "channel": 6,
        "type": "channel",
        "noteNumber": 36,
        "velocity": 0,
        "subtype": "noteOff"
      },
      {
        "deltaTime": 0,
        "channel": 6,
        "type": "channel",
        "noteNumber": 34,
        "velocity": 127,
        "subtype": "noteOn"
      },
      {
        "deltaTime": 480,
        "channel": 6,
        "type": "channel",
        "noteNumber": 34,
        "velocity": 0,
        "subtype": "noteOff"
      },
      {
        "deltaTime": 0,
        "channel": 6,
        "type": "channel",
        "noteNumber": 34,
        "velocity": 127,
        "subtype": "noteOn"
      },
      {
        "deltaTime": 480,
        "channel": 6,
        "type": "channel",
        "noteNumber": 34,
        "velocity": 0,
        "subtype": "noteOff"
      },
      {
        "deltaTime": 0,
        "channel": 6,
        "type": "channel",
        "noteNumber": 34,
        "velocity": 127,
        "subtype": "noteOn"
      },
      {
        "deltaTime": 480,
        "channel": 6,
        "type": "channel",
        "noteNumber": 34,
        "velocity": 0,
        "subtype": "noteOff"
      },
      {
        "deltaTime": 0,
        "channel": 6,
        "type": "channel",
        "noteNumber": 34,
        "velocity": 127,
        "subtype": "noteOn"
      },
      {
        "deltaTime": 480,
        "channel": 6,
        "type": "channel",
        "noteNumber": 34,
        "velocity": 0,
        "subtype": "noteOff"
      },
      {
        "deltaTime": 0,
        "channel": 6,
        "type": "channel",
        "noteNumber": 34,
        "velocity": 127,
        "subtype": "noteOn"
      },
      {
        "deltaTime": 480,
        "channel": 6,
        "type": "channel",
        "noteNumber": 34,
        "velocity": 0,
        "subtype": "noteOff"
      },
      {
        "deltaTime": 0,
        "channel": 6,
        "type": "channel",
        "noteNumber": 34,
        "velocity": 127,
        "subtype": "noteOn"
      },
      {
        "deltaTime": 480,
        "channel": 6,
        "type": "channel",
        "noteNumber": 34,
        "velocity": 0,
        "subtype": "noteOff"
      },
      {
        "deltaTime": 0,
        "channel": 6,
        "type": "channel",
        "noteNumber": 34,
        "velocity": 127,
        "subtype": "noteOn"
      },
      {
        "deltaTime": 480,
        "channel": 6,
        "type": "channel",
        "noteNumber": 34,
        "velocity": 0,
        "subtype": "noteOff"
      },
      {
        "deltaTime": 0,
        "channel": 6,
        "type": "channel",
        "noteNumber": 34,
        "velocity": 127,
        "subtype": "noteOn"
      },
      {
        "deltaTime": 480,
        "channel": 6,
        "type": "channel",
        "noteNumber": 34,
        "velocity": 0,
        "subtype": "noteOff"
      },
      {
        "deltaTime": 0,
        "channel": 6,
        "type": "channel",
        "noteNumber": 36,
        "velocity": 127,
        "subtype": "noteOn"
      },
      {
        "deltaTime": 480,
        "channel": 6,
        "type": "channel",
        "noteNumber": 36,
        "velocity": 0,
        "subtype": "noteOff"
      },
      {
        "deltaTime": 0,
        "channel": 6,
        "type": "channel",
        "noteNumber": 36,
        "velocity": 127,
        "subtype": "noteOn"
      },
      {
        "deltaTime": 480,
        "channel": 6,
        "type": "channel",
        "noteNumber": 36,
        "velocity": 0,
        "subtype": "noteOff"
      },
      {
        "deltaTime": 0,
        "channel": 6,
        "type": "channel",
        "noteNumber": 36,
        "velocity": 127,
        "subtype": "noteOn"
      },
      {
        "deltaTime": 480,
        "channel": 6,
        "type": "channel",
        "noteNumber": 36,
        "velocity": 0,
        "subtype": "noteOff"
      },
      {
        "deltaTime": 0,
        "channel": 6,
        "type": "channel",
        "noteNumber": 36,
        "velocity": 127,
        "subtype": "noteOn"
      },
      {
        "deltaTime": 480,
        "channel": 6,
        "type": "channel",
        "noteNumber": 36,
        "velocity": 0,
        "subtype": "noteOff"
      },
      {
        "deltaTime": 0,
        "channel": 6,
        "type": "channel",
        "noteNumber": 36,
        "velocity": 127,
        "subtype": "noteOn"
      },
      {
        "deltaTime": 480,
        "channel": 6,
        "type": "channel",
        "noteNumber": 36,
        "velocity": 0,
        "subtype": "noteOff"
      },
      {
        "deltaTime": 0,
        "channel": 6,
        "type": "channel",
        "noteNumber": 36,
        "velocity": 127,
        "subtype": "noteOn"
      },
      {
        "deltaTime": 480,
        "channel": 6,
        "type": "channel",
        "noteNumber": 36,
        "velocity": 0,
        "subtype": "noteOff"
      },
      {
        "deltaTime": 0,
        "channel": 6,
        "type": "channel",
        "noteNumber": 36,
        "velocity": 127,
        "subtype": "noteOn"
      },
      {
        "deltaTime": 480,
        "channel": 6,
        "type": "channel",
        "noteNumber": 36,
        "velocity": 0,
        "subtype": "noteOff"
      },
      {
        "deltaTime": 0,
        "channel": 6,
        "type": "channel",
        "noteNumber": 36,
        "velocity": 127,
        "subtype": "noteOn"
      },
      {
        "deltaTime": 480,
        "channel": 6,
        "type": "channel",
        "noteNumber": 36,
        "velocity": 0,
        "subtype": "noteOff"
      },
      {
        "deltaTime": 0,
        "channel": 6,
        "type": "channel",
        "noteNumber": 34,
        "velocity": 127,
        "subtype": "noteOn"
      },
      {
        "deltaTime": 480,
        "channel": 6,
        "type": "channel",
        "noteNumber": 34,
        "velocity": 0,
        "subtype": "noteOff"
      },
      {
        "deltaTime": 0,
        "channel": 6,
        "type": "channel",
        "noteNumber": 34,
        "velocity": 127,
        "subtype": "noteOn"
      },
      {
        "deltaTime": 480,
        "channel": 6,
        "type": "channel",
        "noteNumber": 34,
        "velocity": 0,
        "subtype": "noteOff"
      },
      {
        "deltaTime": 0,
        "channel": 6,
        "type": "channel",
        "noteNumber": 34,
        "velocity": 127,
        "subtype": "noteOn"
      },
      {
        "deltaTime": 480,
        "channel": 6,
        "type": "channel",
        "noteNumber": 34,
        "velocity": 0,
        "subtype": "noteOff"
      },
      {
        "deltaTime": 0,
        "channel": 6,
        "type": "channel",
        "noteNumber": 34,
        "velocity": 127,
        "subtype": "noteOn"
      },
      {
        "deltaTime": 480,
        "channel": 6,
        "type": "channel",
        "noteNumber": 34,
        "velocity": 0,
        "subtype": "noteOff"
      },
      {
        "deltaTime": 0,
        "channel": 6,
        "type": "channel",
        "noteNumber": 34,
        "velocity": 127,
        "subtype": "noteOn"
      },
      {
        "deltaTime": 480,
        "channel": 6,
        "type": "channel",
        "noteNumber": 34,
        "velocity": 0,
        "subtype": "noteOff"
      },
      {
        "deltaTime": 0,
        "channel": 6,
        "type": "channel",
        "noteNumber": 36,
        "velocity": 127,
        "subtype": "noteOn"
      },
      {
        "deltaTime": 480,
        "channel": 6,
        "type": "channel",
        "noteNumber": 36,
        "velocity": 0,
        "subtype": "noteOff"
      },
      {
        "deltaTime": 0,
        "channel": 6,
        "type": "channel",
        "noteNumber": 39,
        "velocity": 127,
        "subtype": "noteOn"
      },
      {
        "deltaTime": 480,
        "channel": 6,
        "type": "channel",
        "noteNumber": 39,
        "velocity": 0,
        "subtype": "noteOff"
      },
      {
        "deltaTime": 0,
        "channel": 6,
        "type": "channel",
        "noteNumber": 36,
        "velocity": 127,
        "subtype": "noteOn"
      },
      {
        "deltaTime": 480,
        "channel": 6,
        "type": "channel",
        "noteNumber": 36,
        "velocity": 0,
        "subtype": "noteOff"
      },
      {
        "deltaTime": 0,
        "channel": 6,
        "type": "channel",
        "noteNumber": 32,
        "velocity": 127,
        "subtype": "noteOn"
      },
      {
        "deltaTime": 480,
        "channel": 6,
        "type": "channel",
        "noteNumber": 32,
        "velocity": 0,
        "subtype": "noteOff"
      },
      {
        "deltaTime": 0,
        "channel": 6,
        "type": "channel",
        "noteNumber": 32,
        "velocity": 127,
        "subtype": "noteOn"
      },
      {
        "deltaTime": 480,
        "channel": 6,
        "type": "channel",
        "noteNumber": 32,
        "velocity": 0,
        "subtype": "noteOff"
      },
      {
        "deltaTime": 0,
        "channel": 6,
        "type": "channel",
        "noteNumber": 32,
        "velocity": 127,
        "subtype": "noteOn"
      },
      {
        "deltaTime": 480,
        "channel": 6,
        "type": "channel",
        "noteNumber": 32,
        "velocity": 0,
        "subtype": "noteOff"
      },
      {
        "deltaTime": 0,
        "channel": 6,
        "type": "channel",
        "noteNumber": 32,
        "velocity": 127,
        "subtype": "noteOn"
      },
      {
        "deltaTime": 480,
        "channel": 6,
        "type": "channel",
        "noteNumber": 32,
        "velocity": 0,
        "subtype": "noteOff"
      },
      {
        "deltaTime": 0,
        "channel": 6,
        "type": "channel",
        "noteNumber": 32,
        "velocity": 127,
        "subtype": "noteOn"
      },
      {
        "deltaTime": 480,
        "channel": 6,
        "type": "channel",
        "noteNumber": 32,
        "velocity": 0,
        "subtype": "noteOff"
      },
      {
        "deltaTime": 0,
        "channel": 6,
        "type": "channel",
        "noteNumber": 32,
        "velocity": 127,
        "subtype": "noteOn"
      },
      {
        "deltaTime": 480,
        "channel": 6,
        "type": "channel",
        "noteNumber": 32,
        "velocity": 0,
        "subtype": "noteOff"
      },
      {
        "deltaTime": 0,
        "channel": 6,
        "type": "channel",
        "noteNumber": 32,
        "velocity": 127,
        "subtype": "noteOn"
      },
      {
        "deltaTime": 480,
        "channel": 6,
        "type": "channel",
        "noteNumber": 32,
        "velocity": 0,
        "subtype": "noteOff"
      },
      {
        "deltaTime": 0,
        "channel": 6,
        "type": "channel",
        "noteNumber": 32,
        "velocity": 127,
        "subtype": "noteOn"
      },
      {
        "deltaTime": 480,
        "channel": 6,
        "type": "channel",
        "noteNumber": 32,
        "velocity": 0,
        "subtype": "noteOff"
      },
      {
        "deltaTime": 0,
        "channel": 6,
        "type": "channel",
        "noteNumber": 27,
        "velocity": 127,
        "subtype": "noteOn"
      },
      {
        "deltaTime": 480,
        "channel": 6,
        "type": "channel",
        "noteNumber": 27,
        "velocity": 0,
        "subtype": "noteOff"
      },
      {
        "deltaTime": 0,
        "channel": 6,
        "type": "channel",
        "noteNumber": 27,
        "velocity": 127,
        "subtype": "noteOn"
      },
      {
        "deltaTime": 480,
        "channel": 6,
        "type": "channel",
        "noteNumber": 27,
        "velocity": 0,
        "subtype": "noteOff"
      },
      {
        "deltaTime": 0,
        "channel": 6,
        "type": "channel",
        "noteNumber": 27,
        "velocity": 127,
        "subtype": "noteOn"
      },
      {
        "deltaTime": 480,
        "channel": 6,
        "type": "channel",
        "noteNumber": 27,
        "velocity": 0,
        "subtype": "noteOff"
      },
      {
        "deltaTime": 0,
        "channel": 6,
        "type": "channel",
        "noteNumber": 27,
        "velocity": 127,
        "subtype": "noteOn"
      },
      {
        "deltaTime": 480,
        "channel": 6,
        "type": "channel",
        "noteNumber": 27,
        "velocity": 0,
        "subtype": "noteOff"
      },
      {
        "deltaTime": 0,
        "channel": 6,
        "type": "channel",
        "noteNumber": 27,
        "velocity": 127,
        "subtype": "noteOn"
      },
      {
        "deltaTime": 480,
        "channel": 6,
        "type": "channel",
        "noteNumber": 27,
        "velocity": 0,
        "subtype": "noteOff"
      },
      {
        "deltaTime": 0,
        "channel": 6,
        "type": "channel",
        "noteNumber": 27,
        "velocity": 127,
        "subtype": "noteOn"
      },
      {
        "deltaTime": 480,
        "channel": 6,
        "type": "channel",
        "noteNumber": 27,
        "velocity": 0,
        "subtype": "noteOff"
      },
      {
        "deltaTime": 0,
        "channel": 6,
        "type": "channel",
        "noteNumber": 27,
        "velocity": 127,
        "subtype": "noteOn"
      },
      {
        "deltaTime": 480,
        "channel": 6,
        "type": "channel",
        "noteNumber": 27,
        "velocity": 0,
        "subtype": "noteOff"
      },
      {
        "deltaTime": 0,
        "channel": 6,
        "type": "channel",
        "noteNumber": 27,
        "velocity": 127,
        "subtype": "noteOn"
      },
      {
        "deltaTime": 480,
        "channel": 6,
        "type": "channel",
        "noteNumber": 27,
        "velocity": 0,
        "subtype": "noteOff"
      },
      {
        "deltaTime": 0,
        "channel": 6,
        "type": "channel",
        "noteNumber": 34,
        "velocity": 127,
        "subtype": "noteOn"
      },
      {
        "deltaTime": 480,
        "channel": 6,
        "type": "channel",
        "noteNumber": 34,
        "velocity": 0,
        "subtype": "noteOff"
      },
      {
        "deltaTime": 0,
        "channel": 6,
        "type": "channel",
        "noteNumber": 34,
        "velocity": 127,
        "subtype": "noteOn"
      },
      {
        "deltaTime": 480,
        "channel": 6,
        "type": "channel",
        "noteNumber": 34,
        "velocity": 0,
        "subtype": "noteOff"
      },
      {
        "deltaTime": 0,
        "channel": 6,
        "type": "channel",
        "noteNumber": 34,
        "velocity": 127,
        "subtype": "noteOn"
      },
      {
        "deltaTime": 480,
        "channel": 6,
        "type": "channel",
        "noteNumber": 34,
        "velocity": 0,
        "subtype": "noteOff"
      },
      {
        "deltaTime": 0,
        "channel": 6,
        "type": "channel",
        "noteNumber": 34,
        "velocity": 127,
        "subtype": "noteOn"
      },
      {
        "deltaTime": 480,
        "channel": 6,
        "type": "channel",
        "noteNumber": 34,
        "velocity": 0,
        "subtype": "noteOff"
      },
      {
        "deltaTime": 0,
        "channel": 6,
        "type": "channel",
        "noteNumber": 34,
        "velocity": 127,
        "subtype": "noteOn"
      },
      {
        "deltaTime": 480,
        "channel": 6,
        "type": "channel",
        "noteNumber": 34,
        "velocity": 0,
        "subtype": "noteOff"
      },
      {
        "deltaTime": 0,
        "channel": 6,
        "type": "channel",
        "noteNumber": 34,
        "velocity": 127,
        "subtype": "noteOn"
      },
      {
        "deltaTime": 480,
        "channel": 6,
        "type": "channel",
        "noteNumber": 34,
        "velocity": 0,
        "subtype": "noteOff"
      },
      {
        "deltaTime": 0,
        "channel": 6,
        "type": "channel",
        "noteNumber": 34,
        "velocity": 127,
        "subtype": "noteOn"
      },
      {
        "deltaTime": 480,
        "channel": 6,
        "type": "channel",
        "noteNumber": 34,
        "velocity": 0,
        "subtype": "noteOff"
      },
      {
        "deltaTime": 0,
        "channel": 6,
        "type": "channel",
        "noteNumber": 34,
        "velocity": 127,
        "subtype": "noteOn"
      },
      {
        "deltaTime": 480,
        "channel": 6,
        "type": "channel",
        "noteNumber": 34,
        "velocity": 0,
        "subtype": "noteOff"
      },
      {
        "deltaTime": 0,
        "channel": 6,
        "type": "channel",
        "noteNumber": 34,
        "velocity": 127,
        "subtype": "noteOn"
      },
      {
        "deltaTime": 480,
        "channel": 6,
        "type": "channel",
        "noteNumber": 34,
        "velocity": 0,
        "subtype": "noteOff"
      },
      {
        "deltaTime": 0,
        "channel": 6,
        "type": "channel",
        "noteNumber": 34,
        "velocity": 127,
        "subtype": "noteOn"
      },
      {
        "deltaTime": 480,
        "channel": 6,
        "type": "channel",
        "noteNumber": 34,
        "velocity": 0,
        "subtype": "noteOff"
      },
      {
        "deltaTime": 0,
        "channel": 6,
        "type": "channel",
        "noteNumber": 34,
        "velocity": 127,
        "subtype": "noteOn"
      },
      {
        "deltaTime": 480,
        "channel": 6,
        "type": "channel",
        "noteNumber": 34,
        "velocity": 0,
        "subtype": "noteOff"
      },
      {
        "deltaTime": 0,
        "channel": 6,
        "type": "channel",
        "noteNumber": 34,
        "velocity": 127,
        "subtype": "noteOn"
      },
      {
        "deltaTime": 480,
        "channel": 6,
        "type": "channel",
        "noteNumber": 34,
        "velocity": 0,
        "subtype": "noteOff"
      },
      {
        "deltaTime": 0,
        "channel": 6,
        "type": "channel",
        "noteNumber": 34,
        "velocity": 127,
        "subtype": "noteOn"
      },
      {
        "deltaTime": 480,
        "channel": 6,
        "type": "channel",
        "noteNumber": 34,
        "velocity": 0,
        "subtype": "noteOff"
      },
      {
        "deltaTime": 0,
        "channel": 6,
        "type": "channel",
        "noteNumber": 34,
        "velocity": 127,
        "subtype": "noteOn"
      },
      {
        "deltaTime": 480,
        "channel": 6,
        "type": "channel",
        "noteNumber": 34,
        "velocity": 0,
        "subtype": "noteOff"
      },
      {
        "deltaTime": 0,
        "channel": 6,
        "type": "channel",
        "noteNumber": 34,
        "velocity": 127,
        "subtype": "noteOn"
      },
      {
        "deltaTime": 480,
        "channel": 6,
        "type": "channel",
        "noteNumber": 34,
        "velocity": 0,
        "subtype": "noteOff"
      },
      {
        "deltaTime": 0,
        "channel": 6,
        "type": "channel",
        "noteNumber": 34,
        "velocity": 127,
        "subtype": "noteOn"
      },
      {
        "deltaTime": 480,
        "channel": 6,
        "type": "channel",
        "noteNumber": 34,
        "velocity": 0,
        "subtype": "noteOff"
      },
      {
        "deltaTime": 0,
        "channel": 6,
        "type": "channel",
        "noteNumber": 32,
        "velocity": 127,
        "subtype": "noteOn"
      },
      {
        "deltaTime": 960,
        "channel": 6,
        "type": "channel",
        "noteNumber": 32,
        "velocity": 0,
        "subtype": "noteOff"
      },
      {
        "deltaTime": 9600,
        "channel": 6,
        "type": "channel",
        "noteNumber": 31,
        "velocity": 127,
        "subtype": "noteOn"
      },
      {
        "deltaTime": 960,
        "channel": 6,
        "type": "channel",
        "noteNumber": 31,
        "velocity": 0,
        "subtype": "noteOff"
      },
      {
        "deltaTime": 0,
        "channel": 6,
        "type": "channel",
        "noteNumber": 32,
        "velocity": 127,
        "subtype": "noteOn"
      },
      {
        "deltaTime": 720,
        "channel": 6,
        "type": "channel",
        "noteNumber": 32,
        "velocity": 0,
        "subtype": "noteOff"
      },
      {
        "deltaTime": 0,
        "channel": 6,
        "type": "channel",
        "noteNumber": 32,
        "velocity": 127,
        "subtype": "noteOn"
      },
      {
        "deltaTime": 720,
        "channel": 6,
        "type": "channel",
        "noteNumber": 32,
        "velocity": 0,
        "subtype": "noteOff"
      },
      {
        "deltaTime": 0,
        "channel": 6,
        "type": "channel",
        "noteNumber": 32,
        "velocity": 127,
        "subtype": "noteOn"
      },
      {
        "deltaTime": 480,
        "channel": 6,
        "type": "channel",
        "noteNumber": 32,
        "velocity": 0,
        "subtype": "noteOff"
      },
      {
        "deltaTime": 960,
        "channel": 6,
        "type": "channel",
        "noteNumber": 32,
        "velocity": 127,
        "subtype": "noteOn"
      },
      {
        "deltaTime": 720,
        "channel": 6,
        "type": "channel",
        "noteNumber": 32,
        "velocity": 0,
        "subtype": "noteOff"
      },
      {
        "deltaTime": 0,
        "channel": 6,
        "type": "channel",
        "noteNumber": 32,
        "velocity": 127,
        "subtype": "noteOn"
      },
      {
        "deltaTime": 720,
        "channel": 6,
        "type": "channel",
        "noteNumber": 32,
        "velocity": 0,
        "subtype": "noteOff"
      },
      {
        "deltaTime": 0,
        "channel": 6,
        "type": "channel",
        "noteNumber": 32,
        "velocity": 127,
        "subtype": "noteOn"
      },
      {
        "deltaTime": 480,
        "channel": 6,
        "type": "channel",
        "noteNumber": 32,
        "velocity": 0,
        "subtype": "noteOff"
      },
      {
        "deltaTime": 960,
        "channel": 6,
        "type": "channel",
        "noteNumber": 34,
        "velocity": 127,
        "subtype": "noteOn"
      },
      {
        "deltaTime": 720,
        "channel": 6,
        "type": "channel",
        "noteNumber": 34,
        "velocity": 0,
        "subtype": "noteOff"
      },
      {
        "deltaTime": 0,
        "channel": 6,
        "type": "channel",
        "noteNumber": 34,
        "velocity": 127,
        "subtype": "noteOn"
      },
      {
        "deltaTime": 720,
        "channel": 6,
        "type": "channel",
        "noteNumber": 34,
        "velocity": 0,
        "subtype": "noteOff"
      },
      {
        "deltaTime": 0,
        "channel": 6,
        "type": "channel",
        "noteNumber": 34,
        "velocity": 127,
        "subtype": "noteOn"
      },
      {
        "deltaTime": 480,
        "channel": 6,
        "type": "channel",
        "noteNumber": 34,
        "velocity": 0,
        "subtype": "noteOff"
      },
      {
        "deltaTime": 960,
        "channel": 6,
        "type": "channel",
        "noteNumber": 36,
        "velocity": 127,
        "subtype": "noteOn"
      },
      {
        "deltaTime": 720,
        "channel": 6,
        "type": "channel",
        "noteNumber": 36,
        "velocity": 0,
        "subtype": "noteOff"
      },
      {
        "deltaTime": 0,
        "channel": 6,
        "type": "channel",
        "noteNumber": 36,
        "velocity": 127,
        "subtype": "noteOn"
      },
      {
        "deltaTime": 720,
        "channel": 6,
        "type": "channel",
        "noteNumber": 36,
        "velocity": 0,
        "subtype": "noteOff"
      },
      {
        "deltaTime": 0,
        "channel": 6,
        "type": "channel",
        "noteNumber": 36,
        "velocity": 127,
        "subtype": "noteOn"
      },
      {
        "deltaTime": 480,
        "channel": 6,
        "type": "channel",
        "noteNumber": 36,
        "velocity": 0,
        "subtype": "noteOff"
      },
      {
        "deltaTime": 0,
        "channel": 6,
        "type": "channel",
        "noteNumber": 31,
        "velocity": 127,
        "subtype": "noteOn"
      },
      {
        "deltaTime": 960,
        "channel": 6,
        "type": "channel",
        "noteNumber": 31,
        "velocity": 0,
        "subtype": "noteOff"
      },
      {
        "deltaTime": 0,
        "channel": 6,
        "type": "channel",
        "noteNumber": 32,
        "velocity": 127,
        "subtype": "noteOn"
      },
      {
        "deltaTime": 240,
        "channel": 6,
        "type": "channel",
        "noteNumber": 32,
        "velocity": 0,
        "subtype": "noteOff"
      },
      {
        "deltaTime": 480,
        "channel": 6,
        "type": "channel",
        "noteNumber": 32,
        "velocity": 127,
        "subtype": "noteOn"
      },
      {
        "deltaTime": 240,
        "channel": 6,
        "type": "channel",
        "noteNumber": 32,
        "velocity": 0,
        "subtype": "noteOff"
      },
      {
        "deltaTime": 480,
        "channel": 6,
        "type": "channel",
        "noteNumber": 32,
        "velocity": 127,
        "subtype": "noteOn"
      },
      {
        "deltaTime": 480,
        "channel": 6,
        "type": "channel",
        "noteNumber": 32,
        "velocity": 0,
        "subtype": "noteOff"
      },
      {
        "deltaTime": 960,
        "channel": 6,
        "type": "channel",
        "noteNumber": 32,
        "velocity": 127,
        "subtype": "noteOn"
      },
      {
        "deltaTime": 240,
        "channel": 6,
        "type": "channel",
        "noteNumber": 32,
        "velocity": 0,
        "subtype": "noteOff"
      },
      {
        "deltaTime": 480,
        "channel": 6,
        "type": "channel",
        "noteNumber": 32,
        "velocity": 127,
        "subtype": "noteOn"
      },
      {
        "deltaTime": 240,
        "channel": 6,
        "type": "channel",
        "noteNumber": 32,
        "velocity": 0,
        "subtype": "noteOff"
      },
      {
        "deltaTime": 480,
        "channel": 6,
        "type": "channel",
        "noteNumber": 32,
        "velocity": 127,
        "subtype": "noteOn"
      },
      {
        "deltaTime": 480,
        "channel": 6,
        "type": "channel",
        "noteNumber": 32,
        "velocity": 0,
        "subtype": "noteOff"
      },
      {
        "deltaTime": 960,
        "channel": 6,
        "type": "channel",
        "noteNumber": 34,
        "velocity": 127,
        "subtype": "noteOn"
      },
      {
        "deltaTime": 240,
        "channel": 6,
        "type": "channel",
        "noteNumber": 34,
        "velocity": 0,
        "subtype": "noteOff"
      },
      {
        "deltaTime": 480,
        "channel": 6,
        "type": "channel",
        "noteNumber": 34,
        "velocity": 127,
        "subtype": "noteOn"
      },
      {
        "deltaTime": 240,
        "channel": 6,
        "type": "channel",
        "noteNumber": 34,
        "velocity": 0,
        "subtype": "noteOff"
      },
      {
        "deltaTime": 480,
        "channel": 6,
        "type": "channel",
        "noteNumber": 34,
        "velocity": 127,
        "subtype": "noteOn"
      },
      {
        "deltaTime": 480,
        "channel": 6,
        "type": "channel",
        "noteNumber": 34,
        "velocity": 0,
        "subtype": "noteOff"
      },
      {
        "deltaTime": 960,
        "channel": 6,
        "type": "channel",
        "noteNumber": 36,
        "velocity": 127,
        "subtype": "noteOn"
      },
      {
        "deltaTime": 240,
        "channel": 6,
        "type": "channel",
        "noteNumber": 36,
        "velocity": 0,
        "subtype": "noteOff"
      },
      {
        "deltaTime": 480,
        "channel": 6,
        "type": "channel",
        "noteNumber": 36,
        "velocity": 127,
        "subtype": "noteOn"
      },
      {
        "deltaTime": 240,
        "channel": 6,
        "type": "channel",
        "noteNumber": 36,
        "velocity": 0,
        "subtype": "noteOff"
      },
      {
        "deltaTime": 480,
        "channel": 6,
        "type": "channel",
        "noteNumber": 36,
        "velocity": 127,
        "subtype": "noteOn"
      },
      {
        "deltaTime": 480,
        "channel": 6,
        "type": "channel",
        "noteNumber": 36,
        "velocity": 0,
        "subtype": "noteOff"
      },
      {
        "deltaTime": 0,
        "channel": 6,
        "type": "channel",
        "noteNumber": 38,
        "velocity": 127,
        "subtype": "noteOn"
      },
      {
        "deltaTime": 240,
        "channel": 6,
        "type": "channel",
        "subtype": "pitchBend",
        "value": 7552
      },
      {
        "deltaTime": 102,
        "channel": 6,
        "type": "channel",
        "subtype": "pitchBend",
        "value": 6784
      },
      {
        "deltaTime": 104,
        "channel": 6,
        "type": "channel",
        "subtype": "pitchBend",
        "value": 6144
      },
      {
        "deltaTime": 102,
        "channel": 6,
        "type": "channel",
        "subtype": "pitchBend",
        "value": 5504
      },
      {
        "deltaTime": 104,
        "channel": 6,
        "type": "channel",
        "subtype": "pitchBend",
        "value": 4736
      },
      {
        "deltaTime": 102,
        "channel": 6,
        "type": "channel",
        "subtype": "pitchBend",
        "value": 4096
      },
      {
        "deltaTime": 104,
        "channel": 6,
        "type": "channel",
        "subtype": "pitchBend",
        "value": 3456
      },
      {
        "deltaTime": 102,
        "channel": 6,
        "type": "channel",
        "noteNumber": 38,
        "velocity": 0,
        "subtype": "noteOff"
      },
      {
        "deltaTime": 0,
        "channel": 6,
        "type": "channel",
        "subtype": "pitchBend",
        "value": 8192
      },
      {
        "deltaTime": 0,
        "channel": 6,
        "type": "channel",
        "noteNumber": 32,
        "velocity": 127,
        "subtype": "noteOn"
      },
      {
        "deltaTime": 240,
        "channel": 6,
        "type": "channel",
        "noteNumber": 32,
        "velocity": 0,
        "subtype": "noteOff"
      },
      {
        "deltaTime": 480,
        "channel": 6,
        "type": "channel",
        "noteNumber": 32,
        "velocity": 127,
        "subtype": "noteOn"
      },
      {
        "deltaTime": 240,
        "channel": 6,
        "type": "channel",
        "noteNumber": 32,
        "velocity": 0,
        "subtype": "noteOff"
      },
      {
        "deltaTime": 480,
        "channel": 6,
        "type": "channel",
        "noteNumber": 32,
        "velocity": 127,
        "subtype": "noteOn"
      },
      {
        "deltaTime": 480,
        "channel": 6,
        "type": "channel",
        "noteNumber": 32,
        "velocity": 0,
        "subtype": "noteOff"
      },
      {
        "deltaTime": 960,
        "channel": 6,
        "type": "channel",
        "noteNumber": 32,
        "velocity": 127,
        "subtype": "noteOn"
      },
      {
        "deltaTime": 240,
        "channel": 6,
        "type": "channel",
        "noteNumber": 32,
        "velocity": 0,
        "subtype": "noteOff"
      },
      {
        "deltaTime": 480,
        "channel": 6,
        "type": "channel",
        "noteNumber": 32,
        "velocity": 127,
        "subtype": "noteOn"
      },
      {
        "deltaTime": 240,
        "channel": 6,
        "type": "channel",
        "noteNumber": 32,
        "velocity": 0,
        "subtype": "noteOff"
      },
      {
        "deltaTime": 480,
        "channel": 6,
        "type": "channel",
        "noteNumber": 32,
        "velocity": 127,
        "subtype": "noteOn"
      },
      {
        "deltaTime": 480,
        "channel": 6,
        "type": "channel",
        "noteNumber": 32,
        "velocity": 0,
        "subtype": "noteOff"
      },
      {
        "deltaTime": 960,
        "channel": 6,
        "type": "channel",
        "noteNumber": 34,
        "velocity": 127,
        "subtype": "noteOn"
      },
      {
        "deltaTime": 240,
        "channel": 6,
        "type": "channel",
        "noteNumber": 34,
        "velocity": 0,
        "subtype": "noteOff"
      },
      {
        "deltaTime": 480,
        "channel": 6,
        "type": "channel",
        "noteNumber": 34,
        "velocity": 127,
        "subtype": "noteOn"
      },
      {
        "deltaTime": 240,
        "channel": 6,
        "type": "channel",
        "noteNumber": 34,
        "velocity": 0,
        "subtype": "noteOff"
      },
      {
        "deltaTime": 480,
        "channel": 6,
        "type": "channel",
        "noteNumber": 34,
        "velocity": 127,
        "subtype": "noteOn"
      },
      {
        "deltaTime": 480,
        "channel": 6,
        "type": "channel",
        "noteNumber": 34,
        "velocity": 0,
        "subtype": "noteOff"
      },
      {
        "deltaTime": 960,
        "channel": 6,
        "type": "channel",
        "noteNumber": 36,
        "velocity": 127,
        "subtype": "noteOn"
      },
      {
        "deltaTime": 240,
        "channel": 6,
        "type": "channel",
        "noteNumber": 36,
        "velocity": 0,
        "subtype": "noteOff"
      },
      {
        "deltaTime": 480,
        "channel": 6,
        "type": "channel",
        "noteNumber": 36,
        "velocity": 127,
        "subtype": "noteOn"
      },
      {
        "deltaTime": 240,
        "channel": 6,
        "type": "channel",
        "noteNumber": 36,
        "velocity": 0,
        "subtype": "noteOff"
      },
      {
        "deltaTime": 480,
        "channel": 6,
        "type": "channel",
        "noteNumber": 36,
        "velocity": 127,
        "subtype": "noteOn"
      },
      {
        "deltaTime": 480,
        "channel": 6,
        "type": "channel",
        "noteNumber": 36,
        "velocity": 0,
        "subtype": "noteOff"
      },
      {
        "deltaTime": 960,
        "channel": 6,
        "type": "channel",
        "noteNumber": 32,
        "velocity": 127,
        "subtype": "noteOn"
      },
      {
        "deltaTime": 240,
        "channel": 6,
        "type": "channel",
        "noteNumber": 32,
        "velocity": 0,
        "subtype": "noteOff"
      },
      {
        "deltaTime": 480,
        "channel": 6,
        "type": "channel",
        "noteNumber": 32,
        "velocity": 127,
        "subtype": "noteOn"
      },
      {
        "deltaTime": 240,
        "channel": 6,
        "type": "channel",
        "noteNumber": 32,
        "velocity": 0,
        "subtype": "noteOff"
      },
      {
        "deltaTime": 480,
        "channel": 6,
        "type": "channel",
        "noteNumber": 32,
        "velocity": 127,
        "subtype": "noteOn"
      },
      {
        "deltaTime": 480,
        "channel": 6,
        "type": "channel",
        "noteNumber": 32,
        "velocity": 0,
        "subtype": "noteOff"
      },
      {
        "deltaTime": 960,
        "channel": 6,
        "type": "channel",
        "noteNumber": 32,
        "velocity": 127,
        "subtype": "noteOn"
      },
      {
        "deltaTime": 240,
        "channel": 6,
        "type": "channel",
        "noteNumber": 32,
        "velocity": 0,
        "subtype": "noteOff"
      },
      {
        "deltaTime": 480,
        "channel": 6,
        "type": "channel",
        "noteNumber": 32,
        "velocity": 127,
        "subtype": "noteOn"
      },
      {
        "deltaTime": 240,
        "channel": 6,
        "type": "channel",
        "noteNumber": 32,
        "velocity": 0,
        "subtype": "noteOff"
      },
      {
        "deltaTime": 480,
        "channel": 6,
        "type": "channel",
        "noteNumber": 32,
        "velocity": 127,
        "subtype": "noteOn"
      },
      {
        "deltaTime": 480,
        "channel": 6,
        "type": "channel",
        "noteNumber": 32,
        "velocity": 0,
        "subtype": "noteOff"
      },
      {
        "deltaTime": 960,
        "channel": 6,
        "type": "channel",
        "noteNumber": 34,
        "velocity": 127,
        "subtype": "noteOn"
      },
      {
        "deltaTime": 240,
        "channel": 6,
        "type": "channel",
        "noteNumber": 34,
        "velocity": 0,
        "subtype": "noteOff"
      },
      {
        "deltaTime": 480,
        "channel": 6,
        "type": "channel",
        "noteNumber": 34,
        "velocity": 127,
        "subtype": "noteOn"
      },
      {
        "deltaTime": 240,
        "channel": 6,
        "type": "channel",
        "noteNumber": 34,
        "velocity": 0,
        "subtype": "noteOff"
      },
      {
        "deltaTime": 480,
        "channel": 6,
        "type": "channel",
        "noteNumber": 34,
        "velocity": 127,
        "subtype": "noteOn"
      },
      {
        "deltaTime": 480,
        "channel": 6,
        "type": "channel",
        "noteNumber": 34,
        "velocity": 0,
        "subtype": "noteOff"
      },
      {
        "deltaTime": 960,
        "channel": 6,
        "type": "channel",
        "noteNumber": 36,
        "velocity": 127,
        "subtype": "noteOn"
      },
      {
        "deltaTime": 240,
        "channel": 6,
        "type": "channel",
        "noteNumber": 36,
        "velocity": 0,
        "subtype": "noteOff"
      },
      {
        "deltaTime": 480,
        "channel": 6,
        "type": "channel",
        "noteNumber": 36,
        "velocity": 127,
        "subtype": "noteOn"
      },
      {
        "deltaTime": 240,
        "channel": 6,
        "type": "channel",
        "noteNumber": 36,
        "velocity": 0,
        "subtype": "noteOff"
      },
      {
        "deltaTime": 480,
        "channel": 6,
        "type": "channel",
        "noteNumber": 36,
        "velocity": 127,
        "subtype": "noteOn"
      },
      {
        "deltaTime": 480,
        "channel": 6,
        "type": "channel",
        "noteNumber": 36,
        "velocity": 0,
        "subtype": "noteOff"
      },
      {
        "deltaTime": 960,
        "channel": 6,
        "type": "channel",
        "noteNumber": 32,
        "velocity": 127,
        "subtype": "noteOn"
      },
      {
        "deltaTime": 240,
        "channel": 6,
        "type": "channel",
        "noteNumber": 32,
        "velocity": 0,
        "subtype": "noteOff"
      },
      {
        "deltaTime": 480,
        "channel": 6,
        "type": "channel",
        "noteNumber": 32,
        "velocity": 127,
        "subtype": "noteOn"
      },
      {
        "deltaTime": 240,
        "channel": 6,
        "type": "channel",
        "noteNumber": 32,
        "velocity": 0,
        "subtype": "noteOff"
      },
      {
        "deltaTime": 480,
        "channel": 6,
        "type": "channel",
        "noteNumber": 32,
        "velocity": 127,
        "subtype": "noteOn"
      },
      {
        "deltaTime": 480,
        "channel": 6,
        "type": "channel",
        "noteNumber": 32,
        "velocity": 0,
        "subtype": "noteOff"
      },
      {
        "deltaTime": 960,
        "channel": 6,
        "type": "channel",
        "noteNumber": 32,
        "velocity": 127,
        "subtype": "noteOn"
      },
      {
        "deltaTime": 240,
        "channel": 6,
        "type": "channel",
        "noteNumber": 32,
        "velocity": 0,
        "subtype": "noteOff"
      },
      {
        "deltaTime": 480,
        "channel": 6,
        "type": "channel",
        "noteNumber": 32,
        "velocity": 127,
        "subtype": "noteOn"
      },
      {
        "deltaTime": 240,
        "channel": 6,
        "type": "channel",
        "noteNumber": 32,
        "velocity": 0,
        "subtype": "noteOff"
      },
      {
        "deltaTime": 480,
        "channel": 6,
        "type": "channel",
        "noteNumber": 32,
        "velocity": 127,
        "subtype": "noteOn"
      },
      {
        "deltaTime": 480,
        "channel": 6,
        "type": "channel",
        "noteNumber": 32,
        "velocity": 0,
        "subtype": "noteOff"
      },
      {
        "deltaTime": 960,
        "channel": 6,
        "type": "channel",
        "noteNumber": 34,
        "velocity": 127,
        "subtype": "noteOn"
      },
      {
        "deltaTime": 240,
        "channel": 6,
        "type": "channel",
        "noteNumber": 34,
        "velocity": 0,
        "subtype": "noteOff"
      },
      {
        "deltaTime": 480,
        "channel": 6,
        "type": "channel",
        "noteNumber": 34,
        "velocity": 127,
        "subtype": "noteOn"
      },
      {
        "deltaTime": 240,
        "channel": 6,
        "type": "channel",
        "noteNumber": 34,
        "velocity": 0,
        "subtype": "noteOff"
      },
      {
        "deltaTime": 480,
        "channel": 6,
        "type": "channel",
        "noteNumber": 34,
        "velocity": 127,
        "subtype": "noteOn"
      },
      {
        "deltaTime": 480,
        "channel": 6,
        "type": "channel",
        "noteNumber": 34,
        "velocity": 0,
        "subtype": "noteOff"
      },
      {
        "deltaTime": 960,
        "channel": 6,
        "type": "channel",
        "noteNumber": 36,
        "velocity": 127,
        "subtype": "noteOn"
      },
      {
        "deltaTime": 240,
        "channel": 6,
        "type": "channel",
        "noteNumber": 36,
        "velocity": 0,
        "subtype": "noteOff"
      },
      {
        "deltaTime": 480,
        "channel": 6,
        "type": "channel",
        "noteNumber": 36,
        "velocity": 127,
        "subtype": "noteOn"
      },
      {
        "deltaTime": 240,
        "channel": 6,
        "type": "channel",
        "noteNumber": 36,
        "velocity": 0,
        "subtype": "noteOff"
      },
      {
        "deltaTime": 480,
        "channel": 6,
        "type": "channel",
        "noteNumber": 36,
        "velocity": 127,
        "subtype": "noteOn"
      },
      {
        "deltaTime": 480,
        "channel": 6,
        "type": "channel",
        "noteNumber": 36,
        "velocity": 0,
        "subtype": "noteOff"
      },
      {
        "deltaTime": 0,
        "channel": 6,
        "type": "channel",
        "noteNumber": 38,
        "velocity": 127,
        "subtype": "noteOn"
      },
      {
        "deltaTime": 240,
        "channel": 6,
        "type": "channel",
        "subtype": "pitchBend",
        "value": 7552
      },
      {
        "deltaTime": 102,
        "channel": 6,
        "type": "channel",
        "subtype": "pitchBend",
        "value": 6784
      },
      {
        "deltaTime": 104,
        "channel": 6,
        "type": "channel",
        "subtype": "pitchBend",
        "value": 6144
      },
      {
        "deltaTime": 102,
        "channel": 6,
        "type": "channel",
        "subtype": "pitchBend",
        "value": 5504
      },
      {
        "deltaTime": 104,
        "channel": 6,
        "type": "channel",
        "subtype": "pitchBend",
        "value": 4736
      },
      {
        "deltaTime": 102,
        "channel": 6,
        "type": "channel",
        "subtype": "pitchBend",
        "value": 4096
      },
      {
        "deltaTime": 104,
        "channel": 6,
        "type": "channel",
        "subtype": "pitchBend",
        "value": 3456
      },
      {
        "deltaTime": 102,
        "channel": 6,
        "type": "channel",
        "noteNumber": 38,
        "velocity": 0,
        "subtype": "noteOff"
      },
      {
        "deltaTime": 0,
        "channel": 6,
        "type": "channel",
        "subtype": "pitchBend",
        "value": 8192
      },
      {
        "deltaTime": 0,
        "channel": 6,
        "type": "channel",
        "noteNumber": 27,
        "velocity": 127,
        "subtype": "noteOn"
      },
      {
        "deltaTime": 7680,
        "channel": 6,
        "type": "channel",
        "noteNumber": 27,
        "velocity": 0,
        "subtype": "noteOff"
      },
      {
        "deltaTime": 0,
        "channel": 6,
        "type": "channel",
        "noteNumber": 32,
        "velocity": 127,
        "subtype": "noteOn"
      },
      {
        "deltaTime": 480,
        "channel": 6,
        "type": "channel",
        "noteNumber": 32,
        "velocity": 0,
        "subtype": "noteOff"
      },
      {
        "deltaTime": 0,
        "channel": 6,
        "type": "channel",
        "noteNumber": 32,
        "velocity": 127,
        "subtype": "noteOn"
      },
      {
        "deltaTime": 480,
        "channel": 6,
        "type": "channel",
        "noteNumber": 32,
        "velocity": 0,
        "subtype": "noteOff"
      },
      {
        "deltaTime": 0,
        "channel": 6,
        "type": "channel",
        "noteNumber": 32,
        "velocity": 127,
        "subtype": "noteOn"
      },
      {
        "deltaTime": 480,
        "channel": 6,
        "type": "channel",
        "noteNumber": 32,
        "velocity": 0,
        "subtype": "noteOff"
      },
      {
        "deltaTime": 0,
        "channel": 6,
        "type": "channel",
        "noteNumber": 32,
        "velocity": 127,
        "subtype": "noteOn"
      },
      {
        "deltaTime": 480,
        "channel": 6,
        "type": "channel",
        "noteNumber": 32,
        "velocity": 0,
        "subtype": "noteOff"
      },
      {
        "deltaTime": 0,
        "channel": 6,
        "type": "channel",
        "noteNumber": 32,
        "velocity": 127,
        "subtype": "noteOn"
      },
      {
        "deltaTime": 480,
        "channel": 6,
        "type": "channel",
        "noteNumber": 32,
        "velocity": 0,
        "subtype": "noteOff"
      },
      {
        "deltaTime": 0,
        "channel": 6,
        "type": "channel",
        "noteNumber": 32,
        "velocity": 127,
        "subtype": "noteOn"
      },
      {
        "deltaTime": 480,
        "channel": 6,
        "type": "channel",
        "noteNumber": 32,
        "velocity": 0,
        "subtype": "noteOff"
      },
      {
        "deltaTime": 0,
        "channel": 6,
        "type": "channel",
        "noteNumber": 32,
        "velocity": 127,
        "subtype": "noteOn"
      },
      {
        "deltaTime": 480,
        "channel": 6,
        "type": "channel",
        "noteNumber": 32,
        "velocity": 0,
        "subtype": "noteOff"
      },
      {
        "deltaTime": 0,
        "channel": 6,
        "type": "channel",
        "noteNumber": 32,
        "velocity": 127,
        "subtype": "noteOn"
      },
      {
        "deltaTime": 480,
        "channel": 6,
        "type": "channel",
        "noteNumber": 32,
        "velocity": 0,
        "subtype": "noteOff"
      },
      {
        "deltaTime": 0,
        "channel": 6,
        "type": "channel",
        "noteNumber": 27,
        "velocity": 127,
        "subtype": "noteOn"
      },
      {
        "deltaTime": 480,
        "channel": 6,
        "type": "channel",
        "noteNumber": 27,
        "velocity": 0,
        "subtype": "noteOff"
      },
      {
        "deltaTime": 0,
        "channel": 6,
        "type": "channel",
        "noteNumber": 27,
        "velocity": 127,
        "subtype": "noteOn"
      },
      {
        "deltaTime": 480,
        "channel": 6,
        "type": "channel",
        "noteNumber": 27,
        "velocity": 0,
        "subtype": "noteOff"
      },
      {
        "deltaTime": 0,
        "channel": 6,
        "type": "channel",
        "noteNumber": 27,
        "velocity": 127,
        "subtype": "noteOn"
      },
      {
        "deltaTime": 480,
        "channel": 6,
        "type": "channel",
        "noteNumber": 27,
        "velocity": 0,
        "subtype": "noteOff"
      },
      {
        "deltaTime": 0,
        "channel": 6,
        "type": "channel",
        "noteNumber": 27,
        "velocity": 127,
        "subtype": "noteOn"
      },
      {
        "deltaTime": 480,
        "channel": 6,
        "type": "channel",
        "noteNumber": 27,
        "velocity": 0,
        "subtype": "noteOff"
      },
      {
        "deltaTime": 0,
        "channel": 6,
        "type": "channel",
        "noteNumber": 27,
        "velocity": 127,
        "subtype": "noteOn"
      },
      {
        "deltaTime": 480,
        "channel": 6,
        "type": "channel",
        "noteNumber": 27,
        "velocity": 0,
        "subtype": "noteOff"
      },
      {
        "deltaTime": 0,
        "channel": 6,
        "type": "channel",
        "noteNumber": 27,
        "velocity": 127,
        "subtype": "noteOn"
      },
      {
        "deltaTime": 480,
        "channel": 6,
        "type": "channel",
        "noteNumber": 27,
        "velocity": 0,
        "subtype": "noteOff"
      },
      {
        "deltaTime": 0,
        "channel": 6,
        "type": "channel",
        "noteNumber": 27,
        "velocity": 127,
        "subtype": "noteOn"
      },
      {
        "deltaTime": 480,
        "channel": 6,
        "type": "channel",
        "noteNumber": 27,
        "velocity": 0,
        "subtype": "noteOff"
      },
      {
        "deltaTime": 0,
        "channel": 6,
        "type": "channel",
        "noteNumber": 27,
        "velocity": 127,
        "subtype": "noteOn"
      },
      {
        "deltaTime": 480,
        "channel": 6,
        "type": "channel",
        "noteNumber": 27,
        "velocity": 0,
        "subtype": "noteOff"
      },
      {
        "deltaTime": 0,
        "channel": 6,
        "type": "channel",
        "noteNumber": 36,
        "velocity": 127,
        "subtype": "noteOn"
      },
      {
        "deltaTime": 480,
        "channel": 6,
        "type": "channel",
        "noteNumber": 36,
        "velocity": 0,
        "subtype": "noteOff"
      },
      {
        "deltaTime": 0,
        "channel": 6,
        "type": "channel",
        "noteNumber": 36,
        "velocity": 127,
        "subtype": "noteOn"
      },
      {
        "deltaTime": 480,
        "channel": 6,
        "type": "channel",
        "noteNumber": 36,
        "velocity": 0,
        "subtype": "noteOff"
      },
      {
        "deltaTime": 0,
        "channel": 6,
        "type": "channel",
        "noteNumber": 36,
        "velocity": 127,
        "subtype": "noteOn"
      },
      {
        "deltaTime": 480,
        "channel": 6,
        "type": "channel",
        "noteNumber": 36,
        "velocity": 0,
        "subtype": "noteOff"
      },
      {
        "deltaTime": 0,
        "channel": 6,
        "type": "channel",
        "noteNumber": 36,
        "velocity": 127,
        "subtype": "noteOn"
      },
      {
        "deltaTime": 480,
        "channel": 6,
        "type": "channel",
        "noteNumber": 36,
        "velocity": 0,
        "subtype": "noteOff"
      },
      {
        "deltaTime": 0,
        "channel": 6,
        "type": "channel",
        "noteNumber": 36,
        "velocity": 127,
        "subtype": "noteOn"
      },
      {
        "deltaTime": 480,
        "channel": 6,
        "type": "channel",
        "noteNumber": 36,
        "velocity": 0,
        "subtype": "noteOff"
      },
      {
        "deltaTime": 0,
        "channel": 6,
        "type": "channel",
        "noteNumber": 36,
        "velocity": 127,
        "subtype": "noteOn"
      },
      {
        "deltaTime": 480,
        "channel": 6,
        "type": "channel",
        "noteNumber": 36,
        "velocity": 0,
        "subtype": "noteOff"
      },
      {
        "deltaTime": 0,
        "channel": 6,
        "type": "channel",
        "noteNumber": 36,
        "velocity": 127,
        "subtype": "noteOn"
      },
      {
        "deltaTime": 480,
        "channel": 6,
        "type": "channel",
        "noteNumber": 36,
        "velocity": 0,
        "subtype": "noteOff"
      },
      {
        "deltaTime": 0,
        "channel": 6,
        "type": "channel",
        "noteNumber": 36,
        "velocity": 127,
        "subtype": "noteOn"
      },
      {
        "deltaTime": 480,
        "channel": 6,
        "type": "channel",
        "noteNumber": 36,
        "velocity": 0,
        "subtype": "noteOff"
      },
      {
        "deltaTime": 0,
        "channel": 6,
        "type": "channel",
        "noteNumber": 34,
        "velocity": 127,
        "subtype": "noteOn"
      },
      {
        "deltaTime": 480,
        "channel": 6,
        "type": "channel",
        "noteNumber": 34,
        "velocity": 0,
        "subtype": "noteOff"
      },
      {
        "deltaTime": 0,
        "channel": 6,
        "type": "channel",
        "noteNumber": 34,
        "velocity": 127,
        "subtype": "noteOn"
      },
      {
        "deltaTime": 480,
        "channel": 6,
        "type": "channel",
        "noteNumber": 34,
        "velocity": 0,
        "subtype": "noteOff"
      },
      {
        "deltaTime": 0,
        "channel": 6,
        "type": "channel",
        "noteNumber": 34,
        "velocity": 127,
        "subtype": "noteOn"
      },
      {
        "deltaTime": 480,
        "channel": 6,
        "type": "channel",
        "noteNumber": 34,
        "velocity": 0,
        "subtype": "noteOff"
      },
      {
        "deltaTime": 0,
        "channel": 6,
        "type": "channel",
        "noteNumber": 34,
        "velocity": 127,
        "subtype": "noteOn"
      },
      {
        "deltaTime": 480,
        "channel": 6,
        "type": "channel",
        "noteNumber": 34,
        "velocity": 0,
        "subtype": "noteOff"
      },
      {
        "deltaTime": 0,
        "channel": 6,
        "type": "channel",
        "noteNumber": 34,
        "velocity": 127,
        "subtype": "noteOn"
      },
      {
        "deltaTime": 480,
        "channel": 6,
        "type": "channel",
        "noteNumber": 34,
        "velocity": 0,
        "subtype": "noteOff"
      },
      {
        "deltaTime": 0,
        "channel": 6,
        "type": "channel",
        "noteNumber": 34,
        "velocity": 127,
        "subtype": "noteOn"
      },
      {
        "deltaTime": 480,
        "channel": 6,
        "type": "channel",
        "noteNumber": 34,
        "velocity": 0,
        "subtype": "noteOff"
      },
      {
        "deltaTime": 0,
        "channel": 6,
        "type": "channel",
        "noteNumber": 34,
        "velocity": 127,
        "subtype": "noteOn"
      },
      {
        "deltaTime": 480,
        "channel": 6,
        "type": "channel",
        "noteNumber": 34,
        "velocity": 0,
        "subtype": "noteOff"
      },
      {
        "deltaTime": 0,
        "channel": 6,
        "type": "channel",
        "noteNumber": 34,
        "velocity": 127,
        "subtype": "noteOn"
      },
      {
        "deltaTime": 480,
        "channel": 6,
        "type": "channel",
        "noteNumber": 34,
        "velocity": 0,
        "subtype": "noteOff"
      },
      {
        "deltaTime": 0,
        "channel": 6,
        "type": "channel",
        "noteNumber": 32,
        "velocity": 127,
        "subtype": "noteOn"
      },
      {
        "deltaTime": 480,
        "channel": 6,
        "type": "channel",
        "noteNumber": 32,
        "velocity": 0,
        "subtype": "noteOff"
      },
      {
        "deltaTime": 0,
        "channel": 6,
        "type": "channel",
        "noteNumber": 32,
        "velocity": 127,
        "subtype": "noteOn"
      },
      {
        "deltaTime": 480,
        "channel": 6,
        "type": "channel",
        "noteNumber": 32,
        "velocity": 0,
        "subtype": "noteOff"
      },
      {
        "deltaTime": 0,
        "channel": 6,
        "type": "channel",
        "noteNumber": 32,
        "velocity": 127,
        "subtype": "noteOn"
      },
      {
        "deltaTime": 480,
        "channel": 6,
        "type": "channel",
        "noteNumber": 32,
        "velocity": 0,
        "subtype": "noteOff"
      },
      {
        "deltaTime": 0,
        "channel": 6,
        "type": "channel",
        "noteNumber": 32,
        "velocity": 127,
        "subtype": "noteOn"
      },
      {
        "deltaTime": 480,
        "channel": 6,
        "type": "channel",
        "noteNumber": 32,
        "velocity": 0,
        "subtype": "noteOff"
      },
      {
        "deltaTime": 0,
        "channel": 6,
        "type": "channel",
        "noteNumber": 32,
        "velocity": 127,
        "subtype": "noteOn"
      },
      {
        "deltaTime": 480,
        "channel": 6,
        "type": "channel",
        "noteNumber": 32,
        "velocity": 0,
        "subtype": "noteOff"
      },
      {
        "deltaTime": 0,
        "channel": 6,
        "type": "channel",
        "noteNumber": 32,
        "velocity": 127,
        "subtype": "noteOn"
      },
      {
        "deltaTime": 480,
        "channel": 6,
        "type": "channel",
        "noteNumber": 32,
        "velocity": 0,
        "subtype": "noteOff"
      },
      {
        "deltaTime": 0,
        "channel": 6,
        "type": "channel",
        "noteNumber": 32,
        "velocity": 127,
        "subtype": "noteOn"
      },
      {
        "deltaTime": 480,
        "channel": 6,
        "type": "channel",
        "noteNumber": 32,
        "velocity": 0,
        "subtype": "noteOff"
      },
      {
        "deltaTime": 0,
        "channel": 6,
        "type": "channel",
        "noteNumber": 32,
        "velocity": 127,
        "subtype": "noteOn"
      },
      {
        "deltaTime": 480,
        "channel": 6,
        "type": "channel",
        "noteNumber": 32,
        "velocity": 0,
        "subtype": "noteOff"
      },
      {
        "deltaTime": 0,
        "channel": 6,
        "type": "channel",
        "noteNumber": 27,
        "velocity": 127,
        "subtype": "noteOn"
      },
      {
        "deltaTime": 480,
        "channel": 6,
        "type": "channel",
        "noteNumber": 27,
        "velocity": 0,
        "subtype": "noteOff"
      },
      {
        "deltaTime": 0,
        "channel": 6,
        "type": "channel",
        "noteNumber": 27,
        "velocity": 127,
        "subtype": "noteOn"
      },
      {
        "deltaTime": 480,
        "channel": 6,
        "type": "channel",
        "noteNumber": 27,
        "velocity": 0,
        "subtype": "noteOff"
      },
      {
        "deltaTime": 0,
        "channel": 6,
        "type": "channel",
        "noteNumber": 27,
        "velocity": 127,
        "subtype": "noteOn"
      },
      {
        "deltaTime": 480,
        "channel": 6,
        "type": "channel",
        "noteNumber": 27,
        "velocity": 0,
        "subtype": "noteOff"
      },
      {
        "deltaTime": 0,
        "channel": 6,
        "type": "channel",
        "noteNumber": 27,
        "velocity": 127,
        "subtype": "noteOn"
      },
      {
        "deltaTime": 480,
        "channel": 6,
        "type": "channel",
        "noteNumber": 27,
        "velocity": 0,
        "subtype": "noteOff"
      },
      {
        "deltaTime": 0,
        "channel": 6,
        "type": "channel",
        "noteNumber": 27,
        "velocity": 127,
        "subtype": "noteOn"
      },
      {
        "deltaTime": 480,
        "channel": 6,
        "type": "channel",
        "noteNumber": 27,
        "velocity": 0,
        "subtype": "noteOff"
      },
      {
        "deltaTime": 0,
        "channel": 6,
        "type": "channel",
        "noteNumber": 27,
        "velocity": 127,
        "subtype": "noteOn"
      },
      {
        "deltaTime": 480,
        "channel": 6,
        "type": "channel",
        "noteNumber": 27,
        "velocity": 0,
        "subtype": "noteOff"
      },
      {
        "deltaTime": 0,
        "channel": 6,
        "type": "channel",
        "noteNumber": 27,
        "velocity": 127,
        "subtype": "noteOn"
      },
      {
        "deltaTime": 480,
        "channel": 6,
        "type": "channel",
        "noteNumber": 27,
        "velocity": 0,
        "subtype": "noteOff"
      },
      {
        "deltaTime": 0,
        "channel": 6,
        "type": "channel",
        "noteNumber": 27,
        "velocity": 127,
        "subtype": "noteOn"
      },
      {
        "deltaTime": 480,
        "channel": 6,
        "type": "channel",
        "noteNumber": 27,
        "velocity": 0,
        "subtype": "noteOff"
      },
      {
        "deltaTime": 0,
        "channel": 6,
        "type": "channel",
        "noteNumber": 34,
        "velocity": 127,
        "subtype": "noteOn"
      },
      {
        "deltaTime": 480,
        "channel": 6,
        "type": "channel",
        "noteNumber": 34,
        "velocity": 0,
        "subtype": "noteOff"
      },
      {
        "deltaTime": 0,
        "channel": 6,
        "type": "channel",
        "noteNumber": 34,
        "velocity": 127,
        "subtype": "noteOn"
      },
      {
        "deltaTime": 480,
        "channel": 6,
        "type": "channel",
        "noteNumber": 34,
        "velocity": 0,
        "subtype": "noteOff"
      },
      {
        "deltaTime": 0,
        "channel": 6,
        "type": "channel",
        "noteNumber": 34,
        "velocity": 127,
        "subtype": "noteOn"
      },
      {
        "deltaTime": 480,
        "channel": 6,
        "type": "channel",
        "noteNumber": 34,
        "velocity": 0,
        "subtype": "noteOff"
      },
      {
        "deltaTime": 0,
        "channel": 6,
        "type": "channel",
        "noteNumber": 34,
        "velocity": 127,
        "subtype": "noteOn"
      },
      {
        "deltaTime": 480,
        "channel": 6,
        "type": "channel",
        "noteNumber": 34,
        "velocity": 0,
        "subtype": "noteOff"
      },
      {
        "deltaTime": 0,
        "channel": 6,
        "type": "channel",
        "noteNumber": 34,
        "velocity": 127,
        "subtype": "noteOn"
      },
      {
        "deltaTime": 480,
        "channel": 6,
        "type": "channel",
        "noteNumber": 34,
        "velocity": 0,
        "subtype": "noteOff"
      },
      {
        "deltaTime": 0,
        "channel": 6,
        "type": "channel",
        "noteNumber": 34,
        "velocity": 127,
        "subtype": "noteOn"
      },
      {
        "deltaTime": 480,
        "channel": 6,
        "type": "channel",
        "noteNumber": 34,
        "velocity": 0,
        "subtype": "noteOff"
      },
      {
        "deltaTime": 0,
        "channel": 6,
        "type": "channel",
        "noteNumber": 34,
        "velocity": 127,
        "subtype": "noteOn"
      },
      {
        "deltaTime": 480,
        "channel": 6,
        "type": "channel",
        "noteNumber": 34,
        "velocity": 0,
        "subtype": "noteOff"
      },
      {
        "deltaTime": 0,
        "channel": 6,
        "type": "channel",
        "noteNumber": 34,
        "velocity": 127,
        "subtype": "noteOn"
      },
      {
        "deltaTime": 480,
        "channel": 6,
        "type": "channel",
        "noteNumber": 34,
        "velocity": 0,
        "subtype": "noteOff"
      },
      {
        "deltaTime": 0,
        "channel": 6,
        "type": "channel",
        "noteNumber": 34,
        "velocity": 127,
        "subtype": "noteOn"
      },
      {
        "deltaTime": 480,
        "channel": 6,
        "type": "channel",
        "noteNumber": 34,
        "velocity": 0,
        "subtype": "noteOff"
      },
      {
        "deltaTime": 0,
        "channel": 6,
        "type": "channel",
        "noteNumber": 34,
        "velocity": 127,
        "subtype": "noteOn"
      },
      {
        "deltaTime": 480,
        "channel": 6,
        "type": "channel",
        "noteNumber": 34,
        "velocity": 0,
        "subtype": "noteOff"
      },
      {
        "deltaTime": 0,
        "channel": 6,
        "type": "channel",
        "noteNumber": 34,
        "velocity": 127,
        "subtype": "noteOn"
      },
      {
        "deltaTime": 480,
        "channel": 6,
        "type": "channel",
        "noteNumber": 34,
        "velocity": 0,
        "subtype": "noteOff"
      },
      {
        "deltaTime": 0,
        "channel": 6,
        "type": "channel",
        "noteNumber": 34,
        "velocity": 127,
        "subtype": "noteOn"
      },
      {
        "deltaTime": 480,
        "channel": 6,
        "type": "channel",
        "noteNumber": 34,
        "velocity": 0,
        "subtype": "noteOff"
      },
      {
        "deltaTime": 0,
        "channel": 6,
        "type": "channel",
        "noteNumber": 34,
        "velocity": 127,
        "subtype": "noteOn"
      },
      {
        "deltaTime": 480,
        "channel": 6,
        "type": "channel",
        "noteNumber": 34,
        "velocity": 0,
        "subtype": "noteOff"
      },
      {
        "deltaTime": 0,
        "channel": 6,
        "type": "channel",
        "noteNumber": 34,
        "velocity": 127,
        "subtype": "noteOn"
      },
      {
        "deltaTime": 480,
        "channel": 6,
        "type": "channel",
        "noteNumber": 34,
        "velocity": 0,
        "subtype": "noteOff"
      },
      {
        "deltaTime": 0,
        "channel": 6,
        "type": "channel",
        "noteNumber": 34,
        "velocity": 127,
        "subtype": "noteOn"
      },
      {
        "deltaTime": 480,
        "channel": 6,
        "type": "channel",
        "noteNumber": 34,
        "velocity": 0,
        "subtype": "noteOff"
      },
      {
        "deltaTime": 0,
        "channel": 6,
        "type": "channel",
        "noteNumber": 34,
        "velocity": 127,
        "subtype": "noteOn"
      },
      {
        "deltaTime": 480,
        "channel": 6,
        "type": "channel",
        "noteNumber": 34,
        "velocity": 0,
        "subtype": "noteOff"
      },
      {
        "deltaTime": 0,
        "channel": 6,
        "type": "channel",
        "noteNumber": 36,
        "velocity": 127,
        "subtype": "noteOn"
      },
      {
        "deltaTime": 480,
        "channel": 6,
        "type": "channel",
        "noteNumber": 36,
        "velocity": 0,
        "subtype": "noteOff"
      },
      {
        "deltaTime": 0,
        "channel": 6,
        "type": "channel",
        "noteNumber": 36,
        "velocity": 127,
        "subtype": "noteOn"
      },
      {
        "deltaTime": 480,
        "channel": 6,
        "type": "channel",
        "noteNumber": 36,
        "velocity": 0,
        "subtype": "noteOff"
      },
      {
        "deltaTime": 0,
        "channel": 6,
        "type": "channel",
        "noteNumber": 36,
        "velocity": 127,
        "subtype": "noteOn"
      },
      {
        "deltaTime": 480,
        "channel": 6,
        "type": "channel",
        "noteNumber": 36,
        "velocity": 0,
        "subtype": "noteOff"
      },
      {
        "deltaTime": 0,
        "channel": 6,
        "type": "channel",
        "noteNumber": 36,
        "velocity": 127,
        "subtype": "noteOn"
      },
      {
        "deltaTime": 480,
        "channel": 6,
        "type": "channel",
        "noteNumber": 36,
        "velocity": 0,
        "subtype": "noteOff"
      },
      {
        "deltaTime": 0,
        "channel": 6,
        "type": "channel",
        "noteNumber": 36,
        "velocity": 127,
        "subtype": "noteOn"
      },
      {
        "deltaTime": 480,
        "channel": 6,
        "type": "channel",
        "noteNumber": 36,
        "velocity": 0,
        "subtype": "noteOff"
      },
      {
        "deltaTime": 0,
        "channel": 6,
        "type": "channel",
        "noteNumber": 36,
        "velocity": 127,
        "subtype": "noteOn"
      },
      {
        "deltaTime": 480,
        "channel": 6,
        "type": "channel",
        "noteNumber": 36,
        "velocity": 0,
        "subtype": "noteOff"
      },
      {
        "deltaTime": 0,
        "channel": 6,
        "type": "channel",
        "noteNumber": 36,
        "velocity": 127,
        "subtype": "noteOn"
      },
      {
        "deltaTime": 480,
        "channel": 6,
        "type": "channel",
        "noteNumber": 36,
        "velocity": 0,
        "subtype": "noteOff"
      },
      {
        "deltaTime": 0,
        "channel": 6,
        "type": "channel",
        "noteNumber": 36,
        "velocity": 127,
        "subtype": "noteOn"
      },
      {
        "deltaTime": 480,
        "channel": 6,
        "type": "channel",
        "noteNumber": 36,
        "velocity": 0,
        "subtype": "noteOff"
      },
      {
        "deltaTime": 0,
        "channel": 6,
        "type": "channel",
        "noteNumber": 34,
        "velocity": 127,
        "subtype": "noteOn"
      },
      {
        "deltaTime": 480,
        "channel": 6,
        "type": "channel",
        "noteNumber": 34,
        "velocity": 0,
        "subtype": "noteOff"
      },
      {
        "deltaTime": 0,
        "channel": 6,
        "type": "channel",
        "noteNumber": 34,
        "velocity": 127,
        "subtype": "noteOn"
      },
      {
        "deltaTime": 480,
        "channel": 6,
        "type": "channel",
        "noteNumber": 34,
        "velocity": 0,
        "subtype": "noteOff"
      },
      {
        "deltaTime": 0,
        "channel": 6,
        "type": "channel",
        "noteNumber": 34,
        "velocity": 127,
        "subtype": "noteOn"
      },
      {
        "deltaTime": 480,
        "channel": 6,
        "type": "channel",
        "noteNumber": 34,
        "velocity": 0,
        "subtype": "noteOff"
      },
      {
        "deltaTime": 0,
        "channel": 6,
        "type": "channel",
        "noteNumber": 34,
        "velocity": 127,
        "subtype": "noteOn"
      },
      {
        "deltaTime": 480,
        "channel": 6,
        "type": "channel",
        "noteNumber": 34,
        "velocity": 0,
        "subtype": "noteOff"
      },
      {
        "deltaTime": 0,
        "channel": 6,
        "type": "channel",
        "noteNumber": 34,
        "velocity": 127,
        "subtype": "noteOn"
      },
      {
        "deltaTime": 480,
        "channel": 6,
        "type": "channel",
        "noteNumber": 34,
        "velocity": 0,
        "subtype": "noteOff"
      },
      {
        "deltaTime": 0,
        "channel": 6,
        "type": "channel",
        "noteNumber": 34,
        "velocity": 127,
        "subtype": "noteOn"
      },
      {
        "deltaTime": 480,
        "channel": 6,
        "type": "channel",
        "noteNumber": 34,
        "velocity": 0,
        "subtype": "noteOff"
      },
      {
        "deltaTime": 0,
        "channel": 6,
        "type": "channel",
        "noteNumber": 34,
        "velocity": 127,
        "subtype": "noteOn"
      },
      {
        "deltaTime": 480,
        "channel": 6,
        "type": "channel",
        "noteNumber": 34,
        "velocity": 0,
        "subtype": "noteOff"
      },
      {
        "deltaTime": 0,
        "channel": 6,
        "type": "channel",
        "noteNumber": 34,
        "velocity": 127,
        "subtype": "noteOn"
      },
      {
        "deltaTime": 480,
        "channel": 6,
        "type": "channel",
        "noteNumber": 34,
        "velocity": 0,
        "subtype": "noteOff"
      },
      {
        "deltaTime": 0,
        "channel": 6,
        "type": "channel",
        "noteNumber": 36,
        "velocity": 127,
        "subtype": "noteOn"
      },
      {
        "deltaTime": 480,
        "channel": 6,
        "type": "channel",
        "noteNumber": 36,
        "velocity": 0,
        "subtype": "noteOff"
      },
      {
        "deltaTime": 0,
        "channel": 6,
        "type": "channel",
        "noteNumber": 36,
        "velocity": 127,
        "subtype": "noteOn"
      },
      {
        "deltaTime": 480,
        "channel": 6,
        "type": "channel",
        "noteNumber": 36,
        "velocity": 0,
        "subtype": "noteOff"
      },
      {
        "deltaTime": 0,
        "channel": 6,
        "type": "channel",
        "noteNumber": 36,
        "velocity": 127,
        "subtype": "noteOn"
      },
      {
        "deltaTime": 480,
        "channel": 6,
        "type": "channel",
        "noteNumber": 36,
        "velocity": 0,
        "subtype": "noteOff"
      },
      {
        "deltaTime": 0,
        "channel": 6,
        "type": "channel",
        "noteNumber": 36,
        "velocity": 127,
        "subtype": "noteOn"
      },
      {
        "deltaTime": 480,
        "channel": 6,
        "type": "channel",
        "noteNumber": 36,
        "velocity": 0,
        "subtype": "noteOff"
      },
      {
        "deltaTime": 0,
        "channel": 6,
        "type": "channel",
        "noteNumber": 36,
        "velocity": 127,
        "subtype": "noteOn"
      },
      {
        "deltaTime": 480,
        "channel": 6,
        "type": "channel",
        "noteNumber": 36,
        "velocity": 0,
        "subtype": "noteOff"
      },
      {
        "deltaTime": 0,
        "channel": 6,
        "type": "channel",
        "noteNumber": 36,
        "velocity": 127,
        "subtype": "noteOn"
      },
      {
        "deltaTime": 480,
        "channel": 6,
        "type": "channel",
        "noteNumber": 36,
        "velocity": 0,
        "subtype": "noteOff"
      },
      {
        "deltaTime": 0,
        "channel": 6,
        "type": "channel",
        "noteNumber": 36,
        "velocity": 127,
        "subtype": "noteOn"
      },
      {
        "deltaTime": 480,
        "channel": 6,
        "type": "channel",
        "noteNumber": 36,
        "velocity": 0,
        "subtype": "noteOff"
      },
      {
        "deltaTime": 0,
        "channel": 6,
        "type": "channel",
        "noteNumber": 36,
        "velocity": 127,
        "subtype": "noteOn"
      },
      {
        "deltaTime": 480,
        "channel": 6,
        "type": "channel",
        "noteNumber": 36,
        "velocity": 0,
        "subtype": "noteOff"
      },
      {
        "deltaTime": 0,
        "channel": 6,
        "type": "channel",
        "noteNumber": 34,
        "velocity": 127,
        "subtype": "noteOn"
      },
      {
        "deltaTime": 480,
        "channel": 6,
        "type": "channel",
        "noteNumber": 34,
        "velocity": 0,
        "subtype": "noteOff"
      },
      {
        "deltaTime": 0,
        "channel": 6,
        "type": "channel",
        "noteNumber": 34,
        "velocity": 127,
        "subtype": "noteOn"
      },
      {
        "deltaTime": 480,
        "channel": 6,
        "type": "channel",
        "noteNumber": 34,
        "velocity": 0,
        "subtype": "noteOff"
      },
      {
        "deltaTime": 0,
        "channel": 6,
        "type": "channel",
        "noteNumber": 34,
        "velocity": 127,
        "subtype": "noteOn"
      },
      {
        "deltaTime": 480,
        "channel": 6,
        "type": "channel",
        "noteNumber": 34,
        "velocity": 0,
        "subtype": "noteOff"
      },
      {
        "deltaTime": 0,
        "channel": 6,
        "type": "channel",
        "noteNumber": 34,
        "velocity": 127,
        "subtype": "noteOn"
      },
      {
        "deltaTime": 480,
        "channel": 6,
        "type": "channel",
        "noteNumber": 34,
        "velocity": 0,
        "subtype": "noteOff"
      },
      {
        "deltaTime": 0,
        "channel": 6,
        "type": "channel",
        "noteNumber": 34,
        "velocity": 127,
        "subtype": "noteOn"
      },
      {
        "deltaTime": 480,
        "channel": 6,
        "type": "channel",
        "noteNumber": 34,
        "velocity": 0,
        "subtype": "noteOff"
      },
      {
        "deltaTime": 0,
        "channel": 6,
        "type": "channel",
        "noteNumber": 34,
        "velocity": 127,
        "subtype": "noteOn"
      },
      {
        "deltaTime": 480,
        "channel": 6,
        "type": "channel",
        "noteNumber": 34,
        "velocity": 0,
        "subtype": "noteOff"
      },
      {
        "deltaTime": 0,
        "channel": 6,
        "type": "channel",
        "noteNumber": 34,
        "velocity": 127,
        "subtype": "noteOn"
      },
      {
        "deltaTime": 480,
        "channel": 6,
        "type": "channel",
        "noteNumber": 34,
        "velocity": 0,
        "subtype": "noteOff"
      },
      {
        "deltaTime": 0,
        "channel": 6,
        "type": "channel",
        "noteNumber": 34,
        "velocity": 127,
        "subtype": "noteOn"
      },
      {
        "deltaTime": 480,
        "channel": 6,
        "type": "channel",
        "noteNumber": 34,
        "velocity": 0,
        "subtype": "noteOff"
      },
      {
        "deltaTime": 0,
        "channel": 6,
        "type": "channel",
        "noteNumber": 32,
        "velocity": 127,
        "subtype": "noteOn"
      },
      {
        "deltaTime": 480,
        "channel": 6,
        "type": "channel",
        "noteNumber": 32,
        "velocity": 0,
        "subtype": "noteOff"
      },
      {
        "deltaTime": 0,
        "channel": 6,
        "type": "channel",
        "noteNumber": 32,
        "velocity": 127,
        "subtype": "noteOn"
      },
      {
        "deltaTime": 480,
        "channel": 6,
        "type": "channel",
        "noteNumber": 32,
        "velocity": 0,
        "subtype": "noteOff"
      },
      {
        "deltaTime": 0,
        "channel": 6,
        "type": "channel",
        "noteNumber": 32,
        "velocity": 127,
        "subtype": "noteOn"
      },
      {
        "deltaTime": 480,
        "channel": 6,
        "type": "channel",
        "noteNumber": 32,
        "velocity": 0,
        "subtype": "noteOff"
      },
      {
        "deltaTime": 0,
        "channel": 6,
        "type": "channel",
        "noteNumber": 32,
        "velocity": 127,
        "subtype": "noteOn"
      },
      {
        "deltaTime": 480,
        "channel": 6,
        "type": "channel",
        "noteNumber": 32,
        "velocity": 0,
        "subtype": "noteOff"
      },
      {
        "deltaTime": 0,
        "channel": 6,
        "type": "channel",
        "noteNumber": 32,
        "velocity": 127,
        "subtype": "noteOn"
      },
      {
        "deltaTime": 480,
        "channel": 6,
        "type": "channel",
        "noteNumber": 32,
        "velocity": 0,
        "subtype": "noteOff"
      },
      {
        "deltaTime": 0,
        "channel": 6,
        "type": "channel",
        "noteNumber": 32,
        "velocity": 127,
        "subtype": "noteOn"
      },
      {
        "deltaTime": 480,
        "channel": 6,
        "type": "channel",
        "noteNumber": 32,
        "velocity": 0,
        "subtype": "noteOff"
      },
      {
        "deltaTime": 0,
        "channel": 6,
        "type": "channel",
        "noteNumber": 32,
        "velocity": 127,
        "subtype": "noteOn"
      },
      {
        "deltaTime": 480,
        "channel": 6,
        "type": "channel",
        "noteNumber": 32,
        "velocity": 0,
        "subtype": "noteOff"
      },
      {
        "deltaTime": 0,
        "channel": 6,
        "type": "channel",
        "noteNumber": 32,
        "velocity": 127,
        "subtype": "noteOn"
      },
      {
        "deltaTime": 480,
        "channel": 6,
        "type": "channel",
        "noteNumber": 32,
        "velocity": 0,
        "subtype": "noteOff"
      },
      {
        "deltaTime": 0,
        "channel": 6,
        "type": "channel",
        "noteNumber": 27,
        "velocity": 127,
        "subtype": "noteOn"
      },
      {
        "deltaTime": 480,
        "channel": 6,
        "type": "channel",
        "noteNumber": 27,
        "velocity": 0,
        "subtype": "noteOff"
      },
      {
        "deltaTime": 0,
        "channel": 6,
        "type": "channel",
        "noteNumber": 27,
        "velocity": 127,
        "subtype": "noteOn"
      },
      {
        "deltaTime": 480,
        "channel": 6,
        "type": "channel",
        "noteNumber": 27,
        "velocity": 0,
        "subtype": "noteOff"
      },
      {
        "deltaTime": 0,
        "channel": 6,
        "type": "channel",
        "noteNumber": 27,
        "velocity": 127,
        "subtype": "noteOn"
      },
      {
        "deltaTime": 480,
        "channel": 6,
        "type": "channel",
        "noteNumber": 27,
        "velocity": 0,
        "subtype": "noteOff"
      },
      {
        "deltaTime": 0,
        "channel": 6,
        "type": "channel",
        "noteNumber": 27,
        "velocity": 127,
        "subtype": "noteOn"
      },
      {
        "deltaTime": 480,
        "channel": 6,
        "type": "channel",
        "noteNumber": 27,
        "velocity": 0,
        "subtype": "noteOff"
      },
      {
        "deltaTime": 0,
        "channel": 6,
        "type": "channel",
        "noteNumber": 27,
        "velocity": 127,
        "subtype": "noteOn"
      },
      {
        "deltaTime": 480,
        "channel": 6,
        "type": "channel",
        "noteNumber": 27,
        "velocity": 0,
        "subtype": "noteOff"
      },
      {
        "deltaTime": 0,
        "channel": 6,
        "type": "channel",
        "noteNumber": 27,
        "velocity": 127,
        "subtype": "noteOn"
      },
      {
        "deltaTime": 480,
        "channel": 6,
        "type": "channel",
        "noteNumber": 27,
        "velocity": 0,
        "subtype": "noteOff"
      },
      {
        "deltaTime": 0,
        "channel": 6,
        "type": "channel",
        "noteNumber": 27,
        "velocity": 127,
        "subtype": "noteOn"
      },
      {
        "deltaTime": 480,
        "channel": 6,
        "type": "channel",
        "noteNumber": 27,
        "velocity": 0,
        "subtype": "noteOff"
      },
      {
        "deltaTime": 0,
        "channel": 6,
        "type": "channel",
        "noteNumber": 27,
        "velocity": 127,
        "subtype": "noteOn"
      },
      {
        "deltaTime": 480,
        "channel": 6,
        "type": "channel",
        "noteNumber": 27,
        "velocity": 0,
        "subtype": "noteOff"
      },
      {
        "deltaTime": 0,
        "channel": 6,
        "type": "channel",
        "noteNumber": 34,
        "velocity": 127,
        "subtype": "noteOn"
      },
      {
        "deltaTime": 480,
        "channel": 6,
        "type": "channel",
        "noteNumber": 34,
        "velocity": 0,
        "subtype": "noteOff"
      },
      {
        "deltaTime": 0,
        "channel": 6,
        "type": "channel",
        "noteNumber": 34,
        "velocity": 127,
        "subtype": "noteOn"
      },
      {
        "deltaTime": 480,
        "channel": 6,
        "type": "channel",
        "noteNumber": 34,
        "velocity": 0,
        "subtype": "noteOff"
      },
      {
        "deltaTime": 0,
        "channel": 6,
        "type": "channel",
        "noteNumber": 34,
        "velocity": 127,
        "subtype": "noteOn"
      },
      {
        "deltaTime": 480,
        "channel": 6,
        "type": "channel",
        "noteNumber": 34,
        "velocity": 0,
        "subtype": "noteOff"
      },
      {
        "deltaTime": 0,
        "channel": 6,
        "type": "channel",
        "noteNumber": 34,
        "velocity": 127,
        "subtype": "noteOn"
      },
      {
        "deltaTime": 480,
        "channel": 6,
        "type": "channel",
        "noteNumber": 34,
        "velocity": 0,
        "subtype": "noteOff"
      },
      {
        "deltaTime": 0,
        "channel": 6,
        "type": "channel",
        "noteNumber": 34,
        "velocity": 127,
        "subtype": "noteOn"
      },
      {
        "deltaTime": 480,
        "channel": 6,
        "type": "channel",
        "noteNumber": 34,
        "velocity": 0,
        "subtype": "noteOff"
      },
      {
        "deltaTime": 0,
        "channel": 6,
        "type": "channel",
        "noteNumber": 34,
        "velocity": 127,
        "subtype": "noteOn"
      },
      {
        "deltaTime": 480,
        "channel": 6,
        "type": "channel",
        "noteNumber": 34,
        "velocity": 0,
        "subtype": "noteOff"
      },
      {
        "deltaTime": 0,
        "channel": 6,
        "type": "channel",
        "noteNumber": 34,
        "velocity": 127,
        "subtype": "noteOn"
      },
      {
        "deltaTime": 480,
        "channel": 6,
        "type": "channel",
        "noteNumber": 34,
        "velocity": 0,
        "subtype": "noteOff"
      },
      {
        "deltaTime": 0,
        "channel": 6,
        "type": "channel",
        "noteNumber": 34,
        "velocity": 127,
        "subtype": "noteOn"
      },
      {
        "deltaTime": 480,
        "channel": 6,
        "type": "channel",
        "noteNumber": 34,
        "velocity": 0,
        "subtype": "noteOff"
      },
      {
        "deltaTime": 0,
        "channel": 6,
        "type": "channel",
        "noteNumber": 34,
        "velocity": 127,
        "subtype": "noteOn"
      },
      {
        "deltaTime": 480,
        "channel": 6,
        "type": "channel",
        "noteNumber": 34,
        "velocity": 0,
        "subtype": "noteOff"
      },
      {
        "deltaTime": 0,
        "channel": 6,
        "type": "channel",
        "noteNumber": 34,
        "velocity": 127,
        "subtype": "noteOn"
      },
      {
        "deltaTime": 480,
        "channel": 6,
        "type": "channel",
        "noteNumber": 34,
        "velocity": 0,
        "subtype": "noteOff"
      },
      {
        "deltaTime": 0,
        "channel": 6,
        "type": "channel",
        "noteNumber": 34,
        "velocity": 127,
        "subtype": "noteOn"
      },
      {
        "deltaTime": 480,
        "channel": 6,
        "type": "channel",
        "noteNumber": 34,
        "velocity": 0,
        "subtype": "noteOff"
      },
      {
        "deltaTime": 0,
        "channel": 6,
        "type": "channel",
        "noteNumber": 34,
        "velocity": 127,
        "subtype": "noteOn"
      },
      {
        "deltaTime": 480,
        "channel": 6,
        "type": "channel",
        "noteNumber": 34,
        "velocity": 0,
        "subtype": "noteOff"
      },
      {
        "deltaTime": 0,
        "channel": 6,
        "type": "channel",
        "noteNumber": 34,
        "velocity": 127,
        "subtype": "noteOn"
      },
      {
        "deltaTime": 480,
        "channel": 6,
        "type": "channel",
        "noteNumber": 34,
        "velocity": 0,
        "subtype": "noteOff"
      },
      {
        "deltaTime": 0,
        "channel": 6,
        "type": "channel",
        "noteNumber": 34,
        "velocity": 127,
        "subtype": "noteOn"
      },
      {
        "deltaTime": 480,
        "channel": 6,
        "type": "channel",
        "noteNumber": 34,
        "velocity": 0,
        "subtype": "noteOff"
      },
      {
        "deltaTime": 0,
        "channel": 6,
        "type": "channel",
        "noteNumber": 34,
        "velocity": 127,
        "subtype": "noteOn"
      },
      {
        "deltaTime": 480,
        "channel": 6,
        "type": "channel",
        "noteNumber": 34,
        "velocity": 0,
        "subtype": "noteOff"
      },
      {
        "deltaTime": 0,
        "channel": 6,
        "type": "channel",
        "noteNumber": 34,
        "velocity": 127,
        "subtype": "noteOn"
      },
      {
        "deltaTime": 480,
        "channel": 6,
        "type": "channel",
        "noteNumber": 34,
        "velocity": 0,
        "subtype": "noteOff"
      },
      {
        "deltaTime": 0,
        "channel": 6,
        "type": "channel",
        "noteNumber": 32,
        "velocity": 127,
        "subtype": "noteOn"
      },
      {
        "deltaTime": 240,
        "channel": 6,
        "type": "channel",
        "noteNumber": 32,
        "velocity": 0,
        "subtype": "noteOff"
      },
      {
        "deltaTime": 480,
        "channel": 6,
        "type": "channel",
        "noteNumber": 32,
        "velocity": 127,
        "subtype": "noteOn"
      },
      {
        "deltaTime": 240,
        "channel": 6,
        "type": "channel",
        "noteNumber": 32,
        "velocity": 0,
        "subtype": "noteOff"
      },
      {
        "deltaTime": 480,
        "channel": 6,
        "type": "channel",
        "noteNumber": 32,
        "velocity": 127,
        "subtype": "noteOn"
      },
      {
        "deltaTime": 480,
        "channel": 6,
        "type": "channel",
        "noteNumber": 32,
        "velocity": 0,
        "subtype": "noteOff"
      },
      {
        "deltaTime": 960,
        "channel": 6,
        "type": "channel",
        "noteNumber": 32,
        "velocity": 127,
        "subtype": "noteOn"
      },
      {
        "deltaTime": 240,
        "channel": 6,
        "type": "channel",
        "noteNumber": 32,
        "velocity": 0,
        "subtype": "noteOff"
      },
      {
        "deltaTime": 480,
        "channel": 6,
        "type": "channel",
        "noteNumber": 32,
        "velocity": 127,
        "subtype": "noteOn"
      },
      {
        "deltaTime": 240,
        "channel": 6,
        "type": "channel",
        "noteNumber": 32,
        "velocity": 0,
        "subtype": "noteOff"
      },
      {
        "deltaTime": 480,
        "channel": 6,
        "type": "channel",
        "noteNumber": 32,
        "velocity": 127,
        "subtype": "noteOn"
      },
      {
        "deltaTime": 480,
        "channel": 6,
        "type": "channel",
        "noteNumber": 32,
        "velocity": 0,
        "subtype": "noteOff"
      },
      {
        "deltaTime": 960,
        "channel": 6,
        "type": "channel",
        "noteNumber": 34,
        "velocity": 127,
        "subtype": "noteOn"
      },
      {
        "deltaTime": 240,
        "channel": 6,
        "type": "channel",
        "noteNumber": 34,
        "velocity": 0,
        "subtype": "noteOff"
      },
      {
        "deltaTime": 480,
        "channel": 6,
        "type": "channel",
        "noteNumber": 34,
        "velocity": 127,
        "subtype": "noteOn"
      },
      {
        "deltaTime": 240,
        "channel": 6,
        "type": "channel",
        "noteNumber": 34,
        "velocity": 0,
        "subtype": "noteOff"
      },
      {
        "deltaTime": 480,
        "channel": 6,
        "type": "channel",
        "noteNumber": 34,
        "velocity": 127,
        "subtype": "noteOn"
      },
      {
        "deltaTime": 480,
        "channel": 6,
        "type": "channel",
        "noteNumber": 34,
        "velocity": 0,
        "subtype": "noteOff"
      },
      {
        "deltaTime": 960,
        "channel": 6,
        "type": "channel",
        "noteNumber": 36,
        "velocity": 127,
        "subtype": "noteOn"
      },
      {
        "deltaTime": 240,
        "channel": 6,
        "type": "channel",
        "noteNumber": 36,
        "velocity": 0,
        "subtype": "noteOff"
      },
      {
        "deltaTime": 480,
        "channel": 6,
        "type": "channel",
        "noteNumber": 36,
        "velocity": 127,
        "subtype": "noteOn"
      },
      {
        "deltaTime": 240,
        "channel": 6,
        "type": "channel",
        "noteNumber": 36,
        "velocity": 0,
        "subtype": "noteOff"
      },
      {
        "deltaTime": 480,
        "channel": 6,
        "type": "channel",
        "noteNumber": 36,
        "velocity": 127,
        "subtype": "noteOn"
      },
      {
        "deltaTime": 480,
        "channel": 6,
        "type": "channel",
        "noteNumber": 36,
        "velocity": 0,
        "subtype": "noteOff"
      },
      {
        "deltaTime": 960,
        "channel": 6,
        "type": "channel",
        "noteNumber": 32,
        "velocity": 127,
        "subtype": "noteOn"
      },
      {
        "deltaTime": 240,
        "channel": 6,
        "type": "channel",
        "noteNumber": 32,
        "velocity": 0,
        "subtype": "noteOff"
      },
      {
        "deltaTime": 480,
        "channel": 6,
        "type": "channel",
        "noteNumber": 32,
        "velocity": 127,
        "subtype": "noteOn"
      },
      {
        "deltaTime": 240,
        "channel": 6,
        "type": "channel",
        "noteNumber": 32,
        "velocity": 0,
        "subtype": "noteOff"
      },
      {
        "deltaTime": 480,
        "channel": 6,
        "type": "channel",
        "noteNumber": 32,
        "velocity": 127,
        "subtype": "noteOn"
      },
      {
        "deltaTime": 480,
        "channel": 6,
        "type": "channel",
        "noteNumber": 32,
        "velocity": 0,
        "subtype": "noteOff"
      },
      {
        "deltaTime": 960,
        "channel": 6,
        "type": "channel",
        "noteNumber": 32,
        "velocity": 127,
        "subtype": "noteOn"
      },
      {
        "deltaTime": 240,
        "channel": 6,
        "type": "channel",
        "noteNumber": 32,
        "velocity": 0,
        "subtype": "noteOff"
      },
      {
        "deltaTime": 480,
        "channel": 6,
        "type": "channel",
        "noteNumber": 32,
        "velocity": 127,
        "subtype": "noteOn"
      },
      {
        "deltaTime": 240,
        "channel": 6,
        "type": "channel",
        "noteNumber": 32,
        "velocity": 0,
        "subtype": "noteOff"
      },
      {
        "deltaTime": 480,
        "channel": 6,
        "type": "channel",
        "noteNumber": 32,
        "velocity": 127,
        "subtype": "noteOn"
      },
      {
        "deltaTime": 480,
        "channel": 6,
        "type": "channel",
        "noteNumber": 32,
        "velocity": 0,
        "subtype": "noteOff"
      },
      {
        "deltaTime": 960,
        "channel": 6,
        "type": "channel",
        "noteNumber": 34,
        "velocity": 127,
        "subtype": "noteOn"
      },
      {
        "deltaTime": 240,
        "channel": 6,
        "type": "channel",
        "noteNumber": 34,
        "velocity": 0,
        "subtype": "noteOff"
      },
      {
        "deltaTime": 480,
        "channel": 6,
        "type": "channel",
        "noteNumber": 34,
        "velocity": 127,
        "subtype": "noteOn"
      },
      {
        "deltaTime": 240,
        "channel": 6,
        "type": "channel",
        "noteNumber": 34,
        "velocity": 0,
        "subtype": "noteOff"
      },
      {
        "deltaTime": 480,
        "channel": 6,
        "type": "channel",
        "noteNumber": 34,
        "velocity": 127,
        "subtype": "noteOn"
      },
      {
        "deltaTime": 480,
        "channel": 6,
        "type": "channel",
        "noteNumber": 34,
        "velocity": 0,
        "subtype": "noteOff"
      },
      {
        "deltaTime": 960,
        "channel": 6,
        "type": "channel",
        "noteNumber": 36,
        "velocity": 127,
        "subtype": "noteOn"
      },
      {
        "deltaTime": 240,
        "channel": 6,
        "type": "channel",
        "noteNumber": 36,
        "velocity": 0,
        "subtype": "noteOff"
      },
      {
        "deltaTime": 480,
        "channel": 6,
        "type": "channel",
        "noteNumber": 36,
        "velocity": 127,
        "subtype": "noteOn"
      },
      {
        "deltaTime": 240,
        "channel": 6,
        "type": "channel",
        "noteNumber": 36,
        "velocity": 0,
        "subtype": "noteOff"
      },
      {
        "deltaTime": 480,
        "channel": 6,
        "type": "channel",
        "noteNumber": 36,
        "velocity": 127,
        "subtype": "noteOn"
      },
      {
        "deltaTime": 480,
        "channel": 6,
        "type": "channel",
        "noteNumber": 36,
        "velocity": 0,
        "subtype": "noteOff"
      },
      {
        "deltaTime": 960,
        "channel": 6,
        "type": "channel",
        "noteNumber": 32,
        "velocity": 127,
        "subtype": "noteOn"
      },
      {
        "deltaTime": 240,
        "channel": 6,
        "type": "channel",
        "noteNumber": 32,
        "velocity": 0,
        "subtype": "noteOff"
      },
      {
        "deltaTime": 480,
        "channel": 6,
        "type": "channel",
        "noteNumber": 32,
        "velocity": 127,
        "subtype": "noteOn"
      },
      {
        "deltaTime": 240,
        "channel": 6,
        "type": "channel",
        "noteNumber": 32,
        "velocity": 0,
        "subtype": "noteOff"
      },
      {
        "deltaTime": 480,
        "channel": 6,
        "type": "channel",
        "noteNumber": 32,
        "velocity": 127,
        "subtype": "noteOn"
      },
      {
        "deltaTime": 480,
        "channel": 6,
        "type": "channel",
        "noteNumber": 32,
        "velocity": 0,
        "subtype": "noteOff"
      },
      {
        "deltaTime": 960,
        "channel": 6,
        "type": "channel",
        "noteNumber": 32,
        "velocity": 127,
        "subtype": "noteOn"
      },
      {
        "deltaTime": 240,
        "channel": 6,
        "type": "channel",
        "noteNumber": 32,
        "velocity": 0,
        "subtype": "noteOff"
      },
      {
        "deltaTime": 480,
        "channel": 6,
        "type": "channel",
        "noteNumber": 32,
        "velocity": 127,
        "subtype": "noteOn"
      },
      {
        "deltaTime": 240,
        "channel": 6,
        "type": "channel",
        "noteNumber": 32,
        "velocity": 0,
        "subtype": "noteOff"
      },
      {
        "deltaTime": 480,
        "channel": 6,
        "type": "channel",
        "noteNumber": 32,
        "velocity": 127,
        "subtype": "noteOn"
      },
      {
        "deltaTime": 480,
        "channel": 6,
        "type": "channel",
        "noteNumber": 32,
        "velocity": 0,
        "subtype": "noteOff"
      },
      {
        "deltaTime": 960,
        "channel": 6,
        "type": "channel",
        "noteNumber": 34,
        "velocity": 127,
        "subtype": "noteOn"
      },
      {
        "deltaTime": 240,
        "channel": 6,
        "type": "channel",
        "noteNumber": 34,
        "velocity": 0,
        "subtype": "noteOff"
      },
      {
        "deltaTime": 480,
        "channel": 6,
        "type": "channel",
        "noteNumber": 34,
        "velocity": 127,
        "subtype": "noteOn"
      },
      {
        "deltaTime": 240,
        "channel": 6,
        "type": "channel",
        "noteNumber": 34,
        "velocity": 0,
        "subtype": "noteOff"
      },
      {
        "deltaTime": 480,
        "channel": 6,
        "type": "channel",
        "noteNumber": 34,
        "velocity": 127,
        "subtype": "noteOn"
      },
      {
        "deltaTime": 480,
        "channel": 6,
        "type": "channel",
        "noteNumber": 34,
        "velocity": 0,
        "subtype": "noteOff"
      },
      {
        "deltaTime": 960,
        "channel": 6,
        "type": "channel",
        "noteNumber": 36,
        "velocity": 127,
        "subtype": "noteOn"
      },
      {
        "deltaTime": 240,
        "channel": 6,
        "type": "channel",
        "noteNumber": 36,
        "velocity": 0,
        "subtype": "noteOff"
      },
      {
        "deltaTime": 480,
        "channel": 6,
        "type": "channel",
        "noteNumber": 36,
        "velocity": 127,
        "subtype": "noteOn"
      },
      {
        "deltaTime": 240,
        "channel": 6,
        "type": "channel",
        "noteNumber": 36,
        "velocity": 0,
        "subtype": "noteOff"
      },
      {
        "deltaTime": 480,
        "channel": 6,
        "type": "channel",
        "noteNumber": 36,
        "velocity": 127,
        "subtype": "noteOn"
      },
      {
        "deltaTime": 480,
        "channel": 6,
        "type": "channel",
        "noteNumber": 36,
        "velocity": 0,
        "subtype": "noteOff"
      },
      {
        "deltaTime": 960,
        "channel": 6,
        "type": "channel",
        "noteNumber": 32,
        "velocity": 127,
        "subtype": "noteOn"
      },
      {
        "deltaTime": 240,
        "channel": 6,
        "type": "channel",
        "noteNumber": 32,
        "velocity": 0,
        "subtype": "noteOff"
      },
      {
        "deltaTime": 480,
        "channel": 6,
        "type": "channel",
        "noteNumber": 32,
        "velocity": 127,
        "subtype": "noteOn"
      },
      {
        "deltaTime": 240,
        "channel": 6,
        "type": "channel",
        "noteNumber": 32,
        "velocity": 0,
        "subtype": "noteOff"
      },
      {
        "deltaTime": 480,
        "channel": 6,
        "type": "channel",
        "noteNumber": 32,
        "velocity": 127,
        "subtype": "noteOn"
      },
      {
        "deltaTime": 480,
        "channel": 6,
        "type": "channel",
        "noteNumber": 32,
        "velocity": 0,
        "subtype": "noteOff"
      },
      {
        "deltaTime": 960,
        "channel": 6,
        "type": "channel",
        "noteNumber": 32,
        "velocity": 127,
        "subtype": "noteOn"
      },
      {
        "deltaTime": 240,
        "channel": 6,
        "type": "channel",
        "noteNumber": 32,
        "velocity": 0,
        "subtype": "noteOff"
      },
      {
        "deltaTime": 480,
        "channel": 6,
        "type": "channel",
        "noteNumber": 32,
        "velocity": 127,
        "subtype": "noteOn"
      },
      {
        "deltaTime": 240,
        "channel": 6,
        "type": "channel",
        "noteNumber": 32,
        "velocity": 0,
        "subtype": "noteOff"
      },
      {
        "deltaTime": 480,
        "channel": 6,
        "type": "channel",
        "noteNumber": 32,
        "velocity": 127,
        "subtype": "noteOn"
      },
      {
        "deltaTime": 480,
        "channel": 6,
        "type": "channel",
        "noteNumber": 32,
        "velocity": 0,
        "subtype": "noteOff"
      },
      {
        "deltaTime": 960,
        "channel": 6,
        "type": "channel",
        "noteNumber": 34,
        "velocity": 127,
        "subtype": "noteOn"
      },
      {
        "deltaTime": 240,
        "channel": 6,
        "type": "channel",
        "noteNumber": 34,
        "velocity": 0,
        "subtype": "noteOff"
      },
      {
        "deltaTime": 480,
        "channel": 6,
        "type": "channel",
        "noteNumber": 34,
        "velocity": 127,
        "subtype": "noteOn"
      },
      {
        "deltaTime": 240,
        "channel": 6,
        "type": "channel",
        "noteNumber": 34,
        "velocity": 0,
        "subtype": "noteOff"
      },
      {
        "deltaTime": 480,
        "channel": 6,
        "type": "channel",
        "noteNumber": 34,
        "velocity": 127,
        "subtype": "noteOn"
      },
      {
        "deltaTime": 480,
        "channel": 6,
        "type": "channel",
        "noteNumber": 34,
        "velocity": 0,
        "subtype": "noteOff"
      },
      {
        "deltaTime": 960,
        "channel": 6,
        "type": "channel",
        "noteNumber": 36,
        "velocity": 127,
        "subtype": "noteOn"
      },
      {
        "deltaTime": 240,
        "channel": 6,
        "type": "channel",
        "noteNumber": 36,
        "velocity": 0,
        "subtype": "noteOff"
      },
      {
        "deltaTime": 480,
        "channel": 6,
        "type": "channel",
        "noteNumber": 36,
        "velocity": 127,
        "subtype": "noteOn"
      },
      {
        "deltaTime": 240,
        "channel": 6,
        "type": "channel",
        "noteNumber": 36,
        "velocity": 0,
        "subtype": "noteOff"
      },
      {
        "deltaTime": 480,
        "channel": 6,
        "type": "channel",
        "noteNumber": 36,
        "velocity": 127,
        "subtype": "noteOn"
      },
      {
        "deltaTime": 480,
        "channel": 6,
        "type": "channel",
        "noteNumber": 36,
        "velocity": 0,
        "subtype": "noteOff"
      },
      {
        "deltaTime": 960,
        "channel": 6,
        "type": "channel",
        "noteNumber": 32,
        "velocity": 127,
        "subtype": "noteOn"
      },
      {
        "deltaTime": 720,
        "channel": 6,
        "type": "channel",
        "noteNumber": 32,
        "velocity": 0,
        "subtype": "noteOff"
      },
      {
        "deltaTime": 0,
        "channel": 6,
        "type": "channel",
        "noteNumber": 32,
        "velocity": 127,
        "subtype": "noteOn"
      },
      {
        "deltaTime": 720,
        "channel": 6,
        "type": "channel",
        "noteNumber": 32,
        "velocity": 0,
        "subtype": "noteOff"
      },
      {
        "deltaTime": 0,
        "channel": 6,
        "type": "channel",
        "noteNumber": 32,
        "velocity": 127,
        "subtype": "noteOn"
      },
      {
        "deltaTime": 480,
        "channel": 6,
        "type": "channel",
        "noteNumber": 32,
        "velocity": 0,
        "subtype": "noteOff"
      },
      {
        "deltaTime": 960,
        "channel": 6,
        "type": "channel",
        "noteNumber": 32,
        "velocity": 127,
        "subtype": "noteOn"
      },
      {
        "deltaTime": 720,
        "channel": 6,
        "type": "channel",
        "noteNumber": 32,
        "velocity": 0,
        "subtype": "noteOff"
      },
      {
        "deltaTime": 0,
        "channel": 6,
        "type": "channel",
        "noteNumber": 32,
        "velocity": 127,
        "subtype": "noteOn"
      },
      {
        "deltaTime": 720,
        "channel": 6,
        "type": "channel",
        "noteNumber": 32,
        "velocity": 0,
        "subtype": "noteOff"
      },
      {
        "deltaTime": 0,
        "channel": 6,
        "type": "channel",
        "noteNumber": 32,
        "velocity": 127,
        "subtype": "noteOn"
      },
      {
        "deltaTime": 480,
        "channel": 6,
        "type": "channel",
        "noteNumber": 32,
        "velocity": 0,
        "subtype": "noteOff"
      },
      {
        "deltaTime": 960,
        "channel": 6,
        "type": "channel",
        "noteNumber": 34,
        "velocity": 127,
        "subtype": "noteOn"
      },
      {
        "deltaTime": 720,
        "channel": 6,
        "type": "channel",
        "noteNumber": 34,
        "velocity": 0,
        "subtype": "noteOff"
      },
      {
        "deltaTime": 0,
        "channel": 6,
        "type": "channel",
        "noteNumber": 34,
        "velocity": 127,
        "subtype": "noteOn"
      },
      {
        "deltaTime": 720,
        "channel": 6,
        "type": "channel",
        "noteNumber": 34,
        "velocity": 0,
        "subtype": "noteOff"
      },
      {
        "deltaTime": 0,
        "channel": 6,
        "type": "channel",
        "noteNumber": 34,
        "velocity": 127,
        "subtype": "noteOn"
      },
      {
        "deltaTime": 480,
        "channel": 6,
        "type": "channel",
        "noteNumber": 34,
        "velocity": 0,
        "subtype": "noteOff"
      },
      {
        "deltaTime": 960,
        "channel": 6,
        "type": "channel",
        "noteNumber": 36,
        "velocity": 127,
        "subtype": "noteOn"
      },
      {
        "deltaTime": 720,
        "channel": 6,
        "type": "channel",
        "noteNumber": 36,
        "velocity": 0,
        "subtype": "noteOff"
      },
      {
        "deltaTime": 0,
        "channel": 6,
        "type": "channel",
        "noteNumber": 36,
        "velocity": 127,
        "subtype": "noteOn"
      },
      {
        "deltaTime": 720,
        "channel": 6,
        "type": "channel",
        "noteNumber": 36,
        "velocity": 0,
        "subtype": "noteOff"
      },
      {
        "deltaTime": 0,
        "channel": 6,
        "type": "channel",
        "noteNumber": 36,
        "velocity": 127,
        "subtype": "noteOn"
      },
      {
        "deltaTime": 480,
        "channel": 6,
        "type": "channel",
        "noteNumber": 36,
        "velocity": 0,
        "subtype": "noteOff"
      },
      {
        "deltaTime": 0,
        "channel": 6,
        "type": "channel",
        "noteNumber": 31,
        "velocity": 127,
        "subtype": "noteOn"
      },
      {
        "deltaTime": 960,
        "channel": 6,
        "type": "channel",
        "noteNumber": 31,
        "velocity": 0,
        "subtype": "noteOff"
      },
      {
        "deltaTime": 0,
        "channel": 6,
        "type": "channel",
        "noteNumber": 32,
        "velocity": 127,
        "subtype": "noteOn"
      },
      {
        "deltaTime": 720,
        "channel": 6,
        "type": "channel",
        "noteNumber": 32,
        "velocity": 0,
        "subtype": "noteOff"
      },
      {
        "deltaTime": 0,
        "channel": 6,
        "type": "channel",
        "noteNumber": 32,
        "velocity": 127,
        "subtype": "noteOn"
      },
      {
        "deltaTime": 720,
        "channel": 6,
        "type": "channel",
        "noteNumber": 32,
        "velocity": 0,
        "subtype": "noteOff"
      },
      {
        "deltaTime": 0,
        "channel": 6,
        "type": "channel",
        "noteNumber": 32,
        "velocity": 127,
        "subtype": "noteOn"
      },
      {
        "deltaTime": 480,
        "channel": 6,
        "type": "channel",
        "noteNumber": 32,
        "velocity": 0,
        "subtype": "noteOff"
      },
      {
        "deltaTime": 960,
        "channel": 6,
        "type": "channel",
        "noteNumber": 32,
        "velocity": 127,
        "subtype": "noteOn"
      },
      {
        "deltaTime": 720,
        "channel": 6,
        "type": "channel",
        "noteNumber": 32,
        "velocity": 0,
        "subtype": "noteOff"
      },
      {
        "deltaTime": 0,
        "channel": 6,
        "type": "channel",
        "noteNumber": 32,
        "velocity": 127,
        "subtype": "noteOn"
      },
      {
        "deltaTime": 720,
        "channel": 6,
        "type": "channel",
        "noteNumber": 32,
        "velocity": 0,
        "subtype": "noteOff"
      },
      {
        "deltaTime": 0,
        "channel": 6,
        "type": "channel",
        "noteNumber": 32,
        "velocity": 127,
        "subtype": "noteOn"
      },
      {
        "deltaTime": 480,
        "channel": 6,
        "type": "channel",
        "noteNumber": 32,
        "velocity": 0,
        "subtype": "noteOff"
      },
      {
        "deltaTime": 960,
        "channel": 6,
        "type": "channel",
        "noteNumber": 34,
        "velocity": 127,
        "subtype": "noteOn"
      },
      {
        "deltaTime": 720,
        "channel": 6,
        "type": "channel",
        "noteNumber": 34,
        "velocity": 0,
        "subtype": "noteOff"
      },
      {
        "deltaTime": 0,
        "channel": 6,
        "type": "channel",
        "noteNumber": 34,
        "velocity": 127,
        "subtype": "noteOn"
      },
      {
        "deltaTime": 720,
        "channel": 6,
        "type": "channel",
        "noteNumber": 34,
        "velocity": 0,
        "subtype": "noteOff"
      },
      {
        "deltaTime": 0,
        "channel": 6,
        "type": "channel",
        "noteNumber": 34,
        "velocity": 127,
        "subtype": "noteOn"
      },
      {
        "deltaTime": 480,
        "channel": 6,
        "type": "channel",
        "noteNumber": 34,
        "velocity": 0,
        "subtype": "noteOff"
      },
      {
        "deltaTime": 960,
        "channel": 6,
        "type": "channel",
        "noteNumber": 36,
        "velocity": 127,
        "subtype": "noteOn"
      },
      {
        "deltaTime": 720,
        "channel": 6,
        "type": "channel",
        "noteNumber": 36,
        "velocity": 0,
        "subtype": "noteOff"
      },
      {
        "deltaTime": 0,
        "channel": 6,
        "type": "channel",
        "noteNumber": 36,
        "velocity": 127,
        "subtype": "noteOn"
      },
      {
        "deltaTime": 720,
        "channel": 6,
        "type": "channel",
        "noteNumber": 36,
        "velocity": 0,
        "subtype": "noteOff"
      },
      {
        "deltaTime": 0,
        "channel": 6,
        "type": "channel",
        "noteNumber": 36,
        "velocity": 127,
        "subtype": "noteOn"
      },
      {
        "deltaTime": 480,
        "channel": 6,
        "type": "channel",
        "noteNumber": 36,
        "velocity": 0,
        "subtype": "noteOff"
      },
      {
        "deltaTime": 0,
        "channel": 6,
        "type": "channel",
        "noteNumber": 31,
        "velocity": 127,
        "subtype": "noteOn"
      },
      {
        "deltaTime": 960,
        "channel": 6,
        "type": "channel",
        "noteNumber": 31,
        "velocity": 0,
        "subtype": "noteOff"
      },
      {
        "deltaTime": 7680,
        "channel": 6,
        "type": "channel",
        "noteNumber": 34,
        "velocity": 127,
        "subtype": "noteOn"
      },
      {
        "deltaTime": 480,
        "channel": 6,
        "type": "channel",
        "noteNumber": 34,
        "velocity": 0,
        "subtype": "noteOff"
      },
      {
        "deltaTime": 0,
        "channel": 6,
        "type": "channel",
        "noteNumber": 34,
        "velocity": 127,
        "subtype": "noteOn"
      },
      {
        "deltaTime": 480,
        "channel": 6,
        "type": "channel",
        "noteNumber": 34,
        "velocity": 0,
        "subtype": "noteOff"
      },
      {
        "deltaTime": 0,
        "channel": 6,
        "type": "channel",
        "noteNumber": 34,
        "velocity": 127,
        "subtype": "noteOn"
      },
      {
        "deltaTime": 480,
        "channel": 6,
        "type": "channel",
        "noteNumber": 34,
        "velocity": 0,
        "subtype": "noteOff"
      },
      {
        "deltaTime": 0,
        "channel": 6,
        "type": "channel",
        "noteNumber": 34,
        "velocity": 127,
        "subtype": "noteOn"
      },
      {
        "deltaTime": 480,
        "channel": 6,
        "type": "channel",
        "noteNumber": 34,
        "velocity": 0,
        "subtype": "noteOff"
      },
      {
        "deltaTime": 0,
        "channel": 6,
        "type": "channel",
        "noteNumber": 34,
        "velocity": 127,
        "subtype": "noteOn"
      },
      {
        "deltaTime": 480,
        "channel": 6,
        "type": "channel",
        "noteNumber": 34,
        "velocity": 0,
        "subtype": "noteOff"
      },
      {
        "deltaTime": 0,
        "channel": 6,
        "type": "channel",
        "noteNumber": 34,
        "velocity": 127,
        "subtype": "noteOn"
      },
      {
        "deltaTime": 480,
        "channel": 6,
        "type": "channel",
        "noteNumber": 34,
        "velocity": 0,
        "subtype": "noteOff"
      },
      {
        "deltaTime": 0,
        "channel": 6,
        "type": "channel",
        "noteNumber": 34,
        "velocity": 127,
        "subtype": "noteOn"
      },
      {
        "deltaTime": 480,
        "channel": 6,
        "type": "channel",
        "noteNumber": 34,
        "velocity": 0,
        "subtype": "noteOff"
      },
      {
        "deltaTime": 0,
        "channel": 6,
        "type": "channel",
        "noteNumber": 34,
        "velocity": 127,
        "subtype": "noteOn"
      },
      {
        "deltaTime": 480,
        "channel": 6,
        "type": "channel",
        "noteNumber": 34,
        "velocity": 0,
        "subtype": "noteOff"
      },
      {
        "deltaTime": 0,
        "channel": 6,
        "type": "channel",
        "noteNumber": 34,
        "velocity": 127,
        "subtype": "noteOn"
      },
      {
        "deltaTime": 480,
        "channel": 6,
        "type": "channel",
        "noteNumber": 34,
        "velocity": 0,
        "subtype": "noteOff"
      },
      {
        "deltaTime": 0,
        "channel": 6,
        "type": "channel",
        "noteNumber": 34,
        "velocity": 127,
        "subtype": "noteOn"
      },
      {
        "deltaTime": 480,
        "channel": 6,
        "type": "channel",
        "noteNumber": 34,
        "velocity": 0,
        "subtype": "noteOff"
      },
      {
        "deltaTime": 0,
        "channel": 6,
        "type": "channel",
        "noteNumber": 34,
        "velocity": 127,
        "subtype": "noteOn"
      },
      {
        "deltaTime": 480,
        "channel": 6,
        "type": "channel",
        "noteNumber": 34,
        "velocity": 0,
        "subtype": "noteOff"
      },
      {
        "deltaTime": 0,
        "channel": 6,
        "type": "channel",
        "noteNumber": 34,
        "velocity": 127,
        "subtype": "noteOn"
      },
      {
        "deltaTime": 480,
        "channel": 6,
        "type": "channel",
        "noteNumber": 34,
        "velocity": 0,
        "subtype": "noteOff"
      },
      {
        "deltaTime": 0,
        "channel": 6,
        "type": "channel",
        "noteNumber": 34,
        "velocity": 127,
        "subtype": "noteOn"
      },
      {
        "deltaTime": 480,
        "channel": 6,
        "type": "channel",
        "noteNumber": 34,
        "velocity": 0,
        "subtype": "noteOff"
      },
      {
        "deltaTime": 0,
        "channel": 6,
        "type": "channel",
        "noteNumber": 34,
        "velocity": 127,
        "subtype": "noteOn"
      },
      {
        "deltaTime": 480,
        "channel": 6,
        "type": "channel",
        "noteNumber": 34,
        "velocity": 0,
        "subtype": "noteOff"
      },
      {
        "deltaTime": 0,
        "channel": 6,
        "type": "channel",
        "noteNumber": 39,
        "velocity": 127,
        "subtype": "noteOn"
      },
      {
        "deltaTime": 240,
        "channel": 6,
        "type": "channel",
        "subtype": "pitchBend",
        "value": 7552
      },
      {
        "deltaTime": 102,
        "channel": 6,
        "type": "channel",
        "subtype": "pitchBend",
        "value": 6784
      },
      {
        "deltaTime": 104,
        "channel": 6,
        "type": "channel",
        "subtype": "pitchBend",
        "value": 6144
      },
      {
        "deltaTime": 102,
        "channel": 6,
        "type": "channel",
        "subtype": "pitchBend",
        "value": 5504
      },
      {
        "deltaTime": 104,
        "channel": 6,
        "type": "channel",
        "subtype": "pitchBend",
        "value": 4736
      },
      {
        "deltaTime": 102,
        "channel": 6,
        "type": "channel",
        "subtype": "pitchBend",
        "value": 4096
      },
      {
        "deltaTime": 104,
        "channel": 6,
        "type": "channel",
        "subtype": "pitchBend",
        "value": 3456
      },
      {
        "deltaTime": 102,
        "channel": 6,
        "type": "channel",
        "noteNumber": 39,
        "velocity": 0,
        "subtype": "noteOff"
      },
      {
        "deltaTime": 0,
        "channel": 6,
        "type": "channel",
        "subtype": "pitchBend",
        "value": 8192
      },
      {
        "deltaTime": 0,
        "channel": 6,
        "type": "channel",
        "noteNumber": 32,
        "velocity": 127,
        "subtype": "noteOn"
      },
      {
        "deltaTime": 480,
        "channel": 6,
        "type": "channel",
        "noteNumber": 32,
        "velocity": 0,
        "subtype": "noteOff"
      },
      {
        "deltaTime": 0,
        "channel": 6,
        "type": "channel",
        "noteNumber": 32,
        "velocity": 127,
        "subtype": "noteOn"
      },
      {
        "deltaTime": 480,
        "channel": 6,
        "type": "channel",
        "noteNumber": 32,
        "velocity": 0,
        "subtype": "noteOff"
      },
      {
        "deltaTime": 0,
        "channel": 6,
        "type": "channel",
        "noteNumber": 32,
        "velocity": 127,
        "subtype": "noteOn"
      },
      {
        "deltaTime": 480,
        "channel": 6,
        "type": "channel",
        "noteNumber": 32,
        "velocity": 0,
        "subtype": "noteOff"
      },
      {
        "deltaTime": 0,
        "channel": 6,
        "type": "channel",
        "noteNumber": 32,
        "velocity": 127,
        "subtype": "noteOn"
      },
      {
        "deltaTime": 480,
        "channel": 6,
        "type": "channel",
        "noteNumber": 32,
        "velocity": 0,
        "subtype": "noteOff"
      },
      {
        "deltaTime": 0,
        "channel": 6,
        "type": "channel",
        "noteNumber": 32,
        "velocity": 127,
        "subtype": "noteOn"
      },
      {
        "deltaTime": 480,
        "channel": 6,
        "type": "channel",
        "noteNumber": 32,
        "velocity": 0,
        "subtype": "noteOff"
      },
      {
        "deltaTime": 0,
        "channel": 6,
        "type": "channel",
        "noteNumber": 32,
        "velocity": 127,
        "subtype": "noteOn"
      },
      {
        "deltaTime": 480,
        "channel": 6,
        "type": "channel",
        "noteNumber": 32,
        "velocity": 0,
        "subtype": "noteOff"
      },
      {
        "deltaTime": 0,
        "channel": 6,
        "type": "channel",
        "noteNumber": 32,
        "velocity": 127,
        "subtype": "noteOn"
      },
      {
        "deltaTime": 480,
        "channel": 6,
        "type": "channel",
        "noteNumber": 32,
        "velocity": 0,
        "subtype": "noteOff"
      },
      {
        "deltaTime": 0,
        "channel": 6,
        "type": "channel",
        "noteNumber": 32,
        "velocity": 127,
        "subtype": "noteOn"
      },
      {
        "deltaTime": 480,
        "channel": 6,
        "type": "channel",
        "noteNumber": 32,
        "velocity": 0,
        "subtype": "noteOff"
      },
      {
        "deltaTime": 0,
        "channel": 6,
        "type": "channel",
        "noteNumber": 27,
        "velocity": 127,
        "subtype": "noteOn"
      },
      {
        "deltaTime": 480,
        "channel": 6,
        "type": "channel",
        "noteNumber": 27,
        "velocity": 0,
        "subtype": "noteOff"
      },
      {
        "deltaTime": 0,
        "channel": 6,
        "type": "channel",
        "noteNumber": 27,
        "velocity": 127,
        "subtype": "noteOn"
      },
      {
        "deltaTime": 480,
        "channel": 6,
        "type": "channel",
        "noteNumber": 27,
        "velocity": 0,
        "subtype": "noteOff"
      },
      {
        "deltaTime": 0,
        "channel": 6,
        "type": "channel",
        "noteNumber": 27,
        "velocity": 127,
        "subtype": "noteOn"
      },
      {
        "deltaTime": 480,
        "channel": 6,
        "type": "channel",
        "noteNumber": 27,
        "velocity": 0,
        "subtype": "noteOff"
      },
      {
        "deltaTime": 0,
        "channel": 6,
        "type": "channel",
        "noteNumber": 27,
        "velocity": 127,
        "subtype": "noteOn"
      },
      {
        "deltaTime": 480,
        "channel": 6,
        "type": "channel",
        "noteNumber": 27,
        "velocity": 0,
        "subtype": "noteOff"
      },
      {
        "deltaTime": 0,
        "channel": 6,
        "type": "channel",
        "noteNumber": 27,
        "velocity": 127,
        "subtype": "noteOn"
      },
      {
        "deltaTime": 480,
        "channel": 6,
        "type": "channel",
        "noteNumber": 27,
        "velocity": 0,
        "subtype": "noteOff"
      },
      {
        "deltaTime": 0,
        "channel": 6,
        "type": "channel",
        "noteNumber": 27,
        "velocity": 127,
        "subtype": "noteOn"
      },
      {
        "deltaTime": 480,
        "channel": 6,
        "type": "channel",
        "noteNumber": 27,
        "velocity": 0,
        "subtype": "noteOff"
      },
      {
        "deltaTime": 0,
        "channel": 6,
        "type": "channel",
        "noteNumber": 27,
        "velocity": 127,
        "subtype": "noteOn"
      },
      {
        "deltaTime": 480,
        "channel": 6,
        "type": "channel",
        "noteNumber": 27,
        "velocity": 0,
        "subtype": "noteOff"
      },
      {
        "deltaTime": 0,
        "channel": 6,
        "type": "channel",
        "noteNumber": 27,
        "velocity": 127,
        "subtype": "noteOn"
      },
      {
        "deltaTime": 480,
        "channel": 6,
        "type": "channel",
        "noteNumber": 27,
        "velocity": 0,
        "subtype": "noteOff"
      },
      {
        "deltaTime": 0,
        "channel": 6,
        "type": "channel",
        "noteNumber": 36,
        "velocity": 127,
        "subtype": "noteOn"
      },
      {
        "deltaTime": 480,
        "channel": 6,
        "type": "channel",
        "noteNumber": 36,
        "velocity": 0,
        "subtype": "noteOff"
      },
      {
        "deltaTime": 0,
        "channel": 6,
        "type": "channel",
        "noteNumber": 36,
        "velocity": 127,
        "subtype": "noteOn"
      },
      {
        "deltaTime": 480,
        "channel": 6,
        "type": "channel",
        "noteNumber": 36,
        "velocity": 0,
        "subtype": "noteOff"
      },
      {
        "deltaTime": 0,
        "channel": 6,
        "type": "channel",
        "noteNumber": 36,
        "velocity": 127,
        "subtype": "noteOn"
      },
      {
        "deltaTime": 480,
        "channel": 6,
        "type": "channel",
        "noteNumber": 36,
        "velocity": 0,
        "subtype": "noteOff"
      },
      {
        "deltaTime": 0,
        "channel": 6,
        "type": "channel",
        "noteNumber": 36,
        "velocity": 127,
        "subtype": "noteOn"
      },
      {
        "deltaTime": 480,
        "channel": 6,
        "type": "channel",
        "noteNumber": 36,
        "velocity": 0,
        "subtype": "noteOff"
      },
      {
        "deltaTime": 0,
        "channel": 6,
        "type": "channel",
        "noteNumber": 36,
        "velocity": 127,
        "subtype": "noteOn"
      },
      {
        "deltaTime": 480,
        "channel": 6,
        "type": "channel",
        "noteNumber": 36,
        "velocity": 0,
        "subtype": "noteOff"
      },
      {
        "deltaTime": 0,
        "channel": 6,
        "type": "channel",
        "noteNumber": 36,
        "velocity": 127,
        "subtype": "noteOn"
      },
      {
        "deltaTime": 480,
        "channel": 6,
        "type": "channel",
        "noteNumber": 36,
        "velocity": 0,
        "subtype": "noteOff"
      },
      {
        "deltaTime": 0,
        "channel": 6,
        "type": "channel",
        "noteNumber": 36,
        "velocity": 127,
        "subtype": "noteOn"
      },
      {
        "deltaTime": 480,
        "channel": 6,
        "type": "channel",
        "noteNumber": 36,
        "velocity": 0,
        "subtype": "noteOff"
      },
      {
        "deltaTime": 0,
        "channel": 6,
        "type": "channel",
        "noteNumber": 36,
        "velocity": 127,
        "subtype": "noteOn"
      },
      {
        "deltaTime": 480,
        "channel": 6,
        "type": "channel",
        "noteNumber": 36,
        "velocity": 0,
        "subtype": "noteOff"
      },
      {
        "deltaTime": 0,
        "channel": 6,
        "type": "channel",
        "noteNumber": 34,
        "velocity": 127,
        "subtype": "noteOn"
      },
      {
        "deltaTime": 480,
        "channel": 6,
        "type": "channel",
        "noteNumber": 34,
        "velocity": 0,
        "subtype": "noteOff"
      },
      {
        "deltaTime": 0,
        "channel": 6,
        "type": "channel",
        "noteNumber": 34,
        "velocity": 127,
        "subtype": "noteOn"
      },
      {
        "deltaTime": 480,
        "channel": 6,
        "type": "channel",
        "noteNumber": 34,
        "velocity": 0,
        "subtype": "noteOff"
      },
      {
        "deltaTime": 0,
        "channel": 6,
        "type": "channel",
        "noteNumber": 34,
        "velocity": 127,
        "subtype": "noteOn"
      },
      {
        "deltaTime": 480,
        "channel": 6,
        "type": "channel",
        "noteNumber": 34,
        "velocity": 0,
        "subtype": "noteOff"
      },
      {
        "deltaTime": 0,
        "channel": 6,
        "type": "channel",
        "noteNumber": 34,
        "velocity": 127,
        "subtype": "noteOn"
      },
      {
        "deltaTime": 480,
        "channel": 6,
        "type": "channel",
        "noteNumber": 34,
        "velocity": 0,
        "subtype": "noteOff"
      },
      {
        "deltaTime": 0,
        "channel": 6,
        "type": "channel",
        "noteNumber": 34,
        "velocity": 127,
        "subtype": "noteOn"
      },
      {
        "deltaTime": 480,
        "channel": 6,
        "type": "channel",
        "noteNumber": 34,
        "velocity": 0,
        "subtype": "noteOff"
      },
      {
        "deltaTime": 0,
        "channel": 6,
        "type": "channel",
        "noteNumber": 34,
        "velocity": 127,
        "subtype": "noteOn"
      },
      {
        "deltaTime": 480,
        "channel": 6,
        "type": "channel",
        "noteNumber": 34,
        "velocity": 0,
        "subtype": "noteOff"
      },
      {
        "deltaTime": 0,
        "channel": 6,
        "type": "channel",
        "noteNumber": 34,
        "velocity": 127,
        "subtype": "noteOn"
      },
      {
        "deltaTime": 480,
        "channel": 6,
        "type": "channel",
        "noteNumber": 34,
        "velocity": 0,
        "subtype": "noteOff"
      },
      {
        "deltaTime": 0,
        "channel": 6,
        "type": "channel",
        "noteNumber": 34,
        "velocity": 127,
        "subtype": "noteOn"
      },
      {
        "deltaTime": 480,
        "channel": 6,
        "type": "channel",
        "noteNumber": 34,
        "velocity": 0,
        "subtype": "noteOff"
      },
      {
        "deltaTime": 0,
        "channel": 6,
        "type": "channel",
        "noteNumber": 32,
        "velocity": 127,
        "subtype": "noteOn"
      },
      {
        "deltaTime": 480,
        "channel": 6,
        "type": "channel",
        "noteNumber": 32,
        "velocity": 0,
        "subtype": "noteOff"
      },
      {
        "deltaTime": 0,
        "channel": 6,
        "type": "channel",
        "noteNumber": 32,
        "velocity": 127,
        "subtype": "noteOn"
      },
      {
        "deltaTime": 480,
        "channel": 6,
        "type": "channel",
        "noteNumber": 32,
        "velocity": 0,
        "subtype": "noteOff"
      },
      {
        "deltaTime": 0,
        "channel": 6,
        "type": "channel",
        "noteNumber": 32,
        "velocity": 127,
        "subtype": "noteOn"
      },
      {
        "deltaTime": 480,
        "channel": 6,
        "type": "channel",
        "noteNumber": 32,
        "velocity": 0,
        "subtype": "noteOff"
      },
      {
        "deltaTime": 0,
        "channel": 6,
        "type": "channel",
        "noteNumber": 32,
        "velocity": 127,
        "subtype": "noteOn"
      },
      {
        "deltaTime": 480,
        "channel": 6,
        "type": "channel",
        "noteNumber": 32,
        "velocity": 0,
        "subtype": "noteOff"
      },
      {
        "deltaTime": 0,
        "channel": 6,
        "type": "channel",
        "noteNumber": 32,
        "velocity": 127,
        "subtype": "noteOn"
      },
      {
        "deltaTime": 480,
        "channel": 6,
        "type": "channel",
        "noteNumber": 32,
        "velocity": 0,
        "subtype": "noteOff"
      },
      {
        "deltaTime": 0,
        "channel": 6,
        "type": "channel",
        "noteNumber": 32,
        "velocity": 127,
        "subtype": "noteOn"
      },
      {
        "deltaTime": 480,
        "channel": 6,
        "type": "channel",
        "noteNumber": 32,
        "velocity": 0,
        "subtype": "noteOff"
      },
      {
        "deltaTime": 0,
        "channel": 6,
        "type": "channel",
        "noteNumber": 32,
        "velocity": 127,
        "subtype": "noteOn"
      },
      {
        "deltaTime": 480,
        "channel": 6,
        "type": "channel",
        "noteNumber": 32,
        "velocity": 0,
        "subtype": "noteOff"
      },
      {
        "deltaTime": 0,
        "channel": 6,
        "type": "channel",
        "noteNumber": 32,
        "velocity": 127,
        "subtype": "noteOn"
      },
      {
        "deltaTime": 480,
        "channel": 6,
        "type": "channel",
        "noteNumber": 32,
        "velocity": 0,
        "subtype": "noteOff"
      },
      {
        "deltaTime": 0,
        "channel": 6,
        "type": "channel",
        "noteNumber": 27,
        "velocity": 127,
        "subtype": "noteOn"
      },
      {
        "deltaTime": 480,
        "channel": 6,
        "type": "channel",
        "noteNumber": 27,
        "velocity": 0,
        "subtype": "noteOff"
      },
      {
        "deltaTime": 0,
        "channel": 6,
        "type": "channel",
        "noteNumber": 27,
        "velocity": 127,
        "subtype": "noteOn"
      },
      {
        "deltaTime": 480,
        "channel": 6,
        "type": "channel",
        "noteNumber": 27,
        "velocity": 0,
        "subtype": "noteOff"
      },
      {
        "deltaTime": 0,
        "channel": 6,
        "type": "channel",
        "noteNumber": 27,
        "velocity": 127,
        "subtype": "noteOn"
      },
      {
        "deltaTime": 480,
        "channel": 6,
        "type": "channel",
        "noteNumber": 27,
        "velocity": 0,
        "subtype": "noteOff"
      },
      {
        "deltaTime": 0,
        "channel": 6,
        "type": "channel",
        "noteNumber": 27,
        "velocity": 127,
        "subtype": "noteOn"
      },
      {
        "deltaTime": 480,
        "channel": 6,
        "type": "channel",
        "noteNumber": 27,
        "velocity": 0,
        "subtype": "noteOff"
      },
      {
        "deltaTime": 0,
        "channel": 6,
        "type": "channel",
        "noteNumber": 27,
        "velocity": 127,
        "subtype": "noteOn"
      },
      {
        "deltaTime": 480,
        "channel": 6,
        "type": "channel",
        "noteNumber": 27,
        "velocity": 0,
        "subtype": "noteOff"
      },
      {
        "deltaTime": 0,
        "channel": 6,
        "type": "channel",
        "noteNumber": 27,
        "velocity": 127,
        "subtype": "noteOn"
      },
      {
        "deltaTime": 480,
        "channel": 6,
        "type": "channel",
        "noteNumber": 27,
        "velocity": 0,
        "subtype": "noteOff"
      },
      {
        "deltaTime": 0,
        "channel": 6,
        "type": "channel",
        "noteNumber": 27,
        "velocity": 127,
        "subtype": "noteOn"
      },
      {
        "deltaTime": 480,
        "channel": 6,
        "type": "channel",
        "noteNumber": 27,
        "velocity": 0,
        "subtype": "noteOff"
      },
      {
        "deltaTime": 0,
        "channel": 6,
        "type": "channel",
        "noteNumber": 27,
        "velocity": 127,
        "subtype": "noteOn"
      },
      {
        "deltaTime": 480,
        "channel": 6,
        "type": "channel",
        "noteNumber": 27,
        "velocity": 0,
        "subtype": "noteOff"
      },
      {
        "deltaTime": 0,
        "channel": 6,
        "type": "channel",
        "noteNumber": 34,
        "velocity": 127,
        "subtype": "noteOn"
      },
      {
        "deltaTime": 480,
        "channel": 6,
        "type": "channel",
        "noteNumber": 34,
        "velocity": 0,
        "subtype": "noteOff"
      },
      {
        "deltaTime": 0,
        "channel": 6,
        "type": "channel",
        "noteNumber": 34,
        "velocity": 127,
        "subtype": "noteOn"
      },
      {
        "deltaTime": 480,
        "channel": 6,
        "type": "channel",
        "noteNumber": 34,
        "velocity": 0,
        "subtype": "noteOff"
      },
      {
        "deltaTime": 0,
        "channel": 6,
        "type": "channel",
        "noteNumber": 34,
        "velocity": 127,
        "subtype": "noteOn"
      },
      {
        "deltaTime": 480,
        "channel": 6,
        "type": "channel",
        "noteNumber": 34,
        "velocity": 0,
        "subtype": "noteOff"
      },
      {
        "deltaTime": 0,
        "channel": 6,
        "type": "channel",
        "noteNumber": 34,
        "velocity": 127,
        "subtype": "noteOn"
      },
      {
        "deltaTime": 480,
        "channel": 6,
        "type": "channel",
        "noteNumber": 34,
        "velocity": 0,
        "subtype": "noteOff"
      },
      {
        "deltaTime": 0,
        "channel": 6,
        "type": "channel",
        "noteNumber": 34,
        "velocity": 127,
        "subtype": "noteOn"
      },
      {
        "deltaTime": 480,
        "channel": 6,
        "type": "channel",
        "noteNumber": 34,
        "velocity": 0,
        "subtype": "noteOff"
      },
      {
        "deltaTime": 0,
        "channel": 6,
        "type": "channel",
        "noteNumber": 34,
        "velocity": 127,
        "subtype": "noteOn"
      },
      {
        "deltaTime": 480,
        "channel": 6,
        "type": "channel",
        "noteNumber": 34,
        "velocity": 0,
        "subtype": "noteOff"
      },
      {
        "deltaTime": 0,
        "channel": 6,
        "type": "channel",
        "noteNumber": 34,
        "velocity": 127,
        "subtype": "noteOn"
      },
      {
        "deltaTime": 480,
        "channel": 6,
        "type": "channel",
        "noteNumber": 34,
        "velocity": 0,
        "subtype": "noteOff"
      },
      {
        "deltaTime": 0,
        "channel": 6,
        "type": "channel",
        "noteNumber": 34,
        "velocity": 127,
        "subtype": "noteOn"
      },
      {
        "deltaTime": 480,
        "channel": 6,
        "type": "channel",
        "noteNumber": 34,
        "velocity": 0,
        "subtype": "noteOff"
      },
      {
        "deltaTime": 0,
        "channel": 6,
        "type": "channel",
        "noteNumber": 34,
        "velocity": 127,
        "subtype": "noteOn"
      },
      {
        "deltaTime": 480,
        "channel": 6,
        "type": "channel",
        "noteNumber": 34,
        "velocity": 0,
        "subtype": "noteOff"
      },
      {
        "deltaTime": 0,
        "channel": 6,
        "type": "channel",
        "noteNumber": 34,
        "velocity": 127,
        "subtype": "noteOn"
      },
      {
        "deltaTime": 480,
        "channel": 6,
        "type": "channel",
        "noteNumber": 34,
        "velocity": 0,
        "subtype": "noteOff"
      },
      {
        "deltaTime": 0,
        "channel": 6,
        "type": "channel",
        "noteNumber": 34,
        "velocity": 127,
        "subtype": "noteOn"
      },
      {
        "deltaTime": 480,
        "channel": 6,
        "type": "channel",
        "noteNumber": 34,
        "velocity": 0,
        "subtype": "noteOff"
      },
      {
        "deltaTime": 0,
        "channel": 6,
        "type": "channel",
        "noteNumber": 34,
        "velocity": 127,
        "subtype": "noteOn"
      },
      {
        "deltaTime": 480,
        "channel": 6,
        "type": "channel",
        "noteNumber": 34,
        "velocity": 0,
        "subtype": "noteOff"
      },
      {
        "deltaTime": 0,
        "channel": 6,
        "type": "channel",
        "noteNumber": 34,
        "velocity": 127,
        "subtype": "noteOn"
      },
      {
        "deltaTime": 480,
        "channel": 6,
        "type": "channel",
        "noteNumber": 34,
        "velocity": 0,
        "subtype": "noteOff"
      },
      {
        "deltaTime": 0,
        "channel": 6,
        "type": "channel",
        "noteNumber": 34,
        "velocity": 127,
        "subtype": "noteOn"
      },
      {
        "deltaTime": 480,
        "channel": 6,
        "type": "channel",
        "noteNumber": 34,
        "velocity": 0,
        "subtype": "noteOff"
      },
      {
        "deltaTime": 0,
        "channel": 6,
        "type": "channel",
        "noteNumber": 34,
        "velocity": 127,
        "subtype": "noteOn"
      },
      {
        "deltaTime": 480,
        "channel": 6,
        "type": "channel",
        "noteNumber": 34,
        "velocity": 0,
        "subtype": "noteOff"
      },
      {
        "deltaTime": 0,
        "channel": 6,
        "type": "channel",
        "noteNumber": 34,
        "velocity": 127,
        "subtype": "noteOn"
      },
      {
        "deltaTime": 480,
        "channel": 6,
        "type": "channel",
        "noteNumber": 34,
        "velocity": 0,
        "subtype": "noteOff"
      },
      {
        "deltaTime": 0,
        "channel": 6,
        "type": "channel",
        "noteNumber": 36,
        "velocity": 127,
        "subtype": "noteOn"
      },
      {
        "deltaTime": 480,
        "channel": 6,
        "type": "channel",
        "noteNumber": 36,
        "velocity": 0,
        "subtype": "noteOff"
      },
      {
        "deltaTime": 0,
        "channel": 6,
        "type": "channel",
        "noteNumber": 36,
        "velocity": 127,
        "subtype": "noteOn"
      },
      {
        "deltaTime": 480,
        "channel": 6,
        "type": "channel",
        "noteNumber": 36,
        "velocity": 0,
        "subtype": "noteOff"
      },
      {
        "deltaTime": 0,
        "channel": 6,
        "type": "channel",
        "noteNumber": 36,
        "velocity": 127,
        "subtype": "noteOn"
      },
      {
        "deltaTime": 480,
        "channel": 6,
        "type": "channel",
        "noteNumber": 36,
        "velocity": 0,
        "subtype": "noteOff"
      },
      {
        "deltaTime": 0,
        "channel": 6,
        "type": "channel",
        "noteNumber": 36,
        "velocity": 127,
        "subtype": "noteOn"
      },
      {
        "deltaTime": 480,
        "channel": 6,
        "type": "channel",
        "noteNumber": 36,
        "velocity": 0,
        "subtype": "noteOff"
      },
      {
        "deltaTime": 0,
        "channel": 6,
        "type": "channel",
        "noteNumber": 36,
        "velocity": 127,
        "subtype": "noteOn"
      },
      {
        "deltaTime": 480,
        "channel": 6,
        "type": "channel",
        "noteNumber": 36,
        "velocity": 0,
        "subtype": "noteOff"
      },
      {
        "deltaTime": 0,
        "channel": 6,
        "type": "channel",
        "noteNumber": 36,
        "velocity": 127,
        "subtype": "noteOn"
      },
      {
        "deltaTime": 480,
        "channel": 6,
        "type": "channel",
        "noteNumber": 36,
        "velocity": 0,
        "subtype": "noteOff"
      },
      {
        "deltaTime": 0,
        "channel": 6,
        "type": "channel",
        "noteNumber": 36,
        "velocity": 127,
        "subtype": "noteOn"
      },
      {
        "deltaTime": 480,
        "channel": 6,
        "type": "channel",
        "noteNumber": 36,
        "velocity": 0,
        "subtype": "noteOff"
      },
      {
        "deltaTime": 0,
        "channel": 6,
        "type": "channel",
        "noteNumber": 36,
        "velocity": 127,
        "subtype": "noteOn"
      },
      {
        "deltaTime": 480,
        "channel": 6,
        "type": "channel",
        "noteNumber": 36,
        "velocity": 0,
        "subtype": "noteOff"
      },
      {
        "deltaTime": 0,
        "channel": 6,
        "type": "channel",
        "noteNumber": 34,
        "velocity": 127,
        "subtype": "noteOn"
      },
      {
        "deltaTime": 480,
        "channel": 6,
        "type": "channel",
        "noteNumber": 34,
        "velocity": 0,
        "subtype": "noteOff"
      },
      {
        "deltaTime": 0,
        "channel": 6,
        "type": "channel",
        "noteNumber": 34,
        "velocity": 127,
        "subtype": "noteOn"
      },
      {
        "deltaTime": 480,
        "channel": 6,
        "type": "channel",
        "noteNumber": 34,
        "velocity": 0,
        "subtype": "noteOff"
      },
      {
        "deltaTime": 0,
        "channel": 6,
        "type": "channel",
        "noteNumber": 34,
        "velocity": 127,
        "subtype": "noteOn"
      },
      {
        "deltaTime": 480,
        "channel": 6,
        "type": "channel",
        "noteNumber": 34,
        "velocity": 0,
        "subtype": "noteOff"
      },
      {
        "deltaTime": 0,
        "channel": 6,
        "type": "channel",
        "noteNumber": 34,
        "velocity": 127,
        "subtype": "noteOn"
      },
      {
        "deltaTime": 480,
        "channel": 6,
        "type": "channel",
        "noteNumber": 34,
        "velocity": 0,
        "subtype": "noteOff"
      },
      {
        "deltaTime": 0,
        "channel": 6,
        "type": "channel",
        "noteNumber": 34,
        "velocity": 127,
        "subtype": "noteOn"
      },
      {
        "deltaTime": 480,
        "channel": 6,
        "type": "channel",
        "noteNumber": 34,
        "velocity": 0,
        "subtype": "noteOff"
      },
      {
        "deltaTime": 0,
        "channel": 6,
        "type": "channel",
        "noteNumber": 34,
        "velocity": 127,
        "subtype": "noteOn"
      },
      {
        "deltaTime": 480,
        "channel": 6,
        "type": "channel",
        "noteNumber": 34,
        "velocity": 0,
        "subtype": "noteOff"
      },
      {
        "deltaTime": 0,
        "channel": 6,
        "type": "channel",
        "noteNumber": 34,
        "velocity": 127,
        "subtype": "noteOn"
      },
      {
        "deltaTime": 480,
        "channel": 6,
        "type": "channel",
        "noteNumber": 34,
        "velocity": 0,
        "subtype": "noteOff"
      },
      {
        "deltaTime": 0,
        "channel": 6,
        "type": "channel",
        "noteNumber": 34,
        "velocity": 127,
        "subtype": "noteOn"
      },
      {
        "deltaTime": 480,
        "channel": 6,
        "type": "channel",
        "noteNumber": 34,
        "velocity": 0,
        "subtype": "noteOff"
      },
      {
        "deltaTime": 0,
        "channel": 6,
        "type": "channel",
        "noteNumber": 36,
        "velocity": 127,
        "subtype": "noteOn"
      },
      {
        "deltaTime": 480,
        "channel": 6,
        "type": "channel",
        "noteNumber": 36,
        "velocity": 0,
        "subtype": "noteOff"
      },
      {
        "deltaTime": 0,
        "channel": 6,
        "type": "channel",
        "noteNumber": 36,
        "velocity": 127,
        "subtype": "noteOn"
      },
      {
        "deltaTime": 480,
        "channel": 6,
        "type": "channel",
        "noteNumber": 36,
        "velocity": 0,
        "subtype": "noteOff"
      },
      {
        "deltaTime": 0,
        "channel": 6,
        "type": "channel",
        "noteNumber": 36,
        "velocity": 127,
        "subtype": "noteOn"
      },
      {
        "deltaTime": 480,
        "channel": 6,
        "type": "channel",
        "noteNumber": 36,
        "velocity": 0,
        "subtype": "noteOff"
      },
      {
        "deltaTime": 0,
        "channel": 6,
        "type": "channel",
        "noteNumber": 36,
        "velocity": 127,
        "subtype": "noteOn"
      },
      {
        "deltaTime": 480,
        "channel": 6,
        "type": "channel",
        "noteNumber": 36,
        "velocity": 0,
        "subtype": "noteOff"
      },
      {
        "deltaTime": 0,
        "channel": 6,
        "type": "channel",
        "noteNumber": 36,
        "velocity": 127,
        "subtype": "noteOn"
      },
      {
        "deltaTime": 480,
        "channel": 6,
        "type": "channel",
        "noteNumber": 36,
        "velocity": 0,
        "subtype": "noteOff"
      },
      {
        "deltaTime": 0,
        "channel": 6,
        "type": "channel",
        "noteNumber": 36,
        "velocity": 127,
        "subtype": "noteOn"
      },
      {
        "deltaTime": 480,
        "channel": 6,
        "type": "channel",
        "noteNumber": 36,
        "velocity": 0,
        "subtype": "noteOff"
      },
      {
        "deltaTime": 0,
        "channel": 6,
        "type": "channel",
        "noteNumber": 36,
        "velocity": 127,
        "subtype": "noteOn"
      },
      {
        "deltaTime": 480,
        "channel": 6,
        "type": "channel",
        "noteNumber": 36,
        "velocity": 0,
        "subtype": "noteOff"
      },
      {
        "deltaTime": 0,
        "channel": 6,
        "type": "channel",
        "noteNumber": 36,
        "velocity": 127,
        "subtype": "noteOn"
      },
      {
        "deltaTime": 480,
        "channel": 6,
        "type": "channel",
        "noteNumber": 36,
        "velocity": 0,
        "subtype": "noteOff"
      },
      {
        "deltaTime": 0,
        "channel": 6,
        "type": "channel",
        "noteNumber": 34,
        "velocity": 127,
        "subtype": "noteOn"
      },
      {
        "deltaTime": 480,
        "channel": 6,
        "type": "channel",
        "noteNumber": 34,
        "velocity": 0,
        "subtype": "noteOff"
      },
      {
        "deltaTime": 0,
        "channel": 6,
        "type": "channel",
        "noteNumber": 34,
        "velocity": 127,
        "subtype": "noteOn"
      },
      {
        "deltaTime": 480,
        "channel": 6,
        "type": "channel",
        "noteNumber": 34,
        "velocity": 0,
        "subtype": "noteOff"
      },
      {
        "deltaTime": 0,
        "channel": 6,
        "type": "channel",
        "noteNumber": 34,
        "velocity": 127,
        "subtype": "noteOn"
      },
      {
        "deltaTime": 480,
        "channel": 6,
        "type": "channel",
        "noteNumber": 34,
        "velocity": 0,
        "subtype": "noteOff"
      },
      {
        "deltaTime": 0,
        "channel": 6,
        "type": "channel",
        "noteNumber": 34,
        "velocity": 127,
        "subtype": "noteOn"
      },
      {
        "deltaTime": 480,
        "channel": 6,
        "type": "channel",
        "noteNumber": 34,
        "velocity": 0,
        "subtype": "noteOff"
      },
      {
        "deltaTime": 0,
        "channel": 6,
        "type": "channel",
        "noteNumber": 34,
        "velocity": 127,
        "subtype": "noteOn"
      },
      {
        "deltaTime": 480,
        "channel": 6,
        "type": "channel",
        "noteNumber": 34,
        "velocity": 0,
        "subtype": "noteOff"
      },
      {
        "deltaTime": 0,
        "channel": 6,
        "type": "channel",
        "noteNumber": 34,
        "velocity": 127,
        "subtype": "noteOn"
      },
      {
        "deltaTime": 480,
        "channel": 6,
        "type": "channel",
        "noteNumber": 34,
        "velocity": 0,
        "subtype": "noteOff"
      },
      {
        "deltaTime": 0,
        "channel": 6,
        "type": "channel",
        "noteNumber": 34,
        "velocity": 127,
        "subtype": "noteOn"
      },
      {
        "deltaTime": 480,
        "channel": 6,
        "type": "channel",
        "noteNumber": 34,
        "velocity": 0,
        "subtype": "noteOff"
      },
      {
        "deltaTime": 0,
        "channel": 6,
        "type": "channel",
        "noteNumber": 34,
        "velocity": 127,
        "subtype": "noteOn"
      },
      {
        "deltaTime": 480,
        "channel": 6,
        "type": "channel",
        "noteNumber": 34,
        "velocity": 0,
        "subtype": "noteOff"
      },
      {
        "deltaTime": 0,
        "channel": 6,
        "type": "channel",
        "noteNumber": 32,
        "velocity": 127,
        "subtype": "noteOn"
      },
      {
        "deltaTime": 480,
        "channel": 6,
        "type": "channel",
        "noteNumber": 32,
        "velocity": 0,
        "subtype": "noteOff"
      },
      {
        "deltaTime": 0,
        "channel": 6,
        "type": "channel",
        "noteNumber": 32,
        "velocity": 127,
        "subtype": "noteOn"
      },
      {
        "deltaTime": 480,
        "channel": 6,
        "type": "channel",
        "noteNumber": 32,
        "velocity": 0,
        "subtype": "noteOff"
      },
      {
        "deltaTime": 0,
        "channel": 6,
        "type": "channel",
        "noteNumber": 32,
        "velocity": 127,
        "subtype": "noteOn"
      },
      {
        "deltaTime": 480,
        "channel": 6,
        "type": "channel",
        "noteNumber": 32,
        "velocity": 0,
        "subtype": "noteOff"
      },
      {
        "deltaTime": 0,
        "channel": 6,
        "type": "channel",
        "noteNumber": 32,
        "velocity": 127,
        "subtype": "noteOn"
      },
      {
        "deltaTime": 480,
        "channel": 6,
        "type": "channel",
        "noteNumber": 32,
        "velocity": 0,
        "subtype": "noteOff"
      },
      {
        "deltaTime": 0,
        "channel": 6,
        "type": "channel",
        "noteNumber": 32,
        "velocity": 127,
        "subtype": "noteOn"
      },
      {
        "deltaTime": 480,
        "channel": 6,
        "type": "channel",
        "noteNumber": 32,
        "velocity": 0,
        "subtype": "noteOff"
      },
      {
        "deltaTime": 0,
        "channel": 6,
        "type": "channel",
        "noteNumber": 32,
        "velocity": 127,
        "subtype": "noteOn"
      },
      {
        "deltaTime": 480,
        "channel": 6,
        "type": "channel",
        "noteNumber": 32,
        "velocity": 0,
        "subtype": "noteOff"
      },
      {
        "deltaTime": 0,
        "channel": 6,
        "type": "channel",
        "noteNumber": 32,
        "velocity": 127,
        "subtype": "noteOn"
      },
      {
        "deltaTime": 480,
        "channel": 6,
        "type": "channel",
        "noteNumber": 32,
        "velocity": 0,
        "subtype": "noteOff"
      },
      {
        "deltaTime": 0,
        "channel": 6,
        "type": "channel",
        "noteNumber": 32,
        "velocity": 127,
        "subtype": "noteOn"
      },
      {
        "deltaTime": 480,
        "channel": 6,
        "type": "channel",
        "noteNumber": 32,
        "velocity": 0,
        "subtype": "noteOff"
      },
      {
        "deltaTime": 0,
        "channel": 6,
        "type": "channel",
        "noteNumber": 27,
        "velocity": 127,
        "subtype": "noteOn"
      },
      {
        "deltaTime": 480,
        "channel": 6,
        "type": "channel",
        "noteNumber": 27,
        "velocity": 0,
        "subtype": "noteOff"
      },
      {
        "deltaTime": 0,
        "channel": 6,
        "type": "channel",
        "noteNumber": 27,
        "velocity": 127,
        "subtype": "noteOn"
      },
      {
        "deltaTime": 480,
        "channel": 6,
        "type": "channel",
        "noteNumber": 27,
        "velocity": 0,
        "subtype": "noteOff"
      },
      {
        "deltaTime": 0,
        "channel": 6,
        "type": "channel",
        "noteNumber": 27,
        "velocity": 127,
        "subtype": "noteOn"
      },
      {
        "deltaTime": 480,
        "channel": 6,
        "type": "channel",
        "noteNumber": 27,
        "velocity": 0,
        "subtype": "noteOff"
      },
      {
        "deltaTime": 0,
        "channel": 6,
        "type": "channel",
        "noteNumber": 27,
        "velocity": 127,
        "subtype": "noteOn"
      },
      {
        "deltaTime": 480,
        "channel": 6,
        "type": "channel",
        "noteNumber": 27,
        "velocity": 0,
        "subtype": "noteOff"
      },
      {
        "deltaTime": 0,
        "channel": 6,
        "type": "channel",
        "noteNumber": 27,
        "velocity": 127,
        "subtype": "noteOn"
      },
      {
        "deltaTime": 480,
        "channel": 6,
        "type": "channel",
        "noteNumber": 27,
        "velocity": 0,
        "subtype": "noteOff"
      },
      {
        "deltaTime": 0,
        "channel": 6,
        "type": "channel",
        "noteNumber": 27,
        "velocity": 127,
        "subtype": "noteOn"
      },
      {
        "deltaTime": 480,
        "channel": 6,
        "type": "channel",
        "noteNumber": 27,
        "velocity": 0,
        "subtype": "noteOff"
      },
      {
        "deltaTime": 0,
        "channel": 6,
        "type": "channel",
        "noteNumber": 27,
        "velocity": 127,
        "subtype": "noteOn"
      },
      {
        "deltaTime": 480,
        "channel": 6,
        "type": "channel",
        "noteNumber": 27,
        "velocity": 0,
        "subtype": "noteOff"
      },
      {
        "deltaTime": 0,
        "channel": 6,
        "type": "channel",
        "noteNumber": 27,
        "velocity": 127,
        "subtype": "noteOn"
      },
      {
        "deltaTime": 480,
        "channel": 6,
        "type": "channel",
        "noteNumber": 27,
        "velocity": 0,
        "subtype": "noteOff"
      },
      {
        "deltaTime": 0,
        "channel": 6,
        "type": "channel",
        "noteNumber": 34,
        "velocity": 127,
        "subtype": "noteOn"
      },
      {
        "deltaTime": 480,
        "channel": 6,
        "type": "channel",
        "noteNumber": 34,
        "velocity": 0,
        "subtype": "noteOff"
      },
      {
        "deltaTime": 0,
        "channel": 6,
        "type": "channel",
        "noteNumber": 34,
        "velocity": 127,
        "subtype": "noteOn"
      },
      {
        "deltaTime": 480,
        "channel": 6,
        "type": "channel",
        "noteNumber": 34,
        "velocity": 0,
        "subtype": "noteOff"
      },
      {
        "deltaTime": 0,
        "channel": 6,
        "type": "channel",
        "noteNumber": 34,
        "velocity": 127,
        "subtype": "noteOn"
      },
      {
        "deltaTime": 480,
        "channel": 6,
        "type": "channel",
        "noteNumber": 34,
        "velocity": 0,
        "subtype": "noteOff"
      },
      {
        "deltaTime": 0,
        "channel": 6,
        "type": "channel",
        "noteNumber": 34,
        "velocity": 127,
        "subtype": "noteOn"
      },
      {
        "deltaTime": 480,
        "channel": 6,
        "type": "channel",
        "noteNumber": 34,
        "velocity": 0,
        "subtype": "noteOff"
      },
      {
        "deltaTime": 0,
        "channel": 6,
        "type": "channel",
        "noteNumber": 34,
        "velocity": 127,
        "subtype": "noteOn"
      },
      {
        "deltaTime": 480,
        "channel": 6,
        "type": "channel",
        "noteNumber": 34,
        "velocity": 0,
        "subtype": "noteOff"
      },
      {
        "deltaTime": 0,
        "channel": 6,
        "type": "channel",
        "noteNumber": 34,
        "velocity": 127,
        "subtype": "noteOn"
      },
      {
        "deltaTime": 480,
        "channel": 6,
        "type": "channel",
        "noteNumber": 34,
        "velocity": 0,
        "subtype": "noteOff"
      },
      {
        "deltaTime": 0,
        "channel": 6,
        "type": "channel",
        "noteNumber": 34,
        "velocity": 127,
        "subtype": "noteOn"
      },
      {
        "deltaTime": 480,
        "channel": 6,
        "type": "channel",
        "noteNumber": 34,
        "velocity": 0,
        "subtype": "noteOff"
      },
      {
        "deltaTime": 0,
        "channel": 6,
        "type": "channel",
        "noteNumber": 34,
        "velocity": 127,
        "subtype": "noteOn"
      },
      {
        "deltaTime": 480,
        "channel": 6,
        "type": "channel",
        "noteNumber": 34,
        "velocity": 0,
        "subtype": "noteOff"
      },
      {
        "deltaTime": 0,
        "channel": 6,
        "type": "channel",
        "noteNumber": 34,
        "velocity": 127,
        "subtype": "noteOn"
      },
      {
        "deltaTime": 480,
        "channel": 6,
        "type": "channel",
        "noteNumber": 34,
        "velocity": 0,
        "subtype": "noteOff"
      },
      {
        "deltaTime": 0,
        "channel": 6,
        "type": "channel",
        "noteNumber": 34,
        "velocity": 127,
        "subtype": "noteOn"
      },
      {
        "deltaTime": 480,
        "channel": 6,
        "type": "channel",
        "noteNumber": 34,
        "velocity": 0,
        "subtype": "noteOff"
      },
      {
        "deltaTime": 0,
        "channel": 6,
        "type": "channel",
        "noteNumber": 34,
        "velocity": 127,
        "subtype": "noteOn"
      },
      {
        "deltaTime": 480,
        "channel": 6,
        "type": "channel",
        "noteNumber": 34,
        "velocity": 0,
        "subtype": "noteOff"
      },
      {
        "deltaTime": 0,
        "channel": 6,
        "type": "channel",
        "noteNumber": 34,
        "velocity": 127,
        "subtype": "noteOn"
      },
      {
        "deltaTime": 480,
        "channel": 6,
        "type": "channel",
        "noteNumber": 34,
        "velocity": 0,
        "subtype": "noteOff"
      },
      {
        "deltaTime": 0,
        "channel": 6,
        "type": "channel",
        "noteNumber": 34,
        "velocity": 127,
        "subtype": "noteOn"
      },
      {
        "deltaTime": 480,
        "channel": 6,
        "type": "channel",
        "noteNumber": 34,
        "velocity": 0,
        "subtype": "noteOff"
      },
      {
        "deltaTime": 0,
        "channel": 6,
        "type": "channel",
        "noteNumber": 34,
        "velocity": 127,
        "subtype": "noteOn"
      },
      {
        "deltaTime": 480,
        "channel": 6,
        "type": "channel",
        "noteNumber": 34,
        "velocity": 0,
        "subtype": "noteOff"
      },
      {
        "deltaTime": 0,
        "channel": 6,
        "type": "channel",
        "noteNumber": 34,
        "velocity": 127,
        "subtype": "noteOn"
      },
      {
        "deltaTime": 480,
        "channel": 6,
        "type": "channel",
        "noteNumber": 34,
        "velocity": 0,
        "subtype": "noteOff"
      },
      {
        "deltaTime": 0,
        "channel": 6,
        "type": "channel",
        "noteNumber": 34,
        "velocity": 127,
        "subtype": "noteOn"
      },
      {
        "deltaTime": 480,
        "channel": 6,
        "type": "channel",
        "noteNumber": 34,
        "velocity": 0,
        "subtype": "noteOff"
      },
      {
        "deltaTime": 0,
        "channel": 6,
        "type": "channel",
        "noteNumber": 32,
        "velocity": 127,
        "subtype": "noteOn"
      },
      {
        "deltaTime": 720,
        "channel": 6,
        "type": "channel",
        "noteNumber": 32,
        "velocity": 0,
        "subtype": "noteOff"
      },
      {
        "deltaTime": 0,
        "channel": 6,
        "type": "channel",
        "noteNumber": 32,
        "velocity": 127,
        "subtype": "noteOn"
      },
      {
        "deltaTime": 720,
        "channel": 6,
        "type": "channel",
        "noteNumber": 32,
        "velocity": 0,
        "subtype": "noteOff"
      },
      {
        "deltaTime": 0,
        "channel": 6,
        "type": "channel",
        "noteNumber": 32,
        "velocity": 127,
        "subtype": "noteOn"
      },
      {
        "deltaTime": 480,
        "channel": 6,
        "type": "channel",
        "noteNumber": 32,
        "velocity": 0,
        "subtype": "noteOff"
      },
      {
        "deltaTime": 960,
        "channel": 6,
        "type": "channel",
        "noteNumber": 32,
        "velocity": 127,
        "subtype": "noteOn"
      },
      {
        "deltaTime": 720,
        "channel": 6,
        "type": "channel",
        "noteNumber": 32,
        "velocity": 0,
        "subtype": "noteOff"
      },
      {
        "deltaTime": 0,
        "channel": 6,
        "type": "channel",
        "noteNumber": 32,
        "velocity": 127,
        "subtype": "noteOn"
      },
      {
        "deltaTime": 720,
        "channel": 6,
        "type": "channel",
        "noteNumber": 32,
        "velocity": 0,
        "subtype": "noteOff"
      },
      {
        "deltaTime": 0,
        "channel": 6,
        "type": "channel",
        "noteNumber": 32,
        "velocity": 127,
        "subtype": "noteOn"
      },
      {
        "deltaTime": 480,
        "channel": 6,
        "type": "channel",
        "noteNumber": 32,
        "velocity": 0,
        "subtype": "noteOff"
      },
      {
        "deltaTime": 960,
        "channel": 6,
        "type": "channel",
        "noteNumber": 27,
        "velocity": 127,
        "subtype": "noteOn"
      },
      {
        "deltaTime": 5760,
        "channel": 6,
        "type": "channel",
        "noteNumber": 27,
        "velocity": 0,
        "subtype": "noteOff"
      },
      {
        "deltaTime": 0,
        "type": "meta",
        "subtype": "endOfTrack"
      }
    ],
    [
      {
        "deltaTime": 0,
        "type": "meta",
        "subtype": "trackName",
        "text": "Drums"
      },
      {
        "deltaTime": 0,
        "channel": 9,
        "type": "channel",
        "subtype": "programChange",
        "programNumber": 0
      },
      {
        "deltaTime": 0,
        "channel": 9,
        "type": "channel",
        "subtype": "controller",
        "controllerType": 7,
        "value": 127
      },
      {
        "deltaTime": 0,
        "channel": 9,
        "type": "channel",
        "subtype": "controller",
        "controllerType": 10,
        "value": 64
      },
      {
        "deltaTime": 0,
        "channel": 9,
        "type": "channel",
        "subtype": "controller",
        "controllerType": 91,
        "value": 0
      },
      {
        "deltaTime": 0,
        "channel": 9,
        "type": "channel",
        "subtype": "controller",
        "controllerType": 93,
        "value": 0
      },
      {
        "deltaTime": 0,
        "channel": 9,
        "type": "channel",
        "subtype": "controller",
        "controllerType": 101,
        "value": 0
      },
      {
        "deltaTime": 1,
        "channel": 9,
        "type": "channel",
        "subtype": "controller",
        "controllerType": 100,
        "value": 0
      },
      {
        "deltaTime": 1,
        "channel": 9,
        "type": "channel",
        "subtype": "controller",
        "controllerType": 6,
        "value": 12
      },
      {
        "deltaTime": 1,
        "channel": 9,
        "type": "channel",
        "subtype": "controller",
        "controllerType": 38,
        "value": 0
      },
      {
        "deltaTime": 0,
        "channel": 9,
        "type": "channel",
        "subtype": "pitchBend",
        "value": 8192
      },
      {
        "deltaTime": 0,
        "channel": 9,
        "type": "channel",
        "subtype": "controller",
        "controllerType": 101,
        "value": 0
      },
      {
        "deltaTime": 1,
        "channel": 9,
        "type": "channel",
        "subtype": "controller",
        "controllerType": 100,
        "value": 1
      },
      {
        "deltaTime": 1,
        "channel": 9,
        "type": "channel",
        "subtype": "controller",
        "controllerType": 6,
        "value": 64
      },
      {
        "deltaTime": 1,
        "channel": 9,
        "type": "channel",
        "subtype": "controller",
        "controllerType": 38,
        "value": 0
      },
      {
        "deltaTime": 0,
        "channel": 9,
        "type": "channel",
        "subtype": "controller",
        "controllerType": 0,
        "value": 0
      },
      {
        "deltaTime": 0,
        "channel": 9,
        "type": "channel",
        "subtype": "controller",
        "controllerType": 92,
        "value": 0
      },
      {
        "deltaTime": 0,
        "channel": 9,
        "type": "channel",
        "subtype": "controller",
        "controllerType": 95,
        "value": 0
      },
      {
        "deltaTime": 1914,
        "channel": 9,
        "type": "channel",
        "noteNumber": 36,
        "velocity": 121,
        "subtype": "noteOn"
      },
      {
        "deltaTime": 0,
        "channel": 9,
        "type": "channel",
        "noteNumber": 43,
        "velocity": 121,
        "subtype": "noteOn"
      },
      {
        "deltaTime": 0,
        "channel": 9,
        "type": "channel",
        "noteNumber": 38,
        "velocity": 121,
        "subtype": "noteOn"
      },
      {
        "deltaTime": 960,
        "channel": 9,
        "type": "channel",
        "noteNumber": 38,
        "velocity": 0,
        "subtype": "noteOff"
      },
      {
        "deltaTime": 0,
        "channel": 9,
        "type": "channel",
        "noteNumber": 43,
        "velocity": 0,
        "subtype": "noteOff"
      },
      {
        "deltaTime": 0,
        "channel": 9,
        "type": "channel",
        "noteNumber": 36,
        "velocity": 0,
        "subtype": "noteOff"
      },
      {
        "deltaTime": 0,
        "channel": 9,
        "type": "channel",
        "noteNumber": 49,
        "velocity": 121,
        "subtype": "noteOn"
      },
      {
        "deltaTime": 0,
        "channel": 9,
        "type": "channel",
        "noteNumber": 35,
        "velocity": 121,
        "subtype": "noteOn"
      },
      {
        "deltaTime": 720,
        "channel": 9,
        "type": "channel",
        "noteNumber": 35,
        "velocity": 0,
        "subtype": "noteOff"
      },
      {
        "deltaTime": 0,
        "channel": 9,
        "type": "channel",
        "noteNumber": 49,
        "velocity": 0,
        "subtype": "noteOff"
      },
      {
        "deltaTime": 0,
        "channel": 9,
        "type": "channel",
        "noteNumber": 49,
        "velocity": 121,
        "subtype": "noteOn"
      },
      {
        "deltaTime": 0,
        "channel": 9,
        "type": "channel",
        "noteNumber": 35,
        "velocity": 121,
        "subtype": "noteOn"
      },
      {
        "deltaTime": 720,
        "channel": 9,
        "type": "channel",
        "noteNumber": 35,
        "velocity": 0,
        "subtype": "noteOff"
      },
      {
        "deltaTime": 0,
        "channel": 9,
        "type": "channel",
        "noteNumber": 49,
        "velocity": 0,
        "subtype": "noteOff"
      },
      {
        "deltaTime": 0,
        "channel": 9,
        "type": "channel",
        "noteNumber": 49,
        "velocity": 121,
        "subtype": "noteOn"
      },
      {
        "deltaTime": 0,
        "channel": 9,
        "type": "channel",
        "noteNumber": 35,
        "velocity": 121,
        "subtype": "noteOn"
      },
      {
        "deltaTime": 240,
        "channel": 9,
        "type": "channel",
        "noteNumber": 35,
        "velocity": 0,
        "subtype": "noteOff"
      },
      {
        "deltaTime": 0,
        "channel": 9,
        "type": "channel",
        "noteNumber": 49,
        "velocity": 0,
        "subtype": "noteOff"
      },
      {
        "deltaTime": 0,
        "channel": 9,
        "type": "channel",
        "noteNumber": 38,
        "velocity": 76,
        "subtype": "noteOn"
      },
      {
        "deltaTime": 240,
        "channel": 9,
        "type": "channel",
        "noteNumber": 38,
        "velocity": 0,
        "subtype": "noteOff"
      },
      {
        "deltaTime": 0,
        "channel": 9,
        "type": "channel",
        "noteNumber": 38,
        "velocity": 121,
        "subtype": "noteOn"
      },
      {
        "deltaTime": 240,
        "channel": 9,
        "type": "channel",
        "noteNumber": 38,
        "velocity": 0,
        "subtype": "noteOff"
      },
      {
        "deltaTime": 0,
        "channel": 9,
        "type": "channel",
        "noteNumber": 38,
        "velocity": 121,
        "subtype": "noteOn"
      },
      {
        "deltaTime": 240,
        "channel": 9,
        "type": "channel",
        "noteNumber": 38,
        "velocity": 0,
        "subtype": "noteOff"
      },
      {
        "deltaTime": 0,
        "channel": 9,
        "type": "channel",
        "noteNumber": 38,
        "velocity": 121,
        "subtype": "noteOn"
      },
      {
        "deltaTime": 240,
        "channel": 9,
        "type": "channel",
        "noteNumber": 38,
        "velocity": 0,
        "subtype": "noteOff"
      },
      {
        "deltaTime": 0,
        "channel": 9,
        "type": "channel",
        "noteNumber": 38,
        "velocity": 121,
        "subtype": "noteOn"
      },
      {
        "deltaTime": 240,
        "channel": 9,
        "type": "channel",
        "noteNumber": 38,
        "velocity": 0,
        "subtype": "noteOff"
      },
      {
        "deltaTime": 0,
        "channel": 9,
        "type": "channel",
        "noteNumber": 49,
        "velocity": 121,
        "subtype": "noteOn"
      },
      {
        "deltaTime": 0,
        "channel": 9,
        "type": "channel",
        "noteNumber": 35,
        "velocity": 121,
        "subtype": "noteOn"
      },
      {
        "deltaTime": 720,
        "channel": 9,
        "type": "channel",
        "noteNumber": 35,
        "velocity": 0,
        "subtype": "noteOff"
      },
      {
        "deltaTime": 0,
        "channel": 9,
        "type": "channel",
        "noteNumber": 49,
        "velocity": 0,
        "subtype": "noteOff"
      },
      {
        "deltaTime": 0,
        "channel": 9,
        "type": "channel",
        "noteNumber": 49,
        "velocity": 121,
        "subtype": "noteOn"
      },
      {
        "deltaTime": 0,
        "channel": 9,
        "type": "channel",
        "noteNumber": 35,
        "velocity": 121,
        "subtype": "noteOn"
      },
      {
        "deltaTime": 720,
        "channel": 9,
        "type": "channel",
        "noteNumber": 35,
        "velocity": 0,
        "subtype": "noteOff"
      },
      {
        "deltaTime": 0,
        "channel": 9,
        "type": "channel",
        "noteNumber": 49,
        "velocity": 0,
        "subtype": "noteOff"
      },
      {
        "deltaTime": 0,
        "channel": 9,
        "type": "channel",
        "noteNumber": 49,
        "velocity": 121,
        "subtype": "noteOn"
      },
      {
        "deltaTime": 0,
        "channel": 9,
        "type": "channel",
        "noteNumber": 35,
        "velocity": 121,
        "subtype": "noteOn"
      },
      {
        "deltaTime": 240,
        "channel": 9,
        "type": "channel",
        "noteNumber": 35,
        "velocity": 0,
        "subtype": "noteOff"
      },
      {
        "deltaTime": 0,
        "channel": 9,
        "type": "channel",
        "noteNumber": 49,
        "velocity": 0,
        "subtype": "noteOff"
      },
      {
        "deltaTime": 0,
        "channel": 9,
        "type": "channel",
        "noteNumber": 38,
        "velocity": 76,
        "subtype": "noteOn"
      },
      {
        "deltaTime": 240,
        "channel": 9,
        "type": "channel",
        "noteNumber": 38,
        "velocity": 0,
        "subtype": "noteOff"
      },
      {
        "deltaTime": 0,
        "channel": 9,
        "type": "channel",
        "noteNumber": 38,
        "velocity": 121,
        "subtype": "noteOn"
      },
      {
        "deltaTime": 240,
        "channel": 9,
        "type": "channel",
        "noteNumber": 38,
        "velocity": 0,
        "subtype": "noteOff"
      },
      {
        "deltaTime": 0,
        "channel": 9,
        "type": "channel",
        "noteNumber": 38,
        "velocity": 121,
        "subtype": "noteOn"
      },
      {
        "deltaTime": 240,
        "channel": 9,
        "type": "channel",
        "noteNumber": 38,
        "velocity": 0,
        "subtype": "noteOff"
      },
      {
        "deltaTime": 0,
        "channel": 9,
        "type": "channel",
        "noteNumber": 38,
        "velocity": 121,
        "subtype": "noteOn"
      },
      {
        "deltaTime": 240,
        "channel": 9,
        "type": "channel",
        "noteNumber": 38,
        "velocity": 0,
        "subtype": "noteOff"
      },
      {
        "deltaTime": 0,
        "channel": 9,
        "type": "channel",
        "noteNumber": 38,
        "velocity": 121,
        "subtype": "noteOn"
      },
      {
        "deltaTime": 240,
        "channel": 9,
        "type": "channel",
        "noteNumber": 38,
        "velocity": 0,
        "subtype": "noteOff"
      },
      {
        "deltaTime": 0,
        "channel": 9,
        "type": "channel",
        "noteNumber": 49,
        "velocity": 121,
        "subtype": "noteOn"
      },
      {
        "deltaTime": 0,
        "channel": 9,
        "type": "channel",
        "noteNumber": 35,
        "velocity": 121,
        "subtype": "noteOn"
      },
      {
        "deltaTime": 720,
        "channel": 9,
        "type": "channel",
        "noteNumber": 35,
        "velocity": 0,
        "subtype": "noteOff"
      },
      {
        "deltaTime": 0,
        "channel": 9,
        "type": "channel",
        "noteNumber": 49,
        "velocity": 0,
        "subtype": "noteOff"
      },
      {
        "deltaTime": 0,
        "channel": 9,
        "type": "channel",
        "noteNumber": 49,
        "velocity": 121,
        "subtype": "noteOn"
      },
      {
        "deltaTime": 0,
        "channel": 9,
        "type": "channel",
        "noteNumber": 35,
        "velocity": 121,
        "subtype": "noteOn"
      },
      {
        "deltaTime": 720,
        "channel": 9,
        "type": "channel",
        "noteNumber": 35,
        "velocity": 0,
        "subtype": "noteOff"
      },
      {
        "deltaTime": 0,
        "channel": 9,
        "type": "channel",
        "noteNumber": 49,
        "velocity": 0,
        "subtype": "noteOff"
      },
      {
        "deltaTime": 0,
        "channel": 9,
        "type": "channel",
        "noteNumber": 49,
        "velocity": 121,
        "subtype": "noteOn"
      },
      {
        "deltaTime": 0,
        "channel": 9,
        "type": "channel",
        "noteNumber": 35,
        "velocity": 121,
        "subtype": "noteOn"
      },
      {
        "deltaTime": 240,
        "channel": 9,
        "type": "channel",
        "noteNumber": 35,
        "velocity": 0,
        "subtype": "noteOff"
      },
      {
        "deltaTime": 0,
        "channel": 9,
        "type": "channel",
        "noteNumber": 49,
        "velocity": 0,
        "subtype": "noteOff"
      },
      {
        "deltaTime": 0,
        "channel": 9,
        "type": "channel",
        "noteNumber": 38,
        "velocity": 76,
        "subtype": "noteOn"
      },
      {
        "deltaTime": 240,
        "channel": 9,
        "type": "channel",
        "noteNumber": 38,
        "velocity": 0,
        "subtype": "noteOff"
      },
      {
        "deltaTime": 0,
        "channel": 9,
        "type": "channel",
        "noteNumber": 38,
        "velocity": 121,
        "subtype": "noteOn"
      },
      {
        "deltaTime": 240,
        "channel": 9,
        "type": "channel",
        "noteNumber": 38,
        "velocity": 0,
        "subtype": "noteOff"
      },
      {
        "deltaTime": 0,
        "channel": 9,
        "type": "channel",
        "noteNumber": 38,
        "velocity": 121,
        "subtype": "noteOn"
      },
      {
        "deltaTime": 240,
        "channel": 9,
        "type": "channel",
        "noteNumber": 38,
        "velocity": 0,
        "subtype": "noteOff"
      },
      {
        "deltaTime": 0,
        "channel": 9,
        "type": "channel",
        "noteNumber": 38,
        "velocity": 121,
        "subtype": "noteOn"
      },
      {
        "deltaTime": 240,
        "channel": 9,
        "type": "channel",
        "noteNumber": 38,
        "velocity": 0,
        "subtype": "noteOff"
      },
      {
        "deltaTime": 0,
        "channel": 9,
        "type": "channel",
        "noteNumber": 38,
        "velocity": 121,
        "subtype": "noteOn"
      },
      {
        "deltaTime": 240,
        "channel": 9,
        "type": "channel",
        "noteNumber": 38,
        "velocity": 0,
        "subtype": "noteOff"
      },
      {
        "deltaTime": 0,
        "channel": 9,
        "type": "channel",
        "noteNumber": 49,
        "velocity": 121,
        "subtype": "noteOn"
      },
      {
        "deltaTime": 0,
        "channel": 9,
        "type": "channel",
        "noteNumber": 35,
        "velocity": 121,
        "subtype": "noteOn"
      },
      {
        "deltaTime": 720,
        "channel": 9,
        "type": "channel",
        "noteNumber": 35,
        "velocity": 0,
        "subtype": "noteOff"
      },
      {
        "deltaTime": 0,
        "channel": 9,
        "type": "channel",
        "noteNumber": 49,
        "velocity": 0,
        "subtype": "noteOff"
      },
      {
        "deltaTime": 0,
        "channel": 9,
        "type": "channel",
        "noteNumber": 49,
        "velocity": 121,
        "subtype": "noteOn"
      },
      {
        "deltaTime": 0,
        "channel": 9,
        "type": "channel",
        "noteNumber": 35,
        "velocity": 121,
        "subtype": "noteOn"
      },
      {
        "deltaTime": 720,
        "channel": 9,
        "type": "channel",
        "noteNumber": 35,
        "velocity": 0,
        "subtype": "noteOff"
      },
      {
        "deltaTime": 0,
        "channel": 9,
        "type": "channel",
        "noteNumber": 49,
        "velocity": 0,
        "subtype": "noteOff"
      },
      {
        "deltaTime": 0,
        "channel": 9,
        "type": "channel",
        "noteNumber": 49,
        "velocity": 121,
        "subtype": "noteOn"
      },
      {
        "deltaTime": 0,
        "channel": 9,
        "type": "channel",
        "noteNumber": 35,
        "velocity": 121,
        "subtype": "noteOn"
      },
      {
        "deltaTime": 480,
        "channel": 9,
        "type": "channel",
        "noteNumber": 35,
        "velocity": 0,
        "subtype": "noteOff"
      },
      {
        "deltaTime": 0,
        "channel": 9,
        "type": "channel",
        "noteNumber": 49,
        "velocity": 0,
        "subtype": "noteOff"
      },
      {
        "deltaTime": 0,
        "channel": 9,
        "type": "channel",
        "noteNumber": 57,
        "velocity": 121,
        "subtype": "noteOn"
      },
      {
        "deltaTime": 0,
        "channel": 9,
        "type": "channel",
        "noteNumber": 38,
        "velocity": 121,
        "subtype": "noteOn"
      },
      {
        "deltaTime": 960,
        "channel": 9,
        "type": "channel",
        "noteNumber": 38,
        "velocity": 0,
        "subtype": "noteOff"
      },
      {
        "deltaTime": 0,
        "channel": 9,
        "type": "channel",
        "noteNumber": 57,
        "velocity": 0,
        "subtype": "noteOff"
      },
      {
        "deltaTime": 0,
        "channel": 9,
        "type": "channel",
        "noteNumber": 57,
        "velocity": 121,
        "subtype": "noteOn"
      },
      {
        "deltaTime": 0,
        "channel": 9,
        "type": "channel",
        "noteNumber": 49,
        "velocity": 121,
        "subtype": "noteOn"
      },
      {
        "deltaTime": 0,
        "channel": 9,
        "type": "channel",
        "noteNumber": 35,
        "velocity": 121,
        "subtype": "noteOn"
      },
      {
        "deltaTime": 720,
        "channel": 9,
        "type": "channel",
        "noteNumber": 35,
        "velocity": 0,
        "subtype": "noteOff"
      },
      {
        "deltaTime": 0,
        "channel": 9,
        "type": "channel",
        "noteNumber": 49,
        "velocity": 0,
        "subtype": "noteOff"
      },
      {
        "deltaTime": 0,
        "channel": 9,
        "type": "channel",
        "noteNumber": 57,
        "velocity": 0,
        "subtype": "noteOff"
      },
      {
        "deltaTime": 0,
        "channel": 9,
        "type": "channel",
        "noteNumber": 57,
        "velocity": 121,
        "subtype": "noteOn"
      },
      {
        "deltaTime": 0,
        "channel": 9,
        "type": "channel",
        "noteNumber": 49,
        "velocity": 121,
        "subtype": "noteOn"
      },
      {
        "deltaTime": 0,
        "channel": 9,
        "type": "channel",
        "noteNumber": 35,
        "velocity": 121,
        "subtype": "noteOn"
      },
      {
        "deltaTime": 720,
        "channel": 9,
        "type": "channel",
        "noteNumber": 35,
        "velocity": 0,
        "subtype": "noteOff"
      },
      {
        "deltaTime": 0,
        "channel": 9,
        "type": "channel",
        "noteNumber": 49,
        "velocity": 0,
        "subtype": "noteOff"
      },
      {
        "deltaTime": 0,
        "channel": 9,
        "type": "channel",
        "noteNumber": 57,
        "velocity": 0,
        "subtype": "noteOff"
      },
      {
        "deltaTime": 0,
        "channel": 9,
        "type": "channel",
        "noteNumber": 57,
        "velocity": 121,
        "subtype": "noteOn"
      },
      {
        "deltaTime": 0,
        "channel": 9,
        "type": "channel",
        "noteNumber": 49,
        "velocity": 121,
        "subtype": "noteOn"
      },
      {
        "deltaTime": 0,
        "channel": 9,
        "type": "channel",
        "noteNumber": 35,
        "velocity": 121,
        "subtype": "noteOn"
      },
      {
        "deltaTime": 240,
        "channel": 9,
        "type": "channel",
        "noteNumber": 35,
        "velocity": 0,
        "subtype": "noteOff"
      },
      {
        "deltaTime": 0,
        "channel": 9,
        "type": "channel",
        "noteNumber": 49,
        "velocity": 0,
        "subtype": "noteOff"
      },
      {
        "deltaTime": 0,
        "channel": 9,
        "type": "channel",
        "noteNumber": 57,
        "velocity": 0,
        "subtype": "noteOff"
      },
      {
        "deltaTime": 240,
        "channel": 9,
        "type": "channel",
        "noteNumber": 38,
        "velocity": 121,
        "subtype": "noteOn"
      },
      {
        "deltaTime": 240,
        "channel": 9,
        "type": "channel",
        "noteNumber": 38,
        "velocity": 0,
        "subtype": "noteOff"
      },
      {
        "deltaTime": 0,
        "channel": 9,
        "type": "channel",
        "noteNumber": 38,
        "velocity": 121,
        "subtype": "noteOn"
      },
      {
        "deltaTime": 240,
        "channel": 9,
        "type": "channel",
        "noteNumber": 38,
        "velocity": 0,
        "subtype": "noteOff"
      },
      {
        "deltaTime": 0,
        "channel": 9,
        "type": "channel",
        "noteNumber": 38,
        "velocity": 121,
        "subtype": "noteOn"
      },
      {
        "deltaTime": 240,
        "channel": 9,
        "type": "channel",
        "noteNumber": 38,
        "velocity": 0,
        "subtype": "noteOff"
      },
      {
        "deltaTime": 0,
        "channel": 9,
        "type": "channel",
        "noteNumber": 38,
        "velocity": 121,
        "subtype": "noteOn"
      },
      {
        "deltaTime": 240,
        "channel": 9,
        "type": "channel",
        "noteNumber": 38,
        "velocity": 0,
        "subtype": "noteOff"
      },
      {
        "deltaTime": 0,
        "channel": 9,
        "type": "channel",
        "noteNumber": 49,
        "velocity": 121,
        "subtype": "noteOn"
      },
      {
        "deltaTime": 0,
        "channel": 9,
        "type": "channel",
        "noteNumber": 35,
        "velocity": 121,
        "subtype": "noteOn"
      },
      {
        "deltaTime": 720,
        "channel": 9,
        "type": "channel",
        "noteNumber": 35,
        "velocity": 0,
        "subtype": "noteOff"
      },
      {
        "deltaTime": 0,
        "channel": 9,
        "type": "channel",
        "noteNumber": 49,
        "velocity": 0,
        "subtype": "noteOff"
      },
      {
        "deltaTime": 0,
        "channel": 9,
        "type": "channel",
        "noteNumber": 49,
        "velocity": 121,
        "subtype": "noteOn"
      },
      {
        "deltaTime": 0,
        "channel": 9,
        "type": "channel",
        "noteNumber": 35,
        "velocity": 121,
        "subtype": "noteOn"
      },
      {
        "deltaTime": 720,
        "channel": 9,
        "type": "channel",
        "noteNumber": 35,
        "velocity": 0,
        "subtype": "noteOff"
      },
      {
        "deltaTime": 0,
        "channel": 9,
        "type": "channel",
        "noteNumber": 49,
        "velocity": 0,
        "subtype": "noteOff"
      },
      {
        "deltaTime": 0,
        "channel": 9,
        "type": "channel",
        "noteNumber": 49,
        "velocity": 121,
        "subtype": "noteOn"
      },
      {
        "deltaTime": 0,
        "channel": 9,
        "type": "channel",
        "noteNumber": 35,
        "velocity": 121,
        "subtype": "noteOn"
      },
      {
        "deltaTime": 240,
        "channel": 9,
        "type": "channel",
        "noteNumber": 35,
        "velocity": 0,
        "subtype": "noteOff"
      },
      {
        "deltaTime": 0,
        "channel": 9,
        "type": "channel",
        "noteNumber": 49,
        "velocity": 0,
        "subtype": "noteOff"
      },
      {
        "deltaTime": 0,
        "channel": 9,
        "type": "channel",
        "noteNumber": 38,
        "velocity": 76,
        "subtype": "noteOn"
      },
      {
        "deltaTime": 240,
        "channel": 9,
        "type": "channel",
        "noteNumber": 38,
        "velocity": 0,
        "subtype": "noteOff"
      },
      {
        "deltaTime": 0,
        "channel": 9,
        "type": "channel",
        "noteNumber": 38,
        "velocity": 121,
        "subtype": "noteOn"
      },
      {
        "deltaTime": 240,
        "channel": 9,
        "type": "channel",
        "noteNumber": 38,
        "velocity": 0,
        "subtype": "noteOff"
      },
      {
        "deltaTime": 0,
        "channel": 9,
        "type": "channel",
        "noteNumber": 38,
        "velocity": 121,
        "subtype": "noteOn"
      },
      {
        "deltaTime": 240,
        "channel": 9,
        "type": "channel",
        "noteNumber": 38,
        "velocity": 0,
        "subtype": "noteOff"
      },
      {
        "deltaTime": 0,
        "channel": 9,
        "type": "channel",
        "noteNumber": 38,
        "velocity": 121,
        "subtype": "noteOn"
      },
      {
        "deltaTime": 240,
        "channel": 9,
        "type": "channel",
        "noteNumber": 38,
        "velocity": 0,
        "subtype": "noteOff"
      },
      {
        "deltaTime": 0,
        "channel": 9,
        "type": "channel",
        "noteNumber": 38,
        "velocity": 121,
        "subtype": "noteOn"
      },
      {
        "deltaTime": 240,
        "channel": 9,
        "type": "channel",
        "noteNumber": 38,
        "velocity": 0,
        "subtype": "noteOff"
      },
      {
        "deltaTime": 0,
        "channel": 9,
        "type": "channel",
        "noteNumber": 49,
        "velocity": 121,
        "subtype": "noteOn"
      },
      {
        "deltaTime": 0,
        "channel": 9,
        "type": "channel",
        "noteNumber": 35,
        "velocity": 121,
        "subtype": "noteOn"
      },
      {
        "deltaTime": 720,
        "channel": 9,
        "type": "channel",
        "noteNumber": 35,
        "velocity": 0,
        "subtype": "noteOff"
      },
      {
        "deltaTime": 0,
        "channel": 9,
        "type": "channel",
        "noteNumber": 49,
        "velocity": 0,
        "subtype": "noteOff"
      },
      {
        "deltaTime": 0,
        "channel": 9,
        "type": "channel",
        "noteNumber": 49,
        "velocity": 121,
        "subtype": "noteOn"
      },
      {
        "deltaTime": 0,
        "channel": 9,
        "type": "channel",
        "noteNumber": 35,
        "velocity": 121,
        "subtype": "noteOn"
      },
      {
        "deltaTime": 720,
        "channel": 9,
        "type": "channel",
        "noteNumber": 35,
        "velocity": 0,
        "subtype": "noteOff"
      },
      {
        "deltaTime": 0,
        "channel": 9,
        "type": "channel",
        "noteNumber": 49,
        "velocity": 0,
        "subtype": "noteOff"
      },
      {
        "deltaTime": 0,
        "channel": 9,
        "type": "channel",
        "noteNumber": 49,
        "velocity": 121,
        "subtype": "noteOn"
      },
      {
        "deltaTime": 0,
        "channel": 9,
        "type": "channel",
        "noteNumber": 35,
        "velocity": 121,
        "subtype": "noteOn"
      },
      {
        "deltaTime": 240,
        "channel": 9,
        "type": "channel",
        "noteNumber": 35,
        "velocity": 0,
        "subtype": "noteOff"
      },
      {
        "deltaTime": 0,
        "channel": 9,
        "type": "channel",
        "noteNumber": 49,
        "velocity": 0,
        "subtype": "noteOff"
      },
      {
        "deltaTime": 0,
        "channel": 9,
        "type": "channel",
        "noteNumber": 38,
        "velocity": 76,
        "subtype": "noteOn"
      },
      {
        "deltaTime": 240,
        "channel": 9,
        "type": "channel",
        "noteNumber": 38,
        "velocity": 0,
        "subtype": "noteOff"
      },
      {
        "deltaTime": 0,
        "channel": 9,
        "type": "channel",
        "noteNumber": 38,
        "velocity": 121,
        "subtype": "noteOn"
      },
      {
        "deltaTime": 240,
        "channel": 9,
        "type": "channel",
        "noteNumber": 38,
        "velocity": 0,
        "subtype": "noteOff"
      },
      {
        "deltaTime": 0,
        "channel": 9,
        "type": "channel",
        "noteNumber": 38,
        "velocity": 121,
        "subtype": "noteOn"
      },
      {
        "deltaTime": 240,
        "channel": 9,
        "type": "channel",
        "noteNumber": 38,
        "velocity": 0,
        "subtype": "noteOff"
      },
      {
        "deltaTime": 0,
        "channel": 9,
        "type": "channel",
        "noteNumber": 38,
        "velocity": 121,
        "subtype": "noteOn"
      },
      {
        "deltaTime": 240,
        "channel": 9,
        "type": "channel",
        "noteNumber": 38,
        "velocity": 0,
        "subtype": "noteOff"
      },
      {
        "deltaTime": 0,
        "channel": 9,
        "type": "channel",
        "noteNumber": 38,
        "velocity": 121,
        "subtype": "noteOn"
      },
      {
        "deltaTime": 240,
        "channel": 9,
        "type": "channel",
        "noteNumber": 38,
        "velocity": 0,
        "subtype": "noteOff"
      },
      {
        "deltaTime": 0,
        "channel": 9,
        "type": "channel",
        "noteNumber": 49,
        "velocity": 121,
        "subtype": "noteOn"
      },
      {
        "deltaTime": 0,
        "channel": 9,
        "type": "channel",
        "noteNumber": 35,
        "velocity": 121,
        "subtype": "noteOn"
      },
      {
        "deltaTime": 720,
        "channel": 9,
        "type": "channel",
        "noteNumber": 35,
        "velocity": 0,
        "subtype": "noteOff"
      },
      {
        "deltaTime": 0,
        "channel": 9,
        "type": "channel",
        "noteNumber": 49,
        "velocity": 0,
        "subtype": "noteOff"
      },
      {
        "deltaTime": 0,
        "channel": 9,
        "type": "channel",
        "noteNumber": 49,
        "velocity": 121,
        "subtype": "noteOn"
      },
      {
        "deltaTime": 0,
        "channel": 9,
        "type": "channel",
        "noteNumber": 35,
        "velocity": 121,
        "subtype": "noteOn"
      },
      {
        "deltaTime": 720,
        "channel": 9,
        "type": "channel",
        "noteNumber": 35,
        "velocity": 0,
        "subtype": "noteOff"
      },
      {
        "deltaTime": 0,
        "channel": 9,
        "type": "channel",
        "noteNumber": 49,
        "velocity": 0,
        "subtype": "noteOff"
      },
      {
        "deltaTime": 0,
        "channel": 9,
        "type": "channel",
        "noteNumber": 49,
        "velocity": 121,
        "subtype": "noteOn"
      },
      {
        "deltaTime": 0,
        "channel": 9,
        "type": "channel",
        "noteNumber": 35,
        "velocity": 121,
        "subtype": "noteOn"
      },
      {
        "deltaTime": 480,
        "channel": 9,
        "type": "channel",
        "noteNumber": 35,
        "velocity": 0,
        "subtype": "noteOff"
      },
      {
        "deltaTime": 0,
        "channel": 9,
        "type": "channel",
        "noteNumber": 49,
        "velocity": 0,
        "subtype": "noteOff"
      },
      {
        "deltaTime": 0,
        "channel": 9,
        "type": "channel",
        "noteNumber": 57,
        "velocity": 121,
        "subtype": "noteOn"
      },
      {
        "deltaTime": 0,
        "channel": 9,
        "type": "channel",
        "noteNumber": 35,
        "velocity": 121,
        "subtype": "noteOn"
      },
      {
        "deltaTime": 960,
        "channel": 9,
        "type": "channel",
        "noteNumber": 35,
        "velocity": 0,
        "subtype": "noteOff"
      },
      {
        "deltaTime": 0,
        "channel": 9,
        "type": "channel",
        "noteNumber": 57,
        "velocity": 0,
        "subtype": "noteOff"
      },
      {
        "deltaTime": 0,
        "channel": 9,
        "type": "channel",
        "noteNumber": 49,
        "velocity": 121,
        "subtype": "noteOn"
      },
      {
        "deltaTime": 0,
        "channel": 9,
        "type": "channel",
        "noteNumber": 35,
        "velocity": 121,
        "subtype": "noteOn"
      },
      {
        "deltaTime": 720,
        "channel": 9,
        "type": "channel",
        "noteNumber": 35,
        "velocity": 0,
        "subtype": "noteOff"
      },
      {
        "deltaTime": 0,
        "channel": 9,
        "type": "channel",
        "noteNumber": 49,
        "velocity": 0,
        "subtype": "noteOff"
      },
      {
        "deltaTime": 0,
        "channel": 9,
        "type": "channel",
        "noteNumber": 35,
        "velocity": 121,
        "subtype": "noteOn"
      },
      {
        "deltaTime": 240,
        "channel": 9,
        "type": "channel",
        "noteNumber": 35,
        "velocity": 0,
        "subtype": "noteOff"
      },
      {
        "deltaTime": 0,
        "channel": 9,
        "type": "channel",
        "noteNumber": 42,
        "velocity": 121,
        "subtype": "noteOn"
      },
      {
        "deltaTime": 480,
        "channel": 9,
        "type": "channel",
        "noteNumber": 42,
        "velocity": 0,
        "subtype": "noteOff"
      },
      {
        "deltaTime": 0,
        "channel": 9,
        "type": "channel",
        "noteNumber": 35,
        "velocity": 121,
        "subtype": "noteOn"
      },
      {
        "deltaTime": 480,
        "channel": 9,
        "type": "channel",
        "noteNumber": 35,
        "velocity": 0,
        "subtype": "noteOff"
      },
      {
        "deltaTime": 0,
        "channel": 9,
        "type": "channel",
        "noteNumber": 54,
        "velocity": 121,
        "subtype": "noteOn"
      },
      {
        "deltaTime": 0,
        "channel": 9,
        "type": "channel",
        "noteNumber": 42,
        "velocity": 121,
        "subtype": "noteOn"
      },
      {
        "deltaTime": 0,
        "channel": 9,
        "type": "channel",
        "noteNumber": 38,
        "velocity": 121,
        "subtype": "noteOn"
      },
      {
        "deltaTime": 480,
        "channel": 9,
        "type": "channel",
        "noteNumber": 38,
        "velocity": 0,
        "subtype": "noteOff"
      },
      {
        "deltaTime": 0,
        "channel": 9,
        "type": "channel",
        "noteNumber": 42,
        "velocity": 0,
        "subtype": "noteOff"
      },
      {
        "deltaTime": 0,
        "channel": 9,
        "type": "channel",
        "noteNumber": 54,
        "velocity": 0,
        "subtype": "noteOff"
      },
      {
        "deltaTime": 0,
        "channel": 9,
        "type": "channel",
        "noteNumber": 42,
        "velocity": 121,
        "subtype": "noteOn"
      },
      {
        "deltaTime": 480,
        "channel": 9,
        "type": "channel",
        "noteNumber": 42,
        "velocity": 0,
        "subtype": "noteOff"
      },
      {
        "deltaTime": 0,
        "channel": 9,
        "type": "channel",
        "noteNumber": 42,
        "velocity": 121,
        "subtype": "noteOn"
      },
      {
        "deltaTime": 0,
        "channel": 9,
        "type": "channel",
        "noteNumber": 35,
        "velocity": 121,
        "subtype": "noteOn"
      },
      {
        "deltaTime": 480,
        "channel": 9,
        "type": "channel",
        "noteNumber": 35,
        "velocity": 0,
        "subtype": "noteOff"
      },
      {
        "deltaTime": 0,
        "channel": 9,
        "type": "channel",
        "noteNumber": 42,
        "velocity": 0,
        "subtype": "noteOff"
      },
      {
        "deltaTime": 0,
        "channel": 9,
        "type": "channel",
        "noteNumber": 42,
        "velocity": 121,
        "subtype": "noteOn"
      },
      {
        "deltaTime": 240,
        "channel": 9,
        "type": "channel",
        "noteNumber": 42,
        "velocity": 0,
        "subtype": "noteOff"
      },
      {
        "deltaTime": 0,
        "channel": 9,
        "type": "channel",
        "noteNumber": 35,
        "velocity": 121,
        "subtype": "noteOn"
      },
      {
        "deltaTime": 240,
        "channel": 9,
        "type": "channel",
        "noteNumber": 35,
        "velocity": 0,
        "subtype": "noteOff"
      },
      {
        "deltaTime": 0,
        "channel": 9,
        "type": "channel",
        "noteNumber": 42,
        "velocity": 121,
        "subtype": "noteOn"
      },
      {
        "deltaTime": 480,
        "channel": 9,
        "type": "channel",
        "noteNumber": 42,
        "velocity": 0,
        "subtype": "noteOff"
      },
      {
        "deltaTime": 0,
        "channel": 9,
        "type": "channel",
        "noteNumber": 42,
        "velocity": 121,
        "subtype": "noteOn"
      },
      {
        "deltaTime": 0,
        "channel": 9,
        "type": "channel",
        "noteNumber": 35,
        "velocity": 121,
        "subtype": "noteOn"
      },
      {
        "deltaTime": 480,
        "channel": 9,
        "type": "channel",
        "noteNumber": 35,
        "velocity": 0,
        "subtype": "noteOff"
      },
      {
        "deltaTime": 0,
        "channel": 9,
        "type": "channel",
        "noteNumber": 42,
        "velocity": 0,
        "subtype": "noteOff"
      },
      {
        "deltaTime": 0,
        "channel": 9,
        "type": "channel",
        "noteNumber": 54,
        "velocity": 121,
        "subtype": "noteOn"
      },
      {
        "deltaTime": 0,
        "channel": 9,
        "type": "channel",
        "noteNumber": 42,
        "velocity": 121,
        "subtype": "noteOn"
      },
      {
        "deltaTime": 0,
        "channel": 9,
        "type": "channel",
        "noteNumber": 38,
        "velocity": 121,
        "subtype": "noteOn"
      },
      {
        "deltaTime": 480,
        "channel": 9,
        "type": "channel",
        "noteNumber": 38,
        "velocity": 0,
        "subtype": "noteOff"
      },
      {
        "deltaTime": 0,
        "channel": 9,
        "type": "channel",
        "noteNumber": 42,
        "velocity": 0,
        "subtype": "noteOff"
      },
      {
        "deltaTime": 0,
        "channel": 9,
        "type": "channel",
        "noteNumber": 54,
        "velocity": 0,
        "subtype": "noteOff"
      },
      {
        "deltaTime": 0,
        "channel": 9,
        "type": "channel",
        "noteNumber": 42,
        "velocity": 121,
        "subtype": "noteOn"
      },
      {
        "deltaTime": 480,
        "channel": 9,
        "type": "channel",
        "noteNumber": 42,
        "velocity": 0,
        "subtype": "noteOff"
      },
      {
        "deltaTime": 0,
        "channel": 9,
        "type": "channel",
        "noteNumber": 42,
        "velocity": 121,
        "subtype": "noteOn"
      },
      {
        "deltaTime": 0,
        "channel": 9,
        "type": "channel",
        "noteNumber": 35,
        "velocity": 121,
        "subtype": "noteOn"
      },
      {
        "deltaTime": 480,
        "channel": 9,
        "type": "channel",
        "noteNumber": 35,
        "velocity": 0,
        "subtype": "noteOff"
      },
      {
        "deltaTime": 0,
        "channel": 9,
        "type": "channel",
        "noteNumber": 42,
        "velocity": 0,
        "subtype": "noteOff"
      },
      {
        "deltaTime": 0,
        "channel": 9,
        "type": "channel",
        "noteNumber": 42,
        "velocity": 121,
        "subtype": "noteOn"
      },
      {
        "deltaTime": 240,
        "channel": 9,
        "type": "channel",
        "noteNumber": 42,
        "velocity": 0,
        "subtype": "noteOff"
      },
      {
        "deltaTime": 0,
        "channel": 9,
        "type": "channel",
        "noteNumber": 35,
        "velocity": 121,
        "subtype": "noteOn"
      },
      {
        "deltaTime": 240,
        "channel": 9,
        "type": "channel",
        "noteNumber": 35,
        "velocity": 0,
        "subtype": "noteOff"
      },
      {
        "deltaTime": 0,
        "channel": 9,
        "type": "channel",
        "noteNumber": 42,
        "velocity": 121,
        "subtype": "noteOn"
      },
      {
        "deltaTime": 480,
        "channel": 9,
        "type": "channel",
        "noteNumber": 42,
        "velocity": 0,
        "subtype": "noteOff"
      },
      {
        "deltaTime": 0,
        "channel": 9,
        "type": "channel",
        "noteNumber": 42,
        "velocity": 121,
        "subtype": "noteOn"
      },
      {
        "deltaTime": 0,
        "channel": 9,
        "type": "channel",
        "noteNumber": 35,
        "velocity": 121,
        "subtype": "noteOn"
      },
      {
        "deltaTime": 480,
        "channel": 9,
        "type": "channel",
        "noteNumber": 35,
        "velocity": 0,
        "subtype": "noteOff"
      },
      {
        "deltaTime": 0,
        "channel": 9,
        "type": "channel",
        "noteNumber": 42,
        "velocity": 0,
        "subtype": "noteOff"
      },
      {
        "deltaTime": 0,
        "channel": 9,
        "type": "channel",
        "noteNumber": 54,
        "velocity": 121,
        "subtype": "noteOn"
      },
      {
        "deltaTime": 0,
        "channel": 9,
        "type": "channel",
        "noteNumber": 42,
        "velocity": 121,
        "subtype": "noteOn"
      },
      {
        "deltaTime": 0,
        "channel": 9,
        "type": "channel",
        "noteNumber": 38,
        "velocity": 121,
        "subtype": "noteOn"
      },
      {
        "deltaTime": 480,
        "channel": 9,
        "type": "channel",
        "noteNumber": 38,
        "velocity": 0,
        "subtype": "noteOff"
      },
      {
        "deltaTime": 0,
        "channel": 9,
        "type": "channel",
        "noteNumber": 42,
        "velocity": 0,
        "subtype": "noteOff"
      },
      {
        "deltaTime": 0,
        "channel": 9,
        "type": "channel",
        "noteNumber": 54,
        "velocity": 0,
        "subtype": "noteOff"
      },
      {
        "deltaTime": 0,
        "channel": 9,
        "type": "channel",
        "noteNumber": 42,
        "velocity": 121,
        "subtype": "noteOn"
      },
      {
        "deltaTime": 480,
        "channel": 9,
        "type": "channel",
        "noteNumber": 42,
        "velocity": 0,
        "subtype": "noteOff"
      },
      {
        "deltaTime": 0,
        "channel": 9,
        "type": "channel",
        "noteNumber": 42,
        "velocity": 121,
        "subtype": "noteOn"
      },
      {
        "deltaTime": 0,
        "channel": 9,
        "type": "channel",
        "noteNumber": 35,
        "velocity": 121,
        "subtype": "noteOn"
      },
      {
        "deltaTime": 480,
        "channel": 9,
        "type": "channel",
        "noteNumber": 35,
        "velocity": 0,
        "subtype": "noteOff"
      },
      {
        "deltaTime": 0,
        "channel": 9,
        "type": "channel",
        "noteNumber": 42,
        "velocity": 0,
        "subtype": "noteOff"
      },
      {
        "deltaTime": 0,
        "channel": 9,
        "type": "channel",
        "noteNumber": 42,
        "velocity": 121,
        "subtype": "noteOn"
      },
      {
        "deltaTime": 240,
        "channel": 9,
        "type": "channel",
        "noteNumber": 42,
        "velocity": 0,
        "subtype": "noteOff"
      },
      {
        "deltaTime": 0,
        "channel": 9,
        "type": "channel",
        "noteNumber": 35,
        "velocity": 121,
        "subtype": "noteOn"
      },
      {
        "deltaTime": 240,
        "channel": 9,
        "type": "channel",
        "noteNumber": 35,
        "velocity": 0,
        "subtype": "noteOff"
      },
      {
        "deltaTime": 0,
        "channel": 9,
        "type": "channel",
        "noteNumber": 42,
        "velocity": 121,
        "subtype": "noteOn"
      },
      {
        "deltaTime": 480,
        "channel": 9,
        "type": "channel",
        "noteNumber": 42,
        "velocity": 0,
        "subtype": "noteOff"
      },
      {
        "deltaTime": 0,
        "channel": 9,
        "type": "channel",
        "noteNumber": 42,
        "velocity": 121,
        "subtype": "noteOn"
      },
      {
        "deltaTime": 0,
        "channel": 9,
        "type": "channel",
        "noteNumber": 35,
        "velocity": 121,
        "subtype": "noteOn"
      },
      {
        "deltaTime": 480,
        "channel": 9,
        "type": "channel",
        "noteNumber": 35,
        "velocity": 0,
        "subtype": "noteOff"
      },
      {
        "deltaTime": 0,
        "channel": 9,
        "type": "channel",
        "noteNumber": 42,
        "velocity": 0,
        "subtype": "noteOff"
      },
      {
        "deltaTime": 0,
        "channel": 9,
        "type": "channel",
        "noteNumber": 54,
        "velocity": 121,
        "subtype": "noteOn"
      },
      {
        "deltaTime": 0,
        "channel": 9,
        "type": "channel",
        "noteNumber": 38,
        "velocity": 121,
        "subtype": "noteOn"
      },
      {
        "deltaTime": 240,
        "channel": 9,
        "type": "channel",
        "noteNumber": 38,
        "velocity": 0,
        "subtype": "noteOff"
      },
      {
        "deltaTime": 0,
        "channel": 9,
        "type": "channel",
        "noteNumber": 38,
        "velocity": 121,
        "subtype": "noteOn"
      },
      {
        "deltaTime": 240,
        "channel": 9,
        "type": "channel",
        "noteNumber": 38,
        "velocity": 0,
        "subtype": "noteOff"
      },
      {
        "deltaTime": 0,
        "channel": 9,
        "type": "channel",
        "noteNumber": 54,
        "velocity": 0,
        "subtype": "noteOff"
      },
      {
        "deltaTime": 0,
        "channel": 9,
        "type": "channel",
        "noteNumber": 46,
        "velocity": 121,
        "subtype": "noteOn"
      },
      {
        "deltaTime": 480,
        "channel": 9,
        "type": "channel",
        "noteNumber": 46,
        "velocity": 0,
        "subtype": "noteOff"
      },
      {
        "deltaTime": 0,
        "channel": 9,
        "type": "channel",
        "noteNumber": 49,
        "velocity": 121,
        "subtype": "noteOn"
      },
      {
        "deltaTime": 0,
        "channel": 9,
        "type": "channel",
        "noteNumber": 35,
        "velocity": 121,
        "subtype": "noteOn"
      },
      {
        "deltaTime": 720,
        "channel": 9,
        "type": "channel",
        "noteNumber": 35,
        "velocity": 0,
        "subtype": "noteOff"
      },
      {
        "deltaTime": 0,
        "channel": 9,
        "type": "channel",
        "noteNumber": 49,
        "velocity": 0,
        "subtype": "noteOff"
      },
      {
        "deltaTime": 0,
        "channel": 9,
        "type": "channel",
        "noteNumber": 35,
        "velocity": 121,
        "subtype": "noteOn"
      },
      {
        "deltaTime": 240,
        "channel": 9,
        "type": "channel",
        "noteNumber": 35,
        "velocity": 0,
        "subtype": "noteOff"
      },
      {
        "deltaTime": 0,
        "channel": 9,
        "type": "channel",
        "noteNumber": 42,
        "velocity": 121,
        "subtype": "noteOn"
      },
      {
        "deltaTime": 480,
        "channel": 9,
        "type": "channel",
        "noteNumber": 42,
        "velocity": 0,
        "subtype": "noteOff"
      },
      {
        "deltaTime": 0,
        "channel": 9,
        "type": "channel",
        "noteNumber": 35,
        "velocity": 121,
        "subtype": "noteOn"
      },
      {
        "deltaTime": 480,
        "channel": 9,
        "type": "channel",
        "noteNumber": 35,
        "velocity": 0,
        "subtype": "noteOff"
      },
      {
        "deltaTime": 0,
        "channel": 9,
        "type": "channel",
        "noteNumber": 54,
        "velocity": 121,
        "subtype": "noteOn"
      },
      {
        "deltaTime": 0,
        "channel": 9,
        "type": "channel",
        "noteNumber": 42,
        "velocity": 121,
        "subtype": "noteOn"
      },
      {
        "deltaTime": 0,
        "channel": 9,
        "type": "channel",
        "noteNumber": 38,
        "velocity": 121,
        "subtype": "noteOn"
      },
      {
        "deltaTime": 480,
        "channel": 9,
        "type": "channel",
        "noteNumber": 38,
        "velocity": 0,
        "subtype": "noteOff"
      },
      {
        "deltaTime": 0,
        "channel": 9,
        "type": "channel",
        "noteNumber": 42,
        "velocity": 0,
        "subtype": "noteOff"
      },
      {
        "deltaTime": 0,
        "channel": 9,
        "type": "channel",
        "noteNumber": 54,
        "velocity": 0,
        "subtype": "noteOff"
      },
      {
        "deltaTime": 0,
        "channel": 9,
        "type": "channel",
        "noteNumber": 42,
        "velocity": 121,
        "subtype": "noteOn"
      },
      {
        "deltaTime": 480,
        "channel": 9,
        "type": "channel",
        "noteNumber": 42,
        "velocity": 0,
        "subtype": "noteOff"
      },
      {
        "deltaTime": 0,
        "channel": 9,
        "type": "channel",
        "noteNumber": 42,
        "velocity": 121,
        "subtype": "noteOn"
      },
      {
        "deltaTime": 0,
        "channel": 9,
        "type": "channel",
        "noteNumber": 35,
        "velocity": 121,
        "subtype": "noteOn"
      },
      {
        "deltaTime": 480,
        "channel": 9,
        "type": "channel",
        "noteNumber": 35,
        "velocity": 0,
        "subtype": "noteOff"
      },
      {
        "deltaTime": 0,
        "channel": 9,
        "type": "channel",
        "noteNumber": 42,
        "velocity": 0,
        "subtype": "noteOff"
      },
      {
        "deltaTime": 0,
        "channel": 9,
        "type": "channel",
        "noteNumber": 42,
        "velocity": 121,
        "subtype": "noteOn"
      },
      {
        "deltaTime": 240,
        "channel": 9,
        "type": "channel",
        "noteNumber": 42,
        "velocity": 0,
        "subtype": "noteOff"
      },
      {
        "deltaTime": 0,
        "channel": 9,
        "type": "channel",
        "noteNumber": 35,
        "velocity": 121,
        "subtype": "noteOn"
      },
      {
        "deltaTime": 240,
        "channel": 9,
        "type": "channel",
        "noteNumber": 35,
        "velocity": 0,
        "subtype": "noteOff"
      },
      {
        "deltaTime": 0,
        "channel": 9,
        "type": "channel",
        "noteNumber": 42,
        "velocity": 121,
        "subtype": "noteOn"
      },
      {
        "deltaTime": 480,
        "channel": 9,
        "type": "channel",
        "noteNumber": 42,
        "velocity": 0,
        "subtype": "noteOff"
      },
      {
        "deltaTime": 0,
        "channel": 9,
        "type": "channel",
        "noteNumber": 42,
        "velocity": 121,
        "subtype": "noteOn"
      },
      {
        "deltaTime": 0,
        "channel": 9,
        "type": "channel",
        "noteNumber": 35,
        "velocity": 121,
        "subtype": "noteOn"
      },
      {
        "deltaTime": 480,
        "channel": 9,
        "type": "channel",
        "noteNumber": 35,
        "velocity": 0,
        "subtype": "noteOff"
      },
      {
        "deltaTime": 0,
        "channel": 9,
        "type": "channel",
        "noteNumber": 42,
        "velocity": 0,
        "subtype": "noteOff"
      },
      {
        "deltaTime": 0,
        "channel": 9,
        "type": "channel",
        "noteNumber": 54,
        "velocity": 121,
        "subtype": "noteOn"
      },
      {
        "deltaTime": 0,
        "channel": 9,
        "type": "channel",
        "noteNumber": 42,
        "velocity": 121,
        "subtype": "noteOn"
      },
      {
        "deltaTime": 0,
        "channel": 9,
        "type": "channel",
        "noteNumber": 38,
        "velocity": 121,
        "subtype": "noteOn"
      },
      {
        "deltaTime": 480,
        "channel": 9,
        "type": "channel",
        "noteNumber": 38,
        "velocity": 0,
        "subtype": "noteOff"
      },
      {
        "deltaTime": 0,
        "channel": 9,
        "type": "channel",
        "noteNumber": 42,
        "velocity": 0,
        "subtype": "noteOff"
      },
      {
        "deltaTime": 0,
        "channel": 9,
        "type": "channel",
        "noteNumber": 54,
        "velocity": 0,
        "subtype": "noteOff"
      },
      {
        "deltaTime": 0,
        "channel": 9,
        "type": "channel",
        "noteNumber": 42,
        "velocity": 121,
        "subtype": "noteOn"
      },
      {
        "deltaTime": 480,
        "channel": 9,
        "type": "channel",
        "noteNumber": 42,
        "velocity": 0,
        "subtype": "noteOff"
      },
      {
        "deltaTime": 0,
        "channel": 9,
        "type": "channel",
        "noteNumber": 42,
        "velocity": 121,
        "subtype": "noteOn"
      },
      {
        "deltaTime": 0,
        "channel": 9,
        "type": "channel",
        "noteNumber": 35,
        "velocity": 121,
        "subtype": "noteOn"
      },
      {
        "deltaTime": 480,
        "channel": 9,
        "type": "channel",
        "noteNumber": 35,
        "velocity": 0,
        "subtype": "noteOff"
      },
      {
        "deltaTime": 0,
        "channel": 9,
        "type": "channel",
        "noteNumber": 42,
        "velocity": 0,
        "subtype": "noteOff"
      },
      {
        "deltaTime": 0,
        "channel": 9,
        "type": "channel",
        "noteNumber": 42,
        "velocity": 121,
        "subtype": "noteOn"
      },
      {
        "deltaTime": 240,
        "channel": 9,
        "type": "channel",
        "noteNumber": 42,
        "velocity": 0,
        "subtype": "noteOff"
      },
      {
        "deltaTime": 0,
        "channel": 9,
        "type": "channel",
        "noteNumber": 35,
        "velocity": 121,
        "subtype": "noteOn"
      },
      {
        "deltaTime": 240,
        "channel": 9,
        "type": "channel",
        "noteNumber": 35,
        "velocity": 0,
        "subtype": "noteOff"
      },
      {
        "deltaTime": 0,
        "channel": 9,
        "type": "channel",
        "noteNumber": 42,
        "velocity": 121,
        "subtype": "noteOn"
      },
      {
        "deltaTime": 480,
        "channel": 9,
        "type": "channel",
        "noteNumber": 42,
        "velocity": 0,
        "subtype": "noteOff"
      },
      {
        "deltaTime": 0,
        "channel": 9,
        "type": "channel",
        "noteNumber": 42,
        "velocity": 121,
        "subtype": "noteOn"
      },
      {
        "deltaTime": 0,
        "channel": 9,
        "type": "channel",
        "noteNumber": 35,
        "velocity": 121,
        "subtype": "noteOn"
      },
      {
        "deltaTime": 480,
        "channel": 9,
        "type": "channel",
        "noteNumber": 35,
        "velocity": 0,
        "subtype": "noteOff"
      },
      {
        "deltaTime": 0,
        "channel": 9,
        "type": "channel",
        "noteNumber": 42,
        "velocity": 0,
        "subtype": "noteOff"
      },
      {
        "deltaTime": 0,
        "channel": 9,
        "type": "channel",
        "noteNumber": 54,
        "velocity": 121,
        "subtype": "noteOn"
      },
      {
        "deltaTime": 0,
        "channel": 9,
        "type": "channel",
        "noteNumber": 42,
        "velocity": 121,
        "subtype": "noteOn"
      },
      {
        "deltaTime": 0,
        "channel": 9,
        "type": "channel",
        "noteNumber": 38,
        "velocity": 121,
        "subtype": "noteOn"
      },
      {
        "deltaTime": 480,
        "channel": 9,
        "type": "channel",
        "noteNumber": 38,
        "velocity": 0,
        "subtype": "noteOff"
      },
      {
        "deltaTime": 0,
        "channel": 9,
        "type": "channel",
        "noteNumber": 42,
        "velocity": 0,
        "subtype": "noteOff"
      },
      {
        "deltaTime": 0,
        "channel": 9,
        "type": "channel",
        "noteNumber": 54,
        "velocity": 0,
        "subtype": "noteOff"
      },
      {
        "deltaTime": 0,
        "channel": 9,
        "type": "channel",
        "noteNumber": 42,
        "velocity": 121,
        "subtype": "noteOn"
      },
      {
        "deltaTime": 480,
        "channel": 9,
        "type": "channel",
        "noteNumber": 42,
        "velocity": 0,
        "subtype": "noteOff"
      },
      {
        "deltaTime": 0,
        "channel": 9,
        "type": "channel",
        "noteNumber": 42,
        "velocity": 121,
        "subtype": "noteOn"
      },
      {
        "deltaTime": 0,
        "channel": 9,
        "type": "channel",
        "noteNumber": 35,
        "velocity": 121,
        "subtype": "noteOn"
      },
      {
        "deltaTime": 480,
        "channel": 9,
        "type": "channel",
        "noteNumber": 35,
        "velocity": 0,
        "subtype": "noteOff"
      },
      {
        "deltaTime": 0,
        "channel": 9,
        "type": "channel",
        "noteNumber": 42,
        "velocity": 0,
        "subtype": "noteOff"
      },
      {
        "deltaTime": 0,
        "channel": 9,
        "type": "channel",
        "noteNumber": 42,
        "velocity": 121,
        "subtype": "noteOn"
      },
      {
        "deltaTime": 240,
        "channel": 9,
        "type": "channel",
        "noteNumber": 42,
        "velocity": 0,
        "subtype": "noteOff"
      },
      {
        "deltaTime": 0,
        "channel": 9,
        "type": "channel",
        "noteNumber": 35,
        "velocity": 121,
        "subtype": "noteOn"
      },
      {
        "deltaTime": 240,
        "channel": 9,
        "type": "channel",
        "noteNumber": 35,
        "velocity": 0,
        "subtype": "noteOff"
      },
      {
        "deltaTime": 0,
        "channel": 9,
        "type": "channel",
        "noteNumber": 42,
        "velocity": 121,
        "subtype": "noteOn"
      },
      {
        "deltaTime": 480,
        "channel": 9,
        "type": "channel",
        "noteNumber": 42,
        "velocity": 0,
        "subtype": "noteOff"
      },
      {
        "deltaTime": 0,
        "channel": 9,
        "type": "channel",
        "noteNumber": 42,
        "velocity": 121,
        "subtype": "noteOn"
      },
      {
        "deltaTime": 0,
        "channel": 9,
        "type": "channel",
        "noteNumber": 35,
        "velocity": 121,
        "subtype": "noteOn"
      },
      {
        "deltaTime": 480,
        "channel": 9,
        "type": "channel",
        "noteNumber": 35,
        "velocity": 0,
        "subtype": "noteOff"
      },
      {
        "deltaTime": 0,
        "channel": 9,
        "type": "channel",
        "noteNumber": 42,
        "velocity": 0,
        "subtype": "noteOff"
      },
      {
        "deltaTime": 0,
        "channel": 9,
        "type": "channel",
        "noteNumber": 54,
        "velocity": 121,
        "subtype": "noteOn"
      },
      {
        "deltaTime": 0,
        "channel": 9,
        "type": "channel",
        "noteNumber": 36,
        "velocity": 121,
        "subtype": "noteOn"
      },
      {
        "deltaTime": 0,
        "channel": 9,
        "type": "channel",
        "noteNumber": 43,
        "velocity": 121,
        "subtype": "noteOn"
      },
      {
        "deltaTime": 0,
        "channel": 9,
        "type": "channel",
        "noteNumber": 38,
        "velocity": 121,
        "subtype": "noteOn"
      },
      {
        "deltaTime": 480,
        "channel": 9,
        "type": "channel",
        "noteNumber": 54,
        "velocity": 0,
        "subtype": "noteOff"
      },
      {
        "deltaTime": 480,
        "channel": 9,
        "type": "channel",
        "noteNumber": 36,
        "velocity": 0,
        "subtype": "noteOff"
      },
      {
        "deltaTime": 0,
        "channel": 9,
        "type": "channel",
        "noteNumber": 43,
        "velocity": 0,
        "subtype": "noteOff"
      },
      {
        "deltaTime": 0,
        "channel": 9,
        "type": "channel",
        "noteNumber": 38,
        "velocity": 0,
        "subtype": "noteOff"
      },
      {
        "deltaTime": 0,
        "channel": 9,
        "type": "channel",
        "noteNumber": 49,
        "velocity": 121,
        "subtype": "noteOn"
      },
      {
        "deltaTime": 0,
        "channel": 9,
        "type": "channel",
        "noteNumber": 35,
        "velocity": 121,
        "subtype": "noteOn"
      },
      {
        "deltaTime": 720,
        "channel": 9,
        "type": "channel",
        "noteNumber": 35,
        "velocity": 0,
        "subtype": "noteOff"
      },
      {
        "deltaTime": 0,
        "channel": 9,
        "type": "channel",
        "noteNumber": 49,
        "velocity": 0,
        "subtype": "noteOff"
      },
      {
        "deltaTime": 0,
        "channel": 9,
        "type": "channel",
        "noteNumber": 49,
        "velocity": 121,
        "subtype": "noteOn"
      },
      {
        "deltaTime": 0,
        "channel": 9,
        "type": "channel",
        "noteNumber": 35,
        "velocity": 121,
        "subtype": "noteOn"
      },
      {
        "deltaTime": 720,
        "channel": 9,
        "type": "channel",
        "noteNumber": 35,
        "velocity": 0,
        "subtype": "noteOff"
      },
      {
        "deltaTime": 0,
        "channel": 9,
        "type": "channel",
        "noteNumber": 49,
        "velocity": 0,
        "subtype": "noteOff"
      },
      {
        "deltaTime": 0,
        "channel": 9,
        "type": "channel",
        "noteNumber": 49,
        "velocity": 121,
        "subtype": "noteOn"
      },
      {
        "deltaTime": 0,
        "channel": 9,
        "type": "channel",
        "noteNumber": 35,
        "velocity": 121,
        "subtype": "noteOn"
      },
      {
        "deltaTime": 480,
        "channel": 9,
        "type": "channel",
        "noteNumber": 35,
        "velocity": 0,
        "subtype": "noteOff"
      },
      {
        "deltaTime": 0,
        "channel": 9,
        "type": "channel",
        "noteNumber": 49,
        "velocity": 0,
        "subtype": "noteOff"
      },
      {
        "deltaTime": 0,
        "channel": 9,
        "type": "channel",
        "noteNumber": 38,
        "velocity": 121,
        "subtype": "noteOn"
      },
      {
        "deltaTime": 240,
        "channel": 9,
        "type": "channel",
        "noteNumber": 38,
        "velocity": 0,
        "subtype": "noteOff"
      },
      {
        "deltaTime": 0,
        "channel": 9,
        "type": "channel",
        "noteNumber": 38,
        "velocity": 121,
        "subtype": "noteOn"
      },
      {
        "deltaTime": 240,
        "channel": 9,
        "type": "channel",
        "noteNumber": 38,
        "velocity": 0,
        "subtype": "noteOff"
      },
      {
        "deltaTime": 0,
        "channel": 9,
        "type": "channel",
        "noteNumber": 38,
        "velocity": 121,
        "subtype": "noteOn"
      },
      {
        "deltaTime": 240,
        "channel": 9,
        "type": "channel",
        "noteNumber": 38,
        "velocity": 0,
        "subtype": "noteOff"
      },
      {
        "deltaTime": 0,
        "channel": 9,
        "type": "channel",
        "noteNumber": 38,
        "velocity": 121,
        "subtype": "noteOn"
      },
      {
        "deltaTime": 240,
        "channel": 9,
        "type": "channel",
        "noteNumber": 38,
        "velocity": 0,
        "subtype": "noteOff"
      },
      {
        "deltaTime": 0,
        "channel": 9,
        "type": "channel",
        "noteNumber": 49,
        "velocity": 121,
        "subtype": "noteOn"
      },
      {
        "deltaTime": 0,
        "channel": 9,
        "type": "channel",
        "noteNumber": 35,
        "velocity": 121,
        "subtype": "noteOn"
      },
      {
        "deltaTime": 720,
        "channel": 9,
        "type": "channel",
        "noteNumber": 35,
        "velocity": 0,
        "subtype": "noteOff"
      },
      {
        "deltaTime": 0,
        "channel": 9,
        "type": "channel",
        "noteNumber": 49,
        "velocity": 0,
        "subtype": "noteOff"
      },
      {
        "deltaTime": 0,
        "channel": 9,
        "type": "channel",
        "noteNumber": 49,
        "velocity": 121,
        "subtype": "noteOn"
      },
      {
        "deltaTime": 0,
        "channel": 9,
        "type": "channel",
        "noteNumber": 35,
        "velocity": 121,
        "subtype": "noteOn"
      },
      {
        "deltaTime": 720,
        "channel": 9,
        "type": "channel",
        "noteNumber": 35,
        "velocity": 0,
        "subtype": "noteOff"
      },
      {
        "deltaTime": 0,
        "channel": 9,
        "type": "channel",
        "noteNumber": 49,
        "velocity": 0,
        "subtype": "noteOff"
      },
      {
        "deltaTime": 0,
        "channel": 9,
        "type": "channel",
        "noteNumber": 49,
        "velocity": 121,
        "subtype": "noteOn"
      },
      {
        "deltaTime": 0,
        "channel": 9,
        "type": "channel",
        "noteNumber": 35,
        "velocity": 121,
        "subtype": "noteOn"
      },
      {
        "deltaTime": 240,
        "channel": 9,
        "type": "channel",
        "noteNumber": 35,
        "velocity": 0,
        "subtype": "noteOff"
      },
      {
        "deltaTime": 0,
        "channel": 9,
        "type": "channel",
        "noteNumber": 49,
        "velocity": 0,
        "subtype": "noteOff"
      },
      {
        "deltaTime": 0,
        "channel": 9,
        "type": "channel",
        "noteNumber": 38,
        "velocity": 76,
        "subtype": "noteOn"
      },
      {
        "deltaTime": 240,
        "channel": 9,
        "type": "channel",
        "noteNumber": 38,
        "velocity": 0,
        "subtype": "noteOff"
      },
      {
        "deltaTime": 0,
        "channel": 9,
        "type": "channel",
        "noteNumber": 38,
        "velocity": 121,
        "subtype": "noteOn"
      },
      {
        "deltaTime": 240,
        "channel": 9,
        "type": "channel",
        "noteNumber": 38,
        "velocity": 0,
        "subtype": "noteOff"
      },
      {
        "deltaTime": 0,
        "channel": 9,
        "type": "channel",
        "noteNumber": 38,
        "velocity": 121,
        "subtype": "noteOn"
      },
      {
        "deltaTime": 240,
        "channel": 9,
        "type": "channel",
        "noteNumber": 38,
        "velocity": 0,
        "subtype": "noteOff"
      },
      {
        "deltaTime": 0,
        "channel": 9,
        "type": "channel",
        "noteNumber": 38,
        "velocity": 121,
        "subtype": "noteOn"
      },
      {
        "deltaTime": 240,
        "channel": 9,
        "type": "channel",
        "noteNumber": 38,
        "velocity": 0,
        "subtype": "noteOff"
      },
      {
        "deltaTime": 0,
        "channel": 9,
        "type": "channel",
        "noteNumber": 38,
        "velocity": 121,
        "subtype": "noteOn"
      },
      {
        "deltaTime": 240,
        "channel": 9,
        "type": "channel",
        "noteNumber": 38,
        "velocity": 0,
        "subtype": "noteOff"
      },
      {
        "deltaTime": 0,
        "channel": 9,
        "type": "channel",
        "noteNumber": 49,
        "velocity": 121,
        "subtype": "noteOn"
      },
      {
        "deltaTime": 0,
        "channel": 9,
        "type": "channel",
        "noteNumber": 35,
        "velocity": 121,
        "subtype": "noteOn"
      },
      {
        "deltaTime": 720,
        "channel": 9,
        "type": "channel",
        "noteNumber": 35,
        "velocity": 0,
        "subtype": "noteOff"
      },
      {
        "deltaTime": 0,
        "channel": 9,
        "type": "channel",
        "noteNumber": 49,
        "velocity": 0,
        "subtype": "noteOff"
      },
      {
        "deltaTime": 0,
        "channel": 9,
        "type": "channel",
        "noteNumber": 49,
        "velocity": 121,
        "subtype": "noteOn"
      },
      {
        "deltaTime": 0,
        "channel": 9,
        "type": "channel",
        "noteNumber": 35,
        "velocity": 121,
        "subtype": "noteOn"
      },
      {
        "deltaTime": 720,
        "channel": 9,
        "type": "channel",
        "noteNumber": 35,
        "velocity": 0,
        "subtype": "noteOff"
      },
      {
        "deltaTime": 0,
        "channel": 9,
        "type": "channel",
        "noteNumber": 49,
        "velocity": 0,
        "subtype": "noteOff"
      },
      {
        "deltaTime": 0,
        "channel": 9,
        "type": "channel",
        "noteNumber": 49,
        "velocity": 121,
        "subtype": "noteOn"
      },
      {
        "deltaTime": 0,
        "channel": 9,
        "type": "channel",
        "noteNumber": 35,
        "velocity": 121,
        "subtype": "noteOn"
      },
      {
        "deltaTime": 480,
        "channel": 9,
        "type": "channel",
        "noteNumber": 35,
        "velocity": 0,
        "subtype": "noteOff"
      },
      {
        "deltaTime": 0,
        "channel": 9,
        "type": "channel",
        "noteNumber": 49,
        "velocity": 0,
        "subtype": "noteOff"
      },
      {
        "deltaTime": 0,
        "channel": 9,
        "type": "channel",
        "noteNumber": 38,
        "velocity": 121,
        "subtype": "noteOn"
      },
      {
        "deltaTime": 240,
        "channel": 9,
        "type": "channel",
        "noteNumber": 38,
        "velocity": 0,
        "subtype": "noteOff"
      },
      {
        "deltaTime": 0,
        "channel": 9,
        "type": "channel",
        "noteNumber": 38,
        "velocity": 121,
        "subtype": "noteOn"
      },
      {
        "deltaTime": 240,
        "channel": 9,
        "type": "channel",
        "noteNumber": 38,
        "velocity": 0,
        "subtype": "noteOff"
      },
      {
        "deltaTime": 0,
        "channel": 9,
        "type": "channel",
        "noteNumber": 38,
        "velocity": 121,
        "subtype": "noteOn"
      },
      {
        "deltaTime": 240,
        "channel": 9,
        "type": "channel",
        "noteNumber": 38,
        "velocity": 0,
        "subtype": "noteOff"
      },
      {
        "deltaTime": 0,
        "channel": 9,
        "type": "channel",
        "noteNumber": 38,
        "velocity": 121,
        "subtype": "noteOn"
      },
      {
        "deltaTime": 240,
        "channel": 9,
        "type": "channel",
        "noteNumber": 38,
        "velocity": 0,
        "subtype": "noteOff"
      },
      {
        "deltaTime": 0,
        "channel": 9,
        "type": "channel",
        "noteNumber": 49,
        "velocity": 121,
        "subtype": "noteOn"
      },
      {
        "deltaTime": 0,
        "channel": 9,
        "type": "channel",
        "noteNumber": 35,
        "velocity": 121,
        "subtype": "noteOn"
      },
      {
        "deltaTime": 720,
        "channel": 9,
        "type": "channel",
        "noteNumber": 35,
        "velocity": 0,
        "subtype": "noteOff"
      },
      {
        "deltaTime": 0,
        "channel": 9,
        "type": "channel",
        "noteNumber": 49,
        "velocity": 0,
        "subtype": "noteOff"
      },
      {
        "deltaTime": 0,
        "channel": 9,
        "type": "channel",
        "noteNumber": 49,
        "velocity": 121,
        "subtype": "noteOn"
      },
      {
        "deltaTime": 0,
        "channel": 9,
        "type": "channel",
        "noteNumber": 35,
        "velocity": 121,
        "subtype": "noteOn"
      },
      {
        "deltaTime": 720,
        "channel": 9,
        "type": "channel",
        "noteNumber": 35,
        "velocity": 0,
        "subtype": "noteOff"
      },
      {
        "deltaTime": 0,
        "channel": 9,
        "type": "channel",
        "noteNumber": 49,
        "velocity": 0,
        "subtype": "noteOff"
      },
      {
        "deltaTime": 0,
        "channel": 9,
        "type": "channel",
        "noteNumber": 35,
        "velocity": 121,
        "subtype": "noteOn"
      },
      {
        "deltaTime": 480,
        "channel": 9,
        "type": "channel",
        "noteNumber": 35,
        "velocity": 0,
        "subtype": "noteOff"
      },
      {
        "deltaTime": 0,
        "channel": 9,
        "type": "channel",
        "noteNumber": 57,
        "velocity": 121,
        "subtype": "noteOn"
      },
      {
        "deltaTime": 0,
        "channel": 9,
        "type": "channel",
        "noteNumber": 38,
        "velocity": 121,
        "subtype": "noteOn"
      },
      {
        "deltaTime": 960,
        "channel": 9,
        "type": "channel",
        "noteNumber": 38,
        "velocity": 0,
        "subtype": "noteOff"
      },
      {
        "deltaTime": 0,
        "channel": 9,
        "type": "channel",
        "noteNumber": 57,
        "velocity": 0,
        "subtype": "noteOff"
      },
      {
        "deltaTime": 0,
        "channel": 9,
        "type": "channel",
        "noteNumber": 35,
        "velocity": 121,
        "subtype": "noteOn"
      },
      {
        "deltaTime": 0,
        "channel": 9,
        "type": "channel",
        "noteNumber": 49,
        "velocity": 121,
        "subtype": "noteOn"
      },
      {
        "deltaTime": 960,
        "channel": 9,
        "type": "channel",
        "noteNumber": 49,
        "velocity": 0,
        "subtype": "noteOff"
      },
      {
        "deltaTime": 0,
        "channel": 9,
        "type": "channel",
        "noteNumber": 35,
        "velocity": 0,
        "subtype": "noteOff"
      },
      {
        "deltaTime": 0,
        "channel": 9,
        "type": "channel",
        "noteNumber": 54,
        "velocity": 121,
        "subtype": "noteOn"
      },
      {
        "deltaTime": 0,
        "channel": 9,
        "type": "channel",
        "noteNumber": 42,
        "velocity": 121,
        "subtype": "noteOn"
      },
      {
        "deltaTime": 0,
        "channel": 9,
        "type": "channel",
        "noteNumber": 38,
        "velocity": 121,
        "subtype": "noteOn"
      },
      {
        "deltaTime": 480,
        "channel": 9,
        "type": "channel",
        "noteNumber": 38,
        "velocity": 0,
        "subtype": "noteOff"
      },
      {
        "deltaTime": 0,
        "channel": 9,
        "type": "channel",
        "noteNumber": 42,
        "velocity": 0,
        "subtype": "noteOff"
      },
      {
        "deltaTime": 0,
        "channel": 9,
        "type": "channel",
        "noteNumber": 54,
        "velocity": 0,
        "subtype": "noteOff"
      },
      {
        "deltaTime": 0,
        "channel": 9,
        "type": "channel",
        "noteNumber": 42,
        "velocity": 121,
        "subtype": "noteOn"
      },
      {
        "deltaTime": 480,
        "channel": 9,
        "type": "channel",
        "noteNumber": 42,
        "velocity": 0,
        "subtype": "noteOff"
      },
      {
        "deltaTime": 0,
        "channel": 9,
        "type": "channel",
        "noteNumber": 42,
        "velocity": 121,
        "subtype": "noteOn"
      },
      {
        "deltaTime": 0,
        "channel": 9,
        "type": "channel",
        "noteNumber": 35,
        "velocity": 121,
        "subtype": "noteOn"
      },
      {
        "deltaTime": 480,
        "channel": 9,
        "type": "channel",
        "noteNumber": 35,
        "velocity": 0,
        "subtype": "noteOff"
      },
      {
        "deltaTime": 0,
        "channel": 9,
        "type": "channel",
        "noteNumber": 42,
        "velocity": 0,
        "subtype": "noteOff"
      },
      {
        "deltaTime": 0,
        "channel": 9,
        "type": "channel",
        "noteNumber": 42,
        "velocity": 121,
        "subtype": "noteOn"
      },
      {
        "deltaTime": 480,
        "channel": 9,
        "type": "channel",
        "noteNumber": 42,
        "velocity": 0,
        "subtype": "noteOff"
      },
      {
        "deltaTime": 0,
        "channel": 9,
        "type": "channel",
        "noteNumber": 54,
        "velocity": 121,
        "subtype": "noteOn"
      },
      {
        "deltaTime": 0,
        "channel": 9,
        "type": "channel",
        "noteNumber": 42,
        "velocity": 121,
        "subtype": "noteOn"
      },
      {
        "deltaTime": 0,
        "channel": 9,
        "type": "channel",
        "noteNumber": 38,
        "velocity": 121,
        "subtype": "noteOn"
      },
      {
        "deltaTime": 480,
        "channel": 9,
        "type": "channel",
        "noteNumber": 38,
        "velocity": 0,
        "subtype": "noteOff"
      },
      {
        "deltaTime": 0,
        "channel": 9,
        "type": "channel",
        "noteNumber": 42,
        "velocity": 0,
        "subtype": "noteOff"
      },
      {
        "deltaTime": 0,
        "channel": 9,
        "type": "channel",
        "noteNumber": 54,
        "velocity": 0,
        "subtype": "noteOff"
      },
      {
        "deltaTime": 0,
        "channel": 9,
        "type": "channel",
        "noteNumber": 42,
        "velocity": 121,
        "subtype": "noteOn"
      },
      {
        "deltaTime": 480,
        "channel": 9,
        "type": "channel",
        "noteNumber": 42,
        "velocity": 0,
        "subtype": "noteOff"
      },
      {
        "deltaTime": 0,
        "channel": 9,
        "type": "channel",
        "noteNumber": 42,
        "velocity": 121,
        "subtype": "noteOn"
      },
      {
        "deltaTime": 0,
        "channel": 9,
        "type": "channel",
        "noteNumber": 35,
        "velocity": 121,
        "subtype": "noteOn"
      },
      {
        "deltaTime": 480,
        "channel": 9,
        "type": "channel",
        "noteNumber": 35,
        "velocity": 0,
        "subtype": "noteOff"
      },
      {
        "deltaTime": 0,
        "channel": 9,
        "type": "channel",
        "noteNumber": 42,
        "velocity": 0,
        "subtype": "noteOff"
      },
      {
        "deltaTime": 0,
        "channel": 9,
        "type": "channel",
        "noteNumber": 42,
        "velocity": 121,
        "subtype": "noteOn"
      },
      {
        "deltaTime": 480,
        "channel": 9,
        "type": "channel",
        "noteNumber": 42,
        "velocity": 0,
        "subtype": "noteOff"
      },
      {
        "deltaTime": 0,
        "channel": 9,
        "type": "channel",
        "noteNumber": 54,
        "velocity": 121,
        "subtype": "noteOn"
      },
      {
        "deltaTime": 0,
        "channel": 9,
        "type": "channel",
        "noteNumber": 42,
        "velocity": 121,
        "subtype": "noteOn"
      },
      {
        "deltaTime": 0,
        "channel": 9,
        "type": "channel",
        "noteNumber": 38,
        "velocity": 121,
        "subtype": "noteOn"
      },
      {
        "deltaTime": 480,
        "channel": 9,
        "type": "channel",
        "noteNumber": 38,
        "velocity": 0,
        "subtype": "noteOff"
      },
      {
        "deltaTime": 0,
        "channel": 9,
        "type": "channel",
        "noteNumber": 42,
        "velocity": 0,
        "subtype": "noteOff"
      },
      {
        "deltaTime": 0,
        "channel": 9,
        "type": "channel",
        "noteNumber": 54,
        "velocity": 0,
        "subtype": "noteOff"
      },
      {
        "deltaTime": 0,
        "channel": 9,
        "type": "channel",
        "noteNumber": 42,
        "velocity": 121,
        "subtype": "noteOn"
      },
      {
        "deltaTime": 480,
        "channel": 9,
        "type": "channel",
        "noteNumber": 42,
        "velocity": 0,
        "subtype": "noteOff"
      },
      {
        "deltaTime": 0,
        "channel": 9,
        "type": "channel",
        "noteNumber": 42,
        "velocity": 121,
        "subtype": "noteOn"
      },
      {
        "deltaTime": 0,
        "channel": 9,
        "type": "channel",
        "noteNumber": 35,
        "velocity": 121,
        "subtype": "noteOn"
      },
      {
        "deltaTime": 480,
        "channel": 9,
        "type": "channel",
        "noteNumber": 35,
        "velocity": 0,
        "subtype": "noteOff"
      },
      {
        "deltaTime": 0,
        "channel": 9,
        "type": "channel",
        "noteNumber": 42,
        "velocity": 0,
        "subtype": "noteOff"
      },
      {
        "deltaTime": 0,
        "channel": 9,
        "type": "channel",
        "noteNumber": 42,
        "velocity": 121,
        "subtype": "noteOn"
      },
      {
        "deltaTime": 480,
        "channel": 9,
        "type": "channel",
        "noteNumber": 42,
        "velocity": 0,
        "subtype": "noteOff"
      },
      {
        "deltaTime": 0,
        "channel": 9,
        "type": "channel",
        "noteNumber": 54,
        "velocity": 121,
        "subtype": "noteOn"
      },
      {
        "deltaTime": 0,
        "channel": 9,
        "type": "channel",
        "noteNumber": 42,
        "velocity": 121,
        "subtype": "noteOn"
      },
      {
        "deltaTime": 0,
        "channel": 9,
        "type": "channel",
        "noteNumber": 38,
        "velocity": 121,
        "subtype": "noteOn"
      },
      {
        "deltaTime": 480,
        "channel": 9,
        "type": "channel",
        "noteNumber": 38,
        "velocity": 0,
        "subtype": "noteOff"
      },
      {
        "deltaTime": 0,
        "channel": 9,
        "type": "channel",
        "noteNumber": 42,
        "velocity": 0,
        "subtype": "noteOff"
      },
      {
        "deltaTime": 0,
        "channel": 9,
        "type": "channel",
        "noteNumber": 54,
        "velocity": 0,
        "subtype": "noteOff"
      },
      {
        "deltaTime": 0,
        "channel": 9,
        "type": "channel",
        "noteNumber": 42,
        "velocity": 121,
        "subtype": "noteOn"
      },
      {
        "deltaTime": 480,
        "channel": 9,
        "type": "channel",
        "noteNumber": 42,
        "velocity": 0,
        "subtype": "noteOff"
      },
      {
        "deltaTime": 0,
        "channel": 9,
        "type": "channel",
        "noteNumber": 42,
        "velocity": 121,
        "subtype": "noteOn"
      },
      {
        "deltaTime": 0,
        "channel": 9,
        "type": "channel",
        "noteNumber": 35,
        "velocity": 121,
        "subtype": "noteOn"
      },
      {
        "deltaTime": 480,
        "channel": 9,
        "type": "channel",
        "noteNumber": 35,
        "velocity": 0,
        "subtype": "noteOff"
      },
      {
        "deltaTime": 0,
        "channel": 9,
        "type": "channel",
        "noteNumber": 42,
        "velocity": 0,
        "subtype": "noteOff"
      },
      {
        "deltaTime": 0,
        "channel": 9,
        "type": "channel",
        "noteNumber": 42,
        "velocity": 121,
        "subtype": "noteOn"
      },
      {
        "deltaTime": 480,
        "channel": 9,
        "type": "channel",
        "noteNumber": 42,
        "velocity": 0,
        "subtype": "noteOff"
      },
      {
        "deltaTime": 0,
        "channel": 9,
        "type": "channel",
        "noteNumber": 54,
        "velocity": 121,
        "subtype": "noteOn"
      },
      {
        "deltaTime": 0,
        "channel": 9,
        "type": "channel",
        "noteNumber": 42,
        "velocity": 121,
        "subtype": "noteOn"
      },
      {
        "deltaTime": 0,
        "channel": 9,
        "type": "channel",
        "noteNumber": 38,
        "velocity": 121,
        "subtype": "noteOn"
      },
      {
        "deltaTime": 480,
        "channel": 9,
        "type": "channel",
        "noteNumber": 38,
        "velocity": 0,
        "subtype": "noteOff"
      },
      {
        "deltaTime": 0,
        "channel": 9,
        "type": "channel",
        "noteNumber": 42,
        "velocity": 0,
        "subtype": "noteOff"
      },
      {
        "deltaTime": 0,
        "channel": 9,
        "type": "channel",
        "noteNumber": 54,
        "velocity": 0,
        "subtype": "noteOff"
      },
      {
        "deltaTime": 0,
        "channel": 9,
        "type": "channel",
        "noteNumber": 42,
        "velocity": 121,
        "subtype": "noteOn"
      },
      {
        "deltaTime": 480,
        "channel": 9,
        "type": "channel",
        "noteNumber": 42,
        "velocity": 0,
        "subtype": "noteOff"
      },
      {
        "deltaTime": 0,
        "channel": 9,
        "type": "channel",
        "noteNumber": 42,
        "velocity": 121,
        "subtype": "noteOn"
      },
      {
        "deltaTime": 0,
        "channel": 9,
        "type": "channel",
        "noteNumber": 35,
        "velocity": 121,
        "subtype": "noteOn"
      },
      {
        "deltaTime": 480,
        "channel": 9,
        "type": "channel",
        "noteNumber": 35,
        "velocity": 0,
        "subtype": "noteOff"
      },
      {
        "deltaTime": 0,
        "channel": 9,
        "type": "channel",
        "noteNumber": 42,
        "velocity": 0,
        "subtype": "noteOff"
      },
      {
        "deltaTime": 0,
        "channel": 9,
        "type": "channel",
        "noteNumber": 42,
        "velocity": 121,
        "subtype": "noteOn"
      },
      {
        "deltaTime": 480,
        "channel": 9,
        "type": "channel",
        "noteNumber": 42,
        "velocity": 0,
        "subtype": "noteOff"
      },
      {
        "deltaTime": 0,
        "channel": 9,
        "type": "channel",
        "noteNumber": 36,
        "velocity": 121,
        "subtype": "noteOn"
      },
      {
        "deltaTime": 0,
        "channel": 9,
        "type": "channel",
        "noteNumber": 43,
        "velocity": 121,
        "subtype": "noteOn"
      },
      {
        "deltaTime": 0,
        "channel": 9,
        "type": "channel",
        "noteNumber": 38,
        "velocity": 121,
        "subtype": "noteOn"
      },
      {
        "deltaTime": 960,
        "channel": 9,
        "type": "channel",
        "noteNumber": 38,
        "velocity": 0,
        "subtype": "noteOff"
      },
      {
        "deltaTime": 0,
        "channel": 9,
        "type": "channel",
        "noteNumber": 43,
        "velocity": 0,
        "subtype": "noteOff"
      },
      {
        "deltaTime": 0,
        "channel": 9,
        "type": "channel",
        "noteNumber": 36,
        "velocity": 0,
        "subtype": "noteOff"
      },
      {
        "deltaTime": 0,
        "channel": 9,
        "type": "channel",
        "noteNumber": 35,
        "velocity": 121,
        "subtype": "noteOn"
      },
      {
        "deltaTime": 0,
        "channel": 9,
        "type": "channel",
        "noteNumber": 49,
        "velocity": 121,
        "subtype": "noteOn"
      },
      {
        "deltaTime": 960,
        "channel": 9,
        "type": "channel",
        "noteNumber": 49,
        "velocity": 0,
        "subtype": "noteOff"
      },
      {
        "deltaTime": 0,
        "channel": 9,
        "type": "channel",
        "noteNumber": 35,
        "velocity": 0,
        "subtype": "noteOff"
      },
      {
        "deltaTime": 0,
        "channel": 9,
        "type": "channel",
        "noteNumber": 42,
        "velocity": 121,
        "subtype": "noteOn"
      },
      {
        "deltaTime": 0,
        "channel": 9,
        "type": "channel",
        "noteNumber": 38,
        "velocity": 121,
        "subtype": "noteOn"
      },
      {
        "deltaTime": 480,
        "channel": 9,
        "type": "channel",
        "noteNumber": 38,
        "velocity": 0,
        "subtype": "noteOff"
      },
      {
        "deltaTime": 0,
        "channel": 9,
        "type": "channel",
        "noteNumber": 42,
        "velocity": 0,
        "subtype": "noteOff"
      },
      {
        "deltaTime": 0,
        "channel": 9,
        "type": "channel",
        "noteNumber": 42,
        "velocity": 121,
        "subtype": "noteOn"
      },
      {
        "deltaTime": 480,
        "channel": 9,
        "type": "channel",
        "noteNumber": 42,
        "velocity": 0,
        "subtype": "noteOff"
      },
      {
        "deltaTime": 0,
        "channel": 9,
        "type": "channel",
        "noteNumber": 42,
        "velocity": 121,
        "subtype": "noteOn"
      },
      {
        "deltaTime": 0,
        "channel": 9,
        "type": "channel",
        "noteNumber": 35,
        "velocity": 121,
        "subtype": "noteOn"
      },
      {
        "deltaTime": 480,
        "channel": 9,
        "type": "channel",
        "noteNumber": 35,
        "velocity": 0,
        "subtype": "noteOff"
      },
      {
        "deltaTime": 0,
        "channel": 9,
        "type": "channel",
        "noteNumber": 42,
        "velocity": 0,
        "subtype": "noteOff"
      },
      {
        "deltaTime": 0,
        "channel": 9,
        "type": "channel",
        "noteNumber": 42,
        "velocity": 121,
        "subtype": "noteOn"
      },
      {
        "deltaTime": 480,
        "channel": 9,
        "type": "channel",
        "noteNumber": 42,
        "velocity": 0,
        "subtype": "noteOff"
      },
      {
        "deltaTime": 0,
        "channel": 9,
        "type": "channel",
        "noteNumber": 42,
        "velocity": 121,
        "subtype": "noteOn"
      },
      {
        "deltaTime": 0,
        "channel": 9,
        "type": "channel",
        "noteNumber": 38,
        "velocity": 121,
        "subtype": "noteOn"
      },
      {
        "deltaTime": 480,
        "channel": 9,
        "type": "channel",
        "noteNumber": 38,
        "velocity": 0,
        "subtype": "noteOff"
      },
      {
        "deltaTime": 0,
        "channel": 9,
        "type": "channel",
        "noteNumber": 42,
        "velocity": 0,
        "subtype": "noteOff"
      },
      {
        "deltaTime": 0,
        "channel": 9,
        "type": "channel",
        "noteNumber": 42,
        "velocity": 121,
        "subtype": "noteOn"
      },
      {
        "deltaTime": 480,
        "channel": 9,
        "type": "channel",
        "noteNumber": 42,
        "velocity": 0,
        "subtype": "noteOff"
      },
      {
        "deltaTime": 0,
        "channel": 9,
        "type": "channel",
        "noteNumber": 42,
        "velocity": 121,
        "subtype": "noteOn"
      },
      {
        "deltaTime": 0,
        "channel": 9,
        "type": "channel",
        "noteNumber": 35,
        "velocity": 121,
        "subtype": "noteOn"
      },
      {
        "deltaTime": 480,
        "channel": 9,
        "type": "channel",
        "noteNumber": 35,
        "velocity": 0,
        "subtype": "noteOff"
      },
      {
        "deltaTime": 0,
        "channel": 9,
        "type": "channel",
        "noteNumber": 42,
        "velocity": 0,
        "subtype": "noteOff"
      },
      {
        "deltaTime": 0,
        "channel": 9,
        "type": "channel",
        "noteNumber": 42,
        "velocity": 121,
        "subtype": "noteOn"
      },
      {
        "deltaTime": 480,
        "channel": 9,
        "type": "channel",
        "noteNumber": 42,
        "velocity": 0,
        "subtype": "noteOff"
      },
      {
        "deltaTime": 0,
        "channel": 9,
        "type": "channel",
        "noteNumber": 42,
        "velocity": 121,
        "subtype": "noteOn"
      },
      {
        "deltaTime": 0,
        "channel": 9,
        "type": "channel",
        "noteNumber": 38,
        "velocity": 121,
        "subtype": "noteOn"
      },
      {
        "deltaTime": 480,
        "channel": 9,
        "type": "channel",
        "noteNumber": 38,
        "velocity": 0,
        "subtype": "noteOff"
      },
      {
        "deltaTime": 0,
        "channel": 9,
        "type": "channel",
        "noteNumber": 42,
        "velocity": 0,
        "subtype": "noteOff"
      },
      {
        "deltaTime": 0,
        "channel": 9,
        "type": "channel",
        "noteNumber": 42,
        "velocity": 121,
        "subtype": "noteOn"
      },
      {
        "deltaTime": 480,
        "channel": 9,
        "type": "channel",
        "noteNumber": 42,
        "velocity": 0,
        "subtype": "noteOff"
      },
      {
        "deltaTime": 0,
        "channel": 9,
        "type": "channel",
        "noteNumber": 42,
        "velocity": 121,
        "subtype": "noteOn"
      },
      {
        "deltaTime": 0,
        "channel": 9,
        "type": "channel",
        "noteNumber": 35,
        "velocity": 121,
        "subtype": "noteOn"
      },
      {
        "deltaTime": 480,
        "channel": 9,
        "type": "channel",
        "noteNumber": 35,
        "velocity": 0,
        "subtype": "noteOff"
      },
      {
        "deltaTime": 0,
        "channel": 9,
        "type": "channel",
        "noteNumber": 42,
        "velocity": 0,
        "subtype": "noteOff"
      },
      {
        "deltaTime": 0,
        "channel": 9,
        "type": "channel",
        "noteNumber": 42,
        "velocity": 121,
        "subtype": "noteOn"
      },
      {
        "deltaTime": 480,
        "channel": 9,
        "type": "channel",
        "noteNumber": 42,
        "velocity": 0,
        "subtype": "noteOff"
      },
      {
        "deltaTime": 0,
        "channel": 9,
        "type": "channel",
        "noteNumber": 42,
        "velocity": 121,
        "subtype": "noteOn"
      },
      {
        "deltaTime": 0,
        "channel": 9,
        "type": "channel",
        "noteNumber": 38,
        "velocity": 121,
        "subtype": "noteOn"
      },
      {
        "deltaTime": 480,
        "channel": 9,
        "type": "channel",
        "noteNumber": 38,
        "velocity": 0,
        "subtype": "noteOff"
      },
      {
        "deltaTime": 0,
        "channel": 9,
        "type": "channel",
        "noteNumber": 42,
        "velocity": 0,
        "subtype": "noteOff"
      },
      {
        "deltaTime": 0,
        "channel": 9,
        "type": "channel",
        "noteNumber": 42,
        "velocity": 121,
        "subtype": "noteOn"
      },
      {
        "deltaTime": 480,
        "channel": 9,
        "type": "channel",
        "noteNumber": 42,
        "velocity": 0,
        "subtype": "noteOff"
      },
      {
        "deltaTime": 0,
        "channel": 9,
        "type": "channel",
        "noteNumber": 42,
        "velocity": 121,
        "subtype": "noteOn"
      },
      {
        "deltaTime": 0,
        "channel": 9,
        "type": "channel",
        "noteNumber": 35,
        "velocity": 121,
        "subtype": "noteOn"
      },
      {
        "deltaTime": 480,
        "channel": 9,
        "type": "channel",
        "noteNumber": 35,
        "velocity": 0,
        "subtype": "noteOff"
      },
      {
        "deltaTime": 0,
        "channel": 9,
        "type": "channel",
        "noteNumber": 42,
        "velocity": 0,
        "subtype": "noteOff"
      },
      {
        "deltaTime": 0,
        "channel": 9,
        "type": "channel",
        "noteNumber": 42,
        "velocity": 121,
        "subtype": "noteOn"
      },
      {
        "deltaTime": 480,
        "channel": 9,
        "type": "channel",
        "noteNumber": 42,
        "velocity": 0,
        "subtype": "noteOff"
      },
      {
        "deltaTime": 0,
        "channel": 9,
        "type": "channel",
        "noteNumber": 42,
        "velocity": 121,
        "subtype": "noteOn"
      },
      {
        "deltaTime": 0,
        "channel": 9,
        "type": "channel",
        "noteNumber": 38,
        "velocity": 121,
        "subtype": "noteOn"
      },
      {
        "deltaTime": 480,
        "channel": 9,
        "type": "channel",
        "noteNumber": 38,
        "velocity": 0,
        "subtype": "noteOff"
      },
      {
        "deltaTime": 0,
        "channel": 9,
        "type": "channel",
        "noteNumber": 42,
        "velocity": 0,
        "subtype": "noteOff"
      },
      {
        "deltaTime": 0,
        "channel": 9,
        "type": "channel",
        "noteNumber": 42,
        "velocity": 121,
        "subtype": "noteOn"
      },
      {
        "deltaTime": 480,
        "channel": 9,
        "type": "channel",
        "noteNumber": 42,
        "velocity": 0,
        "subtype": "noteOff"
      },
      {
        "deltaTime": 0,
        "channel": 9,
        "type": "channel",
        "noteNumber": 42,
        "velocity": 121,
        "subtype": "noteOn"
      },
      {
        "deltaTime": 0,
        "channel": 9,
        "type": "channel",
        "noteNumber": 35,
        "velocity": 121,
        "subtype": "noteOn"
      },
      {
        "deltaTime": 480,
        "channel": 9,
        "type": "channel",
        "noteNumber": 35,
        "velocity": 0,
        "subtype": "noteOff"
      },
      {
        "deltaTime": 0,
        "channel": 9,
        "type": "channel",
        "noteNumber": 42,
        "velocity": 0,
        "subtype": "noteOff"
      },
      {
        "deltaTime": 0,
        "channel": 9,
        "type": "channel",
        "noteNumber": 42,
        "velocity": 121,
        "subtype": "noteOn"
      },
      {
        "deltaTime": 480,
        "channel": 9,
        "type": "channel",
        "noteNumber": 42,
        "velocity": 0,
        "subtype": "noteOff"
      },
      {
        "deltaTime": 0,
        "channel": 9,
        "type": "channel",
        "noteNumber": 36,
        "velocity": 121,
        "subtype": "noteOn"
      },
      {
        "deltaTime": 0,
        "channel": 9,
        "type": "channel",
        "noteNumber": 43,
        "velocity": 121,
        "subtype": "noteOn"
      },
      {
        "deltaTime": 0,
        "channel": 9,
        "type": "channel",
        "noteNumber": 38,
        "velocity": 121,
        "subtype": "noteOn"
      },
      {
        "deltaTime": 960,
        "channel": 9,
        "type": "channel",
        "noteNumber": 38,
        "velocity": 0,
        "subtype": "noteOff"
      },
      {
        "deltaTime": 0,
        "channel": 9,
        "type": "channel",
        "noteNumber": 43,
        "velocity": 0,
        "subtype": "noteOff"
      },
      {
        "deltaTime": 0,
        "channel": 9,
        "type": "channel",
        "noteNumber": 36,
        "velocity": 0,
        "subtype": "noteOff"
      },
      {
        "deltaTime": 0,
        "channel": 9,
        "type": "channel",
        "noteNumber": 49,
        "velocity": 121,
        "subtype": "noteOn"
      },
      {
        "deltaTime": 0,
        "channel": 9,
        "type": "channel",
        "noteNumber": 35,
        "velocity": 121,
        "subtype": "noteOn"
      },
      {
        "deltaTime": 5760,
        "channel": 9,
        "type": "channel",
        "noteNumber": 35,
        "velocity": 0,
        "subtype": "noteOff"
      },
      {
        "deltaTime": 0,
        "channel": 9,
        "type": "channel",
        "noteNumber": 49,
        "velocity": 0,
        "subtype": "noteOff"
      },
      {
        "deltaTime": 0,
        "channel": 9,
        "type": "channel",
        "noteNumber": 38,
        "velocity": 121,
        "subtype": "noteOn"
      },
      {
        "deltaTime": 240,
        "channel": 9,
        "type": "channel",
        "noteNumber": 38,
        "velocity": 0,
        "subtype": "noteOff"
      },
      {
        "deltaTime": 0,
        "channel": 9,
        "type": "channel",
        "noteNumber": 38,
        "velocity": 121,
        "subtype": "noteOn"
      },
      {
        "deltaTime": 240,
        "channel": 9,
        "type": "channel",
        "noteNumber": 38,
        "velocity": 0,
        "subtype": "noteOff"
      },
      {
        "deltaTime": 0,
        "channel": 9,
        "type": "channel",
        "noteNumber": 35,
        "velocity": 121,
        "subtype": "noteOn"
      },
      {
        "deltaTime": 240,
        "channel": 9,
        "type": "channel",
        "noteNumber": 35,
        "velocity": 0,
        "subtype": "noteOff"
      },
      {
        "deltaTime": 0,
        "channel": 9,
        "type": "channel",
        "noteNumber": 35,
        "velocity": 121,
        "subtype": "noteOn"
      },
      {
        "deltaTime": 240,
        "channel": 9,
        "type": "channel",
        "noteNumber": 35,
        "velocity": 0,
        "subtype": "noteOff"
      },
      {
        "deltaTime": 0,
        "channel": 9,
        "type": "channel",
        "noteNumber": 38,
        "velocity": 121,
        "subtype": "noteOn"
      },
      {
        "deltaTime": 240,
        "channel": 9,
        "type": "channel",
        "noteNumber": 38,
        "velocity": 0,
        "subtype": "noteOff"
      },
      {
        "deltaTime": 0,
        "channel": 9,
        "type": "channel",
        "noteNumber": 38,
        "velocity": 121,
        "subtype": "noteOn"
      },
      {
        "deltaTime": 240,
        "channel": 9,
        "type": "channel",
        "noteNumber": 38,
        "velocity": 0,
        "subtype": "noteOff"
      },
      {
        "deltaTime": 0,
        "channel": 9,
        "type": "channel",
        "noteNumber": 38,
        "velocity": 121,
        "subtype": "noteOn"
      },
      {
        "deltaTime": 240,
        "channel": 9,
        "type": "channel",
        "noteNumber": 38,
        "velocity": 0,
        "subtype": "noteOff"
      },
      {
        "deltaTime": 0,
        "channel": 9,
        "type": "channel",
        "noteNumber": 38,
        "velocity": 121,
        "subtype": "noteOn"
      },
      {
        "deltaTime": 240,
        "channel": 9,
        "type": "channel",
        "noteNumber": 38,
        "velocity": 0,
        "subtype": "noteOff"
      },
      {
        "deltaTime": 0,
        "channel": 9,
        "type": "channel",
        "noteNumber": 49,
        "velocity": 121,
        "subtype": "noteOn"
      },
      {
        "deltaTime": 0,
        "channel": 9,
        "type": "channel",
        "noteNumber": 35,
        "velocity": 121,
        "subtype": "noteOn"
      },
      {
        "deltaTime": 480,
        "channel": 9,
        "type": "channel",
        "noteNumber": 35,
        "velocity": 0,
        "subtype": "noteOff"
      },
      {
        "deltaTime": 0,
        "channel": 9,
        "type": "channel",
        "noteNumber": 49,
        "velocity": 0,
        "subtype": "noteOff"
      },
      {
        "deltaTime": 0,
        "channel": 9,
        "type": "channel",
        "noteNumber": 46,
        "velocity": 121,
        "subtype": "noteOn"
      },
      {
        "deltaTime": 480,
        "channel": 9,
        "type": "channel",
        "noteNumber": 46,
        "velocity": 0,
        "subtype": "noteOff"
      },
      {
        "deltaTime": 0,
        "channel": 9,
        "type": "channel",
        "noteNumber": 35,
        "velocity": 121,
        "subtype": "noteOn"
      },
      {
        "deltaTime": 0,
        "channel": 9,
        "type": "channel",
        "noteNumber": 46,
        "velocity": 121,
        "subtype": "noteOn"
      },
      {
        "deltaTime": 0,
        "channel": 9,
        "type": "channel",
        "noteNumber": 38,
        "velocity": 121,
        "subtype": "noteOn"
      },
      {
        "deltaTime": 480,
        "channel": 9,
        "type": "channel",
        "noteNumber": 38,
        "velocity": 0,
        "subtype": "noteOff"
      },
      {
        "deltaTime": 0,
        "channel": 9,
        "type": "channel",
        "noteNumber": 46,
        "velocity": 0,
        "subtype": "noteOff"
      },
      {
        "deltaTime": 0,
        "channel": 9,
        "type": "channel",
        "noteNumber": 35,
        "velocity": 0,
        "subtype": "noteOff"
      },
      {
        "deltaTime": 0,
        "channel": 9,
        "type": "channel",
        "noteNumber": 46,
        "velocity": 121,
        "subtype": "noteOn"
      },
      {
        "deltaTime": 480,
        "channel": 9,
        "type": "channel",
        "noteNumber": 46,
        "velocity": 0,
        "subtype": "noteOff"
      },
      {
        "deltaTime": 0,
        "channel": 9,
        "type": "channel",
        "noteNumber": 46,
        "velocity": 121,
        "subtype": "noteOn"
      },
      {
        "deltaTime": 0,
        "channel": 9,
        "type": "channel",
        "noteNumber": 35,
        "velocity": 121,
        "subtype": "noteOn"
      },
      {
        "deltaTime": 480,
        "channel": 9,
        "type": "channel",
        "noteNumber": 35,
        "velocity": 0,
        "subtype": "noteOff"
      },
      {
        "deltaTime": 0,
        "channel": 9,
        "type": "channel",
        "noteNumber": 46,
        "velocity": 0,
        "subtype": "noteOff"
      },
      {
        "deltaTime": 0,
        "channel": 9,
        "type": "channel",
        "noteNumber": 46,
        "velocity": 121,
        "subtype": "noteOn"
      },
      {
        "deltaTime": 480,
        "channel": 9,
        "type": "channel",
        "noteNumber": 46,
        "velocity": 0,
        "subtype": "noteOff"
      },
      {
        "deltaTime": 0,
        "channel": 9,
        "type": "channel",
        "noteNumber": 35,
        "velocity": 121,
        "subtype": "noteOn"
      },
      {
        "deltaTime": 0,
        "channel": 9,
        "type": "channel",
        "noteNumber": 46,
        "velocity": 121,
        "subtype": "noteOn"
      },
      {
        "deltaTime": 0,
        "channel": 9,
        "type": "channel",
        "noteNumber": 38,
        "velocity": 121,
        "subtype": "noteOn"
      },
      {
        "deltaTime": 480,
        "channel": 9,
        "type": "channel",
        "noteNumber": 38,
        "velocity": 0,
        "subtype": "noteOff"
      },
      {
        "deltaTime": 0,
        "channel": 9,
        "type": "channel",
        "noteNumber": 46,
        "velocity": 0,
        "subtype": "noteOff"
      },
      {
        "deltaTime": 0,
        "channel": 9,
        "type": "channel",
        "noteNumber": 35,
        "velocity": 0,
        "subtype": "noteOff"
      },
      {
        "deltaTime": 0,
        "channel": 9,
        "type": "channel",
        "noteNumber": 46,
        "velocity": 121,
        "subtype": "noteOn"
      },
      {
        "deltaTime": 480,
        "channel": 9,
        "type": "channel",
        "noteNumber": 46,
        "velocity": 0,
        "subtype": "noteOff"
      },
      {
        "deltaTime": 0,
        "channel": 9,
        "type": "channel",
        "noteNumber": 46,
        "velocity": 121,
        "subtype": "noteOn"
      },
      {
        "deltaTime": 0,
        "channel": 9,
        "type": "channel",
        "noteNumber": 35,
        "velocity": 121,
        "subtype": "noteOn"
      },
      {
        "deltaTime": 480,
        "channel": 9,
        "type": "channel",
        "noteNumber": 35,
        "velocity": 0,
        "subtype": "noteOff"
      },
      {
        "deltaTime": 0,
        "channel": 9,
        "type": "channel",
        "noteNumber": 46,
        "velocity": 0,
        "subtype": "noteOff"
      },
      {
        "deltaTime": 0,
        "channel": 9,
        "type": "channel",
        "noteNumber": 46,
        "velocity": 121,
        "subtype": "noteOn"
      },
      {
        "deltaTime": 480,
        "channel": 9,
        "type": "channel",
        "noteNumber": 46,
        "velocity": 0,
        "subtype": "noteOff"
      },
      {
        "deltaTime": 0,
        "channel": 9,
        "type": "channel",
        "noteNumber": 35,
        "velocity": 121,
        "subtype": "noteOn"
      },
      {
        "deltaTime": 0,
        "channel": 9,
        "type": "channel",
        "noteNumber": 46,
        "velocity": 121,
        "subtype": "noteOn"
      },
      {
        "deltaTime": 0,
        "channel": 9,
        "type": "channel",
        "noteNumber": 38,
        "velocity": 121,
        "subtype": "noteOn"
      },
      {
        "deltaTime": 480,
        "channel": 9,
        "type": "channel",
        "noteNumber": 38,
        "velocity": 0,
        "subtype": "noteOff"
      },
      {
        "deltaTime": 0,
        "channel": 9,
        "type": "channel",
        "noteNumber": 46,
        "velocity": 0,
        "subtype": "noteOff"
      },
      {
        "deltaTime": 0,
        "channel": 9,
        "type": "channel",
        "noteNumber": 35,
        "velocity": 0,
        "subtype": "noteOff"
      },
      {
        "deltaTime": 0,
        "channel": 9,
        "type": "channel",
        "noteNumber": 46,
        "velocity": 121,
        "subtype": "noteOn"
      },
      {
        "deltaTime": 480,
        "channel": 9,
        "type": "channel",
        "noteNumber": 46,
        "velocity": 0,
        "subtype": "noteOff"
      },
      {
        "deltaTime": 0,
        "channel": 9,
        "type": "channel",
        "noteNumber": 46,
        "velocity": 121,
        "subtype": "noteOn"
      },
      {
        "deltaTime": 0,
        "channel": 9,
        "type": "channel",
        "noteNumber": 35,
        "velocity": 121,
        "subtype": "noteOn"
      },
      {
        "deltaTime": 480,
        "channel": 9,
        "type": "channel",
        "noteNumber": 35,
        "velocity": 0,
        "subtype": "noteOff"
      },
      {
        "deltaTime": 0,
        "channel": 9,
        "type": "channel",
        "noteNumber": 46,
        "velocity": 0,
        "subtype": "noteOff"
      },
      {
        "deltaTime": 0,
        "channel": 9,
        "type": "channel",
        "noteNumber": 46,
        "velocity": 121,
        "subtype": "noteOn"
      },
      {
        "deltaTime": 480,
        "channel": 9,
        "type": "channel",
        "noteNumber": 46,
        "velocity": 0,
        "subtype": "noteOff"
      },
      {
        "deltaTime": 0,
        "channel": 9,
        "type": "channel",
        "noteNumber": 35,
        "velocity": 121,
        "subtype": "noteOn"
      },
      {
        "deltaTime": 0,
        "channel": 9,
        "type": "channel",
        "noteNumber": 46,
        "velocity": 121,
        "subtype": "noteOn"
      },
      {
        "deltaTime": 0,
        "channel": 9,
        "type": "channel",
        "noteNumber": 38,
        "velocity": 121,
        "subtype": "noteOn"
      },
      {
        "deltaTime": 480,
        "channel": 9,
        "type": "channel",
        "noteNumber": 38,
        "velocity": 0,
        "subtype": "noteOff"
      },
      {
        "deltaTime": 0,
        "channel": 9,
        "type": "channel",
        "noteNumber": 46,
        "velocity": 0,
        "subtype": "noteOff"
      },
      {
        "deltaTime": 0,
        "channel": 9,
        "type": "channel",
        "noteNumber": 35,
        "velocity": 0,
        "subtype": "noteOff"
      },
      {
        "deltaTime": 0,
        "channel": 9,
        "type": "channel",
        "noteNumber": 46,
        "velocity": 121,
        "subtype": "noteOn"
      },
      {
        "deltaTime": 480,
        "channel": 9,
        "type": "channel",
        "noteNumber": 46,
        "velocity": 0,
        "subtype": "noteOff"
      },
      {
        "deltaTime": 0,
        "channel": 9,
        "type": "channel",
        "noteNumber": 46,
        "velocity": 121,
        "subtype": "noteOn"
      },
      {
        "deltaTime": 0,
        "channel": 9,
        "type": "channel",
        "noteNumber": 35,
        "velocity": 121,
        "subtype": "noteOn"
      },
      {
        "deltaTime": 480,
        "channel": 9,
        "type": "channel",
        "noteNumber": 35,
        "velocity": 0,
        "subtype": "noteOff"
      },
      {
        "deltaTime": 0,
        "channel": 9,
        "type": "channel",
        "noteNumber": 46,
        "velocity": 0,
        "subtype": "noteOff"
      },
      {
        "deltaTime": 0,
        "channel": 9,
        "type": "channel",
        "noteNumber": 46,
        "velocity": 121,
        "subtype": "noteOn"
      },
      {
        "deltaTime": 480,
        "channel": 9,
        "type": "channel",
        "noteNumber": 46,
        "velocity": 0,
        "subtype": "noteOff"
      },
      {
        "deltaTime": 0,
        "channel": 9,
        "type": "channel",
        "noteNumber": 35,
        "velocity": 121,
        "subtype": "noteOn"
      },
      {
        "deltaTime": 0,
        "channel": 9,
        "type": "channel",
        "noteNumber": 46,
        "velocity": 121,
        "subtype": "noteOn"
      },
      {
        "deltaTime": 0,
        "channel": 9,
        "type": "channel",
        "noteNumber": 38,
        "velocity": 121,
        "subtype": "noteOn"
      },
      {
        "deltaTime": 480,
        "channel": 9,
        "type": "channel",
        "noteNumber": 38,
        "velocity": 0,
        "subtype": "noteOff"
      },
      {
        "deltaTime": 0,
        "channel": 9,
        "type": "channel",
        "noteNumber": 46,
        "velocity": 0,
        "subtype": "noteOff"
      },
      {
        "deltaTime": 0,
        "channel": 9,
        "type": "channel",
        "noteNumber": 35,
        "velocity": 0,
        "subtype": "noteOff"
      },
      {
        "deltaTime": 0,
        "channel": 9,
        "type": "channel",
        "noteNumber": 46,
        "velocity": 121,
        "subtype": "noteOn"
      },
      {
        "deltaTime": 480,
        "channel": 9,
        "type": "channel",
        "noteNumber": 46,
        "velocity": 0,
        "subtype": "noteOff"
      },
      {
        "deltaTime": 0,
        "channel": 9,
        "type": "channel",
        "noteNumber": 46,
        "velocity": 121,
        "subtype": "noteOn"
      },
      {
        "deltaTime": 0,
        "channel": 9,
        "type": "channel",
        "noteNumber": 35,
        "velocity": 121,
        "subtype": "noteOn"
      },
      {
        "deltaTime": 480,
        "channel": 9,
        "type": "channel",
        "noteNumber": 35,
        "velocity": 0,
        "subtype": "noteOff"
      },
      {
        "deltaTime": 0,
        "channel": 9,
        "type": "channel",
        "noteNumber": 46,
        "velocity": 0,
        "subtype": "noteOff"
      },
      {
        "deltaTime": 0,
        "channel": 9,
        "type": "channel",
        "noteNumber": 46,
        "velocity": 121,
        "subtype": "noteOn"
      },
      {
        "deltaTime": 480,
        "channel": 9,
        "type": "channel",
        "noteNumber": 46,
        "velocity": 0,
        "subtype": "noteOff"
      },
      {
        "deltaTime": 0,
        "channel": 9,
        "type": "channel",
        "noteNumber": 35,
        "velocity": 121,
        "subtype": "noteOn"
      },
      {
        "deltaTime": 0,
        "channel": 9,
        "type": "channel",
        "noteNumber": 46,
        "velocity": 121,
        "subtype": "noteOn"
      },
      {
        "deltaTime": 0,
        "channel": 9,
        "type": "channel",
        "noteNumber": 38,
        "velocity": 121,
        "subtype": "noteOn"
      },
      {
        "deltaTime": 480,
        "channel": 9,
        "type": "channel",
        "noteNumber": 38,
        "velocity": 0,
        "subtype": "noteOff"
      },
      {
        "deltaTime": 0,
        "channel": 9,
        "type": "channel",
        "noteNumber": 46,
        "velocity": 0,
        "subtype": "noteOff"
      },
      {
        "deltaTime": 0,
        "channel": 9,
        "type": "channel",
        "noteNumber": 35,
        "velocity": 0,
        "subtype": "noteOff"
      },
      {
        "deltaTime": 0,
        "channel": 9,
        "type": "channel",
        "noteNumber": 46,
        "velocity": 121,
        "subtype": "noteOn"
      },
      {
        "deltaTime": 480,
        "channel": 9,
        "type": "channel",
        "noteNumber": 46,
        "velocity": 0,
        "subtype": "noteOff"
      },
      {
        "deltaTime": 0,
        "channel": 9,
        "type": "channel",
        "noteNumber": 46,
        "velocity": 121,
        "subtype": "noteOn"
      },
      {
        "deltaTime": 0,
        "channel": 9,
        "type": "channel",
        "noteNumber": 35,
        "velocity": 121,
        "subtype": "noteOn"
      },
      {
        "deltaTime": 480,
        "channel": 9,
        "type": "channel",
        "noteNumber": 35,
        "velocity": 0,
        "subtype": "noteOff"
      },
      {
        "deltaTime": 0,
        "channel": 9,
        "type": "channel",
        "noteNumber": 46,
        "velocity": 0,
        "subtype": "noteOff"
      },
      {
        "deltaTime": 0,
        "channel": 9,
        "type": "channel",
        "noteNumber": 46,
        "velocity": 121,
        "subtype": "noteOn"
      },
      {
        "deltaTime": 480,
        "channel": 9,
        "type": "channel",
        "noteNumber": 46,
        "velocity": 0,
        "subtype": "noteOff"
      },
      {
        "deltaTime": 0,
        "channel": 9,
        "type": "channel",
        "noteNumber": 35,
        "velocity": 121,
        "subtype": "noteOn"
      },
      {
        "deltaTime": 0,
        "channel": 9,
        "type": "channel",
        "noteNumber": 46,
        "velocity": 121,
        "subtype": "noteOn"
      },
      {
        "deltaTime": 0,
        "channel": 9,
        "type": "channel",
        "noteNumber": 38,
        "velocity": 121,
        "subtype": "noteOn"
      },
      {
        "deltaTime": 480,
        "channel": 9,
        "type": "channel",
        "noteNumber": 38,
        "velocity": 0,
        "subtype": "noteOff"
      },
      {
        "deltaTime": 0,
        "channel": 9,
        "type": "channel",
        "noteNumber": 46,
        "velocity": 0,
        "subtype": "noteOff"
      },
      {
        "deltaTime": 0,
        "channel": 9,
        "type": "channel",
        "noteNumber": 35,
        "velocity": 0,
        "subtype": "noteOff"
      },
      {
        "deltaTime": 0,
        "channel": 9,
        "type": "channel",
        "noteNumber": 46,
        "velocity": 121,
        "subtype": "noteOn"
      },
      {
        "deltaTime": 480,
        "channel": 9,
        "type": "channel",
        "noteNumber": 46,
        "velocity": 0,
        "subtype": "noteOff"
      },
      {
        "deltaTime": 0,
        "channel": 9,
        "type": "channel",
        "noteNumber": 46,
        "velocity": 121,
        "subtype": "noteOn"
      },
      {
        "deltaTime": 0,
        "channel": 9,
        "type": "channel",
        "noteNumber": 35,
        "velocity": 121,
        "subtype": "noteOn"
      },
      {
        "deltaTime": 480,
        "channel": 9,
        "type": "channel",
        "noteNumber": 35,
        "velocity": 0,
        "subtype": "noteOff"
      },
      {
        "deltaTime": 0,
        "channel": 9,
        "type": "channel",
        "noteNumber": 46,
        "velocity": 0,
        "subtype": "noteOff"
      },
      {
        "deltaTime": 0,
        "channel": 9,
        "type": "channel",
        "noteNumber": 46,
        "velocity": 121,
        "subtype": "noteOn"
      },
      {
        "deltaTime": 480,
        "channel": 9,
        "type": "channel",
        "noteNumber": 46,
        "velocity": 0,
        "subtype": "noteOff"
      },
      {
        "deltaTime": 0,
        "channel": 9,
        "type": "channel",
        "noteNumber": 36,
        "velocity": 121,
        "subtype": "noteOn"
      },
      {
        "deltaTime": 0,
        "channel": 9,
        "type": "channel",
        "noteNumber": 35,
        "velocity": 121,
        "subtype": "noteOn"
      },
      {
        "deltaTime": 0,
        "channel": 9,
        "type": "channel",
        "noteNumber": 43,
        "velocity": 121,
        "subtype": "noteOn"
      },
      {
        "deltaTime": 0,
        "channel": 9,
        "type": "channel",
        "noteNumber": 38,
        "velocity": 121,
        "subtype": "noteOn"
      },
      {
        "deltaTime": 960,
        "channel": 9,
        "type": "channel",
        "noteNumber": 38,
        "velocity": 0,
        "subtype": "noteOff"
      },
      {
        "deltaTime": 0,
        "channel": 9,
        "type": "channel",
        "noteNumber": 36,
        "velocity": 0,
        "subtype": "noteOff"
      },
      {
        "deltaTime": 0,
        "channel": 9,
        "type": "channel",
        "noteNumber": 35,
        "velocity": 0,
        "subtype": "noteOff"
      },
      {
        "deltaTime": 0,
        "channel": 9,
        "type": "channel",
        "noteNumber": 43,
        "velocity": 0,
        "subtype": "noteOff"
      },
      {
        "deltaTime": 0,
        "channel": 9,
        "type": "channel",
        "noteNumber": 57,
        "velocity": 121,
        "subtype": "noteOn"
      },
      {
        "deltaTime": 0,
        "channel": 9,
        "type": "channel",
        "noteNumber": 35,
        "velocity": 121,
        "subtype": "noteOn"
      },
      {
        "deltaTime": 480,
        "channel": 9,
        "type": "channel",
        "noteNumber": 35,
        "velocity": 0,
        "subtype": "noteOff"
      },
      {
        "deltaTime": 0,
        "channel": 9,
        "type": "channel",
        "noteNumber": 57,
        "velocity": 0,
        "subtype": "noteOff"
      },
      {
        "deltaTime": 480,
        "channel": 9,
        "type": "channel",
        "noteNumber": 35,
        "velocity": 121,
        "subtype": "noteOn"
      },
      {
        "deltaTime": 0,
        "channel": 9,
        "type": "channel",
        "noteNumber": 46,
        "velocity": 121,
        "subtype": "noteOn"
      },
      {
        "deltaTime": 0,
        "channel": 9,
        "type": "channel",
        "noteNumber": 38,
        "velocity": 121,
        "subtype": "noteOn"
      },
      {
        "deltaTime": 480,
        "channel": 9,
        "type": "channel",
        "noteNumber": 38,
        "velocity": 0,
        "subtype": "noteOff"
      },
      {
        "deltaTime": 0,
        "channel": 9,
        "type": "channel",
        "noteNumber": 46,
        "velocity": 0,
        "subtype": "noteOff"
      },
      {
        "deltaTime": 0,
        "channel": 9,
        "type": "channel",
        "noteNumber": 35,
        "velocity": 0,
        "subtype": "noteOff"
      },
      {
        "deltaTime": 0,
        "channel": 9,
        "type": "channel",
        "noteNumber": 46,
        "velocity": 121,
        "subtype": "noteOn"
      },
      {
        "deltaTime": 480,
        "channel": 9,
        "type": "channel",
        "noteNumber": 46,
        "velocity": 0,
        "subtype": "noteOff"
      },
      {
        "deltaTime": 0,
        "channel": 9,
        "type": "channel",
        "noteNumber": 46,
        "velocity": 121,
        "subtype": "noteOn"
      },
      {
        "deltaTime": 0,
        "channel": 9,
        "type": "channel",
        "noteNumber": 35,
        "velocity": 121,
        "subtype": "noteOn"
      },
      {
        "deltaTime": 480,
        "channel": 9,
        "type": "channel",
        "noteNumber": 35,
        "velocity": 0,
        "subtype": "noteOff"
      },
      {
        "deltaTime": 0,
        "channel": 9,
        "type": "channel",
        "noteNumber": 46,
        "velocity": 0,
        "subtype": "noteOff"
      },
      {
        "deltaTime": 0,
        "channel": 9,
        "type": "channel",
        "noteNumber": 46,
        "velocity": 121,
        "subtype": "noteOn"
      },
      {
        "deltaTime": 480,
        "channel": 9,
        "type": "channel",
        "noteNumber": 46,
        "velocity": 0,
        "subtype": "noteOff"
      },
      {
        "deltaTime": 0,
        "channel": 9,
        "type": "channel",
        "noteNumber": 35,
        "velocity": 121,
        "subtype": "noteOn"
      },
      {
        "deltaTime": 0,
        "channel": 9,
        "type": "channel",
        "noteNumber": 46,
        "velocity": 121,
        "subtype": "noteOn"
      },
      {
        "deltaTime": 0,
        "channel": 9,
        "type": "channel",
        "noteNumber": 38,
        "velocity": 121,
        "subtype": "noteOn"
      },
      {
        "deltaTime": 480,
        "channel": 9,
        "type": "channel",
        "noteNumber": 38,
        "velocity": 0,
        "subtype": "noteOff"
      },
      {
        "deltaTime": 0,
        "channel": 9,
        "type": "channel",
        "noteNumber": 46,
        "velocity": 0,
        "subtype": "noteOff"
      },
      {
        "deltaTime": 0,
        "channel": 9,
        "type": "channel",
        "noteNumber": 35,
        "velocity": 0,
        "subtype": "noteOff"
      },
      {
        "deltaTime": 0,
        "channel": 9,
        "type": "channel",
        "noteNumber": 46,
        "velocity": 121,
        "subtype": "noteOn"
      },
      {
        "deltaTime": 480,
        "channel": 9,
        "type": "channel",
        "noteNumber": 46,
        "velocity": 0,
        "subtype": "noteOff"
      },
      {
        "deltaTime": 0,
        "channel": 9,
        "type": "channel",
        "noteNumber": 46,
        "velocity": 121,
        "subtype": "noteOn"
      },
      {
        "deltaTime": 0,
        "channel": 9,
        "type": "channel",
        "noteNumber": 35,
        "velocity": 121,
        "subtype": "noteOn"
      },
      {
        "deltaTime": 480,
        "channel": 9,
        "type": "channel",
        "noteNumber": 35,
        "velocity": 0,
        "subtype": "noteOff"
      },
      {
        "deltaTime": 0,
        "channel": 9,
        "type": "channel",
        "noteNumber": 46,
        "velocity": 0,
        "subtype": "noteOff"
      },
      {
        "deltaTime": 0,
        "channel": 9,
        "type": "channel",
        "noteNumber": 46,
        "velocity": 121,
        "subtype": "noteOn"
      },
      {
        "deltaTime": 480,
        "channel": 9,
        "type": "channel",
        "noteNumber": 46,
        "velocity": 0,
        "subtype": "noteOff"
      },
      {
        "deltaTime": 0,
        "channel": 9,
        "type": "channel",
        "noteNumber": 35,
        "velocity": 121,
        "subtype": "noteOn"
      },
      {
        "deltaTime": 0,
        "channel": 9,
        "type": "channel",
        "noteNumber": 46,
        "velocity": 121,
        "subtype": "noteOn"
      },
      {
        "deltaTime": 0,
        "channel": 9,
        "type": "channel",
        "noteNumber": 38,
        "velocity": 121,
        "subtype": "noteOn"
      },
      {
        "deltaTime": 480,
        "channel": 9,
        "type": "channel",
        "noteNumber": 38,
        "velocity": 0,
        "subtype": "noteOff"
      },
      {
        "deltaTime": 0,
        "channel": 9,
        "type": "channel",
        "noteNumber": 46,
        "velocity": 0,
        "subtype": "noteOff"
      },
      {
        "deltaTime": 0,
        "channel": 9,
        "type": "channel",
        "noteNumber": 35,
        "velocity": 0,
        "subtype": "noteOff"
      },
      {
        "deltaTime": 0,
        "channel": 9,
        "type": "channel",
        "noteNumber": 46,
        "velocity": 121,
        "subtype": "noteOn"
      },
      {
        "deltaTime": 480,
        "channel": 9,
        "type": "channel",
        "noteNumber": 46,
        "velocity": 0,
        "subtype": "noteOff"
      },
      {
        "deltaTime": 0,
        "channel": 9,
        "type": "channel",
        "noteNumber": 46,
        "velocity": 121,
        "subtype": "noteOn"
      },
      {
        "deltaTime": 0,
        "channel": 9,
        "type": "channel",
        "noteNumber": 35,
        "velocity": 121,
        "subtype": "noteOn"
      },
      {
        "deltaTime": 480,
        "channel": 9,
        "type": "channel",
        "noteNumber": 35,
        "velocity": 0,
        "subtype": "noteOff"
      },
      {
        "deltaTime": 0,
        "channel": 9,
        "type": "channel",
        "noteNumber": 46,
        "velocity": 0,
        "subtype": "noteOff"
      },
      {
        "deltaTime": 0,
        "channel": 9,
        "type": "channel",
        "noteNumber": 46,
        "velocity": 121,
        "subtype": "noteOn"
      },
      {
        "deltaTime": 480,
        "channel": 9,
        "type": "channel",
        "noteNumber": 46,
        "velocity": 0,
        "subtype": "noteOff"
      },
      {
        "deltaTime": 0,
        "channel": 9,
        "type": "channel",
        "noteNumber": 35,
        "velocity": 121,
        "subtype": "noteOn"
      },
      {
        "deltaTime": 0,
        "channel": 9,
        "type": "channel",
        "noteNumber": 46,
        "velocity": 121,
        "subtype": "noteOn"
      },
      {
        "deltaTime": 0,
        "channel": 9,
        "type": "channel",
        "noteNumber": 38,
        "velocity": 121,
        "subtype": "noteOn"
      },
      {
        "deltaTime": 480,
        "channel": 9,
        "type": "channel",
        "noteNumber": 38,
        "velocity": 0,
        "subtype": "noteOff"
      },
      {
        "deltaTime": 0,
        "channel": 9,
        "type": "channel",
        "noteNumber": 46,
        "velocity": 0,
        "subtype": "noteOff"
      },
      {
        "deltaTime": 0,
        "channel": 9,
        "type": "channel",
        "noteNumber": 35,
        "velocity": 0,
        "subtype": "noteOff"
      },
      {
        "deltaTime": 0,
        "channel": 9,
        "type": "channel",
        "noteNumber": 46,
        "velocity": 121,
        "subtype": "noteOn"
      },
      {
        "deltaTime": 480,
        "channel": 9,
        "type": "channel",
        "noteNumber": 46,
        "velocity": 0,
        "subtype": "noteOff"
      },
      {
        "deltaTime": 0,
        "channel": 9,
        "type": "channel",
        "noteNumber": 46,
        "velocity": 121,
        "subtype": "noteOn"
      },
      {
        "deltaTime": 0,
        "channel": 9,
        "type": "channel",
        "noteNumber": 35,
        "velocity": 121,
        "subtype": "noteOn"
      },
      {
        "deltaTime": 480,
        "channel": 9,
        "type": "channel",
        "noteNumber": 35,
        "velocity": 0,
        "subtype": "noteOff"
      },
      {
        "deltaTime": 0,
        "channel": 9,
        "type": "channel",
        "noteNumber": 46,
        "velocity": 0,
        "subtype": "noteOff"
      },
      {
        "deltaTime": 0,
        "channel": 9,
        "type": "channel",
        "noteNumber": 46,
        "velocity": 121,
        "subtype": "noteOn"
      },
      {
        "deltaTime": 480,
        "channel": 9,
        "type": "channel",
        "noteNumber": 46,
        "velocity": 0,
        "subtype": "noteOff"
      },
      {
        "deltaTime": 0,
        "channel": 9,
        "type": "channel",
        "noteNumber": 35,
        "velocity": 121,
        "subtype": "noteOn"
      },
      {
        "deltaTime": 0,
        "channel": 9,
        "type": "channel",
        "noteNumber": 46,
        "velocity": 121,
        "subtype": "noteOn"
      },
      {
        "deltaTime": 0,
        "channel": 9,
        "type": "channel",
        "noteNumber": 38,
        "velocity": 121,
        "subtype": "noteOn"
      },
      {
        "deltaTime": 480,
        "channel": 9,
        "type": "channel",
        "noteNumber": 38,
        "velocity": 0,
        "subtype": "noteOff"
      },
      {
        "deltaTime": 0,
        "channel": 9,
        "type": "channel",
        "noteNumber": 46,
        "velocity": 0,
        "subtype": "noteOff"
      },
      {
        "deltaTime": 0,
        "channel": 9,
        "type": "channel",
        "noteNumber": 35,
        "velocity": 0,
        "subtype": "noteOff"
      },
      {
        "deltaTime": 0,
        "channel": 9,
        "type": "channel",
        "noteNumber": 46,
        "velocity": 121,
        "subtype": "noteOn"
      },
      {
        "deltaTime": 480,
        "channel": 9,
        "type": "channel",
        "noteNumber": 46,
        "velocity": 0,
        "subtype": "noteOff"
      },
      {
        "deltaTime": 0,
        "channel": 9,
        "type": "channel",
        "noteNumber": 46,
        "velocity": 121,
        "subtype": "noteOn"
      },
      {
        "deltaTime": 0,
        "channel": 9,
        "type": "channel",
        "noteNumber": 35,
        "velocity": 121,
        "subtype": "noteOn"
      },
      {
        "deltaTime": 480,
        "channel": 9,
        "type": "channel",
        "noteNumber": 35,
        "velocity": 0,
        "subtype": "noteOff"
      },
      {
        "deltaTime": 0,
        "channel": 9,
        "type": "channel",
        "noteNumber": 46,
        "velocity": 0,
        "subtype": "noteOff"
      },
      {
        "deltaTime": 0,
        "channel": 9,
        "type": "channel",
        "noteNumber": 46,
        "velocity": 121,
        "subtype": "noteOn"
      },
      {
        "deltaTime": 480,
        "channel": 9,
        "type": "channel",
        "noteNumber": 46,
        "velocity": 0,
        "subtype": "noteOff"
      },
      {
        "deltaTime": 0,
        "channel": 9,
        "type": "channel",
        "noteNumber": 35,
        "velocity": 121,
        "subtype": "noteOn"
      },
      {
        "deltaTime": 0,
        "channel": 9,
        "type": "channel",
        "noteNumber": 46,
        "velocity": 121,
        "subtype": "noteOn"
      },
      {
        "deltaTime": 0,
        "channel": 9,
        "type": "channel",
        "noteNumber": 38,
        "velocity": 121,
        "subtype": "noteOn"
      },
      {
        "deltaTime": 480,
        "channel": 9,
        "type": "channel",
        "noteNumber": 38,
        "velocity": 0,
        "subtype": "noteOff"
      },
      {
        "deltaTime": 0,
        "channel": 9,
        "type": "channel",
        "noteNumber": 46,
        "velocity": 0,
        "subtype": "noteOff"
      },
      {
        "deltaTime": 0,
        "channel": 9,
        "type": "channel",
        "noteNumber": 35,
        "velocity": 0,
        "subtype": "noteOff"
      },
      {
        "deltaTime": 0,
        "channel": 9,
        "type": "channel",
        "noteNumber": 46,
        "velocity": 121,
        "subtype": "noteOn"
      },
      {
        "deltaTime": 480,
        "channel": 9,
        "type": "channel",
        "noteNumber": 46,
        "velocity": 0,
        "subtype": "noteOff"
      },
      {
        "deltaTime": 0,
        "channel": 9,
        "type": "channel",
        "noteNumber": 46,
        "velocity": 121,
        "subtype": "noteOn"
      },
      {
        "deltaTime": 0,
        "channel": 9,
        "type": "channel",
        "noteNumber": 35,
        "velocity": 121,
        "subtype": "noteOn"
      },
      {
        "deltaTime": 480,
        "channel": 9,
        "type": "channel",
        "noteNumber": 35,
        "velocity": 0,
        "subtype": "noteOff"
      },
      {
        "deltaTime": 0,
        "channel": 9,
        "type": "channel",
        "noteNumber": 46,
        "velocity": 0,
        "subtype": "noteOff"
      },
      {
        "deltaTime": 0,
        "channel": 9,
        "type": "channel",
        "noteNumber": 46,
        "velocity": 121,
        "subtype": "noteOn"
      },
      {
        "deltaTime": 480,
        "channel": 9,
        "type": "channel",
        "noteNumber": 46,
        "velocity": 0,
        "subtype": "noteOff"
      },
      {
        "deltaTime": 0,
        "channel": 9,
        "type": "channel",
        "noteNumber": 35,
        "velocity": 121,
        "subtype": "noteOn"
      },
      {
        "deltaTime": 0,
        "channel": 9,
        "type": "channel",
        "noteNumber": 46,
        "velocity": 121,
        "subtype": "noteOn"
      },
      {
        "deltaTime": 0,
        "channel": 9,
        "type": "channel",
        "noteNumber": 38,
        "velocity": 121,
        "subtype": "noteOn"
      },
      {
        "deltaTime": 480,
        "channel": 9,
        "type": "channel",
        "noteNumber": 38,
        "velocity": 0,
        "subtype": "noteOff"
      },
      {
        "deltaTime": 0,
        "channel": 9,
        "type": "channel",
        "noteNumber": 46,
        "velocity": 0,
        "subtype": "noteOff"
      },
      {
        "deltaTime": 0,
        "channel": 9,
        "type": "channel",
        "noteNumber": 35,
        "velocity": 0,
        "subtype": "noteOff"
      },
      {
        "deltaTime": 0,
        "channel": 9,
        "type": "channel",
        "noteNumber": 46,
        "velocity": 121,
        "subtype": "noteOn"
      },
      {
        "deltaTime": 480,
        "channel": 9,
        "type": "channel",
        "noteNumber": 46,
        "velocity": 0,
        "subtype": "noteOff"
      },
      {
        "deltaTime": 0,
        "channel": 9,
        "type": "channel",
        "noteNumber": 46,
        "velocity": 121,
        "subtype": "noteOn"
      },
      {
        "deltaTime": 0,
        "channel": 9,
        "type": "channel",
        "noteNumber": 35,
        "velocity": 121,
        "subtype": "noteOn"
      },
      {
        "deltaTime": 480,
        "channel": 9,
        "type": "channel",
        "noteNumber": 35,
        "velocity": 0,
        "subtype": "noteOff"
      },
      {
        "deltaTime": 0,
        "channel": 9,
        "type": "channel",
        "noteNumber": 46,
        "velocity": 0,
        "subtype": "noteOff"
      },
      {
        "deltaTime": 0,
        "channel": 9,
        "type": "channel",
        "noteNumber": 36,
        "velocity": 121,
        "subtype": "noteOn"
      },
      {
        "deltaTime": 0,
        "channel": 9,
        "type": "channel",
        "noteNumber": 43,
        "velocity": 121,
        "subtype": "noteOn"
      },
      {
        "deltaTime": 0,
        "channel": 9,
        "type": "channel",
        "noteNumber": 38,
        "velocity": 121,
        "subtype": "noteOn"
      },
      {
        "deltaTime": 480,
        "channel": 9,
        "type": "channel",
        "noteNumber": 38,
        "velocity": 0,
        "subtype": "noteOff"
      },
      {
        "deltaTime": 0,
        "channel": 9,
        "type": "channel",
        "noteNumber": 43,
        "velocity": 0,
        "subtype": "noteOff"
      },
      {
        "deltaTime": 0,
        "channel": 9,
        "type": "channel",
        "noteNumber": 36,
        "velocity": 0,
        "subtype": "noteOff"
      },
      {
        "deltaTime": 0,
        "channel": 9,
        "type": "channel",
        "noteNumber": 36,
        "velocity": 121,
        "subtype": "noteOn"
      },
      {
        "deltaTime": 0,
        "channel": 9,
        "type": "channel",
        "noteNumber": 43,
        "velocity": 121,
        "subtype": "noteOn"
      },
      {
        "deltaTime": 0,
        "channel": 9,
        "type": "channel",
        "noteNumber": 38,
        "velocity": 121,
        "subtype": "noteOn"
      },
      {
        "deltaTime": 480,
        "channel": 9,
        "type": "channel",
        "noteNumber": 38,
        "velocity": 0,
        "subtype": "noteOff"
      },
      {
        "deltaTime": 0,
        "channel": 9,
        "type": "channel",
        "noteNumber": 43,
        "velocity": 0,
        "subtype": "noteOff"
      },
      {
        "deltaTime": 0,
        "channel": 9,
        "type": "channel",
        "noteNumber": 36,
        "velocity": 0,
        "subtype": "noteOff"
      },
      {
        "deltaTime": 480,
        "channel": 9,
        "type": "channel",
        "noteNumber": 35,
        "velocity": 121,
        "subtype": "noteOn"
      },
      {
        "deltaTime": 0,
        "channel": 9,
        "type": "channel",
        "noteNumber": 49,
        "velocity": 121,
        "subtype": "noteOn"
      },
      {
        "deltaTime": 960,
        "channel": 9,
        "type": "channel",
        "noteNumber": 49,
        "velocity": 0,
        "subtype": "noteOff"
      },
      {
        "deltaTime": 0,
        "channel": 9,
        "type": "channel",
        "noteNumber": 35,
        "velocity": 0,
        "subtype": "noteOff"
      },
      {
        "deltaTime": 0,
        "channel": 9,
        "type": "channel",
        "noteNumber": 35,
        "velocity": 121,
        "subtype": "noteOn"
      },
      {
        "deltaTime": 0,
        "channel": 9,
        "type": "channel",
        "noteNumber": 38,
        "velocity": 121,
        "subtype": "noteOn"
      },
      {
        "deltaTime": 0,
        "channel": 9,
        "type": "channel",
        "noteNumber": 49,
        "velocity": 121,
        "subtype": "noteOn"
      },
      {
        "deltaTime": 960,
        "channel": 9,
        "type": "channel",
        "noteNumber": 49,
        "velocity": 0,
        "subtype": "noteOff"
      },
      {
        "deltaTime": 0,
        "channel": 9,
        "type": "channel",
        "noteNumber": 38,
        "velocity": 0,
        "subtype": "noteOff"
      },
      {
        "deltaTime": 0,
        "channel": 9,
        "type": "channel",
        "noteNumber": 35,
        "velocity": 0,
        "subtype": "noteOff"
      },
      {
        "deltaTime": 0,
        "channel": 9,
        "type": "channel",
        "noteNumber": 35,
        "velocity": 121,
        "subtype": "noteOn"
      },
      {
        "deltaTime": 0,
        "channel": 9,
        "type": "channel",
        "noteNumber": 49,
        "velocity": 121,
        "subtype": "noteOn"
      },
      {
        "deltaTime": 960,
        "channel": 9,
        "type": "channel",
        "noteNumber": 49,
        "velocity": 0,
        "subtype": "noteOff"
      },
      {
        "deltaTime": 0,
        "channel": 9,
        "type": "channel",
        "noteNumber": 35,
        "velocity": 0,
        "subtype": "noteOff"
      },
      {
        "deltaTime": 0,
        "channel": 9,
        "type": "channel",
        "noteNumber": 38,
        "velocity": 121,
        "subtype": "noteOn"
      },
      {
        "deltaTime": 0,
        "channel": 9,
        "type": "channel",
        "noteNumber": 35,
        "velocity": 121,
        "subtype": "noteOn"
      },
      {
        "deltaTime": 0,
        "channel": 9,
        "type": "channel",
        "noteNumber": 49,
        "velocity": 121,
        "subtype": "noteOn"
      },
      {
        "deltaTime": 960,
        "channel": 9,
        "type": "channel",
        "noteNumber": 49,
        "velocity": 0,
        "subtype": "noteOff"
      },
      {
        "deltaTime": 0,
        "channel": 9,
        "type": "channel",
        "noteNumber": 35,
        "velocity": 0,
        "subtype": "noteOff"
      },
      {
        "deltaTime": 0,
        "channel": 9,
        "type": "channel",
        "noteNumber": 38,
        "velocity": 0,
        "subtype": "noteOff"
      },
      {
        "deltaTime": 0,
        "channel": 9,
        "type": "channel",
        "noteNumber": 35,
        "velocity": 121,
        "subtype": "noteOn"
      },
      {
        "deltaTime": 0,
        "channel": 9,
        "type": "channel",
        "noteNumber": 49,
        "velocity": 121,
        "subtype": "noteOn"
      },
      {
        "deltaTime": 960,
        "channel": 9,
        "type": "channel",
        "noteNumber": 49,
        "velocity": 0,
        "subtype": "noteOff"
      },
      {
        "deltaTime": 0,
        "channel": 9,
        "type": "channel",
        "noteNumber": 35,
        "velocity": 0,
        "subtype": "noteOff"
      },
      {
        "deltaTime": 0,
        "channel": 9,
        "type": "channel",
        "noteNumber": 35,
        "velocity": 121,
        "subtype": "noteOn"
      },
      {
        "deltaTime": 0,
        "channel": 9,
        "type": "channel",
        "noteNumber": 38,
        "velocity": 121,
        "subtype": "noteOn"
      },
      {
        "deltaTime": 0,
        "channel": 9,
        "type": "channel",
        "noteNumber": 49,
        "velocity": 121,
        "subtype": "noteOn"
      },
      {
        "deltaTime": 960,
        "channel": 9,
        "type": "channel",
        "noteNumber": 49,
        "velocity": 0,
        "subtype": "noteOff"
      },
      {
        "deltaTime": 0,
        "channel": 9,
        "type": "channel",
        "noteNumber": 38,
        "velocity": 0,
        "subtype": "noteOff"
      },
      {
        "deltaTime": 0,
        "channel": 9,
        "type": "channel",
        "noteNumber": 35,
        "velocity": 0,
        "subtype": "noteOff"
      },
      {
        "deltaTime": 0,
        "channel": 9,
        "type": "channel",
        "noteNumber": 35,
        "velocity": 121,
        "subtype": "noteOn"
      },
      {
        "deltaTime": 0,
        "channel": 9,
        "type": "channel",
        "noteNumber": 49,
        "velocity": 121,
        "subtype": "noteOn"
      },
      {
        "deltaTime": 960,
        "channel": 9,
        "type": "channel",
        "noteNumber": 49,
        "velocity": 0,
        "subtype": "noteOff"
      },
      {
        "deltaTime": 0,
        "channel": 9,
        "type": "channel",
        "noteNumber": 35,
        "velocity": 0,
        "subtype": "noteOff"
      },
      {
        "deltaTime": 0,
        "channel": 9,
        "type": "channel",
        "noteNumber": 38,
        "velocity": 121,
        "subtype": "noteOn"
      },
      {
        "deltaTime": 0,
        "channel": 9,
        "type": "channel",
        "noteNumber": 35,
        "velocity": 121,
        "subtype": "noteOn"
      },
      {
        "deltaTime": 0,
        "channel": 9,
        "type": "channel",
        "noteNumber": 49,
        "velocity": 121,
        "subtype": "noteOn"
      },
      {
        "deltaTime": 960,
        "channel": 9,
        "type": "channel",
        "noteNumber": 49,
        "velocity": 0,
        "subtype": "noteOff"
      },
      {
        "deltaTime": 0,
        "channel": 9,
        "type": "channel",
        "noteNumber": 35,
        "velocity": 0,
        "subtype": "noteOff"
      },
      {
        "deltaTime": 0,
        "channel": 9,
        "type": "channel",
        "noteNumber": 38,
        "velocity": 0,
        "subtype": "noteOff"
      },
      {
        "deltaTime": 0,
        "channel": 9,
        "type": "channel",
        "noteNumber": 57,
        "velocity": 121,
        "subtype": "noteOn"
      },
      {
        "deltaTime": 0,
        "channel": 9,
        "type": "channel",
        "noteNumber": 35,
        "velocity": 121,
        "subtype": "noteOn"
      },
      {
        "deltaTime": 0,
        "channel": 9,
        "type": "channel",
        "noteNumber": 49,
        "velocity": 121,
        "subtype": "noteOn"
      },
      {
        "deltaTime": 960,
        "channel": 9,
        "type": "channel",
        "noteNumber": 49,
        "velocity": 0,
        "subtype": "noteOff"
      },
      {
        "deltaTime": 0,
        "channel": 9,
        "type": "channel",
        "noteNumber": 35,
        "velocity": 0,
        "subtype": "noteOff"
      },
      {
        "deltaTime": 0,
        "channel": 9,
        "type": "channel",
        "noteNumber": 57,
        "velocity": 0,
        "subtype": "noteOff"
      },
      {
        "deltaTime": 0,
        "channel": 9,
        "type": "channel",
        "noteNumber": 35,
        "velocity": 121,
        "subtype": "noteOn"
      },
      {
        "deltaTime": 0,
        "channel": 9,
        "type": "channel",
        "noteNumber": 38,
        "velocity": 121,
        "subtype": "noteOn"
      },
      {
        "deltaTime": 0,
        "channel": 9,
        "type": "channel",
        "noteNumber": 49,
        "velocity": 121,
        "subtype": "noteOn"
      },
      {
        "deltaTime": 960,
        "channel": 9,
        "type": "channel",
        "noteNumber": 49,
        "velocity": 0,
        "subtype": "noteOff"
      },
      {
        "deltaTime": 0,
        "channel": 9,
        "type": "channel",
        "noteNumber": 38,
        "velocity": 0,
        "subtype": "noteOff"
      },
      {
        "deltaTime": 0,
        "channel": 9,
        "type": "channel",
        "noteNumber": 35,
        "velocity": 0,
        "subtype": "noteOff"
      },
      {
        "deltaTime": 0,
        "channel": 9,
        "type": "channel",
        "noteNumber": 35,
        "velocity": 121,
        "subtype": "noteOn"
      },
      {
        "deltaTime": 0,
        "channel": 9,
        "type": "channel",
        "noteNumber": 49,
        "velocity": 121,
        "subtype": "noteOn"
      },
      {
        "deltaTime": 960,
        "channel": 9,
        "type": "channel",
        "noteNumber": 49,
        "velocity": 0,
        "subtype": "noteOff"
      },
      {
        "deltaTime": 0,
        "channel": 9,
        "type": "channel",
        "noteNumber": 35,
        "velocity": 0,
        "subtype": "noteOff"
      },
      {
        "deltaTime": 0,
        "channel": 9,
        "type": "channel",
        "noteNumber": 38,
        "velocity": 121,
        "subtype": "noteOn"
      },
      {
        "deltaTime": 0,
        "channel": 9,
        "type": "channel",
        "noteNumber": 35,
        "velocity": 121,
        "subtype": "noteOn"
      },
      {
        "deltaTime": 0,
        "channel": 9,
        "type": "channel",
        "noteNumber": 49,
        "velocity": 121,
        "subtype": "noteOn"
      },
      {
        "deltaTime": 960,
        "channel": 9,
        "type": "channel",
        "noteNumber": 49,
        "velocity": 0,
        "subtype": "noteOff"
      },
      {
        "deltaTime": 0,
        "channel": 9,
        "type": "channel",
        "noteNumber": 35,
        "velocity": 0,
        "subtype": "noteOff"
      },
      {
        "deltaTime": 0,
        "channel": 9,
        "type": "channel",
        "noteNumber": 38,
        "velocity": 0,
        "subtype": "noteOff"
      },
      {
        "deltaTime": 0,
        "channel": 9,
        "type": "channel",
        "noteNumber": 35,
        "velocity": 121,
        "subtype": "noteOn"
      },
      {
        "deltaTime": 0,
        "channel": 9,
        "type": "channel",
        "noteNumber": 49,
        "velocity": 121,
        "subtype": "noteOn"
      },
      {
        "deltaTime": 960,
        "channel": 9,
        "type": "channel",
        "noteNumber": 49,
        "velocity": 0,
        "subtype": "noteOff"
      },
      {
        "deltaTime": 0,
        "channel": 9,
        "type": "channel",
        "noteNumber": 35,
        "velocity": 0,
        "subtype": "noteOff"
      },
      {
        "deltaTime": 0,
        "channel": 9,
        "type": "channel",
        "noteNumber": 35,
        "velocity": 121,
        "subtype": "noteOn"
      },
      {
        "deltaTime": 0,
        "channel": 9,
        "type": "channel",
        "noteNumber": 38,
        "velocity": 121,
        "subtype": "noteOn"
      },
      {
        "deltaTime": 0,
        "channel": 9,
        "type": "channel",
        "noteNumber": 49,
        "velocity": 121,
        "subtype": "noteOn"
      },
      {
        "deltaTime": 960,
        "channel": 9,
        "type": "channel",
        "noteNumber": 49,
        "velocity": 0,
        "subtype": "noteOff"
      },
      {
        "deltaTime": 0,
        "channel": 9,
        "type": "channel",
        "noteNumber": 38,
        "velocity": 0,
        "subtype": "noteOff"
      },
      {
        "deltaTime": 0,
        "channel": 9,
        "type": "channel",
        "noteNumber": 35,
        "velocity": 0,
        "subtype": "noteOff"
      },
      {
        "deltaTime": 0,
        "channel": 9,
        "type": "channel",
        "noteNumber": 35,
        "velocity": 121,
        "subtype": "noteOn"
      },
      {
        "deltaTime": 0,
        "channel": 9,
        "type": "channel",
        "noteNumber": 49,
        "velocity": 121,
        "subtype": "noteOn"
      },
      {
        "deltaTime": 960,
        "channel": 9,
        "type": "channel",
        "noteNumber": 49,
        "velocity": 0,
        "subtype": "noteOff"
      },
      {
        "deltaTime": 0,
        "channel": 9,
        "type": "channel",
        "noteNumber": 35,
        "velocity": 0,
        "subtype": "noteOff"
      },
      {
        "deltaTime": 0,
        "channel": 9,
        "type": "channel",
        "noteNumber": 38,
        "velocity": 121,
        "subtype": "noteOn"
      },
      {
        "deltaTime": 0,
        "channel": 9,
        "type": "channel",
        "noteNumber": 35,
        "velocity": 121,
        "subtype": "noteOn"
      },
      {
        "deltaTime": 0,
        "channel": 9,
        "type": "channel",
        "noteNumber": 49,
        "velocity": 121,
        "subtype": "noteOn"
      },
      {
        "deltaTime": 960,
        "channel": 9,
        "type": "channel",
        "noteNumber": 49,
        "velocity": 0,
        "subtype": "noteOff"
      },
      {
        "deltaTime": 0,
        "channel": 9,
        "type": "channel",
        "noteNumber": 35,
        "velocity": 0,
        "subtype": "noteOff"
      },
      {
        "deltaTime": 0,
        "channel": 9,
        "type": "channel",
        "noteNumber": 38,
        "velocity": 0,
        "subtype": "noteOff"
      },
      {
        "deltaTime": 0,
        "channel": 9,
        "type": "channel",
        "noteNumber": 57,
        "velocity": 121,
        "subtype": "noteOn"
      },
      {
        "deltaTime": 0,
        "channel": 9,
        "type": "channel",
        "noteNumber": 35,
        "velocity": 121,
        "subtype": "noteOn"
      },
      {
        "deltaTime": 0,
        "channel": 9,
        "type": "channel",
        "noteNumber": 49,
        "velocity": 121,
        "subtype": "noteOn"
      },
      {
        "deltaTime": 960,
        "channel": 9,
        "type": "channel",
        "noteNumber": 49,
        "velocity": 0,
        "subtype": "noteOff"
      },
      {
        "deltaTime": 0,
        "channel": 9,
        "type": "channel",
        "noteNumber": 35,
        "velocity": 0,
        "subtype": "noteOff"
      },
      {
        "deltaTime": 0,
        "channel": 9,
        "type": "channel",
        "noteNumber": 57,
        "velocity": 0,
        "subtype": "noteOff"
      },
      {
        "deltaTime": 0,
        "channel": 9,
        "type": "channel",
        "noteNumber": 35,
        "velocity": 121,
        "subtype": "noteOn"
      },
      {
        "deltaTime": 0,
        "channel": 9,
        "type": "channel",
        "noteNumber": 38,
        "velocity": 121,
        "subtype": "noteOn"
      },
      {
        "deltaTime": 0,
        "channel": 9,
        "type": "channel",
        "noteNumber": 49,
        "velocity": 121,
        "subtype": "noteOn"
      },
      {
        "deltaTime": 960,
        "channel": 9,
        "type": "channel",
        "noteNumber": 49,
        "velocity": 0,
        "subtype": "noteOff"
      },
      {
        "deltaTime": 0,
        "channel": 9,
        "type": "channel",
        "noteNumber": 38,
        "velocity": 0,
        "subtype": "noteOff"
      },
      {
        "deltaTime": 0,
        "channel": 9,
        "type": "channel",
        "noteNumber": 35,
        "velocity": 0,
        "subtype": "noteOff"
      },
      {
        "deltaTime": 0,
        "channel": 9,
        "type": "channel",
        "noteNumber": 35,
        "velocity": 121,
        "subtype": "noteOn"
      },
      {
        "deltaTime": 0,
        "channel": 9,
        "type": "channel",
        "noteNumber": 49,
        "velocity": 121,
        "subtype": "noteOn"
      },
      {
        "deltaTime": 960,
        "channel": 9,
        "type": "channel",
        "noteNumber": 49,
        "velocity": 0,
        "subtype": "noteOff"
      },
      {
        "deltaTime": 0,
        "channel": 9,
        "type": "channel",
        "noteNumber": 35,
        "velocity": 0,
        "subtype": "noteOff"
      },
      {
        "deltaTime": 0,
        "channel": 9,
        "type": "channel",
        "noteNumber": 38,
        "velocity": 121,
        "subtype": "noteOn"
      },
      {
        "deltaTime": 0,
        "channel": 9,
        "type": "channel",
        "noteNumber": 35,
        "velocity": 121,
        "subtype": "noteOn"
      },
      {
        "deltaTime": 0,
        "channel": 9,
        "type": "channel",
        "noteNumber": 49,
        "velocity": 121,
        "subtype": "noteOn"
      },
      {
        "deltaTime": 960,
        "channel": 9,
        "type": "channel",
        "noteNumber": 49,
        "velocity": 0,
        "subtype": "noteOff"
      },
      {
        "deltaTime": 0,
        "channel": 9,
        "type": "channel",
        "noteNumber": 35,
        "velocity": 0,
        "subtype": "noteOff"
      },
      {
        "deltaTime": 0,
        "channel": 9,
        "type": "channel",
        "noteNumber": 38,
        "velocity": 0,
        "subtype": "noteOff"
      },
      {
        "deltaTime": 0,
        "channel": 9,
        "type": "channel",
        "noteNumber": 35,
        "velocity": 121,
        "subtype": "noteOn"
      },
      {
        "deltaTime": 0,
        "channel": 9,
        "type": "channel",
        "noteNumber": 49,
        "velocity": 121,
        "subtype": "noteOn"
      },
      {
        "deltaTime": 960,
        "channel": 9,
        "type": "channel",
        "noteNumber": 49,
        "velocity": 0,
        "subtype": "noteOff"
      },
      {
        "deltaTime": 0,
        "channel": 9,
        "type": "channel",
        "noteNumber": 35,
        "velocity": 0,
        "subtype": "noteOff"
      },
      {
        "deltaTime": 0,
        "channel": 9,
        "type": "channel",
        "noteNumber": 35,
        "velocity": 121,
        "subtype": "noteOn"
      },
      {
        "deltaTime": 0,
        "channel": 9,
        "type": "channel",
        "noteNumber": 38,
        "velocity": 121,
        "subtype": "noteOn"
      },
      {
        "deltaTime": 0,
        "channel": 9,
        "type": "channel",
        "noteNumber": 49,
        "velocity": 121,
        "subtype": "noteOn"
      },
      {
        "deltaTime": 960,
        "channel": 9,
        "type": "channel",
        "noteNumber": 49,
        "velocity": 0,
        "subtype": "noteOff"
      },
      {
        "deltaTime": 0,
        "channel": 9,
        "type": "channel",
        "noteNumber": 38,
        "velocity": 0,
        "subtype": "noteOff"
      },
      {
        "deltaTime": 0,
        "channel": 9,
        "type": "channel",
        "noteNumber": 35,
        "velocity": 0,
        "subtype": "noteOff"
      },
      {
        "deltaTime": 0,
        "channel": 9,
        "type": "channel",
        "noteNumber": 35,
        "velocity": 121,
        "subtype": "noteOn"
      },
      {
        "deltaTime": 0,
        "channel": 9,
        "type": "channel",
        "noteNumber": 49,
        "velocity": 121,
        "subtype": "noteOn"
      },
      {
        "deltaTime": 960,
        "channel": 9,
        "type": "channel",
        "noteNumber": 49,
        "velocity": 0,
        "subtype": "noteOff"
      },
      {
        "deltaTime": 0,
        "channel": 9,
        "type": "channel",
        "noteNumber": 35,
        "velocity": 0,
        "subtype": "noteOff"
      },
      {
        "deltaTime": 0,
        "channel": 9,
        "type": "channel",
        "noteNumber": 38,
        "velocity": 121,
        "subtype": "noteOn"
      },
      {
        "deltaTime": 0,
        "channel": 9,
        "type": "channel",
        "noteNumber": 35,
        "velocity": 121,
        "subtype": "noteOn"
      },
      {
        "deltaTime": 0,
        "channel": 9,
        "type": "channel",
        "noteNumber": 49,
        "velocity": 121,
        "subtype": "noteOn"
      },
      {
        "deltaTime": 960,
        "channel": 9,
        "type": "channel",
        "noteNumber": 49,
        "velocity": 0,
        "subtype": "noteOff"
      },
      {
        "deltaTime": 0,
        "channel": 9,
        "type": "channel",
        "noteNumber": 35,
        "velocity": 0,
        "subtype": "noteOff"
      },
      {
        "deltaTime": 0,
        "channel": 9,
        "type": "channel",
        "noteNumber": 38,
        "velocity": 0,
        "subtype": "noteOff"
      },
      {
        "deltaTime": 0,
        "channel": 9,
        "type": "channel",
        "noteNumber": 35,
        "velocity": 121,
        "subtype": "noteOn"
      },
      {
        "deltaTime": 0,
        "channel": 9,
        "type": "channel",
        "noteNumber": 49,
        "velocity": 121,
        "subtype": "noteOn"
      },
      {
        "deltaTime": 960,
        "channel": 9,
        "type": "channel",
        "noteNumber": 49,
        "velocity": 0,
        "subtype": "noteOff"
      },
      {
        "deltaTime": 0,
        "channel": 9,
        "type": "channel",
        "noteNumber": 35,
        "velocity": 0,
        "subtype": "noteOff"
      },
      {
        "deltaTime": 0,
        "channel": 9,
        "type": "channel",
        "noteNumber": 35,
        "velocity": 121,
        "subtype": "noteOn"
      },
      {
        "deltaTime": 0,
        "channel": 9,
        "type": "channel",
        "noteNumber": 38,
        "velocity": 121,
        "subtype": "noteOn"
      },
      {
        "deltaTime": 0,
        "channel": 9,
        "type": "channel",
        "noteNumber": 49,
        "velocity": 121,
        "subtype": "noteOn"
      },
      {
        "deltaTime": 960,
        "channel": 9,
        "type": "channel",
        "noteNumber": 49,
        "velocity": 0,
        "subtype": "noteOff"
      },
      {
        "deltaTime": 0,
        "channel": 9,
        "type": "channel",
        "noteNumber": 38,
        "velocity": 0,
        "subtype": "noteOff"
      },
      {
        "deltaTime": 0,
        "channel": 9,
        "type": "channel",
        "noteNumber": 35,
        "velocity": 0,
        "subtype": "noteOff"
      },
      {
        "deltaTime": 0,
        "channel": 9,
        "type": "channel",
        "noteNumber": 35,
        "velocity": 121,
        "subtype": "noteOn"
      },
      {
        "deltaTime": 0,
        "channel": 9,
        "type": "channel",
        "noteNumber": 49,
        "velocity": 121,
        "subtype": "noteOn"
      },
      {
        "deltaTime": 960,
        "channel": 9,
        "type": "channel",
        "noteNumber": 49,
        "velocity": 0,
        "subtype": "noteOff"
      },
      {
        "deltaTime": 0,
        "channel": 9,
        "type": "channel",
        "noteNumber": 35,
        "velocity": 0,
        "subtype": "noteOff"
      },
      {
        "deltaTime": 0,
        "channel": 9,
        "type": "channel",
        "noteNumber": 38,
        "velocity": 121,
        "subtype": "noteOn"
      },
      {
        "deltaTime": 0,
        "channel": 9,
        "type": "channel",
        "noteNumber": 35,
        "velocity": 121,
        "subtype": "noteOn"
      },
      {
        "deltaTime": 0,
        "channel": 9,
        "type": "channel",
        "noteNumber": 49,
        "velocity": 121,
        "subtype": "noteOn"
      },
      {
        "deltaTime": 960,
        "channel": 9,
        "type": "channel",
        "noteNumber": 49,
        "velocity": 0,
        "subtype": "noteOff"
      },
      {
        "deltaTime": 0,
        "channel": 9,
        "type": "channel",
        "noteNumber": 35,
        "velocity": 0,
        "subtype": "noteOff"
      },
      {
        "deltaTime": 0,
        "channel": 9,
        "type": "channel",
        "noteNumber": 38,
        "velocity": 0,
        "subtype": "noteOff"
      },
      {
        "deltaTime": 0,
        "channel": 9,
        "type": "channel",
        "noteNumber": 49,
        "velocity": 121,
        "subtype": "noteOn"
      },
      {
        "deltaTime": 0,
        "channel": 9,
        "type": "channel",
        "noteNumber": 35,
        "velocity": 121,
        "subtype": "noteOn"
      },
      {
        "deltaTime": 960,
        "channel": 9,
        "type": "channel",
        "noteNumber": 35,
        "velocity": 0,
        "subtype": "noteOff"
      },
      {
        "deltaTime": 0,
        "channel": 9,
        "type": "channel",
        "noteNumber": 49,
        "velocity": 0,
        "subtype": "noteOff"
      },
      {
        "deltaTime": 0,
        "channel": 9,
        "type": "channel",
        "noteNumber": 49,
        "velocity": 121,
        "subtype": "noteOn"
      },
      {
        "deltaTime": 0,
        "channel": 9,
        "type": "channel",
        "noteNumber": 35,
        "velocity": 121,
        "subtype": "noteOn"
      },
      {
        "deltaTime": 0,
        "channel": 9,
        "type": "channel",
        "noteNumber": 38,
        "velocity": 121,
        "subtype": "noteOn"
      },
      {
        "deltaTime": 960,
        "channel": 9,
        "type": "channel",
        "noteNumber": 38,
        "velocity": 0,
        "subtype": "noteOff"
      },
      {
        "deltaTime": 0,
        "channel": 9,
        "type": "channel",
        "noteNumber": 35,
        "velocity": 0,
        "subtype": "noteOff"
      },
      {
        "deltaTime": 0,
        "channel": 9,
        "type": "channel",
        "noteNumber": 49,
        "velocity": 0,
        "subtype": "noteOff"
      },
      {
        "deltaTime": 0,
        "channel": 9,
        "type": "channel",
        "noteNumber": 36,
        "velocity": 121,
        "subtype": "noteOn"
      },
      {
        "deltaTime": 0,
        "channel": 9,
        "type": "channel",
        "noteNumber": 43,
        "velocity": 121,
        "subtype": "noteOn"
      },
      {
        "deltaTime": 0,
        "channel": 9,
        "type": "channel",
        "noteNumber": 35,
        "velocity": 121,
        "subtype": "noteOn"
      },
      {
        "deltaTime": 240,
        "channel": 9,
        "type": "channel",
        "noteNumber": 35,
        "velocity": 0,
        "subtype": "noteOff"
      },
      {
        "deltaTime": 0,
        "channel": 9,
        "type": "channel",
        "noteNumber": 43,
        "velocity": 0,
        "subtype": "noteOff"
      },
      {
        "deltaTime": 0,
        "channel": 9,
        "type": "channel",
        "noteNumber": 36,
        "velocity": 0,
        "subtype": "noteOff"
      },
      {
        "deltaTime": 0,
        "channel": 9,
        "type": "channel",
        "noteNumber": 38,
        "velocity": 76,
        "subtype": "noteOn"
      },
      {
        "deltaTime": 240,
        "channel": 9,
        "type": "channel",
        "noteNumber": 38,
        "velocity": 0,
        "subtype": "noteOff"
      },
      {
        "deltaTime": 0,
        "channel": 9,
        "type": "channel",
        "noteNumber": 38,
        "velocity": 81,
        "subtype": "noteOn"
      },
      {
        "deltaTime": 240,
        "channel": 9,
        "type": "channel",
        "noteNumber": 38,
        "velocity": 0,
        "subtype": "noteOff"
      },
      {
        "deltaTime": 0,
        "channel": 9,
        "type": "channel",
        "noteNumber": 38,
        "velocity": 86,
        "subtype": "noteOn"
      },
      {
        "deltaTime": 240,
        "channel": 9,
        "type": "channel",
        "noteNumber": 38,
        "velocity": 0,
        "subtype": "noteOff"
      },
      {
        "deltaTime": 0,
        "channel": 9,
        "type": "channel",
        "noteNumber": 35,
        "velocity": 121,
        "subtype": "noteOn"
      },
      {
        "deltaTime": 0,
        "channel": 9,
        "type": "channel",
        "noteNumber": 38,
        "velocity": 91,
        "subtype": "noteOn"
      },
      {
        "deltaTime": 240,
        "channel": 9,
        "type": "channel",
        "noteNumber": 38,
        "velocity": 0,
        "subtype": "noteOff"
      },
      {
        "deltaTime": 0,
        "channel": 9,
        "type": "channel",
        "noteNumber": 35,
        "velocity": 0,
        "subtype": "noteOff"
      },
      {
        "deltaTime": 0,
        "channel": 9,
        "type": "channel",
        "noteNumber": 38,
        "velocity": 96,
        "subtype": "noteOn"
      },
      {
        "deltaTime": 240,
        "channel": 9,
        "type": "channel",
        "noteNumber": 38,
        "velocity": 0,
        "subtype": "noteOff"
      },
      {
        "deltaTime": 0,
        "channel": 9,
        "type": "channel",
        "noteNumber": 38,
        "velocity": 101,
        "subtype": "noteOn"
      },
      {
        "deltaTime": 240,
        "channel": 9,
        "type": "channel",
        "noteNumber": 38,
        "velocity": 0,
        "subtype": "noteOff"
      },
      {
        "deltaTime": 0,
        "channel": 9,
        "type": "channel",
        "noteNumber": 38,
        "velocity": 106,
        "subtype": "noteOn"
      },
      {
        "deltaTime": 240,
        "channel": 9,
        "type": "channel",
        "noteNumber": 38,
        "velocity": 0,
        "subtype": "noteOff"
      },
      {
        "deltaTime": 0,
        "channel": 9,
        "type": "channel",
        "noteNumber": 35,
        "velocity": 121,
        "subtype": "noteOn"
      },
      {
        "deltaTime": 0,
        "channel": 9,
        "type": "channel",
        "noteNumber": 38,
        "velocity": 121,
        "subtype": "noteOn"
      },
      {
        "deltaTime": 960,
        "channel": 9,
        "type": "channel",
        "noteNumber": 38,
        "velocity": 0,
        "subtype": "noteOff"
      },
      {
        "deltaTime": 0,
        "channel": 9,
        "type": "channel",
        "noteNumber": 35,
        "velocity": 0,
        "subtype": "noteOff"
      },
      {
        "deltaTime": 9600,
        "channel": 9,
        "type": "channel",
        "noteNumber": 43,
        "velocity": 121,
        "subtype": "noteOn"
      },
      {
        "deltaTime": 0,
        "channel": 9,
        "type": "channel",
        "noteNumber": 41,
        "velocity": 121,
        "subtype": "noteOn"
      },
      {
        "deltaTime": 0,
        "channel": 9,
        "type": "channel",
        "noteNumber": 35,
        "velocity": 121,
        "subtype": "noteOn"
      },
      {
        "deltaTime": 0,
        "channel": 9,
        "type": "channel",
        "noteNumber": 36,
        "velocity": 121,
        "subtype": "noteOn"
      },
      {
        "deltaTime": 960,
        "channel": 9,
        "type": "channel",
        "noteNumber": 36,
        "velocity": 0,
        "subtype": "noteOff"
      },
      {
        "deltaTime": 0,
        "channel": 9,
        "type": "channel",
        "noteNumber": 43,
        "velocity": 0,
        "subtype": "noteOff"
      },
      {
        "deltaTime": 0,
        "channel": 9,
        "type": "channel",
        "noteNumber": 41,
        "velocity": 0,
        "subtype": "noteOff"
      },
      {
        "deltaTime": 0,
        "channel": 9,
        "type": "channel",
        "noteNumber": 35,
        "velocity": 0,
        "subtype": "noteOff"
      },
      {
        "deltaTime": 0,
        "channel": 9,
        "type": "channel",
        "noteNumber": 57,
        "velocity": 121,
        "subtype": "noteOn"
      },
      {
        "deltaTime": 0,
        "channel": 9,
        "type": "channel",
        "noteNumber": 49,
        "velocity": 121,
        "subtype": "noteOn"
      },
      {
        "deltaTime": 0,
        "channel": 9,
        "type": "channel",
        "noteNumber": 35,
        "velocity": 121,
        "subtype": "noteOn"
      },
      {
        "deltaTime": 720,
        "channel": 9,
        "type": "channel",
        "noteNumber": 35,
        "velocity": 0,
        "subtype": "noteOff"
      },
      {
        "deltaTime": 0,
        "channel": 9,
        "type": "channel",
        "noteNumber": 49,
        "velocity": 0,
        "subtype": "noteOff"
      },
      {
        "deltaTime": 0,
        "channel": 9,
        "type": "channel",
        "noteNumber": 57,
        "velocity": 0,
        "subtype": "noteOff"
      },
      {
        "deltaTime": 0,
        "channel": 9,
        "type": "channel",
        "noteNumber": 57,
        "velocity": 121,
        "subtype": "noteOn"
      },
      {
        "deltaTime": 0,
        "channel": 9,
        "type": "channel",
        "noteNumber": 49,
        "velocity": 121,
        "subtype": "noteOn"
      },
      {
        "deltaTime": 0,
        "channel": 9,
        "type": "channel",
        "noteNumber": 35,
        "velocity": 121,
        "subtype": "noteOn"
      },
      {
        "deltaTime": 720,
        "channel": 9,
        "type": "channel",
        "noteNumber": 35,
        "velocity": 0,
        "subtype": "noteOff"
      },
      {
        "deltaTime": 0,
        "channel": 9,
        "type": "channel",
        "noteNumber": 49,
        "velocity": 0,
        "subtype": "noteOff"
      },
      {
        "deltaTime": 0,
        "channel": 9,
        "type": "channel",
        "noteNumber": 57,
        "velocity": 0,
        "subtype": "noteOff"
      },
      {
        "deltaTime": 0,
        "channel": 9,
        "type": "channel",
        "noteNumber": 57,
        "velocity": 121,
        "subtype": "noteOn"
      },
      {
        "deltaTime": 0,
        "channel": 9,
        "type": "channel",
        "noteNumber": 49,
        "velocity": 121,
        "subtype": "noteOn"
      },
      {
        "deltaTime": 0,
        "channel": 9,
        "type": "channel",
        "noteNumber": 35,
        "velocity": 121,
        "subtype": "noteOn"
      },
      {
        "deltaTime": 240,
        "channel": 9,
        "type": "channel",
        "noteNumber": 35,
        "velocity": 0,
        "subtype": "noteOff"
      },
      {
        "deltaTime": 0,
        "channel": 9,
        "type": "channel",
        "noteNumber": 49,
        "velocity": 0,
        "subtype": "noteOff"
      },
      {
        "deltaTime": 0,
        "channel": 9,
        "type": "channel",
        "noteNumber": 57,
        "velocity": 0,
        "subtype": "noteOff"
      },
      {
        "deltaTime": 240,
        "channel": 9,
        "type": "channel",
        "noteNumber": 38,
        "velocity": 121,
        "subtype": "noteOn"
      },
      {
        "deltaTime": 240,
        "channel": 9,
        "type": "channel",
        "noteNumber": 38,
        "velocity": 0,
        "subtype": "noteOff"
      },
      {
        "deltaTime": 0,
        "channel": 9,
        "type": "channel",
        "noteNumber": 38,
        "velocity": 121,
        "subtype": "noteOn"
      },
      {
        "deltaTime": 240,
        "channel": 9,
        "type": "channel",
        "noteNumber": 38,
        "velocity": 0,
        "subtype": "noteOff"
      },
      {
        "deltaTime": 0,
        "channel": 9,
        "type": "channel",
        "noteNumber": 38,
        "velocity": 121,
        "subtype": "noteOn"
      },
      {
        "deltaTime": 240,
        "channel": 9,
        "type": "channel",
        "noteNumber": 38,
        "velocity": 0,
        "subtype": "noteOff"
      },
      {
        "deltaTime": 0,
        "channel": 9,
        "type": "channel",
        "noteNumber": 38,
        "velocity": 121,
        "subtype": "noteOn"
      },
      {
        "deltaTime": 240,
        "channel": 9,
        "type": "channel",
        "noteNumber": 38,
        "velocity": 0,
        "subtype": "noteOff"
      },
      {
        "deltaTime": 0,
        "channel": 9,
        "type": "channel",
        "noteNumber": 49,
        "velocity": 121,
        "subtype": "noteOn"
      },
      {
        "deltaTime": 0,
        "channel": 9,
        "type": "channel",
        "noteNumber": 35,
        "velocity": 121,
        "subtype": "noteOn"
      },
      {
        "deltaTime": 720,
        "channel": 9,
        "type": "channel",
        "noteNumber": 35,
        "velocity": 0,
        "subtype": "noteOff"
      },
      {
        "deltaTime": 0,
        "channel": 9,
        "type": "channel",
        "noteNumber": 49,
        "velocity": 0,
        "subtype": "noteOff"
      },
      {
        "deltaTime": 0,
        "channel": 9,
        "type": "channel",
        "noteNumber": 49,
        "velocity": 121,
        "subtype": "noteOn"
      },
      {
        "deltaTime": 0,
        "channel": 9,
        "type": "channel",
        "noteNumber": 35,
        "velocity": 121,
        "subtype": "noteOn"
      },
      {
        "deltaTime": 720,
        "channel": 9,
        "type": "channel",
        "noteNumber": 35,
        "velocity": 0,
        "subtype": "noteOff"
      },
      {
        "deltaTime": 0,
        "channel": 9,
        "type": "channel",
        "noteNumber": 49,
        "velocity": 0,
        "subtype": "noteOff"
      },
      {
        "deltaTime": 0,
        "channel": 9,
        "type": "channel",
        "noteNumber": 49,
        "velocity": 121,
        "subtype": "noteOn"
      },
      {
        "deltaTime": 0,
        "channel": 9,
        "type": "channel",
        "noteNumber": 35,
        "velocity": 121,
        "subtype": "noteOn"
      },
      {
        "deltaTime": 240,
        "channel": 9,
        "type": "channel",
        "noteNumber": 35,
        "velocity": 0,
        "subtype": "noteOff"
      },
      {
        "deltaTime": 0,
        "channel": 9,
        "type": "channel",
        "noteNumber": 49,
        "velocity": 0,
        "subtype": "noteOff"
      },
      {
        "deltaTime": 0,
        "channel": 9,
        "type": "channel",
        "noteNumber": 38,
        "velocity": 76,
        "subtype": "noteOn"
      },
      {
        "deltaTime": 240,
        "channel": 9,
        "type": "channel",
        "noteNumber": 38,
        "velocity": 0,
        "subtype": "noteOff"
      },
      {
        "deltaTime": 0,
        "channel": 9,
        "type": "channel",
        "noteNumber": 38,
        "velocity": 121,
        "subtype": "noteOn"
      },
      {
        "deltaTime": 240,
        "channel": 9,
        "type": "channel",
        "noteNumber": 38,
        "velocity": 0,
        "subtype": "noteOff"
      },
      {
        "deltaTime": 0,
        "channel": 9,
        "type": "channel",
        "noteNumber": 38,
        "velocity": 121,
        "subtype": "noteOn"
      },
      {
        "deltaTime": 240,
        "channel": 9,
        "type": "channel",
        "noteNumber": 38,
        "velocity": 0,
        "subtype": "noteOff"
      },
      {
        "deltaTime": 0,
        "channel": 9,
        "type": "channel",
        "noteNumber": 38,
        "velocity": 121,
        "subtype": "noteOn"
      },
      {
        "deltaTime": 240,
        "channel": 9,
        "type": "channel",
        "noteNumber": 38,
        "velocity": 0,
        "subtype": "noteOff"
      },
      {
        "deltaTime": 0,
        "channel": 9,
        "type": "channel",
        "noteNumber": 38,
        "velocity": 121,
        "subtype": "noteOn"
      },
      {
        "deltaTime": 240,
        "channel": 9,
        "type": "channel",
        "noteNumber": 38,
        "velocity": 0,
        "subtype": "noteOff"
      },
      {
        "deltaTime": 0,
        "channel": 9,
        "type": "channel",
        "noteNumber": 49,
        "velocity": 121,
        "subtype": "noteOn"
      },
      {
        "deltaTime": 0,
        "channel": 9,
        "type": "channel",
        "noteNumber": 35,
        "velocity": 121,
        "subtype": "noteOn"
      },
      {
        "deltaTime": 720,
        "channel": 9,
        "type": "channel",
        "noteNumber": 35,
        "velocity": 0,
        "subtype": "noteOff"
      },
      {
        "deltaTime": 0,
        "channel": 9,
        "type": "channel",
        "noteNumber": 49,
        "velocity": 0,
        "subtype": "noteOff"
      },
      {
        "deltaTime": 0,
        "channel": 9,
        "type": "channel",
        "noteNumber": 49,
        "velocity": 121,
        "subtype": "noteOn"
      },
      {
        "deltaTime": 0,
        "channel": 9,
        "type": "channel",
        "noteNumber": 35,
        "velocity": 121,
        "subtype": "noteOn"
      },
      {
        "deltaTime": 720,
        "channel": 9,
        "type": "channel",
        "noteNumber": 35,
        "velocity": 0,
        "subtype": "noteOff"
      },
      {
        "deltaTime": 0,
        "channel": 9,
        "type": "channel",
        "noteNumber": 49,
        "velocity": 0,
        "subtype": "noteOff"
      },
      {
        "deltaTime": 0,
        "channel": 9,
        "type": "channel",
        "noteNumber": 49,
        "velocity": 121,
        "subtype": "noteOn"
      },
      {
        "deltaTime": 0,
        "channel": 9,
        "type": "channel",
        "noteNumber": 35,
        "velocity": 121,
        "subtype": "noteOn"
      },
      {
        "deltaTime": 240,
        "channel": 9,
        "type": "channel",
        "noteNumber": 35,
        "velocity": 0,
        "subtype": "noteOff"
      },
      {
        "deltaTime": 0,
        "channel": 9,
        "type": "channel",
        "noteNumber": 49,
        "velocity": 0,
        "subtype": "noteOff"
      },
      {
        "deltaTime": 0,
        "channel": 9,
        "type": "channel",
        "noteNumber": 38,
        "velocity": 76,
        "subtype": "noteOn"
      },
      {
        "deltaTime": 240,
        "channel": 9,
        "type": "channel",
        "noteNumber": 38,
        "velocity": 0,
        "subtype": "noteOff"
      },
      {
        "deltaTime": 0,
        "channel": 9,
        "type": "channel",
        "noteNumber": 38,
        "velocity": 121,
        "subtype": "noteOn"
      },
      {
        "deltaTime": 240,
        "channel": 9,
        "type": "channel",
        "noteNumber": 38,
        "velocity": 0,
        "subtype": "noteOff"
      },
      {
        "deltaTime": 0,
        "channel": 9,
        "type": "channel",
        "noteNumber": 38,
        "velocity": 121,
        "subtype": "noteOn"
      },
      {
        "deltaTime": 240,
        "channel": 9,
        "type": "channel",
        "noteNumber": 38,
        "velocity": 0,
        "subtype": "noteOff"
      },
      {
        "deltaTime": 0,
        "channel": 9,
        "type": "channel",
        "noteNumber": 38,
        "velocity": 121,
        "subtype": "noteOn"
      },
      {
        "deltaTime": 240,
        "channel": 9,
        "type": "channel",
        "noteNumber": 38,
        "velocity": 0,
        "subtype": "noteOff"
      },
      {
        "deltaTime": 0,
        "channel": 9,
        "type": "channel",
        "noteNumber": 38,
        "velocity": 121,
        "subtype": "noteOn"
      },
      {
        "deltaTime": 240,
        "channel": 9,
        "type": "channel",
        "noteNumber": 38,
        "velocity": 0,
        "subtype": "noteOff"
      },
      {
        "deltaTime": 0,
        "channel": 9,
        "type": "channel",
        "noteNumber": 49,
        "velocity": 121,
        "subtype": "noteOn"
      },
      {
        "deltaTime": 0,
        "channel": 9,
        "type": "channel",
        "noteNumber": 35,
        "velocity": 121,
        "subtype": "noteOn"
      },
      {
        "deltaTime": 720,
        "channel": 9,
        "type": "channel",
        "noteNumber": 35,
        "velocity": 0,
        "subtype": "noteOff"
      },
      {
        "deltaTime": 0,
        "channel": 9,
        "type": "channel",
        "noteNumber": 49,
        "velocity": 0,
        "subtype": "noteOff"
      },
      {
        "deltaTime": 0,
        "channel": 9,
        "type": "channel",
        "noteNumber": 49,
        "velocity": 121,
        "subtype": "noteOn"
      },
      {
        "deltaTime": 0,
        "channel": 9,
        "type": "channel",
        "noteNumber": 35,
        "velocity": 121,
        "subtype": "noteOn"
      },
      {
        "deltaTime": 720,
        "channel": 9,
        "type": "channel",
        "noteNumber": 35,
        "velocity": 0,
        "subtype": "noteOff"
      },
      {
        "deltaTime": 0,
        "channel": 9,
        "type": "channel",
        "noteNumber": 49,
        "velocity": 0,
        "subtype": "noteOff"
      },
      {
        "deltaTime": 0,
        "channel": 9,
        "type": "channel",
        "noteNumber": 49,
        "velocity": 121,
        "subtype": "noteOn"
      },
      {
        "deltaTime": 0,
        "channel": 9,
        "type": "channel",
        "noteNumber": 35,
        "velocity": 121,
        "subtype": "noteOn"
      },
      {
        "deltaTime": 480,
        "channel": 9,
        "type": "channel",
        "noteNumber": 35,
        "velocity": 0,
        "subtype": "noteOff"
      },
      {
        "deltaTime": 0,
        "channel": 9,
        "type": "channel",
        "noteNumber": 49,
        "velocity": 0,
        "subtype": "noteOff"
      },
      {
        "deltaTime": 0,
        "channel": 9,
        "type": "channel",
        "noteNumber": 57,
        "velocity": 121,
        "subtype": "noteOn"
      },
      {
        "deltaTime": 0,
        "channel": 9,
        "type": "channel",
        "noteNumber": 35,
        "velocity": 121,
        "subtype": "noteOn"
      },
      {
        "deltaTime": 960,
        "channel": 9,
        "type": "channel",
        "noteNumber": 35,
        "velocity": 0,
        "subtype": "noteOff"
      },
      {
        "deltaTime": 0,
        "channel": 9,
        "type": "channel",
        "noteNumber": 57,
        "velocity": 0,
        "subtype": "noteOff"
      },
      {
        "deltaTime": 0,
        "channel": 9,
        "type": "channel",
        "noteNumber": 35,
        "velocity": 121,
        "subtype": "noteOn"
      },
      {
        "deltaTime": 0,
        "channel": 9,
        "type": "channel",
        "noteNumber": 49,
        "velocity": 121,
        "subtype": "noteOn"
      },
      {
        "deltaTime": 960,
        "channel": 9,
        "type": "channel",
        "noteNumber": 49,
        "velocity": 0,
        "subtype": "noteOff"
      },
      {
        "deltaTime": 0,
        "channel": 9,
        "type": "channel",
        "noteNumber": 35,
        "velocity": 0,
        "subtype": "noteOff"
      },
      {
        "deltaTime": 0,
        "channel": 9,
        "type": "channel",
        "noteNumber": 42,
        "velocity": 121,
        "subtype": "noteOn"
      },
      {
        "deltaTime": 0,
        "channel": 9,
        "type": "channel",
        "noteNumber": 38,
        "velocity": 121,
        "subtype": "noteOn"
      },
      {
        "deltaTime": 480,
        "channel": 9,
        "type": "channel",
        "noteNumber": 38,
        "velocity": 0,
        "subtype": "noteOff"
      },
      {
        "deltaTime": 0,
        "channel": 9,
        "type": "channel",
        "noteNumber": 42,
        "velocity": 0,
        "subtype": "noteOff"
      },
      {
        "deltaTime": 0,
        "channel": 9,
        "type": "channel",
        "noteNumber": 42,
        "velocity": 121,
        "subtype": "noteOn"
      },
      {
        "deltaTime": 480,
        "channel": 9,
        "type": "channel",
        "noteNumber": 42,
        "velocity": 0,
        "subtype": "noteOff"
      },
      {
        "deltaTime": 0,
        "channel": 9,
        "type": "channel",
        "noteNumber": 42,
        "velocity": 121,
        "subtype": "noteOn"
      },
      {
        "deltaTime": 0,
        "channel": 9,
        "type": "channel",
        "noteNumber": 35,
        "velocity": 121,
        "subtype": "noteOn"
      },
      {
        "deltaTime": 480,
        "channel": 9,
        "type": "channel",
        "noteNumber": 35,
        "velocity": 0,
        "subtype": "noteOff"
      },
      {
        "deltaTime": 0,
        "channel": 9,
        "type": "channel",
        "noteNumber": 42,
        "velocity": 0,
        "subtype": "noteOff"
      },
      {
        "deltaTime": 0,
        "channel": 9,
        "type": "channel",
        "noteNumber": 42,
        "velocity": 121,
        "subtype": "noteOn"
      },
      {
        "deltaTime": 480,
        "channel": 9,
        "type": "channel",
        "noteNumber": 42,
        "velocity": 0,
        "subtype": "noteOff"
      },
      {
        "deltaTime": 0,
        "channel": 9,
        "type": "channel",
        "noteNumber": 42,
        "velocity": 121,
        "subtype": "noteOn"
      },
      {
        "deltaTime": 0,
        "channel": 9,
        "type": "channel",
        "noteNumber": 38,
        "velocity": 121,
        "subtype": "noteOn"
      },
      {
        "deltaTime": 480,
        "channel": 9,
        "type": "channel",
        "noteNumber": 38,
        "velocity": 0,
        "subtype": "noteOff"
      },
      {
        "deltaTime": 0,
        "channel": 9,
        "type": "channel",
        "noteNumber": 42,
        "velocity": 0,
        "subtype": "noteOff"
      },
      {
        "deltaTime": 0,
        "channel": 9,
        "type": "channel",
        "noteNumber": 42,
        "velocity": 121,
        "subtype": "noteOn"
      },
      {
        "deltaTime": 480,
        "channel": 9,
        "type": "channel",
        "noteNumber": 42,
        "velocity": 0,
        "subtype": "noteOff"
      },
      {
        "deltaTime": 0,
        "channel": 9,
        "type": "channel",
        "noteNumber": 42,
        "velocity": 121,
        "subtype": "noteOn"
      },
      {
        "deltaTime": 0,
        "channel": 9,
        "type": "channel",
        "noteNumber": 35,
        "velocity": 121,
        "subtype": "noteOn"
      },
      {
        "deltaTime": 480,
        "channel": 9,
        "type": "channel",
        "noteNumber": 35,
        "velocity": 0,
        "subtype": "noteOff"
      },
      {
        "deltaTime": 0,
        "channel": 9,
        "type": "channel",
        "noteNumber": 42,
        "velocity": 0,
        "subtype": "noteOff"
      },
      {
        "deltaTime": 0,
        "channel": 9,
        "type": "channel",
        "noteNumber": 42,
        "velocity": 121,
        "subtype": "noteOn"
      },
      {
        "deltaTime": 480,
        "channel": 9,
        "type": "channel",
        "noteNumber": 42,
        "velocity": 0,
        "subtype": "noteOff"
      },
      {
        "deltaTime": 0,
        "channel": 9,
        "type": "channel",
        "noteNumber": 42,
        "velocity": 121,
        "subtype": "noteOn"
      },
      {
        "deltaTime": 0,
        "channel": 9,
        "type": "channel",
        "noteNumber": 38,
        "velocity": 121,
        "subtype": "noteOn"
      },
      {
        "deltaTime": 480,
        "channel": 9,
        "type": "channel",
        "noteNumber": 38,
        "velocity": 0,
        "subtype": "noteOff"
      },
      {
        "deltaTime": 0,
        "channel": 9,
        "type": "channel",
        "noteNumber": 42,
        "velocity": 0,
        "subtype": "noteOff"
      },
      {
        "deltaTime": 0,
        "channel": 9,
        "type": "channel",
        "noteNumber": 42,
        "velocity": 121,
        "subtype": "noteOn"
      },
      {
        "deltaTime": 480,
        "channel": 9,
        "type": "channel",
        "noteNumber": 42,
        "velocity": 0,
        "subtype": "noteOff"
      },
      {
        "deltaTime": 0,
        "channel": 9,
        "type": "channel",
        "noteNumber": 42,
        "velocity": 121,
        "subtype": "noteOn"
      },
      {
        "deltaTime": 0,
        "channel": 9,
        "type": "channel",
        "noteNumber": 35,
        "velocity": 121,
        "subtype": "noteOn"
      },
      {
        "deltaTime": 480,
        "channel": 9,
        "type": "channel",
        "noteNumber": 35,
        "velocity": 0,
        "subtype": "noteOff"
      },
      {
        "deltaTime": 0,
        "channel": 9,
        "type": "channel",
        "noteNumber": 42,
        "velocity": 0,
        "subtype": "noteOff"
      },
      {
        "deltaTime": 0,
        "channel": 9,
        "type": "channel",
        "noteNumber": 42,
        "velocity": 121,
        "subtype": "noteOn"
      },
      {
        "deltaTime": 480,
        "channel": 9,
        "type": "channel",
        "noteNumber": 42,
        "velocity": 0,
        "subtype": "noteOff"
      },
      {
        "deltaTime": 0,
        "channel": 9,
        "type": "channel",
        "noteNumber": 42,
        "velocity": 121,
        "subtype": "noteOn"
      },
      {
        "deltaTime": 0,
        "channel": 9,
        "type": "channel",
        "noteNumber": 38,
        "velocity": 121,
        "subtype": "noteOn"
      },
      {
        "deltaTime": 480,
        "channel": 9,
        "type": "channel",
        "noteNumber": 38,
        "velocity": 0,
        "subtype": "noteOff"
      },
      {
        "deltaTime": 0,
        "channel": 9,
        "type": "channel",
        "noteNumber": 42,
        "velocity": 0,
        "subtype": "noteOff"
      },
      {
        "deltaTime": 0,
        "channel": 9,
        "type": "channel",
        "noteNumber": 42,
        "velocity": 121,
        "subtype": "noteOn"
      },
      {
        "deltaTime": 480,
        "channel": 9,
        "type": "channel",
        "noteNumber": 42,
        "velocity": 0,
        "subtype": "noteOff"
      },
      {
        "deltaTime": 0,
        "channel": 9,
        "type": "channel",
        "noteNumber": 42,
        "velocity": 121,
        "subtype": "noteOn"
      },
      {
        "deltaTime": 0,
        "channel": 9,
        "type": "channel",
        "noteNumber": 35,
        "velocity": 121,
        "subtype": "noteOn"
      },
      {
        "deltaTime": 480,
        "channel": 9,
        "type": "channel",
        "noteNumber": 35,
        "velocity": 0,
        "subtype": "noteOff"
      },
      {
        "deltaTime": 0,
        "channel": 9,
        "type": "channel",
        "noteNumber": 42,
        "velocity": 0,
        "subtype": "noteOff"
      },
      {
        "deltaTime": 0,
        "channel": 9,
        "type": "channel",
        "noteNumber": 42,
        "velocity": 121,
        "subtype": "noteOn"
      },
      {
        "deltaTime": 480,
        "channel": 9,
        "type": "channel",
        "noteNumber": 42,
        "velocity": 0,
        "subtype": "noteOff"
      },
      {
        "deltaTime": 0,
        "channel": 9,
        "type": "channel",
        "noteNumber": 42,
        "velocity": 121,
        "subtype": "noteOn"
      },
      {
        "deltaTime": 0,
        "channel": 9,
        "type": "channel",
        "noteNumber": 38,
        "velocity": 121,
        "subtype": "noteOn"
      },
      {
        "deltaTime": 480,
        "channel": 9,
        "type": "channel",
        "noteNumber": 38,
        "velocity": 0,
        "subtype": "noteOff"
      },
      {
        "deltaTime": 0,
        "channel": 9,
        "type": "channel",
        "noteNumber": 42,
        "velocity": 0,
        "subtype": "noteOff"
      },
      {
        "deltaTime": 0,
        "channel": 9,
        "type": "channel",
        "noteNumber": 42,
        "velocity": 121,
        "subtype": "noteOn"
      },
      {
        "deltaTime": 480,
        "channel": 9,
        "type": "channel",
        "noteNumber": 42,
        "velocity": 0,
        "subtype": "noteOff"
      },
      {
        "deltaTime": 0,
        "channel": 9,
        "type": "channel",
        "noteNumber": 42,
        "velocity": 121,
        "subtype": "noteOn"
      },
      {
        "deltaTime": 0,
        "channel": 9,
        "type": "channel",
        "noteNumber": 35,
        "velocity": 121,
        "subtype": "noteOn"
      },
      {
        "deltaTime": 480,
        "channel": 9,
        "type": "channel",
        "noteNumber": 35,
        "velocity": 0,
        "subtype": "noteOff"
      },
      {
        "deltaTime": 0,
        "channel": 9,
        "type": "channel",
        "noteNumber": 42,
        "velocity": 0,
        "subtype": "noteOff"
      },
      {
        "deltaTime": 0,
        "channel": 9,
        "type": "channel",
        "noteNumber": 42,
        "velocity": 121,
        "subtype": "noteOn"
      },
      {
        "deltaTime": 480,
        "channel": 9,
        "type": "channel",
        "noteNumber": 42,
        "velocity": 0,
        "subtype": "noteOff"
      },
      {
        "deltaTime": 0,
        "channel": 9,
        "type": "channel",
        "noteNumber": 38,
        "velocity": 126,
        "subtype": "noteOn"
      },
      {
        "deltaTime": 0,
        "channel": 9,
        "type": "channel",
        "noteNumber": 46,
        "velocity": 126,
        "subtype": "noteOn"
      },
      {
        "deltaTime": 960,
        "channel": 9,
        "type": "channel",
        "noteNumber": 46,
        "velocity": 0,
        "subtype": "noteOff"
      },
      {
        "deltaTime": 0,
        "channel": 9,
        "type": "channel",
        "noteNumber": 38,
        "velocity": 0,
        "subtype": "noteOff"
      },
      {
        "deltaTime": 0,
        "channel": 9,
        "type": "channel",
        "noteNumber": 35,
        "velocity": 121,
        "subtype": "noteOn"
      },
      {
        "deltaTime": 0,
        "channel": 9,
        "type": "channel",
        "noteNumber": 57,
        "velocity": 121,
        "subtype": "noteOn"
      },
      {
        "deltaTime": 960,
        "channel": 9,
        "type": "channel",
        "noteNumber": 57,
        "velocity": 0,
        "subtype": "noteOff"
      },
      {
        "deltaTime": 0,
        "channel": 9,
        "type": "channel",
        "noteNumber": 35,
        "velocity": 0,
        "subtype": "noteOff"
      },
      {
        "deltaTime": 0,
        "channel": 9,
        "type": "channel",
        "noteNumber": 42,
        "velocity": 121,
        "subtype": "noteOn"
      },
      {
        "deltaTime": 0,
        "channel": 9,
        "type": "channel",
        "noteNumber": 38,
        "velocity": 121,
        "subtype": "noteOn"
      },
      {
        "deltaTime": 480,
        "channel": 9,
        "type": "channel",
        "noteNumber": 38,
        "velocity": 0,
        "subtype": "noteOff"
      },
      {
        "deltaTime": 0,
        "channel": 9,
        "type": "channel",
        "noteNumber": 42,
        "velocity": 0,
        "subtype": "noteOff"
      },
      {
        "deltaTime": 0,
        "channel": 9,
        "type": "channel",
        "noteNumber": 42,
        "velocity": 121,
        "subtype": "noteOn"
      },
      {
        "deltaTime": 480,
        "channel": 9,
        "type": "channel",
        "noteNumber": 42,
        "velocity": 0,
        "subtype": "noteOff"
      },
      {
        "deltaTime": 0,
        "channel": 9,
        "type": "channel",
        "noteNumber": 42,
        "velocity": 121,
        "subtype": "noteOn"
      },
      {
        "deltaTime": 0,
        "channel": 9,
        "type": "channel",
        "noteNumber": 35,
        "velocity": 121,
        "subtype": "noteOn"
      },
      {
        "deltaTime": 480,
        "channel": 9,
        "type": "channel",
        "noteNumber": 35,
        "velocity": 0,
        "subtype": "noteOff"
      },
      {
        "deltaTime": 0,
        "channel": 9,
        "type": "channel",
        "noteNumber": 42,
        "velocity": 0,
        "subtype": "noteOff"
      },
      {
        "deltaTime": 0,
        "channel": 9,
        "type": "channel",
        "noteNumber": 42,
        "velocity": 121,
        "subtype": "noteOn"
      },
      {
        "deltaTime": 480,
        "channel": 9,
        "type": "channel",
        "noteNumber": 42,
        "velocity": 0,
        "subtype": "noteOff"
      },
      {
        "deltaTime": 0,
        "channel": 9,
        "type": "channel",
        "noteNumber": 42,
        "velocity": 121,
        "subtype": "noteOn"
      },
      {
        "deltaTime": 0,
        "channel": 9,
        "type": "channel",
        "noteNumber": 38,
        "velocity": 121,
        "subtype": "noteOn"
      },
      {
        "deltaTime": 480,
        "channel": 9,
        "type": "channel",
        "noteNumber": 38,
        "velocity": 0,
        "subtype": "noteOff"
      },
      {
        "deltaTime": 0,
        "channel": 9,
        "type": "channel",
        "noteNumber": 42,
        "velocity": 0,
        "subtype": "noteOff"
      },
      {
        "deltaTime": 0,
        "channel": 9,
        "type": "channel",
        "noteNumber": 42,
        "velocity": 121,
        "subtype": "noteOn"
      },
      {
        "deltaTime": 480,
        "channel": 9,
        "type": "channel",
        "noteNumber": 42,
        "velocity": 0,
        "subtype": "noteOff"
      },
      {
        "deltaTime": 0,
        "channel": 9,
        "type": "channel",
        "noteNumber": 42,
        "velocity": 121,
        "subtype": "noteOn"
      },
      {
        "deltaTime": 0,
        "channel": 9,
        "type": "channel",
        "noteNumber": 35,
        "velocity": 121,
        "subtype": "noteOn"
      },
      {
        "deltaTime": 480,
        "channel": 9,
        "type": "channel",
        "noteNumber": 35,
        "velocity": 0,
        "subtype": "noteOff"
      },
      {
        "deltaTime": 0,
        "channel": 9,
        "type": "channel",
        "noteNumber": 42,
        "velocity": 0,
        "subtype": "noteOff"
      },
      {
        "deltaTime": 0,
        "channel": 9,
        "type": "channel",
        "noteNumber": 42,
        "velocity": 121,
        "subtype": "noteOn"
      },
      {
        "deltaTime": 480,
        "channel": 9,
        "type": "channel",
        "noteNumber": 42,
        "velocity": 0,
        "subtype": "noteOff"
      },
      {
        "deltaTime": 0,
        "channel": 9,
        "type": "channel",
        "noteNumber": 42,
        "velocity": 121,
        "subtype": "noteOn"
      },
      {
        "deltaTime": 0,
        "channel": 9,
        "type": "channel",
        "noteNumber": 38,
        "velocity": 121,
        "subtype": "noteOn"
      },
      {
        "deltaTime": 480,
        "channel": 9,
        "type": "channel",
        "noteNumber": 38,
        "velocity": 0,
        "subtype": "noteOff"
      },
      {
        "deltaTime": 0,
        "channel": 9,
        "type": "channel",
        "noteNumber": 42,
        "velocity": 0,
        "subtype": "noteOff"
      },
      {
        "deltaTime": 0,
        "channel": 9,
        "type": "channel",
        "noteNumber": 42,
        "velocity": 121,
        "subtype": "noteOn"
      },
      {
        "deltaTime": 480,
        "channel": 9,
        "type": "channel",
        "noteNumber": 42,
        "velocity": 0,
        "subtype": "noteOff"
      },
      {
        "deltaTime": 0,
        "channel": 9,
        "type": "channel",
        "noteNumber": 42,
        "velocity": 121,
        "subtype": "noteOn"
      },
      {
        "deltaTime": 0,
        "channel": 9,
        "type": "channel",
        "noteNumber": 35,
        "velocity": 121,
        "subtype": "noteOn"
      },
      {
        "deltaTime": 480,
        "channel": 9,
        "type": "channel",
        "noteNumber": 35,
        "velocity": 0,
        "subtype": "noteOff"
      },
      {
        "deltaTime": 0,
        "channel": 9,
        "type": "channel",
        "noteNumber": 42,
        "velocity": 0,
        "subtype": "noteOff"
      },
      {
        "deltaTime": 0,
        "channel": 9,
        "type": "channel",
        "noteNumber": 42,
        "velocity": 121,
        "subtype": "noteOn"
      },
      {
        "deltaTime": 480,
        "channel": 9,
        "type": "channel",
        "noteNumber": 42,
        "velocity": 0,
        "subtype": "noteOff"
      },
      {
        "deltaTime": 0,
        "channel": 9,
        "type": "channel",
        "noteNumber": 42,
        "velocity": 121,
        "subtype": "noteOn"
      },
      {
        "deltaTime": 0,
        "channel": 9,
        "type": "channel",
        "noteNumber": 38,
        "velocity": 121,
        "subtype": "noteOn"
      },
      {
        "deltaTime": 480,
        "channel": 9,
        "type": "channel",
        "noteNumber": 38,
        "velocity": 0,
        "subtype": "noteOff"
      },
      {
        "deltaTime": 0,
        "channel": 9,
        "type": "channel",
        "noteNumber": 42,
        "velocity": 0,
        "subtype": "noteOff"
      },
      {
        "deltaTime": 0,
        "channel": 9,
        "type": "channel",
        "noteNumber": 42,
        "velocity": 121,
        "subtype": "noteOn"
      },
      {
        "deltaTime": 480,
        "channel": 9,
        "type": "channel",
        "noteNumber": 42,
        "velocity": 0,
        "subtype": "noteOff"
      },
      {
        "deltaTime": 0,
        "channel": 9,
        "type": "channel",
        "noteNumber": 42,
        "velocity": 121,
        "subtype": "noteOn"
      },
      {
        "deltaTime": 0,
        "channel": 9,
        "type": "channel",
        "noteNumber": 35,
        "velocity": 121,
        "subtype": "noteOn"
      },
      {
        "deltaTime": 480,
        "channel": 9,
        "type": "channel",
        "noteNumber": 35,
        "velocity": 0,
        "subtype": "noteOff"
      },
      {
        "deltaTime": 0,
        "channel": 9,
        "type": "channel",
        "noteNumber": 42,
        "velocity": 0,
        "subtype": "noteOff"
      },
      {
        "deltaTime": 0,
        "channel": 9,
        "type": "channel",
        "noteNumber": 42,
        "velocity": 121,
        "subtype": "noteOn"
      },
      {
        "deltaTime": 480,
        "channel": 9,
        "type": "channel",
        "noteNumber": 42,
        "velocity": 0,
        "subtype": "noteOff"
      },
      {
        "deltaTime": 0,
        "channel": 9,
        "type": "channel",
        "noteNumber": 42,
        "velocity": 121,
        "subtype": "noteOn"
      },
      {
        "deltaTime": 0,
        "channel": 9,
        "type": "channel",
        "noteNumber": 38,
        "velocity": 121,
        "subtype": "noteOn"
      },
      {
        "deltaTime": 480,
        "channel": 9,
        "type": "channel",
        "noteNumber": 38,
        "velocity": 0,
        "subtype": "noteOff"
      },
      {
        "deltaTime": 0,
        "channel": 9,
        "type": "channel",
        "noteNumber": 42,
        "velocity": 0,
        "subtype": "noteOff"
      },
      {
        "deltaTime": 0,
        "channel": 9,
        "type": "channel",
        "noteNumber": 42,
        "velocity": 121,
        "subtype": "noteOn"
      },
      {
        "deltaTime": 480,
        "channel": 9,
        "type": "channel",
        "noteNumber": 42,
        "velocity": 0,
        "subtype": "noteOff"
      },
      {
        "deltaTime": 0,
        "channel": 9,
        "type": "channel",
        "noteNumber": 42,
        "velocity": 121,
        "subtype": "noteOn"
      },
      {
        "deltaTime": 0,
        "channel": 9,
        "type": "channel",
        "noteNumber": 35,
        "velocity": 121,
        "subtype": "noteOn"
      },
      {
        "deltaTime": 480,
        "channel": 9,
        "type": "channel",
        "noteNumber": 35,
        "velocity": 0,
        "subtype": "noteOff"
      },
      {
        "deltaTime": 0,
        "channel": 9,
        "type": "channel",
        "noteNumber": 42,
        "velocity": 0,
        "subtype": "noteOff"
      },
      {
        "deltaTime": 0,
        "channel": 9,
        "type": "channel",
        "noteNumber": 42,
        "velocity": 121,
        "subtype": "noteOn"
      },
      {
        "deltaTime": 480,
        "channel": 9,
        "type": "channel",
        "noteNumber": 42,
        "velocity": 0,
        "subtype": "noteOff"
      },
      {
        "deltaTime": 0,
        "channel": 9,
        "type": "channel",
        "noteNumber": 43,
        "velocity": 121,
        "subtype": "noteOn"
      },
      {
        "deltaTime": 0,
        "channel": 9,
        "type": "channel",
        "noteNumber": 36,
        "velocity": 121,
        "subtype": "noteOn"
      },
      {
        "deltaTime": 0,
        "channel": 9,
        "type": "channel",
        "noteNumber": 38,
        "velocity": 126,
        "subtype": "noteOn"
      },
      {
        "deltaTime": 960,
        "channel": 9,
        "type": "channel",
        "noteNumber": 38,
        "velocity": 0,
        "subtype": "noteOff"
      },
      {
        "deltaTime": 0,
        "channel": 9,
        "type": "channel",
        "noteNumber": 36,
        "velocity": 0,
        "subtype": "noteOff"
      },
      {
        "deltaTime": 0,
        "channel": 9,
        "type": "channel",
        "noteNumber": 43,
        "velocity": 0,
        "subtype": "noteOff"
      },
      {
        "deltaTime": 0,
        "channel": 9,
        "type": "channel",
        "noteNumber": 35,
        "velocity": 121,
        "subtype": "noteOn"
      },
      {
        "deltaTime": 0,
        "channel": 9,
        "type": "channel",
        "noteNumber": 49,
        "velocity": 121,
        "subtype": "noteOn"
      },
      {
        "deltaTime": 960,
        "channel": 9,
        "type": "channel",
        "noteNumber": 49,
        "velocity": 0,
        "subtype": "noteOff"
      },
      {
        "deltaTime": 0,
        "channel": 9,
        "type": "channel",
        "noteNumber": 35,
        "velocity": 0,
        "subtype": "noteOff"
      },
      {
        "deltaTime": 0,
        "channel": 9,
        "type": "channel",
        "noteNumber": 42,
        "velocity": 121,
        "subtype": "noteOn"
      },
      {
        "deltaTime": 0,
        "channel": 9,
        "type": "channel",
        "noteNumber": 38,
        "velocity": 121,
        "subtype": "noteOn"
      },
      {
        "deltaTime": 480,
        "channel": 9,
        "type": "channel",
        "noteNumber": 38,
        "velocity": 0,
        "subtype": "noteOff"
      },
      {
        "deltaTime": 0,
        "channel": 9,
        "type": "channel",
        "noteNumber": 42,
        "velocity": 0,
        "subtype": "noteOff"
      },
      {
        "deltaTime": 0,
        "channel": 9,
        "type": "channel",
        "noteNumber": 42,
        "velocity": 121,
        "subtype": "noteOn"
      },
      {
        "deltaTime": 480,
        "channel": 9,
        "type": "channel",
        "noteNumber": 42,
        "velocity": 0,
        "subtype": "noteOff"
      },
      {
        "deltaTime": 0,
        "channel": 9,
        "type": "channel",
        "noteNumber": 42,
        "velocity": 121,
        "subtype": "noteOn"
      },
      {
        "deltaTime": 0,
        "channel": 9,
        "type": "channel",
        "noteNumber": 35,
        "velocity": 121,
        "subtype": "noteOn"
      },
      {
        "deltaTime": 480,
        "channel": 9,
        "type": "channel",
        "noteNumber": 35,
        "velocity": 0,
        "subtype": "noteOff"
      },
      {
        "deltaTime": 0,
        "channel": 9,
        "type": "channel",
        "noteNumber": 42,
        "velocity": 0,
        "subtype": "noteOff"
      },
      {
        "deltaTime": 0,
        "channel": 9,
        "type": "channel",
        "noteNumber": 42,
        "velocity": 121,
        "subtype": "noteOn"
      },
      {
        "deltaTime": 480,
        "channel": 9,
        "type": "channel",
        "noteNumber": 42,
        "velocity": 0,
        "subtype": "noteOff"
      },
      {
        "deltaTime": 0,
        "channel": 9,
        "type": "channel",
        "noteNumber": 42,
        "velocity": 121,
        "subtype": "noteOn"
      },
      {
        "deltaTime": 0,
        "channel": 9,
        "type": "channel",
        "noteNumber": 38,
        "velocity": 121,
        "subtype": "noteOn"
      },
      {
        "deltaTime": 480,
        "channel": 9,
        "type": "channel",
        "noteNumber": 38,
        "velocity": 0,
        "subtype": "noteOff"
      },
      {
        "deltaTime": 0,
        "channel": 9,
        "type": "channel",
        "noteNumber": 42,
        "velocity": 0,
        "subtype": "noteOff"
      },
      {
        "deltaTime": 0,
        "channel": 9,
        "type": "channel",
        "noteNumber": 42,
        "velocity": 121,
        "subtype": "noteOn"
      },
      {
        "deltaTime": 480,
        "channel": 9,
        "type": "channel",
        "noteNumber": 42,
        "velocity": 0,
        "subtype": "noteOff"
      },
      {
        "deltaTime": 0,
        "channel": 9,
        "type": "channel",
        "noteNumber": 42,
        "velocity": 121,
        "subtype": "noteOn"
      },
      {
        "deltaTime": 0,
        "channel": 9,
        "type": "channel",
        "noteNumber": 35,
        "velocity": 121,
        "subtype": "noteOn"
      },
      {
        "deltaTime": 480,
        "channel": 9,
        "type": "channel",
        "noteNumber": 35,
        "velocity": 0,
        "subtype": "noteOff"
      },
      {
        "deltaTime": 0,
        "channel": 9,
        "type": "channel",
        "noteNumber": 42,
        "velocity": 0,
        "subtype": "noteOff"
      },
      {
        "deltaTime": 0,
        "channel": 9,
        "type": "channel",
        "noteNumber": 42,
        "velocity": 121,
        "subtype": "noteOn"
      },
      {
        "deltaTime": 480,
        "channel": 9,
        "type": "channel",
        "noteNumber": 42,
        "velocity": 0,
        "subtype": "noteOff"
      },
      {
        "deltaTime": 0,
        "channel": 9,
        "type": "channel",
        "noteNumber": 42,
        "velocity": 121,
        "subtype": "noteOn"
      },
      {
        "deltaTime": 0,
        "channel": 9,
        "type": "channel",
        "noteNumber": 38,
        "velocity": 121,
        "subtype": "noteOn"
      },
      {
        "deltaTime": 480,
        "channel": 9,
        "type": "channel",
        "noteNumber": 38,
        "velocity": 0,
        "subtype": "noteOff"
      },
      {
        "deltaTime": 0,
        "channel": 9,
        "type": "channel",
        "noteNumber": 42,
        "velocity": 0,
        "subtype": "noteOff"
      },
      {
        "deltaTime": 0,
        "channel": 9,
        "type": "channel",
        "noteNumber": 42,
        "velocity": 121,
        "subtype": "noteOn"
      },
      {
        "deltaTime": 480,
        "channel": 9,
        "type": "channel",
        "noteNumber": 42,
        "velocity": 0,
        "subtype": "noteOff"
      },
      {
        "deltaTime": 0,
        "channel": 9,
        "type": "channel",
        "noteNumber": 42,
        "velocity": 121,
        "subtype": "noteOn"
      },
      {
        "deltaTime": 0,
        "channel": 9,
        "type": "channel",
        "noteNumber": 35,
        "velocity": 121,
        "subtype": "noteOn"
      },
      {
        "deltaTime": 480,
        "channel": 9,
        "type": "channel",
        "noteNumber": 35,
        "velocity": 0,
        "subtype": "noteOff"
      },
      {
        "deltaTime": 0,
        "channel": 9,
        "type": "channel",
        "noteNumber": 42,
        "velocity": 0,
        "subtype": "noteOff"
      },
      {
        "deltaTime": 0,
        "channel": 9,
        "type": "channel",
        "noteNumber": 42,
        "velocity": 121,
        "subtype": "noteOn"
      },
      {
        "deltaTime": 480,
        "channel": 9,
        "type": "channel",
        "noteNumber": 42,
        "velocity": 0,
        "subtype": "noteOff"
      },
      {
        "deltaTime": 0,
        "channel": 9,
        "type": "channel",
        "noteNumber": 42,
        "velocity": 121,
        "subtype": "noteOn"
      },
      {
        "deltaTime": 0,
        "channel": 9,
        "type": "channel",
        "noteNumber": 38,
        "velocity": 121,
        "subtype": "noteOn"
      },
      {
        "deltaTime": 480,
        "channel": 9,
        "type": "channel",
        "noteNumber": 38,
        "velocity": 0,
        "subtype": "noteOff"
      },
      {
        "deltaTime": 0,
        "channel": 9,
        "type": "channel",
        "noteNumber": 42,
        "velocity": 0,
        "subtype": "noteOff"
      },
      {
        "deltaTime": 0,
        "channel": 9,
        "type": "channel",
        "noteNumber": 42,
        "velocity": 121,
        "subtype": "noteOn"
      },
      {
        "deltaTime": 480,
        "channel": 9,
        "type": "channel",
        "noteNumber": 42,
        "velocity": 0,
        "subtype": "noteOff"
      },
      {
        "deltaTime": 0,
        "channel": 9,
        "type": "channel",
        "noteNumber": 42,
        "velocity": 121,
        "subtype": "noteOn"
      },
      {
        "deltaTime": 0,
        "channel": 9,
        "type": "channel",
        "noteNumber": 35,
        "velocity": 121,
        "subtype": "noteOn"
      },
      {
        "deltaTime": 480,
        "channel": 9,
        "type": "channel",
        "noteNumber": 35,
        "velocity": 0,
        "subtype": "noteOff"
      },
      {
        "deltaTime": 0,
        "channel": 9,
        "type": "channel",
        "noteNumber": 42,
        "velocity": 0,
        "subtype": "noteOff"
      },
      {
        "deltaTime": 0,
        "channel": 9,
        "type": "channel",
        "noteNumber": 42,
        "velocity": 121,
        "subtype": "noteOn"
      },
      {
        "deltaTime": 480,
        "channel": 9,
        "type": "channel",
        "noteNumber": 42,
        "velocity": 0,
        "subtype": "noteOff"
      },
      {
        "deltaTime": 0,
        "channel": 9,
        "type": "channel",
        "noteNumber": 42,
        "velocity": 121,
        "subtype": "noteOn"
      },
      {
        "deltaTime": 0,
        "channel": 9,
        "type": "channel",
        "noteNumber": 38,
        "velocity": 121,
        "subtype": "noteOn"
      },
      {
        "deltaTime": 480,
        "channel": 9,
        "type": "channel",
        "noteNumber": 38,
        "velocity": 0,
        "subtype": "noteOff"
      },
      {
        "deltaTime": 0,
        "channel": 9,
        "type": "channel",
        "noteNumber": 42,
        "velocity": 0,
        "subtype": "noteOff"
      },
      {
        "deltaTime": 0,
        "channel": 9,
        "type": "channel",
        "noteNumber": 42,
        "velocity": 121,
        "subtype": "noteOn"
      },
      {
        "deltaTime": 480,
        "channel": 9,
        "type": "channel",
        "noteNumber": 42,
        "velocity": 0,
        "subtype": "noteOff"
      },
      {
        "deltaTime": 0,
        "channel": 9,
        "type": "channel",
        "noteNumber": 42,
        "velocity": 121,
        "subtype": "noteOn"
      },
      {
        "deltaTime": 0,
        "channel": 9,
        "type": "channel",
        "noteNumber": 35,
        "velocity": 121,
        "subtype": "noteOn"
      },
      {
        "deltaTime": 480,
        "channel": 9,
        "type": "channel",
        "noteNumber": 35,
        "velocity": 0,
        "subtype": "noteOff"
      },
      {
        "deltaTime": 0,
        "channel": 9,
        "type": "channel",
        "noteNumber": 42,
        "velocity": 0,
        "subtype": "noteOff"
      },
      {
        "deltaTime": 0,
        "channel": 9,
        "type": "channel",
        "noteNumber": 42,
        "velocity": 121,
        "subtype": "noteOn"
      },
      {
        "deltaTime": 480,
        "channel": 9,
        "type": "channel",
        "noteNumber": 42,
        "velocity": 0,
        "subtype": "noteOff"
      },
      {
        "deltaTime": 0,
        "channel": 9,
        "type": "channel",
        "noteNumber": 42,
        "velocity": 121,
        "subtype": "noteOn"
      },
      {
        "deltaTime": 0,
        "channel": 9,
        "type": "channel",
        "noteNumber": 38,
        "velocity": 121,
        "subtype": "noteOn"
      },
      {
        "deltaTime": 480,
        "channel": 9,
        "type": "channel",
        "noteNumber": 38,
        "velocity": 0,
        "subtype": "noteOff"
      },
      {
        "deltaTime": 0,
        "channel": 9,
        "type": "channel",
        "noteNumber": 42,
        "velocity": 0,
        "subtype": "noteOff"
      },
      {
        "deltaTime": 0,
        "channel": 9,
        "type": "channel",
        "noteNumber": 38,
        "velocity": 121,
        "subtype": "noteOn"
      },
      {
        "deltaTime": 240,
        "channel": 9,
        "type": "channel",
        "noteNumber": 38,
        "velocity": 0,
        "subtype": "noteOff"
      },
      {
        "deltaTime": 0,
        "channel": 9,
        "type": "channel",
        "noteNumber": 38,
        "velocity": 121,
        "subtype": "noteOn"
      },
      {
        "deltaTime": 240,
        "channel": 9,
        "type": "channel",
        "noteNumber": 38,
        "velocity": 0,
        "subtype": "noteOff"
      },
      {
        "deltaTime": 0,
        "channel": 9,
        "type": "channel",
        "noteNumber": 35,
        "velocity": 121,
        "subtype": "noteOn"
      },
      {
        "deltaTime": 0,
        "channel": 9,
        "type": "channel",
        "noteNumber": 57,
        "velocity": 121,
        "subtype": "noteOn"
      },
      {
        "deltaTime": 960,
        "channel": 9,
        "type": "channel",
        "noteNumber": 57,
        "velocity": 0,
        "subtype": "noteOff"
      },
      {
        "deltaTime": 0,
        "channel": 9,
        "type": "channel",
        "noteNumber": 35,
        "velocity": 0,
        "subtype": "noteOff"
      },
      {
        "deltaTime": 0,
        "channel": 9,
        "type": "channel",
        "noteNumber": 42,
        "velocity": 121,
        "subtype": "noteOn"
      },
      {
        "deltaTime": 0,
        "channel": 9,
        "type": "channel",
        "noteNumber": 38,
        "velocity": 121,
        "subtype": "noteOn"
      },
      {
        "deltaTime": 480,
        "channel": 9,
        "type": "channel",
        "noteNumber": 38,
        "velocity": 0,
        "subtype": "noteOff"
      },
      {
        "deltaTime": 0,
        "channel": 9,
        "type": "channel",
        "noteNumber": 42,
        "velocity": 0,
        "subtype": "noteOff"
      },
      {
        "deltaTime": 0,
        "channel": 9,
        "type": "channel",
        "noteNumber": 42,
        "velocity": 121,
        "subtype": "noteOn"
      },
      {
        "deltaTime": 480,
        "channel": 9,
        "type": "channel",
        "noteNumber": 42,
        "velocity": 0,
        "subtype": "noteOff"
      },
      {
        "deltaTime": 0,
        "channel": 9,
        "type": "channel",
        "noteNumber": 42,
        "velocity": 121,
        "subtype": "noteOn"
      },
      {
        "deltaTime": 0,
        "channel": 9,
        "type": "channel",
        "noteNumber": 35,
        "velocity": 121,
        "subtype": "noteOn"
      },
      {
        "deltaTime": 480,
        "channel": 9,
        "type": "channel",
        "noteNumber": 35,
        "velocity": 0,
        "subtype": "noteOff"
      },
      {
        "deltaTime": 0,
        "channel": 9,
        "type": "channel",
        "noteNumber": 42,
        "velocity": 0,
        "subtype": "noteOff"
      },
      {
        "deltaTime": 0,
        "channel": 9,
        "type": "channel",
        "noteNumber": 42,
        "velocity": 121,
        "subtype": "noteOn"
      },
      {
        "deltaTime": 480,
        "channel": 9,
        "type": "channel",
        "noteNumber": 42,
        "velocity": 0,
        "subtype": "noteOff"
      },
      {
        "deltaTime": 0,
        "channel": 9,
        "type": "channel",
        "noteNumber": 42,
        "velocity": 121,
        "subtype": "noteOn"
      },
      {
        "deltaTime": 0,
        "channel": 9,
        "type": "channel",
        "noteNumber": 38,
        "velocity": 121,
        "subtype": "noteOn"
      },
      {
        "deltaTime": 480,
        "channel": 9,
        "type": "channel",
        "noteNumber": 38,
        "velocity": 0,
        "subtype": "noteOff"
      },
      {
        "deltaTime": 0,
        "channel": 9,
        "type": "channel",
        "noteNumber": 42,
        "velocity": 0,
        "subtype": "noteOff"
      },
      {
        "deltaTime": 0,
        "channel": 9,
        "type": "channel",
        "noteNumber": 42,
        "velocity": 121,
        "subtype": "noteOn"
      },
      {
        "deltaTime": 480,
        "channel": 9,
        "type": "channel",
        "noteNumber": 42,
        "velocity": 0,
        "subtype": "noteOff"
      },
      {
        "deltaTime": 0,
        "channel": 9,
        "type": "channel",
        "noteNumber": 42,
        "velocity": 121,
        "subtype": "noteOn"
      },
      {
        "deltaTime": 0,
        "channel": 9,
        "type": "channel",
        "noteNumber": 35,
        "velocity": 121,
        "subtype": "noteOn"
      },
      {
        "deltaTime": 480,
        "channel": 9,
        "type": "channel",
        "noteNumber": 35,
        "velocity": 0,
        "subtype": "noteOff"
      },
      {
        "deltaTime": 0,
        "channel": 9,
        "type": "channel",
        "noteNumber": 42,
        "velocity": 0,
        "subtype": "noteOff"
      },
      {
        "deltaTime": 0,
        "channel": 9,
        "type": "channel",
        "noteNumber": 42,
        "velocity": 121,
        "subtype": "noteOn"
      },
      {
        "deltaTime": 480,
        "channel": 9,
        "type": "channel",
        "noteNumber": 42,
        "velocity": 0,
        "subtype": "noteOff"
      },
      {
        "deltaTime": 0,
        "channel": 9,
        "type": "channel",
        "noteNumber": 42,
        "velocity": 121,
        "subtype": "noteOn"
      },
      {
        "deltaTime": 0,
        "channel": 9,
        "type": "channel",
        "noteNumber": 38,
        "velocity": 121,
        "subtype": "noteOn"
      },
      {
        "deltaTime": 480,
        "channel": 9,
        "type": "channel",
        "noteNumber": 38,
        "velocity": 0,
        "subtype": "noteOff"
      },
      {
        "deltaTime": 0,
        "channel": 9,
        "type": "channel",
        "noteNumber": 42,
        "velocity": 0,
        "subtype": "noteOff"
      },
      {
        "deltaTime": 0,
        "channel": 9,
        "type": "channel",
        "noteNumber": 42,
        "velocity": 121,
        "subtype": "noteOn"
      },
      {
        "deltaTime": 480,
        "channel": 9,
        "type": "channel",
        "noteNumber": 42,
        "velocity": 0,
        "subtype": "noteOff"
      },
      {
        "deltaTime": 0,
        "channel": 9,
        "type": "channel",
        "noteNumber": 42,
        "velocity": 121,
        "subtype": "noteOn"
      },
      {
        "deltaTime": 0,
        "channel": 9,
        "type": "channel",
        "noteNumber": 35,
        "velocity": 121,
        "subtype": "noteOn"
      },
      {
        "deltaTime": 480,
        "channel": 9,
        "type": "channel",
        "noteNumber": 35,
        "velocity": 0,
        "subtype": "noteOff"
      },
      {
        "deltaTime": 0,
        "channel": 9,
        "type": "channel",
        "noteNumber": 42,
        "velocity": 0,
        "subtype": "noteOff"
      },
      {
        "deltaTime": 0,
        "channel": 9,
        "type": "channel",
        "noteNumber": 42,
        "velocity": 121,
        "subtype": "noteOn"
      },
      {
        "deltaTime": 480,
        "channel": 9,
        "type": "channel",
        "noteNumber": 42,
        "velocity": 0,
        "subtype": "noteOff"
      },
      {
        "deltaTime": 0,
        "channel": 9,
        "type": "channel",
        "noteNumber": 42,
        "velocity": 121,
        "subtype": "noteOn"
      },
      {
        "deltaTime": 0,
        "channel": 9,
        "type": "channel",
        "noteNumber": 38,
        "velocity": 121,
        "subtype": "noteOn"
      },
      {
        "deltaTime": 480,
        "channel": 9,
        "type": "channel",
        "noteNumber": 38,
        "velocity": 0,
        "subtype": "noteOff"
      },
      {
        "deltaTime": 0,
        "channel": 9,
        "type": "channel",
        "noteNumber": 42,
        "velocity": 0,
        "subtype": "noteOff"
      },
      {
        "deltaTime": 0,
        "channel": 9,
        "type": "channel",
        "noteNumber": 42,
        "velocity": 121,
        "subtype": "noteOn"
      },
      {
        "deltaTime": 480,
        "channel": 9,
        "type": "channel",
        "noteNumber": 42,
        "velocity": 0,
        "subtype": "noteOff"
      },
      {
        "deltaTime": 0,
        "channel": 9,
        "type": "channel",
        "noteNumber": 42,
        "velocity": 121,
        "subtype": "noteOn"
      },
      {
        "deltaTime": 0,
        "channel": 9,
        "type": "channel",
        "noteNumber": 35,
        "velocity": 121,
        "subtype": "noteOn"
      },
      {
        "deltaTime": 480,
        "channel": 9,
        "type": "channel",
        "noteNumber": 35,
        "velocity": 0,
        "subtype": "noteOff"
      },
      {
        "deltaTime": 0,
        "channel": 9,
        "type": "channel",
        "noteNumber": 42,
        "velocity": 0,
        "subtype": "noteOff"
      },
      {
        "deltaTime": 0,
        "channel": 9,
        "type": "channel",
        "noteNumber": 42,
        "velocity": 121,
        "subtype": "noteOn"
      },
      {
        "deltaTime": 480,
        "channel": 9,
        "type": "channel",
        "noteNumber": 42,
        "velocity": 0,
        "subtype": "noteOff"
      },
      {
        "deltaTime": 0,
        "channel": 9,
        "type": "channel",
        "noteNumber": 36,
        "velocity": 121,
        "subtype": "noteOn"
      },
      {
        "deltaTime": 0,
        "channel": 9,
        "type": "channel",
        "noteNumber": 43,
        "velocity": 121,
        "subtype": "noteOn"
      },
      {
        "deltaTime": 0,
        "channel": 9,
        "type": "channel",
        "noteNumber": 38,
        "velocity": 121,
        "subtype": "noteOn"
      },
      {
        "deltaTime": 960,
        "channel": 9,
        "type": "channel",
        "noteNumber": 38,
        "velocity": 0,
        "subtype": "noteOff"
      },
      {
        "deltaTime": 0,
        "channel": 9,
        "type": "channel",
        "noteNumber": 43,
        "velocity": 0,
        "subtype": "noteOff"
      },
      {
        "deltaTime": 0,
        "channel": 9,
        "type": "channel",
        "noteNumber": 36,
        "velocity": 0,
        "subtype": "noteOff"
      },
      {
        "deltaTime": 0,
        "channel": 9,
        "type": "channel",
        "noteNumber": 35,
        "velocity": 121,
        "subtype": "noteOn"
      },
      {
        "deltaTime": 0,
        "channel": 9,
        "type": "channel",
        "noteNumber": 46,
        "velocity": 121,
        "subtype": "noteOn"
      },
      {
        "deltaTime": 960,
        "channel": 9,
        "type": "channel",
        "noteNumber": 46,
        "velocity": 0,
        "subtype": "noteOff"
      },
      {
        "deltaTime": 0,
        "channel": 9,
        "type": "channel",
        "noteNumber": 35,
        "velocity": 0,
        "subtype": "noteOff"
      },
      {
        "deltaTime": 0,
        "channel": 9,
        "type": "channel",
        "noteNumber": 36,
        "velocity": 121,
        "subtype": "noteOn"
      },
      {
        "deltaTime": 0,
        "channel": 9,
        "type": "channel",
        "noteNumber": 43,
        "velocity": 121,
        "subtype": "noteOn"
      },
      {
        "deltaTime": 0,
        "channel": 9,
        "type": "channel",
        "noteNumber": 38,
        "velocity": 121,
        "subtype": "noteOn"
      },
      {
        "deltaTime": 960,
        "channel": 9,
        "type": "channel",
        "noteNumber": 38,
        "velocity": 0,
        "subtype": "noteOff"
      },
      {
        "deltaTime": 0,
        "channel": 9,
        "type": "channel",
        "noteNumber": 43,
        "velocity": 0,
        "subtype": "noteOff"
      },
      {
        "deltaTime": 0,
        "channel": 9,
        "type": "channel",
        "noteNumber": 36,
        "velocity": 0,
        "subtype": "noteOff"
      },
      {
        "deltaTime": 0,
        "channel": 9,
        "type": "channel",
        "noteNumber": 35,
        "velocity": 121,
        "subtype": "noteOn"
      },
      {
        "deltaTime": 0,
        "channel": 9,
        "type": "channel",
        "noteNumber": 49,
        "velocity": 121,
        "subtype": "noteOn"
      },
      {
        "deltaTime": 3840,
        "channel": 9,
        "type": "channel",
        "noteNumber": 49,
        "velocity": 0,
        "subtype": "noteOff"
      },
      {
        "deltaTime": 0,
        "channel": 9,
        "type": "channel",
        "noteNumber": 35,
        "velocity": 0,
        "subtype": "noteOff"
      },
      {
        "deltaTime": 0,
        "channel": 9,
        "type": "channel",
        "noteNumber": 36,
        "velocity": 121,
        "subtype": "noteOn"
      },
      {
        "deltaTime": 0,
        "channel": 9,
        "type": "channel",
        "noteNumber": 43,
        "velocity": 121,
        "subtype": "noteOn"
      },
      {
        "deltaTime": 0,
        "channel": 9,
        "type": "channel",
        "noteNumber": 38,
        "velocity": 121,
        "subtype": "noteOn"
      },
      {
        "deltaTime": 480,
        "channel": 9,
        "type": "channel",
        "noteNumber": 38,
        "velocity": 0,
        "subtype": "noteOff"
      },
      {
        "deltaTime": 0,
        "channel": 9,
        "type": "channel",
        "noteNumber": 43,
        "velocity": 0,
        "subtype": "noteOff"
      },
      {
        "deltaTime": 0,
        "channel": 9,
        "type": "channel",
        "noteNumber": 36,
        "velocity": 0,
        "subtype": "noteOff"
      },
      {
        "deltaTime": 0,
        "channel": 9,
        "type": "channel",
        "noteNumber": 35,
        "velocity": 121,
        "subtype": "noteOn"
      },
      {
        "deltaTime": 160,
        "channel": 9,
        "type": "channel",
        "noteNumber": 35,
        "velocity": 0,
        "subtype": "noteOff"
      },
      {
        "deltaTime": 0,
        "channel": 9,
        "type": "channel",
        "noteNumber": 35,
        "velocity": 121,
        "subtype": "noteOn"
      },
      {
        "deltaTime": 160,
        "channel": 9,
        "type": "channel",
        "noteNumber": 35,
        "velocity": 0,
        "subtype": "noteOff"
      },
      {
        "deltaTime": 0,
        "channel": 9,
        "type": "channel",
        "noteNumber": 43,
        "velocity": 121,
        "subtype": "noteOn"
      },
      {
        "deltaTime": 0,
        "channel": 9,
        "type": "channel",
        "noteNumber": 35,
        "velocity": 121,
        "subtype": "noteOn"
      },
      {
        "deltaTime": 160,
        "channel": 9,
        "type": "channel",
        "noteNumber": 35,
        "velocity": 0,
        "subtype": "noteOff"
      },
      {
        "deltaTime": 0,
        "channel": 9,
        "type": "channel",
        "noteNumber": 43,
        "velocity": 0,
        "subtype": "noteOff"
      },
      {
        "deltaTime": 0,
        "channel": 9,
        "type": "channel",
        "noteNumber": 41,
        "velocity": 121,
        "subtype": "noteOn"
      },
      {
        "deltaTime": 0,
        "channel": 9,
        "type": "channel",
        "noteNumber": 36,
        "velocity": 121,
        "subtype": "noteOn"
      },
      {
        "deltaTime": 480,
        "channel": 9,
        "type": "channel",
        "noteNumber": 36,
        "velocity": 0,
        "subtype": "noteOff"
      },
      {
        "deltaTime": 0,
        "channel": 9,
        "type": "channel",
        "noteNumber": 41,
        "velocity": 0,
        "subtype": "noteOff"
      },
      {
        "deltaTime": 0,
        "channel": 9,
        "type": "channel",
        "noteNumber": 38,
        "velocity": 121,
        "subtype": "noteOn"
      },
      {
        "deltaTime": 240,
        "channel": 9,
        "type": "channel",
        "noteNumber": 38,
        "velocity": 0,
        "subtype": "noteOff"
      },
      {
        "deltaTime": 0,
        "channel": 9,
        "type": "channel",
        "noteNumber": 38,
        "velocity": 121,
        "subtype": "noteOn"
      },
      {
        "deltaTime": 240,
        "channel": 9,
        "type": "channel",
        "noteNumber": 38,
        "velocity": 0,
        "subtype": "noteOff"
      },
      {
        "deltaTime": 0,
        "channel": 9,
        "type": "channel",
        "noteNumber": 36,
        "velocity": 121,
        "subtype": "noteOn"
      },
      {
        "deltaTime": 0,
        "channel": 9,
        "type": "channel",
        "noteNumber": 45,
        "velocity": 121,
        "subtype": "noteOn"
      },
      {
        "deltaTime": 240,
        "channel": 9,
        "type": "channel",
        "noteNumber": 45,
        "velocity": 0,
        "subtype": "noteOff"
      },
      {
        "deltaTime": 0,
        "channel": 9,
        "type": "channel",
        "noteNumber": 36,
        "velocity": 0,
        "subtype": "noteOff"
      },
      {
        "deltaTime": 0,
        "channel": 9,
        "type": "channel",
        "noteNumber": 36,
        "velocity": 121,
        "subtype": "noteOn"
      },
      {
        "deltaTime": 0,
        "channel": 9,
        "type": "channel",
        "noteNumber": 45,
        "velocity": 121,
        "subtype": "noteOn"
      },
      {
        "deltaTime": 240,
        "channel": 9,
        "type": "channel",
        "noteNumber": 45,
        "velocity": 0,
        "subtype": "noteOff"
      },
      {
        "deltaTime": 0,
        "channel": 9,
        "type": "channel",
        "noteNumber": 36,
        "velocity": 0,
        "subtype": "noteOff"
      },
      {
        "deltaTime": 0,
        "channel": 9,
        "type": "channel",
        "noteNumber": 36,
        "velocity": 121,
        "subtype": "noteOn"
      },
      {
        "deltaTime": 0,
        "channel": 9,
        "type": "channel",
        "noteNumber": 43,
        "velocity": 121,
        "subtype": "noteOn"
      },
      {
        "deltaTime": 240,
        "channel": 9,
        "type": "channel",
        "noteNumber": 43,
        "velocity": 0,
        "subtype": "noteOff"
      },
      {
        "deltaTime": 0,
        "channel": 9,
        "type": "channel",
        "noteNumber": 36,
        "velocity": 0,
        "subtype": "noteOff"
      },
      {
        "deltaTime": 0,
        "channel": 9,
        "type": "channel",
        "noteNumber": 36,
        "velocity": 121,
        "subtype": "noteOn"
      },
      {
        "deltaTime": 0,
        "channel": 9,
        "type": "channel",
        "noteNumber": 43,
        "velocity": 121,
        "subtype": "noteOn"
      },
      {
        "deltaTime": 240,
        "channel": 9,
        "type": "channel",
        "noteNumber": 43,
        "velocity": 0,
        "subtype": "noteOff"
      },
      {
        "deltaTime": 0,
        "channel": 9,
        "type": "channel",
        "noteNumber": 36,
        "velocity": 0,
        "subtype": "noteOff"
      },
      {
        "deltaTime": 0,
        "channel": 9,
        "type": "channel",
        "noteNumber": 38,
        "velocity": 121,
        "subtype": "noteOn"
      },
      {
        "deltaTime": 240,
        "channel": 9,
        "type": "channel",
        "noteNumber": 38,
        "velocity": 0,
        "subtype": "noteOff"
      },
      {
        "deltaTime": 0,
        "channel": 9,
        "type": "channel",
        "noteNumber": 36,
        "velocity": 121,
        "subtype": "noteOn"
      },
      {
        "deltaTime": 0,
        "channel": 9,
        "type": "channel",
        "noteNumber": 45,
        "velocity": 121,
        "subtype": "noteOn"
      },
      {
        "deltaTime": 240,
        "channel": 9,
        "type": "channel",
        "noteNumber": 45,
        "velocity": 0,
        "subtype": "noteOff"
      },
      {
        "deltaTime": 0,
        "channel": 9,
        "type": "channel",
        "noteNumber": 36,
        "velocity": 0,
        "subtype": "noteOff"
      },
      {
        "deltaTime": 0,
        "channel": 9,
        "type": "channel",
        "noteNumber": 36,
        "velocity": 121,
        "subtype": "noteOn"
      },
      {
        "deltaTime": 0,
        "channel": 9,
        "type": "channel",
        "noteNumber": 43,
        "velocity": 121,
        "subtype": "noteOn"
      },
      {
        "deltaTime": 240,
        "channel": 9,
        "type": "channel",
        "noteNumber": 43,
        "velocity": 0,
        "subtype": "noteOff"
      },
      {
        "deltaTime": 0,
        "channel": 9,
        "type": "channel",
        "noteNumber": 36,
        "velocity": 0,
        "subtype": "noteOff"
      },
      {
        "deltaTime": 0,
        "channel": 9,
        "type": "channel",
        "noteNumber": 36,
        "velocity": 121,
        "subtype": "noteOn"
      },
      {
        "deltaTime": 0,
        "channel": 9,
        "type": "channel",
        "noteNumber": 41,
        "velocity": 121,
        "subtype": "noteOn"
      },
      {
        "deltaTime": 240,
        "channel": 9,
        "type": "channel",
        "noteNumber": 41,
        "velocity": 0,
        "subtype": "noteOff"
      },
      {
        "deltaTime": 0,
        "channel": 9,
        "type": "channel",
        "noteNumber": 36,
        "velocity": 0,
        "subtype": "noteOff"
      },
      {
        "deltaTime": 0,
        "channel": 9,
        "type": "channel",
        "noteNumber": 49,
        "velocity": 121,
        "subtype": "noteOn"
      },
      {
        "deltaTime": 0,
        "channel": 9,
        "type": "channel",
        "noteNumber": 35,
        "velocity": 121,
        "subtype": "noteOn"
      },
      {
        "deltaTime": 480,
        "channel": 9,
        "type": "channel",
        "noteNumber": 35,
        "velocity": 0,
        "subtype": "noteOff"
      },
      {
        "deltaTime": 0,
        "channel": 9,
        "type": "channel",
        "noteNumber": 49,
        "velocity": 0,
        "subtype": "noteOff"
      },
      {
        "deltaTime": 0,
        "channel": 9,
        "type": "channel",
        "noteNumber": 46,
        "velocity": 121,
        "subtype": "noteOn"
      },
      {
        "deltaTime": 480,
        "channel": 9,
        "type": "channel",
        "noteNumber": 46,
        "velocity": 0,
        "subtype": "noteOff"
      },
      {
        "deltaTime": 0,
        "channel": 9,
        "type": "channel",
        "noteNumber": 35,
        "velocity": 121,
        "subtype": "noteOn"
      },
      {
        "deltaTime": 0,
        "channel": 9,
        "type": "channel",
        "noteNumber": 46,
        "velocity": 121,
        "subtype": "noteOn"
      },
      {
        "deltaTime": 0,
        "channel": 9,
        "type": "channel",
        "noteNumber": 38,
        "velocity": 121,
        "subtype": "noteOn"
      },
      {
        "deltaTime": 480,
        "channel": 9,
        "type": "channel",
        "noteNumber": 38,
        "velocity": 0,
        "subtype": "noteOff"
      },
      {
        "deltaTime": 0,
        "channel": 9,
        "type": "channel",
        "noteNumber": 46,
        "velocity": 0,
        "subtype": "noteOff"
      },
      {
        "deltaTime": 0,
        "channel": 9,
        "type": "channel",
        "noteNumber": 35,
        "velocity": 0,
        "subtype": "noteOff"
      },
      {
        "deltaTime": 0,
        "channel": 9,
        "type": "channel",
        "noteNumber": 46,
        "velocity": 121,
        "subtype": "noteOn"
      },
      {
        "deltaTime": 480,
        "channel": 9,
        "type": "channel",
        "noteNumber": 46,
        "velocity": 0,
        "subtype": "noteOff"
      },
      {
        "deltaTime": 0,
        "channel": 9,
        "type": "channel",
        "noteNumber": 46,
        "velocity": 121,
        "subtype": "noteOn"
      },
      {
        "deltaTime": 0,
        "channel": 9,
        "type": "channel",
        "noteNumber": 35,
        "velocity": 121,
        "subtype": "noteOn"
      },
      {
        "deltaTime": 480,
        "channel": 9,
        "type": "channel",
        "noteNumber": 35,
        "velocity": 0,
        "subtype": "noteOff"
      },
      {
        "deltaTime": 0,
        "channel": 9,
        "type": "channel",
        "noteNumber": 46,
        "velocity": 0,
        "subtype": "noteOff"
      },
      {
        "deltaTime": 0,
        "channel": 9,
        "type": "channel",
        "noteNumber": 46,
        "velocity": 121,
        "subtype": "noteOn"
      },
      {
        "deltaTime": 480,
        "channel": 9,
        "type": "channel",
        "noteNumber": 46,
        "velocity": 0,
        "subtype": "noteOff"
      },
      {
        "deltaTime": 0,
        "channel": 9,
        "type": "channel",
        "noteNumber": 35,
        "velocity": 121,
        "subtype": "noteOn"
      },
      {
        "deltaTime": 0,
        "channel": 9,
        "type": "channel",
        "noteNumber": 46,
        "velocity": 121,
        "subtype": "noteOn"
      },
      {
        "deltaTime": 0,
        "channel": 9,
        "type": "channel",
        "noteNumber": 38,
        "velocity": 121,
        "subtype": "noteOn"
      },
      {
        "deltaTime": 480,
        "channel": 9,
        "type": "channel",
        "noteNumber": 38,
        "velocity": 0,
        "subtype": "noteOff"
      },
      {
        "deltaTime": 0,
        "channel": 9,
        "type": "channel",
        "noteNumber": 46,
        "velocity": 0,
        "subtype": "noteOff"
      },
      {
        "deltaTime": 0,
        "channel": 9,
        "type": "channel",
        "noteNumber": 35,
        "velocity": 0,
        "subtype": "noteOff"
      },
      {
        "deltaTime": 0,
        "channel": 9,
        "type": "channel",
        "noteNumber": 46,
        "velocity": 121,
        "subtype": "noteOn"
      },
      {
        "deltaTime": 480,
        "channel": 9,
        "type": "channel",
        "noteNumber": 46,
        "velocity": 0,
        "subtype": "noteOff"
      },
      {
        "deltaTime": 0,
        "channel": 9,
        "type": "channel",
        "noteNumber": 46,
        "velocity": 121,
        "subtype": "noteOn"
      },
      {
        "deltaTime": 0,
        "channel": 9,
        "type": "channel",
        "noteNumber": 35,
        "velocity": 121,
        "subtype": "noteOn"
      },
      {
        "deltaTime": 480,
        "channel": 9,
        "type": "channel",
        "noteNumber": 35,
        "velocity": 0,
        "subtype": "noteOff"
      },
      {
        "deltaTime": 0,
        "channel": 9,
        "type": "channel",
        "noteNumber": 46,
        "velocity": 0,
        "subtype": "noteOff"
      },
      {
        "deltaTime": 0,
        "channel": 9,
        "type": "channel",
        "noteNumber": 46,
        "velocity": 121,
        "subtype": "noteOn"
      },
      {
        "deltaTime": 480,
        "channel": 9,
        "type": "channel",
        "noteNumber": 46,
        "velocity": 0,
        "subtype": "noteOff"
      },
      {
        "deltaTime": 0,
        "channel": 9,
        "type": "channel",
        "noteNumber": 35,
        "velocity": 121,
        "subtype": "noteOn"
      },
      {
        "deltaTime": 0,
        "channel": 9,
        "type": "channel",
        "noteNumber": 46,
        "velocity": 121,
        "subtype": "noteOn"
      },
      {
        "deltaTime": 0,
        "channel": 9,
        "type": "channel",
        "noteNumber": 38,
        "velocity": 121,
        "subtype": "noteOn"
      },
      {
        "deltaTime": 480,
        "channel": 9,
        "type": "channel",
        "noteNumber": 38,
        "velocity": 0,
        "subtype": "noteOff"
      },
      {
        "deltaTime": 0,
        "channel": 9,
        "type": "channel",
        "noteNumber": 46,
        "velocity": 0,
        "subtype": "noteOff"
      },
      {
        "deltaTime": 0,
        "channel": 9,
        "type": "channel",
        "noteNumber": 35,
        "velocity": 0,
        "subtype": "noteOff"
      },
      {
        "deltaTime": 0,
        "channel": 9,
        "type": "channel",
        "noteNumber": 46,
        "velocity": 121,
        "subtype": "noteOn"
      },
      {
        "deltaTime": 480,
        "channel": 9,
        "type": "channel",
        "noteNumber": 46,
        "velocity": 0,
        "subtype": "noteOff"
      },
      {
        "deltaTime": 0,
        "channel": 9,
        "type": "channel",
        "noteNumber": 46,
        "velocity": 121,
        "subtype": "noteOn"
      },
      {
        "deltaTime": 0,
        "channel": 9,
        "type": "channel",
        "noteNumber": 35,
        "velocity": 121,
        "subtype": "noteOn"
      },
      {
        "deltaTime": 480,
        "channel": 9,
        "type": "channel",
        "noteNumber": 35,
        "velocity": 0,
        "subtype": "noteOff"
      },
      {
        "deltaTime": 0,
        "channel": 9,
        "type": "channel",
        "noteNumber": 46,
        "velocity": 0,
        "subtype": "noteOff"
      },
      {
        "deltaTime": 0,
        "channel": 9,
        "type": "channel",
        "noteNumber": 46,
        "velocity": 121,
        "subtype": "noteOn"
      },
      {
        "deltaTime": 480,
        "channel": 9,
        "type": "channel",
        "noteNumber": 46,
        "velocity": 0,
        "subtype": "noteOff"
      },
      {
        "deltaTime": 0,
        "channel": 9,
        "type": "channel",
        "noteNumber": 35,
        "velocity": 121,
        "subtype": "noteOn"
      },
      {
        "deltaTime": 0,
        "channel": 9,
        "type": "channel",
        "noteNumber": 46,
        "velocity": 121,
        "subtype": "noteOn"
      },
      {
        "deltaTime": 0,
        "channel": 9,
        "type": "channel",
        "noteNumber": 38,
        "velocity": 121,
        "subtype": "noteOn"
      },
      {
        "deltaTime": 480,
        "channel": 9,
        "type": "channel",
        "noteNumber": 38,
        "velocity": 0,
        "subtype": "noteOff"
      },
      {
        "deltaTime": 0,
        "channel": 9,
        "type": "channel",
        "noteNumber": 46,
        "velocity": 0,
        "subtype": "noteOff"
      },
      {
        "deltaTime": 0,
        "channel": 9,
        "type": "channel",
        "noteNumber": 35,
        "velocity": 0,
        "subtype": "noteOff"
      },
      {
        "deltaTime": 0,
        "channel": 9,
        "type": "channel",
        "noteNumber": 46,
        "velocity": 121,
        "subtype": "noteOn"
      },
      {
        "deltaTime": 480,
        "channel": 9,
        "type": "channel",
        "noteNumber": 46,
        "velocity": 0,
        "subtype": "noteOff"
      },
      {
        "deltaTime": 0,
        "channel": 9,
        "type": "channel",
        "noteNumber": 46,
        "velocity": 121,
        "subtype": "noteOn"
      },
      {
        "deltaTime": 0,
        "channel": 9,
        "type": "channel",
        "noteNumber": 35,
        "velocity": 121,
        "subtype": "noteOn"
      },
      {
        "deltaTime": 480,
        "channel": 9,
        "type": "channel",
        "noteNumber": 35,
        "velocity": 0,
        "subtype": "noteOff"
      },
      {
        "deltaTime": 0,
        "channel": 9,
        "type": "channel",
        "noteNumber": 46,
        "velocity": 0,
        "subtype": "noteOff"
      },
      {
        "deltaTime": 0,
        "channel": 9,
        "type": "channel",
        "noteNumber": 46,
        "velocity": 121,
        "subtype": "noteOn"
      },
      {
        "deltaTime": 480,
        "channel": 9,
        "type": "channel",
        "noteNumber": 46,
        "velocity": 0,
        "subtype": "noteOff"
      },
      {
        "deltaTime": 0,
        "channel": 9,
        "type": "channel",
        "noteNumber": 35,
        "velocity": 121,
        "subtype": "noteOn"
      },
      {
        "deltaTime": 0,
        "channel": 9,
        "type": "channel",
        "noteNumber": 46,
        "velocity": 121,
        "subtype": "noteOn"
      },
      {
        "deltaTime": 0,
        "channel": 9,
        "type": "channel",
        "noteNumber": 38,
        "velocity": 121,
        "subtype": "noteOn"
      },
      {
        "deltaTime": 480,
        "channel": 9,
        "type": "channel",
        "noteNumber": 38,
        "velocity": 0,
        "subtype": "noteOff"
      },
      {
        "deltaTime": 0,
        "channel": 9,
        "type": "channel",
        "noteNumber": 46,
        "velocity": 0,
        "subtype": "noteOff"
      },
      {
        "deltaTime": 0,
        "channel": 9,
        "type": "channel",
        "noteNumber": 35,
        "velocity": 0,
        "subtype": "noteOff"
      },
      {
        "deltaTime": 0,
        "channel": 9,
        "type": "channel",
        "noteNumber": 46,
        "velocity": 121,
        "subtype": "noteOn"
      },
      {
        "deltaTime": 480,
        "channel": 9,
        "type": "channel",
        "noteNumber": 46,
        "velocity": 0,
        "subtype": "noteOff"
      },
      {
        "deltaTime": 0,
        "channel": 9,
        "type": "channel",
        "noteNumber": 46,
        "velocity": 121,
        "subtype": "noteOn"
      },
      {
        "deltaTime": 0,
        "channel": 9,
        "type": "channel",
        "noteNumber": 35,
        "velocity": 121,
        "subtype": "noteOn"
      },
      {
        "deltaTime": 480,
        "channel": 9,
        "type": "channel",
        "noteNumber": 35,
        "velocity": 0,
        "subtype": "noteOff"
      },
      {
        "deltaTime": 0,
        "channel": 9,
        "type": "channel",
        "noteNumber": 46,
        "velocity": 0,
        "subtype": "noteOff"
      },
      {
        "deltaTime": 0,
        "channel": 9,
        "type": "channel",
        "noteNumber": 46,
        "velocity": 121,
        "subtype": "noteOn"
      },
      {
        "deltaTime": 480,
        "channel": 9,
        "type": "channel",
        "noteNumber": 46,
        "velocity": 0,
        "subtype": "noteOff"
      },
      {
        "deltaTime": 0,
        "channel": 9,
        "type": "channel",
        "noteNumber": 35,
        "velocity": 121,
        "subtype": "noteOn"
      },
      {
        "deltaTime": 0,
        "channel": 9,
        "type": "channel",
        "noteNumber": 46,
        "velocity": 121,
        "subtype": "noteOn"
      },
      {
        "deltaTime": 0,
        "channel": 9,
        "type": "channel",
        "noteNumber": 38,
        "velocity": 121,
        "subtype": "noteOn"
      },
      {
        "deltaTime": 480,
        "channel": 9,
        "type": "channel",
        "noteNumber": 38,
        "velocity": 0,
        "subtype": "noteOff"
      },
      {
        "deltaTime": 0,
        "channel": 9,
        "type": "channel",
        "noteNumber": 46,
        "velocity": 0,
        "subtype": "noteOff"
      },
      {
        "deltaTime": 0,
        "channel": 9,
        "type": "channel",
        "noteNumber": 35,
        "velocity": 0,
        "subtype": "noteOff"
      },
      {
        "deltaTime": 0,
        "channel": 9,
        "type": "channel",
        "noteNumber": 46,
        "velocity": 121,
        "subtype": "noteOn"
      },
      {
        "deltaTime": 480,
        "channel": 9,
        "type": "channel",
        "noteNumber": 46,
        "velocity": 0,
        "subtype": "noteOff"
      },
      {
        "deltaTime": 0,
        "channel": 9,
        "type": "channel",
        "noteNumber": 46,
        "velocity": 121,
        "subtype": "noteOn"
      },
      {
        "deltaTime": 0,
        "channel": 9,
        "type": "channel",
        "noteNumber": 35,
        "velocity": 121,
        "subtype": "noteOn"
      },
      {
        "deltaTime": 480,
        "channel": 9,
        "type": "channel",
        "noteNumber": 35,
        "velocity": 0,
        "subtype": "noteOff"
      },
      {
        "deltaTime": 0,
        "channel": 9,
        "type": "channel",
        "noteNumber": 46,
        "velocity": 0,
        "subtype": "noteOff"
      },
      {
        "deltaTime": 0,
        "channel": 9,
        "type": "channel",
        "noteNumber": 46,
        "velocity": 121,
        "subtype": "noteOn"
      },
      {
        "deltaTime": 480,
        "channel": 9,
        "type": "channel",
        "noteNumber": 46,
        "velocity": 0,
        "subtype": "noteOff"
      },
      {
        "deltaTime": 0,
        "channel": 9,
        "type": "channel",
        "noteNumber": 35,
        "velocity": 121,
        "subtype": "noteOn"
      },
      {
        "deltaTime": 0,
        "channel": 9,
        "type": "channel",
        "noteNumber": 46,
        "velocity": 121,
        "subtype": "noteOn"
      },
      {
        "deltaTime": 0,
        "channel": 9,
        "type": "channel",
        "noteNumber": 38,
        "velocity": 121,
        "subtype": "noteOn"
      },
      {
        "deltaTime": 480,
        "channel": 9,
        "type": "channel",
        "noteNumber": 38,
        "velocity": 0,
        "subtype": "noteOff"
      },
      {
        "deltaTime": 0,
        "channel": 9,
        "type": "channel",
        "noteNumber": 46,
        "velocity": 0,
        "subtype": "noteOff"
      },
      {
        "deltaTime": 0,
        "channel": 9,
        "type": "channel",
        "noteNumber": 35,
        "velocity": 0,
        "subtype": "noteOff"
      },
      {
        "deltaTime": 0,
        "channel": 9,
        "type": "channel",
        "noteNumber": 46,
        "velocity": 121,
        "subtype": "noteOn"
      },
      {
        "deltaTime": 480,
        "channel": 9,
        "type": "channel",
        "noteNumber": 46,
        "velocity": 0,
        "subtype": "noteOff"
      },
      {
        "deltaTime": 0,
        "channel": 9,
        "type": "channel",
        "noteNumber": 46,
        "velocity": 121,
        "subtype": "noteOn"
      },
      {
        "deltaTime": 0,
        "channel": 9,
        "type": "channel",
        "noteNumber": 35,
        "velocity": 121,
        "subtype": "noteOn"
      },
      {
        "deltaTime": 480,
        "channel": 9,
        "type": "channel",
        "noteNumber": 35,
        "velocity": 0,
        "subtype": "noteOff"
      },
      {
        "deltaTime": 0,
        "channel": 9,
        "type": "channel",
        "noteNumber": 46,
        "velocity": 0,
        "subtype": "noteOff"
      },
      {
        "deltaTime": 0,
        "channel": 9,
        "type": "channel",
        "noteNumber": 46,
        "velocity": 121,
        "subtype": "noteOn"
      },
      {
        "deltaTime": 480,
        "channel": 9,
        "type": "channel",
        "noteNumber": 46,
        "velocity": 0,
        "subtype": "noteOff"
      },
      {
        "deltaTime": 0,
        "channel": 9,
        "type": "channel",
        "noteNumber": 36,
        "velocity": 121,
        "subtype": "noteOn"
      },
      {
        "deltaTime": 0,
        "channel": 9,
        "type": "channel",
        "noteNumber": 35,
        "velocity": 121,
        "subtype": "noteOn"
      },
      {
        "deltaTime": 0,
        "channel": 9,
        "type": "channel",
        "noteNumber": 43,
        "velocity": 121,
        "subtype": "noteOn"
      },
      {
        "deltaTime": 0,
        "channel": 9,
        "type": "channel",
        "noteNumber": 38,
        "velocity": 121,
        "subtype": "noteOn"
      },
      {
        "deltaTime": 960,
        "channel": 9,
        "type": "channel",
        "noteNumber": 38,
        "velocity": 0,
        "subtype": "noteOff"
      },
      {
        "deltaTime": 0,
        "channel": 9,
        "type": "channel",
        "noteNumber": 36,
        "velocity": 0,
        "subtype": "noteOff"
      },
      {
        "deltaTime": 0,
        "channel": 9,
        "type": "channel",
        "noteNumber": 35,
        "velocity": 0,
        "subtype": "noteOff"
      },
      {
        "deltaTime": 0,
        "channel": 9,
        "type": "channel",
        "noteNumber": 43,
        "velocity": 0,
        "subtype": "noteOff"
      },
      {
        "deltaTime": 0,
        "channel": 9,
        "type": "channel",
        "noteNumber": 57,
        "velocity": 121,
        "subtype": "noteOn"
      },
      {
        "deltaTime": 0,
        "channel": 9,
        "type": "channel",
        "noteNumber": 35,
        "velocity": 121,
        "subtype": "noteOn"
      },
      {
        "deltaTime": 480,
        "channel": 9,
        "type": "channel",
        "noteNumber": 35,
        "velocity": 0,
        "subtype": "noteOff"
      },
      {
        "deltaTime": 0,
        "channel": 9,
        "type": "channel",
        "noteNumber": 57,
        "velocity": 0,
        "subtype": "noteOff"
      },
      {
        "deltaTime": 480,
        "channel": 9,
        "type": "channel",
        "noteNumber": 35,
        "velocity": 121,
        "subtype": "noteOn"
      },
      {
        "deltaTime": 0,
        "channel": 9,
        "type": "channel",
        "noteNumber": 46,
        "velocity": 121,
        "subtype": "noteOn"
      },
      {
        "deltaTime": 0,
        "channel": 9,
        "type": "channel",
        "noteNumber": 38,
        "velocity": 121,
        "subtype": "noteOn"
      },
      {
        "deltaTime": 480,
        "channel": 9,
        "type": "channel",
        "noteNumber": 38,
        "velocity": 0,
        "subtype": "noteOff"
      },
      {
        "deltaTime": 0,
        "channel": 9,
        "type": "channel",
        "noteNumber": 46,
        "velocity": 0,
        "subtype": "noteOff"
      },
      {
        "deltaTime": 0,
        "channel": 9,
        "type": "channel",
        "noteNumber": 35,
        "velocity": 0,
        "subtype": "noteOff"
      },
      {
        "deltaTime": 0,
        "channel": 9,
        "type": "channel",
        "noteNumber": 46,
        "velocity": 121,
        "subtype": "noteOn"
      },
      {
        "deltaTime": 480,
        "channel": 9,
        "type": "channel",
        "noteNumber": 46,
        "velocity": 0,
        "subtype": "noteOff"
      },
      {
        "deltaTime": 0,
        "channel": 9,
        "type": "channel",
        "noteNumber": 46,
        "velocity": 121,
        "subtype": "noteOn"
      },
      {
        "deltaTime": 0,
        "channel": 9,
        "type": "channel",
        "noteNumber": 35,
        "velocity": 121,
        "subtype": "noteOn"
      },
      {
        "deltaTime": 480,
        "channel": 9,
        "type": "channel",
        "noteNumber": 35,
        "velocity": 0,
        "subtype": "noteOff"
      },
      {
        "deltaTime": 0,
        "channel": 9,
        "type": "channel",
        "noteNumber": 46,
        "velocity": 0,
        "subtype": "noteOff"
      },
      {
        "deltaTime": 0,
        "channel": 9,
        "type": "channel",
        "noteNumber": 46,
        "velocity": 121,
        "subtype": "noteOn"
      },
      {
        "deltaTime": 480,
        "channel": 9,
        "type": "channel",
        "noteNumber": 46,
        "velocity": 0,
        "subtype": "noteOff"
      },
      {
        "deltaTime": 0,
        "channel": 9,
        "type": "channel",
        "noteNumber": 35,
        "velocity": 121,
        "subtype": "noteOn"
      },
      {
        "deltaTime": 0,
        "channel": 9,
        "type": "channel",
        "noteNumber": 46,
        "velocity": 121,
        "subtype": "noteOn"
      },
      {
        "deltaTime": 0,
        "channel": 9,
        "type": "channel",
        "noteNumber": 38,
        "velocity": 121,
        "subtype": "noteOn"
      },
      {
        "deltaTime": 480,
        "channel": 9,
        "type": "channel",
        "noteNumber": 38,
        "velocity": 0,
        "subtype": "noteOff"
      },
      {
        "deltaTime": 0,
        "channel": 9,
        "type": "channel",
        "noteNumber": 46,
        "velocity": 0,
        "subtype": "noteOff"
      },
      {
        "deltaTime": 0,
        "channel": 9,
        "type": "channel",
        "noteNumber": 35,
        "velocity": 0,
        "subtype": "noteOff"
      },
      {
        "deltaTime": 0,
        "channel": 9,
        "type": "channel",
        "noteNumber": 46,
        "velocity": 121,
        "subtype": "noteOn"
      },
      {
        "deltaTime": 480,
        "channel": 9,
        "type": "channel",
        "noteNumber": 46,
        "velocity": 0,
        "subtype": "noteOff"
      },
      {
        "deltaTime": 0,
        "channel": 9,
        "type": "channel",
        "noteNumber": 46,
        "velocity": 121,
        "subtype": "noteOn"
      },
      {
        "deltaTime": 0,
        "channel": 9,
        "type": "channel",
        "noteNumber": 35,
        "velocity": 121,
        "subtype": "noteOn"
      },
      {
        "deltaTime": 480,
        "channel": 9,
        "type": "channel",
        "noteNumber": 35,
        "velocity": 0,
        "subtype": "noteOff"
      },
      {
        "deltaTime": 0,
        "channel": 9,
        "type": "channel",
        "noteNumber": 46,
        "velocity": 0,
        "subtype": "noteOff"
      },
      {
        "deltaTime": 0,
        "channel": 9,
        "type": "channel",
        "noteNumber": 46,
        "velocity": 121,
        "subtype": "noteOn"
      },
      {
        "deltaTime": 480,
        "channel": 9,
        "type": "channel",
        "noteNumber": 46,
        "velocity": 0,
        "subtype": "noteOff"
      },
      {
        "deltaTime": 0,
        "channel": 9,
        "type": "channel",
        "noteNumber": 35,
        "velocity": 121,
        "subtype": "noteOn"
      },
      {
        "deltaTime": 0,
        "channel": 9,
        "type": "channel",
        "noteNumber": 46,
        "velocity": 121,
        "subtype": "noteOn"
      },
      {
        "deltaTime": 0,
        "channel": 9,
        "type": "channel",
        "noteNumber": 38,
        "velocity": 121,
        "subtype": "noteOn"
      },
      {
        "deltaTime": 480,
        "channel": 9,
        "type": "channel",
        "noteNumber": 38,
        "velocity": 0,
        "subtype": "noteOff"
      },
      {
        "deltaTime": 0,
        "channel": 9,
        "type": "channel",
        "noteNumber": 46,
        "velocity": 0,
        "subtype": "noteOff"
      },
      {
        "deltaTime": 0,
        "channel": 9,
        "type": "channel",
        "noteNumber": 35,
        "velocity": 0,
        "subtype": "noteOff"
      },
      {
        "deltaTime": 0,
        "channel": 9,
        "type": "channel",
        "noteNumber": 46,
        "velocity": 121,
        "subtype": "noteOn"
      },
      {
        "deltaTime": 480,
        "channel": 9,
        "type": "channel",
        "noteNumber": 46,
        "velocity": 0,
        "subtype": "noteOff"
      },
      {
        "deltaTime": 0,
        "channel": 9,
        "type": "channel",
        "noteNumber": 46,
        "velocity": 121,
        "subtype": "noteOn"
      },
      {
        "deltaTime": 0,
        "channel": 9,
        "type": "channel",
        "noteNumber": 35,
        "velocity": 121,
        "subtype": "noteOn"
      },
      {
        "deltaTime": 480,
        "channel": 9,
        "type": "channel",
        "noteNumber": 35,
        "velocity": 0,
        "subtype": "noteOff"
      },
      {
        "deltaTime": 0,
        "channel": 9,
        "type": "channel",
        "noteNumber": 46,
        "velocity": 0,
        "subtype": "noteOff"
      },
      {
        "deltaTime": 0,
        "channel": 9,
        "type": "channel",
        "noteNumber": 46,
        "velocity": 121,
        "subtype": "noteOn"
      },
      {
        "deltaTime": 480,
        "channel": 9,
        "type": "channel",
        "noteNumber": 46,
        "velocity": 0,
        "subtype": "noteOff"
      },
      {
        "deltaTime": 0,
        "channel": 9,
        "type": "channel",
        "noteNumber": 35,
        "velocity": 121,
        "subtype": "noteOn"
      },
      {
        "deltaTime": 0,
        "channel": 9,
        "type": "channel",
        "noteNumber": 46,
        "velocity": 121,
        "subtype": "noteOn"
      },
      {
        "deltaTime": 0,
        "channel": 9,
        "type": "channel",
        "noteNumber": 38,
        "velocity": 121,
        "subtype": "noteOn"
      },
      {
        "deltaTime": 480,
        "channel": 9,
        "type": "channel",
        "noteNumber": 38,
        "velocity": 0,
        "subtype": "noteOff"
      },
      {
        "deltaTime": 0,
        "channel": 9,
        "type": "channel",
        "noteNumber": 46,
        "velocity": 0,
        "subtype": "noteOff"
      },
      {
        "deltaTime": 0,
        "channel": 9,
        "type": "channel",
        "noteNumber": 35,
        "velocity": 0,
        "subtype": "noteOff"
      },
      {
        "deltaTime": 0,
        "channel": 9,
        "type": "channel",
        "noteNumber": 46,
        "velocity": 121,
        "subtype": "noteOn"
      },
      {
        "deltaTime": 480,
        "channel": 9,
        "type": "channel",
        "noteNumber": 46,
        "velocity": 0,
        "subtype": "noteOff"
      },
      {
        "deltaTime": 0,
        "channel": 9,
        "type": "channel",
        "noteNumber": 46,
        "velocity": 121,
        "subtype": "noteOn"
      },
      {
        "deltaTime": 0,
        "channel": 9,
        "type": "channel",
        "noteNumber": 35,
        "velocity": 121,
        "subtype": "noteOn"
      },
      {
        "deltaTime": 480,
        "channel": 9,
        "type": "channel",
        "noteNumber": 35,
        "velocity": 0,
        "subtype": "noteOff"
      },
      {
        "deltaTime": 0,
        "channel": 9,
        "type": "channel",
        "noteNumber": 46,
        "velocity": 0,
        "subtype": "noteOff"
      },
      {
        "deltaTime": 0,
        "channel": 9,
        "type": "channel",
        "noteNumber": 46,
        "velocity": 121,
        "subtype": "noteOn"
      },
      {
        "deltaTime": 480,
        "channel": 9,
        "type": "channel",
        "noteNumber": 46,
        "velocity": 0,
        "subtype": "noteOff"
      },
      {
        "deltaTime": 0,
        "channel": 9,
        "type": "channel",
        "noteNumber": 35,
        "velocity": 121,
        "subtype": "noteOn"
      },
      {
        "deltaTime": 0,
        "channel": 9,
        "type": "channel",
        "noteNumber": 46,
        "velocity": 121,
        "subtype": "noteOn"
      },
      {
        "deltaTime": 0,
        "channel": 9,
        "type": "channel",
        "noteNumber": 38,
        "velocity": 121,
        "subtype": "noteOn"
      },
      {
        "deltaTime": 480,
        "channel": 9,
        "type": "channel",
        "noteNumber": 38,
        "velocity": 0,
        "subtype": "noteOff"
      },
      {
        "deltaTime": 0,
        "channel": 9,
        "type": "channel",
        "noteNumber": 46,
        "velocity": 0,
        "subtype": "noteOff"
      },
      {
        "deltaTime": 0,
        "channel": 9,
        "type": "channel",
        "noteNumber": 35,
        "velocity": 0,
        "subtype": "noteOff"
      },
      {
        "deltaTime": 0,
        "channel": 9,
        "type": "channel",
        "noteNumber": 46,
        "velocity": 121,
        "subtype": "noteOn"
      },
      {
        "deltaTime": 480,
        "channel": 9,
        "type": "channel",
        "noteNumber": 46,
        "velocity": 0,
        "subtype": "noteOff"
      },
      {
        "deltaTime": 0,
        "channel": 9,
        "type": "channel",
        "noteNumber": 46,
        "velocity": 121,
        "subtype": "noteOn"
      },
      {
        "deltaTime": 0,
        "channel": 9,
        "type": "channel",
        "noteNumber": 35,
        "velocity": 121,
        "subtype": "noteOn"
      },
      {
        "deltaTime": 480,
        "channel": 9,
        "type": "channel",
        "noteNumber": 35,
        "velocity": 0,
        "subtype": "noteOff"
      },
      {
        "deltaTime": 0,
        "channel": 9,
        "type": "channel",
        "noteNumber": 46,
        "velocity": 0,
        "subtype": "noteOff"
      },
      {
        "deltaTime": 0,
        "channel": 9,
        "type": "channel",
        "noteNumber": 46,
        "velocity": 121,
        "subtype": "noteOn"
      },
      {
        "deltaTime": 480,
        "channel": 9,
        "type": "channel",
        "noteNumber": 46,
        "velocity": 0,
        "subtype": "noteOff"
      },
      {
        "deltaTime": 0,
        "channel": 9,
        "type": "channel",
        "noteNumber": 35,
        "velocity": 121,
        "subtype": "noteOn"
      },
      {
        "deltaTime": 0,
        "channel": 9,
        "type": "channel",
        "noteNumber": 46,
        "velocity": 121,
        "subtype": "noteOn"
      },
      {
        "deltaTime": 0,
        "channel": 9,
        "type": "channel",
        "noteNumber": 38,
        "velocity": 121,
        "subtype": "noteOn"
      },
      {
        "deltaTime": 480,
        "channel": 9,
        "type": "channel",
        "noteNumber": 38,
        "velocity": 0,
        "subtype": "noteOff"
      },
      {
        "deltaTime": 0,
        "channel": 9,
        "type": "channel",
        "noteNumber": 46,
        "velocity": 0,
        "subtype": "noteOff"
      },
      {
        "deltaTime": 0,
        "channel": 9,
        "type": "channel",
        "noteNumber": 35,
        "velocity": 0,
        "subtype": "noteOff"
      },
      {
        "deltaTime": 0,
        "channel": 9,
        "type": "channel",
        "noteNumber": 46,
        "velocity": 121,
        "subtype": "noteOn"
      },
      {
        "deltaTime": 480,
        "channel": 9,
        "type": "channel",
        "noteNumber": 46,
        "velocity": 0,
        "subtype": "noteOff"
      },
      {
        "deltaTime": 0,
        "channel": 9,
        "type": "channel",
        "noteNumber": 46,
        "velocity": 121,
        "subtype": "noteOn"
      },
      {
        "deltaTime": 0,
        "channel": 9,
        "type": "channel",
        "noteNumber": 35,
        "velocity": 121,
        "subtype": "noteOn"
      },
      {
        "deltaTime": 480,
        "channel": 9,
        "type": "channel",
        "noteNumber": 35,
        "velocity": 0,
        "subtype": "noteOff"
      },
      {
        "deltaTime": 0,
        "channel": 9,
        "type": "channel",
        "noteNumber": 46,
        "velocity": 0,
        "subtype": "noteOff"
      },
      {
        "deltaTime": 0,
        "channel": 9,
        "type": "channel",
        "noteNumber": 46,
        "velocity": 121,
        "subtype": "noteOn"
      },
      {
        "deltaTime": 480,
        "channel": 9,
        "type": "channel",
        "noteNumber": 46,
        "velocity": 0,
        "subtype": "noteOff"
      },
      {
        "deltaTime": 0,
        "channel": 9,
        "type": "channel",
        "noteNumber": 35,
        "velocity": 121,
        "subtype": "noteOn"
      },
      {
        "deltaTime": 0,
        "channel": 9,
        "type": "channel",
        "noteNumber": 46,
        "velocity": 121,
        "subtype": "noteOn"
      },
      {
        "deltaTime": 0,
        "channel": 9,
        "type": "channel",
        "noteNumber": 38,
        "velocity": 121,
        "subtype": "noteOn"
      },
      {
        "deltaTime": 480,
        "channel": 9,
        "type": "channel",
        "noteNumber": 38,
        "velocity": 0,
        "subtype": "noteOff"
      },
      {
        "deltaTime": 0,
        "channel": 9,
        "type": "channel",
        "noteNumber": 46,
        "velocity": 0,
        "subtype": "noteOff"
      },
      {
        "deltaTime": 0,
        "channel": 9,
        "type": "channel",
        "noteNumber": 35,
        "velocity": 0,
        "subtype": "noteOff"
      },
      {
        "deltaTime": 0,
        "channel": 9,
        "type": "channel",
        "noteNumber": 46,
        "velocity": 121,
        "subtype": "noteOn"
      },
      {
        "deltaTime": 480,
        "channel": 9,
        "type": "channel",
        "noteNumber": 46,
        "velocity": 0,
        "subtype": "noteOff"
      },
      {
        "deltaTime": 0,
        "channel": 9,
        "type": "channel",
        "noteNumber": 46,
        "velocity": 121,
        "subtype": "noteOn"
      },
      {
        "deltaTime": 0,
        "channel": 9,
        "type": "channel",
        "noteNumber": 35,
        "velocity": 121,
        "subtype": "noteOn"
      },
      {
        "deltaTime": 480,
        "channel": 9,
        "type": "channel",
        "noteNumber": 35,
        "velocity": 0,
        "subtype": "noteOff"
      },
      {
        "deltaTime": 0,
        "channel": 9,
        "type": "channel",
        "noteNumber": 46,
        "velocity": 0,
        "subtype": "noteOff"
      },
      {
        "deltaTime": 0,
        "channel": 9,
        "type": "channel",
        "noteNumber": 36,
        "velocity": 121,
        "subtype": "noteOn"
      },
      {
        "deltaTime": 0,
        "channel": 9,
        "type": "channel",
        "noteNumber": 43,
        "velocity": 121,
        "subtype": "noteOn"
      },
      {
        "deltaTime": 0,
        "channel": 9,
        "type": "channel",
        "noteNumber": 38,
        "velocity": 121,
        "subtype": "noteOn"
      },
      {
        "deltaTime": 480,
        "channel": 9,
        "type": "channel",
        "noteNumber": 38,
        "velocity": 0,
        "subtype": "noteOff"
      },
      {
        "deltaTime": 0,
        "channel": 9,
        "type": "channel",
        "noteNumber": 43,
        "velocity": 0,
        "subtype": "noteOff"
      },
      {
        "deltaTime": 0,
        "channel": 9,
        "type": "channel",
        "noteNumber": 36,
        "velocity": 0,
        "subtype": "noteOff"
      },
      {
        "deltaTime": 0,
        "channel": 9,
        "type": "channel",
        "noteNumber": 36,
        "velocity": 121,
        "subtype": "noteOn"
      },
      {
        "deltaTime": 0,
        "channel": 9,
        "type": "channel",
        "noteNumber": 43,
        "velocity": 121,
        "subtype": "noteOn"
      },
      {
        "deltaTime": 0,
        "channel": 9,
        "type": "channel",
        "noteNumber": 38,
        "velocity": 121,
        "subtype": "noteOn"
      },
      {
        "deltaTime": 480,
        "channel": 9,
        "type": "channel",
        "noteNumber": 38,
        "velocity": 0,
        "subtype": "noteOff"
      },
      {
        "deltaTime": 0,
        "channel": 9,
        "type": "channel",
        "noteNumber": 43,
        "velocity": 0,
        "subtype": "noteOff"
      },
      {
        "deltaTime": 0,
        "channel": 9,
        "type": "channel",
        "noteNumber": 36,
        "velocity": 0,
        "subtype": "noteOff"
      },
      {
        "deltaTime": 480,
        "channel": 9,
        "type": "channel",
        "noteNumber": 35,
        "velocity": 121,
        "subtype": "noteOn"
      },
      {
        "deltaTime": 0,
        "channel": 9,
        "type": "channel",
        "noteNumber": 49,
        "velocity": 121,
        "subtype": "noteOn"
      },
      {
        "deltaTime": 960,
        "channel": 9,
        "type": "channel",
        "noteNumber": 49,
        "velocity": 0,
        "subtype": "noteOff"
      },
      {
        "deltaTime": 0,
        "channel": 9,
        "type": "channel",
        "noteNumber": 35,
        "velocity": 0,
        "subtype": "noteOff"
      },
      {
        "deltaTime": 0,
        "channel": 9,
        "type": "channel",
        "noteNumber": 35,
        "velocity": 121,
        "subtype": "noteOn"
      },
      {
        "deltaTime": 0,
        "channel": 9,
        "type": "channel",
        "noteNumber": 38,
        "velocity": 121,
        "subtype": "noteOn"
      },
      {
        "deltaTime": 0,
        "channel": 9,
        "type": "channel",
        "noteNumber": 49,
        "velocity": 121,
        "subtype": "noteOn"
      },
      {
        "deltaTime": 960,
        "channel": 9,
        "type": "channel",
        "noteNumber": 49,
        "velocity": 0,
        "subtype": "noteOff"
      },
      {
        "deltaTime": 0,
        "channel": 9,
        "type": "channel",
        "noteNumber": 38,
        "velocity": 0,
        "subtype": "noteOff"
      },
      {
        "deltaTime": 0,
        "channel": 9,
        "type": "channel",
        "noteNumber": 35,
        "velocity": 0,
        "subtype": "noteOff"
      },
      {
        "deltaTime": 0,
        "channel": 9,
        "type": "channel",
        "noteNumber": 35,
        "velocity": 121,
        "subtype": "noteOn"
      },
      {
        "deltaTime": 0,
        "channel": 9,
        "type": "channel",
        "noteNumber": 49,
        "velocity": 121,
        "subtype": "noteOn"
      },
      {
        "deltaTime": 960,
        "channel": 9,
        "type": "channel",
        "noteNumber": 49,
        "velocity": 0,
        "subtype": "noteOff"
      },
      {
        "deltaTime": 0,
        "channel": 9,
        "type": "channel",
        "noteNumber": 35,
        "velocity": 0,
        "subtype": "noteOff"
      },
      {
        "deltaTime": 0,
        "channel": 9,
        "type": "channel",
        "noteNumber": 38,
        "velocity": 121,
        "subtype": "noteOn"
      },
      {
        "deltaTime": 0,
        "channel": 9,
        "type": "channel",
        "noteNumber": 35,
        "velocity": 121,
        "subtype": "noteOn"
      },
      {
        "deltaTime": 0,
        "channel": 9,
        "type": "channel",
        "noteNumber": 49,
        "velocity": 121,
        "subtype": "noteOn"
      },
      {
        "deltaTime": 960,
        "channel": 9,
        "type": "channel",
        "noteNumber": 49,
        "velocity": 0,
        "subtype": "noteOff"
      },
      {
        "deltaTime": 0,
        "channel": 9,
        "type": "channel",
        "noteNumber": 35,
        "velocity": 0,
        "subtype": "noteOff"
      },
      {
        "deltaTime": 0,
        "channel": 9,
        "type": "channel",
        "noteNumber": 38,
        "velocity": 0,
        "subtype": "noteOff"
      },
      {
        "deltaTime": 0,
        "channel": 9,
        "type": "channel",
        "noteNumber": 35,
        "velocity": 121,
        "subtype": "noteOn"
      },
      {
        "deltaTime": 0,
        "channel": 9,
        "type": "channel",
        "noteNumber": 49,
        "velocity": 121,
        "subtype": "noteOn"
      },
      {
        "deltaTime": 960,
        "channel": 9,
        "type": "channel",
        "noteNumber": 49,
        "velocity": 0,
        "subtype": "noteOff"
      },
      {
        "deltaTime": 0,
        "channel": 9,
        "type": "channel",
        "noteNumber": 35,
        "velocity": 0,
        "subtype": "noteOff"
      },
      {
        "deltaTime": 0,
        "channel": 9,
        "type": "channel",
        "noteNumber": 35,
        "velocity": 121,
        "subtype": "noteOn"
      },
      {
        "deltaTime": 0,
        "channel": 9,
        "type": "channel",
        "noteNumber": 38,
        "velocity": 121,
        "subtype": "noteOn"
      },
      {
        "deltaTime": 0,
        "channel": 9,
        "type": "channel",
        "noteNumber": 49,
        "velocity": 121,
        "subtype": "noteOn"
      },
      {
        "deltaTime": 960,
        "channel": 9,
        "type": "channel",
        "noteNumber": 49,
        "velocity": 0,
        "subtype": "noteOff"
      },
      {
        "deltaTime": 0,
        "channel": 9,
        "type": "channel",
        "noteNumber": 38,
        "velocity": 0,
        "subtype": "noteOff"
      },
      {
        "deltaTime": 0,
        "channel": 9,
        "type": "channel",
        "noteNumber": 35,
        "velocity": 0,
        "subtype": "noteOff"
      },
      {
        "deltaTime": 0,
        "channel": 9,
        "type": "channel",
        "noteNumber": 35,
        "velocity": 121,
        "subtype": "noteOn"
      },
      {
        "deltaTime": 0,
        "channel": 9,
        "type": "channel",
        "noteNumber": 49,
        "velocity": 121,
        "subtype": "noteOn"
      },
      {
        "deltaTime": 960,
        "channel": 9,
        "type": "channel",
        "noteNumber": 49,
        "velocity": 0,
        "subtype": "noteOff"
      },
      {
        "deltaTime": 0,
        "channel": 9,
        "type": "channel",
        "noteNumber": 35,
        "velocity": 0,
        "subtype": "noteOff"
      },
      {
        "deltaTime": 0,
        "channel": 9,
        "type": "channel",
        "noteNumber": 38,
        "velocity": 121,
        "subtype": "noteOn"
      },
      {
        "deltaTime": 0,
        "channel": 9,
        "type": "channel",
        "noteNumber": 35,
        "velocity": 121,
        "subtype": "noteOn"
      },
      {
        "deltaTime": 0,
        "channel": 9,
        "type": "channel",
        "noteNumber": 49,
        "velocity": 121,
        "subtype": "noteOn"
      },
      {
        "deltaTime": 960,
        "channel": 9,
        "type": "channel",
        "noteNumber": 49,
        "velocity": 0,
        "subtype": "noteOff"
      },
      {
        "deltaTime": 0,
        "channel": 9,
        "type": "channel",
        "noteNumber": 35,
        "velocity": 0,
        "subtype": "noteOff"
      },
      {
        "deltaTime": 0,
        "channel": 9,
        "type": "channel",
        "noteNumber": 38,
        "velocity": 0,
        "subtype": "noteOff"
      },
      {
        "deltaTime": 0,
        "channel": 9,
        "type": "channel",
        "noteNumber": 57,
        "velocity": 121,
        "subtype": "noteOn"
      },
      {
        "deltaTime": 0,
        "channel": 9,
        "type": "channel",
        "noteNumber": 35,
        "velocity": 121,
        "subtype": "noteOn"
      },
      {
        "deltaTime": 0,
        "channel": 9,
        "type": "channel",
        "noteNumber": 49,
        "velocity": 121,
        "subtype": "noteOn"
      },
      {
        "deltaTime": 960,
        "channel": 9,
        "type": "channel",
        "noteNumber": 49,
        "velocity": 0,
        "subtype": "noteOff"
      },
      {
        "deltaTime": 0,
        "channel": 9,
        "type": "channel",
        "noteNumber": 35,
        "velocity": 0,
        "subtype": "noteOff"
      },
      {
        "deltaTime": 0,
        "channel": 9,
        "type": "channel",
        "noteNumber": 57,
        "velocity": 0,
        "subtype": "noteOff"
      },
      {
        "deltaTime": 0,
        "channel": 9,
        "type": "channel",
        "noteNumber": 35,
        "velocity": 121,
        "subtype": "noteOn"
      },
      {
        "deltaTime": 0,
        "channel": 9,
        "type": "channel",
        "noteNumber": 38,
        "velocity": 121,
        "subtype": "noteOn"
      },
      {
        "deltaTime": 0,
        "channel": 9,
        "type": "channel",
        "noteNumber": 49,
        "velocity": 121,
        "subtype": "noteOn"
      },
      {
        "deltaTime": 960,
        "channel": 9,
        "type": "channel",
        "noteNumber": 49,
        "velocity": 0,
        "subtype": "noteOff"
      },
      {
        "deltaTime": 0,
        "channel": 9,
        "type": "channel",
        "noteNumber": 38,
        "velocity": 0,
        "subtype": "noteOff"
      },
      {
        "deltaTime": 0,
        "channel": 9,
        "type": "channel",
        "noteNumber": 35,
        "velocity": 0,
        "subtype": "noteOff"
      },
      {
        "deltaTime": 0,
        "channel": 9,
        "type": "channel",
        "noteNumber": 35,
        "velocity": 121,
        "subtype": "noteOn"
      },
      {
        "deltaTime": 0,
        "channel": 9,
        "type": "channel",
        "noteNumber": 49,
        "velocity": 121,
        "subtype": "noteOn"
      },
      {
        "deltaTime": 960,
        "channel": 9,
        "type": "channel",
        "noteNumber": 49,
        "velocity": 0,
        "subtype": "noteOff"
      },
      {
        "deltaTime": 0,
        "channel": 9,
        "type": "channel",
        "noteNumber": 35,
        "velocity": 0,
        "subtype": "noteOff"
      },
      {
        "deltaTime": 0,
        "channel": 9,
        "type": "channel",
        "noteNumber": 38,
        "velocity": 121,
        "subtype": "noteOn"
      },
      {
        "deltaTime": 0,
        "channel": 9,
        "type": "channel",
        "noteNumber": 35,
        "velocity": 121,
        "subtype": "noteOn"
      },
      {
        "deltaTime": 0,
        "channel": 9,
        "type": "channel",
        "noteNumber": 49,
        "velocity": 121,
        "subtype": "noteOn"
      },
      {
        "deltaTime": 960,
        "channel": 9,
        "type": "channel",
        "noteNumber": 49,
        "velocity": 0,
        "subtype": "noteOff"
      },
      {
        "deltaTime": 0,
        "channel": 9,
        "type": "channel",
        "noteNumber": 35,
        "velocity": 0,
        "subtype": "noteOff"
      },
      {
        "deltaTime": 0,
        "channel": 9,
        "type": "channel",
        "noteNumber": 38,
        "velocity": 0,
        "subtype": "noteOff"
      },
      {
        "deltaTime": 0,
        "channel": 9,
        "type": "channel",
        "noteNumber": 35,
        "velocity": 121,
        "subtype": "noteOn"
      },
      {
        "deltaTime": 0,
        "channel": 9,
        "type": "channel",
        "noteNumber": 49,
        "velocity": 121,
        "subtype": "noteOn"
      },
      {
        "deltaTime": 960,
        "channel": 9,
        "type": "channel",
        "noteNumber": 49,
        "velocity": 0,
        "subtype": "noteOff"
      },
      {
        "deltaTime": 0,
        "channel": 9,
        "type": "channel",
        "noteNumber": 35,
        "velocity": 0,
        "subtype": "noteOff"
      },
      {
        "deltaTime": 0,
        "channel": 9,
        "type": "channel",
        "noteNumber": 35,
        "velocity": 121,
        "subtype": "noteOn"
      },
      {
        "deltaTime": 0,
        "channel": 9,
        "type": "channel",
        "noteNumber": 38,
        "velocity": 121,
        "subtype": "noteOn"
      },
      {
        "deltaTime": 0,
        "channel": 9,
        "type": "channel",
        "noteNumber": 49,
        "velocity": 121,
        "subtype": "noteOn"
      },
      {
        "deltaTime": 960,
        "channel": 9,
        "type": "channel",
        "noteNumber": 49,
        "velocity": 0,
        "subtype": "noteOff"
      },
      {
        "deltaTime": 0,
        "channel": 9,
        "type": "channel",
        "noteNumber": 38,
        "velocity": 0,
        "subtype": "noteOff"
      },
      {
        "deltaTime": 0,
        "channel": 9,
        "type": "channel",
        "noteNumber": 35,
        "velocity": 0,
        "subtype": "noteOff"
      },
      {
        "deltaTime": 0,
        "channel": 9,
        "type": "channel",
        "noteNumber": 35,
        "velocity": 121,
        "subtype": "noteOn"
      },
      {
        "deltaTime": 0,
        "channel": 9,
        "type": "channel",
        "noteNumber": 49,
        "velocity": 121,
        "subtype": "noteOn"
      },
      {
        "deltaTime": 960,
        "channel": 9,
        "type": "channel",
        "noteNumber": 49,
        "velocity": 0,
        "subtype": "noteOff"
      },
      {
        "deltaTime": 0,
        "channel": 9,
        "type": "channel",
        "noteNumber": 35,
        "velocity": 0,
        "subtype": "noteOff"
      },
      {
        "deltaTime": 0,
        "channel": 9,
        "type": "channel",
        "noteNumber": 38,
        "velocity": 121,
        "subtype": "noteOn"
      },
      {
        "deltaTime": 0,
        "channel": 9,
        "type": "channel",
        "noteNumber": 35,
        "velocity": 121,
        "subtype": "noteOn"
      },
      {
        "deltaTime": 0,
        "channel": 9,
        "type": "channel",
        "noteNumber": 49,
        "velocity": 121,
        "subtype": "noteOn"
      },
      {
        "deltaTime": 960,
        "channel": 9,
        "type": "channel",
        "noteNumber": 49,
        "velocity": 0,
        "subtype": "noteOff"
      },
      {
        "deltaTime": 0,
        "channel": 9,
        "type": "channel",
        "noteNumber": 35,
        "velocity": 0,
        "subtype": "noteOff"
      },
      {
        "deltaTime": 0,
        "channel": 9,
        "type": "channel",
        "noteNumber": 38,
        "velocity": 0,
        "subtype": "noteOff"
      },
      {
        "deltaTime": 0,
        "channel": 9,
        "type": "channel",
        "noteNumber": 57,
        "velocity": 121,
        "subtype": "noteOn"
      },
      {
        "deltaTime": 0,
        "channel": 9,
        "type": "channel",
        "noteNumber": 35,
        "velocity": 121,
        "subtype": "noteOn"
      },
      {
        "deltaTime": 0,
        "channel": 9,
        "type": "channel",
        "noteNumber": 49,
        "velocity": 121,
        "subtype": "noteOn"
      },
      {
        "deltaTime": 960,
        "channel": 9,
        "type": "channel",
        "noteNumber": 49,
        "velocity": 0,
        "subtype": "noteOff"
      },
      {
        "deltaTime": 0,
        "channel": 9,
        "type": "channel",
        "noteNumber": 35,
        "velocity": 0,
        "subtype": "noteOff"
      },
      {
        "deltaTime": 0,
        "channel": 9,
        "type": "channel",
        "noteNumber": 57,
        "velocity": 0,
        "subtype": "noteOff"
      },
      {
        "deltaTime": 0,
        "channel": 9,
        "type": "channel",
        "noteNumber": 35,
        "velocity": 121,
        "subtype": "noteOn"
      },
      {
        "deltaTime": 0,
        "channel": 9,
        "type": "channel",
        "noteNumber": 38,
        "velocity": 121,
        "subtype": "noteOn"
      },
      {
        "deltaTime": 0,
        "channel": 9,
        "type": "channel",
        "noteNumber": 49,
        "velocity": 121,
        "subtype": "noteOn"
      },
      {
        "deltaTime": 960,
        "channel": 9,
        "type": "channel",
        "noteNumber": 49,
        "velocity": 0,
        "subtype": "noteOff"
      },
      {
        "deltaTime": 0,
        "channel": 9,
        "type": "channel",
        "noteNumber": 38,
        "velocity": 0,
        "subtype": "noteOff"
      },
      {
        "deltaTime": 0,
        "channel": 9,
        "type": "channel",
        "noteNumber": 35,
        "velocity": 0,
        "subtype": "noteOff"
      },
      {
        "deltaTime": 0,
        "channel": 9,
        "type": "channel",
        "noteNumber": 35,
        "velocity": 121,
        "subtype": "noteOn"
      },
      {
        "deltaTime": 0,
        "channel": 9,
        "type": "channel",
        "noteNumber": 49,
        "velocity": 121,
        "subtype": "noteOn"
      },
      {
        "deltaTime": 960,
        "channel": 9,
        "type": "channel",
        "noteNumber": 49,
        "velocity": 0,
        "subtype": "noteOff"
      },
      {
        "deltaTime": 0,
        "channel": 9,
        "type": "channel",
        "noteNumber": 35,
        "velocity": 0,
        "subtype": "noteOff"
      },
      {
        "deltaTime": 0,
        "channel": 9,
        "type": "channel",
        "noteNumber": 38,
        "velocity": 121,
        "subtype": "noteOn"
      },
      {
        "deltaTime": 0,
        "channel": 9,
        "type": "channel",
        "noteNumber": 35,
        "velocity": 121,
        "subtype": "noteOn"
      },
      {
        "deltaTime": 0,
        "channel": 9,
        "type": "channel",
        "noteNumber": 49,
        "velocity": 121,
        "subtype": "noteOn"
      },
      {
        "deltaTime": 960,
        "channel": 9,
        "type": "channel",
        "noteNumber": 49,
        "velocity": 0,
        "subtype": "noteOff"
      },
      {
        "deltaTime": 0,
        "channel": 9,
        "type": "channel",
        "noteNumber": 35,
        "velocity": 0,
        "subtype": "noteOff"
      },
      {
        "deltaTime": 0,
        "channel": 9,
        "type": "channel",
        "noteNumber": 38,
        "velocity": 0,
        "subtype": "noteOff"
      },
      {
        "deltaTime": 0,
        "channel": 9,
        "type": "channel",
        "noteNumber": 35,
        "velocity": 121,
        "subtype": "noteOn"
      },
      {
        "deltaTime": 0,
        "channel": 9,
        "type": "channel",
        "noteNumber": 49,
        "velocity": 121,
        "subtype": "noteOn"
      },
      {
        "deltaTime": 960,
        "channel": 9,
        "type": "channel",
        "noteNumber": 49,
        "velocity": 0,
        "subtype": "noteOff"
      },
      {
        "deltaTime": 0,
        "channel": 9,
        "type": "channel",
        "noteNumber": 35,
        "velocity": 0,
        "subtype": "noteOff"
      },
      {
        "deltaTime": 0,
        "channel": 9,
        "type": "channel",
        "noteNumber": 35,
        "velocity": 121,
        "subtype": "noteOn"
      },
      {
        "deltaTime": 0,
        "channel": 9,
        "type": "channel",
        "noteNumber": 38,
        "velocity": 121,
        "subtype": "noteOn"
      },
      {
        "deltaTime": 0,
        "channel": 9,
        "type": "channel",
        "noteNumber": 49,
        "velocity": 121,
        "subtype": "noteOn"
      },
      {
        "deltaTime": 960,
        "channel": 9,
        "type": "channel",
        "noteNumber": 49,
        "velocity": 0,
        "subtype": "noteOff"
      },
      {
        "deltaTime": 0,
        "channel": 9,
        "type": "channel",
        "noteNumber": 38,
        "velocity": 0,
        "subtype": "noteOff"
      },
      {
        "deltaTime": 0,
        "channel": 9,
        "type": "channel",
        "noteNumber": 35,
        "velocity": 0,
        "subtype": "noteOff"
      },
      {
        "deltaTime": 0,
        "channel": 9,
        "type": "channel",
        "noteNumber": 35,
        "velocity": 121,
        "subtype": "noteOn"
      },
      {
        "deltaTime": 0,
        "channel": 9,
        "type": "channel",
        "noteNumber": 49,
        "velocity": 121,
        "subtype": "noteOn"
      },
      {
        "deltaTime": 960,
        "channel": 9,
        "type": "channel",
        "noteNumber": 49,
        "velocity": 0,
        "subtype": "noteOff"
      },
      {
        "deltaTime": 0,
        "channel": 9,
        "type": "channel",
        "noteNumber": 35,
        "velocity": 0,
        "subtype": "noteOff"
      },
      {
        "deltaTime": 0,
        "channel": 9,
        "type": "channel",
        "noteNumber": 38,
        "velocity": 121,
        "subtype": "noteOn"
      },
      {
        "deltaTime": 0,
        "channel": 9,
        "type": "channel",
        "noteNumber": 35,
        "velocity": 121,
        "subtype": "noteOn"
      },
      {
        "deltaTime": 0,
        "channel": 9,
        "type": "channel",
        "noteNumber": 49,
        "velocity": 121,
        "subtype": "noteOn"
      },
      {
        "deltaTime": 960,
        "channel": 9,
        "type": "channel",
        "noteNumber": 49,
        "velocity": 0,
        "subtype": "noteOff"
      },
      {
        "deltaTime": 0,
        "channel": 9,
        "type": "channel",
        "noteNumber": 35,
        "velocity": 0,
        "subtype": "noteOff"
      },
      {
        "deltaTime": 0,
        "channel": 9,
        "type": "channel",
        "noteNumber": 38,
        "velocity": 0,
        "subtype": "noteOff"
      },
      {
        "deltaTime": 0,
        "channel": 9,
        "type": "channel",
        "noteNumber": 35,
        "velocity": 121,
        "subtype": "noteOn"
      },
      {
        "deltaTime": 0,
        "channel": 9,
        "type": "channel",
        "noteNumber": 49,
        "velocity": 121,
        "subtype": "noteOn"
      },
      {
        "deltaTime": 960,
        "channel": 9,
        "type": "channel",
        "noteNumber": 49,
        "velocity": 0,
        "subtype": "noteOff"
      },
      {
        "deltaTime": 0,
        "channel": 9,
        "type": "channel",
        "noteNumber": 35,
        "velocity": 0,
        "subtype": "noteOff"
      },
      {
        "deltaTime": 0,
        "channel": 9,
        "type": "channel",
        "noteNumber": 35,
        "velocity": 121,
        "subtype": "noteOn"
      },
      {
        "deltaTime": 0,
        "channel": 9,
        "type": "channel",
        "noteNumber": 38,
        "velocity": 121,
        "subtype": "noteOn"
      },
      {
        "deltaTime": 0,
        "channel": 9,
        "type": "channel",
        "noteNumber": 49,
        "velocity": 121,
        "subtype": "noteOn"
      },
      {
        "deltaTime": 960,
        "channel": 9,
        "type": "channel",
        "noteNumber": 49,
        "velocity": 0,
        "subtype": "noteOff"
      },
      {
        "deltaTime": 0,
        "channel": 9,
        "type": "channel",
        "noteNumber": 38,
        "velocity": 0,
        "subtype": "noteOff"
      },
      {
        "deltaTime": 0,
        "channel": 9,
        "type": "channel",
        "noteNumber": 35,
        "velocity": 0,
        "subtype": "noteOff"
      },
      {
        "deltaTime": 0,
        "channel": 9,
        "type": "channel",
        "noteNumber": 35,
        "velocity": 121,
        "subtype": "noteOn"
      },
      {
        "deltaTime": 0,
        "channel": 9,
        "type": "channel",
        "noteNumber": 49,
        "velocity": 121,
        "subtype": "noteOn"
      },
      {
        "deltaTime": 960,
        "channel": 9,
        "type": "channel",
        "noteNumber": 49,
        "velocity": 0,
        "subtype": "noteOff"
      },
      {
        "deltaTime": 0,
        "channel": 9,
        "type": "channel",
        "noteNumber": 35,
        "velocity": 0,
        "subtype": "noteOff"
      },
      {
        "deltaTime": 0,
        "channel": 9,
        "type": "channel",
        "noteNumber": 38,
        "velocity": 121,
        "subtype": "noteOn"
      },
      {
        "deltaTime": 0,
        "channel": 9,
        "type": "channel",
        "noteNumber": 35,
        "velocity": 121,
        "subtype": "noteOn"
      },
      {
        "deltaTime": 0,
        "channel": 9,
        "type": "channel",
        "noteNumber": 49,
        "velocity": 121,
        "subtype": "noteOn"
      },
      {
        "deltaTime": 960,
        "channel": 9,
        "type": "channel",
        "noteNumber": 49,
        "velocity": 0,
        "subtype": "noteOff"
      },
      {
        "deltaTime": 0,
        "channel": 9,
        "type": "channel",
        "noteNumber": 35,
        "velocity": 0,
        "subtype": "noteOff"
      },
      {
        "deltaTime": 0,
        "channel": 9,
        "type": "channel",
        "noteNumber": 38,
        "velocity": 0,
        "subtype": "noteOff"
      },
      {
        "deltaTime": 0,
        "channel": 9,
        "type": "channel",
        "noteNumber": 35,
        "velocity": 121,
        "subtype": "noteOn"
      },
      {
        "deltaTime": 0,
        "channel": 9,
        "type": "channel",
        "noteNumber": 49,
        "velocity": 121,
        "subtype": "noteOn"
      },
      {
        "deltaTime": 960,
        "channel": 9,
        "type": "channel",
        "noteNumber": 49,
        "velocity": 0,
        "subtype": "noteOff"
      },
      {
        "deltaTime": 0,
        "channel": 9,
        "type": "channel",
        "noteNumber": 35,
        "velocity": 0,
        "subtype": "noteOff"
      },
      {
        "deltaTime": 0,
        "channel": 9,
        "type": "channel",
        "noteNumber": 35,
        "velocity": 121,
        "subtype": "noteOn"
      },
      {
        "deltaTime": 0,
        "channel": 9,
        "type": "channel",
        "noteNumber": 38,
        "velocity": 121,
        "subtype": "noteOn"
      },
      {
        "deltaTime": 0,
        "channel": 9,
        "type": "channel",
        "noteNumber": 49,
        "velocity": 121,
        "subtype": "noteOn"
      },
      {
        "deltaTime": 960,
        "channel": 9,
        "type": "channel",
        "noteNumber": 49,
        "velocity": 0,
        "subtype": "noteOff"
      },
      {
        "deltaTime": 0,
        "channel": 9,
        "type": "channel",
        "noteNumber": 38,
        "velocity": 0,
        "subtype": "noteOff"
      },
      {
        "deltaTime": 0,
        "channel": 9,
        "type": "channel",
        "noteNumber": 35,
        "velocity": 0,
        "subtype": "noteOff"
      },
      {
        "deltaTime": 0,
        "channel": 9,
        "type": "channel",
        "noteNumber": 35,
        "velocity": 121,
        "subtype": "noteOn"
      },
      {
        "deltaTime": 0,
        "channel": 9,
        "type": "channel",
        "noteNumber": 49,
        "velocity": 121,
        "subtype": "noteOn"
      },
      {
        "deltaTime": 960,
        "channel": 9,
        "type": "channel",
        "noteNumber": 49,
        "velocity": 0,
        "subtype": "noteOff"
      },
      {
        "deltaTime": 0,
        "channel": 9,
        "type": "channel",
        "noteNumber": 35,
        "velocity": 0,
        "subtype": "noteOff"
      },
      {
        "deltaTime": 0,
        "channel": 9,
        "type": "channel",
        "noteNumber": 46,
        "velocity": 121,
        "subtype": "noteOn"
      },
      {
        "deltaTime": 0,
        "channel": 9,
        "type": "channel",
        "noteNumber": 38,
        "velocity": 121,
        "subtype": "noteOn"
      },
      {
        "deltaTime": 0,
        "channel": 9,
        "type": "channel",
        "noteNumber": 35,
        "velocity": 121,
        "subtype": "noteOn"
      },
      {
        "deltaTime": 960,
        "channel": 9,
        "type": "channel",
        "noteNumber": 35,
        "velocity": 0,
        "subtype": "noteOff"
      },
      {
        "deltaTime": 0,
        "channel": 9,
        "type": "channel",
        "noteNumber": 38,
        "velocity": 0,
        "subtype": "noteOff"
      },
      {
        "deltaTime": 0,
        "channel": 9,
        "type": "channel",
        "noteNumber": 46,
        "velocity": 0,
        "subtype": "noteOff"
      },
      {
        "deltaTime": 0,
        "channel": 9,
        "type": "channel",
        "noteNumber": 49,
        "velocity": 121,
        "subtype": "noteOn"
      },
      {
        "deltaTime": 0,
        "channel": 9,
        "type": "channel",
        "noteNumber": 35,
        "velocity": 121,
        "subtype": "noteOn"
      },
      {
        "deltaTime": 960,
        "channel": 9,
        "type": "channel",
        "noteNumber": 35,
        "velocity": 0,
        "subtype": "noteOff"
      },
      {
        "deltaTime": 0,
        "channel": 9,
        "type": "channel",
        "noteNumber": 35,
        "velocity": 121,
        "subtype": "noteOn"
      },
      {
        "deltaTime": 480,
        "channel": 9,
        "type": "channel",
        "noteNumber": 49,
        "velocity": 0,
        "subtype": "noteOff"
      },
      {
        "deltaTime": 0,
        "channel": 9,
        "type": "channel",
        "noteNumber": 36,
        "velocity": 121,
        "subtype": "noteOn"
      },
      {
        "deltaTime": 0,
        "channel": 9,
        "type": "channel",
        "noteNumber": 45,
        "velocity": 121,
        "subtype": "noteOn"
      },
      {
        "deltaTime": 480,
        "channel": 9,
        "type": "channel",
        "noteNumber": 35,
        "velocity": 0,
        "subtype": "noteOff"
      },
      {
        "deltaTime": 0,
        "channel": 9,
        "type": "channel",
        "noteNumber": 35,
        "velocity": 121,
        "subtype": "noteOn"
      },
      {
        "deltaTime": 960,
        "channel": 9,
        "type": "channel",
        "noteNumber": 35,
        "velocity": 0,
        "subtype": "noteOff"
      },
      {
        "deltaTime": 0,
        "channel": 9,
        "type": "channel",
        "noteNumber": 45,
        "velocity": 0,
        "subtype": "noteOff"
      },
      {
        "deltaTime": 0,
        "channel": 9,
        "type": "channel",
        "noteNumber": 36,
        "velocity": 0,
        "subtype": "noteOff"
      },
      {
        "deltaTime": 0,
        "channel": 9,
        "type": "channel",
        "noteNumber": 41,
        "velocity": 121,
        "subtype": "noteOn"
      },
      {
        "deltaTime": 0,
        "channel": 9,
        "type": "channel",
        "noteNumber": 43,
        "velocity": 121,
        "subtype": "noteOn"
      },
      {
        "deltaTime": 0,
        "channel": 9,
        "type": "channel",
        "noteNumber": 36,
        "velocity": 121,
        "subtype": "noteOn"
      },
      {
        "deltaTime": 0,
        "channel": 9,
        "type": "channel",
        "noteNumber": 35,
        "velocity": 121,
        "subtype": "noteOn"
      },
      {
        "deltaTime": 720,
        "channel": 9,
        "type": "channel",
        "noteNumber": 36,
        "velocity": 0,
        "subtype": "noteOff"
      },
      {
        "deltaTime": 0,
        "channel": 9,
        "type": "channel",
        "noteNumber": 41,
        "velocity": 0,
        "subtype": "noteOff"
      },
      {
        "deltaTime": 0,
        "channel": 9,
        "type": "channel",
        "noteNumber": 43,
        "velocity": 0,
        "subtype": "noteOff"
      },
      {
        "deltaTime": 0,
        "channel": 9,
        "type": "channel",
        "noteNumber": 43,
        "velocity": 121,
        "subtype": "noteOn"
      },
      {
        "deltaTime": 0,
        "channel": 9,
        "type": "channel",
        "noteNumber": 36,
        "velocity": 121,
        "subtype": "noteOn"
      },
      {
        "deltaTime": 240,
        "channel": 9,
        "type": "channel",
        "noteNumber": 35,
        "velocity": 0,
        "subtype": "noteOff"
      },
      {
        "deltaTime": 0,
        "channel": 9,
        "type": "channel",
        "noteNumber": 35,
        "velocity": 121,
        "subtype": "noteOn"
      },
      {
        "deltaTime": 480,
        "channel": 9,
        "type": "channel",
        "noteNumber": 36,
        "velocity": 0,
        "subtype": "noteOff"
      },
      {
        "deltaTime": 0,
        "channel": 9,
        "type": "channel",
        "noteNumber": 43,
        "velocity": 0,
        "subtype": "noteOff"
      },
      {
        "deltaTime": 0,
        "channel": 9,
        "type": "channel",
        "noteNumber": 36,
        "velocity": 121,
        "subtype": "noteOn"
      },
      {
        "deltaTime": 0,
        "channel": 9,
        "type": "channel",
        "noteNumber": 41,
        "velocity": 121,
        "subtype": "noteOn"
      },
      {
        "deltaTime": 240,
        "channel": 9,
        "type": "channel",
        "noteNumber": 41,
        "velocity": 0,
        "subtype": "noteOff"
      },
      {
        "deltaTime": 0,
        "channel": 9,
        "type": "channel",
        "noteNumber": 36,
        "velocity": 0,
        "subtype": "noteOff"
      },
      {
        "deltaTime": 240,
        "channel": 9,
        "type": "channel",
        "noteNumber": 35,
        "velocity": 0,
        "subtype": "noteOff"
      },
      {
        "deltaTime": 0,
        "channel": 9,
        "type": "channel",
        "noteNumber": 35,
        "velocity": 121,
        "subtype": "noteOn"
      },
      {
        "deltaTime": 960,
        "channel": 9,
        "type": "channel",
        "noteNumber": 35,
        "velocity": 0,
        "subtype": "noteOff"
      },
      {
        "deltaTime": 0,
        "channel": 9,
        "type": "channel",
        "noteNumber": 41,
        "velocity": 121,
        "subtype": "noteOn"
      },
      {
        "deltaTime": 0,
        "channel": 9,
        "type": "channel",
        "noteNumber": 43,
        "velocity": 121,
        "subtype": "noteOn"
      },
      {
        "deltaTime": 0,
        "channel": 9,
        "type": "channel",
        "noteNumber": 36,
        "velocity": 121,
        "subtype": "noteOn"
      },
      {
        "deltaTime": 0,
        "channel": 9,
        "type": "channel",
        "noteNumber": 35,
        "velocity": 121,
        "subtype": "noteOn"
      },
      {
        "deltaTime": 720,
        "channel": 9,
        "type": "channel",
        "noteNumber": 36,
        "velocity": 0,
        "subtype": "noteOff"
      },
      {
        "deltaTime": 0,
        "channel": 9,
        "type": "channel",
        "noteNumber": 41,
        "velocity": 0,
        "subtype": "noteOff"
      },
      {
        "deltaTime": 0,
        "channel": 9,
        "type": "channel",
        "noteNumber": 43,
        "velocity": 0,
        "subtype": "noteOff"
      },
      {
        "deltaTime": 0,
        "channel": 9,
        "type": "channel",
        "noteNumber": 41,
        "velocity": 121,
        "subtype": "noteOn"
      },
      {
        "deltaTime": 0,
        "channel": 9,
        "type": "channel",
        "noteNumber": 36,
        "velocity": 121,
        "subtype": "noteOn"
      },
      {
        "deltaTime": 240,
        "channel": 9,
        "type": "channel",
        "noteNumber": 35,
        "velocity": 0,
        "subtype": "noteOff"
      },
      {
        "deltaTime": 0,
        "channel": 9,
        "type": "channel",
        "noteNumber": 35,
        "velocity": 121,
        "subtype": "noteOn"
      },
      {
        "deltaTime": 480,
        "channel": 9,
        "type": "channel",
        "noteNumber": 36,
        "velocity": 0,
        "subtype": "noteOff"
      },
      {
        "deltaTime": 0,
        "channel": 9,
        "type": "channel",
        "noteNumber": 41,
        "velocity": 0,
        "subtype": "noteOff"
      },
      {
        "deltaTime": 0,
        "channel": 9,
        "type": "channel",
        "noteNumber": 43,
        "velocity": 121,
        "subtype": "noteOn"
      },
      {
        "deltaTime": 0,
        "channel": 9,
        "type": "channel",
        "noteNumber": 36,
        "velocity": 121,
        "subtype": "noteOn"
      },
      {
        "deltaTime": 0,
        "channel": 9,
        "type": "channel",
        "noteNumber": 41,
        "velocity": 121,
        "subtype": "noteOn"
      },
      {
        "deltaTime": 240,
        "channel": 9,
        "type": "channel",
        "noteNumber": 41,
        "velocity": 0,
        "subtype": "noteOff"
      },
      {
        "deltaTime": 0,
        "channel": 9,
        "type": "channel",
        "noteNumber": 36,
        "velocity": 0,
        "subtype": "noteOff"
      },
      {
        "deltaTime": 240,
        "channel": 9,
        "type": "channel",
        "noteNumber": 35,
        "velocity": 0,
        "subtype": "noteOff"
      },
      {
        "deltaTime": 0,
        "channel": 9,
        "type": "channel",
        "noteNumber": 35,
        "velocity": 121,
        "subtype": "noteOn"
      },
      {
        "deltaTime": 240,
        "channel": 9,
        "type": "channel",
        "noteNumber": 43,
        "velocity": 0,
        "subtype": "noteOff"
      },
      {
        "deltaTime": 720,
        "channel": 9,
        "type": "channel",
        "noteNumber": 35,
        "velocity": 0,
        "subtype": "noteOff"
      },
      {
        "deltaTime": 0,
        "channel": 9,
        "type": "channel",
        "noteNumber": 41,
        "velocity": 121,
        "subtype": "noteOn"
      },
      {
        "deltaTime": 0,
        "channel": 9,
        "type": "channel",
        "noteNumber": 43,
        "velocity": 121,
        "subtype": "noteOn"
      },
      {
        "deltaTime": 0,
        "channel": 9,
        "type": "channel",
        "noteNumber": 36,
        "velocity": 121,
        "subtype": "noteOn"
      },
      {
        "deltaTime": 0,
        "channel": 9,
        "type": "channel",
        "noteNumber": 35,
        "velocity": 121,
        "subtype": "noteOn"
      },
      {
        "deltaTime": 720,
        "channel": 9,
        "type": "channel",
        "noteNumber": 36,
        "velocity": 0,
        "subtype": "noteOff"
      },
      {
        "deltaTime": 0,
        "channel": 9,
        "type": "channel",
        "noteNumber": 41,
        "velocity": 0,
        "subtype": "noteOff"
      },
      {
        "deltaTime": 0,
        "channel": 9,
        "type": "channel",
        "noteNumber": 43,
        "velocity": 0,
        "subtype": "noteOff"
      },
      {
        "deltaTime": 0,
        "channel": 9,
        "type": "channel",
        "noteNumber": 41,
        "velocity": 121,
        "subtype": "noteOn"
      },
      {
        "deltaTime": 0,
        "channel": 9,
        "type": "channel",
        "noteNumber": 36,
        "velocity": 121,
        "subtype": "noteOn"
      },
      {
        "deltaTime": 240,
        "channel": 9,
        "type": "channel",
        "noteNumber": 35,
        "velocity": 0,
        "subtype": "noteOff"
      },
      {
        "deltaTime": 0,
        "channel": 9,
        "type": "channel",
        "noteNumber": 35,
        "velocity": 121,
        "subtype": "noteOn"
      },
      {
        "deltaTime": 480,
        "channel": 9,
        "type": "channel",
        "noteNumber": 36,
        "velocity": 0,
        "subtype": "noteOff"
      },
      {
        "deltaTime": 0,
        "channel": 9,
        "type": "channel",
        "noteNumber": 41,
        "velocity": 0,
        "subtype": "noteOff"
      },
      {
        "deltaTime": 0,
        "channel": 9,
        "type": "channel",
        "noteNumber": 36,
        "velocity": 121,
        "subtype": "noteOn"
      },
      {
        "deltaTime": 0,
        "channel": 9,
        "type": "channel",
        "noteNumber": 41,
        "velocity": 121,
        "subtype": "noteOn"
      },
      {
        "deltaTime": 240,
        "channel": 9,
        "type": "channel",
        "noteNumber": 41,
        "velocity": 0,
        "subtype": "noteOff"
      },
      {
        "deltaTime": 0,
        "channel": 9,
        "type": "channel",
        "noteNumber": 36,
        "velocity": 0,
        "subtype": "noteOff"
      },
      {
        "deltaTime": 240,
        "channel": 9,
        "type": "channel",
        "noteNumber": 35,
        "velocity": 0,
        "subtype": "noteOff"
      },
      {
        "deltaTime": 0,
        "channel": 9,
        "type": "channel",
        "noteNumber": 38,
        "velocity": 121,
        "subtype": "noteOn"
      },
      {
        "deltaTime": 240,
        "channel": 9,
        "type": "channel",
        "noteNumber": 38,
        "velocity": 0,
        "subtype": "noteOff"
      },
      {
        "deltaTime": 0,
        "channel": 9,
        "type": "channel",
        "noteNumber": 38,
        "velocity": 121,
        "subtype": "noteOn"
      },
      {
        "deltaTime": 240,
        "channel": 9,
        "type": "channel",
        "noteNumber": 38,
        "velocity": 0,
        "subtype": "noteOff"
      },
      {
        "deltaTime": 0,
        "channel": 9,
        "type": "channel",
        "noteNumber": 46,
        "velocity": 121,
        "subtype": "noteOn"
      },
      {
        "deltaTime": 480,
        "channel": 9,
        "type": "channel",
        "noteNumber": 46,
        "velocity": 0,
        "subtype": "noteOff"
      },
      {
        "deltaTime": 0,
        "channel": 9,
        "type": "channel",
        "noteNumber": 49,
        "velocity": 121,
        "subtype": "noteOn"
      },
      {
        "deltaTime": 0,
        "channel": 9,
        "type": "channel",
        "noteNumber": 35,
        "velocity": 121,
        "subtype": "noteOn"
      },
      {
        "deltaTime": 720,
        "channel": 9,
        "type": "channel",
        "noteNumber": 49,
        "velocity": 0,
        "subtype": "noteOff"
      },
      {
        "deltaTime": 0,
        "channel": 9,
        "type": "channel",
        "noteNumber": 36,
        "velocity": 121,
        "subtype": "noteOn"
      },
      {
        "deltaTime": 0,
        "channel": 9,
        "type": "channel",
        "noteNumber": 43,
        "velocity": 121,
        "subtype": "noteOn"
      },
      {
        "deltaTime": 240,
        "channel": 9,
        "type": "channel",
        "noteNumber": 35,
        "velocity": 0,
        "subtype": "noteOff"
      },
      {
        "deltaTime": 0,
        "channel": 9,
        "type": "channel",
        "noteNumber": 35,
        "velocity": 121,
        "subtype": "noteOn"
      },
      {
        "deltaTime": 480,
        "channel": 9,
        "type": "channel",
        "noteNumber": 43,
        "velocity": 0,
        "subtype": "noteOff"
      },
      {
        "deltaTime": 0,
        "channel": 9,
        "type": "channel",
        "noteNumber": 36,
        "velocity": 0,
        "subtype": "noteOff"
      },
      {
        "deltaTime": 0,
        "channel": 9,
        "type": "channel",
        "noteNumber": 36,
        "velocity": 121,
        "subtype": "noteOn"
      },
      {
        "deltaTime": 0,
        "channel": 9,
        "type": "channel",
        "noteNumber": 41,
        "velocity": 121,
        "subtype": "noteOn"
      },
      {
        "deltaTime": 480,
        "channel": 9,
        "type": "channel",
        "noteNumber": 35,
        "velocity": 0,
        "subtype": "noteOff"
      },
      {
        "deltaTime": 0,
        "channel": 9,
        "type": "channel",
        "noteNumber": 35,
        "velocity": 121,
        "subtype": "noteOn"
      },
      {
        "deltaTime": 960,
        "channel": 9,
        "type": "channel",
        "noteNumber": 35,
        "velocity": 0,
        "subtype": "noteOff"
      },
      {
        "deltaTime": 0,
        "channel": 9,
        "type": "channel",
        "noteNumber": 41,
        "velocity": 0,
        "subtype": "noteOff"
      },
      {
        "deltaTime": 0,
        "channel": 9,
        "type": "channel",
        "noteNumber": 36,
        "velocity": 0,
        "subtype": "noteOff"
      },
      {
        "deltaTime": 0,
        "channel": 9,
        "type": "channel",
        "noteNumber": 41,
        "velocity": 121,
        "subtype": "noteOn"
      },
      {
        "deltaTime": 0,
        "channel": 9,
        "type": "channel",
        "noteNumber": 43,
        "velocity": 121,
        "subtype": "noteOn"
      },
      {
        "deltaTime": 0,
        "channel": 9,
        "type": "channel",
        "noteNumber": 36,
        "velocity": 121,
        "subtype": "noteOn"
      },
      {
        "deltaTime": 0,
        "channel": 9,
        "type": "channel",
        "noteNumber": 35,
        "velocity": 121,
        "subtype": "noteOn"
      },
      {
        "deltaTime": 720,
        "channel": 9,
        "type": "channel",
        "noteNumber": 36,
        "velocity": 0,
        "subtype": "noteOff"
      },
      {
        "deltaTime": 0,
        "channel": 9,
        "type": "channel",
        "noteNumber": 41,
        "velocity": 0,
        "subtype": "noteOff"
      },
      {
        "deltaTime": 0,
        "channel": 9,
        "type": "channel",
        "noteNumber": 43,
        "velocity": 0,
        "subtype": "noteOff"
      },
      {
        "deltaTime": 0,
        "channel": 9,
        "type": "channel",
        "noteNumber": 41,
        "velocity": 121,
        "subtype": "noteOn"
      },
      {
        "deltaTime": 0,
        "channel": 9,
        "type": "channel",
        "noteNumber": 36,
        "velocity": 121,
        "subtype": "noteOn"
      },
      {
        "deltaTime": 240,
        "channel": 9,
        "type": "channel",
        "noteNumber": 35,
        "velocity": 0,
        "subtype": "noteOff"
      },
      {
        "deltaTime": 0,
        "channel": 9,
        "type": "channel",
        "noteNumber": 35,
        "velocity": 121,
        "subtype": "noteOn"
      },
      {
        "deltaTime": 480,
        "channel": 9,
        "type": "channel",
        "noteNumber": 36,
        "velocity": 0,
        "subtype": "noteOff"
      },
      {
        "deltaTime": 0,
        "channel": 9,
        "type": "channel",
        "noteNumber": 41,
        "velocity": 0,
        "subtype": "noteOff"
      },
      {
        "deltaTime": 0,
        "channel": 9,
        "type": "channel",
        "noteNumber": 36,
        "velocity": 121,
        "subtype": "noteOn"
      },
      {
        "deltaTime": 0,
        "channel": 9,
        "type": "channel",
        "noteNumber": 41,
        "velocity": 121,
        "subtype": "noteOn"
      },
      {
        "deltaTime": 240,
        "channel": 9,
        "type": "channel",
        "noteNumber": 41,
        "velocity": 0,
        "subtype": "noteOff"
      },
      {
        "deltaTime": 0,
        "channel": 9,
        "type": "channel",
        "noteNumber": 36,
        "velocity": 0,
        "subtype": "noteOff"
      },
      {
        "deltaTime": 240,
        "channel": 9,
        "type": "channel",
        "noteNumber": 35,
        "velocity": 0,
        "subtype": "noteOff"
      },
      {
        "deltaTime": 0,
        "channel": 9,
        "type": "channel",
        "noteNumber": 35,
        "velocity": 121,
        "subtype": "noteOn"
      },
      {
        "deltaTime": 960,
        "channel": 9,
        "type": "channel",
        "noteNumber": 35,
        "velocity": 0,
        "subtype": "noteOff"
      },
      {
        "deltaTime": 0,
        "channel": 9,
        "type": "channel",
        "noteNumber": 41,
        "velocity": 121,
        "subtype": "noteOn"
      },
      {
        "deltaTime": 0,
        "channel": 9,
        "type": "channel",
        "noteNumber": 43,
        "velocity": 121,
        "subtype": "noteOn"
      },
      {
        "deltaTime": 0,
        "channel": 9,
        "type": "channel",
        "noteNumber": 36,
        "velocity": 121,
        "subtype": "noteOn"
      },
      {
        "deltaTime": 0,
        "channel": 9,
        "type": "channel",
        "noteNumber": 35,
        "velocity": 121,
        "subtype": "noteOn"
      },
      {
        "deltaTime": 720,
        "channel": 9,
        "type": "channel",
        "noteNumber": 36,
        "velocity": 0,
        "subtype": "noteOff"
      },
      {
        "deltaTime": 0,
        "channel": 9,
        "type": "channel",
        "noteNumber": 41,
        "velocity": 0,
        "subtype": "noteOff"
      },
      {
        "deltaTime": 0,
        "channel": 9,
        "type": "channel",
        "noteNumber": 43,
        "velocity": 0,
        "subtype": "noteOff"
      },
      {
        "deltaTime": 0,
        "channel": 9,
        "type": "channel",
        "noteNumber": 41,
        "velocity": 121,
        "subtype": "noteOn"
      },
      {
        "deltaTime": 0,
        "channel": 9,
        "type": "channel",
        "noteNumber": 36,
        "velocity": 121,
        "subtype": "noteOn"
      },
      {
        "deltaTime": 240,
        "channel": 9,
        "type": "channel",
        "noteNumber": 35,
        "velocity": 0,
        "subtype": "noteOff"
      },
      {
        "deltaTime": 0,
        "channel": 9,
        "type": "channel",
        "noteNumber": 35,
        "velocity": 121,
        "subtype": "noteOn"
      },
      {
        "deltaTime": 480,
        "channel": 9,
        "type": "channel",
        "noteNumber": 36,
        "velocity": 0,
        "subtype": "noteOff"
      },
      {
        "deltaTime": 0,
        "channel": 9,
        "type": "channel",
        "noteNumber": 41,
        "velocity": 0,
        "subtype": "noteOff"
      },
      {
        "deltaTime": 0,
        "channel": 9,
        "type": "channel",
        "noteNumber": 36,
        "velocity": 121,
        "subtype": "noteOn"
      },
      {
        "deltaTime": 0,
        "channel": 9,
        "type": "channel",
        "noteNumber": 41,
        "velocity": 121,
        "subtype": "noteOn"
      },
      {
        "deltaTime": 240,
        "channel": 9,
        "type": "channel",
        "noteNumber": 41,
        "velocity": 0,
        "subtype": "noteOff"
      },
      {
        "deltaTime": 0,
        "channel": 9,
        "type": "channel",
        "noteNumber": 36,
        "velocity": 0,
        "subtype": "noteOff"
      },
      {
        "deltaTime": 240,
        "channel": 9,
        "type": "channel",
        "noteNumber": 35,
        "velocity": 0,
        "subtype": "noteOff"
      },
      {
        "deltaTime": 0,
        "channel": 9,
        "type": "channel",
        "noteNumber": 35,
        "velocity": 121,
        "subtype": "noteOn"
      },
      {
        "deltaTime": 960,
        "channel": 9,
        "type": "channel",
        "noteNumber": 35,
        "velocity": 0,
        "subtype": "noteOff"
      },
      {
        "deltaTime": 0,
        "channel": 9,
        "type": "channel",
        "noteNumber": 41,
        "velocity": 121,
        "subtype": "noteOn"
      },
      {
        "deltaTime": 0,
        "channel": 9,
        "type": "channel",
        "noteNumber": 43,
        "velocity": 121,
        "subtype": "noteOn"
      },
      {
        "deltaTime": 0,
        "channel": 9,
        "type": "channel",
        "noteNumber": 36,
        "velocity": 121,
        "subtype": "noteOn"
      },
      {
        "deltaTime": 0,
        "channel": 9,
        "type": "channel",
        "noteNumber": 35,
        "velocity": 121,
        "subtype": "noteOn"
      },
      {
        "deltaTime": 720,
        "channel": 9,
        "type": "channel",
        "noteNumber": 36,
        "velocity": 0,
        "subtype": "noteOff"
      },
      {
        "deltaTime": 0,
        "channel": 9,
        "type": "channel",
        "noteNumber": 41,
        "velocity": 0,
        "subtype": "noteOff"
      },
      {
        "deltaTime": 0,
        "channel": 9,
        "type": "channel",
        "noteNumber": 43,
        "velocity": 0,
        "subtype": "noteOff"
      },
      {
        "deltaTime": 0,
        "channel": 9,
        "type": "channel",
        "noteNumber": 41,
        "velocity": 121,
        "subtype": "noteOn"
      },
      {
        "deltaTime": 0,
        "channel": 9,
        "type": "channel",
        "noteNumber": 36,
        "velocity": 121,
        "subtype": "noteOn"
      },
      {
        "deltaTime": 240,
        "channel": 9,
        "type": "channel",
        "noteNumber": 35,
        "velocity": 0,
        "subtype": "noteOff"
      },
      {
        "deltaTime": 0,
        "channel": 9,
        "type": "channel",
        "noteNumber": 35,
        "velocity": 121,
        "subtype": "noteOn"
      },
      {
        "deltaTime": 480,
        "channel": 9,
        "type": "channel",
        "noteNumber": 36,
        "velocity": 0,
        "subtype": "noteOff"
      },
      {
        "deltaTime": 0,
        "channel": 9,
        "type": "channel",
        "noteNumber": 41,
        "velocity": 0,
        "subtype": "noteOff"
      },
      {
        "deltaTime": 0,
        "channel": 9,
        "type": "channel",
        "noteNumber": 36,
        "velocity": 121,
        "subtype": "noteOn"
      },
      {
        "deltaTime": 0,
        "channel": 9,
        "type": "channel",
        "noteNumber": 45,
        "velocity": 121,
        "subtype": "noteOn"
      },
      {
        "deltaTime": 240,
        "channel": 9,
        "type": "channel",
        "noteNumber": 45,
        "velocity": 0,
        "subtype": "noteOff"
      },
      {
        "deltaTime": 0,
        "channel": 9,
        "type": "channel",
        "noteNumber": 36,
        "velocity": 0,
        "subtype": "noteOff"
      },
      {
        "deltaTime": 0,
        "channel": 9,
        "type": "channel",
        "noteNumber": 36,
        "velocity": 121,
        "subtype": "noteOn"
      },
      {
        "deltaTime": 0,
        "channel": 9,
        "type": "channel",
        "noteNumber": 45,
        "velocity": 121,
        "subtype": "noteOn"
      },
      {
        "deltaTime": 240,
        "channel": 9,
        "type": "channel",
        "noteNumber": 45,
        "velocity": 0,
        "subtype": "noteOff"
      },
      {
        "deltaTime": 0,
        "channel": 9,
        "type": "channel",
        "noteNumber": 36,
        "velocity": 0,
        "subtype": "noteOff"
      },
      {
        "deltaTime": 0,
        "channel": 9,
        "type": "channel",
        "noteNumber": 35,
        "velocity": 0,
        "subtype": "noteOff"
      },
      {
        "deltaTime": 0,
        "channel": 9,
        "type": "channel",
        "noteNumber": 36,
        "velocity": 121,
        "subtype": "noteOn"
      },
      {
        "deltaTime": 0,
        "channel": 9,
        "type": "channel",
        "noteNumber": 43,
        "velocity": 121,
        "subtype": "noteOn"
      },
      {
        "deltaTime": 0,
        "channel": 9,
        "type": "channel",
        "noteNumber": 35,
        "velocity": 121,
        "subtype": "noteOn"
      },
      {
        "deltaTime": 240,
        "channel": 9,
        "type": "channel",
        "noteNumber": 43,
        "velocity": 0,
        "subtype": "noteOff"
      },
      {
        "deltaTime": 0,
        "channel": 9,
        "type": "channel",
        "noteNumber": 36,
        "velocity": 0,
        "subtype": "noteOff"
      },
      {
        "deltaTime": 0,
        "channel": 9,
        "type": "channel",
        "noteNumber": 36,
        "velocity": 121,
        "subtype": "noteOn"
      },
      {
        "deltaTime": 0,
        "channel": 9,
        "type": "channel",
        "noteNumber": 43,
        "velocity": 121,
        "subtype": "noteOn"
      },
      {
        "deltaTime": 240,
        "channel": 9,
        "type": "channel",
        "noteNumber": 43,
        "velocity": 0,
        "subtype": "noteOff"
      },
      {
        "deltaTime": 0,
        "channel": 9,
        "type": "channel",
        "noteNumber": 36,
        "velocity": 0,
        "subtype": "noteOff"
      },
      {
        "deltaTime": 0,
        "channel": 9,
        "type": "channel",
        "noteNumber": 36,
        "velocity": 121,
        "subtype": "noteOn"
      },
      {
        "deltaTime": 0,
        "channel": 9,
        "type": "channel",
        "noteNumber": 41,
        "velocity": 121,
        "subtype": "noteOn"
      },
      {
        "deltaTime": 240,
        "channel": 9,
        "type": "channel",
        "noteNumber": 41,
        "velocity": 0,
        "subtype": "noteOff"
      },
      {
        "deltaTime": 0,
        "channel": 9,
        "type": "channel",
        "noteNumber": 36,
        "velocity": 0,
        "subtype": "noteOff"
      },
      {
        "deltaTime": 0,
        "channel": 9,
        "type": "channel",
        "noteNumber": 35,
        "velocity": 121,
        "subtype": "noteOn"
      },
      {
        "deltaTime": 240,
        "channel": 9,
        "type": "channel",
        "noteNumber": 35,
        "velocity": 0,
        "subtype": "noteOff"
      },
      {
        "deltaTime": 0,
        "channel": 9,
        "type": "channel",
        "noteNumber": 35,
        "velocity": 0,
        "subtype": "noteOff"
      },
      {
        "deltaTime": 0,
        "channel": 9,
        "type": "channel",
        "noteNumber": 49,
        "velocity": 121,
        "subtype": "noteOn"
      },
      {
        "deltaTime": 0,
        "channel": 9,
        "type": "channel",
        "noteNumber": 35,
        "velocity": 121,
        "subtype": "noteOn"
      },
      {
        "deltaTime": 720,
        "channel": 9,
        "type": "channel",
        "noteNumber": 49,
        "velocity": 0,
        "subtype": "noteOff"
      },
      {
        "deltaTime": 0,
        "channel": 9,
        "type": "channel",
        "noteNumber": 41,
        "velocity": 121,
        "subtype": "noteOn"
      },
      {
        "deltaTime": 0,
        "channel": 9,
        "type": "channel",
        "noteNumber": 36,
        "velocity": 121,
        "subtype": "noteOn"
      },
      {
        "deltaTime": 240,
        "channel": 9,
        "type": "channel",
        "noteNumber": 35,
        "velocity": 0,
        "subtype": "noteOff"
      },
      {
        "deltaTime": 0,
        "channel": 9,
        "type": "channel",
        "noteNumber": 35,
        "velocity": 121,
        "subtype": "noteOn"
      },
      {
        "deltaTime": 480,
        "channel": 9,
        "type": "channel",
        "noteNumber": 36,
        "velocity": 0,
        "subtype": "noteOff"
      },
      {
        "deltaTime": 0,
        "channel": 9,
        "type": "channel",
        "noteNumber": 41,
        "velocity": 0,
        "subtype": "noteOff"
      },
      {
        "deltaTime": 0,
        "channel": 9,
        "type": "channel",
        "noteNumber": 36,
        "velocity": 121,
        "subtype": "noteOn"
      },
      {
        "deltaTime": 0,
        "channel": 9,
        "type": "channel",
        "noteNumber": 41,
        "velocity": 121,
        "subtype": "noteOn"
      },
      {
        "deltaTime": 240,
        "channel": 9,
        "type": "channel",
        "noteNumber": 41,
        "velocity": 0,
        "subtype": "noteOff"
      },
      {
        "deltaTime": 0,
        "channel": 9,
        "type": "channel",
        "noteNumber": 36,
        "velocity": 0,
        "subtype": "noteOff"
      },
      {
        "deltaTime": 240,
        "channel": 9,
        "type": "channel",
        "noteNumber": 35,
        "velocity": 0,
        "subtype": "noteOff"
      },
      {
        "deltaTime": 0,
        "channel": 9,
        "type": "channel",
        "noteNumber": 35,
        "velocity": 121,
        "subtype": "noteOn"
      },
      {
        "deltaTime": 960,
        "channel": 9,
        "type": "channel",
        "noteNumber": 35,
        "velocity": 0,
        "subtype": "noteOff"
      },
      {
        "deltaTime": 0,
        "channel": 9,
        "type": "channel",
        "noteNumber": 41,
        "velocity": 121,
        "subtype": "noteOn"
      },
      {
        "deltaTime": 0,
        "channel": 9,
        "type": "channel",
        "noteNumber": 43,
        "velocity": 121,
        "subtype": "noteOn"
      },
      {
        "deltaTime": 0,
        "channel": 9,
        "type": "channel",
        "noteNumber": 36,
        "velocity": 121,
        "subtype": "noteOn"
      },
      {
        "deltaTime": 0,
        "channel": 9,
        "type": "channel",
        "noteNumber": 35,
        "velocity": 121,
        "subtype": "noteOn"
      },
      {
        "deltaTime": 720,
        "channel": 9,
        "type": "channel",
        "noteNumber": 36,
        "velocity": 0,
        "subtype": "noteOff"
      },
      {
        "deltaTime": 0,
        "channel": 9,
        "type": "channel",
        "noteNumber": 41,
        "velocity": 0,
        "subtype": "noteOff"
      },
      {
        "deltaTime": 0,
        "channel": 9,
        "type": "channel",
        "noteNumber": 43,
        "velocity": 0,
        "subtype": "noteOff"
      },
      {
        "deltaTime": 0,
        "channel": 9,
        "type": "channel",
        "noteNumber": 41,
        "velocity": 121,
        "subtype": "noteOn"
      },
      {
        "deltaTime": 0,
        "channel": 9,
        "type": "channel",
        "noteNumber": 36,
        "velocity": 121,
        "subtype": "noteOn"
      },
      {
        "deltaTime": 240,
        "channel": 9,
        "type": "channel",
        "noteNumber": 35,
        "velocity": 0,
        "subtype": "noteOff"
      },
      {
        "deltaTime": 0,
        "channel": 9,
        "type": "channel",
        "noteNumber": 35,
        "velocity": 121,
        "subtype": "noteOn"
      },
      {
        "deltaTime": 480,
        "channel": 9,
        "type": "channel",
        "noteNumber": 36,
        "velocity": 0,
        "subtype": "noteOff"
      },
      {
        "deltaTime": 0,
        "channel": 9,
        "type": "channel",
        "noteNumber": 41,
        "velocity": 0,
        "subtype": "noteOff"
      },
      {
        "deltaTime": 0,
        "channel": 9,
        "type": "channel",
        "noteNumber": 36,
        "velocity": 121,
        "subtype": "noteOn"
      },
      {
        "deltaTime": 0,
        "channel": 9,
        "type": "channel",
        "noteNumber": 41,
        "velocity": 121,
        "subtype": "noteOn"
      },
      {
        "deltaTime": 240,
        "channel": 9,
        "type": "channel",
        "noteNumber": 41,
        "velocity": 0,
        "subtype": "noteOff"
      },
      {
        "deltaTime": 0,
        "channel": 9,
        "type": "channel",
        "noteNumber": 36,
        "velocity": 0,
        "subtype": "noteOff"
      },
      {
        "deltaTime": 240,
        "channel": 9,
        "type": "channel",
        "noteNumber": 35,
        "velocity": 0,
        "subtype": "noteOff"
      },
      {
        "deltaTime": 0,
        "channel": 9,
        "type": "channel",
        "noteNumber": 35,
        "velocity": 121,
        "subtype": "noteOn"
      },
      {
        "deltaTime": 960,
        "channel": 9,
        "type": "channel",
        "noteNumber": 35,
        "velocity": 0,
        "subtype": "noteOff"
      },
      {
        "deltaTime": 0,
        "channel": 9,
        "type": "channel",
        "noteNumber": 41,
        "velocity": 121,
        "subtype": "noteOn"
      },
      {
        "deltaTime": 0,
        "channel": 9,
        "type": "channel",
        "noteNumber": 43,
        "velocity": 121,
        "subtype": "noteOn"
      },
      {
        "deltaTime": 0,
        "channel": 9,
        "type": "channel",
        "noteNumber": 36,
        "velocity": 121,
        "subtype": "noteOn"
      },
      {
        "deltaTime": 0,
        "channel": 9,
        "type": "channel",
        "noteNumber": 35,
        "velocity": 121,
        "subtype": "noteOn"
      },
      {
        "deltaTime": 720,
        "channel": 9,
        "type": "channel",
        "noteNumber": 36,
        "velocity": 0,
        "subtype": "noteOff"
      },
      {
        "deltaTime": 0,
        "channel": 9,
        "type": "channel",
        "noteNumber": 41,
        "velocity": 0,
        "subtype": "noteOff"
      },
      {
        "deltaTime": 0,
        "channel": 9,
        "type": "channel",
        "noteNumber": 43,
        "velocity": 0,
        "subtype": "noteOff"
      },
      {
        "deltaTime": 0,
        "channel": 9,
        "type": "channel",
        "noteNumber": 41,
        "velocity": 121,
        "subtype": "noteOn"
      },
      {
        "deltaTime": 0,
        "channel": 9,
        "type": "channel",
        "noteNumber": 36,
        "velocity": 121,
        "subtype": "noteOn"
      },
      {
        "deltaTime": 240,
        "channel": 9,
        "type": "channel",
        "noteNumber": 35,
        "velocity": 0,
        "subtype": "noteOff"
      },
      {
        "deltaTime": 0,
        "channel": 9,
        "type": "channel",
        "noteNumber": 35,
        "velocity": 121,
        "subtype": "noteOn"
      },
      {
        "deltaTime": 480,
        "channel": 9,
        "type": "channel",
        "noteNumber": 36,
        "velocity": 0,
        "subtype": "noteOff"
      },
      {
        "deltaTime": 0,
        "channel": 9,
        "type": "channel",
        "noteNumber": 41,
        "velocity": 0,
        "subtype": "noteOff"
      },
      {
        "deltaTime": 0,
        "channel": 9,
        "type": "channel",
        "noteNumber": 36,
        "velocity": 121,
        "subtype": "noteOn"
      },
      {
        "deltaTime": 0,
        "channel": 9,
        "type": "channel",
        "noteNumber": 41,
        "velocity": 121,
        "subtype": "noteOn"
      },
      {
        "deltaTime": 240,
        "channel": 9,
        "type": "channel",
        "noteNumber": 41,
        "velocity": 0,
        "subtype": "noteOff"
      },
      {
        "deltaTime": 0,
        "channel": 9,
        "type": "channel",
        "noteNumber": 36,
        "velocity": 0,
        "subtype": "noteOff"
      },
      {
        "deltaTime": 240,
        "channel": 9,
        "type": "channel",
        "noteNumber": 35,
        "velocity": 0,
        "subtype": "noteOff"
      },
      {
        "deltaTime": 0,
        "channel": 9,
        "type": "channel",
        "noteNumber": 35,
        "velocity": 121,
        "subtype": "noteOn"
      },
      {
        "deltaTime": 960,
        "channel": 9,
        "type": "channel",
        "noteNumber": 35,
        "velocity": 0,
        "subtype": "noteOff"
      },
      {
        "deltaTime": 0,
        "channel": 9,
        "type": "channel",
        "noteNumber": 41,
        "velocity": 121,
        "subtype": "noteOn"
      },
      {
        "deltaTime": 0,
        "channel": 9,
        "type": "channel",
        "noteNumber": 43,
        "velocity": 121,
        "subtype": "noteOn"
      },
      {
        "deltaTime": 0,
        "channel": 9,
        "type": "channel",
        "noteNumber": 36,
        "velocity": 121,
        "subtype": "noteOn"
      },
      {
        "deltaTime": 0,
        "channel": 9,
        "type": "channel",
        "noteNumber": 35,
        "velocity": 121,
        "subtype": "noteOn"
      },
      {
        "deltaTime": 720,
        "channel": 9,
        "type": "channel",
        "noteNumber": 36,
        "velocity": 0,
        "subtype": "noteOff"
      },
      {
        "deltaTime": 0,
        "channel": 9,
        "type": "channel",
        "noteNumber": 41,
        "velocity": 0,
        "subtype": "noteOff"
      },
      {
        "deltaTime": 0,
        "channel": 9,
        "type": "channel",
        "noteNumber": 43,
        "velocity": 0,
        "subtype": "noteOff"
      },
      {
        "deltaTime": 0,
        "channel": 9,
        "type": "channel",
        "noteNumber": 41,
        "velocity": 121,
        "subtype": "noteOn"
      },
      {
        "deltaTime": 0,
        "channel": 9,
        "type": "channel",
        "noteNumber": 36,
        "velocity": 121,
        "subtype": "noteOn"
      },
      {
        "deltaTime": 240,
        "channel": 9,
        "type": "channel",
        "noteNumber": 35,
        "velocity": 0,
        "subtype": "noteOff"
      },
      {
        "deltaTime": 0,
        "channel": 9,
        "type": "channel",
        "noteNumber": 35,
        "velocity": 121,
        "subtype": "noteOn"
      },
      {
        "deltaTime": 480,
        "channel": 9,
        "type": "channel",
        "noteNumber": 36,
        "velocity": 0,
        "subtype": "noteOff"
      },
      {
        "deltaTime": 0,
        "channel": 9,
        "type": "channel",
        "noteNumber": 41,
        "velocity": 0,
        "subtype": "noteOff"
      },
      {
        "deltaTime": 0,
        "channel": 9,
        "type": "channel",
        "noteNumber": 36,
        "velocity": 121,
        "subtype": "noteOn"
      },
      {
        "deltaTime": 0,
        "channel": 9,
        "type": "channel",
        "noteNumber": 41,
        "velocity": 121,
        "subtype": "noteOn"
      },
      {
        "deltaTime": 240,
        "channel": 9,
        "type": "channel",
        "noteNumber": 41,
        "velocity": 0,
        "subtype": "noteOff"
      },
      {
        "deltaTime": 0,
        "channel": 9,
        "type": "channel",
        "noteNumber": 36,
        "velocity": 0,
        "subtype": "noteOff"
      },
      {
        "deltaTime": 0,
        "channel": 9,
        "type": "channel",
        "noteNumber": 36,
        "velocity": 121,
        "subtype": "noteOn"
      },
      {
        "deltaTime": 0,
        "channel": 9,
        "type": "channel",
        "noteNumber": 41,
        "velocity": 121,
        "subtype": "noteOn"
      },
      {
        "deltaTime": 240,
        "channel": 9,
        "type": "channel",
        "noteNumber": 41,
        "velocity": 0,
        "subtype": "noteOff"
      },
      {
        "deltaTime": 0,
        "channel": 9,
        "type": "channel",
        "noteNumber": 36,
        "velocity": 0,
        "subtype": "noteOff"
      },
      {
        "deltaTime": 0,
        "channel": 9,
        "type": "channel",
        "noteNumber": 35,
        "velocity": 0,
        "subtype": "noteOff"
      },
      {
        "deltaTime": 0,
        "channel": 9,
        "type": "channel",
        "noteNumber": 38,
        "velocity": 121,
        "subtype": "noteOn"
      },
      {
        "deltaTime": 0,
        "channel": 9,
        "type": "channel",
        "noteNumber": 35,
        "velocity": 121,
        "subtype": "noteOn"
      },
      {
        "deltaTime": 240,
        "channel": 9,
        "type": "channel",
        "noteNumber": 38,
        "velocity": 0,
        "subtype": "noteOff"
      },
      {
        "deltaTime": 0,
        "channel": 9,
        "type": "channel",
        "noteNumber": 38,
        "velocity": 121,
        "subtype": "noteOn"
      },
      {
        "deltaTime": 240,
        "channel": 9,
        "type": "channel",
        "noteNumber": 38,
        "velocity": 0,
        "subtype": "noteOff"
      },
      {
        "deltaTime": 0,
        "channel": 9,
        "type": "channel",
        "noteNumber": 36,
        "velocity": 121,
        "subtype": "noteOn"
      },
      {
        "deltaTime": 0,
        "channel": 9,
        "type": "channel",
        "noteNumber": 45,
        "velocity": 121,
        "subtype": "noteOn"
      },
      {
        "deltaTime": 240,
        "channel": 9,
        "type": "channel",
        "noteNumber": 45,
        "velocity": 0,
        "subtype": "noteOff"
      },
      {
        "deltaTime": 0,
        "channel": 9,
        "type": "channel",
        "noteNumber": 36,
        "velocity": 0,
        "subtype": "noteOff"
      },
      {
        "deltaTime": 0,
        "channel": 9,
        "type": "channel",
        "noteNumber": 36,
        "velocity": 121,
        "subtype": "noteOn"
      },
      {
        "deltaTime": 0,
        "channel": 9,
        "type": "channel",
        "noteNumber": 45,
        "velocity": 121,
        "subtype": "noteOn"
      },
      {
        "deltaTime": 240,
        "channel": 9,
        "type": "channel",
        "noteNumber": 45,
        "velocity": 0,
        "subtype": "noteOff"
      },
      {
        "deltaTime": 0,
        "channel": 9,
        "type": "channel",
        "noteNumber": 36,
        "velocity": 0,
        "subtype": "noteOff"
      },
      {
        "deltaTime": 0,
        "channel": 9,
        "type": "channel",
        "noteNumber": 35,
        "velocity": 0,
        "subtype": "noteOff"
      },
      {
        "deltaTime": 0,
        "channel": 9,
        "type": "channel",
        "noteNumber": 49,
        "velocity": 121,
        "subtype": "noteOn"
      },
      {
        "deltaTime": 0,
        "channel": 9,
        "type": "channel",
        "noteNumber": 41,
        "velocity": 121,
        "subtype": "noteOn"
      },
      {
        "deltaTime": 0,
        "channel": 9,
        "type": "channel",
        "noteNumber": 36,
        "velocity": 121,
        "subtype": "noteOn"
      },
      {
        "deltaTime": 0,
        "channel": 9,
        "type": "channel",
        "noteNumber": 35,
        "velocity": 121,
        "subtype": "noteOn"
      },
      {
        "deltaTime": 720,
        "channel": 9,
        "type": "channel",
        "noteNumber": 36,
        "velocity": 0,
        "subtype": "noteOff"
      },
      {
        "deltaTime": 0,
        "channel": 9,
        "type": "channel",
        "noteNumber": 49,
        "velocity": 0,
        "subtype": "noteOff"
      },
      {
        "deltaTime": 0,
        "channel": 9,
        "type": "channel",
        "noteNumber": 41,
        "velocity": 0,
        "subtype": "noteOff"
      },
      {
        "deltaTime": 0,
        "channel": 9,
        "type": "channel",
        "noteNumber": 41,
        "velocity": 121,
        "subtype": "noteOn"
      },
      {
        "deltaTime": 0,
        "channel": 9,
        "type": "channel",
        "noteNumber": 36,
        "velocity": 121,
        "subtype": "noteOn"
      },
      {
        "deltaTime": 240,
        "channel": 9,
        "type": "channel",
        "noteNumber": 41,
        "velocity": 0,
        "subtype": "noteOff"
      },
      {
        "deltaTime": 0,
        "channel": 9,
        "type": "channel",
        "noteNumber": 35,
        "velocity": 0,
        "subtype": "noteOff"
      },
      {
        "deltaTime": 0,
        "channel": 9,
        "type": "channel",
        "noteNumber": 36,
        "velocity": 121,
        "subtype": "noteOn"
      },
      {
        "deltaTime": 0,
        "channel": 9,
        "type": "channel",
        "noteNumber": 41,
        "velocity": 121,
        "subtype": "noteOn"
      },
      {
        "deltaTime": 0,
        "channel": 9,
        "type": "channel",
        "noteNumber": 35,
        "velocity": 121,
        "subtype": "noteOn"
      },
      {
        "deltaTime": 240,
        "channel": 9,
        "type": "channel",
        "noteNumber": 41,
        "velocity": 0,
        "subtype": "noteOff"
      },
      {
        "deltaTime": 0,
        "channel": 9,
        "type": "channel",
        "noteNumber": 36,
        "velocity": 0,
        "subtype": "noteOff"
      },
      {
        "deltaTime": 0,
        "channel": 9,
        "type": "channel",
        "noteNumber": 36,
        "velocity": 121,
        "subtype": "noteOn"
      },
      {
        "deltaTime": 0,
        "channel": 9,
        "type": "channel",
        "noteNumber": 41,
        "velocity": 121,
        "subtype": "noteOn"
      },
      {
        "deltaTime": 240,
        "channel": 9,
        "type": "channel",
        "noteNumber": 41,
        "velocity": 0,
        "subtype": "noteOff"
      },
      {
        "deltaTime": 0,
        "channel": 9,
        "type": "channel",
        "noteNumber": 36,
        "velocity": 0,
        "subtype": "noteOff"
      },
      {
        "deltaTime": 0,
        "channel": 9,
        "type": "channel",
        "noteNumber": 36,
        "velocity": 0,
        "subtype": "noteOff"
      },
      {
        "deltaTime": 0,
        "channel": 9,
        "type": "channel",
        "noteNumber": 36,
        "velocity": 121,
        "subtype": "noteOn"
      },
      {
        "deltaTime": 0,
        "channel": 9,
        "type": "channel",
        "noteNumber": 41,
        "velocity": 121,
        "subtype": "noteOn"
      },
      {
        "deltaTime": 240,
        "channel": 9,
        "type": "channel",
        "noteNumber": 41,
        "velocity": 0,
        "subtype": "noteOff"
      },
      {
        "deltaTime": 0,
        "channel": 9,
        "type": "channel",
        "noteNumber": 36,
        "velocity": 0,
        "subtype": "noteOff"
      },
      {
        "deltaTime": 240,
        "channel": 9,
        "type": "channel",
        "noteNumber": 35,
        "velocity": 0,
        "subtype": "noteOff"
      },
      {
        "deltaTime": 0,
        "channel": 9,
        "type": "channel",
        "noteNumber": 35,
        "velocity": 121,
        "subtype": "noteOn"
      },
      {
        "deltaTime": 240,
        "channel": 9,
        "type": "channel",
        "noteNumber": 36,
        "velocity": 121,
        "subtype": "noteOn"
      },
      {
        "deltaTime": 0,
        "channel": 9,
        "type": "channel",
        "noteNumber": 43,
        "velocity": 121,
        "subtype": "noteOn"
      },
      {
        "deltaTime": 240,
        "channel": 9,
        "type": "channel",
        "noteNumber": 43,
        "velocity": 0,
        "subtype": "noteOff"
      },
      {
        "deltaTime": 0,
        "channel": 9,
        "type": "channel",
        "noteNumber": 36,
        "velocity": 0,
        "subtype": "noteOff"
      },
      {
        "deltaTime": 0,
        "channel": 9,
        "type": "channel",
        "noteNumber": 36,
        "velocity": 121,
        "subtype": "noteOn"
      },
      {
        "deltaTime": 0,
        "channel": 9,
        "type": "channel",
        "noteNumber": 41,
        "velocity": 121,
        "subtype": "noteOn"
      },
      {
        "deltaTime": 240,
        "channel": 9,
        "type": "channel",
        "noteNumber": 41,
        "velocity": 0,
        "subtype": "noteOff"
      },
      {
        "deltaTime": 0,
        "channel": 9,
        "type": "channel",
        "noteNumber": 36,
        "velocity": 0,
        "subtype": "noteOff"
      },
      {
        "deltaTime": 240,
        "channel": 9,
        "type": "channel",
        "noteNumber": 35,
        "velocity": 0,
        "subtype": "noteOff"
      },
      {
        "deltaTime": 0,
        "channel": 9,
        "type": "channel",
        "noteNumber": 41,
        "velocity": 121,
        "subtype": "noteOn"
      },
      {
        "deltaTime": 0,
        "channel": 9,
        "type": "channel",
        "noteNumber": 43,
        "velocity": 121,
        "subtype": "noteOn"
      },
      {
        "deltaTime": 0,
        "channel": 9,
        "type": "channel",
        "noteNumber": 36,
        "velocity": 121,
        "subtype": "noteOn"
      },
      {
        "deltaTime": 0,
        "channel": 9,
        "type": "channel",
        "noteNumber": 35,
        "velocity": 121,
        "subtype": "noteOn"
      },
      {
        "deltaTime": 720,
        "channel": 9,
        "type": "channel",
        "noteNumber": 36,
        "velocity": 0,
        "subtype": "noteOff"
      },
      {
        "deltaTime": 0,
        "channel": 9,
        "type": "channel",
        "noteNumber": 41,
        "velocity": 0,
        "subtype": "noteOff"
      },
      {
        "deltaTime": 0,
        "channel": 9,
        "type": "channel",
        "noteNumber": 43,
        "velocity": 0,
        "subtype": "noteOff"
      },
      {
        "deltaTime": 0,
        "channel": 9,
        "type": "channel",
        "noteNumber": 41,
        "velocity": 121,
        "subtype": "noteOn"
      },
      {
        "deltaTime": 0,
        "channel": 9,
        "type": "channel",
        "noteNumber": 36,
        "velocity": 121,
        "subtype": "noteOn"
      },
      {
        "deltaTime": 240,
        "channel": 9,
        "type": "channel",
        "noteNumber": 35,
        "velocity": 0,
        "subtype": "noteOff"
      },
      {
        "deltaTime": 0,
        "channel": 9,
        "type": "channel",
        "noteNumber": 41,
        "velocity": 121,
        "subtype": "noteOn"
      },
      {
        "deltaTime": 0,
        "channel": 9,
        "type": "channel",
        "noteNumber": 35,
        "velocity": 121,
        "subtype": "noteOn"
      },
      {
        "deltaTime": 240,
        "channel": 9,
        "type": "channel",
        "noteNumber": 41,
        "velocity": 0,
        "subtype": "noteOff"
      },
      {
        "deltaTime": 240,
        "channel": 9,
        "type": "channel",
        "noteNumber": 41,
        "velocity": 0,
        "subtype": "noteOff"
      },
      {
        "deltaTime": 0,
        "channel": 9,
        "type": "channel",
        "noteNumber": 36,
        "velocity": 0,
        "subtype": "noteOff"
      },
      {
        "deltaTime": 0,
        "channel": 9,
        "type": "channel",
        "noteNumber": 36,
        "velocity": 121,
        "subtype": "noteOn"
      },
      {
        "deltaTime": 0,
        "channel": 9,
        "type": "channel",
        "noteNumber": 41,
        "velocity": 121,
        "subtype": "noteOn"
      },
      {
        "deltaTime": 240,
        "channel": 9,
        "type": "channel",
        "noteNumber": 41,
        "velocity": 0,
        "subtype": "noteOff"
      },
      {
        "deltaTime": 0,
        "channel": 9,
        "type": "channel",
        "noteNumber": 36,
        "velocity": 0,
        "subtype": "noteOff"
      },
      {
        "deltaTime": 240,
        "channel": 9,
        "type": "channel",
        "noteNumber": 35,
        "velocity": 0,
        "subtype": "noteOff"
      },
      {
        "deltaTime": 0,
        "channel": 9,
        "type": "channel",
        "noteNumber": 35,
        "velocity": 121,
        "subtype": "noteOn"
      },
      {
        "deltaTime": 960,
        "channel": 9,
        "type": "channel",
        "noteNumber": 35,
        "velocity": 0,
        "subtype": "noteOff"
      },
      {
        "deltaTime": 0,
        "channel": 9,
        "type": "channel",
        "noteNumber": 41,
        "velocity": 121,
        "subtype": "noteOn"
      },
      {
        "deltaTime": 0,
        "channel": 9,
        "type": "channel",
        "noteNumber": 43,
        "velocity": 121,
        "subtype": "noteOn"
      },
      {
        "deltaTime": 0,
        "channel": 9,
        "type": "channel",
        "noteNumber": 36,
        "velocity": 121,
        "subtype": "noteOn"
      },
      {
        "deltaTime": 0,
        "channel": 9,
        "type": "channel",
        "noteNumber": 35,
        "velocity": 121,
        "subtype": "noteOn"
      },
      {
        "deltaTime": 720,
        "channel": 9,
        "type": "channel",
        "noteNumber": 36,
        "velocity": 0,
        "subtype": "noteOff"
      },
      {
        "deltaTime": 0,
        "channel": 9,
        "type": "channel",
        "noteNumber": 41,
        "velocity": 0,
        "subtype": "noteOff"
      },
      {
        "deltaTime": 0,
        "channel": 9,
        "type": "channel",
        "noteNumber": 43,
        "velocity": 0,
        "subtype": "noteOff"
      },
      {
        "deltaTime": 0,
        "channel": 9,
        "type": "channel",
        "noteNumber": 41,
        "velocity": 121,
        "subtype": "noteOn"
      },
      {
        "deltaTime": 0,
        "channel": 9,
        "type": "channel",
        "noteNumber": 36,
        "velocity": 121,
        "subtype": "noteOn"
      },
      {
        "deltaTime": 240,
        "channel": 9,
        "type": "channel",
        "noteNumber": 35,
        "velocity": 0,
        "subtype": "noteOff"
      },
      {
        "deltaTime": 0,
        "channel": 9,
        "type": "channel",
        "noteNumber": 41,
        "velocity": 121,
        "subtype": "noteOn"
      },
      {
        "deltaTime": 0,
        "channel": 9,
        "type": "channel",
        "noteNumber": 35,
        "velocity": 121,
        "subtype": "noteOn"
      },
      {
        "deltaTime": 240,
        "channel": 9,
        "type": "channel",
        "noteNumber": 41,
        "velocity": 0,
        "subtype": "noteOff"
      },
      {
        "deltaTime": 240,
        "channel": 9,
        "type": "channel",
        "noteNumber": 41,
        "velocity": 0,
        "subtype": "noteOff"
      },
      {
        "deltaTime": 0,
        "channel": 9,
        "type": "channel",
        "noteNumber": 36,
        "velocity": 0,
        "subtype": "noteOff"
      },
      {
        "deltaTime": 0,
        "channel": 9,
        "type": "channel",
        "noteNumber": 36,
        "velocity": 121,
        "subtype": "noteOn"
      },
      {
        "deltaTime": 0,
        "channel": 9,
        "type": "channel",
        "noteNumber": 41,
        "velocity": 121,
        "subtype": "noteOn"
      },
      {
        "deltaTime": 240,
        "channel": 9,
        "type": "channel",
        "noteNumber": 41,
        "velocity": 0,
        "subtype": "noteOff"
      },
      {
        "deltaTime": 0,
        "channel": 9,
        "type": "channel",
        "noteNumber": 36,
        "velocity": 0,
        "subtype": "noteOff"
      },
      {
        "deltaTime": 240,
        "channel": 9,
        "type": "channel",
        "noteNumber": 35,
        "velocity": 0,
        "subtype": "noteOff"
      },
      {
        "deltaTime": 0,
        "channel": 9,
        "type": "channel",
        "noteNumber": 35,
        "velocity": 121,
        "subtype": "noteOn"
      },
      {
        "deltaTime": 960,
        "channel": 9,
        "type": "channel",
        "noteNumber": 35,
        "velocity": 0,
        "subtype": "noteOff"
      },
      {
        "deltaTime": 0,
        "channel": 9,
        "type": "channel",
        "noteNumber": 41,
        "velocity": 121,
        "subtype": "noteOn"
      },
      {
        "deltaTime": 0,
        "channel": 9,
        "type": "channel",
        "noteNumber": 43,
        "velocity": 121,
        "subtype": "noteOn"
      },
      {
        "deltaTime": 0,
        "channel": 9,
        "type": "channel",
        "noteNumber": 36,
        "velocity": 121,
        "subtype": "noteOn"
      },
      {
        "deltaTime": 0,
        "channel": 9,
        "type": "channel",
        "noteNumber": 35,
        "velocity": 121,
        "subtype": "noteOn"
      },
      {
        "deltaTime": 720,
        "channel": 9,
        "type": "channel",
        "noteNumber": 36,
        "velocity": 0,
        "subtype": "noteOff"
      },
      {
        "deltaTime": 0,
        "channel": 9,
        "type": "channel",
        "noteNumber": 41,
        "velocity": 0,
        "subtype": "noteOff"
      },
      {
        "deltaTime": 0,
        "channel": 9,
        "type": "channel",
        "noteNumber": 43,
        "velocity": 0,
        "subtype": "noteOff"
      },
      {
        "deltaTime": 0,
        "channel": 9,
        "type": "channel",
        "noteNumber": 41,
        "velocity": 121,
        "subtype": "noteOn"
      },
      {
        "deltaTime": 0,
        "channel": 9,
        "type": "channel",
        "noteNumber": 36,
        "velocity": 121,
        "subtype": "noteOn"
      },
      {
        "deltaTime": 240,
        "channel": 9,
        "type": "channel",
        "noteNumber": 35,
        "velocity": 0,
        "subtype": "noteOff"
      },
      {
        "deltaTime": 0,
        "channel": 9,
        "type": "channel",
        "noteNumber": 35,
        "velocity": 121,
        "subtype": "noteOn"
      },
      {
        "deltaTime": 480,
        "channel": 9,
        "type": "channel",
        "noteNumber": 36,
        "velocity": 0,
        "subtype": "noteOff"
      },
      {
        "deltaTime": 0,
        "channel": 9,
        "type": "channel",
        "noteNumber": 41,
        "velocity": 0,
        "subtype": "noteOff"
      },
      {
        "deltaTime": 0,
        "channel": 9,
        "type": "channel",
        "noteNumber": 36,
        "velocity": 121,
        "subtype": "noteOn"
      },
      {
        "deltaTime": 0,
        "channel": 9,
        "type": "channel",
        "noteNumber": 41,
        "velocity": 121,
        "subtype": "noteOn"
      },
      {
        "deltaTime": 240,
        "channel": 9,
        "type": "channel",
        "noteNumber": 41,
        "velocity": 0,
        "subtype": "noteOff"
      },
      {
        "deltaTime": 0,
        "channel": 9,
        "type": "channel",
        "noteNumber": 36,
        "velocity": 0,
        "subtype": "noteOff"
      },
      {
        "deltaTime": 0,
        "channel": 9,
        "type": "channel",
        "noteNumber": 36,
        "velocity": 121,
        "subtype": "noteOn"
      },
      {
        "deltaTime": 0,
        "channel": 9,
        "type": "channel",
        "noteNumber": 41,
        "velocity": 121,
        "subtype": "noteOn"
      },
      {
        "deltaTime": 240,
        "channel": 9,
        "type": "channel",
        "noteNumber": 41,
        "velocity": 0,
        "subtype": "noteOff"
      },
      {
        "deltaTime": 0,
        "channel": 9,
        "type": "channel",
        "noteNumber": 36,
        "velocity": 0,
        "subtype": "noteOff"
      },
      {
        "deltaTime": 0,
        "channel": 9,
        "type": "channel",
        "noteNumber": 35,
        "velocity": 0,
        "subtype": "noteOff"
      },
      {
        "deltaTime": 0,
        "channel": 9,
        "type": "channel",
        "noteNumber": 43,
        "velocity": 121,
        "subtype": "noteOn"
      },
      {
        "deltaTime": 0,
        "channel": 9,
        "type": "channel",
        "noteNumber": 38,
        "velocity": 121,
        "subtype": "noteOn"
      },
      {
        "deltaTime": 0,
        "channel": 9,
        "type": "channel",
        "noteNumber": 35,
        "velocity": 121,
        "subtype": "noteOn"
      },
      {
        "deltaTime": 960,
        "channel": 9,
        "type": "channel",
        "noteNumber": 35,
        "velocity": 0,
        "subtype": "noteOff"
      },
      {
        "deltaTime": 0,
        "channel": 9,
        "type": "channel",
        "noteNumber": 38,
        "velocity": 0,
        "subtype": "noteOff"
      },
      {
        "deltaTime": 0,
        "channel": 9,
        "type": "channel",
        "noteNumber": 43,
        "velocity": 0,
        "subtype": "noteOff"
      },
      {
        "deltaTime": 0,
        "channel": 9,
        "type": "channel",
        "noteNumber": 49,
        "velocity": 121,
        "subtype": "noteOn"
      },
      {
        "deltaTime": 0,
        "channel": 9,
        "type": "channel",
        "noteNumber": 35,
        "velocity": 121,
        "subtype": "noteOn"
      },
      {
        "deltaTime": 720,
        "channel": 9,
        "type": "channel",
        "noteNumber": 35,
        "velocity": 0,
        "subtype": "noteOff"
      },
      {
        "deltaTime": 0,
        "channel": 9,
        "type": "channel",
        "noteNumber": 49,
        "velocity": 0,
        "subtype": "noteOff"
      },
      {
        "deltaTime": 0,
        "channel": 9,
        "type": "channel",
        "noteNumber": 49,
        "velocity": 121,
        "subtype": "noteOn"
      },
      {
        "deltaTime": 0,
        "channel": 9,
        "type": "channel",
        "noteNumber": 35,
        "velocity": 121,
        "subtype": "noteOn"
      },
      {
        "deltaTime": 720,
        "channel": 9,
        "type": "channel",
        "noteNumber": 35,
        "velocity": 0,
        "subtype": "noteOff"
      },
      {
        "deltaTime": 0,
        "channel": 9,
        "type": "channel",
        "noteNumber": 49,
        "velocity": 0,
        "subtype": "noteOff"
      },
      {
        "deltaTime": 0,
        "channel": 9,
        "type": "channel",
        "noteNumber": 49,
        "velocity": 121,
        "subtype": "noteOn"
      },
      {
        "deltaTime": 0,
        "channel": 9,
        "type": "channel",
        "noteNumber": 35,
        "velocity": 121,
        "subtype": "noteOn"
      },
      {
        "deltaTime": 240,
        "channel": 9,
        "type": "channel",
        "noteNumber": 35,
        "velocity": 0,
        "subtype": "noteOff"
      },
      {
        "deltaTime": 0,
        "channel": 9,
        "type": "channel",
        "noteNumber": 49,
        "velocity": 0,
        "subtype": "noteOff"
      },
      {
        "deltaTime": 240,
        "channel": 9,
        "type": "channel",
        "noteNumber": 38,
        "velocity": 121,
        "subtype": "noteOn"
      },
      {
        "deltaTime": 240,
        "channel": 9,
        "type": "channel",
        "noteNumber": 38,
        "velocity": 0,
        "subtype": "noteOff"
      },
      {
        "deltaTime": 0,
        "channel": 9,
        "type": "channel",
        "noteNumber": 38,
        "velocity": 121,
        "subtype": "noteOn"
      },
      {
        "deltaTime": 240,
        "channel": 9,
        "type": "channel",
        "noteNumber": 38,
        "velocity": 0,
        "subtype": "noteOff"
      },
      {
        "deltaTime": 0,
        "channel": 9,
        "type": "channel",
        "noteNumber": 38,
        "velocity": 121,
        "subtype": "noteOn"
      },
      {
        "deltaTime": 240,
        "channel": 9,
        "type": "channel",
        "noteNumber": 38,
        "velocity": 0,
        "subtype": "noteOff"
      },
      {
        "deltaTime": 0,
        "channel": 9,
        "type": "channel",
        "noteNumber": 38,
        "velocity": 121,
        "subtype": "noteOn"
      },
      {
        "deltaTime": 240,
        "channel": 9,
        "type": "channel",
        "noteNumber": 38,
        "velocity": 0,
        "subtype": "noteOff"
      },
      {
        "deltaTime": 0,
        "channel": 9,
        "type": "channel",
        "noteNumber": 49,
        "velocity": 121,
        "subtype": "noteOn"
      },
      {
        "deltaTime": 0,
        "channel": 9,
        "type": "channel",
        "noteNumber": 35,
        "velocity": 121,
        "subtype": "noteOn"
      },
      {
        "deltaTime": 720,
        "channel": 9,
        "type": "channel",
        "noteNumber": 35,
        "velocity": 0,
        "subtype": "noteOff"
      },
      {
        "deltaTime": 0,
        "channel": 9,
        "type": "channel",
        "noteNumber": 49,
        "velocity": 0,
        "subtype": "noteOff"
      },
      {
        "deltaTime": 0,
        "channel": 9,
        "type": "channel",
        "noteNumber": 49,
        "velocity": 121,
        "subtype": "noteOn"
      },
      {
        "deltaTime": 0,
        "channel": 9,
        "type": "channel",
        "noteNumber": 35,
        "velocity": 121,
        "subtype": "noteOn"
      },
      {
        "deltaTime": 720,
        "channel": 9,
        "type": "channel",
        "noteNumber": 35,
        "velocity": 0,
        "subtype": "noteOff"
      },
      {
        "deltaTime": 0,
        "channel": 9,
        "type": "channel",
        "noteNumber": 49,
        "velocity": 0,
        "subtype": "noteOff"
      },
      {
        "deltaTime": 0,
        "channel": 9,
        "type": "channel",
        "noteNumber": 49,
        "velocity": 121,
        "subtype": "noteOn"
      },
      {
        "deltaTime": 0,
        "channel": 9,
        "type": "channel",
        "noteNumber": 35,
        "velocity": 121,
        "subtype": "noteOn"
      },
      {
        "deltaTime": 240,
        "channel": 9,
        "type": "channel",
        "noteNumber": 35,
        "velocity": 0,
        "subtype": "noteOff"
      },
      {
        "deltaTime": 0,
        "channel": 9,
        "type": "channel",
        "noteNumber": 49,
        "velocity": 0,
        "subtype": "noteOff"
      },
      {
        "deltaTime": 0,
        "channel": 9,
        "type": "channel",
        "noteNumber": 38,
        "velocity": 76,
        "subtype": "noteOn"
      },
      {
        "deltaTime": 240,
        "channel": 9,
        "type": "channel",
        "noteNumber": 38,
        "velocity": 0,
        "subtype": "noteOff"
      },
      {
        "deltaTime": 0,
        "channel": 9,
        "type": "channel",
        "noteNumber": 38,
        "velocity": 121,
        "subtype": "noteOn"
      },
      {
        "deltaTime": 240,
        "channel": 9,
        "type": "channel",
        "noteNumber": 38,
        "velocity": 0,
        "subtype": "noteOff"
      },
      {
        "deltaTime": 0,
        "channel": 9,
        "type": "channel",
        "noteNumber": 38,
        "velocity": 121,
        "subtype": "noteOn"
      },
      {
        "deltaTime": 240,
        "channel": 9,
        "type": "channel",
        "noteNumber": 38,
        "velocity": 0,
        "subtype": "noteOff"
      },
      {
        "deltaTime": 0,
        "channel": 9,
        "type": "channel",
        "noteNumber": 38,
        "velocity": 121,
        "subtype": "noteOn"
      },
      {
        "deltaTime": 240,
        "channel": 9,
        "type": "channel",
        "noteNumber": 38,
        "velocity": 0,
        "subtype": "noteOff"
      },
      {
        "deltaTime": 0,
        "channel": 9,
        "type": "channel",
        "noteNumber": 38,
        "velocity": 121,
        "subtype": "noteOn"
      },
      {
        "deltaTime": 240,
        "channel": 9,
        "type": "channel",
        "noteNumber": 38,
        "velocity": 0,
        "subtype": "noteOff"
      },
      {
        "deltaTime": 0,
        "channel": 9,
        "type": "channel",
        "noteNumber": 49,
        "velocity": 121,
        "subtype": "noteOn"
      },
      {
        "deltaTime": 0,
        "channel": 9,
        "type": "channel",
        "noteNumber": 35,
        "velocity": 121,
        "subtype": "noteOn"
      },
      {
        "deltaTime": 720,
        "channel": 9,
        "type": "channel",
        "noteNumber": 35,
        "velocity": 0,
        "subtype": "noteOff"
      },
      {
        "deltaTime": 0,
        "channel": 9,
        "type": "channel",
        "noteNumber": 49,
        "velocity": 0,
        "subtype": "noteOff"
      },
      {
        "deltaTime": 0,
        "channel": 9,
        "type": "channel",
        "noteNumber": 49,
        "velocity": 121,
        "subtype": "noteOn"
      },
      {
        "deltaTime": 0,
        "channel": 9,
        "type": "channel",
        "noteNumber": 35,
        "velocity": 121,
        "subtype": "noteOn"
      },
      {
        "deltaTime": 720,
        "channel": 9,
        "type": "channel",
        "noteNumber": 35,
        "velocity": 0,
        "subtype": "noteOff"
      },
      {
        "deltaTime": 0,
        "channel": 9,
        "type": "channel",
        "noteNumber": 49,
        "velocity": 0,
        "subtype": "noteOff"
      },
      {
        "deltaTime": 0,
        "channel": 9,
        "type": "channel",
        "noteNumber": 49,
        "velocity": 121,
        "subtype": "noteOn"
      },
      {
        "deltaTime": 0,
        "channel": 9,
        "type": "channel",
        "noteNumber": 35,
        "velocity": 121,
        "subtype": "noteOn"
      },
      {
        "deltaTime": 240,
        "channel": 9,
        "type": "channel",
        "noteNumber": 35,
        "velocity": 0,
        "subtype": "noteOff"
      },
      {
        "deltaTime": 0,
        "channel": 9,
        "type": "channel",
        "noteNumber": 49,
        "velocity": 0,
        "subtype": "noteOff"
      },
      {
        "deltaTime": 0,
        "channel": 9,
        "type": "channel",
        "noteNumber": 38,
        "velocity": 76,
        "subtype": "noteOn"
      },
      {
        "deltaTime": 240,
        "channel": 9,
        "type": "channel",
        "noteNumber": 38,
        "velocity": 0,
        "subtype": "noteOff"
      },
      {
        "deltaTime": 0,
        "channel": 9,
        "type": "channel",
        "noteNumber": 38,
        "velocity": 121,
        "subtype": "noteOn"
      },
      {
        "deltaTime": 240,
        "channel": 9,
        "type": "channel",
        "noteNumber": 38,
        "velocity": 0,
        "subtype": "noteOff"
      },
      {
        "deltaTime": 0,
        "channel": 9,
        "type": "channel",
        "noteNumber": 38,
        "velocity": 121,
        "subtype": "noteOn"
      },
      {
        "deltaTime": 240,
        "channel": 9,
        "type": "channel",
        "noteNumber": 38,
        "velocity": 0,
        "subtype": "noteOff"
      },
      {
        "deltaTime": 0,
        "channel": 9,
        "type": "channel",
        "noteNumber": 38,
        "velocity": 121,
        "subtype": "noteOn"
      },
      {
        "deltaTime": 240,
        "channel": 9,
        "type": "channel",
        "noteNumber": 38,
        "velocity": 0,
        "subtype": "noteOff"
      },
      {
        "deltaTime": 0,
        "channel": 9,
        "type": "channel",
        "noteNumber": 38,
        "velocity": 121,
        "subtype": "noteOn"
      },
      {
        "deltaTime": 240,
        "channel": 9,
        "type": "channel",
        "noteNumber": 38,
        "velocity": 0,
        "subtype": "noteOff"
      },
      {
        "deltaTime": 0,
        "channel": 9,
        "type": "channel",
        "noteNumber": 49,
        "velocity": 121,
        "subtype": "noteOn"
      },
      {
        "deltaTime": 0,
        "channel": 9,
        "type": "channel",
        "noteNumber": 35,
        "velocity": 121,
        "subtype": "noteOn"
      },
      {
        "deltaTime": 720,
        "channel": 9,
        "type": "channel",
        "noteNumber": 35,
        "velocity": 0,
        "subtype": "noteOff"
      },
      {
        "deltaTime": 0,
        "channel": 9,
        "type": "channel",
        "noteNumber": 49,
        "velocity": 0,
        "subtype": "noteOff"
      },
      {
        "deltaTime": 0,
        "channel": 9,
        "type": "channel",
        "noteNumber": 49,
        "velocity": 121,
        "subtype": "noteOn"
      },
      {
        "deltaTime": 0,
        "channel": 9,
        "type": "channel",
        "noteNumber": 35,
        "velocity": 121,
        "subtype": "noteOn"
      },
      {
        "deltaTime": 720,
        "channel": 9,
        "type": "channel",
        "noteNumber": 35,
        "velocity": 0,
        "subtype": "noteOff"
      },
      {
        "deltaTime": 0,
        "channel": 9,
        "type": "channel",
        "noteNumber": 49,
        "velocity": 0,
        "subtype": "noteOff"
      },
      {
        "deltaTime": 0,
        "channel": 9,
        "type": "channel",
        "noteNumber": 35,
        "velocity": 121,
        "subtype": "noteOn"
      },
      {
        "deltaTime": 480,
        "channel": 9,
        "type": "channel",
        "noteNumber": 35,
        "velocity": 0,
        "subtype": "noteOff"
      },
      {
        "deltaTime": 0,
        "channel": 9,
        "type": "channel",
        "noteNumber": 38,
        "velocity": 121,
        "subtype": "noteOn"
      },
      {
        "deltaTime": 0,
        "channel": 9,
        "type": "channel",
        "noteNumber": 57,
        "velocity": 121,
        "subtype": "noteOn"
      },
      {
        "deltaTime": 960,
        "channel": 9,
        "type": "channel",
        "noteNumber": 57,
        "velocity": 0,
        "subtype": "noteOff"
      },
      {
        "deltaTime": 0,
        "channel": 9,
        "type": "channel",
        "noteNumber": 38,
        "velocity": 0,
        "subtype": "noteOff"
      },
      {
        "deltaTime": 0,
        "channel": 9,
        "type": "channel",
        "noteNumber": 49,
        "velocity": 121,
        "subtype": "noteOn"
      },
      {
        "deltaTime": 0,
        "channel": 9,
        "type": "channel",
        "noteNumber": 35,
        "velocity": 121,
        "subtype": "noteOn"
      },
      {
        "deltaTime": 720,
        "channel": 9,
        "type": "channel",
        "noteNumber": 35,
        "velocity": 0,
        "subtype": "noteOff"
      },
      {
        "deltaTime": 0,
        "channel": 9,
        "type": "channel",
        "noteNumber": 49,
        "velocity": 0,
        "subtype": "noteOff"
      },
      {
        "deltaTime": 0,
        "channel": 9,
        "type": "channel",
        "noteNumber": 49,
        "velocity": 121,
        "subtype": "noteOn"
      },
      {
        "deltaTime": 0,
        "channel": 9,
        "type": "channel",
        "noteNumber": 35,
        "velocity": 121,
        "subtype": "noteOn"
      },
      {
        "deltaTime": 720,
        "channel": 9,
        "type": "channel",
        "noteNumber": 35,
        "velocity": 0,
        "subtype": "noteOff"
      },
      {
        "deltaTime": 0,
        "channel": 9,
        "type": "channel",
        "noteNumber": 49,
        "velocity": 0,
        "subtype": "noteOff"
      },
      {
        "deltaTime": 0,
        "channel": 9,
        "type": "channel",
        "noteNumber": 49,
        "velocity": 121,
        "subtype": "noteOn"
      },
      {
        "deltaTime": 0,
        "channel": 9,
        "type": "channel",
        "noteNumber": 35,
        "velocity": 121,
        "subtype": "noteOn"
      },
      {
        "deltaTime": 240,
        "channel": 9,
        "type": "channel",
        "noteNumber": 35,
        "velocity": 0,
        "subtype": "noteOff"
      },
      {
        "deltaTime": 0,
        "channel": 9,
        "type": "channel",
        "noteNumber": 49,
        "velocity": 0,
        "subtype": "noteOff"
      },
      {
        "deltaTime": 0,
        "channel": 9,
        "type": "channel",
        "noteNumber": 38,
        "velocity": 76,
        "subtype": "noteOn"
      },
      {
        "deltaTime": 240,
        "channel": 9,
        "type": "channel",
        "noteNumber": 38,
        "velocity": 0,
        "subtype": "noteOff"
      },
      {
        "deltaTime": 0,
        "channel": 9,
        "type": "channel",
        "noteNumber": 38,
        "velocity": 121,
        "subtype": "noteOn"
      },
      {
        "deltaTime": 240,
        "channel": 9,
        "type": "channel",
        "noteNumber": 38,
        "velocity": 0,
        "subtype": "noteOff"
      },
      {
        "deltaTime": 0,
        "channel": 9,
        "type": "channel",
        "noteNumber": 38,
        "velocity": 121,
        "subtype": "noteOn"
      },
      {
        "deltaTime": 240,
        "channel": 9,
        "type": "channel",
        "noteNumber": 38,
        "velocity": 0,
        "subtype": "noteOff"
      },
      {
        "deltaTime": 0,
        "channel": 9,
        "type": "channel",
        "noteNumber": 38,
        "velocity": 121,
        "subtype": "noteOn"
      },
      {
        "deltaTime": 240,
        "channel": 9,
        "type": "channel",
        "noteNumber": 38,
        "velocity": 0,
        "subtype": "noteOff"
      },
      {
        "deltaTime": 0,
        "channel": 9,
        "type": "channel",
        "noteNumber": 38,
        "velocity": 121,
        "subtype": "noteOn"
      },
      {
        "deltaTime": 240,
        "channel": 9,
        "type": "channel",
        "noteNumber": 38,
        "velocity": 0,
        "subtype": "noteOff"
      },
      {
        "deltaTime": 0,
        "channel": 9,
        "type": "channel",
        "noteNumber": 49,
        "velocity": 121,
        "subtype": "noteOn"
      },
      {
        "deltaTime": 0,
        "channel": 9,
        "type": "channel",
        "noteNumber": 35,
        "velocity": 121,
        "subtype": "noteOn"
      },
      {
        "deltaTime": 720,
        "channel": 9,
        "type": "channel",
        "noteNumber": 35,
        "velocity": 0,
        "subtype": "noteOff"
      },
      {
        "deltaTime": 0,
        "channel": 9,
        "type": "channel",
        "noteNumber": 49,
        "velocity": 0,
        "subtype": "noteOff"
      },
      {
        "deltaTime": 0,
        "channel": 9,
        "type": "channel",
        "noteNumber": 49,
        "velocity": 121,
        "subtype": "noteOn"
      },
      {
        "deltaTime": 0,
        "channel": 9,
        "type": "channel",
        "noteNumber": 35,
        "velocity": 121,
        "subtype": "noteOn"
      },
      {
        "deltaTime": 720,
        "channel": 9,
        "type": "channel",
        "noteNumber": 35,
        "velocity": 0,
        "subtype": "noteOff"
      },
      {
        "deltaTime": 0,
        "channel": 9,
        "type": "channel",
        "noteNumber": 49,
        "velocity": 0,
        "subtype": "noteOff"
      },
      {
        "deltaTime": 0,
        "channel": 9,
        "type": "channel",
        "noteNumber": 49,
        "velocity": 121,
        "subtype": "noteOn"
      },
      {
        "deltaTime": 0,
        "channel": 9,
        "type": "channel",
        "noteNumber": 35,
        "velocity": 121,
        "subtype": "noteOn"
      },
      {
        "deltaTime": 240,
        "channel": 9,
        "type": "channel",
        "noteNumber": 35,
        "velocity": 0,
        "subtype": "noteOff"
      },
      {
        "deltaTime": 0,
        "channel": 9,
        "type": "channel",
        "noteNumber": 49,
        "velocity": 0,
        "subtype": "noteOff"
      },
      {
        "deltaTime": 0,
        "channel": 9,
        "type": "channel",
        "noteNumber": 38,
        "velocity": 76,
        "subtype": "noteOn"
      },
      {
        "deltaTime": 240,
        "channel": 9,
        "type": "channel",
        "noteNumber": 38,
        "velocity": 0,
        "subtype": "noteOff"
      },
      {
        "deltaTime": 0,
        "channel": 9,
        "type": "channel",
        "noteNumber": 38,
        "velocity": 121,
        "subtype": "noteOn"
      },
      {
        "deltaTime": 240,
        "channel": 9,
        "type": "channel",
        "noteNumber": 38,
        "velocity": 0,
        "subtype": "noteOff"
      },
      {
        "deltaTime": 0,
        "channel": 9,
        "type": "channel",
        "noteNumber": 38,
        "velocity": 121,
        "subtype": "noteOn"
      },
      {
        "deltaTime": 240,
        "channel": 9,
        "type": "channel",
        "noteNumber": 38,
        "velocity": 0,
        "subtype": "noteOff"
      },
      {
        "deltaTime": 0,
        "channel": 9,
        "type": "channel",
        "noteNumber": 38,
        "velocity": 121,
        "subtype": "noteOn"
      },
      {
        "deltaTime": 240,
        "channel": 9,
        "type": "channel",
        "noteNumber": 38,
        "velocity": 0,
        "subtype": "noteOff"
      },
      {
        "deltaTime": 0,
        "channel": 9,
        "type": "channel",
        "noteNumber": 38,
        "velocity": 121,
        "subtype": "noteOn"
      },
      {
        "deltaTime": 240,
        "channel": 9,
        "type": "channel",
        "noteNumber": 38,
        "velocity": 0,
        "subtype": "noteOff"
      },
      {
        "deltaTime": 0,
        "channel": 9,
        "type": "channel",
        "noteNumber": 49,
        "velocity": 121,
        "subtype": "noteOn"
      },
      {
        "deltaTime": 0,
        "channel": 9,
        "type": "channel",
        "noteNumber": 35,
        "velocity": 121,
        "subtype": "noteOn"
      },
      {
        "deltaTime": 720,
        "channel": 9,
        "type": "channel",
        "noteNumber": 35,
        "velocity": 0,
        "subtype": "noteOff"
      },
      {
        "deltaTime": 0,
        "channel": 9,
        "type": "channel",
        "noteNumber": 49,
        "velocity": 0,
        "subtype": "noteOff"
      },
      {
        "deltaTime": 0,
        "channel": 9,
        "type": "channel",
        "noteNumber": 49,
        "velocity": 121,
        "subtype": "noteOn"
      },
      {
        "deltaTime": 0,
        "channel": 9,
        "type": "channel",
        "noteNumber": 35,
        "velocity": 121,
        "subtype": "noteOn"
      },
      {
        "deltaTime": 720,
        "channel": 9,
        "type": "channel",
        "noteNumber": 35,
        "velocity": 0,
        "subtype": "noteOff"
      },
      {
        "deltaTime": 0,
        "channel": 9,
        "type": "channel",
        "noteNumber": 49,
        "velocity": 0,
        "subtype": "noteOff"
      },
      {
        "deltaTime": 0,
        "channel": 9,
        "type": "channel",
        "noteNumber": 49,
        "velocity": 121,
        "subtype": "noteOn"
      },
      {
        "deltaTime": 0,
        "channel": 9,
        "type": "channel",
        "noteNumber": 35,
        "velocity": 121,
        "subtype": "noteOn"
      },
      {
        "deltaTime": 240,
        "channel": 9,
        "type": "channel",
        "noteNumber": 35,
        "velocity": 0,
        "subtype": "noteOff"
      },
      {
        "deltaTime": 0,
        "channel": 9,
        "type": "channel",
        "noteNumber": 49,
        "velocity": 0,
        "subtype": "noteOff"
      },
      {
        "deltaTime": 0,
        "channel": 9,
        "type": "channel",
        "noteNumber": 38,
        "velocity": 76,
        "subtype": "noteOn"
      },
      {
        "deltaTime": 240,
        "channel": 9,
        "type": "channel",
        "noteNumber": 38,
        "velocity": 0,
        "subtype": "noteOff"
      },
      {
        "deltaTime": 0,
        "channel": 9,
        "type": "channel",
        "noteNumber": 38,
        "velocity": 121,
        "subtype": "noteOn"
      },
      {
        "deltaTime": 240,
        "channel": 9,
        "type": "channel",
        "noteNumber": 38,
        "velocity": 0,
        "subtype": "noteOff"
      },
      {
        "deltaTime": 0,
        "channel": 9,
        "type": "channel",
        "noteNumber": 38,
        "velocity": 121,
        "subtype": "noteOn"
      },
      {
        "deltaTime": 240,
        "channel": 9,
        "type": "channel",
        "noteNumber": 38,
        "velocity": 0,
        "subtype": "noteOff"
      },
      {
        "deltaTime": 0,
        "channel": 9,
        "type": "channel",
        "noteNumber": 38,
        "velocity": 121,
        "subtype": "noteOn"
      },
      {
        "deltaTime": 240,
        "channel": 9,
        "type": "channel",
        "noteNumber": 38,
        "velocity": 0,
        "subtype": "noteOff"
      },
      {
        "deltaTime": 0,
        "channel": 9,
        "type": "channel",
        "noteNumber": 38,
        "velocity": 121,
        "subtype": "noteOn"
      },
      {
        "deltaTime": 240,
        "channel": 9,
        "type": "channel",
        "noteNumber": 38,
        "velocity": 0,
        "subtype": "noteOff"
      },
      {
        "deltaTime": 0,
        "channel": 9,
        "type": "channel",
        "noteNumber": 49,
        "velocity": 121,
        "subtype": "noteOn"
      },
      {
        "deltaTime": 0,
        "channel": 9,
        "type": "channel",
        "noteNumber": 35,
        "velocity": 121,
        "subtype": "noteOn"
      },
      {
        "deltaTime": 720,
        "channel": 9,
        "type": "channel",
        "noteNumber": 35,
        "velocity": 0,
        "subtype": "noteOff"
      },
      {
        "deltaTime": 0,
        "channel": 9,
        "type": "channel",
        "noteNumber": 49,
        "velocity": 0,
        "subtype": "noteOff"
      },
      {
        "deltaTime": 0,
        "channel": 9,
        "type": "channel",
        "noteNumber": 49,
        "velocity": 121,
        "subtype": "noteOn"
      },
      {
        "deltaTime": 0,
        "channel": 9,
        "type": "channel",
        "noteNumber": 35,
        "velocity": 121,
        "subtype": "noteOn"
      },
      {
        "deltaTime": 720,
        "channel": 9,
        "type": "channel",
        "noteNumber": 35,
        "velocity": 0,
        "subtype": "noteOff"
      },
      {
        "deltaTime": 0,
        "channel": 9,
        "type": "channel",
        "noteNumber": 49,
        "velocity": 0,
        "subtype": "noteOff"
      },
      {
        "deltaTime": 0,
        "channel": 9,
        "type": "channel",
        "noteNumber": 35,
        "velocity": 121,
        "subtype": "noteOn"
      },
      {
        "deltaTime": 480,
        "channel": 9,
        "type": "channel",
        "noteNumber": 35,
        "velocity": 0,
        "subtype": "noteOff"
      },
      {
        "deltaTime": 0,
        "channel": 9,
        "type": "channel",
        "noteNumber": 38,
        "velocity": 121,
        "subtype": "noteOn"
      },
      {
        "deltaTime": 0,
        "channel": 9,
        "type": "channel",
        "noteNumber": 57,
        "velocity": 121,
        "subtype": "noteOn"
      },
      {
        "deltaTime": 960,
        "channel": 9,
        "type": "channel",
        "noteNumber": 57,
        "velocity": 0,
        "subtype": "noteOff"
      },
      {
        "deltaTime": 0,
        "channel": 9,
        "type": "channel",
        "noteNumber": 38,
        "velocity": 0,
        "subtype": "noteOff"
      },
      {
        "deltaTime": 0,
        "channel": 9,
        "type": "channel",
        "noteNumber": 57,
        "velocity": 121,
        "subtype": "noteOn"
      },
      {
        "deltaTime": 0,
        "channel": 9,
        "type": "channel",
        "noteNumber": 49,
        "velocity": 121,
        "subtype": "noteOn"
      },
      {
        "deltaTime": 0,
        "channel": 9,
        "type": "channel",
        "noteNumber": 35,
        "velocity": 121,
        "subtype": "noteOn"
      },
      {
        "deltaTime": 960,
        "channel": 9,
        "type": "channel",
        "noteNumber": 35,
        "velocity": 0,
        "subtype": "noteOff"
      },
      {
        "deltaTime": 0,
        "channel": 9,
        "type": "channel",
        "noteNumber": 49,
        "velocity": 0,
        "subtype": "noteOff"
      },
      {
        "deltaTime": 0,
        "channel": 9,
        "type": "channel",
        "noteNumber": 57,
        "velocity": 0,
        "subtype": "noteOff"
      },
      {
        "deltaTime": 0,
        "channel": 9,
        "type": "channel",
        "noteNumber": 36,
        "velocity": 121,
        "subtype": "noteOn"
      },
      {
        "deltaTime": 0,
        "channel": 9,
        "type": "channel",
        "noteNumber": 43,
        "velocity": 121,
        "subtype": "noteOn"
      },
      {
        "deltaTime": 0,
        "channel": 9,
        "type": "channel",
        "noteNumber": 38,
        "velocity": 121,
        "subtype": "noteOn"
      },
      {
        "deltaTime": 960,
        "channel": 9,
        "type": "channel",
        "noteNumber": 38,
        "velocity": 0,
        "subtype": "noteOff"
      },
      {
        "deltaTime": 0,
        "channel": 9,
        "type": "channel",
        "noteNumber": 43,
        "velocity": 0,
        "subtype": "noteOff"
      },
      {
        "deltaTime": 0,
        "channel": 9,
        "type": "channel",
        "noteNumber": 36,
        "velocity": 0,
        "subtype": "noteOff"
      },
      {
        "deltaTime": 960,
        "channel": 9,
        "type": "channel",
        "noteNumber": 36,
        "velocity": 121,
        "subtype": "noteOn"
      },
      {
        "deltaTime": 0,
        "channel": 9,
        "type": "channel",
        "noteNumber": 43,
        "velocity": 121,
        "subtype": "noteOn"
      },
      {
        "deltaTime": 0,
        "channel": 9,
        "type": "channel",
        "noteNumber": 38,
        "velocity": 121,
        "subtype": "noteOn"
      },
      {
        "deltaTime": 480,
        "channel": 9,
        "type": "channel",
        "noteNumber": 35,
        "velocity": 121,
        "subtype": "noteOn"
      },
      {
        "deltaTime": 480,
        "channel": 9,
        "type": "channel",
        "noteNumber": 35,
        "velocity": 0,
        "subtype": "noteOff"
      },
      {
        "deltaTime": 0,
        "channel": 9,
        "type": "channel",
        "noteNumber": 36,
        "velocity": 0,
        "subtype": "noteOff"
      },
      {
        "deltaTime": 0,
        "channel": 9,
        "type": "channel",
        "noteNumber": 43,
        "velocity": 0,
        "subtype": "noteOff"
      },
      {
        "deltaTime": 0,
        "channel": 9,
        "type": "channel",
        "noteNumber": 38,
        "velocity": 0,
        "subtype": "noteOff"
      },
      {
        "deltaTime": 0,
        "channel": 9,
        "type": "channel",
        "noteNumber": 35,
        "velocity": 121,
        "subtype": "noteOn"
      },
      {
        "deltaTime": 960,
        "channel": 9,
        "type": "channel",
        "noteNumber": 35,
        "velocity": 0,
        "subtype": "noteOff"
      },
      {
        "deltaTime": 0,
        "channel": 9,
        "type": "channel",
        "noteNumber": 36,
        "velocity": 121,
        "subtype": "noteOn"
      },
      {
        "deltaTime": 0,
        "channel": 9,
        "type": "channel",
        "noteNumber": 43,
        "velocity": 121,
        "subtype": "noteOn"
      },
      {
        "deltaTime": 0,
        "channel": 9,
        "type": "channel",
        "noteNumber": 38,
        "velocity": 121,
        "subtype": "noteOn"
      },
      {
        "deltaTime": 960,
        "channel": 9,
        "type": "channel",
        "noteNumber": 38,
        "velocity": 0,
        "subtype": "noteOff"
      },
      {
        "deltaTime": 0,
        "channel": 9,
        "type": "channel",
        "noteNumber": 43,
        "velocity": 0,
        "subtype": "noteOff"
      },
      {
        "deltaTime": 0,
        "channel": 9,
        "type": "channel",
        "noteNumber": 36,
        "velocity": 0,
        "subtype": "noteOff"
      },
      {
        "deltaTime": 960,
        "channel": 9,
        "type": "channel",
        "noteNumber": 36,
        "velocity": 121,
        "subtype": "noteOn"
      },
      {
        "deltaTime": 0,
        "channel": 9,
        "type": "channel",
        "noteNumber": 43,
        "velocity": 121,
        "subtype": "noteOn"
      },
      {
        "deltaTime": 0,
        "channel": 9,
        "type": "channel",
        "noteNumber": 38,
        "velocity": 121,
        "subtype": "noteOn"
      },
      {
        "deltaTime": 960,
        "channel": 9,
        "type": "channel",
        "noteNumber": 38,
        "velocity": 0,
        "subtype": "noteOff"
      },
      {
        "deltaTime": 0,
        "channel": 9,
        "type": "channel",
        "noteNumber": 43,
        "velocity": 0,
        "subtype": "noteOff"
      },
      {
        "deltaTime": 0,
        "channel": 9,
        "type": "channel",
        "noteNumber": 36,
        "velocity": 0,
        "subtype": "noteOff"
      },
      {
        "deltaTime": 0,
        "channel": 9,
        "type": "channel",
        "noteNumber": 38,
        "velocity": 121,
        "subtype": "noteOn"
      },
      {
        "deltaTime": 0,
        "channel": 9,
        "type": "channel",
        "noteNumber": 49,
        "velocity": 121,
        "subtype": "noteOn"
      },
      {
        "deltaTime": 480,
        "channel": 9,
        "type": "channel",
        "noteNumber": 49,
        "velocity": 0,
        "subtype": "noteOff"
      },
      {
        "deltaTime": 0,
        "channel": 9,
        "type": "channel",
        "noteNumber": 38,
        "velocity": 0,
        "subtype": "noteOff"
      },
      {
        "deltaTime": 0,
        "channel": 9,
        "type": "channel",
        "noteNumber": 35,
        "velocity": 121,
        "subtype": "noteOn"
      },
      {
        "deltaTime": 480,
        "channel": 9,
        "type": "channel",
        "noteNumber": 35,
        "velocity": 0,
        "subtype": "noteOff"
      },
      {
        "deltaTime": 0,
        "channel": 9,
        "type": "channel",
        "noteNumber": 38,
        "velocity": 91,
        "subtype": "noteOn"
      },
      {
        "deltaTime": 0,
        "channel": 9,
        "type": "channel",
        "noteNumber": 43,
        "velocity": 121,
        "subtype": "noteOn"
      },
      {
        "deltaTime": 0,
        "channel": 9,
        "type": "channel",
        "noteNumber": 36,
        "velocity": 121,
        "subtype": "noteOn"
      },
      {
        "deltaTime": 0,
        "channel": 9,
        "type": "channel",
        "noteNumber": 35,
        "velocity": 121,
        "subtype": "noteOn"
      },
      {
        "deltaTime": 480,
        "channel": 9,
        "type": "channel",
        "noteNumber": 35,
        "velocity": 0,
        "subtype": "noteOff"
      },
      {
        "deltaTime": 0,
        "channel": 9,
        "type": "channel",
        "noteNumber": 38,
        "velocity": 0,
        "subtype": "noteOff"
      },
      {
        "deltaTime": 0,
        "channel": 9,
        "type": "channel",
        "noteNumber": 43,
        "velocity": 0,
        "subtype": "noteOff"
      },
      {
        "deltaTime": 0,
        "channel": 9,
        "type": "channel",
        "noteNumber": 36,
        "velocity": 0,
        "subtype": "noteOff"
      },
      {
        "deltaTime": 0,
        "channel": 9,
        "type": "channel",
        "noteNumber": 38,
        "velocity": 96,
        "subtype": "noteOn"
      },
      {
        "deltaTime": 0,
        "channel": 9,
        "type": "channel",
        "noteNumber": 43,
        "velocity": 121,
        "subtype": "noteOn"
      },
      {
        "deltaTime": 0,
        "channel": 9,
        "type": "channel",
        "noteNumber": 36,
        "velocity": 121,
        "subtype": "noteOn"
      },
      {
        "deltaTime": 0,
        "channel": 9,
        "type": "channel",
        "noteNumber": 35,
        "velocity": 121,
        "subtype": "noteOn"
      },
      {
        "deltaTime": 480,
        "channel": 9,
        "type": "channel",
        "noteNumber": 35,
        "velocity": 0,
        "subtype": "noteOff"
      },
      {
        "deltaTime": 0,
        "channel": 9,
        "type": "channel",
        "noteNumber": 38,
        "velocity": 0,
        "subtype": "noteOff"
      },
      {
        "deltaTime": 0,
        "channel": 9,
        "type": "channel",
        "noteNumber": 43,
        "velocity": 0,
        "subtype": "noteOff"
      },
      {
        "deltaTime": 0,
        "channel": 9,
        "type": "channel",
        "noteNumber": 36,
        "velocity": 0,
        "subtype": "noteOff"
      },
      {
        "deltaTime": 0,
        "channel": 9,
        "type": "channel",
        "noteNumber": 38,
        "velocity": 101,
        "subtype": "noteOn"
      },
      {
        "deltaTime": 0,
        "channel": 9,
        "type": "channel",
        "noteNumber": 43,
        "velocity": 121,
        "subtype": "noteOn"
      },
      {
        "deltaTime": 0,
        "channel": 9,
        "type": "channel",
        "noteNumber": 36,
        "velocity": 121,
        "subtype": "noteOn"
      },
      {
        "deltaTime": 0,
        "channel": 9,
        "type": "channel",
        "noteNumber": 35,
        "velocity": 121,
        "subtype": "noteOn"
      },
      {
        "deltaTime": 480,
        "channel": 9,
        "type": "channel",
        "noteNumber": 35,
        "velocity": 0,
        "subtype": "noteOff"
      },
      {
        "deltaTime": 0,
        "channel": 9,
        "type": "channel",
        "noteNumber": 38,
        "velocity": 0,
        "subtype": "noteOff"
      },
      {
        "deltaTime": 0,
        "channel": 9,
        "type": "channel",
        "noteNumber": 43,
        "velocity": 0,
        "subtype": "noteOff"
      },
      {
        "deltaTime": 0,
        "channel": 9,
        "type": "channel",
        "noteNumber": 36,
        "velocity": 0,
        "subtype": "noteOff"
      },
      {
        "deltaTime": 0,
        "channel": 9,
        "type": "channel",
        "noteNumber": 38,
        "velocity": 106,
        "subtype": "noteOn"
      },
      {
        "deltaTime": 0,
        "channel": 9,
        "type": "channel",
        "noteNumber": 43,
        "velocity": 121,
        "subtype": "noteOn"
      },
      {
        "deltaTime": 0,
        "channel": 9,
        "type": "channel",
        "noteNumber": 36,
        "velocity": 121,
        "subtype": "noteOn"
      },
      {
        "deltaTime": 0,
        "channel": 9,
        "type": "channel",
        "noteNumber": 35,
        "velocity": 121,
        "subtype": "noteOn"
      },
      {
        "deltaTime": 480,
        "channel": 9,
        "type": "channel",
        "noteNumber": 35,
        "velocity": 0,
        "subtype": "noteOff"
      },
      {
        "deltaTime": 0,
        "channel": 9,
        "type": "channel",
        "noteNumber": 38,
        "velocity": 0,
        "subtype": "noteOff"
      },
      {
        "deltaTime": 0,
        "channel": 9,
        "type": "channel",
        "noteNumber": 43,
        "velocity": 0,
        "subtype": "noteOff"
      },
      {
        "deltaTime": 0,
        "channel": 9,
        "type": "channel",
        "noteNumber": 36,
        "velocity": 0,
        "subtype": "noteOff"
      },
      {
        "deltaTime": 0,
        "channel": 9,
        "type": "channel",
        "noteNumber": 38,
        "velocity": 111,
        "subtype": "noteOn"
      },
      {
        "deltaTime": 0,
        "channel": 9,
        "type": "channel",
        "noteNumber": 43,
        "velocity": 121,
        "subtype": "noteOn"
      },
      {
        "deltaTime": 0,
        "channel": 9,
        "type": "channel",
        "noteNumber": 36,
        "velocity": 121,
        "subtype": "noteOn"
      },
      {
        "deltaTime": 0,
        "channel": 9,
        "type": "channel",
        "noteNumber": 35,
        "velocity": 121,
        "subtype": "noteOn"
      },
      {
        "deltaTime": 480,
        "channel": 9,
        "type": "channel",
        "noteNumber": 35,
        "velocity": 0,
        "subtype": "noteOff"
      },
      {
        "deltaTime": 0,
        "channel": 9,
        "type": "channel",
        "noteNumber": 38,
        "velocity": 0,
        "subtype": "noteOff"
      },
      {
        "deltaTime": 0,
        "channel": 9,
        "type": "channel",
        "noteNumber": 43,
        "velocity": 0,
        "subtype": "noteOff"
      },
      {
        "deltaTime": 0,
        "channel": 9,
        "type": "channel",
        "noteNumber": 36,
        "velocity": 0,
        "subtype": "noteOff"
      },
      {
        "deltaTime": 0,
        "channel": 9,
        "type": "channel",
        "noteNumber": 38,
        "velocity": 116,
        "subtype": "noteOn"
      },
      {
        "deltaTime": 0,
        "channel": 9,
        "type": "channel",
        "noteNumber": 43,
        "velocity": 121,
        "subtype": "noteOn"
      },
      {
        "deltaTime": 0,
        "channel": 9,
        "type": "channel",
        "noteNumber": 36,
        "velocity": 121,
        "subtype": "noteOn"
      },
      {
        "deltaTime": 0,
        "channel": 9,
        "type": "channel",
        "noteNumber": 35,
        "velocity": 121,
        "subtype": "noteOn"
      },
      {
        "deltaTime": 480,
        "channel": 9,
        "type": "channel",
        "noteNumber": 35,
        "velocity": 0,
        "subtype": "noteOff"
      },
      {
        "deltaTime": 0,
        "channel": 9,
        "type": "channel",
        "noteNumber": 38,
        "velocity": 0,
        "subtype": "noteOff"
      },
      {
        "deltaTime": 0,
        "channel": 9,
        "type": "channel",
        "noteNumber": 43,
        "velocity": 0,
        "subtype": "noteOff"
      },
      {
        "deltaTime": 0,
        "channel": 9,
        "type": "channel",
        "noteNumber": 36,
        "velocity": 0,
        "subtype": "noteOff"
      },
      {
        "deltaTime": 0,
        "channel": 9,
        "type": "channel",
        "noteNumber": 38,
        "velocity": 121,
        "subtype": "noteOn"
      },
      {
        "deltaTime": 240,
        "channel": 9,
        "type": "channel",
        "noteNumber": 38,
        "velocity": 0,
        "subtype": "noteOff"
      },
      {
        "deltaTime": 0,
        "channel": 9,
        "type": "channel",
        "noteNumber": 38,
        "velocity": 121,
        "subtype": "noteOn"
      },
      {
        "deltaTime": 240,
        "channel": 9,
        "type": "channel",
        "noteNumber": 38,
        "velocity": 0,
        "subtype": "noteOff"
      },
      {
        "deltaTime": 0,
        "channel": 9,
        "type": "channel",
        "noteNumber": 35,
        "velocity": 121,
        "subtype": "noteOn"
      },
      {
        "deltaTime": 0,
        "channel": 9,
        "type": "channel",
        "noteNumber": 46,
        "velocity": 121,
        "subtype": "noteOn"
      },
      {
        "deltaTime": 480,
        "channel": 9,
        "type": "channel",
        "noteNumber": 46,
        "velocity": 0,
        "subtype": "noteOff"
      },
      {
        "deltaTime": 0,
        "channel": 9,
        "type": "channel",
        "noteNumber": 35,
        "velocity": 0,
        "subtype": "noteOff"
      },
      {
        "deltaTime": 0,
        "channel": 9,
        "type": "channel",
        "noteNumber": 35,
        "velocity": 121,
        "subtype": "noteOn"
      },
      {
        "deltaTime": 0,
        "channel": 9,
        "type": "channel",
        "noteNumber": 46,
        "velocity": 121,
        "subtype": "noteOn"
      },
      {
        "deltaTime": 480,
        "channel": 9,
        "type": "channel",
        "noteNumber": 46,
        "velocity": 0,
        "subtype": "noteOff"
      },
      {
        "deltaTime": 0,
        "channel": 9,
        "type": "channel",
        "noteNumber": 35,
        "velocity": 0,
        "subtype": "noteOff"
      },
      {
        "deltaTime": 0,
        "channel": 9,
        "type": "channel",
        "noteNumber": 38,
        "velocity": 121,
        "subtype": "noteOn"
      },
      {
        "deltaTime": 240,
        "channel": 9,
        "type": "channel",
        "noteNumber": 38,
        "velocity": 0,
        "subtype": "noteOff"
      },
      {
        "deltaTime": 0,
        "channel": 9,
        "type": "channel",
        "noteNumber": 38,
        "velocity": 121,
        "subtype": "noteOn"
      },
      {
        "deltaTime": 240,
        "channel": 9,
        "type": "channel",
        "noteNumber": 38,
        "velocity": 0,
        "subtype": "noteOff"
      },
      {
        "deltaTime": 0,
        "channel": 9,
        "type": "channel",
        "noteNumber": 35,
        "velocity": 121,
        "subtype": "noteOn"
      },
      {
        "deltaTime": 0,
        "channel": 9,
        "type": "channel",
        "noteNumber": 46,
        "velocity": 121,
        "subtype": "noteOn"
      },
      {
        "deltaTime": 480,
        "channel": 9,
        "type": "channel",
        "noteNumber": 46,
        "velocity": 0,
        "subtype": "noteOff"
      },
      {
        "deltaTime": 0,
        "channel": 9,
        "type": "channel",
        "noteNumber": 35,
        "velocity": 0,
        "subtype": "noteOff"
      },
      {
        "deltaTime": 0,
        "channel": 9,
        "type": "channel",
        "noteNumber": 35,
        "velocity": 121,
        "subtype": "noteOn"
      },
      {
        "deltaTime": 0,
        "channel": 9,
        "type": "channel",
        "noteNumber": 46,
        "velocity": 121,
        "subtype": "noteOn"
      },
      {
        "deltaTime": 480,
        "channel": 9,
        "type": "channel",
        "noteNumber": 46,
        "velocity": 0,
        "subtype": "noteOff"
      },
      {
        "deltaTime": 0,
        "channel": 9,
        "type": "channel",
        "noteNumber": 35,
        "velocity": 0,
        "subtype": "noteOff"
      },
      {
        "deltaTime": 0,
        "channel": 9,
        "type": "channel",
        "noteNumber": 36,
        "velocity": 121,
        "subtype": "noteOn"
      },
      {
        "deltaTime": 0,
        "channel": 9,
        "type": "channel",
        "noteNumber": 43,
        "velocity": 121,
        "subtype": "noteOn"
      },
      {
        "deltaTime": 0,
        "channel": 9,
        "type": "channel",
        "noteNumber": 38,
        "velocity": 121,
        "subtype": "noteOn"
      },
      {
        "deltaTime": 960,
        "channel": 9,
        "type": "channel",
        "noteNumber": 38,
        "velocity": 0,
        "subtype": "noteOff"
      },
      {
        "deltaTime": 0,
        "channel": 9,
        "type": "channel",
        "noteNumber": 43,
        "velocity": 0,
        "subtype": "noteOff"
      },
      {
        "deltaTime": 0,
        "channel": 9,
        "type": "channel",
        "noteNumber": 36,
        "velocity": 0,
        "subtype": "noteOff"
      },
      {
        "deltaTime": 0,
        "channel": 9,
        "type": "channel",
        "noteNumber": 49,
        "velocity": 121,
        "subtype": "noteOn"
      },
      {
        "deltaTime": 0,
        "channel": 9,
        "type": "channel",
        "noteNumber": 35,
        "velocity": 121,
        "subtype": "noteOn"
      },
      {
        "deltaTime": 480,
        "channel": 9,
        "type": "channel",
        "noteNumber": 35,
        "velocity": 0,
        "subtype": "noteOff"
      },
      {
        "deltaTime": 0,
        "channel": 9,
        "type": "channel",
        "noteNumber": 49,
        "velocity": 0,
        "subtype": "noteOff"
      },
      {
        "deltaTime": 0,
        "channel": 9,
        "type": "channel",
        "noteNumber": 46,
        "velocity": 121,
        "subtype": "noteOn"
      },
      {
        "deltaTime": 480,
        "channel": 9,
        "type": "channel",
        "noteNumber": 46,
        "velocity": 0,
        "subtype": "noteOff"
      },
      {
        "deltaTime": 0,
        "channel": 9,
        "type": "channel",
        "noteNumber": 35,
        "velocity": 121,
        "subtype": "noteOn"
      },
      {
        "deltaTime": 0,
        "channel": 9,
        "type": "channel",
        "noteNumber": 46,
        "velocity": 121,
        "subtype": "noteOn"
      },
      {
        "deltaTime": 0,
        "channel": 9,
        "type": "channel",
        "noteNumber": 38,
        "velocity": 121,
        "subtype": "noteOn"
      },
      {
        "deltaTime": 480,
        "channel": 9,
        "type": "channel",
        "noteNumber": 38,
        "velocity": 0,
        "subtype": "noteOff"
      },
      {
        "deltaTime": 0,
        "channel": 9,
        "type": "channel",
        "noteNumber": 46,
        "velocity": 0,
        "subtype": "noteOff"
      },
      {
        "deltaTime": 0,
        "channel": 9,
        "type": "channel",
        "noteNumber": 35,
        "velocity": 0,
        "subtype": "noteOff"
      },
      {
        "deltaTime": 0,
        "channel": 9,
        "type": "channel",
        "noteNumber": 46,
        "velocity": 121,
        "subtype": "noteOn"
      },
      {
        "deltaTime": 480,
        "channel": 9,
        "type": "channel",
        "noteNumber": 46,
        "velocity": 0,
        "subtype": "noteOff"
      },
      {
        "deltaTime": 0,
        "channel": 9,
        "type": "channel",
        "noteNumber": 46,
        "velocity": 121,
        "subtype": "noteOn"
      },
      {
        "deltaTime": 0,
        "channel": 9,
        "type": "channel",
        "noteNumber": 35,
        "velocity": 121,
        "subtype": "noteOn"
      },
      {
        "deltaTime": 480,
        "channel": 9,
        "type": "channel",
        "noteNumber": 35,
        "velocity": 0,
        "subtype": "noteOff"
      },
      {
        "deltaTime": 0,
        "channel": 9,
        "type": "channel",
        "noteNumber": 46,
        "velocity": 0,
        "subtype": "noteOff"
      },
      {
        "deltaTime": 0,
        "channel": 9,
        "type": "channel",
        "noteNumber": 46,
        "velocity": 121,
        "subtype": "noteOn"
      },
      {
        "deltaTime": 480,
        "channel": 9,
        "type": "channel",
        "noteNumber": 46,
        "velocity": 0,
        "subtype": "noteOff"
      },
      {
        "deltaTime": 0,
        "channel": 9,
        "type": "channel",
        "noteNumber": 35,
        "velocity": 121,
        "subtype": "noteOn"
      },
      {
        "deltaTime": 0,
        "channel": 9,
        "type": "channel",
        "noteNumber": 46,
        "velocity": 121,
        "subtype": "noteOn"
      },
      {
        "deltaTime": 0,
        "channel": 9,
        "type": "channel",
        "noteNumber": 38,
        "velocity": 121,
        "subtype": "noteOn"
      },
      {
        "deltaTime": 480,
        "channel": 9,
        "type": "channel",
        "noteNumber": 38,
        "velocity": 0,
        "subtype": "noteOff"
      },
      {
        "deltaTime": 0,
        "channel": 9,
        "type": "channel",
        "noteNumber": 46,
        "velocity": 0,
        "subtype": "noteOff"
      },
      {
        "deltaTime": 0,
        "channel": 9,
        "type": "channel",
        "noteNumber": 35,
        "velocity": 0,
        "subtype": "noteOff"
      },
      {
        "deltaTime": 0,
        "channel": 9,
        "type": "channel",
        "noteNumber": 46,
        "velocity": 121,
        "subtype": "noteOn"
      },
      {
        "deltaTime": 480,
        "channel": 9,
        "type": "channel",
        "noteNumber": 46,
        "velocity": 0,
        "subtype": "noteOff"
      },
      {
        "deltaTime": 0,
        "channel": 9,
        "type": "channel",
        "noteNumber": 46,
        "velocity": 121,
        "subtype": "noteOn"
      },
      {
        "deltaTime": 0,
        "channel": 9,
        "type": "channel",
        "noteNumber": 35,
        "velocity": 121,
        "subtype": "noteOn"
      },
      {
        "deltaTime": 480,
        "channel": 9,
        "type": "channel",
        "noteNumber": 35,
        "velocity": 0,
        "subtype": "noteOff"
      },
      {
        "deltaTime": 0,
        "channel": 9,
        "type": "channel",
        "noteNumber": 46,
        "velocity": 0,
        "subtype": "noteOff"
      },
      {
        "deltaTime": 0,
        "channel": 9,
        "type": "channel",
        "noteNumber": 46,
        "velocity": 121,
        "subtype": "noteOn"
      },
      {
        "deltaTime": 480,
        "channel": 9,
        "type": "channel",
        "noteNumber": 46,
        "velocity": 0,
        "subtype": "noteOff"
      },
      {
        "deltaTime": 0,
        "channel": 9,
        "type": "channel",
        "noteNumber": 35,
        "velocity": 121,
        "subtype": "noteOn"
      },
      {
        "deltaTime": 0,
        "channel": 9,
        "type": "channel",
        "noteNumber": 46,
        "velocity": 121,
        "subtype": "noteOn"
      },
      {
        "deltaTime": 0,
        "channel": 9,
        "type": "channel",
        "noteNumber": 38,
        "velocity": 121,
        "subtype": "noteOn"
      },
      {
        "deltaTime": 480,
        "channel": 9,
        "type": "channel",
        "noteNumber": 38,
        "velocity": 0,
        "subtype": "noteOff"
      },
      {
        "deltaTime": 0,
        "channel": 9,
        "type": "channel",
        "noteNumber": 46,
        "velocity": 0,
        "subtype": "noteOff"
      },
      {
        "deltaTime": 0,
        "channel": 9,
        "type": "channel",
        "noteNumber": 35,
        "velocity": 0,
        "subtype": "noteOff"
      },
      {
        "deltaTime": 0,
        "channel": 9,
        "type": "channel",
        "noteNumber": 46,
        "velocity": 121,
        "subtype": "noteOn"
      },
      {
        "deltaTime": 480,
        "channel": 9,
        "type": "channel",
        "noteNumber": 46,
        "velocity": 0,
        "subtype": "noteOff"
      },
      {
        "deltaTime": 0,
        "channel": 9,
        "type": "channel",
        "noteNumber": 46,
        "velocity": 121,
        "subtype": "noteOn"
      },
      {
        "deltaTime": 0,
        "channel": 9,
        "type": "channel",
        "noteNumber": 35,
        "velocity": 121,
        "subtype": "noteOn"
      },
      {
        "deltaTime": 480,
        "channel": 9,
        "type": "channel",
        "noteNumber": 35,
        "velocity": 0,
        "subtype": "noteOff"
      },
      {
        "deltaTime": 0,
        "channel": 9,
        "type": "channel",
        "noteNumber": 46,
        "velocity": 0,
        "subtype": "noteOff"
      },
      {
        "deltaTime": 0,
        "channel": 9,
        "type": "channel",
        "noteNumber": 46,
        "velocity": 121,
        "subtype": "noteOn"
      },
      {
        "deltaTime": 480,
        "channel": 9,
        "type": "channel",
        "noteNumber": 46,
        "velocity": 0,
        "subtype": "noteOff"
      },
      {
        "deltaTime": 0,
        "channel": 9,
        "type": "channel",
        "noteNumber": 35,
        "velocity": 121,
        "subtype": "noteOn"
      },
      {
        "deltaTime": 0,
        "channel": 9,
        "type": "channel",
        "noteNumber": 46,
        "velocity": 121,
        "subtype": "noteOn"
      },
      {
        "deltaTime": 0,
        "channel": 9,
        "type": "channel",
        "noteNumber": 38,
        "velocity": 121,
        "subtype": "noteOn"
      },
      {
        "deltaTime": 480,
        "channel": 9,
        "type": "channel",
        "noteNumber": 38,
        "velocity": 0,
        "subtype": "noteOff"
      },
      {
        "deltaTime": 0,
        "channel": 9,
        "type": "channel",
        "noteNumber": 46,
        "velocity": 0,
        "subtype": "noteOff"
      },
      {
        "deltaTime": 0,
        "channel": 9,
        "type": "channel",
        "noteNumber": 35,
        "velocity": 0,
        "subtype": "noteOff"
      },
      {
        "deltaTime": 0,
        "channel": 9,
        "type": "channel",
        "noteNumber": 46,
        "velocity": 121,
        "subtype": "noteOn"
      },
      {
        "deltaTime": 480,
        "channel": 9,
        "type": "channel",
        "noteNumber": 46,
        "velocity": 0,
        "subtype": "noteOff"
      },
      {
        "deltaTime": 0,
        "channel": 9,
        "type": "channel",
        "noteNumber": 46,
        "velocity": 121,
        "subtype": "noteOn"
      },
      {
        "deltaTime": 0,
        "channel": 9,
        "type": "channel",
        "noteNumber": 35,
        "velocity": 121,
        "subtype": "noteOn"
      },
      {
        "deltaTime": 480,
        "channel": 9,
        "type": "channel",
        "noteNumber": 35,
        "velocity": 0,
        "subtype": "noteOff"
      },
      {
        "deltaTime": 0,
        "channel": 9,
        "type": "channel",
        "noteNumber": 46,
        "velocity": 0,
        "subtype": "noteOff"
      },
      {
        "deltaTime": 0,
        "channel": 9,
        "type": "channel",
        "noteNumber": 46,
        "velocity": 121,
        "subtype": "noteOn"
      },
      {
        "deltaTime": 480,
        "channel": 9,
        "type": "channel",
        "noteNumber": 46,
        "velocity": 0,
        "subtype": "noteOff"
      },
      {
        "deltaTime": 0,
        "channel": 9,
        "type": "channel",
        "noteNumber": 35,
        "velocity": 121,
        "subtype": "noteOn"
      },
      {
        "deltaTime": 0,
        "channel": 9,
        "type": "channel",
        "noteNumber": 46,
        "velocity": 121,
        "subtype": "noteOn"
      },
      {
        "deltaTime": 0,
        "channel": 9,
        "type": "channel",
        "noteNumber": 38,
        "velocity": 121,
        "subtype": "noteOn"
      },
      {
        "deltaTime": 480,
        "channel": 9,
        "type": "channel",
        "noteNumber": 38,
        "velocity": 0,
        "subtype": "noteOff"
      },
      {
        "deltaTime": 0,
        "channel": 9,
        "type": "channel",
        "noteNumber": 46,
        "velocity": 0,
        "subtype": "noteOff"
      },
      {
        "deltaTime": 0,
        "channel": 9,
        "type": "channel",
        "noteNumber": 35,
        "velocity": 0,
        "subtype": "noteOff"
      },
      {
        "deltaTime": 0,
        "channel": 9,
        "type": "channel",
        "noteNumber": 46,
        "velocity": 121,
        "subtype": "noteOn"
      },
      {
        "deltaTime": 480,
        "channel": 9,
        "type": "channel",
        "noteNumber": 46,
        "velocity": 0,
        "subtype": "noteOff"
      },
      {
        "deltaTime": 0,
        "channel": 9,
        "type": "channel",
        "noteNumber": 46,
        "velocity": 121,
        "subtype": "noteOn"
      },
      {
        "deltaTime": 0,
        "channel": 9,
        "type": "channel",
        "noteNumber": 35,
        "velocity": 121,
        "subtype": "noteOn"
      },
      {
        "deltaTime": 480,
        "channel": 9,
        "type": "channel",
        "noteNumber": 35,
        "velocity": 0,
        "subtype": "noteOff"
      },
      {
        "deltaTime": 0,
        "channel": 9,
        "type": "channel",
        "noteNumber": 46,
        "velocity": 0,
        "subtype": "noteOff"
      },
      {
        "deltaTime": 0,
        "channel": 9,
        "type": "channel",
        "noteNumber": 46,
        "velocity": 121,
        "subtype": "noteOn"
      },
      {
        "deltaTime": 480,
        "channel": 9,
        "type": "channel",
        "noteNumber": 46,
        "velocity": 0,
        "subtype": "noteOff"
      },
      {
        "deltaTime": 0,
        "channel": 9,
        "type": "channel",
        "noteNumber": 35,
        "velocity": 121,
        "subtype": "noteOn"
      },
      {
        "deltaTime": 0,
        "channel": 9,
        "type": "channel",
        "noteNumber": 46,
        "velocity": 121,
        "subtype": "noteOn"
      },
      {
        "deltaTime": 0,
        "channel": 9,
        "type": "channel",
        "noteNumber": 38,
        "velocity": 121,
        "subtype": "noteOn"
      },
      {
        "deltaTime": 480,
        "channel": 9,
        "type": "channel",
        "noteNumber": 38,
        "velocity": 0,
        "subtype": "noteOff"
      },
      {
        "deltaTime": 0,
        "channel": 9,
        "type": "channel",
        "noteNumber": 46,
        "velocity": 0,
        "subtype": "noteOff"
      },
      {
        "deltaTime": 0,
        "channel": 9,
        "type": "channel",
        "noteNumber": 35,
        "velocity": 0,
        "subtype": "noteOff"
      },
      {
        "deltaTime": 0,
        "channel": 9,
        "type": "channel",
        "noteNumber": 46,
        "velocity": 121,
        "subtype": "noteOn"
      },
      {
        "deltaTime": 480,
        "channel": 9,
        "type": "channel",
        "noteNumber": 46,
        "velocity": 0,
        "subtype": "noteOff"
      },
      {
        "deltaTime": 0,
        "channel": 9,
        "type": "channel",
        "noteNumber": 46,
        "velocity": 121,
        "subtype": "noteOn"
      },
      {
        "deltaTime": 0,
        "channel": 9,
        "type": "channel",
        "noteNumber": 35,
        "velocity": 121,
        "subtype": "noteOn"
      },
      {
        "deltaTime": 480,
        "channel": 9,
        "type": "channel",
        "noteNumber": 35,
        "velocity": 0,
        "subtype": "noteOff"
      },
      {
        "deltaTime": 0,
        "channel": 9,
        "type": "channel",
        "noteNumber": 46,
        "velocity": 0,
        "subtype": "noteOff"
      },
      {
        "deltaTime": 0,
        "channel": 9,
        "type": "channel",
        "noteNumber": 46,
        "velocity": 121,
        "subtype": "noteOn"
      },
      {
        "deltaTime": 480,
        "channel": 9,
        "type": "channel",
        "noteNumber": 46,
        "velocity": 0,
        "subtype": "noteOff"
      },
      {
        "deltaTime": 0,
        "channel": 9,
        "type": "channel",
        "noteNumber": 35,
        "velocity": 121,
        "subtype": "noteOn"
      },
      {
        "deltaTime": 0,
        "channel": 9,
        "type": "channel",
        "noteNumber": 46,
        "velocity": 121,
        "subtype": "noteOn"
      },
      {
        "deltaTime": 0,
        "channel": 9,
        "type": "channel",
        "noteNumber": 38,
        "velocity": 121,
        "subtype": "noteOn"
      },
      {
        "deltaTime": 480,
        "channel": 9,
        "type": "channel",
        "noteNumber": 38,
        "velocity": 0,
        "subtype": "noteOff"
      },
      {
        "deltaTime": 0,
        "channel": 9,
        "type": "channel",
        "noteNumber": 46,
        "velocity": 0,
        "subtype": "noteOff"
      },
      {
        "deltaTime": 0,
        "channel": 9,
        "type": "channel",
        "noteNumber": 35,
        "velocity": 0,
        "subtype": "noteOff"
      },
      {
        "deltaTime": 0,
        "channel": 9,
        "type": "channel",
        "noteNumber": 46,
        "velocity": 121,
        "subtype": "noteOn"
      },
      {
        "deltaTime": 480,
        "channel": 9,
        "type": "channel",
        "noteNumber": 46,
        "velocity": 0,
        "subtype": "noteOff"
      },
      {
        "deltaTime": 0,
        "channel": 9,
        "type": "channel",
        "noteNumber": 46,
        "velocity": 121,
        "subtype": "noteOn"
      },
      {
        "deltaTime": 0,
        "channel": 9,
        "type": "channel",
        "noteNumber": 35,
        "velocity": 121,
        "subtype": "noteOn"
      },
      {
        "deltaTime": 480,
        "channel": 9,
        "type": "channel",
        "noteNumber": 35,
        "velocity": 0,
        "subtype": "noteOff"
      },
      {
        "deltaTime": 0,
        "channel": 9,
        "type": "channel",
        "noteNumber": 46,
        "velocity": 0,
        "subtype": "noteOff"
      },
      {
        "deltaTime": 0,
        "channel": 9,
        "type": "channel",
        "noteNumber": 46,
        "velocity": 121,
        "subtype": "noteOn"
      },
      {
        "deltaTime": 480,
        "channel": 9,
        "type": "channel",
        "noteNumber": 46,
        "velocity": 0,
        "subtype": "noteOff"
      },
      {
        "deltaTime": 0,
        "channel": 9,
        "type": "channel",
        "noteNumber": 36,
        "velocity": 121,
        "subtype": "noteOn"
      },
      {
        "deltaTime": 0,
        "channel": 9,
        "type": "channel",
        "noteNumber": 35,
        "velocity": 121,
        "subtype": "noteOn"
      },
      {
        "deltaTime": 0,
        "channel": 9,
        "type": "channel",
        "noteNumber": 43,
        "velocity": 121,
        "subtype": "noteOn"
      },
      {
        "deltaTime": 0,
        "channel": 9,
        "type": "channel",
        "noteNumber": 38,
        "velocity": 121,
        "subtype": "noteOn"
      },
      {
        "deltaTime": 960,
        "channel": 9,
        "type": "channel",
        "noteNumber": 38,
        "velocity": 0,
        "subtype": "noteOff"
      },
      {
        "deltaTime": 0,
        "channel": 9,
        "type": "channel",
        "noteNumber": 36,
        "velocity": 0,
        "subtype": "noteOff"
      },
      {
        "deltaTime": 0,
        "channel": 9,
        "type": "channel",
        "noteNumber": 35,
        "velocity": 0,
        "subtype": "noteOff"
      },
      {
        "deltaTime": 0,
        "channel": 9,
        "type": "channel",
        "noteNumber": 43,
        "velocity": 0,
        "subtype": "noteOff"
      },
      {
        "deltaTime": 0,
        "channel": 9,
        "type": "channel",
        "noteNumber": 57,
        "velocity": 121,
        "subtype": "noteOn"
      },
      {
        "deltaTime": 0,
        "channel": 9,
        "type": "channel",
        "noteNumber": 35,
        "velocity": 121,
        "subtype": "noteOn"
      },
      {
        "deltaTime": 480,
        "channel": 9,
        "type": "channel",
        "noteNumber": 35,
        "velocity": 0,
        "subtype": "noteOff"
      },
      {
        "deltaTime": 0,
        "channel": 9,
        "type": "channel",
        "noteNumber": 57,
        "velocity": 0,
        "subtype": "noteOff"
      },
      {
        "deltaTime": 480,
        "channel": 9,
        "type": "channel",
        "noteNumber": 35,
        "velocity": 121,
        "subtype": "noteOn"
      },
      {
        "deltaTime": 0,
        "channel": 9,
        "type": "channel",
        "noteNumber": 46,
        "velocity": 121,
        "subtype": "noteOn"
      },
      {
        "deltaTime": 0,
        "channel": 9,
        "type": "channel",
        "noteNumber": 38,
        "velocity": 121,
        "subtype": "noteOn"
      },
      {
        "deltaTime": 480,
        "channel": 9,
        "type": "channel",
        "noteNumber": 38,
        "velocity": 0,
        "subtype": "noteOff"
      },
      {
        "deltaTime": 0,
        "channel": 9,
        "type": "channel",
        "noteNumber": 46,
        "velocity": 0,
        "subtype": "noteOff"
      },
      {
        "deltaTime": 0,
        "channel": 9,
        "type": "channel",
        "noteNumber": 35,
        "velocity": 0,
        "subtype": "noteOff"
      },
      {
        "deltaTime": 0,
        "channel": 9,
        "type": "channel",
        "noteNumber": 46,
        "velocity": 121,
        "subtype": "noteOn"
      },
      {
        "deltaTime": 480,
        "channel": 9,
        "type": "channel",
        "noteNumber": 46,
        "velocity": 0,
        "subtype": "noteOff"
      },
      {
        "deltaTime": 0,
        "channel": 9,
        "type": "channel",
        "noteNumber": 46,
        "velocity": 121,
        "subtype": "noteOn"
      },
      {
        "deltaTime": 0,
        "channel": 9,
        "type": "channel",
        "noteNumber": 35,
        "velocity": 121,
        "subtype": "noteOn"
      },
      {
        "deltaTime": 480,
        "channel": 9,
        "type": "channel",
        "noteNumber": 35,
        "velocity": 0,
        "subtype": "noteOff"
      },
      {
        "deltaTime": 0,
        "channel": 9,
        "type": "channel",
        "noteNumber": 46,
        "velocity": 0,
        "subtype": "noteOff"
      },
      {
        "deltaTime": 0,
        "channel": 9,
        "type": "channel",
        "noteNumber": 46,
        "velocity": 121,
        "subtype": "noteOn"
      },
      {
        "deltaTime": 480,
        "channel": 9,
        "type": "channel",
        "noteNumber": 46,
        "velocity": 0,
        "subtype": "noteOff"
      },
      {
        "deltaTime": 0,
        "channel": 9,
        "type": "channel",
        "noteNumber": 35,
        "velocity": 121,
        "subtype": "noteOn"
      },
      {
        "deltaTime": 0,
        "channel": 9,
        "type": "channel",
        "noteNumber": 46,
        "velocity": 121,
        "subtype": "noteOn"
      },
      {
        "deltaTime": 0,
        "channel": 9,
        "type": "channel",
        "noteNumber": 38,
        "velocity": 121,
        "subtype": "noteOn"
      },
      {
        "deltaTime": 480,
        "channel": 9,
        "type": "channel",
        "noteNumber": 38,
        "velocity": 0,
        "subtype": "noteOff"
      },
      {
        "deltaTime": 0,
        "channel": 9,
        "type": "channel",
        "noteNumber": 46,
        "velocity": 0,
        "subtype": "noteOff"
      },
      {
        "deltaTime": 0,
        "channel": 9,
        "type": "channel",
        "noteNumber": 35,
        "velocity": 0,
        "subtype": "noteOff"
      },
      {
        "deltaTime": 0,
        "channel": 9,
        "type": "channel",
        "noteNumber": 46,
        "velocity": 121,
        "subtype": "noteOn"
      },
      {
        "deltaTime": 480,
        "channel": 9,
        "type": "channel",
        "noteNumber": 46,
        "velocity": 0,
        "subtype": "noteOff"
      },
      {
        "deltaTime": 0,
        "channel": 9,
        "type": "channel",
        "noteNumber": 46,
        "velocity": 121,
        "subtype": "noteOn"
      },
      {
        "deltaTime": 0,
        "channel": 9,
        "type": "channel",
        "noteNumber": 35,
        "velocity": 121,
        "subtype": "noteOn"
      },
      {
        "deltaTime": 480,
        "channel": 9,
        "type": "channel",
        "noteNumber": 35,
        "velocity": 0,
        "subtype": "noteOff"
      },
      {
        "deltaTime": 0,
        "channel": 9,
        "type": "channel",
        "noteNumber": 46,
        "velocity": 0,
        "subtype": "noteOff"
      },
      {
        "deltaTime": 0,
        "channel": 9,
        "type": "channel",
        "noteNumber": 46,
        "velocity": 121,
        "subtype": "noteOn"
      },
      {
        "deltaTime": 480,
        "channel": 9,
        "type": "channel",
        "noteNumber": 46,
        "velocity": 0,
        "subtype": "noteOff"
      },
      {
        "deltaTime": 0,
        "channel": 9,
        "type": "channel",
        "noteNumber": 35,
        "velocity": 121,
        "subtype": "noteOn"
      },
      {
        "deltaTime": 0,
        "channel": 9,
        "type": "channel",
        "noteNumber": 46,
        "velocity": 121,
        "subtype": "noteOn"
      },
      {
        "deltaTime": 0,
        "channel": 9,
        "type": "channel",
        "noteNumber": 38,
        "velocity": 121,
        "subtype": "noteOn"
      },
      {
        "deltaTime": 480,
        "channel": 9,
        "type": "channel",
        "noteNumber": 38,
        "velocity": 0,
        "subtype": "noteOff"
      },
      {
        "deltaTime": 0,
        "channel": 9,
        "type": "channel",
        "noteNumber": 46,
        "velocity": 0,
        "subtype": "noteOff"
      },
      {
        "deltaTime": 0,
        "channel": 9,
        "type": "channel",
        "noteNumber": 35,
        "velocity": 0,
        "subtype": "noteOff"
      },
      {
        "deltaTime": 0,
        "channel": 9,
        "type": "channel",
        "noteNumber": 46,
        "velocity": 121,
        "subtype": "noteOn"
      },
      {
        "deltaTime": 480,
        "channel": 9,
        "type": "channel",
        "noteNumber": 46,
        "velocity": 0,
        "subtype": "noteOff"
      },
      {
        "deltaTime": 0,
        "channel": 9,
        "type": "channel",
        "noteNumber": 46,
        "velocity": 121,
        "subtype": "noteOn"
      },
      {
        "deltaTime": 0,
        "channel": 9,
        "type": "channel",
        "noteNumber": 35,
        "velocity": 121,
        "subtype": "noteOn"
      },
      {
        "deltaTime": 480,
        "channel": 9,
        "type": "channel",
        "noteNumber": 35,
        "velocity": 0,
        "subtype": "noteOff"
      },
      {
        "deltaTime": 0,
        "channel": 9,
        "type": "channel",
        "noteNumber": 46,
        "velocity": 0,
        "subtype": "noteOff"
      },
      {
        "deltaTime": 0,
        "channel": 9,
        "type": "channel",
        "noteNumber": 46,
        "velocity": 121,
        "subtype": "noteOn"
      },
      {
        "deltaTime": 480,
        "channel": 9,
        "type": "channel",
        "noteNumber": 46,
        "velocity": 0,
        "subtype": "noteOff"
      },
      {
        "deltaTime": 0,
        "channel": 9,
        "type": "channel",
        "noteNumber": 35,
        "velocity": 121,
        "subtype": "noteOn"
      },
      {
        "deltaTime": 0,
        "channel": 9,
        "type": "channel",
        "noteNumber": 46,
        "velocity": 121,
        "subtype": "noteOn"
      },
      {
        "deltaTime": 0,
        "channel": 9,
        "type": "channel",
        "noteNumber": 38,
        "velocity": 121,
        "subtype": "noteOn"
      },
      {
        "deltaTime": 480,
        "channel": 9,
        "type": "channel",
        "noteNumber": 38,
        "velocity": 0,
        "subtype": "noteOff"
      },
      {
        "deltaTime": 0,
        "channel": 9,
        "type": "channel",
        "noteNumber": 46,
        "velocity": 0,
        "subtype": "noteOff"
      },
      {
        "deltaTime": 0,
        "channel": 9,
        "type": "channel",
        "noteNumber": 35,
        "velocity": 0,
        "subtype": "noteOff"
      },
      {
        "deltaTime": 0,
        "channel": 9,
        "type": "channel",
        "noteNumber": 46,
        "velocity": 121,
        "subtype": "noteOn"
      },
      {
        "deltaTime": 480,
        "channel": 9,
        "type": "channel",
        "noteNumber": 46,
        "velocity": 0,
        "subtype": "noteOff"
      },
      {
        "deltaTime": 0,
        "channel": 9,
        "type": "channel",
        "noteNumber": 46,
        "velocity": 121,
        "subtype": "noteOn"
      },
      {
        "deltaTime": 0,
        "channel": 9,
        "type": "channel",
        "noteNumber": 35,
        "velocity": 121,
        "subtype": "noteOn"
      },
      {
        "deltaTime": 480,
        "channel": 9,
        "type": "channel",
        "noteNumber": 35,
        "velocity": 0,
        "subtype": "noteOff"
      },
      {
        "deltaTime": 0,
        "channel": 9,
        "type": "channel",
        "noteNumber": 46,
        "velocity": 0,
        "subtype": "noteOff"
      },
      {
        "deltaTime": 0,
        "channel": 9,
        "type": "channel",
        "noteNumber": 46,
        "velocity": 121,
        "subtype": "noteOn"
      },
      {
        "deltaTime": 480,
        "channel": 9,
        "type": "channel",
        "noteNumber": 46,
        "velocity": 0,
        "subtype": "noteOff"
      },
      {
        "deltaTime": 0,
        "channel": 9,
        "type": "channel",
        "noteNumber": 35,
        "velocity": 121,
        "subtype": "noteOn"
      },
      {
        "deltaTime": 0,
        "channel": 9,
        "type": "channel",
        "noteNumber": 46,
        "velocity": 121,
        "subtype": "noteOn"
      },
      {
        "deltaTime": 0,
        "channel": 9,
        "type": "channel",
        "noteNumber": 38,
        "velocity": 121,
        "subtype": "noteOn"
      },
      {
        "deltaTime": 480,
        "channel": 9,
        "type": "channel",
        "noteNumber": 38,
        "velocity": 0,
        "subtype": "noteOff"
      },
      {
        "deltaTime": 0,
        "channel": 9,
        "type": "channel",
        "noteNumber": 46,
        "velocity": 0,
        "subtype": "noteOff"
      },
      {
        "deltaTime": 0,
        "channel": 9,
        "type": "channel",
        "noteNumber": 35,
        "velocity": 0,
        "subtype": "noteOff"
      },
      {
        "deltaTime": 0,
        "channel": 9,
        "type": "channel",
        "noteNumber": 46,
        "velocity": 121,
        "subtype": "noteOn"
      },
      {
        "deltaTime": 480,
        "channel": 9,
        "type": "channel",
        "noteNumber": 46,
        "velocity": 0,
        "subtype": "noteOff"
      },
      {
        "deltaTime": 0,
        "channel": 9,
        "type": "channel",
        "noteNumber": 46,
        "velocity": 121,
        "subtype": "noteOn"
      },
      {
        "deltaTime": 0,
        "channel": 9,
        "type": "channel",
        "noteNumber": 35,
        "velocity": 121,
        "subtype": "noteOn"
      },
      {
        "deltaTime": 480,
        "channel": 9,
        "type": "channel",
        "noteNumber": 35,
        "velocity": 0,
        "subtype": "noteOff"
      },
      {
        "deltaTime": 0,
        "channel": 9,
        "type": "channel",
        "noteNumber": 46,
        "velocity": 0,
        "subtype": "noteOff"
      },
      {
        "deltaTime": 0,
        "channel": 9,
        "type": "channel",
        "noteNumber": 46,
        "velocity": 121,
        "subtype": "noteOn"
      },
      {
        "deltaTime": 480,
        "channel": 9,
        "type": "channel",
        "noteNumber": 46,
        "velocity": 0,
        "subtype": "noteOff"
      },
      {
        "deltaTime": 0,
        "channel": 9,
        "type": "channel",
        "noteNumber": 35,
        "velocity": 121,
        "subtype": "noteOn"
      },
      {
        "deltaTime": 0,
        "channel": 9,
        "type": "channel",
        "noteNumber": 46,
        "velocity": 121,
        "subtype": "noteOn"
      },
      {
        "deltaTime": 0,
        "channel": 9,
        "type": "channel",
        "noteNumber": 38,
        "velocity": 121,
        "subtype": "noteOn"
      },
      {
        "deltaTime": 480,
        "channel": 9,
        "type": "channel",
        "noteNumber": 38,
        "velocity": 0,
        "subtype": "noteOff"
      },
      {
        "deltaTime": 0,
        "channel": 9,
        "type": "channel",
        "noteNumber": 46,
        "velocity": 0,
        "subtype": "noteOff"
      },
      {
        "deltaTime": 0,
        "channel": 9,
        "type": "channel",
        "noteNumber": 35,
        "velocity": 0,
        "subtype": "noteOff"
      },
      {
        "deltaTime": 0,
        "channel": 9,
        "type": "channel",
        "noteNumber": 46,
        "velocity": 121,
        "subtype": "noteOn"
      },
      {
        "deltaTime": 480,
        "channel": 9,
        "type": "channel",
        "noteNumber": 46,
        "velocity": 0,
        "subtype": "noteOff"
      },
      {
        "deltaTime": 0,
        "channel": 9,
        "type": "channel",
        "noteNumber": 46,
        "velocity": 121,
        "subtype": "noteOn"
      },
      {
        "deltaTime": 0,
        "channel": 9,
        "type": "channel",
        "noteNumber": 35,
        "velocity": 121,
        "subtype": "noteOn"
      },
      {
        "deltaTime": 480,
        "channel": 9,
        "type": "channel",
        "noteNumber": 35,
        "velocity": 0,
        "subtype": "noteOff"
      },
      {
        "deltaTime": 0,
        "channel": 9,
        "type": "channel",
        "noteNumber": 46,
        "velocity": 0,
        "subtype": "noteOff"
      },
      {
        "deltaTime": 0,
        "channel": 9,
        "type": "channel",
        "noteNumber": 46,
        "velocity": 121,
        "subtype": "noteOn"
      },
      {
        "deltaTime": 480,
        "channel": 9,
        "type": "channel",
        "noteNumber": 46,
        "velocity": 0,
        "subtype": "noteOff"
      },
      {
        "deltaTime": 0,
        "channel": 9,
        "type": "channel",
        "noteNumber": 35,
        "velocity": 121,
        "subtype": "noteOn"
      },
      {
        "deltaTime": 0,
        "channel": 9,
        "type": "channel",
        "noteNumber": 46,
        "velocity": 121,
        "subtype": "noteOn"
      },
      {
        "deltaTime": 0,
        "channel": 9,
        "type": "channel",
        "noteNumber": 38,
        "velocity": 121,
        "subtype": "noteOn"
      },
      {
        "deltaTime": 480,
        "channel": 9,
        "type": "channel",
        "noteNumber": 38,
        "velocity": 0,
        "subtype": "noteOff"
      },
      {
        "deltaTime": 0,
        "channel": 9,
        "type": "channel",
        "noteNumber": 46,
        "velocity": 0,
        "subtype": "noteOff"
      },
      {
        "deltaTime": 0,
        "channel": 9,
        "type": "channel",
        "noteNumber": 35,
        "velocity": 0,
        "subtype": "noteOff"
      },
      {
        "deltaTime": 0,
        "channel": 9,
        "type": "channel",
        "noteNumber": 46,
        "velocity": 121,
        "subtype": "noteOn"
      },
      {
        "deltaTime": 480,
        "channel": 9,
        "type": "channel",
        "noteNumber": 46,
        "velocity": 0,
        "subtype": "noteOff"
      },
      {
        "deltaTime": 0,
        "channel": 9,
        "type": "channel",
        "noteNumber": 46,
        "velocity": 121,
        "subtype": "noteOn"
      },
      {
        "deltaTime": 0,
        "channel": 9,
        "type": "channel",
        "noteNumber": 35,
        "velocity": 121,
        "subtype": "noteOn"
      },
      {
        "deltaTime": 480,
        "channel": 9,
        "type": "channel",
        "noteNumber": 35,
        "velocity": 0,
        "subtype": "noteOff"
      },
      {
        "deltaTime": 0,
        "channel": 9,
        "type": "channel",
        "noteNumber": 46,
        "velocity": 0,
        "subtype": "noteOff"
      },
      {
        "deltaTime": 0,
        "channel": 9,
        "type": "channel",
        "noteNumber": 36,
        "velocity": 121,
        "subtype": "noteOn"
      },
      {
        "deltaTime": 0,
        "channel": 9,
        "type": "channel",
        "noteNumber": 43,
        "velocity": 121,
        "subtype": "noteOn"
      },
      {
        "deltaTime": 0,
        "channel": 9,
        "type": "channel",
        "noteNumber": 38,
        "velocity": 121,
        "subtype": "noteOn"
      },
      {
        "deltaTime": 480,
        "channel": 9,
        "type": "channel",
        "noteNumber": 38,
        "velocity": 0,
        "subtype": "noteOff"
      },
      {
        "deltaTime": 0,
        "channel": 9,
        "type": "channel",
        "noteNumber": 43,
        "velocity": 0,
        "subtype": "noteOff"
      },
      {
        "deltaTime": 0,
        "channel": 9,
        "type": "channel",
        "noteNumber": 36,
        "velocity": 0,
        "subtype": "noteOff"
      },
      {
        "deltaTime": 0,
        "channel": 9,
        "type": "channel",
        "noteNumber": 36,
        "velocity": 121,
        "subtype": "noteOn"
      },
      {
        "deltaTime": 0,
        "channel": 9,
        "type": "channel",
        "noteNumber": 43,
        "velocity": 121,
        "subtype": "noteOn"
      },
      {
        "deltaTime": 0,
        "channel": 9,
        "type": "channel",
        "noteNumber": 38,
        "velocity": 121,
        "subtype": "noteOn"
      },
      {
        "deltaTime": 480,
        "channel": 9,
        "type": "channel",
        "noteNumber": 38,
        "velocity": 0,
        "subtype": "noteOff"
      },
      {
        "deltaTime": 0,
        "channel": 9,
        "type": "channel",
        "noteNumber": 43,
        "velocity": 0,
        "subtype": "noteOff"
      },
      {
        "deltaTime": 0,
        "channel": 9,
        "type": "channel",
        "noteNumber": 36,
        "velocity": 0,
        "subtype": "noteOff"
      },
      {
        "deltaTime": 480,
        "channel": 9,
        "type": "channel",
        "noteNumber": 35,
        "velocity": 121,
        "subtype": "noteOn"
      },
      {
        "deltaTime": 0,
        "channel": 9,
        "type": "channel",
        "noteNumber": 49,
        "velocity": 121,
        "subtype": "noteOn"
      },
      {
        "deltaTime": 960,
        "channel": 9,
        "type": "channel",
        "noteNumber": 49,
        "velocity": 0,
        "subtype": "noteOff"
      },
      {
        "deltaTime": 0,
        "channel": 9,
        "type": "channel",
        "noteNumber": 35,
        "velocity": 0,
        "subtype": "noteOff"
      },
      {
        "deltaTime": 0,
        "channel": 9,
        "type": "channel",
        "noteNumber": 35,
        "velocity": 121,
        "subtype": "noteOn"
      },
      {
        "deltaTime": 0,
        "channel": 9,
        "type": "channel",
        "noteNumber": 38,
        "velocity": 121,
        "subtype": "noteOn"
      },
      {
        "deltaTime": 0,
        "channel": 9,
        "type": "channel",
        "noteNumber": 49,
        "velocity": 121,
        "subtype": "noteOn"
      },
      {
        "deltaTime": 960,
        "channel": 9,
        "type": "channel",
        "noteNumber": 49,
        "velocity": 0,
        "subtype": "noteOff"
      },
      {
        "deltaTime": 0,
        "channel": 9,
        "type": "channel",
        "noteNumber": 38,
        "velocity": 0,
        "subtype": "noteOff"
      },
      {
        "deltaTime": 0,
        "channel": 9,
        "type": "channel",
        "noteNumber": 35,
        "velocity": 0,
        "subtype": "noteOff"
      },
      {
        "deltaTime": 0,
        "channel": 9,
        "type": "channel",
        "noteNumber": 35,
        "velocity": 121,
        "subtype": "noteOn"
      },
      {
        "deltaTime": 0,
        "channel": 9,
        "type": "channel",
        "noteNumber": 49,
        "velocity": 121,
        "subtype": "noteOn"
      },
      {
        "deltaTime": 960,
        "channel": 9,
        "type": "channel",
        "noteNumber": 49,
        "velocity": 0,
        "subtype": "noteOff"
      },
      {
        "deltaTime": 0,
        "channel": 9,
        "type": "channel",
        "noteNumber": 35,
        "velocity": 0,
        "subtype": "noteOff"
      },
      {
        "deltaTime": 0,
        "channel": 9,
        "type": "channel",
        "noteNumber": 38,
        "velocity": 121,
        "subtype": "noteOn"
      },
      {
        "deltaTime": 0,
        "channel": 9,
        "type": "channel",
        "noteNumber": 35,
        "velocity": 121,
        "subtype": "noteOn"
      },
      {
        "deltaTime": 0,
        "channel": 9,
        "type": "channel",
        "noteNumber": 49,
        "velocity": 121,
        "subtype": "noteOn"
      },
      {
        "deltaTime": 960,
        "channel": 9,
        "type": "channel",
        "noteNumber": 49,
        "velocity": 0,
        "subtype": "noteOff"
      },
      {
        "deltaTime": 0,
        "channel": 9,
        "type": "channel",
        "noteNumber": 35,
        "velocity": 0,
        "subtype": "noteOff"
      },
      {
        "deltaTime": 0,
        "channel": 9,
        "type": "channel",
        "noteNumber": 38,
        "velocity": 0,
        "subtype": "noteOff"
      },
      {
        "deltaTime": 0,
        "channel": 9,
        "type": "channel",
        "noteNumber": 35,
        "velocity": 121,
        "subtype": "noteOn"
      },
      {
        "deltaTime": 0,
        "channel": 9,
        "type": "channel",
        "noteNumber": 49,
        "velocity": 121,
        "subtype": "noteOn"
      },
      {
        "deltaTime": 960,
        "channel": 9,
        "type": "channel",
        "noteNumber": 49,
        "velocity": 0,
        "subtype": "noteOff"
      },
      {
        "deltaTime": 0,
        "channel": 9,
        "type": "channel",
        "noteNumber": 35,
        "velocity": 0,
        "subtype": "noteOff"
      },
      {
        "deltaTime": 0,
        "channel": 9,
        "type": "channel",
        "noteNumber": 35,
        "velocity": 121,
        "subtype": "noteOn"
      },
      {
        "deltaTime": 0,
        "channel": 9,
        "type": "channel",
        "noteNumber": 38,
        "velocity": 121,
        "subtype": "noteOn"
      },
      {
        "deltaTime": 0,
        "channel": 9,
        "type": "channel",
        "noteNumber": 49,
        "velocity": 121,
        "subtype": "noteOn"
      },
      {
        "deltaTime": 960,
        "channel": 9,
        "type": "channel",
        "noteNumber": 49,
        "velocity": 0,
        "subtype": "noteOff"
      },
      {
        "deltaTime": 0,
        "channel": 9,
        "type": "channel",
        "noteNumber": 38,
        "velocity": 0,
        "subtype": "noteOff"
      },
      {
        "deltaTime": 0,
        "channel": 9,
        "type": "channel",
        "noteNumber": 35,
        "velocity": 0,
        "subtype": "noteOff"
      },
      {
        "deltaTime": 0,
        "channel": 9,
        "type": "channel",
        "noteNumber": 35,
        "velocity": 121,
        "subtype": "noteOn"
      },
      {
        "deltaTime": 0,
        "channel": 9,
        "type": "channel",
        "noteNumber": 49,
        "velocity": 121,
        "subtype": "noteOn"
      },
      {
        "deltaTime": 960,
        "channel": 9,
        "type": "channel",
        "noteNumber": 49,
        "velocity": 0,
        "subtype": "noteOff"
      },
      {
        "deltaTime": 0,
        "channel": 9,
        "type": "channel",
        "noteNumber": 35,
        "velocity": 0,
        "subtype": "noteOff"
      },
      {
        "deltaTime": 0,
        "channel": 9,
        "type": "channel",
        "noteNumber": 38,
        "velocity": 121,
        "subtype": "noteOn"
      },
      {
        "deltaTime": 0,
        "channel": 9,
        "type": "channel",
        "noteNumber": 35,
        "velocity": 121,
        "subtype": "noteOn"
      },
      {
        "deltaTime": 0,
        "channel": 9,
        "type": "channel",
        "noteNumber": 49,
        "velocity": 121,
        "subtype": "noteOn"
      },
      {
        "deltaTime": 960,
        "channel": 9,
        "type": "channel",
        "noteNumber": 49,
        "velocity": 0,
        "subtype": "noteOff"
      },
      {
        "deltaTime": 0,
        "channel": 9,
        "type": "channel",
        "noteNumber": 35,
        "velocity": 0,
        "subtype": "noteOff"
      },
      {
        "deltaTime": 0,
        "channel": 9,
        "type": "channel",
        "noteNumber": 38,
        "velocity": 0,
        "subtype": "noteOff"
      },
      {
        "deltaTime": 0,
        "channel": 9,
        "type": "channel",
        "noteNumber": 57,
        "velocity": 121,
        "subtype": "noteOn"
      },
      {
        "deltaTime": 0,
        "channel": 9,
        "type": "channel",
        "noteNumber": 35,
        "velocity": 121,
        "subtype": "noteOn"
      },
      {
        "deltaTime": 0,
        "channel": 9,
        "type": "channel",
        "noteNumber": 49,
        "velocity": 121,
        "subtype": "noteOn"
      },
      {
        "deltaTime": 960,
        "channel": 9,
        "type": "channel",
        "noteNumber": 49,
        "velocity": 0,
        "subtype": "noteOff"
      },
      {
        "deltaTime": 0,
        "channel": 9,
        "type": "channel",
        "noteNumber": 35,
        "velocity": 0,
        "subtype": "noteOff"
      },
      {
        "deltaTime": 0,
        "channel": 9,
        "type": "channel",
        "noteNumber": 57,
        "velocity": 0,
        "subtype": "noteOff"
      },
      {
        "deltaTime": 0,
        "channel": 9,
        "type": "channel",
        "noteNumber": 35,
        "velocity": 121,
        "subtype": "noteOn"
      },
      {
        "deltaTime": 0,
        "channel": 9,
        "type": "channel",
        "noteNumber": 38,
        "velocity": 121,
        "subtype": "noteOn"
      },
      {
        "deltaTime": 0,
        "channel": 9,
        "type": "channel",
        "noteNumber": 49,
        "velocity": 121,
        "subtype": "noteOn"
      },
      {
        "deltaTime": 960,
        "channel": 9,
        "type": "channel",
        "noteNumber": 49,
        "velocity": 0,
        "subtype": "noteOff"
      },
      {
        "deltaTime": 0,
        "channel": 9,
        "type": "channel",
        "noteNumber": 38,
        "velocity": 0,
        "subtype": "noteOff"
      },
      {
        "deltaTime": 0,
        "channel": 9,
        "type": "channel",
        "noteNumber": 35,
        "velocity": 0,
        "subtype": "noteOff"
      },
      {
        "deltaTime": 0,
        "channel": 9,
        "type": "channel",
        "noteNumber": 35,
        "velocity": 121,
        "subtype": "noteOn"
      },
      {
        "deltaTime": 0,
        "channel": 9,
        "type": "channel",
        "noteNumber": 49,
        "velocity": 121,
        "subtype": "noteOn"
      },
      {
        "deltaTime": 960,
        "channel": 9,
        "type": "channel",
        "noteNumber": 49,
        "velocity": 0,
        "subtype": "noteOff"
      },
      {
        "deltaTime": 0,
        "channel": 9,
        "type": "channel",
        "noteNumber": 35,
        "velocity": 0,
        "subtype": "noteOff"
      },
      {
        "deltaTime": 0,
        "channel": 9,
        "type": "channel",
        "noteNumber": 38,
        "velocity": 121,
        "subtype": "noteOn"
      },
      {
        "deltaTime": 0,
        "channel": 9,
        "type": "channel",
        "noteNumber": 35,
        "velocity": 121,
        "subtype": "noteOn"
      },
      {
        "deltaTime": 0,
        "channel": 9,
        "type": "channel",
        "noteNumber": 49,
        "velocity": 121,
        "subtype": "noteOn"
      },
      {
        "deltaTime": 960,
        "channel": 9,
        "type": "channel",
        "noteNumber": 49,
        "velocity": 0,
        "subtype": "noteOff"
      },
      {
        "deltaTime": 0,
        "channel": 9,
        "type": "channel",
        "noteNumber": 35,
        "velocity": 0,
        "subtype": "noteOff"
      },
      {
        "deltaTime": 0,
        "channel": 9,
        "type": "channel",
        "noteNumber": 38,
        "velocity": 0,
        "subtype": "noteOff"
      },
      {
        "deltaTime": 0,
        "channel": 9,
        "type": "channel",
        "noteNumber": 35,
        "velocity": 121,
        "subtype": "noteOn"
      },
      {
        "deltaTime": 0,
        "channel": 9,
        "type": "channel",
        "noteNumber": 49,
        "velocity": 121,
        "subtype": "noteOn"
      },
      {
        "deltaTime": 960,
        "channel": 9,
        "type": "channel",
        "noteNumber": 49,
        "velocity": 0,
        "subtype": "noteOff"
      },
      {
        "deltaTime": 0,
        "channel": 9,
        "type": "channel",
        "noteNumber": 35,
        "velocity": 0,
        "subtype": "noteOff"
      },
      {
        "deltaTime": 0,
        "channel": 9,
        "type": "channel",
        "noteNumber": 35,
        "velocity": 121,
        "subtype": "noteOn"
      },
      {
        "deltaTime": 0,
        "channel": 9,
        "type": "channel",
        "noteNumber": 38,
        "velocity": 121,
        "subtype": "noteOn"
      },
      {
        "deltaTime": 0,
        "channel": 9,
        "type": "channel",
        "noteNumber": 49,
        "velocity": 121,
        "subtype": "noteOn"
      },
      {
        "deltaTime": 960,
        "channel": 9,
        "type": "channel",
        "noteNumber": 49,
        "velocity": 0,
        "subtype": "noteOff"
      },
      {
        "deltaTime": 0,
        "channel": 9,
        "type": "channel",
        "noteNumber": 38,
        "velocity": 0,
        "subtype": "noteOff"
      },
      {
        "deltaTime": 0,
        "channel": 9,
        "type": "channel",
        "noteNumber": 35,
        "velocity": 0,
        "subtype": "noteOff"
      },
      {
        "deltaTime": 0,
        "channel": 9,
        "type": "channel",
        "noteNumber": 35,
        "velocity": 121,
        "subtype": "noteOn"
      },
      {
        "deltaTime": 0,
        "channel": 9,
        "type": "channel",
        "noteNumber": 49,
        "velocity": 121,
        "subtype": "noteOn"
      },
      {
        "deltaTime": 960,
        "channel": 9,
        "type": "channel",
        "noteNumber": 49,
        "velocity": 0,
        "subtype": "noteOff"
      },
      {
        "deltaTime": 0,
        "channel": 9,
        "type": "channel",
        "noteNumber": 35,
        "velocity": 0,
        "subtype": "noteOff"
      },
      {
        "deltaTime": 0,
        "channel": 9,
        "type": "channel",
        "noteNumber": 38,
        "velocity": 121,
        "subtype": "noteOn"
      },
      {
        "deltaTime": 0,
        "channel": 9,
        "type": "channel",
        "noteNumber": 35,
        "velocity": 121,
        "subtype": "noteOn"
      },
      {
        "deltaTime": 0,
        "channel": 9,
        "type": "channel",
        "noteNumber": 49,
        "velocity": 121,
        "subtype": "noteOn"
      },
      {
        "deltaTime": 960,
        "channel": 9,
        "type": "channel",
        "noteNumber": 49,
        "velocity": 0,
        "subtype": "noteOff"
      },
      {
        "deltaTime": 0,
        "channel": 9,
        "type": "channel",
        "noteNumber": 35,
        "velocity": 0,
        "subtype": "noteOff"
      },
      {
        "deltaTime": 0,
        "channel": 9,
        "type": "channel",
        "noteNumber": 38,
        "velocity": 0,
        "subtype": "noteOff"
      },
      {
        "deltaTime": 0,
        "channel": 9,
        "type": "channel",
        "noteNumber": 57,
        "velocity": 121,
        "subtype": "noteOn"
      },
      {
        "deltaTime": 0,
        "channel": 9,
        "type": "channel",
        "noteNumber": 35,
        "velocity": 121,
        "subtype": "noteOn"
      },
      {
        "deltaTime": 0,
        "channel": 9,
        "type": "channel",
        "noteNumber": 49,
        "velocity": 121,
        "subtype": "noteOn"
      },
      {
        "deltaTime": 960,
        "channel": 9,
        "type": "channel",
        "noteNumber": 49,
        "velocity": 0,
        "subtype": "noteOff"
      },
      {
        "deltaTime": 0,
        "channel": 9,
        "type": "channel",
        "noteNumber": 35,
        "velocity": 0,
        "subtype": "noteOff"
      },
      {
        "deltaTime": 0,
        "channel": 9,
        "type": "channel",
        "noteNumber": 57,
        "velocity": 0,
        "subtype": "noteOff"
      },
      {
        "deltaTime": 0,
        "channel": 9,
        "type": "channel",
        "noteNumber": 35,
        "velocity": 121,
        "subtype": "noteOn"
      },
      {
        "deltaTime": 0,
        "channel": 9,
        "type": "channel",
        "noteNumber": 38,
        "velocity": 121,
        "subtype": "noteOn"
      },
      {
        "deltaTime": 0,
        "channel": 9,
        "type": "channel",
        "noteNumber": 57,
        "velocity": 121,
        "subtype": "noteOn"
      },
      {
        "deltaTime": 960,
        "channel": 9,
        "type": "channel",
        "noteNumber": 57,
        "velocity": 0,
        "subtype": "noteOff"
      },
      {
        "deltaTime": 0,
        "channel": 9,
        "type": "channel",
        "noteNumber": 38,
        "velocity": 0,
        "subtype": "noteOff"
      },
      {
        "deltaTime": 0,
        "channel": 9,
        "type": "channel",
        "noteNumber": 35,
        "velocity": 0,
        "subtype": "noteOff"
      },
      {
        "deltaTime": 0,
        "channel": 9,
        "type": "channel",
        "noteNumber": 35,
        "velocity": 121,
        "subtype": "noteOn"
      },
      {
        "deltaTime": 0,
        "channel": 9,
        "type": "channel",
        "noteNumber": 57,
        "velocity": 121,
        "subtype": "noteOn"
      },
      {
        "deltaTime": 960,
        "channel": 9,
        "type": "channel",
        "noteNumber": 57,
        "velocity": 0,
        "subtype": "noteOff"
      },
      {
        "deltaTime": 0,
        "channel": 9,
        "type": "channel",
        "noteNumber": 35,
        "velocity": 0,
        "subtype": "noteOff"
      },
      {
        "deltaTime": 0,
        "channel": 9,
        "type": "channel",
        "noteNumber": 38,
        "velocity": 121,
        "subtype": "noteOn"
      },
      {
        "deltaTime": 0,
        "channel": 9,
        "type": "channel",
        "noteNumber": 35,
        "velocity": 121,
        "subtype": "noteOn"
      },
      {
        "deltaTime": 0,
        "channel": 9,
        "type": "channel",
        "noteNumber": 57,
        "velocity": 121,
        "subtype": "noteOn"
      },
      {
        "deltaTime": 960,
        "channel": 9,
        "type": "channel",
        "noteNumber": 57,
        "velocity": 0,
        "subtype": "noteOff"
      },
      {
        "deltaTime": 0,
        "channel": 9,
        "type": "channel",
        "noteNumber": 35,
        "velocity": 0,
        "subtype": "noteOff"
      },
      {
        "deltaTime": 0,
        "channel": 9,
        "type": "channel",
        "noteNumber": 38,
        "velocity": 0,
        "subtype": "noteOff"
      },
      {
        "deltaTime": 0,
        "channel": 9,
        "type": "channel",
        "noteNumber": 35,
        "velocity": 121,
        "subtype": "noteOn"
      },
      {
        "deltaTime": 0,
        "channel": 9,
        "type": "channel",
        "noteNumber": 57,
        "velocity": 121,
        "subtype": "noteOn"
      },
      {
        "deltaTime": 960,
        "channel": 9,
        "type": "channel",
        "noteNumber": 57,
        "velocity": 0,
        "subtype": "noteOff"
      },
      {
        "deltaTime": 0,
        "channel": 9,
        "type": "channel",
        "noteNumber": 35,
        "velocity": 0,
        "subtype": "noteOff"
      },
      {
        "deltaTime": 0,
        "channel": 9,
        "type": "channel",
        "noteNumber": 35,
        "velocity": 121,
        "subtype": "noteOn"
      },
      {
        "deltaTime": 0,
        "channel": 9,
        "type": "channel",
        "noteNumber": 38,
        "velocity": 121,
        "subtype": "noteOn"
      },
      {
        "deltaTime": 0,
        "channel": 9,
        "type": "channel",
        "noteNumber": 57,
        "velocity": 121,
        "subtype": "noteOn"
      },
      {
        "deltaTime": 960,
        "channel": 9,
        "type": "channel",
        "noteNumber": 57,
        "velocity": 0,
        "subtype": "noteOff"
      },
      {
        "deltaTime": 0,
        "channel": 9,
        "type": "channel",
        "noteNumber": 38,
        "velocity": 0,
        "subtype": "noteOff"
      },
      {
        "deltaTime": 0,
        "channel": 9,
        "type": "channel",
        "noteNumber": 35,
        "velocity": 0,
        "subtype": "noteOff"
      },
      {
        "deltaTime": 0,
        "channel": 9,
        "type": "channel",
        "noteNumber": 35,
        "velocity": 121,
        "subtype": "noteOn"
      },
      {
        "deltaTime": 0,
        "channel": 9,
        "type": "channel",
        "noteNumber": 57,
        "velocity": 121,
        "subtype": "noteOn"
      },
      {
        "deltaTime": 960,
        "channel": 9,
        "type": "channel",
        "noteNumber": 57,
        "velocity": 0,
        "subtype": "noteOff"
      },
      {
        "deltaTime": 0,
        "channel": 9,
        "type": "channel",
        "noteNumber": 35,
        "velocity": 0,
        "subtype": "noteOff"
      },
      {
        "deltaTime": 0,
        "channel": 9,
        "type": "channel",
        "noteNumber": 38,
        "velocity": 121,
        "subtype": "noteOn"
      },
      {
        "deltaTime": 0,
        "channel": 9,
        "type": "channel",
        "noteNumber": 35,
        "velocity": 121,
        "subtype": "noteOn"
      },
      {
        "deltaTime": 0,
        "channel": 9,
        "type": "channel",
        "noteNumber": 57,
        "velocity": 121,
        "subtype": "noteOn"
      },
      {
        "deltaTime": 960,
        "channel": 9,
        "type": "channel",
        "noteNumber": 57,
        "velocity": 0,
        "subtype": "noteOff"
      },
      {
        "deltaTime": 0,
        "channel": 9,
        "type": "channel",
        "noteNumber": 35,
        "velocity": 0,
        "subtype": "noteOff"
      },
      {
        "deltaTime": 0,
        "channel": 9,
        "type": "channel",
        "noteNumber": 38,
        "velocity": 0,
        "subtype": "noteOff"
      },
      {
        "deltaTime": 0,
        "channel": 9,
        "type": "channel",
        "noteNumber": 35,
        "velocity": 121,
        "subtype": "noteOn"
      },
      {
        "deltaTime": 0,
        "channel": 9,
        "type": "channel",
        "noteNumber": 57,
        "velocity": 121,
        "subtype": "noteOn"
      },
      {
        "deltaTime": 960,
        "channel": 9,
        "type": "channel",
        "noteNumber": 57,
        "velocity": 0,
        "subtype": "noteOff"
      },
      {
        "deltaTime": 0,
        "channel": 9,
        "type": "channel",
        "noteNumber": 35,
        "velocity": 0,
        "subtype": "noteOff"
      },
      {
        "deltaTime": 0,
        "channel": 9,
        "type": "channel",
        "noteNumber": 35,
        "velocity": 121,
        "subtype": "noteOn"
      },
      {
        "deltaTime": 0,
        "channel": 9,
        "type": "channel",
        "noteNumber": 38,
        "velocity": 121,
        "subtype": "noteOn"
      },
      {
        "deltaTime": 0,
        "channel": 9,
        "type": "channel",
        "noteNumber": 57,
        "velocity": 121,
        "subtype": "noteOn"
      },
      {
        "deltaTime": 960,
        "channel": 9,
        "type": "channel",
        "noteNumber": 57,
        "velocity": 0,
        "subtype": "noteOff"
      },
      {
        "deltaTime": 0,
        "channel": 9,
        "type": "channel",
        "noteNumber": 38,
        "velocity": 0,
        "subtype": "noteOff"
      },
      {
        "deltaTime": 0,
        "channel": 9,
        "type": "channel",
        "noteNumber": 35,
        "velocity": 0,
        "subtype": "noteOff"
      },
      {
        "deltaTime": 0,
        "channel": 9,
        "type": "channel",
        "noteNumber": 35,
        "velocity": 121,
        "subtype": "noteOn"
      },
      {
        "deltaTime": 0,
        "channel": 9,
        "type": "channel",
        "noteNumber": 57,
        "velocity": 121,
        "subtype": "noteOn"
      },
      {
        "deltaTime": 960,
        "channel": 9,
        "type": "channel",
        "noteNumber": 57,
        "velocity": 0,
        "subtype": "noteOff"
      },
      {
        "deltaTime": 0,
        "channel": 9,
        "type": "channel",
        "noteNumber": 35,
        "velocity": 0,
        "subtype": "noteOff"
      },
      {
        "deltaTime": 0,
        "channel": 9,
        "type": "channel",
        "noteNumber": 38,
        "velocity": 121,
        "subtype": "noteOn"
      },
      {
        "deltaTime": 0,
        "channel": 9,
        "type": "channel",
        "noteNumber": 35,
        "velocity": 121,
        "subtype": "noteOn"
      },
      {
        "deltaTime": 0,
        "channel": 9,
        "type": "channel",
        "noteNumber": 57,
        "velocity": 121,
        "subtype": "noteOn"
      },
      {
        "deltaTime": 960,
        "channel": 9,
        "type": "channel",
        "noteNumber": 57,
        "velocity": 0,
        "subtype": "noteOff"
      },
      {
        "deltaTime": 0,
        "channel": 9,
        "type": "channel",
        "noteNumber": 35,
        "velocity": 0,
        "subtype": "noteOff"
      },
      {
        "deltaTime": 0,
        "channel": 9,
        "type": "channel",
        "noteNumber": 38,
        "velocity": 0,
        "subtype": "noteOff"
      },
      {
        "deltaTime": 0,
        "channel": 9,
        "type": "channel",
        "noteNumber": 35,
        "velocity": 121,
        "subtype": "noteOn"
      },
      {
        "deltaTime": 0,
        "channel": 9,
        "type": "channel",
        "noteNumber": 57,
        "velocity": 121,
        "subtype": "noteOn"
      },
      {
        "deltaTime": 960,
        "channel": 9,
        "type": "channel",
        "noteNumber": 57,
        "velocity": 0,
        "subtype": "noteOff"
      },
      {
        "deltaTime": 0,
        "channel": 9,
        "type": "channel",
        "noteNumber": 35,
        "velocity": 0,
        "subtype": "noteOff"
      },
      {
        "deltaTime": 0,
        "channel": 9,
        "type": "channel",
        "noteNumber": 35,
        "velocity": 121,
        "subtype": "noteOn"
      },
      {
        "deltaTime": 0,
        "channel": 9,
        "type": "channel",
        "noteNumber": 38,
        "velocity": 121,
        "subtype": "noteOn"
      },
      {
        "deltaTime": 0,
        "channel": 9,
        "type": "channel",
        "noteNumber": 57,
        "velocity": 121,
        "subtype": "noteOn"
      },
      {
        "deltaTime": 960,
        "channel": 9,
        "type": "channel",
        "noteNumber": 57,
        "velocity": 0,
        "subtype": "noteOff"
      },
      {
        "deltaTime": 0,
        "channel": 9,
        "type": "channel",
        "noteNumber": 38,
        "velocity": 0,
        "subtype": "noteOff"
      },
      {
        "deltaTime": 0,
        "channel": 9,
        "type": "channel",
        "noteNumber": 35,
        "velocity": 0,
        "subtype": "noteOff"
      },
      {
        "deltaTime": 0,
        "channel": 9,
        "type": "channel",
        "noteNumber": 35,
        "velocity": 121,
        "subtype": "noteOn"
      },
      {
        "deltaTime": 0,
        "channel": 9,
        "type": "channel",
        "noteNumber": 57,
        "velocity": 121,
        "subtype": "noteOn"
      },
      {
        "deltaTime": 960,
        "channel": 9,
        "type": "channel",
        "noteNumber": 57,
        "velocity": 0,
        "subtype": "noteOff"
      },
      {
        "deltaTime": 0,
        "channel": 9,
        "type": "channel",
        "noteNumber": 35,
        "velocity": 0,
        "subtype": "noteOff"
      },
      {
        "deltaTime": 0,
        "channel": 9,
        "type": "channel",
        "noteNumber": 43,
        "velocity": 121,
        "subtype": "noteOn"
      },
      {
        "deltaTime": 0,
        "channel": 9,
        "type": "channel",
        "noteNumber": 38,
        "velocity": 121,
        "subtype": "noteOn"
      },
      {
        "deltaTime": 0,
        "channel": 9,
        "type": "channel",
        "noteNumber": 35,
        "velocity": 121,
        "subtype": "noteOn"
      },
      {
        "deltaTime": 960,
        "channel": 9,
        "type": "channel",
        "noteNumber": 35,
        "velocity": 0,
        "subtype": "noteOff"
      },
      {
        "deltaTime": 0,
        "channel": 9,
        "type": "channel",
        "noteNumber": 38,
        "velocity": 0,
        "subtype": "noteOff"
      },
      {
        "deltaTime": 0,
        "channel": 9,
        "type": "channel",
        "noteNumber": 43,
        "velocity": 0,
        "subtype": "noteOff"
      },
      {
        "deltaTime": 0,
        "channel": 9,
        "type": "channel",
        "noteNumber": 49,
        "velocity": 121,
        "subtype": "noteOn"
      },
      {
        "deltaTime": 0,
        "channel": 9,
        "type": "channel",
        "noteNumber": 35,
        "velocity": 121,
        "subtype": "noteOn"
      },
      {
        "deltaTime": 720,
        "channel": 9,
        "type": "channel",
        "noteNumber": 35,
        "velocity": 0,
        "subtype": "noteOff"
      },
      {
        "deltaTime": 0,
        "channel": 9,
        "type": "channel",
        "noteNumber": 49,
        "velocity": 0,
        "subtype": "noteOff"
      },
      {
        "deltaTime": 0,
        "channel": 9,
        "type": "channel",
        "noteNumber": 49,
        "velocity": 121,
        "subtype": "noteOn"
      },
      {
        "deltaTime": 0,
        "channel": 9,
        "type": "channel",
        "noteNumber": 35,
        "velocity": 121,
        "subtype": "noteOn"
      },
      {
        "deltaTime": 720,
        "channel": 9,
        "type": "channel",
        "noteNumber": 35,
        "velocity": 0,
        "subtype": "noteOff"
      },
      {
        "deltaTime": 0,
        "channel": 9,
        "type": "channel",
        "noteNumber": 49,
        "velocity": 0,
        "subtype": "noteOff"
      },
      {
        "deltaTime": 0,
        "channel": 9,
        "type": "channel",
        "noteNumber": 49,
        "velocity": 121,
        "subtype": "noteOn"
      },
      {
        "deltaTime": 0,
        "channel": 9,
        "type": "channel",
        "noteNumber": 35,
        "velocity": 121,
        "subtype": "noteOn"
      },
      {
        "deltaTime": 240,
        "channel": 9,
        "type": "channel",
        "noteNumber": 35,
        "velocity": 0,
        "subtype": "noteOff"
      },
      {
        "deltaTime": 0,
        "channel": 9,
        "type": "channel",
        "noteNumber": 49,
        "velocity": 0,
        "subtype": "noteOff"
      },
      {
        "deltaTime": 0,
        "channel": 9,
        "type": "channel",
        "noteNumber": 38,
        "velocity": 76,
        "subtype": "noteOn"
      },
      {
        "deltaTime": 240,
        "channel": 9,
        "type": "channel",
        "noteNumber": 38,
        "velocity": 0,
        "subtype": "noteOff"
      },
      {
        "deltaTime": 0,
        "channel": 9,
        "type": "channel",
        "noteNumber": 38,
        "velocity": 121,
        "subtype": "noteOn"
      },
      {
        "deltaTime": 240,
        "channel": 9,
        "type": "channel",
        "noteNumber": 38,
        "velocity": 0,
        "subtype": "noteOff"
      },
      {
        "deltaTime": 0,
        "channel": 9,
        "type": "channel",
        "noteNumber": 38,
        "velocity": 121,
        "subtype": "noteOn"
      },
      {
        "deltaTime": 240,
        "channel": 9,
        "type": "channel",
        "noteNumber": 38,
        "velocity": 0,
        "subtype": "noteOff"
      },
      {
        "deltaTime": 0,
        "channel": 9,
        "type": "channel",
        "noteNumber": 38,
        "velocity": 121,
        "subtype": "noteOn"
      },
      {
        "deltaTime": 240,
        "channel": 9,
        "type": "channel",
        "noteNumber": 38,
        "velocity": 0,
        "subtype": "noteOff"
      },
      {
        "deltaTime": 0,
        "channel": 9,
        "type": "channel",
        "noteNumber": 38,
        "velocity": 121,
        "subtype": "noteOn"
      },
      {
        "deltaTime": 240,
        "channel": 9,
        "type": "channel",
        "noteNumber": 38,
        "velocity": 0,
        "subtype": "noteOff"
      },
      {
        "deltaTime": 0,
        "channel": 9,
        "type": "channel",
        "noteNumber": 49,
        "velocity": 121,
        "subtype": "noteOn"
      },
      {
        "deltaTime": 0,
        "channel": 9,
        "type": "channel",
        "noteNumber": 35,
        "velocity": 121,
        "subtype": "noteOn"
      },
      {
        "deltaTime": 720,
        "channel": 9,
        "type": "channel",
        "noteNumber": 35,
        "velocity": 0,
        "subtype": "noteOff"
      },
      {
        "deltaTime": 0,
        "channel": 9,
        "type": "channel",
        "noteNumber": 49,
        "velocity": 0,
        "subtype": "noteOff"
      },
      {
        "deltaTime": 0,
        "channel": 9,
        "type": "channel",
        "noteNumber": 49,
        "velocity": 121,
        "subtype": "noteOn"
      },
      {
        "deltaTime": 0,
        "channel": 9,
        "type": "channel",
        "noteNumber": 35,
        "velocity": 121,
        "subtype": "noteOn"
      },
      {
        "deltaTime": 720,
        "channel": 9,
        "type": "channel",
        "noteNumber": 35,
        "velocity": 0,
        "subtype": "noteOff"
      },
      {
        "deltaTime": 0,
        "channel": 9,
        "type": "channel",
        "noteNumber": 49,
        "velocity": 0,
        "subtype": "noteOff"
      },
      {
        "deltaTime": 0,
        "channel": 9,
        "type": "channel",
        "noteNumber": 49,
        "velocity": 121,
        "subtype": "noteOn"
      },
      {
        "deltaTime": 0,
        "channel": 9,
        "type": "channel",
        "noteNumber": 35,
        "velocity": 121,
        "subtype": "noteOn"
      },
      {
        "deltaTime": 240,
        "channel": 9,
        "type": "channel",
        "noteNumber": 35,
        "velocity": 0,
        "subtype": "noteOff"
      },
      {
        "deltaTime": 0,
        "channel": 9,
        "type": "channel",
        "noteNumber": 49,
        "velocity": 0,
        "subtype": "noteOff"
      },
      {
        "deltaTime": 0,
        "channel": 9,
        "type": "channel",
        "noteNumber": 38,
        "velocity": 76,
        "subtype": "noteOn"
      },
      {
        "deltaTime": 240,
        "channel": 9,
        "type": "channel",
        "noteNumber": 38,
        "velocity": 0,
        "subtype": "noteOff"
      },
      {
        "deltaTime": 0,
        "channel": 9,
        "type": "channel",
        "noteNumber": 38,
        "velocity": 121,
        "subtype": "noteOn"
      },
      {
        "deltaTime": 240,
        "channel": 9,
        "type": "channel",
        "noteNumber": 38,
        "velocity": 0,
        "subtype": "noteOff"
      },
      {
        "deltaTime": 0,
        "channel": 9,
        "type": "channel",
        "noteNumber": 38,
        "velocity": 121,
        "subtype": "noteOn"
      },
      {
        "deltaTime": 240,
        "channel": 9,
        "type": "channel",
        "noteNumber": 38,
        "velocity": 0,
        "subtype": "noteOff"
      },
      {
        "deltaTime": 0,
        "channel": 9,
        "type": "channel",
        "noteNumber": 38,
        "velocity": 121,
        "subtype": "noteOn"
      },
      {
        "deltaTime": 240,
        "channel": 9,
        "type": "channel",
        "noteNumber": 38,
        "velocity": 0,
        "subtype": "noteOff"
      },
      {
        "deltaTime": 0,
        "channel": 9,
        "type": "channel",
        "noteNumber": 38,
        "velocity": 121,
        "subtype": "noteOn"
      },
      {
        "deltaTime": 240,
        "channel": 9,
        "type": "channel",
        "noteNumber": 38,
        "velocity": 0,
        "subtype": "noteOff"
      },
      {
        "deltaTime": 0,
        "channel": 9,
        "type": "channel",
        "noteNumber": 49,
        "velocity": 121,
        "subtype": "noteOn"
      },
      {
        "deltaTime": 0,
        "channel": 9,
        "type": "channel",
        "noteNumber": 35,
        "velocity": 121,
        "subtype": "noteOn"
      },
      {
        "deltaTime": 5760,
        "channel": 9,
        "type": "channel",
        "noteNumber": 35,
        "velocity": 0,
        "subtype": "noteOff"
      },
      {
        "deltaTime": 0,
        "channel": 9,
        "type": "channel",
        "noteNumber": 49,
        "velocity": 0,
        "subtype": "noteOff"
      },
      {
        "deltaTime": 0,
        "type": "meta",
        "subtype": "endOfTrack"
      }
    ]
  ]
}