{
  "header": {
    "formatType": 1,
    "trackCount": 7,
    "ticksPerBeat": 1000
  },
  "tracks": [
    [
      {
        "deltaTime": 0,
        "type": "meta",
        "subtype": "setTempo",
        "microsecondsPerBeat": 500000
      },
      {
        "deltaTime": 0,
        "type": "meta",
        "subtype": "timeSignature",
        "numerator": 2,
        "denominator": 4,
        "metronome": 24,
        "thirtyseconds": 8
      },
      {
        "deltaTime": 0,
        "type": "meta",
        "subtype": "marker",
        "text": "Início"
      },
      {
        "deltaTime": 0,
        "type": "meta",
        "subtype": "endOfTrack"
      }
    ],
    [
      {
        "deltaTime": 0,
        "type": "meta",
        "subtype": "trackName",
        "text": "Acoustic Piano"
      },
      {
        "deltaTime": 20,
        "channel": 0,
        "type": "channel",
        "subtype": "controller",
        "controllerType": 7,
        "value": 107
      },
      {
        "deltaTime": 12,
        "channel": 0,
        "type": "channel",
        "subtype": "controller",
        "controllerType": 10,
        "value": 64
      },
      {
        "deltaTime": 10,
        "channel": 0,
        "type": "channel",
        "subtype": "controller",
        "controllerType": 91,
        "value": 40
      },
      {
        "deltaTime": 10,
        "channel": 0,
        "type": "channel",
        "subtype": "controller",
        "controllerType": 93,
        "value": 0
      },
      {
        "deltaTime": 10,
        "channel": 0,
        "type": "channel",
        "subtype": "controller",
        "controllerType": 101,
        "value": 0
      },
      {
        "deltaTime": 0,
        "channel": 0,
        "type": "channel",
        "subtype": "controller",
        "controllerType": 100,
        "value": 0
      },
      {
        "deltaTime": 0,
        "channel": 0,
        "type": "channel",
        "subtype": "controller",
        "controllerType": 6,
        "value": 2
      },
      {
        "deltaTime": 12,
        "channel": 0,
        "type": "channel",
        "subtype": "controller",
        "controllerType": 99,
        "value": 1
      },
      {
        "deltaTime": 0,
        "channel": 0,
        "type": "channel",
        "subtype": "controller",
        "controllerType": 98,
        "value": 8
      },
      {
        "deltaTime": 0,
        "channel": 0,
        "type": "channel",
        "subtype": "controller",
        "controllerType": 6,
        "value": 64
      },
      {
        "deltaTime": 10,
        "channel": 0,
        "type": "channel",
        "subtype": "controller",
        "controllerType": 99,
        "value": 1
      },
      {
        "deltaTime": 0,
        "channel": 0,
        "type": "channel",
        "subtype": "controller",
        "controllerType": 98,
        "value": 9
      },
      {
        "deltaTime": 0,
        "channel": 0,
        "type": "channel",
        "subtype": "controller",
        "controllerType": 6,
        "value": 64
      },
      {
        "deltaTime": 10,
        "channel": 0,
        "type": "channel",
        "subtype": "controller",
        "controllerType": 99,
        "value": 1
      },
      {
        "deltaTime": 0,
        "channel": 0,
        "type": "channel",
        "subtype": "controller",
        "controllerType": 98,
        "value": 10
      },
      {
        "deltaTime": 0,
        "channel": 0,
        "type": "channel",
        "subtype": "controller",
        "controllerType": 6,
        "value": 64
      },
      {
        "deltaTime": 10,
        "channel": 0,
        "type": "channel",
        "subtype": "controller",
        "controllerType": 99,
        "value": 1
      },
      {
        "deltaTime": 0,
        "channel": 0,
        "type": "channel",
        "subtype": "controller",
        "controllerType": 98,
        "value": 32
      },
      {
        "deltaTime": 0,
        "channel": 0,
        "type": "channel",
        "subtype": "controller",
        "controllerType": 6,
        "value": 64
      },
      {
        "deltaTime": 10,
        "channel": 0,
        "type": "channel",
        "subtype": "controller",
        "controllerType": 99,
        "value": 1
      },
      {
        "deltaTime": 0,
        "channel": 0,
        "type": "channel",
        "subtype": "controller",
        "controllerType": 98,
        "value": 33
      },
      {
        "deltaTime": 0,
        "channel": 0,
        "type": "channel",
        "subtype": "controller",
        "controllerType": 6,
        "value": 64
      },
      {
        "deltaTime": 12,
        "channel": 0,
        "type": "channel",
        "subtype": "controller",
        "controllerType": 99,
        "value": 1
      },
      {
        "deltaTime": 0,
        "channel": 0,
        "type": "channel",
        "subtype": "controller",
        "controllerType": 98,
        "value": 99
      },
      {
        "deltaTime": 0,
        "channel": 0,
        "type": "channel",
        "subtype": "controller",
        "controllerType": 6,
        "value": 64
      },
      {
        "deltaTime": 10,
        "channel": 0,
        "type": "channel",
        "subtype": "controller",
        "controllerType": 99,
        "value": 1
      },
      {
        "deltaTime": 0,
        "channel": 0,
        "type": "channel",
        "subtype": "controller",
        "controllerType": 98,
        "value": 100
      },
      {
        "deltaTime": 0,
        "channel": 0,
        "type": "channel",
        "subtype": "controller",
        "controllerType": 6,
        "value": 64
      },
      {
        "deltaTime": 10,
        "channel": 0,
        "type": "channel",
        "subtype": "controller",
        "controllerType": 99,
        "value": 1
      },
      {
        "deltaTime": 0,
        "channel": 0,
        "type": "channel",
        "subtype": "controller",
        "controllerType": 98,
        "value": 102
      },
      {
        "deltaTime": 0,
        "channel": 0,
        "type": "channel",
        "subtype": "controller",
        "controllerType": 6,
        "value": 64
      },
      {
        "deltaTime": 0,
        "type": "meta",
        "subtype": "endOfTrack"
      }
    ],
    [
      {
        "deltaTime": 0,
        "type": "meta",
        "subtype": "trackName",
        "text": "Instrumento Midi"
      },
      {
        "deltaTime": 8000,
        "channel": 1,
        "type": "channel",
        "noteNumber": 35,
        "velocity": 87,
        "subtype": "noteOn"
      },
      {
        "deltaTime": 1500,
        "channel": 1,
        "type": "channel",
        "noteNumber": 42,
        "velocity": 82,
        "subtype": "noteOn"
      },
      {
        "deltaTime": 100,
        "channel": 1,
        "type": "channel",
        "subtype": "noteOff",
        "noteNumber": 35,
        "velocity": 87
      },
      {
        "deltaTime": 150,
        "channel": 1,
        "type": "channel",
        "subtype": "noteOff",
        "noteNumber": 42,
        "velocity": 82
      },
      {
        "deltaTime": 250,
        "channel": 1,
        "type": "channel",
        "noteNumber": 42,
        "velocity": 93,
        "subtype": "noteOn"
      },
      {
        "deltaTime": 1416,
        "channel": 1,
        "type": "channel",
        "subtype": "noteOff",
        "noteNumber": 42,
        "velocity": 93
      },
      {
        "deltaTime": 84,
        "channel": 1,
        "type": "channel",
        "noteNumber": 35,
        "velocity": 82,
        "subtype": "noteOn"
      },
      {
        "deltaTime": 198,
        "channel": 1,
        "type": "channel",
        "subtype": "noteOff",
        "noteNumber": 35,
        "velocity": 82
      },
      {
        "deltaTime": 302,
        "channel": 1,
        "type": "channel",
        "noteNumber": 34,
        "velocity": 85,
        "subtype": "noteOn"
      },
      {
        "deltaTime": 1500,
        "channel": 1,
        "type": "channel",
        "noteNumber": 41,
        "velocity": 98,
        "subtype": "noteOn"
      },
      {
        "deltaTime": 240,
        "channel": 1,
        "type": "channel",
        "subtype": "noteOff",
        "noteNumber": 34,
        "velocity": 85
      },
      {
        "deltaTime": 150,
        "channel": 1,
        "type": "channel",
        "subtype": "noteOff",
        "noteNumber": 41,
        "velocity": 98
      },
      {
        "deltaTime": 110,
        "channel": 1,
        "type": "channel",
        "noteNumber": 41,
        "velocity": 82,
        "subtype": "noteOn"
      },
      {
        "deltaTime": 1500,
        "channel": 1,
        "type": "channel",
        "noteNumber": 34,
        "velocity": 87,
        "subtype": "noteOn"
      },
      {
        "deltaTime": 166,
        "channel": 1,
        "type": "channel",
        "subtype": "noteOff",
        "noteNumber": 41,
        "velocity": 82
      },
      {
        "deltaTime": 230,
        "channel": 1,
        "type": "channel",
        "subtype": "noteOff",
        "noteNumber": 34,
        "velocity": 87
      },
      {
        "deltaTime": 104,
        "channel": 1,
        "type": "channel",
        "noteNumber": 33,
        "velocity": 85,
        "subtype": "noteOn"
      },
      {
        "deltaTime": 1146,
        "channel": 1,
        "type": "channel",
        "subtype": "noteOff",
        "noteNumber": 33,
        "velocity": 85
      },
      {
        "deltaTime": 354,
        "channel": 1,
        "type": "channel",
        "noteNumber": 33,
        "velocity": 82,
        "subtype": "noteOn"
      },
      {
        "deltaTime": 406,
        "channel": 1,
        "type": "channel",
        "subtype": "noteOff",
        "noteNumber": 33,
        "velocity": 82
      },
      {
        "deltaTime": 94,
        "channel": 1,
        "type": "channel",
        "noteNumber": 40,
        "velocity": 82,
        "subtype": "noteOn"
      },
      {
        "deltaTime": 1506,
        "channel": 1,
        "type": "channel",
        "subtype": "noteOff",
        "noteNumber": 40,
        "velocity": 82
      },
      {
        "deltaTime": 0,
        "channel": 1,
        "type": "channel",
        "noteNumber": 33,
        "velocity": 100,
        "subtype": "noteOn"
      },
      {
        "deltaTime": 286,
        "channel": 1,
        "type": "channel",
        "subtype": "noteOff",
        "noteNumber": 33,
        "velocity": 100
      },
      {
        "deltaTime": 208,
        "channel": 1,
        "type": "channel",
        "noteNumber": 38,
        "velocity": 87,
        "subtype": "noteOn"
      },
      {
        "deltaTime": 1500,
        "channel": 1,
        "type": "channel",
        "noteNumber": 45,
        "velocity": 82,
        "subtype": "noteOn"
      },
      {
        "deltaTime": 114,
        "channel": 1,
        "type": "channel",
        "subtype": "noteOff",
        "noteNumber": 38,
        "velocity": 87
      },
      {
        "deltaTime": 116,
        "channel": 1,
        "type": "channel",
        "subtype": "noteOff",
        "noteNumber": 45,
        "velocity": 82
      },
      {
        "deltaTime": 270,
        "channel": 1,
        "type": "channel",
        "noteNumber": 45,
        "velocity": 87,
        "subtype": "noteOn"
      },
      {
        "deltaTime": 1438,
        "channel": 1,
        "type": "channel",
        "subtype": "noteOff",
        "noteNumber": 45,
        "velocity": 87
      },
      {
        "deltaTime": 62,
        "channel": 1,
        "type": "channel",
        "noteNumber": 34,
        "velocity": 76,
        "subtype": "noteOn"
      },
      {
        "deltaTime": 114,
        "channel": 1,
        "type": "channel",
        "subtype": "noteOff",
        "noteNumber": 34,
        "velocity": 76
      },
      {
        "deltaTime": 386,
        "channel": 1,
        "type": "channel",
        "noteNumber": 35,
        "velocity": 87,
        "subtype": "noteOn"
      },
      {
        "deltaTime": 1090,
        "channel": 1,
        "type": "channel",
        "subtype": "noteOff",
        "noteNumber": 35,
        "velocity": 87
      },
      {
        "deltaTime": 410,
        "channel": 1,
        "type": "channel",
        "noteNumber": 35,
        "velocity": 82,
        "subtype": "noteOn"
      },
      {
        "deltaTime": 458,
        "channel": 1,
        "type": "channel",
        "subtype": "noteOff",
        "noteNumber": 35,
        "velocity": 82
      },
      {
        "deltaTime": 42,
        "channel": 1,
        "type": "channel",
        "noteNumber": 42,
        "velocity": 82,
        "subtype": "noteOn"
      },
      {
        "deltaTime": 1458,
        "channel": 1,
        "type": "channel",
        "subtype": "noteOff",
        "noteNumber": 42,
        "velocity": 82
      },
      {
        "deltaTime": 42,
        "channel": 1,
        "type": "channel",
        "noteNumber": 35,
        "velocity": 89,
        "subtype": "noteOn"
      },
      {
        "deltaTime": 308,
        "channel": 1,
        "type": "channel",
        "subtype": "noteOff",
        "noteNumber": 35,
        "velocity": 89
      },
      {
        "deltaTime": 192,
        "channel": 1,
        "type": "channel",
        "noteNumber": 34,
        "velocity": 85,
        "subtype": "noteOn"
      },
      {
        "deltaTime": 1146,
        "channel": 1,
        "type": "channel",
        "subtype": "noteOff",
        "noteNumber": 34,
        "velocity": 85
      },
      {
        "deltaTime": 354,
        "channel": 1,
        "type": "channel",
        "noteNumber": 34,
        "velocity": 82,
        "subtype": "noteOn"
      },
      {
        "deltaTime": 406,
        "channel": 1,
        "type": "channel",
        "subtype": "noteOff",
        "noteNumber": 34,
        "velocity": 82
      },
      {
        "deltaTime": 94,
        "channel": 1,
        "type": "channel",
        "noteNumber": 41,
        "velocity": 82,
        "subtype": "noteOn"
      },
      {
        "deltaTime": 1506,
        "channel": 1,
        "type": "channel",
        "subtype": "noteOff",
        "noteNumber": 41,
        "velocity": 82
      },
      {
        "deltaTime": 0,
        "channel": 1,
        "type": "channel",
        "noteNumber": 34,
        "velocity": 100,
        "subtype": "noteOn"
      },
      {
        "deltaTime": 286,
        "channel": 1,
        "type": "channel",
        "subtype": "noteOff",
        "noteNumber": 34,
        "velocity": 100
      },
      {
        "deltaTime": 208,
        "channel": 1,
        "type": "channel",
        "noteNumber": 33,
        "velocity": 87,
        "subtype": "noteOn"
      },
      {
        "deltaTime": 1500,
        "channel": 1,
        "type": "channel",
        "noteNumber": 40,
        "velocity": 82,
        "subtype": "noteOn"
      },
      {
        "deltaTime": 114,
        "channel": 1,
        "type": "channel",
        "subtype": "noteOff",
        "noteNumber": 33,
        "velocity": 87
      },
      {
        "deltaTime": 116,
        "channel": 1,
        "type": "channel",
        "subtype": "noteOff",
        "noteNumber": 40,
        "velocity": 82
      },
      {
        "deltaTime": 270,
        "channel": 1,
        "type": "channel",
        "noteNumber": 40,
        "velocity": 87,
        "subtype": "noteOn"
      },
      {
        "deltaTime": 1438,
        "channel": 1,
        "type": "channel",
        "subtype": "noteOff",
        "noteNumber": 40,
        "velocity": 87
      },
      {
        "deltaTime": 62,
        "channel": 1,
        "type": "channel",
        "noteNumber": 43,
        "velocity": 76,
        "subtype": "noteOn"
      },
      {
        "deltaTime": 114,
        "channel": 1,
        "type": "channel",
        "subtype": "noteOff",
        "noteNumber": 43,
        "velocity": 76
      },
      {
        "deltaTime": 386,
        "channel": 1,
        "type": "channel",
        "noteNumber": 44,
        "velocity": 87,
        "subtype": "noteOn"
      },
      {
        "deltaTime": 1500,
        "channel": 1,
        "type": "channel",
        "noteNumber": 50,
        "velocity": 82,
        "subtype": "noteOn"
      },
      {
        "deltaTime": 114,
        "channel": 1,
        "type": "channel",
        "subtype": "noteOff",
        "noteNumber": 44,
        "velocity": 87
      },
      {
        "deltaTime": 116,
        "channel": 1,
        "type": "channel",
        "subtype": "noteOff",
        "noteNumber": 50,
        "velocity": 82
      },
      {
        "deltaTime": 270,
        "channel": 1,
        "type": "channel",
        "noteNumber": 50,
        "velocity": 87,
        "subtype": "noteOn"
      },
      {
        "deltaTime": 1438,
        "channel": 1,
        "type": "channel",
        "subtype": "noteOff",
        "noteNumber": 50,
        "velocity": 87
      },
      {
        "deltaTime": 62,
        "channel": 1,
        "type": "channel",
        "noteNumber": 42,
        "velocity": 76,
        "subtype": "noteOn"
      },
      {
        "deltaTime": 114,
        "channel": 1,
        "type": "channel",
        "subtype": "noteOff",
        "noteNumber": 42,
        "velocity": 76
      },
      {
        "deltaTime": 386,
        "channel": 1,
        "type": "channel",
        "noteNumber": 43,
        "velocity": 87,
        "subtype": "noteOn"
      },
      {
        "deltaTime": 1090,
        "channel": 1,
        "type": "channel",
        "subtype": "noteOff",
        "noteNumber": 43,
        "velocity": 87
      },
      {
        "deltaTime": 410,
        "channel": 1,
        "type": "channel",
        "noteNumber": 43,
        "velocity": 82,
        "subtype": "noteOn"
      },
      {
        "deltaTime": 458,
        "channel": 1,
        "type": "channel",
        "subtype": "noteOff",
        "noteNumber": 43,
        "velocity": 82
      },
      {
        "deltaTime": 42,
        "channel": 1,
        "type": "channel",
        "noteNumber": 50,
        "velocity": 82,
        "subtype": "noteOn"
      },
      {
        "deltaTime": 1458,
        "channel": 1,
        "type": "channel",
        "subtype": "noteOff",
        "noteNumber": 50,
        "velocity": 82
      },
      {
        "deltaTime": 42,
        "channel": 1,
        "type": "channel",
        "noteNumber": 43,
        "velocity": 89,
        "subtype": "noteOn"
      },
      {
        "deltaTime": 308,
        "channel": 1,
        "type": "channel",
        "subtype": "noteOff",
        "noteNumber": 43,
        "velocity": 89
      },
      {
        "deltaTime": 192,
        "channel": 1,
        "type": "channel",
        "noteNumber": 43,
        "velocity": 87,
        "subtype": "noteOn"
      },
      {
        "deltaTime": 1500,
        "channel": 1,
        "type": "channel",
        "noteNumber": 51,
        "velocity": 82,
        "subtype": "noteOn"
      },
      {
        "deltaTime": 100,
        "channel": 1,
        "type": "channel",
        "subtype": "noteOff",
        "noteNumber": 43,
        "velocity": 87
      },
      {
        "deltaTime": 150,
        "channel": 1,
        "type": "channel",
        "subtype": "noteOff",
        "noteNumber": 51,
        "velocity": 82
      },
      {
        "deltaTime": 250,
        "channel": 1,
        "type": "channel",
        "noteNumber": 51,
        "velocity": 93,
        "subtype": "noteOn"
      },
      {
        "deltaTime": 1416,
        "channel": 1,
        "type": "channel",
        "subtype": "noteOff",
        "noteNumber": 51,
        "velocity": 93
      },
      {
        "deltaTime": 84,
        "channel": 1,
        "type": "channel",
        "noteNumber": 37,
        "velocity": 82,
        "subtype": "noteOn"
      },
      {
        "deltaTime": 198,
        "channel": 1,
        "type": "channel",
        "subtype": "noteOff",
        "noteNumber": 37,
        "velocity": 82
      },
      {
        "deltaTime": 302,
        "channel": 1,
        "type": "channel",
        "noteNumber": 36,
        "velocity": 85,
        "subtype": "noteOn"
      },
      {
        "deltaTime": 1500,
        "channel": 1,
        "type": "channel",
        "noteNumber": 43,
        "velocity": 98,
        "subtype": "noteOn"
      },
      {
        "deltaTime": 240,
        "channel": 1,
        "type": "channel",
        "subtype": "noteOff",
        "noteNumber": 36,
        "velocity": 85
      },
      {
        "deltaTime": 150,
        "channel": 1,
        "type": "channel",
        "subtype": "noteOff",
        "noteNumber": 43,
        "velocity": 98
      },
      {
        "deltaTime": 110,
        "channel": 1,
        "type": "channel",
        "noteNumber": 43,
        "velocity": 82,
        "subtype": "noteOn"
      },
      {
        "deltaTime": 1500,
        "channel": 1,
        "type": "channel",
        "noteNumber": 36,
        "velocity": 87,
        "subtype": "noteOn"
      },
      {
        "deltaTime": 166,
        "channel": 1,
        "type": "channel",
        "subtype": "noteOff",
        "noteNumber": 43,
        "velocity": 82
      },
      {
        "deltaTime": 230,
        "channel": 1,
        "type": "channel",
        "subtype": "noteOff",
        "noteNumber": 36,
        "velocity": 87
      },
      {
        "deltaTime": 104,
        "channel": 1,
        "type": "channel",
        "noteNumber": 41,
        "velocity": 82,
        "subtype": "noteOn"
      },
      {
        "deltaTime": 1212,
        "channel": 1,
        "type": "channel",
        "subtype": "noteOff",
        "noteNumber": 41,
        "velocity": 82
      },
      {
        "deltaTime": 288,
        "channel": 1,
        "type": "channel",
        "noteNumber": 41,
        "velocity": 85,
        "subtype": "noteOn"
      },
      {
        "deltaTime": 266,
        "channel": 1,
        "type": "channel",
        "subtype": "noteOff",
        "noteNumber": 41,
        "velocity": 85
      },
      {
        "deltaTime": 234,
        "channel": 1,
        "type": "channel",
        "noteNumber": 41,
        "velocity": 82,
        "subtype": "noteOn"
      },
      {
        "deltaTime": 1380,
        "channel": 1,
        "type": "channel",
        "subtype": "noteOff",
        "noteNumber": 41,
        "velocity": 82
      },
      {
        "deltaTime": 120,
        "channel": 1,
        "type": "channel",
        "noteNumber": 41,
        "velocity": 87,
        "subtype": "noteOn"
      },
      {
        "deltaTime": 308,
        "channel": 1,
        "type": "channel",
        "subtype": "noteOff",
        "noteNumber": 41,
        "velocity": 87
      },
      {
        "deltaTime": 192,
        "channel": 1,
        "type": "channel",
        "noteNumber": 35,
        "velocity": 87,
        "subtype": "noteOn"
      },
      {
        "deltaTime": 1500,
        "channel": 1,
        "type": "channel",
        "noteNumber": 42,
        "velocity": 82,
        "subtype": "noteOn"
      },
      {
        "deltaTime": 114,
        "channel": 1,
        "type": "channel",
        "subtype": "noteOff",
        "noteNumber": 35,
        "velocity": 87
      },
      {
        "deltaTime": 116,
        "channel": 1,
        "type": "channel",
        "subtype": "noteOff",
        "noteNumber": 42,
        "velocity": 82
      },
      {
        "deltaTime": 270,
        "channel": 1,
        "type": "channel",
        "noteNumber": 42,
        "velocity": 87,
        "subtype": "noteOn"
      },
      {
        "deltaTime": 1438,
        "channel": 1,
        "type": "channel",
        "subtype": "noteOff",
        "noteNumber": 42,
        "velocity": 87
      },
      {
        "deltaTime": 62,
        "channel": 1,
        "type": "channel",
        "noteNumber": 33,
        "velocity": 76,
        "subtype": "noteOn"
      },
      {
        "deltaTime": 114,
        "channel": 1,
        "type": "channel",
        "subtype": "noteOff",
        "noteNumber": 33,
        "velocity": 76
      },
      {
        "deltaTime": 386,
        "channel": 1,
        "type": "channel",
        "noteNumber": 34,
        "velocity": 87,
        "subtype": "noteOn"
      },
      {
        "deltaTime": 1500,
        "channel": 1,
        "type": "channel",
        "noteNumber": 41,
        "velocity": 82,
        "subtype": "noteOn"
      },
      {
        "deltaTime": 100,
        "channel": 1,
        "type": "channel",
        "subtype": "noteOff",
        "noteNumber": 34,
        "velocity": 87
      },
      {
        "deltaTime": 150,
        "channel": 1,
        "type": "channel",
        "subtype": "noteOff",
        "noteNumber": 41,
        "velocity": 82
      },
      {
        "deltaTime": 250,
        "channel": 1,
        "type": "channel",
        "noteNumber": 41,
        "velocity": 93,
        "subtype": "noteOn"
      },
      {
        "deltaTime": 1416,
        "channel": 1,
        "type": "channel",
        "subtype": "noteOff",
        "noteNumber": 41,
        "velocity": 93
      },
      {
        "deltaTime": 84,
        "channel": 1,
        "type": "channel",
        "noteNumber": 34,
        "velocity": 82,
        "subtype": "noteOn"
      },
      {
        "deltaTime": 198,
        "channel": 1,
        "type": "channel",
        "subtype": "noteOff",
        "noteNumber": 34,
        "velocity": 82
      },
      {
        "deltaTime": 302,
        "channel": 1,
        "type": "channel",
        "noteNumber": 33,
        "velocity": 87,
        "subtype": "noteOn"
      },
      {
        "deltaTime": 1376,
        "channel": 1,
        "type": "channel",
        "subtype": "noteOff",
        "noteNumber": 33,
        "velocity": 87
      },
      {
        "deltaTime": 124,
        "channel": 1,
        "type": "channel",
        "noteNumber": 33,
        "velocity": 87,
        "subtype": "noteOn"
      },
      {
        "deltaTime": 500,
        "channel": 1,
        "type": "channel",
        "subtype": "noteOff",
        "noteNumber": 33,
        "velocity": 87
      },
      {
        "deltaTime": 48,
        "channel": 1,
        "type": "channel",
        "noteNumber": 38,
        "velocity": 85,
        "subtype": "noteOn"
      },
      {
        "deltaTime": 1316,
        "channel": 1,
        "type": "channel",
        "subtype": "noteOff",
        "noteNumber": 38,
        "velocity": 85
      },
      {
        "deltaTime": 168,
        "channel": 1,
        "type": "channel",
        "noteNumber": 38,
        "velocity": 85,
        "subtype": "noteOn"
      },
      {
        "deltaTime": 468,
        "channel": 1,
        "type": "channel",
        "subtype": "noteOff",
        "noteNumber": 38,
        "velocity": 85
      },
      {
        "deltaTime": 0,
        "channel": 1,
        "type": "channel",
        "noteNumber": 43,
        "velocity": 87,
        "subtype": "noteOn"
      },
      {
        "deltaTime": 1500,
        "channel": 1,
        "type": "channel",
        "noteNumber": 50,
        "velocity": 82,
        "subtype": "noteOn"
      },
      {
        "deltaTime": 114,
        "channel": 1,
        "type": "channel",
        "subtype": "noteOff",
        "noteNumber": 43,
        "velocity": 87
      },
      {
        "deltaTime": 116,
        "channel": 1,
        "type": "channel",
        "subtype": "noteOff",
        "noteNumber": 50,
        "velocity": 82
      },
      {
        "deltaTime": 270,
        "channel": 1,
        "type": "channel",
        "noteNumber": 50,
        "velocity": 87,
        "subtype": "noteOn"
      },
      {
        "deltaTime": 1438,
        "channel": 1,
        "type": "channel",
        "subtype": "noteOff",
        "noteNumber": 50,
        "velocity": 87
      },
      {
        "deltaTime": 62,
        "channel": 1,
        "type": "channel",
        "noteNumber": 35,
        "velocity": 76,
        "subtype": "noteOn"
      },
      {
        "deltaTime": 114,
        "channel": 1,
        "type": "channel",
        "subtype": "noteOff",
        "noteNumber": 35,
        "velocity": 76
      },
      {
        "deltaTime": 386,
        "channel": 1,
        "type": "channel",
        "noteNumber": 36,
        "velocity": 87,
        "subtype": "noteOn"
      },
      {
        "deltaTime": 1500,
        "channel": 1,
        "type": "channel",
        "noteNumber": 43,
        "velocity": 82,
        "subtype": "noteOn"
      },
      {
        "deltaTime": 114,
        "channel": 1,
        "type": "channel",
        "subtype": "noteOff",
        "noteNumber": 36,
        "velocity": 87
      },
      {
        "deltaTime": 116,
        "channel": 1,
        "type": "channel",
        "subtype": "noteOff",
        "noteNumber": 43,
        "velocity": 82
      },
      {
        "deltaTime": 270,
        "channel": 1,
        "type": "channel",
        "noteNumber": 43,
        "velocity": 87,
        "subtype": "noteOn"
      },
      {
        "deltaTime": 1438,
        "channel": 1,
        "type": "channel",
        "subtype": "noteOff",
        "noteNumber": 43,
        "velocity": 87
      },
      {
        "deltaTime": 62,
        "channel": 1,
        "type": "channel",
        "noteNumber": 40,
        "velocity": 76,
        "subtype": "noteOn"
      },
      {
        "deltaTime": 114,
        "channel": 1,
        "type": "channel",
        "subtype": "noteOff",
        "noteNumber": 40,
        "velocity": 76
      },
      {
        "deltaTime": 386,
        "channel": 1,
        "type": "channel",
        "noteNumber": 41,
        "velocity": 85,
        "subtype": "noteOn"
      },
      {
        "deltaTime": 1500,
        "channel": 1,
        "type": "channel",
        "noteNumber": 48,
        "velocity": 98,
        "subtype": "noteOn"
      },
      {
        "deltaTime": 240,
        "channel": 1,
        "type": "channel",
        "subtype": "noteOff",
        "noteNumber": 41,
        "velocity": 85
      },
      {
        "deltaTime": 150,
        "channel": 1,
        "type": "channel",
        "subtype": "noteOff",
        "noteNumber": 48,
        "velocity": 98
      },
      {
        "deltaTime": 110,
        "channel": 1,
        "type": "channel",
        "noteNumber": 48,
        "velocity": 82,
        "subtype": "noteOn"
      },
      {
        "deltaTime": 1500,
        "channel": 1,
        "type": "channel",
        "noteNumber": 41,
        "velocity": 87,
        "subtype": "noteOn"
      },
      {
        "deltaTime": 166,
        "channel": 1,
        "type": "channel",
        "subtype": "noteOff",
        "noteNumber": 48,
        "velocity": 82
      },
      {
        "deltaTime": 230,
        "channel": 1,
        "type": "channel",
        "subtype": "noteOff",
        "noteNumber": 41,
        "velocity": 87
      },
      {
        "deltaTime": 104,
        "channel": 1,
        "type": "channel",
        "noteNumber": 34,
        "velocity": 85,
        "subtype": "noteOn"
      },
      {
        "deltaTime": 1146,
        "channel": 1,
        "type": "channel",
        "subtype": "noteOff",
        "noteNumber": 34,
        "velocity": 85
      },
      {
        "deltaTime": 354,
        "channel": 1,
        "type": "channel",
        "noteNumber": 34,
        "velocity": 82,
        "subtype": "noteOn"
      },
      {
        "deltaTime": 406,
        "channel": 1,
        "type": "channel",
        "subtype": "noteOff",
        "noteNumber": 34,
        "velocity": 82
      },
      {
        "deltaTime": 94,
        "channel": 1,
        "type": "channel",
        "noteNumber": 41,
        "velocity": 82,
        "subtype": "noteOn"
      },
      {
        "deltaTime": 1506,
        "channel": 1,
        "type": "channel",
        "subtype": "noteOff",
        "noteNumber": 41,
        "velocity": 82
      },
      {
        "deltaTime": 0,
        "channel": 1,
        "type": "channel",
        "noteNumber": 34,
        "velocity": 100,
        "subtype": "noteOn"
      },
      {
        "deltaTime": 286,
        "channel": 1,
        "type": "channel",
        "subtype": "noteOff",
        "noteNumber": 34,
        "velocity": 100
      },
      {
        "deltaTime": 208,
        "channel": 1,
        "type": "channel",
        "noteNumber": 34,
        "velocity": 85,
        "subtype": "noteOn"
      },
      {
        "deltaTime": 1500,
        "channel": 1,
        "type": "channel",
        "noteNumber": 41,
        "velocity": 98,
        "subtype": "noteOn"
      },
      {
        "deltaTime": 240,
        "channel": 1,
        "type": "channel",
        "subtype": "noteOff",
        "noteNumber": 34,
        "velocity": 85
      },
      {
        "deltaTime": 150,
        "channel": 1,
        "type": "channel",
        "subtype": "noteOff",
        "noteNumber": 41,
        "velocity": 98
      },
      {
        "deltaTime": 110,
        "channel": 1,
        "type": "channel",
        "noteNumber": 41,
        "velocity": 82,
        "subtype": "noteOn"
      },
      {
        "deltaTime": 1500,
        "channel": 1,
        "type": "channel",
        "noteNumber": 34,
        "velocity": 87,
        "subtype": "noteOn"
      },
      {
        "deltaTime": 166,
        "channel": 1,
        "type": "channel",
        "subtype": "noteOff",
        "noteNumber": 41,
        "velocity": 82
      },
      {
        "deltaTime": 230,
        "channel": 1,
        "type": "channel",
        "subtype": "noteOff",
        "noteNumber": 34,
        "velocity": 87
      },
      {
        "deltaTime": 104,
        "channel": 1,
        "type": "channel",
        "noteNumber": 34,
        "velocity": 87,
        "subtype": "noteOn"
      },
      {
        "deltaTime": 1500,
        "channel": 1,
        "type": "channel",
        "noteNumber": 41,
        "velocity": 82,
        "subtype": "noteOn"
      },
      {
        "deltaTime": 114,
        "channel": 1,
        "type": "channel",
        "subtype": "noteOff",
        "noteNumber": 34,
        "velocity": 87
      },
      {
        "deltaTime": 116,
        "channel": 1,
        "type": "channel",
        "subtype": "noteOff",
        "noteNumber": 41,
        "velocity": 82
      },
      {
        "deltaTime": 270,
        "channel": 1,
        "type": "channel",
        "noteNumber": 41,
        "velocity": 87,
        "subtype": "noteOn"
      },
      {
        "deltaTime": 1438,
        "channel": 1,
        "type": "channel",
        "subtype": "noteOff",
        "noteNumber": 41,
        "velocity": 87
      },
      {
        "deltaTime": 62,
        "channel": 1,
        "type": "channel",
        "noteNumber": 38,
        "velocity": 76,
        "subtype": "noteOn"
      },
      {
        "deltaTime": 114,
        "channel": 1,
        "type": "channel",
        "subtype": "noteOff",
        "noteNumber": 38,
        "velocity": 76
      },
      {
        "deltaTime": 386,
        "channel": 1,
        "type": "channel",
        "noteNumber": 39,
        "velocity": 87,
        "subtype": "noteOn"
      },
      {
        "deltaTime": 1500,
        "channel": 1,
        "type": "channel",
        "noteNumber": 46,
        "velocity": 82,
        "subtype": "noteOn"
      },
      {
        "deltaTime": 114,
        "channel": 1,
        "type": "channel",
        "subtype": "noteOff",
        "noteNumber": 39,
        "velocity": 87
      },
      {
        "deltaTime": 116,
        "channel": 1,
        "type": "channel",
        "subtype": "noteOff",
        "noteNumber": 46,
        "velocity": 82
      },
      {
        "deltaTime": 270,
        "channel": 1,
        "type": "channel",
        "noteNumber": 46,
        "velocity": 87,
        "subtype": "noteOn"
      },
      {
        "deltaTime": 1438,
        "channel": 1,
        "type": "channel",
        "subtype": "noteOff",
        "noteNumber": 46,
        "velocity": 87
      },
      {
        "deltaTime": 62,
        "channel": 1,
        "type": "channel",
        "noteNumber": 43,
        "velocity": 76,
        "subtype": "noteOn"
      },
      {
        "deltaTime": 114,
        "channel": 1,
        "type": "channel",
        "subtype": "noteOff",
        "noteNumber": 43,
        "velocity": 76
      },
      {
        "deltaTime": 386,
        "channel": 1,
        "type": "channel",
        "noteNumber": 44,
        "velocity": 87,
        "subtype": "noteOn"
      },
      {
        "deltaTime": 1500,
        "channel": 1,
        "type": "channel",
        "noteNumber": 51,
        "velocity": 82,
        "subtype": "noteOn"
      },
      {
        "deltaTime": 100,
        "channel": 1,
        "type": "channel",
        "subtype": "noteOff",
        "noteNumber": 44,
        "velocity": 87
      },
      {
        "deltaTime": 150,
        "channel": 1,
        "type": "channel",
        "subtype": "noteOff",
        "noteNumber": 51,
        "velocity": 82
      },
      {
        "deltaTime": 250,
        "channel": 1,
        "type": "channel",
        "noteNumber": 51,
        "velocity": 93,
        "subtype": "noteOn"
      },
      {
        "deltaTime": 1416,
        "channel": 1,
        "type": "channel",
        "subtype": "noteOff",
        "noteNumber": 51,
        "velocity": 93
      },
      {
        "deltaTime": 84,
        "channel": 1,
        "type": "channel",
        "noteNumber": 39,
        "velocity": 82,
        "subtype": "noteOn"
      },
      {
        "deltaTime": 198,
        "channel": 1,
        "type": "channel",
        "subtype": "noteOff",
        "noteNumber": 39,
        "velocity": 82
      },
      {
        "deltaTime": 302,
        "channel": 1,
        "type": "channel",
        "noteNumber": 38,
        "velocity": 85,
        "subtype": "noteOn"
      },
      {
        "deltaTime": 1500,
        "channel": 1,
        "type": "channel",
        "noteNumber": 45,
        "velocity": 98,
        "subtype": "noteOn"
      },
      {
        "deltaTime": 240,
        "channel": 1,
        "type": "channel",
        "subtype": "noteOff",
        "noteNumber": 38,
        "velocity": 85
      },
      {
        "deltaTime": 150,
        "channel": 1,
        "type": "channel",
        "subtype": "noteOff",
        "noteNumber": 45,
        "velocity": 98
      },
      {
        "deltaTime": 110,
        "channel": 1,
        "type": "channel",
        "noteNumber": 45,
        "velocity": 82,
        "subtype": "noteOn"
      },
      {
        "deltaTime": 1500,
        "channel": 1,
        "type": "channel",
        "noteNumber": 38,
        "velocity": 87,
        "subtype": "noteOn"
      },
      {
        "deltaTime": 166,
        "channel": 1,
        "type": "channel",
        "subtype": "noteOff",
        "noteNumber": 45,
        "velocity": 82
      },
      {
        "deltaTime": 230,
        "channel": 1,
        "type": "channel",
        "subtype": "noteOff",
        "noteNumber": 38,
        "velocity": 87
      },
      {
        "deltaTime": 104,
        "channel": 1,
        "type": "channel",
        "noteNumber": 35,
        "velocity": 87,
        "subtype": "noteOn"
      },
      {
        "deltaTime": 1500,
        "channel": 1,
        "type": "channel",
        "noteNumber": 42,
        "velocity": 82,
        "subtype": "noteOn"
      },
      {
        "deltaTime": 100,
        "channel": 1,
        "type": "channel",
        "subtype": "noteOff",
        "noteNumber": 35,
        "velocity": 87
      },
      {
        "deltaTime": 150,
        "channel": 1,
        "type": "channel",
        "subtype": "noteOff",
        "noteNumber": 42,
        "velocity": 82
      },
      {
        "deltaTime": 250,
        "channel": 1,
        "type": "channel",
        "noteNumber": 42,
        "velocity": 93,
        "subtype": "noteOn"
      },
      {
        "deltaTime": 1416,
        "channel": 1,
        "type": "channel",
        "subtype": "noteOff",
        "noteNumber": 42,
        "velocity": 93
      },
      {
        "deltaTime": 84,
        "channel": 1,
        "type": "channel",
        "noteNumber": 35,
        "velocity": 82,
        "subtype": "noteOn"
      },
      {
        "deltaTime": 198,
        "channel": 1,
        "type": "channel",
        "subtype": "noteOff",
        "noteNumber": 35,
        "velocity": 82
      },
      {
        "deltaTime": 302,
        "channel": 1,
        "type": "channel",
        "noteNumber": 34,
        "velocity": 85,
        "subtype": "noteOn"
      },
      {
        "deltaTime": 1146,
        "channel": 1,
        "type": "channel",
        "subtype": "noteOff",
        "noteNumber": 34,
        "velocity": 85
      },
      {
        "deltaTime": 354,
        "channel": 1,
        "type": "channel",
        "noteNumber": 34,
        "velocity": 82,
        "subtype": "noteOn"
      },
      {
        "deltaTime": 406,
        "channel": 1,
        "type": "channel",
        "subtype": "noteOff",
        "noteNumber": 34,
        "velocity": 82
      },
      {
        "deltaTime": 94,
        "channel": 1,
        "type": "channel",
        "noteNumber": 41,
        "velocity": 82,
        "subtype": "noteOn"
      },
      {
        "deltaTime": 1506,
        "channel": 1,
        "type": "channel",
        "subtype": "noteOff",
        "noteNumber": 41,
        "velocity": 82
      },
      {
        "deltaTime": 0,
        "channel": 1,
        "type": "channel",
        "noteNumber": 34,
        "velocity": 100,
        "subtype": "noteOn"
      },
      {
        "deltaTime": 286,
        "channel": 1,
        "type": "channel",
        "subtype": "noteOff",
        "noteNumber": 34,
        "velocity": 100
      },
      {
        "deltaTime": 208,
        "channel": 1,
        "type": "channel",
        "noteNumber": 33,
        "velocity": 87,
        "subtype": "noteOn"
      },
      {
        "deltaTime": 1500,
        "channel": 1,
        "type": "channel",
        "noteNumber": 40,
        "velocity": 82,
        "subtype": "noteOn"
      },
      {
        "deltaTime": 100,
        "channel": 1,
        "type": "channel",
        "subtype": "noteOff",
        "noteNumber": 33,
        "velocity": 87
      },
      {
        "deltaTime": 150,
        "channel": 1,
        "type": "channel",
        "subtype": "noteOff",
        "noteNumber": 40,
        "velocity": 82
      },
      {
        "deltaTime": 250,
        "channel": 1,
        "type": "channel",
        "noteNumber": 40,
        "velocity": 93,
        "subtype": "noteOn"
      },
      {
        "deltaTime": 1416,
        "channel": 1,
        "type": "channel",
        "subtype": "noteOff",
        "noteNumber": 40,
        "velocity": 93
      },
      {
        "deltaTime": 84,
        "channel": 1,
        "type": "channel",
        "noteNumber": 39,
        "velocity": 82,
        "subtype": "noteOn"
      },
      {
        "deltaTime": 198,
        "channel": 1,
        "type": "channel",
        "subtype": "noteOff",
        "noteNumber": 39,
        "velocity": 82
      },
      {
        "deltaTime": 302,
        "channel": 1,
        "type": "channel",
        "noteNumber": 38,
        "velocity": 82,
        "subtype": "noteOn"
      },
      {
        "deltaTime": 1212,
        "channel": 1,
        "type": "channel",
        "subtype": "noteOff",
        "noteNumber": 38,
        "velocity": 82
      },
      {
        "deltaTime": 288,
        "channel": 1,
        "type": "channel",
        "noteNumber": 38,
        "velocity": 85,
        "subtype": "noteOn"
      },
      {
        "deltaTime": 266,
        "channel": 1,
        "type": "channel",
        "subtype": "noteOff",
        "noteNumber": 38,
        "velocity": 85
      },
      {
        "deltaTime": 234,
        "channel": 1,
        "type": "channel",
        "noteNumber": 38,
        "velocity": 82,
        "subtype": "noteOn"
      },
      {
        "deltaTime": 1380,
        "channel": 1,
        "type": "channel",
        "subtype": "noteOff",
        "noteNumber": 38,
        "velocity": 82
      },
      {
        "deltaTime": 120,
        "channel": 1,
        "type": "channel",
        "noteNumber": 38,
        "velocity": 87,
        "subtype": "noteOn"
      },
      {
        "deltaTime": 308,
        "channel": 1,
        "type": "channel",
        "subtype": "noteOff",
        "noteNumber": 38,
        "velocity": 87
      },
      {
        "deltaTime": 192,
        "channel": 1,
        "type": "channel",
        "noteNumber": 35,
        "velocity": 87,
        "subtype": "noteOn"
      },
      {
        "deltaTime": 1090,
        "channel": 1,
        "type": "channel",
        "subtype": "noteOff",
        "noteNumber": 35,
        "velocity": 87
      },
      {
        "deltaTime": 410,
        "channel": 1,
        "type": "channel",
        "noteNumber": 35,
        "velocity": 82,
        "subtype": "noteOn"
      },
      {
        "deltaTime": 458,
        "channel": 1,
        "type": "channel",
        "subtype": "noteOff",
        "noteNumber": 35,
        "velocity": 82
      },
      {
        "deltaTime": 42,
        "channel": 1,
        "type": "channel",
        "noteNumber": 42,
        "velocity": 82,
        "subtype": "noteOn"
      },
      {
        "deltaTime": 1458,
        "channel": 1,
        "type": "channel",
        "subtype": "noteOff",
        "noteNumber": 42,
        "velocity": 82
      },
      {
        "deltaTime": 42,
        "channel": 1,
        "type": "channel",
        "noteNumber": 35,
        "velocity": 89,
        "subtype": "noteOn"
      },
      {
        "deltaTime": 308,
        "channel": 1,
        "type": "channel",
        "subtype": "noteOff",
        "noteNumber": 35,
        "velocity": 89
      },
      {
        "deltaTime": 192,
        "channel": 1,
        "type": "channel",
        "noteNumber": 34,
        "velocity": 85,
        "subtype": "noteOn"
      },
      {
        "deltaTime": 1146,
        "channel": 1,
        "type": "channel",
        "subtype": "noteOff",
        "noteNumber": 34,
        "velocity": 85
      },
      {
        "deltaTime": 354,
        "channel": 1,
        "type": "channel",
        "noteNumber": 34,
        "velocity": 82,
        "subtype": "noteOn"
      },
      {
        "deltaTime": 406,
        "channel": 1,
        "type": "channel",
        "subtype": "noteOff",
        "noteNumber": 34,
        "velocity": 82
      },
      {
        "deltaTime": 94,
        "channel": 1,
        "type": "channel",
        "noteNumber": 41,
        "velocity": 82,
        "subtype": "noteOn"
      },
      {
        "deltaTime": 1506,
        "channel": 1,
        "type": "channel",
        "subtype": "noteOff",
        "noteNumber": 41,
        "velocity": 82
      },
      {
        "deltaTime": 0,
        "channel": 1,
        "type": "channel",
        "noteNumber": 34,
        "velocity": 100,
        "subtype": "noteOn"
      },
      {
        "deltaTime": 286,
        "channel": 1,
        "type": "channel",
        "subtype": "noteOff",
        "noteNumber": 34,
        "velocity": 100
      },
      {
        "deltaTime": 208,
        "channel": 1,
        "type": "channel",
        "noteNumber": 33,
        "velocity": 82,
        "subtype": "noteOn"
      },
      {
        "deltaTime": 1212,
        "channel": 1,
        "type": "channel",
        "subtype": "noteOff",
        "noteNumber": 33,
        "velocity": 82
      },
      {
        "deltaTime": 288,
        "channel": 1,
        "type": "channel",
        "noteNumber": 33,
        "velocity": 85,
        "subtype": "noteOn"
      },
      {
        "deltaTime": 266,
        "channel": 1,
        "type": "channel",
        "subtype": "noteOff",
        "noteNumber": 33,
        "velocity": 85
      },
      {
        "deltaTime": 234,
        "channel": 1,
        "type": "channel",
        "noteNumber": 33,
        "velocity": 82,
        "subtype": "noteOn"
      },
      {
        "deltaTime": 1380,
        "channel": 1,
        "type": "channel",
        "subtype": "noteOff",
        "noteNumber": 33,
        "velocity": 82
      },
      {
        "deltaTime": 120,
        "channel": 1,
        "type": "channel",
        "noteNumber": 33,
        "velocity": 87,
        "subtype": "noteOn"
      },
      {
        "deltaTime": 308,
        "channel": 1,
        "type": "channel",
        "subtype": "noteOff",
        "noteNumber": 33,
        "velocity": 87
      },
      {
        "deltaTime": 192,
        "channel": 1,
        "type": "channel",
        "noteNumber": 44,
        "velocity": 85,
        "subtype": "noteOn"
      },
      {
        "deltaTime": 1500,
        "channel": 1,
        "type": "channel",
        "noteNumber": 50,
        "velocity": 98,
        "subtype": "noteOn"
      },
      {
        "deltaTime": 240,
        "channel": 1,
        "type": "channel",
        "subtype": "noteOff",
        "noteNumber": 44,
        "velocity": 85
      },
      {
        "deltaTime": 150,
        "channel": 1,
        "type": "channel",
        "subtype": "noteOff",
        "noteNumber": 50,
        "velocity": 98
      },
      {
        "deltaTime": 110,
        "channel": 1,
        "type": "channel",
        "noteNumber": 50,
        "velocity": 82,
        "subtype": "noteOn"
      },
      {
        "deltaTime": 1500,
        "channel": 1,
        "type": "channel",
        "noteNumber": 44,
        "velocity": 87,
        "subtype": "noteOn"
      },
      {
        "deltaTime": 166,
        "channel": 1,
        "type": "channel",
        "subtype": "noteOff",
        "noteNumber": 50,
        "velocity": 82
      },
      {
        "deltaTime": 230,
        "channel": 1,
        "type": "channel",
        "subtype": "noteOff",
        "noteNumber": 44,
        "velocity": 87
      },
      {
        "deltaTime": 104,
        "channel": 1,
        "type": "channel",
        "noteNumber": 43,
        "velocity": 87,
        "subtype": "noteOn"
      },
      {
        "deltaTime": 1090,
        "channel": 1,
        "type": "channel",
        "subtype": "noteOff",
        "noteNumber": 43,
        "velocity": 87
      },
      {
        "deltaTime": 410,
        "channel": 1,
        "type": "channel",
        "noteNumber": 43,
        "velocity": 82,
        "subtype": "noteOn"
      },
      {
        "deltaTime": 458,
        "channel": 1,
        "type": "channel",
        "subtype": "noteOff",
        "noteNumber": 43,
        "velocity": 82
      },
      {
        "deltaTime": 42,
        "channel": 1,
        "type": "channel",
        "noteNumber": 50,
        "velocity": 82,
        "subtype": "noteOn"
      },
      {
        "deltaTime": 1458,
        "channel": 1,
        "type": "channel",
        "subtype": "noteOff",
        "noteNumber": 50,
        "velocity": 82
      },
      {
        "deltaTime": 42,
        "channel": 1,
        "type": "channel",
        "noteNumber": 43,
        "velocity": 89,
        "subtype": "noteOn"
      },
      {
        "deltaTime": 308,
        "channel": 1,
        "type": "channel",
        "subtype": "noteOff",
        "noteNumber": 43,
        "velocity": 89
      },
      {
        "deltaTime": 192,
        "channel": 1,
        "type": "channel",
        "noteNumber": 43,
        "velocity": 87,
        "subtype": "noteOn"
      },
      {
        "deltaTime": 1500,
        "channel": 1,
        "type": "channel",
        "noteNumber": 51,
        "velocity": 82,
        "subtype": "noteOn"
      },
      {
        "deltaTime": 114,
        "channel": 1,
        "type": "channel",
        "subtype": "noteOff",
        "noteNumber": 43,
        "velocity": 87
      },
      {
        "deltaTime": 116,
        "channel": 1,
        "type": "channel",
        "subtype": "noteOff",
        "noteNumber": 51,
        "velocity": 82
      },
      {
        "deltaTime": 270,
        "channel": 1,
        "type": "channel",
        "noteNumber": 51,
        "velocity": 87,
        "subtype": "noteOn"
      },
      {
        "deltaTime": 1438,
        "channel": 1,
        "type": "channel",
        "subtype": "noteOff",
        "noteNumber": 51,
        "velocity": 87
      },
      {
        "deltaTime": 62,
        "channel": 1,
        "type": "channel",
        "noteNumber": 35,
        "velocity": 76,
        "subtype": "noteOn"
      },
      {
        "deltaTime": 114,
        "channel": 1,
        "type": "channel",
        "subtype": "noteOff",
        "noteNumber": 35,
        "velocity": 76
      },
      {
        "deltaTime": 386,
        "channel": 1,
        "type": "channel",
        "noteNumber": 36,
        "velocity": 87,
        "subtype": "noteOn"
      },
      {
        "deltaTime": 1500,
        "channel": 1,
        "type": "channel",
        "noteNumber": 43,
        "velocity": 82,
        "subtype": "noteOn"
      },
      {
        "deltaTime": 114,
        "channel": 1,
        "type": "channel",
        "subtype": "noteOff",
        "noteNumber": 36,
        "velocity": 87
      },
      {
        "deltaTime": 116,
        "channel": 1,
        "type": "channel",
        "subtype": "noteOff",
        "noteNumber": 43,
        "velocity": 82
      },
      {
        "deltaTime": 270,
        "channel": 1,
        "type": "channel",
        "noteNumber": 43,
        "velocity": 87,
        "subtype": "noteOn"
      },
      {
        "deltaTime": 1438,
        "channel": 1,
        "type": "channel",
        "subtype": "noteOff",
        "noteNumber": 43,
        "velocity": 87
      },
      {
        "deltaTime": 62,
        "channel": 1,
        "type": "channel",
        "noteNumber": 40,
        "velocity": 76,
        "subtype": "noteOn"
      },
      {
        "deltaTime": 114,
        "channel": 1,
        "type": "channel",
        "subtype": "noteOff",
        "noteNumber": 40,
        "velocity": 76
      },
      {
        "deltaTime": 386,
        "channel": 1,
        "type": "channel",
        "noteNumber": 41,
        "velocity": 87,
        "subtype": "noteOn"
      },
      {
        "deltaTime": 1500,
        "channel": 1,
        "type": "channel",
        "noteNumber": 48,
        "velocity": 82,
        "subtype": "noteOn"
      },
      {
        "deltaTime": 100,
        "channel": 1,
        "type": "channel",
        "subtype": "noteOff",
        "noteNumber": 41,
        "velocity": 87
      },
      {
        "deltaTime": 150,
        "channel": 1,
        "type": "channel",
        "subtype": "noteOff",
        "noteNumber": 48,
        "velocity": 82
      },
      {
        "deltaTime": 250,
        "channel": 1,
        "type": "channel",
        "noteNumber": 48,
        "velocity": 93,
        "subtype": "noteOn"
      },
      {
        "deltaTime": 1416,
        "channel": 1,
        "type": "channel",
        "subtype": "noteOff",
        "noteNumber": 48,
        "velocity": 93
      },
      {
        "deltaTime": 84,
        "channel": 1,
        "type": "channel",
        "noteNumber": 36,
        "velocity": 82,
        "subtype": "noteOn"
      },
      {
        "deltaTime": 198,
        "channel": 1,
        "type": "channel",
        "subtype": "noteOff",
        "noteNumber": 36,
        "velocity": 82
      },
      {
        "deltaTime": 302,
        "channel": 1,
        "type": "channel",
        "noteNumber": 35,
        "velocity": 85,
        "subtype": "noteOn"
      },
      {
        "deltaTime": 1146,
        "channel": 1,
        "type": "channel",
        "subtype": "noteOff",
        "noteNumber": 35,
        "velocity": 85
      },
      {
        "deltaTime": 354,
        "channel": 1,
        "type": "channel",
        "noteNumber": 35,
        "velocity": 82,
        "subtype": "noteOn"
      },
      {
        "deltaTime": 406,
        "channel": 1,
        "type": "channel",
        "subtype": "noteOff",
        "noteNumber": 35,
        "velocity": 82
      },
      {
        "deltaTime": 94,
        "channel": 1,
        "type": "channel",
        "noteNumber": 42,
        "velocity": 82,
        "subtype": "noteOn"
      },
      {
        "deltaTime": 1506,
        "channel": 1,
        "type": "channel",
        "subtype": "noteOff",
        "noteNumber": 42,
        "velocity": 82
      },
      {
        "deltaTime": 0,
        "channel": 1,
        "type": "channel",
        "noteNumber": 35,
        "velocity": 100,
        "subtype": "noteOn"
      },
      {
        "deltaTime": 286,
        "channel": 1,
        "type": "channel",
        "subtype": "noteOff",
        "noteNumber": 35,
        "velocity": 100
      },
      {
        "deltaTime": 208,
        "channel": 1,
        "type": "channel",
        "noteNumber": 34,
        "velocity": 85,
        "subtype": "noteOn"
      },
      {
        "deltaTime": 1500,
        "channel": 1,
        "type": "channel",
        "noteNumber": 41,
        "velocity": 98,
        "subtype": "noteOn"
      },
      {
        "deltaTime": 240,
        "channel": 1,
        "type": "channel",
        "subtype": "noteOff",
        "noteNumber": 34,
        "velocity": 85
      },
      {
        "deltaTime": 150,
        "channel": 1,
        "type": "channel",
        "subtype": "noteOff",
        "noteNumber": 41,
        "velocity": 98
      },
      {
        "deltaTime": 110,
        "channel": 1,
        "type": "channel",
        "noteNumber": 41,
        "velocity": 82,
        "subtype": "noteOn"
      },
      {
        "deltaTime": 1500,
        "channel": 1,
        "type": "channel",
        "noteNumber": 34,
        "velocity": 87,
        "subtype": "noteOn"
      },
      {
        "deltaTime": 166,
        "channel": 1,
        "type": "channel",
        "subtype": "noteOff",
        "noteNumber": 41,
        "velocity": 82
      },
      {
        "deltaTime": 230,
        "channel": 1,
        "type": "channel",
        "subtype": "noteOff",
        "noteNumber": 34,
        "velocity": 87
      },
      {
        "deltaTime": 104,
        "channel": 1,
        "type": "channel",
        "noteNumber": 33,
        "velocity": 98,
        "subtype": "noteOn"
      },
      {
        "deltaTime": 1000,
        "channel": 1,
        "type": "channel",
        "noteNumber": 40,
        "velocity": 89,
        "subtype": "noteOn"
      },
      {
        "deltaTime": 16,
        "channel": 1,
        "type": "channel",
        "subtype": "noteOff",
        "noteNumber": 33,
        "velocity": 98
      },
      {
        "deltaTime": 484,
        "channel": 1,
        "type": "channel",
        "noteNumber": 28,
        "velocity": 80,
        "subtype": "noteOn"
      },
      {
        "deltaTime": 32,
        "channel": 1,
        "type": "channel",
        "subtype": "noteOff",
        "noteNumber": 40,
        "velocity": 89
      },
      {
        "deltaTime": 332,
        "channel": 1,
        "type": "channel",
        "subtype": "noteOff",
        "noteNumber": 28,
        "velocity": 80
      },
      {
        "deltaTime": 136,
        "channel": 1,
        "type": "channel",
        "noteNumber": 38,
        "velocity": 98,
        "subtype": "noteOn"
      },
      {
        "deltaTime": 1000,
        "channel": 1,
        "type": "channel",
        "noteNumber": 45,
        "velocity": 89,
        "subtype": "noteOn"
      },
      {
        "deltaTime": 16,
        "channel": 1,
        "type": "channel",
        "subtype": "noteOff",
        "noteNumber": 38,
        "velocity": 98
      },
      {
        "deltaTime": 484,
        "channel": 1,
        "type": "channel",
        "noteNumber": 33,
        "velocity": 80,
        "subtype": "noteOn"
      },
      {
        "deltaTime": 32,
        "channel": 1,
        "type": "channel",
        "subtype": "noteOff",
        "noteNumber": 45,
        "velocity": 89
      },
      {
        "deltaTime": 332,
        "channel": 1,
        "type": "channel",
        "subtype": "noteOff",
        "noteNumber": 33,
        "velocity": 80
      },
      {
        "deltaTime": 136,
        "channel": 1,
        "type": "channel",
        "noteNumber": 43,
        "velocity": 87,
        "subtype": "noteOn"
      },
      {
        "deltaTime": 1090,
        "channel": 1,
        "type": "channel",
        "subtype": "noteOff",
        "noteNumber": 43,
        "velocity": 87
      },
      {
        "deltaTime": 2910,
        "channel": 1,
        "type": "channel",
        "noteNumber": 35,
        "velocity": 87,
        "subtype": "noteOn"
      },
      {
        "deltaTime": 1500,
        "channel": 1,
        "type": "channel",
        "noteNumber": 42,
        "velocity": 82,
        "subtype": "noteOn"
      },
      {
        "deltaTime": 114,
        "channel": 1,
        "type": "channel",
        "subtype": "noteOff",
        "noteNumber": 35,
        "velocity": 87
      },
      {
        "deltaTime": 116,
        "channel": 1,
        "type": "channel",
        "subtype": "noteOff",
        "noteNumber": 42,
        "velocity": 82
      },
      {
        "deltaTime": 270,
        "channel": 1,
        "type": "channel",
        "noteNumber": 42,
        "velocity": 87,
        "subtype": "noteOn"
      },
      {
        "deltaTime": 1438,
        "channel": 1,
        "type": "channel",
        "subtype": "noteOff",
        "noteNumber": 42,
        "velocity": 87
      },
      {
        "deltaTime": 62,
        "channel": 1,
        "type": "channel",
        "noteNumber": 33,
        "velocity": 76,
        "subtype": "noteOn"
      },
      {
        "deltaTime": 114,
        "channel": 1,
        "type": "channel",
        "subtype": "noteOff",
        "noteNumber": 33,
        "velocity": 76
      },
      {
        "deltaTime": 386,
        "channel": 1,
        "type": "channel",
        "noteNumber": 34,
        "velocity": 85,
        "subtype": "noteOn"
      },
      {
        "deltaTime": 1146,
        "channel": 1,
        "type": "channel",
        "subtype": "noteOff",
        "noteNumber": 34,
        "velocity": 85
      },
      {
        "deltaTime": 354,
        "channel": 1,
        "type": "channel",
        "noteNumber": 34,
        "velocity": 82,
        "subtype": "noteOn"
      },
      {
        "deltaTime": 406,
        "channel": 1,
        "type": "channel",
        "subtype": "noteOff",
        "noteNumber": 34,
        "velocity": 82
      },
      {
        "deltaTime": 94,
        "channel": 1,
        "type": "channel",
        "noteNumber": 41,
        "velocity": 82,
        "subtype": "noteOn"
      },
      {
        "deltaTime": 1506,
        "channel": 1,
        "type": "channel",
        "subtype": "noteOff",
        "noteNumber": 41,
        "velocity": 82
      },
      {
        "deltaTime": 0,
        "channel": 1,
        "type": "channel",
        "noteNumber": 34,
        "velocity": 100,
        "subtype": "noteOn"
      },
      {
        "deltaTime": 286,
        "channel": 1,
        "type": "channel",
        "subtype": "noteOff",
        "noteNumber": 34,
        "velocity": 100
      },
      {
        "deltaTime": 208,
        "channel": 1,
        "type": "channel",
        "noteNumber": 33,
        "velocity": 87,
        "subtype": "noteOn"
      },
      {
        "deltaTime": 1090,
        "channel": 1,
        "type": "channel",
        "subtype": "noteOff",
        "noteNumber": 33,
        "velocity": 87
      },
      {
        "deltaTime": 410,
        "channel": 1,
        "type": "channel",
        "noteNumber": 33,
        "velocity": 82,
        "subtype": "noteOn"
      },
      {
        "deltaTime": 458,
        "channel": 1,
        "type": "channel",
        "subtype": "noteOff",
        "noteNumber": 33,
        "velocity": 82
      },
      {
        "deltaTime": 42,
        "channel": 1,
        "type": "channel",
        "noteNumber": 40,
        "velocity": 82,
        "subtype": "noteOn"
      },
      {
        "deltaTime": 1458,
        "channel": 1,
        "type": "channel",
        "subtype": "noteOff",
        "noteNumber": 40,
        "velocity": 82
      },
      {
        "deltaTime": 42,
        "channel": 1,
        "type": "channel",
        "noteNumber": 33,
        "velocity": 89,
        "subtype": "noteOn"
      },
      {
        "deltaTime": 308,
        "channel": 1,
        "type": "channel",
        "subtype": "noteOff",
        "noteNumber": 33,
        "velocity": 89
      },
      {
        "deltaTime": 192,
        "channel": 1,
        "type": "channel",
        "noteNumber": 38,
        "velocity": 87,
        "subtype": "noteOn"
      },
      {
        "deltaTime": 1500,
        "channel": 1,
        "type": "channel",
        "noteNumber": 45,
        "velocity": 82,
        "subtype": "noteOn"
      },
      {
        "deltaTime": 114,
        "channel": 1,
        "type": "channel",
        "subtype": "noteOff",
        "noteNumber": 38,
        "velocity": 87
      },
      {
        "deltaTime": 116,
        "channel": 1,
        "type": "channel",
        "subtype": "noteOff",
        "noteNumber": 45,
        "velocity": 82
      },
      {
        "deltaTime": 270,
        "channel": 1,
        "type": "channel",
        "noteNumber": 45,
        "velocity": 87,
        "subtype": "noteOn"
      },
      {
        "deltaTime": 1438,
        "channel": 1,
        "type": "channel",
        "subtype": "noteOff",
        "noteNumber": 45,
        "velocity": 87
      },
      {
        "deltaTime": 62,
        "channel": 1,
        "type": "channel",
        "noteNumber": 34,
        "velocity": 76,
        "subtype": "noteOn"
      },
      {
        "deltaTime": 114,
        "channel": 1,
        "type": "channel",
        "subtype": "noteOff",
        "noteNumber": 34,
        "velocity": 76
      },
      {
        "deltaTime": 386,
        "channel": 1,
        "type": "channel",
        "noteNumber": 35,
        "velocity": 85,
        "subtype": "noteOn"
      },
      {
        "deltaTime": 1146,
        "channel": 1,
        "type": "channel",
        "subtype": "noteOff",
        "noteNumber": 35,
        "velocity": 85
      },
      {
        "deltaTime": 354,
        "channel": 1,
        "type": "channel",
        "noteNumber": 35,
        "velocity": 82,
        "subtype": "noteOn"
      },
      {
        "deltaTime": 406,
        "channel": 1,
        "type": "channel",
        "subtype": "noteOff",
        "noteNumber": 35,
        "velocity": 82
      },
      {
        "deltaTime": 94,
        "channel": 1,
        "type": "channel",
        "noteNumber": 42,
        "velocity": 82,
        "subtype": "noteOn"
      },
      {
        "deltaTime": 1506,
        "channel": 1,
        "type": "channel",
        "subtype": "noteOff",
        "noteNumber": 42,
        "velocity": 82
      },
      {
        "deltaTime": 0,
        "channel": 1,
        "type": "channel",
        "noteNumber": 35,
        "velocity": 100,
        "subtype": "noteOn"
      },
      {
        "deltaTime": 286,
        "channel": 1,
        "type": "channel",
        "subtype": "noteOff",
        "noteNumber": 35,
        "velocity": 100
      },
      {
        "deltaTime": 208,
        "channel": 1,
        "type": "channel",
        "noteNumber": 34,
        "velocity": 82,
        "subtype": "noteOn"
      },
      {
        "deltaTime": 1212,
        "channel": 1,
        "type": "channel",
        "subtype": "noteOff",
        "noteNumber": 34,
        "velocity": 82
      },
      {
        "deltaTime": 288,
        "channel": 1,
        "type": "channel",
        "noteNumber": 34,
        "velocity": 85,
        "subtype": "noteOn"
      },
      {
        "deltaTime": 266,
        "channel": 1,
        "type": "channel",
        "subtype": "noteOff",
        "noteNumber": 34,
        "velocity": 85
      },
      {
        "deltaTime": 234,
        "channel": 1,
        "type": "channel",
        "noteNumber": 34,
        "velocity": 82,
        "subtype": "noteOn"
      },
      {
        "deltaTime": 1380,
        "channel": 1,
        "type": "channel",
        "subtype": "noteOff",
        "noteNumber": 34,
        "velocity": 82
      },
      {
        "deltaTime": 120,
        "channel": 1,
        "type": "channel",
        "noteNumber": 34,
        "velocity": 87,
        "subtype": "noteOn"
      },
      {
        "deltaTime": 308,
        "channel": 1,
        "type": "channel",
        "subtype": "noteOff",
        "noteNumber": 34,
        "velocity": 87
      },
      {
        "deltaTime": 192,
        "channel": 1,
        "type": "channel",
        "noteNumber": 33,
        "velocity": 82,
        "subtype": "noteOn"
      },
      {
        "deltaTime": 1212,
        "channel": 1,
        "type": "channel",
        "subtype": "noteOff",
        "noteNumber": 33,
        "velocity": 82
      },
      {
        "deltaTime": 288,
        "channel": 1,
        "type": "channel",
        "noteNumber": 33,
        "velocity": 85,
        "subtype": "noteOn"
      },
      {
        "deltaTime": 266,
        "channel": 1,
        "type": "channel",
        "subtype": "noteOff",
        "noteNumber": 33,
        "velocity": 85
      },
      {
        "deltaTime": 234,
        "channel": 1,
        "type": "channel",
        "noteNumber": 33,
        "velocity": 82,
        "subtype": "noteOn"
      },
      {
        "deltaTime": 1380,
        "channel": 1,
        "type": "channel",
        "subtype": "noteOff",
        "noteNumber": 33,
        "velocity": 82
      },
      {
        "deltaTime": 120,
        "channel": 1,
        "type": "channel",
        "noteNumber": 33,
        "velocity": 87,
        "subtype": "noteOn"
      },
      {
        "deltaTime": 308,
        "channel": 1,
        "type": "channel",
        "subtype": "noteOff",
        "noteNumber": 33,
        "velocity": 87
      },
      {
        "deltaTime": 192,
        "channel": 1,
        "type": "channel",
        "noteNumber": 44,
        "velocity": 87,
        "subtype": "noteOn"
      },
      {
        "deltaTime": 1500,
        "channel": 1,
        "type": "channel",
        "noteNumber": 50,
        "velocity": 82,
        "subtype": "noteOn"
      },
      {
        "deltaTime": 100,
        "channel": 1,
        "type": "channel",
        "subtype": "noteOff",
        "noteNumber": 44,
        "velocity": 87
      },
      {
        "deltaTime": 150,
        "channel": 1,
        "type": "channel",
        "subtype": "noteOff",
        "noteNumber": 50,
        "velocity": 82
      },
      {
        "deltaTime": 250,
        "channel": 1,
        "type": "channel",
        "noteNumber": 50,
        "velocity": 93,
        "subtype": "noteOn"
      },
      {
        "deltaTime": 1416,
        "channel": 1,
        "type": "channel",
        "subtype": "noteOff",
        "noteNumber": 50,
        "velocity": 93
      },
      {
        "deltaTime": 84,
        "channel": 1,
        "type": "channel",
        "noteNumber": 44,
        "velocity": 82,
        "subtype": "noteOn"
      },
      {
        "deltaTime": 198,
        "channel": 1,
        "type": "channel",
        "subtype": "noteOff",
        "noteNumber": 44,
        "velocity": 82
      },
      {
        "deltaTime": 302,
        "channel": 1,
        "type": "channel",
        "noteNumber": 43,
        "velocity": 85,
        "subtype": "noteOn"
      },
      {
        "deltaTime": 1500,
        "channel": 1,
        "type": "channel",
        "noteNumber": 50,
        "velocity": 98,
        "subtype": "noteOn"
      },
      {
        "deltaTime": 240,
        "channel": 1,
        "type": "channel",
        "subtype": "noteOff",
        "noteNumber": 43,
        "velocity": 85
      },
      {
        "deltaTime": 150,
        "channel": 1,
        "type": "channel",
        "subtype": "noteOff",
        "noteNumber": 50,
        "velocity": 98
      },
      {
        "deltaTime": 110,
        "channel": 1,
        "type": "channel",
        "noteNumber": 50,
        "velocity": 82,
        "subtype": "noteOn"
      },
      {
        "deltaTime": 1500,
        "channel": 1,
        "type": "channel",
        "noteNumber": 43,
        "velocity": 87,
        "subtype": "noteOn"
      },
      {
        "deltaTime": 166,
        "channel": 1,
        "type": "channel",
        "subtype": "noteOff",
        "noteNumber": 50,
        "velocity": 82
      },
      {
        "deltaTime": 230,
        "channel": 1,
        "type": "channel",
        "subtype": "noteOff",
        "noteNumber": 43,
        "velocity": 87
      },
      {
        "deltaTime": 104,
        "channel": 1,
        "type": "channel",
        "noteNumber": 43,
        "velocity": 87,
        "subtype": "noteOn"
      },
      {
        "deltaTime": 1090,
        "channel": 1,
        "type": "channel",
        "subtype": "noteOff",
        "noteNumber": 43,
        "velocity": 87
      },
      {
        "deltaTime": 410,
        "channel": 1,
        "type": "channel",
        "noteNumber": 43,
        "velocity": 82,
        "subtype": "noteOn"
      },
      {
        "deltaTime": 458,
        "channel": 1,
        "type": "channel",
        "subtype": "noteOff",
        "noteNumber": 43,
        "velocity": 82
      },
      {
        "deltaTime": 42,
        "channel": 1,
        "type": "channel",
        "noteNumber": 51,
        "velocity": 82,
        "subtype": "noteOn"
      },
      {
        "deltaTime": 1458,
        "channel": 1,
        "type": "channel",
        "subtype": "noteOff",
        "noteNumber": 51,
        "velocity": 82
      },
      {
        "deltaTime": 42,
        "channel": 1,
        "type": "channel",
        "noteNumber": 43,
        "velocity": 89,
        "subtype": "noteOn"
      },
      {
        "deltaTime": 308,
        "channel": 1,
        "type": "channel",
        "subtype": "noteOff",
        "noteNumber": 43,
        "velocity": 89
      },
      {
        "deltaTime": 192,
        "channel": 1,
        "type": "channel",
        "noteNumber": 36,
        "velocity": 85,
        "subtype": "noteOn"
      },
      {
        "deltaTime": 1146,
        "channel": 1,
        "type": "channel",
        "subtype": "noteOff",
        "noteNumber": 36,
        "velocity": 85
      },
      {
        "deltaTime": 354,
        "channel": 1,
        "type": "channel",
        "noteNumber": 36,
        "velocity": 82,
        "subtype": "noteOn"
      },
      {
        "deltaTime": 406,
        "channel": 1,
        "type": "channel",
        "subtype": "noteOff",
        "noteNumber": 36,
        "velocity": 82
      },
      {
        "deltaTime": 94,
        "channel": 1,
        "type": "channel",
        "noteNumber": 43,
        "velocity": 82,
        "subtype": "noteOn"
      },
      {
        "deltaTime": 1506,
        "channel": 1,
        "type": "channel",
        "subtype": "noteOff",
        "noteNumber": 43,
        "velocity": 82
      },
      {
        "deltaTime": 0,
        "channel": 1,
        "type": "channel",
        "noteNumber": 36,
        "velocity": 100,
        "subtype": "noteOn"
      },
      {
        "deltaTime": 286,
        "channel": 1,
        "type": "channel",
        "subtype": "noteOff",
        "noteNumber": 36,
        "velocity": 100
      },
      {
        "deltaTime": 208,
        "channel": 1,
        "type": "channel",
        "noteNumber": 41,
        "velocity": 85,
        "subtype": "noteOn"
      },
      {
        "deltaTime": 1500,
        "channel": 1,
        "type": "channel",
        "noteNumber": 48,
        "velocity": 98,
        "subtype": "noteOn"
      },
      {
        "deltaTime": 240,
        "channel": 1,
        "type": "channel",
        "subtype": "noteOff",
        "noteNumber": 41,
        "velocity": 85
      },
      {
        "deltaTime": 150,
        "channel": 1,
        "type": "channel",
        "subtype": "noteOff",
        "noteNumber": 48,
        "velocity": 98
      },
      {
        "deltaTime": 110,
        "channel": 1,
        "type": "channel",
        "noteNumber": 48,
        "velocity": 82,
        "subtype": "noteOn"
      },
      {
        "deltaTime": 1500,
        "channel": 1,
        "type": "channel",
        "noteNumber": 41,
        "velocity": 87,
        "subtype": "noteOn"
      },
      {
        "deltaTime": 166,
        "channel": 1,
        "type": "channel",
        "subtype": "noteOff",
        "noteNumber": 48,
        "velocity": 82
      },
      {
        "deltaTime": 230,
        "channel": 1,
        "type": "channel",
        "subtype": "noteOff",
        "noteNumber": 41,
        "velocity": 87
      },
      {
        "deltaTime": 104,
        "channel": 1,
        "type": "channel",
        "noteNumber": 35,
        "velocity": 87,
        "subtype": "noteOn"
      },
      {
        "deltaTime": 1090,
        "channel": 1,
        "type": "channel",
        "subtype": "noteOff",
        "noteNumber": 35,
        "velocity": 87
      },
      {
        "deltaTime": 410,
        "channel": 1,
        "type": "channel",
        "noteNumber": 35,
        "velocity": 82,
        "subtype": "noteOn"
      },
      {
        "deltaTime": 458,
        "channel": 1,
        "type": "channel",
        "subtype": "noteOff",
        "noteNumber": 35,
        "velocity": 82
      },
      {
        "deltaTime": 42,
        "channel": 1,
        "type": "channel",
        "noteNumber": 42,
        "velocity": 82,
        "subtype": "noteOn"
      },
      {
        "deltaTime": 1458,
        "channel": 1,
        "type": "channel",
        "subtype": "noteOff",
        "noteNumber": 42,
        "velocity": 82
      },
      {
        "deltaTime": 42,
        "channel": 1,
        "type": "channel",
        "noteNumber": 35,
        "velocity": 89,
        "subtype": "noteOn"
      },
      {
        "deltaTime": 308,
        "channel": 1,
        "type": "channel",
        "subtype": "noteOff",
        "noteNumber": 35,
        "velocity": 89
      },
      {
        "deltaTime": 192,
        "channel": 1,
        "type": "channel",
        "noteNumber": 34,
        "velocity": 82,
        "subtype": "noteOn"
      },
      {
        "deltaTime": 1212,
        "channel": 1,
        "type": "channel",
        "subtype": "noteOff",
        "noteNumber": 34,
        "velocity": 82
      },
      {
        "deltaTime": 288,
        "channel": 1,
        "type": "channel",
        "noteNumber": 34,
        "velocity": 85,
        "subtype": "noteOn"
      },
      {
        "deltaTime": 266,
        "channel": 1,
        "type": "channel",
        "subtype": "noteOff",
        "noteNumber": 34,
        "velocity": 85
      },
      {
        "deltaTime": 234,
        "channel": 1,
        "type": "channel",
        "noteNumber": 34,
        "velocity": 82,
        "subtype": "noteOn"
      },
      {
        "deltaTime": 1380,
        "channel": 1,
        "type": "channel",
        "subtype": "noteOff",
        "noteNumber": 34,
        "velocity": 82
      },
      {
        "deltaTime": 120,
        "channel": 1,
        "type": "channel",
        "noteNumber": 34,
        "velocity": 87,
        "subtype": "noteOn"
      },
      {
        "deltaTime": 308,
        "channel": 1,
        "type": "channel",
        "subtype": "noteOff",
        "noteNumber": 34,
        "velocity": 87
      },
      {
        "deltaTime": 240,
        "channel": 1,
        "type": "channel",
        "noteNumber": 33,
        "velocity": 85,
        "subtype": "noteOn"
      },
      {
        "deltaTime": 1316,
        "channel": 1,
        "type": "channel",
        "subtype": "noteOff",
        "noteNumber": 33,
        "velocity": 85
      },
      {
        "deltaTime": 168,
        "channel": 1,
        "type": "channel",
        "noteNumber": 33,
        "velocity": 85,
        "subtype": "noteOn"
      },
      {
        "deltaTime": 468,
        "channel": 1,
        "type": "channel",
        "subtype": "noteOff",
        "noteNumber": 33,
        "velocity": 85
      },
      {
        "deltaTime": 0,
        "channel": 1,
        "type": "channel",
        "noteNumber": 38,
        "velocity": 98,
        "subtype": "noteOn"
      },
      {
        "deltaTime": 1000,
        "channel": 1,
        "type": "channel",
        "noteNumber": 45,
        "velocity": 89,
        "subtype": "noteOn"
      },
      {
        "deltaTime": 16,
        "channel": 1,
        "type": "channel",
        "subtype": "noteOff",
        "noteNumber": 38,
        "velocity": 98
      },
      {
        "deltaTime": 484,
        "channel": 1,
        "type": "channel",
        "noteNumber": 33,
        "velocity": 80,
        "subtype": "noteOn"
      },
      {
        "deltaTime": 32,
        "channel": 1,
        "type": "channel",
        "subtype": "noteOff",
        "noteNumber": 45,
        "velocity": 89
      },
      {
        "deltaTime": 332,
        "channel": 1,
        "type": "channel",
        "subtype": "noteOff",
        "noteNumber": 33,
        "velocity": 80
      },
      {
        "deltaTime": 136,
        "channel": 1,
        "type": "channel",
        "noteNumber": 43,
        "velocity": 87,
        "subtype": "noteOn"
      },
      {
        "deltaTime": 1090,
        "channel": 1,
        "type": "channel",
        "subtype": "noteOff",
        "noteNumber": 43,
        "velocity": 87
      },
      {
        "deltaTime": 410,
        "channel": 1,
        "type": "channel",
        "noteNumber": 43,
        "velocity": 82,
        "subtype": "noteOn"
      },
      {
        "deltaTime": 458,
        "channel": 1,
        "type": "channel",
        "subtype": "noteOff",
        "noteNumber": 43,
        "velocity": 82
      },
      {
        "deltaTime": 42,
        "channel": 1,
        "type": "channel",
        "noteNumber": 50,
        "velocity": 82,
        "subtype": "noteOn"
      },
      {
        "deltaTime": 1458,
        "channel": 1,
        "type": "channel",
        "subtype": "noteOff",
        "noteNumber": 50,
        "velocity": 82
      },
      {
        "deltaTime": 42,
        "channel": 1,
        "type": "channel",
        "noteNumber": 43,
        "velocity": 89,
        "subtype": "noteOn"
      },
      {
        "deltaTime": 308,
        "channel": 1,
        "type": "channel",
        "subtype": "noteOff",
        "noteNumber": 43,
        "velocity": 89
      },
      {
        "deltaTime": 192,
        "channel": 1,
        "type": "channel",
        "noteNumber": 36,
        "velocity": 87,
        "subtype": "noteOn"
      },
      {
        "deltaTime": 1500,
        "channel": 1,
        "type": "channel",
        "noteNumber": 43,
        "velocity": 82,
        "subtype": "noteOn"
      },
      {
        "deltaTime": 100,
        "channel": 1,
        "type": "channel",
        "subtype": "noteOff",
        "noteNumber": 36,
        "velocity": 87
      },
      {
        "deltaTime": 150,
        "channel": 1,
        "type": "channel",
        "subtype": "noteOff",
        "noteNumber": 43,
        "velocity": 82
      },
      {
        "deltaTime": 250,
        "channel": 1,
        "type": "channel",
        "noteNumber": 43,
        "velocity": 93,
        "subtype": "noteOn"
      },
      {
        "deltaTime": 1416,
        "channel": 1,
        "type": "channel",
        "subtype": "noteOff",
        "noteNumber": 43,
        "velocity": 93
      },
      {
        "deltaTime": 84,
        "channel": 1,
        "type": "channel",
        "noteNumber": 42,
        "velocity": 82,
        "subtype": "noteOn"
      },
      {
        "deltaTime": 198,
        "channel": 1,
        "type": "channel",
        "subtype": "noteOff",
        "noteNumber": 42,
        "velocity": 82
      },
      {
        "deltaTime": 302,
        "channel": 1,
        "type": "channel",
        "noteNumber": 41,
        "velocity": 87,
        "subtype": "noteOn"
      },
      {
        "deltaTime": 1500,
        "channel": 1,
        "type": "channel",
        "noteNumber": 48,
        "velocity": 82,
        "subtype": "noteOn"
      },
      {
        "deltaTime": 100,
        "channel": 1,
        "type": "channel",
        "subtype": "noteOff",
        "noteNumber": 41,
        "velocity": 87
      },
      {
        "deltaTime": 150,
        "channel": 1,
        "type": "channel",
        "subtype": "noteOff",
        "noteNumber": 48,
        "velocity": 82
      },
      {
        "deltaTime": 250,
        "channel": 1,
        "type": "channel",
        "noteNumber": 48,
        "velocity": 93,
        "subtype": "noteOn"
      },
      {
        "deltaTime": 1416,
        "channel": 1,
        "type": "channel",
        "subtype": "noteOff",
        "noteNumber": 48,
        "velocity": 93
      },
      {
        "deltaTime": 84,
        "channel": 1,
        "type": "channel",
        "noteNumber": 35,
        "velocity": 82,
        "subtype": "noteOn"
      },
      {
        "deltaTime": 198,
        "channel": 1,
        "type": "channel",
        "subtype": "noteOff",
        "noteNumber": 35,
        "velocity": 82
      },
      {
        "deltaTime": 302,
        "channel": 1,
        "type": "channel",
        "noteNumber": 34,
        "velocity": 87,
        "subtype": "noteOn"
      },
      {
        "deltaTime": 1500,
        "channel": 1,
        "type": "channel",
        "noteNumber": 41,
        "velocity": 82,
        "subtype": "noteOn"
      },
      {
        "deltaTime": 114,
        "channel": 1,
        "type": "channel",
        "subtype": "noteOff",
        "noteNumber": 34,
        "velocity": 87
      },
      {
        "deltaTime": 116,
        "channel": 1,
        "type": "channel",
        "subtype": "noteOff",
        "noteNumber": 41,
        "velocity": 82
      },
      {
        "deltaTime": 270,
        "channel": 1,
        "type": "channel",
        "noteNumber": 41,
        "velocity": 87,
        "subtype": "noteOn"
      },
      {
        "deltaTime": 1438,
        "channel": 1,
        "type": "channel",
        "subtype": "noteOff",
        "noteNumber": 41,
        "velocity": 87
      },
      {
        "deltaTime": 62,
        "channel": 1,
        "type": "channel",
        "noteNumber": 33,
        "velocity": 76,
        "subtype": "noteOn"
      },
      {
        "deltaTime": 114,
        "channel": 1,
        "type": "channel",
        "subtype": "noteOff",
        "noteNumber": 33,
        "velocity": 76
      },
      {
        "deltaTime": 386,
        "channel": 1,
        "type": "channel",
        "noteNumber": 34,
        "velocity": 82,
        "subtype": "noteOn"
      },
      {
        "deltaTime": 1212,
        "channel": 1,
        "type": "channel",
        "subtype": "noteOff",
        "noteNumber": 34,
        "velocity": 82
      },
      {
        "deltaTime": 288,
        "channel": 1,
        "type": "channel",
        "noteNumber": 34,
        "velocity": 85,
        "subtype": "noteOn"
      },
      {
        "deltaTime": 266,
        "channel": 1,
        "type": "channel",
        "subtype": "noteOff",
        "noteNumber": 34,
        "velocity": 85
      },
      {
        "deltaTime": 234,
        "channel": 1,
        "type": "channel",
        "noteNumber": 34,
        "velocity": 82,
        "subtype": "noteOn"
      },
      {
        "deltaTime": 1380,
        "channel": 1,
        "type": "channel",
        "subtype": "noteOff",
        "noteNumber": 34,
        "velocity": 82
      },
      {
        "deltaTime": 120,
        "channel": 1,
        "type": "channel",
        "noteNumber": 34,
        "velocity": 87,
        "subtype": "noteOn"
      },
      {
        "deltaTime": 308,
        "channel": 1,
        "type": "channel",
        "subtype": "noteOff",
        "noteNumber": 34,
        "velocity": 87
      },
      {
        "deltaTime": 192,
        "channel": 1,
        "type": "channel",
        "noteNumber": 34,
        "velocity": 85,
        "subtype": "noteOn"
      },
      {
        "deltaTime": 1500,
        "channel": 1,
        "type": "channel",
        "noteNumber": 41,
        "velocity": 98,
        "subtype": "noteOn"
      },
      {
        "deltaTime": 240,
        "channel": 1,
        "type": "channel",
        "subtype": "noteOff",
        "noteNumber": 34,
        "velocity": 85
      },
      {
        "deltaTime": 150,
        "channel": 1,
        "type": "channel",
        "subtype": "noteOff",
        "noteNumber": 41,
        "velocity": 98
      },
      {
        "deltaTime": 110,
        "channel": 1,
        "type": "channel",
        "noteNumber": 41,
        "velocity": 82,
        "subtype": "noteOn"
      },
      {
        "deltaTime": 1500,
        "channel": 1,
        "type": "channel",
        "noteNumber": 34,
        "velocity": 87,
        "subtype": "noteOn"
      },
      {
        "deltaTime": 166,
        "channel": 1,
        "type": "channel",
        "subtype": "noteOff",
        "noteNumber": 41,
        "velocity": 82
      },
      {
        "deltaTime": 230,
        "channel": 1,
        "type": "channel",
        "subtype": "noteOff",
        "noteNumber": 34,
        "velocity": 87
      },
      {
        "deltaTime": 104,
        "channel": 1,
        "type": "channel",
        "noteNumber": 39,
        "velocity": 87,
        "subtype": "noteOn"
      },
      {
        "deltaTime": 1500,
        "channel": 1,
        "type": "channel",
        "noteNumber": 46,
        "velocity": 82,
        "subtype": "noteOn"
      },
      {
        "deltaTime": 100,
        "channel": 1,
        "type": "channel",
        "subtype": "noteOff",
        "noteNumber": 39,
        "velocity": 87
      },
      {
        "deltaTime": 150,
        "channel": 1,
        "type": "channel",
        "subtype": "noteOff",
        "noteNumber": 46,
        "velocity": 82
      },
      {
        "deltaTime": 250,
        "channel": 1,
        "type": "channel",
        "noteNumber": 46,
        "velocity": 93,
        "subtype": "noteOn"
      },
      {
        "deltaTime": 1416,
        "channel": 1,
        "type": "channel",
        "subtype": "noteOff",
        "noteNumber": 46,
        "velocity": 93
      },
      {
        "deltaTime": 84,
        "channel": 1,
        "type": "channel",
        "noteNumber": 45,
        "velocity": 82,
        "subtype": "noteOn"
      },
      {
        "deltaTime": 198,
        "channel": 1,
        "type": "channel",
        "subtype": "noteOff",
        "noteNumber": 45,
        "velocity": 82
      },
      {
        "deltaTime": 302,
        "channel": 1,
        "type": "channel",
        "noteNumber": 44,
        "velocity": 82,
        "subtype": "noteOn"
      },
      {
        "deltaTime": 1212,
        "channel": 1,
        "type": "channel",
        "subtype": "noteOff",
        "noteNumber": 44,
        "velocity": 82
      },
      {
        "deltaTime": 288,
        "channel": 1,
        "type": "channel",
        "noteNumber": 44,
        "velocity": 85,
        "subtype": "noteOn"
      },
      {
        "deltaTime": 266,
        "channel": 1,
        "type": "channel",
        "subtype": "noteOff",
        "noteNumber": 44,
        "velocity": 85
      },
      {
        "deltaTime": 234,
        "channel": 1,
        "type": "channel",
        "noteNumber": 44,
        "velocity": 82,
        "subtype": "noteOn"
      },
      {
        "deltaTime": 1380,
        "channel": 1,
        "type": "channel",
        "subtype": "noteOff",
        "noteNumber": 44,
        "velocity": 82
      },
      {
        "deltaTime": 120,
        "channel": 1,
        "type": "channel",
        "noteNumber": 44,
        "velocity": 87,
        "subtype": "noteOn"
      },
      {
        "deltaTime": 308,
        "channel": 1,
        "type": "channel",
        "subtype": "noteOff",
        "noteNumber": 44,
        "velocity": 87
      },
      {
        "deltaTime": 192,
        "channel": 1,
        "type": "channel",
        "noteNumber": 38,
        "velocity": 87,
        "subtype": "noteOn"
      },
      {
        "deltaTime": 1500,
        "channel": 1,
        "type": "channel",
        "noteNumber": 45,
        "velocity": 82,
        "subtype": "noteOn"
      },
      {
        "deltaTime": 114,
        "channel": 1,
        "type": "channel",
        "subtype": "noteOff",
        "noteNumber": 38,
        "velocity": 87
      },
      {
        "deltaTime": 116,
        "channel": 1,
        "type": "channel",
        "subtype": "noteOff",
        "noteNumber": 45,
        "velocity": 82
      },
      {
        "deltaTime": 270,
        "channel": 1,
        "type": "channel",
        "noteNumber": 45,
        "velocity": 87,
        "subtype": "noteOn"
      },
      {
        "deltaTime": 1438,
        "channel": 1,
        "type": "channel",
        "subtype": "noteOff",
        "noteNumber": 45,
        "velocity": 87
      },
      {
        "deltaTime": 62,
        "channel": 1,
        "type": "channel",
        "noteNumber": 34,
        "velocity": 76,
        "subtype": "noteOn"
      },
      {
        "deltaTime": 114,
        "channel": 1,
        "type": "channel",
        "subtype": "noteOff",
        "noteNumber": 34,
        "velocity": 76
      },
      {
        "deltaTime": 386,
        "channel": 1,
        "type": "channel",
        "noteNumber": 35,
        "velocity": 87,
        "subtype": "noteOn"
      },
      {
        "deltaTime": 1500,
        "channel": 1,
        "type": "channel",
        "noteNumber": 42,
        "velocity": 82,
        "subtype": "noteOn"
      },
      {
        "deltaTime": 100,
        "channel": 1,
        "type": "channel",
        "subtype": "noteOff",
        "noteNumber": 35,
        "velocity": 87
      },
      {
        "deltaTime": 150,
        "channel": 1,
        "type": "channel",
        "subtype": "noteOff",
        "noteNumber": 42,
        "velocity": 82
      },
      {
        "deltaTime": 250,
        "channel": 1,
        "type": "channel",
        "noteNumber": 42,
        "velocity": 93,
        "subtype": "noteOn"
      },
      {
        "deltaTime": 1416,
        "channel": 1,
        "type": "channel",
        "subtype": "noteOff",
        "noteNumber": 42,
        "velocity": 93
      },
      {
        "deltaTime": 84,
        "channel": 1,
        "type": "channel",
        "noteNumber": 35,
        "velocity": 82,
        "subtype": "noteOn"
      },
      {
        "deltaTime": 198,
        "channel": 1,
        "type": "channel",
        "subtype": "noteOff",
        "noteNumber": 35,
        "velocity": 82
      },
      {
        "deltaTime": 302,
        "channel": 1,
        "type": "channel",
        "noteNumber": 34,
        "velocity": 87,
        "subtype": "noteOn"
      },
      {
        "deltaTime": 1090,
        "channel": 1,
        "type": "channel",
        "subtype": "noteOff",
        "noteNumber": 34,
        "velocity": 87
      },
      {
        "deltaTime": 410,
        "channel": 1,
        "type": "channel",
        "noteNumber": 34,
        "velocity": 82,
        "subtype": "noteOn"
      },
      {
        "deltaTime": 458,
        "channel": 1,
        "type": "channel",
        "subtype": "noteOff",
        "noteNumber": 34,
        "velocity": 82
      },
      {
        "deltaTime": 42,
        "channel": 1,
        "type": "channel",
        "noteNumber": 41,
        "velocity": 82,
        "subtype": "noteOn"
      },
      {
        "deltaTime": 1458,
        "channel": 1,
        "type": "channel",
        "subtype": "noteOff",
        "noteNumber": 41,
        "velocity": 82
      },
      {
        "deltaTime": 42,
        "channel": 1,
        "type": "channel",
        "noteNumber": 34,
        "velocity": 89,
        "subtype": "noteOn"
      },
      {
        "deltaTime": 308,
        "channel": 1,
        "type": "channel",
        "subtype": "noteOff",
        "noteNumber": 34,
        "velocity": 89
      },
      {
        "deltaTime": 192,
        "channel": 1,
        "type": "channel",
        "noteNumber": 33,
        "velocity": 87,
        "subtype": "noteOn"
      },
      {
        "deltaTime": 1500,
        "channel": 1,
        "type": "channel",
        "noteNumber": 40,
        "velocity": 82,
        "subtype": "noteOn"
      },
      {
        "deltaTime": 100,
        "channel": 1,
        "type": "channel",
        "subtype": "noteOff",
        "noteNumber": 33,
        "velocity": 87
      },
      {
        "deltaTime": 150,
        "channel": 1,
        "type": "channel",
        "subtype": "noteOff",
        "noteNumber": 40,
        "velocity": 82
      },
      {
        "deltaTime": 250,
        "channel": 1,
        "type": "channel",
        "noteNumber": 40,
        "velocity": 93,
        "subtype": "noteOn"
      },
      {
        "deltaTime": 1416,
        "channel": 1,
        "type": "channel",
        "subtype": "noteOff",
        "noteNumber": 40,
        "velocity": 93
      },
      {
        "deltaTime": 84,
        "channel": 1,
        "type": "channel",
        "noteNumber": 39,
        "velocity": 82,
        "subtype": "noteOn"
      },
      {
        "deltaTime": 198,
        "channel": 1,
        "type": "channel",
        "subtype": "noteOff",
        "noteNumber": 39,
        "velocity": 82
      },
      {
        "deltaTime": 302,
        "channel": 1,
        "type": "channel",
        "noteNumber": 38,
        "velocity": 82,
        "subtype": "noteOn"
      },
      {
        "deltaTime": 1212,
        "channel": 1,
        "type": "channel",
        "subtype": "noteOff",
        "noteNumber": 38,
        "velocity": 82
      },
      {
        "deltaTime": 288,
        "channel": 1,
        "type": "channel",
        "noteNumber": 38,
        "velocity": 85,
        "subtype": "noteOn"
      },
      {
        "deltaTime": 266,
        "channel": 1,
        "type": "channel",
        "subtype": "noteOff",
        "noteNumber": 38,
        "velocity": 85
      },
      {
        "deltaTime": 234,
        "channel": 1,
        "type": "channel",
        "noteNumber": 38,
        "velocity": 82,
        "subtype": "noteOn"
      },
      {
        "deltaTime": 1380,
        "channel": 1,
        "type": "channel",
        "subtype": "noteOff",
        "noteNumber": 38,
        "velocity": 82
      },
      {
        "deltaTime": 120,
        "channel": 1,
        "type": "channel",
        "noteNumber": 38,
        "velocity": 87,
        "subtype": "noteOn"
      },
      {
        "deltaTime": 308,
        "channel": 1,
        "type": "channel",
        "subtype": "noteOff",
        "noteNumber": 38,
        "velocity": 87
      },
      {
        "deltaTime": 192,
        "channel": 1,
        "type": "channel",
        "noteNumber": 35,
        "velocity": 87,
        "subtype": "noteOn"
      },
      {
        "deltaTime": 1500,
        "channel": 1,
        "type": "channel",
        "noteNumber": 42,
        "velocity": 82,
        "subtype": "noteOn"
      },
      {
        "deltaTime": 114,
        "channel": 1,
        "type": "channel",
        "subtype": "noteOff",
        "noteNumber": 35,
        "velocity": 87
      },
      {
        "deltaTime": 116,
        "channel": 1,
        "type": "channel",
        "subtype": "noteOff",
        "noteNumber": 42,
        "velocity": 82
      },
      {
        "deltaTime": 270,
        "channel": 1,
        "type": "channel",
        "noteNumber": 42,
        "velocity": 87,
        "subtype": "noteOn"
      },
      {
        "deltaTime": 1438,
        "channel": 1,
        "type": "channel",
        "subtype": "noteOff",
        "noteNumber": 42,
        "velocity": 87
      },
      {
        "deltaTime": 62,
        "channel": 1,
        "type": "channel",
        "noteNumber": 33,
        "velocity": 76,
        "subtype": "noteOn"
      },
      {
        "deltaTime": 114,
        "channel": 1,
        "type": "channel",
        "subtype": "noteOff",
        "noteNumber": 33,
        "velocity": 76
      },
      {
        "deltaTime": 386,
        "channel": 1,
        "type": "channel",
        "noteNumber": 34,
        "velocity": 82,
        "subtype": "noteOn"
      },
      {
        "deltaTime": 1212,
        "channel": 1,
        "type": "channel",
        "subtype": "noteOff",
        "noteNumber": 34,
        "velocity": 82
      },
      {
        "deltaTime": 288,
        "channel": 1,
        "type": "channel",
        "noteNumber": 34,
        "velocity": 85,
        "subtype": "noteOn"
      },
      {
        "deltaTime": 266,
        "channel": 1,
        "type": "channel",
        "subtype": "noteOff",
        "noteNumber": 34,
        "velocity": 85
      },
      {
        "deltaTime": 234,
        "channel": 1,
        "type": "channel",
        "noteNumber": 34,
        "velocity": 82,
        "subtype": "noteOn"
      },
      {
        "deltaTime": 1380,
        "channel": 1,
        "type": "channel",
        "subtype": "noteOff",
        "noteNumber": 34,
        "velocity": 82
      },
      {
        "deltaTime": 120,
        "channel": 1,
        "type": "channel",
        "noteNumber": 34,
        "velocity": 87,
        "subtype": "noteOn"
      },
      {
        "deltaTime": 308,
        "channel": 1,
        "type": "channel",
        "subtype": "noteOff",
        "noteNumber": 34,
        "velocity": 87
      },
      {
        "deltaTime": 192,
        "channel": 1,
        "type": "channel",
        "noteNumber": 33,
        "velocity": 87,
        "subtype": "noteOn"
      },
      {
        "deltaTime": 1500,
        "channel": 1,
        "type": "channel",
        "noteNumber": 40,
        "velocity": 82,
        "subtype": "noteOn"
      },
      {
        "deltaTime": 100,
        "channel": 1,
        "type": "channel",
        "subtype": "noteOff",
        "noteNumber": 33,
        "velocity": 87
      },
      {
        "deltaTime": 150,
        "channel": 1,
        "type": "channel",
        "subtype": "noteOff",
        "noteNumber": 40,
        "velocity": 82
      },
      {
        "deltaTime": 250,
        "channel": 1,
        "type": "channel",
        "noteNumber": 40,
        "velocity": 93,
        "subtype": "noteOn"
      },
      {
        "deltaTime": 1416,
        "channel": 1,
        "type": "channel",
        "subtype": "noteOff",
        "noteNumber": 40,
        "velocity": 93
      },
      {
        "deltaTime": 84,
        "channel": 1,
        "type": "channel",
        "noteNumber": 45,
        "velocity": 82,
        "subtype": "noteOn"
      },
      {
        "deltaTime": 198,
        "channel": 1,
        "type": "channel",
        "subtype": "noteOff",
        "noteNumber": 45,
        "velocity": 82
      },
      {
        "deltaTime": 302,
        "channel": 1,
        "type": "channel",
        "noteNumber": 44,
        "velocity": 85,
        "subtype": "noteOn"
      },
      {
        "deltaTime": 1146,
        "channel": 1,
        "type": "channel",
        "subtype": "noteOff",
        "noteNumber": 44,
        "velocity": 85
      },
      {
        "deltaTime": 354,
        "channel": 1,
        "type": "channel",
        "noteNumber": 44,
        "velocity": 82,
        "subtype": "noteOn"
      },
      {
        "deltaTime": 406,
        "channel": 1,
        "type": "channel",
        "subtype": "noteOff",
        "noteNumber": 44,
        "velocity": 82
      },
      {
        "deltaTime": 94,
        "channel": 1,
        "type": "channel",
        "noteNumber": 50,
        "velocity": 82,
        "subtype": "noteOn"
      },
      {
        "deltaTime": 1506,
        "channel": 1,
        "type": "channel",
        "subtype": "noteOff",
        "noteNumber": 50,
        "velocity": 82
      },
      {
        "deltaTime": 0,
        "channel": 1,
        "type": "channel",
        "noteNumber": 44,
        "velocity": 100,
        "subtype": "noteOn"
      },
      {
        "deltaTime": 286,
        "channel": 1,
        "type": "channel",
        "subtype": "noteOff",
        "noteNumber": 44,
        "velocity": 100
      },
      {
        "deltaTime": 208,
        "channel": 1,
        "type": "channel",
        "noteNumber": 43,
        "velocity": 85,
        "subtype": "noteOn"
      },
      {
        "deltaTime": 1500,
        "channel": 1,
        "type": "channel",
        "noteNumber": 50,
        "velocity": 98,
        "subtype": "noteOn"
      },
      {
        "deltaTime": 240,
        "channel": 1,
        "type": "channel",
        "subtype": "noteOff",
        "noteNumber": 43,
        "velocity": 85
      },
      {
        "deltaTime": 150,
        "channel": 1,
        "type": "channel",
        "subtype": "noteOff",
        "noteNumber": 50,
        "velocity": 98
      },
      {
        "deltaTime": 110,
        "channel": 1,
        "type": "channel",
        "noteNumber": 50,
        "velocity": 82,
        "subtype": "noteOn"
      },
      {
        "deltaTime": 1500,
        "channel": 1,
        "type": "channel",
        "noteNumber": 43,
        "velocity": 87,
        "subtype": "noteOn"
      },
      {
        "deltaTime": 166,
        "channel": 1,
        "type": "channel",
        "subtype": "noteOff",
        "noteNumber": 50,
        "velocity": 82
      },
      {
        "deltaTime": 230,
        "channel": 1,
        "type": "channel",
        "subtype": "noteOff",
        "noteNumber": 43,
        "velocity": 87
      },
      {
        "deltaTime": 104,
        "channel": 1,
        "type": "channel",
        "noteNumber": 43,
        "velocity": 87,
        "subtype": "noteOn"
      },
      {
        "deltaTime": 1500,
        "channel": 1,
        "type": "channel",
        "noteNumber": 51,
        "velocity": 82,
        "subtype": "noteOn"
      },
      {
        "deltaTime": 100,
        "channel": 1,
        "type": "channel",
        "subtype": "noteOff",
        "noteNumber": 43,
        "velocity": 87
      },
      {
        "deltaTime": 150,
        "channel": 1,
        "type": "channel",
        "subtype": "noteOff",
        "noteNumber": 51,
        "velocity": 82
      },
      {
        "deltaTime": 250,
        "channel": 1,
        "type": "channel",
        "noteNumber": 51,
        "velocity": 93,
        "subtype": "noteOn"
      },
      {
        "deltaTime": 1416,
        "channel": 1,
        "type": "channel",
        "subtype": "noteOff",
        "noteNumber": 51,
        "velocity": 93
      },
      {
        "deltaTime": 84,
        "channel": 1,
        "type": "channel",
        "noteNumber": 37,
        "velocity": 82,
        "subtype": "noteOn"
      },
      {
        "deltaTime": 198,
        "channel": 1,
        "type": "channel",
        "subtype": "noteOff",
        "noteNumber": 37,
        "velocity": 82
      },
      {
        "deltaTime": 302,
        "channel": 1,
        "type": "channel",
        "noteNumber": 36,
        "velocity": 85,
        "subtype": "noteOn"
      },
      {
        "deltaTime": 1500,
        "channel": 1,
        "type": "channel",
        "noteNumber": 43,
        "velocity": 98,
        "subtype": "noteOn"
      },
      {
        "deltaTime": 240,
        "channel": 1,
        "type": "channel",
        "subtype": "noteOff",
        "noteNumber": 36,
        "velocity": 85
      },
      {
        "deltaTime": 150,
        "channel": 1,
        "type": "channel",
        "subtype": "noteOff",
        "noteNumber": 43,
        "velocity": 98
      },
      {
        "deltaTime": 110,
        "channel": 1,
        "type": "channel",
        "noteNumber": 43,
        "velocity": 82,
        "subtype": "noteOn"
      },
      {
        "deltaTime": 1500,
        "channel": 1,
        "type": "channel",
        "noteNumber": 36,
        "velocity": 87,
        "subtype": "noteOn"
      },
      {
        "deltaTime": 166,
        "channel": 1,
        "type": "channel",
        "subtype": "noteOff",
        "noteNumber": 43,
        "velocity": 82
      },
      {
        "deltaTime": 230,
        "channel": 1,
        "type": "channel",
        "subtype": "noteOff",
        "noteNumber": 36,
        "velocity": 87
      },
      {
        "deltaTime": 104,
        "channel": 1,
        "type": "channel",
        "noteNumber": 41,
        "velocity": 87,
        "subtype": "noteOn"
      },
      {
        "deltaTime": 1090,
        "channel": 1,
        "type": "channel",
        "subtype": "noteOff",
        "noteNumber": 41,
        "velocity": 87
      },
      {
        "deltaTime": 410,
        "channel": 1,
        "type": "channel",
        "noteNumber": 41,
        "velocity": 82,
        "subtype": "noteOn"
      },
      {
        "deltaTime": 458,
        "channel": 1,
        "type": "channel",
        "subtype": "noteOff",
        "noteNumber": 41,
        "velocity": 82
      },
      {
        "deltaTime": 42,
        "channel": 1,
        "type": "channel",
        "noteNumber": 48,
        "velocity": 82,
        "subtype": "noteOn"
      },
      {
        "deltaTime": 1458,
        "channel": 1,
        "type": "channel",
        "subtype": "noteOff",
        "noteNumber": 48,
        "velocity": 82
      },
      {
        "deltaTime": 42,
        "channel": 1,
        "type": "channel",
        "noteNumber": 41,
        "velocity": 89,
        "subtype": "noteOn"
      },
      {
        "deltaTime": 308,
        "channel": 1,
        "type": "channel",
        "subtype": "noteOff",
        "noteNumber": 41,
        "velocity": 89
      },
      {
        "deltaTime": 192,
        "channel": 1,
        "type": "channel",
        "noteNumber": 35,
        "velocity": 85,
        "subtype": "noteOn"
      },
      {
        "deltaTime": 1146,
        "channel": 1,
        "type": "channel",
        "subtype": "noteOff",
        "noteNumber": 35,
        "velocity": 85
      },
      {
        "deltaTime": 354,
        "channel": 1,
        "type": "channel",
        "noteNumber": 35,
        "velocity": 82,
        "subtype": "noteOn"
      },
      {
        "deltaTime": 406,
        "channel": 1,
        "type": "channel",
        "subtype": "noteOff",
        "noteNumber": 35,
        "velocity": 82
      },
      {
        "deltaTime": 94,
        "channel": 1,
        "type": "channel",
        "noteNumber": 42,
        "velocity": 82,
        "subtype": "noteOn"
      },
      {
        "deltaTime": 1506,
        "channel": 1,
        "type": "channel",
        "subtype": "noteOff",
        "noteNumber": 42,
        "velocity": 82
      },
      {
        "deltaTime": 0,
        "channel": 1,
        "type": "channel",
        "noteNumber": 35,
        "velocity": 100,
        "subtype": "noteOn"
      },
      {
        "deltaTime": 286,
        "channel": 1,
        "type": "channel",
        "subtype": "noteOff",
        "noteNumber": 35,
        "velocity": 100
      },
      {
        "deltaTime": 208,
        "channel": 1,
        "type": "channel",
        "noteNumber": 34,
        "velocity": 82,
        "subtype": "noteOn"
      },
      {
        "deltaTime": 1212,
        "channel": 1,
        "type": "channel",
        "subtype": "noteOff",
        "noteNumber": 34,
        "velocity": 82
      },
      {
        "deltaTime": 288,
        "channel": 1,
        "type": "channel",
        "noteNumber": 34,
        "velocity": 85,
        "subtype": "noteOn"
      },
      {
        "deltaTime": 266,
        "channel": 1,
        "type": "channel",
        "subtype": "noteOff",
        "noteNumber": 34,
        "velocity": 85
      },
      {
        "deltaTime": 234,
        "channel": 1,
        "type": "channel",
        "noteNumber": 34,
        "velocity": 82,
        "subtype": "noteOn"
      },
      {
        "deltaTime": 1380,
        "channel": 1,
        "type": "channel",
        "subtype": "noteOff",
        "noteNumber": 34,
        "velocity": 82
      },
      {
        "deltaTime": 120,
        "channel": 1,
        "type": "channel",
        "noteNumber": 34,
        "velocity": 87,
        "subtype": "noteOn"
      },
      {
        "deltaTime": 308,
        "channel": 1,
        "type": "channel",
        "subtype": "noteOff",
        "noteNumber": 34,
        "velocity": 87
      },
      {
        "deltaTime": 192,
        "channel": 1,
        "type": "channel",
        "noteNumber": 33,
        "velocity": 87,
        "subtype": "noteOn"
      },
      {
        "deltaTime": 1500,
        "channel": 1,
        "type": "channel",
        "noteNumber": 39,
        "velocity": 64,
        "subtype": "noteOn"
      },
      {
        "deltaTime": 166,
        "channel": 1,
        "type": "channel",
        "subtype": "noteOff",
        "noteNumber": 33,
        "velocity": 87
      },
      {
        "deltaTime": 214,
        "channel": 1,
        "type": "channel",
        "subtype": "noteOff",
        "noteNumber": 39,
        "velocity": 64
      },
      {
        "deltaTime": 120,
        "channel": 1,
        "type": "channel",
        "noteNumber": 38,
        "velocity": 98,
        "subtype": "noteOn"
      },
      {
        "deltaTime": 1000,
        "channel": 1,
        "type": "channel",
        "noteNumber": 45,
        "velocity": 89,
        "subtype": "noteOn"
      },
      {
        "deltaTime": 16,
        "channel": 1,
        "type": "channel",
        "subtype": "noteOff",
        "noteNumber": 38,
        "velocity": 98
      },
      {
        "deltaTime": 484,
        "channel": 1,
        "type": "channel",
        "noteNumber": 33,
        "velocity": 80,
        "subtype": "noteOn"
      },
      {
        "deltaTime": 32,
        "channel": 1,
        "type": "channel",
        "subtype": "noteOff",
        "noteNumber": 45,
        "velocity": 89
      },
      {
        "deltaTime": 332,
        "channel": 1,
        "type": "channel",
        "subtype": "noteOff",
        "noteNumber": 33,
        "velocity": 80
      },
      {
        "deltaTime": 136,
        "channel": 1,
        "type": "channel",
        "noteNumber": 43,
        "velocity": 85,
        "subtype": "noteOn"
      },
      {
        "deltaTime": 1740,
        "channel": 1,
        "type": "channel",
        "subtype": "noteOff",
        "noteNumber": 43,
        "velocity": 85
      },
      {
        "deltaTime": 0,
        "type": "meta",
        "subtype": "endOfTrack"
      }
    ],
    [
      {
        "deltaTime": 0,
        "type": "meta",
        "subtype": "trackName",
        "text": "Instrumento Midi"
      },
      {
        "deltaTime": 72000,
        "channel": 2,
        "type": "channel",
        "noteNumber": 79,
        "velocity": 103,
        "subtype": "noteOn"
      },
      {
        "deltaTime": 500,
        "channel": 2,
        "type": "channel",
        "subtype": "noteOff",
        "noteNumber": 79,
        "velocity": 103
      },
      {
        "deltaTime": 0,
        "channel": 2,
        "type": "channel",
        "noteNumber": 81,
        "velocity": 101,
        "subtype": "noteOn"
      },
      {
        "deltaTime": 500,
        "channel": 2,
        "type": "channel",
        "subtype": "noteOff",
        "noteNumber": 81,
        "velocity": 101
      },
      {
        "deltaTime": 0,
        "channel": 2,
        "type": "channel",
        "noteNumber": 82,
        "velocity": 94,
        "subtype": "noteOn"
      },
      {
        "deltaTime": 500,
        "channel": 2,
        "type": "channel",
        "subtype": "noteOff",
        "noteNumber": 82,
        "velocity": 94
      },
      {
        "deltaTime": 0,
        "channel": 2,
        "type": "channel",
        "noteNumber": 84,
        "velocity": 94,
        "subtype": "noteOn"
      },
      {
        "deltaTime": 500,
        "channel": 2,
        "type": "channel",
        "subtype": "noteOff",
        "noteNumber": 84,
        "velocity": 94
      },
      {
        "deltaTime": 10,
        "channel": 2,
        "type": "channel",
        "noteNumber": 86,
        "velocity": 103,
        "subtype": "noteOn"
      },
      {
        "deltaTime": 0,
        "channel": 2,
        "type": "channel",
        "noteNumber": 82,
        "velocity": 103,
        "subtype": "noteOn"
      },
      {
        "deltaTime": 496,
        "channel": 2,
        "type": "channel",
        "noteNumber": 81,
        "velocity": 102,
        "subtype": "noteOn"
      },
      {
        "deltaTime": 0,
        "channel": 2,
        "type": "channel",
        "noteNumber": 84,
        "velocity": 102,
        "subtype": "noteOn"
      },
      {
        "deltaTime": 74,
        "channel": 2,
        "type": "channel",
        "subtype": "noteOff",
        "noteNumber": 82,
        "velocity": 103
      },
      {
        "deltaTime": 0,
        "channel": 2,
        "type": "channel",
        "subtype": "noteOff",
        "noteNumber": 86,
        "velocity": 103
      },
      {
        "deltaTime": 420,
        "channel": 2,
        "type": "channel",
        "noteNumber": 79,
        "velocity": 96,
        "subtype": "noteOn"
      },
      {
        "deltaTime": 0,
        "channel": 2,
        "type": "channel",
        "noteNumber": 82,
        "velocity": 96,
        "subtype": "noteOn"
      },
      {
        "deltaTime": 28,
        "channel": 2,
        "type": "channel",
        "subtype": "noteOff",
        "noteNumber": 84,
        "velocity": 102
      },
      {
        "deltaTime": 0,
        "channel": 2,
        "type": "channel",
        "subtype": "noteOff",
        "noteNumber": 81,
        "velocity": 102
      },
      {
        "deltaTime": 400,
        "channel": 2,
        "type": "channel",
        "noteNumber": 77,
        "velocity": 97,
        "subtype": "noteOn"
      },
      {
        "deltaTime": 0,
        "channel": 2,
        "type": "channel",
        "noteNumber": 81,
        "velocity": 97,
        "subtype": "noteOn"
      },
      {
        "deltaTime": 20,
        "channel": 2,
        "type": "channel",
        "subtype": "noteOff",
        "noteNumber": 82,
        "velocity": 96
      },
      {
        "deltaTime": 0,
        "channel": 2,
        "type": "channel",
        "subtype": "noteOff",
        "noteNumber": 79,
        "velocity": 96
      },
      {
        "deltaTime": 546,
        "channel": 2,
        "type": "channel",
        "subtype": "noteOff",
        "noteNumber": 81,
        "velocity": 97
      },
      {
        "deltaTime": 0,
        "channel": 2,
        "type": "channel",
        "subtype": "noteOff",
        "noteNumber": 77,
        "velocity": 97
      },
      {
        "deltaTime": 0,
        "channel": 2,
        "type": "channel",
        "noteNumber": 79,
        "velocity": 96,
        "subtype": "noteOn"
      },
      {
        "deltaTime": 6,
        "channel": 2,
        "type": "channel",
        "noteNumber": 75,
        "velocity": 96,
        "subtype": "noteOn"
      },
      {
        "deltaTime": 448,
        "channel": 2,
        "type": "channel",
        "noteNumber": 74,
        "velocity": 100,
        "subtype": "noteOn"
      },
      {
        "deltaTime": 0,
        "channel": 2,
        "type": "channel",
        "noteNumber": 77,
        "velocity": 100,
        "subtype": "noteOn"
      },
      {
        "deltaTime": 46,
        "channel": 2,
        "type": "channel",
        "subtype": "noteOff",
        "noteNumber": 79,
        "velocity": 96
      },
      {
        "deltaTime": 6,
        "channel": 2,
        "type": "channel",
        "subtype": "noteOff",
        "noteNumber": 75,
        "velocity": 96
      },
      {
        "deltaTime": 490,
        "channel": 2,
        "type": "channel",
        "noteNumber": 72,
        "velocity": 92,
        "subtype": "noteOn"
      },
      {
        "deltaTime": 0,
        "channel": 2,
        "type": "channel",
        "noteNumber": 75,
        "velocity": 92,
        "subtype": "noteOn"
      },
      {
        "deltaTime": 26,
        "channel": 2,
        "type": "channel",
        "subtype": "noteOff",
        "noteNumber": 77,
        "velocity": 100
      },
      {
        "deltaTime": 0,
        "channel": 2,
        "type": "channel",
        "subtype": "noteOff",
        "noteNumber": 74,
        "velocity": 100
      },
      {
        "deltaTime": 422,
        "channel": 2,
        "type": "channel",
        "subtype": "noteOff",
        "noteNumber": 75,
        "velocity": 92
      },
      {
        "deltaTime": 0,
        "channel": 2,
        "type": "channel",
        "subtype": "noteOff",
        "noteNumber": 72,
        "velocity": 92
      },
      {
        "deltaTime": 62,
        "channel": 2,
        "type": "channel",
        "noteNumber": 74,
        "velocity": 92,
        "subtype": "noteOn"
      },
      {
        "deltaTime": 0,
        "channel": 2,
        "type": "channel",
        "noteNumber": 70,
        "velocity": 92,
        "subtype": "noteOn"
      },
      {
        "deltaTime": 500,
        "channel": 2,
        "type": "channel",
        "subtype": "noteOff",
        "noteNumber": 70,
        "velocity": 92
      },
      {
        "deltaTime": 0,
        "channel": 2,
        "type": "channel",
        "subtype": "noteOff",
        "noteNumber": 74,
        "velocity": 92
      },
      {
        "deltaTime": 6,
        "channel": 2,
        "type": "channel",
        "noteNumber": 72,
        "velocity": 96,
        "subtype": "noteOn"
      },
      {
        "deltaTime": 0,
        "channel": 2,
        "type": "channel",
        "noteNumber": 69,
        "velocity": 96,
        "subtype": "noteOn"
      },
      {
        "deltaTime": 474,
        "channel": 2,
        "type": "channel",
        "noteNumber": 70,
        "velocity": 87,
        "subtype": "noteOn"
      },
      {
        "deltaTime": 0,
        "channel": 2,
        "type": "channel",
        "noteNumber": 74,
        "velocity": 87,
        "subtype": "noteOn"
      },
      {
        "deltaTime": 26,
        "channel": 2,
        "type": "channel",
        "subtype": "noteOff",
        "noteNumber": 69,
        "velocity": 96
      },
      {
        "deltaTime": 0,
        "channel": 2,
        "type": "channel",
        "subtype": "noteOff",
        "noteNumber": 72,
        "velocity": 96
      },
      {
        "deltaTime": 474,
        "channel": 2,
        "type": "channel",
        "subtype": "noteOff",
        "noteNumber": 74,
        "velocity": 87
      },
      {
        "deltaTime": 0,
        "channel": 2,
        "type": "channel",
        "subtype": "noteOff",
        "noteNumber": 70,
        "velocity": 87
      },
      {
        "deltaTime": 20,
        "channel": 2,
        "type": "channel",
        "noteNumber": 75,
        "velocity": 93,
        "subtype": "noteOn"
      },
      {
        "deltaTime": 0,
        "channel": 2,
        "type": "channel",
        "noteNumber": 72,
        "velocity": 93,
        "subtype": "noteOn"
      },
      {
        "deltaTime": 500,
        "channel": 2,
        "type": "channel",
        "subtype": "noteOff",
        "noteNumber": 72,
        "velocity": 93
      },
      {
        "deltaTime": 0,
        "channel": 2,
        "type": "channel",
        "subtype": "noteOff",
        "noteNumber": 75,
        "velocity": 93
      },
      {
        "deltaTime": 0,
        "channel": 2,
        "type": "channel",
        "noteNumber": 77,
        "velocity": 101,
        "subtype": "noteOn"
      },
      {
        "deltaTime": 0,
        "channel": 2,
        "type": "channel",
        "noteNumber": 74,
        "velocity": 101,
        "subtype": "noteOn"
      },
      {
        "deltaTime": 500,
        "channel": 2,
        "type": "channel",
        "subtype": "noteOff",
        "noteNumber": 74,
        "velocity": 101
      },
      {
        "deltaTime": 0,
        "channel": 2,
        "type": "channel",
        "subtype": "noteOff",
        "noteNumber": 77,
        "velocity": 101
      },
      {
        "deltaTime": 0,
        "channel": 2,
        "type": "channel",
        "noteNumber": 72,
        "velocity": 97,
        "subtype": "noteOn"
      },
      {
        "deltaTime": 0,
        "channel": 2,
        "type": "channel",
        "noteNumber": 69,
        "velocity": 97,
        "subtype": "noteOn"
      },
      {
        "deltaTime": 1468,
        "channel": 2,
        "type": "channel",
        "subtype": "noteOff",
        "noteNumber": 69,
        "velocity": 97
      },
      {
        "deltaTime": 0,
        "channel": 2,
        "type": "channel",
        "subtype": "noteOff",
        "noteNumber": 72,
        "velocity": 97
      },
      {
        "deltaTime": 32,
        "channel": 2,
        "type": "channel",
        "noteNumber": 70,
        "velocity": 100,
        "subtype": "noteOn"
      },
      {
        "deltaTime": 0,
        "channel": 2,
        "type": "channel",
        "noteNumber": 67,
        "velocity": 100,
        "subtype": "noteOn"
      },
      {
        "deltaTime": 968,
        "channel": 2,
        "type": "channel",
        "subtype": "noteOff",
        "noteNumber": 67,
        "velocity": 100
      },
      {
        "deltaTime": 0,
        "channel": 2,
        "type": "channel",
        "subtype": "noteOff",
        "noteNumber": 70,
        "velocity": 100
      },
      {
        "deltaTime": 12,
        "channel": 2,
        "type": "channel",
        "noteNumber": 72,
        "velocity": 90,
        "subtype": "noteOn"
      },
      {
        "deltaTime": 0,
        "channel": 2,
        "type": "channel",
        "noteNumber": 69,
        "velocity": 90,
        "subtype": "noteOn"
      },
      {
        "deltaTime": 500,
        "channel": 2,
        "type": "channel",
        "subtype": "noteOff",
        "noteNumber": 69,
        "velocity": 90
      },
      {
        "deltaTime": 0,
        "channel": 2,
        "type": "channel",
        "subtype": "noteOff",
        "noteNumber": 72,
        "velocity": 90
      },
      {
        "deltaTime": 20,
        "channel": 2,
        "type": "channel",
        "noteNumber": 73,
        "velocity": 96,
        "subtype": "noteOn"
      },
      {
        "deltaTime": 0,
        "channel": 2,
        "type": "channel",
        "noteNumber": 70,
        "velocity": 96,
        "subtype": "noteOn"
      },
      {
        "deltaTime": 500,
        "channel": 2,
        "type": "channel",
        "subtype": "noteOff",
        "noteNumber": 70,
        "velocity": 96
      },
      {
        "deltaTime": 0,
        "channel": 2,
        "type": "channel",
        "subtype": "noteOff",
        "noteNumber": 73,
        "velocity": 96
      },
      {
        "deltaTime": 0,
        "channel": 2,
        "type": "channel",
        "noteNumber": 77,
        "velocity": 101,
        "subtype": "noteOn"
      },
      {
        "deltaTime": 0,
        "channel": 2,
        "type": "channel",
        "noteNumber": 74,
        "velocity": 101,
        "subtype": "noteOn"
      },
      {
        "deltaTime": 500,
        "channel": 2,
        "type": "channel",
        "subtype": "noteOff",
        "noteNumber": 74,
        "velocity": 101
      },
      {
        "deltaTime": 0,
        "channel": 2,
        "type": "channel",
        "subtype": "noteOff",
        "noteNumber": 77,
        "velocity": 101
      },
      {
        "deltaTime": 20,
        "channel": 2,
        "type": "channel",
        "noteNumber": 72,
        "velocity": 97,
        "subtype": "noteOn"
      },
      {
        "deltaTime": 0,
        "channel": 2,
        "type": "channel",
        "noteNumber": 69,
        "velocity": 97,
        "subtype": "noteOn"
      },
      {
        "deltaTime": 1490,
        "channel": 2,
        "type": "channel",
        "subtype": "noteOff",
        "noteNumber": 69,
        "velocity": 97
      },
      {
        "deltaTime": 0,
        "channel": 2,
        "type": "channel",
        "subtype": "noteOff",
        "noteNumber": 72,
        "velocity": 97
      },
      {
        "deltaTime": 0,
        "channel": 2,
        "type": "channel",
        "noteNumber": 70,
        "velocity": 100,
        "subtype": "noteOn"
      },
      {
        "deltaTime": 0,
        "channel": 2,
        "type": "channel",
        "noteNumber": 67,
        "velocity": 100,
        "subtype": "noteOn"
      },
      {
        "deltaTime": 970,
        "channel": 2,
        "type": "channel",
        "subtype": "noteOff",
        "noteNumber": 67,
        "velocity": 100
      },
      {
        "deltaTime": 0,
        "channel": 2,
        "type": "channel",
        "subtype": "noteOff",
        "noteNumber": 70,
        "velocity": 100
      },
      {
        "deltaTime": 1536,
        "channel": 2,
        "type": "channel",
        "noteNumber": 77,
        "velocity": 96,
        "subtype": "noteOn"
      },
      {
        "deltaTime": 522,
        "channel": 2,
        "type": "channel",
        "subtype": "noteOff",
        "noteNumber": 77,
        "velocity": 96
      },
      {
        "deltaTime": 20,
        "channel": 2,
        "type": "channel",
        "noteNumber": 79,
        "velocity": 86,
        "subtype": "noteOn"
      },
      {
        "deltaTime": 452,
        "channel": 2,
        "type": "channel",
        "noteNumber": 80,
        "velocity": 93,
        "subtype": "noteOn"
      },
      {
        "deltaTime": 48,
        "channel": 2,
        "type": "channel",
        "subtype": "noteOff",
        "noteNumber": 79,
        "velocity": 86
      },
      {
        "deltaTime": 410,
        "channel": 2,
        "type": "channel",
        "noteNumber": 82,
        "velocity": 94,
        "subtype": "noteOn"
      },
      {
        "deltaTime": 42,
        "channel": 2,
        "type": "channel",
        "subtype": "noteOff",
        "noteNumber": 80,
        "velocity": 93
      },
      {
        "deltaTime": 458,
        "channel": 2,
        "type": "channel",
        "subtype": "noteOff",
        "noteNumber": 82,
        "velocity": 94
      },
      {
        "deltaTime": 16,
        "channel": 2,
        "type": "channel",
        "noteNumber": 84,
        "velocity": 93,
        "subtype": "noteOn"
      },
      {
        "deltaTime": 10,
        "channel": 2,
        "type": "channel",
        "noteNumber": 80,
        "velocity": 93,
        "subtype": "noteOn"
      },
      {
        "deltaTime": 486,
        "channel": 2,
        "type": "channel",
        "noteNumber": 79,
        "velocity": 88,
        "subtype": "noteOn"
      },
      {
        "deltaTime": 0,
        "channel": 2,
        "type": "channel",
        "noteNumber": 82,
        "velocity": 88,
        "subtype": "noteOn"
      },
      {
        "deltaTime": 94,
        "channel": 2,
        "type": "channel",
        "subtype": "noteOff",
        "noteNumber": 84,
        "velocity": 93
      },
      {
        "deltaTime": 10,
        "channel": 2,
        "type": "channel",
        "subtype": "noteOff",
        "noteNumber": 80,
        "velocity": 93
      },
      {
        "deltaTime": 396,
        "channel": 2,
        "type": "channel",
        "subtype": "noteOff",
        "noteNumber": 82,
        "velocity": 88
      },
      {
        "deltaTime": 0,
        "channel": 2,
        "type": "channel",
        "subtype": "noteOff",
        "noteNumber": 79,
        "velocity": 88
      },
      {
        "deltaTime": 48,
        "channel": 2,
        "type": "channel",
        "noteNumber": 80,
        "velocity": 93,
        "subtype": "noteOn"
      },
      {
        "deltaTime": 0,
        "channel": 2,
        "type": "channel",
        "noteNumber": 77,
        "velocity": 93,
        "subtype": "noteOn"
      },
      {
        "deltaTime": 472,
        "channel": 2,
        "type": "channel",
        "noteNumber": 75,
        "velocity": 93,
        "subtype": "noteOn"
      },
      {
        "deltaTime": 0,
        "channel": 2,
        "type": "channel",
        "noteNumber": 79,
        "velocity": 93,
        "subtype": "noteOn"
      },
      {
        "deltaTime": 28,
        "channel": 2,
        "type": "channel",
        "subtype": "noteOff",
        "noteNumber": 77,
        "velocity": 93
      },
      {
        "deltaTime": 0,
        "channel": 2,
        "type": "channel",
        "subtype": "noteOff",
        "noteNumber": 80,
        "velocity": 93
      },
      {
        "deltaTime": 472,
        "channel": 2,
        "type": "channel",
        "subtype": "noteOff",
        "noteNumber": 79,
        "velocity": 93
      },
      {
        "deltaTime": 0,
        "channel": 2,
        "type": "channel",
        "subtype": "noteOff",
        "noteNumber": 75,
        "velocity": 93
      },
      {
        "deltaTime": 0,
        "channel": 2,
        "type": "channel",
        "noteNumber": 77,
        "velocity": 86,
        "subtype": "noteOn"
      },
      {
        "deltaTime": 20,
        "channel": 2,
        "type": "channel",
        "noteNumber": 73,
        "velocity": 106,
        "subtype": "noteOn"
      },
      {
        "deltaTime": 480,
        "channel": 2,
        "type": "channel",
        "noteNumber": 72,
        "velocity": 90,
        "subtype": "noteOn"
      },
      {
        "deltaTime": 0,
        "channel": 2,
        "type": "channel",
        "noteNumber": 75,
        "velocity": 90,
        "subtype": "noteOn"
      },
      {
        "deltaTime": 42,
        "channel": 2,
        "type": "channel",
        "subtype": "noteOff",
        "noteNumber": 73,
        "velocity": 106
      },
      {
        "deltaTime": 0,
        "channel": 2,
        "type": "channel",
        "subtype": "noteOff",
        "noteNumber": 77,
        "velocity": 106
      },
      {
        "deltaTime": 420,
        "channel": 2,
        "type": "channel",
        "noteNumber": 70,
        "velocity": 88,
        "subtype": "noteOn"
      },
      {
        "deltaTime": 0,
        "channel": 2,
        "type": "channel",
        "noteNumber": 73,
        "velocity": 88,
        "subtype": "noteOn"
      },
      {
        "deltaTime": 132,
        "channel": 2,
        "type": "channel",
        "subtype": "noteOff",
        "noteNumber": 75,
        "velocity": 90
      },
      {
        "deltaTime": 0,
        "channel": 2,
        "type": "channel",
        "subtype": "noteOff",
        "noteNumber": 72,
        "velocity": 90
      },
      {
        "deltaTime": 344,
        "channel": 2,
        "type": "channel",
        "noteNumber": 68,
        "velocity": 79,
        "subtype": "noteOn"
      },
      {
        "deltaTime": 0,
        "channel": 2,
        "type": "channel",
        "noteNumber": 72,
        "velocity": 79,
        "subtype": "noteOn"
      },
      {
        "deltaTime": 24,
        "channel": 2,
        "type": "channel",
        "subtype": "noteOff",
        "noteNumber": 73,
        "velocity": 88
      },
      {
        "deltaTime": 0,
        "channel": 2,
        "type": "channel",
        "subtype": "noteOff",
        "noteNumber": 70,
        "velocity": 88
      },
      {
        "deltaTime": 544,
        "channel": 2,
        "type": "channel",
        "subtype": "noteOff",
        "noteNumber": 72,
        "velocity": 79
      },
      {
        "deltaTime": 0,
        "channel": 2,
        "type": "channel",
        "subtype": "noteOff",
        "noteNumber": 68,
        "velocity": 79
      },
      {
        "deltaTime": 0,
        "channel": 2,
        "type": "channel",
        "noteNumber": 70,
        "velocity": 96,
        "subtype": "noteOn"
      },
      {
        "deltaTime": 0,
        "channel": 2,
        "type": "channel",
        "noteNumber": 67,
        "velocity": 96,
        "subtype": "noteOn"
      },
      {
        "deltaTime": 494,
        "channel": 2,
        "type": "channel",
        "noteNumber": 68,
        "velocity": 93,
        "subtype": "noteOn"
      },
      {
        "deltaTime": 0,
        "channel": 2,
        "type": "channel",
        "noteNumber": 72,
        "velocity": 93,
        "subtype": "noteOn"
      },
      {
        "deltaTime": 146,
        "channel": 2,
        "type": "channel",
        "subtype": "noteOff",
        "noteNumber": 67,
        "velocity": 96
      },
      {
        "deltaTime": 0,
        "channel": 2,
        "type": "channel",
        "subtype": "noteOff",
        "noteNumber": 70,
        "velocity": 96
      },
      {
        "deltaTime": 306,
        "channel": 2,
        "type": "channel",
        "noteNumber": 70,
        "velocity": 88,
        "subtype": "noteOn"
      },
      {
        "deltaTime": 0,
        "channel": 2,
        "type": "channel",
        "noteNumber": 73,
        "velocity": 88,
        "subtype": "noteOn"
      },
      {
        "deltaTime": 48,
        "channel": 2,
        "type": "channel",
        "subtype": "noteOff",
        "noteNumber": 72,
        "velocity": 93
      },
      {
        "deltaTime": 0,
        "channel": 2,
        "type": "channel",
        "subtype": "noteOff",
        "noteNumber": 68,
        "velocity": 93
      },
      {
        "deltaTime": 474,
        "channel": 2,
        "type": "channel",
        "noteNumber": 72,
        "velocity": 102,
        "subtype": "noteOn"
      },
      {
        "deltaTime": 0,
        "channel": 2,
        "type": "channel",
        "noteNumber": 75,
        "velocity": 102,
        "subtype": "noteOn"
      },
      {
        "deltaTime": 74,
        "channel": 2,
        "type": "channel",
        "subtype": "noteOff",
        "noteNumber": 73,
        "velocity": 88
      },
      {
        "deltaTime": 0,
        "channel": 2,
        "type": "channel",
        "subtype": "noteOff",
        "noteNumber": 70,
        "velocity": 88
      },
      {
        "deltaTime": 426,
        "channel": 2,
        "type": "channel",
        "subtype": "noteOff",
        "noteNumber": 75,
        "velocity": 102
      },
      {
        "deltaTime": 0,
        "channel": 2,
        "type": "channel",
        "subtype": "noteOff",
        "noteNumber": 72,
        "velocity": 102
      },
      {
        "deltaTime": 94,
        "channel": 2,
        "type": "channel",
        "noteNumber": 70,
        "velocity": 86,
        "subtype": "noteOn"
      },
      {
        "deltaTime": 0,
        "channel": 2,
        "type": "channel",
        "noteNumber": 67,
        "velocity": 86,
        "subtype": "noteOn"
      },
      {
        "deltaTime": 1370,
        "channel": 2,
        "type": "channel",
        "subtype": "noteOff",
        "noteNumber": 67,
        "velocity": 86
      },
      {
        "deltaTime": 0,
        "channel": 2,
        "type": "channel",
        "subtype": "noteOff",
        "noteNumber": 70,
        "velocity": 86
      },
      {
        "deltaTime": 62,
        "channel": 2,
        "type": "channel",
        "noteNumber": 68,
        "velocity": 100,
        "subtype": "noteOn"
      },
      {
        "deltaTime": 0,
        "channel": 2,
        "type": "channel",
        "noteNumber": 65,
        "velocity": 100,
        "subtype": "noteOn"
      },
      {
        "deltaTime": 1006,
        "channel": 2,
        "type": "channel",
        "noteNumber": 75,
        "velocity": 106,
        "subtype": "noteOn"
      },
      {
        "deltaTime": 26,
        "channel": 2,
        "type": "channel",
        "noteNumber": 79,
        "velocity": 96,
        "subtype": "noteOn"
      },
      {
        "deltaTime": 78,
        "channel": 2,
        "type": "channel",
        "subtype": "noteOff",
        "noteNumber": 65,
        "velocity": 100
      },
      {
        "deltaTime": 0,
        "channel": 2,
        "type": "channel",
        "subtype": "noteOff",
        "noteNumber": 68,
        "velocity": 100
      },
      {
        "deltaTime": 390,
        "channel": 2,
        "type": "channel",
        "subtype": "noteOff",
        "noteNumber": 79,
        "velocity": 96
      },
      {
        "deltaTime": 0,
        "channel": 2,
        "type": "channel",
        "noteNumber": 80,
        "velocity": 103,
        "subtype": "noteOn"
      },
      {
        "deltaTime": 28,
        "channel": 2,
        "type": "channel",
        "noteNumber": 77,
        "velocity": 113,
        "subtype": "noteOn"
      },
      {
        "deltaTime": 72,
        "channel": 2,
        "type": "channel",
        "subtype": "noteOff",
        "noteNumber": 75,
        "velocity": 106
      },
      {
        "deltaTime": 540,
        "channel": 2,
        "type": "channel",
        "subtype": "noteOff",
        "noteNumber": 77,
        "velocity": 113
      },
      {
        "deltaTime": 72,
        "channel": 2,
        "type": "channel",
        "subtype": "noteOff",
        "noteNumber": 80,
        "velocity": 103
      },
      {
        "deltaTime": 330,
        "channel": 2,
        "type": "channel",
        "noteNumber": 79,
        "velocity": 98,
        "subtype": "noteOn"
      },
      {
        "deltaTime": 26,
        "channel": 2,
        "type": "channel",
        "noteNumber": 75,
        "velocity": 110,
        "subtype": "noteOn"
      },
      {
        "deltaTime": 448,
        "channel": 2,
        "type": "channel",
        "noteNumber": 80,
        "velocity": 98,
        "subtype": "noteOn"
      },
      {
        "deltaTime": 0,
        "channel": 2,
        "type": "channel",
        "noteNumber": 77,
        "velocity": 103,
        "subtype": "noteOn"
      },
      {
        "deltaTime": 74,
        "channel": 2,
        "type": "channel",
        "subtype": "noteOff",
        "noteNumber": 75,
        "velocity": 110
      },
      {
        "deltaTime": 0,
        "channel": 2,
        "type": "channel",
        "subtype": "noteOff",
        "noteNumber": 79,
        "velocity": 98
      },
      {
        "deltaTime": 352,
        "channel": 2,
        "type": "channel",
        "noteNumber": 75,
        "velocity": 102,
        "subtype": "noteOn"
      },
      {
        "deltaTime": 26,
        "channel": 2,
        "type": "channel",
        "noteNumber": 79,
        "velocity": 94,
        "subtype": "noteOn"
      },
      {
        "deltaTime": 22,
        "channel": 2,
        "type": "channel",
        "subtype": "noteOff",
        "noteNumber": 77,
        "velocity": 103
      },
      {
        "deltaTime": 94,
        "channel": 2,
        "type": "channel",
        "subtype": "noteOff",
        "noteNumber": 80,
        "velocity": 98
      },
      {
        "deltaTime": 358,
        "channel": 2,
        "type": "channel",
        "subtype": "noteOff",
        "noteNumber": 75,
        "velocity": 102
      },
      {
        "deltaTime": 48,
        "channel": 2,
        "type": "channel",
        "noteNumber": 74,
        "velocity": 96,
        "subtype": "noteOn"
      },
      {
        "deltaTime": 20,
        "channel": 2,
        "type": "channel",
        "subtype": "noteOff",
        "noteNumber": 79,
        "velocity": 94
      },
      {
        "deltaTime": 28,
        "channel": 2,
        "type": "channel",
        "noteNumber": 77,
        "velocity": 115,
        "subtype": "noteOn"
      },
      {
        "deltaTime": 802,
        "channel": 2,
        "type": "channel",
        "subtype": "noteOff",
        "noteNumber": 77,
        "velocity": 115
      },
      {
        "deltaTime": 400,
        "channel": 2,
        "type": "channel",
        "subtype": "noteOff",
        "noteNumber": 74,
        "velocity": 96
      },
      {
        "deltaTime": 62240,
        "channel": 2,
        "type": "channel",
        "noteNumber": 74,
        "velocity": 108,
        "subtype": "noteOn"
      },
      {
        "deltaTime": 488,
        "channel": 2,
        "type": "channel",
        "subtype": "noteOff",
        "noteNumber": 74,
        "velocity": 108
      },
      {
        "deltaTime": 512,
        "channel": 2,
        "type": "channel",
        "noteNumber": 78,
        "velocity": 106,
        "subtype": "noteOn"
      },
      {
        "deltaTime": 558,
        "channel": 2,
        "type": "channel",
        "subtype": "noteOff",
        "noteNumber": 78,
        "velocity": 106
      },
      {
        "deltaTime": 510,
        "channel": 2,
        "type": "channel",
        "noteNumber": 81,
        "velocity": 103,
        "subtype": "noteOn"
      },
      {
        "deltaTime": 3130,
        "channel": 2,
        "type": "channel",
        "subtype": "noteOff",
        "noteNumber": 81,
        "velocity": 103
      },
      {
        "deltaTime": 822,
        "channel": 2,
        "type": "channel",
        "noteNumber": 74,
        "velocity": 106,
        "subtype": "noteOn"
      },
      {
        "deltaTime": 166,
        "channel": 2,
        "type": "channel",
        "subtype": "noteOff",
        "noteNumber": 74,
        "velocity": 106
      },
      {
        "deltaTime": 32,
        "channel": 2,
        "type": "channel",
        "noteNumber": 76,
        "velocity": 97,
        "subtype": "noteOn"
      },
      {
        "deltaTime": 110,
        "channel": 2,
        "type": "channel",
        "subtype": "noteOff",
        "noteNumber": 76,
        "velocity": 97
      },
      {
        "deltaTime": 56,
        "channel": 2,
        "type": "channel",
        "noteNumber": 81,
        "velocity": 103,
        "subtype": "noteOn"
      },
      {
        "deltaTime": 636,
        "channel": 2,
        "type": "channel",
        "subtype": "noteOff",
        "noteNumber": 81,
        "velocity": 103
      },
      {
        "deltaTime": 0,
        "channel": 2,
        "type": "channel",
        "noteNumber": 80,
        "velocity": 102,
        "subtype": "noteOn"
      },
      {
        "deltaTime": 604,
        "channel": 2,
        "type": "channel",
        "subtype": "noteOff",
        "noteNumber": 80,
        "velocity": 102
      },
      {
        "deltaTime": 162,
        "channel": 2,
        "type": "channel",
        "noteNumber": 77,
        "velocity": 115,
        "subtype": "noteOn"
      },
      {
        "deltaTime": 526,
        "channel": 2,
        "type": "channel",
        "subtype": "noteOff",
        "noteNumber": 77,
        "velocity": 115
      },
      {
        "deltaTime": 1708,
        "channel": 2,
        "type": "channel",
        "noteNumber": 78,
        "velocity": 117,
        "subtype": "noteOn"
      },
      {
        "deltaTime": 240,
        "channel": 2,
        "type": "channel",
        "noteNumber": 79,
        "velocity": 106,
        "subtype": "noteOn"
      },
      {
        "deltaTime": 10,
        "channel": 2,
        "type": "channel",
        "subtype": "noteOff",
        "noteNumber": 78,
        "velocity": 117
      },
      {
        "deltaTime": 166,
        "channel": 2,
        "type": "channel",
        "noteNumber": 77,
        "velocity": 96,
        "subtype": "noteOn"
      },
      {
        "deltaTime": 64,
        "channel": 2,
        "type": "channel",
        "subtype": "noteOff",
        "noteNumber": 79,
        "velocity": 106
      },
      {
        "deltaTime": 350,
        "channel": 2,
        "type": "channel",
        "subtype": "noteOff",
        "noteNumber": 77,
        "velocity": 96
      },
      {
        "deltaTime": 180,
        "channel": 2,
        "type": "channel",
        "noteNumber": 76,
        "velocity": 103,
        "subtype": "noteOn"
      },
      {
        "deltaTime": 484,
        "channel": 2,
        "type": "channel",
        "subtype": "noteOff",
        "noteNumber": 76,
        "velocity": 103
      },
      {
        "deltaTime": 194,
        "channel": 2,
        "type": "channel",
        "noteNumber": 72,
        "velocity": 98,
        "subtype": "noteOn"
      },
      {
        "deltaTime": 500,
        "channel": 2,
        "type": "channel",
        "subtype": "noteOff",
        "noteNumber": 72,
        "velocity": 98
      },
      {
        "deltaTime": 396,
        "channel": 2,
        "type": "channel",
        "noteNumber": 69,
        "velocity": 108,
        "subtype": "noteOn"
      },
      {
        "deltaTime": 406,
        "channel": 2,
        "type": "channel",
        "subtype": "noteOff",
        "noteNumber": 69,
        "velocity": 108
      },
      {
        "deltaTime": 630,
        "channel": 2,
        "type": "channel",
        "noteNumber": 72,
        "velocity": 103,
        "subtype": "noteOn"
      },
      {
        "deltaTime": 322,
        "channel": 2,
        "type": "channel",
        "subtype": "noteOff",
        "noteNumber": 72,
        "velocity": 103
      },
      {
        "deltaTime": 20,
        "channel": 2,
        "type": "channel",
        "noteNumber": 76,
        "velocity": 108,
        "subtype": "noteOn"
      },
      {
        "deltaTime": 372,
        "channel": 2,
        "type": "channel",
        "subtype": "noteOff",
        "noteNumber": 76,
        "velocity": 108
      },
      {
        "deltaTime": 218,
        "channel": 2,
        "type": "channel",
        "noteNumber": 79,
        "velocity": 110,
        "subtype": "noteOn"
      },
      {
        "deltaTime": 604,
        "channel": 2,
        "type": "channel",
        "subtype": "noteOff",
        "noteNumber": 79,
        "velocity": 110
      },
      {
        "deltaTime": 254,
        "channel": 2,
        "type": "channel",
        "noteNumber": 75,
        "velocity": 94,
        "subtype": "noteOn"
      },
      {
        "deltaTime": 510,
        "channel": 2,
        "type": "channel",
        "noteNumber": 77,
        "velocity": 103,
        "subtype": "noteOn"
      },
      {
        "deltaTime": 54,
        "channel": 2,
        "type": "channel",
        "subtype": "noteOff",
        "noteNumber": 75,
        "velocity": 94
      },
      {
        "deltaTime": 2192,
        "channel": 2,
        "type": "channel",
        "subtype": "noteOff",
        "noteNumber": 77,
        "velocity": 103
      },
      {
        "deltaTime": 198,
        "channel": 2,
        "type": "channel",
        "noteNumber": 75,
        "velocity": 93,
        "subtype": "noteOn"
      },
      {
        "deltaTime": 414,
        "channel": 2,
        "type": "channel",
        "subtype": "noteOff",
        "noteNumber": 75,
        "velocity": 93
      },
      {
        "deltaTime": 138,
        "channel": 2,
        "type": "channel",
        "noteNumber": 74,
        "velocity": 98,
        "subtype": "noteOn"
      },
      {
        "deltaTime": 3994,
        "channel": 2,
        "type": "channel",
        "subtype": "noteOff",
        "noteNumber": 74,
        "velocity": 98
      },
      {
        "deltaTime": 574,
        "channel": 2,
        "type": "channel",
        "noteNumber": 80,
        "velocity": 113,
        "subtype": "noteOn"
      },
      {
        "deltaTime": 234,
        "channel": 2,
        "type": "channel",
        "noteNumber": 79,
        "velocity": 90,
        "subtype": "noteOn"
      },
      {
        "deltaTime": 38,
        "channel": 2,
        "type": "channel",
        "subtype": "noteOff",
        "noteNumber": 80,
        "velocity": 113
      },
      {
        "deltaTime": 134,
        "channel": 2,
        "type": "channel",
        "noteNumber": 77,
        "velocity": 101,
        "subtype": "noteOn"
      },
      {
        "deltaTime": 62,
        "channel": 2,
        "type": "channel",
        "subtype": "noteOff",
        "noteNumber": 79,
        "velocity": 90
      },
      {
        "deltaTime": 256,
        "channel": 2,
        "type": "channel",
        "subtype": "noteOff",
        "noteNumber": 77,
        "velocity": 101
      },
      {
        "deltaTime": 182,
        "channel": 2,
        "type": "channel",
        "noteNumber": 72,
        "velocity": 115,
        "subtype": "noteOn"
      },
      {
        "deltaTime": 204,
        "channel": 2,
        "type": "channel",
        "subtype": "noteOff",
        "noteNumber": 72,
        "velocity": 115
      },
      {
        "deltaTime": 88,
        "channel": 2,
        "type": "channel",
        "noteNumber": 68,
        "velocity": 100,
        "subtype": "noteOn"
      },
      {
        "deltaTime": 188,
        "channel": 2,
        "type": "channel",
        "subtype": "noteOff",
        "noteNumber": 68,
        "velocity": 100
      },
      {
        "deltaTime": 146,
        "channel": 2,
        "type": "channel",
        "noteNumber": 67,
        "velocity": 103,
        "subtype": "noteOn"
      },
      {
        "deltaTime": 354,
        "channel": 2,
        "type": "channel",
        "subtype": "noteOff",
        "noteNumber": 67,
        "velocity": 103
      },
      {
        "deltaTime": 172,
        "channel": 2,
        "type": "channel",
        "noteNumber": 65,
        "velocity": 103,
        "subtype": "noteOn"
      },
      {
        "deltaTime": 1458,
        "channel": 2,
        "type": "channel",
        "subtype": "noteOff",
        "noteNumber": 65,
        "velocity": 103
      },
      {
        "deltaTime": 0,
        "channel": 2,
        "type": "channel",
        "noteNumber": 64,
        "velocity": 115,
        "subtype": "noteOn"
      },
      {
        "deltaTime": 1462,
        "channel": 2,
        "type": "channel",
        "noteNumber": 65,
        "velocity": 96,
        "subtype": "noteOn"
      },
      {
        "deltaTime": 18,
        "channel": 2,
        "type": "channel",
        "subtype": "noteOff",
        "noteNumber": 64,
        "velocity": 115
      },
      {
        "deltaTime": 68,
        "channel": 2,
        "type": "channel",
        "subtype": "noteOff",
        "noteNumber": 65,
        "velocity": 96
      },
      {
        "deltaTime": 14,
        "channel": 2,
        "type": "channel",
        "noteNumber": 67,
        "velocity": 117,
        "subtype": "noteOn"
      },
      {
        "deltaTime": 246,
        "channel": 2,
        "type": "channel",
        "subtype": "noteOff",
        "noteNumber": 67,
        "velocity": 117
      },
      {
        "deltaTime": 192,
        "channel": 2,
        "type": "channel",
        "noteNumber": 65,
        "velocity": 98,
        "subtype": "noteOn"
      },
      {
        "deltaTime": 62,
        "channel": 2,
        "type": "channel",
        "subtype": "noteOff",
        "noteNumber": 65,
        "velocity": 98
      },
      {
        "deltaTime": 48,
        "channel": 2,
        "type": "channel",
        "noteNumber": 67,
        "velocity": 120,
        "subtype": "noteOn"
      },
      {
        "deltaTime": 370,
        "channel": 2,
        "type": "channel",
        "subtype": "noteOff",
        "noteNumber": 67,
        "velocity": 120
      },
      {
        "deltaTime": 180,
        "channel": 2,
        "type": "channel",
        "noteNumber": 64,
        "velocity": 117,
        "subtype": "noteOn"
      },
      {
        "deltaTime": 756,
        "channel": 2,
        "type": "channel",
        "subtype": "noteOff",
        "noteNumber": 64,
        "velocity": 117
      },
      {
        "deltaTime": 164,
        "channel": 2,
        "type": "channel",
        "noteNumber": 67,
        "velocity": 123,
        "subtype": "noteOn"
      },
      {
        "deltaTime": 796,
        "channel": 2,
        "type": "channel",
        "subtype": "noteOff",
        "noteNumber": 67,
        "velocity": 123
      },
      {
        "deltaTime": 134,
        "channel": 2,
        "type": "channel",
        "noteNumber": 63,
        "velocity": 105,
        "subtype": "noteOn"
      },
      {
        "deltaTime": 1000,
        "channel": 2,
        "type": "channel",
        "subtype": "noteOff",
        "noteNumber": 63,
        "velocity": 105
      },
      {
        "deltaTime": 18,
        "channel": 2,
        "type": "channel",
        "noteNumber": 76,
        "velocity": 113,
        "subtype": "noteOn"
      },
      {
        "deltaTime": 82,
        "channel": 2,
        "type": "channel",
        "noteNumber": 77,
        "velocity": 118,
        "subtype": "noteOn"
      },
      {
        "deltaTime": 114,
        "channel": 2,
        "type": "channel",
        "subtype": "noteOff",
        "noteNumber": 76,
        "velocity": 113
      },
      {
        "deltaTime": 880,
        "channel": 2,
        "type": "channel",
        "noteNumber": 75,
        "velocity": 113,
        "subtype": "noteOn"
      },
      {
        "deltaTime": 46,
        "channel": 2,
        "type": "channel",
        "subtype": "noteOff",
        "noteNumber": 77,
        "velocity": 118
      },
      {
        "deltaTime": 334,
        "channel": 2,
        "type": "channel",
        "subtype": "noteOff",
        "noteNumber": 75,
        "velocity": 113
      },
      {
        "deltaTime": 136,
        "channel": 2,
        "type": "channel",
        "noteNumber": 74,
        "velocity": 101,
        "subtype": "noteOn"
      },
      {
        "deltaTime": 432,
        "channel": 2,
        "type": "channel",
        "subtype": "noteOff",
        "noteNumber": 74,
        "velocity": 101
      },
      {
        "deltaTime": 38,
        "channel": 2,
        "type": "channel",
        "noteNumber": 72,
        "velocity": 103,
        "subtype": "noteOn"
      },
      {
        "deltaTime": 404,
        "channel": 2,
        "type": "channel",
        "subtype": "noteOff",
        "noteNumber": 72,
        "velocity": 103
      },
      {
        "deltaTime": 6,
        "channel": 2,
        "type": "channel",
        "noteNumber": 71,
        "velocity": 106,
        "subtype": "noteOn"
      },
      {
        "deltaTime": 2000,
        "channel": 2,
        "type": "channel",
        "subtype": "noteOff",
        "noteNumber": 71,
        "velocity": 106
      },
      {
        "deltaTime": 0,
        "channel": 2,
        "type": "channel",
        "noteNumber": 67,
        "velocity": 108,
        "subtype": "noteOn"
      },
      {
        "deltaTime": 2000,
        "channel": 2,
        "type": "channel",
        "subtype": "noteOff",
        "noteNumber": 67,
        "velocity": 108
      },
      {
        "deltaTime": 1016,
        "channel": 2,
        "type": "channel",
        "noteNumber": 77,
        "velocity": 120,
        "subtype": "noteOn"
      },
      {
        "deltaTime": 120,
        "channel": 2,
        "type": "channel",
        "subtype": "noteOff",
        "noteNumber": 77,
        "velocity": 120
      },
      {
        "deltaTime": 10,
        "channel": 2,
        "type": "channel",
        "noteNumber": 79,
        "velocity": 117,
        "subtype": "noteOn"
      },
      {
        "deltaTime": 338,
        "channel": 2,
        "type": "channel",
        "subtype": "noteOff",
        "noteNumber": 79,
        "velocity": 117
      },
      {
        "deltaTime": 16,
        "channel": 2,
        "type": "channel",
        "noteNumber": 77,
        "velocity": 118,
        "subtype": "noteOn"
      },
      {
        "deltaTime": 136,
        "channel": 2,
        "type": "channel",
        "noteNumber": 79,
        "velocity": 113,
        "subtype": "noteOn"
      },
      {
        "deltaTime": 62,
        "channel": 2,
        "type": "channel",
        "subtype": "noteOff",
        "noteNumber": 77,
        "velocity": 118
      },
      {
        "deltaTime": 688,
        "channel": 2,
        "type": "channel",
        "subtype": "noteOff",
        "noteNumber": 79,
        "velocity": 113
      },
      {
        "deltaTime": 214,
        "channel": 2,
        "type": "channel",
        "noteNumber": 77,
        "velocity": 118,
        "subtype": "noteOn"
      },
      {
        "deltaTime": 468,
        "channel": 2,
        "type": "channel",
        "subtype": "noteOff",
        "noteNumber": 77,
        "velocity": 118
      },
      {
        "deltaTime": 210,
        "channel": 2,
        "type": "channel",
        "noteNumber": 79,
        "velocity": 123,
        "subtype": "noteOn"
      },
      {
        "deltaTime": 500,
        "channel": 2,
        "type": "channel",
        "subtype": "noteOff",
        "noteNumber": 79,
        "velocity": 123
      },
      {
        "deltaTime": 222,
        "channel": 2,
        "type": "channel",
        "noteNumber": 75,
        "velocity": 110,
        "subtype": "noteOn"
      },
      {
        "deltaTime": 84,
        "channel": 2,
        "type": "channel",
        "noteNumber": 76,
        "velocity": 108,
        "subtype": "noteOn"
      },
      {
        "deltaTime": 26,
        "channel": 2,
        "type": "channel",
        "subtype": "noteOff",
        "noteNumber": 75,
        "velocity": 110
      },
      {
        "deltaTime": 406,
        "channel": 2,
        "type": "channel",
        "subtype": "noteOff",
        "noteNumber": 76,
        "velocity": 108
      },
      {
        "deltaTime": 380,
        "channel": 2,
        "type": "channel",
        "noteNumber": 72,
        "velocity": 105,
        "subtype": "noteOn"
      },
      {
        "deltaTime": 572,
        "channel": 2,
        "type": "channel",
        "subtype": "noteOff",
        "noteNumber": 72,
        "velocity": 105
      },
      {
        "deltaTime": 100,
        "channel": 2,
        "type": "channel",
        "noteNumber": 67,
        "velocity": 115,
        "subtype": "noteOn"
      },
      {
        "deltaTime": 2400,
        "channel": 2,
        "type": "channel",
        "subtype": "noteOff",
        "noteNumber": 67,
        "velocity": 115
      },
      {
        "deltaTime": 1506,
        "channel": 2,
        "type": "channel",
        "noteNumber": 75,
        "velocity": 117,
        "subtype": "noteOn"
      },
      {
        "deltaTime": 140,
        "channel": 2,
        "type": "channel",
        "noteNumber": 77,
        "velocity": 115,
        "subtype": "noteOn"
      },
      {
        "deltaTime": 146,
        "channel": 2,
        "type": "channel",
        "subtype": "noteOff",
        "noteNumber": 75,
        "velocity": 117
      },
      {
        "deltaTime": 1178,
        "channel": 2,
        "type": "channel",
        "subtype": "noteOff",
        "noteNumber": 77,
        "velocity": 115
      },
      {
        "deltaTime": 142,
        "channel": 2,
        "type": "channel",
        "noteNumber": 75,
        "velocity": 106,
        "subtype": "noteOn"
      },
      {
        "deltaTime": 378,
        "channel": 2,
        "type": "channel",
        "subtype": "noteOff",
        "noteNumber": 75,
        "velocity": 106
      },
      {
        "deltaTime": 126,
        "channel": 2,
        "type": "channel",
        "noteNumber": 77,
        "velocity": 117,
        "subtype": "noteOn"
      },
      {
        "deltaTime": 400,
        "channel": 2,
        "type": "channel",
        "subtype": "noteOff",
        "noteNumber": 77,
        "velocity": 117
      },
      {
        "deltaTime": 182,
        "channel": 2,
        "type": "channel",
        "noteNumber": 78,
        "velocity": 125,
        "subtype": "noteOn"
      },
      {
        "deltaTime": 694,
        "channel": 2,
        "type": "channel",
        "subtype": "noteOff",
        "noteNumber": 78,
        "velocity": 125
      },
      {
        "deltaTime": 254,
        "channel": 2,
        "type": "channel",
        "noteNumber": 75,
        "velocity": 103,
        "subtype": "noteOn"
      },
      {
        "deltaTime": 334,
        "channel": 2,
        "type": "channel",
        "subtype": "noteOff",
        "noteNumber": 75,
        "velocity": 103
      },
      {
        "deltaTime": 172,
        "channel": 2,
        "type": "channel",
        "noteNumber": 78,
        "velocity": 115,
        "subtype": "noteOn"
      },
      {
        "deltaTime": 328,
        "channel": 2,
        "type": "channel",
        "subtype": "noteOff",
        "noteNumber": 78,
        "velocity": 115
      },
      {
        "deltaTime": 182,
        "channel": 2,
        "type": "channel",
        "noteNumber": 77,
        "velocity": 113,
        "subtype": "noteOn"
      },
      {
        "deltaTime": 720,
        "channel": 2,
        "type": "channel",
        "subtype": "noteOff",
        "noteNumber": 77,
        "velocity": 113
      },
      {
        "deltaTime": 1698,
        "channel": 2,
        "type": "channel",
        "noteNumber": 67,
        "velocity": 115,
        "subtype": "noteOn"
      },
      {
        "deltaTime": 230,
        "channel": 2,
        "type": "channel",
        "noteNumber": 72,
        "velocity": 95,
        "subtype": "noteOn"
      },
      {
        "deltaTime": 102,
        "channel": 2,
        "type": "channel",
        "subtype": "noteOff",
        "noteNumber": 67,
        "velocity": 115
      },
      {
        "deltaTime": 214,
        "channel": 2,
        "type": "channel",
        "noteNumber": 76,
        "velocity": 115,
        "subtype": "noteOn"
      },
      {
        "deltaTime": 230,
        "channel": 2,
        "type": "channel",
        "subtype": "noteOff",
        "noteNumber": 72,
        "velocity": 95
      },
      {
        "deltaTime": 128,
        "channel": 2,
        "type": "channel",
        "subtype": "noteOff",
        "noteNumber": 76,
        "velocity": 115
      },
      {
        "deltaTime": 226,
        "channel": 2,
        "type": "channel",
        "noteNumber": 77,
        "velocity": 96,
        "subtype": "noteOn"
      },
      {
        "deltaTime": 72,
        "channel": 2,
        "type": "channel",
        "noteNumber": 79,
        "velocity": 110,
        "subtype": "noteOn"
      },
      {
        "deltaTime": 32,
        "channel": 2,
        "type": "channel",
        "subtype": "noteOff",
        "noteNumber": 77,
        "velocity": 96
      },
      {
        "deltaTime": 510,
        "channel": 2,
        "type": "channel",
        "subtype": "noteOff",
        "noteNumber": 79,
        "velocity": 110
      },
      {
        "deltaTime": 224,
        "channel": 2,
        "type": "channel",
        "noteNumber": 76,
        "velocity": 113,
        "subtype": "noteOn"
      },
      {
        "deltaTime": 302,
        "channel": 2,
        "type": "channel",
        "subtype": "noteOff",
        "noteNumber": 76,
        "velocity": 113
      },
      {
        "deltaTime": 72,
        "channel": 2,
        "type": "channel",
        "noteNumber": 72,
        "velocity": 108,
        "subtype": "noteOn"
      },
      {
        "deltaTime": 312,
        "channel": 2,
        "type": "channel",
        "subtype": "noteOff",
        "noteNumber": 72,
        "velocity": 108
      },
      {
        "deltaTime": 266,
        "channel": 2,
        "type": "channel",
        "noteNumber": 67,
        "velocity": 98,
        "subtype": "noteOn"
      },
      {
        "deltaTime": 350,
        "channel": 2,
        "type": "channel",
        "subtype": "noteOff",
        "noteNumber": 67,
        "velocity": 98
      },
      {
        "deltaTime": 296,
        "channel": 2,
        "type": "channel",
        "noteNumber": 66,
        "velocity": 110,
        "subtype": "noteOn"
      },
      {
        "deltaTime": 652,
        "channel": 2,
        "type": "channel",
        "subtype": "noteOff",
        "noteNumber": 66,
        "velocity": 110
      },
      {
        "deltaTime": 734,
        "channel": 2,
        "type": "channel",
        "noteNumber": 75,
        "velocity": 114,
        "subtype": "noteOn"
      },
      {
        "deltaTime": 136,
        "channel": 2,
        "type": "channel",
        "noteNumber": 77,
        "velocity": 113,
        "subtype": "noteOn"
      },
      {
        "deltaTime": 30,
        "channel": 2,
        "type": "channel",
        "subtype": "noteOff",
        "noteNumber": 75,
        "velocity": 114
      },
      {
        "deltaTime": 734,
        "channel": 2,
        "type": "channel",
        "subtype": "noteOff",
        "noteNumber": 77,
        "velocity": 113
      },
      {
        "deltaTime": 278,
        "channel": 2,
        "type": "channel",
        "noteNumber": 75,
        "velocity": 123,
        "subtype": "noteOn"
      },
      {
        "deltaTime": 524,
        "channel": 2,
        "type": "channel",
        "subtype": "noteOff",
        "noteNumber": 75,
        "velocity": 123
      },
      {
        "deltaTime": 54,
        "channel": 2,
        "type": "channel",
        "noteNumber": 74,
        "velocity": 103,
        "subtype": "noteOn"
      },
      {
        "deltaTime": 324,
        "channel": 2,
        "type": "channel",
        "subtype": "noteOff",
        "noteNumber": 74,
        "velocity": 103
      },
      {
        "deltaTime": 30,
        "channel": 2,
        "type": "channel",
        "noteNumber": 72,
        "velocity": 108,
        "subtype": "noteOn"
      },
      {
        "deltaTime": 390,
        "channel": 2,
        "type": "channel",
        "subtype": "noteOff",
        "noteNumber": 72,
        "velocity": 108
      },
      {
        "deltaTime": 90,
        "channel": 2,
        "type": "channel",
        "noteNumber": 71,
        "velocity": 120,
        "subtype": "noteOn"
      },
      {
        "deltaTime": 2000,
        "channel": 2,
        "type": "channel",
        "subtype": "noteOff",
        "noteNumber": 71,
        "velocity": 120
      },
      {
        "deltaTime": 0,
        "type": "meta",
        "subtype": "endOfTrack"
      }
    ],
    [
      {
        "deltaTime": 0,
        "type": "meta",
        "subtype": "trackName",
        "text": "Instrumento Midi"
      },
      {
        "deltaTime": 6490,
        "channel": 3,
        "type": "channel",
        "noteNumber": 62,
        "velocity": 93,
        "subtype": "noteOn"
      },
      {
        "deltaTime": 562,
        "channel": 3,
        "type": "channel",
        "subtype": "noteOff",
        "noteNumber": 62,
        "velocity": 93
      },
      {
        "deltaTime": 428,
        "channel": 3,
        "type": "channel",
        "noteNumber": 62,
        "velocity": 86,
        "subtype": "noteOn"
      },
      {
        "deltaTime": 504,
        "channel": 3,
        "type": "channel",
        "subtype": "noteOff",
        "noteNumber": 62,
        "velocity": 86
      },
      {
        "deltaTime": 64,
        "channel": 3,
        "type": "channel",
        "noteNumber": 59,
        "velocity": 101,
        "subtype": "noteOn"
      },
      {
        "deltaTime": 14,
        "channel": 3,
        "type": "channel",
        "noteNumber": 57,
        "velocity": 95,
        "subtype": "noteOn"
      },
      {
        "deltaTime": 6,
        "channel": 3,
        "type": "channel",
        "noteNumber": 62,
        "velocity": 95,
        "subtype": "noteOn"
      },
      {
        "deltaTime": 656,
        "channel": 3,
        "type": "channel",
        "subtype": "noteOff",
        "noteNumber": 59,
        "velocity": 101
      },
      {
        "deltaTime": 20,
        "channel": 3,
        "type": "channel",
        "subtype": "noteOff",
        "noteNumber": 57,
        "velocity": 95
      },
      {
        "deltaTime": 0,
        "channel": 3,
        "type": "channel",
        "subtype": "noteOff",
        "noteNumber": 62,
        "velocity": 95
      },
      {
        "deltaTime": 214,
        "channel": 3,
        "type": "channel",
        "noteNumber": 59,
        "velocity": 97,
        "subtype": "noteOn"
      },
      {
        "deltaTime": 0,
        "channel": 3,
        "type": "channel",
        "noteNumber": 57,
        "velocity": 89,
        "subtype": "noteOn"
      },
      {
        "deltaTime": 10,
        "channel": 3,
        "type": "channel",
        "noteNumber": 62,
        "velocity": 88,
        "subtype": "noteOn"
      },
      {
        "deltaTime": 262,
        "channel": 3,
        "type": "channel",
        "subtype": "noteOff",
        "noteNumber": 59,
        "velocity": 97
      },
      {
        "deltaTime": 14,
        "channel": 3,
        "type": "channel",
        "subtype": "noteOff",
        "noteNumber": 62,
        "velocity": 88
      },
      {
        "deltaTime": 12,
        "channel": 3,
        "type": "channel",
        "subtype": "noteOff",
        "noteNumber": 57,
        "velocity": 89
      },
      {
        "deltaTime": 244,
        "channel": 3,
        "type": "channel",
        "noteNumber": 59,
        "velocity": 100,
        "subtype": "noteOn"
      },
      {
        "deltaTime": 0,
        "channel": 3,
        "type": "channel",
        "noteNumber": 57,
        "velocity": 93,
        "subtype": "noteOn"
      },
      {
        "deltaTime": 0,
        "channel": 3,
        "type": "channel",
        "noteNumber": 62,
        "velocity": 92,
        "subtype": "noteOn"
      },
      {
        "deltaTime": 688,
        "channel": 3,
        "type": "channel",
        "subtype": "noteOff",
        "noteNumber": 59,
        "velocity": 100
      },
      {
        "deltaTime": 14,
        "channel": 3,
        "type": "channel",
        "subtype": "noteOff",
        "noteNumber": 57,
        "velocity": 93
      },
      {
        "deltaTime": 16,
        "channel": 3,
        "type": "channel",
        "subtype": "noteOff",
        "noteNumber": 62,
        "velocity": 92
      },
      {
        "deltaTime": 310,
        "channel": 3,
        "type": "channel",
        "noteNumber": 57,
        "velocity": 100,
        "subtype": "noteOn"
      },
      {
        "deltaTime": 4,
        "channel": 3,
        "type": "channel",
        "noteNumber": 59,
        "velocity": 105,
        "subtype": "noteOn"
      },
      {
        "deltaTime": 0,
        "channel": 3,
        "type": "channel",
        "noteNumber": 62,
        "velocity": 98,
        "subtype": "noteOn"
      },
      {
        "deltaTime": 500,
        "channel": 3,
        "type": "channel",
        "subtype": "noteOff",
        "noteNumber": 59,
        "velocity": 105
      },
      {
        "deltaTime": 10,
        "channel": 3,
        "type": "channel",
        "subtype": "noteOff",
        "noteNumber": 57,
        "velocity": 100
      },
      {
        "deltaTime": 68,
        "channel": 3,
        "type": "channel",
        "subtype": "noteOff",
        "noteNumber": 62,
        "velocity": 98
      },
      {
        "deltaTime": 474,
        "channel": 3,
        "type": "channel",
        "noteNumber": 62,
        "velocity": 98,
        "subtype": "noteOn"
      },
      {
        "deltaTime": 6,
        "channel": 3,
        "type": "channel",
        "noteNumber": 56,
        "velocity": 103,
        "subtype": "noteOn"
      },
      {
        "deltaTime": 4,
        "channel": 3,
        "type": "channel",
        "noteNumber": 58,
        "velocity": 103,
        "subtype": "noteOn"
      },
      {
        "deltaTime": 1624,
        "channel": 3,
        "type": "channel",
        "subtype": "noteOff",
        "noteNumber": 58,
        "velocity": 103
      },
      {
        "deltaTime": 16,
        "channel": 3,
        "type": "channel",
        "subtype": "noteOff",
        "noteNumber": 56,
        "velocity": 103
      },
      {
        "deltaTime": 44,
        "channel": 3,
        "type": "channel",
        "subtype": "noteOff",
        "noteNumber": 62,
        "velocity": 98
      },
      {
        "deltaTime": 160,
        "channel": 3,
        "type": "channel",
        "noteNumber": 56,
        "velocity": 100,
        "subtype": "noteOn"
      },
      {
        "deltaTime": 0,
        "channel": 3,
        "type": "channel",
        "noteNumber": 62,
        "velocity": 94,
        "subtype": "noteOn"
      },
      {
        "deltaTime": 10,
        "channel": 3,
        "type": "channel",
        "noteNumber": 58,
        "velocity": 102,
        "subtype": "noteOn"
      },
      {
        "deltaTime": 850,
        "channel": 3,
        "type": "channel",
        "subtype": "noteOff",
        "noteNumber": 58,
        "velocity": 102
      },
      {
        "deltaTime": 10,
        "channel": 3,
        "type": "channel",
        "subtype": "noteOff",
        "noteNumber": 56,
        "velocity": 100
      },
      {
        "deltaTime": 26,
        "channel": 3,
        "type": "channel",
        "subtype": "noteOff",
        "noteNumber": 62,
        "velocity": 94
      },
      {
        "deltaTime": 204,
        "channel": 3,
        "type": "channel",
        "noteNumber": 56,
        "velocity": 96,
        "subtype": "noteOn"
      },
      {
        "deltaTime": 0,
        "channel": 3,
        "type": "channel",
        "noteNumber": 62,
        "velocity": 92,
        "subtype": "noteOn"
      },
      {
        "deltaTime": 10,
        "channel": 3,
        "type": "channel",
        "noteNumber": 58,
        "velocity": 101,
        "subtype": "noteOn"
      },
      {
        "deltaTime": 644,
        "channel": 3,
        "type": "channel",
        "subtype": "noteOff",
        "noteNumber": 58,
        "velocity": 101
      },
      {
        "deltaTime": 38,
        "channel": 3,
        "type": "channel",
        "subtype": "noteOff",
        "noteNumber": 56,
        "velocity": 96
      },
      {
        "deltaTime": 4,
        "channel": 3,
        "type": "channel",
        "subtype": "noteOff",
        "noteNumber": 62,
        "velocity": 92
      },
      {
        "deltaTime": 246,
        "channel": 3,
        "type": "channel",
        "noteNumber": 62,
        "velocity": 80,
        "subtype": "noteOn"
      },
      {
        "deltaTime": 10,
        "channel": 3,
        "type": "channel",
        "noteNumber": 58,
        "velocity": 97,
        "subtype": "noteOn"
      },
      {
        "deltaTime": 0,
        "channel": 3,
        "type": "channel",
        "noteNumber": 56,
        "velocity": 90,
        "subtype": "noteOn"
      },
      {
        "deltaTime": 234,
        "channel": 3,
        "type": "channel",
        "subtype": "noteOff",
        "noteNumber": 58,
        "velocity": 97
      },
      {
        "deltaTime": 26,
        "channel": 3,
        "type": "channel",
        "subtype": "noteOff",
        "noteNumber": 56,
        "velocity": 90
      },
      {
        "deltaTime": 6,
        "channel": 3,
        "type": "channel",
        "subtype": "noteOff",
        "noteNumber": 62,
        "velocity": 80
      },
      {
        "deltaTime": 260,
        "channel": 3,
        "type": "channel",
        "noteNumber": 55,
        "velocity": 96,
        "subtype": "noteOn"
      },
      {
        "deltaTime": 16,
        "channel": 3,
        "type": "channel",
        "noteNumber": 60,
        "velocity": 101,
        "subtype": "noteOn"
      },
      {
        "deltaTime": 10,
        "channel": 3,
        "type": "channel",
        "noteNumber": 62,
        "velocity": 95,
        "subtype": "noteOn"
      },
      {
        "deltaTime": 490,
        "channel": 3,
        "type": "channel",
        "subtype": "noteOff",
        "noteNumber": 60,
        "velocity": 101
      },
      {
        "deltaTime": 10,
        "channel": 3,
        "type": "channel",
        "subtype": "noteOff",
        "noteNumber": 62,
        "velocity": 95
      },
      {
        "deltaTime": 48,
        "channel": 3,
        "type": "channel",
        "subtype": "noteOff",
        "noteNumber": 55,
        "velocity": 96
      },
      {
        "deltaTime": 372,
        "channel": 3,
        "type": "channel",
        "noteNumber": 55,
        "velocity": 89,
        "subtype": "noteOn"
      },
      {
        "deltaTime": 12,
        "channel": 3,
        "type": "channel",
        "noteNumber": 60,
        "velocity": 96,
        "subtype": "noteOn"
      },
      {
        "deltaTime": 0,
        "channel": 3,
        "type": "channel",
        "noteNumber": 62,
        "velocity": 87,
        "subtype": "noteOn"
      },
      {
        "deltaTime": 328,
        "channel": 3,
        "type": "channel",
        "subtype": "noteOff",
        "noteNumber": 60,
        "velocity": 96
      },
      {
        "deltaTime": 22,
        "channel": 3,
        "type": "channel",
        "subtype": "noteOff",
        "noteNumber": 62,
        "velocity": 87
      },
      {
        "deltaTime": 6,
        "channel": 3,
        "type": "channel",
        "subtype": "noteOff",
        "noteNumber": 55,
        "velocity": 89
      },
      {
        "deltaTime": 170,
        "channel": 3,
        "type": "channel",
        "noteNumber": 55,
        "velocity": 96,
        "subtype": "noteOn"
      },
      {
        "deltaTime": 10,
        "channel": 3,
        "type": "channel",
        "noteNumber": 60,
        "velocity": 101,
        "subtype": "noteOn"
      },
      {
        "deltaTime": 0,
        "channel": 3,
        "type": "channel",
        "noteNumber": 62,
        "velocity": 93,
        "subtype": "noteOn"
      },
      {
        "deltaTime": 376,
        "channel": 3,
        "type": "channel",
        "subtype": "noteOff",
        "noteNumber": 60,
        "velocity": 101
      },
      {
        "deltaTime": 14,
        "channel": 3,
        "type": "channel",
        "subtype": "noteOff",
        "noteNumber": 55,
        "velocity": 96
      },
      {
        "deltaTime": 16,
        "channel": 3,
        "type": "channel",
        "subtype": "noteOff",
        "noteNumber": 62,
        "velocity": 93
      },
      {
        "deltaTime": 616,
        "channel": 3,
        "type": "channel",
        "noteNumber": 55,
        "velocity": 101,
        "subtype": "noteOn"
      },
      {
        "deltaTime": 10,
        "channel": 3,
        "type": "channel",
        "noteNumber": 60,
        "velocity": 106,
        "subtype": "noteOn"
      },
      {
        "deltaTime": 6,
        "channel": 3,
        "type": "channel",
        "noteNumber": 62,
        "velocity": 98,
        "subtype": "noteOn"
      },
      {
        "deltaTime": 282,
        "channel": 3,
        "type": "channel",
        "subtype": "noteOff",
        "noteNumber": 55,
        "velocity": 101
      },
      {
        "deltaTime": 0,
        "channel": 3,
        "type": "channel",
        "subtype": "noteOff",
        "noteNumber": 60,
        "velocity": 106
      },
      {
        "deltaTime": 24,
        "channel": 3,
        "type": "channel",
        "subtype": "noteOff",
        "noteNumber": 62,
        "velocity": 98
      },
      {
        "deltaTime": 678,
        "channel": 3,
        "type": "channel",
        "noteNumber": 54,
        "velocity": 97,
        "subtype": "noteOn"
      },
      {
        "deltaTime": 10,
        "channel": 3,
        "type": "channel",
        "noteNumber": 60,
        "velocity": 110,
        "subtype": "noteOn"
      },
      {
        "deltaTime": 0,
        "channel": 3,
        "type": "channel",
        "noteNumber": 62,
        "velocity": 94,
        "subtype": "noteOn"
      },
      {
        "deltaTime": 2202,
        "channel": 3,
        "type": "channel",
        "subtype": "noteOff",
        "noteNumber": 54,
        "velocity": 97
      },
      {
        "deltaTime": 22,
        "channel": 3,
        "type": "channel",
        "subtype": "noteOff",
        "noteNumber": 60,
        "velocity": 110
      },
      {
        "deltaTime": 422,
        "channel": 3,
        "type": "channel",
        "subtype": "noteOff",
        "noteNumber": 62,
        "velocity": 94
      },
      {
        "deltaTime": 302,
        "channel": 3,
        "type": "channel",
        "noteNumber": 62,
        "velocity": 95,
        "subtype": "noteOn"
      },
      {
        "deltaTime": 530,
        "channel": 3,
        "type": "channel",
        "subtype": "noteOff",
        "noteNumber": 62,
        "velocity": 95
      },
      {
        "deltaTime": 454,
        "channel": 3,
        "type": "channel",
        "noteNumber": 62,
        "velocity": 90,
        "subtype": "noteOn"
      },
      {
        "deltaTime": 250,
        "channel": 3,
        "type": "channel",
        "subtype": "noteOff",
        "noteNumber": 62,
        "velocity": 90
      },
      {
        "deltaTime": 308,
        "channel": 3,
        "type": "channel",
        "noteNumber": 62,
        "velocity": 92,
        "subtype": "noteOn"
      },
      {
        "deltaTime": 26,
        "channel": 3,
        "type": "channel",
        "noteNumber": 59,
        "velocity": 94,
        "subtype": "noteOn"
      },
      {
        "deltaTime": 26,
        "channel": 3,
        "type": "channel",
        "noteNumber": 57,
        "velocity": 96,
        "subtype": "noteOn"
      },
      {
        "deltaTime": 214,
        "channel": 3,
        "type": "channel",
        "subtype": "noteOff",
        "noteNumber": 57,
        "velocity": 96
      },
      {
        "deltaTime": 66,
        "channel": 3,
        "type": "channel",
        "subtype": "noteOff",
        "noteNumber": 59,
        "velocity": 94
      },
      {
        "deltaTime": 32,
        "channel": 3,
        "type": "channel",
        "subtype": "noteOff",
        "noteNumber": 62,
        "velocity": 92
      },
      {
        "deltaTime": 578,
        "channel": 3,
        "type": "channel",
        "noteNumber": 59,
        "velocity": 95,
        "subtype": "noteOn"
      },
      {
        "deltaTime": 10,
        "channel": 3,
        "type": "channel",
        "noteNumber": 57,
        "velocity": 87,
        "subtype": "noteOn"
      },
      {
        "deltaTime": 6,
        "channel": 3,
        "type": "channel",
        "noteNumber": 62,
        "velocity": 88,
        "subtype": "noteOn"
      },
      {
        "deltaTime": 298,
        "channel": 3,
        "type": "channel",
        "subtype": "noteOff",
        "noteNumber": 62,
        "velocity": 88
      },
      {
        "deltaTime": 4,
        "channel": 3,
        "type": "channel",
        "subtype": "noteOff",
        "noteNumber": 59,
        "velocity": 95
      },
      {
        "deltaTime": 10,
        "channel": 3,
        "type": "channel",
        "subtype": "noteOff",
        "noteNumber": 57,
        "velocity": 87
      },
      {
        "deltaTime": 214,
        "channel": 3,
        "type": "channel",
        "noteNumber": 59,
        "velocity": 98,
        "subtype": "noteOn"
      },
      {
        "deltaTime": 0,
        "channel": 3,
        "type": "channel",
        "noteNumber": 57,
        "velocity": 93,
        "subtype": "noteOn"
      },
      {
        "deltaTime": 12,
        "channel": 3,
        "type": "channel",
        "noteNumber": 62,
        "velocity": 94,
        "subtype": "noteOn"
      },
      {
        "deltaTime": 452,
        "channel": 3,
        "type": "channel",
        "subtype": "noteOff",
        "noteNumber": 59,
        "velocity": 98
      },
      {
        "deltaTime": 20,
        "channel": 3,
        "type": "channel",
        "subtype": "noteOff",
        "noteNumber": 57,
        "velocity": 93
      },
      {
        "deltaTime": 10,
        "channel": 3,
        "type": "channel",
        "subtype": "noteOff",
        "noteNumber": 62,
        "velocity": 94
      },
      {
        "deltaTime": 538,
        "channel": 3,
        "type": "channel",
        "noteNumber": 57,
        "velocity": 95,
        "subtype": "noteOn"
      },
      {
        "deltaTime": 4,
        "channel": 3,
        "type": "channel",
        "noteNumber": 62,
        "velocity": 94,
        "subtype": "noteOn"
      },
      {
        "deltaTime": 6,
        "channel": 3,
        "type": "channel",
        "noteNumber": 59,
        "velocity": 100,
        "subtype": "noteOn"
      },
      {
        "deltaTime": 384,
        "channel": 3,
        "type": "channel",
        "subtype": "noteOff",
        "noteNumber": 59,
        "velocity": 100
      },
      {
        "deltaTime": 32,
        "channel": 3,
        "type": "channel",
        "subtype": "noteOff",
        "noteNumber": 57,
        "velocity": 95
      },
      {
        "deltaTime": 54,
        "channel": 3,
        "type": "channel",
        "subtype": "noteOff",
        "noteNumber": 62,
        "velocity": 94
      },
      {
        "deltaTime": 546,
        "channel": 3,
        "type": "channel",
        "noteNumber": 62,
        "velocity": 97,
        "subtype": "noteOn"
      },
      {
        "deltaTime": 6,
        "channel": 3,
        "type": "channel",
        "noteNumber": 56,
        "velocity": 102,
        "subtype": "noteOn"
      },
      {
        "deltaTime": 4,
        "channel": 3,
        "type": "channel",
        "noteNumber": 58,
        "velocity": 101,
        "subtype": "noteOn"
      },
      {
        "deltaTime": 1496,
        "channel": 3,
        "type": "channel",
        "subtype": "noteOff",
        "noteNumber": 58,
        "velocity": 101
      },
      {
        "deltaTime": 14,
        "channel": 3,
        "type": "channel",
        "subtype": "noteOff",
        "noteNumber": 56,
        "velocity": 102
      },
      {
        "deltaTime": 32,
        "channel": 3,
        "type": "channel",
        "subtype": "noteOff",
        "noteNumber": 62,
        "velocity": 97
      },
      {
        "deltaTime": 284,
        "channel": 3,
        "type": "channel",
        "noteNumber": 62,
        "velocity": 90,
        "subtype": "noteOn"
      },
      {
        "deltaTime": 10,
        "channel": 3,
        "type": "channel",
        "noteNumber": 56,
        "velocity": 96,
        "subtype": "noteOn"
      },
      {
        "deltaTime": 12,
        "channel": 3,
        "type": "channel",
        "noteNumber": 58,
        "velocity": 101,
        "subtype": "noteOn"
      },
      {
        "deltaTime": 648,
        "channel": 3,
        "type": "channel",
        "subtype": "noteOff",
        "noteNumber": 58,
        "velocity": 101
      },
      {
        "deltaTime": 24,
        "channel": 3,
        "type": "channel",
        "subtype": "noteOff",
        "noteNumber": 56,
        "velocity": 96
      },
      {
        "deltaTime": 26,
        "channel": 3,
        "type": "channel",
        "subtype": "noteOff",
        "noteNumber": 62,
        "velocity": 90
      },
      {
        "deltaTime": 390,
        "channel": 3,
        "type": "channel",
        "noteNumber": 56,
        "velocity": 100,
        "subtype": "noteOn"
      },
      {
        "deltaTime": 18,
        "channel": 3,
        "type": "channel",
        "noteNumber": 58,
        "velocity": 105,
        "subtype": "noteOn"
      },
      {
        "deltaTime": 4,
        "channel": 3,
        "type": "channel",
        "noteNumber": 62,
        "velocity": 94,
        "subtype": "noteOn"
      },
      {
        "deltaTime": 438,
        "channel": 3,
        "type": "channel",
        "subtype": "noteOff",
        "noteNumber": 58,
        "velocity": 105
      },
      {
        "deltaTime": 36,
        "channel": 3,
        "type": "channel",
        "subtype": "noteOff",
        "noteNumber": 56,
        "velocity": 100
      },
      {
        "deltaTime": 4,
        "channel": 3,
        "type": "channel",
        "subtype": "noteOff",
        "noteNumber": 62,
        "velocity": 94
      },
      {
        "deltaTime": 474,
        "channel": 3,
        "type": "channel",
        "noteNumber": 56,
        "velocity": 92,
        "subtype": "noteOn"
      },
      {
        "deltaTime": 16,
        "channel": 3,
        "type": "channel",
        "noteNumber": 58,
        "velocity": 94,
        "subtype": "noteOn"
      },
      {
        "deltaTime": 0,
        "channel": 3,
        "type": "channel",
        "noteNumber": 62,
        "velocity": 87,
        "subtype": "noteOn"
      },
      {
        "deltaTime": 214,
        "channel": 3,
        "type": "channel",
        "subtype": "noteOff",
        "noteNumber": 58,
        "velocity": 94
      },
      {
        "deltaTime": 10,
        "channel": 3,
        "type": "channel",
        "subtype": "noteOff",
        "noteNumber": 62,
        "velocity": 87
      },
      {
        "deltaTime": 22,
        "channel": 3,
        "type": "channel",
        "subtype": "noteOff",
        "noteNumber": 56,
        "velocity": 92
      },
      {
        "deltaTime": 244,
        "channel": 3,
        "type": "channel",
        "noteNumber": 62,
        "velocity": 88,
        "subtype": "noteOn"
      },
      {
        "deltaTime": 28,
        "channel": 3,
        "type": "channel",
        "noteNumber": 60,
        "velocity": 105,
        "subtype": "noteOn"
      },
      {
        "deltaTime": 0,
        "channel": 3,
        "type": "channel",
        "noteNumber": 55,
        "velocity": 101,
        "subtype": "noteOn"
      },
      {
        "deltaTime": 446,
        "channel": 3,
        "type": "channel",
        "subtype": "noteOff",
        "noteNumber": 60,
        "velocity": 105
      },
      {
        "deltaTime": 36,
        "channel": 3,
        "type": "channel",
        "subtype": "noteOff",
        "noteNumber": 62,
        "velocity": 88
      },
      {
        "deltaTime": 6,
        "channel": 3,
        "type": "channel",
        "subtype": "noteOff",
        "noteNumber": 55,
        "velocity": 101
      },
      {
        "deltaTime": 464,
        "channel": 3,
        "type": "channel",
        "noteNumber": 55,
        "velocity": 87,
        "subtype": "noteOn"
      },
      {
        "deltaTime": 10,
        "channel": 3,
        "type": "channel",
        "noteNumber": 60,
        "velocity": 95,
        "subtype": "noteOn"
      },
      {
        "deltaTime": 0,
        "channel": 3,
        "type": "channel",
        "noteNumber": 62,
        "velocity": 88,
        "subtype": "noteOn"
      },
      {
        "deltaTime": 218,
        "channel": 3,
        "type": "channel",
        "subtype": "noteOff",
        "noteNumber": 60,
        "velocity": 95
      },
      {
        "deltaTime": 22,
        "channel": 3,
        "type": "channel",
        "subtype": "noteOff",
        "noteNumber": 62,
        "velocity": 88
      },
      {
        "deltaTime": 10,
        "channel": 3,
        "type": "channel",
        "subtype": "noteOff",
        "noteNumber": 55,
        "velocity": 87
      },
      {
        "deltaTime": 266,
        "channel": 3,
        "type": "channel",
        "noteNumber": 55,
        "velocity": 96,
        "subtype": "noteOn"
      },
      {
        "deltaTime": 10,
        "channel": 3,
        "type": "channel",
        "noteNumber": 60,
        "velocity": 103,
        "subtype": "noteOn"
      },
      {
        "deltaTime": 0,
        "channel": 3,
        "type": "channel",
        "noteNumber": 62,
        "velocity": 96,
        "subtype": "noteOn"
      },
      {
        "deltaTime": 390,
        "channel": 3,
        "type": "channel",
        "subtype": "noteOff",
        "noteNumber": 60,
        "velocity": 103
      },
      {
        "deltaTime": 32,
        "channel": 3,
        "type": "channel",
        "subtype": "noteOff",
        "noteNumber": 62,
        "velocity": 96
      },
      {
        "deltaTime": 24,
        "channel": 3,
        "type": "channel",
        "subtype": "noteOff",
        "noteNumber": 55,
        "velocity": 96
      },
      {
        "deltaTime": 586,
        "channel": 3,
        "type": "channel",
        "noteNumber": 60,
        "velocity": 106,
        "subtype": "noteOn"
      },
      {
        "deltaTime": 0,
        "channel": 3,
        "type": "channel",
        "noteNumber": 55,
        "velocity": 100,
        "subtype": "noteOn"
      },
      {
        "deltaTime": 4,
        "channel": 3,
        "type": "channel",
        "noteNumber": 62,
        "velocity": 100,
        "subtype": "noteOn"
      },
      {
        "deltaTime": 464,
        "channel": 3,
        "type": "channel",
        "subtype": "noteOff",
        "noteNumber": 60,
        "velocity": 106
      },
      {
        "deltaTime": 16,
        "channel": 3,
        "type": "channel",
        "subtype": "noteOff",
        "noteNumber": 62,
        "velocity": 100
      },
      {
        "deltaTime": 26,
        "channel": 3,
        "type": "channel",
        "subtype": "noteOff",
        "noteNumber": 55,
        "velocity": 100
      },
      {
        "deltaTime": 510,
        "channel": 3,
        "type": "channel",
        "noteNumber": 62,
        "velocity": 81,
        "subtype": "noteOn"
      },
      {
        "deltaTime": 26,
        "channel": 3,
        "type": "channel",
        "noteNumber": 60,
        "velocity": 94,
        "subtype": "noteOn"
      },
      {
        "deltaTime": 56,
        "channel": 3,
        "type": "channel",
        "noteNumber": 54,
        "velocity": 98,
        "subtype": "noteOn"
      },
      {
        "deltaTime": 2214,
        "channel": 3,
        "type": "channel",
        "subtype": "noteOff",
        "noteNumber": 60,
        "velocity": 94
      },
      {
        "deltaTime": 36,
        "channel": 3,
        "type": "channel",
        "subtype": "noteOff",
        "noteNumber": 54,
        "velocity": 98
      },
      {
        "deltaTime": 168,
        "channel": 3,
        "type": "channel",
        "subtype": "noteOff",
        "noteNumber": 62,
        "velocity": 81
      },
      {
        "deltaTime": 432,
        "channel": 3,
        "type": "channel",
        "noteNumber": 67,
        "velocity": 95,
        "subtype": "noteOn"
      },
      {
        "deltaTime": 750,
        "channel": 3,
        "type": "channel",
        "subtype": "noteOff",
        "noteNumber": 67,
        "velocity": 95
      },
      {
        "deltaTime": 250,
        "channel": 3,
        "type": "channel",
        "noteNumber": 67,
        "velocity": 85,
        "subtype": "noteOn"
      },
      {
        "deltaTime": 350,
        "channel": 3,
        "type": "channel",
        "subtype": "noteOff",
        "noteNumber": 67,
        "velocity": 85
      },
      {
        "deltaTime": 234,
        "channel": 3,
        "type": "channel",
        "noteNumber": 67,
        "velocity": 94,
        "subtype": "noteOn"
      },
      {
        "deltaTime": 0,
        "channel": 3,
        "type": "channel",
        "noteNumber": 60,
        "velocity": 93,
        "subtype": "noteOn"
      },
      {
        "deltaTime": 6,
        "channel": 3,
        "type": "channel",
        "noteNumber": 65,
        "velocity": 100,
        "subtype": "noteOn"
      },
      {
        "deltaTime": 458,
        "channel": 3,
        "type": "channel",
        "subtype": "noteOff",
        "noteNumber": 67,
        "velocity": 94
      },
      {
        "deltaTime": 0,
        "channel": 3,
        "type": "channel",
        "subtype": "noteOff",
        "noteNumber": 65,
        "velocity": 100
      },
      {
        "deltaTime": 32,
        "channel": 3,
        "type": "channel",
        "subtype": "noteOff",
        "noteNumber": 60,
        "velocity": 93
      },
      {
        "deltaTime": 394,
        "channel": 3,
        "type": "channel",
        "noteNumber": 60,
        "velocity": 93,
        "subtype": "noteOn"
      },
      {
        "deltaTime": 16,
        "channel": 3,
        "type": "channel",
        "noteNumber": 65,
        "velocity": 101,
        "subtype": "noteOn"
      },
      {
        "deltaTime": 0,
        "channel": 3,
        "type": "channel",
        "noteNumber": 67,
        "velocity": 94,
        "subtype": "noteOn"
      },
      {
        "deltaTime": 228,
        "channel": 3,
        "type": "channel",
        "subtype": "noteOff",
        "noteNumber": 65,
        "velocity": 101
      },
      {
        "deltaTime": 12,
        "channel": 3,
        "type": "channel",
        "subtype": "noteOff",
        "noteNumber": 67,
        "velocity": 94
      },
      {
        "deltaTime": 14,
        "channel": 3,
        "type": "channel",
        "subtype": "noteOff",
        "noteNumber": 60,
        "velocity": 93
      },
      {
        "deltaTime": 246,
        "channel": 3,
        "type": "channel",
        "noteNumber": 65,
        "velocity": 101,
        "subtype": "noteOn"
      },
      {
        "deltaTime": 0,
        "channel": 3,
        "type": "channel",
        "noteNumber": 60,
        "velocity": 96,
        "subtype": "noteOn"
      },
      {
        "deltaTime": 0,
        "channel": 3,
        "type": "channel",
        "noteNumber": 67,
        "velocity": 95,
        "subtype": "noteOn"
      },
      {
        "deltaTime": 426,
        "channel": 3,
        "type": "channel",
        "subtype": "noteOff",
        "noteNumber": 65,
        "velocity": 101
      },
      {
        "deltaTime": 12,
        "channel": 3,
        "type": "channel",
        "subtype": "noteOff",
        "noteNumber": 60,
        "velocity": 96
      },
      {
        "deltaTime": 14,
        "channel": 3,
        "type": "channel",
        "subtype": "noteOff",
        "noteNumber": 67,
        "velocity": 95
      },
      {
        "deltaTime": 578,
        "channel": 3,
        "type": "channel",
        "noteNumber": 60,
        "velocity": 96,
        "subtype": "noteOn"
      },
      {
        "deltaTime": 8,
        "channel": 3,
        "type": "channel",
        "noteNumber": 65,
        "velocity": 103,
        "subtype": "noteOn"
      },
      {
        "deltaTime": 4,
        "channel": 3,
        "type": "channel",
        "noteNumber": 67,
        "velocity": 97,
        "subtype": "noteOn"
      },
      {
        "deltaTime": 344,
        "channel": 3,
        "type": "channel",
        "subtype": "noteOff",
        "noteNumber": 60,
        "velocity": 96
      },
      {
        "deltaTime": 10,
        "channel": 3,
        "type": "channel",
        "subtype": "noteOff",
        "noteNumber": 67,
        "velocity": 97
      },
      {
        "deltaTime": 10,
        "channel": 3,
        "type": "channel",
        "subtype": "noteOff",
        "noteNumber": 65,
        "velocity": 103
      },
      {
        "deltaTime": 642,
        "channel": 3,
        "type": "channel",
        "noteNumber": 65,
        "velocity": 101,
        "subtype": "noteOn"
      },
      {
        "deltaTime": 0,
        "channel": 3,
        "type": "channel",
        "noteNumber": 59,
        "velocity": 103,
        "subtype": "noteOn"
      },
      {
        "deltaTime": 0,
        "channel": 3,
        "type": "channel",
        "noteNumber": 67,
        "velocity": 93,
        "subtype": "noteOn"
      },
      {
        "deltaTime": 1722,
        "channel": 3,
        "type": "channel",
        "subtype": "noteOff",
        "noteNumber": 65,
        "velocity": 101
      },
      {
        "deltaTime": 6,
        "channel": 3,
        "type": "channel",
        "subtype": "noteOff",
        "noteNumber": 59,
        "velocity": 103
      },
      {
        "deltaTime": 22,
        "channel": 3,
        "type": "channel",
        "subtype": "noteOff",
        "noteNumber": 67,
        "velocity": 93
      },
      {
        "deltaTime": 222,
        "channel": 3,
        "type": "channel",
        "noteNumber": 59,
        "velocity": 106,
        "subtype": "noteOn"
      },
      {
        "deltaTime": 6,
        "channel": 3,
        "type": "channel",
        "noteNumber": 67,
        "velocity": 98,
        "subtype": "noteOn"
      },
      {
        "deltaTime": 12,
        "channel": 3,
        "type": "channel",
        "noteNumber": 65,
        "velocity": 108,
        "subtype": "noteOn"
      },
      {
        "deltaTime": 806,
        "channel": 3,
        "type": "channel",
        "subtype": "noteOff",
        "noteNumber": 65,
        "velocity": 108
      },
      {
        "deltaTime": 16,
        "channel": 3,
        "type": "channel",
        "subtype": "noteOff",
        "noteNumber": 59,
        "velocity": 106
      },
      {
        "deltaTime": 14,
        "channel": 3,
        "type": "channel",
        "subtype": "noteOff",
        "noteNumber": 67,
        "velocity": 98
      },
      {
        "deltaTime": 156,
        "channel": 3,
        "type": "channel",
        "noteNumber": 59,
        "velocity": 100,
        "subtype": "noteOn"
      },
      {
        "deltaTime": 22,
        "channel": 3,
        "type": "channel",
        "noteNumber": 65,
        "velocity": 98,
        "subtype": "noteOn"
      },
      {
        "deltaTime": 0,
        "channel": 3,
        "type": "channel",
        "noteNumber": 67,
        "velocity": 93,
        "subtype": "noteOn"
      },
      {
        "deltaTime": 636,
        "channel": 3,
        "type": "channel",
        "subtype": "noteOff",
        "noteNumber": 65,
        "velocity": 98
      },
      {
        "deltaTime": 24,
        "channel": 3,
        "type": "channel",
        "subtype": "noteOff",
        "noteNumber": 67,
        "velocity": 93
      },
      {
        "deltaTime": 10,
        "channel": 3,
        "type": "channel",
        "subtype": "noteOff",
        "noteNumber": 59,
        "velocity": 100
      },
      {
        "deltaTime": 278,
        "channel": 3,
        "type": "channel",
        "noteNumber": 59,
        "velocity": 94,
        "subtype": "noteOn"
      },
      {
        "deltaTime": 26,
        "channel": 3,
        "type": "channel",
        "noteNumber": 67,
        "velocity": 93,
        "subtype": "noteOn"
      },
      {
        "deltaTime": 16,
        "channel": 3,
        "type": "channel",
        "noteNumber": 65,
        "velocity": 96,
        "subtype": "noteOn"
      },
      {
        "deltaTime": 260,
        "channel": 3,
        "type": "channel",
        "subtype": "noteOff",
        "noteNumber": 65,
        "velocity": 96
      },
      {
        "deltaTime": 32,
        "channel": 3,
        "type": "channel",
        "subtype": "noteOff",
        "noteNumber": 59,
        "velocity": 94
      },
      {
        "deltaTime": 20,
        "channel": 3,
        "type": "channel",
        "subtype": "noteOff",
        "noteNumber": 67,
        "velocity": 93
      },
      {
        "deltaTime": 250,
        "channel": 3,
        "type": "channel",
        "noteNumber": 59,
        "velocity": 103,
        "subtype": "noteOn"
      },
      {
        "deltaTime": 0,
        "channel": 3,
        "type": "channel",
        "noteNumber": 64,
        "velocity": 105,
        "subtype": "noteOn"
      },
      {
        "deltaTime": 10,
        "channel": 3,
        "type": "channel",
        "noteNumber": 67,
        "velocity": 95,
        "subtype": "noteOn"
      },
      {
        "deltaTime": 496,
        "channel": 3,
        "type": "channel",
        "subtype": "noteOff",
        "noteNumber": 59,
        "velocity": 103
      },
      {
        "deltaTime": 4,
        "channel": 3,
        "type": "channel",
        "subtype": "noteOff",
        "noteNumber": 64,
        "velocity": 105
      },
      {
        "deltaTime": 22,
        "channel": 3,
        "type": "channel",
        "subtype": "noteOff",
        "noteNumber": 67,
        "velocity": 95
      },
      {
        "deltaTime": 358,
        "channel": 3,
        "type": "channel",
        "noteNumber": 59,
        "velocity": 97,
        "subtype": "noteOn"
      },
      {
        "deltaTime": 26,
        "channel": 3,
        "type": "channel",
        "noteNumber": 64,
        "velocity": 100,
        "subtype": "noteOn"
      },
      {
        "deltaTime": 6,
        "channel": 3,
        "type": "channel",
        "noteNumber": 67,
        "velocity": 96,
        "subtype": "noteOn"
      },
      {
        "deltaTime": 286,
        "channel": 3,
        "type": "channel",
        "subtype": "noteOff",
        "noteNumber": 64,
        "velocity": 100
      },
      {
        "deltaTime": 6,
        "channel": 3,
        "type": "channel",
        "subtype": "noteOff",
        "noteNumber": 67,
        "velocity": 96
      },
      {
        "deltaTime": 16,
        "channel": 3,
        "type": "channel",
        "subtype": "noteOff",
        "noteNumber": 59,
        "velocity": 97
      },
      {
        "deltaTime": 208,
        "channel": 3,
        "type": "channel",
        "noteNumber": 59,
        "velocity": 96,
        "subtype": "noteOn"
      },
      {
        "deltaTime": 16,
        "channel": 3,
        "type": "channel",
        "noteNumber": 64,
        "velocity": 101,
        "subtype": "noteOn"
      },
      {
        "deltaTime": 4,
        "channel": 3,
        "type": "channel",
        "noteNumber": 67,
        "velocity": 94,
        "subtype": "noteOn"
      },
      {
        "deltaTime": 400,
        "channel": 3,
        "type": "channel",
        "subtype": "noteOff",
        "noteNumber": 64,
        "velocity": 101
      },
      {
        "deltaTime": 48,
        "channel": 3,
        "type": "channel",
        "subtype": "noteOff",
        "noteNumber": 67,
        "velocity": 94
      },
      {
        "deltaTime": 6,
        "channel": 3,
        "type": "channel",
        "subtype": "noteOff",
        "noteNumber": 59,
        "velocity": 96
      },
      {
        "deltaTime": 500,
        "channel": 3,
        "type": "channel",
        "noteNumber": 59,
        "velocity": 96,
        "subtype": "noteOn"
      },
      {
        "deltaTime": 4,
        "channel": 3,
        "type": "channel",
        "noteNumber": 64,
        "velocity": 102,
        "subtype": "noteOn"
      },
      {
        "deltaTime": 18,
        "channel": 3,
        "type": "channel",
        "noteNumber": 67,
        "velocity": 96,
        "subtype": "noteOn"
      },
      {
        "deltaTime": 534,
        "channel": 3,
        "type": "channel",
        "subtype": "noteOff",
        "noteNumber": 64,
        "velocity": 102
      },
      {
        "deltaTime": 12,
        "channel": 3,
        "type": "channel",
        "subtype": "noteOff",
        "noteNumber": 59,
        "velocity": 96
      },
      {
        "deltaTime": 92,
        "channel": 3,
        "type": "channel",
        "subtype": "noteOff",
        "noteNumber": 67,
        "velocity": 96
      },
      {
        "deltaTime": 386,
        "channel": 3,
        "type": "channel",
        "noteNumber": 63,
        "velocity": 102,
        "subtype": "noteOn"
      },
      {
        "deltaTime": 10,
        "channel": 3,
        "type": "channel",
        "noteNumber": 58,
        "velocity": 101,
        "subtype": "noteOn"
      },
      {
        "deltaTime": 12,
        "channel": 3,
        "type": "channel",
        "noteNumber": 67,
        "velocity": 97,
        "subtype": "noteOn"
      },
      {
        "deltaTime": 2228,
        "channel": 3,
        "type": "channel",
        "subtype": "noteOff",
        "noteNumber": 63,
        "velocity": 102
      },
      {
        "deltaTime": 52,
        "channel": 3,
        "type": "channel",
        "subtype": "noteOff",
        "noteNumber": 58,
        "velocity": 101
      },
      {
        "deltaTime": 0,
        "channel": 3,
        "type": "channel",
        "subtype": "noteOff",
        "noteNumber": 67,
        "velocity": 97
      },
      {
        "deltaTime": 166,
        "channel": 3,
        "type": "channel",
        "noteNumber": 62,
        "velocity": 93,
        "subtype": "noteOn"
      },
      {
        "deltaTime": 564,
        "channel": 3,
        "type": "channel",
        "subtype": "noteOff",
        "noteNumber": 62,
        "velocity": 93
      },
      {
        "deltaTime": 426,
        "channel": 3,
        "type": "channel",
        "noteNumber": 62,
        "velocity": 86,
        "subtype": "noteOn"
      },
      {
        "deltaTime": 506,
        "channel": 3,
        "type": "channel",
        "subtype": "noteOff",
        "noteNumber": 62,
        "velocity": 86
      },
      {
        "deltaTime": 532,
        "channel": 3,
        "type": "channel",
        "noteNumber": 59,
        "velocity": 101,
        "subtype": "noteOn"
      },
      {
        "deltaTime": 14,
        "channel": 3,
        "type": "channel",
        "noteNumber": 57,
        "velocity": 95,
        "subtype": "noteOn"
      },
      {
        "deltaTime": 6,
        "channel": 3,
        "type": "channel",
        "noteNumber": 62,
        "velocity": 95,
        "subtype": "noteOn"
      },
      {
        "deltaTime": 656,
        "channel": 3,
        "type": "channel",
        "subtype": "noteOff",
        "noteNumber": 59,
        "velocity": 101
      },
      {
        "deltaTime": 20,
        "channel": 3,
        "type": "channel",
        "subtype": "noteOff",
        "noteNumber": 57,
        "velocity": 95
      },
      {
        "deltaTime": 0,
        "channel": 3,
        "type": "channel",
        "subtype": "noteOff",
        "noteNumber": 62,
        "velocity": 95
      },
      {
        "deltaTime": 214,
        "channel": 3,
        "type": "channel",
        "noteNumber": 59,
        "velocity": 97,
        "subtype": "noteOn"
      },
      {
        "deltaTime": 0,
        "channel": 3,
        "type": "channel",
        "noteNumber": 57,
        "velocity": 89,
        "subtype": "noteOn"
      },
      {
        "deltaTime": 10,
        "channel": 3,
        "type": "channel",
        "noteNumber": 62,
        "velocity": 88,
        "subtype": "noteOn"
      },
      {
        "deltaTime": 262,
        "channel": 3,
        "type": "channel",
        "subtype": "noteOff",
        "noteNumber": 59,
        "velocity": 97
      },
      {
        "deltaTime": 14,
        "channel": 3,
        "type": "channel",
        "subtype": "noteOff",
        "noteNumber": 62,
        "velocity": 88
      },
      {
        "deltaTime": 12,
        "channel": 3,
        "type": "channel",
        "subtype": "noteOff",
        "noteNumber": 57,
        "velocity": 89
      },
      {
        "deltaTime": 244,
        "channel": 3,
        "type": "channel",
        "noteNumber": 59,
        "velocity": 100,
        "subtype": "noteOn"
      },
      {
        "deltaTime": 0,
        "channel": 3,
        "type": "channel",
        "noteNumber": 57,
        "velocity": 93,
        "subtype": "noteOn"
      },
      {
        "deltaTime": 0,
        "channel": 3,
        "type": "channel",
        "noteNumber": 62,
        "velocity": 92,
        "subtype": "noteOn"
      },
      {
        "deltaTime": 688,
        "channel": 3,
        "type": "channel",
        "subtype": "noteOff",
        "noteNumber": 59,
        "velocity": 100
      },
      {
        "deltaTime": 14,
        "channel": 3,
        "type": "channel",
        "subtype": "noteOff",
        "noteNumber": 57,
        "velocity": 93
      },
      {
        "deltaTime": 16,
        "channel": 3,
        "type": "channel",
        "subtype": "noteOff",
        "noteNumber": 62,
        "velocity": 92
      },
      {
        "deltaTime": 310,
        "channel": 3,
        "type": "channel",
        "noteNumber": 57,
        "velocity": 100,
        "subtype": "noteOn"
      },
      {
        "deltaTime": 4,
        "channel": 3,
        "type": "channel",
        "noteNumber": 59,
        "velocity": 105,
        "subtype": "noteOn"
      },
      {
        "deltaTime": 0,
        "channel": 3,
        "type": "channel",
        "noteNumber": 62,
        "velocity": 98,
        "subtype": "noteOn"
      },
      {
        "deltaTime": 500,
        "channel": 3,
        "type": "channel",
        "subtype": "noteOff",
        "noteNumber": 59,
        "velocity": 105
      },
      {
        "deltaTime": 10,
        "channel": 3,
        "type": "channel",
        "subtype": "noteOff",
        "noteNumber": 57,
        "velocity": 100
      },
      {
        "deltaTime": 68,
        "channel": 3,
        "type": "channel",
        "subtype": "noteOff",
        "noteNumber": 62,
        "velocity": 98
      },
      {
        "deltaTime": 474,
        "channel": 3,
        "type": "channel",
        "noteNumber": 62,
        "velocity": 98,
        "subtype": "noteOn"
      },
      {
        "deltaTime": 6,
        "channel": 3,
        "type": "channel",
        "noteNumber": 56,
        "velocity": 103,
        "subtype": "noteOn"
      },
      {
        "deltaTime": 4,
        "channel": 3,
        "type": "channel",
        "noteNumber": 58,
        "velocity": 103,
        "subtype": "noteOn"
      },
      {
        "deltaTime": 1624,
        "channel": 3,
        "type": "channel",
        "subtype": "noteOff",
        "noteNumber": 58,
        "velocity": 103
      },
      {
        "deltaTime": 16,
        "channel": 3,
        "type": "channel",
        "subtype": "noteOff",
        "noteNumber": 56,
        "velocity": 103
      },
      {
        "deltaTime": 44,
        "channel": 3,
        "type": "channel",
        "subtype": "noteOff",
        "noteNumber": 62,
        "velocity": 98
      },
      {
        "deltaTime": 160,
        "channel": 3,
        "type": "channel",
        "noteNumber": 56,
        "velocity": 100,
        "subtype": "noteOn"
      },
      {
        "deltaTime": 0,
        "channel": 3,
        "type": "channel",
        "noteNumber": 62,
        "velocity": 94,
        "subtype": "noteOn"
      },
      {
        "deltaTime": 10,
        "channel": 3,
        "type": "channel",
        "noteNumber": 58,
        "velocity": 102,
        "subtype": "noteOn"
      },
      {
        "deltaTime": 850,
        "channel": 3,
        "type": "channel",
        "subtype": "noteOff",
        "noteNumber": 58,
        "velocity": 102
      },
      {
        "deltaTime": 10,
        "channel": 3,
        "type": "channel",
        "subtype": "noteOff",
        "noteNumber": 56,
        "velocity": 100
      },
      {
        "deltaTime": 26,
        "channel": 3,
        "type": "channel",
        "subtype": "noteOff",
        "noteNumber": 62,
        "velocity": 94
      },
      {
        "deltaTime": 204,
        "channel": 3,
        "type": "channel",
        "noteNumber": 56,
        "velocity": 96,
        "subtype": "noteOn"
      },
      {
        "deltaTime": 0,
        "channel": 3,
        "type": "channel",
        "noteNumber": 62,
        "velocity": 92,
        "subtype": "noteOn"
      },
      {
        "deltaTime": 10,
        "channel": 3,
        "type": "channel",
        "noteNumber": 58,
        "velocity": 101,
        "subtype": "noteOn"
      },
      {
        "deltaTime": 644,
        "channel": 3,
        "type": "channel",
        "subtype": "noteOff",
        "noteNumber": 58,
        "velocity": 101
      },
      {
        "deltaTime": 38,
        "channel": 3,
        "type": "channel",
        "subtype": "noteOff",
        "noteNumber": 56,
        "velocity": 96
      },
      {
        "deltaTime": 4,
        "channel": 3,
        "type": "channel",
        "subtype": "noteOff",
        "noteNumber": 62,
        "velocity": 92
      },
      {
        "deltaTime": 246,
        "channel": 3,
        "type": "channel",
        "noteNumber": 62,
        "velocity": 80,
        "subtype": "noteOn"
      },
      {
        "deltaTime": 10,
        "channel": 3,
        "type": "channel",
        "noteNumber": 58,
        "velocity": 97,
        "subtype": "noteOn"
      },
      {
        "deltaTime": 0,
        "channel": 3,
        "type": "channel",
        "noteNumber": 56,
        "velocity": 90,
        "subtype": "noteOn"
      },
      {
        "deltaTime": 234,
        "channel": 3,
        "type": "channel",
        "subtype": "noteOff",
        "noteNumber": 58,
        "velocity": 97
      },
      {
        "deltaTime": 26,
        "channel": 3,
        "type": "channel",
        "subtype": "noteOff",
        "noteNumber": 56,
        "velocity": 90
      },
      {
        "deltaTime": 6,
        "channel": 3,
        "type": "channel",
        "subtype": "noteOff",
        "noteNumber": 62,
        "velocity": 80
      },
      {
        "deltaTime": 244,
        "channel": 3,
        "type": "channel",
        "noteNumber": 62,
        "velocity": 87,
        "subtype": "noteOn"
      },
      {
        "deltaTime": 16,
        "channel": 3,
        "type": "channel",
        "noteNumber": 55,
        "velocity": 96,
        "subtype": "noteOn"
      },
      {
        "deltaTime": 16,
        "channel": 3,
        "type": "channel",
        "noteNumber": 60,
        "velocity": 101,
        "subtype": "noteOn"
      },
      {
        "deltaTime": 500,
        "channel": 3,
        "type": "channel",
        "subtype": "noteOff",
        "noteNumber": 60,
        "velocity": 101
      },
      {
        "deltaTime": 30,
        "channel": 3,
        "type": "channel",
        "subtype": "noteOff",
        "noteNumber": 62,
        "velocity": 87
      },
      {
        "deltaTime": 28,
        "channel": 3,
        "type": "channel",
        "subtype": "noteOff",
        "noteNumber": 55,
        "velocity": 96
      },
      {
        "deltaTime": 372,
        "channel": 3,
        "type": "channel",
        "noteNumber": 55,
        "velocity": 89,
        "subtype": "noteOn"
      },
      {
        "deltaTime": 12,
        "channel": 3,
        "type": "channel",
        "noteNumber": 60,
        "velocity": 96,
        "subtype": "noteOn"
      },
      {
        "deltaTime": 0,
        "channel": 3,
        "type": "channel",
        "noteNumber": 62,
        "velocity": 87,
        "subtype": "noteOn"
      },
      {
        "deltaTime": 328,
        "channel": 3,
        "type": "channel",
        "subtype": "noteOff",
        "noteNumber": 60,
        "velocity": 96
      },
      {
        "deltaTime": 22,
        "channel": 3,
        "type": "channel",
        "subtype": "noteOff",
        "noteNumber": 62,
        "velocity": 87
      },
      {
        "deltaTime": 6,
        "channel": 3,
        "type": "channel",
        "subtype": "noteOff",
        "noteNumber": 55,
        "velocity": 89
      },
      {
        "deltaTime": 170,
        "channel": 3,
        "type": "channel",
        "noteNumber": 55,
        "velocity": 96,
        "subtype": "noteOn"
      },
      {
        "deltaTime": 10,
        "channel": 3,
        "type": "channel",
        "noteNumber": 60,
        "velocity": 101,
        "subtype": "noteOn"
      },
      {
        "deltaTime": 0,
        "channel": 3,
        "type": "channel",
        "noteNumber": 62,
        "velocity": 93,
        "subtype": "noteOn"
      },
      {
        "deltaTime": 376,
        "channel": 3,
        "type": "channel",
        "subtype": "noteOff",
        "noteNumber": 60,
        "velocity": 101
      },
      {
        "deltaTime": 14,
        "channel": 3,
        "type": "channel",
        "subtype": "noteOff",
        "noteNumber": 55,
        "velocity": 96
      },
      {
        "deltaTime": 16,
        "channel": 3,
        "type": "channel",
        "subtype": "noteOff",
        "noteNumber": 62,
        "velocity": 93
      },
      {
        "deltaTime": 616,
        "channel": 3,
        "type": "channel",
        "noteNumber": 55,
        "velocity": 101,
        "subtype": "noteOn"
      },
      {
        "deltaTime": 10,
        "channel": 3,
        "type": "channel",
        "noteNumber": 60,
        "velocity": 106,
        "subtype": "noteOn"
      },
      {
        "deltaTime": 6,
        "channel": 3,
        "type": "channel",
        "noteNumber": 62,
        "velocity": 98,
        "subtype": "noteOn"
      },
      {
        "deltaTime": 282,
        "channel": 3,
        "type": "channel",
        "subtype": "noteOff",
        "noteNumber": 55,
        "velocity": 101
      },
      {
        "deltaTime": 0,
        "channel": 3,
        "type": "channel",
        "subtype": "noteOff",
        "noteNumber": 60,
        "velocity": 106
      },
      {
        "deltaTime": 24,
        "channel": 3,
        "type": "channel",
        "subtype": "noteOff",
        "noteNumber": 62,
        "velocity": 98
      },
      {
        "deltaTime": 604,
        "channel": 3,
        "type": "channel",
        "noteNumber": 67,
        "velocity": 96,
        "subtype": "noteOn"
      },
      {
        "deltaTime": 16,
        "channel": 3,
        "type": "channel",
        "noteNumber": 59,
        "velocity": 101,
        "subtype": "noteOn"
      },
      {
        "deltaTime": 0,
        "channel": 3,
        "type": "channel",
        "noteNumber": 62,
        "velocity": 110,
        "subtype": "noteOn"
      },
      {
        "deltaTime": 10,
        "channel": 3,
        "type": "channel",
        "noteNumber": 55,
        "velocity": 108,
        "subtype": "noteOn"
      },
      {
        "deltaTime": 0,
        "channel": 3,
        "type": "channel",
        "noteNumber": 54,
        "velocity": 113,
        "subtype": "noteOn"
      },
      {
        "deltaTime": 4224,
        "channel": 3,
        "type": "channel",
        "subtype": "noteOff",
        "noteNumber": 67,
        "velocity": 96
      },
      {
        "deltaTime": 16,
        "channel": 3,
        "type": "channel",
        "subtype": "noteOff",
        "noteNumber": 59,
        "velocity": 101
      },
      {
        "deltaTime": 130,
        "channel": 3,
        "type": "channel",
        "subtype": "noteOff",
        "noteNumber": 55,
        "velocity": 108
      },
      {
        "deltaTime": 120,
        "channel": 3,
        "type": "channel",
        "subtype": "noteOff",
        "noteNumber": 62,
        "velocity": 110
      },
      {
        "deltaTime": 10,
        "channel": 3,
        "type": "channel",
        "subtype": "noteOff",
        "noteNumber": 54,
        "velocity": 113
      },
      {
        "deltaTime": 16,
        "channel": 3,
        "type": "channel",
        "noteNumber": 79,
        "velocity": 103,
        "subtype": "noteOn"
      },
      {
        "deltaTime": 500,
        "channel": 3,
        "type": "channel",
        "subtype": "noteOff",
        "noteNumber": 79,
        "velocity": 103
      },
      {
        "deltaTime": 0,
        "channel": 3,
        "type": "channel",
        "noteNumber": 81,
        "velocity": 101,
        "subtype": "noteOn"
      },
      {
        "deltaTime": 500,
        "channel": 3,
        "type": "channel",
        "subtype": "noteOff",
        "noteNumber": 81,
        "velocity": 101
      },
      {
        "deltaTime": 0,
        "channel": 3,
        "type": "channel",
        "noteNumber": 82,
        "velocity": 94,
        "subtype": "noteOn"
      },
      {
        "deltaTime": 500,
        "channel": 3,
        "type": "channel",
        "subtype": "noteOff",
        "noteNumber": 82,
        "velocity": 94
      },
      {
        "deltaTime": 0,
        "channel": 3,
        "type": "channel",
        "noteNumber": 84,
        "velocity": 94,
        "subtype": "noteOn"
      },
      {
        "deltaTime": 500,
        "channel": 3,
        "type": "channel",
        "subtype": "noteOff",
        "noteNumber": 84,
        "velocity": 94
      },
      {
        "deltaTime": 10,
        "channel": 3,
        "type": "channel",
        "noteNumber": 86,
        "velocity": 103,
        "subtype": "noteOn"
      },
      {
        "deltaTime": 0,
        "channel": 3,
        "type": "channel",
        "noteNumber": 82,
        "velocity": 103,
        "subtype": "noteOn"
      },
      {
        "deltaTime": 496,
        "channel": 3,
        "type": "channel",
        "noteNumber": 81,
        "velocity": 102,
        "subtype": "noteOn"
      },
      {
        "deltaTime": 0,
        "channel": 3,
        "type": "channel",
        "noteNumber": 84,
        "velocity": 102,
        "subtype": "noteOn"
      },
      {
        "deltaTime": 74,
        "channel": 3,
        "type": "channel",
        "subtype": "noteOff",
        "noteNumber": 86,
        "velocity": 103
      },
      {
        "deltaTime": 0,
        "channel": 3,
        "type": "channel",
        "subtype": "noteOff",
        "noteNumber": 82,
        "velocity": 103
      },
      {
        "deltaTime": 420,
        "channel": 3,
        "type": "channel",
        "noteNumber": 79,
        "velocity": 96,
        "subtype": "noteOn"
      },
      {
        "deltaTime": 0,
        "channel": 3,
        "type": "channel",
        "noteNumber": 82,
        "velocity": 96,
        "subtype": "noteOn"
      },
      {
        "deltaTime": 28,
        "channel": 3,
        "type": "channel",
        "subtype": "noteOff",
        "noteNumber": 81,
        "velocity": 102
      },
      {
        "deltaTime": 0,
        "channel": 3,
        "type": "channel",
        "subtype": "noteOff",
        "noteNumber": 84,
        "velocity": 102
      },
      {
        "deltaTime": 400,
        "channel": 3,
        "type": "channel",
        "noteNumber": 77,
        "velocity": 97,
        "subtype": "noteOn"
      },
      {
        "deltaTime": 0,
        "channel": 3,
        "type": "channel",
        "noteNumber": 81,
        "velocity": 97,
        "subtype": "noteOn"
      },
      {
        "deltaTime": 20,
        "channel": 3,
        "type": "channel",
        "subtype": "noteOff",
        "noteNumber": 79,
        "velocity": 96
      },
      {
        "deltaTime": 0,
        "channel": 3,
        "type": "channel",
        "subtype": "noteOff",
        "noteNumber": 82,
        "velocity": 96
      },
      {
        "deltaTime": 546,
        "channel": 3,
        "type": "channel",
        "subtype": "noteOff",
        "noteNumber": 77,
        "velocity": 97
      },
      {
        "deltaTime": 0,
        "channel": 3,
        "type": "channel",
        "subtype": "noteOff",
        "noteNumber": 81,
        "velocity": 97
      },
      {
        "deltaTime": 0,
        "channel": 3,
        "type": "channel",
        "noteNumber": 79,
        "velocity": 96,
        "subtype": "noteOn"
      },
      {
        "deltaTime": 6,
        "channel": 3,
        "type": "channel",
        "noteNumber": 75,
        "velocity": 96,
        "subtype": "noteOn"
      },
      {
        "deltaTime": 448,
        "channel": 3,
        "type": "channel",
        "noteNumber": 74,
        "velocity": 100,
        "subtype": "noteOn"
      },
      {
        "deltaTime": 0,
        "channel": 3,
        "type": "channel",
        "noteNumber": 77,
        "velocity": 100,
        "subtype": "noteOn"
      },
      {
        "deltaTime": 46,
        "channel": 3,
        "type": "channel",
        "subtype": "noteOff",
        "noteNumber": 79,
        "velocity": 96
      },
      {
        "deltaTime": 6,
        "channel": 3,
        "type": "channel",
        "subtype": "noteOff",
        "noteNumber": 75,
        "velocity": 96
      },
      {
        "deltaTime": 490,
        "channel": 3,
        "type": "channel",
        "noteNumber": 72,
        "velocity": 92,
        "subtype": "noteOn"
      },
      {
        "deltaTime": 0,
        "channel": 3,
        "type": "channel",
        "noteNumber": 75,
        "velocity": 92,
        "subtype": "noteOn"
      },
      {
        "deltaTime": 26,
        "channel": 3,
        "type": "channel",
        "subtype": "noteOff",
        "noteNumber": 74,
        "velocity": 100
      },
      {
        "deltaTime": 0,
        "channel": 3,
        "type": "channel",
        "subtype": "noteOff",
        "noteNumber": 77,
        "velocity": 100
      },
      {
        "deltaTime": 422,
        "channel": 3,
        "type": "channel",
        "subtype": "noteOff",
        "noteNumber": 72,
        "velocity": 92
      },
      {
        "deltaTime": 0,
        "channel": 3,
        "type": "channel",
        "subtype": "noteOff",
        "noteNumber": 75,
        "velocity": 92
      },
      {
        "deltaTime": 62,
        "channel": 3,
        "type": "channel",
        "noteNumber": 74,
        "velocity": 92,
        "subtype": "noteOn"
      },
      {
        "deltaTime": 0,
        "channel": 3,
        "type": "channel",
        "noteNumber": 70,
        "velocity": 92,
        "subtype": "noteOn"
      },
      {
        "deltaTime": 500,
        "channel": 3,
        "type": "channel",
        "subtype": "noteOff",
        "noteNumber": 74,
        "velocity": 92
      },
      {
        "deltaTime": 0,
        "channel": 3,
        "type": "channel",
        "subtype": "noteOff",
        "noteNumber": 70,
        "velocity": 92
      },
      {
        "deltaTime": 6,
        "channel": 3,
        "type": "channel",
        "noteNumber": 72,
        "velocity": 96,
        "subtype": "noteOn"
      },
      {
        "deltaTime": 0,
        "channel": 3,
        "type": "channel",
        "noteNumber": 69,
        "velocity": 96,
        "subtype": "noteOn"
      },
      {
        "deltaTime": 474,
        "channel": 3,
        "type": "channel",
        "noteNumber": 70,
        "velocity": 87,
        "subtype": "noteOn"
      },
      {
        "deltaTime": 0,
        "channel": 3,
        "type": "channel",
        "noteNumber": 74,
        "velocity": 87,
        "subtype": "noteOn"
      },
      {
        "deltaTime": 26,
        "channel": 3,
        "type": "channel",
        "subtype": "noteOff",
        "noteNumber": 72,
        "velocity": 96
      },
      {
        "deltaTime": 0,
        "channel": 3,
        "type": "channel",
        "subtype": "noteOff",
        "noteNumber": 69,
        "velocity": 96
      },
      {
        "deltaTime": 474,
        "channel": 3,
        "type": "channel",
        "subtype": "noteOff",
        "noteNumber": 70,
        "velocity": 87
      },
      {
        "deltaTime": 0,
        "channel": 3,
        "type": "channel",
        "subtype": "noteOff",
        "noteNumber": 74,
        "velocity": 87
      },
      {
        "deltaTime": 20,
        "channel": 3,
        "type": "channel",
        "noteNumber": 75,
        "velocity": 93,
        "subtype": "noteOn"
      },
      {
        "deltaTime": 0,
        "channel": 3,
        "type": "channel",
        "noteNumber": 72,
        "velocity": 93,
        "subtype": "noteOn"
      },
      {
        "deltaTime": 500,
        "channel": 3,
        "type": "channel",
        "subtype": "noteOff",
        "noteNumber": 75,
        "velocity": 93
      },
      {
        "deltaTime": 0,
        "channel": 3,
        "type": "channel",
        "subtype": "noteOff",
        "noteNumber": 72,
        "velocity": 93
      },
      {
        "deltaTime": 0,
        "channel": 3,
        "type": "channel",
        "noteNumber": 77,
        "velocity": 101,
        "subtype": "noteOn"
      },
      {
        "deltaTime": 0,
        "channel": 3,
        "type": "channel",
        "noteNumber": 74,
        "velocity": 101,
        "subtype": "noteOn"
      },
      {
        "deltaTime": 500,
        "channel": 3,
        "type": "channel",
        "subtype": "noteOff",
        "noteNumber": 77,
        "velocity": 101
      },
      {
        "deltaTime": 0,
        "channel": 3,
        "type": "channel",
        "subtype": "noteOff",
        "noteNumber": 74,
        "velocity": 101
      },
      {
        "deltaTime": 0,
        "channel": 3,
        "type": "channel",
        "noteNumber": 72,
        "velocity": 97,
        "subtype": "noteOn"
      },
      {
        "deltaTime": 0,
        "channel": 3,
        "type": "channel",
        "noteNumber": 69,
        "velocity": 97,
        "subtype": "noteOn"
      },
      {
        "deltaTime": 1468,
        "channel": 3,
        "type": "channel",
        "subtype": "noteOff",
        "noteNumber": 72,
        "velocity": 97
      },
      {
        "deltaTime": 0,
        "channel": 3,
        "type": "channel",
        "subtype": "noteOff",
        "noteNumber": 69,
        "velocity": 97
      },
      {
        "deltaTime": 32,
        "channel": 3,
        "type": "channel",
        "noteNumber": 70,
        "velocity": 100,
        "subtype": "noteOn"
      },
      {
        "deltaTime": 0,
        "channel": 3,
        "type": "channel",
        "noteNumber": 67,
        "velocity": 100,
        "subtype": "noteOn"
      },
      {
        "deltaTime": 968,
        "channel": 3,
        "type": "channel",
        "subtype": "noteOff",
        "noteNumber": 70,
        "velocity": 100
      },
      {
        "deltaTime": 0,
        "channel": 3,
        "type": "channel",
        "subtype": "noteOff",
        "noteNumber": 67,
        "velocity": 100
      },
      {
        "deltaTime": 12,
        "channel": 3,
        "type": "channel",
        "noteNumber": 72,
        "velocity": 90,
        "subtype": "noteOn"
      },
      {
        "deltaTime": 0,
        "channel": 3,
        "type": "channel",
        "noteNumber": 69,
        "velocity": 90,
        "subtype": "noteOn"
      },
      {
        "deltaTime": 500,
        "channel": 3,
        "type": "channel",
        "subtype": "noteOff",
        "noteNumber": 72,
        "velocity": 90
      },
      {
        "deltaTime": 0,
        "channel": 3,
        "type": "channel",
        "subtype": "noteOff",
        "noteNumber": 69,
        "velocity": 90
      },
      {
        "deltaTime": 20,
        "channel": 3,
        "type": "channel",
        "noteNumber": 73,
        "velocity": 96,
        "subtype": "noteOn"
      },
      {
        "deltaTime": 0,
        "channel": 3,
        "type": "channel",
        "noteNumber": 70,
        "velocity": 96,
        "subtype": "noteOn"
      },
      {
        "deltaTime": 500,
        "channel": 3,
        "type": "channel",
        "subtype": "noteOff",
        "noteNumber": 73,
        "velocity": 96
      },
      {
        "deltaTime": 0,
        "channel": 3,
        "type": "channel",
        "subtype": "noteOff",
        "noteNumber": 70,
        "velocity": 96
      },
      {
        "deltaTime": 0,
        "channel": 3,
        "type": "channel",
        "noteNumber": 77,
        "velocity": 101,
        "subtype": "noteOn"
      },
      {
        "deltaTime": 0,
        "channel": 3,
        "type": "channel",
        "noteNumber": 74,
        "velocity": 101,
        "subtype": "noteOn"
      },
      {
        "deltaTime": 500,
        "channel": 3,
        "type": "channel",
        "subtype": "noteOff",
        "noteNumber": 77,
        "velocity": 101
      },
      {
        "deltaTime": 0,
        "channel": 3,
        "type": "channel",
        "subtype": "noteOff",
        "noteNumber": 74,
        "velocity": 101
      },
      {
        "deltaTime": 20,
        "channel": 3,
        "type": "channel",
        "noteNumber": 72,
        "velocity": 97,
        "subtype": "noteOn"
      },
      {
        "deltaTime": 0,
        "channel": 3,
        "type": "channel",
        "noteNumber": 69,
        "velocity": 97,
        "subtype": "noteOn"
      },
      {
        "deltaTime": 1490,
        "channel": 3,
        "type": "channel",
        "subtype": "noteOff",
        "noteNumber": 72,
        "velocity": 97
      },
      {
        "deltaTime": 0,
        "channel": 3,
        "type": "channel",
        "subtype": "noteOff",
        "noteNumber": 69,
        "velocity": 97
      },
      {
        "deltaTime": 0,
        "channel": 3,
        "type": "channel",
        "noteNumber": 70,
        "velocity": 100,
        "subtype": "noteOn"
      },
      {
        "deltaTime": 0,
        "channel": 3,
        "type": "channel",
        "noteNumber": 67,
        "velocity": 100,
        "subtype": "noteOn"
      },
      {
        "deltaTime": 970,
        "channel": 3,
        "type": "channel",
        "subtype": "noteOff",
        "noteNumber": 70,
        "velocity": 100
      },
      {
        "deltaTime": 0,
        "channel": 3,
        "type": "channel",
        "subtype": "noteOff",
        "noteNumber": 67,
        "velocity": 100
      },
      {
        "deltaTime": 1536,
        "channel": 3,
        "type": "channel",
        "noteNumber": 77,
        "velocity": 96,
        "subtype": "noteOn"
      },
      {
        "deltaTime": 522,
        "channel": 3,
        "type": "channel",
        "subtype": "noteOff",
        "noteNumber": 77,
        "velocity": 96
      },
      {
        "deltaTime": 20,
        "channel": 3,
        "type": "channel",
        "noteNumber": 79,
        "velocity": 86,
        "subtype": "noteOn"
      },
      {
        "deltaTime": 452,
        "channel": 3,
        "type": "channel",
        "noteNumber": 80,
        "velocity": 93,
        "subtype": "noteOn"
      },
      {
        "deltaTime": 48,
        "channel": 3,
        "type": "channel",
        "subtype": "noteOff",
        "noteNumber": 79,
        "velocity": 86
      },
      {
        "deltaTime": 410,
        "channel": 3,
        "type": "channel",
        "noteNumber": 82,
        "velocity": 94,
        "subtype": "noteOn"
      },
      {
        "deltaTime": 42,
        "channel": 3,
        "type": "channel",
        "subtype": "noteOff",
        "noteNumber": 80,
        "velocity": 93
      },
      {
        "deltaTime": 458,
        "channel": 3,
        "type": "channel",
        "subtype": "noteOff",
        "noteNumber": 82,
        "velocity": 94
      },
      {
        "deltaTime": 16,
        "channel": 3,
        "type": "channel",
        "noteNumber": 84,
        "velocity": 93,
        "subtype": "noteOn"
      },
      {
        "deltaTime": 10,
        "channel": 3,
        "type": "channel",
        "noteNumber": 80,
        "velocity": 93,
        "subtype": "noteOn"
      },
      {
        "deltaTime": 486,
        "channel": 3,
        "type": "channel",
        "noteNumber": 79,
        "velocity": 88,
        "subtype": "noteOn"
      },
      {
        "deltaTime": 0,
        "channel": 3,
        "type": "channel",
        "noteNumber": 82,
        "velocity": 88,
        "subtype": "noteOn"
      },
      {
        "deltaTime": 94,
        "channel": 3,
        "type": "channel",
        "subtype": "noteOff",
        "noteNumber": 84,
        "velocity": 93
      },
      {
        "deltaTime": 10,
        "channel": 3,
        "type": "channel",
        "subtype": "noteOff",
        "noteNumber": 80,
        "velocity": 93
      },
      {
        "deltaTime": 396,
        "channel": 3,
        "type": "channel",
        "subtype": "noteOff",
        "noteNumber": 79,
        "velocity": 88
      },
      {
        "deltaTime": 0,
        "channel": 3,
        "type": "channel",
        "subtype": "noteOff",
        "noteNumber": 82,
        "velocity": 88
      },
      {
        "deltaTime": 48,
        "channel": 3,
        "type": "channel",
        "noteNumber": 80,
        "velocity": 93,
        "subtype": "noteOn"
      },
      {
        "deltaTime": 0,
        "channel": 3,
        "type": "channel",
        "noteNumber": 77,
        "velocity": 93,
        "subtype": "noteOn"
      },
      {
        "deltaTime": 472,
        "channel": 3,
        "type": "channel",
        "noteNumber": 75,
        "velocity": 93,
        "subtype": "noteOn"
      },
      {
        "deltaTime": 0,
        "channel": 3,
        "type": "channel",
        "noteNumber": 79,
        "velocity": 93,
        "subtype": "noteOn"
      },
      {
        "deltaTime": 28,
        "channel": 3,
        "type": "channel",
        "subtype": "noteOff",
        "noteNumber": 80,
        "velocity": 93
      },
      {
        "deltaTime": 0,
        "channel": 3,
        "type": "channel",
        "subtype": "noteOff",
        "noteNumber": 77,
        "velocity": 93
      },
      {
        "deltaTime": 472,
        "channel": 3,
        "type": "channel",
        "subtype": "noteOff",
        "noteNumber": 75,
        "velocity": 93
      },
      {
        "deltaTime": 0,
        "channel": 3,
        "type": "channel",
        "subtype": "noteOff",
        "noteNumber": 79,
        "velocity": 93
      },
      {
        "deltaTime": 0,
        "channel": 3,
        "type": "channel",
        "noteNumber": 77,
        "velocity": 86,
        "subtype": "noteOn"
      },
      {
        "deltaTime": 20,
        "channel": 3,
        "type": "channel",
        "subtype": "noteOff",
        "noteNumber": 77,
        "velocity": 86
      },
      {
        "deltaTime": 0,
        "channel": 3,
        "type": "channel",
        "noteNumber": 77,
        "velocity": 106,
        "subtype": "noteOn"
      },
      {
        "deltaTime": 0,
        "channel": 3,
        "type": "channel",
        "noteNumber": 73,
        "velocity": 106,
        "subtype": "noteOn"
      },
      {
        "deltaTime": 480,
        "channel": 3,
        "type": "channel",
        "noteNumber": 72,
        "velocity": 90,
        "subtype": "noteOn"
      },
      {
        "deltaTime": 0,
        "channel": 3,
        "type": "channel",
        "noteNumber": 75,
        "velocity": 90,
        "subtype": "noteOn"
      },
      {
        "deltaTime": 42,
        "channel": 3,
        "type": "channel",
        "subtype": "noteOff",
        "noteNumber": 77,
        "velocity": 106
      },
      {
        "deltaTime": 0,
        "channel": 3,
        "type": "channel",
        "subtype": "noteOff",
        "noteNumber": 73,
        "velocity": 106
      },
      {
        "deltaTime": 420,
        "channel": 3,
        "type": "channel",
        "noteNumber": 70,
        "velocity": 88,
        "subtype": "noteOn"
      },
      {
        "deltaTime": 0,
        "channel": 3,
        "type": "channel",
        "noteNumber": 73,
        "velocity": 88,
        "subtype": "noteOn"
      },
      {
        "deltaTime": 132,
        "channel": 3,
        "type": "channel",
        "subtype": "noteOff",
        "noteNumber": 72,
        "velocity": 90
      },
      {
        "deltaTime": 0,
        "channel": 3,
        "type": "channel",
        "subtype": "noteOff",
        "noteNumber": 75,
        "velocity": 90
      },
      {
        "deltaTime": 344,
        "channel": 3,
        "type": "channel",
        "noteNumber": 68,
        "velocity": 79,
        "subtype": "noteOn"
      },
      {
        "deltaTime": 0,
        "channel": 3,
        "type": "channel",
        "noteNumber": 72,
        "velocity": 79,
        "subtype": "noteOn"
      },
      {
        "deltaTime": 24,
        "channel": 3,
        "type": "channel",
        "subtype": "noteOff",
        "noteNumber": 70,
        "velocity": 88
      },
      {
        "deltaTime": 0,
        "channel": 3,
        "type": "channel",
        "subtype": "noteOff",
        "noteNumber": 73,
        "velocity": 88
      },
      {
        "deltaTime": 544,
        "channel": 3,
        "type": "channel",
        "subtype": "noteOff",
        "noteNumber": 68,
        "velocity": 79
      },
      {
        "deltaTime": 0,
        "channel": 3,
        "type": "channel",
        "subtype": "noteOff",
        "noteNumber": 72,
        "velocity": 79
      },
      {
        "deltaTime": 0,
        "channel": 3,
        "type": "channel",
        "noteNumber": 70,
        "velocity": 96,
        "subtype": "noteOn"
      },
      {
        "deltaTime": 0,
        "channel": 3,
        "type": "channel",
        "noteNumber": 67,
        "velocity": 96,
        "subtype": "noteOn"
      },
      {
        "deltaTime": 494,
        "channel": 3,
        "type": "channel",
        "noteNumber": 68,
        "velocity": 93,
        "subtype": "noteOn"
      },
      {
        "deltaTime": 0,
        "channel": 3,
        "type": "channel",
        "noteNumber": 72,
        "velocity": 93,
        "subtype": "noteOn"
      },
      {
        "deltaTime": 146,
        "channel": 3,
        "type": "channel",
        "subtype": "noteOff",
        "noteNumber": 70,
        "velocity": 96
      },
      {
        "deltaTime": 0,
        "channel": 3,
        "type": "channel",
        "subtype": "noteOff",
        "noteNumber": 67,
        "velocity": 96
      },
      {
        "deltaTime": 306,
        "channel": 3,
        "type": "channel",
        "noteNumber": 70,
        "velocity": 88,
        "subtype": "noteOn"
      },
      {
        "deltaTime": 0,
        "channel": 3,
        "type": "channel",
        "noteNumber": 73,
        "velocity": 88,
        "subtype": "noteOn"
      },
      {
        "deltaTime": 48,
        "channel": 3,
        "type": "channel",
        "subtype": "noteOff",
        "noteNumber": 68,
        "velocity": 93
      },
      {
        "deltaTime": 0,
        "channel": 3,
        "type": "channel",
        "subtype": "noteOff",
        "noteNumber": 72,
        "velocity": 93
      },
      {
        "deltaTime": 474,
        "channel": 3,
        "type": "channel",
        "noteNumber": 72,
        "velocity": 102,
        "subtype": "noteOn"
      },
      {
        "deltaTime": 0,
        "channel": 3,
        "type": "channel",
        "noteNumber": 75,
        "velocity": 102,
        "subtype": "noteOn"
      },
      {
        "deltaTime": 74,
        "channel": 3,
        "type": "channel",
        "subtype": "noteOff",
        "noteNumber": 70,
        "velocity": 88
      },
      {
        "deltaTime": 0,
        "channel": 3,
        "type": "channel",
        "subtype": "noteOff",
        "noteNumber": 73,
        "velocity": 88
      },
      {
        "deltaTime": 426,
        "channel": 3,
        "type": "channel",
        "subtype": "noteOff",
        "noteNumber": 72,
        "velocity": 102
      },
      {
        "deltaTime": 0,
        "channel": 3,
        "type": "channel",
        "subtype": "noteOff",
        "noteNumber": 75,
        "velocity": 102
      },
      {
        "deltaTime": 94,
        "channel": 3,
        "type": "channel",
        "noteNumber": 70,
        "velocity": 86,
        "subtype": "noteOn"
      },
      {
        "deltaTime": 0,
        "channel": 3,
        "type": "channel",
        "noteNumber": 67,
        "velocity": 86,
        "subtype": "noteOn"
      },
      {
        "deltaTime": 1370,
        "channel": 3,
        "type": "channel",
        "subtype": "noteOff",
        "noteNumber": 70,
        "velocity": 86
      },
      {
        "deltaTime": 0,
        "channel": 3,
        "type": "channel",
        "subtype": "noteOff",
        "noteNumber": 67,
        "velocity": 86
      },
      {
        "deltaTime": 62,
        "channel": 3,
        "type": "channel",
        "noteNumber": 68,
        "velocity": 100,
        "subtype": "noteOn"
      },
      {
        "deltaTime": 0,
        "channel": 3,
        "type": "channel",
        "noteNumber": 65,
        "velocity": 100,
        "subtype": "noteOn"
      },
      {
        "deltaTime": 1006,
        "channel": 3,
        "type": "channel",
        "noteNumber": 75,
        "velocity": 106,
        "subtype": "noteOn"
      },
      {
        "deltaTime": 26,
        "channel": 3,
        "type": "channel",
        "noteNumber": 79,
        "velocity": 96,
        "subtype": "noteOn"
      },
      {
        "deltaTime": 78,
        "channel": 3,
        "type": "channel",
        "subtype": "noteOff",
        "noteNumber": 68,
        "velocity": 100
      },
      {
        "deltaTime": 0,
        "channel": 3,
        "type": "channel",
        "subtype": "noteOff",
        "noteNumber": 65,
        "velocity": 100
      },
      {
        "deltaTime": 390,
        "channel": 3,
        "type": "channel",
        "subtype": "noteOff",
        "noteNumber": 79,
        "velocity": 96
      },
      {
        "deltaTime": 0,
        "channel": 3,
        "type": "channel",
        "noteNumber": 80,
        "velocity": 103,
        "subtype": "noteOn"
      },
      {
        "deltaTime": 28,
        "channel": 3,
        "type": "channel",
        "noteNumber": 77,
        "velocity": 113,
        "subtype": "noteOn"
      },
      {
        "deltaTime": 72,
        "channel": 3,
        "type": "channel",
        "subtype": "noteOff",
        "noteNumber": 75,
        "velocity": 106
      },
      {
        "deltaTime": 540,
        "channel": 3,
        "type": "channel",
        "subtype": "noteOff",
        "noteNumber": 77,
        "velocity": 113
      },
      {
        "deltaTime": 72,
        "channel": 3,
        "type": "channel",
        "subtype": "noteOff",
        "noteNumber": 80,
        "velocity": 103
      },
      {
        "deltaTime": 330,
        "channel": 3,
        "type": "channel",
        "noteNumber": 79,
        "velocity": 98,
        "subtype": "noteOn"
      },
      {
        "deltaTime": 26,
        "channel": 3,
        "type": "channel",
        "noteNumber": 75,
        "velocity": 110,
        "subtype": "noteOn"
      },
      {
        "deltaTime": 448,
        "channel": 3,
        "type": "channel",
        "noteNumber": 77,
        "velocity": 103,
        "subtype": "noteOn"
      },
      {
        "deltaTime": 0,
        "channel": 3,
        "type": "channel",
        "noteNumber": 80,
        "velocity": 98,
        "subtype": "noteOn"
      },
      {
        "deltaTime": 74,
        "channel": 3,
        "type": "channel",
        "subtype": "noteOff",
        "noteNumber": 79,
        "velocity": 98
      },
      {
        "deltaTime": 0,
        "channel": 3,
        "type": "channel",
        "subtype": "noteOff",
        "noteNumber": 75,
        "velocity": 110
      },
      {
        "deltaTime": 352,
        "channel": 3,
        "type": "channel",
        "noteNumber": 75,
        "velocity": 102,
        "subtype": "noteOn"
      },
      {
        "deltaTime": 26,
        "channel": 3,
        "type": "channel",
        "noteNumber": 79,
        "velocity": 94,
        "subtype": "noteOn"
      },
      {
        "deltaTime": 22,
        "channel": 3,
        "type": "channel",
        "subtype": "noteOff",
        "noteNumber": 77,
        "velocity": 103
      },
      {
        "deltaTime": 94,
        "channel": 3,
        "type": "channel",
        "subtype": "noteOff",
        "noteNumber": 80,
        "velocity": 98
      },
      {
        "deltaTime": 358,
        "channel": 3,
        "type": "channel",
        "subtype": "noteOff",
        "noteNumber": 75,
        "velocity": 102
      },
      {
        "deltaTime": 48,
        "channel": 3,
        "type": "channel",
        "noteNumber": 74,
        "velocity": 96,
        "subtype": "noteOn"
      },
      {
        "deltaTime": 20,
        "channel": 3,
        "type": "channel",
        "subtype": "noteOff",
        "noteNumber": 79,
        "velocity": 94
      },
      {
        "deltaTime": 28,
        "channel": 3,
        "type": "channel",
        "noteNumber": 77,
        "velocity": 115,
        "subtype": "noteOn"
      },
      {
        "deltaTime": 482,
        "channel": 3,
        "type": "channel",
        "subtype": "noteOff",
        "noteNumber": 74,
        "velocity": 93
      },
      {
        "deltaTime": 0,
        "channel": 3,
        "type": "channel",
        "noteNumber": 74,
        "velocity": 93,
        "subtype": "noteOn"
      },
      {
        "deltaTime": 320,
        "channel": 3,
        "type": "channel",
        "subtype": "noteOff",
        "noteNumber": 77,
        "velocity": 115
      },
      {
        "deltaTime": 400,
        "channel": 3,
        "type": "channel",
        "subtype": "noteOff",
        "noteNumber": 74,
        "velocity": 96
      },
      {
        "deltaTime": 270,
        "channel": 3,
        "type": "channel",
        "noteNumber": 74,
        "velocity": 86,
        "subtype": "noteOn"
      },
      {
        "deltaTime": 506,
        "channel": 3,
        "type": "channel",
        "subtype": "noteOff",
        "noteNumber": 74,
        "velocity": 86
      },
      {
        "deltaTime": 532,
        "channel": 3,
        "type": "channel",
        "noteNumber": 71,
        "velocity": 101,
        "subtype": "noteOn"
      },
      {
        "deltaTime": 14,
        "channel": 3,
        "type": "channel",
        "noteNumber": 69,
        "velocity": 95,
        "subtype": "noteOn"
      },
      {
        "deltaTime": 6,
        "channel": 3,
        "type": "channel",
        "noteNumber": 74,
        "velocity": 95,
        "subtype": "noteOn"
      },
      {
        "deltaTime": 656,
        "channel": 3,
        "type": "channel",
        "subtype": "noteOff",
        "noteNumber": 71,
        "velocity": 101
      },
      {
        "deltaTime": 20,
        "channel": 3,
        "type": "channel",
        "subtype": "noteOff",
        "noteNumber": 69,
        "velocity": 95
      },
      {
        "deltaTime": 0,
        "channel": 3,
        "type": "channel",
        "subtype": "noteOff",
        "noteNumber": 74,
        "velocity": 95
      },
      {
        "deltaTime": 214,
        "channel": 3,
        "type": "channel",
        "noteNumber": 71,
        "velocity": 97,
        "subtype": "noteOn"
      },
      {
        "deltaTime": 0,
        "channel": 3,
        "type": "channel",
        "noteNumber": 69,
        "velocity": 89,
        "subtype": "noteOn"
      },
      {
        "deltaTime": 10,
        "channel": 3,
        "type": "channel",
        "noteNumber": 74,
        "velocity": 88,
        "subtype": "noteOn"
      },
      {
        "deltaTime": 262,
        "channel": 3,
        "type": "channel",
        "subtype": "noteOff",
        "noteNumber": 71,
        "velocity": 97
      },
      {
        "deltaTime": 14,
        "channel": 3,
        "type": "channel",
        "subtype": "noteOff",
        "noteNumber": 74,
        "velocity": 88
      },
      {
        "deltaTime": 12,
        "channel": 3,
        "type": "channel",
        "subtype": "noteOff",
        "noteNumber": 69,
        "velocity": 89
      },
      {
        "deltaTime": 244,
        "channel": 3,
        "type": "channel",
        "noteNumber": 71,
        "velocity": 100,
        "subtype": "noteOn"
      },
      {
        "deltaTime": 0,
        "channel": 3,
        "type": "channel",
        "noteNumber": 69,
        "velocity": 93,
        "subtype": "noteOn"
      },
      {
        "deltaTime": 0,
        "channel": 3,
        "type": "channel",
        "noteNumber": 74,
        "velocity": 92,
        "subtype": "noteOn"
      },
      {
        "deltaTime": 688,
        "channel": 3,
        "type": "channel",
        "subtype": "noteOff",
        "noteNumber": 71,
        "velocity": 100
      },
      {
        "deltaTime": 14,
        "channel": 3,
        "type": "channel",
        "subtype": "noteOff",
        "noteNumber": 69,
        "velocity": 93
      },
      {
        "deltaTime": 16,
        "channel": 3,
        "type": "channel",
        "subtype": "noteOff",
        "noteNumber": 74,
        "velocity": 92
      },
      {
        "deltaTime": 310,
        "channel": 3,
        "type": "channel",
        "noteNumber": 69,
        "velocity": 100,
        "subtype": "noteOn"
      },
      {
        "deltaTime": 4,
        "channel": 3,
        "type": "channel",
        "noteNumber": 71,
        "velocity": 105,
        "subtype": "noteOn"
      },
      {
        "deltaTime": 0,
        "channel": 3,
        "type": "channel",
        "noteNumber": 74,
        "velocity": 98,
        "subtype": "noteOn"
      },
      {
        "deltaTime": 500,
        "channel": 3,
        "type": "channel",
        "subtype": "noteOff",
        "noteNumber": 71,
        "velocity": 105
      },
      {
        "deltaTime": 10,
        "channel": 3,
        "type": "channel",
        "subtype": "noteOff",
        "noteNumber": 69,
        "velocity": 100
      },
      {
        "deltaTime": 68,
        "channel": 3,
        "type": "channel",
        "subtype": "noteOff",
        "noteNumber": 74,
        "velocity": 98
      },
      {
        "deltaTime": 474,
        "channel": 3,
        "type": "channel",
        "noteNumber": 74,
        "velocity": 98,
        "subtype": "noteOn"
      },
      {
        "deltaTime": 6,
        "channel": 3,
        "type": "channel",
        "noteNumber": 68,
        "velocity": 103,
        "subtype": "noteOn"
      },
      {
        "deltaTime": 4,
        "channel": 3,
        "type": "channel",
        "noteNumber": 70,
        "velocity": 103,
        "subtype": "noteOn"
      },
      {
        "deltaTime": 1624,
        "channel": 3,
        "type": "channel",
        "subtype": "noteOff",
        "noteNumber": 70,
        "velocity": 103
      },
      {
        "deltaTime": 16,
        "channel": 3,
        "type": "channel",
        "subtype": "noteOff",
        "noteNumber": 68,
        "velocity": 103
      },
      {
        "deltaTime": 44,
        "channel": 3,
        "type": "channel",
        "subtype": "noteOff",
        "noteNumber": 74,
        "velocity": 98
      },
      {
        "deltaTime": 160,
        "channel": 3,
        "type": "channel",
        "noteNumber": 68,
        "velocity": 100,
        "subtype": "noteOn"
      },
      {
        "deltaTime": 0,
        "channel": 3,
        "type": "channel",
        "noteNumber": 74,
        "velocity": 94,
        "subtype": "noteOn"
      },
      {
        "deltaTime": 10,
        "channel": 3,
        "type": "channel",
        "noteNumber": 70,
        "velocity": 102,
        "subtype": "noteOn"
      },
      {
        "deltaTime": 850,
        "channel": 3,
        "type": "channel",
        "subtype": "noteOff",
        "noteNumber": 70,
        "velocity": 102
      },
      {
        "deltaTime": 10,
        "channel": 3,
        "type": "channel",
        "subtype": "noteOff",
        "noteNumber": 68,
        "velocity": 100
      },
      {
        "deltaTime": 26,
        "channel": 3,
        "type": "channel",
        "subtype": "noteOff",
        "noteNumber": 74,
        "velocity": 94
      },
      {
        "deltaTime": 204,
        "channel": 3,
        "type": "channel",
        "noteNumber": 68,
        "velocity": 96,
        "subtype": "noteOn"
      },
      {
        "deltaTime": 0,
        "channel": 3,
        "type": "channel",
        "noteNumber": 74,
        "velocity": 92,
        "subtype": "noteOn"
      },
      {
        "deltaTime": 10,
        "channel": 3,
        "type": "channel",
        "noteNumber": 70,
        "velocity": 101,
        "subtype": "noteOn"
      },
      {
        "deltaTime": 644,
        "channel": 3,
        "type": "channel",
        "subtype": "noteOff",
        "noteNumber": 70,
        "velocity": 101
      },
      {
        "deltaTime": 38,
        "channel": 3,
        "type": "channel",
        "subtype": "noteOff",
        "noteNumber": 68,
        "velocity": 96
      },
      {
        "deltaTime": 4,
        "channel": 3,
        "type": "channel",
        "subtype": "noteOff",
        "noteNumber": 74,
        "velocity": 92
      },
      {
        "deltaTime": 246,
        "channel": 3,
        "type": "channel",
        "noteNumber": 74,
        "velocity": 80,
        "subtype": "noteOn"
      },
      {
        "deltaTime": 10,
        "channel": 3,
        "type": "channel",
        "noteNumber": 70,
        "velocity": 97,
        "subtype": "noteOn"
      },
      {
        "deltaTime": 0,
        "channel": 3,
        "type": "channel",
        "noteNumber": 68,
        "velocity": 90,
        "subtype": "noteOn"
      },
      {
        "deltaTime": 234,
        "channel": 3,
        "type": "channel",
        "subtype": "noteOff",
        "noteNumber": 70,
        "velocity": 97
      },
      {
        "deltaTime": 26,
        "channel": 3,
        "type": "channel",
        "subtype": "noteOff",
        "noteNumber": 68,
        "velocity": 90
      },
      {
        "deltaTime": 6,
        "channel": 3,
        "type": "channel",
        "subtype": "noteOff",
        "noteNumber": 74,
        "velocity": 80
      },
      {
        "deltaTime": 260,
        "channel": 3,
        "type": "channel",
        "noteNumber": 67,
        "velocity": 96,
        "subtype": "noteOn"
      },
      {
        "deltaTime": 16,
        "channel": 3,
        "type": "channel",
        "noteNumber": 72,
        "velocity": 101,
        "subtype": "noteOn"
      },
      {
        "deltaTime": 10,
        "channel": 3,
        "type": "channel",
        "noteNumber": 74,
        "velocity": 95,
        "subtype": "noteOn"
      },
      {
        "deltaTime": 490,
        "channel": 3,
        "type": "channel",
        "subtype": "noteOff",
        "noteNumber": 72,
        "velocity": 101
      },
      {
        "deltaTime": 10,
        "channel": 3,
        "type": "channel",
        "subtype": "noteOff",
        "noteNumber": 74,
        "velocity": 95
      },
      {
        "deltaTime": 48,
        "channel": 3,
        "type": "channel",
        "subtype": "noteOff",
        "noteNumber": 67,
        "velocity": 96
      },
      {
        "deltaTime": 372,
        "channel": 3,
        "type": "channel",
        "noteNumber": 67,
        "velocity": 89,
        "subtype": "noteOn"
      },
      {
        "deltaTime": 12,
        "channel": 3,
        "type": "channel",
        "noteNumber": 72,
        "velocity": 96,
        "subtype": "noteOn"
      },
      {
        "deltaTime": 0,
        "channel": 3,
        "type": "channel",
        "noteNumber": 74,
        "velocity": 87,
        "subtype": "noteOn"
      },
      {
        "deltaTime": 328,
        "channel": 3,
        "type": "channel",
        "subtype": "noteOff",
        "noteNumber": 72,
        "velocity": 96
      },
      {
        "deltaTime": 22,
        "channel": 3,
        "type": "channel",
        "subtype": "noteOff",
        "noteNumber": 74,
        "velocity": 87
      },
      {
        "deltaTime": 6,
        "channel": 3,
        "type": "channel",
        "subtype": "noteOff",
        "noteNumber": 67,
        "velocity": 89
      },
      {
        "deltaTime": 170,
        "channel": 3,
        "type": "channel",
        "noteNumber": 67,
        "velocity": 96,
        "subtype": "noteOn"
      },
      {
        "deltaTime": 10,
        "channel": 3,
        "type": "channel",
        "noteNumber": 72,
        "velocity": 101,
        "subtype": "noteOn"
      },
      {
        "deltaTime": 0,
        "channel": 3,
        "type": "channel",
        "noteNumber": 74,
        "velocity": 93,
        "subtype": "noteOn"
      },
      {
        "deltaTime": 376,
        "channel": 3,
        "type": "channel",
        "subtype": "noteOff",
        "noteNumber": 72,
        "velocity": 101
      },
      {
        "deltaTime": 14,
        "channel": 3,
        "type": "channel",
        "subtype": "noteOff",
        "noteNumber": 67,
        "velocity": 96
      },
      {
        "deltaTime": 16,
        "channel": 3,
        "type": "channel",
        "subtype": "noteOff",
        "noteNumber": 74,
        "velocity": 93
      },
      {
        "deltaTime": 616,
        "channel": 3,
        "type": "channel",
        "noteNumber": 67,
        "velocity": 101,
        "subtype": "noteOn"
      },
      {
        "deltaTime": 10,
        "channel": 3,
        "type": "channel",
        "noteNumber": 72,
        "velocity": 106,
        "subtype": "noteOn"
      },
      {
        "deltaTime": 6,
        "channel": 3,
        "type": "channel",
        "noteNumber": 74,
        "velocity": 98,
        "subtype": "noteOn"
      },
      {
        "deltaTime": 282,
        "channel": 3,
        "type": "channel",
        "subtype": "noteOff",
        "noteNumber": 67,
        "velocity": 101
      },
      {
        "deltaTime": 0,
        "channel": 3,
        "type": "channel",
        "subtype": "noteOff",
        "noteNumber": 72,
        "velocity": 106
      },
      {
        "deltaTime": 24,
        "channel": 3,
        "type": "channel",
        "subtype": "noteOff",
        "noteNumber": 74,
        "velocity": 98
      },
      {
        "deltaTime": 678,
        "channel": 3,
        "type": "channel",
        "noteNumber": 66,
        "velocity": 97,
        "subtype": "noteOn"
      },
      {
        "deltaTime": 10,
        "channel": 3,
        "type": "channel",
        "noteNumber": 72,
        "velocity": 110,
        "subtype": "noteOn"
      },
      {
        "deltaTime": 0,
        "channel": 3,
        "type": "channel",
        "noteNumber": 74,
        "velocity": 94,
        "subtype": "noteOn"
      },
      {
        "deltaTime": 2202,
        "channel": 3,
        "type": "channel",
        "subtype": "noteOff",
        "noteNumber": 66,
        "velocity": 97
      },
      {
        "deltaTime": 22,
        "channel": 3,
        "type": "channel",
        "subtype": "noteOff",
        "noteNumber": 72,
        "velocity": 110
      },
      {
        "deltaTime": 422,
        "channel": 3,
        "type": "channel",
        "subtype": "noteOff",
        "noteNumber": 74,
        "velocity": 94
      },
      {
        "deltaTime": 302,
        "channel": 3,
        "type": "channel",
        "noteNumber": 74,
        "velocity": 95,
        "subtype": "noteOn"
      },
      {
        "deltaTime": 530,
        "channel": 3,
        "type": "channel",
        "subtype": "noteOff",
        "noteNumber": 74,
        "velocity": 95
      },
      {
        "deltaTime": 454,
        "channel": 3,
        "type": "channel",
        "noteNumber": 74,
        "velocity": 90,
        "subtype": "noteOn"
      },
      {
        "deltaTime": 250,
        "channel": 3,
        "type": "channel",
        "subtype": "noteOff",
        "noteNumber": 74,
        "velocity": 90
      },
      {
        "deltaTime": 308,
        "channel": 3,
        "type": "channel",
        "noteNumber": 74,
        "velocity": 92,
        "subtype": "noteOn"
      },
      {
        "deltaTime": 26,
        "channel": 3,
        "type": "channel",
        "noteNumber": 71,
        "velocity": 94,
        "subtype": "noteOn"
      },
      {
        "deltaTime": 26,
        "channel": 3,
        "type": "channel",
        "noteNumber": 69,
        "velocity": 96,
        "subtype": "noteOn"
      },
      {
        "deltaTime": 214,
        "channel": 3,
        "type": "channel",
        "subtype": "noteOff",
        "noteNumber": 69,
        "velocity": 96
      },
      {
        "deltaTime": 66,
        "channel": 3,
        "type": "channel",
        "subtype": "noteOff",
        "noteNumber": 71,
        "velocity": 94
      },
      {
        "deltaTime": 32,
        "channel": 3,
        "type": "channel",
        "subtype": "noteOff",
        "noteNumber": 74,
        "velocity": 92
      },
      {
        "deltaTime": 578,
        "channel": 3,
        "type": "channel",
        "noteNumber": 71,
        "velocity": 95,
        "subtype": "noteOn"
      },
      {
        "deltaTime": 10,
        "channel": 3,
        "type": "channel",
        "noteNumber": 69,
        "velocity": 87,
        "subtype": "noteOn"
      },
      {
        "deltaTime": 6,
        "channel": 3,
        "type": "channel",
        "noteNumber": 74,
        "velocity": 88,
        "subtype": "noteOn"
      },
      {
        "deltaTime": 298,
        "channel": 3,
        "type": "channel",
        "subtype": "noteOff",
        "noteNumber": 74,
        "velocity": 88
      },
      {
        "deltaTime": 4,
        "channel": 3,
        "type": "channel",
        "subtype": "noteOff",
        "noteNumber": 71,
        "velocity": 95
      },
      {
        "deltaTime": 10,
        "channel": 3,
        "type": "channel",
        "subtype": "noteOff",
        "noteNumber": 69,
        "velocity": 87
      },
      {
        "deltaTime": 214,
        "channel": 3,
        "type": "channel",
        "noteNumber": 71,
        "velocity": 98,
        "subtype": "noteOn"
      },
      {
        "deltaTime": 0,
        "channel": 3,
        "type": "channel",
        "noteNumber": 69,
        "velocity": 93,
        "subtype": "noteOn"
      },
      {
        "deltaTime": 12,
        "channel": 3,
        "type": "channel",
        "noteNumber": 74,
        "velocity": 94,
        "subtype": "noteOn"
      },
      {
        "deltaTime": 452,
        "channel": 3,
        "type": "channel",
        "subtype": "noteOff",
        "noteNumber": 71,
        "velocity": 98
      },
      {
        "deltaTime": 20,
        "channel": 3,
        "type": "channel",
        "subtype": "noteOff",
        "noteNumber": 69,
        "velocity": 93
      },
      {
        "deltaTime": 10,
        "channel": 3,
        "type": "channel",
        "subtype": "noteOff",
        "noteNumber": 74,
        "velocity": 94
      },
      {
        "deltaTime": 538,
        "channel": 3,
        "type": "channel",
        "noteNumber": 69,
        "velocity": 95,
        "subtype": "noteOn"
      },
      {
        "deltaTime": 4,
        "channel": 3,
        "type": "channel",
        "noteNumber": 74,
        "velocity": 94,
        "subtype": "noteOn"
      },
      {
        "deltaTime": 6,
        "channel": 3,
        "type": "channel",
        "noteNumber": 71,
        "velocity": 100,
        "subtype": "noteOn"
      },
      {
        "deltaTime": 384,
        "channel": 3,
        "type": "channel",
        "subtype": "noteOff",
        "noteNumber": 71,
        "velocity": 100
      },
      {
        "deltaTime": 32,
        "channel": 3,
        "type": "channel",
        "subtype": "noteOff",
        "noteNumber": 69,
        "velocity": 95
      },
      {
        "deltaTime": 54,
        "channel": 3,
        "type": "channel",
        "subtype": "noteOff",
        "noteNumber": 74,
        "velocity": 94
      },
      {
        "deltaTime": 546,
        "channel": 3,
        "type": "channel",
        "noteNumber": 74,
        "velocity": 97,
        "subtype": "noteOn"
      },
      {
        "deltaTime": 6,
        "channel": 3,
        "type": "channel",
        "noteNumber": 68,
        "velocity": 102,
        "subtype": "noteOn"
      },
      {
        "deltaTime": 4,
        "channel": 3,
        "type": "channel",
        "noteNumber": 70,
        "velocity": 101,
        "subtype": "noteOn"
      },
      {
        "deltaTime": 1496,
        "channel": 3,
        "type": "channel",
        "subtype": "noteOff",
        "noteNumber": 70,
        "velocity": 101
      },
      {
        "deltaTime": 14,
        "channel": 3,
        "type": "channel",
        "subtype": "noteOff",
        "noteNumber": 68,
        "velocity": 102
      },
      {
        "deltaTime": 32,
        "channel": 3,
        "type": "channel",
        "subtype": "noteOff",
        "noteNumber": 74,
        "velocity": 97
      },
      {
        "deltaTime": 284,
        "channel": 3,
        "type": "channel",
        "noteNumber": 74,
        "velocity": 90,
        "subtype": "noteOn"
      },
      {
        "deltaTime": 10,
        "channel": 3,
        "type": "channel",
        "noteNumber": 68,
        "velocity": 96,
        "subtype": "noteOn"
      },
      {
        "deltaTime": 12,
        "channel": 3,
        "type": "channel",
        "noteNumber": 70,
        "velocity": 101,
        "subtype": "noteOn"
      },
      {
        "deltaTime": 648,
        "channel": 3,
        "type": "channel",
        "subtype": "noteOff",
        "noteNumber": 70,
        "velocity": 101
      },
      {
        "deltaTime": 24,
        "channel": 3,
        "type": "channel",
        "subtype": "noteOff",
        "noteNumber": 68,
        "velocity": 96
      },
      {
        "deltaTime": 26,
        "channel": 3,
        "type": "channel",
        "subtype": "noteOff",
        "noteNumber": 74,
        "velocity": 90
      },
      {
        "deltaTime": 390,
        "channel": 3,
        "type": "channel",
        "noteNumber": 68,
        "velocity": 100,
        "subtype": "noteOn"
      },
      {
        "deltaTime": 18,
        "channel": 3,
        "type": "channel",
        "noteNumber": 70,
        "velocity": 105,
        "subtype": "noteOn"
      },
      {
        "deltaTime": 4,
        "channel": 3,
        "type": "channel",
        "noteNumber": 74,
        "velocity": 94,
        "subtype": "noteOn"
      },
      {
        "deltaTime": 438,
        "channel": 3,
        "type": "channel",
        "subtype": "noteOff",
        "noteNumber": 70,
        "velocity": 105
      },
      {
        "deltaTime": 36,
        "channel": 3,
        "type": "channel",
        "subtype": "noteOff",
        "noteNumber": 68,
        "velocity": 100
      },
      {
        "deltaTime": 4,
        "channel": 3,
        "type": "channel",
        "subtype": "noteOff",
        "noteNumber": 74,
        "velocity": 94
      },
      {
        "deltaTime": 474,
        "channel": 3,
        "type": "channel",
        "noteNumber": 68,
        "velocity": 92,
        "subtype": "noteOn"
      },
      {
        "deltaTime": 16,
        "channel": 3,
        "type": "channel",
        "noteNumber": 70,
        "velocity": 94,
        "subtype": "noteOn"
      },
      {
        "deltaTime": 0,
        "channel": 3,
        "type": "channel",
        "noteNumber": 74,
        "velocity": 87,
        "subtype": "noteOn"
      },
      {
        "deltaTime": 214,
        "channel": 3,
        "type": "channel",
        "subtype": "noteOff",
        "noteNumber": 70,
        "velocity": 94
      },
      {
        "deltaTime": 10,
        "channel": 3,
        "type": "channel",
        "subtype": "noteOff",
        "noteNumber": 74,
        "velocity": 87
      },
      {
        "deltaTime": 22,
        "channel": 3,
        "type": "channel",
        "subtype": "noteOff",
        "noteNumber": 68,
        "velocity": 92
      },
      {
        "deltaTime": 244,
        "channel": 3,
        "type": "channel",
        "noteNumber": 74,
        "velocity": 88,
        "subtype": "noteOn"
      },
      {
        "deltaTime": 28,
        "channel": 3,
        "type": "channel",
        "noteNumber": 72,
        "velocity": 105,
        "subtype": "noteOn"
      },
      {
        "deltaTime": 0,
        "channel": 3,
        "type": "channel",
        "noteNumber": 67,
        "velocity": 101,
        "subtype": "noteOn"
      },
      {
        "deltaTime": 446,
        "channel": 3,
        "type": "channel",
        "subtype": "noteOff",
        "noteNumber": 72,
        "velocity": 105
      },
      {
        "deltaTime": 36,
        "channel": 3,
        "type": "channel",
        "subtype": "noteOff",
        "noteNumber": 74,
        "velocity": 88
      },
      {
        "deltaTime": 6,
        "channel": 3,
        "type": "channel",
        "subtype": "noteOff",
        "noteNumber": 67,
        "velocity": 101
      },
      {
        "deltaTime": 464,
        "channel": 3,
        "type": "channel",
        "noteNumber": 67,
        "velocity": 87,
        "subtype": "noteOn"
      },
      {
        "deltaTime": 10,
        "channel": 3,
        "type": "channel",
        "noteNumber": 72,
        "velocity": 95,
        "subtype": "noteOn"
      },
      {
        "deltaTime": 0,
        "channel": 3,
        "type": "channel",
        "noteNumber": 74,
        "velocity": 88,
        "subtype": "noteOn"
      },
      {
        "deltaTime": 218,
        "channel": 3,
        "type": "channel",
        "subtype": "noteOff",
        "noteNumber": 72,
        "velocity": 95
      },
      {
        "deltaTime": 22,
        "channel": 3,
        "type": "channel",
        "subtype": "noteOff",
        "noteNumber": 74,
        "velocity": 88
      },
      {
        "deltaTime": 10,
        "channel": 3,
        "type": "channel",
        "subtype": "noteOff",
        "noteNumber": 67,
        "velocity": 87
      },
      {
        "deltaTime": 266,
        "channel": 3,
        "type": "channel",
        "noteNumber": 67,
        "velocity": 96,
        "subtype": "noteOn"
      },
      {
        "deltaTime": 10,
        "channel": 3,
        "type": "channel",
        "noteNumber": 72,
        "velocity": 103,
        "subtype": "noteOn"
      },
      {
        "deltaTime": 0,
        "channel": 3,
        "type": "channel",
        "noteNumber": 74,
        "velocity": 96,
        "subtype": "noteOn"
      },
      {
        "deltaTime": 390,
        "channel": 3,
        "type": "channel",
        "subtype": "noteOff",
        "noteNumber": 72,
        "velocity": 103
      },
      {
        "deltaTime": 32,
        "channel": 3,
        "type": "channel",
        "subtype": "noteOff",
        "noteNumber": 74,
        "velocity": 96
      },
      {
        "deltaTime": 24,
        "channel": 3,
        "type": "channel",
        "subtype": "noteOff",
        "noteNumber": 67,
        "velocity": 96
      },
      {
        "deltaTime": 586,
        "channel": 3,
        "type": "channel",
        "noteNumber": 72,
        "velocity": 106,
        "subtype": "noteOn"
      },
      {
        "deltaTime": 0,
        "channel": 3,
        "type": "channel",
        "noteNumber": 67,
        "velocity": 100,
        "subtype": "noteOn"
      },
      {
        "deltaTime": 4,
        "channel": 3,
        "type": "channel",
        "noteNumber": 74,
        "velocity": 100,
        "subtype": "noteOn"
      },
      {
        "deltaTime": 464,
        "channel": 3,
        "type": "channel",
        "subtype": "noteOff",
        "noteNumber": 72,
        "velocity": 106
      },
      {
        "deltaTime": 16,
        "channel": 3,
        "type": "channel",
        "subtype": "noteOff",
        "noteNumber": 74,
        "velocity": 100
      },
      {
        "deltaTime": 26,
        "channel": 3,
        "type": "channel",
        "subtype": "noteOff",
        "noteNumber": 67,
        "velocity": 100
      },
      {
        "deltaTime": 510,
        "channel": 3,
        "type": "channel",
        "noteNumber": 74,
        "velocity": 81,
        "subtype": "noteOn"
      },
      {
        "deltaTime": 26,
        "channel": 3,
        "type": "channel",
        "noteNumber": 72,
        "velocity": 94,
        "subtype": "noteOn"
      },
      {
        "deltaTime": 56,
        "channel": 3,
        "type": "channel",
        "noteNumber": 66,
        "velocity": 98,
        "subtype": "noteOn"
      },
      {
        "deltaTime": 2214,
        "channel": 3,
        "type": "channel",
        "subtype": "noteOff",
        "noteNumber": 72,
        "velocity": 94
      },
      {
        "deltaTime": 36,
        "channel": 3,
        "type": "channel",
        "subtype": "noteOff",
        "noteNumber": 66,
        "velocity": 98
      },
      {
        "deltaTime": 168,
        "channel": 3,
        "type": "channel",
        "subtype": "noteOff",
        "noteNumber": 74,
        "velocity": 81
      },
      {
        "deltaTime": 432,
        "channel": 3,
        "type": "channel",
        "noteNumber": 79,
        "velocity": 95,
        "subtype": "noteOn"
      },
      {
        "deltaTime": 750,
        "channel": 3,
        "type": "channel",
        "subtype": "noteOff",
        "noteNumber": 79,
        "velocity": 95
      },
      {
        "deltaTime": 250,
        "channel": 3,
        "type": "channel",
        "noteNumber": 79,
        "velocity": 85,
        "subtype": "noteOn"
      },
      {
        "deltaTime": 350,
        "channel": 3,
        "type": "channel",
        "subtype": "noteOff",
        "noteNumber": 79,
        "velocity": 85
      },
      {
        "deltaTime": 234,
        "channel": 3,
        "type": "channel",
        "noteNumber": 79,
        "velocity": 94,
        "subtype": "noteOn"
      },
      {
        "deltaTime": 0,
        "channel": 3,
        "type": "channel",
        "noteNumber": 72,
        "velocity": 93,
        "subtype": "noteOn"
      },
      {
        "deltaTime": 6,
        "channel": 3,
        "type": "channel",
        "noteNumber": 77,
        "velocity": 100,
        "subtype": "noteOn"
      },
      {
        "deltaTime": 458,
        "channel": 3,
        "type": "channel",
        "subtype": "noteOff",
        "noteNumber": 79,
        "velocity": 94
      },
      {
        "deltaTime": 0,
        "channel": 3,
        "type": "channel",
        "subtype": "noteOff",
        "noteNumber": 77,
        "velocity": 100
      },
      {
        "deltaTime": 32,
        "channel": 3,
        "type": "channel",
        "subtype": "noteOff",
        "noteNumber": 72,
        "velocity": 93
      },
      {
        "deltaTime": 394,
        "channel": 3,
        "type": "channel",
        "noteNumber": 72,
        "velocity": 93,
        "subtype": "noteOn"
      },
      {
        "deltaTime": 16,
        "channel": 3,
        "type": "channel",
        "noteNumber": 77,
        "velocity": 101,
        "subtype": "noteOn"
      },
      {
        "deltaTime": 0,
        "channel": 3,
        "type": "channel",
        "noteNumber": 79,
        "velocity": 94,
        "subtype": "noteOn"
      },
      {
        "deltaTime": 228,
        "channel": 3,
        "type": "channel",
        "subtype": "noteOff",
        "noteNumber": 77,
        "velocity": 101
      },
      {
        "deltaTime": 12,
        "channel": 3,
        "type": "channel",
        "subtype": "noteOff",
        "noteNumber": 79,
        "velocity": 94
      },
      {
        "deltaTime": 14,
        "channel": 3,
        "type": "channel",
        "subtype": "noteOff",
        "noteNumber": 72,
        "velocity": 93
      },
      {
        "deltaTime": 246,
        "channel": 3,
        "type": "channel",
        "noteNumber": 77,
        "velocity": 101,
        "subtype": "noteOn"
      },
      {
        "deltaTime": 0,
        "channel": 3,
        "type": "channel",
        "noteNumber": 72,
        "velocity": 96,
        "subtype": "noteOn"
      },
      {
        "deltaTime": 0,
        "channel": 3,
        "type": "channel",
        "noteNumber": 79,
        "velocity": 95,
        "subtype": "noteOn"
      },
      {
        "deltaTime": 426,
        "channel": 3,
        "type": "channel",
        "subtype": "noteOff",
        "noteNumber": 77,
        "velocity": 101
      },
      {
        "deltaTime": 12,
        "channel": 3,
        "type": "channel",
        "subtype": "noteOff",
        "noteNumber": 72,
        "velocity": 96
      },
      {
        "deltaTime": 14,
        "channel": 3,
        "type": "channel",
        "subtype": "noteOff",
        "noteNumber": 79,
        "velocity": 95
      },
      {
        "deltaTime": 578,
        "channel": 3,
        "type": "channel",
        "noteNumber": 72,
        "velocity": 96,
        "subtype": "noteOn"
      },
      {
        "deltaTime": 8,
        "channel": 3,
        "type": "channel",
        "noteNumber": 77,
        "velocity": 103,
        "subtype": "noteOn"
      },
      {
        "deltaTime": 4,
        "channel": 3,
        "type": "channel",
        "noteNumber": 79,
        "velocity": 97,
        "subtype": "noteOn"
      },
      {
        "deltaTime": 344,
        "channel": 3,
        "type": "channel",
        "subtype": "noteOff",
        "noteNumber": 72,
        "velocity": 96
      },
      {
        "deltaTime": 10,
        "channel": 3,
        "type": "channel",
        "subtype": "noteOff",
        "noteNumber": 79,
        "velocity": 97
      },
      {
        "deltaTime": 10,
        "channel": 3,
        "type": "channel",
        "subtype": "noteOff",
        "noteNumber": 77,
        "velocity": 103
      },
      {
        "deltaTime": 642,
        "channel": 3,
        "type": "channel",
        "noteNumber": 77,
        "velocity": 101,
        "subtype": "noteOn"
      },
      {
        "deltaTime": 0,
        "channel": 3,
        "type": "channel",
        "noteNumber": 71,
        "velocity": 103,
        "subtype": "noteOn"
      },
      {
        "deltaTime": 0,
        "channel": 3,
        "type": "channel",
        "noteNumber": 79,
        "velocity": 93,
        "subtype": "noteOn"
      },
      {
        "deltaTime": 1722,
        "channel": 3,
        "type": "channel",
        "subtype": "noteOff",
        "noteNumber": 77,
        "velocity": 101
      },
      {
        "deltaTime": 6,
        "channel": 3,
        "type": "channel",
        "subtype": "noteOff",
        "noteNumber": 71,
        "velocity": 103
      },
      {
        "deltaTime": 22,
        "channel": 3,
        "type": "channel",
        "subtype": "noteOff",
        "noteNumber": 79,
        "velocity": 93
      },
      {
        "deltaTime": 222,
        "channel": 3,
        "type": "channel",
        "noteNumber": 71,
        "velocity": 106,
        "subtype": "noteOn"
      },
      {
        "deltaTime": 6,
        "channel": 3,
        "type": "channel",
        "noteNumber": 79,
        "velocity": 98,
        "subtype": "noteOn"
      },
      {
        "deltaTime": 12,
        "channel": 3,
        "type": "channel",
        "noteNumber": 77,
        "velocity": 108,
        "subtype": "noteOn"
      },
      {
        "deltaTime": 806,
        "channel": 3,
        "type": "channel",
        "subtype": "noteOff",
        "noteNumber": 77,
        "velocity": 108
      },
      {
        "deltaTime": 16,
        "channel": 3,
        "type": "channel",
        "subtype": "noteOff",
        "noteNumber": 71,
        "velocity": 106
      },
      {
        "deltaTime": 14,
        "channel": 3,
        "type": "channel",
        "subtype": "noteOff",
        "noteNumber": 79,
        "velocity": 98
      },
      {
        "deltaTime": 156,
        "channel": 3,
        "type": "channel",
        "noteNumber": 71,
        "velocity": 100,
        "subtype": "noteOn"
      },
      {
        "deltaTime": 22,
        "channel": 3,
        "type": "channel",
        "noteNumber": 77,
        "velocity": 98,
        "subtype": "noteOn"
      },
      {
        "deltaTime": 0,
        "channel": 3,
        "type": "channel",
        "noteNumber": 79,
        "velocity": 93,
        "subtype": "noteOn"
      },
      {
        "deltaTime": 636,
        "channel": 3,
        "type": "channel",
        "subtype": "noteOff",
        "noteNumber": 77,
        "velocity": 98
      },
      {
        "deltaTime": 24,
        "channel": 3,
        "type": "channel",
        "subtype": "noteOff",
        "noteNumber": 79,
        "velocity": 93
      },
      {
        "deltaTime": 10,
        "channel": 3,
        "type": "channel",
        "subtype": "noteOff",
        "noteNumber": 71,
        "velocity": 100
      },
      {
        "deltaTime": 278,
        "channel": 3,
        "type": "channel",
        "noteNumber": 71,
        "velocity": 94,
        "subtype": "noteOn"
      },
      {
        "deltaTime": 26,
        "channel": 3,
        "type": "channel",
        "noteNumber": 79,
        "velocity": 93,
        "subtype": "noteOn"
      },
      {
        "deltaTime": 16,
        "channel": 3,
        "type": "channel",
        "noteNumber": 77,
        "velocity": 96,
        "subtype": "noteOn"
      },
      {
        "deltaTime": 260,
        "channel": 3,
        "type": "channel",
        "subtype": "noteOff",
        "noteNumber": 77,
        "velocity": 96
      },
      {
        "deltaTime": 32,
        "channel": 3,
        "type": "channel",
        "subtype": "noteOff",
        "noteNumber": 71,
        "velocity": 94
      },
      {
        "deltaTime": 20,
        "channel": 3,
        "type": "channel",
        "subtype": "noteOff",
        "noteNumber": 79,
        "velocity": 93
      },
      {
        "deltaTime": 250,
        "channel": 3,
        "type": "channel",
        "noteNumber": 71,
        "velocity": 103,
        "subtype": "noteOn"
      },
      {
        "deltaTime": 0,
        "channel": 3,
        "type": "channel",
        "noteNumber": 76,
        "velocity": 105,
        "subtype": "noteOn"
      },
      {
        "deltaTime": 10,
        "channel": 3,
        "type": "channel",
        "noteNumber": 79,
        "velocity": 95,
        "subtype": "noteOn"
      },
      {
        "deltaTime": 496,
        "channel": 3,
        "type": "channel",
        "subtype": "noteOff",
        "noteNumber": 71,
        "velocity": 103
      },
      {
        "deltaTime": 4,
        "channel": 3,
        "type": "channel",
        "subtype": "noteOff",
        "noteNumber": 76,
        "velocity": 105
      },
      {
        "deltaTime": 22,
        "channel": 3,
        "type": "channel",
        "subtype": "noteOff",
        "noteNumber": 79,
        "velocity": 95
      },
      {
        "deltaTime": 358,
        "channel": 3,
        "type": "channel",
        "noteNumber": 71,
        "velocity": 97,
        "subtype": "noteOn"
      },
      {
        "deltaTime": 26,
        "channel": 3,
        "type": "channel",
        "noteNumber": 76,
        "velocity": 100,
        "subtype": "noteOn"
      },
      {
        "deltaTime": 6,
        "channel": 3,
        "type": "channel",
        "noteNumber": 79,
        "velocity": 96,
        "subtype": "noteOn"
      },
      {
        "deltaTime": 286,
        "channel": 3,
        "type": "channel",
        "subtype": "noteOff",
        "noteNumber": 76,
        "velocity": 100
      },
      {
        "deltaTime": 6,
        "channel": 3,
        "type": "channel",
        "subtype": "noteOff",
        "noteNumber": 79,
        "velocity": 96
      },
      {
        "deltaTime": 16,
        "channel": 3,
        "type": "channel",
        "subtype": "noteOff",
        "noteNumber": 71,
        "velocity": 97
      },
      {
        "deltaTime": 208,
        "channel": 3,
        "type": "channel",
        "noteNumber": 71,
        "velocity": 96,
        "subtype": "noteOn"
      },
      {
        "deltaTime": 16,
        "channel": 3,
        "type": "channel",
        "noteNumber": 76,
        "velocity": 101,
        "subtype": "noteOn"
      },
      {
        "deltaTime": 4,
        "channel": 3,
        "type": "channel",
        "noteNumber": 79,
        "velocity": 94,
        "subtype": "noteOn"
      },
      {
        "deltaTime": 400,
        "channel": 3,
        "type": "channel",
        "subtype": "noteOff",
        "noteNumber": 76,
        "velocity": 101
      },
      {
        "deltaTime": 48,
        "channel": 3,
        "type": "channel",
        "subtype": "noteOff",
        "noteNumber": 79,
        "velocity": 94
      },
      {
        "deltaTime": 6,
        "channel": 3,
        "type": "channel",
        "subtype": "noteOff",
        "noteNumber": 71,
        "velocity": 96
      },
      {
        "deltaTime": 500,
        "channel": 3,
        "type": "channel",
        "noteNumber": 71,
        "velocity": 96,
        "subtype": "noteOn"
      },
      {
        "deltaTime": 4,
        "channel": 3,
        "type": "channel",
        "noteNumber": 76,
        "velocity": 102,
        "subtype": "noteOn"
      },
      {
        "deltaTime": 18,
        "channel": 3,
        "type": "channel",
        "noteNumber": 79,
        "velocity": 96,
        "subtype": "noteOn"
      },
      {
        "deltaTime": 534,
        "channel": 3,
        "type": "channel",
        "subtype": "noteOff",
        "noteNumber": 76,
        "velocity": 102
      },
      {
        "deltaTime": 12,
        "channel": 3,
        "type": "channel",
        "subtype": "noteOff",
        "noteNumber": 71,
        "velocity": 96
      },
      {
        "deltaTime": 92,
        "channel": 3,
        "type": "channel",
        "subtype": "noteOff",
        "noteNumber": 79,
        "velocity": 96
      },
      {
        "deltaTime": 386,
        "channel": 3,
        "type": "channel",
        "noteNumber": 75,
        "velocity": 102,
        "subtype": "noteOn"
      },
      {
        "deltaTime": 10,
        "channel": 3,
        "type": "channel",
        "noteNumber": 70,
        "velocity": 101,
        "subtype": "noteOn"
      },
      {
        "deltaTime": 12,
        "channel": 3,
        "type": "channel",
        "noteNumber": 79,
        "velocity": 97,
        "subtype": "noteOn"
      },
      {
        "deltaTime": 2228,
        "channel": 3,
        "type": "channel",
        "subtype": "noteOff",
        "noteNumber": 75,
        "velocity": 102
      },
      {
        "deltaTime": 52,
        "channel": 3,
        "type": "channel",
        "subtype": "noteOff",
        "noteNumber": 70,
        "velocity": 101
      },
      {
        "deltaTime": 0,
        "channel": 3,
        "type": "channel",
        "subtype": "noteOff",
        "noteNumber": 79,
        "velocity": 97
      },
      {
        "deltaTime": 2204,
        "channel": 3,
        "type": "channel",
        "noteNumber": 76,
        "velocity": 106,
        "subtype": "noteOn"
      },
      {
        "deltaTime": 0,
        "channel": 3,
        "type": "channel",
        "noteNumber": 74,
        "velocity": 101,
        "subtype": "noteOn"
      },
      {
        "deltaTime": 4,
        "channel": 3,
        "type": "channel",
        "noteNumber": 79,
        "velocity": 103,
        "subtype": "noteOn"
      },
      {
        "deltaTime": 268,
        "channel": 3,
        "type": "channel",
        "subtype": "noteOff",
        "noteNumber": 76,
        "velocity": 106
      },
      {
        "deltaTime": 4,
        "channel": 3,
        "type": "channel",
        "subtype": "noteOff",
        "noteNumber": 79,
        "velocity": 103
      },
      {
        "deltaTime": 20,
        "channel": 3,
        "type": "channel",
        "subtype": "noteOff",
        "noteNumber": 74,
        "velocity": 101
      },
      {
        "deltaTime": 704,
        "channel": 3,
        "type": "channel",
        "noteNumber": 76,
        "velocity": 103,
        "subtype": "noteOn"
      },
      {
        "deltaTime": 0,
        "channel": 3,
        "type": "channel",
        "noteNumber": 74,
        "velocity": 98,
        "subtype": "noteOn"
      },
      {
        "deltaTime": 4,
        "channel": 3,
        "type": "channel",
        "noteNumber": 79,
        "velocity": 102,
        "subtype": "noteOn"
      },
      {
        "deltaTime": 194,
        "channel": 3,
        "type": "channel",
        "subtype": "noteOff",
        "noteNumber": 76,
        "velocity": 103
      },
      {
        "deltaTime": 10,
        "channel": 3,
        "type": "channel",
        "subtype": "noteOff",
        "noteNumber": 79,
        "velocity": 102
      },
      {
        "deltaTime": 4,
        "channel": 3,
        "type": "channel",
        "subtype": "noteOff",
        "noteNumber": 74,
        "velocity": 98
      },
      {
        "deltaTime": 246,
        "channel": 3,
        "type": "channel",
        "noteNumber": 74,
        "velocity": 101,
        "subtype": "noteOn"
      },
      {
        "deltaTime": 4,
        "channel": 3,
        "type": "channel",
        "noteNumber": 76,
        "velocity": 106,
        "subtype": "noteOn"
      },
      {
        "deltaTime": 28,
        "channel": 3,
        "type": "channel",
        "noteNumber": 79,
        "velocity": 103,
        "subtype": "noteOn"
      },
      {
        "deltaTime": 212,
        "channel": 3,
        "type": "channel",
        "subtype": "noteOff",
        "noteNumber": 76,
        "velocity": 106
      },
      {
        "deltaTime": 18,
        "channel": 3,
        "type": "channel",
        "subtype": "noteOff",
        "noteNumber": 79,
        "velocity": 103
      },
      {
        "deltaTime": 10,
        "channel": 3,
        "type": "channel",
        "subtype": "noteOff",
        "noteNumber": 74,
        "velocity": 101
      },
      {
        "deltaTime": 740,
        "channel": 3,
        "type": "channel",
        "noteNumber": 74,
        "velocity": 101,
        "subtype": "noteOn"
      },
      {
        "deltaTime": 4,
        "channel": 3,
        "type": "channel",
        "noteNumber": 76,
        "velocity": 113,
        "subtype": "noteOn"
      },
      {
        "deltaTime": 10,
        "channel": 3,
        "type": "channel",
        "noteNumber": 79,
        "velocity": 108,
        "subtype": "noteOn"
      },
      {
        "deltaTime": 246,
        "channel": 3,
        "type": "channel",
        "subtype": "noteOff",
        "noteNumber": 76,
        "velocity": 113
      },
      {
        "deltaTime": 4,
        "channel": 3,
        "type": "channel",
        "subtype": "noteOff",
        "noteNumber": 74,
        "velocity": 101
      },
      {
        "deltaTime": 6,
        "channel": 3,
        "type": "channel",
        "subtype": "noteOff",
        "noteNumber": 79,
        "velocity": 108
      },
      {
        "deltaTime": 712,
        "channel": 3,
        "type": "channel",
        "noteNumber": 75,
        "velocity": 97,
        "subtype": "noteOn"
      },
      {
        "deltaTime": 10,
        "channel": 3,
        "type": "channel",
        "noteNumber": 79,
        "velocity": 89,
        "subtype": "noteOn"
      },
      {
        "deltaTime": 28,
        "channel": 3,
        "type": "channel",
        "noteNumber": 73,
        "velocity": 98,
        "subtype": "noteOn"
      },
      {
        "deltaTime": 286,
        "channel": 3,
        "type": "channel",
        "subtype": "noteOff",
        "noteNumber": 73,
        "velocity": 98
      },
      {
        "deltaTime": 20,
        "channel": 3,
        "type": "channel",
        "subtype": "noteOff",
        "noteNumber": 75,
        "velocity": 97
      },
      {
        "deltaTime": 26,
        "channel": 3,
        "type": "channel",
        "subtype": "noteOff",
        "noteNumber": 79,
        "velocity": 89
      },
      {
        "deltaTime": 640,
        "channel": 3,
        "type": "channel",
        "noteNumber": 75,
        "velocity": 103,
        "subtype": "noteOn"
      },
      {
        "deltaTime": 0,
        "channel": 3,
        "type": "channel",
        "noteNumber": 79,
        "velocity": 96,
        "subtype": "noteOn"
      },
      {
        "deltaTime": 8,
        "channel": 3,
        "type": "channel",
        "noteNumber": 73,
        "velocity": 102,
        "subtype": "noteOn"
      },
      {
        "deltaTime": 290,
        "channel": 3,
        "type": "channel",
        "subtype": "noteOff",
        "noteNumber": 75,
        "velocity": 103
      },
      {
        "deltaTime": 12,
        "channel": 3,
        "type": "channel",
        "subtype": "noteOff",
        "noteNumber": 79,
        "velocity": 96
      },
      {
        "deltaTime": 4,
        "channel": 3,
        "type": "channel",
        "subtype": "noteOff",
        "noteNumber": 73,
        "velocity": 102
      },
      {
        "deltaTime": 634,
        "channel": 3,
        "type": "channel",
        "noteNumber": 75,
        "velocity": 100,
        "subtype": "noteOn"
      },
      {
        "deltaTime": 0,
        "channel": 3,
        "type": "channel",
        "noteNumber": 73,
        "velocity": 98,
        "subtype": "noteOn"
      },
      {
        "deltaTime": 6,
        "channel": 3,
        "type": "channel",
        "noteNumber": 79,
        "velocity": 94,
        "subtype": "noteOn"
      },
      {
        "deltaTime": 228,
        "channel": 3,
        "type": "channel",
        "subtype": "noteOff",
        "noteNumber": 75,
        "velocity": 100
      },
      {
        "deltaTime": 10,
        "channel": 3,
        "type": "channel",
        "subtype": "noteOff",
        "noteNumber": 79,
        "velocity": 94
      },
      {
        "deltaTime": 6,
        "channel": 3,
        "type": "channel",
        "subtype": "noteOff",
        "noteNumber": 73,
        "velocity": 98
      },
      {
        "deltaTime": 214,
        "channel": 3,
        "type": "channel",
        "noteNumber": 73,
        "velocity": 88,
        "subtype": "noteOn"
      },
      {
        "deltaTime": 16,
        "channel": 3,
        "type": "channel",
        "noteNumber": 75,
        "velocity": 94,
        "subtype": "noteOn"
      },
      {
        "deltaTime": 0,
        "channel": 3,
        "type": "channel",
        "noteNumber": 79,
        "velocity": 86,
        "subtype": "noteOn"
      },
      {
        "deltaTime": 250,
        "channel": 3,
        "type": "channel",
        "subtype": "noteOff",
        "noteNumber": 75,
        "velocity": 94
      },
      {
        "deltaTime": 14,
        "channel": 3,
        "type": "channel",
        "subtype": "noteOff",
        "noteNumber": 79,
        "velocity": 86
      },
      {
        "deltaTime": 22,
        "channel": 3,
        "type": "channel",
        "subtype": "noteOff",
        "noteNumber": 73,
        "velocity": 88
      },
      {
        "deltaTime": 656,
        "channel": 3,
        "type": "channel",
        "noteNumber": 79,
        "velocity": 96,
        "subtype": "noteOn"
      },
      {
        "deltaTime": 6,
        "channel": 3,
        "type": "channel",
        "noteNumber": 72,
        "velocity": 101,
        "subtype": "noteOn"
      },
      {
        "deltaTime": 10,
        "channel": 3,
        "type": "channel",
        "noteNumber": 74,
        "velocity": 102,
        "subtype": "noteOn"
      },
      {
        "deltaTime": 642,
        "channel": 3,
        "type": "channel",
        "subtype": "noteOff",
        "noteNumber": 74,
        "velocity": 102
      },
      {
        "deltaTime": 14,
        "channel": 3,
        "type": "channel",
        "subtype": "noteOff",
        "noteNumber": 72,
        "velocity": 101
      },
      {
        "deltaTime": 52,
        "channel": 3,
        "type": "channel",
        "subtype": "noteOff",
        "noteNumber": 79,
        "velocity": 96
      },
      {
        "deltaTime": 1418,
        "channel": 3,
        "type": "channel",
        "noteNumber": 74,
        "velocity": 101,
        "subtype": "noteOn"
      },
      {
        "deltaTime": 0,
        "channel": 3,
        "type": "channel",
        "noteNumber": 72,
        "velocity": 98,
        "subtype": "noteOn"
      },
      {
        "deltaTime": 6,
        "channel": 3,
        "type": "channel",
        "noteNumber": 79,
        "velocity": 98,
        "subtype": "noteOn"
      },
      {
        "deltaTime": 202,
        "channel": 3,
        "type": "channel",
        "subtype": "noteOff",
        "noteNumber": 79,
        "velocity": 98
      },
      {
        "deltaTime": 4,
        "channel": 3,
        "type": "channel",
        "subtype": "noteOff",
        "noteNumber": 74,
        "velocity": 101
      },
      {
        "deltaTime": 26,
        "channel": 3,
        "type": "channel",
        "subtype": "noteOff",
        "noteNumber": 72,
        "velocity": 98
      },
      {
        "deltaTime": 220,
        "channel": 3,
        "type": "channel",
        "noteNumber": 72,
        "velocity": 102,
        "subtype": "noteOn"
      },
      {
        "deltaTime": 10,
        "channel": 3,
        "type": "channel",
        "noteNumber": 74,
        "velocity": 105,
        "subtype": "noteOn"
      },
      {
        "deltaTime": 10,
        "channel": 3,
        "type": "channel",
        "noteNumber": 79,
        "velocity": 102,
        "subtype": "noteOn"
      },
      {
        "deltaTime": 288,
        "channel": 3,
        "type": "channel",
        "subtype": "noteOff",
        "noteNumber": 74,
        "velocity": 105
      },
      {
        "deltaTime": 4,
        "channel": 3,
        "type": "channel",
        "subtype": "noteOff",
        "noteNumber": 79,
        "velocity": 102
      },
      {
        "deltaTime": 6,
        "channel": 3,
        "type": "channel",
        "subtype": "noteOff",
        "noteNumber": 72,
        "velocity": 102
      },
      {
        "deltaTime": 666,
        "channel": 3,
        "type": "channel",
        "noteNumber": 72,
        "velocity": 103,
        "subtype": "noteOn"
      },
      {
        "deltaTime": 6,
        "channel": 3,
        "type": "channel",
        "noteNumber": 79,
        "velocity": 105,
        "subtype": "noteOn"
      },
      {
        "deltaTime": 0,
        "channel": 3,
        "type": "channel",
        "noteNumber": 74,
        "velocity": 110,
        "subtype": "noteOn"
      },
      {
        "deltaTime": 308,
        "channel": 3,
        "type": "channel",
        "subtype": "noteOff",
        "noteNumber": 79,
        "velocity": 105
      },
      {
        "deltaTime": 10,
        "channel": 3,
        "type": "channel",
        "subtype": "noteOff",
        "noteNumber": 74,
        "velocity": 110
      },
      {
        "deltaTime": 4,
        "channel": 3,
        "type": "channel",
        "subtype": "noteOff",
        "noteNumber": 72,
        "velocity": 103
      },
      {
        "deltaTime": 666,
        "channel": 3,
        "type": "channel",
        "noteNumber": 71,
        "velocity": 113,
        "subtype": "noteOn"
      },
      {
        "deltaTime": 6,
        "channel": 3,
        "type": "channel",
        "noteNumber": 74,
        "velocity": 117,
        "subtype": "noteOn"
      },
      {
        "deltaTime": 10,
        "channel": 3,
        "type": "channel",
        "noteNumber": 79,
        "velocity": 117,
        "subtype": "noteOn"
      },
      {
        "deltaTime": 422,
        "channel": 3,
        "type": "channel",
        "subtype": "noteOff",
        "noteNumber": 74,
        "velocity": 117
      },
      {
        "deltaTime": 22,
        "channel": 3,
        "type": "channel",
        "subtype": "noteOff",
        "noteNumber": 79,
        "velocity": 117
      },
      {
        "deltaTime": 30,
        "channel": 3,
        "type": "channel",
        "subtype": "noteOff",
        "noteNumber": 71,
        "velocity": 113
      },
      {
        "deltaTime": 68042,
        "channel": 3,
        "type": "channel",
        "noteNumber": 79,
        "velocity": 103,
        "subtype": "noteOn"
      },
      {
        "deltaTime": 500,
        "channel": 3,
        "type": "channel",
        "subtype": "noteOff",
        "noteNumber": 79,
        "velocity": 103
      },
      {
        "deltaTime": 0,
        "channel": 3,
        "type": "channel",
        "noteNumber": 81,
        "velocity": 101,
        "subtype": "noteOn"
      },
      {
        "deltaTime": 500,
        "channel": 3,
        "type": "channel",
        "subtype": "noteOff",
        "noteNumber": 81,
        "velocity": 101
      },
      {
        "deltaTime": 0,
        "channel": 3,
        "type": "channel",
        "noteNumber": 82,
        "velocity": 94,
        "subtype": "noteOn"
      },
      {
        "deltaTime": 500,
        "channel": 3,
        "type": "channel",
        "subtype": "noteOff",
        "noteNumber": 82,
        "velocity": 94
      },
      {
        "deltaTime": 0,
        "channel": 3,
        "type": "channel",
        "noteNumber": 84,
        "velocity": 94,
        "subtype": "noteOn"
      },
      {
        "deltaTime": 500,
        "channel": 3,
        "type": "channel",
        "subtype": "noteOff",
        "noteNumber": 84,
        "velocity": 94
      },
      {
        "deltaTime": 10,
        "channel": 3,
        "type": "channel",
        "noteNumber": 82,
        "velocity": 103,
        "subtype": "noteOn"
      },
      {
        "deltaTime": 496,
        "channel": 3,
        "type": "channel",
        "noteNumber": 81,
        "velocity": 102,
        "subtype": "noteOn"
      },
      {
        "deltaTime": 74,
        "channel": 3,
        "type": "channel",
        "subtype": "noteOff",
        "noteNumber": 82,
        "velocity": 103
      },
      {
        "deltaTime": 420,
        "channel": 3,
        "type": "channel",
        "noteNumber": 79,
        "velocity": 96,
        "subtype": "noteOn"
      },
      {
        "deltaTime": 28,
        "channel": 3,
        "type": "channel",
        "subtype": "noteOff",
        "noteNumber": 81,
        "velocity": 102
      },
      {
        "deltaTime": 400,
        "channel": 3,
        "type": "channel",
        "noteNumber": 77,
        "velocity": 97,
        "subtype": "noteOn"
      },
      {
        "deltaTime": 20,
        "channel": 3,
        "type": "channel",
        "subtype": "noteOff",
        "noteNumber": 79,
        "velocity": 96
      },
      {
        "deltaTime": 546,
        "channel": 3,
        "type": "channel",
        "subtype": "noteOff",
        "noteNumber": 77,
        "velocity": 97
      },
      {
        "deltaTime": 6,
        "channel": 3,
        "type": "channel",
        "noteNumber": 75,
        "velocity": 96,
        "subtype": "noteOn"
      },
      {
        "deltaTime": 448,
        "channel": 3,
        "type": "channel",
        "noteNumber": 74,
        "velocity": 100,
        "subtype": "noteOn"
      },
      {
        "deltaTime": 52,
        "channel": 3,
        "type": "channel",
        "subtype": "noteOff",
        "noteNumber": 75,
        "velocity": 96
      },
      {
        "deltaTime": 490,
        "channel": 3,
        "type": "channel",
        "noteNumber": 72,
        "velocity": 92,
        "subtype": "noteOn"
      },
      {
        "deltaTime": 26,
        "channel": 3,
        "type": "channel",
        "subtype": "noteOff",
        "noteNumber": 74,
        "velocity": 100
      },
      {
        "deltaTime": 422,
        "channel": 3,
        "type": "channel",
        "subtype": "noteOff",
        "noteNumber": 72,
        "velocity": 92
      },
      {
        "deltaTime": 62,
        "channel": 3,
        "type": "channel",
        "noteNumber": 70,
        "velocity": 92,
        "subtype": "noteOn"
      },
      {
        "deltaTime": 500,
        "channel": 3,
        "type": "channel",
        "subtype": "noteOff",
        "noteNumber": 70,
        "velocity": 92
      },
      {
        "deltaTime": 6,
        "channel": 3,
        "type": "channel",
        "noteNumber": 69,
        "velocity": 96,
        "subtype": "noteOn"
      },
      {
        "deltaTime": 474,
        "channel": 3,
        "type": "channel",
        "noteNumber": 70,
        "velocity": 87,
        "subtype": "noteOn"
      },
      {
        "deltaTime": 26,
        "channel": 3,
        "type": "channel",
        "subtype": "noteOff",
        "noteNumber": 69,
        "velocity": 96
      },
      {
        "deltaTime": 474,
        "channel": 3,
        "type": "channel",
        "subtype": "noteOff",
        "noteNumber": 70,
        "velocity": 87
      },
      {
        "deltaTime": 20,
        "channel": 3,
        "type": "channel",
        "noteNumber": 72,
        "velocity": 93,
        "subtype": "noteOn"
      },
      {
        "deltaTime": 500,
        "channel": 3,
        "type": "channel",
        "subtype": "noteOff",
        "noteNumber": 72,
        "velocity": 93
      },
      {
        "deltaTime": 0,
        "channel": 3,
        "type": "channel",
        "noteNumber": 74,
        "velocity": 101,
        "subtype": "noteOn"
      },
      {
        "deltaTime": 500,
        "channel": 3,
        "type": "channel",
        "subtype": "noteOff",
        "noteNumber": 74,
        "velocity": 101
      },
      {
        "deltaTime": 0,
        "channel": 3,
        "type": "channel",
        "noteNumber": 69,
        "velocity": 97,
        "subtype": "noteOn"
      },
      {
        "deltaTime": 1468,
        "channel": 3,
        "type": "channel",
        "subtype": "noteOff",
        "noteNumber": 69,
        "velocity": 97
      },
      {
        "deltaTime": 32,
        "channel": 3,
        "type": "channel",
        "noteNumber": 67,
        "velocity": 100,
        "subtype": "noteOn"
      },
      {
        "deltaTime": 968,
        "channel": 3,
        "type": "channel",
        "subtype": "noteOff",
        "noteNumber": 67,
        "velocity": 100
      },
      {
        "deltaTime": 12,
        "channel": 3,
        "type": "channel",
        "noteNumber": 69,
        "velocity": 90,
        "subtype": "noteOn"
      },
      {
        "deltaTime": 500,
        "channel": 3,
        "type": "channel",
        "subtype": "noteOff",
        "noteNumber": 69,
        "velocity": 90
      },
      {
        "deltaTime": 20,
        "channel": 3,
        "type": "channel",
        "noteNumber": 70,
        "velocity": 96,
        "subtype": "noteOn"
      },
      {
        "deltaTime": 500,
        "channel": 3,
        "type": "channel",
        "subtype": "noteOff",
        "noteNumber": 70,
        "velocity": 96
      },
      {
        "deltaTime": 0,
        "channel": 3,
        "type": "channel",
        "noteNumber": 74,
        "velocity": 101,
        "subtype": "noteOn"
      },
      {
        "deltaTime": 500,
        "channel": 3,
        "type": "channel",
        "subtype": "noteOff",
        "noteNumber": 74,
        "velocity": 101
      },
      {
        "deltaTime": 20,
        "channel": 3,
        "type": "channel",
        "noteNumber": 69,
        "velocity": 97,
        "subtype": "noteOn"
      },
      {
        "deltaTime": 1490,
        "channel": 3,
        "type": "channel",
        "subtype": "noteOff",
        "noteNumber": 69,
        "velocity": 97
      },
      {
        "deltaTime": 0,
        "channel": 3,
        "type": "channel",
        "noteNumber": 67,
        "velocity": 100,
        "subtype": "noteOn"
      },
      {
        "deltaTime": 970,
        "channel": 3,
        "type": "channel",
        "subtype": "noteOff",
        "noteNumber": 67,
        "velocity": 100
      },
      {
        "deltaTime": 1536,
        "channel": 3,
        "type": "channel",
        "noteNumber": 77,
        "velocity": 96,
        "subtype": "noteOn"
      },
      {
        "deltaTime": 522,
        "channel": 3,
        "type": "channel",
        "subtype": "noteOff",
        "noteNumber": 77,
        "velocity": 96
      },
      {
        "deltaTime": 20,
        "channel": 3,
        "type": "channel",
        "noteNumber": 79,
        "velocity": 86,
        "subtype": "noteOn"
      },
      {
        "deltaTime": 452,
        "channel": 3,
        "type": "channel",
        "noteNumber": 80,
        "velocity": 93,
        "subtype": "noteOn"
      },
      {
        "deltaTime": 48,
        "channel": 3,
        "type": "channel",
        "subtype": "noteOff",
        "noteNumber": 79,
        "velocity": 86
      },
      {
        "deltaTime": 410,
        "channel": 3,
        "type": "channel",
        "noteNumber": 82,
        "velocity": 94,
        "subtype": "noteOn"
      },
      {
        "deltaTime": 42,
        "channel": 3,
        "type": "channel",
        "subtype": "noteOff",
        "noteNumber": 80,
        "velocity": 93
      },
      {
        "deltaTime": 458,
        "channel": 3,
        "type": "channel",
        "subtype": "noteOff",
        "noteNumber": 82,
        "velocity": 94
      },
      {
        "deltaTime": 26,
        "channel": 3,
        "type": "channel",
        "noteNumber": 80,
        "velocity": 93,
        "subtype": "noteOn"
      },
      {
        "deltaTime": 486,
        "channel": 3,
        "type": "channel",
        "noteNumber": 79,
        "velocity": 88,
        "subtype": "noteOn"
      },
      {
        "deltaTime": 104,
        "channel": 3,
        "type": "channel",
        "subtype": "noteOff",
        "noteNumber": 80,
        "velocity": 93
      },
      {
        "deltaTime": 396,
        "channel": 3,
        "type": "channel",
        "subtype": "noteOff",
        "noteNumber": 79,
        "velocity": 88
      },
      {
        "deltaTime": 48,
        "channel": 3,
        "type": "channel",
        "noteNumber": 77,
        "velocity": 93,
        "subtype": "noteOn"
      },
      {
        "deltaTime": 472,
        "channel": 3,
        "type": "channel",
        "noteNumber": 75,
        "velocity": 93,
        "subtype": "noteOn"
      },
      {
        "deltaTime": 28,
        "channel": 3,
        "type": "channel",
        "subtype": "noteOff",
        "noteNumber": 77,
        "velocity": 93
      },
      {
        "deltaTime": 472,
        "channel": 3,
        "type": "channel",
        "subtype": "noteOff",
        "noteNumber": 75,
        "velocity": 93
      },
      {
        "deltaTime": 0,
        "channel": 3,
        "type": "channel",
        "noteNumber": 77,
        "velocity": 86,
        "subtype": "noteOn"
      },
      {
        "deltaTime": 20,
        "channel": 3,
        "type": "channel",
        "subtype": "noteOff",
        "noteNumber": 77,
        "velocity": 86
      },
      {
        "deltaTime": 0,
        "channel": 3,
        "type": "channel",
        "noteNumber": 73,
        "velocity": 106,
        "subtype": "noteOn"
      },
      {
        "deltaTime": 480,
        "channel": 3,
        "type": "channel",
        "noteNumber": 72,
        "velocity": 90,
        "subtype": "noteOn"
      },
      {
        "deltaTime": 42,
        "channel": 3,
        "type": "channel",
        "subtype": "noteOff",
        "noteNumber": 73,
        "velocity": 106
      },
      {
        "deltaTime": 420,
        "channel": 3,
        "type": "channel",
        "noteNumber": 70,
        "velocity": 88,
        "subtype": "noteOn"
      },
      {
        "deltaTime": 132,
        "channel": 3,
        "type": "channel",
        "subtype": "noteOff",
        "noteNumber": 72,
        "velocity": 90
      },
      {
        "deltaTime": 344,
        "channel": 3,
        "type": "channel",
        "noteNumber": 68,
        "velocity": 79,
        "subtype": "noteOn"
      },
      {
        "deltaTime": 24,
        "channel": 3,
        "type": "channel",
        "subtype": "noteOff",
        "noteNumber": 70,
        "velocity": 88
      },
      {
        "deltaTime": 544,
        "channel": 3,
        "type": "channel",
        "subtype": "noteOff",
        "noteNumber": 68,
        "velocity": 79
      },
      {
        "deltaTime": 0,
        "channel": 3,
        "type": "channel",
        "noteNumber": 67,
        "velocity": 96,
        "subtype": "noteOn"
      },
      {
        "deltaTime": 494,
        "channel": 3,
        "type": "channel",
        "noteNumber": 68,
        "velocity": 93,
        "subtype": "noteOn"
      },
      {
        "deltaTime": 146,
        "channel": 3,
        "type": "channel",
        "subtype": "noteOff",
        "noteNumber": 67,
        "velocity": 96
      },
      {
        "deltaTime": 306,
        "channel": 3,
        "type": "channel",
        "noteNumber": 70,
        "velocity": 88,
        "subtype": "noteOn"
      },
      {
        "deltaTime": 48,
        "channel": 3,
        "type": "channel",
        "subtype": "noteOff",
        "noteNumber": 68,
        "velocity": 93
      },
      {
        "deltaTime": 474,
        "channel": 3,
        "type": "channel",
        "noteNumber": 72,
        "velocity": 102,
        "subtype": "noteOn"
      },
      {
        "deltaTime": 74,
        "channel": 3,
        "type": "channel",
        "subtype": "noteOff",
        "noteNumber": 70,
        "velocity": 88
      },
      {
        "deltaTime": 426,
        "channel": 3,
        "type": "channel",
        "subtype": "noteOff",
        "noteNumber": 72,
        "velocity": 102
      },
      {
        "deltaTime": 94,
        "channel": 3,
        "type": "channel",
        "noteNumber": 67,
        "velocity": 86,
        "subtype": "noteOn"
      },
      {
        "deltaTime": 1370,
        "channel": 3,
        "type": "channel",
        "subtype": "noteOff",
        "noteNumber": 67,
        "velocity": 86
      },
      {
        "deltaTime": 62,
        "channel": 3,
        "type": "channel",
        "noteNumber": 65,
        "velocity": 100,
        "subtype": "noteOn"
      },
      {
        "deltaTime": 1110,
        "channel": 3,
        "type": "channel",
        "subtype": "noteOff",
        "noteNumber": 65,
        "velocity": 100
      },
      {
        "deltaTime": 1380,
        "channel": 3,
        "type": "channel",
        "noteNumber": 79,
        "velocity": 117,
        "subtype": "noteOn"
      },
      {
        "deltaTime": 58,
        "channel": 3,
        "type": "channel",
        "noteNumber": 75,
        "velocity": 108,
        "subtype": "noteOn"
      },
      {
        "deltaTime": 202,
        "channel": 3,
        "type": "channel",
        "subtype": "noteOff",
        "noteNumber": 75,
        "velocity": 108
      },
      {
        "deltaTime": 160,
        "channel": 3,
        "type": "channel",
        "subtype": "noteOff",
        "noteNumber": 79,
        "velocity": 117
      },
      {
        "deltaTime": 80,
        "channel": 3,
        "type": "channel",
        "noteNumber": 81,
        "velocity": 103,
        "subtype": "noteOn"
      },
      {
        "deltaTime": 58,
        "channel": 3,
        "type": "channel",
        "noteNumber": 77,
        "velocity": 105,
        "subtype": "noteOn"
      },
      {
        "deltaTime": 202,
        "channel": 3,
        "type": "channel",
        "subtype": "noteOff",
        "noteNumber": 77,
        "velocity": 105
      },
      {
        "deltaTime": 104,
        "channel": 3,
        "type": "channel",
        "subtype": "noteOff",
        "noteNumber": 81,
        "velocity": 103
      },
      {
        "deltaTime": 140,
        "channel": 3,
        "type": "channel",
        "noteNumber": 79,
        "velocity": 113,
        "subtype": "noteOn"
      },
      {
        "deltaTime": 64,
        "channel": 3,
        "type": "channel",
        "noteNumber": 75,
        "velocity": 102,
        "subtype": "noteOn"
      },
      {
        "deltaTime": 140,
        "channel": 3,
        "type": "channel",
        "subtype": "noteOff",
        "noteNumber": 75,
        "velocity": 102
      },
      {
        "deltaTime": 100,
        "channel": 3,
        "type": "channel",
        "subtype": "noteOff",
        "noteNumber": 79,
        "velocity": 113
      },
      {
        "deltaTime": 196,
        "channel": 3,
        "type": "channel",
        "noteNumber": 78,
        "velocity": 117,
        "subtype": "noteOn"
      },
      {
        "deltaTime": 68,
        "channel": 3,
        "type": "channel",
        "noteNumber": 72,
        "velocity": 110,
        "subtype": "noteOn"
      },
      {
        "deltaTime": 18,
        "channel": 3,
        "type": "channel",
        "noteNumber": 74,
        "velocity": 110,
        "subtype": "noteOn"
      },
      {
        "deltaTime": 440,
        "channel": 3,
        "type": "channel",
        "subtype": "noteOff",
        "noteNumber": 74,
        "velocity": 110
      },
      {
        "deltaTime": 0,
        "channel": 3,
        "type": "channel",
        "noteNumber": 74,
        "velocity": 93,
        "subtype": "noteOn"
      },
      {
        "deltaTime": 408,
        "channel": 3,
        "type": "channel",
        "subtype": "noteOff",
        "noteNumber": 78,
        "velocity": 117
      },
      {
        "deltaTime": 156,
        "channel": 3,
        "type": "channel",
        "subtype": "noteOff",
        "noteNumber": 74,
        "velocity": 93
      },
      {
        "deltaTime": 426,
        "channel": 3,
        "type": "channel",
        "noteNumber": 74,
        "velocity": 86,
        "subtype": "noteOn"
      },
      {
        "deltaTime": 506,
        "channel": 3,
        "type": "channel",
        "subtype": "noteOff",
        "noteNumber": 74,
        "velocity": 86
      },
      {
        "deltaTime": 532,
        "channel": 3,
        "type": "channel",
        "noteNumber": 71,
        "velocity": 101,
        "subtype": "noteOn"
      },
      {
        "deltaTime": 14,
        "channel": 3,
        "type": "channel",
        "noteNumber": 69,
        "velocity": 95,
        "subtype": "noteOn"
      },
      {
        "deltaTime": 6,
        "channel": 3,
        "type": "channel",
        "noteNumber": 74,
        "velocity": 95,
        "subtype": "noteOn"
      },
      {
        "deltaTime": 182,
        "channel": 3,
        "type": "channel",
        "subtype": "noteOff",
        "noteNumber": 72,
        "velocity": 110
      },
      {
        "deltaTime": 474,
        "channel": 3,
        "type": "channel",
        "subtype": "noteOff",
        "noteNumber": 71,
        "velocity": 101
      },
      {
        "deltaTime": 20,
        "channel": 3,
        "type": "channel",
        "subtype": "noteOff",
        "noteNumber": 74,
        "velocity": 95
      },
      {
        "deltaTime": 0,
        "channel": 3,
        "type": "channel",
        "subtype": "noteOff",
        "noteNumber": 69,
        "velocity": 95
      },
      {
        "deltaTime": 214,
        "channel": 3,
        "type": "channel",
        "noteNumber": 71,
        "velocity": 97,
        "subtype": "noteOn"
      },
      {
        "deltaTime": 0,
        "channel": 3,
        "type": "channel",
        "noteNumber": 69,
        "velocity": 89,
        "subtype": "noteOn"
      },
      {
        "deltaTime": 10,
        "channel": 3,
        "type": "channel",
        "noteNumber": 74,
        "velocity": 88,
        "subtype": "noteOn"
      },
      {
        "deltaTime": 262,
        "channel": 3,
        "type": "channel",
        "subtype": "noteOff",
        "noteNumber": 71,
        "velocity": 97
      },
      {
        "deltaTime": 14,
        "channel": 3,
        "type": "channel",
        "subtype": "noteOff",
        "noteNumber": 74,
        "velocity": 88
      },
      {
        "deltaTime": 12,
        "channel": 3,
        "type": "channel",
        "subtype": "noteOff",
        "noteNumber": 69,
        "velocity": 89
      },
      {
        "deltaTime": 244,
        "channel": 3,
        "type": "channel",
        "noteNumber": 71,
        "velocity": 100,
        "subtype": "noteOn"
      },
      {
        "deltaTime": 0,
        "channel": 3,
        "type": "channel",
        "noteNumber": 69,
        "velocity": 93,
        "subtype": "noteOn"
      },
      {
        "deltaTime": 0,
        "channel": 3,
        "type": "channel",
        "noteNumber": 74,
        "velocity": 92,
        "subtype": "noteOn"
      },
      {
        "deltaTime": 688,
        "channel": 3,
        "type": "channel",
        "subtype": "noteOff",
        "noteNumber": 71,
        "velocity": 100
      },
      {
        "deltaTime": 14,
        "channel": 3,
        "type": "channel",
        "subtype": "noteOff",
        "noteNumber": 69,
        "velocity": 93
      },
      {
        "deltaTime": 16,
        "channel": 3,
        "type": "channel",
        "subtype": "noteOff",
        "noteNumber": 74,
        "velocity": 92
      },
      {
        "deltaTime": 310,
        "channel": 3,
        "type": "channel",
        "noteNumber": 69,
        "velocity": 100,
        "subtype": "noteOn"
      },
      {
        "deltaTime": 4,
        "channel": 3,
        "type": "channel",
        "noteNumber": 71,
        "velocity": 105,
        "subtype": "noteOn"
      },
      {
        "deltaTime": 0,
        "channel": 3,
        "type": "channel",
        "noteNumber": 74,
        "velocity": 98,
        "subtype": "noteOn"
      },
      {
        "deltaTime": 500,
        "channel": 3,
        "type": "channel",
        "subtype": "noteOff",
        "noteNumber": 71,
        "velocity": 105
      },
      {
        "deltaTime": 10,
        "channel": 3,
        "type": "channel",
        "subtype": "noteOff",
        "noteNumber": 69,
        "velocity": 100
      },
      {
        "deltaTime": 68,
        "channel": 3,
        "type": "channel",
        "subtype": "noteOff",
        "noteNumber": 74,
        "velocity": 98
      },
      {
        "deltaTime": 474,
        "channel": 3,
        "type": "channel",
        "noteNumber": 74,
        "velocity": 98,
        "subtype": "noteOn"
      },
      {
        "deltaTime": 6,
        "channel": 3,
        "type": "channel",
        "noteNumber": 68,
        "velocity": 103,
        "subtype": "noteOn"
      },
      {
        "deltaTime": 4,
        "channel": 3,
        "type": "channel",
        "noteNumber": 70,
        "velocity": 103,
        "subtype": "noteOn"
      },
      {
        "deltaTime": 1624,
        "channel": 3,
        "type": "channel",
        "subtype": "noteOff",
        "noteNumber": 70,
        "velocity": 103
      },
      {
        "deltaTime": 16,
        "channel": 3,
        "type": "channel",
        "subtype": "noteOff",
        "noteNumber": 68,
        "velocity": 103
      },
      {
        "deltaTime": 44,
        "channel": 3,
        "type": "channel",
        "subtype": "noteOff",
        "noteNumber": 74,
        "velocity": 98
      },
      {
        "deltaTime": 160,
        "channel": 3,
        "type": "channel",
        "noteNumber": 68,
        "velocity": 100,
        "subtype": "noteOn"
      },
      {
        "deltaTime": 0,
        "channel": 3,
        "type": "channel",
        "noteNumber": 74,
        "velocity": 94,
        "subtype": "noteOn"
      },
      {
        "deltaTime": 10,
        "channel": 3,
        "type": "channel",
        "noteNumber": 70,
        "velocity": 102,
        "subtype": "noteOn"
      },
      {
        "deltaTime": 850,
        "channel": 3,
        "type": "channel",
        "subtype": "noteOff",
        "noteNumber": 70,
        "velocity": 102
      },
      {
        "deltaTime": 10,
        "channel": 3,
        "type": "channel",
        "subtype": "noteOff",
        "noteNumber": 68,
        "velocity": 100
      },
      {
        "deltaTime": 26,
        "channel": 3,
        "type": "channel",
        "subtype": "noteOff",
        "noteNumber": 74,
        "velocity": 94
      },
      {
        "deltaTime": 204,
        "channel": 3,
        "type": "channel",
        "noteNumber": 68,
        "velocity": 96,
        "subtype": "noteOn"
      },
      {
        "deltaTime": 0,
        "channel": 3,
        "type": "channel",
        "noteNumber": 74,
        "velocity": 92,
        "subtype": "noteOn"
      },
      {
        "deltaTime": 10,
        "channel": 3,
        "type": "channel",
        "noteNumber": 70,
        "velocity": 101,
        "subtype": "noteOn"
      },
      {
        "deltaTime": 644,
        "channel": 3,
        "type": "channel",
        "subtype": "noteOff",
        "noteNumber": 70,
        "velocity": 101
      },
      {
        "deltaTime": 38,
        "channel": 3,
        "type": "channel",
        "subtype": "noteOff",
        "noteNumber": 68,
        "velocity": 96
      },
      {
        "deltaTime": 4,
        "channel": 3,
        "type": "channel",
        "subtype": "noteOff",
        "noteNumber": 74,
        "velocity": 92
      },
      {
        "deltaTime": 246,
        "channel": 3,
        "type": "channel",
        "noteNumber": 74,
        "velocity": 80,
        "subtype": "noteOn"
      },
      {
        "deltaTime": 10,
        "channel": 3,
        "type": "channel",
        "noteNumber": 70,
        "velocity": 97,
        "subtype": "noteOn"
      },
      {
        "deltaTime": 0,
        "channel": 3,
        "type": "channel",
        "noteNumber": 68,
        "velocity": 90,
        "subtype": "noteOn"
      },
      {
        "deltaTime": 234,
        "channel": 3,
        "type": "channel",
        "subtype": "noteOff",
        "noteNumber": 70,
        "velocity": 97
      },
      {
        "deltaTime": 26,
        "channel": 3,
        "type": "channel",
        "subtype": "noteOff",
        "noteNumber": 68,
        "velocity": 90
      },
      {
        "deltaTime": 6,
        "channel": 3,
        "type": "channel",
        "subtype": "noteOff",
        "noteNumber": 74,
        "velocity": 80
      },
      {
        "deltaTime": 260,
        "channel": 3,
        "type": "channel",
        "noteNumber": 67,
        "velocity": 96,
        "subtype": "noteOn"
      },
      {
        "deltaTime": 16,
        "channel": 3,
        "type": "channel",
        "noteNumber": 72,
        "velocity": 101,
        "subtype": "noteOn"
      },
      {
        "deltaTime": 10,
        "channel": 3,
        "type": "channel",
        "noteNumber": 74,
        "velocity": 95,
        "subtype": "noteOn"
      },
      {
        "deltaTime": 490,
        "channel": 3,
        "type": "channel",
        "subtype": "noteOff",
        "noteNumber": 72,
        "velocity": 101
      },
      {
        "deltaTime": 10,
        "channel": 3,
        "type": "channel",
        "subtype": "noteOff",
        "noteNumber": 74,
        "velocity": 95
      },
      {
        "deltaTime": 48,
        "channel": 3,
        "type": "channel",
        "subtype": "noteOff",
        "noteNumber": 67,
        "velocity": 96
      },
      {
        "deltaTime": 372,
        "channel": 3,
        "type": "channel",
        "noteNumber": 67,
        "velocity": 89,
        "subtype": "noteOn"
      },
      {
        "deltaTime": 12,
        "channel": 3,
        "type": "channel",
        "noteNumber": 72,
        "velocity": 96,
        "subtype": "noteOn"
      },
      {
        "deltaTime": 0,
        "channel": 3,
        "type": "channel",
        "noteNumber": 74,
        "velocity": 87,
        "subtype": "noteOn"
      },
      {
        "deltaTime": 328,
        "channel": 3,
        "type": "channel",
        "subtype": "noteOff",
        "noteNumber": 72,
        "velocity": 96
      },
      {
        "deltaTime": 22,
        "channel": 3,
        "type": "channel",
        "subtype": "noteOff",
        "noteNumber": 74,
        "velocity": 87
      },
      {
        "deltaTime": 6,
        "channel": 3,
        "type": "channel",
        "subtype": "noteOff",
        "noteNumber": 67,
        "velocity": 89
      },
      {
        "deltaTime": 170,
        "channel": 3,
        "type": "channel",
        "noteNumber": 67,
        "velocity": 96,
        "subtype": "noteOn"
      },
      {
        "deltaTime": 10,
        "channel": 3,
        "type": "channel",
        "noteNumber": 72,
        "velocity": 101,
        "subtype": "noteOn"
      },
      {
        "deltaTime": 0,
        "channel": 3,
        "type": "channel",
        "noteNumber": 74,
        "velocity": 93,
        "subtype": "noteOn"
      },
      {
        "deltaTime": 376,
        "channel": 3,
        "type": "channel",
        "subtype": "noteOff",
        "noteNumber": 72,
        "velocity": 101
      },
      {
        "deltaTime": 14,
        "channel": 3,
        "type": "channel",
        "subtype": "noteOff",
        "noteNumber": 67,
        "velocity": 96
      },
      {
        "deltaTime": 16,
        "channel": 3,
        "type": "channel",
        "subtype": "noteOff",
        "noteNumber": 74,
        "velocity": 93
      },
      {
        "deltaTime": 616,
        "channel": 3,
        "type": "channel",
        "noteNumber": 67,
        "velocity": 101,
        "subtype": "noteOn"
      },
      {
        "deltaTime": 10,
        "channel": 3,
        "type": "channel",
        "noteNumber": 72,
        "velocity": 106,
        "subtype": "noteOn"
      },
      {
        "deltaTime": 6,
        "channel": 3,
        "type": "channel",
        "noteNumber": 74,
        "velocity": 98,
        "subtype": "noteOn"
      },
      {
        "deltaTime": 282,
        "channel": 3,
        "type": "channel",
        "subtype": "noteOff",
        "noteNumber": 67,
        "velocity": 101
      },
      {
        "deltaTime": 0,
        "channel": 3,
        "type": "channel",
        "subtype": "noteOff",
        "noteNumber": 72,
        "velocity": 106
      },
      {
        "deltaTime": 24,
        "channel": 3,
        "type": "channel",
        "subtype": "noteOff",
        "noteNumber": 74,
        "velocity": 98
      },
      {
        "deltaTime": 678,
        "channel": 3,
        "type": "channel",
        "noteNumber": 66,
        "velocity": 97,
        "subtype": "noteOn"
      },
      {
        "deltaTime": 10,
        "channel": 3,
        "type": "channel",
        "noteNumber": 72,
        "velocity": 110,
        "subtype": "noteOn"
      },
      {
        "deltaTime": 0,
        "channel": 3,
        "type": "channel",
        "noteNumber": 74,
        "velocity": 94,
        "subtype": "noteOn"
      },
      {
        "deltaTime": 2202,
        "channel": 3,
        "type": "channel",
        "subtype": "noteOff",
        "noteNumber": 66,
        "velocity": 97
      },
      {
        "deltaTime": 22,
        "channel": 3,
        "type": "channel",
        "subtype": "noteOff",
        "noteNumber": 72,
        "velocity": 110
      },
      {
        "deltaTime": 422,
        "channel": 3,
        "type": "channel",
        "subtype": "noteOff",
        "noteNumber": 74,
        "velocity": 94
      },
      {
        "deltaTime": 302,
        "channel": 3,
        "type": "channel",
        "noteNumber": 74,
        "velocity": 95,
        "subtype": "noteOn"
      },
      {
        "deltaTime": 530,
        "channel": 3,
        "type": "channel",
        "subtype": "noteOff",
        "noteNumber": 74,
        "velocity": 95
      },
      {
        "deltaTime": 454,
        "channel": 3,
        "type": "channel",
        "noteNumber": 74,
        "velocity": 90,
        "subtype": "noteOn"
      },
      {
        "deltaTime": 250,
        "channel": 3,
        "type": "channel",
        "subtype": "noteOff",
        "noteNumber": 74,
        "velocity": 90
      },
      {
        "deltaTime": 308,
        "channel": 3,
        "type": "channel",
        "noteNumber": 74,
        "velocity": 92,
        "subtype": "noteOn"
      },
      {
        "deltaTime": 26,
        "channel": 3,
        "type": "channel",
        "noteNumber": 71,
        "velocity": 94,
        "subtype": "noteOn"
      },
      {
        "deltaTime": 26,
        "channel": 3,
        "type": "channel",
        "noteNumber": 69,
        "velocity": 96,
        "subtype": "noteOn"
      },
      {
        "deltaTime": 214,
        "channel": 3,
        "type": "channel",
        "subtype": "noteOff",
        "noteNumber": 69,
        "velocity": 96
      },
      {
        "deltaTime": 66,
        "channel": 3,
        "type": "channel",
        "subtype": "noteOff",
        "noteNumber": 71,
        "velocity": 94
      },
      {
        "deltaTime": 32,
        "channel": 3,
        "type": "channel",
        "subtype": "noteOff",
        "noteNumber": 74,
        "velocity": 92
      },
      {
        "deltaTime": 578,
        "channel": 3,
        "type": "channel",
        "noteNumber": 71,
        "velocity": 95,
        "subtype": "noteOn"
      },
      {
        "deltaTime": 10,
        "channel": 3,
        "type": "channel",
        "noteNumber": 69,
        "velocity": 87,
        "subtype": "noteOn"
      },
      {
        "deltaTime": 6,
        "channel": 3,
        "type": "channel",
        "noteNumber": 74,
        "velocity": 88,
        "subtype": "noteOn"
      },
      {
        "deltaTime": 298,
        "channel": 3,
        "type": "channel",
        "subtype": "noteOff",
        "noteNumber": 74,
        "velocity": 88
      },
      {
        "deltaTime": 4,
        "channel": 3,
        "type": "channel",
        "subtype": "noteOff",
        "noteNumber": 71,
        "velocity": 95
      },
      {
        "deltaTime": 10,
        "channel": 3,
        "type": "channel",
        "subtype": "noteOff",
        "noteNumber": 69,
        "velocity": 87
      },
      {
        "deltaTime": 214,
        "channel": 3,
        "type": "channel",
        "noteNumber": 71,
        "velocity": 98,
        "subtype": "noteOn"
      },
      {
        "deltaTime": 0,
        "channel": 3,
        "type": "channel",
        "noteNumber": 69,
        "velocity": 93,
        "subtype": "noteOn"
      },
      {
        "deltaTime": 12,
        "channel": 3,
        "type": "channel",
        "noteNumber": 74,
        "velocity": 94,
        "subtype": "noteOn"
      },
      {
        "deltaTime": 452,
        "channel": 3,
        "type": "channel",
        "subtype": "noteOff",
        "noteNumber": 71,
        "velocity": 98
      },
      {
        "deltaTime": 20,
        "channel": 3,
        "type": "channel",
        "subtype": "noteOff",
        "noteNumber": 69,
        "velocity": 93
      },
      {
        "deltaTime": 10,
        "channel": 3,
        "type": "channel",
        "subtype": "noteOff",
        "noteNumber": 74,
        "velocity": 94
      },
      {
        "deltaTime": 538,
        "channel": 3,
        "type": "channel",
        "noteNumber": 69,
        "velocity": 95,
        "subtype": "noteOn"
      },
      {
        "deltaTime": 4,
        "channel": 3,
        "type": "channel",
        "noteNumber": 74,
        "velocity": 94,
        "subtype": "noteOn"
      },
      {
        "deltaTime": 6,
        "channel": 3,
        "type": "channel",
        "noteNumber": 71,
        "velocity": 100,
        "subtype": "noteOn"
      },
      {
        "deltaTime": 384,
        "channel": 3,
        "type": "channel",
        "subtype": "noteOff",
        "noteNumber": 71,
        "velocity": 100
      },
      {
        "deltaTime": 32,
        "channel": 3,
        "type": "channel",
        "subtype": "noteOff",
        "noteNumber": 69,
        "velocity": 95
      },
      {
        "deltaTime": 54,
        "channel": 3,
        "type": "channel",
        "subtype": "noteOff",
        "noteNumber": 74,
        "velocity": 94
      },
      {
        "deltaTime": 546,
        "channel": 3,
        "type": "channel",
        "noteNumber": 74,
        "velocity": 97,
        "subtype": "noteOn"
      },
      {
        "deltaTime": 6,
        "channel": 3,
        "type": "channel",
        "noteNumber": 68,
        "velocity": 102,
        "subtype": "noteOn"
      },
      {
        "deltaTime": 4,
        "channel": 3,
        "type": "channel",
        "noteNumber": 70,
        "velocity": 101,
        "subtype": "noteOn"
      },
      {
        "deltaTime": 1496,
        "channel": 3,
        "type": "channel",
        "subtype": "noteOff",
        "noteNumber": 70,
        "velocity": 101
      },
      {
        "deltaTime": 14,
        "channel": 3,
        "type": "channel",
        "subtype": "noteOff",
        "noteNumber": 68,
        "velocity": 102
      },
      {
        "deltaTime": 32,
        "channel": 3,
        "type": "channel",
        "subtype": "noteOff",
        "noteNumber": 74,
        "velocity": 97
      },
      {
        "deltaTime": 284,
        "channel": 3,
        "type": "channel",
        "noteNumber": 74,
        "velocity": 90,
        "subtype": "noteOn"
      },
      {
        "deltaTime": 10,
        "channel": 3,
        "type": "channel",
        "noteNumber": 68,
        "velocity": 96,
        "subtype": "noteOn"
      },
      {
        "deltaTime": 12,
        "channel": 3,
        "type": "channel",
        "noteNumber": 70,
        "velocity": 101,
        "subtype": "noteOn"
      },
      {
        "deltaTime": 648,
        "channel": 3,
        "type": "channel",
        "subtype": "noteOff",
        "noteNumber": 70,
        "velocity": 101
      },
      {
        "deltaTime": 24,
        "channel": 3,
        "type": "channel",
        "subtype": "noteOff",
        "noteNumber": 68,
        "velocity": 96
      },
      {
        "deltaTime": 26,
        "channel": 3,
        "type": "channel",
        "subtype": "noteOff",
        "noteNumber": 74,
        "velocity": 90
      },
      {
        "deltaTime": 390,
        "channel": 3,
        "type": "channel",
        "noteNumber": 68,
        "velocity": 100,
        "subtype": "noteOn"
      },
      {
        "deltaTime": 18,
        "channel": 3,
        "type": "channel",
        "noteNumber": 70,
        "velocity": 105,
        "subtype": "noteOn"
      },
      {
        "deltaTime": 4,
        "channel": 3,
        "type": "channel",
        "noteNumber": 74,
        "velocity": 94,
        "subtype": "noteOn"
      },
      {
        "deltaTime": 438,
        "channel": 3,
        "type": "channel",
        "subtype": "noteOff",
        "noteNumber": 70,
        "velocity": 105
      },
      {
        "deltaTime": 36,
        "channel": 3,
        "type": "channel",
        "subtype": "noteOff",
        "noteNumber": 68,
        "velocity": 100
      },
      {
        "deltaTime": 4,
        "channel": 3,
        "type": "channel",
        "subtype": "noteOff",
        "noteNumber": 74,
        "velocity": 94
      },
      {
        "deltaTime": 474,
        "channel": 3,
        "type": "channel",
        "noteNumber": 68,
        "velocity": 92,
        "subtype": "noteOn"
      },
      {
        "deltaTime": 16,
        "channel": 3,
        "type": "channel",
        "noteNumber": 70,
        "velocity": 94,
        "subtype": "noteOn"
      },
      {
        "deltaTime": 0,
        "channel": 3,
        "type": "channel",
        "noteNumber": 74,
        "velocity": 87,
        "subtype": "noteOn"
      },
      {
        "deltaTime": 214,
        "channel": 3,
        "type": "channel",
        "subtype": "noteOff",
        "noteNumber": 70,
        "velocity": 94
      },
      {
        "deltaTime": 10,
        "channel": 3,
        "type": "channel",
        "subtype": "noteOff",
        "noteNumber": 74,
        "velocity": 87
      },
      {
        "deltaTime": 22,
        "channel": 3,
        "type": "channel",
        "subtype": "noteOff",
        "noteNumber": 68,
        "velocity": 92
      },
      {
        "deltaTime": 244,
        "channel": 3,
        "type": "channel",
        "noteNumber": 74,
        "velocity": 88,
        "subtype": "noteOn"
      },
      {
        "deltaTime": 28,
        "channel": 3,
        "type": "channel",
        "noteNumber": 72,
        "velocity": 105,
        "subtype": "noteOn"
      },
      {
        "deltaTime": 0,
        "channel": 3,
        "type": "channel",
        "noteNumber": 67,
        "velocity": 101,
        "subtype": "noteOn"
      },
      {
        "deltaTime": 446,
        "channel": 3,
        "type": "channel",
        "subtype": "noteOff",
        "noteNumber": 72,
        "velocity": 105
      },
      {
        "deltaTime": 36,
        "channel": 3,
        "type": "channel",
        "subtype": "noteOff",
        "noteNumber": 74,
        "velocity": 88
      },
      {
        "deltaTime": 6,
        "channel": 3,
        "type": "channel",
        "subtype": "noteOff",
        "noteNumber": 67,
        "velocity": 101
      },
      {
        "deltaTime": 464,
        "channel": 3,
        "type": "channel",
        "noteNumber": 67,
        "velocity": 87,
        "subtype": "noteOn"
      },
      {
        "deltaTime": 10,
        "channel": 3,
        "type": "channel",
        "noteNumber": 72,
        "velocity": 95,
        "subtype": "noteOn"
      },
      {
        "deltaTime": 0,
        "channel": 3,
        "type": "channel",
        "noteNumber": 74,
        "velocity": 88,
        "subtype": "noteOn"
      },
      {
        "deltaTime": 218,
        "channel": 3,
        "type": "channel",
        "subtype": "noteOff",
        "noteNumber": 72,
        "velocity": 95
      },
      {
        "deltaTime": 22,
        "channel": 3,
        "type": "channel",
        "subtype": "noteOff",
        "noteNumber": 74,
        "velocity": 88
      },
      {
        "deltaTime": 10,
        "channel": 3,
        "type": "channel",
        "subtype": "noteOff",
        "noteNumber": 67,
        "velocity": 87
      },
      {
        "deltaTime": 266,
        "channel": 3,
        "type": "channel",
        "noteNumber": 67,
        "velocity": 96,
        "subtype": "noteOn"
      },
      {
        "deltaTime": 10,
        "channel": 3,
        "type": "channel",
        "noteNumber": 72,
        "velocity": 103,
        "subtype": "noteOn"
      },
      {
        "deltaTime": 0,
        "channel": 3,
        "type": "channel",
        "noteNumber": 74,
        "velocity": 96,
        "subtype": "noteOn"
      },
      {
        "deltaTime": 390,
        "channel": 3,
        "type": "channel",
        "subtype": "noteOff",
        "noteNumber": 72,
        "velocity": 103
      },
      {
        "deltaTime": 32,
        "channel": 3,
        "type": "channel",
        "subtype": "noteOff",
        "noteNumber": 74,
        "velocity": 96
      },
      {
        "deltaTime": 24,
        "channel": 3,
        "type": "channel",
        "subtype": "noteOff",
        "noteNumber": 67,
        "velocity": 96
      },
      {
        "deltaTime": 586,
        "channel": 3,
        "type": "channel",
        "noteNumber": 72,
        "velocity": 106,
        "subtype": "noteOn"
      },
      {
        "deltaTime": 0,
        "channel": 3,
        "type": "channel",
        "noteNumber": 67,
        "velocity": 100,
        "subtype": "noteOn"
      },
      {
        "deltaTime": 4,
        "channel": 3,
        "type": "channel",
        "noteNumber": 74,
        "velocity": 100,
        "subtype": "noteOn"
      },
      {
        "deltaTime": 464,
        "channel": 3,
        "type": "channel",
        "subtype": "noteOff",
        "noteNumber": 72,
        "velocity": 106
      },
      {
        "deltaTime": 16,
        "channel": 3,
        "type": "channel",
        "subtype": "noteOff",
        "noteNumber": 74,
        "velocity": 100
      },
      {
        "deltaTime": 26,
        "channel": 3,
        "type": "channel",
        "subtype": "noteOff",
        "noteNumber": 67,
        "velocity": 100
      },
      {
        "deltaTime": 510,
        "channel": 3,
        "type": "channel",
        "noteNumber": 74,
        "velocity": 81,
        "subtype": "noteOn"
      },
      {
        "deltaTime": 26,
        "channel": 3,
        "type": "channel",
        "noteNumber": 72,
        "velocity": 94,
        "subtype": "noteOn"
      },
      {
        "deltaTime": 56,
        "channel": 3,
        "type": "channel",
        "noteNumber": 66,
        "velocity": 98,
        "subtype": "noteOn"
      },
      {
        "deltaTime": 2214,
        "channel": 3,
        "type": "channel",
        "subtype": "noteOff",
        "noteNumber": 72,
        "velocity": 94
      },
      {
        "deltaTime": 36,
        "channel": 3,
        "type": "channel",
        "subtype": "noteOff",
        "noteNumber": 66,
        "velocity": 98
      },
      {
        "deltaTime": 168,
        "channel": 3,
        "type": "channel",
        "subtype": "noteOff",
        "noteNumber": 74,
        "velocity": 81
      },
      {
        "deltaTime": 432,
        "channel": 3,
        "type": "channel",
        "noteNumber": 79,
        "velocity": 95,
        "subtype": "noteOn"
      },
      {
        "deltaTime": 750,
        "channel": 3,
        "type": "channel",
        "subtype": "noteOff",
        "noteNumber": 79,
        "velocity": 95
      },
      {
        "deltaTime": 250,
        "channel": 3,
        "type": "channel",
        "noteNumber": 79,
        "velocity": 85,
        "subtype": "noteOn"
      },
      {
        "deltaTime": 350,
        "channel": 3,
        "type": "channel",
        "subtype": "noteOff",
        "noteNumber": 79,
        "velocity": 85
      },
      {
        "deltaTime": 234,
        "channel": 3,
        "type": "channel",
        "noteNumber": 79,
        "velocity": 94,
        "subtype": "noteOn"
      },
      {
        "deltaTime": 0,
        "channel": 3,
        "type": "channel",
        "noteNumber": 72,
        "velocity": 93,
        "subtype": "noteOn"
      },
      {
        "deltaTime": 6,
        "channel": 3,
        "type": "channel",
        "noteNumber": 77,
        "velocity": 100,
        "subtype": "noteOn"
      },
      {
        "deltaTime": 458,
        "channel": 3,
        "type": "channel",
        "subtype": "noteOff",
        "noteNumber": 79,
        "velocity": 94
      },
      {
        "deltaTime": 0,
        "channel": 3,
        "type": "channel",
        "subtype": "noteOff",
        "noteNumber": 77,
        "velocity": 100
      },
      {
        "deltaTime": 32,
        "channel": 3,
        "type": "channel",
        "subtype": "noteOff",
        "noteNumber": 72,
        "velocity": 93
      },
      {
        "deltaTime": 394,
        "channel": 3,
        "type": "channel",
        "noteNumber": 72,
        "velocity": 93,
        "subtype": "noteOn"
      },
      {
        "deltaTime": 16,
        "channel": 3,
        "type": "channel",
        "noteNumber": 77,
        "velocity": 101,
        "subtype": "noteOn"
      },
      {
        "deltaTime": 0,
        "channel": 3,
        "type": "channel",
        "noteNumber": 79,
        "velocity": 94,
        "subtype": "noteOn"
      },
      {
        "deltaTime": 228,
        "channel": 3,
        "type": "channel",
        "subtype": "noteOff",
        "noteNumber": 77,
        "velocity": 101
      },
      {
        "deltaTime": 12,
        "channel": 3,
        "type": "channel",
        "subtype": "noteOff",
        "noteNumber": 79,
        "velocity": 94
      },
      {
        "deltaTime": 14,
        "channel": 3,
        "type": "channel",
        "subtype": "noteOff",
        "noteNumber": 72,
        "velocity": 93
      },
      {
        "deltaTime": 246,
        "channel": 3,
        "type": "channel",
        "noteNumber": 77,
        "velocity": 101,
        "subtype": "noteOn"
      },
      {
        "deltaTime": 0,
        "channel": 3,
        "type": "channel",
        "noteNumber": 72,
        "velocity": 96,
        "subtype": "noteOn"
      },
      {
        "deltaTime": 0,
        "channel": 3,
        "type": "channel",
        "noteNumber": 79,
        "velocity": 95,
        "subtype": "noteOn"
      },
      {
        "deltaTime": 426,
        "channel": 3,
        "type": "channel",
        "subtype": "noteOff",
        "noteNumber": 77,
        "velocity": 101
      },
      {
        "deltaTime": 12,
        "channel": 3,
        "type": "channel",
        "subtype": "noteOff",
        "noteNumber": 72,
        "velocity": 96
      },
      {
        "deltaTime": 14,
        "channel": 3,
        "type": "channel",
        "subtype": "noteOff",
        "noteNumber": 79,
        "velocity": 95
      },
      {
        "deltaTime": 578,
        "channel": 3,
        "type": "channel",
        "noteNumber": 72,
        "velocity": 96,
        "subtype": "noteOn"
      },
      {
        "deltaTime": 8,
        "channel": 3,
        "type": "channel",
        "noteNumber": 77,
        "velocity": 103,
        "subtype": "noteOn"
      },
      {
        "deltaTime": 4,
        "channel": 3,
        "type": "channel",
        "noteNumber": 79,
        "velocity": 97,
        "subtype": "noteOn"
      },
      {
        "deltaTime": 344,
        "channel": 3,
        "type": "channel",
        "subtype": "noteOff",
        "noteNumber": 72,
        "velocity": 96
      },
      {
        "deltaTime": 10,
        "channel": 3,
        "type": "channel",
        "subtype": "noteOff",
        "noteNumber": 79,
        "velocity": 97
      },
      {
        "deltaTime": 10,
        "channel": 3,
        "type": "channel",
        "subtype": "noteOff",
        "noteNumber": 77,
        "velocity": 103
      },
      {
        "deltaTime": 642,
        "channel": 3,
        "type": "channel",
        "noteNumber": 77,
        "velocity": 101,
        "subtype": "noteOn"
      },
      {
        "deltaTime": 0,
        "channel": 3,
        "type": "channel",
        "noteNumber": 71,
        "velocity": 103,
        "subtype": "noteOn"
      },
      {
        "deltaTime": 0,
        "channel": 3,
        "type": "channel",
        "noteNumber": 79,
        "velocity": 93,
        "subtype": "noteOn"
      },
      {
        "deltaTime": 1722,
        "channel": 3,
        "type": "channel",
        "subtype": "noteOff",
        "noteNumber": 77,
        "velocity": 101
      },
      {
        "deltaTime": 6,
        "channel": 3,
        "type": "channel",
        "subtype": "noteOff",
        "noteNumber": 71,
        "velocity": 103
      },
      {
        "deltaTime": 22,
        "channel": 3,
        "type": "channel",
        "subtype": "noteOff",
        "noteNumber": 79,
        "velocity": 93
      },
      {
        "deltaTime": 222,
        "channel": 3,
        "type": "channel",
        "noteNumber": 71,
        "velocity": 106,
        "subtype": "noteOn"
      },
      {
        "deltaTime": 6,
        "channel": 3,
        "type": "channel",
        "noteNumber": 79,
        "velocity": 98,
        "subtype": "noteOn"
      },
      {
        "deltaTime": 12,
        "channel": 3,
        "type": "channel",
        "noteNumber": 77,
        "velocity": 108,
        "subtype": "noteOn"
      },
      {
        "deltaTime": 806,
        "channel": 3,
        "type": "channel",
        "subtype": "noteOff",
        "noteNumber": 77,
        "velocity": 108
      },
      {
        "deltaTime": 16,
        "channel": 3,
        "type": "channel",
        "subtype": "noteOff",
        "noteNumber": 71,
        "velocity": 106
      },
      {
        "deltaTime": 14,
        "channel": 3,
        "type": "channel",
        "subtype": "noteOff",
        "noteNumber": 79,
        "velocity": 98
      },
      {
        "deltaTime": 156,
        "channel": 3,
        "type": "channel",
        "noteNumber": 71,
        "velocity": 100,
        "subtype": "noteOn"
      },
      {
        "deltaTime": 22,
        "channel": 3,
        "type": "channel",
        "noteNumber": 77,
        "velocity": 98,
        "subtype": "noteOn"
      },
      {
        "deltaTime": 0,
        "channel": 3,
        "type": "channel",
        "noteNumber": 79,
        "velocity": 93,
        "subtype": "noteOn"
      },
      {
        "deltaTime": 636,
        "channel": 3,
        "type": "channel",
        "subtype": "noteOff",
        "noteNumber": 77,
        "velocity": 98
      },
      {
        "deltaTime": 24,
        "channel": 3,
        "type": "channel",
        "subtype": "noteOff",
        "noteNumber": 79,
        "velocity": 93
      },
      {
        "deltaTime": 10,
        "channel": 3,
        "type": "channel",
        "subtype": "noteOff",
        "noteNumber": 71,
        "velocity": 100
      },
      {
        "deltaTime": 278,
        "channel": 3,
        "type": "channel",
        "noteNumber": 71,
        "velocity": 94,
        "subtype": "noteOn"
      },
      {
        "deltaTime": 26,
        "channel": 3,
        "type": "channel",
        "noteNumber": 79,
        "velocity": 93,
        "subtype": "noteOn"
      },
      {
        "deltaTime": 16,
        "channel": 3,
        "type": "channel",
        "noteNumber": 77,
        "velocity": 96,
        "subtype": "noteOn"
      },
      {
        "deltaTime": 260,
        "channel": 3,
        "type": "channel",
        "subtype": "noteOff",
        "noteNumber": 77,
        "velocity": 96
      },
      {
        "deltaTime": 32,
        "channel": 3,
        "type": "channel",
        "subtype": "noteOff",
        "noteNumber": 71,
        "velocity": 94
      },
      {
        "deltaTime": 20,
        "channel": 3,
        "type": "channel",
        "subtype": "noteOff",
        "noteNumber": 79,
        "velocity": 93
      },
      {
        "deltaTime": 250,
        "channel": 3,
        "type": "channel",
        "noteNumber": 71,
        "velocity": 103,
        "subtype": "noteOn"
      },
      {
        "deltaTime": 0,
        "channel": 3,
        "type": "channel",
        "noteNumber": 76,
        "velocity": 105,
        "subtype": "noteOn"
      },
      {
        "deltaTime": 10,
        "channel": 3,
        "type": "channel",
        "noteNumber": 79,
        "velocity": 95,
        "subtype": "noteOn"
      },
      {
        "deltaTime": 496,
        "channel": 3,
        "type": "channel",
        "subtype": "noteOff",
        "noteNumber": 71,
        "velocity": 103
      },
      {
        "deltaTime": 4,
        "channel": 3,
        "type": "channel",
        "subtype": "noteOff",
        "noteNumber": 76,
        "velocity": 105
      },
      {
        "deltaTime": 22,
        "channel": 3,
        "type": "channel",
        "subtype": "noteOff",
        "noteNumber": 79,
        "velocity": 95
      },
      {
        "deltaTime": 358,
        "channel": 3,
        "type": "channel",
        "noteNumber": 71,
        "velocity": 97,
        "subtype": "noteOn"
      },
      {
        "deltaTime": 26,
        "channel": 3,
        "type": "channel",
        "noteNumber": 76,
        "velocity": 100,
        "subtype": "noteOn"
      },
      {
        "deltaTime": 6,
        "channel": 3,
        "type": "channel",
        "noteNumber": 79,
        "velocity": 96,
        "subtype": "noteOn"
      },
      {
        "deltaTime": 286,
        "channel": 3,
        "type": "channel",
        "subtype": "noteOff",
        "noteNumber": 76,
        "velocity": 100
      },
      {
        "deltaTime": 6,
        "channel": 3,
        "type": "channel",
        "subtype": "noteOff",
        "noteNumber": 79,
        "velocity": 96
      },
      {
        "deltaTime": 16,
        "channel": 3,
        "type": "channel",
        "subtype": "noteOff",
        "noteNumber": 71,
        "velocity": 97
      },
      {
        "deltaTime": 208,
        "channel": 3,
        "type": "channel",
        "noteNumber": 71,
        "velocity": 96,
        "subtype": "noteOn"
      },
      {
        "deltaTime": 16,
        "channel": 3,
        "type": "channel",
        "noteNumber": 76,
        "velocity": 101,
        "subtype": "noteOn"
      },
      {
        "deltaTime": 4,
        "channel": 3,
        "type": "channel",
        "noteNumber": 79,
        "velocity": 94,
        "subtype": "noteOn"
      },
      {
        "deltaTime": 400,
        "channel": 3,
        "type": "channel",
        "subtype": "noteOff",
        "noteNumber": 76,
        "velocity": 101
      },
      {
        "deltaTime": 48,
        "channel": 3,
        "type": "channel",
        "subtype": "noteOff",
        "noteNumber": 79,
        "velocity": 94
      },
      {
        "deltaTime": 6,
        "channel": 3,
        "type": "channel",
        "subtype": "noteOff",
        "noteNumber": 71,
        "velocity": 96
      },
      {
        "deltaTime": 500,
        "channel": 3,
        "type": "channel",
        "noteNumber": 71,
        "velocity": 96,
        "subtype": "noteOn"
      },
      {
        "deltaTime": 4,
        "channel": 3,
        "type": "channel",
        "noteNumber": 76,
        "velocity": 102,
        "subtype": "noteOn"
      },
      {
        "deltaTime": 18,
        "channel": 3,
        "type": "channel",
        "noteNumber": 79,
        "velocity": 96,
        "subtype": "noteOn"
      },
      {
        "deltaTime": 534,
        "channel": 3,
        "type": "channel",
        "subtype": "noteOff",
        "noteNumber": 76,
        "velocity": 102
      },
      {
        "deltaTime": 12,
        "channel": 3,
        "type": "channel",
        "subtype": "noteOff",
        "noteNumber": 71,
        "velocity": 96
      },
      {
        "deltaTime": 92,
        "channel": 3,
        "type": "channel",
        "subtype": "noteOff",
        "noteNumber": 79,
        "velocity": 96
      },
      {
        "deltaTime": 386,
        "channel": 3,
        "type": "channel",
        "noteNumber": 75,
        "velocity": 102,
        "subtype": "noteOn"
      },
      {
        "deltaTime": 10,
        "channel": 3,
        "type": "channel",
        "noteNumber": 70,
        "velocity": 101,
        "subtype": "noteOn"
      },
      {
        "deltaTime": 12,
        "channel": 3,
        "type": "channel",
        "noteNumber": 79,
        "velocity": 97,
        "subtype": "noteOn"
      },
      {
        "deltaTime": 2228,
        "channel": 3,
        "type": "channel",
        "subtype": "noteOff",
        "noteNumber": 75,
        "velocity": 102
      },
      {
        "deltaTime": 52,
        "channel": 3,
        "type": "channel",
        "subtype": "noteOff",
        "noteNumber": 70,
        "velocity": 101
      },
      {
        "deltaTime": 0,
        "channel": 3,
        "type": "channel",
        "subtype": "noteOff",
        "noteNumber": 79,
        "velocity": 97
      },
      {
        "deltaTime": 2204,
        "channel": 3,
        "type": "channel",
        "noteNumber": 88,
        "velocity": 106,
        "subtype": "noteOn"
      },
      {
        "deltaTime": 0,
        "channel": 3,
        "type": "channel",
        "noteNumber": 86,
        "velocity": 101,
        "subtype": "noteOn"
      },
      {
        "deltaTime": 4,
        "channel": 3,
        "type": "channel",
        "noteNumber": 91,
        "velocity": 103,
        "subtype": "noteOn"
      },
      {
        "deltaTime": 268,
        "channel": 3,
        "type": "channel",
        "subtype": "noteOff",
        "noteNumber": 88,
        "velocity": 106
      },
      {
        "deltaTime": 4,
        "channel": 3,
        "type": "channel",
        "subtype": "noteOff",
        "noteNumber": 91,
        "velocity": 103
      },
      {
        "deltaTime": 20,
        "channel": 3,
        "type": "channel",
        "subtype": "noteOff",
        "noteNumber": 86,
        "velocity": 101
      },
      {
        "deltaTime": 704,
        "channel": 3,
        "type": "channel",
        "noteNumber": 88,
        "velocity": 103,
        "subtype": "noteOn"
      },
      {
        "deltaTime": 0,
        "channel": 3,
        "type": "channel",
        "noteNumber": 86,
        "velocity": 98,
        "subtype": "noteOn"
      },
      {
        "deltaTime": 4,
        "channel": 3,
        "type": "channel",
        "noteNumber": 91,
        "velocity": 102,
        "subtype": "noteOn"
      },
      {
        "deltaTime": 194,
        "channel": 3,
        "type": "channel",
        "subtype": "noteOff",
        "noteNumber": 88,
        "velocity": 103
      },
      {
        "deltaTime": 10,
        "channel": 3,
        "type": "channel",
        "subtype": "noteOff",
        "noteNumber": 91,
        "velocity": 102
      },
      {
        "deltaTime": 4,
        "channel": 3,
        "type": "channel",
        "subtype": "noteOff",
        "noteNumber": 86,
        "velocity": 98
      },
      {
        "deltaTime": 246,
        "channel": 3,
        "type": "channel",
        "noteNumber": 86,
        "velocity": 101,
        "subtype": "noteOn"
      },
      {
        "deltaTime": 4,
        "channel": 3,
        "type": "channel",
        "noteNumber": 88,
        "velocity": 106,
        "subtype": "noteOn"
      },
      {
        "deltaTime": 28,
        "channel": 3,
        "type": "channel",
        "noteNumber": 91,
        "velocity": 103,
        "subtype": "noteOn"
      },
      {
        "deltaTime": 212,
        "channel": 3,
        "type": "channel",
        "subtype": "noteOff",
        "noteNumber": 88,
        "velocity": 106
      },
      {
        "deltaTime": 18,
        "channel": 3,
        "type": "channel",
        "subtype": "noteOff",
        "noteNumber": 91,
        "velocity": 103
      },
      {
        "deltaTime": 10,
        "channel": 3,
        "type": "channel",
        "subtype": "noteOff",
        "noteNumber": 86,
        "velocity": 101
      },
      {
        "deltaTime": 740,
        "channel": 3,
        "type": "channel",
        "noteNumber": 86,
        "velocity": 101,
        "subtype": "noteOn"
      },
      {
        "deltaTime": 4,
        "channel": 3,
        "type": "channel",
        "noteNumber": 88,
        "velocity": 113,
        "subtype": "noteOn"
      },
      {
        "deltaTime": 10,
        "channel": 3,
        "type": "channel",
        "noteNumber": 91,
        "velocity": 108,
        "subtype": "noteOn"
      },
      {
        "deltaTime": 246,
        "channel": 3,
        "type": "channel",
        "subtype": "noteOff",
        "noteNumber": 88,
        "velocity": 113
      },
      {
        "deltaTime": 4,
        "channel": 3,
        "type": "channel",
        "subtype": "noteOff",
        "noteNumber": 86,
        "velocity": 101
      },
      {
        "deltaTime": 6,
        "channel": 3,
        "type": "channel",
        "subtype": "noteOff",
        "noteNumber": 91,
        "velocity": 108
      },
      {
        "deltaTime": 712,
        "channel": 3,
        "type": "channel",
        "noteNumber": 87,
        "velocity": 97,
        "subtype": "noteOn"
      },
      {
        "deltaTime": 10,
        "channel": 3,
        "type": "channel",
        "noteNumber": 91,
        "velocity": 89,
        "subtype": "noteOn"
      },
      {
        "deltaTime": 28,
        "channel": 3,
        "type": "channel",
        "noteNumber": 85,
        "velocity": 98,
        "subtype": "noteOn"
      },
      {
        "deltaTime": 286,
        "channel": 3,
        "type": "channel",
        "subtype": "noteOff",
        "noteNumber": 85,
        "velocity": 98
      },
      {
        "deltaTime": 20,
        "channel": 3,
        "type": "channel",
        "subtype": "noteOff",
        "noteNumber": 87,
        "velocity": 97
      },
      {
        "deltaTime": 26,
        "channel": 3,
        "type": "channel",
        "subtype": "noteOff",
        "noteNumber": 91,
        "velocity": 89
      },
      {
        "deltaTime": 640,
        "channel": 3,
        "type": "channel",
        "noteNumber": 87,
        "velocity": 103,
        "subtype": "noteOn"
      },
      {
        "deltaTime": 0,
        "channel": 3,
        "type": "channel",
        "noteNumber": 91,
        "velocity": 96,
        "subtype": "noteOn"
      },
      {
        "deltaTime": 8,
        "channel": 3,
        "type": "channel",
        "noteNumber": 85,
        "velocity": 102,
        "subtype": "noteOn"
      },
      {
        "deltaTime": 290,
        "channel": 3,
        "type": "channel",
        "subtype": "noteOff",
        "noteNumber": 87,
        "velocity": 103
      },
      {
        "deltaTime": 12,
        "channel": 3,
        "type": "channel",
        "subtype": "noteOff",
        "noteNumber": 91,
        "velocity": 96
      },
      {
        "deltaTime": 4,
        "channel": 3,
        "type": "channel",
        "subtype": "noteOff",
        "noteNumber": 85,
        "velocity": 102
      },
      {
        "deltaTime": 634,
        "channel": 3,
        "type": "channel",
        "noteNumber": 87,
        "velocity": 100,
        "subtype": "noteOn"
      },
      {
        "deltaTime": 0,
        "channel": 3,
        "type": "channel",
        "noteNumber": 85,
        "velocity": 98,
        "subtype": "noteOn"
      },
      {
        "deltaTime": 6,
        "channel": 3,
        "type": "channel",
        "noteNumber": 91,
        "velocity": 94,
        "subtype": "noteOn"
      },
      {
        "deltaTime": 228,
        "channel": 3,
        "type": "channel",
        "subtype": "noteOff",
        "noteNumber": 87,
        "velocity": 100
      },
      {
        "deltaTime": 10,
        "channel": 3,
        "type": "channel",
        "subtype": "noteOff",
        "noteNumber": 91,
        "velocity": 94
      },
      {
        "deltaTime": 6,
        "channel": 3,
        "type": "channel",
        "subtype": "noteOff",
        "noteNumber": 85,
        "velocity": 98
      },
      {
        "deltaTime": 214,
        "channel": 3,
        "type": "channel",
        "noteNumber": 85,
        "velocity": 88,
        "subtype": "noteOn"
      },
      {
        "deltaTime": 16,
        "channel": 3,
        "type": "channel",
        "noteNumber": 87,
        "velocity": 94,
        "subtype": "noteOn"
      },
      {
        "deltaTime": 0,
        "channel": 3,
        "type": "channel",
        "noteNumber": 91,
        "velocity": 86,
        "subtype": "noteOn"
      },
      {
        "deltaTime": 250,
        "channel": 3,
        "type": "channel",
        "subtype": "noteOff",
        "noteNumber": 87,
        "velocity": 94
      },
      {
        "deltaTime": 14,
        "channel": 3,
        "type": "channel",
        "subtype": "noteOff",
        "noteNumber": 91,
        "velocity": 86
      },
      {
        "deltaTime": 22,
        "channel": 3,
        "type": "channel",
        "subtype": "noteOff",
        "noteNumber": 85,
        "velocity": 88
      },
      {
        "deltaTime": 656,
        "channel": 3,
        "type": "channel",
        "noteNumber": 91,
        "velocity": 96,
        "subtype": "noteOn"
      },
      {
        "deltaTime": 6,
        "channel": 3,
        "type": "channel",
        "noteNumber": 84,
        "velocity": 101,
        "subtype": "noteOn"
      },
      {
        "deltaTime": 10,
        "channel": 3,
        "type": "channel",
        "noteNumber": 86,
        "velocity": 102,
        "subtype": "noteOn"
      },
      {
        "deltaTime": 642,
        "channel": 3,
        "type": "channel",
        "subtype": "noteOff",
        "noteNumber": 86,
        "velocity": 102
      },
      {
        "deltaTime": 14,
        "channel": 3,
        "type": "channel",
        "subtype": "noteOff",
        "noteNumber": 84,
        "velocity": 101
      },
      {
        "deltaTime": 52,
        "channel": 3,
        "type": "channel",
        "subtype": "noteOff",
        "noteNumber": 91,
        "velocity": 96
      },
      {
        "deltaTime": 1418,
        "channel": 3,
        "type": "channel",
        "noteNumber": 86,
        "velocity": 101,
        "subtype": "noteOn"
      },
      {
        "deltaTime": 0,
        "channel": 3,
        "type": "channel",
        "noteNumber": 84,
        "velocity": 98,
        "subtype": "noteOn"
      },
      {
        "deltaTime": 6,
        "channel": 3,
        "type": "channel",
        "noteNumber": 91,
        "velocity": 98,
        "subtype": "noteOn"
      },
      {
        "deltaTime": 202,
        "channel": 3,
        "type": "channel",
        "subtype": "noteOff",
        "noteNumber": 91,
        "velocity": 98
      },
      {
        "deltaTime": 4,
        "channel": 3,
        "type": "channel",
        "subtype": "noteOff",
        "noteNumber": 86,
        "velocity": 101
      },
      {
        "deltaTime": 26,
        "channel": 3,
        "type": "channel",
        "subtype": "noteOff",
        "noteNumber": 84,
        "velocity": 98
      },
      {
        "deltaTime": 220,
        "channel": 3,
        "type": "channel",
        "noteNumber": 84,
        "velocity": 102,
        "subtype": "noteOn"
      },
      {
        "deltaTime": 10,
        "channel": 3,
        "type": "channel",
        "noteNumber": 86,
        "velocity": 105,
        "subtype": "noteOn"
      },
      {
        "deltaTime": 10,
        "channel": 3,
        "type": "channel",
        "noteNumber": 91,
        "velocity": 102,
        "subtype": "noteOn"
      },
      {
        "deltaTime": 288,
        "channel": 3,
        "type": "channel",
        "subtype": "noteOff",
        "noteNumber": 86,
        "velocity": 105
      },
      {
        "deltaTime": 4,
        "channel": 3,
        "type": "channel",
        "subtype": "noteOff",
        "noteNumber": 91,
        "velocity": 102
      },
      {
        "deltaTime": 6,
        "channel": 3,
        "type": "channel",
        "subtype": "noteOff",
        "noteNumber": 84,
        "velocity": 102
      },
      {
        "deltaTime": 666,
        "channel": 3,
        "type": "channel",
        "noteNumber": 84,
        "velocity": 103,
        "subtype": "noteOn"
      },
      {
        "deltaTime": 6,
        "channel": 3,
        "type": "channel",
        "noteNumber": 91,
        "velocity": 105,
        "subtype": "noteOn"
      },
      {
        "deltaTime": 0,
        "channel": 3,
        "type": "channel",
        "noteNumber": 86,
        "velocity": 110,
        "subtype": "noteOn"
      },
      {
        "deltaTime": 308,
        "channel": 3,
        "type": "channel",
        "subtype": "noteOff",
        "noteNumber": 91,
        "velocity": 105
      },
      {
        "deltaTime": 10,
        "channel": 3,
        "type": "channel",
        "subtype": "noteOff",
        "noteNumber": 86,
        "velocity": 110
      },
      {
        "deltaTime": 4,
        "channel": 3,
        "type": "channel",
        "subtype": "noteOff",
        "noteNumber": 84,
        "velocity": 103
      },
      {
        "deltaTime": 666,
        "channel": 3,
        "type": "channel",
        "noteNumber": 83,
        "velocity": 113,
        "subtype": "noteOn"
      },
      {
        "deltaTime": 6,
        "channel": 3,
        "type": "channel",
        "noteNumber": 86,
        "velocity": 117,
        "subtype": "noteOn"
      },
      {
        "deltaTime": 10,
        "channel": 3,
        "type": "channel",
        "noteNumber": 91,
        "velocity": 117,
        "subtype": "noteOn"
      },
      {
        "deltaTime": 422,
        "channel": 3,
        "type": "channel",
        "subtype": "noteOff",
        "noteNumber": 86,
        "velocity": 117
      },
      {
        "deltaTime": 22,
        "channel": 3,
        "type": "channel",
        "subtype": "noteOff",
        "noteNumber": 91,
        "velocity": 117
      },
      {
        "deltaTime": 30,
        "channel": 3,
        "type": "channel",
        "subtype": "noteOff",
        "noteNumber": 83,
        "velocity": 113
      },
      {
        "deltaTime": 0,
        "type": "meta",
        "subtype": "endOfTrack"
      }
    ],
    [
      {
        "deltaTime": 0,
        "type": "meta",
        "subtype": "trackName",
        "text": "Instrumento Midi"
      },
      {
        "deltaTime": 39958,
        "channel": 4,
        "type": "channel",
        "noteNumber": 60,
        "velocity": 94,
        "subtype": "noteOn"
      },
      {
        "deltaTime": 4000,
        "channel": 4,
        "type": "channel",
        "subtype": "noteOff",
        "noteNumber": 60,
        "velocity": 94
      },
      {
        "deltaTime": 70,
        "channel": 4,
        "type": "channel",
        "noteNumber": 59,
        "velocity": 100,
        "subtype": "noteOn"
      },
      {
        "deltaTime": 3972,
        "channel": 4,
        "type": "channel",
        "subtype": "noteOff",
        "noteNumber": 59,
        "velocity": 100
      },
      {
        "deltaTime": 28,
        "channel": 4,
        "type": "channel",
        "noteNumber": 59,
        "velocity": 98,
        "subtype": "noteOn"
      },
      {
        "deltaTime": 2472,
        "channel": 4,
        "type": "channel",
        "noteNumber": 58,
        "velocity": 87,
        "subtype": "noteOn"
      },
      {
        "deltaTime": 28,
        "channel": 4,
        "type": "channel",
        "subtype": "noteOff",
        "noteNumber": 59,
        "velocity": 98
      },
      {
        "deltaTime": 1472,
        "channel": 4,
        "type": "channel",
        "subtype": "noteOff",
        "noteNumber": 58,
        "velocity": 87
      },
      {
        "deltaTime": 0,
        "channel": 4,
        "type": "channel",
        "noteNumber": 57,
        "velocity": 92,
        "subtype": "noteOn"
      },
      {
        "deltaTime": 3850,
        "channel": 4,
        "type": "channel",
        "subtype": "noteOff",
        "noteNumber": 57,
        "velocity": 92
      },
      {
        "deltaTime": 16150,
        "channel": 4,
        "type": "channel",
        "noteNumber": 82,
        "velocity": 22,
        "subtype": "noteOn"
      },
      {
        "deltaTime": 0,
        "channel": 4,
        "type": "channel",
        "noteNumber": 87,
        "velocity": 38,
        "subtype": "noteOn"
      },
      {
        "deltaTime": 4000,
        "channel": 4,
        "type": "channel",
        "subtype": "noteOff",
        "noteNumber": 82,
        "velocity": 22
      },
      {
        "deltaTime": 0,
        "channel": 4,
        "type": "channel",
        "subtype": "noteOff",
        "noteNumber": 87,
        "velocity": 38
      },
      {
        "deltaTime": 0,
        "channel": 4,
        "type": "channel",
        "noteNumber": 81,
        "velocity": 22,
        "subtype": "noteOn"
      },
      {
        "deltaTime": 0,
        "channel": 4,
        "type": "channel",
        "noteNumber": 86,
        "velocity": 38,
        "subtype": "noteOn"
      },
      {
        "deltaTime": 4000,
        "channel": 4,
        "type": "channel",
        "subtype": "noteOff",
        "noteNumber": 81,
        "velocity": 22
      },
      {
        "deltaTime": 0,
        "channel": 4,
        "type": "channel",
        "subtype": "noteOff",
        "noteNumber": 86,
        "velocity": 38
      },
      {
        "deltaTime": 0,
        "channel": 4,
        "type": "channel",
        "noteNumber": 81,
        "velocity": 31,
        "subtype": "noteOn"
      },
      {
        "deltaTime": 0,
        "channel": 4,
        "type": "channel",
        "noteNumber": 86,
        "velocity": 32,
        "subtype": "noteOn"
      },
      {
        "deltaTime": 62,
        "channel": 4,
        "type": "channel",
        "noteNumber": 57,
        "velocity": 92,
        "subtype": "noteOn"
      },
      {
        "deltaTime": 6,
        "channel": 4,
        "type": "channel",
        "noteNumber": 60,
        "velocity": 94,
        "subtype": "noteOn"
      },
      {
        "deltaTime": 1262,
        "channel": 4,
        "type": "channel",
        "subtype": "noteOff",
        "noteNumber": 57,
        "velocity": 92
      },
      {
        "deltaTime": 108,
        "channel": 4,
        "type": "channel",
        "subtype": "noteOff",
        "noteNumber": 60,
        "velocity": 94
      },
      {
        "deltaTime": 120,
        "channel": 4,
        "type": "channel",
        "noteNumber": 55,
        "velocity": 94,
        "subtype": "noteOn"
      },
      {
        "deltaTime": 0,
        "channel": 4,
        "type": "channel",
        "noteNumber": 58,
        "velocity": 103,
        "subtype": "noteOn"
      },
      {
        "deltaTime": 442,
        "channel": 4,
        "type": "channel",
        "noteNumber": 84,
        "velocity": 28,
        "subtype": "noteOn"
      },
      {
        "deltaTime": 84,
        "channel": 4,
        "type": "channel",
        "subtype": "noteOff",
        "noteNumber": 81,
        "velocity": 31
      },
      {
        "deltaTime": 1582,
        "channel": 4,
        "type": "channel",
        "subtype": "noteOff",
        "noteNumber": 55,
        "velocity": 94
      },
      {
        "deltaTime": 4,
        "channel": 4,
        "type": "channel",
        "subtype": "noteOff",
        "noteNumber": 58,
        "velocity": 103
      },
      {
        "deltaTime": 246,
        "channel": 4,
        "type": "channel",
        "subtype": "noteOff",
        "noteNumber": 86,
        "velocity": 32
      },
      {
        "deltaTime": 0,
        "channel": 4,
        "type": "channel",
        "subtype": "noteOff",
        "noteNumber": 84,
        "velocity": 28
      },
      {
        "deltaTime": 84,
        "channel": 4,
        "type": "channel",
        "noteNumber": 79,
        "velocity": 22,
        "subtype": "noteOn"
      },
      {
        "deltaTime": 0,
        "channel": 4,
        "type": "channel",
        "noteNumber": 86,
        "velocity": 38,
        "subtype": "noteOn"
      },
      {
        "deltaTime": 52,
        "channel": 4,
        "type": "channel",
        "noteNumber": 57,
        "velocity": 98,
        "subtype": "noteOn"
      },
      {
        "deltaTime": 0,
        "channel": 4,
        "type": "channel",
        "noteNumber": 60,
        "velocity": 100,
        "subtype": "noteOn"
      },
      {
        "deltaTime": 1308,
        "channel": 4,
        "type": "channel",
        "subtype": "noteOff",
        "noteNumber": 57,
        "velocity": 98
      },
      {
        "deltaTime": 72,
        "channel": 4,
        "type": "channel",
        "subtype": "noteOff",
        "noteNumber": 60,
        "velocity": 100
      },
      {
        "deltaTime": 178,
        "channel": 4,
        "type": "channel",
        "noteNumber": 55,
        "velocity": 95,
        "subtype": "noteOn"
      },
      {
        "deltaTime": 10,
        "channel": 4,
        "type": "channel",
        "noteNumber": 58,
        "velocity": 103,
        "subtype": "noteOn"
      },
      {
        "deltaTime": 1828,
        "channel": 4,
        "type": "channel",
        "subtype": "noteOff",
        "noteNumber": 58,
        "velocity": 103
      },
      {
        "deltaTime": 68,
        "channel": 4,
        "type": "channel",
        "subtype": "noteOff",
        "noteNumber": 55,
        "velocity": 95
      },
      {
        "deltaTime": 484,
        "channel": 4,
        "type": "channel",
        "subtype": "noteOff",
        "noteNumber": 79,
        "velocity": 22
      },
      {
        "deltaTime": 0,
        "channel": 4,
        "type": "channel",
        "subtype": "noteOff",
        "noteNumber": 86,
        "velocity": 38
      },
      {
        "deltaTime": 0,
        "channel": 4,
        "type": "channel",
        "noteNumber": 80,
        "velocity": 31,
        "subtype": "noteOn"
      },
      {
        "deltaTime": 0,
        "channel": 4,
        "type": "channel",
        "noteNumber": 85,
        "velocity": 32,
        "subtype": "noteOn"
      },
      {
        "deltaTime": 2000,
        "channel": 4,
        "type": "channel",
        "noteNumber": 82,
        "velocity": 28,
        "subtype": "noteOn"
      },
      {
        "deltaTime": 84,
        "channel": 4,
        "type": "channel",
        "subtype": "noteOff",
        "noteNumber": 80,
        "velocity": 31
      },
      {
        "deltaTime": 1832,
        "channel": 4,
        "type": "channel",
        "subtype": "noteOff",
        "noteNumber": 85,
        "velocity": 32
      },
      {
        "deltaTime": 0,
        "channel": 4,
        "type": "channel",
        "subtype": "noteOff",
        "noteNumber": 82,
        "velocity": 28
      },
      {
        "deltaTime": 84,
        "channel": 4,
        "type": "channel",
        "noteNumber": 87,
        "velocity": 37,
        "subtype": "noteOn"
      },
      {
        "deltaTime": 0,
        "channel": 4,
        "type": "channel",
        "noteNumber": 84,
        "velocity": 24,
        "subtype": "noteOn"
      },
      {
        "deltaTime": 4000,
        "channel": 4,
        "type": "channel",
        "subtype": "noteOff",
        "noteNumber": 87,
        "velocity": 37
      },
      {
        "deltaTime": 0,
        "channel": 4,
        "type": "channel",
        "subtype": "noteOff",
        "noteNumber": 84,
        "velocity": 24
      },
      {
        "deltaTime": 0,
        "channel": 4,
        "type": "channel",
        "noteNumber": 58,
        "velocity": 94,
        "subtype": "noteOn"
      },
      {
        "deltaTime": 0,
        "channel": 4,
        "type": "channel",
        "noteNumber": 96,
        "velocity": 32,
        "subtype": "noteOn"
      },
      {
        "deltaTime": 0,
        "channel": 4,
        "type": "channel",
        "noteNumber": 91,
        "velocity": 28,
        "subtype": "noteOn"
      },
      {
        "deltaTime": 20,
        "channel": 4,
        "type": "channel",
        "noteNumber": 55,
        "velocity": 101,
        "subtype": "noteOn"
      },
      {
        "deltaTime": 1262,
        "channel": 4,
        "type": "channel",
        "subtype": "noteOff",
        "noteNumber": 58,
        "velocity": 94
      },
      {
        "deltaTime": 26,
        "channel": 4,
        "type": "channel",
        "subtype": "noteOff",
        "noteNumber": 55,
        "velocity": 101
      },
      {
        "deltaTime": 276,
        "channel": 4,
        "type": "channel",
        "noteNumber": 56,
        "velocity": 87,
        "subtype": "noteOn"
      },
      {
        "deltaTime": 26,
        "channel": 4,
        "type": "channel",
        "noteNumber": 53,
        "velocity": 100,
        "subtype": "noteOn"
      },
      {
        "deltaTime": 1474,
        "channel": 4,
        "type": "channel",
        "subtype": "noteOff",
        "noteNumber": 53,
        "velocity": 100
      },
      {
        "deltaTime": 66,
        "channel": 4,
        "type": "channel",
        "subtype": "noteOff",
        "noteNumber": 56,
        "velocity": 87
      },
      {
        "deltaTime": 850,
        "channel": 4,
        "type": "channel",
        "subtype": "noteOff",
        "noteNumber": 96,
        "velocity": 32
      },
      {
        "deltaTime": 0,
        "channel": 4,
        "type": "channel",
        "subtype": "noteOff",
        "noteNumber": 91,
        "velocity": 28
      },
      {
        "deltaTime": 0,
        "channel": 4,
        "type": "channel",
        "noteNumber": 84,
        "velocity": 22,
        "subtype": "noteOn"
      },
      {
        "deltaTime": 0,
        "channel": 4,
        "type": "channel",
        "noteNumber": 90,
        "velocity": 38,
        "subtype": "noteOn"
      },
      {
        "deltaTime": 100,
        "channel": 4,
        "type": "channel",
        "noteNumber": 56,
        "velocity": 98,
        "subtype": "noteOn"
      },
      {
        "deltaTime": 10,
        "channel": 4,
        "type": "channel",
        "noteNumber": 60,
        "velocity": 101,
        "subtype": "noteOn"
      },
      {
        "deltaTime": 1156,
        "channel": 4,
        "type": "channel",
        "subtype": "noteOff",
        "noteNumber": 56,
        "velocity": 98
      },
      {
        "deltaTime": 182,
        "channel": 4,
        "type": "channel",
        "subtype": "noteOff",
        "noteNumber": 60,
        "velocity": 101
      },
      {
        "deltaTime": 172,
        "channel": 4,
        "type": "channel",
        "noteNumber": 55,
        "velocity": 97,
        "subtype": "noteOn"
      },
      {
        "deltaTime": 36,
        "channel": 4,
        "type": "channel",
        "noteNumber": 59,
        "velocity": 110,
        "subtype": "noteOn"
      },
      {
        "deltaTime": 1056,
        "channel": 4,
        "type": "channel",
        "subtype": "noteOff",
        "noteNumber": 59,
        "velocity": 110
      },
      {
        "deltaTime": 12,
        "channel": 4,
        "type": "channel",
        "subtype": "noteOff",
        "noteNumber": 55,
        "velocity": 97
      },
      {
        "deltaTime": 1276,
        "channel": 4,
        "type": "channel",
        "subtype": "noteOff",
        "noteNumber": 84,
        "velocity": 22
      },
      {
        "deltaTime": 0,
        "channel": 4,
        "type": "channel",
        "subtype": "noteOff",
        "noteNumber": 90,
        "velocity": 38
      },
      {
        "deltaTime": 0,
        "channel": 4,
        "type": "channel",
        "noteNumber": 81,
        "velocity": 31,
        "subtype": "noteOn"
      },
      {
        "deltaTime": 0,
        "channel": 4,
        "type": "channel",
        "noteNumber": 86,
        "velocity": 32,
        "subtype": "noteOn"
      },
      {
        "deltaTime": 2000,
        "channel": 4,
        "type": "channel",
        "noteNumber": 83,
        "velocity": 28,
        "subtype": "noteOn"
      },
      {
        "deltaTime": 84,
        "channel": 4,
        "type": "channel",
        "subtype": "noteOff",
        "noteNumber": 81,
        "velocity": 31
      },
      {
        "deltaTime": 1832,
        "channel": 4,
        "type": "channel",
        "subtype": "noteOff",
        "noteNumber": 86,
        "velocity": 32
      },
      {
        "deltaTime": 0,
        "channel": 4,
        "type": "channel",
        "subtype": "noteOff",
        "noteNumber": 83,
        "velocity": 28
      },
      {
        "deltaTime": 84,
        "channel": 4,
        "type": "channel",
        "noteNumber": 80,
        "velocity": 22,
        "subtype": "noteOn"
      },
      {
        "deltaTime": 0,
        "channel": 4,
        "type": "channel",
        "noteNumber": 86,
        "velocity": 38,
        "subtype": "noteOn"
      },
      {
        "deltaTime": 4000,
        "channel": 4,
        "type": "channel",
        "subtype": "noteOff",
        "noteNumber": 80,
        "velocity": 22
      },
      {
        "deltaTime": 0,
        "channel": 4,
        "type": "channel",
        "subtype": "noteOff",
        "noteNumber": 86,
        "velocity": 38
      },
      {
        "deltaTime": 0,
        "channel": 4,
        "type": "channel",
        "noteNumber": 79,
        "velocity": 31,
        "subtype": "noteOn"
      },
      {
        "deltaTime": 0,
        "channel": 4,
        "type": "channel",
        "noteNumber": 84,
        "velocity": 32,
        "subtype": "noteOn"
      },
      {
        "deltaTime": 2000,
        "channel": 4,
        "type": "channel",
        "noteNumber": 81,
        "velocity": 28,
        "subtype": "noteOn"
      },
      {
        "deltaTime": 84,
        "channel": 4,
        "type": "channel",
        "subtype": "noteOff",
        "noteNumber": 79,
        "velocity": 31
      },
      {
        "deltaTime": 1832,
        "channel": 4,
        "type": "channel",
        "subtype": "noteOff",
        "noteNumber": 84,
        "velocity": 32
      },
      {
        "deltaTime": 0,
        "channel": 4,
        "type": "channel",
        "subtype": "noteOff",
        "noteNumber": 81,
        "velocity": 28
      },
      {
        "deltaTime": 84,
        "channel": 4,
        "type": "channel",
        "noteNumber": 84,
        "velocity": 22,
        "subtype": "noteOn"
      },
      {
        "deltaTime": 0,
        "channel": 4,
        "type": "channel",
        "noteNumber": 90,
        "velocity": 38,
        "subtype": "noteOn"
      },
      {
        "deltaTime": 4000,
        "channel": 4,
        "type": "channel",
        "subtype": "noteOff",
        "noteNumber": 84,
        "velocity": 22
      },
      {
        "deltaTime": 0,
        "channel": 4,
        "type": "channel",
        "subtype": "noteOff",
        "noteNumber": 90,
        "velocity": 38
      },
      {
        "deltaTime": 0,
        "channel": 4,
        "type": "channel",
        "noteNumber": 93,
        "velocity": 32,
        "subtype": "noteOn"
      },
      {
        "deltaTime": 0,
        "channel": 4,
        "type": "channel",
        "noteNumber": 86,
        "velocity": 28,
        "subtype": "noteOn"
      },
      {
        "deltaTime": 28,
        "channel": 4,
        "type": "channel",
        "noteNumber": 74,
        "velocity": 102,
        "subtype": "noteOn"
      },
      {
        "deltaTime": 3972,
        "channel": 4,
        "type": "channel",
        "subtype": "noteOff",
        "noteNumber": 93,
        "velocity": 32
      },
      {
        "deltaTime": 0,
        "channel": 4,
        "type": "channel",
        "subtype": "noteOff",
        "noteNumber": 86,
        "velocity": 28
      },
      {
        "deltaTime": 0,
        "channel": 4,
        "type": "channel",
        "noteNumber": 92,
        "velocity": 32,
        "subtype": "noteOn"
      },
      {
        "deltaTime": 0,
        "channel": 4,
        "type": "channel",
        "noteNumber": 86,
        "velocity": 28,
        "subtype": "noteOn"
      },
      {
        "deltaTime": 20,
        "channel": 4,
        "type": "channel",
        "noteNumber": 79,
        "velocity": 105,
        "subtype": "noteOn"
      },
      {
        "deltaTime": 120,
        "channel": 4,
        "type": "channel",
        "subtype": "noteOff",
        "noteNumber": 74,
        "velocity": 102
      },
      {
        "deltaTime": 2818,
        "channel": 4,
        "type": "channel",
        "noteNumber": 82,
        "velocity": 103,
        "subtype": "noteOn"
      },
      {
        "deltaTime": 100,
        "channel": 4,
        "type": "channel",
        "subtype": "noteOff",
        "noteNumber": 79,
        "velocity": 105
      },
      {
        "deltaTime": 880,
        "channel": 4,
        "type": "channel",
        "noteNumber": 83,
        "velocity": 101,
        "subtype": "noteOn"
      },
      {
        "deltaTime": 62,
        "channel": 4,
        "type": "channel",
        "subtype": "noteOff",
        "noteNumber": 92,
        "velocity": 32
      },
      {
        "deltaTime": 0,
        "channel": 4,
        "type": "channel",
        "subtype": "noteOff",
        "noteNumber": 86,
        "velocity": 28
      },
      {
        "deltaTime": 0,
        "channel": 4,
        "type": "channel",
        "subtype": "noteOff",
        "noteNumber": 82,
        "velocity": 103
      },
      {
        "deltaTime": 0,
        "channel": 4,
        "type": "channel",
        "noteNumber": 91,
        "velocity": 32,
        "subtype": "noteOn"
      },
      {
        "deltaTime": 0,
        "channel": 4,
        "type": "channel",
        "noteNumber": 84,
        "velocity": 28,
        "subtype": "noteOn"
      },
      {
        "deltaTime": 4000,
        "channel": 4,
        "type": "channel",
        "subtype": "noteOff",
        "noteNumber": 91,
        "velocity": 32
      },
      {
        "deltaTime": 0,
        "channel": 4,
        "type": "channel",
        "subtype": "noteOff",
        "noteNumber": 84,
        "velocity": 28
      },
      {
        "deltaTime": 48,
        "channel": 4,
        "type": "channel",
        "noteNumber": 84,
        "velocity": 108,
        "subtype": "noteOn"
      },
      {
        "deltaTime": 78,
        "channel": 4,
        "type": "channel",
        "subtype": "noteOff",
        "noteNumber": 83,
        "velocity": 101
      },
      {
        "deltaTime": 3874,
        "channel": 4,
        "type": "channel",
        "noteNumber": 83,
        "velocity": 22,
        "subtype": "noteOn"
      },
      {
        "deltaTime": 4000,
        "channel": 4,
        "type": "channel",
        "subtype": "noteOff",
        "noteNumber": 83,
        "velocity": 22
      },
      {
        "deltaTime": 0,
        "channel": 4,
        "type": "channel",
        "noteNumber": 95,
        "velocity": 32,
        "subtype": "noteOn"
      },
      {
        "deltaTime": 0,
        "channel": 4,
        "type": "channel",
        "noteNumber": 89,
        "velocity": 28,
        "subtype": "noteOn"
      },
      {
        "deltaTime": 6,
        "channel": 4,
        "type": "channel",
        "noteNumber": 83,
        "velocity": 110,
        "subtype": "noteOn"
      },
      {
        "deltaTime": 134,
        "channel": 4,
        "type": "channel",
        "subtype": "noteOff",
        "noteNumber": 84,
        "velocity": 108
      },
      {
        "deltaTime": 3860,
        "channel": 4,
        "type": "channel",
        "subtype": "noteOff",
        "noteNumber": 95,
        "velocity": 32
      },
      {
        "deltaTime": 0,
        "channel": 4,
        "type": "channel",
        "subtype": "noteOff",
        "noteNumber": 89,
        "velocity": 28
      },
      {
        "deltaTime": 0,
        "channel": 4,
        "type": "channel",
        "subtype": "noteOff",
        "noteNumber": 83,
        "velocity": 110
      },
      {
        "deltaTime": 0,
        "channel": 4,
        "type": "channel",
        "noteNumber": 86,
        "velocity": 98,
        "subtype": "noteOn"
      },
      {
        "deltaTime": 0,
        "channel": 4,
        "type": "channel",
        "noteNumber": 83,
        "velocity": 22,
        "subtype": "noteOn"
      },
      {
        "deltaTime": 0,
        "channel": 4,
        "type": "channel",
        "noteNumber": 88,
        "velocity": 38,
        "subtype": "noteOn"
      },
      {
        "deltaTime": 4000,
        "channel": 4,
        "type": "channel",
        "subtype": "noteOff",
        "noteNumber": 86,
        "velocity": 98
      },
      {
        "deltaTime": 0,
        "channel": 4,
        "type": "channel",
        "subtype": "noteOff",
        "noteNumber": 83,
        "velocity": 22
      },
      {
        "deltaTime": 0,
        "channel": 4,
        "type": "channel",
        "subtype": "noteOff",
        "noteNumber": 88,
        "velocity": 38
      },
      {
        "deltaTime": 0,
        "channel": 4,
        "type": "channel",
        "noteNumber": 84,
        "velocity": 103,
        "subtype": "noteOn"
      },
      {
        "deltaTime": 0,
        "channel": 4,
        "type": "channel",
        "noteNumber": 91,
        "velocity": 37,
        "subtype": "noteOn"
      },
      {
        "deltaTime": 0,
        "channel": 4,
        "type": "channel",
        "noteNumber": 87,
        "velocity": 24,
        "subtype": "noteOn"
      },
      {
        "deltaTime": 4000,
        "channel": 4,
        "type": "channel",
        "subtype": "noteOff",
        "noteNumber": 84,
        "velocity": 103
      },
      {
        "deltaTime": 0,
        "channel": 4,
        "type": "channel",
        "subtype": "noteOff",
        "noteNumber": 91,
        "velocity": 37
      },
      {
        "deltaTime": 0,
        "channel": 4,
        "type": "channel",
        "subtype": "noteOff",
        "noteNumber": 87,
        "velocity": 24
      },
      {
        "deltaTime": 0,
        "channel": 4,
        "type": "channel",
        "noteNumber": 90,
        "velocity": 37,
        "subtype": "noteOn"
      },
      {
        "deltaTime": 0,
        "channel": 4,
        "type": "channel",
        "noteNumber": 86,
        "velocity": 24,
        "subtype": "noteOn"
      },
      {
        "deltaTime": 4000,
        "channel": 4,
        "type": "channel",
        "subtype": "noteOff",
        "noteNumber": 90,
        "velocity": 37
      },
      {
        "deltaTime": 0,
        "channel": 4,
        "type": "channel",
        "subtype": "noteOff",
        "noteNumber": 86,
        "velocity": 24
      },
      {
        "deltaTime": 0,
        "channel": 4,
        "type": "channel",
        "noteNumber": 80,
        "velocity": 22,
        "subtype": "noteOn"
      },
      {
        "deltaTime": 0,
        "channel": 4,
        "type": "channel",
        "noteNumber": 86,
        "velocity": 38,
        "subtype": "noteOn"
      },
      {
        "deltaTime": 4000,
        "channel": 4,
        "type": "channel",
        "subtype": "noteOff",
        "noteNumber": 80,
        "velocity": 22
      },
      {
        "deltaTime": 0,
        "channel": 4,
        "type": "channel",
        "subtype": "noteOff",
        "noteNumber": 86,
        "velocity": 38
      },
      {
        "deltaTime": 58,
        "channel": 4,
        "type": "channel",
        "noteNumber": 84,
        "velocity": 35,
        "subtype": "noteOn"
      },
      {
        "deltaTime": 4,
        "channel": 4,
        "type": "channel",
        "noteNumber": 91,
        "velocity": 26,
        "subtype": "noteOn"
      },
      {
        "deltaTime": 1938,
        "channel": 4,
        "type": "channel",
        "subtype": "noteOff",
        "noteNumber": 84,
        "velocity": 35
      },
      {
        "deltaTime": 0,
        "channel": 4,
        "type": "channel",
        "subtype": "noteOff",
        "noteNumber": 91,
        "velocity": 26
      },
      {
        "deltaTime": 0,
        "channel": 4,
        "type": "channel",
        "noteNumber": 84,
        "velocity": 22,
        "subtype": "noteOn"
      },
      {
        "deltaTime": 0,
        "channel": 4,
        "type": "channel",
        "noteNumber": 90,
        "velocity": 38,
        "subtype": "noteOn"
      },
      {
        "deltaTime": 2000,
        "channel": 4,
        "type": "channel",
        "subtype": "noteOff",
        "noteNumber": 84,
        "velocity": 22
      },
      {
        "deltaTime": 0,
        "channel": 4,
        "type": "channel",
        "subtype": "noteOff",
        "noteNumber": 90,
        "velocity": 38
      },
      {
        "deltaTime": 68000,
        "channel": 4,
        "type": "channel",
        "noteNumber": 91,
        "velocity": 37,
        "subtype": "noteOn"
      },
      {
        "deltaTime": 0,
        "channel": 4,
        "type": "channel",
        "noteNumber": 87,
        "velocity": 24,
        "subtype": "noteOn"
      },
      {
        "deltaTime": 4000,
        "channel": 4,
        "type": "channel",
        "subtype": "noteOff",
        "noteNumber": 91,
        "velocity": 37
      },
      {
        "deltaTime": 0,
        "channel": 4,
        "type": "channel",
        "subtype": "noteOff",
        "noteNumber": 87,
        "velocity": 24
      },
      {
        "deltaTime": 0,
        "channel": 4,
        "type": "channel",
        "noteNumber": 81,
        "velocity": 22,
        "subtype": "noteOn"
      },
      {
        "deltaTime": 0,
        "channel": 4,
        "type": "channel",
        "noteNumber": 86,
        "velocity": 38,
        "subtype": "noteOn"
      },
      {
        "deltaTime": 4000,
        "channel": 4,
        "type": "channel",
        "subtype": "noteOff",
        "noteNumber": 81,
        "velocity": 22
      },
      {
        "deltaTime": 0,
        "channel": 4,
        "type": "channel",
        "subtype": "noteOff",
        "noteNumber": 86,
        "velocity": 38
      },
      {
        "deltaTime": 0,
        "channel": 4,
        "type": "channel",
        "noteNumber": 81,
        "velocity": 22,
        "subtype": "noteOn"
      },
      {
        "deltaTime": 0,
        "channel": 4,
        "type": "channel",
        "noteNumber": 86,
        "velocity": 38,
        "subtype": "noteOn"
      },
      {
        "deltaTime": 4000,
        "channel": 4,
        "type": "channel",
        "subtype": "noteOff",
        "noteNumber": 81,
        "velocity": 22
      },
      {
        "deltaTime": 0,
        "channel": 4,
        "type": "channel",
        "subtype": "noteOff",
        "noteNumber": 86,
        "velocity": 38
      },
      {
        "deltaTime": 0,
        "channel": 4,
        "type": "channel",
        "noteNumber": 89,
        "velocity": 37,
        "subtype": "noteOn"
      },
      {
        "deltaTime": 0,
        "channel": 4,
        "type": "channel",
        "noteNumber": 86,
        "velocity": 24,
        "subtype": "noteOn"
      },
      {
        "deltaTime": 4000,
        "channel": 4,
        "type": "channel",
        "subtype": "noteOff",
        "noteNumber": 89,
        "velocity": 37
      },
      {
        "deltaTime": 0,
        "channel": 4,
        "type": "channel",
        "subtype": "noteOff",
        "noteNumber": 86,
        "velocity": 24
      },
      {
        "deltaTime": 0,
        "channel": 4,
        "type": "channel",
        "noteNumber": 92,
        "velocity": 32,
        "subtype": "noteOn"
      },
      {
        "deltaTime": 0,
        "channel": 4,
        "type": "channel",
        "noteNumber": 85,
        "velocity": 28,
        "subtype": "noteOn"
      },
      {
        "deltaTime": 4000,
        "channel": 4,
        "type": "channel",
        "subtype": "noteOff",
        "noteNumber": 92,
        "velocity": 32
      },
      {
        "deltaTime": 0,
        "channel": 4,
        "type": "channel",
        "subtype": "noteOff",
        "noteNumber": 85,
        "velocity": 28
      },
      {
        "deltaTime": 0,
        "channel": 4,
        "type": "channel",
        "noteNumber": 87,
        "velocity": 37,
        "subtype": "noteOn"
      },
      {
        "deltaTime": 0,
        "channel": 4,
        "type": "channel",
        "noteNumber": 84,
        "velocity": 24,
        "subtype": "noteOn"
      },
      {
        "deltaTime": 4000,
        "channel": 4,
        "type": "channel",
        "subtype": "noteOff",
        "noteNumber": 87,
        "velocity": 37
      },
      {
        "deltaTime": 0,
        "channel": 4,
        "type": "channel",
        "subtype": "noteOff",
        "noteNumber": 84,
        "velocity": 24
      },
      {
        "deltaTime": 0,
        "channel": 4,
        "type": "channel",
        "noteNumber": 94,
        "velocity": 37,
        "subtype": "noteOn"
      },
      {
        "deltaTime": 0,
        "channel": 4,
        "type": "channel",
        "noteNumber": 91,
        "velocity": 24,
        "subtype": "noteOn"
      },
      {
        "deltaTime": 4000,
        "channel": 4,
        "type": "channel",
        "subtype": "noteOff",
        "noteNumber": 94,
        "velocity": 37
      },
      {
        "deltaTime": 0,
        "channel": 4,
        "type": "channel",
        "subtype": "noteOff",
        "noteNumber": 91,
        "velocity": 24
      },
      {
        "deltaTime": 0,
        "channel": 4,
        "type": "channel",
        "noteNumber": 84,
        "velocity": 31,
        "subtype": "noteOn"
      },
      {
        "deltaTime": 0,
        "channel": 4,
        "type": "channel",
        "noteNumber": 90,
        "velocity": 32,
        "subtype": "noteOn"
      },
      {
        "deltaTime": 2000,
        "channel": 4,
        "type": "channel",
        "noteNumber": 86,
        "velocity": 28,
        "subtype": "noteOn"
      },
      {
        "deltaTime": 84,
        "channel": 4,
        "type": "channel",
        "subtype": "noteOff",
        "noteNumber": 84,
        "velocity": 31
      },
      {
        "deltaTime": 1832,
        "channel": 4,
        "type": "channel",
        "subtype": "noteOff",
        "noteNumber": 90,
        "velocity": 32
      },
      {
        "deltaTime": 0,
        "channel": 4,
        "type": "channel",
        "subtype": "noteOff",
        "noteNumber": 86,
        "velocity": 28
      },
      {
        "deltaTime": 84,
        "channel": 4,
        "type": "channel",
        "noteNumber": 86,
        "velocity": 32,
        "subtype": "noteOn"
      },
      {
        "deltaTime": 0,
        "channel": 4,
        "type": "channel",
        "noteNumber": 81,
        "velocity": 115,
        "subtype": "noteOn"
      },
      {
        "deltaTime": 2000,
        "channel": 4,
        "type": "channel",
        "noteNumber": 83,
        "velocity": 28,
        "subtype": "noteOn"
      },
      {
        "deltaTime": 1916,
        "channel": 4,
        "type": "channel",
        "subtype": "noteOff",
        "noteNumber": 86,
        "velocity": 32
      },
      {
        "deltaTime": 0,
        "channel": 4,
        "type": "channel",
        "subtype": "noteOff",
        "noteNumber": 83,
        "velocity": 28
      },
      {
        "deltaTime": 84,
        "channel": 4,
        "type": "channel",
        "noteNumber": 89,
        "velocity": 37,
        "subtype": "noteOn"
      },
      {
        "deltaTime": 0,
        "channel": 4,
        "type": "channel",
        "noteNumber": 86,
        "velocity": 24,
        "subtype": "noteOn"
      },
      {
        "deltaTime": 38,
        "channel": 4,
        "type": "channel",
        "noteNumber": 82,
        "velocity": 103,
        "subtype": "noteOn"
      },
      {
        "deltaTime": 98,
        "channel": 4,
        "type": "channel",
        "subtype": "noteOff",
        "noteNumber": 81,
        "velocity": 115
      },
      {
        "deltaTime": 3760,
        "channel": 4,
        "type": "channel",
        "subtype": "noteOff",
        "noteNumber": 82,
        "velocity": 103
      },
      {
        "deltaTime": 24,
        "channel": 4,
        "type": "channel",
        "noteNumber": 83,
        "velocity": 106,
        "subtype": "noteOn"
      },
      {
        "deltaTime": 80,
        "channel": 4,
        "type": "channel",
        "subtype": "noteOff",
        "noteNumber": 89,
        "velocity": 37
      },
      {
        "deltaTime": 0,
        "channel": 4,
        "type": "channel",
        "subtype": "noteOff",
        "noteNumber": 86,
        "velocity": 24
      },
      {
        "deltaTime": 0,
        "channel": 4,
        "type": "channel",
        "noteNumber": 91,
        "velocity": 32,
        "subtype": "noteOn"
      },
      {
        "deltaTime": 0,
        "channel": 4,
        "type": "channel",
        "noteNumber": 84,
        "velocity": 28,
        "subtype": "noteOn"
      },
      {
        "deltaTime": 4000,
        "channel": 4,
        "type": "channel",
        "subtype": "noteOff",
        "noteNumber": 83,
        "velocity": 106
      },
      {
        "deltaTime": 0,
        "channel": 4,
        "type": "channel",
        "subtype": "noteOff",
        "noteNumber": 91,
        "velocity": 32
      },
      {
        "deltaTime": 0,
        "channel": 4,
        "type": "channel",
        "subtype": "noteOff",
        "noteNumber": 84,
        "velocity": 28
      },
      {
        "deltaTime": 0,
        "channel": 4,
        "type": "channel",
        "noteNumber": 90,
        "velocity": 32,
        "subtype": "noteOn"
      },
      {
        "deltaTime": 38,
        "channel": 4,
        "type": "channel",
        "noteNumber": 84,
        "velocity": 115,
        "subtype": "noteOn"
      },
      {
        "deltaTime": 1962,
        "channel": 4,
        "type": "channel",
        "noteNumber": 86,
        "velocity": 28,
        "subtype": "noteOn"
      },
      {
        "deltaTime": 1916,
        "channel": 4,
        "type": "channel",
        "subtype": "noteOff",
        "noteNumber": 90,
        "velocity": 32
      },
      {
        "deltaTime": 0,
        "channel": 4,
        "type": "channel",
        "subtype": "noteOff",
        "noteNumber": 86,
        "velocity": 28
      },
      {
        "deltaTime": 84,
        "channel": 4,
        "type": "channel",
        "noteNumber": 78,
        "velocity": 96,
        "subtype": "noteOn"
      },
      {
        "deltaTime": 0,
        "channel": 4,
        "type": "channel",
        "noteNumber": 81,
        "velocity": 22,
        "subtype": "noteOn"
      },
      {
        "deltaTime": 0,
        "channel": 4,
        "type": "channel",
        "noteNumber": 86,
        "velocity": 38,
        "subtype": "noteOn"
      },
      {
        "deltaTime": 156,
        "channel": 4,
        "type": "channel",
        "subtype": "noteOff",
        "noteNumber": 84,
        "velocity": 115
      },
      {
        "deltaTime": 3828,
        "channel": 4,
        "type": "channel",
        "noteNumber": 79,
        "velocity": 98,
        "subtype": "noteOn"
      },
      {
        "deltaTime": 16,
        "channel": 4,
        "type": "channel",
        "subtype": "noteOff",
        "noteNumber": 78,
        "velocity": 96
      },
      {
        "deltaTime": 0,
        "channel": 4,
        "type": "channel",
        "subtype": "noteOff",
        "noteNumber": 81,
        "velocity": 22
      },
      {
        "deltaTime": 0,
        "channel": 4,
        "type": "channel",
        "subtype": "noteOff",
        "noteNumber": 86,
        "velocity": 38
      },
      {
        "deltaTime": 0,
        "channel": 4,
        "type": "channel",
        "noteNumber": 89,
        "velocity": 37,
        "subtype": "noteOn"
      },
      {
        "deltaTime": 0,
        "channel": 4,
        "type": "channel",
        "noteNumber": 86,
        "velocity": 24,
        "subtype": "noteOn"
      },
      {
        "deltaTime": 4000,
        "channel": 4,
        "type": "channel",
        "subtype": "noteOff",
        "noteNumber": 89,
        "velocity": 37
      },
      {
        "deltaTime": 0,
        "channel": 4,
        "type": "channel",
        "subtype": "noteOff",
        "noteNumber": 86,
        "velocity": 24
      },
      {
        "deltaTime": 0,
        "channel": 4,
        "type": "channel",
        "noteNumber": 91,
        "velocity": 32,
        "subtype": "noteOn"
      },
      {
        "deltaTime": 0,
        "channel": 4,
        "type": "channel",
        "noteNumber": 84,
        "velocity": 28,
        "subtype": "noteOn"
      },
      {
        "deltaTime": 4000,
        "channel": 4,
        "type": "channel",
        "subtype": "noteOff",
        "noteNumber": 91,
        "velocity": 32
      },
      {
        "deltaTime": 0,
        "channel": 4,
        "type": "channel",
        "subtype": "noteOff",
        "noteNumber": 84,
        "velocity": 28
      },
      {
        "deltaTime": 0,
        "channel": 4,
        "type": "channel",
        "noteNumber": 84,
        "velocity": 31,
        "subtype": "noteOn"
      },
      {
        "deltaTime": 0,
        "channel": 4,
        "type": "channel",
        "noteNumber": 90,
        "velocity": 32,
        "subtype": "noteOn"
      },
      {
        "deltaTime": 2000,
        "channel": 4,
        "type": "channel",
        "noteNumber": 86,
        "velocity": 28,
        "subtype": "noteOn"
      },
      {
        "deltaTime": 84,
        "channel": 4,
        "type": "channel",
        "subtype": "noteOff",
        "noteNumber": 84,
        "velocity": 31
      },
      {
        "deltaTime": 1832,
        "channel": 4,
        "type": "channel",
        "subtype": "noteOff",
        "noteNumber": 90,
        "velocity": 32
      },
      {
        "deltaTime": 0,
        "channel": 4,
        "type": "channel",
        "subtype": "noteOff",
        "noteNumber": 86,
        "velocity": 28
      },
      {
        "deltaTime": 84,
        "channel": 4,
        "type": "channel",
        "subtype": "noteOff",
        "noteNumber": 79,
        "velocity": 98
      },
      {
        "deltaTime": 0,
        "channel": 4,
        "type": "channel",
        "noteNumber": 83,
        "velocity": 22,
        "subtype": "noteOn"
      },
      {
        "deltaTime": 0,
        "channel": 4,
        "type": "channel",
        "noteNumber": 90,
        "velocity": 38,
        "subtype": "noteOn"
      },
      {
        "deltaTime": 6,
        "channel": 4,
        "type": "channel",
        "noteNumber": 81,
        "velocity": 103,
        "subtype": "noteOn"
      },
      {
        "deltaTime": 3994,
        "channel": 4,
        "type": "channel",
        "subtype": "noteOff",
        "noteNumber": 83,
        "velocity": 22
      },
      {
        "deltaTime": 0,
        "channel": 4,
        "type": "channel",
        "subtype": "noteOff",
        "noteNumber": 90,
        "velocity": 38
      },
      {
        "deltaTime": 0,
        "channel": 4,
        "type": "channel",
        "noteNumber": 91,
        "velocity": 37,
        "subtype": "noteOn"
      },
      {
        "deltaTime": 0,
        "channel": 4,
        "type": "channel",
        "noteNumber": 89,
        "velocity": 24,
        "subtype": "noteOn"
      },
      {
        "deltaTime": 6,
        "channel": 4,
        "type": "channel",
        "noteNumber": 83,
        "velocity": 103,
        "subtype": "noteOn"
      },
      {
        "deltaTime": 120,
        "channel": 4,
        "type": "channel",
        "subtype": "noteOff",
        "noteNumber": 81,
        "velocity": 103
      },
      {
        "deltaTime": 3874,
        "channel": 4,
        "type": "channel",
        "subtype": "noteOff",
        "noteNumber": 91,
        "velocity": 37
      },
      {
        "deltaTime": 0,
        "channel": 4,
        "type": "channel",
        "subtype": "noteOff",
        "noteNumber": 89,
        "velocity": 24
      },
      {
        "deltaTime": 0,
        "channel": 4,
        "type": "channel",
        "noteNumber": 95,
        "velocity": 32,
        "subtype": "noteOn"
      },
      {
        "deltaTime": 0,
        "channel": 4,
        "type": "channel",
        "noteNumber": 88,
        "velocity": 28,
        "subtype": "noteOn"
      },
      {
        "deltaTime": 3952,
        "channel": 4,
        "type": "channel",
        "noteNumber": 82,
        "velocity": 80,
        "subtype": "noteOn"
      },
      {
        "deltaTime": 48,
        "channel": 4,
        "type": "channel",
        "subtype": "noteOff",
        "noteNumber": 83,
        "velocity": 103
      },
      {
        "deltaTime": 0,
        "channel": 4,
        "type": "channel",
        "subtype": "noteOff",
        "noteNumber": 95,
        "velocity": 32
      },
      {
        "deltaTime": 0,
        "channel": 4,
        "type": "channel",
        "subtype": "noteOff",
        "noteNumber": 88,
        "velocity": 28
      },
      {
        "deltaTime": 0,
        "channel": 4,
        "type": "channel",
        "noteNumber": 93,
        "velocity": 32,
        "subtype": "noteOn"
      },
      {
        "deltaTime": 0,
        "channel": 4,
        "type": "channel",
        "noteNumber": 87,
        "velocity": 28,
        "subtype": "noteOn"
      },
      {
        "deltaTime": 2000,
        "channel": 4,
        "type": "channel",
        "noteNumber": 81,
        "velocity": 94,
        "subtype": "noteOn"
      },
      {
        "deltaTime": 288,
        "channel": 4,
        "type": "channel",
        "subtype": "noteOff",
        "noteNumber": 82,
        "velocity": 80
      },
      {
        "deltaTime": 1712,
        "channel": 4,
        "type": "channel",
        "subtype": "noteOff",
        "noteNumber": 93,
        "velocity": 32
      },
      {
        "deltaTime": 0,
        "channel": 4,
        "type": "channel",
        "subtype": "noteOff",
        "noteNumber": 87,
        "velocity": 28
      },
      {
        "deltaTime": 0,
        "channel": 4,
        "type": "channel",
        "noteNumber": 86,
        "velocity": 38,
        "subtype": "noteOn"
      },
      {
        "deltaTime": 4000,
        "channel": 4,
        "type": "channel",
        "subtype": "noteOff",
        "noteNumber": 81,
        "velocity": 94
      },
      {
        "deltaTime": 0,
        "channel": 4,
        "type": "channel",
        "subtype": "noteOff",
        "noteNumber": 86,
        "velocity": 38
      },
      {
        "deltaTime": 0,
        "channel": 4,
        "type": "channel",
        "noteNumber": 89,
        "velocity": 37,
        "subtype": "noteOn"
      },
      {
        "deltaTime": 0,
        "channel": 4,
        "type": "channel",
        "noteNumber": 86,
        "velocity": 24,
        "subtype": "noteOn"
      },
      {
        "deltaTime": 62,
        "channel": 4,
        "type": "channel",
        "noteNumber": 79,
        "velocity": 87,
        "subtype": "noteOn"
      },
      {
        "deltaTime": 3938,
        "channel": 4,
        "type": "channel",
        "subtype": "noteOff",
        "noteNumber": 89,
        "velocity": 37
      },
      {
        "deltaTime": 0,
        "channel": 4,
        "type": "channel",
        "subtype": "noteOff",
        "noteNumber": 86,
        "velocity": 24
      },
      {
        "deltaTime": 58,
        "channel": 4,
        "type": "channel",
        "noteNumber": 84,
        "velocity": 35,
        "subtype": "noteOn"
      },
      {
        "deltaTime": 4,
        "channel": 4,
        "type": "channel",
        "noteNumber": 91,
        "velocity": 26,
        "subtype": "noteOn"
      },
      {
        "deltaTime": 1938,
        "channel": 4,
        "type": "channel",
        "subtype": "noteOff",
        "noteNumber": 84,
        "velocity": 35
      },
      {
        "deltaTime": 0,
        "channel": 4,
        "type": "channel",
        "subtype": "noteOff",
        "noteNumber": 91,
        "velocity": 26
      },
      {
        "deltaTime": 58,
        "channel": 4,
        "type": "channel",
        "noteNumber": 90,
        "velocity": 35,
        "subtype": "noteOn"
      },
      {
        "deltaTime": 4,
        "channel": 4,
        "type": "channel",
        "noteNumber": 96,
        "velocity": 26,
        "subtype": "noteOn"
      },
      {
        "deltaTime": 1730,
        "channel": 4,
        "type": "channel",
        "subtype": "noteOff",
        "noteNumber": 79,
        "velocity": 87
      },
      {
        "deltaTime": 208,
        "channel": 4,
        "type": "channel",
        "subtype": "noteOff",
        "noteNumber": 90,
        "velocity": 35
      },
      {
        "deltaTime": 0,
        "channel": 4,
        "type": "channel",
        "subtype": "noteOff",
        "noteNumber": 96,
        "velocity": 26
      },
      {
        "deltaTime": 0,
        "channel": 4,
        "type": "channel",
        "noteNumber": 95,
        "velocity": 32,
        "subtype": "noteOn"
      },
      {
        "deltaTime": 0,
        "channel": 4,
        "type": "channel",
        "noteNumber": 90,
        "velocity": 28,
        "subtype": "noteOn"
      },
      {
        "deltaTime": 4000,
        "channel": 4,
        "type": "channel",
        "subtype": "noteOff",
        "noteNumber": 95,
        "velocity": 0
      },
      {
        "deltaTime": 0,
        "channel": 4,
        "type": "channel",
        "subtype": "noteOff",
        "noteNumber": 90,
        "velocity": 0
      },
      {
        "deltaTime": 0,
        "type": "meta",
        "subtype": "endOfTrack"
      }
    ],
    [
      {
        "deltaTime": 0,
        "type": "meta",
        "subtype": "trackName",
        "text": "Instrumento Midi"
      },
      {
        "deltaTime": 8000,
        "channel": 5,
        "type": "channel",
        "noteNumber": 70,
        "velocity": 80,
        "subtype": "noteOn"
      },
      {
        "deltaTime": 0,
        "channel": 5,
        "type": "channel",
        "noteNumber": 49,
        "velocity": 50,
        "subtype": "noteOn"
      },
      {
        "deltaTime": 0,
        "channel": 5,
        "type": "channel",
        "noteNumber": 35,
        "velocity": 100,
        "subtype": "noteOn"
      },
      {
        "deltaTime": 16,
        "channel": 5,
        "type": "channel",
        "noteNumber": 37,
        "velocity": 108,
        "subtype": "noteOn"
      },
      {
        "deltaTime": 172,
        "channel": 5,
        "type": "channel",
        "subtype": "noteOff",
        "noteNumber": 37,
        "velocity": 108
      },
      {
        "deltaTime": 62,
        "channel": 5,
        "type": "channel",
        "subtype": "noteOff",
        "noteNumber": 35,
        "velocity": 100
      },
      {
        "deltaTime": 0,
        "channel": 5,
        "type": "channel",
        "subtype": "noteOff",
        "noteNumber": 49,
        "velocity": 50
      },
      {
        "deltaTime": 0,
        "channel": 5,
        "type": "channel",
        "subtype": "noteOff",
        "noteNumber": 70,
        "velocity": 80
      },
      {
        "deltaTime": 250,
        "channel": 5,
        "type": "channel",
        "noteNumber": 42,
        "velocity": 70,
        "subtype": "noteOn"
      },
      {
        "deltaTime": 0,
        "channel": 5,
        "type": "channel",
        "noteNumber": 69,
        "velocity": 50,
        "subtype": "noteOn"
      },
      {
        "deltaTime": 250,
        "channel": 5,
        "type": "channel",
        "subtype": "noteOff",
        "noteNumber": 69,
        "velocity": 50
      },
      {
        "deltaTime": 0,
        "channel": 5,
        "type": "channel",
        "subtype": "noteOff",
        "noteNumber": 42,
        "velocity": 70
      },
      {
        "deltaTime": 250,
        "channel": 5,
        "type": "channel",
        "noteNumber": 42,
        "velocity": 70,
        "subtype": "noteOn"
      },
      {
        "deltaTime": 0,
        "channel": 5,
        "type": "channel",
        "noteNumber": 70,
        "velocity": 80,
        "subtype": "noteOn"
      },
      {
        "deltaTime": 48,
        "channel": 5,
        "type": "channel",
        "noteNumber": 37,
        "velocity": 108,
        "subtype": "noteOn"
      },
      {
        "deltaTime": 170,
        "channel": 5,
        "type": "channel",
        "subtype": "noteOff",
        "noteNumber": 37,
        "velocity": 108
      },
      {
        "deltaTime": 32,
        "channel": 5,
        "type": "channel",
        "subtype": "noteOff",
        "noteNumber": 70,
        "velocity": 80
      },
      {
        "deltaTime": 0,
        "channel": 5,
        "type": "channel",
        "subtype": "noteOff",
        "noteNumber": 42,
        "velocity": 70
      },
      {
        "deltaTime": 250,
        "channel": 5,
        "type": "channel",
        "noteNumber": 35,
        "velocity": 70,
        "subtype": "noteOn"
      },
      {
        "deltaTime": 0,
        "channel": 5,
        "type": "channel",
        "noteNumber": 42,
        "velocity": 70,
        "subtype": "noteOn"
      },
      {
        "deltaTime": 0,
        "channel": 5,
        "type": "channel",
        "noteNumber": 69,
        "velocity": 50,
        "subtype": "noteOn"
      },
      {
        "deltaTime": 250,
        "channel": 5,
        "type": "channel",
        "subtype": "noteOff",
        "noteNumber": 69,
        "velocity": 50
      },
      {
        "deltaTime": 0,
        "channel": 5,
        "type": "channel",
        "subtype": "noteOff",
        "noteNumber": 42,
        "velocity": 70
      },
      {
        "deltaTime": 0,
        "channel": 5,
        "type": "channel",
        "subtype": "noteOff",
        "noteNumber": 35,
        "velocity": 70
      },
      {
        "deltaTime": 250,
        "channel": 5,
        "type": "channel",
        "noteNumber": 35,
        "velocity": 100,
        "subtype": "noteOn"
      },
      {
        "deltaTime": 0,
        "channel": 5,
        "type": "channel",
        "noteNumber": 42,
        "velocity": 90,
        "subtype": "noteOn"
      },
      {
        "deltaTime": 0,
        "channel": 5,
        "type": "channel",
        "noteNumber": 70,
        "velocity": 80,
        "subtype": "noteOn"
      },
      {
        "deltaTime": 250,
        "channel": 5,
        "type": "channel",
        "subtype": "noteOff",
        "noteNumber": 70,
        "velocity": 80
      },
      {
        "deltaTime": 0,
        "channel": 5,
        "type": "channel",
        "subtype": "noteOff",
        "noteNumber": 42,
        "velocity": 90
      },
      {
        "deltaTime": 0,
        "channel": 5,
        "type": "channel",
        "subtype": "noteOff",
        "noteNumber": 35,
        "velocity": 100
      },
      {
        "deltaTime": 250,
        "channel": 5,
        "type": "channel",
        "noteNumber": 42,
        "velocity": 70,
        "subtype": "noteOn"
      },
      {
        "deltaTime": 0,
        "channel": 5,
        "type": "channel",
        "noteNumber": 69,
        "velocity": 50,
        "subtype": "noteOn"
      },
      {
        "deltaTime": 58,
        "channel": 5,
        "type": "channel",
        "noteNumber": 37,
        "velocity": 106,
        "subtype": "noteOn"
      },
      {
        "deltaTime": 166,
        "channel": 5,
        "type": "channel",
        "subtype": "noteOff",
        "noteNumber": 37,
        "velocity": 106
      },
      {
        "deltaTime": 26,
        "channel": 5,
        "type": "channel",
        "subtype": "noteOff",
        "noteNumber": 69,
        "velocity": 50
      },
      {
        "deltaTime": 0,
        "channel": 5,
        "type": "channel",
        "subtype": "noteOff",
        "noteNumber": 42,
        "velocity": 70
      },
      {
        "deltaTime": 250,
        "channel": 5,
        "type": "channel",
        "noteNumber": 42,
        "velocity": 70,
        "subtype": "noteOn"
      },
      {
        "deltaTime": 0,
        "channel": 5,
        "type": "channel",
        "noteNumber": 70,
        "velocity": 80,
        "subtype": "noteOn"
      },
      {
        "deltaTime": 250,
        "channel": 5,
        "type": "channel",
        "subtype": "noteOff",
        "noteNumber": 70,
        "velocity": 80
      },
      {
        "deltaTime": 0,
        "channel": 5,
        "type": "channel",
        "subtype": "noteOff",
        "noteNumber": 42,
        "velocity": 70
      },
      {
        "deltaTime": 250,
        "channel": 5,
        "type": "channel",
        "noteNumber": 35,
        "velocity": 70,
        "subtype": "noteOn"
      },
      {
        "deltaTime": 0,
        "channel": 5,
        "type": "channel",
        "noteNumber": 42,
        "velocity": 70,
        "subtype": "noteOn"
      },
      {
        "deltaTime": 0,
        "channel": 5,
        "type": "channel",
        "noteNumber": 69,
        "velocity": 50,
        "subtype": "noteOn"
      },
      {
        "deltaTime": 250,
        "channel": 5,
        "type": "channel",
        "subtype": "noteOff",
        "noteNumber": 69,
        "velocity": 50
      },
      {
        "deltaTime": 0,
        "channel": 5,
        "type": "channel",
        "subtype": "noteOff",
        "noteNumber": 42,
        "velocity": 70
      },
      {
        "deltaTime": 0,
        "channel": 5,
        "type": "channel",
        "subtype": "noteOff",
        "noteNumber": 35,
        "velocity": 70
      },
      {
        "deltaTime": 250,
        "channel": 5,
        "type": "channel",
        "noteNumber": 70,
        "velocity": 80,
        "subtype": "noteOn"
      },
      {
        "deltaTime": 0,
        "channel": 5,
        "type": "channel",
        "noteNumber": 42,
        "velocity": 90,
        "subtype": "noteOn"
      },
      {
        "deltaTime": 0,
        "channel": 5,
        "type": "channel",
        "noteNumber": 35,
        "velocity": 100,
        "subtype": "noteOn"
      },
      {
        "deltaTime": 16,
        "channel": 5,
        "type": "channel",
        "noteNumber": 37,
        "velocity": 108,
        "subtype": "noteOn"
      },
      {
        "deltaTime": 172,
        "channel": 5,
        "type": "channel",
        "subtype": "noteOff",
        "noteNumber": 37,
        "velocity": 108
      },
      {
        "deltaTime": 62,
        "channel": 5,
        "type": "channel",
        "subtype": "noteOff",
        "noteNumber": 35,
        "velocity": 100
      },
      {
        "deltaTime": 0,
        "channel": 5,
        "type": "channel",
        "subtype": "noteOff",
        "noteNumber": 42,
        "velocity": 90
      },
      {
        "deltaTime": 0,
        "channel": 5,
        "type": "channel",
        "subtype": "noteOff",
        "noteNumber": 70,
        "velocity": 80
      },
      {
        "deltaTime": 250,
        "channel": 5,
        "type": "channel",
        "noteNumber": 42,
        "velocity": 70,
        "subtype": "noteOn"
      },
      {
        "deltaTime": 0,
        "channel": 5,
        "type": "channel",
        "noteNumber": 69,
        "velocity": 50,
        "subtype": "noteOn"
      },
      {
        "deltaTime": 250,
        "channel": 5,
        "type": "channel",
        "subtype": "noteOff",
        "noteNumber": 69,
        "velocity": 50
      },
      {
        "deltaTime": 0,
        "channel": 5,
        "type": "channel",
        "subtype": "noteOff",
        "noteNumber": 42,
        "velocity": 70
      },
      {
        "deltaTime": 250,
        "channel": 5,
        "type": "channel",
        "noteNumber": 42,
        "velocity": 70,
        "subtype": "noteOn"
      },
      {
        "deltaTime": 0,
        "channel": 5,
        "type": "channel",
        "noteNumber": 70,
        "velocity": 80,
        "subtype": "noteOn"
      },
      {
        "deltaTime": 48,
        "channel": 5,
        "type": "channel",
        "noteNumber": 37,
        "velocity": 108,
        "subtype": "noteOn"
      },
      {
        "deltaTime": 170,
        "channel": 5,
        "type": "channel",
        "subtype": "noteOff",
        "noteNumber": 37,
        "velocity": 108
      },
      {
        "deltaTime": 32,
        "channel": 5,
        "type": "channel",
        "subtype": "noteOff",
        "noteNumber": 70,
        "velocity": 80
      },
      {
        "deltaTime": 0,
        "channel": 5,
        "type": "channel",
        "subtype": "noteOff",
        "noteNumber": 42,
        "velocity": 70
      },
      {
        "deltaTime": 250,
        "channel": 5,
        "type": "channel",
        "noteNumber": 35,
        "velocity": 70,
        "subtype": "noteOn"
      },
      {
        "deltaTime": 0,
        "channel": 5,
        "type": "channel",
        "noteNumber": 42,
        "velocity": 70,
        "subtype": "noteOn"
      },
      {
        "deltaTime": 0,
        "channel": 5,
        "type": "channel",
        "noteNumber": 69,
        "velocity": 50,
        "subtype": "noteOn"
      },
      {
        "deltaTime": 250,
        "channel": 5,
        "type": "channel",
        "subtype": "noteOff",
        "noteNumber": 69,
        "velocity": 50
      },
      {
        "deltaTime": 0,
        "channel": 5,
        "type": "channel",
        "subtype": "noteOff",
        "noteNumber": 42,
        "velocity": 70
      },
      {
        "deltaTime": 0,
        "channel": 5,
        "type": "channel",
        "subtype": "noteOff",
        "noteNumber": 35,
        "velocity": 70
      },
      {
        "deltaTime": 250,
        "channel": 5,
        "type": "channel",
        "noteNumber": 35,
        "velocity": 100,
        "subtype": "noteOn"
      },
      {
        "deltaTime": 0,
        "channel": 5,
        "type": "channel",
        "noteNumber": 42,
        "velocity": 90,
        "subtype": "noteOn"
      },
      {
        "deltaTime": 0,
        "channel": 5,
        "type": "channel",
        "noteNumber": 70,
        "velocity": 80,
        "subtype": "noteOn"
      },
      {
        "deltaTime": 250,
        "channel": 5,
        "type": "channel",
        "subtype": "noteOff",
        "noteNumber": 70,
        "velocity": 80
      },
      {
        "deltaTime": 0,
        "channel": 5,
        "type": "channel",
        "subtype": "noteOff",
        "noteNumber": 42,
        "velocity": 90
      },
      {
        "deltaTime": 0,
        "channel": 5,
        "type": "channel",
        "subtype": "noteOff",
        "noteNumber": 35,
        "velocity": 100
      },
      {
        "deltaTime": 250,
        "channel": 5,
        "type": "channel",
        "noteNumber": 42,
        "velocity": 70,
        "subtype": "noteOn"
      },
      {
        "deltaTime": 0,
        "channel": 5,
        "type": "channel",
        "noteNumber": 69,
        "velocity": 50,
        "subtype": "noteOn"
      },
      {
        "deltaTime": 58,
        "channel": 5,
        "type": "channel",
        "noteNumber": 37,
        "velocity": 106,
        "subtype": "noteOn"
      },
      {
        "deltaTime": 166,
        "channel": 5,
        "type": "channel",
        "subtype": "noteOff",
        "noteNumber": 37,
        "velocity": 106
      },
      {
        "deltaTime": 26,
        "channel": 5,
        "type": "channel",
        "subtype": "noteOff",
        "noteNumber": 69,
        "velocity": 50
      },
      {
        "deltaTime": 0,
        "channel": 5,
        "type": "channel",
        "subtype": "noteOff",
        "noteNumber": 42,
        "velocity": 70
      },
      {
        "deltaTime": 250,
        "channel": 5,
        "type": "channel",
        "noteNumber": 42,
        "velocity": 70,
        "subtype": "noteOn"
      },
      {
        "deltaTime": 0,
        "channel": 5,
        "type": "channel",
        "noteNumber": 70,
        "velocity": 80,
        "subtype": "noteOn"
      },
      {
        "deltaTime": 250,
        "channel": 5,
        "type": "channel",
        "subtype": "noteOff",
        "noteNumber": 70,
        "velocity": 80
      },
      {
        "deltaTime": 0,
        "channel": 5,
        "type": "channel",
        "subtype": "noteOff",
        "noteNumber": 42,
        "velocity": 70
      },
      {
        "deltaTime": 250,
        "channel": 5,
        "type": "channel",
        "noteNumber": 35,
        "velocity": 70,
        "subtype": "noteOn"
      },
      {
        "deltaTime": 0,
        "channel": 5,
        "type": "channel",
        "noteNumber": 42,
        "velocity": 70,
        "subtype": "noteOn"
      },
      {
        "deltaTime": 0,
        "channel": 5,
        "type": "channel",
        "noteNumber": 69,
        "velocity": 50,
        "subtype": "noteOn"
      },
      {
        "deltaTime": 250,
        "channel": 5,
        "type": "channel",
        "subtype": "noteOff",
        "noteNumber": 69,
        "velocity": 50
      },
      {
        "deltaTime": 0,
        "channel": 5,
        "type": "channel",
        "subtype": "noteOff",
        "noteNumber": 42,
        "velocity": 70
      },
      {
        "deltaTime": 0,
        "channel": 5,
        "type": "channel",
        "subtype": "noteOff",
        "noteNumber": 35,
        "velocity": 70
      },
      {
        "deltaTime": 250,
        "channel": 5,
        "type": "channel",
        "noteNumber": 70,
        "velocity": 80,
        "subtype": "noteOn"
      },
      {
        "deltaTime": 0,
        "channel": 5,
        "type": "channel",
        "noteNumber": 42,
        "velocity": 90,
        "subtype": "noteOn"
      },
      {
        "deltaTime": 0,
        "channel": 5,
        "type": "channel",
        "noteNumber": 35,
        "velocity": 100,
        "subtype": "noteOn"
      },
      {
        "deltaTime": 16,
        "channel": 5,
        "type": "channel",
        "noteNumber": 37,
        "velocity": 108,
        "subtype": "noteOn"
      },
      {
        "deltaTime": 172,
        "channel": 5,
        "type": "channel",
        "subtype": "noteOff",
        "noteNumber": 37,
        "velocity": 108
      },
      {
        "deltaTime": 62,
        "channel": 5,
        "type": "channel",
        "subtype": "noteOff",
        "noteNumber": 35,
        "velocity": 100
      },
      {
        "deltaTime": 0,
        "channel": 5,
        "type": "channel",
        "subtype": "noteOff",
        "noteNumber": 42,
        "velocity": 90
      },
      {
        "deltaTime": 0,
        "channel": 5,
        "type": "channel",
        "subtype": "noteOff",
        "noteNumber": 70,
        "velocity": 80
      },
      {
        "deltaTime": 250,
        "channel": 5,
        "type": "channel",
        "noteNumber": 42,
        "velocity": 70,
        "subtype": "noteOn"
      },
      {
        "deltaTime": 0,
        "channel": 5,
        "type": "channel",
        "noteNumber": 69,
        "velocity": 50,
        "subtype": "noteOn"
      },
      {
        "deltaTime": 250,
        "channel": 5,
        "type": "channel",
        "subtype": "noteOff",
        "noteNumber": 69,
        "velocity": 50
      },
      {
        "deltaTime": 0,
        "channel": 5,
        "type": "channel",
        "subtype": "noteOff",
        "noteNumber": 42,
        "velocity": 70
      },
      {
        "deltaTime": 250,
        "channel": 5,
        "type": "channel",
        "noteNumber": 42,
        "velocity": 70,
        "subtype": "noteOn"
      },
      {
        "deltaTime": 0,
        "channel": 5,
        "type": "channel",
        "noteNumber": 70,
        "velocity": 80,
        "subtype": "noteOn"
      },
      {
        "deltaTime": 48,
        "channel": 5,
        "type": "channel",
        "noteNumber": 37,
        "velocity": 108,
        "subtype": "noteOn"
      },
      {
        "deltaTime": 170,
        "channel": 5,
        "type": "channel",
        "subtype": "noteOff",
        "noteNumber": 37,
        "velocity": 108
      },
      {
        "deltaTime": 32,
        "channel": 5,
        "type": "channel",
        "subtype": "noteOff",
        "noteNumber": 70,
        "velocity": 80
      },
      {
        "deltaTime": 0,
        "channel": 5,
        "type": "channel",
        "subtype": "noteOff",
        "noteNumber": 42,
        "velocity": 70
      },
      {
        "deltaTime": 250,
        "channel": 5,
        "type": "channel",
        "noteNumber": 35,
        "velocity": 70,
        "subtype": "noteOn"
      },
      {
        "deltaTime": 0,
        "channel": 5,
        "type": "channel",
        "noteNumber": 42,
        "velocity": 70,
        "subtype": "noteOn"
      },
      {
        "deltaTime": 0,
        "channel": 5,
        "type": "channel",
        "noteNumber": 69,
        "velocity": 50,
        "subtype": "noteOn"
      },
      {
        "deltaTime": 250,
        "channel": 5,
        "type": "channel",
        "subtype": "noteOff",
        "noteNumber": 69,
        "velocity": 50
      },
      {
        "deltaTime": 0,
        "channel": 5,
        "type": "channel",
        "subtype": "noteOff",
        "noteNumber": 42,
        "velocity": 70
      },
      {
        "deltaTime": 0,
        "channel": 5,
        "type": "channel",
        "subtype": "noteOff",
        "noteNumber": 35,
        "velocity": 70
      },
      {
        "deltaTime": 250,
        "channel": 5,
        "type": "channel",
        "noteNumber": 35,
        "velocity": 100,
        "subtype": "noteOn"
      },
      {
        "deltaTime": 0,
        "channel": 5,
        "type": "channel",
        "noteNumber": 42,
        "velocity": 90,
        "subtype": "noteOn"
      },
      {
        "deltaTime": 0,
        "channel": 5,
        "type": "channel",
        "noteNumber": 70,
        "velocity": 80,
        "subtype": "noteOn"
      },
      {
        "deltaTime": 250,
        "channel": 5,
        "type": "channel",
        "subtype": "noteOff",
        "noteNumber": 70,
        "velocity": 80
      },
      {
        "deltaTime": 0,
        "channel": 5,
        "type": "channel",
        "subtype": "noteOff",
        "noteNumber": 42,
        "velocity": 90
      },
      {
        "deltaTime": 0,
        "channel": 5,
        "type": "channel",
        "subtype": "noteOff",
        "noteNumber": 35,
        "velocity": 100
      },
      {
        "deltaTime": 250,
        "channel": 5,
        "type": "channel",
        "noteNumber": 46,
        "velocity": 72,
        "subtype": "noteOn"
      },
      {
        "deltaTime": 0,
        "channel": 5,
        "type": "channel",
        "noteNumber": 69,
        "velocity": 50,
        "subtype": "noteOn"
      },
      {
        "deltaTime": 58,
        "channel": 5,
        "type": "channel",
        "noteNumber": 37,
        "velocity": 106,
        "subtype": "noteOn"
      },
      {
        "deltaTime": 166,
        "channel": 5,
        "type": "channel",
        "subtype": "noteOff",
        "noteNumber": 37,
        "velocity": 106
      },
      {
        "deltaTime": 26,
        "channel": 5,
        "type": "channel",
        "subtype": "noteOff",
        "noteNumber": 69,
        "velocity": 50
      },
      {
        "deltaTime": 0,
        "channel": 5,
        "type": "channel",
        "subtype": "noteOff",
        "noteNumber": 46,
        "velocity": 72
      },
      {
        "deltaTime": 250,
        "channel": 5,
        "type": "channel",
        "noteNumber": 42,
        "velocity": 70,
        "subtype": "noteOn"
      },
      {
        "deltaTime": 0,
        "channel": 5,
        "type": "channel",
        "noteNumber": 70,
        "velocity": 80,
        "subtype": "noteOn"
      },
      {
        "deltaTime": 250,
        "channel": 5,
        "type": "channel",
        "subtype": "noteOff",
        "noteNumber": 70,
        "velocity": 80
      },
      {
        "deltaTime": 0,
        "channel": 5,
        "type": "channel",
        "subtype": "noteOff",
        "noteNumber": 42,
        "velocity": 70
      },
      {
        "deltaTime": 250,
        "channel": 5,
        "type": "channel",
        "noteNumber": 35,
        "velocity": 70,
        "subtype": "noteOn"
      },
      {
        "deltaTime": 0,
        "channel": 5,
        "type": "channel",
        "noteNumber": 42,
        "velocity": 70,
        "subtype": "noteOn"
      },
      {
        "deltaTime": 0,
        "channel": 5,
        "type": "channel",
        "noteNumber": 69,
        "velocity": 50,
        "subtype": "noteOn"
      },
      {
        "deltaTime": 250,
        "channel": 5,
        "type": "channel",
        "subtype": "noteOff",
        "noteNumber": 69,
        "velocity": 50
      },
      {
        "deltaTime": 0,
        "channel": 5,
        "type": "channel",
        "subtype": "noteOff",
        "noteNumber": 42,
        "velocity": 70
      },
      {
        "deltaTime": 0,
        "channel": 5,
        "type": "channel",
        "subtype": "noteOff",
        "noteNumber": 35,
        "velocity": 70
      },
      {
        "deltaTime": 250,
        "channel": 5,
        "type": "channel",
        "noteNumber": 70,
        "velocity": 80,
        "subtype": "noteOn"
      },
      {
        "deltaTime": 0,
        "channel": 5,
        "type": "channel",
        "noteNumber": 42,
        "velocity": 90,
        "subtype": "noteOn"
      },
      {
        "deltaTime": 0,
        "channel": 5,
        "type": "channel",
        "noteNumber": 35,
        "velocity": 100,
        "subtype": "noteOn"
      },
      {
        "deltaTime": 16,
        "channel": 5,
        "type": "channel",
        "noteNumber": 37,
        "velocity": 108,
        "subtype": "noteOn"
      },
      {
        "deltaTime": 172,
        "channel": 5,
        "type": "channel",
        "subtype": "noteOff",
        "noteNumber": 37,
        "velocity": 108
      },
      {
        "deltaTime": 62,
        "channel": 5,
        "type": "channel",
        "subtype": "noteOff",
        "noteNumber": 35,
        "velocity": 100
      },
      {
        "deltaTime": 0,
        "channel": 5,
        "type": "channel",
        "subtype": "noteOff",
        "noteNumber": 42,
        "velocity": 90
      },
      {
        "deltaTime": 0,
        "channel": 5,
        "type": "channel",
        "subtype": "noteOff",
        "noteNumber": 70,
        "velocity": 80
      },
      {
        "deltaTime": 250,
        "channel": 5,
        "type": "channel",
        "noteNumber": 42,
        "velocity": 70,
        "subtype": "noteOn"
      },
      {
        "deltaTime": 0,
        "channel": 5,
        "type": "channel",
        "noteNumber": 69,
        "velocity": 50,
        "subtype": "noteOn"
      },
      {
        "deltaTime": 250,
        "channel": 5,
        "type": "channel",
        "subtype": "noteOff",
        "noteNumber": 69,
        "velocity": 50
      },
      {
        "deltaTime": 0,
        "channel": 5,
        "type": "channel",
        "subtype": "noteOff",
        "noteNumber": 42,
        "velocity": 70
      },
      {
        "deltaTime": 250,
        "channel": 5,
        "type": "channel",
        "noteNumber": 42,
        "velocity": 70,
        "subtype": "noteOn"
      },
      {
        "deltaTime": 0,
        "channel": 5,
        "type": "channel",
        "noteNumber": 70,
        "velocity": 80,
        "subtype": "noteOn"
      },
      {
        "deltaTime": 48,
        "channel": 5,
        "type": "channel",
        "noteNumber": 37,
        "velocity": 108,
        "subtype": "noteOn"
      },
      {
        "deltaTime": 170,
        "channel": 5,
        "type": "channel",
        "subtype": "noteOff",
        "noteNumber": 37,
        "velocity": 108
      },
      {
        "deltaTime": 32,
        "channel": 5,
        "type": "channel",
        "subtype": "noteOff",
        "noteNumber": 70,
        "velocity": 80
      },
      {
        "deltaTime": 0,
        "channel": 5,
        "type": "channel",
        "subtype": "noteOff",
        "noteNumber": 42,
        "velocity": 70
      },
      {
        "deltaTime": 250,
        "channel": 5,
        "type": "channel",
        "noteNumber": 35,
        "velocity": 70,
        "subtype": "noteOn"
      },
      {
        "deltaTime": 0,
        "channel": 5,
        "type": "channel",
        "noteNumber": 42,
        "velocity": 70,
        "subtype": "noteOn"
      },
      {
        "deltaTime": 0,
        "channel": 5,
        "type": "channel",
        "noteNumber": 69,
        "velocity": 50,
        "subtype": "noteOn"
      },
      {
        "deltaTime": 250,
        "channel": 5,
        "type": "channel",
        "subtype": "noteOff",
        "noteNumber": 69,
        "velocity": 50
      },
      {
        "deltaTime": 0,
        "channel": 5,
        "type": "channel",
        "subtype": "noteOff",
        "noteNumber": 42,
        "velocity": 70
      },
      {
        "deltaTime": 0,
        "channel": 5,
        "type": "channel",
        "subtype": "noteOff",
        "noteNumber": 35,
        "velocity": 70
      },
      {
        "deltaTime": 250,
        "channel": 5,
        "type": "channel",
        "noteNumber": 35,
        "velocity": 100,
        "subtype": "noteOn"
      },
      {
        "deltaTime": 0,
        "channel": 5,
        "type": "channel",
        "noteNumber": 42,
        "velocity": 90,
        "subtype": "noteOn"
      },
      {
        "deltaTime": 0,
        "channel": 5,
        "type": "channel",
        "noteNumber": 70,
        "velocity": 80,
        "subtype": "noteOn"
      },
      {
        "deltaTime": 250,
        "channel": 5,
        "type": "channel",
        "subtype": "noteOff",
        "noteNumber": 70,
        "velocity": 80
      },
      {
        "deltaTime": 0,
        "channel": 5,
        "type": "channel",
        "subtype": "noteOff",
        "noteNumber": 42,
        "velocity": 90
      },
      {
        "deltaTime": 0,
        "channel": 5,
        "type": "channel",
        "subtype": "noteOff",
        "noteNumber": 35,
        "velocity": 100
      },
      {
        "deltaTime": 250,
        "channel": 5,
        "type": "channel",
        "noteNumber": 42,
        "velocity": 70,
        "subtype": "noteOn"
      },
      {
        "deltaTime": 0,
        "channel": 5,
        "type": "channel",
        "noteNumber": 69,
        "velocity": 50,
        "subtype": "noteOn"
      },
      {
        "deltaTime": 58,
        "channel": 5,
        "type": "channel",
        "noteNumber": 37,
        "velocity": 106,
        "subtype": "noteOn"
      },
      {
        "deltaTime": 166,
        "channel": 5,
        "type": "channel",
        "subtype": "noteOff",
        "noteNumber": 37,
        "velocity": 106
      },
      {
        "deltaTime": 26,
        "channel": 5,
        "type": "channel",
        "subtype": "noteOff",
        "noteNumber": 69,
        "velocity": 50
      },
      {
        "deltaTime": 0,
        "channel": 5,
        "type": "channel",
        "subtype": "noteOff",
        "noteNumber": 42,
        "velocity": 70
      },
      {
        "deltaTime": 250,
        "channel": 5,
        "type": "channel",
        "noteNumber": 42,
        "velocity": 70,
        "subtype": "noteOn"
      },
      {
        "deltaTime": 0,
        "channel": 5,
        "type": "channel",
        "noteNumber": 70,
        "velocity": 80,
        "subtype": "noteOn"
      },
      {
        "deltaTime": 250,
        "channel": 5,
        "type": "channel",
        "subtype": "noteOff",
        "noteNumber": 70,
        "velocity": 80
      },
      {
        "deltaTime": 0,
        "channel": 5,
        "type": "channel",
        "subtype": "noteOff",
        "noteNumber": 42,
        "velocity": 70
      },
      {
        "deltaTime": 250,
        "channel": 5,
        "type": "channel",
        "noteNumber": 35,
        "velocity": 70,
        "subtype": "noteOn"
      },
      {
        "deltaTime": 0,
        "channel": 5,
        "type": "channel",
        "noteNumber": 42,
        "velocity": 70,
        "subtype": "noteOn"
      },
      {
        "deltaTime": 0,
        "channel": 5,
        "type": "channel",
        "noteNumber": 69,
        "velocity": 50,
        "subtype": "noteOn"
      },
      {
        "deltaTime": 250,
        "channel": 5,
        "type": "channel",
        "subtype": "noteOff",
        "noteNumber": 69,
        "velocity": 50
      },
      {
        "deltaTime": 0,
        "channel": 5,
        "type": "channel",
        "subtype": "noteOff",
        "noteNumber": 42,
        "velocity": 70
      },
      {
        "deltaTime": 0,
        "channel": 5,
        "type": "channel",
        "subtype": "noteOff",
        "noteNumber": 35,
        "velocity": 70
      },
      {
        "deltaTime": 250,
        "channel": 5,
        "type": "channel",
        "noteNumber": 70,
        "velocity": 80,
        "subtype": "noteOn"
      },
      {
        "deltaTime": 0,
        "channel": 5,
        "type": "channel",
        "noteNumber": 42,
        "velocity": 90,
        "subtype": "noteOn"
      },
      {
        "deltaTime": 0,
        "channel": 5,
        "type": "channel",
        "noteNumber": 35,
        "velocity": 100,
        "subtype": "noteOn"
      },
      {
        "deltaTime": 16,
        "channel": 5,
        "type": "channel",
        "noteNumber": 37,
        "velocity": 108,
        "subtype": "noteOn"
      },
      {
        "deltaTime": 172,
        "channel": 5,
        "type": "channel",
        "subtype": "noteOff",
        "noteNumber": 37,
        "velocity": 108
      },
      {
        "deltaTime": 62,
        "channel": 5,
        "type": "channel",
        "subtype": "noteOff",
        "noteNumber": 35,
        "velocity": 100
      },
      {
        "deltaTime": 0,
        "channel": 5,
        "type": "channel",
        "subtype": "noteOff",
        "noteNumber": 42,
        "velocity": 90
      },
      {
        "deltaTime": 0,
        "channel": 5,
        "type": "channel",
        "subtype": "noteOff",
        "noteNumber": 70,
        "velocity": 80
      },
      {
        "deltaTime": 250,
        "channel": 5,
        "type": "channel",
        "noteNumber": 42,
        "velocity": 70,
        "subtype": "noteOn"
      },
      {
        "deltaTime": 0,
        "channel": 5,
        "type": "channel",
        "noteNumber": 69,
        "velocity": 50,
        "subtype": "noteOn"
      },
      {
        "deltaTime": 250,
        "channel": 5,
        "type": "channel",
        "subtype": "noteOff",
        "noteNumber": 69,
        "velocity": 50
      },
      {
        "deltaTime": 0,
        "channel": 5,
        "type": "channel",
        "subtype": "noteOff",
        "noteNumber": 42,
        "velocity": 70
      },
      {
        "deltaTime": 250,
        "channel": 5,
        "type": "channel",
        "noteNumber": 42,
        "velocity": 70,
        "subtype": "noteOn"
      },
      {
        "deltaTime": 0,
        "channel": 5,
        "type": "channel",
        "noteNumber": 70,
        "velocity": 80,
        "subtype": "noteOn"
      },
      {
        "deltaTime": 48,
        "channel": 5,
        "type": "channel",
        "noteNumber": 37,
        "velocity": 108,
        "subtype": "noteOn"
      },
      {
        "deltaTime": 170,
        "channel": 5,
        "type": "channel",
        "subtype": "noteOff",
        "noteNumber": 37,
        "velocity": 108
      },
      {
        "deltaTime": 32,
        "channel": 5,
        "type": "channel",
        "subtype": "noteOff",
        "noteNumber": 70,
        "velocity": 80
      },
      {
        "deltaTime": 0,
        "channel": 5,
        "type": "channel",
        "subtype": "noteOff",
        "noteNumber": 42,
        "velocity": 70
      },
      {
        "deltaTime": 250,
        "channel": 5,
        "type": "channel",
        "noteNumber": 35,
        "velocity": 70,
        "subtype": "noteOn"
      },
      {
        "deltaTime": 0,
        "channel": 5,
        "type": "channel",
        "noteNumber": 42,
        "velocity": 70,
        "subtype": "noteOn"
      },
      {
        "deltaTime": 0,
        "channel": 5,
        "type": "channel",
        "noteNumber": 69,
        "velocity": 50,
        "subtype": "noteOn"
      },
      {
        "deltaTime": 250,
        "channel": 5,
        "type": "channel",
        "subtype": "noteOff",
        "noteNumber": 69,
        "velocity": 50
      },
      {
        "deltaTime": 0,
        "channel": 5,
        "type": "channel",
        "subtype": "noteOff",
        "noteNumber": 42,
        "velocity": 70
      },
      {
        "deltaTime": 0,
        "channel": 5,
        "type": "channel",
        "subtype": "noteOff",
        "noteNumber": 35,
        "velocity": 70
      },
      {
        "deltaTime": 250,
        "channel": 5,
        "type": "channel",
        "noteNumber": 35,
        "velocity": 100,
        "subtype": "noteOn"
      },
      {
        "deltaTime": 0,
        "channel": 5,
        "type": "channel",
        "noteNumber": 42,
        "velocity": 90,
        "subtype": "noteOn"
      },
      {
        "deltaTime": 0,
        "channel": 5,
        "type": "channel",
        "noteNumber": 70,
        "velocity": 80,
        "subtype": "noteOn"
      },
      {
        "deltaTime": 250,
        "channel": 5,
        "type": "channel",
        "subtype": "noteOff",
        "noteNumber": 70,
        "velocity": 80
      },
      {
        "deltaTime": 0,
        "channel": 5,
        "type": "channel",
        "subtype": "noteOff",
        "noteNumber": 42,
        "velocity": 90
      },
      {
        "deltaTime": 0,
        "channel": 5,
        "type": "channel",
        "subtype": "noteOff",
        "noteNumber": 35,
        "velocity": 100
      },
      {
        "deltaTime": 250,
        "channel": 5,
        "type": "channel",
        "noteNumber": 46,
        "velocity": 72,
        "subtype": "noteOn"
      },
      {
        "deltaTime": 0,
        "channel": 5,
        "type": "channel",
        "noteNumber": 69,
        "velocity": 50,
        "subtype": "noteOn"
      },
      {
        "deltaTime": 58,
        "channel": 5,
        "type": "channel",
        "noteNumber": 37,
        "velocity": 106,
        "subtype": "noteOn"
      },
      {
        "deltaTime": 166,
        "channel": 5,
        "type": "channel",
        "subtype": "noteOff",
        "noteNumber": 37,
        "velocity": 106
      },
      {
        "deltaTime": 26,
        "channel": 5,
        "type": "channel",
        "subtype": "noteOff",
        "noteNumber": 69,
        "velocity": 50
      },
      {
        "deltaTime": 0,
        "channel": 5,
        "type": "channel",
        "subtype": "noteOff",
        "noteNumber": 46,
        "velocity": 72
      },
      {
        "deltaTime": 250,
        "channel": 5,
        "type": "channel",
        "noteNumber": 42,
        "velocity": 70,
        "subtype": "noteOn"
      },
      {
        "deltaTime": 0,
        "channel": 5,
        "type": "channel",
        "noteNumber": 70,
        "velocity": 80,
        "subtype": "noteOn"
      },
      {
        "deltaTime": 250,
        "channel": 5,
        "type": "channel",
        "subtype": "noteOff",
        "noteNumber": 70,
        "velocity": 80
      },
      {
        "deltaTime": 0,
        "channel": 5,
        "type": "channel",
        "subtype": "noteOff",
        "noteNumber": 42,
        "velocity": 70
      },
      {
        "deltaTime": 250,
        "channel": 5,
        "type": "channel",
        "noteNumber": 35,
        "velocity": 70,
        "subtype": "noteOn"
      },
      {
        "deltaTime": 0,
        "channel": 5,
        "type": "channel",
        "noteNumber": 42,
        "velocity": 70,
        "subtype": "noteOn"
      },
      {
        "deltaTime": 0,
        "channel": 5,
        "type": "channel",
        "noteNumber": 69,
        "velocity": 50,
        "subtype": "noteOn"
      },
      {
        "deltaTime": 250,
        "channel": 5,
        "type": "channel",
        "subtype": "noteOff",
        "noteNumber": 69,
        "velocity": 50
      },
      {
        "deltaTime": 0,
        "channel": 5,
        "type": "channel",
        "subtype": "noteOff",
        "noteNumber": 42,
        "velocity": 70
      },
      {
        "deltaTime": 0,
        "channel": 5,
        "type": "channel",
        "subtype": "noteOff",
        "noteNumber": 35,
        "velocity": 70
      },
      {
        "deltaTime": 250,
        "channel": 5,
        "type": "channel",
        "noteNumber": 70,
        "velocity": 80,
        "subtype": "noteOn"
      },
      {
        "deltaTime": 0,
        "channel": 5,
        "type": "channel",
        "noteNumber": 42,
        "velocity": 90,
        "subtype": "noteOn"
      },
      {
        "deltaTime": 0,
        "channel": 5,
        "type": "channel",
        "noteNumber": 35,
        "velocity": 100,
        "subtype": "noteOn"
      },
      {
        "deltaTime": 16,
        "channel": 5,
        "type": "channel",
        "noteNumber": 37,
        "velocity": 108,
        "subtype": "noteOn"
      },
      {
        "deltaTime": 172,
        "channel": 5,
        "type": "channel",
        "subtype": "noteOff",
        "noteNumber": 37,
        "velocity": 108
      },
      {
        "deltaTime": 62,
        "channel": 5,
        "type": "channel",
        "subtype": "noteOff",
        "noteNumber": 35,
        "velocity": 100
      },
      {
        "deltaTime": 0,
        "channel": 5,
        "type": "channel",
        "subtype": "noteOff",
        "noteNumber": 42,
        "velocity": 90
      },
      {
        "deltaTime": 0,
        "channel": 5,
        "type": "channel",
        "subtype": "noteOff",
        "noteNumber": 70,
        "velocity": 80
      },
      {
        "deltaTime": 250,
        "channel": 5,
        "type": "channel",
        "noteNumber": 42,
        "velocity": 70,
        "subtype": "noteOn"
      },
      {
        "deltaTime": 0,
        "channel": 5,
        "type": "channel",
        "noteNumber": 69,
        "velocity": 50,
        "subtype": "noteOn"
      },
      {
        "deltaTime": 250,
        "channel": 5,
        "type": "channel",
        "subtype": "noteOff",
        "noteNumber": 69,
        "velocity": 50
      },
      {
        "deltaTime": 0,
        "channel": 5,
        "type": "channel",
        "subtype": "noteOff",
        "noteNumber": 42,
        "velocity": 70
      },
      {
        "deltaTime": 250,
        "channel": 5,
        "type": "channel",
        "noteNumber": 42,
        "velocity": 70,
        "subtype": "noteOn"
      },
      {
        "deltaTime": 0,
        "channel": 5,
        "type": "channel",
        "noteNumber": 70,
        "velocity": 80,
        "subtype": "noteOn"
      },
      {
        "deltaTime": 48,
        "channel": 5,
        "type": "channel",
        "noteNumber": 37,
        "velocity": 108,
        "subtype": "noteOn"
      },
      {
        "deltaTime": 170,
        "channel": 5,
        "type": "channel",
        "subtype": "noteOff",
        "noteNumber": 37,
        "velocity": 108
      },
      {
        "deltaTime": 32,
        "channel": 5,
        "type": "channel",
        "subtype": "noteOff",
        "noteNumber": 70,
        "velocity": 80
      },
      {
        "deltaTime": 0,
        "channel": 5,
        "type": "channel",
        "subtype": "noteOff",
        "noteNumber": 42,
        "velocity": 70
      },
      {
        "deltaTime": 250,
        "channel": 5,
        "type": "channel",
        "noteNumber": 35,
        "velocity": 70,
        "subtype": "noteOn"
      },
      {
        "deltaTime": 0,
        "channel": 5,
        "type": "channel",
        "noteNumber": 42,
        "velocity": 70,
        "subtype": "noteOn"
      },
      {
        "deltaTime": 0,
        "channel": 5,
        "type": "channel",
        "noteNumber": 69,
        "velocity": 50,
        "subtype": "noteOn"
      },
      {
        "deltaTime": 250,
        "channel": 5,
        "type": "channel",
        "subtype": "noteOff",
        "noteNumber": 69,
        "velocity": 50
      },
      {
        "deltaTime": 0,
        "channel": 5,
        "type": "channel",
        "subtype": "noteOff",
        "noteNumber": 42,
        "velocity": 70
      },
      {
        "deltaTime": 0,
        "channel": 5,
        "type": "channel",
        "subtype": "noteOff",
        "noteNumber": 35,
        "velocity": 70
      },
      {
        "deltaTime": 250,
        "channel": 5,
        "type": "channel",
        "noteNumber": 35,
        "velocity": 100,
        "subtype": "noteOn"
      },
      {
        "deltaTime": 0,
        "channel": 5,
        "type": "channel",
        "noteNumber": 42,
        "velocity": 90,
        "subtype": "noteOn"
      },
      {
        "deltaTime": 0,
        "channel": 5,
        "type": "channel",
        "noteNumber": 70,
        "velocity": 80,
        "subtype": "noteOn"
      },
      {
        "deltaTime": 250,
        "channel": 5,
        "type": "channel",
        "subtype": "noteOff",
        "noteNumber": 70,
        "velocity": 80
      },
      {
        "deltaTime": 0,
        "channel": 5,
        "type": "channel",
        "subtype": "noteOff",
        "noteNumber": 42,
        "velocity": 90
      },
      {
        "deltaTime": 0,
        "channel": 5,
        "type": "channel",
        "subtype": "noteOff",
        "noteNumber": 35,
        "velocity": 100
      },
      {
        "deltaTime": 250,
        "channel": 5,
        "type": "channel",
        "noteNumber": 42,
        "velocity": 70,
        "subtype": "noteOn"
      },
      {
        "deltaTime": 0,
        "channel": 5,
        "type": "channel",
        "noteNumber": 69,
        "velocity": 50,
        "subtype": "noteOn"
      },
      {
        "deltaTime": 58,
        "channel": 5,
        "type": "channel",
        "noteNumber": 37,
        "velocity": 106,
        "subtype": "noteOn"
      },
      {
        "deltaTime": 166,
        "channel": 5,
        "type": "channel",
        "subtype": "noteOff",
        "noteNumber": 37,
        "velocity": 106
      },
      {
        "deltaTime": 26,
        "channel": 5,
        "type": "channel",
        "subtype": "noteOff",
        "noteNumber": 69,
        "velocity": 50
      },
      {
        "deltaTime": 0,
        "channel": 5,
        "type": "channel",
        "subtype": "noteOff",
        "noteNumber": 42,
        "velocity": 70
      },
      {
        "deltaTime": 250,
        "channel": 5,
        "type": "channel",
        "noteNumber": 42,
        "velocity": 70,
        "subtype": "noteOn"
      },
      {
        "deltaTime": 0,
        "channel": 5,
        "type": "channel",
        "noteNumber": 70,
        "velocity": 80,
        "subtype": "noteOn"
      },
      {
        "deltaTime": 250,
        "channel": 5,
        "type": "channel",
        "subtype": "noteOff",
        "noteNumber": 70,
        "velocity": 80
      },
      {
        "deltaTime": 0,
        "channel": 5,
        "type": "channel",
        "subtype": "noteOff",
        "noteNumber": 42,
        "velocity": 70
      },
      {
        "deltaTime": 250,
        "channel": 5,
        "type": "channel",
        "noteNumber": 35,
        "velocity": 70,
        "subtype": "noteOn"
      },
      {
        "deltaTime": 0,
        "channel": 5,
        "type": "channel",
        "noteNumber": 42,
        "velocity": 70,
        "subtype": "noteOn"
      },
      {
        "deltaTime": 0,
        "channel": 5,
        "type": "channel",
        "noteNumber": 69,
        "velocity": 50,
        "subtype": "noteOn"
      },
      {
        "deltaTime": 250,
        "channel": 5,
        "type": "channel",
        "subtype": "noteOff",
        "noteNumber": 69,
        "velocity": 50
      },
      {
        "deltaTime": 0,
        "channel": 5,
        "type": "channel",
        "subtype": "noteOff",
        "noteNumber": 42,
        "velocity": 70
      },
      {
        "deltaTime": 0,
        "channel": 5,
        "type": "channel",
        "subtype": "noteOff",
        "noteNumber": 35,
        "velocity": 70
      },
      {
        "deltaTime": 250,
        "channel": 5,
        "type": "channel",
        "noteNumber": 70,
        "velocity": 80,
        "subtype": "noteOn"
      },
      {
        "deltaTime": 0,
        "channel": 5,
        "type": "channel",
        "noteNumber": 42,
        "velocity": 90,
        "subtype": "noteOn"
      },
      {
        "deltaTime": 0,
        "channel": 5,
        "type": "channel",
        "noteNumber": 35,
        "velocity": 100,
        "subtype": "noteOn"
      },
      {
        "deltaTime": 16,
        "channel": 5,
        "type": "channel",
        "noteNumber": 37,
        "velocity": 108,
        "subtype": "noteOn"
      },
      {
        "deltaTime": 172,
        "channel": 5,
        "type": "channel",
        "subtype": "noteOff",
        "noteNumber": 37,
        "velocity": 108
      },
      {
        "deltaTime": 62,
        "channel": 5,
        "type": "channel",
        "subtype": "noteOff",
        "noteNumber": 35,
        "velocity": 100
      },
      {
        "deltaTime": 0,
        "channel": 5,
        "type": "channel",
        "subtype": "noteOff",
        "noteNumber": 42,
        "velocity": 90
      },
      {
        "deltaTime": 0,
        "channel": 5,
        "type": "channel",
        "subtype": "noteOff",
        "noteNumber": 70,
        "velocity": 80
      },
      {
        "deltaTime": 250,
        "channel": 5,
        "type": "channel",
        "noteNumber": 42,
        "velocity": 70,
        "subtype": "noteOn"
      },
      {
        "deltaTime": 0,
        "channel": 5,
        "type": "channel",
        "noteNumber": 69,
        "velocity": 50,
        "subtype": "noteOn"
      },
      {
        "deltaTime": 250,
        "channel": 5,
        "type": "channel",
        "subtype": "noteOff",
        "noteNumber": 69,
        "velocity": 50
      },
      {
        "deltaTime": 0,
        "channel": 5,
        "type": "channel",
        "subtype": "noteOff",
        "noteNumber": 42,
        "velocity": 70
      },
      {
        "deltaTime": 250,
        "channel": 5,
        "type": "channel",
        "noteNumber": 42,
        "velocity": 70,
        "subtype": "noteOn"
      },
      {
        "deltaTime": 0,
        "channel": 5,
        "type": "channel",
        "noteNumber": 70,
        "velocity": 80,
        "subtype": "noteOn"
      },
      {
        "deltaTime": 48,
        "channel": 5,
        "type": "channel",
        "noteNumber": 37,
        "velocity": 108,
        "subtype": "noteOn"
      },
      {
        "deltaTime": 170,
        "channel": 5,
        "type": "channel",
        "subtype": "noteOff",
        "noteNumber": 37,
        "velocity": 108
      },
      {
        "deltaTime": 32,
        "channel": 5,
        "type": "channel",
        "subtype": "noteOff",
        "noteNumber": 70,
        "velocity": 80
      },
      {
        "deltaTime": 0,
        "channel": 5,
        "type": "channel",
        "subtype": "noteOff",
        "noteNumber": 42,
        "velocity": 70
      },
      {
        "deltaTime": 0,
        "channel": 5,
        "type": "channel",
        "noteNumber": 42,
        "velocity": 80,
        "subtype": "noteOn"
      },
      {
        "deltaTime": 250,
        "channel": 5,
        "type": "channel",
        "subtype": "noteOff",
        "noteNumber": 42,
        "velocity": 80
      },
      {
        "deltaTime": 0,
        "channel": 5,
        "type": "channel",
        "noteNumber": 35,
        "velocity": 70,
        "subtype": "noteOn"
      },
      {
        "deltaTime": 0,
        "channel": 5,
        "type": "channel",
        "noteNumber": 42,
        "velocity": 70,
        "subtype": "noteOn"
      },
      {
        "deltaTime": 0,
        "channel": 5,
        "type": "channel",
        "noteNumber": 69,
        "velocity": 50,
        "subtype": "noteOn"
      },
      {
        "deltaTime": 250,
        "channel": 5,
        "type": "channel",
        "subtype": "noteOff",
        "noteNumber": 69,
        "velocity": 50
      },
      {
        "deltaTime": 0,
        "channel": 5,
        "type": "channel",
        "subtype": "noteOff",
        "noteNumber": 42,
        "velocity": 70
      },
      {
        "deltaTime": 0,
        "channel": 5,
        "type": "channel",
        "subtype": "noteOff",
        "noteNumber": 35,
        "velocity": 70
      },
      {
        "deltaTime": 250,
        "channel": 5,
        "type": "channel",
        "noteNumber": 35,
        "velocity": 100,
        "subtype": "noteOn"
      },
      {
        "deltaTime": 0,
        "channel": 5,
        "type": "channel",
        "noteNumber": 42,
        "velocity": 90,
        "subtype": "noteOn"
      },
      {
        "deltaTime": 0,
        "channel": 5,
        "type": "channel",
        "noteNumber": 70,
        "velocity": 80,
        "subtype": "noteOn"
      },
      {
        "deltaTime": 250,
        "channel": 5,
        "type": "channel",
        "subtype": "noteOff",
        "noteNumber": 70,
        "velocity": 80
      },
      {
        "deltaTime": 0,
        "channel": 5,
        "type": "channel",
        "subtype": "noteOff",
        "noteNumber": 42,
        "velocity": 90
      },
      {
        "deltaTime": 0,
        "channel": 5,
        "type": "channel",
        "subtype": "noteOff",
        "noteNumber": 35,
        "velocity": 100
      },
      {
        "deltaTime": 250,
        "channel": 5,
        "type": "channel",
        "noteNumber": 46,
        "velocity": 72,
        "subtype": "noteOn"
      },
      {
        "deltaTime": 0,
        "channel": 5,
        "type": "channel",
        "noteNumber": 69,
        "velocity": 50,
        "subtype": "noteOn"
      },
      {
        "deltaTime": 58,
        "channel": 5,
        "type": "channel",
        "noteNumber": 37,
        "velocity": 106,
        "subtype": "noteOn"
      },
      {
        "deltaTime": 166,
        "channel": 5,
        "type": "channel",
        "subtype": "noteOff",
        "noteNumber": 37,
        "velocity": 106
      },
      {
        "deltaTime": 26,
        "channel": 5,
        "type": "channel",
        "subtype": "noteOff",
        "noteNumber": 69,
        "velocity": 50
      },
      {
        "deltaTime": 0,
        "channel": 5,
        "type": "channel",
        "subtype": "noteOff",
        "noteNumber": 46,
        "velocity": 72
      },
      {
        "deltaTime": 250,
        "channel": 5,
        "type": "channel",
        "noteNumber": 42,
        "velocity": 70,
        "subtype": "noteOn"
      },
      {
        "deltaTime": 0,
        "channel": 5,
        "type": "channel",
        "noteNumber": 70,
        "velocity": 80,
        "subtype": "noteOn"
      },
      {
        "deltaTime": 250,
        "channel": 5,
        "type": "channel",
        "subtype": "noteOff",
        "noteNumber": 70,
        "velocity": 80
      },
      {
        "deltaTime": 0,
        "channel": 5,
        "type": "channel",
        "subtype": "noteOff",
        "noteNumber": 42,
        "velocity": 70
      },
      {
        "deltaTime": 250,
        "channel": 5,
        "type": "channel",
        "noteNumber": 35,
        "velocity": 70,
        "subtype": "noteOn"
      },
      {
        "deltaTime": 0,
        "channel": 5,
        "type": "channel",
        "noteNumber": 42,
        "velocity": 70,
        "subtype": "noteOn"
      },
      {
        "deltaTime": 0,
        "channel": 5,
        "type": "channel",
        "noteNumber": 69,
        "velocity": 50,
        "subtype": "noteOn"
      },
      {
        "deltaTime": 250,
        "channel": 5,
        "type": "channel",
        "subtype": "noteOff",
        "noteNumber": 69,
        "velocity": 50
      },
      {
        "deltaTime": 0,
        "channel": 5,
        "type": "channel",
        "subtype": "noteOff",
        "noteNumber": 42,
        "velocity": 70
      },
      {
        "deltaTime": 0,
        "channel": 5,
        "type": "channel",
        "subtype": "noteOff",
        "noteNumber": 35,
        "velocity": 70
      },
      {
        "deltaTime": 250,
        "channel": 5,
        "type": "channel",
        "noteNumber": 70,
        "velocity": 80,
        "subtype": "noteOn"
      },
      {
        "deltaTime": 0,
        "channel": 5,
        "type": "channel",
        "noteNumber": 42,
        "velocity": 90,
        "subtype": "noteOn"
      },
      {
        "deltaTime": 0,
        "channel": 5,
        "type": "channel",
        "noteNumber": 35,
        "velocity": 100,
        "subtype": "noteOn"
      },
      {
        "deltaTime": 16,
        "channel": 5,
        "type": "channel",
        "noteNumber": 37,
        "velocity": 108,
        "subtype": "noteOn"
      },
      {
        "deltaTime": 172,
        "channel": 5,
        "type": "channel",
        "subtype": "noteOff",
        "noteNumber": 37,
        "velocity": 108
      },
      {
        "deltaTime": 62,
        "channel": 5,
        "type": "channel",
        "subtype": "noteOff",
        "noteNumber": 35,
        "velocity": 100
      },
      {
        "deltaTime": 0,
        "channel": 5,
        "type": "channel",
        "subtype": "noteOff",
        "noteNumber": 42,
        "velocity": 90
      },
      {
        "deltaTime": 0,
        "channel": 5,
        "type": "channel",
        "subtype": "noteOff",
        "noteNumber": 70,
        "velocity": 80
      },
      {
        "deltaTime": 250,
        "channel": 5,
        "type": "channel",
        "noteNumber": 42,
        "velocity": 70,
        "subtype": "noteOn"
      },
      {
        "deltaTime": 0,
        "channel": 5,
        "type": "channel",
        "noteNumber": 69,
        "velocity": 50,
        "subtype": "noteOn"
      },
      {
        "deltaTime": 250,
        "channel": 5,
        "type": "channel",
        "subtype": "noteOff",
        "noteNumber": 69,
        "velocity": 50
      },
      {
        "deltaTime": 0,
        "channel": 5,
        "type": "channel",
        "subtype": "noteOff",
        "noteNumber": 42,
        "velocity": 70
      },
      {
        "deltaTime": 250,
        "channel": 5,
        "type": "channel",
        "noteNumber": 42,
        "velocity": 70,
        "subtype": "noteOn"
      },
      {
        "deltaTime": 0,
        "channel": 5,
        "type": "channel",
        "noteNumber": 70,
        "velocity": 80,
        "subtype": "noteOn"
      },
      {
        "deltaTime": 48,
        "channel": 5,
        "type": "channel",
        "noteNumber": 37,
        "velocity": 108,
        "subtype": "noteOn"
      },
      {
        "deltaTime": 170,
        "channel": 5,
        "type": "channel",
        "subtype": "noteOff",
        "noteNumber": 37,
        "velocity": 108
      },
      {
        "deltaTime": 32,
        "channel": 5,
        "type": "channel",
        "subtype": "noteOff",
        "noteNumber": 70,
        "velocity": 80
      },
      {
        "deltaTime": 0,
        "channel": 5,
        "type": "channel",
        "subtype": "noteOff",
        "noteNumber": 42,
        "velocity": 70
      },
      {
        "deltaTime": 250,
        "channel": 5,
        "type": "channel",
        "noteNumber": 35,
        "velocity": 70,
        "subtype": "noteOn"
      },
      {
        "deltaTime": 0,
        "channel": 5,
        "type": "channel",
        "noteNumber": 42,
        "velocity": 70,
        "subtype": "noteOn"
      },
      {
        "deltaTime": 0,
        "channel": 5,
        "type": "channel",
        "noteNumber": 69,
        "velocity": 50,
        "subtype": "noteOn"
      },
      {
        "deltaTime": 250,
        "channel": 5,
        "type": "channel",
        "subtype": "noteOff",
        "noteNumber": 69,
        "velocity": 50
      },
      {
        "deltaTime": 0,
        "channel": 5,
        "type": "channel",
        "subtype": "noteOff",
        "noteNumber": 42,
        "velocity": 70
      },
      {
        "deltaTime": 0,
        "channel": 5,
        "type": "channel",
        "subtype": "noteOff",
        "noteNumber": 35,
        "velocity": 70
      },
      {
        "deltaTime": 250,
        "channel": 5,
        "type": "channel",
        "noteNumber": 35,
        "velocity": 100,
        "subtype": "noteOn"
      },
      {
        "deltaTime": 0,
        "channel": 5,
        "type": "channel",
        "noteNumber": 42,
        "velocity": 90,
        "subtype": "noteOn"
      },
      {
        "deltaTime": 0,
        "channel": 5,
        "type": "channel",
        "noteNumber": 70,
        "velocity": 80,
        "subtype": "noteOn"
      },
      {
        "deltaTime": 250,
        "channel": 5,
        "type": "channel",
        "subtype": "noteOff",
        "noteNumber": 70,
        "velocity": 80
      },
      {
        "deltaTime": 0,
        "channel": 5,
        "type": "channel",
        "subtype": "noteOff",
        "noteNumber": 42,
        "velocity": 90
      },
      {
        "deltaTime": 0,
        "channel": 5,
        "type": "channel",
        "subtype": "noteOff",
        "noteNumber": 35,
        "velocity": 100
      },
      {
        "deltaTime": 250,
        "channel": 5,
        "type": "channel",
        "noteNumber": 42,
        "velocity": 70,
        "subtype": "noteOn"
      },
      {
        "deltaTime": 0,
        "channel": 5,
        "type": "channel",
        "noteNumber": 69,
        "velocity": 50,
        "subtype": "noteOn"
      },
      {
        "deltaTime": 58,
        "channel": 5,
        "type": "channel",
        "noteNumber": 37,
        "velocity": 106,
        "subtype": "noteOn"
      },
      {
        "deltaTime": 166,
        "channel": 5,
        "type": "channel",
        "subtype": "noteOff",
        "noteNumber": 37,
        "velocity": 106
      },
      {
        "deltaTime": 26,
        "channel": 5,
        "type": "channel",
        "subtype": "noteOff",
        "noteNumber": 69,
        "velocity": 50
      },
      {
        "deltaTime": 0,
        "channel": 5,
        "type": "channel",
        "subtype": "noteOff",
        "noteNumber": 42,
        "velocity": 70
      },
      {
        "deltaTime": 250,
        "channel": 5,
        "type": "channel",
        "noteNumber": 42,
        "velocity": 70,
        "subtype": "noteOn"
      },
      {
        "deltaTime": 0,
        "channel": 5,
        "type": "channel",
        "noteNumber": 70,
        "velocity": 80,
        "subtype": "noteOn"
      },
      {
        "deltaTime": 250,
        "channel": 5,
        "type": "channel",
        "subtype": "noteOff",
        "noteNumber": 70,
        "velocity": 80
      },
      {
        "deltaTime": 0,
        "channel": 5,
        "type": "channel",
        "subtype": "noteOff",
        "noteNumber": 42,
        "velocity": 70
      },
      {
        "deltaTime": 250,
        "channel": 5,
        "type": "channel",
        "noteNumber": 45,
        "velocity": 50,
        "subtype": "noteOn"
      },
      {
        "deltaTime": 0,
        "channel": 5,
        "type": "channel",
        "noteNumber": 42,
        "velocity": 70,
        "subtype": "noteOn"
      },
      {
        "deltaTime": 0,
        "channel": 5,
        "type": "channel",
        "noteNumber": 35,
        "velocity": 70,
        "subtype": "noteOn"
      },
      {
        "deltaTime": 0,
        "channel": 5,
        "type": "channel",
        "noteNumber": 69,
        "velocity": 50,
        "subtype": "noteOn"
      },
      {
        "deltaTime": 250,
        "channel": 5,
        "type": "channel",
        "subtype": "noteOff",
        "noteNumber": 69,
        "velocity": 50
      },
      {
        "deltaTime": 0,
        "channel": 5,
        "type": "channel",
        "subtype": "noteOff",
        "noteNumber": 35,
        "velocity": 70
      },
      {
        "deltaTime": 0,
        "channel": 5,
        "type": "channel",
        "subtype": "noteOff",
        "noteNumber": 42,
        "velocity": 70
      },
      {
        "deltaTime": 0,
        "channel": 5,
        "type": "channel",
        "subtype": "noteOff",
        "noteNumber": 45,
        "velocity": 50
      },
      {
        "deltaTime": 250,
        "channel": 5,
        "type": "channel",
        "noteNumber": 70,
        "velocity": 80,
        "subtype": "noteOn"
      },
      {
        "deltaTime": 0,
        "channel": 5,
        "type": "channel",
        "noteNumber": 42,
        "velocity": 90,
        "subtype": "noteOn"
      },
      {
        "deltaTime": 0,
        "channel": 5,
        "type": "channel",
        "noteNumber": 35,
        "velocity": 100,
        "subtype": "noteOn"
      },
      {
        "deltaTime": 16,
        "channel": 5,
        "type": "channel",
        "noteNumber": 37,
        "velocity": 108,
        "subtype": "noteOn"
      },
      {
        "deltaTime": 172,
        "channel": 5,
        "type": "channel",
        "subtype": "noteOff",
        "noteNumber": 37,
        "velocity": 108
      },
      {
        "deltaTime": 62,
        "channel": 5,
        "type": "channel",
        "subtype": "noteOff",
        "noteNumber": 35,
        "velocity": 100
      },
      {
        "deltaTime": 0,
        "channel": 5,
        "type": "channel",
        "subtype": "noteOff",
        "noteNumber": 42,
        "velocity": 90
      },
      {
        "deltaTime": 0,
        "channel": 5,
        "type": "channel",
        "subtype": "noteOff",
        "noteNumber": 70,
        "velocity": 80
      },
      {
        "deltaTime": 250,
        "channel": 5,
        "type": "channel",
        "noteNumber": 42,
        "velocity": 70,
        "subtype": "noteOn"
      },
      {
        "deltaTime": 0,
        "channel": 5,
        "type": "channel",
        "noteNumber": 69,
        "velocity": 50,
        "subtype": "noteOn"
      },
      {
        "deltaTime": 250,
        "channel": 5,
        "type": "channel",
        "subtype": "noteOff",
        "noteNumber": 69,
        "velocity": 50
      },
      {
        "deltaTime": 0,
        "channel": 5,
        "type": "channel",
        "subtype": "noteOff",
        "noteNumber": 42,
        "velocity": 70
      },
      {
        "deltaTime": 250,
        "channel": 5,
        "type": "channel",
        "noteNumber": 42,
        "velocity": 70,
        "subtype": "noteOn"
      },
      {
        "deltaTime": 0,
        "channel": 5,
        "type": "channel",
        "noteNumber": 70,
        "velocity": 80,
        "subtype": "noteOn"
      },
      {
        "deltaTime": 48,
        "channel": 5,
        "type": "channel",
        "noteNumber": 37,
        "velocity": 108,
        "subtype": "noteOn"
      },
      {
        "deltaTime": 170,
        "channel": 5,
        "type": "channel",
        "subtype": "noteOff",
        "noteNumber": 37,
        "velocity": 108
      },
      {
        "deltaTime": 32,
        "channel": 5,
        "type": "channel",
        "subtype": "noteOff",
        "noteNumber": 70,
        "velocity": 80
      },
      {
        "deltaTime": 0,
        "channel": 5,
        "type": "channel",
        "subtype": "noteOff",
        "noteNumber": 42,
        "velocity": 70
      },
      {
        "deltaTime": 250,
        "channel": 5,
        "type": "channel",
        "noteNumber": 35,
        "velocity": 70,
        "subtype": "noteOn"
      },
      {
        "deltaTime": 0,
        "channel": 5,
        "type": "channel",
        "noteNumber": 42,
        "velocity": 70,
        "subtype": "noteOn"
      },
      {
        "deltaTime": 0,
        "channel": 5,
        "type": "channel",
        "noteNumber": 69,
        "velocity": 50,
        "subtype": "noteOn"
      },
      {
        "deltaTime": 250,
        "channel": 5,
        "type": "channel",
        "subtype": "noteOff",
        "noteNumber": 69,
        "velocity": 50
      },
      {
        "deltaTime": 0,
        "channel": 5,
        "type": "channel",
        "subtype": "noteOff",
        "noteNumber": 42,
        "velocity": 70
      },
      {
        "deltaTime": 0,
        "channel": 5,
        "type": "channel",
        "subtype": "noteOff",
        "noteNumber": 35,
        "velocity": 70
      },
      {
        "deltaTime": 250,
        "channel": 5,
        "type": "channel",
        "noteNumber": 35,
        "velocity": 100,
        "subtype": "noteOn"
      },
      {
        "deltaTime": 0,
        "channel": 5,
        "type": "channel",
        "noteNumber": 42,
        "velocity": 90,
        "subtype": "noteOn"
      },
      {
        "deltaTime": 0,
        "channel": 5,
        "type": "channel",
        "noteNumber": 70,
        "velocity": 80,
        "subtype": "noteOn"
      },
      {
        "deltaTime": 250,
        "channel": 5,
        "type": "channel",
        "subtype": "noteOff",
        "noteNumber": 70,
        "velocity": 80
      },
      {
        "deltaTime": 0,
        "channel": 5,
        "type": "channel",
        "subtype": "noteOff",
        "noteNumber": 42,
        "velocity": 90
      },
      {
        "deltaTime": 0,
        "channel": 5,
        "type": "channel",
        "subtype": "noteOff",
        "noteNumber": 35,
        "velocity": 100
      },
      {
        "deltaTime": 250,
        "channel": 5,
        "type": "channel",
        "noteNumber": 46,
        "velocity": 72,
        "subtype": "noteOn"
      },
      {
        "deltaTime": 0,
        "channel": 5,
        "type": "channel",
        "noteNumber": 69,
        "velocity": 50,
        "subtype": "noteOn"
      },
      {
        "deltaTime": 58,
        "channel": 5,
        "type": "channel",
        "noteNumber": 37,
        "velocity": 106,
        "subtype": "noteOn"
      },
      {
        "deltaTime": 166,
        "channel": 5,
        "type": "channel",
        "subtype": "noteOff",
        "noteNumber": 37,
        "velocity": 106
      },
      {
        "deltaTime": 26,
        "channel": 5,
        "type": "channel",
        "subtype": "noteOff",
        "noteNumber": 69,
        "velocity": 50
      },
      {
        "deltaTime": 0,
        "channel": 5,
        "type": "channel",
        "subtype": "noteOff",
        "noteNumber": 46,
        "velocity": 72
      },
      {
        "deltaTime": 250,
        "channel": 5,
        "type": "channel",
        "noteNumber": 42,
        "velocity": 70,
        "subtype": "noteOn"
      },
      {
        "deltaTime": 0,
        "channel": 5,
        "type": "channel",
        "noteNumber": 70,
        "velocity": 80,
        "subtype": "noteOn"
      },
      {
        "deltaTime": 250,
        "channel": 5,
        "type": "channel",
        "subtype": "noteOff",
        "noteNumber": 70,
        "velocity": 80
      },
      {
        "deltaTime": 0,
        "channel": 5,
        "type": "channel",
        "subtype": "noteOff",
        "noteNumber": 42,
        "velocity": 70
      },
      {
        "deltaTime": 250,
        "channel": 5,
        "type": "channel",
        "noteNumber": 35,
        "velocity": 70,
        "subtype": "noteOn"
      },
      {
        "deltaTime": 0,
        "channel": 5,
        "type": "channel",
        "noteNumber": 42,
        "velocity": 70,
        "subtype": "noteOn"
      },
      {
        "deltaTime": 0,
        "channel": 5,
        "type": "channel",
        "noteNumber": 69,
        "velocity": 50,
        "subtype": "noteOn"
      },
      {
        "deltaTime": 250,
        "channel": 5,
        "type": "channel",
        "subtype": "noteOff",
        "noteNumber": 69,
        "velocity": 50
      },
      {
        "deltaTime": 0,
        "channel": 5,
        "type": "channel",
        "subtype": "noteOff",
        "noteNumber": 42,
        "velocity": 70
      },
      {
        "deltaTime": 0,
        "channel": 5,
        "type": "channel",
        "subtype": "noteOff",
        "noteNumber": 35,
        "velocity": 70
      },
      {
        "deltaTime": 250,
        "channel": 5,
        "type": "channel",
        "noteNumber": 70,
        "velocity": 80,
        "subtype": "noteOn"
      },
      {
        "deltaTime": 0,
        "channel": 5,
        "type": "channel",
        "noteNumber": 42,
        "velocity": 90,
        "subtype": "noteOn"
      },
      {
        "deltaTime": 0,
        "channel": 5,
        "type": "channel",
        "noteNumber": 35,
        "velocity": 100,
        "subtype": "noteOn"
      },
      {
        "deltaTime": 16,
        "channel": 5,
        "type": "channel",
        "noteNumber": 37,
        "velocity": 108,
        "subtype": "noteOn"
      },
      {
        "deltaTime": 172,
        "channel": 5,
        "type": "channel",
        "subtype": "noteOff",
        "noteNumber": 37,
        "velocity": 108
      },
      {
        "deltaTime": 62,
        "channel": 5,
        "type": "channel",
        "subtype": "noteOff",
        "noteNumber": 35,
        "velocity": 100
      },
      {
        "deltaTime": 0,
        "channel": 5,
        "type": "channel",
        "subtype": "noteOff",
        "noteNumber": 42,
        "velocity": 90
      },
      {
        "deltaTime": 0,
        "channel": 5,
        "type": "channel",
        "subtype": "noteOff",
        "noteNumber": 70,
        "velocity": 80
      },
      {
        "deltaTime": 250,
        "channel": 5,
        "type": "channel",
        "noteNumber": 42,
        "velocity": 70,
        "subtype": "noteOn"
      },
      {
        "deltaTime": 0,
        "channel": 5,
        "type": "channel",
        "noteNumber": 69,
        "velocity": 50,
        "subtype": "noteOn"
      },
      {
        "deltaTime": 250,
        "channel": 5,
        "type": "channel",
        "subtype": "noteOff",
        "noteNumber": 69,
        "velocity": 50
      },
      {
        "deltaTime": 0,
        "channel": 5,
        "type": "channel",
        "subtype": "noteOff",
        "noteNumber": 42,
        "velocity": 70
      },
      {
        "deltaTime": 250,
        "channel": 5,
        "type": "channel",
        "noteNumber": 42,
        "velocity": 70,
        "subtype": "noteOn"
      },
      {
        "deltaTime": 0,
        "channel": 5,
        "type": "channel",
        "noteNumber": 70,
        "velocity": 80,
        "subtype": "noteOn"
      },
      {
        "deltaTime": 48,
        "channel": 5,
        "type": "channel",
        "noteNumber": 37,
        "velocity": 108,
        "subtype": "noteOn"
      },
      {
        "deltaTime": 170,
        "channel": 5,
        "type": "channel",
        "subtype": "noteOff",
        "noteNumber": 37,
        "velocity": 108
      },
      {
        "deltaTime": 32,
        "channel": 5,
        "type": "channel",
        "subtype": "noteOff",
        "noteNumber": 70,
        "velocity": 80
      },
      {
        "deltaTime": 0,
        "channel": 5,
        "type": "channel",
        "subtype": "noteOff",
        "noteNumber": 42,
        "velocity": 70
      },
      {
        "deltaTime": 250,
        "channel": 5,
        "type": "channel",
        "noteNumber": 35,
        "velocity": 70,
        "subtype": "noteOn"
      },
      {
        "deltaTime": 0,
        "channel": 5,
        "type": "channel",
        "noteNumber": 42,
        "velocity": 70,
        "subtype": "noteOn"
      },
      {
        "deltaTime": 0,
        "channel": 5,
        "type": "channel",
        "noteNumber": 69,
        "velocity": 50,
        "subtype": "noteOn"
      },
      {
        "deltaTime": 250,
        "channel": 5,
        "type": "channel",
        "subtype": "noteOff",
        "noteNumber": 69,
        "velocity": 50
      },
      {
        "deltaTime": 0,
        "channel": 5,
        "type": "channel",
        "subtype": "noteOff",
        "noteNumber": 42,
        "velocity": 70
      },
      {
        "deltaTime": 0,
        "channel": 5,
        "type": "channel",
        "subtype": "noteOff",
        "noteNumber": 35,
        "velocity": 70
      },
      {
        "deltaTime": 250,
        "channel": 5,
        "type": "channel",
        "noteNumber": 35,
        "velocity": 100,
        "subtype": "noteOn"
      },
      {
        "deltaTime": 0,
        "channel": 5,
        "type": "channel",
        "noteNumber": 42,
        "velocity": 90,
        "subtype": "noteOn"
      },
      {
        "deltaTime": 0,
        "channel": 5,
        "type": "channel",
        "noteNumber": 70,
        "velocity": 80,
        "subtype": "noteOn"
      },
      {
        "deltaTime": 250,
        "channel": 5,
        "type": "channel",
        "subtype": "noteOff",
        "noteNumber": 70,
        "velocity": 80
      },
      {
        "deltaTime": 0,
        "channel": 5,
        "type": "channel",
        "subtype": "noteOff",
        "noteNumber": 42,
        "velocity": 90
      },
      {
        "deltaTime": 0,
        "channel": 5,
        "type": "channel",
        "subtype": "noteOff",
        "noteNumber": 35,
        "velocity": 100
      },
      {
        "deltaTime": 250,
        "channel": 5,
        "type": "channel",
        "noteNumber": 42,
        "velocity": 70,
        "subtype": "noteOn"
      },
      {
        "deltaTime": 0,
        "channel": 5,
        "type": "channel",
        "noteNumber": 69,
        "velocity": 50,
        "subtype": "noteOn"
      },
      {
        "deltaTime": 58,
        "channel": 5,
        "type": "channel",
        "noteNumber": 37,
        "velocity": 106,
        "subtype": "noteOn"
      },
      {
        "deltaTime": 166,
        "channel": 5,
        "type": "channel",
        "subtype": "noteOff",
        "noteNumber": 37,
        "velocity": 106
      },
      {
        "deltaTime": 26,
        "channel": 5,
        "type": "channel",
        "subtype": "noteOff",
        "noteNumber": 69,
        "velocity": 50
      },
      {
        "deltaTime": 0,
        "channel": 5,
        "type": "channel",
        "subtype": "noteOff",
        "noteNumber": 42,
        "velocity": 70
      },
      {
        "deltaTime": 250,
        "channel": 5,
        "type": "channel",
        "noteNumber": 42,
        "velocity": 70,
        "subtype": "noteOn"
      },
      {
        "deltaTime": 0,
        "channel": 5,
        "type": "channel",
        "noteNumber": 70,
        "velocity": 80,
        "subtype": "noteOn"
      },
      {
        "deltaTime": 250,
        "channel": 5,
        "type": "channel",
        "subtype": "noteOff",
        "noteNumber": 70,
        "velocity": 80
      },
      {
        "deltaTime": 0,
        "channel": 5,
        "type": "channel",
        "subtype": "noteOff",
        "noteNumber": 42,
        "velocity": 70
      },
      {
        "deltaTime": 250,
        "channel": 5,
        "type": "channel",
        "noteNumber": 35,
        "velocity": 70,
        "subtype": "noteOn"
      },
      {
        "deltaTime": 0,
        "channel": 5,
        "type": "channel",
        "noteNumber": 42,
        "velocity": 70,
        "subtype": "noteOn"
      },
      {
        "deltaTime": 0,
        "channel": 5,
        "type": "channel",
        "noteNumber": 69,
        "velocity": 50,
        "subtype": "noteOn"
      },
      {
        "deltaTime": 250,
        "channel": 5,
        "type": "channel",
        "subtype": "noteOff",
        "noteNumber": 69,
        "velocity": 50
      },
      {
        "deltaTime": 0,
        "channel": 5,
        "type": "channel",
        "subtype": "noteOff",
        "noteNumber": 42,
        "velocity": 70
      },
      {
        "deltaTime": 0,
        "channel": 5,
        "type": "channel",
        "subtype": "noteOff",
        "noteNumber": 35,
        "velocity": 70
      },
      {
        "deltaTime": 250,
        "channel": 5,
        "type": "channel",
        "noteNumber": 70,
        "velocity": 80,
        "subtype": "noteOn"
      },
      {
        "deltaTime": 0,
        "channel": 5,
        "type": "channel",
        "noteNumber": 42,
        "velocity": 90,
        "subtype": "noteOn"
      },
      {
        "deltaTime": 0,
        "channel": 5,
        "type": "channel",
        "noteNumber": 35,
        "velocity": 100,
        "subtype": "noteOn"
      },
      {
        "deltaTime": 16,
        "channel": 5,
        "type": "channel",
        "noteNumber": 37,
        "velocity": 108,
        "subtype": "noteOn"
      },
      {
        "deltaTime": 172,
        "channel": 5,
        "type": "channel",
        "subtype": "noteOff",
        "noteNumber": 37,
        "velocity": 108
      },
      {
        "deltaTime": 62,
        "channel": 5,
        "type": "channel",
        "subtype": "noteOff",
        "noteNumber": 35,
        "velocity": 100
      },
      {
        "deltaTime": 0,
        "channel": 5,
        "type": "channel",
        "subtype": "noteOff",
        "noteNumber": 42,
        "velocity": 90
      },
      {
        "deltaTime": 0,
        "channel": 5,
        "type": "channel",
        "subtype": "noteOff",
        "noteNumber": 70,
        "velocity": 80
      },
      {
        "deltaTime": 250,
        "channel": 5,
        "type": "channel",
        "noteNumber": 42,
        "velocity": 70,
        "subtype": "noteOn"
      },
      {
        "deltaTime": 0,
        "channel": 5,
        "type": "channel",
        "noteNumber": 69,
        "velocity": 50,
        "subtype": "noteOn"
      },
      {
        "deltaTime": 250,
        "channel": 5,
        "type": "channel",
        "subtype": "noteOff",
        "noteNumber": 69,
        "velocity": 50
      },
      {
        "deltaTime": 0,
        "channel": 5,
        "type": "channel",
        "subtype": "noteOff",
        "noteNumber": 42,
        "velocity": 70
      },
      {
        "deltaTime": 250,
        "channel": 5,
        "type": "channel",
        "noteNumber": 42,
        "velocity": 70,
        "subtype": "noteOn"
      },
      {
        "deltaTime": 0,
        "channel": 5,
        "type": "channel",
        "noteNumber": 70,
        "velocity": 80,
        "subtype": "noteOn"
      },
      {
        "deltaTime": 48,
        "channel": 5,
        "type": "channel",
        "noteNumber": 37,
        "velocity": 108,
        "subtype": "noteOn"
      },
      {
        "deltaTime": 170,
        "channel": 5,
        "type": "channel",
        "subtype": "noteOff",
        "noteNumber": 37,
        "velocity": 108
      },
      {
        "deltaTime": 32,
        "channel": 5,
        "type": "channel",
        "subtype": "noteOff",
        "noteNumber": 70,
        "velocity": 80
      },
      {
        "deltaTime": 0,
        "channel": 5,
        "type": "channel",
        "subtype": "noteOff",
        "noteNumber": 42,
        "velocity": 70
      },
      {
        "deltaTime": 0,
        "channel": 5,
        "type": "channel",
        "noteNumber": 42,
        "velocity": 80,
        "subtype": "noteOn"
      },
      {
        "deltaTime": 250,
        "channel": 5,
        "type": "channel",
        "subtype": "noteOff",
        "noteNumber": 42,
        "velocity": 80
      },
      {
        "deltaTime": 0,
        "channel": 5,
        "type": "channel",
        "noteNumber": 35,
        "velocity": 70,
        "subtype": "noteOn"
      },
      {
        "deltaTime": 0,
        "channel": 5,
        "type": "channel",
        "noteNumber": 42,
        "velocity": 70,
        "subtype": "noteOn"
      },
      {
        "deltaTime": 0,
        "channel": 5,
        "type": "channel",
        "noteNumber": 69,
        "velocity": 50,
        "subtype": "noteOn"
      },
      {
        "deltaTime": 250,
        "channel": 5,
        "type": "channel",
        "subtype": "noteOff",
        "noteNumber": 69,
        "velocity": 50
      },
      {
        "deltaTime": 0,
        "channel": 5,
        "type": "channel",
        "subtype": "noteOff",
        "noteNumber": 42,
        "velocity": 70
      },
      {
        "deltaTime": 0,
        "channel": 5,
        "type": "channel",
        "subtype": "noteOff",
        "noteNumber": 35,
        "velocity": 70
      },
      {
        "deltaTime": 250,
        "channel": 5,
        "type": "channel",
        "noteNumber": 35,
        "velocity": 100,
        "subtype": "noteOn"
      },
      {
        "deltaTime": 0,
        "channel": 5,
        "type": "channel",
        "noteNumber": 42,
        "velocity": 90,
        "subtype": "noteOn"
      },
      {
        "deltaTime": 0,
        "channel": 5,
        "type": "channel",
        "noteNumber": 70,
        "velocity": 80,
        "subtype": "noteOn"
      },
      {
        "deltaTime": 250,
        "channel": 5,
        "type": "channel",
        "subtype": "noteOff",
        "noteNumber": 70,
        "velocity": 80
      },
      {
        "deltaTime": 0,
        "channel": 5,
        "type": "channel",
        "subtype": "noteOff",
        "noteNumber": 42,
        "velocity": 90
      },
      {
        "deltaTime": 0,
        "channel": 5,
        "type": "channel",
        "subtype": "noteOff",
        "noteNumber": 35,
        "velocity": 100
      },
      {
        "deltaTime": 250,
        "channel": 5,
        "type": "channel",
        "noteNumber": 46,
        "velocity": 72,
        "subtype": "noteOn"
      },
      {
        "deltaTime": 0,
        "channel": 5,
        "type": "channel",
        "noteNumber": 69,
        "velocity": 50,
        "subtype": "noteOn"
      },
      {
        "deltaTime": 58,
        "channel": 5,
        "type": "channel",
        "noteNumber": 37,
        "velocity": 106,
        "subtype": "noteOn"
      },
      {
        "deltaTime": 166,
        "channel": 5,
        "type": "channel",
        "subtype": "noteOff",
        "noteNumber": 37,
        "velocity": 106
      },
      {
        "deltaTime": 26,
        "channel": 5,
        "type": "channel",
        "subtype": "noteOff",
        "noteNumber": 69,
        "velocity": 50
      },
      {
        "deltaTime": 0,
        "channel": 5,
        "type": "channel",
        "subtype": "noteOff",
        "noteNumber": 46,
        "velocity": 72
      },
      {
        "deltaTime": 250,
        "channel": 5,
        "type": "channel",
        "noteNumber": 42,
        "velocity": 70,
        "subtype": "noteOn"
      },
      {
        "deltaTime": 0,
        "channel": 5,
        "type": "channel",
        "noteNumber": 70,
        "velocity": 80,
        "subtype": "noteOn"
      },
      {
        "deltaTime": 250,
        "channel": 5,
        "type": "channel",
        "subtype": "noteOff",
        "noteNumber": 70,
        "velocity": 80
      },
      {
        "deltaTime": 0,
        "channel": 5,
        "type": "channel",
        "subtype": "noteOff",
        "noteNumber": 42,
        "velocity": 70
      },
      {
        "deltaTime": 250,
        "channel": 5,
        "type": "channel",
        "noteNumber": 35,
        "velocity": 70,
        "subtype": "noteOn"
      },
      {
        "deltaTime": 0,
        "channel": 5,
        "type": "channel",
        "noteNumber": 42,
        "velocity": 70,
        "subtype": "noteOn"
      },
      {
        "deltaTime": 0,
        "channel": 5,
        "type": "channel",
        "noteNumber": 69,
        "velocity": 50,
        "subtype": "noteOn"
      },
      {
        "deltaTime": 250,
        "channel": 5,
        "type": "channel",
        "subtype": "noteOff",
        "noteNumber": 69,
        "velocity": 50
      },
      {
        "deltaTime": 0,
        "channel": 5,
        "type": "channel",
        "subtype": "noteOff",
        "noteNumber": 42,
        "velocity": 70
      },
      {
        "deltaTime": 0,
        "channel": 5,
        "type": "channel",
        "subtype": "noteOff",
        "noteNumber": 35,
        "velocity": 70
      },
      {
        "deltaTime": 250,
        "channel": 5,
        "type": "channel",
        "noteNumber": 70,
        "velocity": 80,
        "subtype": "noteOn"
      },
      {
        "deltaTime": 0,
        "channel": 5,
        "type": "channel",
        "noteNumber": 42,
        "velocity": 90,
        "subtype": "noteOn"
      },
      {
        "deltaTime": 0,
        "channel": 5,
        "type": "channel",
        "noteNumber": 35,
        "velocity": 100,
        "subtype": "noteOn"
      },
      {
        "deltaTime": 16,
        "channel": 5,
        "type": "channel",
        "noteNumber": 37,
        "velocity": 108,
        "subtype": "noteOn"
      },
      {
        "deltaTime": 172,
        "channel": 5,
        "type": "channel",
        "subtype": "noteOff",
        "noteNumber": 37,
        "velocity": 108
      },
      {
        "deltaTime": 62,
        "channel": 5,
        "type": "channel",
        "subtype": "noteOff",
        "noteNumber": 35,
        "velocity": 100
      },
      {
        "deltaTime": 0,
        "channel": 5,
        "type": "channel",
        "subtype": "noteOff",
        "noteNumber": 42,
        "velocity": 90
      },
      {
        "deltaTime": 0,
        "channel": 5,
        "type": "channel",
        "subtype": "noteOff",
        "noteNumber": 70,
        "velocity": 80
      },
      {
        "deltaTime": 250,
        "channel": 5,
        "type": "channel",
        "noteNumber": 42,
        "velocity": 70,
        "subtype": "noteOn"
      },
      {
        "deltaTime": 0,
        "channel": 5,
        "type": "channel",
        "noteNumber": 69,
        "velocity": 50,
        "subtype": "noteOn"
      },
      {
        "deltaTime": 250,
        "channel": 5,
        "type": "channel",
        "subtype": "noteOff",
        "noteNumber": 69,
        "velocity": 50
      },
      {
        "deltaTime": 0,
        "channel": 5,
        "type": "channel",
        "subtype": "noteOff",
        "noteNumber": 42,
        "velocity": 70
      },
      {
        "deltaTime": 250,
        "channel": 5,
        "type": "channel",
        "noteNumber": 42,
        "velocity": 70,
        "subtype": "noteOn"
      },
      {
        "deltaTime": 0,
        "channel": 5,
        "type": "channel",
        "noteNumber": 70,
        "velocity": 80,
        "subtype": "noteOn"
      },
      {
        "deltaTime": 48,
        "channel": 5,
        "type": "channel",
        "noteNumber": 37,
        "velocity": 108,
        "subtype": "noteOn"
      },
      {
        "deltaTime": 170,
        "channel": 5,
        "type": "channel",
        "subtype": "noteOff",
        "noteNumber": 37,
        "velocity": 108
      },
      {
        "deltaTime": 32,
        "channel": 5,
        "type": "channel",
        "subtype": "noteOff",
        "noteNumber": 70,
        "velocity": 80
      },
      {
        "deltaTime": 0,
        "channel": 5,
        "type": "channel",
        "subtype": "noteOff",
        "noteNumber": 42,
        "velocity": 70
      },
      {
        "deltaTime": 250,
        "channel": 5,
        "type": "channel",
        "noteNumber": 35,
        "velocity": 70,
        "subtype": "noteOn"
      },
      {
        "deltaTime": 0,
        "channel": 5,
        "type": "channel",
        "noteNumber": 42,
        "velocity": 70,
        "subtype": "noteOn"
      },
      {
        "deltaTime": 0,
        "channel": 5,
        "type": "channel",
        "noteNumber": 69,
        "velocity": 50,
        "subtype": "noteOn"
      },
      {
        "deltaTime": 250,
        "channel": 5,
        "type": "channel",
        "subtype": "noteOff",
        "noteNumber": 69,
        "velocity": 50
      },
      {
        "deltaTime": 0,
        "channel": 5,
        "type": "channel",
        "subtype": "noteOff",
        "noteNumber": 42,
        "velocity": 70
      },
      {
        "deltaTime": 0,
        "channel": 5,
        "type": "channel",
        "subtype": "noteOff",
        "noteNumber": 35,
        "velocity": 70
      },
      {
        "deltaTime": 250,
        "channel": 5,
        "type": "channel",
        "noteNumber": 35,
        "velocity": 100,
        "subtype": "noteOn"
      },
      {
        "deltaTime": 0,
        "channel": 5,
        "type": "channel",
        "noteNumber": 42,
        "velocity": 90,
        "subtype": "noteOn"
      },
      {
        "deltaTime": 0,
        "channel": 5,
        "type": "channel",
        "noteNumber": 70,
        "velocity": 80,
        "subtype": "noteOn"
      },
      {
        "deltaTime": 250,
        "channel": 5,
        "type": "channel",
        "subtype": "noteOff",
        "noteNumber": 70,
        "velocity": 80
      },
      {
        "deltaTime": 0,
        "channel": 5,
        "type": "channel",
        "subtype": "noteOff",
        "noteNumber": 42,
        "velocity": 90
      },
      {
        "deltaTime": 0,
        "channel": 5,
        "type": "channel",
        "subtype": "noteOff",
        "noteNumber": 35,
        "velocity": 100
      },
      {
        "deltaTime": 250,
        "channel": 5,
        "type": "channel",
        "noteNumber": 42,
        "velocity": 70,
        "subtype": "noteOn"
      },
      {
        "deltaTime": 0,
        "channel": 5,
        "type": "channel",
        "noteNumber": 69,
        "velocity": 50,
        "subtype": "noteOn"
      },
      {
        "deltaTime": 58,
        "channel": 5,
        "type": "channel",
        "noteNumber": 37,
        "velocity": 106,
        "subtype": "noteOn"
      },
      {
        "deltaTime": 166,
        "channel": 5,
        "type": "channel",
        "subtype": "noteOff",
        "noteNumber": 37,
        "velocity": 106
      },
      {
        "deltaTime": 26,
        "channel": 5,
        "type": "channel",
        "subtype": "noteOff",
        "noteNumber": 69,
        "velocity": 50
      },
      {
        "deltaTime": 0,
        "channel": 5,
        "type": "channel",
        "subtype": "noteOff",
        "noteNumber": 42,
        "velocity": 70
      },
      {
        "deltaTime": 250,
        "channel": 5,
        "type": "channel",
        "noteNumber": 42,
        "velocity": 70,
        "subtype": "noteOn"
      },
      {
        "deltaTime": 0,
        "channel": 5,
        "type": "channel",
        "noteNumber": 70,
        "velocity": 80,
        "subtype": "noteOn"
      },
      {
        "deltaTime": 250,
        "channel": 5,
        "type": "channel",
        "subtype": "noteOff",
        "noteNumber": 70,
        "velocity": 80
      },
      {
        "deltaTime": 0,
        "channel": 5,
        "type": "channel",
        "subtype": "noteOff",
        "noteNumber": 42,
        "velocity": 70
      },
      {
        "deltaTime": 250,
        "channel": 5,
        "type": "channel",
        "noteNumber": 35,
        "velocity": 70,
        "subtype": "noteOn"
      },
      {
        "deltaTime": 0,
        "channel": 5,
        "type": "channel",
        "noteNumber": 42,
        "velocity": 70,
        "subtype": "noteOn"
      },
      {
        "deltaTime": 0,
        "channel": 5,
        "type": "channel",
        "noteNumber": 69,
        "velocity": 50,
        "subtype": "noteOn"
      },
      {
        "deltaTime": 250,
        "channel": 5,
        "type": "channel",
        "subtype": "noteOff",
        "noteNumber": 69,
        "velocity": 50
      },
      {
        "deltaTime": 0,
        "channel": 5,
        "type": "channel",
        "subtype": "noteOff",
        "noteNumber": 42,
        "velocity": 70
      },
      {
        "deltaTime": 0,
        "channel": 5,
        "type": "channel",
        "subtype": "noteOff",
        "noteNumber": 35,
        "velocity": 70
      },
      {
        "deltaTime": 250,
        "channel": 5,
        "type": "channel",
        "noteNumber": 70,
        "velocity": 80,
        "subtype": "noteOn"
      },
      {
        "deltaTime": 0,
        "channel": 5,
        "type": "channel",
        "noteNumber": 42,
        "velocity": 90,
        "subtype": "noteOn"
      },
      {
        "deltaTime": 0,
        "channel": 5,
        "type": "channel",
        "noteNumber": 35,
        "velocity": 100,
        "subtype": "noteOn"
      },
      {
        "deltaTime": 16,
        "channel": 5,
        "type": "channel",
        "noteNumber": 37,
        "velocity": 108,
        "subtype": "noteOn"
      },
      {
        "deltaTime": 172,
        "channel": 5,
        "type": "channel",
        "subtype": "noteOff",
        "noteNumber": 37,
        "velocity": 108
      },
      {
        "deltaTime": 62,
        "channel": 5,
        "type": "channel",
        "subtype": "noteOff",
        "noteNumber": 35,
        "velocity": 100
      },
      {
        "deltaTime": 0,
        "channel": 5,
        "type": "channel",
        "subtype": "noteOff",
        "noteNumber": 42,
        "velocity": 90
      },
      {
        "deltaTime": 0,
        "channel": 5,
        "type": "channel",
        "subtype": "noteOff",
        "noteNumber": 70,
        "velocity": 80
      },
      {
        "deltaTime": 250,
        "channel": 5,
        "type": "channel",
        "noteNumber": 42,
        "velocity": 70,
        "subtype": "noteOn"
      },
      {
        "deltaTime": 0,
        "channel": 5,
        "type": "channel",
        "noteNumber": 69,
        "velocity": 50,
        "subtype": "noteOn"
      },
      {
        "deltaTime": 250,
        "channel": 5,
        "type": "channel",
        "subtype": "noteOff",
        "noteNumber": 69,
        "velocity": 50
      },
      {
        "deltaTime": 0,
        "channel": 5,
        "type": "channel",
        "subtype": "noteOff",
        "noteNumber": 42,
        "velocity": 70
      },
      {
        "deltaTime": 250,
        "channel": 5,
        "type": "channel",
        "noteNumber": 42,
        "velocity": 70,
        "subtype": "noteOn"
      },
      {
        "deltaTime": 0,
        "channel": 5,
        "type": "channel",
        "noteNumber": 70,
        "velocity": 80,
        "subtype": "noteOn"
      },
      {
        "deltaTime": 48,
        "channel": 5,
        "type": "channel",
        "noteNumber": 37,
        "velocity": 108,
        "subtype": "noteOn"
      },
      {
        "deltaTime": 170,
        "channel": 5,
        "type": "channel",
        "subtype": "noteOff",
        "noteNumber": 37,
        "velocity": 108
      },
      {
        "deltaTime": 32,
        "channel": 5,
        "type": "channel",
        "subtype": "noteOff",
        "noteNumber": 70,
        "velocity": 80
      },
      {
        "deltaTime": 0,
        "channel": 5,
        "type": "channel",
        "subtype": "noteOff",
        "noteNumber": 42,
        "velocity": 70
      },
      {
        "deltaTime": 0,
        "channel": 5,
        "type": "channel",
        "noteNumber": 42,
        "velocity": 80,
        "subtype": "noteOn"
      },
      {
        "deltaTime": 250,
        "channel": 5,
        "type": "channel",
        "subtype": "noteOff",
        "noteNumber": 42,
        "velocity": 80
      },
      {
        "deltaTime": 0,
        "channel": 5,
        "type": "channel",
        "noteNumber": 35,
        "velocity": 70,
        "subtype": "noteOn"
      },
      {
        "deltaTime": 0,
        "channel": 5,
        "type": "channel",
        "noteNumber": 42,
        "velocity": 70,
        "subtype": "noteOn"
      },
      {
        "deltaTime": 0,
        "channel": 5,
        "type": "channel",
        "noteNumber": 69,
        "velocity": 50,
        "subtype": "noteOn"
      },
      {
        "deltaTime": 250,
        "channel": 5,
        "type": "channel",
        "subtype": "noteOff",
        "noteNumber": 69,
        "velocity": 50
      },
      {
        "deltaTime": 0,
        "channel": 5,
        "type": "channel",
        "subtype": "noteOff",
        "noteNumber": 42,
        "velocity": 70
      },
      {
        "deltaTime": 0,
        "channel": 5,
        "type": "channel",
        "subtype": "noteOff",
        "noteNumber": 35,
        "velocity": 70
      },
      {
        "deltaTime": 250,
        "channel": 5,
        "type": "channel",
        "noteNumber": 35,
        "velocity": 100,
        "subtype": "noteOn"
      },
      {
        "deltaTime": 0,
        "channel": 5,
        "type": "channel",
        "noteNumber": 42,
        "velocity": 90,
        "subtype": "noteOn"
      },
      {
        "deltaTime": 0,
        "channel": 5,
        "type": "channel",
        "noteNumber": 70,
        "velocity": 80,
        "subtype": "noteOn"
      },
      {
        "deltaTime": 250,
        "channel": 5,
        "type": "channel",
        "subtype": "noteOff",
        "noteNumber": 70,
        "velocity": 80
      },
      {
        "deltaTime": 0,
        "channel": 5,
        "type": "channel",
        "subtype": "noteOff",
        "noteNumber": 42,
        "velocity": 90
      },
      {
        "deltaTime": 0,
        "channel": 5,
        "type": "channel",
        "subtype": "noteOff",
        "noteNumber": 35,
        "velocity": 100
      },
      {
        "deltaTime": 250,
        "channel": 5,
        "type": "channel",
        "noteNumber": 42,
        "velocity": 70,
        "subtype": "noteOn"
      },
      {
        "deltaTime": 0,
        "channel": 5,
        "type": "channel",
        "noteNumber": 69,
        "velocity": 50,
        "subtype": "noteOn"
      },
      {
        "deltaTime": 58,
        "channel": 5,
        "type": "channel",
        "noteNumber": 37,
        "velocity": 106,
        "subtype": "noteOn"
      },
      {
        "deltaTime": 166,
        "channel": 5,
        "type": "channel",
        "subtype": "noteOff",
        "noteNumber": 37,
        "velocity": 106
      },
      {
        "deltaTime": 26,
        "channel": 5,
        "type": "channel",
        "subtype": "noteOff",
        "noteNumber": 69,
        "velocity": 50
      },
      {
        "deltaTime": 0,
        "channel": 5,
        "type": "channel",
        "subtype": "noteOff",
        "noteNumber": 42,
        "velocity": 70
      },
      {
        "deltaTime": 250,
        "channel": 5,
        "type": "channel",
        "noteNumber": 42,
        "velocity": 70,
        "subtype": "noteOn"
      },
      {
        "deltaTime": 0,
        "channel": 5,
        "type": "channel",
        "noteNumber": 70,
        "velocity": 80,
        "subtype": "noteOn"
      },
      {
        "deltaTime": 250,
        "channel": 5,
        "type": "channel",
        "subtype": "noteOff",
        "noteNumber": 70,
        "velocity": 80
      },
      {
        "deltaTime": 0,
        "channel": 5,
        "type": "channel",
        "subtype": "noteOff",
        "noteNumber": 42,
        "velocity": 70
      },
      {
        "deltaTime": 250,
        "channel": 5,
        "type": "channel",
        "noteNumber": 35,
        "velocity": 70,
        "subtype": "noteOn"
      },
      {
        "deltaTime": 0,
        "channel": 5,
        "type": "channel",
        "noteNumber": 42,
        "velocity": 70,
        "subtype": "noteOn"
      },
      {
        "deltaTime": 0,
        "channel": 5,
        "type": "channel",
        "noteNumber": 69,
        "velocity": 50,
        "subtype": "noteOn"
      },
      {
        "deltaTime": 250,
        "channel": 5,
        "type": "channel",
        "subtype": "noteOff",
        "noteNumber": 69,
        "velocity": 50
      },
      {
        "deltaTime": 0,
        "channel": 5,
        "type": "channel",
        "subtype": "noteOff",
        "noteNumber": 42,
        "velocity": 70
      },
      {
        "deltaTime": 0,
        "channel": 5,
        "type": "channel",
        "subtype": "noteOff",
        "noteNumber": 35,
        "velocity": 70
      },
      {
        "deltaTime": 250,
        "channel": 5,
        "type": "channel",
        "noteNumber": 70,
        "velocity": 80,
        "subtype": "noteOn"
      },
      {
        "deltaTime": 0,
        "channel": 5,
        "type": "channel",
        "noteNumber": 42,
        "velocity": 90,
        "subtype": "noteOn"
      },
      {
        "deltaTime": 0,
        "channel": 5,
        "type": "channel",
        "noteNumber": 35,
        "velocity": 100,
        "subtype": "noteOn"
      },
      {
        "deltaTime": 16,
        "channel": 5,
        "type": "channel",
        "noteNumber": 37,
        "velocity": 108,
        "subtype": "noteOn"
      },
      {
        "deltaTime": 172,
        "channel": 5,
        "type": "channel",
        "subtype": "noteOff",
        "noteNumber": 37,
        "velocity": 108
      },
      {
        "deltaTime": 62,
        "channel": 5,
        "type": "channel",
        "subtype": "noteOff",
        "noteNumber": 35,
        "velocity": 100
      },
      {
        "deltaTime": 0,
        "channel": 5,
        "type": "channel",
        "subtype": "noteOff",
        "noteNumber": 42,
        "velocity": 90
      },
      {
        "deltaTime": 0,
        "channel": 5,
        "type": "channel",
        "subtype": "noteOff",
        "noteNumber": 70,
        "velocity": 80
      },
      {
        "deltaTime": 250,
        "channel": 5,
        "type": "channel",
        "noteNumber": 42,
        "velocity": 70,
        "subtype": "noteOn"
      },
      {
        "deltaTime": 0,
        "channel": 5,
        "type": "channel",
        "noteNumber": 69,
        "velocity": 50,
        "subtype": "noteOn"
      },
      {
        "deltaTime": 250,
        "channel": 5,
        "type": "channel",
        "subtype": "noteOff",
        "noteNumber": 69,
        "velocity": 50
      },
      {
        "deltaTime": 0,
        "channel": 5,
        "type": "channel",
        "subtype": "noteOff",
        "noteNumber": 42,
        "velocity": 70
      },
      {
        "deltaTime": 250,
        "channel": 5,
        "type": "channel",
        "noteNumber": 42,
        "velocity": 70,
        "subtype": "noteOn"
      },
      {
        "deltaTime": 0,
        "channel": 5,
        "type": "channel",
        "noteNumber": 70,
        "velocity": 80,
        "subtype": "noteOn"
      },
      {
        "deltaTime": 48,
        "channel": 5,
        "type": "channel",
        "noteNumber": 37,
        "velocity": 108,
        "subtype": "noteOn"
      },
      {
        "deltaTime": 170,
        "channel": 5,
        "type": "channel",
        "subtype": "noteOff",
        "noteNumber": 37,
        "velocity": 108
      },
      {
        "deltaTime": 32,
        "channel": 5,
        "type": "channel",
        "subtype": "noteOff",
        "noteNumber": 70,
        "velocity": 80
      },
      {
        "deltaTime": 0,
        "channel": 5,
        "type": "channel",
        "subtype": "noteOff",
        "noteNumber": 42,
        "velocity": 70
      },
      {
        "deltaTime": 250,
        "channel": 5,
        "type": "channel",
        "noteNumber": 35,
        "velocity": 70,
        "subtype": "noteOn"
      },
      {
        "deltaTime": 0,
        "channel": 5,
        "type": "channel",
        "noteNumber": 42,
        "velocity": 70,
        "subtype": "noteOn"
      },
      {
        "deltaTime": 0,
        "channel": 5,
        "type": "channel",
        "noteNumber": 69,
        "velocity": 50,
        "subtype": "noteOn"
      },
      {
        "deltaTime": 250,
        "channel": 5,
        "type": "channel",
        "subtype": "noteOff",
        "noteNumber": 69,
        "velocity": 50
      },
      {
        "deltaTime": 0,
        "channel": 5,
        "type": "channel",
        "subtype": "noteOff",
        "noteNumber": 42,
        "velocity": 70
      },
      {
        "deltaTime": 0,
        "channel": 5,
        "type": "channel",
        "subtype": "noteOff",
        "noteNumber": 35,
        "velocity": 70
      },
      {
        "deltaTime": 250,
        "channel": 5,
        "type": "channel",
        "noteNumber": 35,
        "velocity": 100,
        "subtype": "noteOn"
      },
      {
        "deltaTime": 0,
        "channel": 5,
        "type": "channel",
        "noteNumber": 42,
        "velocity": 90,
        "subtype": "noteOn"
      },
      {
        "deltaTime": 0,
        "channel": 5,
        "type": "channel",
        "noteNumber": 70,
        "velocity": 80,
        "subtype": "noteOn"
      },
      {
        "deltaTime": 250,
        "channel": 5,
        "type": "channel",
        "subtype": "noteOff",
        "noteNumber": 70,
        "velocity": 80
      },
      {
        "deltaTime": 0,
        "channel": 5,
        "type": "channel",
        "subtype": "noteOff",
        "noteNumber": 42,
        "velocity": 90
      },
      {
        "deltaTime": 0,
        "channel": 5,
        "type": "channel",
        "subtype": "noteOff",
        "noteNumber": 35,
        "velocity": 100
      },
      {
        "deltaTime": 250,
        "channel": 5,
        "type": "channel",
        "noteNumber": 42,
        "velocity": 70,
        "subtype": "noteOn"
      },
      {
        "deltaTime": 0,
        "channel": 5,
        "type": "channel",
        "noteNumber": 69,
        "velocity": 50,
        "subtype": "noteOn"
      },
      {
        "deltaTime": 58,
        "channel": 5,
        "type": "channel",
        "noteNumber": 37,
        "velocity": 106,
        "subtype": "noteOn"
      },
      {
        "deltaTime": 166,
        "channel": 5,
        "type": "channel",
        "subtype": "noteOff",
        "noteNumber": 37,
        "velocity": 106
      },
      {
        "deltaTime": 26,
        "channel": 5,
        "type": "channel",
        "subtype": "noteOff",
        "noteNumber": 69,
        "velocity": 50
      },
      {
        "deltaTime": 0,
        "channel": 5,
        "type": "channel",
        "subtype": "noteOff",
        "noteNumber": 42,
        "velocity": 70
      },
      {
        "deltaTime": 250,
        "channel": 5,
        "type": "channel",
        "noteNumber": 42,
        "velocity": 70,
        "subtype": "noteOn"
      },
      {
        "deltaTime": 0,
        "channel": 5,
        "type": "channel",
        "noteNumber": 70,
        "velocity": 80,
        "subtype": "noteOn"
      },
      {
        "deltaTime": 250,
        "channel": 5,
        "type": "channel",
        "subtype": "noteOff",
        "noteNumber": 70,
        "velocity": 80
      },
      {
        "deltaTime": 0,
        "channel": 5,
        "type": "channel",
        "subtype": "noteOff",
        "noteNumber": 42,
        "velocity": 70
      },
      {
        "deltaTime": 250,
        "channel": 5,
        "type": "channel",
        "noteNumber": 35,
        "velocity": 70,
        "subtype": "noteOn"
      },
      {
        "deltaTime": 0,
        "channel": 5,
        "type": "channel",
        "noteNumber": 46,
        "velocity": 72,
        "subtype": "noteOn"
      },
      {
        "deltaTime": 0,
        "channel": 5,
        "type": "channel",
        "noteNumber": 69,
        "velocity": 50,
        "subtype": "noteOn"
      },
      {
        "deltaTime": 250,
        "channel": 5,
        "type": "channel",
        "subtype": "noteOff",
        "noteNumber": 69,
        "velocity": 50
      },
      {
        "deltaTime": 0,
        "channel": 5,
        "type": "channel",
        "subtype": "noteOff",
        "noteNumber": 46,
        "velocity": 72
      },
      {
        "deltaTime": 0,
        "channel": 5,
        "type": "channel",
        "subtype": "noteOff",
        "noteNumber": 35,
        "velocity": 70
      },
      {
        "deltaTime": 250,
        "channel": 5,
        "type": "channel",
        "noteNumber": 70,
        "velocity": 80,
        "subtype": "noteOn"
      },
      {
        "deltaTime": 0,
        "channel": 5,
        "type": "channel",
        "noteNumber": 42,
        "velocity": 90,
        "subtype": "noteOn"
      },
      {
        "deltaTime": 0,
        "channel": 5,
        "type": "channel",
        "noteNumber": 35,
        "velocity": 100,
        "subtype": "noteOn"
      },
      {
        "deltaTime": 16,
        "channel": 5,
        "type": "channel",
        "noteNumber": 37,
        "velocity": 108,
        "subtype": "noteOn"
      },
      {
        "deltaTime": 172,
        "channel": 5,
        "type": "channel",
        "subtype": "noteOff",
        "noteNumber": 37,
        "velocity": 108
      },
      {
        "deltaTime": 62,
        "channel": 5,
        "type": "channel",
        "subtype": "noteOff",
        "noteNumber": 35,
        "velocity": 100
      },
      {
        "deltaTime": 0,
        "channel": 5,
        "type": "channel",
        "subtype": "noteOff",
        "noteNumber": 42,
        "velocity": 90
      },
      {
        "deltaTime": 0,
        "channel": 5,
        "type": "channel",
        "subtype": "noteOff",
        "noteNumber": 70,
        "velocity": 80
      },
      {
        "deltaTime": 250,
        "channel": 5,
        "type": "channel",
        "noteNumber": 42,
        "velocity": 70,
        "subtype": "noteOn"
      },
      {
        "deltaTime": 0,
        "channel": 5,
        "type": "channel",
        "noteNumber": 69,
        "velocity": 50,
        "subtype": "noteOn"
      },
      {
        "deltaTime": 250,
        "channel": 5,
        "type": "channel",
        "subtype": "noteOff",
        "noteNumber": 69,
        "velocity": 50
      },
      {
        "deltaTime": 0,
        "channel": 5,
        "type": "channel",
        "subtype": "noteOff",
        "noteNumber": 42,
        "velocity": 70
      },
      {
        "deltaTime": 250,
        "channel": 5,
        "type": "channel",
        "noteNumber": 42,
        "velocity": 70,
        "subtype": "noteOn"
      },
      {
        "deltaTime": 0,
        "channel": 5,
        "type": "channel",
        "noteNumber": 70,
        "velocity": 80,
        "subtype": "noteOn"
      },
      {
        "deltaTime": 48,
        "channel": 5,
        "type": "channel",
        "noteNumber": 37,
        "velocity": 108,
        "subtype": "noteOn"
      },
      {
        "deltaTime": 170,
        "channel": 5,
        "type": "channel",
        "subtype": "noteOff",
        "noteNumber": 37,
        "velocity": 108
      },
      {
        "deltaTime": 32,
        "channel": 5,
        "type": "channel",
        "subtype": "noteOff",
        "noteNumber": 70,
        "velocity": 80
      },
      {
        "deltaTime": 0,
        "channel": 5,
        "type": "channel",
        "subtype": "noteOff",
        "noteNumber": 42,
        "velocity": 70
      },
      {
        "deltaTime": 250,
        "channel": 5,
        "type": "channel",
        "noteNumber": 35,
        "velocity": 70,
        "subtype": "noteOn"
      },
      {
        "deltaTime": 0,
        "channel": 5,
        "type": "channel",
        "noteNumber": 42,
        "velocity": 70,
        "subtype": "noteOn"
      },
      {
        "deltaTime": 0,
        "channel": 5,
        "type": "channel",
        "noteNumber": 69,
        "velocity": 50,
        "subtype": "noteOn"
      },
      {
        "deltaTime": 250,
        "channel": 5,
        "type": "channel",
        "subtype": "noteOff",
        "noteNumber": 69,
        "velocity": 50
      },
      {
        "deltaTime": 0,
        "channel": 5,
        "type": "channel",
        "subtype": "noteOff",
        "noteNumber": 42,
        "velocity": 70
      },
      {
        "deltaTime": 0,
        "channel": 5,
        "type": "channel",
        "subtype": "noteOff",
        "noteNumber": 35,
        "velocity": 70
      },
      {
        "deltaTime": 250,
        "channel": 5,
        "type": "channel",
        "noteNumber": 35,
        "velocity": 100,
        "subtype": "noteOn"
      },
      {
        "deltaTime": 0,
        "channel": 5,
        "type": "channel",
        "noteNumber": 42,
        "velocity": 90,
        "subtype": "noteOn"
      },
      {
        "deltaTime": 0,
        "channel": 5,
        "type": "channel",
        "noteNumber": 70,
        "velocity": 80,
        "subtype": "noteOn"
      },
      {
        "deltaTime": 250,
        "channel": 5,
        "type": "channel",
        "subtype": "noteOff",
        "noteNumber": 70,
        "velocity": 80
      },
      {
        "deltaTime": 0,
        "channel": 5,
        "type": "channel",
        "subtype": "noteOff",
        "noteNumber": 42,
        "velocity": 90
      },
      {
        "deltaTime": 0,
        "channel": 5,
        "type": "channel",
        "subtype": "noteOff",
        "noteNumber": 35,
        "velocity": 100
      },
      {
        "deltaTime": 250,
        "channel": 5,
        "type": "channel",
        "noteNumber": 46,
        "velocity": 72,
        "subtype": "noteOn"
      },
      {
        "deltaTime": 0,
        "channel": 5,
        "type": "channel",
        "noteNumber": 69,
        "velocity": 50,
        "subtype": "noteOn"
      },
      {
        "deltaTime": 58,
        "channel": 5,
        "type": "channel",
        "noteNumber": 37,
        "velocity": 106,
        "subtype": "noteOn"
      },
      {
        "deltaTime": 166,
        "channel": 5,
        "type": "channel",
        "subtype": "noteOff",
        "noteNumber": 37,
        "velocity": 106
      },
      {
        "deltaTime": 26,
        "channel": 5,
        "type": "channel",
        "subtype": "noteOff",
        "noteNumber": 69,
        "velocity": 50
      },
      {
        "deltaTime": 0,
        "channel": 5,
        "type": "channel",
        "subtype": "noteOff",
        "noteNumber": 46,
        "velocity": 72
      },
      {
        "deltaTime": 250,
        "channel": 5,
        "type": "channel",
        "noteNumber": 42,
        "velocity": 70,
        "subtype": "noteOn"
      },
      {
        "deltaTime": 0,
        "channel": 5,
        "type": "channel",
        "noteNumber": 70,
        "velocity": 80,
        "subtype": "noteOn"
      },
      {
        "deltaTime": 250,
        "channel": 5,
        "type": "channel",
        "subtype": "noteOff",
        "noteNumber": 70,
        "velocity": 80
      },
      {
        "deltaTime": 0,
        "channel": 5,
        "type": "channel",
        "subtype": "noteOff",
        "noteNumber": 42,
        "velocity": 70
      },
      {
        "deltaTime": 250,
        "channel": 5,
        "type": "channel",
        "noteNumber": 35,
        "velocity": 70,
        "subtype": "noteOn"
      },
      {
        "deltaTime": 0,
        "channel": 5,
        "type": "channel",
        "noteNumber": 42,
        "velocity": 70,
        "subtype": "noteOn"
      },
      {
        "deltaTime": 0,
        "channel": 5,
        "type": "channel",
        "noteNumber": 69,
        "velocity": 50,
        "subtype": "noteOn"
      },
      {
        "deltaTime": 250,
        "channel": 5,
        "type": "channel",
        "subtype": "noteOff",
        "noteNumber": 69,
        "velocity": 50
      },
      {
        "deltaTime": 0,
        "channel": 5,
        "type": "channel",
        "subtype": "noteOff",
        "noteNumber": 42,
        "velocity": 70
      },
      {
        "deltaTime": 0,
        "channel": 5,
        "type": "channel",
        "subtype": "noteOff",
        "noteNumber": 35,
        "velocity": 70
      },
      {
        "deltaTime": 250,
        "channel": 5,
        "type": "channel",
        "noteNumber": 35,
        "velocity": 100,
        "subtype": "noteOn"
      },
      {
        "deltaTime": 0,
        "channel": 5,
        "type": "channel",
        "noteNumber": 70,
        "velocity": 80,
        "subtype": "noteOn"
      },
      {
        "deltaTime": 16,
        "channel": 5,
        "type": "channel",
        "noteNumber": 37,
        "velocity": 108,
        "subtype": "noteOn"
      },
      {
        "deltaTime": 172,
        "channel": 5,
        "type": "channel",
        "subtype": "noteOff",
        "noteNumber": 37,
        "velocity": 108
      },
      {
        "deltaTime": 62,
        "channel": 5,
        "type": "channel",
        "subtype": "noteOff",
        "noteNumber": 70,
        "velocity": 80
      },
      {
        "deltaTime": 0,
        "channel": 5,
        "type": "channel",
        "subtype": "noteOff",
        "noteNumber": 35,
        "velocity": 100
      },
      {
        "deltaTime": 250,
        "channel": 5,
        "type": "channel",
        "noteNumber": 69,
        "velocity": 50,
        "subtype": "noteOn"
      },
      {
        "deltaTime": 250,
        "channel": 5,
        "type": "channel",
        "subtype": "noteOff",
        "noteNumber": 69,
        "velocity": 50
      },
      {
        "deltaTime": 250,
        "channel": 5,
        "type": "channel",
        "noteNumber": 41,
        "velocity": 90,
        "subtype": "noteOn"
      },
      {
        "deltaTime": 0,
        "channel": 5,
        "type": "channel",
        "noteNumber": 70,
        "velocity": 80,
        "subtype": "noteOn"
      },
      {
        "deltaTime": 48,
        "channel": 5,
        "type": "channel",
        "noteNumber": 37,
        "velocity": 108,
        "subtype": "noteOn"
      },
      {
        "deltaTime": 170,
        "channel": 5,
        "type": "channel",
        "subtype": "noteOff",
        "noteNumber": 37,
        "velocity": 108
      },
      {
        "deltaTime": 32,
        "channel": 5,
        "type": "channel",
        "subtype": "noteOff",
        "noteNumber": 70,
        "velocity": 80
      },
      {
        "deltaTime": 0,
        "channel": 5,
        "type": "channel",
        "subtype": "noteOff",
        "noteNumber": 41,
        "velocity": 90
      },
      {
        "deltaTime": 250,
        "channel": 5,
        "type": "channel",
        "noteNumber": 35,
        "velocity": 70,
        "subtype": "noteOn"
      },
      {
        "deltaTime": 0,
        "channel": 5,
        "type": "channel",
        "noteNumber": 69,
        "velocity": 50,
        "subtype": "noteOn"
      },
      {
        "deltaTime": 250,
        "channel": 5,
        "type": "channel",
        "subtype": "noteOff",
        "noteNumber": 69,
        "velocity": 50
      },
      {
        "deltaTime": 0,
        "channel": 5,
        "type": "channel",
        "subtype": "noteOff",
        "noteNumber": 35,
        "velocity": 70
      },
      {
        "deltaTime": 250,
        "channel": 5,
        "type": "channel",
        "noteNumber": 48,
        "velocity": 80,
        "subtype": "noteOn"
      },
      {
        "deltaTime": 0,
        "channel": 5,
        "type": "channel",
        "noteNumber": 38,
        "velocity": 90,
        "subtype": "noteOn"
      },
      {
        "deltaTime": 0,
        "channel": 5,
        "type": "channel",
        "noteNumber": 35,
        "velocity": 100,
        "subtype": "noteOn"
      },
      {
        "deltaTime": 0,
        "channel": 5,
        "type": "channel",
        "noteNumber": 70,
        "velocity": 80,
        "subtype": "noteOn"
      },
      {
        "deltaTime": 250,
        "channel": 5,
        "type": "channel",
        "subtype": "noteOff",
        "noteNumber": 70,
        "velocity": 80
      },
      {
        "deltaTime": 0,
        "channel": 5,
        "type": "channel",
        "subtype": "noteOff",
        "noteNumber": 35,
        "velocity": 100
      },
      {
        "deltaTime": 0,
        "channel": 5,
        "type": "channel",
        "subtype": "noteOff",
        "noteNumber": 38,
        "velocity": 90
      },
      {
        "deltaTime": 0,
        "channel": 5,
        "type": "channel",
        "subtype": "noteOff",
        "noteNumber": 48,
        "velocity": 80
      },
      {
        "deltaTime": 250,
        "channel": 5,
        "type": "channel",
        "noteNumber": 45,
        "velocity": 90,
        "subtype": "noteOn"
      },
      {
        "deltaTime": 0,
        "channel": 5,
        "type": "channel",
        "noteNumber": 69,
        "velocity": 50,
        "subtype": "noteOn"
      },
      {
        "deltaTime": 58,
        "channel": 5,
        "type": "channel",
        "noteNumber": 37,
        "velocity": 106,
        "subtype": "noteOn"
      },
      {
        "deltaTime": 166,
        "channel": 5,
        "type": "channel",
        "subtype": "noteOff",
        "noteNumber": 37,
        "velocity": 106
      },
      {
        "deltaTime": 26,
        "channel": 5,
        "type": "channel",
        "subtype": "noteOff",
        "noteNumber": 69,
        "velocity": 50
      },
      {
        "deltaTime": 0,
        "channel": 5,
        "type": "channel",
        "subtype": "noteOff",
        "noteNumber": 45,
        "velocity": 90
      },
      {
        "deltaTime": 250,
        "channel": 5,
        "type": "channel",
        "noteNumber": 70,
        "velocity": 80,
        "subtype": "noteOn"
      },
      {
        "deltaTime": 250,
        "channel": 5,
        "type": "channel",
        "subtype": "noteOff",
        "noteNumber": 70,
        "velocity": 80
      },
      {
        "deltaTime": 250,
        "channel": 5,
        "type": "channel",
        "noteNumber": 35,
        "velocity": 70,
        "subtype": "noteOn"
      },
      {
        "deltaTime": 0,
        "channel": 5,
        "type": "channel",
        "noteNumber": 41,
        "velocity": 100,
        "subtype": "noteOn"
      },
      {
        "deltaTime": 0,
        "channel": 5,
        "type": "channel",
        "noteNumber": 69,
        "velocity": 50,
        "subtype": "noteOn"
      },
      {
        "deltaTime": 250,
        "channel": 5,
        "type": "channel",
        "subtype": "noteOff",
        "noteNumber": 69,
        "velocity": 50
      },
      {
        "deltaTime": 0,
        "channel": 5,
        "type": "channel",
        "subtype": "noteOff",
        "noteNumber": 41,
        "velocity": 100
      },
      {
        "deltaTime": 0,
        "channel": 5,
        "type": "channel",
        "subtype": "noteOff",
        "noteNumber": 35,
        "velocity": 70
      },
      {
        "deltaTime": 250,
        "channel": 5,
        "type": "channel",
        "noteNumber": 70,
        "velocity": 80,
        "subtype": "noteOn"
      },
      {
        "deltaTime": 0,
        "channel": 5,
        "type": "channel",
        "noteNumber": 49,
        "velocity": 70,
        "subtype": "noteOn"
      },
      {
        "deltaTime": 0,
        "channel": 5,
        "type": "channel",
        "noteNumber": 35,
        "velocity": 100,
        "subtype": "noteOn"
      },
      {
        "deltaTime": 16,
        "channel": 5,
        "type": "channel",
        "noteNumber": 37,
        "velocity": 108,
        "subtype": "noteOn"
      },
      {
        "deltaTime": 172,
        "channel": 5,
        "type": "channel",
        "subtype": "noteOff",
        "noteNumber": 37,
        "velocity": 108
      },
      {
        "deltaTime": 62,
        "channel": 5,
        "type": "channel",
        "subtype": "noteOff",
        "noteNumber": 35,
        "velocity": 100
      },
      {
        "deltaTime": 0,
        "channel": 5,
        "type": "channel",
        "subtype": "noteOff",
        "noteNumber": 49,
        "velocity": 70
      },
      {
        "deltaTime": 0,
        "channel": 5,
        "type": "channel",
        "subtype": "noteOff",
        "noteNumber": 70,
        "velocity": 80
      },
      {
        "deltaTime": 250,
        "channel": 5,
        "type": "channel",
        "noteNumber": 51,
        "velocity": 70,
        "subtype": "noteOn"
      },
      {
        "deltaTime": 0,
        "channel": 5,
        "type": "channel",
        "noteNumber": 63,
        "velocity": 40,
        "subtype": "noteOn"
      },
      {
        "deltaTime": 0,
        "channel": 5,
        "type": "channel",
        "noteNumber": 69,
        "velocity": 50,
        "subtype": "noteOn"
      },
      {
        "deltaTime": 250,
        "channel": 5,
        "type": "channel",
        "subtype": "noteOff",
        "noteNumber": 69,
        "velocity": 50
      },
      {
        "deltaTime": 0,
        "channel": 5,
        "type": "channel",
        "subtype": "noteOff",
        "noteNumber": 63,
        "velocity": 40
      },
      {
        "deltaTime": 0,
        "channel": 5,
        "type": "channel",
        "subtype": "noteOff",
        "noteNumber": 51,
        "velocity": 70
      },
      {
        "deltaTime": 250,
        "channel": 5,
        "type": "channel",
        "noteNumber": 70,
        "velocity": 80,
        "subtype": "noteOn"
      },
      {
        "deltaTime": 0,
        "channel": 5,
        "type": "channel",
        "noteNumber": 63,
        "velocity": 60,
        "subtype": "noteOn"
      },
      {
        "deltaTime": 0,
        "channel": 5,
        "type": "channel",
        "noteNumber": 51,
        "velocity": 90,
        "subtype": "noteOn"
      },
      {
        "deltaTime": 48,
        "channel": 5,
        "type": "channel",
        "noteNumber": 37,
        "velocity": 108,
        "subtype": "noteOn"
      },
      {
        "deltaTime": 170,
        "channel": 5,
        "type": "channel",
        "subtype": "noteOff",
        "noteNumber": 37,
        "velocity": 108
      },
      {
        "deltaTime": 32,
        "channel": 5,
        "type": "channel",
        "subtype": "noteOff",
        "noteNumber": 51,
        "velocity": 90
      },
      {
        "deltaTime": 0,
        "channel": 5,
        "type": "channel",
        "subtype": "noteOff",
        "noteNumber": 63,
        "velocity": 60
      },
      {
        "deltaTime": 0,
        "channel": 5,
        "type": "channel",
        "subtype": "noteOff",
        "noteNumber": 70,
        "velocity": 80
      },
      {
        "deltaTime": 250,
        "channel": 5,
        "type": "channel",
        "noteNumber": 62,
        "velocity": 70,
        "subtype": "noteOn"
      },
      {
        "deltaTime": 0,
        "channel": 5,
        "type": "channel",
        "noteNumber": 51,
        "velocity": 70,
        "subtype": "noteOn"
      },
      {
        "deltaTime": 0,
        "channel": 5,
        "type": "channel",
        "noteNumber": 35,
        "velocity": 70,
        "subtype": "noteOn"
      },
      {
        "deltaTime": 0,
        "channel": 5,
        "type": "channel",
        "noteNumber": 69,
        "velocity": 50,
        "subtype": "noteOn"
      },
      {
        "deltaTime": 250,
        "channel": 5,
        "type": "channel",
        "subtype": "noteOff",
        "noteNumber": 69,
        "velocity": 50
      },
      {
        "deltaTime": 0,
        "channel": 5,
        "type": "channel",
        "subtype": "noteOff",
        "noteNumber": 35,
        "velocity": 70
      },
      {
        "deltaTime": 0,
        "channel": 5,
        "type": "channel",
        "subtype": "noteOff",
        "noteNumber": 51,
        "velocity": 70
      },
      {
        "deltaTime": 0,
        "channel": 5,
        "type": "channel",
        "subtype": "noteOff",
        "noteNumber": 62,
        "velocity": 70
      },
      {
        "deltaTime": 250,
        "channel": 5,
        "type": "channel",
        "noteNumber": 35,
        "velocity": 100,
        "subtype": "noteOn"
      },
      {
        "deltaTime": 0,
        "channel": 5,
        "type": "channel",
        "noteNumber": 51,
        "velocity": 90,
        "subtype": "noteOn"
      },
      {
        "deltaTime": 0,
        "channel": 5,
        "type": "channel",
        "noteNumber": 70,
        "velocity": 80,
        "subtype": "noteOn"
      },
      {
        "deltaTime": 250,
        "channel": 5,
        "type": "channel",
        "subtype": "noteOff",
        "noteNumber": 70,
        "velocity": 80
      },
      {
        "deltaTime": 0,
        "channel": 5,
        "type": "channel",
        "subtype": "noteOff",
        "noteNumber": 51,
        "velocity": 90
      },
      {
        "deltaTime": 0,
        "channel": 5,
        "type": "channel",
        "subtype": "noteOff",
        "noteNumber": 35,
        "velocity": 100
      },
      {
        "deltaTime": 250,
        "channel": 5,
        "type": "channel",
        "noteNumber": 51,
        "velocity": 70,
        "subtype": "noteOn"
      },
      {
        "deltaTime": 0,
        "channel": 5,
        "type": "channel",
        "noteNumber": 69,
        "velocity": 50,
        "subtype": "noteOn"
      },
      {
        "deltaTime": 58,
        "channel": 5,
        "type": "channel",
        "noteNumber": 37,
        "velocity": 106,
        "subtype": "noteOn"
      },
      {
        "deltaTime": 166,
        "channel": 5,
        "type": "channel",
        "subtype": "noteOff",
        "noteNumber": 37,
        "velocity": 106
      },
      {
        "deltaTime": 26,
        "channel": 5,
        "type": "channel",
        "subtype": "noteOff",
        "noteNumber": 69,
        "velocity": 50
      },
      {
        "deltaTime": 0,
        "channel": 5,
        "type": "channel",
        "subtype": "noteOff",
        "noteNumber": 51,
        "velocity": 70
      },
      {
        "deltaTime": 250,
        "channel": 5,
        "type": "channel",
        "noteNumber": 62,
        "velocity": 70,
        "subtype": "noteOn"
      },
      {
        "deltaTime": 0,
        "channel": 5,
        "type": "channel",
        "noteNumber": 51,
        "velocity": 90,
        "subtype": "noteOn"
      },
      {
        "deltaTime": 0,
        "channel": 5,
        "type": "channel",
        "noteNumber": 56,
        "velocity": 40,
        "subtype": "noteOn"
      },
      {
        "deltaTime": 0,
        "channel": 5,
        "type": "channel",
        "noteNumber": 70,
        "velocity": 80,
        "subtype": "noteOn"
      },
      {
        "deltaTime": 250,
        "channel": 5,
        "type": "channel",
        "subtype": "noteOff",
        "noteNumber": 70,
        "velocity": 80
      },
      {
        "deltaTime": 0,
        "channel": 5,
        "type": "channel",
        "subtype": "noteOff",
        "noteNumber": 56,
        "velocity": 40
      },
      {
        "deltaTime": 0,
        "channel": 5,
        "type": "channel",
        "subtype": "noteOff",
        "noteNumber": 51,
        "velocity": 90
      },
      {
        "deltaTime": 0,
        "channel": 5,
        "type": "channel",
        "subtype": "noteOff",
        "noteNumber": 62,
        "velocity": 70
      },
      {
        "deltaTime": 250,
        "channel": 5,
        "type": "channel",
        "noteNumber": 35,
        "velocity": 70,
        "subtype": "noteOn"
      },
      {
        "deltaTime": 0,
        "channel": 5,
        "type": "channel",
        "noteNumber": 51,
        "velocity": 70,
        "subtype": "noteOn"
      },
      {
        "deltaTime": 0,
        "channel": 5,
        "type": "channel",
        "noteNumber": 69,
        "velocity": 50,
        "subtype": "noteOn"
      },
      {
        "deltaTime": 250,
        "channel": 5,
        "type": "channel",
        "subtype": "noteOff",
        "noteNumber": 69,
        "velocity": 50
      },
      {
        "deltaTime": 0,
        "channel": 5,
        "type": "channel",
        "subtype": "noteOff",
        "noteNumber": 51,
        "velocity": 70
      },
      {
        "deltaTime": 0,
        "channel": 5,
        "type": "channel",
        "subtype": "noteOff",
        "noteNumber": 35,
        "velocity": 70
      },
      {
        "deltaTime": 250,
        "channel": 5,
        "type": "channel",
        "noteNumber": 63,
        "velocity": 40,
        "subtype": "noteOn"
      },
      {
        "deltaTime": 0,
        "channel": 5,
        "type": "channel",
        "noteNumber": 70,
        "velocity": 80,
        "subtype": "noteOn"
      },
      {
        "deltaTime": 0,
        "channel": 5,
        "type": "channel",
        "noteNumber": 35,
        "velocity": 100,
        "subtype": "noteOn"
      },
      {
        "deltaTime": 0,
        "channel": 5,
        "type": "channel",
        "noteNumber": 51,
        "velocity": 90,
        "subtype": "noteOn"
      },
      {
        "deltaTime": 0,
        "channel": 5,
        "type": "channel",
        "noteNumber": 56,
        "velocity": 40,
        "subtype": "noteOn"
      },
      {
        "deltaTime": 16,
        "channel": 5,
        "type": "channel",
        "noteNumber": 37,
        "velocity": 108,
        "subtype": "noteOn"
      },
      {
        "deltaTime": 172,
        "channel": 5,
        "type": "channel",
        "subtype": "noteOff",
        "noteNumber": 37,
        "velocity": 108
      },
      {
        "deltaTime": 62,
        "channel": 5,
        "type": "channel",
        "subtype": "noteOff",
        "noteNumber": 56,
        "velocity": 40
      },
      {
        "deltaTime": 0,
        "channel": 5,
        "type": "channel",
        "subtype": "noteOff",
        "noteNumber": 51,
        "velocity": 90
      },
      {
        "deltaTime": 0,
        "channel": 5,
        "type": "channel",
        "subtype": "noteOff",
        "noteNumber": 35,
        "velocity": 100
      },
      {
        "deltaTime": 0,
        "channel": 5,
        "type": "channel",
        "subtype": "noteOff",
        "noteNumber": 70,
        "velocity": 80
      },
      {
        "deltaTime": 0,
        "channel": 5,
        "type": "channel",
        "subtype": "noteOff",
        "noteNumber": 63,
        "velocity": 40
      },
      {
        "deltaTime": 250,
        "channel": 5,
        "type": "channel",
        "noteNumber": 51,
        "velocity": 70,
        "subtype": "noteOn"
      },
      {
        "deltaTime": 0,
        "channel": 5,
        "type": "channel",
        "noteNumber": 63,
        "velocity": 40,
        "subtype": "noteOn"
      },
      {
        "deltaTime": 0,
        "channel": 5,
        "type": "channel",
        "noteNumber": 69,
        "velocity": 50,
        "subtype": "noteOn"
      },
      {
        "deltaTime": 250,
        "channel": 5,
        "type": "channel",
        "subtype": "noteOff",
        "noteNumber": 69,
        "velocity": 50
      },
      {
        "deltaTime": 0,
        "channel": 5,
        "type": "channel",
        "subtype": "noteOff",
        "noteNumber": 63,
        "velocity": 40
      },
      {
        "deltaTime": 0,
        "channel": 5,
        "type": "channel",
        "subtype": "noteOff",
        "noteNumber": 51,
        "velocity": 70
      },
      {
        "deltaTime": 250,
        "channel": 5,
        "type": "channel",
        "noteNumber": 51,
        "velocity": 90,
        "subtype": "noteOn"
      },
      {
        "deltaTime": 0,
        "channel": 5,
        "type": "channel",
        "noteNumber": 70,
        "velocity": 80,
        "subtype": "noteOn"
      },
      {
        "deltaTime": 48,
        "channel": 5,
        "type": "channel",
        "noteNumber": 37,
        "velocity": 108,
        "subtype": "noteOn"
      },
      {
        "deltaTime": 170,
        "channel": 5,
        "type": "channel",
        "subtype": "noteOff",
        "noteNumber": 37,
        "velocity": 108
      },
      {
        "deltaTime": 32,
        "channel": 5,
        "type": "channel",
        "subtype": "noteOff",
        "noteNumber": 70,
        "velocity": 80
      },
      {
        "deltaTime": 0,
        "channel": 5,
        "type": "channel",
        "subtype": "noteOff",
        "noteNumber": 51,
        "velocity": 90
      },
      {
        "deltaTime": 250,
        "channel": 5,
        "type": "channel",
        "noteNumber": 51,
        "velocity": 70,
        "subtype": "noteOn"
      },
      {
        "deltaTime": 0,
        "channel": 5,
        "type": "channel",
        "noteNumber": 56,
        "velocity": 40,
        "subtype": "noteOn"
      },
      {
        "deltaTime": 0,
        "channel": 5,
        "type": "channel",
        "noteNumber": 35,
        "velocity": 70,
        "subtype": "noteOn"
      },
      {
        "deltaTime": 0,
        "channel": 5,
        "type": "channel",
        "noteNumber": 69,
        "velocity": 50,
        "subtype": "noteOn"
      },
      {
        "deltaTime": 250,
        "channel": 5,
        "type": "channel",
        "subtype": "noteOff",
        "noteNumber": 69,
        "velocity": 50
      },
      {
        "deltaTime": 0,
        "channel": 5,
        "type": "channel",
        "subtype": "noteOff",
        "noteNumber": 35,
        "velocity": 70
      },
      {
        "deltaTime": 0,
        "channel": 5,
        "type": "channel",
        "subtype": "noteOff",
        "noteNumber": 56,
        "velocity": 40
      },
      {
        "deltaTime": 0,
        "channel": 5,
        "type": "channel",
        "subtype": "noteOff",
        "noteNumber": 51,
        "velocity": 70
      },
      {
        "deltaTime": 250,
        "channel": 5,
        "type": "channel",
        "noteNumber": 35,
        "velocity": 100,
        "subtype": "noteOn"
      },
      {
        "deltaTime": 0,
        "channel": 5,
        "type": "channel",
        "noteNumber": 51,
        "velocity": 90,
        "subtype": "noteOn"
      },
      {
        "deltaTime": 0,
        "channel": 5,
        "type": "channel",
        "noteNumber": 70,
        "velocity": 80,
        "subtype": "noteOn"
      },
      {
        "deltaTime": 250,
        "channel": 5,
        "type": "channel",
        "subtype": "noteOff",
        "noteNumber": 70,
        "velocity": 80
      },
      {
        "deltaTime": 0,
        "channel": 5,
        "type": "channel",
        "subtype": "noteOff",
        "noteNumber": 51,
        "velocity": 90
      },
      {
        "deltaTime": 0,
        "channel": 5,
        "type": "channel",
        "subtype": "noteOff",
        "noteNumber": 35,
        "velocity": 100
      },
      {
        "deltaTime": 250,
        "channel": 5,
        "type": "channel",
        "noteNumber": 51,
        "velocity": 70,
        "subtype": "noteOn"
      },
      {
        "deltaTime": 0,
        "channel": 5,
        "type": "channel",
        "noteNumber": 69,
        "velocity": 50,
        "subtype": "noteOn"
      },
      {
        "deltaTime": 58,
        "channel": 5,
        "type": "channel",
        "noteNumber": 37,
        "velocity": 106,
        "subtype": "noteOn"
      },
      {
        "deltaTime": 166,
        "channel": 5,
        "type": "channel",
        "subtype": "noteOff",
        "noteNumber": 37,
        "velocity": 106
      },
      {
        "deltaTime": 26,
        "channel": 5,
        "type": "channel",
        "subtype": "noteOff",
        "noteNumber": 69,
        "velocity": 50
      },
      {
        "deltaTime": 0,
        "channel": 5,
        "type": "channel",
        "subtype": "noteOff",
        "noteNumber": 51,
        "velocity": 70
      },
      {
        "deltaTime": 250,
        "channel": 5,
        "type": "channel",
        "noteNumber": 45,
        "velocity": 70,
        "subtype": "noteOn"
      },
      {
        "deltaTime": 0,
        "channel": 5,
        "type": "channel",
        "noteNumber": 51,
        "velocity": 90,
        "subtype": "noteOn"
      },
      {
        "deltaTime": 0,
        "channel": 5,
        "type": "channel",
        "noteNumber": 56,
        "velocity": 40,
        "subtype": "noteOn"
      },
      {
        "deltaTime": 0,
        "channel": 5,
        "type": "channel",
        "noteNumber": 70,
        "velocity": 80,
        "subtype": "noteOn"
      },
      {
        "deltaTime": 250,
        "channel": 5,
        "type": "channel",
        "subtype": "noteOff",
        "noteNumber": 70,
        "velocity": 80
      },
      {
        "deltaTime": 0,
        "channel": 5,
        "type": "channel",
        "subtype": "noteOff",
        "noteNumber": 56,
        "velocity": 40
      },
      {
        "deltaTime": 0,
        "channel": 5,
        "type": "channel",
        "subtype": "noteOff",
        "noteNumber": 51,
        "velocity": 90
      },
      {
        "deltaTime": 0,
        "channel": 5,
        "type": "channel",
        "subtype": "noteOff",
        "noteNumber": 45,
        "velocity": 70
      },
      {
        "deltaTime": 250,
        "channel": 5,
        "type": "channel",
        "noteNumber": 35,
        "velocity": 70,
        "subtype": "noteOn"
      },
      {
        "deltaTime": 0,
        "channel": 5,
        "type": "channel",
        "noteNumber": 51,
        "velocity": 70,
        "subtype": "noteOn"
      },
      {
        "deltaTime": 0,
        "channel": 5,
        "type": "channel",
        "noteNumber": 69,
        "velocity": 50,
        "subtype": "noteOn"
      },
      {
        "deltaTime": 250,
        "channel": 5,
        "type": "channel",
        "subtype": "noteOff",
        "noteNumber": 69,
        "velocity": 50
      },
      {
        "deltaTime": 0,
        "channel": 5,
        "type": "channel",
        "subtype": "noteOff",
        "noteNumber": 51,
        "velocity": 70
      },
      {
        "deltaTime": 0,
        "channel": 5,
        "type": "channel",
        "subtype": "noteOff",
        "noteNumber": 35,
        "velocity": 70
      },
      {
        "deltaTime": 250,
        "channel": 5,
        "type": "channel",
        "noteNumber": 70,
        "velocity": 80,
        "subtype": "noteOn"
      },
      {
        "deltaTime": 0,
        "channel": 5,
        "type": "channel",
        "noteNumber": 56,
        "velocity": 40,
        "subtype": "noteOn"
      },
      {
        "deltaTime": 0,
        "channel": 5,
        "type": "channel",
        "noteNumber": 35,
        "velocity": 100,
        "subtype": "noteOn"
      },
      {
        "deltaTime": 0,
        "channel": 5,
        "type": "channel",
        "noteNumber": 51,
        "velocity": 90,
        "subtype": "noteOn"
      },
      {
        "deltaTime": 16,
        "channel": 5,
        "type": "channel",
        "noteNumber": 37,
        "velocity": 108,
        "subtype": "noteOn"
      },
      {
        "deltaTime": 172,
        "channel": 5,
        "type": "channel",
        "subtype": "noteOff",
        "noteNumber": 37,
        "velocity": 108
      },
      {
        "deltaTime": 62,
        "channel": 5,
        "type": "channel",
        "subtype": "noteOff",
        "noteNumber": 51,
        "velocity": 90
      },
      {
        "deltaTime": 0,
        "channel": 5,
        "type": "channel",
        "subtype": "noteOff",
        "noteNumber": 35,
        "velocity": 100
      },
      {
        "deltaTime": 0,
        "channel": 5,
        "type": "channel",
        "subtype": "noteOff",
        "noteNumber": 56,
        "velocity": 40
      },
      {
        "deltaTime": 0,
        "channel": 5,
        "type": "channel",
        "subtype": "noteOff",
        "noteNumber": 70,
        "velocity": 80
      },
      {
        "deltaTime": 250,
        "channel": 5,
        "type": "channel",
        "noteNumber": 51,
        "velocity": 70,
        "subtype": "noteOn"
      },
      {
        "deltaTime": 0,
        "channel": 5,
        "type": "channel",
        "noteNumber": 63,
        "velocity": 40,
        "subtype": "noteOn"
      },
      {
        "deltaTime": 0,
        "channel": 5,
        "type": "channel",
        "noteNumber": 69,
        "velocity": 50,
        "subtype": "noteOn"
      },
      {
        "deltaTime": 250,
        "channel": 5,
        "type": "channel",
        "subtype": "noteOff",
        "noteNumber": 69,
        "velocity": 50
      },
      {
        "deltaTime": 0,
        "channel": 5,
        "type": "channel",
        "subtype": "noteOff",
        "noteNumber": 63,
        "velocity": 40
      },
      {
        "deltaTime": 0,
        "channel": 5,
        "type": "channel",
        "subtype": "noteOff",
        "noteNumber": 51,
        "velocity": 70
      },
      {
        "deltaTime": 250,
        "channel": 5,
        "type": "channel",
        "noteNumber": 70,
        "velocity": 80,
        "subtype": "noteOn"
      },
      {
        "deltaTime": 0,
        "channel": 5,
        "type": "channel",
        "noteNumber": 63,
        "velocity": 60,
        "subtype": "noteOn"
      },
      {
        "deltaTime": 0,
        "channel": 5,
        "type": "channel",
        "noteNumber": 51,
        "velocity": 90,
        "subtype": "noteOn"
      },
      {
        "deltaTime": 48,
        "channel": 5,
        "type": "channel",
        "noteNumber": 37,
        "velocity": 108,
        "subtype": "noteOn"
      },
      {
        "deltaTime": 170,
        "channel": 5,
        "type": "channel",
        "subtype": "noteOff",
        "noteNumber": 37,
        "velocity": 108
      },
      {
        "deltaTime": 32,
        "channel": 5,
        "type": "channel",
        "subtype": "noteOff",
        "noteNumber": 51,
        "velocity": 90
      },
      {
        "deltaTime": 0,
        "channel": 5,
        "type": "channel",
        "subtype": "noteOff",
        "noteNumber": 63,
        "velocity": 60
      },
      {
        "deltaTime": 0,
        "channel": 5,
        "type": "channel",
        "subtype": "noteOff",
        "noteNumber": 70,
        "velocity": 80
      },
      {
        "deltaTime": 250,
        "channel": 5,
        "type": "channel",
        "noteNumber": 62,
        "velocity": 70,
        "subtype": "noteOn"
      },
      {
        "deltaTime": 0,
        "channel": 5,
        "type": "channel",
        "noteNumber": 56,
        "velocity": 40,
        "subtype": "noteOn"
      },
      {
        "deltaTime": 0,
        "channel": 5,
        "type": "channel",
        "noteNumber": 35,
        "velocity": 70,
        "subtype": "noteOn"
      },
      {
        "deltaTime": 0,
        "channel": 5,
        "type": "channel",
        "noteNumber": 51,
        "velocity": 70,
        "subtype": "noteOn"
      },
      {
        "deltaTime": 0,
        "channel": 5,
        "type": "channel",
        "noteNumber": 69,
        "velocity": 50,
        "subtype": "noteOn"
      },
      {
        "deltaTime": 250,
        "channel": 5,
        "type": "channel",
        "subtype": "noteOff",
        "noteNumber": 69,
        "velocity": 50
      },
      {
        "deltaTime": 0,
        "channel": 5,
        "type": "channel",
        "subtype": "noteOff",
        "noteNumber": 51,
        "velocity": 70
      },
      {
        "deltaTime": 0,
        "channel": 5,
        "type": "channel",
        "subtype": "noteOff",
        "noteNumber": 35,
        "velocity": 70
      },
      {
        "deltaTime": 0,
        "channel": 5,
        "type": "channel",
        "subtype": "noteOff",
        "noteNumber": 56,
        "velocity": 40
      },
      {
        "deltaTime": 0,
        "channel": 5,
        "type": "channel",
        "subtype": "noteOff",
        "noteNumber": 62,
        "velocity": 70
      },
      {
        "deltaTime": 250,
        "channel": 5,
        "type": "channel",
        "noteNumber": 35,
        "velocity": 100,
        "subtype": "noteOn"
      },
      {
        "deltaTime": 0,
        "channel": 5,
        "type": "channel",
        "noteNumber": 51,
        "velocity": 90,
        "subtype": "noteOn"
      },
      {
        "deltaTime": 0,
        "channel": 5,
        "type": "channel",
        "noteNumber": 70,
        "velocity": 80,
        "subtype": "noteOn"
      },
      {
        "deltaTime": 250,
        "channel": 5,
        "type": "channel",
        "subtype": "noteOff",
        "noteNumber": 70,
        "velocity": 80
      },
      {
        "deltaTime": 0,
        "channel": 5,
        "type": "channel",
        "subtype": "noteOff",
        "noteNumber": 51,
        "velocity": 90
      },
      {
        "deltaTime": 0,
        "channel": 5,
        "type": "channel",
        "subtype": "noteOff",
        "noteNumber": 35,
        "velocity": 100
      },
      {
        "deltaTime": 250,
        "channel": 5,
        "type": "channel",
        "noteNumber": 69,
        "velocity": 50,
        "subtype": "noteOn"
      },
      {
        "deltaTime": 0,
        "channel": 5,
        "type": "channel",
        "noteNumber": 63,
        "velocity": 50,
        "subtype": "noteOn"
      },
      {
        "deltaTime": 0,
        "channel": 5,
        "type": "channel",
        "noteNumber": 51,
        "velocity": 70,
        "subtype": "noteOn"
      },
      {
        "deltaTime": 58,
        "channel": 5,
        "type": "channel",
        "noteNumber": 37,
        "velocity": 106,
        "subtype": "noteOn"
      },
      {
        "deltaTime": 166,
        "channel": 5,
        "type": "channel",
        "subtype": "noteOff",
        "noteNumber": 37,
        "velocity": 106
      },
      {
        "deltaTime": 26,
        "channel": 5,
        "type": "channel",
        "subtype": "noteOff",
        "noteNumber": 51,
        "velocity": 70
      },
      {
        "deltaTime": 0,
        "channel": 5,
        "type": "channel",
        "subtype": "noteOff",
        "noteNumber": 63,
        "velocity": 50
      },
      {
        "deltaTime": 0,
        "channel": 5,
        "type": "channel",
        "subtype": "noteOff",
        "noteNumber": 69,
        "velocity": 50
      },
      {
        "deltaTime": 250,
        "channel": 5,
        "type": "channel",
        "noteNumber": 62,
        "velocity": 70,
        "subtype": "noteOn"
      },
      {
        "deltaTime": 0,
        "channel": 5,
        "type": "channel",
        "noteNumber": 45,
        "velocity": 70,
        "subtype": "noteOn"
      },
      {
        "deltaTime": 0,
        "channel": 5,
        "type": "channel",
        "noteNumber": 51,
        "velocity": 90,
        "subtype": "noteOn"
      },
      {
        "deltaTime": 0,
        "channel": 5,
        "type": "channel",
        "noteNumber": 70,
        "velocity": 80,
        "subtype": "noteOn"
      },
      {
        "deltaTime": 250,
        "channel": 5,
        "type": "channel",
        "subtype": "noteOff",
        "noteNumber": 70,
        "velocity": 80
      },
      {
        "deltaTime": 0,
        "channel": 5,
        "type": "channel",
        "subtype": "noteOff",
        "noteNumber": 51,
        "velocity": 90
      },
      {
        "deltaTime": 0,
        "channel": 5,
        "type": "channel",
        "subtype": "noteOff",
        "noteNumber": 45,
        "velocity": 70
      },
      {
        "deltaTime": 0,
        "channel": 5,
        "type": "channel",
        "subtype": "noteOff",
        "noteNumber": 62,
        "velocity": 70
      },
      {
        "deltaTime": 250,
        "channel": 5,
        "type": "channel",
        "noteNumber": 35,
        "velocity": 70,
        "subtype": "noteOn"
      },
      {
        "deltaTime": 0,
        "channel": 5,
        "type": "channel",
        "noteNumber": 51,
        "velocity": 70,
        "subtype": "noteOn"
      },
      {
        "deltaTime": 0,
        "channel": 5,
        "type": "channel",
        "noteNumber": 69,
        "velocity": 50,
        "subtype": "noteOn"
      },
      {
        "deltaTime": 250,
        "channel": 5,
        "type": "channel",
        "subtype": "noteOff",
        "noteNumber": 69,
        "velocity": 50
      },
      {
        "deltaTime": 0,
        "channel": 5,
        "type": "channel",
        "subtype": "noteOff",
        "noteNumber": 51,
        "velocity": 70
      },
      {
        "deltaTime": 0,
        "channel": 5,
        "type": "channel",
        "subtype": "noteOff",
        "noteNumber": 35,
        "velocity": 70
      },
      {
        "deltaTime": 250,
        "channel": 5,
        "type": "channel",
        "noteNumber": 70,
        "velocity": 80,
        "subtype": "noteOn"
      },
      {
        "deltaTime": 0,
        "channel": 5,
        "type": "channel",
        "noteNumber": 51,
        "velocity": 90,
        "subtype": "noteOn"
      },
      {
        "deltaTime": 0,
        "channel": 5,
        "type": "channel",
        "noteNumber": 35,
        "velocity": 100,
        "subtype": "noteOn"
      },
      {
        "deltaTime": 0,
        "channel": 5,
        "type": "channel",
        "noteNumber": 63,
        "velocity": 40,
        "subtype": "noteOn"
      },
      {
        "deltaTime": 16,
        "channel": 5,
        "type": "channel",
        "noteNumber": 37,
        "velocity": 108,
        "subtype": "noteOn"
      },
      {
        "deltaTime": 172,
        "channel": 5,
        "type": "channel",
        "subtype": "noteOff",
        "noteNumber": 37,
        "velocity": 108
      },
      {
        "deltaTime": 62,
        "channel": 5,
        "type": "channel",
        "subtype": "noteOff",
        "noteNumber": 63,
        "velocity": 40
      },
      {
        "deltaTime": 0,
        "channel": 5,
        "type": "channel",
        "subtype": "noteOff",
        "noteNumber": 35,
        "velocity": 100
      },
      {
        "deltaTime": 0,
        "channel": 5,
        "type": "channel",
        "subtype": "noteOff",
        "noteNumber": 51,
        "velocity": 90
      },
      {
        "deltaTime": 0,
        "channel": 5,
        "type": "channel",
        "subtype": "noteOff",
        "noteNumber": 70,
        "velocity": 80
      },
      {
        "deltaTime": 250,
        "channel": 5,
        "type": "channel",
        "noteNumber": 51,
        "velocity": 70,
        "subtype": "noteOn"
      },
      {
        "deltaTime": 0,
        "channel": 5,
        "type": "channel",
        "noteNumber": 63,
        "velocity": 40,
        "subtype": "noteOn"
      },
      {
        "deltaTime": 0,
        "channel": 5,
        "type": "channel",
        "noteNumber": 69,
        "velocity": 50,
        "subtype": "noteOn"
      },
      {
        "deltaTime": 250,
        "channel": 5,
        "type": "channel",
        "subtype": "noteOff",
        "noteNumber": 69,
        "velocity": 50
      },
      {
        "deltaTime": 0,
        "channel": 5,
        "type": "channel",
        "subtype": "noteOff",
        "noteNumber": 63,
        "velocity": 40
      },
      {
        "deltaTime": 0,
        "channel": 5,
        "type": "channel",
        "subtype": "noteOff",
        "noteNumber": 51,
        "velocity": 70
      },
      {
        "deltaTime": 250,
        "channel": 5,
        "type": "channel",
        "noteNumber": 51,
        "velocity": 90,
        "subtype": "noteOn"
      },
      {
        "deltaTime": 0,
        "channel": 5,
        "type": "channel",
        "noteNumber": 70,
        "velocity": 80,
        "subtype": "noteOn"
      },
      {
        "deltaTime": 48,
        "channel": 5,
        "type": "channel",
        "noteNumber": 37,
        "velocity": 108,
        "subtype": "noteOn"
      },
      {
        "deltaTime": 170,
        "channel": 5,
        "type": "channel",
        "subtype": "noteOff",
        "noteNumber": 37,
        "velocity": 108
      },
      {
        "deltaTime": 32,
        "channel": 5,
        "type": "channel",
        "subtype": "noteOff",
        "noteNumber": 70,
        "velocity": 80
      },
      {
        "deltaTime": 0,
        "channel": 5,
        "type": "channel",
        "subtype": "noteOff",
        "noteNumber": 51,
        "velocity": 90
      },
      {
        "deltaTime": 250,
        "channel": 5,
        "type": "channel",
        "noteNumber": 51,
        "velocity": 70,
        "subtype": "noteOn"
      },
      {
        "deltaTime": 0,
        "channel": 5,
        "type": "channel",
        "noteNumber": 56,
        "velocity": 40,
        "subtype": "noteOn"
      },
      {
        "deltaTime": 0,
        "channel": 5,
        "type": "channel",
        "noteNumber": 35,
        "velocity": 70,
        "subtype": "noteOn"
      },
      {
        "deltaTime": 0,
        "channel": 5,
        "type": "channel",
        "noteNumber": 69,
        "velocity": 50,
        "subtype": "noteOn"
      },
      {
        "deltaTime": 250,
        "channel": 5,
        "type": "channel",
        "subtype": "noteOff",
        "noteNumber": 69,
        "velocity": 50
      },
      {
        "deltaTime": 0,
        "channel": 5,
        "type": "channel",
        "subtype": "noteOff",
        "noteNumber": 35,
        "velocity": 70
      },
      {
        "deltaTime": 0,
        "channel": 5,
        "type": "channel",
        "subtype": "noteOff",
        "noteNumber": 56,
        "velocity": 40
      },
      {
        "deltaTime": 0,
        "channel": 5,
        "type": "channel",
        "subtype": "noteOff",
        "noteNumber": 51,
        "velocity": 70
      },
      {
        "deltaTime": 250,
        "channel": 5,
        "type": "channel",
        "noteNumber": 35,
        "velocity": 100,
        "subtype": "noteOn"
      },
      {
        "deltaTime": 0,
        "channel": 5,
        "type": "channel",
        "noteNumber": 51,
        "velocity": 90,
        "subtype": "noteOn"
      },
      {
        "deltaTime": 0,
        "channel": 5,
        "type": "channel",
        "noteNumber": 70,
        "velocity": 80,
        "subtype": "noteOn"
      },
      {
        "deltaTime": 250,
        "channel": 5,
        "type": "channel",
        "subtype": "noteOff",
        "noteNumber": 70,
        "velocity": 80
      },
      {
        "deltaTime": 0,
        "channel": 5,
        "type": "channel",
        "subtype": "noteOff",
        "noteNumber": 51,
        "velocity": 90
      },
      {
        "deltaTime": 0,
        "channel": 5,
        "type": "channel",
        "subtype": "noteOff",
        "noteNumber": 35,
        "velocity": 100
      },
      {
        "deltaTime": 250,
        "channel": 5,
        "type": "channel",
        "noteNumber": 51,
        "velocity": 70,
        "subtype": "noteOn"
      },
      {
        "deltaTime": 0,
        "channel": 5,
        "type": "channel",
        "noteNumber": 69,
        "velocity": 50,
        "subtype": "noteOn"
      },
      {
        "deltaTime": 58,
        "channel": 5,
        "type": "channel",
        "noteNumber": 37,
        "velocity": 106,
        "subtype": "noteOn"
      },
      {
        "deltaTime": 166,
        "channel": 5,
        "type": "channel",
        "subtype": "noteOff",
        "noteNumber": 37,
        "velocity": 106
      },
      {
        "deltaTime": 26,
        "channel": 5,
        "type": "channel",
        "subtype": "noteOff",
        "noteNumber": 69,
        "velocity": 50
      },
      {
        "deltaTime": 0,
        "channel": 5,
        "type": "channel",
        "subtype": "noteOff",
        "noteNumber": 51,
        "velocity": 70
      },
      {
        "deltaTime": 250,
        "channel": 5,
        "type": "channel",
        "noteNumber": 51,
        "velocity": 90,
        "subtype": "noteOn"
      },
      {
        "deltaTime": 0,
        "channel": 5,
        "type": "channel",
        "noteNumber": 45,
        "velocity": 70,
        "subtype": "noteOn"
      },
      {
        "deltaTime": 0,
        "channel": 5,
        "type": "channel",
        "noteNumber": 70,
        "velocity": 80,
        "subtype": "noteOn"
      },
      {
        "deltaTime": 250,
        "channel": 5,
        "type": "channel",
        "subtype": "noteOff",
        "noteNumber": 70,
        "velocity": 80
      },
      {
        "deltaTime": 0,
        "channel": 5,
        "type": "channel",
        "subtype": "noteOff",
        "noteNumber": 45,
        "velocity": 70
      },
      {
        "deltaTime": 0,
        "channel": 5,
        "type": "channel",
        "subtype": "noteOff",
        "noteNumber": 51,
        "velocity": 90
      },
      {
        "deltaTime": 250,
        "channel": 5,
        "type": "channel",
        "noteNumber": 35,
        "velocity": 70,
        "subtype": "noteOn"
      },
      {
        "deltaTime": 0,
        "channel": 5,
        "type": "channel",
        "noteNumber": 51,
        "velocity": 70,
        "subtype": "noteOn"
      },
      {
        "deltaTime": 0,
        "channel": 5,
        "type": "channel",
        "noteNumber": 69,
        "velocity": 50,
        "subtype": "noteOn"
      },
      {
        "deltaTime": 250,
        "channel": 5,
        "type": "channel",
        "subtype": "noteOff",
        "noteNumber": 69,
        "velocity": 50
      },
      {
        "deltaTime": 0,
        "channel": 5,
        "type": "channel",
        "subtype": "noteOff",
        "noteNumber": 51,
        "velocity": 70
      },
      {
        "deltaTime": 0,
        "channel": 5,
        "type": "channel",
        "subtype": "noteOff",
        "noteNumber": 35,
        "velocity": 70
      },
      {
        "deltaTime": 250,
        "channel": 5,
        "type": "channel",
        "noteNumber": 70,
        "velocity": 80,
        "subtype": "noteOn"
      },
      {
        "deltaTime": 0,
        "channel": 5,
        "type": "channel",
        "noteNumber": 51,
        "velocity": 90,
        "subtype": "noteOn"
      },
      {
        "deltaTime": 0,
        "channel": 5,
        "type": "channel",
        "noteNumber": 35,
        "velocity": 100,
        "subtype": "noteOn"
      },
      {
        "deltaTime": 16,
        "channel": 5,
        "type": "channel",
        "noteNumber": 37,
        "velocity": 108,
        "subtype": "noteOn"
      },
      {
        "deltaTime": 172,
        "channel": 5,
        "type": "channel",
        "subtype": "noteOff",
        "noteNumber": 37,
        "velocity": 108
      },
      {
        "deltaTime": 62,
        "channel": 5,
        "type": "channel",
        "subtype": "noteOff",
        "noteNumber": 35,
        "velocity": 100
      },
      {
        "deltaTime": 0,
        "channel": 5,
        "type": "channel",
        "subtype": "noteOff",
        "noteNumber": 51,
        "velocity": 90
      },
      {
        "deltaTime": 0,
        "channel": 5,
        "type": "channel",
        "subtype": "noteOff",
        "noteNumber": 70,
        "velocity": 80
      },
      {
        "deltaTime": 250,
        "channel": 5,
        "type": "channel",
        "noteNumber": 51,
        "velocity": 70,
        "subtype": "noteOn"
      },
      {
        "deltaTime": 0,
        "channel": 5,
        "type": "channel",
        "noteNumber": 63,
        "velocity": 40,
        "subtype": "noteOn"
      },
      {
        "deltaTime": 0,
        "channel": 5,
        "type": "channel",
        "noteNumber": 69,
        "velocity": 50,
        "subtype": "noteOn"
      },
      {
        "deltaTime": 250,
        "channel": 5,
        "type": "channel",
        "subtype": "noteOff",
        "noteNumber": 69,
        "velocity": 50
      },
      {
        "deltaTime": 0,
        "channel": 5,
        "type": "channel",
        "subtype": "noteOff",
        "noteNumber": 63,
        "velocity": 40
      },
      {
        "deltaTime": 0,
        "channel": 5,
        "type": "channel",
        "subtype": "noteOff",
        "noteNumber": 51,
        "velocity": 70
      },
      {
        "deltaTime": 250,
        "channel": 5,
        "type": "channel",
        "noteNumber": 70,
        "velocity": 80,
        "subtype": "noteOn"
      },
      {
        "deltaTime": 0,
        "channel": 5,
        "type": "channel",
        "noteNumber": 48,
        "velocity": 60,
        "subtype": "noteOn"
      },
      {
        "deltaTime": 0,
        "channel": 5,
        "type": "channel",
        "noteNumber": 51,
        "velocity": 90,
        "subtype": "noteOn"
      },
      {
        "deltaTime": 0,
        "channel": 5,
        "type": "channel",
        "noteNumber": 63,
        "velocity": 60,
        "subtype": "noteOn"
      },
      {
        "deltaTime": 48,
        "channel": 5,
        "type": "channel",
        "noteNumber": 37,
        "velocity": 108,
        "subtype": "noteOn"
      },
      {
        "deltaTime": 170,
        "channel": 5,
        "type": "channel",
        "subtype": "noteOff",
        "noteNumber": 37,
        "velocity": 108
      },
      {
        "deltaTime": 32,
        "channel": 5,
        "type": "channel",
        "subtype": "noteOff",
        "noteNumber": 63,
        "velocity": 60
      },
      {
        "deltaTime": 0,
        "channel": 5,
        "type": "channel",
        "subtype": "noteOff",
        "noteNumber": 51,
        "velocity": 90
      },
      {
        "deltaTime": 0,
        "channel": 5,
        "type": "channel",
        "subtype": "noteOff",
        "noteNumber": 48,
        "velocity": 60
      },
      {
        "deltaTime": 0,
        "channel": 5,
        "type": "channel",
        "subtype": "noteOff",
        "noteNumber": 70,
        "velocity": 80
      },
      {
        "deltaTime": 250,
        "channel": 5,
        "type": "channel",
        "noteNumber": 62,
        "velocity": 70,
        "subtype": "noteOn"
      },
      {
        "deltaTime": 0,
        "channel": 5,
        "type": "channel",
        "noteNumber": 56,
        "velocity": 40,
        "subtype": "noteOn"
      },
      {
        "deltaTime": 0,
        "channel": 5,
        "type": "channel",
        "noteNumber": 35,
        "velocity": 70,
        "subtype": "noteOn"
      },
      {
        "deltaTime": 0,
        "channel": 5,
        "type": "channel",
        "noteNumber": 51,
        "velocity": 70,
        "subtype": "noteOn"
      },
      {
        "deltaTime": 0,
        "channel": 5,
        "type": "channel",
        "noteNumber": 69,
        "velocity": 50,
        "subtype": "noteOn"
      },
      {
        "deltaTime": 250,
        "channel": 5,
        "type": "channel",
        "subtype": "noteOff",
        "noteNumber": 69,
        "velocity": 50
      },
      {
        "deltaTime": 0,
        "channel": 5,
        "type": "channel",
        "subtype": "noteOff",
        "noteNumber": 51,
        "velocity": 70
      },
      {
        "deltaTime": 0,
        "channel": 5,
        "type": "channel",
        "subtype": "noteOff",
        "noteNumber": 35,
        "velocity": 70
      },
      {
        "deltaTime": 0,
        "channel": 5,
        "type": "channel",
        "subtype": "noteOff",
        "noteNumber": 56,
        "velocity": 40
      },
      {
        "deltaTime": 0,
        "channel": 5,
        "type": "channel",
        "subtype": "noteOff",
        "noteNumber": 62,
        "velocity": 70
      },
      {
        "deltaTime": 250,
        "channel": 5,
        "type": "channel",
        "noteNumber": 35,
        "velocity": 100,
        "subtype": "noteOn"
      },
      {
        "deltaTime": 0,
        "channel": 5,
        "type": "channel",
        "noteNumber": 51,
        "velocity": 90,
        "subtype": "noteOn"
      },
      {
        "deltaTime": 0,
        "channel": 5,
        "type": "channel",
        "noteNumber": 70,
        "velocity": 80,
        "subtype": "noteOn"
      },
      {
        "deltaTime": 250,
        "channel": 5,
        "type": "channel",
        "subtype": "noteOff",
        "noteNumber": 70,
        "velocity": 80
      },
      {
        "deltaTime": 0,
        "channel": 5,
        "type": "channel",
        "subtype": "noteOff",
        "noteNumber": 51,
        "velocity": 90
      },
      {
        "deltaTime": 0,
        "channel": 5,
        "type": "channel",
        "subtype": "noteOff",
        "noteNumber": 35,
        "velocity": 100
      },
      {
        "deltaTime": 250,
        "channel": 5,
        "type": "channel",
        "noteNumber": 69,
        "velocity": 50,
        "subtype": "noteOn"
      },
      {
        "deltaTime": 0,
        "channel": 5,
        "type": "channel",
        "noteNumber": 63,
        "velocity": 50,
        "subtype": "noteOn"
      },
      {
        "deltaTime": 0,
        "channel": 5,
        "type": "channel",
        "noteNumber": 51,
        "velocity": 70,
        "subtype": "noteOn"
      },
      {
        "deltaTime": 58,
        "channel": 5,
        "type": "channel",
        "noteNumber": 37,
        "velocity": 106,
        "subtype": "noteOn"
      },
      {
        "deltaTime": 166,
        "channel": 5,
        "type": "channel",
        "subtype": "noteOff",
        "noteNumber": 37,
        "velocity": 106
      },
      {
        "deltaTime": 26,
        "channel": 5,
        "type": "channel",
        "subtype": "noteOff",
        "noteNumber": 51,
        "velocity": 70
      },
      {
        "deltaTime": 0,
        "channel": 5,
        "type": "channel",
        "subtype": "noteOff",
        "noteNumber": 63,
        "velocity": 50
      },
      {
        "deltaTime": 0,
        "channel": 5,
        "type": "channel",
        "subtype": "noteOff",
        "noteNumber": 69,
        "velocity": 50
      },
      {
        "deltaTime": 250,
        "channel": 5,
        "type": "channel",
        "noteNumber": 62,
        "velocity": 70,
        "subtype": "noteOn"
      },
      {
        "deltaTime": 0,
        "channel": 5,
        "type": "channel",
        "noteNumber": 45,
        "velocity": 70,
        "subtype": "noteOn"
      },
      {
        "deltaTime": 0,
        "channel": 5,
        "type": "channel",
        "noteNumber": 51,
        "velocity": 90,
        "subtype": "noteOn"
      },
      {
        "deltaTime": 0,
        "channel": 5,
        "type": "channel",
        "noteNumber": 70,
        "velocity": 80,
        "subtype": "noteOn"
      },
      {
        "deltaTime": 250,
        "channel": 5,
        "type": "channel",
        "subtype": "noteOff",
        "noteNumber": 70,
        "velocity": 80
      },
      {
        "deltaTime": 0,
        "channel": 5,
        "type": "channel",
        "subtype": "noteOff",
        "noteNumber": 51,
        "velocity": 90
      },
      {
        "deltaTime": 0,
        "channel": 5,
        "type": "channel",
        "subtype": "noteOff",
        "noteNumber": 45,
        "velocity": 70
      },
      {
        "deltaTime": 0,
        "channel": 5,
        "type": "channel",
        "subtype": "noteOff",
        "noteNumber": 62,
        "velocity": 70
      },
      {
        "deltaTime": 250,
        "channel": 5,
        "type": "channel",
        "noteNumber": 45,
        "velocity": 75,
        "subtype": "noteOn"
      },
      {
        "deltaTime": 0,
        "channel": 5,
        "type": "channel",
        "noteNumber": 51,
        "velocity": 70,
        "subtype": "noteOn"
      },
      {
        "deltaTime": 0,
        "channel": 5,
        "type": "channel",
        "noteNumber": 35,
        "velocity": 70,
        "subtype": "noteOn"
      },
      {
        "deltaTime": 0,
        "channel": 5,
        "type": "channel",
        "noteNumber": 69,
        "velocity": 50,
        "subtype": "noteOn"
      },
      {
        "deltaTime": 250,
        "channel": 5,
        "type": "channel",
        "subtype": "noteOff",
        "noteNumber": 69,
        "velocity": 50
      },
      {
        "deltaTime": 0,
        "channel": 5,
        "type": "channel",
        "subtype": "noteOff",
        "noteNumber": 35,
        "velocity": 70
      },
      {
        "deltaTime": 0,
        "channel": 5,
        "type": "channel",
        "subtype": "noteOff",
        "noteNumber": 51,
        "velocity": 70
      },
      {
        "deltaTime": 0,
        "channel": 5,
        "type": "channel",
        "subtype": "noteOff",
        "noteNumber": 45,
        "velocity": 75
      },
      {
        "deltaTime": 250,
        "channel": 5,
        "type": "channel",
        "noteNumber": 70,
        "velocity": 80,
        "subtype": "noteOn"
      },
      {
        "deltaTime": 0,
        "channel": 5,
        "type": "channel",
        "noteNumber": 51,
        "velocity": 90,
        "subtype": "noteOn"
      },
      {
        "deltaTime": 0,
        "channel": 5,
        "type": "channel",
        "noteNumber": 35,
        "velocity": 100,
        "subtype": "noteOn"
      },
      {
        "deltaTime": 0,
        "channel": 5,
        "type": "channel",
        "noteNumber": 63,
        "velocity": 40,
        "subtype": "noteOn"
      },
      {
        "deltaTime": 16,
        "channel": 5,
        "type": "channel",
        "noteNumber": 37,
        "velocity": 108,
        "subtype": "noteOn"
      },
      {
        "deltaTime": 172,
        "channel": 5,
        "type": "channel",
        "subtype": "noteOff",
        "noteNumber": 37,
        "velocity": 108
      },
      {
        "deltaTime": 62,
        "channel": 5,
        "type": "channel",
        "subtype": "noteOff",
        "noteNumber": 63,
        "velocity": 40
      },
      {
        "deltaTime": 0,
        "channel": 5,
        "type": "channel",
        "subtype": "noteOff",
        "noteNumber": 35,
        "velocity": 100
      },
      {
        "deltaTime": 0,
        "channel": 5,
        "type": "channel",
        "subtype": "noteOff",
        "noteNumber": 51,
        "velocity": 90
      },
      {
        "deltaTime": 0,
        "channel": 5,
        "type": "channel",
        "subtype": "noteOff",
        "noteNumber": 70,
        "velocity": 80
      },
      {
        "deltaTime": 250,
        "channel": 5,
        "type": "channel",
        "noteNumber": 51,
        "velocity": 70,
        "subtype": "noteOn"
      },
      {
        "deltaTime": 0,
        "channel": 5,
        "type": "channel",
        "noteNumber": 63,
        "velocity": 40,
        "subtype": "noteOn"
      },
      {
        "deltaTime": 0,
        "channel": 5,
        "type": "channel",
        "noteNumber": 69,
        "velocity": 50,
        "subtype": "noteOn"
      },
      {
        "deltaTime": 250,
        "channel": 5,
        "type": "channel",
        "subtype": "noteOff",
        "noteNumber": 69,
        "velocity": 50
      },
      {
        "deltaTime": 0,
        "channel": 5,
        "type": "channel",
        "subtype": "noteOff",
        "noteNumber": 63,
        "velocity": 40
      },
      {
        "deltaTime": 0,
        "channel": 5,
        "type": "channel",
        "subtype": "noteOff",
        "noteNumber": 51,
        "velocity": 70
      },
      {
        "deltaTime": 250,
        "channel": 5,
        "type": "channel",
        "noteNumber": 51,
        "velocity": 90,
        "subtype": "noteOn"
      },
      {
        "deltaTime": 0,
        "channel": 5,
        "type": "channel",
        "noteNumber": 70,
        "velocity": 80,
        "subtype": "noteOn"
      },
      {
        "deltaTime": 48,
        "channel": 5,
        "type": "channel",
        "noteNumber": 37,
        "velocity": 108,
        "subtype": "noteOn"
      },
      {
        "deltaTime": 170,
        "channel": 5,
        "type": "channel",
        "subtype": "noteOff",
        "noteNumber": 37,
        "velocity": 108
      },
      {
        "deltaTime": 32,
        "channel": 5,
        "type": "channel",
        "subtype": "noteOff",
        "noteNumber": 70,
        "velocity": 80
      },
      {
        "deltaTime": 0,
        "channel": 5,
        "type": "channel",
        "subtype": "noteOff",
        "noteNumber": 51,
        "velocity": 90
      },
      {
        "deltaTime": 250,
        "channel": 5,
        "type": "channel",
        "noteNumber": 51,
        "velocity": 70,
        "subtype": "noteOn"
      },
      {
        "deltaTime": 0,
        "channel": 5,
        "type": "channel",
        "noteNumber": 56,
        "velocity": 40,
        "subtype": "noteOn"
      },
      {
        "deltaTime": 0,
        "channel": 5,
        "type": "channel",
        "noteNumber": 35,
        "velocity": 70,
        "subtype": "noteOn"
      },
      {
        "deltaTime": 0,
        "channel": 5,
        "type": "channel",
        "noteNumber": 69,
        "velocity": 50,
        "subtype": "noteOn"
      },
      {
        "deltaTime": 250,
        "channel": 5,
        "type": "channel",
        "subtype": "noteOff",
        "noteNumber": 69,
        "velocity": 50
      },
      {
        "deltaTime": 0,
        "channel": 5,
        "type": "channel",
        "subtype": "noteOff",
        "noteNumber": 35,
        "velocity": 70
      },
      {
        "deltaTime": 0,
        "channel": 5,
        "type": "channel",
        "subtype": "noteOff",
        "noteNumber": 56,
        "velocity": 40
      },
      {
        "deltaTime": 0,
        "channel": 5,
        "type": "channel",
        "subtype": "noteOff",
        "noteNumber": 51,
        "velocity": 70
      },
      {
        "deltaTime": 250,
        "channel": 5,
        "type": "channel",
        "noteNumber": 35,
        "velocity": 100,
        "subtype": "noteOn"
      },
      {
        "deltaTime": 0,
        "channel": 5,
        "type": "channel",
        "noteNumber": 51,
        "velocity": 90,
        "subtype": "noteOn"
      },
      {
        "deltaTime": 0,
        "channel": 5,
        "type": "channel",
        "noteNumber": 70,
        "velocity": 80,
        "subtype": "noteOn"
      },
      {
        "deltaTime": 250,
        "channel": 5,
        "type": "channel",
        "subtype": "noteOff",
        "noteNumber": 70,
        "velocity": 80
      },
      {
        "deltaTime": 0,
        "channel": 5,
        "type": "channel",
        "subtype": "noteOff",
        "noteNumber": 51,
        "velocity": 90
      },
      {
        "deltaTime": 0,
        "channel": 5,
        "type": "channel",
        "subtype": "noteOff",
        "noteNumber": 35,
        "velocity": 100
      },
      {
        "deltaTime": 250,
        "channel": 5,
        "type": "channel",
        "noteNumber": 51,
        "velocity": 70,
        "subtype": "noteOn"
      },
      {
        "deltaTime": 0,
        "channel": 5,
        "type": "channel",
        "noteNumber": 69,
        "velocity": 50,
        "subtype": "noteOn"
      },
      {
        "deltaTime": 58,
        "channel": 5,
        "type": "channel",
        "noteNumber": 37,
        "velocity": 106,
        "subtype": "noteOn"
      },
      {
        "deltaTime": 166,
        "channel": 5,
        "type": "channel",
        "subtype": "noteOff",
        "noteNumber": 37,
        "velocity": 106
      },
      {
        "deltaTime": 26,
        "channel": 5,
        "type": "channel",
        "subtype": "noteOff",
        "noteNumber": 69,
        "velocity": 50
      },
      {
        "deltaTime": 0,
        "channel": 5,
        "type": "channel",
        "subtype": "noteOff",
        "noteNumber": 51,
        "velocity": 70
      },
      {
        "deltaTime": 250,
        "channel": 5,
        "type": "channel",
        "noteNumber": 51,
        "velocity": 90,
        "subtype": "noteOn"
      },
      {
        "deltaTime": 0,
        "channel": 5,
        "type": "channel",
        "noteNumber": 70,
        "velocity": 80,
        "subtype": "noteOn"
      },
      {
        "deltaTime": 250,
        "channel": 5,
        "type": "channel",
        "subtype": "noteOff",
        "noteNumber": 70,
        "velocity": 80
      },
      {
        "deltaTime": 0,
        "channel": 5,
        "type": "channel",
        "subtype": "noteOff",
        "noteNumber": 51,
        "velocity": 90
      },
      {
        "deltaTime": 250,
        "channel": 5,
        "type": "channel",
        "noteNumber": 35,
        "velocity": 70,
        "subtype": "noteOn"
      },
      {
        "deltaTime": 0,
        "channel": 5,
        "type": "channel",
        "noteNumber": 51,
        "velocity": 70,
        "subtype": "noteOn"
      },
      {
        "deltaTime": 0,
        "channel": 5,
        "type": "channel",
        "noteNumber": 69,
        "velocity": 50,
        "subtype": "noteOn"
      },
      {
        "deltaTime": 250,
        "channel": 5,
        "type": "channel",
        "subtype": "noteOff",
        "noteNumber": 69,
        "velocity": 50
      },
      {
        "deltaTime": 0,
        "channel": 5,
        "type": "channel",
        "subtype": "noteOff",
        "noteNumber": 51,
        "velocity": 70
      },
      {
        "deltaTime": 0,
        "channel": 5,
        "type": "channel",
        "subtype": "noteOff",
        "noteNumber": 35,
        "velocity": 70
      },
      {
        "deltaTime": 250,
        "channel": 5,
        "type": "channel",
        "noteNumber": 70,
        "velocity": 80,
        "subtype": "noteOn"
      },
      {
        "deltaTime": 0,
        "channel": 5,
        "type": "channel",
        "noteNumber": 51,
        "velocity": 90,
        "subtype": "noteOn"
      },
      {
        "deltaTime": 0,
        "channel": 5,
        "type": "channel",
        "noteNumber": 35,
        "velocity": 100,
        "subtype": "noteOn"
      },
      {
        "deltaTime": 16,
        "channel": 5,
        "type": "channel",
        "noteNumber": 37,
        "velocity": 108,
        "subtype": "noteOn"
      },
      {
        "deltaTime": 172,
        "channel": 5,
        "type": "channel",
        "subtype": "noteOff",
        "noteNumber": 37,
        "velocity": 108
      },
      {
        "deltaTime": 62,
        "channel": 5,
        "type": "channel",
        "subtype": "noteOff",
        "noteNumber": 35,
        "velocity": 100
      },
      {
        "deltaTime": 0,
        "channel": 5,
        "type": "channel",
        "subtype": "noteOff",
        "noteNumber": 51,
        "velocity": 90
      },
      {
        "deltaTime": 0,
        "channel": 5,
        "type": "channel",
        "subtype": "noteOff",
        "noteNumber": 70,
        "velocity": 80
      },
      {
        "deltaTime": 250,
        "channel": 5,
        "type": "channel",
        "noteNumber": 51,
        "velocity": 70,
        "subtype": "noteOn"
      },
      {
        "deltaTime": 0,
        "channel": 5,
        "type": "channel",
        "noteNumber": 63,
        "velocity": 40,
        "subtype": "noteOn"
      },
      {
        "deltaTime": 0,
        "channel": 5,
        "type": "channel",
        "noteNumber": 69,
        "velocity": 50,
        "subtype": "noteOn"
      },
      {
        "deltaTime": 250,
        "channel": 5,
        "type": "channel",
        "subtype": "noteOff",
        "noteNumber": 69,
        "velocity": 50
      },
      {
        "deltaTime": 0,
        "channel": 5,
        "type": "channel",
        "subtype": "noteOff",
        "noteNumber": 63,
        "velocity": 40
      },
      {
        "deltaTime": 0,
        "channel": 5,
        "type": "channel",
        "subtype": "noteOff",
        "noteNumber": 51,
        "velocity": 70
      },
      {
        "deltaTime": 250,
        "channel": 5,
        "type": "channel",
        "noteNumber": 70,
        "velocity": 80,
        "subtype": "noteOn"
      },
      {
        "deltaTime": 0,
        "channel": 5,
        "type": "channel",
        "noteNumber": 63,
        "velocity": 60,
        "subtype": "noteOn"
      },
      {
        "deltaTime": 0,
        "channel": 5,
        "type": "channel",
        "noteNumber": 51,
        "velocity": 90,
        "subtype": "noteOn"
      },
      {
        "deltaTime": 48,
        "channel": 5,
        "type": "channel",
        "noteNumber": 37,
        "velocity": 108,
        "subtype": "noteOn"
      },
      {
        "deltaTime": 170,
        "channel": 5,
        "type": "channel",
        "subtype": "noteOff",
        "noteNumber": 37,
        "velocity": 108
      },
      {
        "deltaTime": 32,
        "channel": 5,
        "type": "channel",
        "subtype": "noteOff",
        "noteNumber": 51,
        "velocity": 90
      },
      {
        "deltaTime": 0,
        "channel": 5,
        "type": "channel",
        "subtype": "noteOff",
        "noteNumber": 63,
        "velocity": 60
      },
      {
        "deltaTime": 0,
        "channel": 5,
        "type": "channel",
        "subtype": "noteOff",
        "noteNumber": 70,
        "velocity": 80
      },
      {
        "deltaTime": 250,
        "channel": 5,
        "type": "channel",
        "noteNumber": 62,
        "velocity": 70,
        "subtype": "noteOn"
      },
      {
        "deltaTime": 0,
        "channel": 5,
        "type": "channel",
        "noteNumber": 56,
        "velocity": 40,
        "subtype": "noteOn"
      },
      {
        "deltaTime": 0,
        "channel": 5,
        "type": "channel",
        "noteNumber": 35,
        "velocity": 70,
        "subtype": "noteOn"
      },
      {
        "deltaTime": 0,
        "channel": 5,
        "type": "channel",
        "noteNumber": 51,
        "velocity": 70,
        "subtype": "noteOn"
      },
      {
        "deltaTime": 0,
        "channel": 5,
        "type": "channel",
        "noteNumber": 69,
        "velocity": 50,
        "subtype": "noteOn"
      },
      {
        "deltaTime": 250,
        "channel": 5,
        "type": "channel",
        "subtype": "noteOff",
        "noteNumber": 69,
        "velocity": 50
      },
      {
        "deltaTime": 0,
        "channel": 5,
        "type": "channel",
        "subtype": "noteOff",
        "noteNumber": 51,
        "velocity": 70
      },
      {
        "deltaTime": 0,
        "channel": 5,
        "type": "channel",
        "subtype": "noteOff",
        "noteNumber": 35,
        "velocity": 70
      },
      {
        "deltaTime": 0,
        "channel": 5,
        "type": "channel",
        "subtype": "noteOff",
        "noteNumber": 56,
        "velocity": 40
      },
      {
        "deltaTime": 0,
        "channel": 5,
        "type": "channel",
        "subtype": "noteOff",
        "noteNumber": 62,
        "velocity": 70
      },
      {
        "deltaTime": 250,
        "channel": 5,
        "type": "channel",
        "noteNumber": 35,
        "velocity": 100,
        "subtype": "noteOn"
      },
      {
        "deltaTime": 0,
        "channel": 5,
        "type": "channel",
        "noteNumber": 51,
        "velocity": 90,
        "subtype": "noteOn"
      },
      {
        "deltaTime": 0,
        "channel": 5,
        "type": "channel",
        "noteNumber": 70,
        "velocity": 80,
        "subtype": "noteOn"
      },
      {
        "deltaTime": 250,
        "channel": 5,
        "type": "channel",
        "subtype": "noteOff",
        "noteNumber": 70,
        "velocity": 80
      },
      {
        "deltaTime": 0,
        "channel": 5,
        "type": "channel",
        "subtype": "noteOff",
        "noteNumber": 51,
        "velocity": 90
      },
      {
        "deltaTime": 0,
        "channel": 5,
        "type": "channel",
        "subtype": "noteOff",
        "noteNumber": 35,
        "velocity": 100
      },
      {
        "deltaTime": 250,
        "channel": 5,
        "type": "channel",
        "noteNumber": 51,
        "velocity": 70,
        "subtype": "noteOn"
      },
      {
        "deltaTime": 0,
        "channel": 5,
        "type": "channel",
        "noteNumber": 69,
        "velocity": 50,
        "subtype": "noteOn"
      },
      {
        "deltaTime": 58,
        "channel": 5,
        "type": "channel",
        "noteNumber": 37,
        "velocity": 106,
        "subtype": "noteOn"
      },
      {
        "deltaTime": 166,
        "channel": 5,
        "type": "channel",
        "subtype": "noteOff",
        "noteNumber": 37,
        "velocity": 106
      },
      {
        "deltaTime": 26,
        "channel": 5,
        "type": "channel",
        "subtype": "noteOff",
        "noteNumber": 69,
        "velocity": 50
      },
      {
        "deltaTime": 0,
        "channel": 5,
        "type": "channel",
        "subtype": "noteOff",
        "noteNumber": 51,
        "velocity": 70
      },
      {
        "deltaTime": 250,
        "channel": 5,
        "type": "channel",
        "noteNumber": 62,
        "velocity": 70,
        "subtype": "noteOn"
      },
      {
        "deltaTime": 0,
        "channel": 5,
        "type": "channel",
        "noteNumber": 45,
        "velocity": 70,
        "subtype": "noteOn"
      },
      {
        "deltaTime": 0,
        "channel": 5,
        "type": "channel",
        "noteNumber": 51,
        "velocity": 90,
        "subtype": "noteOn"
      },
      {
        "deltaTime": 0,
        "channel": 5,
        "type": "channel",
        "noteNumber": 70,
        "velocity": 80,
        "subtype": "noteOn"
      },
      {
        "deltaTime": 250,
        "channel": 5,
        "type": "channel",
        "subtype": "noteOff",
        "noteNumber": 70,
        "velocity": 80
      },
      {
        "deltaTime": 0,
        "channel": 5,
        "type": "channel",
        "subtype": "noteOff",
        "noteNumber": 51,
        "velocity": 90
      },
      {
        "deltaTime": 0,
        "channel": 5,
        "type": "channel",
        "subtype": "noteOff",
        "noteNumber": 45,
        "velocity": 70
      },
      {
        "deltaTime": 0,
        "channel": 5,
        "type": "channel",
        "subtype": "noteOff",
        "noteNumber": 62,
        "velocity": 70
      },
      {
        "deltaTime": 250,
        "channel": 5,
        "type": "channel",
        "noteNumber": 45,
        "velocity": 70,
        "subtype": "noteOn"
      },
      {
        "deltaTime": 0,
        "channel": 5,
        "type": "channel",
        "noteNumber": 51,
        "velocity": 70,
        "subtype": "noteOn"
      },
      {
        "deltaTime": 0,
        "channel": 5,
        "type": "channel",
        "noteNumber": 35,
        "velocity": 70,
        "subtype": "noteOn"
      },
      {
        "deltaTime": 0,
        "channel": 5,
        "type": "channel",
        "noteNumber": 69,
        "velocity": 50,
        "subtype": "noteOn"
      },
      {
        "deltaTime": 250,
        "channel": 5,
        "type": "channel",
        "subtype": "noteOff",
        "noteNumber": 69,
        "velocity": 50
      },
      {
        "deltaTime": 0,
        "channel": 5,
        "type": "channel",
        "subtype": "noteOff",
        "noteNumber": 35,
        "velocity": 70
      },
      {
        "deltaTime": 0,
        "channel": 5,
        "type": "channel",
        "subtype": "noteOff",
        "noteNumber": 51,
        "velocity": 70
      },
      {
        "deltaTime": 0,
        "channel": 5,
        "type": "channel",
        "subtype": "noteOff",
        "noteNumber": 45,
        "velocity": 70
      },
      {
        "deltaTime": 250,
        "channel": 5,
        "type": "channel",
        "noteNumber": 70,
        "velocity": 80,
        "subtype": "noteOn"
      },
      {
        "deltaTime": 0,
        "channel": 5,
        "type": "channel",
        "noteNumber": 38,
        "velocity": 100,
        "subtype": "noteOn"
      },
      {
        "deltaTime": 0,
        "channel": 5,
        "type": "channel",
        "noteNumber": 35,
        "velocity": 100,
        "subtype": "noteOn"
      },
      {
        "deltaTime": 16,
        "channel": 5,
        "type": "channel",
        "noteNumber": 37,
        "velocity": 108,
        "subtype": "noteOn"
      },
      {
        "deltaTime": 172,
        "channel": 5,
        "type": "channel",
        "subtype": "noteOff",
        "noteNumber": 37,
        "velocity": 108
      },
      {
        "deltaTime": 62,
        "channel": 5,
        "type": "channel",
        "subtype": "noteOff",
        "noteNumber": 35,
        "velocity": 100
      },
      {
        "deltaTime": 0,
        "channel": 5,
        "type": "channel",
        "subtype": "noteOff",
        "noteNumber": 38,
        "velocity": 100
      },
      {
        "deltaTime": 0,
        "channel": 5,
        "type": "channel",
        "subtype": "noteOff",
        "noteNumber": 70,
        "velocity": 80
      },
      {
        "deltaTime": 250,
        "channel": 5,
        "type": "channel",
        "noteNumber": 38,
        "velocity": 40,
        "subtype": "noteOn"
      },
      {
        "deltaTime": 0,
        "channel": 5,
        "type": "channel",
        "noteNumber": 69,
        "velocity": 50,
        "subtype": "noteOn"
      },
      {
        "deltaTime": 250,
        "channel": 5,
        "type": "channel",
        "subtype": "noteOff",
        "noteNumber": 69,
        "velocity": 50
      },
      {
        "deltaTime": 0,
        "channel": 5,
        "type": "channel",
        "subtype": "noteOff",
        "noteNumber": 38,
        "velocity": 40
      },
      {
        "deltaTime": 250,
        "channel": 5,
        "type": "channel",
        "noteNumber": 38,
        "velocity": 40,
        "subtype": "noteOn"
      },
      {
        "deltaTime": 0,
        "channel": 5,
        "type": "channel",
        "noteNumber": 70,
        "velocity": 80,
        "subtype": "noteOn"
      },
      {
        "deltaTime": 48,
        "channel": 5,
        "type": "channel",
        "noteNumber": 37,
        "velocity": 108,
        "subtype": "noteOn"
      },
      {
        "deltaTime": 170,
        "channel": 5,
        "type": "channel",
        "subtype": "noteOff",
        "noteNumber": 37,
        "velocity": 108
      },
      {
        "deltaTime": 32,
        "channel": 5,
        "type": "channel",
        "subtype": "noteOff",
        "noteNumber": 70,
        "velocity": 80
      },
      {
        "deltaTime": 0,
        "channel": 5,
        "type": "channel",
        "subtype": "noteOff",
        "noteNumber": 38,
        "velocity": 40
      },
      {
        "deltaTime": 250,
        "channel": 5,
        "type": "channel",
        "noteNumber": 35,
        "velocity": 70,
        "subtype": "noteOn"
      },
      {
        "deltaTime": 0,
        "channel": 5,
        "type": "channel",
        "noteNumber": 38,
        "velocity": 100,
        "subtype": "noteOn"
      },
      {
        "deltaTime": 0,
        "channel": 5,
        "type": "channel",
        "noteNumber": 69,
        "velocity": 50,
        "subtype": "noteOn"
      },
      {
        "deltaTime": 250,
        "channel": 5,
        "type": "channel",
        "subtype": "noteOff",
        "noteNumber": 69,
        "velocity": 50
      },
      {
        "deltaTime": 0,
        "channel": 5,
        "type": "channel",
        "subtype": "noteOff",
        "noteNumber": 38,
        "velocity": 100
      },
      {
        "deltaTime": 0,
        "channel": 5,
        "type": "channel",
        "subtype": "noteOff",
        "noteNumber": 35,
        "velocity": 70
      },
      {
        "deltaTime": 250,
        "channel": 5,
        "type": "channel",
        "noteNumber": 35,
        "velocity": 100,
        "subtype": "noteOn"
      },
      {
        "deltaTime": 0,
        "channel": 5,
        "type": "channel",
        "noteNumber": 38,
        "velocity": 40,
        "subtype": "noteOn"
      },
      {
        "deltaTime": 0,
        "channel": 5,
        "type": "channel",
        "noteNumber": 70,
        "velocity": 80,
        "subtype": "noteOn"
      },
      {
        "deltaTime": 250,
        "channel": 5,
        "type": "channel",
        "subtype": "noteOff",
        "noteNumber": 70,
        "velocity": 80
      },
      {
        "deltaTime": 0,
        "channel": 5,
        "type": "channel",
        "subtype": "noteOff",
        "noteNumber": 38,
        "velocity": 40
      },
      {
        "deltaTime": 0,
        "channel": 5,
        "type": "channel",
        "subtype": "noteOff",
        "noteNumber": 35,
        "velocity": 100
      },
      {
        "deltaTime": 250,
        "channel": 5,
        "type": "channel",
        "noteNumber": 38,
        "velocity": 40,
        "subtype": "noteOn"
      },
      {
        "deltaTime": 0,
        "channel": 5,
        "type": "channel",
        "noteNumber": 69,
        "velocity": 50,
        "subtype": "noteOn"
      },
      {
        "deltaTime": 58,
        "channel": 5,
        "type": "channel",
        "noteNumber": 37,
        "velocity": 106,
        "subtype": "noteOn"
      },
      {
        "deltaTime": 166,
        "channel": 5,
        "type": "channel",
        "subtype": "noteOff",
        "noteNumber": 37,
        "velocity": 106
      },
      {
        "deltaTime": 26,
        "channel": 5,
        "type": "channel",
        "subtype": "noteOff",
        "noteNumber": 69,
        "velocity": 50
      },
      {
        "deltaTime": 0,
        "channel": 5,
        "type": "channel",
        "subtype": "noteOff",
        "noteNumber": 38,
        "velocity": 40
      },
      {
        "deltaTime": 250,
        "channel": 5,
        "type": "channel",
        "noteNumber": 38,
        "velocity": 100,
        "subtype": "noteOn"
      },
      {
        "deltaTime": 0,
        "channel": 5,
        "type": "channel",
        "noteNumber": 70,
        "velocity": 80,
        "subtype": "noteOn"
      },
      {
        "deltaTime": 250,
        "channel": 5,
        "type": "channel",
        "subtype": "noteOff",
        "noteNumber": 70,
        "velocity": 80
      },
      {
        "deltaTime": 0,
        "channel": 5,
        "type": "channel",
        "subtype": "noteOff",
        "noteNumber": 38,
        "velocity": 100
      },
      {
        "deltaTime": 250,
        "channel": 5,
        "type": "channel",
        "noteNumber": 35,
        "velocity": 70,
        "subtype": "noteOn"
      },
      {
        "deltaTime": 0,
        "channel": 5,
        "type": "channel",
        "noteNumber": 41,
        "velocity": 108,
        "subtype": "noteOn"
      },
      {
        "deltaTime": 0,
        "channel": 5,
        "type": "channel",
        "noteNumber": 69,
        "velocity": 50,
        "subtype": "noteOn"
      },
      {
        "deltaTime": 250,
        "channel": 5,
        "type": "channel",
        "subtype": "noteOff",
        "noteNumber": 69,
        "velocity": 50
      },
      {
        "deltaTime": 0,
        "channel": 5,
        "type": "channel",
        "subtype": "noteOff",
        "noteNumber": 41,
        "velocity": 108
      },
      {
        "deltaTime": 0,
        "channel": 5,
        "type": "channel",
        "subtype": "noteOff",
        "noteNumber": 35,
        "velocity": 70
      },
      {
        "deltaTime": 250,
        "channel": 5,
        "type": "channel",
        "noteNumber": 70,
        "velocity": 80,
        "subtype": "noteOn"
      },
      {
        "deltaTime": 0,
        "channel": 5,
        "type": "channel",
        "noteNumber": 56,
        "velocity": 40,
        "subtype": "noteOn"
      },
      {
        "deltaTime": 0,
        "channel": 5,
        "type": "channel",
        "noteNumber": 35,
        "velocity": 100,
        "subtype": "noteOn"
      },
      {
        "deltaTime": 0,
        "channel": 5,
        "type": "channel",
        "noteNumber": 49,
        "velocity": 70,
        "subtype": "noteOn"
      },
      {
        "deltaTime": 16,
        "channel": 5,
        "type": "channel",
        "noteNumber": 37,
        "velocity": 108,
        "subtype": "noteOn"
      },
      {
        "deltaTime": 172,
        "channel": 5,
        "type": "channel",
        "subtype": "noteOff",
        "noteNumber": 37,
        "velocity": 108
      },
      {
        "deltaTime": 62,
        "channel": 5,
        "type": "channel",
        "subtype": "noteOff",
        "noteNumber": 49,
        "velocity": 70
      },
      {
        "deltaTime": 0,
        "channel": 5,
        "type": "channel",
        "subtype": "noteOff",
        "noteNumber": 35,
        "velocity": 100
      },
      {
        "deltaTime": 0,
        "channel": 5,
        "type": "channel",
        "subtype": "noteOff",
        "noteNumber": 56,
        "velocity": 40
      },
      {
        "deltaTime": 0,
        "channel": 5,
        "type": "channel",
        "subtype": "noteOff",
        "noteNumber": 70,
        "velocity": 80
      },
      {
        "deltaTime": 250,
        "channel": 5,
        "type": "channel",
        "noteNumber": 51,
        "velocity": 70,
        "subtype": "noteOn"
      },
      {
        "deltaTime": 0,
        "channel": 5,
        "type": "channel",
        "noteNumber": 63,
        "velocity": 40,
        "subtype": "noteOn"
      },
      {
        "deltaTime": 0,
        "channel": 5,
        "type": "channel",
        "noteNumber": 69,
        "velocity": 50,
        "subtype": "noteOn"
      },
      {
        "deltaTime": 250,
        "channel": 5,
        "type": "channel",
        "subtype": "noteOff",
        "noteNumber": 69,
        "velocity": 50
      },
      {
        "deltaTime": 0,
        "channel": 5,
        "type": "channel",
        "subtype": "noteOff",
        "noteNumber": 63,
        "velocity": 40
      },
      {
        "deltaTime": 0,
        "channel": 5,
        "type": "channel",
        "subtype": "noteOff",
        "noteNumber": 51,
        "velocity": 70
      },
      {
        "deltaTime": 250,
        "channel": 5,
        "type": "channel",
        "noteNumber": 70,
        "velocity": 80,
        "subtype": "noteOn"
      },
      {
        "deltaTime": 0,
        "channel": 5,
        "type": "channel",
        "noteNumber": 63,
        "velocity": 60,
        "subtype": "noteOn"
      },
      {
        "deltaTime": 0,
        "channel": 5,
        "type": "channel",
        "noteNumber": 51,
        "velocity": 90,
        "subtype": "noteOn"
      },
      {
        "deltaTime": 48,
        "channel": 5,
        "type": "channel",
        "noteNumber": 37,
        "velocity": 108,
        "subtype": "noteOn"
      },
      {
        "deltaTime": 170,
        "channel": 5,
        "type": "channel",
        "subtype": "noteOff",
        "noteNumber": 37,
        "velocity": 108
      },
      {
        "deltaTime": 32,
        "channel": 5,
        "type": "channel",
        "subtype": "noteOff",
        "noteNumber": 51,
        "velocity": 90
      },
      {
        "deltaTime": 0,
        "channel": 5,
        "type": "channel",
        "subtype": "noteOff",
        "noteNumber": 63,
        "velocity": 60
      },
      {
        "deltaTime": 0,
        "channel": 5,
        "type": "channel",
        "subtype": "noteOff",
        "noteNumber": 70,
        "velocity": 80
      },
      {
        "deltaTime": 250,
        "channel": 5,
        "type": "channel",
        "noteNumber": 62,
        "velocity": 70,
        "subtype": "noteOn"
      },
      {
        "deltaTime": 0,
        "channel": 5,
        "type": "channel",
        "noteNumber": 56,
        "velocity": 40,
        "subtype": "noteOn"
      },
      {
        "deltaTime": 0,
        "channel": 5,
        "type": "channel",
        "noteNumber": 35,
        "velocity": 70,
        "subtype": "noteOn"
      },
      {
        "deltaTime": 0,
        "channel": 5,
        "type": "channel",
        "noteNumber": 51,
        "velocity": 70,
        "subtype": "noteOn"
      },
      {
        "deltaTime": 0,
        "channel": 5,
        "type": "channel",
        "noteNumber": 69,
        "velocity": 50,
        "subtype": "noteOn"
      },
      {
        "deltaTime": 250,
        "channel": 5,
        "type": "channel",
        "subtype": "noteOff",
        "noteNumber": 69,
        "velocity": 50
      },
      {
        "deltaTime": 0,
        "channel": 5,
        "type": "channel",
        "subtype": "noteOff",
        "noteNumber": 51,
        "velocity": 70
      },
      {
        "deltaTime": 0,
        "channel": 5,
        "type": "channel",
        "subtype": "noteOff",
        "noteNumber": 35,
        "velocity": 70
      },
      {
        "deltaTime": 0,
        "channel": 5,
        "type": "channel",
        "subtype": "noteOff",
        "noteNumber": 56,
        "velocity": 40
      },
      {
        "deltaTime": 0,
        "channel": 5,
        "type": "channel",
        "subtype": "noteOff",
        "noteNumber": 62,
        "velocity": 70
      },
      {
        "deltaTime": 250,
        "channel": 5,
        "type": "channel",
        "noteNumber": 63,
        "velocity": 35,
        "subtype": "noteOn"
      },
      {
        "deltaTime": 0,
        "channel": 5,
        "type": "channel",
        "noteNumber": 51,
        "velocity": 90,
        "subtype": "noteOn"
      },
      {
        "deltaTime": 0,
        "channel": 5,
        "type": "channel",
        "noteNumber": 35,
        "velocity": 100,
        "subtype": "noteOn"
      },
      {
        "deltaTime": 0,
        "channel": 5,
        "type": "channel",
        "noteNumber": 70,
        "velocity": 80,
        "subtype": "noteOn"
      },
      {
        "deltaTime": 250,
        "channel": 5,
        "type": "channel",
        "subtype": "noteOff",
        "noteNumber": 70,
        "velocity": 80
      },
      {
        "deltaTime": 0,
        "channel": 5,
        "type": "channel",
        "subtype": "noteOff",
        "noteNumber": 35,
        "velocity": 100
      },
      {
        "deltaTime": 0,
        "channel": 5,
        "type": "channel",
        "subtype": "noteOff",
        "noteNumber": 51,
        "velocity": 90
      },
      {
        "deltaTime": 0,
        "channel": 5,
        "type": "channel",
        "subtype": "noteOff",
        "noteNumber": 63,
        "velocity": 35
      },
      {
        "deltaTime": 250,
        "channel": 5,
        "type": "channel",
        "noteNumber": 51,
        "velocity": 70,
        "subtype": "noteOn"
      },
      {
        "deltaTime": 0,
        "channel": 5,
        "type": "channel",
        "noteNumber": 69,
        "velocity": 50,
        "subtype": "noteOn"
      },
      {
        "deltaTime": 58,
        "channel": 5,
        "type": "channel",
        "noteNumber": 37,
        "velocity": 106,
        "subtype": "noteOn"
      },
      {
        "deltaTime": 166,
        "channel": 5,
        "type": "channel",
        "subtype": "noteOff",
        "noteNumber": 37,
        "velocity": 106
      },
      {
        "deltaTime": 26,
        "channel": 5,
        "type": "channel",
        "subtype": "noteOff",
        "noteNumber": 69,
        "velocity": 50
      },
      {
        "deltaTime": 0,
        "channel": 5,
        "type": "channel",
        "subtype": "noteOff",
        "noteNumber": 51,
        "velocity": 70
      },
      {
        "deltaTime": 250,
        "channel": 5,
        "type": "channel",
        "noteNumber": 51,
        "velocity": 90,
        "subtype": "noteOn"
      },
      {
        "deltaTime": 0,
        "channel": 5,
        "type": "channel",
        "noteNumber": 62,
        "velocity": 70,
        "subtype": "noteOn"
      },
      {
        "deltaTime": 0,
        "channel": 5,
        "type": "channel",
        "noteNumber": 70,
        "velocity": 80,
        "subtype": "noteOn"
      },
      {
        "deltaTime": 250,
        "channel": 5,
        "type": "channel",
        "subtype": "noteOff",
        "noteNumber": 70,
        "velocity": 80
      },
      {
        "deltaTime": 0,
        "channel": 5,
        "type": "channel",
        "subtype": "noteOff",
        "noteNumber": 62,
        "velocity": 70
      },
      {
        "deltaTime": 0,
        "channel": 5,
        "type": "channel",
        "subtype": "noteOff",
        "noteNumber": 51,
        "velocity": 90
      },
      {
        "deltaTime": 250,
        "channel": 5,
        "type": "channel",
        "noteNumber": 35,
        "velocity": 70,
        "subtype": "noteOn"
      },
      {
        "deltaTime": 0,
        "channel": 5,
        "type": "channel",
        "noteNumber": 51,
        "velocity": 70,
        "subtype": "noteOn"
      },
      {
        "deltaTime": 0,
        "channel": 5,
        "type": "channel",
        "noteNumber": 69,
        "velocity": 50,
        "subtype": "noteOn"
      },
      {
        "deltaTime": 250,
        "channel": 5,
        "type": "channel",
        "subtype": "noteOff",
        "noteNumber": 69,
        "velocity": 50
      },
      {
        "deltaTime": 0,
        "channel": 5,
        "type": "channel",
        "subtype": "noteOff",
        "noteNumber": 51,
        "velocity": 70
      },
      {
        "deltaTime": 0,
        "channel": 5,
        "type": "channel",
        "subtype": "noteOff",
        "noteNumber": 35,
        "velocity": 70
      },
      {
        "deltaTime": 250,
        "channel": 5,
        "type": "channel",
        "noteNumber": 70,
        "velocity": 80,
        "subtype": "noteOn"
      },
      {
        "deltaTime": 0,
        "channel": 5,
        "type": "channel",
        "noteNumber": 51,
        "velocity": 90,
        "subtype": "noteOn"
      },
      {
        "deltaTime": 0,
        "channel": 5,
        "type": "channel",
        "noteNumber": 35,
        "velocity": 100,
        "subtype": "noteOn"
      },
      {
        "deltaTime": 0,
        "channel": 5,
        "type": "channel",
        "noteNumber": 63,
        "velocity": 40,
        "subtype": "noteOn"
      },
      {
        "deltaTime": 16,
        "channel": 5,
        "type": "channel",
        "noteNumber": 37,
        "velocity": 108,
        "subtype": "noteOn"
      },
      {
        "deltaTime": 172,
        "channel": 5,
        "type": "channel",
        "subtype": "noteOff",
        "noteNumber": 37,
        "velocity": 108
      },
      {
        "deltaTime": 62,
        "channel": 5,
        "type": "channel",
        "subtype": "noteOff",
        "noteNumber": 63,
        "velocity": 40
      },
      {
        "deltaTime": 0,
        "channel": 5,
        "type": "channel",
        "subtype": "noteOff",
        "noteNumber": 35,
        "velocity": 100
      },
      {
        "deltaTime": 0,
        "channel": 5,
        "type": "channel",
        "subtype": "noteOff",
        "noteNumber": 51,
        "velocity": 90
      },
      {
        "deltaTime": 0,
        "channel": 5,
        "type": "channel",
        "subtype": "noteOff",
        "noteNumber": 70,
        "velocity": 80
      },
      {
        "deltaTime": 250,
        "channel": 5,
        "type": "channel",
        "noteNumber": 51,
        "velocity": 70,
        "subtype": "noteOn"
      },
      {
        "deltaTime": 0,
        "channel": 5,
        "type": "channel",
        "noteNumber": 63,
        "velocity": 40,
        "subtype": "noteOn"
      },
      {
        "deltaTime": 0,
        "channel": 5,
        "type": "channel",
        "noteNumber": 69,
        "velocity": 50,
        "subtype": "noteOn"
      },
      {
        "deltaTime": 250,
        "channel": 5,
        "type": "channel",
        "subtype": "noteOff",
        "noteNumber": 69,
        "velocity": 50
      },
      {
        "deltaTime": 0,
        "channel": 5,
        "type": "channel",
        "subtype": "noteOff",
        "noteNumber": 63,
        "velocity": 40
      },
      {
        "deltaTime": 0,
        "channel": 5,
        "type": "channel",
        "subtype": "noteOff",
        "noteNumber": 51,
        "velocity": 70
      },
      {
        "deltaTime": 250,
        "channel": 5,
        "type": "channel",
        "noteNumber": 51,
        "velocity": 90,
        "subtype": "noteOn"
      },
      {
        "deltaTime": 0,
        "channel": 5,
        "type": "channel",
        "noteNumber": 70,
        "velocity": 80,
        "subtype": "noteOn"
      },
      {
        "deltaTime": 48,
        "channel": 5,
        "type": "channel",
        "noteNumber": 37,
        "velocity": 108,
        "subtype": "noteOn"
      },
      {
        "deltaTime": 170,
        "channel": 5,
        "type": "channel",
        "subtype": "noteOff",
        "noteNumber": 37,
        "velocity": 108
      },
      {
        "deltaTime": 32,
        "channel": 5,
        "type": "channel",
        "subtype": "noteOff",
        "noteNumber": 70,
        "velocity": 80
      },
      {
        "deltaTime": 0,
        "channel": 5,
        "type": "channel",
        "subtype": "noteOff",
        "noteNumber": 51,
        "velocity": 90
      },
      {
        "deltaTime": 250,
        "channel": 5,
        "type": "channel",
        "noteNumber": 51,
        "velocity": 70,
        "subtype": "noteOn"
      },
      {
        "deltaTime": 0,
        "channel": 5,
        "type": "channel",
        "noteNumber": 56,
        "velocity": 40,
        "subtype": "noteOn"
      },
      {
        "deltaTime": 0,
        "channel": 5,
        "type": "channel",
        "noteNumber": 35,
        "velocity": 70,
        "subtype": "noteOn"
      },
      {
        "deltaTime": 0,
        "channel": 5,
        "type": "channel",
        "noteNumber": 69,
        "velocity": 50,
        "subtype": "noteOn"
      },
      {
        "deltaTime": 250,
        "channel": 5,
        "type": "channel",
        "subtype": "noteOff",
        "noteNumber": 69,
        "velocity": 50
      },
      {
        "deltaTime": 0,
        "channel": 5,
        "type": "channel",
        "subtype": "noteOff",
        "noteNumber": 35,
        "velocity": 70
      },
      {
        "deltaTime": 0,
        "channel": 5,
        "type": "channel",
        "subtype": "noteOff",
        "noteNumber": 56,
        "velocity": 40
      },
      {
        "deltaTime": 0,
        "channel": 5,
        "type": "channel",
        "subtype": "noteOff",
        "noteNumber": 51,
        "velocity": 70
      },
      {
        "deltaTime": 250,
        "channel": 5,
        "type": "channel",
        "noteNumber": 35,
        "velocity": 100,
        "subtype": "noteOn"
      },
      {
        "deltaTime": 0,
        "channel": 5,
        "type": "channel",
        "noteNumber": 51,
        "velocity": 90,
        "subtype": "noteOn"
      },
      {
        "deltaTime": 0,
        "channel": 5,
        "type": "channel",
        "noteNumber": 70,
        "velocity": 80,
        "subtype": "noteOn"
      },
      {
        "deltaTime": 250,
        "channel": 5,
        "type": "channel",
        "subtype": "noteOff",
        "noteNumber": 70,
        "velocity": 80
      },
      {
        "deltaTime": 0,
        "channel": 5,
        "type": "channel",
        "subtype": "noteOff",
        "noteNumber": 51,
        "velocity": 90
      },
      {
        "deltaTime": 0,
        "channel": 5,
        "type": "channel",
        "subtype": "noteOff",
        "noteNumber": 35,
        "velocity": 100
      },
      {
        "deltaTime": 250,
        "channel": 5,
        "type": "channel",
        "noteNumber": 51,
        "velocity": 70,
        "subtype": "noteOn"
      },
      {
        "deltaTime": 0,
        "channel": 5,
        "type": "channel",
        "noteNumber": 69,
        "velocity": 50,
        "subtype": "noteOn"
      },
      {
        "deltaTime": 58,
        "channel": 5,
        "type": "channel",
        "noteNumber": 37,
        "velocity": 106,
        "subtype": "noteOn"
      },
      {
        "deltaTime": 166,
        "channel": 5,
        "type": "channel",
        "subtype": "noteOff",
        "noteNumber": 37,
        "velocity": 106
      },
      {
        "deltaTime": 26,
        "channel": 5,
        "type": "channel",
        "subtype": "noteOff",
        "noteNumber": 69,
        "velocity": 50
      },
      {
        "deltaTime": 0,
        "channel": 5,
        "type": "channel",
        "subtype": "noteOff",
        "noteNumber": 51,
        "velocity": 70
      },
      {
        "deltaTime": 250,
        "channel": 5,
        "type": "channel",
        "noteNumber": 51,
        "velocity": 90,
        "subtype": "noteOn"
      },
      {
        "deltaTime": 0,
        "channel": 5,
        "type": "channel",
        "noteNumber": 70,
        "velocity": 80,
        "subtype": "noteOn"
      },
      {
        "deltaTime": 250,
        "channel": 5,
        "type": "channel",
        "subtype": "noteOff",
        "noteNumber": 70,
        "velocity": 80
      },
      {
        "deltaTime": 0,
        "channel": 5,
        "type": "channel",
        "subtype": "noteOff",
        "noteNumber": 51,
        "velocity": 90
      },
      {
        "deltaTime": 250,
        "channel": 5,
        "type": "channel",
        "noteNumber": 35,
        "velocity": 70,
        "subtype": "noteOn"
      },
      {
        "deltaTime": 0,
        "channel": 5,
        "type": "channel",
        "noteNumber": 51,
        "velocity": 70,
        "subtype": "noteOn"
      },
      {
        "deltaTime": 0,
        "channel": 5,
        "type": "channel",
        "noteNumber": 69,
        "velocity": 50,
        "subtype": "noteOn"
      },
      {
        "deltaTime": 250,
        "channel": 5,
        "type": "channel",
        "subtype": "noteOff",
        "noteNumber": 69,
        "velocity": 50
      },
      {
        "deltaTime": 0,
        "channel": 5,
        "type": "channel",
        "subtype": "noteOff",
        "noteNumber": 51,
        "velocity": 70
      },
      {
        "deltaTime": 0,
        "channel": 5,
        "type": "channel",
        "subtype": "noteOff",
        "noteNumber": 35,
        "velocity": 70
      },
      {
        "deltaTime": 250,
        "channel": 5,
        "type": "channel",
        "noteNumber": 70,
        "velocity": 80,
        "subtype": "noteOn"
      },
      {
        "deltaTime": 0,
        "channel": 5,
        "type": "channel",
        "noteNumber": 56,
        "velocity": 40,
        "subtype": "noteOn"
      },
      {
        "deltaTime": 0,
        "channel": 5,
        "type": "channel",
        "noteNumber": 35,
        "velocity": 100,
        "subtype": "noteOn"
      },
      {
        "deltaTime": 0,
        "channel": 5,
        "type": "channel",
        "noteNumber": 51,
        "velocity": 90,
        "subtype": "noteOn"
      },
      {
        "deltaTime": 16,
        "channel": 5,
        "type": "channel",
        "noteNumber": 37,
        "velocity": 108,
        "subtype": "noteOn"
      },
      {
        "deltaTime": 172,
        "channel": 5,
        "type": "channel",
        "subtype": "noteOff",
        "noteNumber": 37,
        "velocity": 108
      },
      {
        "deltaTime": 62,
        "channel": 5,
        "type": "channel",
        "subtype": "noteOff",
        "noteNumber": 51,
        "velocity": 90
      },
      {
        "deltaTime": 0,
        "channel": 5,
        "type": "channel",
        "subtype": "noteOff",
        "noteNumber": 35,
        "velocity": 100
      },
      {
        "deltaTime": 0,
        "channel": 5,
        "type": "channel",
        "subtype": "noteOff",
        "noteNumber": 56,
        "velocity": 40
      },
      {
        "deltaTime": 0,
        "channel": 5,
        "type": "channel",
        "subtype": "noteOff",
        "noteNumber": 70,
        "velocity": 80
      },
      {
        "deltaTime": 250,
        "channel": 5,
        "type": "channel",
        "noteNumber": 51,
        "velocity": 70,
        "subtype": "noteOn"
      },
      {
        "deltaTime": 0,
        "channel": 5,
        "type": "channel",
        "noteNumber": 63,
        "velocity": 40,
        "subtype": "noteOn"
      },
      {
        "deltaTime": 0,
        "channel": 5,
        "type": "channel",
        "noteNumber": 69,
        "velocity": 50,
        "subtype": "noteOn"
      },
      {
        "deltaTime": 250,
        "channel": 5,
        "type": "channel",
        "subtype": "noteOff",
        "noteNumber": 69,
        "velocity": 50
      },
      {
        "deltaTime": 0,
        "channel": 5,
        "type": "channel",
        "subtype": "noteOff",
        "noteNumber": 63,
        "velocity": 40
      },
      {
        "deltaTime": 0,
        "channel": 5,
        "type": "channel",
        "subtype": "noteOff",
        "noteNumber": 51,
        "velocity": 70
      },
      {
        "deltaTime": 250,
        "channel": 5,
        "type": "channel",
        "noteNumber": 70,
        "velocity": 80,
        "subtype": "noteOn"
      },
      {
        "deltaTime": 0,
        "channel": 5,
        "type": "channel",
        "noteNumber": 48,
        "velocity": 60,
        "subtype": "noteOn"
      },
      {
        "deltaTime": 0,
        "channel": 5,
        "type": "channel",
        "noteNumber": 51,
        "velocity": 90,
        "subtype": "noteOn"
      },
      {
        "deltaTime": 0,
        "channel": 5,
        "type": "channel",
        "noteNumber": 63,
        "velocity": 60,
        "subtype": "noteOn"
      },
      {
        "deltaTime": 48,
        "channel": 5,
        "type": "channel",
        "noteNumber": 37,
        "velocity": 108,
        "subtype": "noteOn"
      },
      {
        "deltaTime": 170,
        "channel": 5,
        "type": "channel",
        "subtype": "noteOff",
        "noteNumber": 37,
        "velocity": 108
      },
      {
        "deltaTime": 32,
        "channel": 5,
        "type": "channel",
        "subtype": "noteOff",
        "noteNumber": 63,
        "velocity": 60
      },
      {
        "deltaTime": 0,
        "channel": 5,
        "type": "channel",
        "subtype": "noteOff",
        "noteNumber": 51,
        "velocity": 90
      },
      {
        "deltaTime": 0,
        "channel": 5,
        "type": "channel",
        "subtype": "noteOff",
        "noteNumber": 48,
        "velocity": 60
      },
      {
        "deltaTime": 0,
        "channel": 5,
        "type": "channel",
        "subtype": "noteOff",
        "noteNumber": 70,
        "velocity": 80
      },
      {
        "deltaTime": 250,
        "channel": 5,
        "type": "channel",
        "noteNumber": 62,
        "velocity": 70,
        "subtype": "noteOn"
      },
      {
        "deltaTime": 0,
        "channel": 5,
        "type": "channel",
        "noteNumber": 51,
        "velocity": 70,
        "subtype": "noteOn"
      },
      {
        "deltaTime": 0,
        "channel": 5,
        "type": "channel",
        "noteNumber": 35,
        "velocity": 70,
        "subtype": "noteOn"
      },
      {
        "deltaTime": 0,
        "channel": 5,
        "type": "channel",
        "noteNumber": 69,
        "velocity": 50,
        "subtype": "noteOn"
      },
      {
        "deltaTime": 250,
        "channel": 5,
        "type": "channel",
        "subtype": "noteOff",
        "noteNumber": 69,
        "velocity": 50
      },
      {
        "deltaTime": 0,
        "channel": 5,
        "type": "channel",
        "subtype": "noteOff",
        "noteNumber": 35,
        "velocity": 70
      },
      {
        "deltaTime": 0,
        "channel": 5,
        "type": "channel",
        "subtype": "noteOff",
        "noteNumber": 51,
        "velocity": 70
      },
      {
        "deltaTime": 0,
        "channel": 5,
        "type": "channel",
        "subtype": "noteOff",
        "noteNumber": 62,
        "velocity": 70
      },
      {
        "deltaTime": 250,
        "channel": 5,
        "type": "channel",
        "noteNumber": 35,
        "velocity": 100,
        "subtype": "noteOn"
      },
      {
        "deltaTime": 0,
        "channel": 5,
        "type": "channel",
        "noteNumber": 51,
        "velocity": 90,
        "subtype": "noteOn"
      },
      {
        "deltaTime": 0,
        "channel": 5,
        "type": "channel",
        "noteNumber": 70,
        "velocity": 80,
        "subtype": "noteOn"
      },
      {
        "deltaTime": 250,
        "channel": 5,
        "type": "channel",
        "subtype": "noteOff",
        "noteNumber": 70,
        "velocity": 80
      },
      {
        "deltaTime": 0,
        "channel": 5,
        "type": "channel",
        "subtype": "noteOff",
        "noteNumber": 51,
        "velocity": 90
      },
      {
        "deltaTime": 0,
        "channel": 5,
        "type": "channel",
        "subtype": "noteOff",
        "noteNumber": 35,
        "velocity": 100
      },
      {
        "deltaTime": 250,
        "channel": 5,
        "type": "channel",
        "noteNumber": 51,
        "velocity": 70,
        "subtype": "noteOn"
      },
      {
        "deltaTime": 0,
        "channel": 5,
        "type": "channel",
        "noteNumber": 69,
        "velocity": 50,
        "subtype": "noteOn"
      },
      {
        "deltaTime": 58,
        "channel": 5,
        "type": "channel",
        "noteNumber": 37,
        "velocity": 106,
        "subtype": "noteOn"
      },
      {
        "deltaTime": 166,
        "channel": 5,
        "type": "channel",
        "subtype": "noteOff",
        "noteNumber": 37,
        "velocity": 106
      },
      {
        "deltaTime": 26,
        "channel": 5,
        "type": "channel",
        "subtype": "noteOff",
        "noteNumber": 69,
        "velocity": 50
      },
      {
        "deltaTime": 0,
        "channel": 5,
        "type": "channel",
        "subtype": "noteOff",
        "noteNumber": 51,
        "velocity": 70
      },
      {
        "deltaTime": 250,
        "channel": 5,
        "type": "channel",
        "noteNumber": 62,
        "velocity": 70,
        "subtype": "noteOn"
      },
      {
        "deltaTime": 0,
        "channel": 5,
        "type": "channel",
        "noteNumber": 51,
        "velocity": 90,
        "subtype": "noteOn"
      },
      {
        "deltaTime": 0,
        "channel": 5,
        "type": "channel",
        "noteNumber": 56,
        "velocity": 40,
        "subtype": "noteOn"
      },
      {
        "deltaTime": 0,
        "channel": 5,
        "type": "channel",
        "noteNumber": 70,
        "velocity": 80,
        "subtype": "noteOn"
      },
      {
        "deltaTime": 250,
        "channel": 5,
        "type": "channel",
        "subtype": "noteOff",
        "noteNumber": 70,
        "velocity": 80
      },
      {
        "deltaTime": 0,
        "channel": 5,
        "type": "channel",
        "subtype": "noteOff",
        "noteNumber": 56,
        "velocity": 40
      },
      {
        "deltaTime": 0,
        "channel": 5,
        "type": "channel",
        "subtype": "noteOff",
        "noteNumber": 51,
        "velocity": 90
      },
      {
        "deltaTime": 0,
        "channel": 5,
        "type": "channel",
        "subtype": "noteOff",
        "noteNumber": 62,
        "velocity": 70
      },
      {
        "deltaTime": 250,
        "channel": 5,
        "type": "channel",
        "noteNumber": 35,
        "velocity": 70,
        "subtype": "noteOn"
      },
      {
        "deltaTime": 0,
        "channel": 5,
        "type": "channel",
        "noteNumber": 51,
        "velocity": 70,
        "subtype": "noteOn"
      },
      {
        "deltaTime": 0,
        "channel": 5,
        "type": "channel",
        "noteNumber": 69,
        "velocity": 50,
        "subtype": "noteOn"
      },
      {
        "deltaTime": 250,
        "channel": 5,
        "type": "channel",
        "subtype": "noteOff",
        "noteNumber": 69,
        "velocity": 50
      },
      {
        "deltaTime": 0,
        "channel": 5,
        "type": "channel",
        "subtype": "noteOff",
        "noteNumber": 51,
        "velocity": 70
      },
      {
        "deltaTime": 0,
        "channel": 5,
        "type": "channel",
        "subtype": "noteOff",
        "noteNumber": 35,
        "velocity": 70
      },
      {
        "deltaTime": 250,
        "channel": 5,
        "type": "channel",
        "noteNumber": 63,
        "velocity": 40,
        "subtype": "noteOn"
      },
      {
        "deltaTime": 0,
        "channel": 5,
        "type": "channel",
        "noteNumber": 70,
        "velocity": 80,
        "subtype": "noteOn"
      },
      {
        "deltaTime": 0,
        "channel": 5,
        "type": "channel",
        "noteNumber": 35,
        "velocity": 100,
        "subtype": "noteOn"
      },
      {
        "deltaTime": 0,
        "channel": 5,
        "type": "channel",
        "noteNumber": 51,
        "velocity": 90,
        "subtype": "noteOn"
      },
      {
        "deltaTime": 0,
        "channel": 5,
        "type": "channel",
        "noteNumber": 56,
        "velocity": 40,
        "subtype": "noteOn"
      },
      {
        "deltaTime": 16,
        "channel": 5,
        "type": "channel",
        "noteNumber": 37,
        "velocity": 108,
        "subtype": "noteOn"
      },
      {
        "deltaTime": 172,
        "channel": 5,
        "type": "channel",
        "subtype": "noteOff",
        "noteNumber": 37,
        "velocity": 108
      },
      {
        "deltaTime": 62,
        "channel": 5,
        "type": "channel",
        "subtype": "noteOff",
        "noteNumber": 56,
        "velocity": 40
      },
      {
        "deltaTime": 0,
        "channel": 5,
        "type": "channel",
        "subtype": "noteOff",
        "noteNumber": 51,
        "velocity": 90
      },
      {
        "deltaTime": 0,
        "channel": 5,
        "type": "channel",
        "subtype": "noteOff",
        "noteNumber": 35,
        "velocity": 100
      },
      {
        "deltaTime": 0,
        "channel": 5,
        "type": "channel",
        "subtype": "noteOff",
        "noteNumber": 70,
        "velocity": 80
      },
      {
        "deltaTime": 0,
        "channel": 5,
        "type": "channel",
        "subtype": "noteOff",
        "noteNumber": 63,
        "velocity": 40
      },
      {
        "deltaTime": 250,
        "channel": 5,
        "type": "channel",
        "noteNumber": 51,
        "velocity": 70,
        "subtype": "noteOn"
      },
      {
        "deltaTime": 0,
        "channel": 5,
        "type": "channel",
        "noteNumber": 63,
        "velocity": 40,
        "subtype": "noteOn"
      },
      {
        "deltaTime": 0,
        "channel": 5,
        "type": "channel",
        "noteNumber": 69,
        "velocity": 50,
        "subtype": "noteOn"
      },
      {
        "deltaTime": 250,
        "channel": 5,
        "type": "channel",
        "subtype": "noteOff",
        "noteNumber": 69,
        "velocity": 50
      },
      {
        "deltaTime": 0,
        "channel": 5,
        "type": "channel",
        "subtype": "noteOff",
        "noteNumber": 63,
        "velocity": 40
      },
      {
        "deltaTime": 0,
        "channel": 5,
        "type": "channel",
        "subtype": "noteOff",
        "noteNumber": 51,
        "velocity": 70
      },
      {
        "deltaTime": 250,
        "channel": 5,
        "type": "channel",
        "noteNumber": 51,
        "velocity": 90,
        "subtype": "noteOn"
      },
      {
        "deltaTime": 0,
        "channel": 5,
        "type": "channel",
        "noteNumber": 70,
        "velocity": 80,
        "subtype": "noteOn"
      },
      {
        "deltaTime": 48,
        "channel": 5,
        "type": "channel",
        "noteNumber": 37,
        "velocity": 108,
        "subtype": "noteOn"
      },
      {
        "deltaTime": 170,
        "channel": 5,
        "type": "channel",
        "subtype": "noteOff",
        "noteNumber": 37,
        "velocity": 108
      },
      {
        "deltaTime": 32,
        "channel": 5,
        "type": "channel",
        "subtype": "noteOff",
        "noteNumber": 70,
        "velocity": 80
      },
      {
        "deltaTime": 0,
        "channel": 5,
        "type": "channel",
        "subtype": "noteOff",
        "noteNumber": 51,
        "velocity": 90
      },
      {
        "deltaTime": 250,
        "channel": 5,
        "type": "channel",
        "noteNumber": 51,
        "velocity": 70,
        "subtype": "noteOn"
      },
      {
        "deltaTime": 0,
        "channel": 5,
        "type": "channel",
        "noteNumber": 56,
        "velocity": 40,
        "subtype": "noteOn"
      },
      {
        "deltaTime": 0,
        "channel": 5,
        "type": "channel",
        "noteNumber": 35,
        "velocity": 70,
        "subtype": "noteOn"
      },
      {
        "deltaTime": 0,
        "channel": 5,
        "type": "channel",
        "noteNumber": 69,
        "velocity": 50,
        "subtype": "noteOn"
      },
      {
        "deltaTime": 250,
        "channel": 5,
        "type": "channel",
        "subtype": "noteOff",
        "noteNumber": 69,
        "velocity": 50
      },
      {
        "deltaTime": 0,
        "channel": 5,
        "type": "channel",
        "subtype": "noteOff",
        "noteNumber": 35,
        "velocity": 70
      },
      {
        "deltaTime": 0,
        "channel": 5,
        "type": "channel",
        "subtype": "noteOff",
        "noteNumber": 56,
        "velocity": 40
      },
      {
        "deltaTime": 0,
        "channel": 5,
        "type": "channel",
        "subtype": "noteOff",
        "noteNumber": 51,
        "velocity": 70
      },
      {
        "deltaTime": 250,
        "channel": 5,
        "type": "channel",
        "noteNumber": 41,
        "velocity": 50,
        "subtype": "noteOn"
      },
      {
        "deltaTime": 0,
        "channel": 5,
        "type": "channel",
        "noteNumber": 51,
        "velocity": 90,
        "subtype": "noteOn"
      },
      {
        "deltaTime": 0,
        "channel": 5,
        "type": "channel",
        "noteNumber": 35,
        "velocity": 100,
        "subtype": "noteOn"
      },
      {
        "deltaTime": 0,
        "channel": 5,
        "type": "channel",
        "noteNumber": 70,
        "velocity": 80,
        "subtype": "noteOn"
      },
      {
        "deltaTime": 250,
        "channel": 5,
        "type": "channel",
        "subtype": "noteOff",
        "noteNumber": 70,
        "velocity": 80
      },
      {
        "deltaTime": 0,
        "channel": 5,
        "type": "channel",
        "subtype": "noteOff",
        "noteNumber": 35,
        "velocity": 100
      },
      {
        "deltaTime": 0,
        "channel": 5,
        "type": "channel",
        "subtype": "noteOff",
        "noteNumber": 51,
        "velocity": 90
      },
      {
        "deltaTime": 0,
        "channel": 5,
        "type": "channel",
        "subtype": "noteOff",
        "noteNumber": 41,
        "velocity": 50
      },
      {
        "deltaTime": 250,
        "channel": 5,
        "type": "channel",
        "noteNumber": 51,
        "velocity": 70,
        "subtype": "noteOn"
      },
      {
        "deltaTime": 0,
        "channel": 5,
        "type": "channel",
        "noteNumber": 69,
        "velocity": 50,
        "subtype": "noteOn"
      },
      {
        "deltaTime": 58,
        "channel": 5,
        "type": "channel",
        "noteNumber": 37,
        "velocity": 106,
        "subtype": "noteOn"
      },
      {
        "deltaTime": 166,
        "channel": 5,
        "type": "channel",
        "subtype": "noteOff",
        "noteNumber": 37,
        "velocity": 106
      },
      {
        "deltaTime": 26,
        "channel": 5,
        "type": "channel",
        "subtype": "noteOff",
        "noteNumber": 69,
        "velocity": 50
      },
      {
        "deltaTime": 0,
        "channel": 5,
        "type": "channel",
        "subtype": "noteOff",
        "noteNumber": 51,
        "velocity": 70
      },
      {
        "deltaTime": 250,
        "channel": 5,
        "type": "channel",
        "noteNumber": 51,
        "velocity": 90,
        "subtype": "noteOn"
      },
      {
        "deltaTime": 0,
        "channel": 5,
        "type": "channel",
        "noteNumber": 70,
        "velocity": 80,
        "subtype": "noteOn"
      },
      {
        "deltaTime": 250,
        "channel": 5,
        "type": "channel",
        "subtype": "noteOff",
        "noteNumber": 70,
        "velocity": 80
      },
      {
        "deltaTime": 0,
        "channel": 5,
        "type": "channel",
        "subtype": "noteOff",
        "noteNumber": 51,
        "velocity": 90
      },
      {
        "deltaTime": 250,
        "channel": 5,
        "type": "channel",
        "noteNumber": 35,
        "velocity": 70,
        "subtype": "noteOn"
      },
      {
        "deltaTime": 0,
        "channel": 5,
        "type": "channel",
        "noteNumber": 51,
        "velocity": 70,
        "subtype": "noteOn"
      },
      {
        "deltaTime": 0,
        "channel": 5,
        "type": "channel",
        "noteNumber": 69,
        "velocity": 50,
        "subtype": "noteOn"
      },
      {
        "deltaTime": 250,
        "channel": 5,
        "type": "channel",
        "subtype": "noteOff",
        "noteNumber": 69,
        "velocity": 50
      },
      {
        "deltaTime": 0,
        "channel": 5,
        "type": "channel",
        "subtype": "noteOff",
        "noteNumber": 51,
        "velocity": 70
      },
      {
        "deltaTime": 0,
        "channel": 5,
        "type": "channel",
        "subtype": "noteOff",
        "noteNumber": 35,
        "velocity": 70
      },
      {
        "deltaTime": 250,
        "channel": 5,
        "type": "channel",
        "noteNumber": 70,
        "velocity": 80,
        "subtype": "noteOn"
      },
      {
        "deltaTime": 0,
        "channel": 5,
        "type": "channel",
        "noteNumber": 51,
        "velocity": 90,
        "subtype": "noteOn"
      },
      {
        "deltaTime": 0,
        "channel": 5,
        "type": "channel",
        "noteNumber": 35,
        "velocity": 100,
        "subtype": "noteOn"
      },
      {
        "deltaTime": 16,
        "channel": 5,
        "type": "channel",
        "noteNumber": 37,
        "velocity": 108,
        "subtype": "noteOn"
      },
      {
        "deltaTime": 172,
        "channel": 5,
        "type": "channel",
        "subtype": "noteOff",
        "noteNumber": 37,
        "velocity": 108
      },
      {
        "deltaTime": 62,
        "channel": 5,
        "type": "channel",
        "subtype": "noteOff",
        "noteNumber": 35,
        "velocity": 100
      },
      {
        "deltaTime": 0,
        "channel": 5,
        "type": "channel",
        "subtype": "noteOff",
        "noteNumber": 51,
        "velocity": 90
      },
      {
        "deltaTime": 0,
        "channel": 5,
        "type": "channel",
        "subtype": "noteOff",
        "noteNumber": 70,
        "velocity": 80
      },
      {
        "deltaTime": 250,
        "channel": 5,
        "type": "channel",
        "noteNumber": 51,
        "velocity": 70,
        "subtype": "noteOn"
      },
      {
        "deltaTime": 0,
        "channel": 5,
        "type": "channel",
        "noteNumber": 63,
        "velocity": 40,
        "subtype": "noteOn"
      },
      {
        "deltaTime": 0,
        "channel": 5,
        "type": "channel",
        "noteNumber": 69,
        "velocity": 50,
        "subtype": "noteOn"
      },
      {
        "deltaTime": 250,
        "channel": 5,
        "type": "channel",
        "subtype": "noteOff",
        "noteNumber": 69,
        "velocity": 50
      },
      {
        "deltaTime": 0,
        "channel": 5,
        "type": "channel",
        "subtype": "noteOff",
        "noteNumber": 63,
        "velocity": 40
      },
      {
        "deltaTime": 0,
        "channel": 5,
        "type": "channel",
        "subtype": "noteOff",
        "noteNumber": 51,
        "velocity": 70
      },
      {
        "deltaTime": 250,
        "channel": 5,
        "type": "channel",
        "noteNumber": 70,
        "velocity": 80,
        "subtype": "noteOn"
      },
      {
        "deltaTime": 0,
        "channel": 5,
        "type": "channel",
        "noteNumber": 48,
        "velocity": 60,
        "subtype": "noteOn"
      },
      {
        "deltaTime": 0,
        "channel": 5,
        "type": "channel",
        "noteNumber": 51,
        "velocity": 90,
        "subtype": "noteOn"
      },
      {
        "deltaTime": 0,
        "channel": 5,
        "type": "channel",
        "noteNumber": 63,
        "velocity": 60,
        "subtype": "noteOn"
      },
      {
        "deltaTime": 48,
        "channel": 5,
        "type": "channel",
        "noteNumber": 37,
        "velocity": 108,
        "subtype": "noteOn"
      },
      {
        "deltaTime": 170,
        "channel": 5,
        "type": "channel",
        "subtype": "noteOff",
        "noteNumber": 37,
        "velocity": 108
      },
      {
        "deltaTime": 32,
        "channel": 5,
        "type": "channel",
        "subtype": "noteOff",
        "noteNumber": 63,
        "velocity": 60
      },
      {
        "deltaTime": 0,
        "channel": 5,
        "type": "channel",
        "subtype": "noteOff",
        "noteNumber": 51,
        "velocity": 90
      },
      {
        "deltaTime": 0,
        "channel": 5,
        "type": "channel",
        "subtype": "noteOff",
        "noteNumber": 48,
        "velocity": 60
      },
      {
        "deltaTime": 0,
        "channel": 5,
        "type": "channel",
        "subtype": "noteOff",
        "noteNumber": 70,
        "velocity": 80
      },
      {
        "deltaTime": 250,
        "channel": 5,
        "type": "channel",
        "noteNumber": 62,
        "velocity": 70,
        "subtype": "noteOn"
      },
      {
        "deltaTime": 0,
        "channel": 5,
        "type": "channel",
        "noteNumber": 51,
        "velocity": 70,
        "subtype": "noteOn"
      },
      {
        "deltaTime": 0,
        "channel": 5,
        "type": "channel",
        "noteNumber": 35,
        "velocity": 70,
        "subtype": "noteOn"
      },
      {
        "deltaTime": 0,
        "channel": 5,
        "type": "channel",
        "noteNumber": 69,
        "velocity": 50,
        "subtype": "noteOn"
      },
      {
        "deltaTime": 250,
        "channel": 5,
        "type": "channel",
        "subtype": "noteOff",
        "noteNumber": 69,
        "velocity": 50
      },
      {
        "deltaTime": 0,
        "channel": 5,
        "type": "channel",
        "subtype": "noteOff",
        "noteNumber": 35,
        "velocity": 70
      },
      {
        "deltaTime": 0,
        "channel": 5,
        "type": "channel",
        "subtype": "noteOff",
        "noteNumber": 51,
        "velocity": 70
      },
      {
        "deltaTime": 0,
        "channel": 5,
        "type": "channel",
        "subtype": "noteOff",
        "noteNumber": 62,
        "velocity": 70
      },
      {
        "deltaTime": 250,
        "channel": 5,
        "type": "channel",
        "noteNumber": 35,
        "velocity": 100,
        "subtype": "noteOn"
      },
      {
        "deltaTime": 0,
        "channel": 5,
        "type": "channel",
        "noteNumber": 51,
        "velocity": 90,
        "subtype": "noteOn"
      },
      {
        "deltaTime": 0,
        "channel": 5,
        "type": "channel",
        "noteNumber": 70,
        "velocity": 80,
        "subtype": "noteOn"
      },
      {
        "deltaTime": 250,
        "channel": 5,
        "type": "channel",
        "subtype": "noteOff",
        "noteNumber": 70,
        "velocity": 80
      },
      {
        "deltaTime": 0,
        "channel": 5,
        "type": "channel",
        "subtype": "noteOff",
        "noteNumber": 51,
        "velocity": 90
      },
      {
        "deltaTime": 0,
        "channel": 5,
        "type": "channel",
        "subtype": "noteOff",
        "noteNumber": 35,
        "velocity": 100
      },
      {
        "deltaTime": 250,
        "channel": 5,
        "type": "channel",
        "noteNumber": 51,
        "velocity": 70,
        "subtype": "noteOn"
      },
      {
        "deltaTime": 0,
        "channel": 5,
        "type": "channel",
        "noteNumber": 69,
        "velocity": 50,
        "subtype": "noteOn"
      },
      {
        "deltaTime": 58,
        "channel": 5,
        "type": "channel",
        "noteNumber": 37,
        "velocity": 106,
        "subtype": "noteOn"
      },
      {
        "deltaTime": 166,
        "channel": 5,
        "type": "channel",
        "subtype": "noteOff",
        "noteNumber": 37,
        "velocity": 106
      },
      {
        "deltaTime": 26,
        "channel": 5,
        "type": "channel",
        "subtype": "noteOff",
        "noteNumber": 69,
        "velocity": 50
      },
      {
        "deltaTime": 0,
        "channel": 5,
        "type": "channel",
        "subtype": "noteOff",
        "noteNumber": 51,
        "velocity": 70
      },
      {
        "deltaTime": 250,
        "channel": 5,
        "type": "channel",
        "noteNumber": 62,
        "velocity": 70,
        "subtype": "noteOn"
      },
      {
        "deltaTime": 0,
        "channel": 5,
        "type": "channel",
        "noteNumber": 45,
        "velocity": 70,
        "subtype": "noteOn"
      },
      {
        "deltaTime": 0,
        "channel": 5,
        "type": "channel",
        "noteNumber": 51,
        "velocity": 90,
        "subtype": "noteOn"
      },
      {
        "deltaTime": 0,
        "channel": 5,
        "type": "channel",
        "noteNumber": 70,
        "velocity": 80,
        "subtype": "noteOn"
      },
      {
        "deltaTime": 250,
        "channel": 5,
        "type": "channel",
        "subtype": "noteOff",
        "noteNumber": 70,
        "velocity": 80
      },
      {
        "deltaTime": 0,
        "channel": 5,
        "type": "channel",
        "subtype": "noteOff",
        "noteNumber": 51,
        "velocity": 90
      },
      {
        "deltaTime": 0,
        "channel": 5,
        "type": "channel",
        "subtype": "noteOff",
        "noteNumber": 45,
        "velocity": 70
      },
      {
        "deltaTime": 0,
        "channel": 5,
        "type": "channel",
        "subtype": "noteOff",
        "noteNumber": 62,
        "velocity": 70
      },
      {
        "deltaTime": 250,
        "channel": 5,
        "type": "channel",
        "noteNumber": 35,
        "velocity": 70,
        "subtype": "noteOn"
      },
      {
        "deltaTime": 0,
        "channel": 5,
        "type": "channel",
        "noteNumber": 51,
        "velocity": 70,
        "subtype": "noteOn"
      },
      {
        "deltaTime": 0,
        "channel": 5,
        "type": "channel",
        "noteNumber": 69,
        "velocity": 50,
        "subtype": "noteOn"
      },
      {
        "deltaTime": 250,
        "channel": 5,
        "type": "channel",
        "subtype": "noteOff",
        "noteNumber": 69,
        "velocity": 50
      },
      {
        "deltaTime": 0,
        "channel": 5,
        "type": "channel",
        "subtype": "noteOff",
        "noteNumber": 51,
        "velocity": 70
      },
      {
        "deltaTime": 0,
        "channel": 5,
        "type": "channel",
        "subtype": "noteOff",
        "noteNumber": 35,
        "velocity": 70
      },
      {
        "deltaTime": 250,
        "channel": 5,
        "type": "channel",
        "noteNumber": 63,
        "velocity": 40,
        "subtype": "noteOn"
      },
      {
        "deltaTime": 0,
        "channel": 5,
        "type": "channel",
        "noteNumber": 70,
        "velocity": 80,
        "subtype": "noteOn"
      },
      {
        "deltaTime": 0,
        "channel": 5,
        "type": "channel",
        "noteNumber": 35,
        "velocity": 100,
        "subtype": "noteOn"
      },
      {
        "deltaTime": 0,
        "channel": 5,
        "type": "channel",
        "noteNumber": 51,
        "velocity": 90,
        "subtype": "noteOn"
      },
      {
        "deltaTime": 0,
        "channel": 5,
        "type": "channel",
        "noteNumber": 56,
        "velocity": 40,
        "subtype": "noteOn"
      },
      {
        "deltaTime": 16,
        "channel": 5,
        "type": "channel",
        "noteNumber": 37,
        "velocity": 108,
        "subtype": "noteOn"
      },
      {
        "deltaTime": 172,
        "channel": 5,
        "type": "channel",
        "subtype": "noteOff",
        "noteNumber": 37,
        "velocity": 108
      },
      {
        "deltaTime": 62,
        "channel": 5,
        "type": "channel",
        "subtype": "noteOff",
        "noteNumber": 56,
        "velocity": 40
      },
      {
        "deltaTime": 0,
        "channel": 5,
        "type": "channel",
        "subtype": "noteOff",
        "noteNumber": 51,
        "velocity": 90
      },
      {
        "deltaTime": 0,
        "channel": 5,
        "type": "channel",
        "subtype": "noteOff",
        "noteNumber": 35,
        "velocity": 100
      },
      {
        "deltaTime": 0,
        "channel": 5,
        "type": "channel",
        "subtype": "noteOff",
        "noteNumber": 70,
        "velocity": 80
      },
      {
        "deltaTime": 0,
        "channel": 5,
        "type": "channel",
        "subtype": "noteOff",
        "noteNumber": 63,
        "velocity": 40
      },
      {
        "deltaTime": 250,
        "channel": 5,
        "type": "channel",
        "noteNumber": 51,
        "velocity": 70,
        "subtype": "noteOn"
      },
      {
        "deltaTime": 0,
        "channel": 5,
        "type": "channel",
        "noteNumber": 63,
        "velocity": 40,
        "subtype": "noteOn"
      },
      {
        "deltaTime": 0,
        "channel": 5,
        "type": "channel",
        "noteNumber": 69,
        "velocity": 50,
        "subtype": "noteOn"
      },
      {
        "deltaTime": 250,
        "channel": 5,
        "type": "channel",
        "subtype": "noteOff",
        "noteNumber": 69,
        "velocity": 50
      },
      {
        "deltaTime": 0,
        "channel": 5,
        "type": "channel",
        "subtype": "noteOff",
        "noteNumber": 63,
        "velocity": 40
      },
      {
        "deltaTime": 0,
        "channel": 5,
        "type": "channel",
        "subtype": "noteOff",
        "noteNumber": 51,
        "velocity": 70
      },
      {
        "deltaTime": 250,
        "channel": 5,
        "type": "channel",
        "noteNumber": 51,
        "velocity": 90,
        "subtype": "noteOn"
      },
      {
        "deltaTime": 0,
        "channel": 5,
        "type": "channel",
        "noteNumber": 70,
        "velocity": 80,
        "subtype": "noteOn"
      },
      {
        "deltaTime": 48,
        "channel": 5,
        "type": "channel",
        "noteNumber": 37,
        "velocity": 108,
        "subtype": "noteOn"
      },
      {
        "deltaTime": 170,
        "channel": 5,
        "type": "channel",
        "subtype": "noteOff",
        "noteNumber": 37,
        "velocity": 108
      },
      {
        "deltaTime": 32,
        "channel": 5,
        "type": "channel",
        "subtype": "noteOff",
        "noteNumber": 70,
        "velocity": 80
      },
      {
        "deltaTime": 0,
        "channel": 5,
        "type": "channel",
        "subtype": "noteOff",
        "noteNumber": 51,
        "velocity": 90
      },
      {
        "deltaTime": 250,
        "channel": 5,
        "type": "channel",
        "noteNumber": 35,
        "velocity": 70,
        "subtype": "noteOn"
      },
      {
        "deltaTime": 0,
        "channel": 5,
        "type": "channel",
        "noteNumber": 51,
        "velocity": 70,
        "subtype": "noteOn"
      },
      {
        "deltaTime": 0,
        "channel": 5,
        "type": "channel",
        "noteNumber": 69,
        "velocity": 50,
        "subtype": "noteOn"
      },
      {
        "deltaTime": 250,
        "channel": 5,
        "type": "channel",
        "subtype": "noteOff",
        "noteNumber": 69,
        "velocity": 50
      },
      {
        "deltaTime": 0,
        "channel": 5,
        "type": "channel",
        "subtype": "noteOff",
        "noteNumber": 51,
        "velocity": 70
      },
      {
        "deltaTime": 0,
        "channel": 5,
        "type": "channel",
        "subtype": "noteOff",
        "noteNumber": 35,
        "velocity": 70
      },
      {
        "deltaTime": 250,
        "channel": 5,
        "type": "channel",
        "noteNumber": 35,
        "velocity": 100,
        "subtype": "noteOn"
      },
      {
        "deltaTime": 0,
        "channel": 5,
        "type": "channel",
        "noteNumber": 51,
        "velocity": 90,
        "subtype": "noteOn"
      },
      {
        "deltaTime": 0,
        "channel": 5,
        "type": "channel",
        "noteNumber": 70,
        "velocity": 80,
        "subtype": "noteOn"
      },
      {
        "deltaTime": 250,
        "channel": 5,
        "type": "channel",
        "subtype": "noteOff",
        "noteNumber": 70,
        "velocity": 80
      },
      {
        "deltaTime": 0,
        "channel": 5,
        "type": "channel",
        "subtype": "noteOff",
        "noteNumber": 51,
        "velocity": 90
      },
      {
        "deltaTime": 0,
        "channel": 5,
        "type": "channel",
        "subtype": "noteOff",
        "noteNumber": 35,
        "velocity": 100
      },
      {
        "deltaTime": 250,
        "channel": 5,
        "type": "channel",
        "noteNumber": 51,
        "velocity": 70,
        "subtype": "noteOn"
      },
      {
        "deltaTime": 0,
        "channel": 5,
        "type": "channel",
        "noteNumber": 69,
        "velocity": 50,
        "subtype": "noteOn"
      },
      {
        "deltaTime": 58,
        "channel": 5,
        "type": "channel",
        "noteNumber": 37,
        "velocity": 106,
        "subtype": "noteOn"
      },
      {
        "deltaTime": 166,
        "channel": 5,
        "type": "channel",
        "subtype": "noteOff",
        "noteNumber": 37,
        "velocity": 106
      },
      {
        "deltaTime": 26,
        "channel": 5,
        "type": "channel",
        "subtype": "noteOff",
        "noteNumber": 69,
        "velocity": 50
      },
      {
        "deltaTime": 0,
        "channel": 5,
        "type": "channel",
        "subtype": "noteOff",
        "noteNumber": 51,
        "velocity": 70
      },
      {
        "deltaTime": 250,
        "channel": 5,
        "type": "channel",
        "noteNumber": 51,
        "velocity": 90,
        "subtype": "noteOn"
      },
      {
        "deltaTime": 0,
        "channel": 5,
        "type": "channel",
        "noteNumber": 70,
        "velocity": 80,
        "subtype": "noteOn"
      },
      {
        "deltaTime": 250,
        "channel": 5,
        "type": "channel",
        "subtype": "noteOff",
        "noteNumber": 70,
        "velocity": 80
      },
      {
        "deltaTime": 0,
        "channel": 5,
        "type": "channel",
        "subtype": "noteOff",
        "noteNumber": 51,
        "velocity": 90
      },
      {
        "deltaTime": 250,
        "channel": 5,
        "type": "channel",
        "noteNumber": 35,
        "velocity": 70,
        "subtype": "noteOn"
      },
      {
        "deltaTime": 0,
        "channel": 5,
        "type": "channel",
        "noteNumber": 51,
        "velocity": 70,
        "subtype": "noteOn"
      },
      {
        "deltaTime": 0,
        "channel": 5,
        "type": "channel",
        "noteNumber": 69,
        "velocity": 50,
        "subtype": "noteOn"
      },
      {
        "deltaTime": 250,
        "channel": 5,
        "type": "channel",
        "subtype": "noteOff",
        "noteNumber": 69,
        "velocity": 50
      },
      {
        "deltaTime": 0,
        "channel": 5,
        "type": "channel",
        "subtype": "noteOff",
        "noteNumber": 51,
        "velocity": 70
      },
      {
        "deltaTime": 0,
        "channel": 5,
        "type": "channel",
        "subtype": "noteOff",
        "noteNumber": 35,
        "velocity": 70
      },
      {
        "deltaTime": 250,
        "channel": 5,
        "type": "channel",
        "noteNumber": 70,
        "velocity": 80,
        "subtype": "noteOn"
      },
      {
        "deltaTime": 0,
        "channel": 5,
        "type": "channel",
        "noteNumber": 51,
        "velocity": 90,
        "subtype": "noteOn"
      },
      {
        "deltaTime": 0,
        "channel": 5,
        "type": "channel",
        "noteNumber": 35,
        "velocity": 100,
        "subtype": "noteOn"
      },
      {
        "deltaTime": 16,
        "channel": 5,
        "type": "channel",
        "noteNumber": 37,
        "velocity": 108,
        "subtype": "noteOn"
      },
      {
        "deltaTime": 172,
        "channel": 5,
        "type": "channel",
        "subtype": "noteOff",
        "noteNumber": 37,
        "velocity": 108
      },
      {
        "deltaTime": 62,
        "channel": 5,
        "type": "channel",
        "subtype": "noteOff",
        "noteNumber": 35,
        "velocity": 100
      },
      {
        "deltaTime": 0,
        "channel": 5,
        "type": "channel",
        "subtype": "noteOff",
        "noteNumber": 51,
        "velocity": 90
      },
      {
        "deltaTime": 0,
        "channel": 5,
        "type": "channel",
        "subtype": "noteOff",
        "noteNumber": 70,
        "velocity": 80
      },
      {
        "deltaTime": 250,
        "channel": 5,
        "type": "channel",
        "noteNumber": 51,
        "velocity": 70,
        "subtype": "noteOn"
      },
      {
        "deltaTime": 0,
        "channel": 5,
        "type": "channel",
        "noteNumber": 63,
        "velocity": 40,
        "subtype": "noteOn"
      },
      {
        "deltaTime": 0,
        "channel": 5,
        "type": "channel",
        "noteNumber": 69,
        "velocity": 50,
        "subtype": "noteOn"
      },
      {
        "deltaTime": 250,
        "channel": 5,
        "type": "channel",
        "subtype": "noteOff",
        "noteNumber": 69,
        "velocity": 50
      },
      {
        "deltaTime": 0,
        "channel": 5,
        "type": "channel",
        "subtype": "noteOff",
        "noteNumber": 63,
        "velocity": 40
      },
      {
        "deltaTime": 0,
        "channel": 5,
        "type": "channel",
        "subtype": "noteOff",
        "noteNumber": 51,
        "velocity": 70
      },
      {
        "deltaTime": 250,
        "channel": 5,
        "type": "channel",
        "noteNumber": 70,
        "velocity": 80,
        "subtype": "noteOn"
      },
      {
        "deltaTime": 0,
        "channel": 5,
        "type": "channel",
        "noteNumber": 48,
        "velocity": 60,
        "subtype": "noteOn"
      },
      {
        "deltaTime": 0,
        "channel": 5,
        "type": "channel",
        "noteNumber": 51,
        "velocity": 90,
        "subtype": "noteOn"
      },
      {
        "deltaTime": 0,
        "channel": 5,
        "type": "channel",
        "noteNumber": 63,
        "velocity": 60,
        "subtype": "noteOn"
      },
      {
        "deltaTime": 48,
        "channel": 5,
        "type": "channel",
        "noteNumber": 37,
        "velocity": 108,
        "subtype": "noteOn"
      },
      {
        "deltaTime": 170,
        "channel": 5,
        "type": "channel",
        "subtype": "noteOff",
        "noteNumber": 37,
        "velocity": 108
      },
      {
        "deltaTime": 32,
        "channel": 5,
        "type": "channel",
        "subtype": "noteOff",
        "noteNumber": 63,
        "velocity": 60
      },
      {
        "deltaTime": 0,
        "channel": 5,
        "type": "channel",
        "subtype": "noteOff",
        "noteNumber": 51,
        "velocity": 90
      },
      {
        "deltaTime": 0,
        "channel": 5,
        "type": "channel",
        "subtype": "noteOff",
        "noteNumber": 48,
        "velocity": 60
      },
      {
        "deltaTime": 0,
        "channel": 5,
        "type": "channel",
        "subtype": "noteOff",
        "noteNumber": 70,
        "velocity": 80
      },
      {
        "deltaTime": 250,
        "channel": 5,
        "type": "channel",
        "noteNumber": 62,
        "velocity": 70,
        "subtype": "noteOn"
      },
      {
        "deltaTime": 0,
        "channel": 5,
        "type": "channel",
        "noteNumber": 56,
        "velocity": 40,
        "subtype": "noteOn"
      },
      {
        "deltaTime": 0,
        "channel": 5,
        "type": "channel",
        "noteNumber": 35,
        "velocity": 70,
        "subtype": "noteOn"
      },
      {
        "deltaTime": 0,
        "channel": 5,
        "type": "channel",
        "noteNumber": 51,
        "velocity": 70,
        "subtype": "noteOn"
      },
      {
        "deltaTime": 0,
        "channel": 5,
        "type": "channel",
        "noteNumber": 69,
        "velocity": 50,
        "subtype": "noteOn"
      },
      {
        "deltaTime": 250,
        "channel": 5,
        "type": "channel",
        "subtype": "noteOff",
        "noteNumber": 69,
        "velocity": 50
      },
      {
        "deltaTime": 0,
        "channel": 5,
        "type": "channel",
        "subtype": "noteOff",
        "noteNumber": 51,
        "velocity": 70
      },
      {
        "deltaTime": 0,
        "channel": 5,
        "type": "channel",
        "subtype": "noteOff",
        "noteNumber": 35,
        "velocity": 70
      },
      {
        "deltaTime": 0,
        "channel": 5,
        "type": "channel",
        "subtype": "noteOff",
        "noteNumber": 56,
        "velocity": 40
      },
      {
        "deltaTime": 0,
        "channel": 5,
        "type": "channel",
        "subtype": "noteOff",
        "noteNumber": 62,
        "velocity": 70
      },
      {
        "deltaTime": 250,
        "channel": 5,
        "type": "channel",
        "noteNumber": 35,
        "velocity": 100,
        "subtype": "noteOn"
      },
      {
        "deltaTime": 0,
        "channel": 5,
        "type": "channel",
        "noteNumber": 51,
        "velocity": 90,
        "subtype": "noteOn"
      },
      {
        "deltaTime": 0,
        "channel": 5,
        "type": "channel",
        "noteNumber": 70,
        "velocity": 80,
        "subtype": "noteOn"
      },
      {
        "deltaTime": 250,
        "channel": 5,
        "type": "channel",
        "subtype": "noteOff",
        "noteNumber": 70,
        "velocity": 80
      },
      {
        "deltaTime": 0,
        "channel": 5,
        "type": "channel",
        "subtype": "noteOff",
        "noteNumber": 51,
        "velocity": 90
      },
      {
        "deltaTime": 0,
        "channel": 5,
        "type": "channel",
        "subtype": "noteOff",
        "noteNumber": 35,
        "velocity": 100
      },
      {
        "deltaTime": 250,
        "channel": 5,
        "type": "channel",
        "noteNumber": 51,
        "velocity": 70,
        "subtype": "noteOn"
      },
      {
        "deltaTime": 0,
        "channel": 5,
        "type": "channel",
        "noteNumber": 69,
        "velocity": 50,
        "subtype": "noteOn"
      },
      {
        "deltaTime": 58,
        "channel": 5,
        "type": "channel",
        "noteNumber": 37,
        "velocity": 106,
        "subtype": "noteOn"
      },
      {
        "deltaTime": 166,
        "channel": 5,
        "type": "channel",
        "subtype": "noteOff",
        "noteNumber": 37,
        "velocity": 106
      },
      {
        "deltaTime": 26,
        "channel": 5,
        "type": "channel",
        "subtype": "noteOff",
        "noteNumber": 69,
        "velocity": 50
      },
      {
        "deltaTime": 0,
        "channel": 5,
        "type": "channel",
        "subtype": "noteOff",
        "noteNumber": 51,
        "velocity": 70
      },
      {
        "deltaTime": 250,
        "channel": 5,
        "type": "channel",
        "noteNumber": 51,
        "velocity": 90,
        "subtype": "noteOn"
      },
      {
        "deltaTime": 0,
        "channel": 5,
        "type": "channel",
        "noteNumber": 62,
        "velocity": 70,
        "subtype": "noteOn"
      },
      {
        "deltaTime": 0,
        "channel": 5,
        "type": "channel",
        "noteNumber": 70,
        "velocity": 80,
        "subtype": "noteOn"
      },
      {
        "deltaTime": 250,
        "channel": 5,
        "type": "channel",
        "subtype": "noteOff",
        "noteNumber": 70,
        "velocity": 80
      },
      {
        "deltaTime": 0,
        "channel": 5,
        "type": "channel",
        "subtype": "noteOff",
        "noteNumber": 62,
        "velocity": 70
      },
      {
        "deltaTime": 0,
        "channel": 5,
        "type": "channel",
        "subtype": "noteOff",
        "noteNumber": 51,
        "velocity": 90
      },
      {
        "deltaTime": 250,
        "channel": 5,
        "type": "channel",
        "noteNumber": 35,
        "velocity": 70,
        "subtype": "noteOn"
      },
      {
        "deltaTime": 0,
        "channel": 5,
        "type": "channel",
        "noteNumber": 51,
        "velocity": 70,
        "subtype": "noteOn"
      },
      {
        "deltaTime": 0,
        "channel": 5,
        "type": "channel",
        "noteNumber": 69,
        "velocity": 50,
        "subtype": "noteOn"
      },
      {
        "deltaTime": 250,
        "channel": 5,
        "type": "channel",
        "subtype": "noteOff",
        "noteNumber": 69,
        "velocity": 50
      },
      {
        "deltaTime": 0,
        "channel": 5,
        "type": "channel",
        "subtype": "noteOff",
        "noteNumber": 51,
        "velocity": 70
      },
      {
        "deltaTime": 0,
        "channel": 5,
        "type": "channel",
        "subtype": "noteOff",
        "noteNumber": 35,
        "velocity": 70
      },
      {
        "deltaTime": 250,
        "channel": 5,
        "type": "channel",
        "noteNumber": 70,
        "velocity": 80,
        "subtype": "noteOn"
      },
      {
        "deltaTime": 0,
        "channel": 5,
        "type": "channel",
        "noteNumber": 51,
        "velocity": 90,
        "subtype": "noteOn"
      },
      {
        "deltaTime": 0,
        "channel": 5,
        "type": "channel",
        "noteNumber": 35,
        "velocity": 100,
        "subtype": "noteOn"
      },
      {
        "deltaTime": 0,
        "channel": 5,
        "type": "channel",
        "noteNumber": 63,
        "velocity": 40,
        "subtype": "noteOn"
      },
      {
        "deltaTime": 16,
        "channel": 5,
        "type": "channel",
        "noteNumber": 37,
        "velocity": 108,
        "subtype": "noteOn"
      },
      {
        "deltaTime": 172,
        "channel": 5,
        "type": "channel",
        "subtype": "noteOff",
        "noteNumber": 37,
        "velocity": 108
      },
      {
        "deltaTime": 62,
        "channel": 5,
        "type": "channel",
        "subtype": "noteOff",
        "noteNumber": 63,
        "velocity": 40
      },
      {
        "deltaTime": 0,
        "channel": 5,
        "type": "channel",
        "subtype": "noteOff",
        "noteNumber": 35,
        "velocity": 100
      },
      {
        "deltaTime": 0,
        "channel": 5,
        "type": "channel",
        "subtype": "noteOff",
        "noteNumber": 51,
        "velocity": 90
      },
      {
        "deltaTime": 0,
        "channel": 5,
        "type": "channel",
        "subtype": "noteOff",
        "noteNumber": 70,
        "velocity": 80
      },
      {
        "deltaTime": 250,
        "channel": 5,
        "type": "channel",
        "noteNumber": 51,
        "velocity": 70,
        "subtype": "noteOn"
      },
      {
        "deltaTime": 0,
        "channel": 5,
        "type": "channel",
        "noteNumber": 63,
        "velocity": 40,
        "subtype": "noteOn"
      },
      {
        "deltaTime": 0,
        "channel": 5,
        "type": "channel",
        "noteNumber": 69,
        "velocity": 50,
        "subtype": "noteOn"
      },
      {
        "deltaTime": 250,
        "channel": 5,
        "type": "channel",
        "subtype": "noteOff",
        "noteNumber": 69,
        "velocity": 50
      },
      {
        "deltaTime": 0,
        "channel": 5,
        "type": "channel",
        "subtype": "noteOff",
        "noteNumber": 63,
        "velocity": 40
      },
      {
        "deltaTime": 0,
        "channel": 5,
        "type": "channel",
        "subtype": "noteOff",
        "noteNumber": 51,
        "velocity": 70
      },
      {
        "deltaTime": 250,
        "channel": 5,
        "type": "channel",
        "noteNumber": 51,
        "velocity": 90,
        "subtype": "noteOn"
      },
      {
        "deltaTime": 0,
        "channel": 5,
        "type": "channel",
        "noteNumber": 70,
        "velocity": 80,
        "subtype": "noteOn"
      },
      {
        "deltaTime": 48,
        "channel": 5,
        "type": "channel",
        "noteNumber": 37,
        "velocity": 108,
        "subtype": "noteOn"
      },
      {
        "deltaTime": 170,
        "channel": 5,
        "type": "channel",
        "subtype": "noteOff",
        "noteNumber": 37,
        "velocity": 108
      },
      {
        "deltaTime": 32,
        "channel": 5,
        "type": "channel",
        "subtype": "noteOff",
        "noteNumber": 70,
        "velocity": 80
      },
      {
        "deltaTime": 0,
        "channel": 5,
        "type": "channel",
        "subtype": "noteOff",
        "noteNumber": 51,
        "velocity": 90
      },
      {
        "deltaTime": 250,
        "channel": 5,
        "type": "channel",
        "noteNumber": 51,
        "velocity": 70,
        "subtype": "noteOn"
      },
      {
        "deltaTime": 0,
        "channel": 5,
        "type": "channel",
        "noteNumber": 56,
        "velocity": 40,
        "subtype": "noteOn"
      },
      {
        "deltaTime": 0,
        "channel": 5,
        "type": "channel",
        "noteNumber": 35,
        "velocity": 70,
        "subtype": "noteOn"
      },
      {
        "deltaTime": 0,
        "channel": 5,
        "type": "channel",
        "noteNumber": 69,
        "velocity": 50,
        "subtype": "noteOn"
      },
      {
        "deltaTime": 250,
        "channel": 5,
        "type": "channel",
        "subtype": "noteOff",
        "noteNumber": 69,
        "velocity": 50
      },
      {
        "deltaTime": 0,
        "channel": 5,
        "type": "channel",
        "subtype": "noteOff",
        "noteNumber": 35,
        "velocity": 70
      },
      {
        "deltaTime": 0,
        "channel": 5,
        "type": "channel",
        "subtype": "noteOff",
        "noteNumber": 56,
        "velocity": 40
      },
      {
        "deltaTime": 0,
        "channel": 5,
        "type": "channel",
        "subtype": "noteOff",
        "noteNumber": 51,
        "velocity": 70
      },
      {
        "deltaTime": 250,
        "channel": 5,
        "type": "channel",
        "noteNumber": 35,
        "velocity": 100,
        "subtype": "noteOn"
      },
      {
        "deltaTime": 0,
        "channel": 5,
        "type": "channel",
        "noteNumber": 51,
        "velocity": 90,
        "subtype": "noteOn"
      },
      {
        "deltaTime": 0,
        "channel": 5,
        "type": "channel",
        "noteNumber": 70,
        "velocity": 80,
        "subtype": "noteOn"
      },
      {
        "deltaTime": 250,
        "channel": 5,
        "type": "channel",
        "subtype": "noteOff",
        "noteNumber": 70,
        "velocity": 80
      },
      {
        "deltaTime": 0,
        "channel": 5,
        "type": "channel",
        "subtype": "noteOff",
        "noteNumber": 51,
        "velocity": 90
      },
      {
        "deltaTime": 0,
        "channel": 5,
        "type": "channel",
        "subtype": "noteOff",
        "noteNumber": 35,
        "velocity": 100
      },
      {
        "deltaTime": 250,
        "channel": 5,
        "type": "channel",
        "noteNumber": 51,
        "velocity": 70,
        "subtype": "noteOn"
      },
      {
        "deltaTime": 0,
        "channel": 5,
        "type": "channel",
        "noteNumber": 69,
        "velocity": 50,
        "subtype": "noteOn"
      },
      {
        "deltaTime": 58,
        "channel": 5,
        "type": "channel",
        "noteNumber": 37,
        "velocity": 106,
        "subtype": "noteOn"
      },
      {
        "deltaTime": 166,
        "channel": 5,
        "type": "channel",
        "subtype": "noteOff",
        "noteNumber": 37,
        "velocity": 106
      },
      {
        "deltaTime": 26,
        "channel": 5,
        "type": "channel",
        "subtype": "noteOff",
        "noteNumber": 69,
        "velocity": 50
      },
      {
        "deltaTime": 0,
        "channel": 5,
        "type": "channel",
        "subtype": "noteOff",
        "noteNumber": 51,
        "velocity": 70
      },
      {
        "deltaTime": 250,
        "channel": 5,
        "type": "channel",
        "noteNumber": 45,
        "velocity": 70,
        "subtype": "noteOn"
      },
      {
        "deltaTime": 0,
        "channel": 5,
        "type": "channel",
        "noteNumber": 51,
        "velocity": 90,
        "subtype": "noteOn"
      },
      {
        "deltaTime": 0,
        "channel": 5,
        "type": "channel",
        "noteNumber": 56,
        "velocity": 40,
        "subtype": "noteOn"
      },
      {
        "deltaTime": 0,
        "channel": 5,
        "type": "channel",
        "noteNumber": 70,
        "velocity": 80,
        "subtype": "noteOn"
      },
      {
        "deltaTime": 250,
        "channel": 5,
        "type": "channel",
        "subtype": "noteOff",
        "noteNumber": 70,
        "velocity": 80
      },
      {
        "deltaTime": 0,
        "channel": 5,
        "type": "channel",
        "subtype": "noteOff",
        "noteNumber": 56,
        "velocity": 40
      },
      {
        "deltaTime": 0,
        "channel": 5,
        "type": "channel",
        "subtype": "noteOff",
        "noteNumber": 51,
        "velocity": 90
      },
      {
        "deltaTime": 0,
        "channel": 5,
        "type": "channel",
        "subtype": "noteOff",
        "noteNumber": 45,
        "velocity": 70
      },
      {
        "deltaTime": 250,
        "channel": 5,
        "type": "channel",
        "noteNumber": 35,
        "velocity": 70,
        "subtype": "noteOn"
      },
      {
        "deltaTime": 0,
        "channel": 5,
        "type": "channel",
        "noteNumber": 51,
        "velocity": 70,
        "subtype": "noteOn"
      },
      {
        "deltaTime": 0,
        "channel": 5,
        "type": "channel",
        "noteNumber": 69,
        "velocity": 50,
        "subtype": "noteOn"
      },
      {
        "deltaTime": 250,
        "channel": 5,
        "type": "channel",
        "subtype": "noteOff",
        "noteNumber": 69,
        "velocity": 50
      },
      {
        "deltaTime": 0,
        "channel": 5,
        "type": "channel",
        "subtype": "noteOff",
        "noteNumber": 51,
        "velocity": 70
      },
      {
        "deltaTime": 0,
        "channel": 5,
        "type": "channel",
        "subtype": "noteOff",
        "noteNumber": 35,
        "velocity": 70
      },
      {
        "deltaTime": 250,
        "channel": 5,
        "type": "channel",
        "noteNumber": 70,
        "velocity": 80,
        "subtype": "noteOn"
      },
      {
        "deltaTime": 0,
        "channel": 5,
        "type": "channel",
        "noteNumber": 51,
        "velocity": 90,
        "subtype": "noteOn"
      },
      {
        "deltaTime": 0,
        "channel": 5,
        "type": "channel",
        "noteNumber": 35,
        "velocity": 100,
        "subtype": "noteOn"
      },
      {
        "deltaTime": 16,
        "channel": 5,
        "type": "channel",
        "noteNumber": 37,
        "velocity": 108,
        "subtype": "noteOn"
      },
      {
        "deltaTime": 172,
        "channel": 5,
        "type": "channel",
        "subtype": "noteOff",
        "noteNumber": 37,
        "velocity": 108
      },
      {
        "deltaTime": 62,
        "channel": 5,
        "type": "channel",
        "subtype": "noteOff",
        "noteNumber": 35,
        "velocity": 100
      },
      {
        "deltaTime": 0,
        "channel": 5,
        "type": "channel",
        "subtype": "noteOff",
        "noteNumber": 51,
        "velocity": 90
      },
      {
        "deltaTime": 0,
        "channel": 5,
        "type": "channel",
        "subtype": "noteOff",
        "noteNumber": 70,
        "velocity": 80
      },
      {
        "deltaTime": 250,
        "channel": 5,
        "type": "channel",
        "noteNumber": 51,
        "velocity": 70,
        "subtype": "noteOn"
      },
      {
        "deltaTime": 0,
        "channel": 5,
        "type": "channel",
        "noteNumber": 63,
        "velocity": 40,
        "subtype": "noteOn"
      },
      {
        "deltaTime": 0,
        "channel": 5,
        "type": "channel",
        "noteNumber": 69,
        "velocity": 50,
        "subtype": "noteOn"
      },
      {
        "deltaTime": 250,
        "channel": 5,
        "type": "channel",
        "subtype": "noteOff",
        "noteNumber": 69,
        "velocity": 50
      },
      {
        "deltaTime": 0,
        "channel": 5,
        "type": "channel",
        "subtype": "noteOff",
        "noteNumber": 63,
        "velocity": 40
      },
      {
        "deltaTime": 0,
        "channel": 5,
        "type": "channel",
        "subtype": "noteOff",
        "noteNumber": 51,
        "velocity": 70
      },
      {
        "deltaTime": 250,
        "channel": 5,
        "type": "channel",
        "noteNumber": 70,
        "velocity": 80,
        "subtype": "noteOn"
      },
      {
        "deltaTime": 0,
        "channel": 5,
        "type": "channel",
        "noteNumber": 48,
        "velocity": 60,
        "subtype": "noteOn"
      },
      {
        "deltaTime": 0,
        "channel": 5,
        "type": "channel",
        "noteNumber": 51,
        "velocity": 90,
        "subtype": "noteOn"
      },
      {
        "deltaTime": 0,
        "channel": 5,
        "type": "channel",
        "noteNumber": 63,
        "velocity": 60,
        "subtype": "noteOn"
      },
      {
        "deltaTime": 48,
        "channel": 5,
        "type": "channel",
        "noteNumber": 37,
        "velocity": 108,
        "subtype": "noteOn"
      },
      {
        "deltaTime": 170,
        "channel": 5,
        "type": "channel",
        "subtype": "noteOff",
        "noteNumber": 37,
        "velocity": 108
      },
      {
        "deltaTime": 32,
        "channel": 5,
        "type": "channel",
        "subtype": "noteOff",
        "noteNumber": 63,
        "velocity": 60
      },
      {
        "deltaTime": 0,
        "channel": 5,
        "type": "channel",
        "subtype": "noteOff",
        "noteNumber": 51,
        "velocity": 90
      },
      {
        "deltaTime": 0,
        "channel": 5,
        "type": "channel",
        "subtype": "noteOff",
        "noteNumber": 48,
        "velocity": 60
      },
      {
        "deltaTime": 0,
        "channel": 5,
        "type": "channel",
        "subtype": "noteOff",
        "noteNumber": 70,
        "velocity": 80
      },
      {
        "deltaTime": 250,
        "channel": 5,
        "type": "channel",
        "noteNumber": 62,
        "velocity": 70,
        "subtype": "noteOn"
      },
      {
        "deltaTime": 0,
        "channel": 5,
        "type": "channel",
        "noteNumber": 51,
        "velocity": 70,
        "subtype": "noteOn"
      },
      {
        "deltaTime": 0,
        "channel": 5,
        "type": "channel",
        "noteNumber": 35,
        "velocity": 70,
        "subtype": "noteOn"
      },
      {
        "deltaTime": 0,
        "channel": 5,
        "type": "channel",
        "noteNumber": 69,
        "velocity": 50,
        "subtype": "noteOn"
      },
      {
        "deltaTime": 250,
        "channel": 5,
        "type": "channel",
        "subtype": "noteOff",
        "noteNumber": 69,
        "velocity": 50
      },
      {
        "deltaTime": 0,
        "channel": 5,
        "type": "channel",
        "subtype": "noteOff",
        "noteNumber": 35,
        "velocity": 70
      },
      {
        "deltaTime": 0,
        "channel": 5,
        "type": "channel",
        "subtype": "noteOff",
        "noteNumber": 51,
        "velocity": 70
      },
      {
        "deltaTime": 0,
        "channel": 5,
        "type": "channel",
        "subtype": "noteOff",
        "noteNumber": 62,
        "velocity": 70
      },
      {
        "deltaTime": 250,
        "channel": 5,
        "type": "channel",
        "noteNumber": 35,
        "velocity": 100,
        "subtype": "noteOn"
      },
      {
        "deltaTime": 0,
        "channel": 5,
        "type": "channel",
        "noteNumber": 51,
        "velocity": 90,
        "subtype": "noteOn"
      },
      {
        "deltaTime": 0,
        "channel": 5,
        "type": "channel",
        "noteNumber": 70,
        "velocity": 80,
        "subtype": "noteOn"
      },
      {
        "deltaTime": 250,
        "channel": 5,
        "type": "channel",
        "subtype": "noteOff",
        "noteNumber": 70,
        "velocity": 80
      },
      {
        "deltaTime": 0,
        "channel": 5,
        "type": "channel",
        "subtype": "noteOff",
        "noteNumber": 51,
        "velocity": 90
      },
      {
        "deltaTime": 0,
        "channel": 5,
        "type": "channel",
        "subtype": "noteOff",
        "noteNumber": 35,
        "velocity": 100
      },
      {
        "deltaTime": 250,
        "channel": 5,
        "type": "channel",
        "noteNumber": 51,
        "velocity": 70,
        "subtype": "noteOn"
      },
      {
        "deltaTime": 0,
        "channel": 5,
        "type": "channel",
        "noteNumber": 69,
        "velocity": 50,
        "subtype": "noteOn"
      },
      {
        "deltaTime": 58,
        "channel": 5,
        "type": "channel",
        "noteNumber": 37,
        "velocity": 106,
        "subtype": "noteOn"
      },
      {
        "deltaTime": 166,
        "channel": 5,
        "type": "channel",
        "subtype": "noteOff",
        "noteNumber": 37,
        "velocity": 106
      },
      {
        "deltaTime": 26,
        "channel": 5,
        "type": "channel",
        "subtype": "noteOff",
        "noteNumber": 69,
        "velocity": 50
      },
      {
        "deltaTime": 0,
        "channel": 5,
        "type": "channel",
        "subtype": "noteOff",
        "noteNumber": 51,
        "velocity": 70
      },
      {
        "deltaTime": 250,
        "channel": 5,
        "type": "channel",
        "noteNumber": 62,
        "velocity": 70,
        "subtype": "noteOn"
      },
      {
        "deltaTime": 0,
        "channel": 5,
        "type": "channel",
        "noteNumber": 45,
        "velocity": 70,
        "subtype": "noteOn"
      },
      {
        "deltaTime": 0,
        "channel": 5,
        "type": "channel",
        "noteNumber": 51,
        "velocity": 90,
        "subtype": "noteOn"
      },
      {
        "deltaTime": 0,
        "channel": 5,
        "type": "channel",
        "noteNumber": 70,
        "velocity": 80,
        "subtype": "noteOn"
      },
      {
        "deltaTime": 250,
        "channel": 5,
        "type": "channel",
        "subtype": "noteOff",
        "noteNumber": 70,
        "velocity": 80
      },
      {
        "deltaTime": 0,
        "channel": 5,
        "type": "channel",
        "subtype": "noteOff",
        "noteNumber": 51,
        "velocity": 90
      },
      {
        "deltaTime": 0,
        "channel": 5,
        "type": "channel",
        "subtype": "noteOff",
        "noteNumber": 45,
        "velocity": 70
      },
      {
        "deltaTime": 0,
        "channel": 5,
        "type": "channel",
        "subtype": "noteOff",
        "noteNumber": 62,
        "velocity": 70
      },
      {
        "deltaTime": 250,
        "channel": 5,
        "type": "channel",
        "noteNumber": 35,
        "velocity": 70,
        "subtype": "noteOn"
      },
      {
        "deltaTime": 0,
        "channel": 5,
        "type": "channel",
        "noteNumber": 51,
        "velocity": 70,
        "subtype": "noteOn"
      },
      {
        "deltaTime": 0,
        "channel": 5,
        "type": "channel",
        "noteNumber": 69,
        "velocity": 50,
        "subtype": "noteOn"
      },
      {
        "deltaTime": 250,
        "channel": 5,
        "type": "channel",
        "subtype": "noteOff",
        "noteNumber": 69,
        "velocity": 50
      },
      {
        "deltaTime": 0,
        "channel": 5,
        "type": "channel",
        "subtype": "noteOff",
        "noteNumber": 51,
        "velocity": 70
      },
      {
        "deltaTime": 0,
        "channel": 5,
        "type": "channel",
        "subtype": "noteOff",
        "noteNumber": 35,
        "velocity": 70
      },
      {
        "deltaTime": 250,
        "channel": 5,
        "type": "channel",
        "noteNumber": 70,
        "velocity": 80,
        "subtype": "noteOn"
      },
      {
        "deltaTime": 0,
        "channel": 5,
        "type": "channel",
        "noteNumber": 51,
        "velocity": 90,
        "subtype": "noteOn"
      },
      {
        "deltaTime": 0,
        "channel": 5,
        "type": "channel",
        "noteNumber": 35,
        "velocity": 100,
        "subtype": "noteOn"
      },
      {
        "deltaTime": 0,
        "channel": 5,
        "type": "channel",
        "noteNumber": 63,
        "velocity": 40,
        "subtype": "noteOn"
      },
      {
        "deltaTime": 16,
        "channel": 5,
        "type": "channel",
        "noteNumber": 37,
        "velocity": 108,
        "subtype": "noteOn"
      },
      {
        "deltaTime": 172,
        "channel": 5,
        "type": "channel",
        "subtype": "noteOff",
        "noteNumber": 37,
        "velocity": 108
      },
      {
        "deltaTime": 62,
        "channel": 5,
        "type": "channel",
        "subtype": "noteOff",
        "noteNumber": 63,
        "velocity": 40
      },
      {
        "deltaTime": 0,
        "channel": 5,
        "type": "channel",
        "subtype": "noteOff",
        "noteNumber": 35,
        "velocity": 100
      },
      {
        "deltaTime": 0,
        "channel": 5,
        "type": "channel",
        "subtype": "noteOff",
        "noteNumber": 51,
        "velocity": 90
      },
      {
        "deltaTime": 0,
        "channel": 5,
        "type": "channel",
        "subtype": "noteOff",
        "noteNumber": 70,
        "velocity": 80
      },
      {
        "deltaTime": 250,
        "channel": 5,
        "type": "channel",
        "noteNumber": 51,
        "velocity": 70,
        "subtype": "noteOn"
      },
      {
        "deltaTime": 0,
        "channel": 5,
        "type": "channel",
        "noteNumber": 63,
        "velocity": 40,
        "subtype": "noteOn"
      },
      {
        "deltaTime": 0,
        "channel": 5,
        "type": "channel",
        "noteNumber": 69,
        "velocity": 50,
        "subtype": "noteOn"
      },
      {
        "deltaTime": 250,
        "channel": 5,
        "type": "channel",
        "subtype": "noteOff",
        "noteNumber": 69,
        "velocity": 50
      },
      {
        "deltaTime": 0,
        "channel": 5,
        "type": "channel",
        "subtype": "noteOff",
        "noteNumber": 63,
        "velocity": 40
      },
      {
        "deltaTime": 0,
        "channel": 5,
        "type": "channel",
        "subtype": "noteOff",
        "noteNumber": 51,
        "velocity": 70
      },
      {
        "deltaTime": 250,
        "channel": 5,
        "type": "channel",
        "noteNumber": 51,
        "velocity": 90,
        "subtype": "noteOn"
      },
      {
        "deltaTime": 0,
        "channel": 5,
        "type": "channel",
        "noteNumber": 70,
        "velocity": 80,
        "subtype": "noteOn"
      },
      {
        "deltaTime": 48,
        "channel": 5,
        "type": "channel",
        "noteNumber": 37,
        "velocity": 108,
        "subtype": "noteOn"
      },
      {
        "deltaTime": 170,
        "channel": 5,
        "type": "channel",
        "subtype": "noteOff",
        "noteNumber": 37,
        "velocity": 108
      },
      {
        "deltaTime": 32,
        "channel": 5,
        "type": "channel",
        "subtype": "noteOff",
        "noteNumber": 70,
        "velocity": 80
      },
      {
        "deltaTime": 0,
        "channel": 5,
        "type": "channel",
        "subtype": "noteOff",
        "noteNumber": 51,
        "velocity": 90
      },
      {
        "deltaTime": 250,
        "channel": 5,
        "type": "channel",
        "noteNumber": 51,
        "velocity": 70,
        "subtype": "noteOn"
      },
      {
        "deltaTime": 0,
        "channel": 5,
        "type": "channel",
        "noteNumber": 56,
        "velocity": 40,
        "subtype": "noteOn"
      },
      {
        "deltaTime": 0,
        "channel": 5,
        "type": "channel",
        "noteNumber": 35,
        "velocity": 70,
        "subtype": "noteOn"
      },
      {
        "deltaTime": 0,
        "channel": 5,
        "type": "channel",
        "noteNumber": 69,
        "velocity": 50,
        "subtype": "noteOn"
      },
      {
        "deltaTime": 250,
        "channel": 5,
        "type": "channel",
        "subtype": "noteOff",
        "noteNumber": 69,
        "velocity": 50
      },
      {
        "deltaTime": 0,
        "channel": 5,
        "type": "channel",
        "subtype": "noteOff",
        "noteNumber": 35,
        "velocity": 70
      },
      {
        "deltaTime": 0,
        "channel": 5,
        "type": "channel",
        "subtype": "noteOff",
        "noteNumber": 56,
        "velocity": 40
      },
      {
        "deltaTime": 0,
        "channel": 5,
        "type": "channel",
        "subtype": "noteOff",
        "noteNumber": 51,
        "velocity": 70
      },
      {
        "deltaTime": 250,
        "channel": 5,
        "type": "channel",
        "noteNumber": 35,
        "velocity": 100,
        "subtype": "noteOn"
      },
      {
        "deltaTime": 0,
        "channel": 5,
        "type": "channel",
        "noteNumber": 51,
        "velocity": 90,
        "subtype": "noteOn"
      },
      {
        "deltaTime": 0,
        "channel": 5,
        "type": "channel",
        "noteNumber": 70,
        "velocity": 80,
        "subtype": "noteOn"
      },
      {
        "deltaTime": 250,
        "channel": 5,
        "type": "channel",
        "subtype": "noteOff",
        "noteNumber": 70,
        "velocity": 80
      },
      {
        "deltaTime": 0,
        "channel": 5,
        "type": "channel",
        "subtype": "noteOff",
        "noteNumber": 51,
        "velocity": 90
      },
      {
        "deltaTime": 0,
        "channel": 5,
        "type": "channel",
        "subtype": "noteOff",
        "noteNumber": 35,
        "velocity": 100
      },
      {
        "deltaTime": 250,
        "channel": 5,
        "type": "channel",
        "noteNumber": 51,
        "velocity": 70,
        "subtype": "noteOn"
      },
      {
        "deltaTime": 0,
        "channel": 5,
        "type": "channel",
        "noteNumber": 69,
        "velocity": 50,
        "subtype": "noteOn"
      },
      {
        "deltaTime": 58,
        "channel": 5,
        "type": "channel",
        "noteNumber": 37,
        "velocity": 106,
        "subtype": "noteOn"
      },
      {
        "deltaTime": 166,
        "channel": 5,
        "type": "channel",
        "subtype": "noteOff",
        "noteNumber": 37,
        "velocity": 106
      },
      {
        "deltaTime": 26,
        "channel": 5,
        "type": "channel",
        "subtype": "noteOff",
        "noteNumber": 69,
        "velocity": 50
      },
      {
        "deltaTime": 0,
        "channel": 5,
        "type": "channel",
        "subtype": "noteOff",
        "noteNumber": 51,
        "velocity": 70
      },
      {
        "deltaTime": 250,
        "channel": 5,
        "type": "channel",
        "noteNumber": 51,
        "velocity": 90,
        "subtype": "noteOn"
      },
      {
        "deltaTime": 0,
        "channel": 5,
        "type": "channel",
        "noteNumber": 70,
        "velocity": 80,
        "subtype": "noteOn"
      },
      {
        "deltaTime": 250,
        "channel": 5,
        "type": "channel",
        "subtype": "noteOff",
        "noteNumber": 70,
        "velocity": 80
      },
      {
        "deltaTime": 0,
        "channel": 5,
        "type": "channel",
        "subtype": "noteOff",
        "noteNumber": 51,
        "velocity": 90
      },
      {
        "deltaTime": 250,
        "channel": 5,
        "type": "channel",
        "noteNumber": 35,
        "velocity": 70,
        "subtype": "noteOn"
      },
      {
        "deltaTime": 0,
        "channel": 5,
        "type": "channel",
        "noteNumber": 51,
        "velocity": 70,
        "subtype": "noteOn"
      },
      {
        "deltaTime": 0,
        "channel": 5,
        "type": "channel",
        "noteNumber": 69,
        "velocity": 50,
        "subtype": "noteOn"
      },
      {
        "deltaTime": 250,
        "channel": 5,
        "type": "channel",
        "subtype": "noteOff",
        "noteNumber": 69,
        "velocity": 50
      },
      {
        "deltaTime": 0,
        "channel": 5,
        "type": "channel",
        "subtype": "noteOff",
        "noteNumber": 51,
        "velocity": 70
      },
      {
        "deltaTime": 0,
        "channel": 5,
        "type": "channel",
        "subtype": "noteOff",
        "noteNumber": 35,
        "velocity": 70
      },
      {
        "deltaTime": 250,
        "channel": 5,
        "type": "channel",
        "noteNumber": 70,
        "velocity": 80,
        "subtype": "noteOn"
      },
      {
        "deltaTime": 0,
        "channel": 5,
        "type": "channel",
        "noteNumber": 56,
        "velocity": 40,
        "subtype": "noteOn"
      },
      {
        "deltaTime": 0,
        "channel": 5,
        "type": "channel",
        "noteNumber": 35,
        "velocity": 100,
        "subtype": "noteOn"
      },
      {
        "deltaTime": 0,
        "channel": 5,
        "type": "channel",
        "noteNumber": 51,
        "velocity": 90,
        "subtype": "noteOn"
      },
      {
        "deltaTime": 16,
        "channel": 5,
        "type": "channel",
        "noteNumber": 37,
        "velocity": 108,
        "subtype": "noteOn"
      },
      {
        "deltaTime": 172,
        "channel": 5,
        "type": "channel",
        "subtype": "noteOff",
        "noteNumber": 37,
        "velocity": 108
      },
      {
        "deltaTime": 62,
        "channel": 5,
        "type": "channel",
        "subtype": "noteOff",
        "noteNumber": 51,
        "velocity": 90
      },
      {
        "deltaTime": 0,
        "channel": 5,
        "type": "channel",
        "subtype": "noteOff",
        "noteNumber": 35,
        "velocity": 100
      },
      {
        "deltaTime": 0,
        "channel": 5,
        "type": "channel",
        "subtype": "noteOff",
        "noteNumber": 56,
        "velocity": 40
      },
      {
        "deltaTime": 0,
        "channel": 5,
        "type": "channel",
        "subtype": "noteOff",
        "noteNumber": 70,
        "velocity": 80
      },
      {
        "deltaTime": 250,
        "channel": 5,
        "type": "channel",
        "noteNumber": 51,
        "velocity": 70,
        "subtype": "noteOn"
      },
      {
        "deltaTime": 0,
        "channel": 5,
        "type": "channel",
        "noteNumber": 63,
        "velocity": 40,
        "subtype": "noteOn"
      },
      {
        "deltaTime": 0,
        "channel": 5,
        "type": "channel",
        "noteNumber": 69,
        "velocity": 50,
        "subtype": "noteOn"
      },
      {
        "deltaTime": 250,
        "channel": 5,
        "type": "channel",
        "subtype": "noteOff",
        "noteNumber": 69,
        "velocity": 50
      },
      {
        "deltaTime": 0,
        "channel": 5,
        "type": "channel",
        "subtype": "noteOff",
        "noteNumber": 63,
        "velocity": 40
      },
      {
        "deltaTime": 0,
        "channel": 5,
        "type": "channel",
        "subtype": "noteOff",
        "noteNumber": 51,
        "velocity": 70
      },
      {
        "deltaTime": 250,
        "channel": 5,
        "type": "channel",
        "noteNumber": 70,
        "velocity": 80,
        "subtype": "noteOn"
      },
      {
        "deltaTime": 0,
        "channel": 5,
        "type": "channel",
        "noteNumber": 63,
        "velocity": 60,
        "subtype": "noteOn"
      },
      {
        "deltaTime": 0,
        "channel": 5,
        "type": "channel",
        "noteNumber": 51,
        "velocity": 90,
        "subtype": "noteOn"
      },
      {
        "deltaTime": 48,
        "channel": 5,
        "type": "channel",
        "noteNumber": 37,
        "velocity": 108,
        "subtype": "noteOn"
      },
      {
        "deltaTime": 170,
        "channel": 5,
        "type": "channel",
        "subtype": "noteOff",
        "noteNumber": 37,
        "velocity": 108
      },
      {
        "deltaTime": 32,
        "channel": 5,
        "type": "channel",
        "subtype": "noteOff",
        "noteNumber": 51,
        "velocity": 90
      },
      {
        "deltaTime": 0,
        "channel": 5,
        "type": "channel",
        "subtype": "noteOff",
        "noteNumber": 63,
        "velocity": 60
      },
      {
        "deltaTime": 0,
        "channel": 5,
        "type": "channel",
        "subtype": "noteOff",
        "noteNumber": 70,
        "velocity": 80
      },
      {
        "deltaTime": 250,
        "channel": 5,
        "type": "channel",
        "noteNumber": 62,
        "velocity": 70,
        "subtype": "noteOn"
      },
      {
        "deltaTime": 0,
        "channel": 5,
        "type": "channel",
        "noteNumber": 51,
        "velocity": 70,
        "subtype": "noteOn"
      },
      {
        "deltaTime": 0,
        "channel": 5,
        "type": "channel",
        "noteNumber": 35,
        "velocity": 70,
        "subtype": "noteOn"
      },
      {
        "deltaTime": 0,
        "channel": 5,
        "type": "channel",
        "noteNumber": 69,
        "velocity": 50,
        "subtype": "noteOn"
      },
      {
        "deltaTime": 250,
        "channel": 5,
        "type": "channel",
        "subtype": "noteOff",
        "noteNumber": 69,
        "velocity": 50
      },
      {
        "deltaTime": 0,
        "channel": 5,
        "type": "channel",
        "subtype": "noteOff",
        "noteNumber": 35,
        "velocity": 70
      },
      {
        "deltaTime": 0,
        "channel": 5,
        "type": "channel",
        "subtype": "noteOff",
        "noteNumber": 51,
        "velocity": 70
      },
      {
        "deltaTime": 0,
        "channel": 5,
        "type": "channel",
        "subtype": "noteOff",
        "noteNumber": 62,
        "velocity": 70
      },
      {
        "deltaTime": 250,
        "channel": 5,
        "type": "channel",
        "noteNumber": 35,
        "velocity": 100,
        "subtype": "noteOn"
      },
      {
        "deltaTime": 0,
        "channel": 5,
        "type": "channel",
        "noteNumber": 51,
        "velocity": 90,
        "subtype": "noteOn"
      },
      {
        "deltaTime": 0,
        "channel": 5,
        "type": "channel",
        "noteNumber": 70,
        "velocity": 80,
        "subtype": "noteOn"
      },
      {
        "deltaTime": 250,
        "channel": 5,
        "type": "channel",
        "subtype": "noteOff",
        "noteNumber": 70,
        "velocity": 80
      },
      {
        "deltaTime": 0,
        "channel": 5,
        "type": "channel",
        "subtype": "noteOff",
        "noteNumber": 51,
        "velocity": 90
      },
      {
        "deltaTime": 0,
        "channel": 5,
        "type": "channel",
        "subtype": "noteOff",
        "noteNumber": 35,
        "velocity": 100
      },
      {
        "deltaTime": 250,
        "channel": 5,
        "type": "channel",
        "noteNumber": 51,
        "velocity": 70,
        "subtype": "noteOn"
      },
      {
        "deltaTime": 0,
        "channel": 5,
        "type": "channel",
        "noteNumber": 69,
        "velocity": 50,
        "subtype": "noteOn"
      },
      {
        "deltaTime": 58,
        "channel": 5,
        "type": "channel",
        "noteNumber": 37,
        "velocity": 106,
        "subtype": "noteOn"
      },
      {
        "deltaTime": 166,
        "channel": 5,
        "type": "channel",
        "subtype": "noteOff",
        "noteNumber": 37,
        "velocity": 106
      },
      {
        "deltaTime": 26,
        "channel": 5,
        "type": "channel",
        "subtype": "noteOff",
        "noteNumber": 69,
        "velocity": 50
      },
      {
        "deltaTime": 0,
        "channel": 5,
        "type": "channel",
        "subtype": "noteOff",
        "noteNumber": 51,
        "velocity": 70
      },
      {
        "deltaTime": 250,
        "channel": 5,
        "type": "channel",
        "noteNumber": 62,
        "velocity": 70,
        "subtype": "noteOn"
      },
      {
        "deltaTime": 0,
        "channel": 5,
        "type": "channel",
        "noteNumber": 51,
        "velocity": 90,
        "subtype": "noteOn"
      },
      {
        "deltaTime": 0,
        "channel": 5,
        "type": "channel",
        "noteNumber": 56,
        "velocity": 40,
        "subtype": "noteOn"
      },
      {
        "deltaTime": 0,
        "channel": 5,
        "type": "channel",
        "noteNumber": 70,
        "velocity": 80,
        "subtype": "noteOn"
      },
      {
        "deltaTime": 250,
        "channel": 5,
        "type": "channel",
        "subtype": "noteOff",
        "noteNumber": 70,
        "velocity": 80
      },
      {
        "deltaTime": 0,
        "channel": 5,
        "type": "channel",
        "subtype": "noteOff",
        "noteNumber": 56,
        "velocity": 40
      },
      {
        "deltaTime": 0,
        "channel": 5,
        "type": "channel",
        "subtype": "noteOff",
        "noteNumber": 51,
        "velocity": 90
      },
      {
        "deltaTime": 0,
        "channel": 5,
        "type": "channel",
        "subtype": "noteOff",
        "noteNumber": 62,
        "velocity": 70
      },
      {
        "deltaTime": 250,
        "channel": 5,
        "type": "channel",
        "noteNumber": 35,
        "velocity": 70,
        "subtype": "noteOn"
      },
      {
        "deltaTime": 0,
        "channel": 5,
        "type": "channel",
        "noteNumber": 51,
        "velocity": 70,
        "subtype": "noteOn"
      },
      {
        "deltaTime": 0,
        "channel": 5,
        "type": "channel",
        "noteNumber": 69,
        "velocity": 50,
        "subtype": "noteOn"
      },
      {
        "deltaTime": 250,
        "channel": 5,
        "type": "channel",
        "subtype": "noteOff",
        "noteNumber": 69,
        "velocity": 50
      },
      {
        "deltaTime": 0,
        "channel": 5,
        "type": "channel",
        "subtype": "noteOff",
        "noteNumber": 51,
        "velocity": 70
      },
      {
        "deltaTime": 0,
        "channel": 5,
        "type": "channel",
        "subtype": "noteOff",
        "noteNumber": 35,
        "velocity": 70
      },
      {
        "deltaTime": 250,
        "channel": 5,
        "type": "channel",
        "noteNumber": 63,
        "velocity": 40,
        "subtype": "noteOn"
      },
      {
        "deltaTime": 0,
        "channel": 5,
        "type": "channel",
        "noteNumber": 70,
        "velocity": 80,
        "subtype": "noteOn"
      },
      {
        "deltaTime": 0,
        "channel": 5,
        "type": "channel",
        "noteNumber": 35,
        "velocity": 100,
        "subtype": "noteOn"
      },
      {
        "deltaTime": 0,
        "channel": 5,
        "type": "channel",
        "noteNumber": 51,
        "velocity": 90,
        "subtype": "noteOn"
      },
      {
        "deltaTime": 0,
        "channel": 5,
        "type": "channel",
        "noteNumber": 56,
        "velocity": 40,
        "subtype": "noteOn"
      },
      {
        "deltaTime": 16,
        "channel": 5,
        "type": "channel",
        "noteNumber": 37,
        "velocity": 108,
        "subtype": "noteOn"
      },
      {
        "deltaTime": 172,
        "channel": 5,
        "type": "channel",
        "subtype": "noteOff",
        "noteNumber": 37,
        "velocity": 108
      },
      {
        "deltaTime": 62,
        "channel": 5,
        "type": "channel",
        "subtype": "noteOff",
        "noteNumber": 56,
        "velocity": 40
      },
      {
        "deltaTime": 0,
        "channel": 5,
        "type": "channel",
        "subtype": "noteOff",
        "noteNumber": 51,
        "velocity": 90
      },
      {
        "deltaTime": 0,
        "channel": 5,
        "type": "channel",
        "subtype": "noteOff",
        "noteNumber": 35,
        "velocity": 100
      },
      {
        "deltaTime": 0,
        "channel": 5,
        "type": "channel",
        "subtype": "noteOff",
        "noteNumber": 70,
        "velocity": 80
      },
      {
        "deltaTime": 0,
        "channel": 5,
        "type": "channel",
        "subtype": "noteOff",
        "noteNumber": 63,
        "velocity": 40
      },
      {
        "deltaTime": 250,
        "channel": 5,
        "type": "channel",
        "noteNumber": 63,
        "velocity": 40,
        "subtype": "noteOn"
      },
      {
        "deltaTime": 0,
        "channel": 5,
        "type": "channel",
        "noteNumber": 41,
        "velocity": 50,
        "subtype": "noteOn"
      },
      {
        "deltaTime": 0,
        "channel": 5,
        "type": "channel",
        "noteNumber": 51,
        "velocity": 70,
        "subtype": "noteOn"
      },
      {
        "deltaTime": 0,
        "channel": 5,
        "type": "channel",
        "noteNumber": 69,
        "velocity": 50,
        "subtype": "noteOn"
      },
      {
        "deltaTime": 250,
        "channel": 5,
        "type": "channel",
        "subtype": "noteOff",
        "noteNumber": 69,
        "velocity": 50
      },
      {
        "deltaTime": 0,
        "channel": 5,
        "type": "channel",
        "subtype": "noteOff",
        "noteNumber": 51,
        "velocity": 70
      },
      {
        "deltaTime": 0,
        "channel": 5,
        "type": "channel",
        "subtype": "noteOff",
        "noteNumber": 41,
        "velocity": 50
      },
      {
        "deltaTime": 0,
        "channel": 5,
        "type": "channel",
        "subtype": "noteOff",
        "noteNumber": 63,
        "velocity": 40
      },
      {
        "deltaTime": 250,
        "channel": 5,
        "type": "channel",
        "noteNumber": 51,
        "velocity": 90,
        "subtype": "noteOn"
      },
      {
        "deltaTime": 0,
        "channel": 5,
        "type": "channel",
        "noteNumber": 70,
        "velocity": 80,
        "subtype": "noteOn"
      },
      {
        "deltaTime": 48,
        "channel": 5,
        "type": "channel",
        "noteNumber": 37,
        "velocity": 108,
        "subtype": "noteOn"
      },
      {
        "deltaTime": 170,
        "channel": 5,
        "type": "channel",
        "subtype": "noteOff",
        "noteNumber": 37,
        "velocity": 108
      },
      {
        "deltaTime": 32,
        "channel": 5,
        "type": "channel",
        "subtype": "noteOff",
        "noteNumber": 70,
        "velocity": 80
      },
      {
        "deltaTime": 0,
        "channel": 5,
        "type": "channel",
        "subtype": "noteOff",
        "noteNumber": 51,
        "velocity": 90
      },
      {
        "deltaTime": 250,
        "channel": 5,
        "type": "channel",
        "noteNumber": 35,
        "velocity": 70,
        "subtype": "noteOn"
      },
      {
        "deltaTime": 0,
        "channel": 5,
        "type": "channel",
        "noteNumber": 51,
        "velocity": 70,
        "subtype": "noteOn"
      },
      {
        "deltaTime": 0,
        "channel": 5,
        "type": "channel",
        "noteNumber": 69,
        "velocity": 50,
        "subtype": "noteOn"
      },
      {
        "deltaTime": 250,
        "channel": 5,
        "type": "channel",
        "subtype": "noteOff",
        "noteNumber": 69,
        "velocity": 50
      },
      {
        "deltaTime": 0,
        "channel": 5,
        "type": "channel",
        "subtype": "noteOff",
        "noteNumber": 51,
        "velocity": 70
      },
      {
        "deltaTime": 0,
        "channel": 5,
        "type": "channel",
        "subtype": "noteOff",
        "noteNumber": 35,
        "velocity": 70
      },
      {
        "deltaTime": 250,
        "channel": 5,
        "type": "channel",
        "noteNumber": 35,
        "velocity": 100,
        "subtype": "noteOn"
      },
      {
        "deltaTime": 0,
        "channel": 5,
        "type": "channel",
        "noteNumber": 51,
        "velocity": 90,
        "subtype": "noteOn"
      },
      {
        "deltaTime": 0,
        "channel": 5,
        "type": "channel",
        "noteNumber": 70,
        "velocity": 80,
        "subtype": "noteOn"
      },
      {
        "deltaTime": 250,
        "channel": 5,
        "type": "channel",
        "subtype": "noteOff",
        "noteNumber": 70,
        "velocity": 80
      },
      {
        "deltaTime": 0,
        "channel": 5,
        "type": "channel",
        "subtype": "noteOff",
        "noteNumber": 51,
        "velocity": 90
      },
      {
        "deltaTime": 0,
        "channel": 5,
        "type": "channel",
        "subtype": "noteOff",
        "noteNumber": 35,
        "velocity": 100
      },
      {
        "deltaTime": 250,
        "channel": 5,
        "type": "channel",
        "noteNumber": 51,
        "velocity": 70,
        "subtype": "noteOn"
      },
      {
        "deltaTime": 0,
        "channel": 5,
        "type": "channel",
        "noteNumber": 69,
        "velocity": 50,
        "subtype": "noteOn"
      },
      {
        "deltaTime": 58,
        "channel": 5,
        "type": "channel",
        "noteNumber": 37,
        "velocity": 106,
        "subtype": "noteOn"
      },
      {
        "deltaTime": 166,
        "channel": 5,
        "type": "channel",
        "subtype": "noteOff",
        "noteNumber": 37,
        "velocity": 106
      },
      {
        "deltaTime": 26,
        "channel": 5,
        "type": "channel",
        "subtype": "noteOff",
        "noteNumber": 69,
        "velocity": 50
      },
      {
        "deltaTime": 0,
        "channel": 5,
        "type": "channel",
        "subtype": "noteOff",
        "noteNumber": 51,
        "velocity": 70
      },
      {
        "deltaTime": 250,
        "channel": 5,
        "type": "channel",
        "noteNumber": 51,
        "velocity": 90,
        "subtype": "noteOn"
      },
      {
        "deltaTime": 0,
        "channel": 5,
        "type": "channel",
        "noteNumber": 70,
        "velocity": 80,
        "subtype": "noteOn"
      },
      {
        "deltaTime": 250,
        "channel": 5,
        "type": "channel",
        "subtype": "noteOff",
        "noteNumber": 70,
        "velocity": 80
      },
      {
        "deltaTime": 0,
        "channel": 5,
        "type": "channel",
        "subtype": "noteOff",
        "noteNumber": 51,
        "velocity": 90
      },
      {
        "deltaTime": 250,
        "channel": 5,
        "type": "channel",
        "noteNumber": 35,
        "velocity": 70,
        "subtype": "noteOn"
      },
      {
        "deltaTime": 0,
        "channel": 5,
        "type": "channel",
        "noteNumber": 51,
        "velocity": 70,
        "subtype": "noteOn"
      },
      {
        "deltaTime": 0,
        "channel": 5,
        "type": "channel",
        "noteNumber": 69,
        "velocity": 50,
        "subtype": "noteOn"
      },
      {
        "deltaTime": 250,
        "channel": 5,
        "type": "channel",
        "subtype": "noteOff",
        "noteNumber": 69,
        "velocity": 50
      },
      {
        "deltaTime": 0,
        "channel": 5,
        "type": "channel",
        "subtype": "noteOff",
        "noteNumber": 51,
        "velocity": 70
      },
      {
        "deltaTime": 0,
        "channel": 5,
        "type": "channel",
        "subtype": "noteOff",
        "noteNumber": 35,
        "velocity": 70
      },
      {
        "deltaTime": 250,
        "channel": 5,
        "type": "channel",
        "noteNumber": 70,
        "velocity": 80,
        "subtype": "noteOn"
      },
      {
        "deltaTime": 0,
        "channel": 5,
        "type": "channel",
        "noteNumber": 56,
        "velocity": 40,
        "subtype": "noteOn"
      },
      {
        "deltaTime": 0,
        "channel": 5,
        "type": "channel",
        "noteNumber": 35,
        "velocity": 100,
        "subtype": "noteOn"
      },
      {
        "deltaTime": 0,
        "channel": 5,
        "type": "channel",
        "noteNumber": 51,
        "velocity": 90,
        "subtype": "noteOn"
      },
      {
        "deltaTime": 16,
        "channel": 5,
        "type": "channel",
        "noteNumber": 37,
        "velocity": 108,
        "subtype": "noteOn"
      },
      {
        "deltaTime": 172,
        "channel": 5,
        "type": "channel",
        "subtype": "noteOff",
        "noteNumber": 37,
        "velocity": 108
      },
      {
        "deltaTime": 62,
        "channel": 5,
        "type": "channel",
        "subtype": "noteOff",
        "noteNumber": 51,
        "velocity": 90
      },
      {
        "deltaTime": 0,
        "channel": 5,
        "type": "channel",
        "subtype": "noteOff",
        "noteNumber": 35,
        "velocity": 100
      },
      {
        "deltaTime": 0,
        "channel": 5,
        "type": "channel",
        "subtype": "noteOff",
        "noteNumber": 56,
        "velocity": 40
      },
      {
        "deltaTime": 0,
        "channel": 5,
        "type": "channel",
        "subtype": "noteOff",
        "noteNumber": 70,
        "velocity": 80
      },
      {
        "deltaTime": 250,
        "channel": 5,
        "type": "channel",
        "noteNumber": 51,
        "velocity": 70,
        "subtype": "noteOn"
      },
      {
        "deltaTime": 0,
        "channel": 5,
        "type": "channel",
        "noteNumber": 63,
        "velocity": 40,
        "subtype": "noteOn"
      },
      {
        "deltaTime": 0,
        "channel": 5,
        "type": "channel",
        "noteNumber": 69,
        "velocity": 50,
        "subtype": "noteOn"
      },
      {
        "deltaTime": 250,
        "channel": 5,
        "type": "channel",
        "subtype": "noteOff",
        "noteNumber": 69,
        "velocity": 50
      },
      {
        "deltaTime": 0,
        "channel": 5,
        "type": "channel",
        "subtype": "noteOff",
        "noteNumber": 63,
        "velocity": 40
      },
      {
        "deltaTime": 0,
        "channel": 5,
        "type": "channel",
        "subtype": "noteOff",
        "noteNumber": 51,
        "velocity": 70
      },
      {
        "deltaTime": 250,
        "channel": 5,
        "type": "channel",
        "noteNumber": 70,
        "velocity": 80,
        "subtype": "noteOn"
      },
      {
        "deltaTime": 0,
        "channel": 5,
        "type": "channel",
        "noteNumber": 63,
        "velocity": 60,
        "subtype": "noteOn"
      },
      {
        "deltaTime": 0,
        "channel": 5,
        "type": "channel",
        "noteNumber": 51,
        "velocity": 90,
        "subtype": "noteOn"
      },
      {
        "deltaTime": 48,
        "channel": 5,
        "type": "channel",
        "noteNumber": 37,
        "velocity": 108,
        "subtype": "noteOn"
      },
      {
        "deltaTime": 170,
        "channel": 5,
        "type": "channel",
        "subtype": "noteOff",
        "noteNumber": 37,
        "velocity": 108
      },
      {
        "deltaTime": 32,
        "channel": 5,
        "type": "channel",
        "subtype": "noteOff",
        "noteNumber": 51,
        "velocity": 90
      },
      {
        "deltaTime": 0,
        "channel": 5,
        "type": "channel",
        "subtype": "noteOff",
        "noteNumber": 63,
        "velocity": 60
      },
      {
        "deltaTime": 0,
        "channel": 5,
        "type": "channel",
        "subtype": "noteOff",
        "noteNumber": 70,
        "velocity": 80
      },
      {
        "deltaTime": 250,
        "channel": 5,
        "type": "channel",
        "noteNumber": 62,
        "velocity": 70,
        "subtype": "noteOn"
      },
      {
        "deltaTime": 0,
        "channel": 5,
        "type": "channel",
        "noteNumber": 56,
        "velocity": 40,
        "subtype": "noteOn"
      },
      {
        "deltaTime": 0,
        "channel": 5,
        "type": "channel",
        "noteNumber": 35,
        "velocity": 70,
        "subtype": "noteOn"
      },
      {
        "deltaTime": 0,
        "channel": 5,
        "type": "channel",
        "noteNumber": 51,
        "velocity": 70,
        "subtype": "noteOn"
      },
      {
        "deltaTime": 0,
        "channel": 5,
        "type": "channel",
        "noteNumber": 69,
        "velocity": 50,
        "subtype": "noteOn"
      },
      {
        "deltaTime": 250,
        "channel": 5,
        "type": "channel",
        "subtype": "noteOff",
        "noteNumber": 69,
        "velocity": 50
      },
      {
        "deltaTime": 0,
        "channel": 5,
        "type": "channel",
        "subtype": "noteOff",
        "noteNumber": 51,
        "velocity": 70
      },
      {
        "deltaTime": 0,
        "channel": 5,
        "type": "channel",
        "subtype": "noteOff",
        "noteNumber": 35,
        "velocity": 70
      },
      {
        "deltaTime": 0,
        "channel": 5,
        "type": "channel",
        "subtype": "noteOff",
        "noteNumber": 56,
        "velocity": 40
      },
      {
        "deltaTime": 0,
        "channel": 5,
        "type": "channel",
        "subtype": "noteOff",
        "noteNumber": 62,
        "velocity": 70
      },
      {
        "deltaTime": 250,
        "channel": 5,
        "type": "channel",
        "noteNumber": 35,
        "velocity": 100,
        "subtype": "noteOn"
      },
      {
        "deltaTime": 0,
        "channel": 5,
        "type": "channel",
        "noteNumber": 51,
        "velocity": 90,
        "subtype": "noteOn"
      },
      {
        "deltaTime": 0,
        "channel": 5,
        "type": "channel",
        "noteNumber": 70,
        "velocity": 80,
        "subtype": "noteOn"
      },
      {
        "deltaTime": 250,
        "channel": 5,
        "type": "channel",
        "subtype": "noteOff",
        "noteNumber": 70,
        "velocity": 80
      },
      {
        "deltaTime": 0,
        "channel": 5,
        "type": "channel",
        "subtype": "noteOff",
        "noteNumber": 51,
        "velocity": 90
      },
      {
        "deltaTime": 0,
        "channel": 5,
        "type": "channel",
        "subtype": "noteOff",
        "noteNumber": 35,
        "velocity": 100
      },
      {
        "deltaTime": 250,
        "channel": 5,
        "type": "channel",
        "noteNumber": 51,
        "velocity": 70,
        "subtype": "noteOn"
      },
      {
        "deltaTime": 0,
        "channel": 5,
        "type": "channel",
        "noteNumber": 69,
        "velocity": 50,
        "subtype": "noteOn"
      },
      {
        "deltaTime": 58,
        "channel": 5,
        "type": "channel",
        "noteNumber": 37,
        "velocity": 106,
        "subtype": "noteOn"
      },
      {
        "deltaTime": 166,
        "channel": 5,
        "type": "channel",
        "subtype": "noteOff",
        "noteNumber": 37,
        "velocity": 106
      },
      {
        "deltaTime": 26,
        "channel": 5,
        "type": "channel",
        "subtype": "noteOff",
        "noteNumber": 69,
        "velocity": 50
      },
      {
        "deltaTime": 0,
        "channel": 5,
        "type": "channel",
        "subtype": "noteOff",
        "noteNumber": 51,
        "velocity": 70
      },
      {
        "deltaTime": 250,
        "channel": 5,
        "type": "channel",
        "noteNumber": 62,
        "velocity": 70,
        "subtype": "noteOn"
      },
      {
        "deltaTime": 0,
        "channel": 5,
        "type": "channel",
        "noteNumber": 51,
        "velocity": 90,
        "subtype": "noteOn"
      },
      {
        "deltaTime": 0,
        "channel": 5,
        "type": "channel",
        "noteNumber": 56,
        "velocity": 40,
        "subtype": "noteOn"
      },
      {
        "deltaTime": 0,
        "channel": 5,
        "type": "channel",
        "noteNumber": 70,
        "velocity": 80,
        "subtype": "noteOn"
      },
      {
        "deltaTime": 250,
        "channel": 5,
        "type": "channel",
        "subtype": "noteOff",
        "noteNumber": 70,
        "velocity": 80
      },
      {
        "deltaTime": 0,
        "channel": 5,
        "type": "channel",
        "subtype": "noteOff",
        "noteNumber": 56,
        "velocity": 40
      },
      {
        "deltaTime": 0,
        "channel": 5,
        "type": "channel",
        "subtype": "noteOff",
        "noteNumber": 51,
        "velocity": 90
      },
      {
        "deltaTime": 0,
        "channel": 5,
        "type": "channel",
        "subtype": "noteOff",
        "noteNumber": 62,
        "velocity": 70
      },
      {
        "deltaTime": 250,
        "channel": 5,
        "type": "channel",
        "noteNumber": 45,
        "velocity": 75,
        "subtype": "noteOn"
      },
      {
        "deltaTime": 0,
        "channel": 5,
        "type": "channel",
        "noteNumber": 51,
        "velocity": 70,
        "subtype": "noteOn"
      },
      {
        "deltaTime": 0,
        "channel": 5,
        "type": "channel",
        "noteNumber": 35,
        "velocity": 70,
        "subtype": "noteOn"
      },
      {
        "deltaTime": 0,
        "channel": 5,
        "type": "channel",
        "noteNumber": 69,
        "velocity": 50,
        "subtype": "noteOn"
      },
      {
        "deltaTime": 250,
        "channel": 5,
        "type": "channel",
        "subtype": "noteOff",
        "noteNumber": 69,
        "velocity": 50
      },
      {
        "deltaTime": 0,
        "channel": 5,
        "type": "channel",
        "subtype": "noteOff",
        "noteNumber": 35,
        "velocity": 70
      },
      {
        "deltaTime": 0,
        "channel": 5,
        "type": "channel",
        "subtype": "noteOff",
        "noteNumber": 51,
        "velocity": 70
      },
      {
        "deltaTime": 0,
        "channel": 5,
        "type": "channel",
        "subtype": "noteOff",
        "noteNumber": 45,
        "velocity": 75
      },
      {
        "deltaTime": 250,
        "channel": 5,
        "type": "channel",
        "noteNumber": 70,
        "velocity": 80,
        "subtype": "noteOn"
      },
      {
        "deltaTime": 0,
        "channel": 5,
        "type": "channel",
        "noteNumber": 51,
        "velocity": 90,
        "subtype": "noteOn"
      },
      {
        "deltaTime": 0,
        "channel": 5,
        "type": "channel",
        "noteNumber": 35,
        "velocity": 100,
        "subtype": "noteOn"
      },
      {
        "deltaTime": 0,
        "channel": 5,
        "type": "channel",
        "noteNumber": 63,
        "velocity": 40,
        "subtype": "noteOn"
      },
      {
        "deltaTime": 16,
        "channel": 5,
        "type": "channel",
        "noteNumber": 37,
        "velocity": 108,
        "subtype": "noteOn"
      },
      {
        "deltaTime": 172,
        "channel": 5,
        "type": "channel",
        "subtype": "noteOff",
        "noteNumber": 37,
        "velocity": 108
      },
      {
        "deltaTime": 62,
        "channel": 5,
        "type": "channel",
        "subtype": "noteOff",
        "noteNumber": 63,
        "velocity": 40
      },
      {
        "deltaTime": 0,
        "channel": 5,
        "type": "channel",
        "subtype": "noteOff",
        "noteNumber": 35,
        "velocity": 100
      },
      {
        "deltaTime": 0,
        "channel": 5,
        "type": "channel",
        "subtype": "noteOff",
        "noteNumber": 51,
        "velocity": 90
      },
      {
        "deltaTime": 0,
        "channel": 5,
        "type": "channel",
        "subtype": "noteOff",
        "noteNumber": 70,
        "velocity": 80
      },
      {
        "deltaTime": 250,
        "channel": 5,
        "type": "channel",
        "noteNumber": 51,
        "velocity": 70,
        "subtype": "noteOn"
      },
      {
        "deltaTime": 0,
        "channel": 5,
        "type": "channel",
        "noteNumber": 63,
        "velocity": 40,
        "subtype": "noteOn"
      },
      {
        "deltaTime": 0,
        "channel": 5,
        "type": "channel",
        "noteNumber": 69,
        "velocity": 50,
        "subtype": "noteOn"
      },
      {
        "deltaTime": 250,
        "channel": 5,
        "type": "channel",
        "subtype": "noteOff",
        "noteNumber": 69,
        "velocity": 50
      },
      {
        "deltaTime": 0,
        "channel": 5,
        "type": "channel",
        "subtype": "noteOff",
        "noteNumber": 63,
        "velocity": 40
      },
      {
        "deltaTime": 0,
        "channel": 5,
        "type": "channel",
        "subtype": "noteOff",
        "noteNumber": 51,
        "velocity": 70
      },
      {
        "deltaTime": 250,
        "channel": 5,
        "type": "channel",
        "noteNumber": 51,
        "velocity": 90,
        "subtype": "noteOn"
      },
      {
        "deltaTime": 0,
        "channel": 5,
        "type": "channel",
        "noteNumber": 70,
        "velocity": 80,
        "subtype": "noteOn"
      },
      {
        "deltaTime": 48,
        "channel": 5,
        "type": "channel",
        "noteNumber": 37,
        "velocity": 108,
        "subtype": "noteOn"
      },
      {
        "deltaTime": 170,
        "channel": 5,
        "type": "channel",
        "subtype": "noteOff",
        "noteNumber": 37,
        "velocity": 108
      },
      {
        "deltaTime": 32,
        "channel": 5,
        "type": "channel",
        "subtype": "noteOff",
        "noteNumber": 70,
        "velocity": 80
      },
      {
        "deltaTime": 0,
        "channel": 5,
        "type": "channel",
        "subtype": "noteOff",
        "noteNumber": 51,
        "velocity": 90
      },
      {
        "deltaTime": 250,
        "channel": 5,
        "type": "channel",
        "noteNumber": 35,
        "velocity": 70,
        "subtype": "noteOn"
      },
      {
        "deltaTime": 0,
        "channel": 5,
        "type": "channel",
        "noteNumber": 51,
        "velocity": 70,
        "subtype": "noteOn"
      },
      {
        "deltaTime": 0,
        "channel": 5,
        "type": "channel",
        "noteNumber": 69,
        "velocity": 50,
        "subtype": "noteOn"
      },
      {
        "deltaTime": 250,
        "channel": 5,
        "type": "channel",
        "subtype": "noteOff",
        "noteNumber": 69,
        "velocity": 50
      },
      {
        "deltaTime": 0,
        "channel": 5,
        "type": "channel",
        "subtype": "noteOff",
        "noteNumber": 51,
        "velocity": 70
      },
      {
        "deltaTime": 0,
        "channel": 5,
        "type": "channel",
        "subtype": "noteOff",
        "noteNumber": 35,
        "velocity": 70
      },
      {
        "deltaTime": 250,
        "channel": 5,
        "type": "channel",
        "noteNumber": 35,
        "velocity": 100,
        "subtype": "noteOn"
      },
      {
        "deltaTime": 0,
        "channel": 5,
        "type": "channel",
        "noteNumber": 51,
        "velocity": 90,
        "subtype": "noteOn"
      },
      {
        "deltaTime": 0,
        "channel": 5,
        "type": "channel",
        "noteNumber": 70,
        "velocity": 80,
        "subtype": "noteOn"
      },
      {
        "deltaTime": 250,
        "channel": 5,
        "type": "channel",
        "subtype": "noteOff",
        "noteNumber": 70,
        "velocity": 80
      },
      {
        "deltaTime": 0,
        "channel": 5,
        "type": "channel",
        "subtype": "noteOff",
        "noteNumber": 51,
        "velocity": 90
      },
      {
        "deltaTime": 0,
        "channel": 5,
        "type": "channel",
        "subtype": "noteOff",
        "noteNumber": 35,
        "velocity": 100
      },
      {
        "deltaTime": 250,
        "channel": 5,
        "type": "channel",
        "noteNumber": 51,
        "velocity": 70,
        "subtype": "noteOn"
      },
      {
        "deltaTime": 0,
        "channel": 5,
        "type": "channel",
        "noteNumber": 69,
        "velocity": 50,
        "subtype": "noteOn"
      },
      {
        "deltaTime": 58,
        "channel": 5,
        "type": "channel",
        "noteNumber": 37,
        "velocity": 106,
        "subtype": "noteOn"
      },
      {
        "deltaTime": 166,
        "channel": 5,
        "type": "channel",
        "subtype": "noteOff",
        "noteNumber": 37,
        "velocity": 106
      },
      {
        "deltaTime": 26,
        "channel": 5,
        "type": "channel",
        "subtype": "noteOff",
        "noteNumber": 69,
        "velocity": 50
      },
      {
        "deltaTime": 0,
        "channel": 5,
        "type": "channel",
        "subtype": "noteOff",
        "noteNumber": 51,
        "velocity": 70
      },
      {
        "deltaTime": 250,
        "channel": 5,
        "type": "channel",
        "noteNumber": 51,
        "velocity": 90,
        "subtype": "noteOn"
      },
      {
        "deltaTime": 0,
        "channel": 5,
        "type": "channel",
        "noteNumber": 45,
        "velocity": 70,
        "subtype": "noteOn"
      },
      {
        "deltaTime": 0,
        "channel": 5,
        "type": "channel",
        "noteNumber": 70,
        "velocity": 80,
        "subtype": "noteOn"
      },
      {
        "deltaTime": 250,
        "channel": 5,
        "type": "channel",
        "subtype": "noteOff",
        "noteNumber": 70,
        "velocity": 80
      },
      {
        "deltaTime": 0,
        "channel": 5,
        "type": "channel",
        "subtype": "noteOff",
        "noteNumber": 45,
        "velocity": 70
      },
      {
        "deltaTime": 0,
        "channel": 5,
        "type": "channel",
        "subtype": "noteOff",
        "noteNumber": 51,
        "velocity": 90
      },
      {
        "deltaTime": 250,
        "channel": 5,
        "type": "channel",
        "noteNumber": 35,
        "velocity": 70,
        "subtype": "noteOn"
      },
      {
        "deltaTime": 0,
        "channel": 5,
        "type": "channel",
        "noteNumber": 51,
        "velocity": 70,
        "subtype": "noteOn"
      },
      {
        "deltaTime": 0,
        "channel": 5,
        "type": "channel",
        "noteNumber": 69,
        "velocity": 50,
        "subtype": "noteOn"
      },
      {
        "deltaTime": 250,
        "channel": 5,
        "type": "channel",
        "subtype": "noteOff",
        "noteNumber": 69,
        "velocity": 50
      },
      {
        "deltaTime": 0,
        "channel": 5,
        "type": "channel",
        "subtype": "noteOff",
        "noteNumber": 51,
        "velocity": 70
      },
      {
        "deltaTime": 0,
        "channel": 5,
        "type": "channel",
        "subtype": "noteOff",
        "noteNumber": 35,
        "velocity": 70
      },
      {
        "deltaTime": 250,
        "channel": 5,
        "type": "channel",
        "noteNumber": 70,
        "velocity": 80,
        "subtype": "noteOn"
      },
      {
        "deltaTime": 0,
        "channel": 5,
        "type": "channel",
        "noteNumber": 51,
        "velocity": 90,
        "subtype": "noteOn"
      },
      {
        "deltaTime": 0,
        "channel": 5,
        "type": "channel",
        "noteNumber": 35,
        "velocity": 100,
        "subtype": "noteOn"
      },
      {
        "deltaTime": 16,
        "channel": 5,
        "type": "channel",
        "noteNumber": 37,
        "velocity": 108,
        "subtype": "noteOn"
      },
      {
        "deltaTime": 172,
        "channel": 5,
        "type": "channel",
        "subtype": "noteOff",
        "noteNumber": 37,
        "velocity": 108
      },
      {
        "deltaTime": 62,
        "channel": 5,
        "type": "channel",
        "subtype": "noteOff",
        "noteNumber": 35,
        "velocity": 100
      },
      {
        "deltaTime": 0,
        "channel": 5,
        "type": "channel",
        "subtype": "noteOff",
        "noteNumber": 51,
        "velocity": 90
      },
      {
        "deltaTime": 0,
        "channel": 5,
        "type": "channel",
        "subtype": "noteOff",
        "noteNumber": 70,
        "velocity": 80
      },
      {
        "deltaTime": 250,
        "channel": 5,
        "type": "channel",
        "noteNumber": 51,
        "velocity": 70,
        "subtype": "noteOn"
      },
      {
        "deltaTime": 0,
        "channel": 5,
        "type": "channel",
        "noteNumber": 63,
        "velocity": 40,
        "subtype": "noteOn"
      },
      {
        "deltaTime": 0,
        "channel": 5,
        "type": "channel",
        "noteNumber": 69,
        "velocity": 50,
        "subtype": "noteOn"
      },
      {
        "deltaTime": 250,
        "channel": 5,
        "type": "channel",
        "subtype": "noteOff",
        "noteNumber": 69,
        "velocity": 50
      },
      {
        "deltaTime": 0,
        "channel": 5,
        "type": "channel",
        "subtype": "noteOff",
        "noteNumber": 63,
        "velocity": 40
      },
      {
        "deltaTime": 0,
        "channel": 5,
        "type": "channel",
        "subtype": "noteOff",
        "noteNumber": 51,
        "velocity": 70
      },
      {
        "deltaTime": 250,
        "channel": 5,
        "type": "channel",
        "noteNumber": 70,
        "velocity": 80,
        "subtype": "noteOn"
      },
      {
        "deltaTime": 0,
        "channel": 5,
        "type": "channel",
        "noteNumber": 48,
        "velocity": 60,
        "subtype": "noteOn"
      },
      {
        "deltaTime": 0,
        "channel": 5,
        "type": "channel",
        "noteNumber": 51,
        "velocity": 90,
        "subtype": "noteOn"
      },
      {
        "deltaTime": 0,
        "channel": 5,
        "type": "channel",
        "noteNumber": 63,
        "velocity": 60,
        "subtype": "noteOn"
      },
      {
        "deltaTime": 48,
        "channel": 5,
        "type": "channel",
        "noteNumber": 37,
        "velocity": 108,
        "subtype": "noteOn"
      },
      {
        "deltaTime": 170,
        "channel": 5,
        "type": "channel",
        "subtype": "noteOff",
        "noteNumber": 37,
        "velocity": 108
      },
      {
        "deltaTime": 32,
        "channel": 5,
        "type": "channel",
        "subtype": "noteOff",
        "noteNumber": 63,
        "velocity": 60
      },
      {
        "deltaTime": 0,
        "channel": 5,
        "type": "channel",
        "subtype": "noteOff",
        "noteNumber": 51,
        "velocity": 90
      },
      {
        "deltaTime": 0,
        "channel": 5,
        "type": "channel",
        "subtype": "noteOff",
        "noteNumber": 48,
        "velocity": 60
      },
      {
        "deltaTime": 0,
        "channel": 5,
        "type": "channel",
        "subtype": "noteOff",
        "noteNumber": 70,
        "velocity": 80
      },
      {
        "deltaTime": 250,
        "channel": 5,
        "type": "channel",
        "noteNumber": 62,
        "velocity": 70,
        "subtype": "noteOn"
      },
      {
        "deltaTime": 0,
        "channel": 5,
        "type": "channel",
        "noteNumber": 56,
        "velocity": 40,
        "subtype": "noteOn"
      },
      {
        "deltaTime": 0,
        "channel": 5,
        "type": "channel",
        "noteNumber": 35,
        "velocity": 70,
        "subtype": "noteOn"
      },
      {
        "deltaTime": 0,
        "channel": 5,
        "type": "channel",
        "noteNumber": 51,
        "velocity": 70,
        "subtype": "noteOn"
      },
      {
        "deltaTime": 0,
        "channel": 5,
        "type": "channel",
        "noteNumber": 69,
        "velocity": 50,
        "subtype": "noteOn"
      },
      {
        "deltaTime": 250,
        "channel": 5,
        "type": "channel",
        "subtype": "noteOff",
        "noteNumber": 69,
        "velocity": 50
      },
      {
        "deltaTime": 0,
        "channel": 5,
        "type": "channel",
        "subtype": "noteOff",
        "noteNumber": 51,
        "velocity": 70
      },
      {
        "deltaTime": 0,
        "channel": 5,
        "type": "channel",
        "subtype": "noteOff",
        "noteNumber": 35,
        "velocity": 70
      },
      {
        "deltaTime": 0,
        "channel": 5,
        "type": "channel",
        "subtype": "noteOff",
        "noteNumber": 56,
        "velocity": 40
      },
      {
        "deltaTime": 0,
        "channel": 5,
        "type": "channel",
        "subtype": "noteOff",
        "noteNumber": 62,
        "velocity": 70
      },
      {
        "deltaTime": 250,
        "channel": 5,
        "type": "channel",
        "noteNumber": 35,
        "velocity": 100,
        "subtype": "noteOn"
      },
      {
        "deltaTime": 0,
        "channel": 5,
        "type": "channel",
        "noteNumber": 51,
        "velocity": 90,
        "subtype": "noteOn"
      },
      {
        "deltaTime": 0,
        "channel": 5,
        "type": "channel",
        "noteNumber": 70,
        "velocity": 80,
        "subtype": "noteOn"
      },
      {
        "deltaTime": 250,
        "channel": 5,
        "type": "channel",
        "subtype": "noteOff",
        "noteNumber": 70,
        "velocity": 80
      },
      {
        "deltaTime": 0,
        "channel": 5,
        "type": "channel",
        "subtype": "noteOff",
        "noteNumber": 51,
        "velocity": 90
      },
      {
        "deltaTime": 0,
        "channel": 5,
        "type": "channel",
        "subtype": "noteOff",
        "noteNumber": 35,
        "velocity": 100
      },
      {
        "deltaTime": 250,
        "channel": 5,
        "type": "channel",
        "noteNumber": 51,
        "velocity": 70,
        "subtype": "noteOn"
      },
      {
        "deltaTime": 0,
        "channel": 5,
        "type": "channel",
        "noteNumber": 69,
        "velocity": 50,
        "subtype": "noteOn"
      },
      {
        "deltaTime": 58,
        "channel": 5,
        "type": "channel",
        "noteNumber": 37,
        "velocity": 106,
        "subtype": "noteOn"
      },
      {
        "deltaTime": 166,
        "channel": 5,
        "type": "channel",
        "subtype": "noteOff",
        "noteNumber": 37,
        "velocity": 106
      },
      {
        "deltaTime": 26,
        "channel": 5,
        "type": "channel",
        "subtype": "noteOff",
        "noteNumber": 69,
        "velocity": 50
      },
      {
        "deltaTime": 0,
        "channel": 5,
        "type": "channel",
        "subtype": "noteOff",
        "noteNumber": 51,
        "velocity": 70
      },
      {
        "deltaTime": 250,
        "channel": 5,
        "type": "channel",
        "noteNumber": 51,
        "velocity": 90,
        "subtype": "noteOn"
      },
      {
        "deltaTime": 0,
        "channel": 5,
        "type": "channel",
        "noteNumber": 62,
        "velocity": 70,
        "subtype": "noteOn"
      },
      {
        "deltaTime": 0,
        "channel": 5,
        "type": "channel",
        "noteNumber": 70,
        "velocity": 80,
        "subtype": "noteOn"
      },
      {
        "deltaTime": 250,
        "channel": 5,
        "type": "channel",
        "subtype": "noteOff",
        "noteNumber": 70,
        "velocity": 80
      },
      {
        "deltaTime": 0,
        "channel": 5,
        "type": "channel",
        "subtype": "noteOff",
        "noteNumber": 62,
        "velocity": 70
      },
      {
        "deltaTime": 0,
        "channel": 5,
        "type": "channel",
        "subtype": "noteOff",
        "noteNumber": 51,
        "velocity": 90
      },
      {
        "deltaTime": 250,
        "channel": 5,
        "type": "channel",
        "noteNumber": 45,
        "velocity": 70,
        "subtype": "noteOn"
      },
      {
        "deltaTime": 0,
        "channel": 5,
        "type": "channel",
        "noteNumber": 51,
        "velocity": 70,
        "subtype": "noteOn"
      },
      {
        "deltaTime": 0,
        "channel": 5,
        "type": "channel",
        "noteNumber": 35,
        "velocity": 70,
        "subtype": "noteOn"
      },
      {
        "deltaTime": 0,
        "channel": 5,
        "type": "channel",
        "noteNumber": 69,
        "velocity": 50,
        "subtype": "noteOn"
      },
      {
        "deltaTime": 250,
        "channel": 5,
        "type": "channel",
        "subtype": "noteOff",
        "noteNumber": 69,
        "velocity": 50
      },
      {
        "deltaTime": 0,
        "channel": 5,
        "type": "channel",
        "subtype": "noteOff",
        "noteNumber": 35,
        "velocity": 70
      },
      {
        "deltaTime": 0,
        "channel": 5,
        "type": "channel",
        "subtype": "noteOff",
        "noteNumber": 51,
        "velocity": 70
      },
      {
        "deltaTime": 0,
        "channel": 5,
        "type": "channel",
        "subtype": "noteOff",
        "noteNumber": 45,
        "velocity": 70
      },
      {
        "deltaTime": 250,
        "channel": 5,
        "type": "channel",
        "noteNumber": 70,
        "velocity": 80,
        "subtype": "noteOn"
      },
      {
        "deltaTime": 0,
        "channel": 5,
        "type": "channel",
        "noteNumber": 49,
        "velocity": 70,
        "subtype": "noteOn"
      },
      {
        "deltaTime": 0,
        "channel": 5,
        "type": "channel",
        "noteNumber": 35,
        "velocity": 100,
        "subtype": "noteOn"
      },
      {
        "deltaTime": 16,
        "channel": 5,
        "type": "channel",
        "noteNumber": 37,
        "velocity": 108,
        "subtype": "noteOn"
      },
      {
        "deltaTime": 172,
        "channel": 5,
        "type": "channel",
        "subtype": "noteOff",
        "noteNumber": 37,
        "velocity": 108
      },
      {
        "deltaTime": 62,
        "channel": 5,
        "type": "channel",
        "subtype": "noteOff",
        "noteNumber": 35,
        "velocity": 100
      },
      {
        "deltaTime": 0,
        "channel": 5,
        "type": "channel",
        "subtype": "noteOff",
        "noteNumber": 49,
        "velocity": 70
      },
      {
        "deltaTime": 0,
        "channel": 5,
        "type": "channel",
        "subtype": "noteOff",
        "noteNumber": 70,
        "velocity": 80
      },
      {
        "deltaTime": 3750,
        "channel": 5,
        "type": "channel",
        "noteNumber": 70,
        "velocity": 80,
        "subtype": "noteOn"
      },
      {
        "deltaTime": 0,
        "channel": 5,
        "type": "channel",
        "noteNumber": 49,
        "velocity": 50,
        "subtype": "noteOn"
      },
      {
        "deltaTime": 0,
        "channel": 5,
        "type": "channel",
        "noteNumber": 35,
        "velocity": 100,
        "subtype": "noteOn"
      },
      {
        "deltaTime": 16,
        "channel": 5,
        "type": "channel",
        "noteNumber": 37,
        "velocity": 108,
        "subtype": "noteOn"
      },
      {
        "deltaTime": 172,
        "channel": 5,
        "type": "channel",
        "subtype": "noteOff",
        "noteNumber": 37,
        "velocity": 108
      },
      {
        "deltaTime": 62,
        "channel": 5,
        "type": "channel",
        "subtype": "noteOff",
        "noteNumber": 35,
        "velocity": 100
      },
      {
        "deltaTime": 0,
        "channel": 5,
        "type": "channel",
        "subtype": "noteOff",
        "noteNumber": 49,
        "velocity": 50
      },
      {
        "deltaTime": 0,
        "channel": 5,
        "type": "channel",
        "subtype": "noteOff",
        "noteNumber": 70,
        "velocity": 80
      },
      {
        "deltaTime": 250,
        "channel": 5,
        "type": "channel",
        "noteNumber": 42,
        "velocity": 70,
        "subtype": "noteOn"
      },
      {
        "deltaTime": 0,
        "channel": 5,
        "type": "channel",
        "noteNumber": 69,
        "velocity": 50,
        "subtype": "noteOn"
      },
      {
        "deltaTime": 250,
        "channel": 5,
        "type": "channel",
        "subtype": "noteOff",
        "noteNumber": 69,
        "velocity": 50
      },
      {
        "deltaTime": 0,
        "channel": 5,
        "type": "channel",
        "subtype": "noteOff",
        "noteNumber": 42,
        "velocity": 70
      },
      {
        "deltaTime": 250,
        "channel": 5,
        "type": "channel",
        "noteNumber": 42,
        "velocity": 70,
        "subtype": "noteOn"
      },
      {
        "deltaTime": 0,
        "channel": 5,
        "type": "channel",
        "noteNumber": 70,
        "velocity": 80,
        "subtype": "noteOn"
      },
      {
        "deltaTime": 48,
        "channel": 5,
        "type": "channel",
        "noteNumber": 37,
        "velocity": 108,
        "subtype": "noteOn"
      },
      {
        "deltaTime": 170,
        "channel": 5,
        "type": "channel",
        "subtype": "noteOff",
        "noteNumber": 37,
        "velocity": 108
      },
      {
        "deltaTime": 32,
        "channel": 5,
        "type": "channel",
        "subtype": "noteOff",
        "noteNumber": 70,
        "velocity": 80
      },
      {
        "deltaTime": 0,
        "channel": 5,
        "type": "channel",
        "subtype": "noteOff",
        "noteNumber": 42,
        "velocity": 70
      },
      {
        "deltaTime": 250,
        "channel": 5,
        "type": "channel",
        "noteNumber": 35,
        "velocity": 70,
        "subtype": "noteOn"
      },
      {
        "deltaTime": 0,
        "channel": 5,
        "type": "channel",
        "noteNumber": 42,
        "velocity": 70,
        "subtype": "noteOn"
      },
      {
        "deltaTime": 0,
        "channel": 5,
        "type": "channel",
        "noteNumber": 69,
        "velocity": 50,
        "subtype": "noteOn"
      },
      {
        "deltaTime": 250,
        "channel": 5,
        "type": "channel",
        "subtype": "noteOff",
        "noteNumber": 69,
        "velocity": 50
      },
      {
        "deltaTime": 0,
        "channel": 5,
        "type": "channel",
        "subtype": "noteOff",
        "noteNumber": 42,
        "velocity": 70
      },
      {
        "deltaTime": 0,
        "channel": 5,
        "type": "channel",
        "subtype": "noteOff",
        "noteNumber": 35,
        "velocity": 70
      },
      {
        "deltaTime": 250,
        "channel": 5,
        "type": "channel",
        "noteNumber": 35,
        "velocity": 100,
        "subtype": "noteOn"
      },
      {
        "deltaTime": 0,
        "channel": 5,
        "type": "channel",
        "noteNumber": 42,
        "velocity": 90,
        "subtype": "noteOn"
      },
      {
        "deltaTime": 0,
        "channel": 5,
        "type": "channel",
        "noteNumber": 70,
        "velocity": 80,
        "subtype": "noteOn"
      },
      {
        "deltaTime": 250,
        "channel": 5,
        "type": "channel",
        "subtype": "noteOff",
        "noteNumber": 70,
        "velocity": 80
      },
      {
        "deltaTime": 0,
        "channel": 5,
        "type": "channel",
        "subtype": "noteOff",
        "noteNumber": 42,
        "velocity": 90
      },
      {
        "deltaTime": 0,
        "channel": 5,
        "type": "channel",
        "subtype": "noteOff",
        "noteNumber": 35,
        "velocity": 100
      },
      {
        "deltaTime": 250,
        "channel": 5,
        "type": "channel",
        "noteNumber": 42,
        "velocity": 70,
        "subtype": "noteOn"
      },
      {
        "deltaTime": 0,
        "channel": 5,
        "type": "channel",
        "noteNumber": 69,
        "velocity": 50,
        "subtype": "noteOn"
      },
      {
        "deltaTime": 58,
        "channel": 5,
        "type": "channel",
        "noteNumber": 37,
        "velocity": 106,
        "subtype": "noteOn"
      },
      {
        "deltaTime": 166,
        "channel": 5,
        "type": "channel",
        "subtype": "noteOff",
        "noteNumber": 37,
        "velocity": 106
      },
      {
        "deltaTime": 26,
        "channel": 5,
        "type": "channel",
        "subtype": "noteOff",
        "noteNumber": 69,
        "velocity": 50
      },
      {
        "deltaTime": 0,
        "channel": 5,
        "type": "channel",
        "subtype": "noteOff",
        "noteNumber": 42,
        "velocity": 70
      },
      {
        "deltaTime": 250,
        "channel": 5,
        "type": "channel",
        "noteNumber": 42,
        "velocity": 70,
        "subtype": "noteOn"
      },
      {
        "deltaTime": 0,
        "channel": 5,
        "type": "channel",
        "noteNumber": 70,
        "velocity": 80,
        "subtype": "noteOn"
      },
      {
        "deltaTime": 250,
        "channel": 5,
        "type": "channel",
        "subtype": "noteOff",
        "noteNumber": 70,
        "velocity": 80
      },
      {
        "deltaTime": 0,
        "channel": 5,
        "type": "channel",
        "subtype": "noteOff",
        "noteNumber": 42,
        "velocity": 70
      },
      {
        "deltaTime": 250,
        "channel": 5,
        "type": "channel",
        "noteNumber": 35,
        "velocity": 70,
        "subtype": "noteOn"
      },
      {
        "deltaTime": 0,
        "channel": 5,
        "type": "channel",
        "noteNumber": 42,
        "velocity": 70,
        "subtype": "noteOn"
      },
      {
        "deltaTime": 0,
        "channel": 5,
        "type": "channel",
        "noteNumber": 69,
        "velocity": 50,
        "subtype": "noteOn"
      },
      {
        "deltaTime": 250,
        "channel": 5,
        "type": "channel",
        "subtype": "noteOff",
        "noteNumber": 69,
        "velocity": 50
      },
      {
        "deltaTime": 0,
        "channel": 5,
        "type": "channel",
        "subtype": "noteOff",
        "noteNumber": 42,
        "velocity": 70
      },
      {
        "deltaTime": 0,
        "channel": 5,
        "type": "channel",
        "subtype": "noteOff",
        "noteNumber": 35,
        "velocity": 70
      },
      {
        "deltaTime": 250,
        "channel": 5,
        "type": "channel",
        "noteNumber": 70,
        "velocity": 80,
        "subtype": "noteOn"
      },
      {
        "deltaTime": 0,
        "channel": 5,
        "type": "channel",
        "noteNumber": 42,
        "velocity": 90,
        "subtype": "noteOn"
      },
      {
        "deltaTime": 0,
        "channel": 5,
        "type": "channel",
        "noteNumber": 35,
        "velocity": 100,
        "subtype": "noteOn"
      },
      {
        "deltaTime": 16,
        "channel": 5,
        "type": "channel",
        "noteNumber": 37,
        "velocity": 108,
        "subtype": "noteOn"
      },
      {
        "deltaTime": 172,
        "channel": 5,
        "type": "channel",
        "subtype": "noteOff",
        "noteNumber": 37,
        "velocity": 108
      },
      {
        "deltaTime": 62,
        "channel": 5,
        "type": "channel",
        "subtype": "noteOff",
        "noteNumber": 35,
        "velocity": 100
      },
      {
        "deltaTime": 0,
        "channel": 5,
        "type": "channel",
        "subtype": "noteOff",
        "noteNumber": 42,
        "velocity": 90
      },
      {
        "deltaTime": 0,
        "channel": 5,
        "type": "channel",
        "subtype": "noteOff",
        "noteNumber": 70,
        "velocity": 80
      },
      {
        "deltaTime": 250,
        "channel": 5,
        "type": "channel",
        "noteNumber": 42,
        "velocity": 70,
        "subtype": "noteOn"
      },
      {
        "deltaTime": 0,
        "channel": 5,
        "type": "channel",
        "noteNumber": 69,
        "velocity": 50,
        "subtype": "noteOn"
      },
      {
        "deltaTime": 250,
        "channel": 5,
        "type": "channel",
        "subtype": "noteOff",
        "noteNumber": 69,
        "velocity": 50
      },
      {
        "deltaTime": 0,
        "channel": 5,
        "type": "channel",
        "subtype": "noteOff",
        "noteNumber": 42,
        "velocity": 70
      },
      {
        "deltaTime": 250,
        "channel": 5,
        "type": "channel",
        "noteNumber": 42,
        "velocity": 70,
        "subtype": "noteOn"
      },
      {
        "deltaTime": 0,
        "channel": 5,
        "type": "channel",
        "noteNumber": 70,
        "velocity": 80,
        "subtype": "noteOn"
      },
      {
        "deltaTime": 48,
        "channel": 5,
        "type": "channel",
        "noteNumber": 37,
        "velocity": 108,
        "subtype": "noteOn"
      },
      {
        "deltaTime": 170,
        "channel": 5,
        "type": "channel",
        "subtype": "noteOff",
        "noteNumber": 37,
        "velocity": 108
      },
      {
        "deltaTime": 32,
        "channel": 5,
        "type": "channel",
        "subtype": "noteOff",
        "noteNumber": 70,
        "velocity": 80
      },
      {
        "deltaTime": 0,
        "channel": 5,
        "type": "channel",
        "subtype": "noteOff",
        "noteNumber": 42,
        "velocity": 70
      },
      {
        "deltaTime": 250,
        "channel": 5,
        "type": "channel",
        "noteNumber": 35,
        "velocity": 70,
        "subtype": "noteOn"
      },
      {
        "deltaTime": 0,
        "channel": 5,
        "type": "channel",
        "noteNumber": 42,
        "velocity": 70,
        "subtype": "noteOn"
      },
      {
        "deltaTime": 0,
        "channel": 5,
        "type": "channel",
        "noteNumber": 69,
        "velocity": 50,
        "subtype": "noteOn"
      },
      {
        "deltaTime": 250,
        "channel": 5,
        "type": "channel",
        "subtype": "noteOff",
        "noteNumber": 69,
        "velocity": 50
      },
      {
        "deltaTime": 0,
        "channel": 5,
        "type": "channel",
        "subtype": "noteOff",
        "noteNumber": 42,
        "velocity": 70
      },
      {
        "deltaTime": 0,
        "channel": 5,
        "type": "channel",
        "subtype": "noteOff",
        "noteNumber": 35,
        "velocity": 70
      },
      {
        "deltaTime": 250,
        "channel": 5,
        "type": "channel",
        "noteNumber": 35,
        "velocity": 100,
        "subtype": "noteOn"
      },
      {
        "deltaTime": 0,
        "channel": 5,
        "type": "channel",
        "noteNumber": 42,
        "velocity": 90,
        "subtype": "noteOn"
      },
      {
        "deltaTime": 0,
        "channel": 5,
        "type": "channel",
        "noteNumber": 70,
        "velocity": 80,
        "subtype": "noteOn"
      },
      {
        "deltaTime": 250,
        "channel": 5,
        "type": "channel",
        "subtype": "noteOff",
        "noteNumber": 70,
        "velocity": 80
      },
      {
        "deltaTime": 0,
        "channel": 5,
        "type": "channel",
        "subtype": "noteOff",
        "noteNumber": 42,
        "velocity": 90
      },
      {
        "deltaTime": 0,
        "channel": 5,
        "type": "channel",
        "subtype": "noteOff",
        "noteNumber": 35,
        "velocity": 100
      },
      {
        "deltaTime": 250,
        "channel": 5,
        "type": "channel",
        "noteNumber": 42,
        "velocity": 70,
        "subtype": "noteOn"
      },
      {
        "deltaTime": 0,
        "channel": 5,
        "type": "channel",
        "noteNumber": 69,
        "velocity": 50,
        "subtype": "noteOn"
      },
      {
        "deltaTime": 58,
        "channel": 5,
        "type": "channel",
        "noteNumber": 37,
        "velocity": 106,
        "subtype": "noteOn"
      },
      {
        "deltaTime": 166,
        "channel": 5,
        "type": "channel",
        "subtype": "noteOff",
        "noteNumber": 37,
        "velocity": 106
      },
      {
        "deltaTime": 26,
        "channel": 5,
        "type": "channel",
        "subtype": "noteOff",
        "noteNumber": 69,
        "velocity": 50
      },
      {
        "deltaTime": 0,
        "channel": 5,
        "type": "channel",
        "subtype": "noteOff",
        "noteNumber": 42,
        "velocity": 70
      },
      {
        "deltaTime": 250,
        "channel": 5,
        "type": "channel",
        "noteNumber": 42,
        "velocity": 70,
        "subtype": "noteOn"
      },
      {
        "deltaTime": 0,
        "channel": 5,
        "type": "channel",
        "noteNumber": 70,
        "velocity": 80,
        "subtype": "noteOn"
      },
      {
        "deltaTime": 250,
        "channel": 5,
        "type": "channel",
        "subtype": "noteOff",
        "noteNumber": 70,
        "velocity": 80
      },
      {
        "deltaTime": 0,
        "channel": 5,
        "type": "channel",
        "subtype": "noteOff",
        "noteNumber": 42,
        "velocity": 70
      },
      {
        "deltaTime": 250,
        "channel": 5,
        "type": "channel",
        "noteNumber": 45,
        "velocity": 50,
        "subtype": "noteOn"
      },
      {
        "deltaTime": 0,
        "channel": 5,
        "type": "channel",
        "noteNumber": 42,
        "velocity": 70,
        "subtype": "noteOn"
      },
      {
        "deltaTime": 0,
        "channel": 5,
        "type": "channel",
        "noteNumber": 35,
        "velocity": 70,
        "subtype": "noteOn"
      },
      {
        "deltaTime": 0,
        "channel": 5,
        "type": "channel",
        "noteNumber": 69,
        "velocity": 50,
        "subtype": "noteOn"
      },
      {
        "deltaTime": 250,
        "channel": 5,
        "type": "channel",
        "subtype": "noteOff",
        "noteNumber": 69,
        "velocity": 50
      },
      {
        "deltaTime": 0,
        "channel": 5,
        "type": "channel",
        "subtype": "noteOff",
        "noteNumber": 35,
        "velocity": 70
      },
      {
        "deltaTime": 0,
        "channel": 5,
        "type": "channel",
        "subtype": "noteOff",
        "noteNumber": 42,
        "velocity": 70
      },
      {
        "deltaTime": 0,
        "channel": 5,
        "type": "channel",
        "subtype": "noteOff",
        "noteNumber": 45,
        "velocity": 50
      },
      {
        "deltaTime": 250,
        "channel": 5,
        "type": "channel",
        "noteNumber": 70,
        "velocity": 80,
        "subtype": "noteOn"
      },
      {
        "deltaTime": 0,
        "channel": 5,
        "type": "channel",
        "noteNumber": 42,
        "velocity": 90,
        "subtype": "noteOn"
      },
      {
        "deltaTime": 0,
        "channel": 5,
        "type": "channel",
        "noteNumber": 35,
        "velocity": 100,
        "subtype": "noteOn"
      },
      {
        "deltaTime": 16,
        "channel": 5,
        "type": "channel",
        "noteNumber": 37,
        "velocity": 108,
        "subtype": "noteOn"
      },
      {
        "deltaTime": 172,
        "channel": 5,
        "type": "channel",
        "subtype": "noteOff",
        "noteNumber": 37,
        "velocity": 108
      },
      {
        "deltaTime": 62,
        "channel": 5,
        "type": "channel",
        "subtype": "noteOff",
        "noteNumber": 35,
        "velocity": 100
      },
      {
        "deltaTime": 0,
        "channel": 5,
        "type": "channel",
        "subtype": "noteOff",
        "noteNumber": 42,
        "velocity": 90
      },
      {
        "deltaTime": 0,
        "channel": 5,
        "type": "channel",
        "subtype": "noteOff",
        "noteNumber": 70,
        "velocity": 80
      },
      {
        "deltaTime": 250,
        "channel": 5,
        "type": "channel",
        "noteNumber": 42,
        "velocity": 70,
        "subtype": "noteOn"
      },
      {
        "deltaTime": 0,
        "channel": 5,
        "type": "channel",
        "noteNumber": 69,
        "velocity": 50,
        "subtype": "noteOn"
      },
      {
        "deltaTime": 250,
        "channel": 5,
        "type": "channel",
        "subtype": "noteOff",
        "noteNumber": 69,
        "velocity": 50
      },
      {
        "deltaTime": 0,
        "channel": 5,
        "type": "channel",
        "subtype": "noteOff",
        "noteNumber": 42,
        "velocity": 70
      },
      {
        "deltaTime": 250,
        "channel": 5,
        "type": "channel",
        "noteNumber": 42,
        "velocity": 70,
        "subtype": "noteOn"
      },
      {
        "deltaTime": 0,
        "channel": 5,
        "type": "channel",
        "noteNumber": 70,
        "velocity": 80,
        "subtype": "noteOn"
      },
      {
        "deltaTime": 48,
        "channel": 5,
        "type": "channel",
        "noteNumber": 37,
        "velocity": 108,
        "subtype": "noteOn"
      },
      {
        "deltaTime": 170,
        "channel": 5,
        "type": "channel",
        "subtype": "noteOff",
        "noteNumber": 37,
        "velocity": 108
      },
      {
        "deltaTime": 32,
        "channel": 5,
        "type": "channel",
        "subtype": "noteOff",
        "noteNumber": 70,
        "velocity": 80
      },
      {
        "deltaTime": 0,
        "channel": 5,
        "type": "channel",
        "subtype": "noteOff",
        "noteNumber": 42,
        "velocity": 70
      },
      {
        "deltaTime": 0,
        "channel": 5,
        "type": "channel",
        "noteNumber": 42,
        "velocity": 80,
        "subtype": "noteOn"
      },
      {
        "deltaTime": 250,
        "channel": 5,
        "type": "channel",
        "subtype": "noteOff",
        "noteNumber": 42,
        "velocity": 80
      },
      {
        "deltaTime": 0,
        "channel": 5,
        "type": "channel",
        "noteNumber": 35,
        "velocity": 70,
        "subtype": "noteOn"
      },
      {
        "deltaTime": 0,
        "channel": 5,
        "type": "channel",
        "noteNumber": 42,
        "velocity": 70,
        "subtype": "noteOn"
      },
      {
        "deltaTime": 0,
        "channel": 5,
        "type": "channel",
        "noteNumber": 69,
        "velocity": 50,
        "subtype": "noteOn"
      },
      {
        "deltaTime": 250,
        "channel": 5,
        "type": "channel",
        "subtype": "noteOff",
        "noteNumber": 69,
        "velocity": 50
      },
      {
        "deltaTime": 0,
        "channel": 5,
        "type": "channel",
        "subtype": "noteOff",
        "noteNumber": 42,
        "velocity": 70
      },
      {
        "deltaTime": 0,
        "channel": 5,
        "type": "channel",
        "subtype": "noteOff",
        "noteNumber": 35,
        "velocity": 70
      },
      {
        "deltaTime": 250,
        "channel": 5,
        "type": "channel",
        "noteNumber": 35,
        "velocity": 100,
        "subtype": "noteOn"
      },
      {
        "deltaTime": 0,
        "channel": 5,
        "type": "channel",
        "noteNumber": 42,
        "velocity": 90,
        "subtype": "noteOn"
      },
      {
        "deltaTime": 0,
        "channel": 5,
        "type": "channel",
        "noteNumber": 70,
        "velocity": 80,
        "subtype": "noteOn"
      },
      {
        "deltaTime": 250,
        "channel": 5,
        "type": "channel",
        "subtype": "noteOff",
        "noteNumber": 70,
        "velocity": 80
      },
      {
        "deltaTime": 0,
        "channel": 5,
        "type": "channel",
        "subtype": "noteOff",
        "noteNumber": 42,
        "velocity": 90
      },
      {
        "deltaTime": 0,
        "channel": 5,
        "type": "channel",
        "subtype": "noteOff",
        "noteNumber": 35,
        "velocity": 100
      },
      {
        "deltaTime": 250,
        "channel": 5,
        "type": "channel",
        "noteNumber": 42,
        "velocity": 70,
        "subtype": "noteOn"
      },
      {
        "deltaTime": 0,
        "channel": 5,
        "type": "channel",
        "noteNumber": 69,
        "velocity": 50,
        "subtype": "noteOn"
      },
      {
        "deltaTime": 58,
        "channel": 5,
        "type": "channel",
        "noteNumber": 37,
        "velocity": 106,
        "subtype": "noteOn"
      },
      {
        "deltaTime": 166,
        "channel": 5,
        "type": "channel",
        "subtype": "noteOff",
        "noteNumber": 37,
        "velocity": 106
      },
      {
        "deltaTime": 26,
        "channel": 5,
        "type": "channel",
        "subtype": "noteOff",
        "noteNumber": 69,
        "velocity": 50
      },
      {
        "deltaTime": 0,
        "channel": 5,
        "type": "channel",
        "subtype": "noteOff",
        "noteNumber": 42,
        "velocity": 70
      },
      {
        "deltaTime": 250,
        "channel": 5,
        "type": "channel",
        "noteNumber": 42,
        "velocity": 70,
        "subtype": "noteOn"
      },
      {
        "deltaTime": 0,
        "channel": 5,
        "type": "channel",
        "noteNumber": 70,
        "velocity": 80,
        "subtype": "noteOn"
      },
      {
        "deltaTime": 250,
        "channel": 5,
        "type": "channel",
        "subtype": "noteOff",
        "noteNumber": 70,
        "velocity": 80
      },
      {
        "deltaTime": 0,
        "channel": 5,
        "type": "channel",
        "subtype": "noteOff",
        "noteNumber": 42,
        "velocity": 70
      },
      {
        "deltaTime": 250,
        "channel": 5,
        "type": "channel",
        "noteNumber": 35,
        "velocity": 70,
        "subtype": "noteOn"
      },
      {
        "deltaTime": 0,
        "channel": 5,
        "type": "channel",
        "noteNumber": 42,
        "velocity": 70,
        "subtype": "noteOn"
      },
      {
        "deltaTime": 0,
        "channel": 5,
        "type": "channel",
        "noteNumber": 69,
        "velocity": 50,
        "subtype": "noteOn"
      },
      {
        "deltaTime": 250,
        "channel": 5,
        "type": "channel",
        "subtype": "noteOff",
        "noteNumber": 69,
        "velocity": 50
      },
      {
        "deltaTime": 0,
        "channel": 5,
        "type": "channel",
        "subtype": "noteOff",
        "noteNumber": 42,
        "velocity": 70
      },
      {
        "deltaTime": 0,
        "channel": 5,
        "type": "channel",
        "subtype": "noteOff",
        "noteNumber": 35,
        "velocity": 70
      },
      {
        "deltaTime": 250,
        "channel": 5,
        "type": "channel",
        "noteNumber": 70,
        "velocity": 80,
        "subtype": "noteOn"
      },
      {
        "deltaTime": 0,
        "channel": 5,
        "type": "channel",
        "noteNumber": 42,
        "velocity": 90,
        "subtype": "noteOn"
      },
      {
        "deltaTime": 0,
        "channel": 5,
        "type": "channel",
        "noteNumber": 35,
        "velocity": 100,
        "subtype": "noteOn"
      },
      {
        "deltaTime": 16,
        "channel": 5,
        "type": "channel",
        "noteNumber": 37,
        "velocity": 108,
        "subtype": "noteOn"
      },
      {
        "deltaTime": 172,
        "channel": 5,
        "type": "channel",
        "subtype": "noteOff",
        "noteNumber": 37,
        "velocity": 108
      },
      {
        "deltaTime": 62,
        "channel": 5,
        "type": "channel",
        "subtype": "noteOff",
        "noteNumber": 35,
        "velocity": 100
      },
      {
        "deltaTime": 0,
        "channel": 5,
        "type": "channel",
        "subtype": "noteOff",
        "noteNumber": 42,
        "velocity": 90
      },
      {
        "deltaTime": 0,
        "channel": 5,
        "type": "channel",
        "subtype": "noteOff",
        "noteNumber": 70,
        "velocity": 80
      },
      {
        "deltaTime": 250,
        "channel": 5,
        "type": "channel",
        "noteNumber": 42,
        "velocity": 70,
        "subtype": "noteOn"
      },
      {
        "deltaTime": 0,
        "channel": 5,
        "type": "channel",
        "noteNumber": 69,
        "velocity": 50,
        "subtype": "noteOn"
      },
      {
        "deltaTime": 250,
        "channel": 5,
        "type": "channel",
        "subtype": "noteOff",
        "noteNumber": 69,
        "velocity": 50
      },
      {
        "deltaTime": 0,
        "channel": 5,
        "type": "channel",
        "subtype": "noteOff",
        "noteNumber": 42,
        "velocity": 70
      },
      {
        "deltaTime": 250,
        "channel": 5,
        "type": "channel",
        "noteNumber": 42,
        "velocity": 70,
        "subtype": "noteOn"
      },
      {
        "deltaTime": 0,
        "channel": 5,
        "type": "channel",
        "noteNumber": 70,
        "velocity": 80,
        "subtype": "noteOn"
      },
      {
        "deltaTime": 48,
        "channel": 5,
        "type": "channel",
        "noteNumber": 37,
        "velocity": 108,
        "subtype": "noteOn"
      },
      {
        "deltaTime": 170,
        "channel": 5,
        "type": "channel",
        "subtype": "noteOff",
        "noteNumber": 37,
        "velocity": 108
      },
      {
        "deltaTime": 32,
        "channel": 5,
        "type": "channel",
        "subtype": "noteOff",
        "noteNumber": 70,
        "velocity": 80
      },
      {
        "deltaTime": 0,
        "channel": 5,
        "type": "channel",
        "subtype": "noteOff",
        "noteNumber": 42,
        "velocity": 70
      },
      {
        "deltaTime": 250,
        "channel": 5,
        "type": "channel",
        "noteNumber": 35,
        "velocity": 70,
        "subtype": "noteOn"
      },
      {
        "deltaTime": 0,
        "channel": 5,
        "type": "channel",
        "noteNumber": 42,
        "velocity": 70,
        "subtype": "noteOn"
      },
      {
        "deltaTime": 0,
        "channel": 5,
        "type": "channel",
        "noteNumber": 69,
        "velocity": 50,
        "subtype": "noteOn"
      },
      {
        "deltaTime": 250,
        "channel": 5,
        "type": "channel",
        "subtype": "noteOff",
        "noteNumber": 69,
        "velocity": 50
      },
      {
        "deltaTime": 0,
        "channel": 5,
        "type": "channel",
        "subtype": "noteOff",
        "noteNumber": 42,
        "velocity": 70
      },
      {
        "deltaTime": 0,
        "channel": 5,
        "type": "channel",
        "subtype": "noteOff",
        "noteNumber": 35,
        "velocity": 70
      },
      {
        "deltaTime": 250,
        "channel": 5,
        "type": "channel",
        "noteNumber": 35,
        "velocity": 100,
        "subtype": "noteOn"
      },
      {
        "deltaTime": 0,
        "channel": 5,
        "type": "channel",
        "noteNumber": 42,
        "velocity": 90,
        "subtype": "noteOn"
      },
      {
        "deltaTime": 0,
        "channel": 5,
        "type": "channel",
        "noteNumber": 70,
        "velocity": 80,
        "subtype": "noteOn"
      },
      {
        "deltaTime": 250,
        "channel": 5,
        "type": "channel",
        "subtype": "noteOff",
        "noteNumber": 70,
        "velocity": 80
      },
      {
        "deltaTime": 0,
        "channel": 5,
        "type": "channel",
        "subtype": "noteOff",
        "noteNumber": 42,
        "velocity": 90
      },
      {
        "deltaTime": 0,
        "channel": 5,
        "type": "channel",
        "subtype": "noteOff",
        "noteNumber": 35,
        "velocity": 100
      },
      {
        "deltaTime": 250,
        "channel": 5,
        "type": "channel",
        "noteNumber": 42,
        "velocity": 70,
        "subtype": "noteOn"
      },
      {
        "deltaTime": 0,
        "channel": 5,
        "type": "channel",
        "noteNumber": 69,
        "velocity": 50,
        "subtype": "noteOn"
      },
      {
        "deltaTime": 58,
        "channel": 5,
        "type": "channel",
        "noteNumber": 37,
        "velocity": 106,
        "subtype": "noteOn"
      },
      {
        "deltaTime": 166,
        "channel": 5,
        "type": "channel",
        "subtype": "noteOff",
        "noteNumber": 37,
        "velocity": 106
      },
      {
        "deltaTime": 26,
        "channel": 5,
        "type": "channel",
        "subtype": "noteOff",
        "noteNumber": 69,
        "velocity": 50
      },
      {
        "deltaTime": 0,
        "channel": 5,
        "type": "channel",
        "subtype": "noteOff",
        "noteNumber": 42,
        "velocity": 70
      },
      {
        "deltaTime": 250,
        "channel": 5,
        "type": "channel",
        "noteNumber": 42,
        "velocity": 70,
        "subtype": "noteOn"
      },
      {
        "deltaTime": 0,
        "channel": 5,
        "type": "channel",
        "noteNumber": 70,
        "velocity": 80,
        "subtype": "noteOn"
      },
      {
        "deltaTime": 250,
        "channel": 5,
        "type": "channel",
        "subtype": "noteOff",
        "noteNumber": 70,
        "velocity": 80
      },
      {
        "deltaTime": 0,
        "channel": 5,
        "type": "channel",
        "subtype": "noteOff",
        "noteNumber": 42,
        "velocity": 70
      },
      {
        "deltaTime": 250,
        "channel": 5,
        "type": "channel",
        "noteNumber": 35,
        "velocity": 70,
        "subtype": "noteOn"
      },
      {
        "deltaTime": 0,
        "channel": 5,
        "type": "channel",
        "noteNumber": 46,
        "velocity": 72,
        "subtype": "noteOn"
      },
      {
        "deltaTime": 0,
        "channel": 5,
        "type": "channel",
        "noteNumber": 69,
        "velocity": 50,
        "subtype": "noteOn"
      },
      {
        "deltaTime": 250,
        "channel": 5,
        "type": "channel",
        "subtype": "noteOff",
        "noteNumber": 69,
        "velocity": 50
      },
      {
        "deltaTime": 0,
        "channel": 5,
        "type": "channel",
        "subtype": "noteOff",
        "noteNumber": 46,
        "velocity": 72
      },
      {
        "deltaTime": 0,
        "channel": 5,
        "type": "channel",
        "subtype": "noteOff",
        "noteNumber": 35,
        "velocity": 70
      },
      {
        "deltaTime": 250,
        "channel": 5,
        "type": "channel",
        "noteNumber": 70,
        "velocity": 80,
        "subtype": "noteOn"
      },
      {
        "deltaTime": 0,
        "channel": 5,
        "type": "channel",
        "noteNumber": 42,
        "velocity": 90,
        "subtype": "noteOn"
      },
      {
        "deltaTime": 0,
        "channel": 5,
        "type": "channel",
        "noteNumber": 35,
        "velocity": 100,
        "subtype": "noteOn"
      },
      {
        "deltaTime": 16,
        "channel": 5,
        "type": "channel",
        "noteNumber": 37,
        "velocity": 108,
        "subtype": "noteOn"
      },
      {
        "deltaTime": 172,
        "channel": 5,
        "type": "channel",
        "subtype": "noteOff",
        "noteNumber": 37,
        "velocity": 108
      },
      {
        "deltaTime": 62,
        "channel": 5,
        "type": "channel",
        "subtype": "noteOff",
        "noteNumber": 35,
        "velocity": 100
      },
      {
        "deltaTime": 0,
        "channel": 5,
        "type": "channel",
        "subtype": "noteOff",
        "noteNumber": 42,
        "velocity": 90
      },
      {
        "deltaTime": 0,
        "channel": 5,
        "type": "channel",
        "subtype": "noteOff",
        "noteNumber": 70,
        "velocity": 80
      },
      {
        "deltaTime": 250,
        "channel": 5,
        "type": "channel",
        "noteNumber": 42,
        "velocity": 70,
        "subtype": "noteOn"
      },
      {
        "deltaTime": 0,
        "channel": 5,
        "type": "channel",
        "noteNumber": 69,
        "velocity": 50,
        "subtype": "noteOn"
      },
      {
        "deltaTime": 250,
        "channel": 5,
        "type": "channel",
        "subtype": "noteOff",
        "noteNumber": 69,
        "velocity": 50
      },
      {
        "deltaTime": 0,
        "channel": 5,
        "type": "channel",
        "subtype": "noteOff",
        "noteNumber": 42,
        "velocity": 70
      },
      {
        "deltaTime": 250,
        "channel": 5,
        "type": "channel",
        "noteNumber": 42,
        "velocity": 70,
        "subtype": "noteOn"
      },
      {
        "deltaTime": 0,
        "channel": 5,
        "type": "channel",
        "noteNumber": 70,
        "velocity": 80,
        "subtype": "noteOn"
      },
      {
        "deltaTime": 48,
        "channel": 5,
        "type": "channel",
        "noteNumber": 37,
        "velocity": 108,
        "subtype": "noteOn"
      },
      {
        "deltaTime": 170,
        "channel": 5,
        "type": "channel",
        "subtype": "noteOff",
        "noteNumber": 37,
        "velocity": 108
      },
      {
        "deltaTime": 32,
        "channel": 5,
        "type": "channel",
        "subtype": "noteOff",
        "noteNumber": 70,
        "velocity": 80
      },
      {
        "deltaTime": 0,
        "channel": 5,
        "type": "channel",
        "subtype": "noteOff",
        "noteNumber": 42,
        "velocity": 70
      },
      {
        "deltaTime": 250,
        "channel": 5,
        "type": "channel",
        "noteNumber": 35,
        "velocity": 70,
        "subtype": "noteOn"
      },
      {
        "deltaTime": 0,
        "channel": 5,
        "type": "channel",
        "noteNumber": 42,
        "velocity": 70,
        "subtype": "noteOn"
      },
      {
        "deltaTime": 0,
        "channel": 5,
        "type": "channel",
        "noteNumber": 69,
        "velocity": 50,
        "subtype": "noteOn"
      },
      {
        "deltaTime": 250,
        "channel": 5,
        "type": "channel",
        "subtype": "noteOff",
        "noteNumber": 69,
        "velocity": 50
      },
      {
        "deltaTime": 0,
        "channel": 5,
        "type": "channel",
        "subtype": "noteOff",
        "noteNumber": 42,
        "velocity": 70
      },
      {
        "deltaTime": 0,
        "channel": 5,
        "type": "channel",
        "subtype": "noteOff",
        "noteNumber": 35,
        "velocity": 70
      },
      {
        "deltaTime": 250,
        "channel": 5,
        "type": "channel",
        "noteNumber": 35,
        "velocity": 100,
        "subtype": "noteOn"
      },
      {
        "deltaTime": 0,
        "channel": 5,
        "type": "channel",
        "noteNumber": 42,
        "velocity": 90,
        "subtype": "noteOn"
      },
      {
        "deltaTime": 0,
        "channel": 5,
        "type": "channel",
        "noteNumber": 70,
        "velocity": 80,
        "subtype": "noteOn"
      },
      {
        "deltaTime": 250,
        "channel": 5,
        "type": "channel",
        "subtype": "noteOff",
        "noteNumber": 70,
        "velocity": 80
      },
      {
        "deltaTime": 0,
        "channel": 5,
        "type": "channel",
        "subtype": "noteOff",
        "noteNumber": 42,
        "velocity": 90
      },
      {
        "deltaTime": 0,
        "channel": 5,
        "type": "channel",
        "subtype": "noteOff",
        "noteNumber": 35,
        "velocity": 100
      },
      {
        "deltaTime": 250,
        "channel": 5,
        "type": "channel",
        "noteNumber": 46,
        "velocity": 72,
        "subtype": "noteOn"
      },
      {
        "deltaTime": 0,
        "channel": 5,
        "type": "channel",
        "noteNumber": 69,
        "velocity": 50,
        "subtype": "noteOn"
      },
      {
        "deltaTime": 58,
        "channel": 5,
        "type": "channel",
        "noteNumber": 37,
        "velocity": 106,
        "subtype": "noteOn"
      },
      {
        "deltaTime": 166,
        "channel": 5,
        "type": "channel",
        "subtype": "noteOff",
        "noteNumber": 37,
        "velocity": 106
      },
      {
        "deltaTime": 26,
        "channel": 5,
        "type": "channel",
        "subtype": "noteOff",
        "noteNumber": 69,
        "velocity": 50
      },
      {
        "deltaTime": 0,
        "channel": 5,
        "type": "channel",
        "subtype": "noteOff",
        "noteNumber": 46,
        "velocity": 72
      },
      {
        "deltaTime": 250,
        "channel": 5,
        "type": "channel",
        "noteNumber": 42,
        "velocity": 70,
        "subtype": "noteOn"
      },
      {
        "deltaTime": 0,
        "channel": 5,
        "type": "channel",
        "noteNumber": 70,
        "velocity": 80,
        "subtype": "noteOn"
      },
      {
        "deltaTime": 250,
        "channel": 5,
        "type": "channel",
        "subtype": "noteOff",
        "noteNumber": 70,
        "velocity": 80
      },
      {
        "deltaTime": 0,
        "channel": 5,
        "type": "channel",
        "subtype": "noteOff",
        "noteNumber": 42,
        "velocity": 70
      },
      {
        "deltaTime": 250,
        "channel": 5,
        "type": "channel",
        "noteNumber": 35,
        "velocity": 70,
        "subtype": "noteOn"
      },
      {
        "deltaTime": 0,
        "channel": 5,
        "type": "channel",
        "noteNumber": 42,
        "velocity": 70,
        "subtype": "noteOn"
      },
      {
        "deltaTime": 0,
        "channel": 5,
        "type": "channel",
        "noteNumber": 69,
        "velocity": 50,
        "subtype": "noteOn"
      },
      {
        "deltaTime": 250,
        "channel": 5,
        "type": "channel",
        "subtype": "noteOff",
        "noteNumber": 69,
        "velocity": 50
      },
      {
        "deltaTime": 0,
        "channel": 5,
        "type": "channel",
        "subtype": "noteOff",
        "noteNumber": 42,
        "velocity": 70
      },
      {
        "deltaTime": 0,
        "channel": 5,
        "type": "channel",
        "subtype": "noteOff",
        "noteNumber": 35,
        "velocity": 70
      },
      {
        "deltaTime": 250,
        "channel": 5,
        "type": "channel",
        "noteNumber": 70,
        "velocity": 80,
        "subtype": "noteOn"
      },
      {
        "deltaTime": 0,
        "channel": 5,
        "type": "channel",
        "noteNumber": 42,
        "velocity": 90,
        "subtype": "noteOn"
      },
      {
        "deltaTime": 0,
        "channel": 5,
        "type": "channel",
        "noteNumber": 35,
        "velocity": 100,
        "subtype": "noteOn"
      },
      {
        "deltaTime": 16,
        "channel": 5,
        "type": "channel",
        "noteNumber": 37,
        "velocity": 108,
        "subtype": "noteOn"
      },
      {
        "deltaTime": 172,
        "channel": 5,
        "type": "channel",
        "subtype": "noteOff",
        "noteNumber": 37,
        "velocity": 108
      },
      {
        "deltaTime": 62,
        "channel": 5,
        "type": "channel",
        "subtype": "noteOff",
        "noteNumber": 35,
        "velocity": 100
      },
      {
        "deltaTime": 0,
        "channel": 5,
        "type": "channel",
        "subtype": "noteOff",
        "noteNumber": 42,
        "velocity": 90
      },
      {
        "deltaTime": 0,
        "channel": 5,
        "type": "channel",
        "subtype": "noteOff",
        "noteNumber": 70,
        "velocity": 80
      },
      {
        "deltaTime": 250,
        "channel": 5,
        "type": "channel",
        "noteNumber": 42,
        "velocity": 70,
        "subtype": "noteOn"
      },
      {
        "deltaTime": 0,
        "channel": 5,
        "type": "channel",
        "noteNumber": 69,
        "velocity": 50,
        "subtype": "noteOn"
      },
      {
        "deltaTime": 250,
        "channel": 5,
        "type": "channel",
        "subtype": "noteOff",
        "noteNumber": 69,
        "velocity": 50
      },
      {
        "deltaTime": 0,
        "channel": 5,
        "type": "channel",
        "subtype": "noteOff",
        "noteNumber": 42,
        "velocity": 70
      },
      {
        "deltaTime": 250,
        "channel": 5,
        "type": "channel",
        "noteNumber": 42,
        "velocity": 70,
        "subtype": "noteOn"
      },
      {
        "deltaTime": 0,
        "channel": 5,
        "type": "channel",
        "noteNumber": 70,
        "velocity": 80,
        "subtype": "noteOn"
      },
      {
        "deltaTime": 48,
        "channel": 5,
        "type": "channel",
        "noteNumber": 37,
        "velocity": 108,
        "subtype": "noteOn"
      },
      {
        "deltaTime": 170,
        "channel": 5,
        "type": "channel",
        "subtype": "noteOff",
        "noteNumber": 37,
        "velocity": 108
      },
      {
        "deltaTime": 32,
        "channel": 5,
        "type": "channel",
        "subtype": "noteOff",
        "noteNumber": 70,
        "velocity": 80
      },
      {
        "deltaTime": 0,
        "channel": 5,
        "type": "channel",
        "subtype": "noteOff",
        "noteNumber": 42,
        "velocity": 70
      },
      {
        "deltaTime": 250,
        "channel": 5,
        "type": "channel",
        "noteNumber": 48,
        "velocity": 50,
        "subtype": "noteOn"
      },
      {
        "deltaTime": 0,
        "channel": 5,
        "type": "channel",
        "noteNumber": 42,
        "velocity": 70,
        "subtype": "noteOn"
      },
      {
        "deltaTime": 0,
        "channel": 5,
        "type": "channel",
        "noteNumber": 35,
        "velocity": 70,
        "subtype": "noteOn"
      },
      {
        "deltaTime": 0,
        "channel": 5,
        "type": "channel",
        "noteNumber": 69,
        "velocity": 50,
        "subtype": "noteOn"
      },
      {
        "deltaTime": 250,
        "channel": 5,
        "type": "channel",
        "subtype": "noteOff",
        "noteNumber": 69,
        "velocity": 50
      },
      {
        "deltaTime": 0,
        "channel": 5,
        "type": "channel",
        "subtype": "noteOff",
        "noteNumber": 35,
        "velocity": 70
      },
      {
        "deltaTime": 0,
        "channel": 5,
        "type": "channel",
        "subtype": "noteOff",
        "noteNumber": 42,
        "velocity": 70
      },
      {
        "deltaTime": 0,
        "channel": 5,
        "type": "channel",
        "subtype": "noteOff",
        "noteNumber": 48,
        "velocity": 50
      },
      {
        "deltaTime": 250,
        "channel": 5,
        "type": "channel",
        "noteNumber": 35,
        "velocity": 100,
        "subtype": "noteOn"
      },
      {
        "deltaTime": 0,
        "channel": 5,
        "type": "channel",
        "noteNumber": 42,
        "velocity": 90,
        "subtype": "noteOn"
      },
      {
        "deltaTime": 0,
        "channel": 5,
        "type": "channel",
        "noteNumber": 70,
        "velocity": 80,
        "subtype": "noteOn"
      },
      {
        "deltaTime": 250,
        "channel": 5,
        "type": "channel",
        "subtype": "noteOff",
        "noteNumber": 70,
        "velocity": 80
      },
      {
        "deltaTime": 0,
        "channel": 5,
        "type": "channel",
        "subtype": "noteOff",
        "noteNumber": 42,
        "velocity": 90
      },
      {
        "deltaTime": 0,
        "channel": 5,
        "type": "channel",
        "subtype": "noteOff",
        "noteNumber": 35,
        "velocity": 100
      },
      {
        "deltaTime": 250,
        "channel": 5,
        "type": "channel",
        "noteNumber": 42,
        "velocity": 70,
        "subtype": "noteOn"
      },
      {
        "deltaTime": 0,
        "channel": 5,
        "type": "channel",
        "noteNumber": 69,
        "velocity": 50,
        "subtype": "noteOn"
      },
      {
        "deltaTime": 58,
        "channel": 5,
        "type": "channel",
        "noteNumber": 37,
        "velocity": 106,
        "subtype": "noteOn"
      },
      {
        "deltaTime": 166,
        "channel": 5,
        "type": "channel",
        "subtype": "noteOff",
        "noteNumber": 37,
        "velocity": 106
      },
      {
        "deltaTime": 26,
        "channel": 5,
        "type": "channel",
        "subtype": "noteOff",
        "noteNumber": 69,
        "velocity": 50
      },
      {
        "deltaTime": 0,
        "channel": 5,
        "type": "channel",
        "subtype": "noteOff",
        "noteNumber": 42,
        "velocity": 70
      },
      {
        "deltaTime": 250,
        "channel": 5,
        "type": "channel",
        "noteNumber": 42,
        "velocity": 70,
        "subtype": "noteOn"
      },
      {
        "deltaTime": 0,
        "channel": 5,
        "type": "channel",
        "noteNumber": 70,
        "velocity": 80,
        "subtype": "noteOn"
      },
      {
        "deltaTime": 250,
        "channel": 5,
        "type": "channel",
        "subtype": "noteOff",
        "noteNumber": 70,
        "velocity": 80
      },
      {
        "deltaTime": 0,
        "channel": 5,
        "type": "channel",
        "subtype": "noteOff",
        "noteNumber": 42,
        "velocity": 70
      },
      {
        "deltaTime": 250,
        "channel": 5,
        "type": "channel",
        "noteNumber": 35,
        "velocity": 70,
        "subtype": "noteOn"
      },
      {
        "deltaTime": 0,
        "channel": 5,
        "type": "channel",
        "noteNumber": 42,
        "velocity": 70,
        "subtype": "noteOn"
      },
      {
        "deltaTime": 0,
        "channel": 5,
        "type": "channel",
        "noteNumber": 69,
        "velocity": 50,
        "subtype": "noteOn"
      },
      {
        "deltaTime": 250,
        "channel": 5,
        "type": "channel",
        "subtype": "noteOff",
        "noteNumber": 69,
        "velocity": 50
      },
      {
        "deltaTime": 0,
        "channel": 5,
        "type": "channel",
        "subtype": "noteOff",
        "noteNumber": 42,
        "velocity": 70
      },
      {
        "deltaTime": 0,
        "channel": 5,
        "type": "channel",
        "subtype": "noteOff",
        "noteNumber": 35,
        "velocity": 70
      },
      {
        "deltaTime": 250,
        "channel": 5,
        "type": "channel",
        "noteNumber": 70,
        "velocity": 80,
        "subtype": "noteOn"
      },
      {
        "deltaTime": 0,
        "channel": 5,
        "type": "channel",
        "noteNumber": 42,
        "velocity": 90,
        "subtype": "noteOn"
      },
      {
        "deltaTime": 0,
        "channel": 5,
        "type": "channel",
        "noteNumber": 35,
        "velocity": 100,
        "subtype": "noteOn"
      },
      {
        "deltaTime": 16,
        "channel": 5,
        "type": "channel",
        "noteNumber": 37,
        "velocity": 108,
        "subtype": "noteOn"
      },
      {
        "deltaTime": 172,
        "channel": 5,
        "type": "channel",
        "subtype": "noteOff",
        "noteNumber": 37,
        "velocity": 108
      },
      {
        "deltaTime": 62,
        "channel": 5,
        "type": "channel",
        "subtype": "noteOff",
        "noteNumber": 35,
        "velocity": 100
      },
      {
        "deltaTime": 0,
        "channel": 5,
        "type": "channel",
        "subtype": "noteOff",
        "noteNumber": 42,
        "velocity": 90
      },
      {
        "deltaTime": 0,
        "channel": 5,
        "type": "channel",
        "subtype": "noteOff",
        "noteNumber": 70,
        "velocity": 80
      },
      {
        "deltaTime": 250,
        "channel": 5,
        "type": "channel",
        "noteNumber": 42,
        "velocity": 70,
        "subtype": "noteOn"
      },
      {
        "deltaTime": 0,
        "channel": 5,
        "type": "channel",
        "noteNumber": 69,
        "velocity": 50,
        "subtype": "noteOn"
      },
      {
        "deltaTime": 250,
        "channel": 5,
        "type": "channel",
        "subtype": "noteOff",
        "noteNumber": 69,
        "velocity": 50
      },
      {
        "deltaTime": 0,
        "channel": 5,
        "type": "channel",
        "subtype": "noteOff",
        "noteNumber": 42,
        "velocity": 70
      },
      {
        "deltaTime": 250,
        "channel": 5,
        "type": "channel",
        "noteNumber": 42,
        "velocity": 70,
        "subtype": "noteOn"
      },
      {
        "deltaTime": 0,
        "channel": 5,
        "type": "channel",
        "noteNumber": 70,
        "velocity": 80,
        "subtype": "noteOn"
      },
      {
        "deltaTime": 48,
        "channel": 5,
        "type": "channel",
        "noteNumber": 37,
        "velocity": 108,
        "subtype": "noteOn"
      },
      {
        "deltaTime": 170,
        "channel": 5,
        "type": "channel",
        "subtype": "noteOff",
        "noteNumber": 37,
        "velocity": 108
      },
      {
        "deltaTime": 32,
        "channel": 5,
        "type": "channel",
        "subtype": "noteOff",
        "noteNumber": 70,
        "velocity": 80
      },
      {
        "deltaTime": 0,
        "channel": 5,
        "type": "channel",
        "subtype": "noteOff",
        "noteNumber": 42,
        "velocity": 70
      },
      {
        "deltaTime": 250,
        "channel": 5,
        "type": "channel",
        "noteNumber": 35,
        "velocity": 70,
        "subtype": "noteOn"
      },
      {
        "deltaTime": 0,
        "channel": 5,
        "type": "channel",
        "noteNumber": 42,
        "velocity": 70,
        "subtype": "noteOn"
      },
      {
        "deltaTime": 0,
        "channel": 5,
        "type": "channel",
        "noteNumber": 69,
        "velocity": 50,
        "subtype": "noteOn"
      },
      {
        "deltaTime": 250,
        "channel": 5,
        "type": "channel",
        "subtype": "noteOff",
        "noteNumber": 69,
        "velocity": 50
      },
      {
        "deltaTime": 0,
        "channel": 5,
        "type": "channel",
        "subtype": "noteOff",
        "noteNumber": 42,
        "velocity": 70
      },
      {
        "deltaTime": 0,
        "channel": 5,
        "type": "channel",
        "subtype": "noteOff",
        "noteNumber": 35,
        "velocity": 70
      },
      {
        "deltaTime": 250,
        "channel": 5,
        "type": "channel",
        "noteNumber": 35,
        "velocity": 100,
        "subtype": "noteOn"
      },
      {
        "deltaTime": 0,
        "channel": 5,
        "type": "channel",
        "noteNumber": 42,
        "velocity": 90,
        "subtype": "noteOn"
      },
      {
        "deltaTime": 0,
        "channel": 5,
        "type": "channel",
        "noteNumber": 70,
        "velocity": 80,
        "subtype": "noteOn"
      },
      {
        "deltaTime": 250,
        "channel": 5,
        "type": "channel",
        "subtype": "noteOff",
        "noteNumber": 70,
        "velocity": 80
      },
      {
        "deltaTime": 0,
        "channel": 5,
        "type": "channel",
        "subtype": "noteOff",
        "noteNumber": 42,
        "velocity": 90
      },
      {
        "deltaTime": 0,
        "channel": 5,
        "type": "channel",
        "subtype": "noteOff",
        "noteNumber": 35,
        "velocity": 100
      },
      {
        "deltaTime": 250,
        "channel": 5,
        "type": "channel",
        "noteNumber": 46,
        "velocity": 72,
        "subtype": "noteOn"
      },
      {
        "deltaTime": 0,
        "channel": 5,
        "type": "channel",
        "noteNumber": 69,
        "velocity": 50,
        "subtype": "noteOn"
      },
      {
        "deltaTime": 58,
        "channel": 5,
        "type": "channel",
        "noteNumber": 37,
        "velocity": 106,
        "subtype": "noteOn"
      },
      {
        "deltaTime": 166,
        "channel": 5,
        "type": "channel",
        "subtype": "noteOff",
        "noteNumber": 37,
        "velocity": 106
      },
      {
        "deltaTime": 26,
        "channel": 5,
        "type": "channel",
        "subtype": "noteOff",
        "noteNumber": 69,
        "velocity": 50
      },
      {
        "deltaTime": 0,
        "channel": 5,
        "type": "channel",
        "subtype": "noteOff",
        "noteNumber": 46,
        "velocity": 72
      },
      {
        "deltaTime": 250,
        "channel": 5,
        "type": "channel",
        "noteNumber": 42,
        "velocity": 70,
        "subtype": "noteOn"
      },
      {
        "deltaTime": 0,
        "channel": 5,
        "type": "channel",
        "noteNumber": 70,
        "velocity": 80,
        "subtype": "noteOn"
      },
      {
        "deltaTime": 250,
        "channel": 5,
        "type": "channel",
        "subtype": "noteOff",
        "noteNumber": 70,
        "velocity": 80
      },
      {
        "deltaTime": 0,
        "channel": 5,
        "type": "channel",
        "subtype": "noteOff",
        "noteNumber": 42,
        "velocity": 70
      },
      {
        "deltaTime": 250,
        "channel": 5,
        "type": "channel",
        "noteNumber": 35,
        "velocity": 70,
        "subtype": "noteOn"
      },
      {
        "deltaTime": 0,
        "channel": 5,
        "type": "channel",
        "noteNumber": 42,
        "velocity": 70,
        "subtype": "noteOn"
      },
      {
        "deltaTime": 0,
        "channel": 5,
        "type": "channel",
        "noteNumber": 69,
        "velocity": 50,
        "subtype": "noteOn"
      },
      {
        "deltaTime": 250,
        "channel": 5,
        "type": "channel",
        "subtype": "noteOff",
        "noteNumber": 69,
        "velocity": 50
      },
      {
        "deltaTime": 0,
        "channel": 5,
        "type": "channel",
        "subtype": "noteOff",
        "noteNumber": 42,
        "velocity": 70
      },
      {
        "deltaTime": 0,
        "channel": 5,
        "type": "channel",
        "subtype": "noteOff",
        "noteNumber": 35,
        "velocity": 70
      },
      {
        "deltaTime": 250,
        "channel": 5,
        "type": "channel",
        "noteNumber": 70,
        "velocity": 80,
        "subtype": "noteOn"
      },
      {
        "deltaTime": 0,
        "channel": 5,
        "type": "channel",
        "noteNumber": 42,
        "velocity": 90,
        "subtype": "noteOn"
      },
      {
        "deltaTime": 0,
        "channel": 5,
        "type": "channel",
        "noteNumber": 35,
        "velocity": 100,
        "subtype": "noteOn"
      },
      {
        "deltaTime": 16,
        "channel": 5,
        "type": "channel",
        "noteNumber": 37,
        "velocity": 108,
        "subtype": "noteOn"
      },
      {
        "deltaTime": 172,
        "channel": 5,
        "type": "channel",
        "subtype": "noteOff",
        "noteNumber": 37,
        "velocity": 108
      },
      {
        "deltaTime": 62,
        "channel": 5,
        "type": "channel",
        "subtype": "noteOff",
        "noteNumber": 35,
        "velocity": 100
      },
      {
        "deltaTime": 0,
        "channel": 5,
        "type": "channel",
        "subtype": "noteOff",
        "noteNumber": 42,
        "velocity": 90
      },
      {
        "deltaTime": 0,
        "channel": 5,
        "type": "channel",
        "subtype": "noteOff",
        "noteNumber": 70,
        "velocity": 80
      },
      {
        "deltaTime": 250,
        "channel": 5,
        "type": "channel",
        "noteNumber": 42,
        "velocity": 70,
        "subtype": "noteOn"
      },
      {
        "deltaTime": 0,
        "channel": 5,
        "type": "channel",
        "noteNumber": 69,
        "velocity": 50,
        "subtype": "noteOn"
      },
      {
        "deltaTime": 250,
        "channel": 5,
        "type": "channel",
        "subtype": "noteOff",
        "noteNumber": 69,
        "velocity": 50
      },
      {
        "deltaTime": 0,
        "channel": 5,
        "type": "channel",
        "subtype": "noteOff",
        "noteNumber": 42,
        "velocity": 70
      },
      {
        "deltaTime": 250,
        "channel": 5,
        "type": "channel",
        "noteNumber": 42,
        "velocity": 70,
        "subtype": "noteOn"
      },
      {
        "deltaTime": 0,
        "channel": 5,
        "type": "channel",
        "noteNumber": 70,
        "velocity": 80,
        "subtype": "noteOn"
      },
      {
        "deltaTime": 48,
        "channel": 5,
        "type": "channel",
        "noteNumber": 37,
        "velocity": 108,
        "subtype": "noteOn"
      },
      {
        "deltaTime": 170,
        "channel": 5,
        "type": "channel",
        "subtype": "noteOff",
        "noteNumber": 37,
        "velocity": 108
      },
      {
        "deltaTime": 32,
        "channel": 5,
        "type": "channel",
        "subtype": "noteOff",
        "noteNumber": 70,
        "velocity": 80
      },
      {
        "deltaTime": 0,
        "channel": 5,
        "type": "channel",
        "subtype": "noteOff",
        "noteNumber": 42,
        "velocity": 70
      },
      {
        "deltaTime": 250,
        "channel": 5,
        "type": "channel",
        "noteNumber": 35,
        "velocity": 70,
        "subtype": "noteOn"
      },
      {
        "deltaTime": 0,
        "channel": 5,
        "type": "channel",
        "noteNumber": 42,
        "velocity": 70,
        "subtype": "noteOn"
      },
      {
        "deltaTime": 0,
        "channel": 5,
        "type": "channel",
        "noteNumber": 69,
        "velocity": 50,
        "subtype": "noteOn"
      },
      {
        "deltaTime": 250,
        "channel": 5,
        "type": "channel",
        "subtype": "noteOff",
        "noteNumber": 69,
        "velocity": 50
      },
      {
        "deltaTime": 0,
        "channel": 5,
        "type": "channel",
        "subtype": "noteOff",
        "noteNumber": 42,
        "velocity": 70
      },
      {
        "deltaTime": 0,
        "channel": 5,
        "type": "channel",
        "subtype": "noteOff",
        "noteNumber": 35,
        "velocity": 70
      },
      {
        "deltaTime": 250,
        "channel": 5,
        "type": "channel",
        "noteNumber": 35,
        "velocity": 100,
        "subtype": "noteOn"
      },
      {
        "deltaTime": 0,
        "channel": 5,
        "type": "channel",
        "noteNumber": 42,
        "velocity": 90,
        "subtype": "noteOn"
      },
      {
        "deltaTime": 0,
        "channel": 5,
        "type": "channel",
        "noteNumber": 70,
        "velocity": 80,
        "subtype": "noteOn"
      },
      {
        "deltaTime": 250,
        "channel": 5,
        "type": "channel",
        "subtype": "noteOff",
        "noteNumber": 70,
        "velocity": 80
      },
      {
        "deltaTime": 0,
        "channel": 5,
        "type": "channel",
        "subtype": "noteOff",
        "noteNumber": 42,
        "velocity": 90
      },
      {
        "deltaTime": 0,
        "channel": 5,
        "type": "channel",
        "subtype": "noteOff",
        "noteNumber": 35,
        "velocity": 100
      },
      {
        "deltaTime": 250,
        "channel": 5,
        "type": "channel",
        "noteNumber": 42,
        "velocity": 70,
        "subtype": "noteOn"
      },
      {
        "deltaTime": 0,
        "channel": 5,
        "type": "channel",
        "noteNumber": 69,
        "velocity": 50,
        "subtype": "noteOn"
      },
      {
        "deltaTime": 58,
        "channel": 5,
        "type": "channel",
        "noteNumber": 37,
        "velocity": 106,
        "subtype": "noteOn"
      },
      {
        "deltaTime": 166,
        "channel": 5,
        "type": "channel",
        "subtype": "noteOff",
        "noteNumber": 37,
        "velocity": 106
      },
      {
        "deltaTime": 26,
        "channel": 5,
        "type": "channel",
        "subtype": "noteOff",
        "noteNumber": 69,
        "velocity": 50
      },
      {
        "deltaTime": 0,
        "channel": 5,
        "type": "channel",
        "subtype": "noteOff",
        "noteNumber": 42,
        "velocity": 70
      },
      {
        "deltaTime": 250,
        "channel": 5,
        "type": "channel",
        "noteNumber": 42,
        "velocity": 70,
        "subtype": "noteOn"
      },
      {
        "deltaTime": 0,
        "channel": 5,
        "type": "channel",
        "noteNumber": 70,
        "velocity": 80,
        "subtype": "noteOn"
      },
      {
        "deltaTime": 250,
        "channel": 5,
        "type": "channel",
        "subtype": "noteOff",
        "noteNumber": 70,
        "velocity": 80
      },
      {
        "deltaTime": 0,
        "channel": 5,
        "type": "channel",
        "subtype": "noteOff",
        "noteNumber": 42,
        "velocity": 70
      },
      {
        "deltaTime": 250,
        "channel": 5,
        "type": "channel",
        "noteNumber": 35,
        "velocity": 70,
        "subtype": "noteOn"
      },
      {
        "deltaTime": 0,
        "channel": 5,
        "type": "channel",
        "noteNumber": 46,
        "velocity": 72,
        "subtype": "noteOn"
      },
      {
        "deltaTime": 0,
        "channel": 5,
        "type": "channel",
        "noteNumber": 69,
        "velocity": 50,
        "subtype": "noteOn"
      },
      {
        "deltaTime": 250,
        "channel": 5,
        "type": "channel",
        "subtype": "noteOff",
        "noteNumber": 69,
        "velocity": 50
      },
      {
        "deltaTime": 0,
        "channel": 5,
        "type": "channel",
        "subtype": "noteOff",
        "noteNumber": 46,
        "velocity": 72
      },
      {
        "deltaTime": 0,
        "channel": 5,
        "type": "channel",
        "subtype": "noteOff",
        "noteNumber": 35,
        "velocity": 70
      },
      {
        "deltaTime": 250,
        "channel": 5,
        "type": "channel",
        "noteNumber": 70,
        "velocity": 80,
        "subtype": "noteOn"
      },
      {
        "deltaTime": 0,
        "channel": 5,
        "type": "channel",
        "noteNumber": 42,
        "velocity": 90,
        "subtype": "noteOn"
      },
      {
        "deltaTime": 0,
        "channel": 5,
        "type": "channel",
        "noteNumber": 35,
        "velocity": 100,
        "subtype": "noteOn"
      },
      {
        "deltaTime": 16,
        "channel": 5,
        "type": "channel",
        "noteNumber": 37,
        "velocity": 108,
        "subtype": "noteOn"
      },
      {
        "deltaTime": 172,
        "channel": 5,
        "type": "channel",
        "subtype": "noteOff",
        "noteNumber": 37,
        "velocity": 108
      },
      {
        "deltaTime": 62,
        "channel": 5,
        "type": "channel",
        "subtype": "noteOff",
        "noteNumber": 35,
        "velocity": 100
      },
      {
        "deltaTime": 0,
        "channel": 5,
        "type": "channel",
        "subtype": "noteOff",
        "noteNumber": 42,
        "velocity": 90
      },
      {
        "deltaTime": 0,
        "channel": 5,
        "type": "channel",
        "subtype": "noteOff",
        "noteNumber": 70,
        "velocity": 80
      },
      {
        "deltaTime": 250,
        "channel": 5,
        "type": "channel",
        "noteNumber": 42,
        "velocity": 70,
        "subtype": "noteOn"
      },
      {
        "deltaTime": 0,
        "channel": 5,
        "type": "channel",
        "noteNumber": 69,
        "velocity": 50,
        "subtype": "noteOn"
      },
      {
        "deltaTime": 250,
        "channel": 5,
        "type": "channel",
        "subtype": "noteOff",
        "noteNumber": 69,
        "velocity": 50
      },
      {
        "deltaTime": 0,
        "channel": 5,
        "type": "channel",
        "subtype": "noteOff",
        "noteNumber": 42,
        "velocity": 70
      },
      {
        "deltaTime": 250,
        "channel": 5,
        "type": "channel",
        "noteNumber": 42,
        "velocity": 70,
        "subtype": "noteOn"
      },
      {
        "deltaTime": 0,
        "channel": 5,
        "type": "channel",
        "noteNumber": 70,
        "velocity": 80,
        "subtype": "noteOn"
      },
      {
        "deltaTime": 48,
        "channel": 5,
        "type": "channel",
        "noteNumber": 37,
        "velocity": 108,
        "subtype": "noteOn"
      },
      {
        "deltaTime": 170,
        "channel": 5,
        "type": "channel",
        "subtype": "noteOff",
        "noteNumber": 37,
        "velocity": 108
      },
      {
        "deltaTime": 32,
        "channel": 5,
        "type": "channel",
        "subtype": "noteOff",
        "noteNumber": 70,
        "velocity": 80
      },
      {
        "deltaTime": 0,
        "channel": 5,
        "type": "channel",
        "subtype": "noteOff",
        "noteNumber": 42,
        "velocity": 70
      },
      {
        "deltaTime": 0,
        "channel": 5,
        "type": "channel",
        "noteNumber": 42,
        "velocity": 80,
        "subtype": "noteOn"
      },
      {
        "deltaTime": 250,
        "channel": 5,
        "type": "channel",
        "subtype": "noteOff",
        "noteNumber": 42,
        "velocity": 80
      },
      {
        "deltaTime": 0,
        "channel": 5,
        "type": "channel",
        "noteNumber": 35,
        "velocity": 70,
        "subtype": "noteOn"
      },
      {
        "deltaTime": 0,
        "channel": 5,
        "type": "channel",
        "noteNumber": 42,
        "velocity": 70,
        "subtype": "noteOn"
      },
      {
        "deltaTime": 0,
        "channel": 5,
        "type": "channel",
        "noteNumber": 69,
        "velocity": 50,
        "subtype": "noteOn"
      },
      {
        "deltaTime": 250,
        "channel": 5,
        "type": "channel",
        "subtype": "noteOff",
        "noteNumber": 69,
        "velocity": 50
      },
      {
        "deltaTime": 0,
        "channel": 5,
        "type": "channel",
        "subtype": "noteOff",
        "noteNumber": 42,
        "velocity": 70
      },
      {
        "deltaTime": 0,
        "channel": 5,
        "type": "channel",
        "subtype": "noteOff",
        "noteNumber": 35,
        "velocity": 70
      },
      {
        "deltaTime": 250,
        "channel": 5,
        "type": "channel",
        "noteNumber": 35,
        "velocity": 100,
        "subtype": "noteOn"
      },
      {
        "deltaTime": 0,
        "channel": 5,
        "type": "channel",
        "noteNumber": 42,
        "velocity": 90,
        "subtype": "noteOn"
      },
      {
        "deltaTime": 0,
        "channel": 5,
        "type": "channel",
        "noteNumber": 70,
        "velocity": 80,
        "subtype": "noteOn"
      },
      {
        "deltaTime": 250,
        "channel": 5,
        "type": "channel",
        "subtype": "noteOff",
        "noteNumber": 70,
        "velocity": 80
      },
      {
        "deltaTime": 0,
        "channel": 5,
        "type": "channel",
        "subtype": "noteOff",
        "noteNumber": 42,
        "velocity": 90
      },
      {
        "deltaTime": 0,
        "channel": 5,
        "type": "channel",
        "subtype": "noteOff",
        "noteNumber": 35,
        "velocity": 100
      },
      {
        "deltaTime": 250,
        "channel": 5,
        "type": "channel",
        "noteNumber": 42,
        "velocity": 70,
        "subtype": "noteOn"
      },
      {
        "deltaTime": 0,
        "channel": 5,
        "type": "channel",
        "noteNumber": 69,
        "velocity": 50,
        "subtype": "noteOn"
      },
      {
        "deltaTime": 58,
        "channel": 5,
        "type": "channel",
        "noteNumber": 37,
        "velocity": 106,
        "subtype": "noteOn"
      },
      {
        "deltaTime": 166,
        "channel": 5,
        "type": "channel",
        "subtype": "noteOff",
        "noteNumber": 37,
        "velocity": 106
      },
      {
        "deltaTime": 26,
        "channel": 5,
        "type": "channel",
        "subtype": "noteOff",
        "noteNumber": 69,
        "velocity": 50
      },
      {
        "deltaTime": 0,
        "channel": 5,
        "type": "channel",
        "subtype": "noteOff",
        "noteNumber": 42,
        "velocity": 70
      },
      {
        "deltaTime": 250,
        "channel": 5,
        "type": "channel",
        "noteNumber": 42,
        "velocity": 70,
        "subtype": "noteOn"
      },
      {
        "deltaTime": 0,
        "channel": 5,
        "type": "channel",
        "noteNumber": 70,
        "velocity": 80,
        "subtype": "noteOn"
      },
      {
        "deltaTime": 250,
        "channel": 5,
        "type": "channel",
        "subtype": "noteOff",
        "noteNumber": 70,
        "velocity": 80
      },
      {
        "deltaTime": 0,
        "channel": 5,
        "type": "channel",
        "subtype": "noteOff",
        "noteNumber": 42,
        "velocity": 70
      },
      {
        "deltaTime": 250,
        "channel": 5,
        "type": "channel",
        "noteNumber": 35,
        "velocity": 70,
        "subtype": "noteOn"
      },
      {
        "deltaTime": 0,
        "channel": 5,
        "type": "channel",
        "noteNumber": 42,
        "velocity": 70,
        "subtype": "noteOn"
      },
      {
        "deltaTime": 0,
        "channel": 5,
        "type": "channel",
        "noteNumber": 69,
        "velocity": 50,
        "subtype": "noteOn"
      },
      {
        "deltaTime": 250,
        "channel": 5,
        "type": "channel",
        "subtype": "noteOff",
        "noteNumber": 69,
        "velocity": 50
      },
      {
        "deltaTime": 0,
        "channel": 5,
        "type": "channel",
        "subtype": "noteOff",
        "noteNumber": 42,
        "velocity": 70
      },
      {
        "deltaTime": 0,
        "channel": 5,
        "type": "channel",
        "subtype": "noteOff",
        "noteNumber": 35,
        "velocity": 70
      },
      {
        "deltaTime": 250,
        "channel": 5,
        "type": "channel",
        "noteNumber": 70,
        "velocity": 80,
        "subtype": "noteOn"
      },
      {
        "deltaTime": 0,
        "channel": 5,
        "type": "channel",
        "noteNumber": 42,
        "velocity": 90,
        "subtype": "noteOn"
      },
      {
        "deltaTime": 0,
        "channel": 5,
        "type": "channel",
        "noteNumber": 35,
        "velocity": 100,
        "subtype": "noteOn"
      },
      {
        "deltaTime": 16,
        "channel": 5,
        "type": "channel",
        "noteNumber": 37,
        "velocity": 108,
        "subtype": "noteOn"
      },
      {
        "deltaTime": 172,
        "channel": 5,
        "type": "channel",
        "subtype": "noteOff",
        "noteNumber": 37,
        "velocity": 108
      },
      {
        "deltaTime": 62,
        "channel": 5,
        "type": "channel",
        "subtype": "noteOff",
        "noteNumber": 35,
        "velocity": 100
      },
      {
        "deltaTime": 0,
        "channel": 5,
        "type": "channel",
        "subtype": "noteOff",
        "noteNumber": 42,
        "velocity": 90
      },
      {
        "deltaTime": 0,
        "channel": 5,
        "type": "channel",
        "subtype": "noteOff",
        "noteNumber": 70,
        "velocity": 80
      },
      {
        "deltaTime": 250,
        "channel": 5,
        "type": "channel",
        "noteNumber": 42,
        "velocity": 70,
        "subtype": "noteOn"
      },
      {
        "deltaTime": 0,
        "channel": 5,
        "type": "channel",
        "noteNumber": 69,
        "velocity": 50,
        "subtype": "noteOn"
      },
      {
        "deltaTime": 250,
        "channel": 5,
        "type": "channel",
        "subtype": "noteOff",
        "noteNumber": 69,
        "velocity": 50
      },
      {
        "deltaTime": 0,
        "channel": 5,
        "type": "channel",
        "subtype": "noteOff",
        "noteNumber": 42,
        "velocity": 70
      },
      {
        "deltaTime": 250,
        "channel": 5,
        "type": "channel",
        "noteNumber": 42,
        "velocity": 70,
        "subtype": "noteOn"
      },
      {
        "deltaTime": 0,
        "channel": 5,
        "type": "channel",
        "noteNumber": 70,
        "velocity": 80,
        "subtype": "noteOn"
      },
      {
        "deltaTime": 48,
        "channel": 5,
        "type": "channel",
        "noteNumber": 37,
        "velocity": 108,
        "subtype": "noteOn"
      },
      {
        "deltaTime": 170,
        "channel": 5,
        "type": "channel",
        "subtype": "noteOff",
        "noteNumber": 37,
        "velocity": 108
      },
      {
        "deltaTime": 32,
        "channel": 5,
        "type": "channel",
        "subtype": "noteOff",
        "noteNumber": 70,
        "velocity": 80
      },
      {
        "deltaTime": 0,
        "channel": 5,
        "type": "channel",
        "subtype": "noteOff",
        "noteNumber": 42,
        "velocity": 70
      },
      {
        "deltaTime": 250,
        "channel": 5,
        "type": "channel",
        "noteNumber": 35,
        "velocity": 70,
        "subtype": "noteOn"
      },
      {
        "deltaTime": 0,
        "channel": 5,
        "type": "channel",
        "noteNumber": 42,
        "velocity": 70,
        "subtype": "noteOn"
      },
      {
        "deltaTime": 0,
        "channel": 5,
        "type": "channel",
        "noteNumber": 69,
        "velocity": 50,
        "subtype": "noteOn"
      },
      {
        "deltaTime": 250,
        "channel": 5,
        "type": "channel",
        "subtype": "noteOff",
        "noteNumber": 69,
        "velocity": 50
      },
      {
        "deltaTime": 0,
        "channel": 5,
        "type": "channel",
        "subtype": "noteOff",
        "noteNumber": 42,
        "velocity": 70
      },
      {
        "deltaTime": 0,
        "channel": 5,
        "type": "channel",
        "subtype": "noteOff",
        "noteNumber": 35,
        "velocity": 70
      },
      {
        "deltaTime": 250,
        "channel": 5,
        "type": "channel",
        "noteNumber": 35,
        "velocity": 100,
        "subtype": "noteOn"
      },
      {
        "deltaTime": 0,
        "channel": 5,
        "type": "channel",
        "noteNumber": 42,
        "velocity": 90,
        "subtype": "noteOn"
      },
      {
        "deltaTime": 0,
        "channel": 5,
        "type": "channel",
        "noteNumber": 70,
        "velocity": 80,
        "subtype": "noteOn"
      },
      {
        "deltaTime": 250,
        "channel": 5,
        "type": "channel",
        "subtype": "noteOff",
        "noteNumber": 70,
        "velocity": 80
      },
      {
        "deltaTime": 0,
        "channel": 5,
        "type": "channel",
        "subtype": "noteOff",
        "noteNumber": 42,
        "velocity": 90
      },
      {
        "deltaTime": 0,
        "channel": 5,
        "type": "channel",
        "subtype": "noteOff",
        "noteNumber": 35,
        "velocity": 100
      },
      {
        "deltaTime": 250,
        "channel": 5,
        "type": "channel",
        "noteNumber": 42,
        "velocity": 70,
        "subtype": "noteOn"
      },
      {
        "deltaTime": 0,
        "channel": 5,
        "type": "channel",
        "noteNumber": 69,
        "velocity": 50,
        "subtype": "noteOn"
      },
      {
        "deltaTime": 58,
        "channel": 5,
        "type": "channel",
        "noteNumber": 37,
        "velocity": 106,
        "subtype": "noteOn"
      },
      {
        "deltaTime": 166,
        "channel": 5,
        "type": "channel",
        "subtype": "noteOff",
        "noteNumber": 37,
        "velocity": 106
      },
      {
        "deltaTime": 26,
        "channel": 5,
        "type": "channel",
        "subtype": "noteOff",
        "noteNumber": 69,
        "velocity": 50
      },
      {
        "deltaTime": 0,
        "channel": 5,
        "type": "channel",
        "subtype": "noteOff",
        "noteNumber": 42,
        "velocity": 70
      },
      {
        "deltaTime": 250,
        "channel": 5,
        "type": "channel",
        "noteNumber": 42,
        "velocity": 70,
        "subtype": "noteOn"
      },
      {
        "deltaTime": 0,
        "channel": 5,
        "type": "channel",
        "noteNumber": 70,
        "velocity": 80,
        "subtype": "noteOn"
      },
      {
        "deltaTime": 250,
        "channel": 5,
        "type": "channel",
        "subtype": "noteOff",
        "noteNumber": 70,
        "velocity": 80
      },
      {
        "deltaTime": 0,
        "channel": 5,
        "type": "channel",
        "subtype": "noteOff",
        "noteNumber": 42,
        "velocity": 70
      },
      {
        "deltaTime": 250,
        "channel": 5,
        "type": "channel",
        "noteNumber": 35,
        "velocity": 70,
        "subtype": "noteOn"
      },
      {
        "deltaTime": 0,
        "channel": 5,
        "type": "channel",
        "noteNumber": 42,
        "velocity": 70,
        "subtype": "noteOn"
      },
      {
        "deltaTime": 0,
        "channel": 5,
        "type": "channel",
        "noteNumber": 69,
        "velocity": 50,
        "subtype": "noteOn"
      },
      {
        "deltaTime": 250,
        "channel": 5,
        "type": "channel",
        "subtype": "noteOff",
        "noteNumber": 69,
        "velocity": 50
      },
      {
        "deltaTime": 0,
        "channel": 5,
        "type": "channel",
        "subtype": "noteOff",
        "noteNumber": 42,
        "velocity": 70
      },
      {
        "deltaTime": 0,
        "channel": 5,
        "type": "channel",
        "subtype": "noteOff",
        "noteNumber": 35,
        "velocity": 70
      },
      {
        "deltaTime": 250,
        "channel": 5,
        "type": "channel",
        "noteNumber": 70,
        "velocity": 80,
        "subtype": "noteOn"
      },
      {
        "deltaTime": 0,
        "channel": 5,
        "type": "channel",
        "noteNumber": 42,
        "velocity": 90,
        "subtype": "noteOn"
      },
      {
        "deltaTime": 0,
        "channel": 5,
        "type": "channel",
        "noteNumber": 35,
        "velocity": 100,
        "subtype": "noteOn"
      },
      {
        "deltaTime": 16,
        "channel": 5,
        "type": "channel",
        "noteNumber": 37,
        "velocity": 108,
        "subtype": "noteOn"
      },
      {
        "deltaTime": 172,
        "channel": 5,
        "type": "channel",
        "subtype": "noteOff",
        "noteNumber": 37,
        "velocity": 108
      },
      {
        "deltaTime": 62,
        "channel": 5,
        "type": "channel",
        "subtype": "noteOff",
        "noteNumber": 35,
        "velocity": 100
      },
      {
        "deltaTime": 0,
        "channel": 5,
        "type": "channel",
        "subtype": "noteOff",
        "noteNumber": 42,
        "velocity": 90
      },
      {
        "deltaTime": 0,
        "channel": 5,
        "type": "channel",
        "subtype": "noteOff",
        "noteNumber": 70,
        "velocity": 80
      },
      {
        "deltaTime": 250,
        "channel": 5,
        "type": "channel",
        "noteNumber": 42,
        "velocity": 70,
        "subtype": "noteOn"
      },
      {
        "deltaTime": 0,
        "channel": 5,
        "type": "channel",
        "noteNumber": 69,
        "velocity": 50,
        "subtype": "noteOn"
      },
      {
        "deltaTime": 250,
        "channel": 5,
        "type": "channel",
        "subtype": "noteOff",
        "noteNumber": 69,
        "velocity": 50
      },
      {
        "deltaTime": 0,
        "channel": 5,
        "type": "channel",
        "subtype": "noteOff",
        "noteNumber": 42,
        "velocity": 70
      },
      {
        "deltaTime": 250,
        "channel": 5,
        "type": "channel",
        "noteNumber": 42,
        "velocity": 70,
        "subtype": "noteOn"
      },
      {
        "deltaTime": 0,
        "channel": 5,
        "type": "channel",
        "noteNumber": 70,
        "velocity": 80,
        "subtype": "noteOn"
      },
      {
        "deltaTime": 48,
        "channel": 5,
        "type": "channel",
        "noteNumber": 37,
        "velocity": 108,
        "subtype": "noteOn"
      },
      {
        "deltaTime": 170,
        "channel": 5,
        "type": "channel",
        "subtype": "noteOff",
        "noteNumber": 37,
        "velocity": 108
      },
      {
        "deltaTime": 32,
        "channel": 5,
        "type": "channel",
        "subtype": "noteOff",
        "noteNumber": 70,
        "velocity": 80
      },
      {
        "deltaTime": 0,
        "channel": 5,
        "type": "channel",
        "subtype": "noteOff",
        "noteNumber": 42,
        "velocity": 70
      },
      {
        "deltaTime": 250,
        "channel": 5,
        "type": "channel",
        "noteNumber": 35,
        "velocity": 70,
        "subtype": "noteOn"
      },
      {
        "deltaTime": 0,
        "channel": 5,
        "type": "channel",
        "noteNumber": 42,
        "velocity": 70,
        "subtype": "noteOn"
      },
      {
        "deltaTime": 0,
        "channel": 5,
        "type": "channel",
        "noteNumber": 69,
        "velocity": 50,
        "subtype": "noteOn"
      },
      {
        "deltaTime": 250,
        "channel": 5,
        "type": "channel",
        "subtype": "noteOff",
        "noteNumber": 69,
        "velocity": 50
      },
      {
        "deltaTime": 0,
        "channel": 5,
        "type": "channel",
        "subtype": "noteOff",
        "noteNumber": 42,
        "velocity": 70
      },
      {
        "deltaTime": 0,
        "channel": 5,
        "type": "channel",
        "subtype": "noteOff",
        "noteNumber": 35,
        "velocity": 70
      },
      {
        "deltaTime": 250,
        "channel": 5,
        "type": "channel",
        "noteNumber": 35,
        "velocity": 100,
        "subtype": "noteOn"
      },
      {
        "deltaTime": 0,
        "channel": 5,
        "type": "channel",
        "noteNumber": 42,
        "velocity": 90,
        "subtype": "noteOn"
      },
      {
        "deltaTime": 0,
        "channel": 5,
        "type": "channel",
        "noteNumber": 70,
        "velocity": 80,
        "subtype": "noteOn"
      },
      {
        "deltaTime": 250,
        "channel": 5,
        "type": "channel",
        "subtype": "noteOff",
        "noteNumber": 70,
        "velocity": 80
      },
      {
        "deltaTime": 0,
        "channel": 5,
        "type": "channel",
        "subtype": "noteOff",
        "noteNumber": 42,
        "velocity": 90
      },
      {
        "deltaTime": 0,
        "channel": 5,
        "type": "channel",
        "subtype": "noteOff",
        "noteNumber": 35,
        "velocity": 100
      },
      {
        "deltaTime": 250,
        "channel": 5,
        "type": "channel",
        "noteNumber": 42,
        "velocity": 70,
        "subtype": "noteOn"
      },
      {
        "deltaTime": 0,
        "channel": 5,
        "type": "channel",
        "noteNumber": 69,
        "velocity": 50,
        "subtype": "noteOn"
      },
      {
        "deltaTime": 58,
        "channel": 5,
        "type": "channel",
        "noteNumber": 37,
        "velocity": 106,
        "subtype": "noteOn"
      },
      {
        "deltaTime": 166,
        "channel": 5,
        "type": "channel",
        "subtype": "noteOff",
        "noteNumber": 37,
        "velocity": 106
      },
      {
        "deltaTime": 26,
        "channel": 5,
        "type": "channel",
        "subtype": "noteOff",
        "noteNumber": 69,
        "velocity": 50
      },
      {
        "deltaTime": 0,
        "channel": 5,
        "type": "channel",
        "subtype": "noteOff",
        "noteNumber": 42,
        "velocity": 70
      },
      {
        "deltaTime": 250,
        "channel": 5,
        "type": "channel",
        "noteNumber": 42,
        "velocity": 70,
        "subtype": "noteOn"
      },
      {
        "deltaTime": 0,
        "channel": 5,
        "type": "channel",
        "noteNumber": 70,
        "velocity": 80,
        "subtype": "noteOn"
      },
      {
        "deltaTime": 250,
        "channel": 5,
        "type": "channel",
        "subtype": "noteOff",
        "noteNumber": 70,
        "velocity": 80
      },
      {
        "deltaTime": 0,
        "channel": 5,
        "type": "channel",
        "subtype": "noteOff",
        "noteNumber": 42,
        "velocity": 70
      },
      {
        "deltaTime": 250,
        "channel": 5,
        "type": "channel",
        "noteNumber": 35,
        "velocity": 70,
        "subtype": "noteOn"
      },
      {
        "deltaTime": 0,
        "channel": 5,
        "type": "channel",
        "noteNumber": 42,
        "velocity": 70,
        "subtype": "noteOn"
      },
      {
        "deltaTime": 0,
        "channel": 5,
        "type": "channel",
        "noteNumber": 69,
        "velocity": 50,
        "subtype": "noteOn"
      },
      {
        "deltaTime": 250,
        "channel": 5,
        "type": "channel",
        "subtype": "noteOff",
        "noteNumber": 69,
        "velocity": 50
      },
      {
        "deltaTime": 0,
        "channel": 5,
        "type": "channel",
        "subtype": "noteOff",
        "noteNumber": 42,
        "velocity": 70
      },
      {
        "deltaTime": 0,
        "channel": 5,
        "type": "channel",
        "subtype": "noteOff",
        "noteNumber": 35,
        "velocity": 70
      },
      {
        "deltaTime": 250,
        "channel": 5,
        "type": "channel",
        "noteNumber": 70,
        "velocity": 80,
        "subtype": "noteOn"
      },
      {
        "deltaTime": 0,
        "channel": 5,
        "type": "channel",
        "noteNumber": 42,
        "velocity": 90,
        "subtype": "noteOn"
      },
      {
        "deltaTime": 0,
        "channel": 5,
        "type": "channel",
        "noteNumber": 35,
        "velocity": 100,
        "subtype": "noteOn"
      },
      {
        "deltaTime": 16,
        "channel": 5,
        "type": "channel",
        "noteNumber": 37,
        "velocity": 108,
        "subtype": "noteOn"
      },
      {
        "deltaTime": 172,
        "channel": 5,
        "type": "channel",
        "subtype": "noteOff",
        "noteNumber": 37,
        "velocity": 108
      },
      {
        "deltaTime": 62,
        "channel": 5,
        "type": "channel",
        "subtype": "noteOff",
        "noteNumber": 35,
        "velocity": 100
      },
      {
        "deltaTime": 0,
        "channel": 5,
        "type": "channel",
        "subtype": "noteOff",
        "noteNumber": 42,
        "velocity": 90
      },
      {
        "deltaTime": 0,
        "channel": 5,
        "type": "channel",
        "subtype": "noteOff",
        "noteNumber": 70,
        "velocity": 80
      },
      {
        "deltaTime": 250,
        "channel": 5,
        "type": "channel",
        "noteNumber": 42,
        "velocity": 70,
        "subtype": "noteOn"
      },
      {
        "deltaTime": 0,
        "channel": 5,
        "type": "channel",
        "noteNumber": 69,
        "velocity": 50,
        "subtype": "noteOn"
      },
      {
        "deltaTime": 250,
        "channel": 5,
        "type": "channel",
        "subtype": "noteOff",
        "noteNumber": 69,
        "velocity": 50
      },
      {
        "deltaTime": 0,
        "channel": 5,
        "type": "channel",
        "subtype": "noteOff",
        "noteNumber": 42,
        "velocity": 70
      },
      {
        "deltaTime": 250,
        "channel": 5,
        "type": "channel",
        "noteNumber": 42,
        "velocity": 70,
        "subtype": "noteOn"
      },
      {
        "deltaTime": 0,
        "channel": 5,
        "type": "channel",
        "noteNumber": 70,
        "velocity": 80,
        "subtype": "noteOn"
      },
      {
        "deltaTime": 48,
        "channel": 5,
        "type": "channel",
        "noteNumber": 37,
        "velocity": 108,
        "subtype": "noteOn"
      },
      {
        "deltaTime": 170,
        "channel": 5,
        "type": "channel",
        "subtype": "noteOff",
        "noteNumber": 37,
        "velocity": 108
      },
      {
        "deltaTime": 32,
        "channel": 5,
        "type": "channel",
        "subtype": "noteOff",
        "noteNumber": 70,
        "velocity": 80
      },
      {
        "deltaTime": 0,
        "channel": 5,
        "type": "channel",
        "subtype": "noteOff",
        "noteNumber": 42,
        "velocity": 70
      },
      {
        "deltaTime": 250,
        "channel": 5,
        "type": "channel",
        "noteNumber": 48,
        "velocity": 50,
        "subtype": "noteOn"
      },
      {
        "deltaTime": 0,
        "channel": 5,
        "type": "channel",
        "noteNumber": 42,
        "velocity": 70,
        "subtype": "noteOn"
      },
      {
        "deltaTime": 0,
        "channel": 5,
        "type": "channel",
        "noteNumber": 35,
        "velocity": 70,
        "subtype": "noteOn"
      },
      {
        "deltaTime": 0,
        "channel": 5,
        "type": "channel",
        "noteNumber": 69,
        "velocity": 50,
        "subtype": "noteOn"
      },
      {
        "deltaTime": 250,
        "channel": 5,
        "type": "channel",
        "subtype": "noteOff",
        "noteNumber": 69,
        "velocity": 50
      },
      {
        "deltaTime": 0,
        "channel": 5,
        "type": "channel",
        "subtype": "noteOff",
        "noteNumber": 35,
        "velocity": 70
      },
      {
        "deltaTime": 0,
        "channel": 5,
        "type": "channel",
        "subtype": "noteOff",
        "noteNumber": 42,
        "velocity": 70
      },
      {
        "deltaTime": 0,
        "channel": 5,
        "type": "channel",
        "subtype": "noteOff",
        "noteNumber": 48,
        "velocity": 50
      },
      {
        "deltaTime": 250,
        "channel": 5,
        "type": "channel",
        "noteNumber": 35,
        "velocity": 100,
        "subtype": "noteOn"
      },
      {
        "deltaTime": 0,
        "channel": 5,
        "type": "channel",
        "noteNumber": 42,
        "velocity": 90,
        "subtype": "noteOn"
      },
      {
        "deltaTime": 0,
        "channel": 5,
        "type": "channel",
        "noteNumber": 70,
        "velocity": 80,
        "subtype": "noteOn"
      },
      {
        "deltaTime": 250,
        "channel": 5,
        "type": "channel",
        "subtype": "noteOff",
        "noteNumber": 70,
        "velocity": 80
      },
      {
        "deltaTime": 0,
        "channel": 5,
        "type": "channel",
        "subtype": "noteOff",
        "noteNumber": 42,
        "velocity": 90
      },
      {
        "deltaTime": 0,
        "channel": 5,
        "type": "channel",
        "subtype": "noteOff",
        "noteNumber": 35,
        "velocity": 100
      },
      {
        "deltaTime": 250,
        "channel": 5,
        "type": "channel",
        "noteNumber": 42,
        "velocity": 70,
        "subtype": "noteOn"
      },
      {
        "deltaTime": 0,
        "channel": 5,
        "type": "channel",
        "noteNumber": 69,
        "velocity": 50,
        "subtype": "noteOn"
      },
      {
        "deltaTime": 58,
        "channel": 5,
        "type": "channel",
        "noteNumber": 37,
        "velocity": 106,
        "subtype": "noteOn"
      },
      {
        "deltaTime": 166,
        "channel": 5,
        "type": "channel",
        "subtype": "noteOff",
        "noteNumber": 37,
        "velocity": 106
      },
      {
        "deltaTime": 26,
        "channel": 5,
        "type": "channel",
        "subtype": "noteOff",
        "noteNumber": 69,
        "velocity": 50
      },
      {
        "deltaTime": 0,
        "channel": 5,
        "type": "channel",
        "subtype": "noteOff",
        "noteNumber": 42,
        "velocity": 70
      },
      {
        "deltaTime": 250,
        "channel": 5,
        "type": "channel",
        "noteNumber": 42,
        "velocity": 70,
        "subtype": "noteOn"
      },
      {
        "deltaTime": 0,
        "channel": 5,
        "type": "channel",
        "noteNumber": 70,
        "velocity": 80,
        "subtype": "noteOn"
      },
      {
        "deltaTime": 250,
        "channel": 5,
        "type": "channel",
        "subtype": "noteOff",
        "noteNumber": 70,
        "velocity": 80
      },
      {
        "deltaTime": 0,
        "channel": 5,
        "type": "channel",
        "subtype": "noteOff",
        "noteNumber": 42,
        "velocity": 70
      },
      {
        "deltaTime": 250,
        "channel": 5,
        "type": "channel",
        "noteNumber": 45,
        "velocity": 50,
        "subtype": "noteOn"
      },
      {
        "deltaTime": 0,
        "channel": 5,
        "type": "channel",
        "noteNumber": 42,
        "velocity": 70,
        "subtype": "noteOn"
      },
      {
        "deltaTime": 0,
        "channel": 5,
        "type": "channel",
        "noteNumber": 35,
        "velocity": 70,
        "subtype": "noteOn"
      },
      {
        "deltaTime": 0,
        "channel": 5,
        "type": "channel",
        "noteNumber": 69,
        "velocity": 50,
        "subtype": "noteOn"
      },
      {
        "deltaTime": 250,
        "channel": 5,
        "type": "channel",
        "subtype": "noteOff",
        "noteNumber": 69,
        "velocity": 50
      },
      {
        "deltaTime": 0,
        "channel": 5,
        "type": "channel",
        "subtype": "noteOff",
        "noteNumber": 35,
        "velocity": 70
      },
      {
        "deltaTime": 0,
        "channel": 5,
        "type": "channel",
        "subtype": "noteOff",
        "noteNumber": 42,
        "velocity": 70
      },
      {
        "deltaTime": 0,
        "channel": 5,
        "type": "channel",
        "subtype": "noteOff",
        "noteNumber": 45,
        "velocity": 50
      },
      {
        "deltaTime": 250,
        "channel": 5,
        "type": "channel",
        "noteNumber": 70,
        "velocity": 80,
        "subtype": "noteOn"
      },
      {
        "deltaTime": 0,
        "channel": 5,
        "type": "channel",
        "noteNumber": 42,
        "velocity": 90,
        "subtype": "noteOn"
      },
      {
        "deltaTime": 0,
        "channel": 5,
        "type": "channel",
        "noteNumber": 35,
        "velocity": 100,
        "subtype": "noteOn"
      },
      {
        "deltaTime": 16,
        "channel": 5,
        "type": "channel",
        "noteNumber": 37,
        "velocity": 108,
        "subtype": "noteOn"
      },
      {
        "deltaTime": 172,
        "channel": 5,
        "type": "channel",
        "subtype": "noteOff",
        "noteNumber": 37,
        "velocity": 108
      },
      {
        "deltaTime": 62,
        "channel": 5,
        "type": "channel",
        "subtype": "noteOff",
        "noteNumber": 35,
        "velocity": 100
      },
      {
        "deltaTime": 0,
        "channel": 5,
        "type": "channel",
        "subtype": "noteOff",
        "noteNumber": 42,
        "velocity": 90
      },
      {
        "deltaTime": 0,
        "channel": 5,
        "type": "channel",
        "subtype": "noteOff",
        "noteNumber": 70,
        "velocity": 80
      },
      {
        "deltaTime": 250,
        "channel": 5,
        "type": "channel",
        "noteNumber": 42,
        "velocity": 70,
        "subtype": "noteOn"
      },
      {
        "deltaTime": 0,
        "channel": 5,
        "type": "channel",
        "noteNumber": 69,
        "velocity": 50,
        "subtype": "noteOn"
      },
      {
        "deltaTime": 250,
        "channel": 5,
        "type": "channel",
        "subtype": "noteOff",
        "noteNumber": 69,
        "velocity": 50
      },
      {
        "deltaTime": 0,
        "channel": 5,
        "type": "channel",
        "subtype": "noteOff",
        "noteNumber": 42,
        "velocity": 70
      },
      {
        "deltaTime": 250,
        "channel": 5,
        "type": "channel",
        "noteNumber": 42,
        "velocity": 70,
        "subtype": "noteOn"
      },
      {
        "deltaTime": 0,
        "channel": 5,
        "type": "channel",
        "noteNumber": 70,
        "velocity": 80,
        "subtype": "noteOn"
      },
      {
        "deltaTime": 48,
        "channel": 5,
        "type": "channel",
        "noteNumber": 37,
        "velocity": 108,
        "subtype": "noteOn"
      },
      {
        "deltaTime": 170,
        "channel": 5,
        "type": "channel",
        "subtype": "noteOff",
        "noteNumber": 37,
        "velocity": 108
      },
      {
        "deltaTime": 32,
        "channel": 5,
        "type": "channel",
        "subtype": "noteOff",
        "noteNumber": 70,
        "velocity": 80
      },
      {
        "deltaTime": 0,
        "channel": 5,
        "type": "channel",
        "subtype": "noteOff",
        "noteNumber": 42,
        "velocity": 70
      },
      {
        "deltaTime": 250,
        "channel": 5,
        "type": "channel",
        "noteNumber": 35,
        "velocity": 70,
        "subtype": "noteOn"
      },
      {
        "deltaTime": 0,
        "channel": 5,
        "type": "channel",
        "noteNumber": 42,
        "velocity": 70,
        "subtype": "noteOn"
      },
      {
        "deltaTime": 0,
        "channel": 5,
        "type": "channel",
        "noteNumber": 69,
        "velocity": 50,
        "subtype": "noteOn"
      },
      {
        "deltaTime": 250,
        "channel": 5,
        "type": "channel",
        "subtype": "noteOff",
        "noteNumber": 69,
        "velocity": 50
      },
      {
        "deltaTime": 0,
        "channel": 5,
        "type": "channel",
        "subtype": "noteOff",
        "noteNumber": 42,
        "velocity": 70
      },
      {
        "deltaTime": 0,
        "channel": 5,
        "type": "channel",
        "subtype": "noteOff",
        "noteNumber": 35,
        "velocity": 70
      },
      {
        "deltaTime": 250,
        "channel": 5,
        "type": "channel",
        "noteNumber": 35,
        "velocity": 100,
        "subtype": "noteOn"
      },
      {
        "deltaTime": 0,
        "channel": 5,
        "type": "channel",
        "noteNumber": 42,
        "velocity": 90,
        "subtype": "noteOn"
      },
      {
        "deltaTime": 0,
        "channel": 5,
        "type": "channel",
        "noteNumber": 70,
        "velocity": 80,
        "subtype": "noteOn"
      },
      {
        "deltaTime": 250,
        "channel": 5,
        "type": "channel",
        "subtype": "noteOff",
        "noteNumber": 70,
        "velocity": 80
      },
      {
        "deltaTime": 0,
        "channel": 5,
        "type": "channel",
        "subtype": "noteOff",
        "noteNumber": 42,
        "velocity": 90
      },
      {
        "deltaTime": 0,
        "channel": 5,
        "type": "channel",
        "subtype": "noteOff",
        "noteNumber": 35,
        "velocity": 100
      },
      {
        "deltaTime": 250,
        "channel": 5,
        "type": "channel",
        "noteNumber": 46,
        "velocity": 72,
        "subtype": "noteOn"
      },
      {
        "deltaTime": 0,
        "channel": 5,
        "type": "channel",
        "noteNumber": 69,
        "velocity": 50,
        "subtype": "noteOn"
      },
      {
        "deltaTime": 58,
        "channel": 5,
        "type": "channel",
        "noteNumber": 37,
        "velocity": 106,
        "subtype": "noteOn"
      },
      {
        "deltaTime": 166,
        "channel": 5,
        "type": "channel",
        "subtype": "noteOff",
        "noteNumber": 37,
        "velocity": 106
      },
      {
        "deltaTime": 26,
        "channel": 5,
        "type": "channel",
        "subtype": "noteOff",
        "noteNumber": 69,
        "velocity": 50
      },
      {
        "deltaTime": 0,
        "channel": 5,
        "type": "channel",
        "subtype": "noteOff",
        "noteNumber": 46,
        "velocity": 72
      },
      {
        "deltaTime": 250,
        "channel": 5,
        "type": "channel",
        "noteNumber": 42,
        "velocity": 70,
        "subtype": "noteOn"
      },
      {
        "deltaTime": 0,
        "channel": 5,
        "type": "channel",
        "noteNumber": 70,
        "velocity": 80,
        "subtype": "noteOn"
      },
      {
        "deltaTime": 250,
        "channel": 5,
        "type": "channel",
        "subtype": "noteOff",
        "noteNumber": 70,
        "velocity": 80
      },
      {
        "deltaTime": 0,
        "channel": 5,
        "type": "channel",
        "subtype": "noteOff",
        "noteNumber": 42,
        "velocity": 70
      },
      {
        "deltaTime": 250,
        "channel": 5,
        "type": "channel",
        "noteNumber": 35,
        "velocity": 70,
        "subtype": "noteOn"
      },
      {
        "deltaTime": 0,
        "channel": 5,
        "type": "channel",
        "noteNumber": 42,
        "velocity": 70,
        "subtype": "noteOn"
      },
      {
        "deltaTime": 0,
        "channel": 5,
        "type": "channel",
        "noteNumber": 69,
        "velocity": 50,
        "subtype": "noteOn"
      },
      {
        "deltaTime": 250,
        "channel": 5,
        "type": "channel",
        "subtype": "noteOff",
        "noteNumber": 69,
        "velocity": 50
      },
      {
        "deltaTime": 0,
        "channel": 5,
        "type": "channel",
        "subtype": "noteOff",
        "noteNumber": 42,
        "velocity": 70
      },
      {
        "deltaTime": 0,
        "channel": 5,
        "type": "channel",
        "subtype": "noteOff",
        "noteNumber": 35,
        "velocity": 70
      },
      {
        "deltaTime": 250,
        "channel": 5,
        "type": "channel",
        "noteNumber": 70,
        "velocity": 80,
        "subtype": "noteOn"
      },
      {
        "deltaTime": 0,
        "channel": 5,
        "type": "channel",
        "noteNumber": 42,
        "velocity": 90,
        "subtype": "noteOn"
      },
      {
        "deltaTime": 0,
        "channel": 5,
        "type": "channel",
        "noteNumber": 35,
        "velocity": 100,
        "subtype": "noteOn"
      },
      {
        "deltaTime": 16,
        "channel": 5,
        "type": "channel",
        "noteNumber": 37,
        "velocity": 108,
        "subtype": "noteOn"
      },
      {
        "deltaTime": 172,
        "channel": 5,
        "type": "channel",
        "subtype": "noteOff",
        "noteNumber": 37,
        "velocity": 108
      },
      {
        "deltaTime": 62,
        "channel": 5,
        "type": "channel",
        "subtype": "noteOff",
        "noteNumber": 35,
        "velocity": 100
      },
      {
        "deltaTime": 0,
        "channel": 5,
        "type": "channel",
        "subtype": "noteOff",
        "noteNumber": 42,
        "velocity": 90
      },
      {
        "deltaTime": 0,
        "channel": 5,
        "type": "channel",
        "subtype": "noteOff",
        "noteNumber": 70,
        "velocity": 80
      },
      {
        "deltaTime": 250,
        "channel": 5,
        "type": "channel",
        "noteNumber": 42,
        "velocity": 70,
        "subtype": "noteOn"
      },
      {
        "deltaTime": 0,
        "channel": 5,
        "type": "channel",
        "noteNumber": 69,
        "velocity": 50,
        "subtype": "noteOn"
      },
      {
        "deltaTime": 250,
        "channel": 5,
        "type": "channel",
        "subtype": "noteOff",
        "noteNumber": 69,
        "velocity": 50
      },
      {
        "deltaTime": 0,
        "channel": 5,
        "type": "channel",
        "subtype": "noteOff",
        "noteNumber": 42,
        "velocity": 70
      },
      {
        "deltaTime": 250,
        "channel": 5,
        "type": "channel",
        "noteNumber": 42,
        "velocity": 70,
        "subtype": "noteOn"
      },
      {
        "deltaTime": 0,
        "channel": 5,
        "type": "channel",
        "noteNumber": 70,
        "velocity": 80,
        "subtype": "noteOn"
      },
      {
        "deltaTime": 48,
        "channel": 5,
        "type": "channel",
        "noteNumber": 37,
        "velocity": 108,
        "subtype": "noteOn"
      },
      {
        "deltaTime": 170,
        "channel": 5,
        "type": "channel",
        "subtype": "noteOff",
        "noteNumber": 37,
        "velocity": 108
      },
      {
        "deltaTime": 32,
        "channel": 5,
        "type": "channel",
        "subtype": "noteOff",
        "noteNumber": 70,
        "velocity": 80
      },
      {
        "deltaTime": 0,
        "channel": 5,
        "type": "channel",
        "subtype": "noteOff",
        "noteNumber": 42,
        "velocity": 70
      },
      {
        "deltaTime": 250,
        "channel": 5,
        "type": "channel",
        "noteNumber": 35,
        "velocity": 70,
        "subtype": "noteOn"
      },
      {
        "deltaTime": 0,
        "channel": 5,
        "type": "channel",
        "noteNumber": 42,
        "velocity": 70,
        "subtype": "noteOn"
      },
      {
        "deltaTime": 0,
        "channel": 5,
        "type": "channel",
        "noteNumber": 69,
        "velocity": 50,
        "subtype": "noteOn"
      },
      {
        "deltaTime": 250,
        "channel": 5,
        "type": "channel",
        "subtype": "noteOff",
        "noteNumber": 69,
        "velocity": 50
      },
      {
        "deltaTime": 0,
        "channel": 5,
        "type": "channel",
        "subtype": "noteOff",
        "noteNumber": 42,
        "velocity": 70
      },
      {
        "deltaTime": 0,
        "channel": 5,
        "type": "channel",
        "subtype": "noteOff",
        "noteNumber": 35,
        "velocity": 70
      },
      {
        "deltaTime": 250,
        "channel": 5,
        "type": "channel",
        "noteNumber": 35,
        "velocity": 100,
        "subtype": "noteOn"
      },
      {
        "deltaTime": 0,
        "channel": 5,
        "type": "channel",
        "noteNumber": 42,
        "velocity": 90,
        "subtype": "noteOn"
      },
      {
        "deltaTime": 0,
        "channel": 5,
        "type": "channel",
        "noteNumber": 70,
        "velocity": 80,
        "subtype": "noteOn"
      },
      {
        "deltaTime": 250,
        "channel": 5,
        "type": "channel",
        "subtype": "noteOff",
        "noteNumber": 70,
        "velocity": 80
      },
      {
        "deltaTime": 0,
        "channel": 5,
        "type": "channel",
        "subtype": "noteOff",
        "noteNumber": 42,
        "velocity": 90
      },
      {
        "deltaTime": 0,
        "channel": 5,
        "type": "channel",
        "subtype": "noteOff",
        "noteNumber": 35,
        "velocity": 100
      },
      {
        "deltaTime": 250,
        "channel": 5,
        "type": "channel",
        "noteNumber": 42,
        "velocity": 70,
        "subtype": "noteOn"
      },
      {
        "deltaTime": 0,
        "channel": 5,
        "type": "channel",
        "noteNumber": 69,
        "velocity": 50,
        "subtype": "noteOn"
      },
      {
        "deltaTime": 58,
        "channel": 5,
        "type": "channel",
        "noteNumber": 37,
        "velocity": 106,
        "subtype": "noteOn"
      },
      {
        "deltaTime": 166,
        "channel": 5,
        "type": "channel",
        "subtype": "noteOff",
        "noteNumber": 37,
        "velocity": 106
      },
      {
        "deltaTime": 26,
        "channel": 5,
        "type": "channel",
        "subtype": "noteOff",
        "noteNumber": 69,
        "velocity": 50
      },
      {
        "deltaTime": 0,
        "channel": 5,
        "type": "channel",
        "subtype": "noteOff",
        "noteNumber": 42,
        "velocity": 70
      },
      {
        "deltaTime": 250,
        "channel": 5,
        "type": "channel",
        "noteNumber": 42,
        "velocity": 70,
        "subtype": "noteOn"
      },
      {
        "deltaTime": 0,
        "channel": 5,
        "type": "channel",
        "noteNumber": 70,
        "velocity": 80,
        "subtype": "noteOn"
      },
      {
        "deltaTime": 250,
        "channel": 5,
        "type": "channel",
        "subtype": "noteOff",
        "noteNumber": 70,
        "velocity": 80
      },
      {
        "deltaTime": 0,
        "channel": 5,
        "type": "channel",
        "subtype": "noteOff",
        "noteNumber": 42,
        "velocity": 70
      },
      {
        "deltaTime": 250,
        "channel": 5,
        "type": "channel",
        "noteNumber": 35,
        "velocity": 70,
        "subtype": "noteOn"
      },
      {
        "deltaTime": 0,
        "channel": 5,
        "type": "channel",
        "noteNumber": 42,
        "velocity": 70,
        "subtype": "noteOn"
      },
      {
        "deltaTime": 0,
        "channel": 5,
        "type": "channel",
        "noteNumber": 69,
        "velocity": 50,
        "subtype": "noteOn"
      },
      {
        "deltaTime": 250,
        "channel": 5,
        "type": "channel",
        "subtype": "noteOff",
        "noteNumber": 69,
        "velocity": 50
      },
      {
        "deltaTime": 0,
        "channel": 5,
        "type": "channel",
        "subtype": "noteOff",
        "noteNumber": 42,
        "velocity": 70
      },
      {
        "deltaTime": 0,
        "channel": 5,
        "type": "channel",
        "subtype": "noteOff",
        "noteNumber": 35,
        "velocity": 70
      },
      {
        "deltaTime": 250,
        "channel": 5,
        "type": "channel",
        "noteNumber": 70,
        "velocity": 80,
        "subtype": "noteOn"
      },
      {
        "deltaTime": 0,
        "channel": 5,
        "type": "channel",
        "noteNumber": 42,
        "velocity": 90,
        "subtype": "noteOn"
      },
      {
        "deltaTime": 0,
        "channel": 5,
        "type": "channel",
        "noteNumber": 35,
        "velocity": 100,
        "subtype": "noteOn"
      },
      {
        "deltaTime": 16,
        "channel": 5,
        "type": "channel",
        "noteNumber": 37,
        "velocity": 108,
        "subtype": "noteOn"
      },
      {
        "deltaTime": 172,
        "channel": 5,
        "type": "channel",
        "subtype": "noteOff",
        "noteNumber": 37,
        "velocity": 108
      },
      {
        "deltaTime": 62,
        "channel": 5,
        "type": "channel",
        "subtype": "noteOff",
        "noteNumber": 35,
        "velocity": 100
      },
      {
        "deltaTime": 0,
        "channel": 5,
        "type": "channel",
        "subtype": "noteOff",
        "noteNumber": 42,
        "velocity": 90
      },
      {
        "deltaTime": 0,
        "channel": 5,
        "type": "channel",
        "subtype": "noteOff",
        "noteNumber": 70,
        "velocity": 80
      },
      {
        "deltaTime": 250,
        "channel": 5,
        "type": "channel",
        "noteNumber": 42,
        "velocity": 70,
        "subtype": "noteOn"
      },
      {
        "deltaTime": 0,
        "channel": 5,
        "type": "channel",
        "noteNumber": 69,
        "velocity": 50,
        "subtype": "noteOn"
      },
      {
        "deltaTime": 250,
        "channel": 5,
        "type": "channel",
        "subtype": "noteOff",
        "noteNumber": 69,
        "velocity": 50
      },
      {
        "deltaTime": 0,
        "channel": 5,
        "type": "channel",
        "subtype": "noteOff",
        "noteNumber": 42,
        "velocity": 70
      },
      {
        "deltaTime": 250,
        "channel": 5,
        "type": "channel",
        "noteNumber": 42,
        "velocity": 70,
        "subtype": "noteOn"
      },
      {
        "deltaTime": 0,
        "channel": 5,
        "type": "channel",
        "noteNumber": 70,
        "velocity": 80,
        "subtype": "noteOn"
      },
      {
        "deltaTime": 48,
        "channel": 5,
        "type": "channel",
        "noteNumber": 37,
        "velocity": 108,
        "subtype": "noteOn"
      },
      {
        "deltaTime": 170,
        "channel": 5,
        "type": "channel",
        "subtype": "noteOff",
        "noteNumber": 37,
        "velocity": 108
      },
      {
        "deltaTime": 32,
        "channel": 5,
        "type": "channel",
        "subtype": "noteOff",
        "noteNumber": 70,
        "velocity": 80
      },
      {
        "deltaTime": 0,
        "channel": 5,
        "type": "channel",
        "subtype": "noteOff",
        "noteNumber": 42,
        "velocity": 70
      },
      {
        "deltaTime": 250,
        "channel": 5,
        "type": "channel",
        "noteNumber": 35,
        "velocity": 70,
        "subtype": "noteOn"
      },
      {
        "deltaTime": 0,
        "channel": 5,
        "type": "channel",
        "noteNumber": 42,
        "velocity": 70,
        "subtype": "noteOn"
      },
      {
        "deltaTime": 0,
        "channel": 5,
        "type": "channel",
        "noteNumber": 69,
        "velocity": 50,
        "subtype": "noteOn"
      },
      {
        "deltaTime": 250,
        "channel": 5,
        "type": "channel",
        "subtype": "noteOff",
        "noteNumber": 69,
        "velocity": 50
      },
      {
        "deltaTime": 0,
        "channel": 5,
        "type": "channel",
        "subtype": "noteOff",
        "noteNumber": 42,
        "velocity": 70
      },
      {
        "deltaTime": 0,
        "channel": 5,
        "type": "channel",
        "subtype": "noteOff",
        "noteNumber": 35,
        "velocity": 70
      },
      {
        "deltaTime": 250,
        "channel": 5,
        "type": "channel",
        "noteNumber": 35,
        "velocity": 100,
        "subtype": "noteOn"
      },
      {
        "deltaTime": 0,
        "channel": 5,
        "type": "channel",
        "noteNumber": 42,
        "velocity": 90,
        "subtype": "noteOn"
      },
      {
        "deltaTime": 0,
        "channel": 5,
        "type": "channel",
        "noteNumber": 70,
        "velocity": 80,
        "subtype": "noteOn"
      },
      {
        "deltaTime": 250,
        "channel": 5,
        "type": "channel",
        "subtype": "noteOff",
        "noteNumber": 70,
        "velocity": 80
      },
      {
        "deltaTime": 0,
        "channel": 5,
        "type": "channel",
        "subtype": "noteOff",
        "noteNumber": 42,
        "velocity": 90
      },
      {
        "deltaTime": 0,
        "channel": 5,
        "type": "channel",
        "subtype": "noteOff",
        "noteNumber": 35,
        "velocity": 100
      },
      {
        "deltaTime": 250,
        "channel": 5,
        "type": "channel",
        "noteNumber": 42,
        "velocity": 70,
        "subtype": "noteOn"
      },
      {
        "deltaTime": 0,
        "channel": 5,
        "type": "channel",
        "noteNumber": 69,
        "velocity": 50,
        "subtype": "noteOn"
      },
      {
        "deltaTime": 58,
        "channel": 5,
        "type": "channel",
        "noteNumber": 37,
        "velocity": 106,
        "subtype": "noteOn"
      },
      {
        "deltaTime": 166,
        "channel": 5,
        "type": "channel",
        "subtype": "noteOff",
        "noteNumber": 37,
        "velocity": 106
      },
      {
        "deltaTime": 26,
        "channel": 5,
        "type": "channel",
        "subtype": "noteOff",
        "noteNumber": 69,
        "velocity": 50
      },
      {
        "deltaTime": 0,
        "channel": 5,
        "type": "channel",
        "subtype": "noteOff",
        "noteNumber": 42,
        "velocity": 70
      },
      {
        "deltaTime": 250,
        "channel": 5,
        "type": "channel",
        "noteNumber": 42,
        "velocity": 70,
        "subtype": "noteOn"
      },
      {
        "deltaTime": 0,
        "channel": 5,
        "type": "channel",
        "noteNumber": 70,
        "velocity": 80,
        "subtype": "noteOn"
      },
      {
        "deltaTime": 250,
        "channel": 5,
        "type": "channel",
        "subtype": "noteOff",
        "noteNumber": 70,
        "velocity": 80
      },
      {
        "deltaTime": 0,
        "channel": 5,
        "type": "channel",
        "subtype": "noteOff",
        "noteNumber": 42,
        "velocity": 70
      },
      {
        "deltaTime": 250,
        "channel": 5,
        "type": "channel",
        "noteNumber": 35,
        "velocity": 70,
        "subtype": "noteOn"
      },
      {
        "deltaTime": 0,
        "channel": 5,
        "type": "channel",
        "noteNumber": 42,
        "velocity": 70,
        "subtype": "noteOn"
      },
      {
        "deltaTime": 0,
        "channel": 5,
        "type": "channel",
        "noteNumber": 69,
        "velocity": 50,
        "subtype": "noteOn"
      },
      {
        "deltaTime": 250,
        "channel": 5,
        "type": "channel",
        "subtype": "noteOff",
        "noteNumber": 69,
        "velocity": 50
      },
      {
        "deltaTime": 0,
        "channel": 5,
        "type": "channel",
        "subtype": "noteOff",
        "noteNumber": 42,
        "velocity": 70
      },
      {
        "deltaTime": 0,
        "channel": 5,
        "type": "channel",
        "subtype": "noteOff",
        "noteNumber": 35,
        "velocity": 70
      },
      {
        "deltaTime": 250,
        "channel": 5,
        "type": "channel",
        "noteNumber": 70,
        "velocity": 80,
        "subtype": "noteOn"
      },
      {
        "deltaTime": 0,
        "channel": 5,
        "type": "channel",
        "noteNumber": 45,
        "velocity": 70,
        "subtype": "noteOn"
      },
      {
        "deltaTime": 0,
        "channel": 5,
        "type": "channel",
        "noteNumber": 35,
        "velocity": 100,
        "subtype": "noteOn"
      },
      {
        "deltaTime": 16,
        "channel": 5,
        "type": "channel",
        "noteNumber": 37,
        "velocity": 108,
        "subtype": "noteOn"
      },
      {
        "deltaTime": 172,
        "channel": 5,
        "type": "channel",
        "subtype": "noteOff",
        "noteNumber": 37,
        "velocity": 108
      },
      {
        "deltaTime": 62,
        "channel": 5,
        "type": "channel",
        "subtype": "noteOff",
        "noteNumber": 35,
        "velocity": 100
      },
      {
        "deltaTime": 0,
        "channel": 5,
        "type": "channel",
        "subtype": "noteOff",
        "noteNumber": 45,
        "velocity": 70
      },
      {
        "deltaTime": 0,
        "channel": 5,
        "type": "channel",
        "subtype": "noteOff",
        "noteNumber": 70,
        "velocity": 80
      },
      {
        "deltaTime": 250,
        "channel": 5,
        "type": "channel",
        "noteNumber": 45,
        "velocity": 50,
        "subtype": "noteOn"
      },
      {
        "deltaTime": 0,
        "channel": 5,
        "type": "channel",
        "noteNumber": 69,
        "velocity": 50,
        "subtype": "noteOn"
      },
      {
        "deltaTime": 250,
        "channel": 5,
        "type": "channel",
        "subtype": "noteOff",
        "noteNumber": 69,
        "velocity": 50
      },
      {
        "deltaTime": 0,
        "channel": 5,
        "type": "channel",
        "subtype": "noteOff",
        "noteNumber": 45,
        "velocity": 50
      },
      {
        "deltaTime": 250,
        "channel": 5,
        "type": "channel",
        "noteNumber": 48,
        "velocity": 100,
        "subtype": "noteOn"
      },
      {
        "deltaTime": 0,
        "channel": 5,
        "type": "channel",
        "noteNumber": 70,
        "velocity": 80,
        "subtype": "noteOn"
      },
      {
        "deltaTime": 48,
        "channel": 5,
        "type": "channel",
        "noteNumber": 37,
        "velocity": 108,
        "subtype": "noteOn"
      },
      {
        "deltaTime": 170,
        "channel": 5,
        "type": "channel",
        "subtype": "noteOff",
        "noteNumber": 37,
        "velocity": 108
      },
      {
        "deltaTime": 32,
        "channel": 5,
        "type": "channel",
        "subtype": "noteOff",
        "noteNumber": 70,
        "velocity": 80
      },
      {
        "deltaTime": 0,
        "channel": 5,
        "type": "channel",
        "subtype": "noteOff",
        "noteNumber": 48,
        "velocity": 100
      },
      {
        "deltaTime": 250,
        "channel": 5,
        "type": "channel",
        "noteNumber": 35,
        "velocity": 70,
        "subtype": "noteOn"
      },
      {
        "deltaTime": 0,
        "channel": 5,
        "type": "channel",
        "noteNumber": 45,
        "velocity": 60,
        "subtype": "noteOn"
      },
      {
        "deltaTime": 0,
        "channel": 5,
        "type": "channel",
        "noteNumber": 69,
        "velocity": 50,
        "subtype": "noteOn"
      },
      {
        "deltaTime": 250,
        "channel": 5,
        "type": "channel",
        "subtype": "noteOff",
        "noteNumber": 69,
        "velocity": 50
      },
      {
        "deltaTime": 0,
        "channel": 5,
        "type": "channel",
        "subtype": "noteOff",
        "noteNumber": 45,
        "velocity": 60
      },
      {
        "deltaTime": 0,
        "channel": 5,
        "type": "channel",
        "subtype": "noteOff",
        "noteNumber": 35,
        "velocity": 70
      },
      {
        "deltaTime": 250,
        "channel": 5,
        "type": "channel",
        "noteNumber": 35,
        "velocity": 100,
        "subtype": "noteOn"
      },
      {
        "deltaTime": 0,
        "channel": 5,
        "type": "channel",
        "noteNumber": 45,
        "velocity": 70,
        "subtype": "noteOn"
      },
      {
        "deltaTime": 0,
        "channel": 5,
        "type": "channel",
        "noteNumber": 70,
        "velocity": 80,
        "subtype": "noteOn"
      },
      {
        "deltaTime": 250,
        "channel": 5,
        "type": "channel",
        "subtype": "noteOff",
        "noteNumber": 70,
        "velocity": 80
      },
      {
        "deltaTime": 0,
        "channel": 5,
        "type": "channel",
        "subtype": "noteOff",
        "noteNumber": 45,
        "velocity": 70
      },
      {
        "deltaTime": 0,
        "channel": 5,
        "type": "channel",
        "subtype": "noteOff",
        "noteNumber": 35,
        "velocity": 100
      },
      {
        "deltaTime": 250,
        "channel": 5,
        "type": "channel",
        "noteNumber": 69,
        "velocity": 50,
        "subtype": "noteOn"
      },
      {
        "deltaTime": 0,
        "channel": 5,
        "type": "channel",
        "noteNumber": 45,
        "velocity": 80,
        "subtype": "noteOn"
      },
      {
        "deltaTime": 0,
        "channel": 5,
        "type": "channel",
        "noteNumber": 38,
        "velocity": 90,
        "subtype": "noteOn"
      },
      {
        "deltaTime": 58,
        "channel": 5,
        "type": "channel",
        "noteNumber": 37,
        "velocity": 106,
        "subtype": "noteOn"
      },
      {
        "deltaTime": 166,
        "channel": 5,
        "type": "channel",
        "subtype": "noteOff",
        "noteNumber": 37,
        "velocity": 106
      },
      {
        "deltaTime": 26,
        "channel": 5,
        "type": "channel",
        "subtype": "noteOff",
        "noteNumber": 38,
        "velocity": 90
      },
      {
        "deltaTime": 0,
        "channel": 5,
        "type": "channel",
        "subtype": "noteOff",
        "noteNumber": 45,
        "velocity": 80
      },
      {
        "deltaTime": 0,
        "channel": 5,
        "type": "channel",
        "subtype": "noteOff",
        "noteNumber": 69,
        "velocity": 50
      },
      {
        "deltaTime": 250,
        "channel": 5,
        "type": "channel",
        "noteNumber": 41,
        "velocity": 90,
        "subtype": "noteOn"
      },
      {
        "deltaTime": 0,
        "channel": 5,
        "type": "channel",
        "noteNumber": 70,
        "velocity": 80,
        "subtype": "noteOn"
      },
      {
        "deltaTime": 250,
        "channel": 5,
        "type": "channel",
        "subtype": "noteOff",
        "noteNumber": 70,
        "velocity": 80
      },
      {
        "deltaTime": 0,
        "channel": 5,
        "type": "channel",
        "subtype": "noteOff",
        "noteNumber": 41,
        "velocity": 90
      },
      {
        "deltaTime": 250,
        "channel": 5,
        "type": "channel",
        "noteNumber": 41,
        "velocity": 115,
        "subtype": "noteOn"
      },
      {
        "deltaTime": 0,
        "channel": 5,
        "type": "channel",
        "noteNumber": 69,
        "velocity": 50,
        "subtype": "noteOn"
      },
      {
        "deltaTime": 250,
        "channel": 5,
        "type": "channel",
        "subtype": "noteOff",
        "noteNumber": 69,
        "velocity": 50
      },
      {
        "deltaTime": 0,
        "channel": 5,
        "type": "channel",
        "subtype": "noteOff",
        "noteNumber": 41,
        "velocity": 115
      },
      {
        "deltaTime": 250,
        "channel": 5,
        "type": "channel",
        "noteNumber": 70,
        "velocity": 80,
        "subtype": "noteOn"
      },
      {
        "deltaTime": 0,
        "channel": 5,
        "type": "channel",
        "noteNumber": 49,
        "velocity": 70,
        "subtype": "noteOn"
      },
      {
        "deltaTime": 0,
        "channel": 5,
        "type": "channel",
        "noteNumber": 35,
        "velocity": 100,
        "subtype": "noteOn"
      },
      {
        "deltaTime": 16,
        "channel": 5,
        "type": "channel",
        "noteNumber": 37,
        "velocity": 108,
        "subtype": "noteOn"
      },
      {
        "deltaTime": 172,
        "channel": 5,
        "type": "channel",
        "subtype": "noteOff",
        "noteNumber": 37,
        "velocity": 108
      },
      {
        "deltaTime": 62,
        "channel": 5,
        "type": "channel",
        "subtype": "noteOff",
        "noteNumber": 35,
        "velocity": 100
      },
      {
        "deltaTime": 0,
        "channel": 5,
        "type": "channel",
        "subtype": "noteOff",
        "noteNumber": 49,
        "velocity": 70
      },
      {
        "deltaTime": 0,
        "channel": 5,
        "type": "channel",
        "subtype": "noteOff",
        "noteNumber": 70,
        "velocity": 80
      },
      {
        "deltaTime": 250,
        "channel": 5,
        "type": "channel",
        "noteNumber": 51,
        "velocity": 70,
        "subtype": "noteOn"
      },
      {
        "deltaTime": 0,
        "channel": 5,
        "type": "channel",
        "noteNumber": 63,
        "velocity": 40,
        "subtype": "noteOn"
      },
      {
        "deltaTime": 0,
        "channel": 5,
        "type": "channel",
        "noteNumber": 69,
        "velocity": 50,
        "subtype": "noteOn"
      },
      {
        "deltaTime": 250,
        "channel": 5,
        "type": "channel",
        "subtype": "noteOff",
        "noteNumber": 69,
        "velocity": 50
      },
      {
        "deltaTime": 0,
        "channel": 5,
        "type": "channel",
        "subtype": "noteOff",
        "noteNumber": 63,
        "velocity": 40
      },
      {
        "deltaTime": 0,
        "channel": 5,
        "type": "channel",
        "subtype": "noteOff",
        "noteNumber": 51,
        "velocity": 70
      },
      {
        "deltaTime": 250,
        "channel": 5,
        "type": "channel",
        "noteNumber": 70,
        "velocity": 80,
        "subtype": "noteOn"
      },
      {
        "deltaTime": 0,
        "channel": 5,
        "type": "channel",
        "noteNumber": 63,
        "velocity": 60,
        "subtype": "noteOn"
      },
      {
        "deltaTime": 0,
        "channel": 5,
        "type": "channel",
        "noteNumber": 51,
        "velocity": 90,
        "subtype": "noteOn"
      },
      {
        "deltaTime": 48,
        "channel": 5,
        "type": "channel",
        "noteNumber": 37,
        "velocity": 108,
        "subtype": "noteOn"
      },
      {
        "deltaTime": 170,
        "channel": 5,
        "type": "channel",
        "subtype": "noteOff",
        "noteNumber": 37,
        "velocity": 108
      },
      {
        "deltaTime": 32,
        "channel": 5,
        "type": "channel",
        "subtype": "noteOff",
        "noteNumber": 51,
        "velocity": 90
      },
      {
        "deltaTime": 0,
        "channel": 5,
        "type": "channel",
        "subtype": "noteOff",
        "noteNumber": 63,
        "velocity": 60
      },
      {
        "deltaTime": 0,
        "channel": 5,
        "type": "channel",
        "subtype": "noteOff",
        "noteNumber": 70,
        "velocity": 80
      },
      {
        "deltaTime": 250,
        "channel": 5,
        "type": "channel",
        "noteNumber": 62,
        "velocity": 70,
        "subtype": "noteOn"
      },
      {
        "deltaTime": 0,
        "channel": 5,
        "type": "channel",
        "noteNumber": 56,
        "velocity": 40,
        "subtype": "noteOn"
      },
      {
        "deltaTime": 0,
        "channel": 5,
        "type": "channel",
        "noteNumber": 35,
        "velocity": 70,
        "subtype": "noteOn"
      },
      {
        "deltaTime": 0,
        "channel": 5,
        "type": "channel",
        "noteNumber": 51,
        "velocity": 70,
        "subtype": "noteOn"
      },
      {
        "deltaTime": 0,
        "channel": 5,
        "type": "channel",
        "noteNumber": 69,
        "velocity": 50,
        "subtype": "noteOn"
      },
      {
        "deltaTime": 250,
        "channel": 5,
        "type": "channel",
        "subtype": "noteOff",
        "noteNumber": 69,
        "velocity": 50
      },
      {
        "deltaTime": 0,
        "channel": 5,
        "type": "channel",
        "subtype": "noteOff",
        "noteNumber": 51,
        "velocity": 70
      },
      {
        "deltaTime": 0,
        "channel": 5,
        "type": "channel",
        "subtype": "noteOff",
        "noteNumber": 35,
        "velocity": 70
      },
      {
        "deltaTime": 0,
        "channel": 5,
        "type": "channel",
        "subtype": "noteOff",
        "noteNumber": 56,
        "velocity": 40
      },
      {
        "deltaTime": 0,
        "channel": 5,
        "type": "channel",
        "subtype": "noteOff",
        "noteNumber": 62,
        "velocity": 70
      },
      {
        "deltaTime": 250,
        "channel": 5,
        "type": "channel",
        "noteNumber": 35,
        "velocity": 100,
        "subtype": "noteOn"
      },
      {
        "deltaTime": 0,
        "channel": 5,
        "type": "channel",
        "noteNumber": 51,
        "velocity": 90,
        "subtype": "noteOn"
      },
      {
        "deltaTime": 0,
        "channel": 5,
        "type": "channel",
        "noteNumber": 70,
        "velocity": 80,
        "subtype": "noteOn"
      },
      {
        "deltaTime": 250,
        "channel": 5,
        "type": "channel",
        "subtype": "noteOff",
        "noteNumber": 70,
        "velocity": 80
      },
      {
        "deltaTime": 0,
        "channel": 5,
        "type": "channel",
        "subtype": "noteOff",
        "noteNumber": 51,
        "velocity": 90
      },
      {
        "deltaTime": 0,
        "channel": 5,
        "type": "channel",
        "subtype": "noteOff",
        "noteNumber": 35,
        "velocity": 100
      },
      {
        "deltaTime": 250,
        "channel": 5,
        "type": "channel",
        "noteNumber": 51,
        "velocity": 70,
        "subtype": "noteOn"
      },
      {
        "deltaTime": 0,
        "channel": 5,
        "type": "channel",
        "noteNumber": 69,
        "velocity": 50,
        "subtype": "noteOn"
      },
      {
        "deltaTime": 58,
        "channel": 5,
        "type": "channel",
        "noteNumber": 37,
        "velocity": 106,
        "subtype": "noteOn"
      },
      {
        "deltaTime": 166,
        "channel": 5,
        "type": "channel",
        "subtype": "noteOff",
        "noteNumber": 37,
        "velocity": 106
      },
      {
        "deltaTime": 26,
        "channel": 5,
        "type": "channel",
        "subtype": "noteOff",
        "noteNumber": 69,
        "velocity": 50
      },
      {
        "deltaTime": 0,
        "channel": 5,
        "type": "channel",
        "subtype": "noteOff",
        "noteNumber": 51,
        "velocity": 70
      },
      {
        "deltaTime": 250,
        "channel": 5,
        "type": "channel",
        "noteNumber": 62,
        "velocity": 70,
        "subtype": "noteOn"
      },
      {
        "deltaTime": 0,
        "channel": 5,
        "type": "channel",
        "noteNumber": 51,
        "velocity": 90,
        "subtype": "noteOn"
      },
      {
        "deltaTime": 0,
        "channel": 5,
        "type": "channel",
        "noteNumber": 56,
        "velocity": 40,
        "subtype": "noteOn"
      },
      {
        "deltaTime": 0,
        "channel": 5,
        "type": "channel",
        "noteNumber": 70,
        "velocity": 80,
        "subtype": "noteOn"
      },
      {
        "deltaTime": 250,
        "channel": 5,
        "type": "channel",
        "subtype": "noteOff",
        "noteNumber": 70,
        "velocity": 80
      },
      {
        "deltaTime": 0,
        "channel": 5,
        "type": "channel",
        "subtype": "noteOff",
        "noteNumber": 56,
        "velocity": 40
      },
      {
        "deltaTime": 0,
        "channel": 5,
        "type": "channel",
        "subtype": "noteOff",
        "noteNumber": 51,
        "velocity": 90
      },
      {
        "deltaTime": 0,
        "channel": 5,
        "type": "channel",
        "subtype": "noteOff",
        "noteNumber": 62,
        "velocity": 70
      },
      {
        "deltaTime": 250,
        "channel": 5,
        "type": "channel",
        "noteNumber": 35,
        "velocity": 70,
        "subtype": "noteOn"
      },
      {
        "deltaTime": 0,
        "channel": 5,
        "type": "channel",
        "noteNumber": 51,
        "velocity": 70,
        "subtype": "noteOn"
      },
      {
        "deltaTime": 0,
        "channel": 5,
        "type": "channel",
        "noteNumber": 69,
        "velocity": 50,
        "subtype": "noteOn"
      },
      {
        "deltaTime": 250,
        "channel": 5,
        "type": "channel",
        "subtype": "noteOff",
        "noteNumber": 69,
        "velocity": 50
      },
      {
        "deltaTime": 0,
        "channel": 5,
        "type": "channel",
        "subtype": "noteOff",
        "noteNumber": 51,
        "velocity": 70
      },
      {
        "deltaTime": 0,
        "channel": 5,
        "type": "channel",
        "subtype": "noteOff",
        "noteNumber": 35,
        "velocity": 70
      },
      {
        "deltaTime": 250,
        "channel": 5,
        "type": "channel",
        "noteNumber": 70,
        "velocity": 80,
        "subtype": "noteOn"
      },
      {
        "deltaTime": 0,
        "channel": 5,
        "type": "channel",
        "noteNumber": 51,
        "velocity": 90,
        "subtype": "noteOn"
      },
      {
        "deltaTime": 0,
        "channel": 5,
        "type": "channel",
        "noteNumber": 35,
        "velocity": 100,
        "subtype": "noteOn"
      },
      {
        "deltaTime": 0,
        "channel": 5,
        "type": "channel",
        "noteNumber": 63,
        "velocity": 40,
        "subtype": "noteOn"
      },
      {
        "deltaTime": 16,
        "channel": 5,
        "type": "channel",
        "noteNumber": 37,
        "velocity": 108,
        "subtype": "noteOn"
      },
      {
        "deltaTime": 172,
        "channel": 5,
        "type": "channel",
        "subtype": "noteOff",
        "noteNumber": 37,
        "velocity": 108
      },
      {
        "deltaTime": 62,
        "channel": 5,
        "type": "channel",
        "subtype": "noteOff",
        "noteNumber": 63,
        "velocity": 40
      },
      {
        "deltaTime": 0,
        "channel": 5,
        "type": "channel",
        "subtype": "noteOff",
        "noteNumber": 35,
        "velocity": 100
      },
      {
        "deltaTime": 0,
        "channel": 5,
        "type": "channel",
        "subtype": "noteOff",
        "noteNumber": 51,
        "velocity": 90
      },
      {
        "deltaTime": 0,
        "channel": 5,
        "type": "channel",
        "subtype": "noteOff",
        "noteNumber": 70,
        "velocity": 80
      },
      {
        "deltaTime": 250,
        "channel": 5,
        "type": "channel",
        "noteNumber": 51,
        "velocity": 70,
        "subtype": "noteOn"
      },
      {
        "deltaTime": 0,
        "channel": 5,
        "type": "channel",
        "noteNumber": 63,
        "velocity": 40,
        "subtype": "noteOn"
      },
      {
        "deltaTime": 0,
        "channel": 5,
        "type": "channel",
        "noteNumber": 69,
        "velocity": 50,
        "subtype": "noteOn"
      },
      {
        "deltaTime": 250,
        "channel": 5,
        "type": "channel",
        "subtype": "noteOff",
        "noteNumber": 69,
        "velocity": 50
      },
      {
        "deltaTime": 0,
        "channel": 5,
        "type": "channel",
        "subtype": "noteOff",
        "noteNumber": 63,
        "velocity": 40
      },
      {
        "deltaTime": 0,
        "channel": 5,
        "type": "channel",
        "subtype": "noteOff",
        "noteNumber": 51,
        "velocity": 70
      },
      {
        "deltaTime": 250,
        "channel": 5,
        "type": "channel",
        "noteNumber": 51,
        "velocity": 90,
        "subtype": "noteOn"
      },
      {
        "deltaTime": 0,
        "channel": 5,
        "type": "channel",
        "noteNumber": 70,
        "velocity": 80,
        "subtype": "noteOn"
      },
      {
        "deltaTime": 48,
        "channel": 5,
        "type": "channel",
        "noteNumber": 37,
        "velocity": 108,
        "subtype": "noteOn"
      },
      {
        "deltaTime": 170,
        "channel": 5,
        "type": "channel",
        "subtype": "noteOff",
        "noteNumber": 37,
        "velocity": 108
      },
      {
        "deltaTime": 32,
        "channel": 5,
        "type": "channel",
        "subtype": "noteOff",
        "noteNumber": 70,
        "velocity": 80
      },
      {
        "deltaTime": 0,
        "channel": 5,
        "type": "channel",
        "subtype": "noteOff",
        "noteNumber": 51,
        "velocity": 90
      },
      {
        "deltaTime": 250,
        "channel": 5,
        "type": "channel",
        "noteNumber": 51,
        "velocity": 70,
        "subtype": "noteOn"
      },
      {
        "deltaTime": 0,
        "channel": 5,
        "type": "channel",
        "noteNumber": 56,
        "velocity": 40,
        "subtype": "noteOn"
      },
      {
        "deltaTime": 0,
        "channel": 5,
        "type": "channel",
        "noteNumber": 35,
        "velocity": 70,
        "subtype": "noteOn"
      },
      {
        "deltaTime": 0,
        "channel": 5,
        "type": "channel",
        "noteNumber": 69,
        "velocity": 50,
        "subtype": "noteOn"
      },
      {
        "deltaTime": 250,
        "channel": 5,
        "type": "channel",
        "subtype": "noteOff",
        "noteNumber": 69,
        "velocity": 50
      },
      {
        "deltaTime": 0,
        "channel": 5,
        "type": "channel",
        "subtype": "noteOff",
        "noteNumber": 35,
        "velocity": 70
      },
      {
        "deltaTime": 0,
        "channel": 5,
        "type": "channel",
        "subtype": "noteOff",
        "noteNumber": 56,
        "velocity": 40
      },
      {
        "deltaTime": 0,
        "channel": 5,
        "type": "channel",
        "subtype": "noteOff",
        "noteNumber": 51,
        "velocity": 70
      },
      {
        "deltaTime": 250,
        "channel": 5,
        "type": "channel",
        "noteNumber": 35,
        "velocity": 100,
        "subtype": "noteOn"
      },
      {
        "deltaTime": 0,
        "channel": 5,
        "type": "channel",
        "noteNumber": 51,
        "velocity": 90,
        "subtype": "noteOn"
      },
      {
        "deltaTime": 0,
        "channel": 5,
        "type": "channel",
        "noteNumber": 70,
        "velocity": 80,
        "subtype": "noteOn"
      },
      {
        "deltaTime": 250,
        "channel": 5,
        "type": "channel",
        "subtype": "noteOff",
        "noteNumber": 70,
        "velocity": 80
      },
      {
        "deltaTime": 0,
        "channel": 5,
        "type": "channel",
        "subtype": "noteOff",
        "noteNumber": 51,
        "velocity": 90
      },
      {
        "deltaTime": 0,
        "channel": 5,
        "type": "channel",
        "subtype": "noteOff",
        "noteNumber": 35,
        "velocity": 100
      },
      {
        "deltaTime": 250,
        "channel": 5,
        "type": "channel",
        "noteNumber": 51,
        "velocity": 70,
        "subtype": "noteOn"
      },
      {
        "deltaTime": 0,
        "channel": 5,
        "type": "channel",
        "noteNumber": 69,
        "velocity": 50,
        "subtype": "noteOn"
      },
      {
        "deltaTime": 58,
        "channel": 5,
        "type": "channel",
        "noteNumber": 37,
        "velocity": 106,
        "subtype": "noteOn"
      },
      {
        "deltaTime": 166,
        "channel": 5,
        "type": "channel",
        "subtype": "noteOff",
        "noteNumber": 37,
        "velocity": 106
      },
      {
        "deltaTime": 26,
        "channel": 5,
        "type": "channel",
        "subtype": "noteOff",
        "noteNumber": 69,
        "velocity": 50
      },
      {
        "deltaTime": 0,
        "channel": 5,
        "type": "channel",
        "subtype": "noteOff",
        "noteNumber": 51,
        "velocity": 70
      },
      {
        "deltaTime": 250,
        "channel": 5,
        "type": "channel",
        "noteNumber": 51,
        "velocity": 90,
        "subtype": "noteOn"
      },
      {
        "deltaTime": 0,
        "channel": 5,
        "type": "channel",
        "noteNumber": 45,
        "velocity": 70,
        "subtype": "noteOn"
      },
      {
        "deltaTime": 0,
        "channel": 5,
        "type": "channel",
        "noteNumber": 70,
        "velocity": 80,
        "subtype": "noteOn"
      },
      {
        "deltaTime": 250,
        "channel": 5,
        "type": "channel",
        "subtype": "noteOff",
        "noteNumber": 70,
        "velocity": 80
      },
      {
        "deltaTime": 0,
        "channel": 5,
        "type": "channel",
        "subtype": "noteOff",
        "noteNumber": 45,
        "velocity": 70
      },
      {
        "deltaTime": 0,
        "channel": 5,
        "type": "channel",
        "subtype": "noteOff",
        "noteNumber": 51,
        "velocity": 90
      },
      {
        "deltaTime": 250,
        "channel": 5,
        "type": "channel",
        "noteNumber": 35,
        "velocity": 70,
        "subtype": "noteOn"
      },
      {
        "deltaTime": 0,
        "channel": 5,
        "type": "channel",
        "noteNumber": 51,
        "velocity": 70,
        "subtype": "noteOn"
      },
      {
        "deltaTime": 0,
        "channel": 5,
        "type": "channel",
        "noteNumber": 69,
        "velocity": 50,
        "subtype": "noteOn"
      },
      {
        "deltaTime": 250,
        "channel": 5,
        "type": "channel",
        "subtype": "noteOff",
        "noteNumber": 69,
        "velocity": 50
      },
      {
        "deltaTime": 0,
        "channel": 5,
        "type": "channel",
        "subtype": "noteOff",
        "noteNumber": 51,
        "velocity": 70
      },
      {
        "deltaTime": 0,
        "channel": 5,
        "type": "channel",
        "subtype": "noteOff",
        "noteNumber": 35,
        "velocity": 70
      },
      {
        "deltaTime": 250,
        "channel": 5,
        "type": "channel",
        "noteNumber": 70,
        "velocity": 80,
        "subtype": "noteOn"
      },
      {
        "deltaTime": 0,
        "channel": 5,
        "type": "channel",
        "noteNumber": 56,
        "velocity": 40,
        "subtype": "noteOn"
      },
      {
        "deltaTime": 0,
        "channel": 5,
        "type": "channel",
        "noteNumber": 35,
        "velocity": 100,
        "subtype": "noteOn"
      },
      {
        "deltaTime": 0,
        "channel": 5,
        "type": "channel",
        "noteNumber": 51,
        "velocity": 90,
        "subtype": "noteOn"
      },
      {
        "deltaTime": 16,
        "channel": 5,
        "type": "channel",
        "noteNumber": 37,
        "velocity": 108,
        "subtype": "noteOn"
      },
      {
        "deltaTime": 172,
        "channel": 5,
        "type": "channel",
        "subtype": "noteOff",
        "noteNumber": 37,
        "velocity": 108
      },
      {
        "deltaTime": 62,
        "channel": 5,
        "type": "channel",
        "subtype": "noteOff",
        "noteNumber": 51,
        "velocity": 90
      },
      {
        "deltaTime": 0,
        "channel": 5,
        "type": "channel",
        "subtype": "noteOff",
        "noteNumber": 35,
        "velocity": 100
      },
      {
        "deltaTime": 0,
        "channel": 5,
        "type": "channel",
        "subtype": "noteOff",
        "noteNumber": 56,
        "velocity": 40
      },
      {
        "deltaTime": 0,
        "channel": 5,
        "type": "channel",
        "subtype": "noteOff",
        "noteNumber": 70,
        "velocity": 80
      },
      {
        "deltaTime": 250,
        "channel": 5,
        "type": "channel",
        "noteNumber": 51,
        "velocity": 70,
        "subtype": "noteOn"
      },
      {
        "deltaTime": 0,
        "channel": 5,
        "type": "channel",
        "noteNumber": 63,
        "velocity": 40,
        "subtype": "noteOn"
      },
      {
        "deltaTime": 0,
        "channel": 5,
        "type": "channel",
        "noteNumber": 69,
        "velocity": 50,
        "subtype": "noteOn"
      },
      {
        "deltaTime": 250,
        "channel": 5,
        "type": "channel",
        "subtype": "noteOff",
        "noteNumber": 69,
        "velocity": 50
      },
      {
        "deltaTime": 0,
        "channel": 5,
        "type": "channel",
        "subtype": "noteOff",
        "noteNumber": 63,
        "velocity": 40
      },
      {
        "deltaTime": 0,
        "channel": 5,
        "type": "channel",
        "subtype": "noteOff",
        "noteNumber": 51,
        "velocity": 70
      },
      {
        "deltaTime": 250,
        "channel": 5,
        "type": "channel",
        "noteNumber": 70,
        "velocity": 80,
        "subtype": "noteOn"
      },
      {
        "deltaTime": 0,
        "channel": 5,
        "type": "channel",
        "noteNumber": 48,
        "velocity": 60,
        "subtype": "noteOn"
      },
      {
        "deltaTime": 0,
        "channel": 5,
        "type": "channel",
        "noteNumber": 51,
        "velocity": 90,
        "subtype": "noteOn"
      },
      {
        "deltaTime": 0,
        "channel": 5,
        "type": "channel",
        "noteNumber": 63,
        "velocity": 60,
        "subtype": "noteOn"
      },
      {
        "deltaTime": 48,
        "channel": 5,
        "type": "channel",
        "noteNumber": 37,
        "velocity": 108,
        "subtype": "noteOn"
      },
      {
        "deltaTime": 170,
        "channel": 5,
        "type": "channel",
        "subtype": "noteOff",
        "noteNumber": 37,
        "velocity": 108
      },
      {
        "deltaTime": 32,
        "channel": 5,
        "type": "channel",
        "subtype": "noteOff",
        "noteNumber": 63,
        "velocity": 60
      },
      {
        "deltaTime": 0,
        "channel": 5,
        "type": "channel",
        "subtype": "noteOff",
        "noteNumber": 51,
        "velocity": 90
      },
      {
        "deltaTime": 0,
        "channel": 5,
        "type": "channel",
        "subtype": "noteOff",
        "noteNumber": 48,
        "velocity": 60
      },
      {
        "deltaTime": 0,
        "channel": 5,
        "type": "channel",
        "subtype": "noteOff",
        "noteNumber": 70,
        "velocity": 80
      },
      {
        "deltaTime": 250,
        "channel": 5,
        "type": "channel",
        "noteNumber": 62,
        "velocity": 70,
        "subtype": "noteOn"
      },
      {
        "deltaTime": 0,
        "channel": 5,
        "type": "channel",
        "noteNumber": 51,
        "velocity": 70,
        "subtype": "noteOn"
      },
      {
        "deltaTime": 0,
        "channel": 5,
        "type": "channel",
        "noteNumber": 35,
        "velocity": 70,
        "subtype": "noteOn"
      },
      {
        "deltaTime": 0,
        "channel": 5,
        "type": "channel",
        "noteNumber": 69,
        "velocity": 50,
        "subtype": "noteOn"
      },
      {
        "deltaTime": 250,
        "channel": 5,
        "type": "channel",
        "subtype": "noteOff",
        "noteNumber": 69,
        "velocity": 50
      },
      {
        "deltaTime": 0,
        "channel": 5,
        "type": "channel",
        "subtype": "noteOff",
        "noteNumber": 35,
        "velocity": 70
      },
      {
        "deltaTime": 0,
        "channel": 5,
        "type": "channel",
        "subtype": "noteOff",
        "noteNumber": 51,
        "velocity": 70
      },
      {
        "deltaTime": 0,
        "channel": 5,
        "type": "channel",
        "subtype": "noteOff",
        "noteNumber": 62,
        "velocity": 70
      },
      {
        "deltaTime": 250,
        "channel": 5,
        "type": "channel",
        "noteNumber": 63,
        "velocity": 35,
        "subtype": "noteOn"
      },
      {
        "deltaTime": 0,
        "channel": 5,
        "type": "channel",
        "noteNumber": 51,
        "velocity": 90,
        "subtype": "noteOn"
      },
      {
        "deltaTime": 0,
        "channel": 5,
        "type": "channel",
        "noteNumber": 35,
        "velocity": 100,
        "subtype": "noteOn"
      },
      {
        "deltaTime": 0,
        "channel": 5,
        "type": "channel",
        "noteNumber": 70,
        "velocity": 80,
        "subtype": "noteOn"
      },
      {
        "deltaTime": 250,
        "channel": 5,
        "type": "channel",
        "subtype": "noteOff",
        "noteNumber": 70,
        "velocity": 80
      },
      {
        "deltaTime": 0,
        "channel": 5,
        "type": "channel",
        "subtype": "noteOff",
        "noteNumber": 35,
        "velocity": 100
      },
      {
        "deltaTime": 0,
        "channel": 5,
        "type": "channel",
        "subtype": "noteOff",
        "noteNumber": 51,
        "velocity": 90
      },
      {
        "deltaTime": 0,
        "channel": 5,
        "type": "channel",
        "subtype": "noteOff",
        "noteNumber": 63,
        "velocity": 35
      },
      {
        "deltaTime": 250,
        "channel": 5,
        "type": "channel",
        "noteNumber": 51,
        "velocity": 70,
        "subtype": "noteOn"
      },
      {
        "deltaTime": 0,
        "channel": 5,
        "type": "channel",
        "noteNumber": 69,
        "velocity": 50,
        "subtype": "noteOn"
      },
      {
        "deltaTime": 58,
        "channel": 5,
        "type": "channel",
        "noteNumber": 37,
        "velocity": 106,
        "subtype": "noteOn"
      },
      {
        "deltaTime": 166,
        "channel": 5,
        "type": "channel",
        "subtype": "noteOff",
        "noteNumber": 37,
        "velocity": 106
      },
      {
        "deltaTime": 26,
        "channel": 5,
        "type": "channel",
        "subtype": "noteOff",
        "noteNumber": 69,
        "velocity": 50
      },
      {
        "deltaTime": 0,
        "channel": 5,
        "type": "channel",
        "subtype": "noteOff",
        "noteNumber": 51,
        "velocity": 70
      },
      {
        "deltaTime": 250,
        "channel": 5,
        "type": "channel",
        "noteNumber": 62,
        "velocity": 70,
        "subtype": "noteOn"
      },
      {
        "deltaTime": 0,
        "channel": 5,
        "type": "channel",
        "noteNumber": 51,
        "velocity": 90,
        "subtype": "noteOn"
      },
      {
        "deltaTime": 0,
        "channel": 5,
        "type": "channel",
        "noteNumber": 56,
        "velocity": 40,
        "subtype": "noteOn"
      },
      {
        "deltaTime": 0,
        "channel": 5,
        "type": "channel",
        "noteNumber": 70,
        "velocity": 80,
        "subtype": "noteOn"
      },
      {
        "deltaTime": 250,
        "channel": 5,
        "type": "channel",
        "subtype": "noteOff",
        "noteNumber": 70,
        "velocity": 80
      },
      {
        "deltaTime": 0,
        "channel": 5,
        "type": "channel",
        "subtype": "noteOff",
        "noteNumber": 56,
        "velocity": 40
      },
      {
        "deltaTime": 0,
        "channel": 5,
        "type": "channel",
        "subtype": "noteOff",
        "noteNumber": 51,
        "velocity": 90
      },
      {
        "deltaTime": 0,
        "channel": 5,
        "type": "channel",
        "subtype": "noteOff",
        "noteNumber": 62,
        "velocity": 70
      },
      {
        "deltaTime": 250,
        "channel": 5,
        "type": "channel",
        "noteNumber": 35,
        "velocity": 70,
        "subtype": "noteOn"
      },
      {
        "deltaTime": 0,
        "channel": 5,
        "type": "channel",
        "noteNumber": 51,
        "velocity": 70,
        "subtype": "noteOn"
      },
      {
        "deltaTime": 0,
        "channel": 5,
        "type": "channel",
        "noteNumber": 69,
        "velocity": 50,
        "subtype": "noteOn"
      },
      {
        "deltaTime": 250,
        "channel": 5,
        "type": "channel",
        "subtype": "noteOff",
        "noteNumber": 69,
        "velocity": 50
      },
      {
        "deltaTime": 0,
        "channel": 5,
        "type": "channel",
        "subtype": "noteOff",
        "noteNumber": 51,
        "velocity": 70
      },
      {
        "deltaTime": 0,
        "channel": 5,
        "type": "channel",
        "subtype": "noteOff",
        "noteNumber": 35,
        "velocity": 70
      },
      {
        "deltaTime": 250,
        "channel": 5,
        "type": "channel",
        "noteNumber": 63,
        "velocity": 40,
        "subtype": "noteOn"
      },
      {
        "deltaTime": 0,
        "channel": 5,
        "type": "channel",
        "noteNumber": 70,
        "velocity": 80,
        "subtype": "noteOn"
      },
      {
        "deltaTime": 0,
        "channel": 5,
        "type": "channel",
        "noteNumber": 35,
        "velocity": 100,
        "subtype": "noteOn"
      },
      {
        "deltaTime": 0,
        "channel": 5,
        "type": "channel",
        "noteNumber": 51,
        "velocity": 90,
        "subtype": "noteOn"
      },
      {
        "deltaTime": 0,
        "channel": 5,
        "type": "channel",
        "noteNumber": 56,
        "velocity": 40,
        "subtype": "noteOn"
      },
      {
        "deltaTime": 16,
        "channel": 5,
        "type": "channel",
        "noteNumber": 37,
        "velocity": 108,
        "subtype": "noteOn"
      },
      {
        "deltaTime": 172,
        "channel": 5,
        "type": "channel",
        "subtype": "noteOff",
        "noteNumber": 37,
        "velocity": 108
      },
      {
        "deltaTime": 62,
        "channel": 5,
        "type": "channel",
        "subtype": "noteOff",
        "noteNumber": 56,
        "velocity": 40
      },
      {
        "deltaTime": 0,
        "channel": 5,
        "type": "channel",
        "subtype": "noteOff",
        "noteNumber": 51,
        "velocity": 90
      },
      {
        "deltaTime": 0,
        "channel": 5,
        "type": "channel",
        "subtype": "noteOff",
        "noteNumber": 35,
        "velocity": 100
      },
      {
        "deltaTime": 0,
        "channel": 5,
        "type": "channel",
        "subtype": "noteOff",
        "noteNumber": 70,
        "velocity": 80
      },
      {
        "deltaTime": 0,
        "channel": 5,
        "type": "channel",
        "subtype": "noteOff",
        "noteNumber": 63,
        "velocity": 40
      },
      {
        "deltaTime": 250,
        "channel": 5,
        "type": "channel",
        "noteNumber": 51,
        "velocity": 70,
        "subtype": "noteOn"
      },
      {
        "deltaTime": 0,
        "channel": 5,
        "type": "channel",
        "noteNumber": 63,
        "velocity": 40,
        "subtype": "noteOn"
      },
      {
        "deltaTime": 0,
        "channel": 5,
        "type": "channel",
        "noteNumber": 69,
        "velocity": 50,
        "subtype": "noteOn"
      },
      {
        "deltaTime": 250,
        "channel": 5,
        "type": "channel",
        "subtype": "noteOff",
        "noteNumber": 69,
        "velocity": 50
      },
      {
        "deltaTime": 0,
        "channel": 5,
        "type": "channel",
        "subtype": "noteOff",
        "noteNumber": 63,
        "velocity": 40
      },
      {
        "deltaTime": 0,
        "channel": 5,
        "type": "channel",
        "subtype": "noteOff",
        "noteNumber": 51,
        "velocity": 70
      },
      {
        "deltaTime": 250,
        "channel": 5,
        "type": "channel",
        "noteNumber": 51,
        "velocity": 90,
        "subtype": "noteOn"
      },
      {
        "deltaTime": 0,
        "channel": 5,
        "type": "channel",
        "noteNumber": 70,
        "velocity": 80,
        "subtype": "noteOn"
      },
      {
        "deltaTime": 48,
        "channel": 5,
        "type": "channel",
        "noteNumber": 37,
        "velocity": 108,
        "subtype": "noteOn"
      },
      {
        "deltaTime": 170,
        "channel": 5,
        "type": "channel",
        "subtype": "noteOff",
        "noteNumber": 37,
        "velocity": 108
      },
      {
        "deltaTime": 32,
        "channel": 5,
        "type": "channel",
        "subtype": "noteOff",
        "noteNumber": 70,
        "velocity": 80
      },
      {
        "deltaTime": 0,
        "channel": 5,
        "type": "channel",
        "subtype": "noteOff",
        "noteNumber": 51,
        "velocity": 90
      },
      {
        "deltaTime": 250,
        "channel": 5,
        "type": "channel",
        "noteNumber": 35,
        "velocity": 70,
        "subtype": "noteOn"
      },
      {
        "deltaTime": 0,
        "channel": 5,
        "type": "channel",
        "noteNumber": 51,
        "velocity": 70,
        "subtype": "noteOn"
      },
      {
        "deltaTime": 0,
        "channel": 5,
        "type": "channel",
        "noteNumber": 69,
        "velocity": 50,
        "subtype": "noteOn"
      },
      {
        "deltaTime": 250,
        "channel": 5,
        "type": "channel",
        "subtype": "noteOff",
        "noteNumber": 69,
        "velocity": 50
      },
      {
        "deltaTime": 0,
        "channel": 5,
        "type": "channel",
        "subtype": "noteOff",
        "noteNumber": 51,
        "velocity": 70
      },
      {
        "deltaTime": 0,
        "channel": 5,
        "type": "channel",
        "subtype": "noteOff",
        "noteNumber": 35,
        "velocity": 70
      },
      {
        "deltaTime": 250,
        "channel": 5,
        "type": "channel",
        "noteNumber": 35,
        "velocity": 100,
        "subtype": "noteOn"
      },
      {
        "deltaTime": 0,
        "channel": 5,
        "type": "channel",
        "noteNumber": 51,
        "velocity": 90,
        "subtype": "noteOn"
      },
      {
        "deltaTime": 0,
        "channel": 5,
        "type": "channel",
        "noteNumber": 70,
        "velocity": 80,
        "subtype": "noteOn"
      },
      {
        "deltaTime": 250,
        "channel": 5,
        "type": "channel",
        "subtype": "noteOff",
        "noteNumber": 70,
        "velocity": 80
      },
      {
        "deltaTime": 0,
        "channel": 5,
        "type": "channel",
        "subtype": "noteOff",
        "noteNumber": 51,
        "velocity": 90
      },
      {
        "deltaTime": 0,
        "channel": 5,
        "type": "channel",
        "subtype": "noteOff",
        "noteNumber": 35,
        "velocity": 100
      },
      {
        "deltaTime": 250,
        "channel": 5,
        "type": "channel",
        "noteNumber": 51,
        "velocity": 70,
        "subtype": "noteOn"
      },
      {
        "deltaTime": 0,
        "channel": 5,
        "type": "channel",
        "noteNumber": 69,
        "velocity": 50,
        "subtype": "noteOn"
      },
      {
        "deltaTime": 58,
        "channel": 5,
        "type": "channel",
        "noteNumber": 37,
        "velocity": 106,
        "subtype": "noteOn"
      },
      {
        "deltaTime": 166,
        "channel": 5,
        "type": "channel",
        "subtype": "noteOff",
        "noteNumber": 37,
        "velocity": 106
      },
      {
        "deltaTime": 26,
        "channel": 5,
        "type": "channel",
        "subtype": "noteOff",
        "noteNumber": 69,
        "velocity": 50
      },
      {
        "deltaTime": 0,
        "channel": 5,
        "type": "channel",
        "subtype": "noteOff",
        "noteNumber": 51,
        "velocity": 70
      },
      {
        "deltaTime": 250,
        "channel": 5,
        "type": "channel",
        "noteNumber": 51,
        "velocity": 90,
        "subtype": "noteOn"
      },
      {
        "deltaTime": 0,
        "channel": 5,
        "type": "channel",
        "noteNumber": 45,
        "velocity": 70,
        "subtype": "noteOn"
      },
      {
        "deltaTime": 0,
        "channel": 5,
        "type": "channel",
        "noteNumber": 70,
        "velocity": 80,
        "subtype": "noteOn"
      },
      {
        "deltaTime": 250,
        "channel": 5,
        "type": "channel",
        "subtype": "noteOff",
        "noteNumber": 70,
        "velocity": 80
      },
      {
        "deltaTime": 0,
        "channel": 5,
        "type": "channel",
        "subtype": "noteOff",
        "noteNumber": 45,
        "velocity": 70
      },
      {
        "deltaTime": 0,
        "channel": 5,
        "type": "channel",
        "subtype": "noteOff",
        "noteNumber": 51,
        "velocity": 90
      },
      {
        "deltaTime": 250,
        "channel": 5,
        "type": "channel",
        "noteNumber": 35,
        "velocity": 70,
        "subtype": "noteOn"
      },
      {
        "deltaTime": 0,
        "channel": 5,
        "type": "channel",
        "noteNumber": 51,
        "velocity": 70,
        "subtype": "noteOn"
      },
      {
        "deltaTime": 0,
        "channel": 5,
        "type": "channel",
        "noteNumber": 69,
        "velocity": 50,
        "subtype": "noteOn"
      },
      {
        "deltaTime": 250,
        "channel": 5,
        "type": "channel",
        "subtype": "noteOff",
        "noteNumber": 69,
        "velocity": 50
      },
      {
        "deltaTime": 0,
        "channel": 5,
        "type": "channel",
        "subtype": "noteOff",
        "noteNumber": 51,
        "velocity": 70
      },
      {
        "deltaTime": 0,
        "channel": 5,
        "type": "channel",
        "subtype": "noteOff",
        "noteNumber": 35,
        "velocity": 70
      },
      {
        "deltaTime": 250,
        "channel": 5,
        "type": "channel",
        "noteNumber": 70,
        "velocity": 80,
        "subtype": "noteOn"
      },
      {
        "deltaTime": 0,
        "channel": 5,
        "type": "channel",
        "noteNumber": 51,
        "velocity": 90,
        "subtype": "noteOn"
      },
      {
        "deltaTime": 0,
        "channel": 5,
        "type": "channel",
        "noteNumber": 35,
        "velocity": 100,
        "subtype": "noteOn"
      },
      {
        "deltaTime": 16,
        "channel": 5,
        "type": "channel",
        "noteNumber": 37,
        "velocity": 108,
        "subtype": "noteOn"
      },
      {
        "deltaTime": 172,
        "channel": 5,
        "type": "channel",
        "subtype": "noteOff",
        "noteNumber": 37,
        "velocity": 108
      },
      {
        "deltaTime": 62,
        "channel": 5,
        "type": "channel",
        "subtype": "noteOff",
        "noteNumber": 35,
        "velocity": 100
      },
      {
        "deltaTime": 0,
        "channel": 5,
        "type": "channel",
        "subtype": "noteOff",
        "noteNumber": 51,
        "velocity": 90
      },
      {
        "deltaTime": 0,
        "channel": 5,
        "type": "channel",
        "subtype": "noteOff",
        "noteNumber": 70,
        "velocity": 80
      },
      {
        "deltaTime": 250,
        "channel": 5,
        "type": "channel",
        "noteNumber": 51,
        "velocity": 70,
        "subtype": "noteOn"
      },
      {
        "deltaTime": 0,
        "channel": 5,
        "type": "channel",
        "noteNumber": 63,
        "velocity": 40,
        "subtype": "noteOn"
      },
      {
        "deltaTime": 0,
        "channel": 5,
        "type": "channel",
        "noteNumber": 69,
        "velocity": 50,
        "subtype": "noteOn"
      },
      {
        "deltaTime": 250,
        "channel": 5,
        "type": "channel",
        "subtype": "noteOff",
        "noteNumber": 69,
        "velocity": 50
      },
      {
        "deltaTime": 0,
        "channel": 5,
        "type": "channel",
        "subtype": "noteOff",
        "noteNumber": 63,
        "velocity": 40
      },
      {
        "deltaTime": 0,
        "channel": 5,
        "type": "channel",
        "subtype": "noteOff",
        "noteNumber": 51,
        "velocity": 70
      },
      {
        "deltaTime": 250,
        "channel": 5,
        "type": "channel",
        "noteNumber": 70,
        "velocity": 80,
        "subtype": "noteOn"
      },
      {
        "deltaTime": 0,
        "channel": 5,
        "type": "channel",
        "noteNumber": 48,
        "velocity": 60,
        "subtype": "noteOn"
      },
      {
        "deltaTime": 0,
        "channel": 5,
        "type": "channel",
        "noteNumber": 51,
        "velocity": 90,
        "subtype": "noteOn"
      },
      {
        "deltaTime": 0,
        "channel": 5,
        "type": "channel",
        "noteNumber": 63,
        "velocity": 60,
        "subtype": "noteOn"
      },
      {
        "deltaTime": 48,
        "channel": 5,
        "type": "channel",
        "noteNumber": 37,
        "velocity": 108,
        "subtype": "noteOn"
      },
      {
        "deltaTime": 170,
        "channel": 5,
        "type": "channel",
        "subtype": "noteOff",
        "noteNumber": 37,
        "velocity": 108
      },
      {
        "deltaTime": 32,
        "channel": 5,
        "type": "channel",
        "subtype": "noteOff",
        "noteNumber": 63,
        "velocity": 60
      },
      {
        "deltaTime": 0,
        "channel": 5,
        "type": "channel",
        "subtype": "noteOff",
        "noteNumber": 51,
        "velocity": 90
      },
      {
        "deltaTime": 0,
        "channel": 5,
        "type": "channel",
        "subtype": "noteOff",
        "noteNumber": 48,
        "velocity": 60
      },
      {
        "deltaTime": 0,
        "channel": 5,
        "type": "channel",
        "subtype": "noteOff",
        "noteNumber": 70,
        "velocity": 80
      },
      {
        "deltaTime": 250,
        "channel": 5,
        "type": "channel",
        "noteNumber": 62,
        "velocity": 70,
        "subtype": "noteOn"
      },
      {
        "deltaTime": 0,
        "channel": 5,
        "type": "channel",
        "noteNumber": 56,
        "velocity": 40,
        "subtype": "noteOn"
      },
      {
        "deltaTime": 0,
        "channel": 5,
        "type": "channel",
        "noteNumber": 35,
        "velocity": 70,
        "subtype": "noteOn"
      },
      {
        "deltaTime": 0,
        "channel": 5,
        "type": "channel",
        "noteNumber": 51,
        "velocity": 70,
        "subtype": "noteOn"
      },
      {
        "deltaTime": 0,
        "channel": 5,
        "type": "channel",
        "noteNumber": 69,
        "velocity": 50,
        "subtype": "noteOn"
      },
      {
        "deltaTime": 250,
        "channel": 5,
        "type": "channel",
        "subtype": "noteOff",
        "noteNumber": 69,
        "velocity": 50
      },
      {
        "deltaTime": 0,
        "channel": 5,
        "type": "channel",
        "subtype": "noteOff",
        "noteNumber": 51,
        "velocity": 70
      },
      {
        "deltaTime": 0,
        "channel": 5,
        "type": "channel",
        "subtype": "noteOff",
        "noteNumber": 35,
        "velocity": 70
      },
      {
        "deltaTime": 0,
        "channel": 5,
        "type": "channel",
        "subtype": "noteOff",
        "noteNumber": 56,
        "velocity": 40
      },
      {
        "deltaTime": 0,
        "channel": 5,
        "type": "channel",
        "subtype": "noteOff",
        "noteNumber": 62,
        "velocity": 70
      },
      {
        "deltaTime": 250,
        "channel": 5,
        "type": "channel",
        "noteNumber": 35,
        "velocity": 100,
        "subtype": "noteOn"
      },
      {
        "deltaTime": 0,
        "channel": 5,
        "type": "channel",
        "noteNumber": 51,
        "velocity": 90,
        "subtype": "noteOn"
      },
      {
        "deltaTime": 0,
        "channel": 5,
        "type": "channel",
        "noteNumber": 70,
        "velocity": 80,
        "subtype": "noteOn"
      },
      {
        "deltaTime": 250,
        "channel": 5,
        "type": "channel",
        "subtype": "noteOff",
        "noteNumber": 70,
        "velocity": 80
      },
      {
        "deltaTime": 0,
        "channel": 5,
        "type": "channel",
        "subtype": "noteOff",
        "noteNumber": 51,
        "velocity": 90
      },
      {
        "deltaTime": 0,
        "channel": 5,
        "type": "channel",
        "subtype": "noteOff",
        "noteNumber": 35,
        "velocity": 100
      },
      {
        "deltaTime": 250,
        "channel": 5,
        "type": "channel",
        "noteNumber": 51,
        "velocity": 70,
        "subtype": "noteOn"
      },
      {
        "deltaTime": 0,
        "channel": 5,
        "type": "channel",
        "noteNumber": 69,
        "velocity": 50,
        "subtype": "noteOn"
      },
      {
        "deltaTime": 58,
        "channel": 5,
        "type": "channel",
        "noteNumber": 37,
        "velocity": 106,
        "subtype": "noteOn"
      },
      {
        "deltaTime": 166,
        "channel": 5,
        "type": "channel",
        "subtype": "noteOff",
        "noteNumber": 37,
        "velocity": 106
      },
      {
        "deltaTime": 26,
        "channel": 5,
        "type": "channel",
        "subtype": "noteOff",
        "noteNumber": 69,
        "velocity": 50
      },
      {
        "deltaTime": 0,
        "channel": 5,
        "type": "channel",
        "subtype": "noteOff",
        "noteNumber": 51,
        "velocity": 70
      },
      {
        "deltaTime": 250,
        "channel": 5,
        "type": "channel",
        "noteNumber": 62,
        "velocity": 70,
        "subtype": "noteOn"
      },
      {
        "deltaTime": 0,
        "channel": 5,
        "type": "channel",
        "noteNumber": 45,
        "velocity": 70,
        "subtype": "noteOn"
      },
      {
        "deltaTime": 0,
        "channel": 5,
        "type": "channel",
        "noteNumber": 51,
        "velocity": 90,
        "subtype": "noteOn"
      },
      {
        "deltaTime": 0,
        "channel": 5,
        "type": "channel",
        "noteNumber": 70,
        "velocity": 80,
        "subtype": "noteOn"
      },
      {
        "deltaTime": 250,
        "channel": 5,
        "type": "channel",
        "subtype": "noteOff",
        "noteNumber": 70,
        "velocity": 80
      },
      {
        "deltaTime": 0,
        "channel": 5,
        "type": "channel",
        "subtype": "noteOff",
        "noteNumber": 51,
        "velocity": 90
      },
      {
        "deltaTime": 0,
        "channel": 5,
        "type": "channel",
        "subtype": "noteOff",
        "noteNumber": 45,
        "velocity": 70
      },
      {
        "deltaTime": 0,
        "channel": 5,
        "type": "channel",
        "subtype": "noteOff",
        "noteNumber": 62,
        "velocity": 70
      },
      {
        "deltaTime": 250,
        "channel": 5,
        "type": "channel",
        "noteNumber": 45,
        "velocity": 75,
        "subtype": "noteOn"
      },
      {
        "deltaTime": 0,
        "channel": 5,
        "type": "channel",
        "noteNumber": 51,
        "velocity": 70,
        "subtype": "noteOn"
      },
      {
        "deltaTime": 0,
        "channel": 5,
        "type": "channel",
        "noteNumber": 35,
        "velocity": 70,
        "subtype": "noteOn"
      },
      {
        "deltaTime": 0,
        "channel": 5,
        "type": "channel",
        "noteNumber": 69,
        "velocity": 50,
        "subtype": "noteOn"
      },
      {
        "deltaTime": 250,
        "channel": 5,
        "type": "channel",
        "subtype": "noteOff",
        "noteNumber": 69,
        "velocity": 50
      },
      {
        "deltaTime": 0,
        "channel": 5,
        "type": "channel",
        "subtype": "noteOff",
        "noteNumber": 35,
        "velocity": 70
      },
      {
        "deltaTime": 0,
        "channel": 5,
        "type": "channel",
        "subtype": "noteOff",
        "noteNumber": 51,
        "velocity": 70
      },
      {
        "deltaTime": 0,
        "channel": 5,
        "type": "channel",
        "subtype": "noteOff",
        "noteNumber": 45,
        "velocity": 75
      },
      {
        "deltaTime": 250,
        "channel": 5,
        "type": "channel",
        "noteNumber": 63,
        "velocity": 40,
        "subtype": "noteOn"
      },
      {
        "deltaTime": 0,
        "channel": 5,
        "type": "channel",
        "noteNumber": 70,
        "velocity": 80,
        "subtype": "noteOn"
      },
      {
        "deltaTime": 0,
        "channel": 5,
        "type": "channel",
        "noteNumber": 35,
        "velocity": 100,
        "subtype": "noteOn"
      },
      {
        "deltaTime": 0,
        "channel": 5,
        "type": "channel",
        "noteNumber": 51,
        "velocity": 90,
        "subtype": "noteOn"
      },
      {
        "deltaTime": 0,
        "channel": 5,
        "type": "channel",
        "noteNumber": 56,
        "velocity": 40,
        "subtype": "noteOn"
      },
      {
        "deltaTime": 16,
        "channel": 5,
        "type": "channel",
        "noteNumber": 37,
        "velocity": 108,
        "subtype": "noteOn"
      },
      {
        "deltaTime": 172,
        "channel": 5,
        "type": "channel",
        "subtype": "noteOff",
        "noteNumber": 37,
        "velocity": 108
      },
      {
        "deltaTime": 62,
        "channel": 5,
        "type": "channel",
        "subtype": "noteOff",
        "noteNumber": 56,
        "velocity": 40
      },
      {
        "deltaTime": 0,
        "channel": 5,
        "type": "channel",
        "subtype": "noteOff",
        "noteNumber": 51,
        "velocity": 90
      },
      {
        "deltaTime": 0,
        "channel": 5,
        "type": "channel",
        "subtype": "noteOff",
        "noteNumber": 35,
        "velocity": 100
      },
      {
        "deltaTime": 0,
        "channel": 5,
        "type": "channel",
        "subtype": "noteOff",
        "noteNumber": 70,
        "velocity": 80
      },
      {
        "deltaTime": 0,
        "channel": 5,
        "type": "channel",
        "subtype": "noteOff",
        "noteNumber": 63,
        "velocity": 40
      },
      {
        "deltaTime": 250,
        "channel": 5,
        "type": "channel",
        "noteNumber": 51,
        "velocity": 70,
        "subtype": "noteOn"
      },
      {
        "deltaTime": 0,
        "channel": 5,
        "type": "channel",
        "noteNumber": 63,
        "velocity": 40,
        "subtype": "noteOn"
      },
      {
        "deltaTime": 0,
        "channel": 5,
        "type": "channel",
        "noteNumber": 69,
        "velocity": 50,
        "subtype": "noteOn"
      },
      {
        "deltaTime": 250,
        "channel": 5,
        "type": "channel",
        "subtype": "noteOff",
        "noteNumber": 69,
        "velocity": 50
      },
      {
        "deltaTime": 0,
        "channel": 5,
        "type": "channel",
        "subtype": "noteOff",
        "noteNumber": 63,
        "velocity": 40
      },
      {
        "deltaTime": 0,
        "channel": 5,
        "type": "channel",
        "subtype": "noteOff",
        "noteNumber": 51,
        "velocity": 70
      },
      {
        "deltaTime": 250,
        "channel": 5,
        "type": "channel",
        "noteNumber": 51,
        "velocity": 90,
        "subtype": "noteOn"
      },
      {
        "deltaTime": 0,
        "channel": 5,
        "type": "channel",
        "noteNumber": 70,
        "velocity": 80,
        "subtype": "noteOn"
      },
      {
        "deltaTime": 48,
        "channel": 5,
        "type": "channel",
        "noteNumber": 37,
        "velocity": 108,
        "subtype": "noteOn"
      },
      {
        "deltaTime": 170,
        "channel": 5,
        "type": "channel",
        "subtype": "noteOff",
        "noteNumber": 37,
        "velocity": 108
      },
      {
        "deltaTime": 32,
        "channel": 5,
        "type": "channel",
        "subtype": "noteOff",
        "noteNumber": 70,
        "velocity": 80
      },
      {
        "deltaTime": 0,
        "channel": 5,
        "type": "channel",
        "subtype": "noteOff",
        "noteNumber": 51,
        "velocity": 90
      },
      {
        "deltaTime": 250,
        "channel": 5,
        "type": "channel",
        "noteNumber": 51,
        "velocity": 70,
        "subtype": "noteOn"
      },
      {
        "deltaTime": 0,
        "channel": 5,
        "type": "channel",
        "noteNumber": 56,
        "velocity": 40,
        "subtype": "noteOn"
      },
      {
        "deltaTime": 0,
        "channel": 5,
        "type": "channel",
        "noteNumber": 35,
        "velocity": 70,
        "subtype": "noteOn"
      },
      {
        "deltaTime": 0,
        "channel": 5,
        "type": "channel",
        "noteNumber": 69,
        "velocity": 50,
        "subtype": "noteOn"
      },
      {
        "deltaTime": 250,
        "channel": 5,
        "type": "channel",
        "subtype": "noteOff",
        "noteNumber": 69,
        "velocity": 50
      },
      {
        "deltaTime": 0,
        "channel": 5,
        "type": "channel",
        "subtype": "noteOff",
        "noteNumber": 35,
        "velocity": 70
      },
      {
        "deltaTime": 0,
        "channel": 5,
        "type": "channel",
        "subtype": "noteOff",
        "noteNumber": 56,
        "velocity": 40
      },
      {
        "deltaTime": 0,
        "channel": 5,
        "type": "channel",
        "subtype": "noteOff",
        "noteNumber": 51,
        "velocity": 70
      },
      {
        "deltaTime": 250,
        "channel": 5,
        "type": "channel",
        "noteNumber": 35,
        "velocity": 100,
        "subtype": "noteOn"
      },
      {
        "deltaTime": 0,
        "channel": 5,
        "type": "channel",
        "noteNumber": 51,
        "velocity": 90,
        "subtype": "noteOn"
      },
      {
        "deltaTime": 0,
        "channel": 5,
        "type": "channel",
        "noteNumber": 70,
        "velocity": 80,
        "subtype": "noteOn"
      },
      {
        "deltaTime": 250,
        "channel": 5,
        "type": "channel",
        "subtype": "noteOff",
        "noteNumber": 70,
        "velocity": 80
      },
      {
        "deltaTime": 0,
        "channel": 5,
        "type": "channel",
        "subtype": "noteOff",
        "noteNumber": 51,
        "velocity": 90
      },
      {
        "deltaTime": 0,
        "channel": 5,
        "type": "channel",
        "subtype": "noteOff",
        "noteNumber": 35,
        "velocity": 100
      },
      {
        "deltaTime": 250,
        "channel": 5,
        "type": "channel",
        "noteNumber": 51,
        "velocity": 70,
        "subtype": "noteOn"
      },
      {
        "deltaTime": 0,
        "channel": 5,
        "type": "channel",
        "noteNumber": 69,
        "velocity": 50,
        "subtype": "noteOn"
      },
      {
        "deltaTime": 58,
        "channel": 5,
        "type": "channel",
        "noteNumber": 37,
        "velocity": 106,
        "subtype": "noteOn"
      },
      {
        "deltaTime": 166,
        "channel": 5,
        "type": "channel",
        "subtype": "noteOff",
        "noteNumber": 37,
        "velocity": 106
      },
      {
        "deltaTime": 26,
        "channel": 5,
        "type": "channel",
        "subtype": "noteOff",
        "noteNumber": 69,
        "velocity": 50
      },
      {
        "deltaTime": 0,
        "channel": 5,
        "type": "channel",
        "subtype": "noteOff",
        "noteNumber": 51,
        "velocity": 70
      },
      {
        "deltaTime": 250,
        "channel": 5,
        "type": "channel",
        "noteNumber": 56,
        "velocity": 40,
        "subtype": "noteOn"
      },
      {
        "deltaTime": 0,
        "channel": 5,
        "type": "channel",
        "noteNumber": 51,
        "velocity": 90,
        "subtype": "noteOn"
      },
      {
        "deltaTime": 0,
        "channel": 5,
        "type": "channel",
        "noteNumber": 70,
        "velocity": 80,
        "subtype": "noteOn"
      },
      {
        "deltaTime": 250,
        "channel": 5,
        "type": "channel",
        "subtype": "noteOff",
        "noteNumber": 70,
        "velocity": 80
      },
      {
        "deltaTime": 0,
        "channel": 5,
        "type": "channel",
        "subtype": "noteOff",
        "noteNumber": 51,
        "velocity": 90
      },
      {
        "deltaTime": 0,
        "channel": 5,
        "type": "channel",
        "subtype": "noteOff",
        "noteNumber": 56,
        "velocity": 40
      },
      {
        "deltaTime": 250,
        "channel": 5,
        "type": "channel",
        "noteNumber": 41,
        "velocity": 60,
        "subtype": "noteOn"
      },
      {
        "deltaTime": 0,
        "channel": 5,
        "type": "channel",
        "noteNumber": 51,
        "velocity": 70,
        "subtype": "noteOn"
      },
      {
        "deltaTime": 0,
        "channel": 5,
        "type": "channel",
        "noteNumber": 35,
        "velocity": 70,
        "subtype": "noteOn"
      },
      {
        "deltaTime": 0,
        "channel": 5,
        "type": "channel",
        "noteNumber": 69,
        "velocity": 50,
        "subtype": "noteOn"
      },
      {
        "deltaTime": 250,
        "channel": 5,
        "type": "channel",
        "subtype": "noteOff",
        "noteNumber": 69,
        "velocity": 50
      },
      {
        "deltaTime": 0,
        "channel": 5,
        "type": "channel",
        "subtype": "noteOff",
        "noteNumber": 35,
        "velocity": 70
      },
      {
        "deltaTime": 0,
        "channel": 5,
        "type": "channel",
        "subtype": "noteOff",
        "noteNumber": 51,
        "velocity": 70
      },
      {
        "deltaTime": 0,
        "channel": 5,
        "type": "channel",
        "subtype": "noteOff",
        "noteNumber": 41,
        "velocity": 60
      },
      {
        "deltaTime": 250,
        "channel": 5,
        "type": "channel",
        "noteNumber": 70,
        "velocity": 80,
        "subtype": "noteOn"
      },
      {
        "deltaTime": 0,
        "channel": 5,
        "type": "channel",
        "noteNumber": 51,
        "velocity": 90,
        "subtype": "noteOn"
      },
      {
        "deltaTime": 0,
        "channel": 5,
        "type": "channel",
        "noteNumber": 35,
        "velocity": 100,
        "subtype": "noteOn"
      },
      {
        "deltaTime": 16,
        "channel": 5,
        "type": "channel",
        "noteNumber": 37,
        "velocity": 108,
        "subtype": "noteOn"
      },
      {
        "deltaTime": 172,
        "channel": 5,
        "type": "channel",
        "subtype": "noteOff",
        "noteNumber": 37,
        "velocity": 108
      },
      {
        "deltaTime": 62,
        "channel": 5,
        "type": "channel",
        "subtype": "noteOff",
        "noteNumber": 35,
        "velocity": 100
      },
      {
        "deltaTime": 0,
        "channel": 5,
        "type": "channel",
        "subtype": "noteOff",
        "noteNumber": 51,
        "velocity": 90
      },
      {
        "deltaTime": 0,
        "channel": 5,
        "type": "channel",
        "subtype": "noteOff",
        "noteNumber": 70,
        "velocity": 80
      },
      {
        "deltaTime": 250,
        "channel": 5,
        "type": "channel",
        "noteNumber": 51,
        "velocity": 70,
        "subtype": "noteOn"
      },
      {
        "deltaTime": 0,
        "channel": 5,
        "type": "channel",
        "noteNumber": 63,
        "velocity": 40,
        "subtype": "noteOn"
      },
      {
        "deltaTime": 0,
        "channel": 5,
        "type": "channel",
        "noteNumber": 69,
        "velocity": 50,
        "subtype": "noteOn"
      },
      {
        "deltaTime": 250,
        "channel": 5,
        "type": "channel",
        "subtype": "noteOff",
        "noteNumber": 69,
        "velocity": 50
      },
      {
        "deltaTime": 0,
        "channel": 5,
        "type": "channel",
        "subtype": "noteOff",
        "noteNumber": 63,
        "velocity": 40
      },
      {
        "deltaTime": 0,
        "channel": 5,
        "type": "channel",
        "subtype": "noteOff",
        "noteNumber": 51,
        "velocity": 70
      },
      {
        "deltaTime": 250,
        "channel": 5,
        "type": "channel",
        "noteNumber": 70,
        "velocity": 80,
        "subtype": "noteOn"
      },
      {
        "deltaTime": 0,
        "channel": 5,
        "type": "channel",
        "noteNumber": 63,
        "velocity": 60,
        "subtype": "noteOn"
      },
      {
        "deltaTime": 0,
        "channel": 5,
        "type": "channel",
        "noteNumber": 51,
        "velocity": 90,
        "subtype": "noteOn"
      },
      {
        "deltaTime": 48,
        "channel": 5,
        "type": "channel",
        "noteNumber": 37,
        "velocity": 108,
        "subtype": "noteOn"
      },
      {
        "deltaTime": 170,
        "channel": 5,
        "type": "channel",
        "subtype": "noteOff",
        "noteNumber": 37,
        "velocity": 108
      },
      {
        "deltaTime": 32,
        "channel": 5,
        "type": "channel",
        "subtype": "noteOff",
        "noteNumber": 51,
        "velocity": 90
      },
      {
        "deltaTime": 0,
        "channel": 5,
        "type": "channel",
        "subtype": "noteOff",
        "noteNumber": 63,
        "velocity": 60
      },
      {
        "deltaTime": 0,
        "channel": 5,
        "type": "channel",
        "subtype": "noteOff",
        "noteNumber": 70,
        "velocity": 80
      },
      {
        "deltaTime": 250,
        "channel": 5,
        "type": "channel",
        "noteNumber": 62,
        "velocity": 70,
        "subtype": "noteOn"
      },
      {
        "deltaTime": 0,
        "channel": 5,
        "type": "channel",
        "noteNumber": 56,
        "velocity": 40,
        "subtype": "noteOn"
      },
      {
        "deltaTime": 0,
        "channel": 5,
        "type": "channel",
        "noteNumber": 35,
        "velocity": 70,
        "subtype": "noteOn"
      },
      {
        "deltaTime": 0,
        "channel": 5,
        "type": "channel",
        "noteNumber": 51,
        "velocity": 70,
        "subtype": "noteOn"
      },
      {
        "deltaTime": 0,
        "channel": 5,
        "type": "channel",
        "noteNumber": 69,
        "velocity": 50,
        "subtype": "noteOn"
      },
      {
        "deltaTime": 250,
        "channel": 5,
        "type": "channel",
        "subtype": "noteOff",
        "noteNumber": 69,
        "velocity": 50
      },
      {
        "deltaTime": 0,
        "channel": 5,
        "type": "channel",
        "subtype": "noteOff",
        "noteNumber": 51,
        "velocity": 70
      },
      {
        "deltaTime": 0,
        "channel": 5,
        "type": "channel",
        "subtype": "noteOff",
        "noteNumber": 35,
        "velocity": 70
      },
      {
        "deltaTime": 0,
        "channel": 5,
        "type": "channel",
        "subtype": "noteOff",
        "noteNumber": 56,
        "velocity": 40
      },
      {
        "deltaTime": 0,
        "channel": 5,
        "type": "channel",
        "subtype": "noteOff",
        "noteNumber": 62,
        "velocity": 70
      },
      {
        "deltaTime": 250,
        "channel": 5,
        "type": "channel",
        "noteNumber": 35,
        "velocity": 100,
        "subtype": "noteOn"
      },
      {
        "deltaTime": 0,
        "channel": 5,
        "type": "channel",
        "noteNumber": 51,
        "velocity": 90,
        "subtype": "noteOn"
      },
      {
        "deltaTime": 0,
        "channel": 5,
        "type": "channel",
        "noteNumber": 70,
        "velocity": 80,
        "subtype": "noteOn"
      },
      {
        "deltaTime": 250,
        "channel": 5,
        "type": "channel",
        "subtype": "noteOff",
        "noteNumber": 70,
        "velocity": 80
      },
      {
        "deltaTime": 0,
        "channel": 5,
        "type": "channel",
        "subtype": "noteOff",
        "noteNumber": 51,
        "velocity": 90
      },
      {
        "deltaTime": 0,
        "channel": 5,
        "type": "channel",
        "subtype": "noteOff",
        "noteNumber": 35,
        "velocity": 100
      },
      {
        "deltaTime": 250,
        "channel": 5,
        "type": "channel",
        "noteNumber": 51,
        "velocity": 70,
        "subtype": "noteOn"
      },
      {
        "deltaTime": 0,
        "channel": 5,
        "type": "channel",
        "noteNumber": 69,
        "velocity": 50,
        "subtype": "noteOn"
      },
      {
        "deltaTime": 58,
        "channel": 5,
        "type": "channel",
        "noteNumber": 37,
        "velocity": 106,
        "subtype": "noteOn"
      },
      {
        "deltaTime": 166,
        "channel": 5,
        "type": "channel",
        "subtype": "noteOff",
        "noteNumber": 37,
        "velocity": 106
      },
      {
        "deltaTime": 26,
        "channel": 5,
        "type": "channel",
        "subtype": "noteOff",
        "noteNumber": 69,
        "velocity": 50
      },
      {
        "deltaTime": 0,
        "channel": 5,
        "type": "channel",
        "subtype": "noteOff",
        "noteNumber": 51,
        "velocity": 70
      },
      {
        "deltaTime": 250,
        "channel": 5,
        "type": "channel",
        "noteNumber": 51,
        "velocity": 90,
        "subtype": "noteOn"
      },
      {
        "deltaTime": 0,
        "channel": 5,
        "type": "channel",
        "noteNumber": 62,
        "velocity": 70,
        "subtype": "noteOn"
      },
      {
        "deltaTime": 0,
        "channel": 5,
        "type": "channel",
        "noteNumber": 70,
        "velocity": 80,
        "subtype": "noteOn"
      },
      {
        "deltaTime": 250,
        "channel": 5,
        "type": "channel",
        "subtype": "noteOff",
        "noteNumber": 70,
        "velocity": 80
      },
      {
        "deltaTime": 0,
        "channel": 5,
        "type": "channel",
        "subtype": "noteOff",
        "noteNumber": 62,
        "velocity": 70
      },
      {
        "deltaTime": 0,
        "channel": 5,
        "type": "channel",
        "subtype": "noteOff",
        "noteNumber": 51,
        "velocity": 90
      },
      {
        "deltaTime": 250,
        "channel": 5,
        "type": "channel",
        "noteNumber": 35,
        "velocity": 70,
        "subtype": "noteOn"
      },
      {
        "deltaTime": 0,
        "channel": 5,
        "type": "channel",
        "noteNumber": 51,
        "velocity": 70,
        "subtype": "noteOn"
      },
      {
        "deltaTime": 0,
        "channel": 5,
        "type": "channel",
        "noteNumber": 69,
        "velocity": 50,
        "subtype": "noteOn"
      },
      {
        "deltaTime": 250,
        "channel": 5,
        "type": "channel",
        "subtype": "noteOff",
        "noteNumber": 69,
        "velocity": 50
      },
      {
        "deltaTime": 0,
        "channel": 5,
        "type": "channel",
        "subtype": "noteOff",
        "noteNumber": 51,
        "velocity": 70
      },
      {
        "deltaTime": 0,
        "channel": 5,
        "type": "channel",
        "subtype": "noteOff",
        "noteNumber": 35,
        "velocity": 70
      },
      {
        "deltaTime": 250,
        "channel": 5,
        "type": "channel",
        "noteNumber": 70,
        "velocity": 80,
        "subtype": "noteOn"
      },
      {
        "deltaTime": 0,
        "channel": 5,
        "type": "channel",
        "noteNumber": 49,
        "velocity": 70,
        "subtype": "noteOn"
      },
      {
        "deltaTime": 0,
        "channel": 5,
        "type": "channel",
        "noteNumber": 35,
        "velocity": 100,
        "subtype": "noteOn"
      },
      {
        "deltaTime": 16,
        "channel": 5,
        "type": "channel",
        "noteNumber": 37,
        "velocity": 108,
        "subtype": "noteOn"
      },
      {
        "deltaTime": 172,
        "channel": 5,
        "type": "channel",
        "subtype": "noteOff",
        "noteNumber": 37,
        "velocity": 108
      },
      {
        "deltaTime": 62,
        "channel": 5,
        "type": "channel",
        "subtype": "noteOff",
        "noteNumber": 35,
        "velocity": 100
      },
      {
        "deltaTime": 0,
        "channel": 5,
        "type": "channel",
        "subtype": "noteOff",
        "noteNumber": 49,
        "velocity": 70
      },
      {
        "deltaTime": 0,
        "channel": 5,
        "type": "channel",
        "subtype": "noteOff",
        "noteNumber": 70,
        "velocity": 80
      },
      {
        "deltaTime": 250,
        "channel": 5,
        "type": "channel",
        "noteNumber": 69,
        "velocity": 50,
        "subtype": "noteOn"
      },
      {
        "deltaTime": 250,
        "channel": 5,
        "type": "channel",
        "subtype": "noteOff",
        "noteNumber": 69,
        "velocity": 50
      },
      {
        "deltaTime": 250,
        "channel": 5,
        "type": "channel",
        "noteNumber": 70,
        "velocity": 80,
        "subtype": "noteOn"
      },
      {
        "deltaTime": 48,
        "channel": 5,
        "type": "channel",
        "noteNumber": 37,
        "velocity": 108,
        "subtype": "noteOn"
      },
      {
        "deltaTime": 170,
        "channel": 5,
        "type": "channel",
        "subtype": "noteOff",
        "noteNumber": 37,
        "velocity": 108
      },
      {
        "deltaTime": 32,
        "channel": 5,
        "type": "channel",
        "subtype": "noteOff",
        "noteNumber": 70,
        "velocity": 80
      },
      {
        "deltaTime": 250,
        "channel": 5,
        "type": "channel",
        "noteNumber": 38,
        "velocity": 40,
        "subtype": "noteOn"
      },
      {
        "deltaTime": 0,
        "channel": 5,
        "type": "channel",
        "noteNumber": 69,
        "velocity": 50,
        "subtype": "noteOn"
      },
      {
        "deltaTime": 250,
        "channel": 5,
        "type": "channel",
        "subtype": "noteOff",
        "noteNumber": 69,
        "velocity": 50
      },
      {
        "deltaTime": 0,
        "channel": 5,
        "type": "channel",
        "subtype": "noteOff",
        "noteNumber": 38,
        "velocity": 40
      },
      {
        "deltaTime": 0,
        "channel": 5,
        "type": "channel",
        "noteNumber": 38,
        "velocity": 40,
        "subtype": "noteOn"
      },
      {
        "deltaTime": 250,
        "channel": 5,
        "type": "channel",
        "subtype": "noteOff",
        "noteNumber": 38,
        "velocity": 40
      },
      {
        "deltaTime": 0,
        "channel": 5,
        "type": "channel",
        "noteNumber": 38,
        "velocity": 80,
        "subtype": "noteOn"
      },
      {
        "deltaTime": 0,
        "channel": 5,
        "type": "channel",
        "noteNumber": 70,
        "velocity": 80,
        "subtype": "noteOn"
      },
      {
        "deltaTime": 250,
        "channel": 5,
        "type": "channel",
        "subtype": "noteOff",
        "noteNumber": 70,
        "velocity": 80
      },
      {
        "deltaTime": 0,
        "channel": 5,
        "type": "channel",
        "subtype": "noteOff",
        "noteNumber": 38,
        "velocity": 80
      },
      {
        "deltaTime": 250,
        "channel": 5,
        "type": "channel",
        "noteNumber": 38,
        "velocity": 90,
        "subtype": "noteOn"
      },
      {
        "deltaTime": 0,
        "channel": 5,
        "type": "channel",
        "noteNumber": 69,
        "velocity": 50,
        "subtype": "noteOn"
      },
      {
        "deltaTime": 58,
        "channel": 5,
        "type": "channel",
        "noteNumber": 37,
        "velocity": 106,
        "subtype": "noteOn"
      },
      {
        "deltaTime": 166,
        "channel": 5,
        "type": "channel",
        "subtype": "noteOff",
        "noteNumber": 37,
        "velocity": 106
      },
      {
        "deltaTime": 26,
        "channel": 5,
        "type": "channel",
        "subtype": "noteOff",
        "noteNumber": 69,
        "velocity": 50
      },
      {
        "deltaTime": 0,
        "channel": 5,
        "type": "channel",
        "subtype": "noteOff",
        "noteNumber": 38,
        "velocity": 90
      },
      {
        "deltaTime": 250,
        "channel": 5,
        "type": "channel",
        "noteNumber": 70,
        "velocity": 80,
        "subtype": "noteOn"
      },
      {
        "deltaTime": 250,
        "channel": 5,
        "type": "channel",
        "subtype": "noteOff",
        "noteNumber": 70,
        "velocity": 80
      },
      {
        "deltaTime": 250,
        "channel": 5,
        "type": "channel",
        "noteNumber": 38,
        "velocity": 100,
        "subtype": "noteOn"
      },
      {
        "deltaTime": 0,
        "channel": 5,
        "type": "channel",
        "noteNumber": 69,
        "velocity": 50,
        "subtype": "noteOn"
      },
      {
        "deltaTime": 250,
        "channel": 5,
        "type": "channel",
        "subtype": "noteOff",
        "noteNumber": 69,
        "velocity": 50
      },
      {
        "deltaTime": 0,
        "channel": 5,
        "type": "channel",
        "subtype": "noteOff",
        "noteNumber": 38,
        "velocity": 100
      },
      {
        "deltaTime": 250,
        "channel": 5,
        "type": "channel",
        "noteNumber": 70,
        "velocity": 80,
        "subtype": "noteOn"
      },
      {
        "deltaTime": 0,
        "channel": 5,
        "type": "channel",
        "noteNumber": 49,
        "velocity": 70,
        "subtype": "noteOn"
      },
      {
        "deltaTime": 0,
        "channel": 5,
        "type": "channel",
        "noteNumber": 35,
        "velocity": 100,
        "subtype": "noteOn"
      },
      {
        "deltaTime": 16,
        "channel": 5,
        "type": "channel",
        "noteNumber": 37,
        "velocity": 108,
        "subtype": "noteOn"
      },
      {
        "deltaTime": 172,
        "channel": 5,
        "type": "channel",
        "subtype": "noteOff",
        "noteNumber": 37,
        "velocity": 108
      },
      {
        "deltaTime": 62,
        "channel": 5,
        "type": "channel",
        "subtype": "noteOff",
        "noteNumber": 35,
        "velocity": 100
      },
      {
        "deltaTime": 0,
        "channel": 5,
        "type": "channel",
        "subtype": "noteOff",
        "noteNumber": 49,
        "velocity": 70
      },
      {
        "deltaTime": 0,
        "channel": 5,
        "type": "channel",
        "subtype": "noteOff",
        "noteNumber": 70,
        "velocity": 80
      },
      {
        "deltaTime": 250,
        "channel": 5,
        "type": "channel",
        "noteNumber": 51,
        "velocity": 70,
        "subtype": "noteOn"
      },
      {
        "deltaTime": 0,
        "channel": 5,
        "type": "channel",
        "noteNumber": 63,
        "velocity": 40,
        "subtype": "noteOn"
      },
      {
        "deltaTime": 0,
        "channel": 5,
        "type": "channel",
        "noteNumber": 69,
        "velocity": 50,
        "subtype": "noteOn"
      },
      {
        "deltaTime": 250,
        "channel": 5,
        "type": "channel",
        "subtype": "noteOff",
        "noteNumber": 69,
        "velocity": 50
      },
      {
        "deltaTime": 0,
        "channel": 5,
        "type": "channel",
        "subtype": "noteOff",
        "noteNumber": 63,
        "velocity": 40
      },
      {
        "deltaTime": 0,
        "channel": 5,
        "type": "channel",
        "subtype": "noteOff",
        "noteNumber": 51,
        "velocity": 70
      },
      {
        "deltaTime": 250,
        "channel": 5,
        "type": "channel",
        "noteNumber": 70,
        "velocity": 80,
        "subtype": "noteOn"
      },
      {
        "deltaTime": 0,
        "channel": 5,
        "type": "channel",
        "noteNumber": 63,
        "velocity": 60,
        "subtype": "noteOn"
      },
      {
        "deltaTime": 0,
        "channel": 5,
        "type": "channel",
        "noteNumber": 51,
        "velocity": 90,
        "subtype": "noteOn"
      },
      {
        "deltaTime": 48,
        "channel": 5,
        "type": "channel",
        "noteNumber": 37,
        "velocity": 108,
        "subtype": "noteOn"
      },
      {
        "deltaTime": 170,
        "channel": 5,
        "type": "channel",
        "subtype": "noteOff",
        "noteNumber": 37,
        "velocity": 108
      },
      {
        "deltaTime": 32,
        "channel": 5,
        "type": "channel",
        "subtype": "noteOff",
        "noteNumber": 51,
        "velocity": 90
      },
      {
        "deltaTime": 0,
        "channel": 5,
        "type": "channel",
        "subtype": "noteOff",
        "noteNumber": 63,
        "velocity": 60
      },
      {
        "deltaTime": 0,
        "channel": 5,
        "type": "channel",
        "subtype": "noteOff",
        "noteNumber": 70,
        "velocity": 80
      },
      {
        "deltaTime": 250,
        "channel": 5,
        "type": "channel",
        "noteNumber": 62,
        "velocity": 70,
        "subtype": "noteOn"
      },
      {
        "deltaTime": 0,
        "channel": 5,
        "type": "channel",
        "noteNumber": 56,
        "velocity": 40,
        "subtype": "noteOn"
      },
      {
        "deltaTime": 0,
        "channel": 5,
        "type": "channel",
        "noteNumber": 35,
        "velocity": 70,
        "subtype": "noteOn"
      },
      {
        "deltaTime": 0,
        "channel": 5,
        "type": "channel",
        "noteNumber": 51,
        "velocity": 70,
        "subtype": "noteOn"
      },
      {
        "deltaTime": 0,
        "channel": 5,
        "type": "channel",
        "noteNumber": 69,
        "velocity": 50,
        "subtype": "noteOn"
      },
      {
        "deltaTime": 250,
        "channel": 5,
        "type": "channel",
        "subtype": "noteOff",
        "noteNumber": 69,
        "velocity": 50
      },
      {
        "deltaTime": 0,
        "channel": 5,
        "type": "channel",
        "subtype": "noteOff",
        "noteNumber": 51,
        "velocity": 70
      },
      {
        "deltaTime": 0,
        "channel": 5,
        "type": "channel",
        "subtype": "noteOff",
        "noteNumber": 35,
        "velocity": 70
      },
      {
        "deltaTime": 0,
        "channel": 5,
        "type": "channel",
        "subtype": "noteOff",
        "noteNumber": 56,
        "velocity": 40
      },
      {
        "deltaTime": 0,
        "channel": 5,
        "type": "channel",
        "subtype": "noteOff",
        "noteNumber": 62,
        "velocity": 70
      },
      {
        "deltaTime": 250,
        "channel": 5,
        "type": "channel",
        "noteNumber": 35,
        "velocity": 100,
        "subtype": "noteOn"
      },
      {
        "deltaTime": 0,
        "channel": 5,
        "type": "channel",
        "noteNumber": 51,
        "velocity": 90,
        "subtype": "noteOn"
      },
      {
        "deltaTime": 0,
        "channel": 5,
        "type": "channel",
        "noteNumber": 70,
        "velocity": 80,
        "subtype": "noteOn"
      },
      {
        "deltaTime": 250,
        "channel": 5,
        "type": "channel",
        "subtype": "noteOff",
        "noteNumber": 70,
        "velocity": 80
      },
      {
        "deltaTime": 0,
        "channel": 5,
        "type": "channel",
        "subtype": "noteOff",
        "noteNumber": 51,
        "velocity": 90
      },
      {
        "deltaTime": 0,
        "channel": 5,
        "type": "channel",
        "subtype": "noteOff",
        "noteNumber": 35,
        "velocity": 100
      },
      {
        "deltaTime": 250,
        "channel": 5,
        "type": "channel",
        "noteNumber": 51,
        "velocity": 70,
        "subtype": "noteOn"
      },
      {
        "deltaTime": 0,
        "channel": 5,
        "type": "channel",
        "noteNumber": 69,
        "velocity": 50,
        "subtype": "noteOn"
      },
      {
        "deltaTime": 58,
        "channel": 5,
        "type": "channel",
        "noteNumber": 37,
        "velocity": 106,
        "subtype": "noteOn"
      },
      {
        "deltaTime": 166,
        "channel": 5,
        "type": "channel",
        "subtype": "noteOff",
        "noteNumber": 37,
        "velocity": 106
      },
      {
        "deltaTime": 26,
        "channel": 5,
        "type": "channel",
        "subtype": "noteOff",
        "noteNumber": 69,
        "velocity": 50
      },
      {
        "deltaTime": 0,
        "channel": 5,
        "type": "channel",
        "subtype": "noteOff",
        "noteNumber": 51,
        "velocity": 70
      },
      {
        "deltaTime": 250,
        "channel": 5,
        "type": "channel",
        "noteNumber": 51,
        "velocity": 90,
        "subtype": "noteOn"
      },
      {
        "deltaTime": 0,
        "channel": 5,
        "type": "channel",
        "noteNumber": 62,
        "velocity": 70,
        "subtype": "noteOn"
      },
      {
        "deltaTime": 0,
        "channel": 5,
        "type": "channel",
        "noteNumber": 70,
        "velocity": 80,
        "subtype": "noteOn"
      },
      {
        "deltaTime": 250,
        "channel": 5,
        "type": "channel",
        "subtype": "noteOff",
        "noteNumber": 70,
        "velocity": 80
      },
      {
        "deltaTime": 0,
        "channel": 5,
        "type": "channel",
        "subtype": "noteOff",
        "noteNumber": 62,
        "velocity": 70
      },
      {
        "deltaTime": 0,
        "channel": 5,
        "type": "channel",
        "subtype": "noteOff",
        "noteNumber": 51,
        "velocity": 90
      },
      {
        "deltaTime": 250,
        "channel": 5,
        "type": "channel",
        "noteNumber": 35,
        "velocity": 70,
        "subtype": "noteOn"
      },
      {
        "deltaTime": 0,
        "channel": 5,
        "type": "channel",
        "noteNumber": 51,
        "velocity": 70,
        "subtype": "noteOn"
      },
      {
        "deltaTime": 0,
        "channel": 5,
        "type": "channel",
        "noteNumber": 69,
        "velocity": 50,
        "subtype": "noteOn"
      },
      {
        "deltaTime": 250,
        "channel": 5,
        "type": "channel",
        "subtype": "noteOff",
        "noteNumber": 69,
        "velocity": 50
      },
      {
        "deltaTime": 0,
        "channel": 5,
        "type": "channel",
        "subtype": "noteOff",
        "noteNumber": 51,
        "velocity": 70
      },
      {
        "deltaTime": 0,
        "channel": 5,
        "type": "channel",
        "subtype": "noteOff",
        "noteNumber": 35,
        "velocity": 70
      },
      {
        "deltaTime": 250,
        "channel": 5,
        "type": "channel",
        "noteNumber": 63,
        "velocity": 40,
        "subtype": "noteOn"
      },
      {
        "deltaTime": 0,
        "channel": 5,
        "type": "channel",
        "noteNumber": 70,
        "velocity": 80,
        "subtype": "noteOn"
      },
      {
        "deltaTime": 0,
        "channel": 5,
        "type": "channel",
        "noteNumber": 35,
        "velocity": 100,
        "subtype": "noteOn"
      },
      {
        "deltaTime": 0,
        "channel": 5,
        "type": "channel",
        "noteNumber": 51,
        "velocity": 90,
        "subtype": "noteOn"
      },
      {
        "deltaTime": 0,
        "channel": 5,
        "type": "channel",
        "noteNumber": 56,
        "velocity": 40,
        "subtype": "noteOn"
      },
      {
        "deltaTime": 16,
        "channel": 5,
        "type": "channel",
        "noteNumber": 37,
        "velocity": 108,
        "subtype": "noteOn"
      },
      {
        "deltaTime": 172,
        "channel": 5,
        "type": "channel",
        "subtype": "noteOff",
        "noteNumber": 37,
        "velocity": 108
      },
      {
        "deltaTime": 62,
        "channel": 5,
        "type": "channel",
        "subtype": "noteOff",
        "noteNumber": 56,
        "velocity": 40
      },
      {
        "deltaTime": 0,
        "channel": 5,
        "type": "channel",
        "subtype": "noteOff",
        "noteNumber": 51,
        "velocity": 90
      },
      {
        "deltaTime": 0,
        "channel": 5,
        "type": "channel",
        "subtype": "noteOff",
        "noteNumber": 35,
        "velocity": 100
      },
      {
        "deltaTime": 0,
        "channel": 5,
        "type": "channel",
        "subtype": "noteOff",
        "noteNumber": 70,
        "velocity": 80
      },
      {
        "deltaTime": 0,
        "channel": 5,
        "type": "channel",
        "subtype": "noteOff",
        "noteNumber": 63,
        "velocity": 40
      },
      {
        "deltaTime": 250,
        "channel": 5,
        "type": "channel",
        "noteNumber": 51,
        "velocity": 70,
        "subtype": "noteOn"
      },
      {
        "deltaTime": 0,
        "channel": 5,
        "type": "channel",
        "noteNumber": 63,
        "velocity": 40,
        "subtype": "noteOn"
      },
      {
        "deltaTime": 0,
        "channel": 5,
        "type": "channel",
        "noteNumber": 69,
        "velocity": 50,
        "subtype": "noteOn"
      },
      {
        "deltaTime": 250,
        "channel": 5,
        "type": "channel",
        "subtype": "noteOff",
        "noteNumber": 69,
        "velocity": 50
      },
      {
        "deltaTime": 0,
        "channel": 5,
        "type": "channel",
        "subtype": "noteOff",
        "noteNumber": 63,
        "velocity": 40
      },
      {
        "deltaTime": 0,
        "channel": 5,
        "type": "channel",
        "subtype": "noteOff",
        "noteNumber": 51,
        "velocity": 70
      },
      {
        "deltaTime": 250,
        "channel": 5,
        "type": "channel",
        "noteNumber": 51,
        "velocity": 90,
        "subtype": "noteOn"
      },
      {
        "deltaTime": 0,
        "channel": 5,
        "type": "channel",
        "noteNumber": 70,
        "velocity": 80,
        "subtype": "noteOn"
      },
      {
        "deltaTime": 48,
        "channel": 5,
        "type": "channel",
        "noteNumber": 37,
        "velocity": 108,
        "subtype": "noteOn"
      },
      {
        "deltaTime": 170,
        "channel": 5,
        "type": "channel",
        "subtype": "noteOff",
        "noteNumber": 37,
        "velocity": 108
      },
      {
        "deltaTime": 32,
        "channel": 5,
        "type": "channel",
        "subtype": "noteOff",
        "noteNumber": 70,
        "velocity": 80
      },
      {
        "deltaTime": 0,
        "channel": 5,
        "type": "channel",
        "subtype": "noteOff",
        "noteNumber": 51,
        "velocity": 90
      },
      {
        "deltaTime": 250,
        "channel": 5,
        "type": "channel",
        "noteNumber": 35,
        "velocity": 70,
        "subtype": "noteOn"
      },
      {
        "deltaTime": 0,
        "channel": 5,
        "type": "channel",
        "noteNumber": 51,
        "velocity": 70,
        "subtype": "noteOn"
      },
      {
        "deltaTime": 0,
        "channel": 5,
        "type": "channel",
        "noteNumber": 69,
        "velocity": 50,
        "subtype": "noteOn"
      },
      {
        "deltaTime": 250,
        "channel": 5,
        "type": "channel",
        "subtype": "noteOff",
        "noteNumber": 69,
        "velocity": 50
      },
      {
        "deltaTime": 0,
        "channel": 5,
        "type": "channel",
        "subtype": "noteOff",
        "noteNumber": 51,
        "velocity": 70
      },
      {
        "deltaTime": 0,
        "channel": 5,
        "type": "channel",
        "subtype": "noteOff",
        "noteNumber": 35,
        "velocity": 70
      },
      {
        "deltaTime": 250,
        "channel": 5,
        "type": "channel",
        "noteNumber": 35,
        "velocity": 100,
        "subtype": "noteOn"
      },
      {
        "deltaTime": 0,
        "channel": 5,
        "type": "channel",
        "noteNumber": 51,
        "velocity": 90,
        "subtype": "noteOn"
      },
      {
        "deltaTime": 0,
        "channel": 5,
        "type": "channel",
        "noteNumber": 70,
        "velocity": 80,
        "subtype": "noteOn"
      },
      {
        "deltaTime": 250,
        "channel": 5,
        "type": "channel",
        "subtype": "noteOff",
        "noteNumber": 70,
        "velocity": 80
      },
      {
        "deltaTime": 0,
        "channel": 5,
        "type": "channel",
        "subtype": "noteOff",
        "noteNumber": 51,
        "velocity": 90
      },
      {
        "deltaTime": 0,
        "channel": 5,
        "type": "channel",
        "subtype": "noteOff",
        "noteNumber": 35,
        "velocity": 100
      },
      {
        "deltaTime": 250,
        "channel": 5,
        "type": "channel",
        "noteNumber": 51,
        "velocity": 70,
        "subtype": "noteOn"
      },
      {
        "deltaTime": 0,
        "channel": 5,
        "type": "channel",
        "noteNumber": 69,
        "velocity": 50,
        "subtype": "noteOn"
      },
      {
        "deltaTime": 58,
        "channel": 5,
        "type": "channel",
        "noteNumber": 37,
        "velocity": 106,
        "subtype": "noteOn"
      },
      {
        "deltaTime": 166,
        "channel": 5,
        "type": "channel",
        "subtype": "noteOff",
        "noteNumber": 37,
        "velocity": 106
      },
      {
        "deltaTime": 26,
        "channel": 5,
        "type": "channel",
        "subtype": "noteOff",
        "noteNumber": 69,
        "velocity": 50
      },
      {
        "deltaTime": 0,
        "channel": 5,
        "type": "channel",
        "subtype": "noteOff",
        "noteNumber": 51,
        "velocity": 70
      },
      {
        "deltaTime": 250,
        "channel": 5,
        "type": "channel",
        "noteNumber": 56,
        "velocity": 40,
        "subtype": "noteOn"
      },
      {
        "deltaTime": 0,
        "channel": 5,
        "type": "channel",
        "noteNumber": 51,
        "velocity": 90,
        "subtype": "noteOn"
      },
      {
        "deltaTime": 0,
        "channel": 5,
        "type": "channel",
        "noteNumber": 70,
        "velocity": 80,
        "subtype": "noteOn"
      },
      {
        "deltaTime": 250,
        "channel": 5,
        "type": "channel",
        "subtype": "noteOff",
        "noteNumber": 70,
        "velocity": 80
      },
      {
        "deltaTime": 0,
        "channel": 5,
        "type": "channel",
        "subtype": "noteOff",
        "noteNumber": 51,
        "velocity": 90
      },
      {
        "deltaTime": 0,
        "channel": 5,
        "type": "channel",
        "subtype": "noteOff",
        "noteNumber": 56,
        "velocity": 40
      },
      {
        "deltaTime": 250,
        "channel": 5,
        "type": "channel",
        "noteNumber": 35,
        "velocity": 70,
        "subtype": "noteOn"
      },
      {
        "deltaTime": 0,
        "channel": 5,
        "type": "channel",
        "noteNumber": 51,
        "velocity": 70,
        "subtype": "noteOn"
      },
      {
        "deltaTime": 0,
        "channel": 5,
        "type": "channel",
        "noteNumber": 69,
        "velocity": 50,
        "subtype": "noteOn"
      },
      {
        "deltaTime": 250,
        "channel": 5,
        "type": "channel",
        "subtype": "noteOff",
        "noteNumber": 69,
        "velocity": 50
      },
      {
        "deltaTime": 0,
        "channel": 5,
        "type": "channel",
        "subtype": "noteOff",
        "noteNumber": 51,
        "velocity": 70
      },
      {
        "deltaTime": 0,
        "channel": 5,
        "type": "channel",
        "subtype": "noteOff",
        "noteNumber": 35,
        "velocity": 70
      },
      {
        "deltaTime": 250,
        "channel": 5,
        "type": "channel",
        "noteNumber": 70,
        "velocity": 80,
        "subtype": "noteOn"
      },
      {
        "deltaTime": 0,
        "channel": 5,
        "type": "channel",
        "noteNumber": 51,
        "velocity": 90,
        "subtype": "noteOn"
      },
      {
        "deltaTime": 0,
        "channel": 5,
        "type": "channel",
        "noteNumber": 35,
        "velocity": 100,
        "subtype": "noteOn"
      },
      {
        "deltaTime": 16,
        "channel": 5,
        "type": "channel",
        "noteNumber": 37,
        "velocity": 108,
        "subtype": "noteOn"
      },
      {
        "deltaTime": 172,
        "channel": 5,
        "type": "channel",
        "subtype": "noteOff",
        "noteNumber": 37,
        "velocity": 108
      },
      {
        "deltaTime": 62,
        "channel": 5,
        "type": "channel",
        "subtype": "noteOff",
        "noteNumber": 35,
        "velocity": 100
      },
      {
        "deltaTime": 0,
        "channel": 5,
        "type": "channel",
        "subtype": "noteOff",
        "noteNumber": 51,
        "velocity": 90
      },
      {
        "deltaTime": 0,
        "channel": 5,
        "type": "channel",
        "subtype": "noteOff",
        "noteNumber": 70,
        "velocity": 80
      },
      {
        "deltaTime": 250,
        "channel": 5,
        "type": "channel",
        "noteNumber": 51,
        "velocity": 70,
        "subtype": "noteOn"
      },
      {
        "deltaTime": 0,
        "channel": 5,
        "type": "channel",
        "noteNumber": 63,
        "velocity": 40,
        "subtype": "noteOn"
      },
      {
        "deltaTime": 0,
        "channel": 5,
        "type": "channel",
        "noteNumber": 69,
        "velocity": 50,
        "subtype": "noteOn"
      },
      {
        "deltaTime": 250,
        "channel": 5,
        "type": "channel",
        "subtype": "noteOff",
        "noteNumber": 69,
        "velocity": 50
      },
      {
        "deltaTime": 0,
        "channel": 5,
        "type": "channel",
        "subtype": "noteOff",
        "noteNumber": 63,
        "velocity": 40
      },
      {
        "deltaTime": 0,
        "channel": 5,
        "type": "channel",
        "subtype": "noteOff",
        "noteNumber": 51,
        "velocity": 70
      },
      {
        "deltaTime": 250,
        "channel": 5,
        "type": "channel",
        "noteNumber": 70,
        "velocity": 80,
        "subtype": "noteOn"
      },
      {
        "deltaTime": 0,
        "channel": 5,
        "type": "channel",
        "noteNumber": 48,
        "velocity": 60,
        "subtype": "noteOn"
      },
      {
        "deltaTime": 0,
        "channel": 5,
        "type": "channel",
        "noteNumber": 51,
        "velocity": 90,
        "subtype": "noteOn"
      },
      {
        "deltaTime": 0,
        "channel": 5,
        "type": "channel",
        "noteNumber": 63,
        "velocity": 60,
        "subtype": "noteOn"
      },
      {
        "deltaTime": 48,
        "channel": 5,
        "type": "channel",
        "noteNumber": 37,
        "velocity": 108,
        "subtype": "noteOn"
      },
      {
        "deltaTime": 170,
        "channel": 5,
        "type": "channel",
        "subtype": "noteOff",
        "noteNumber": 37,
        "velocity": 108
      },
      {
        "deltaTime": 32,
        "channel": 5,
        "type": "channel",
        "subtype": "noteOff",
        "noteNumber": 63,
        "velocity": 60
      },
      {
        "deltaTime": 0,
        "channel": 5,
        "type": "channel",
        "subtype": "noteOff",
        "noteNumber": 51,
        "velocity": 90
      },
      {
        "deltaTime": 0,
        "channel": 5,
        "type": "channel",
        "subtype": "noteOff",
        "noteNumber": 48,
        "velocity": 60
      },
      {
        "deltaTime": 0,
        "channel": 5,
        "type": "channel",
        "subtype": "noteOff",
        "noteNumber": 70,
        "velocity": 80
      },
      {
        "deltaTime": 250,
        "channel": 5,
        "type": "channel",
        "noteNumber": 62,
        "velocity": 70,
        "subtype": "noteOn"
      },
      {
        "deltaTime": 0,
        "channel": 5,
        "type": "channel",
        "noteNumber": 51,
        "velocity": 70,
        "subtype": "noteOn"
      },
      {
        "deltaTime": 0,
        "channel": 5,
        "type": "channel",
        "noteNumber": 35,
        "velocity": 70,
        "subtype": "noteOn"
      },
      {
        "deltaTime": 0,
        "channel": 5,
        "type": "channel",
        "noteNumber": 69,
        "velocity": 50,
        "subtype": "noteOn"
      },
      {
        "deltaTime": 250,
        "channel": 5,
        "type": "channel",
        "subtype": "noteOff",
        "noteNumber": 69,
        "velocity": 50
      },
      {
        "deltaTime": 0,
        "channel": 5,
        "type": "channel",
        "subtype": "noteOff",
        "noteNumber": 35,
        "velocity": 70
      },
      {
        "deltaTime": 0,
        "channel": 5,
        "type": "channel",
        "subtype": "noteOff",
        "noteNumber": 51,
        "velocity": 70
      },
      {
        "deltaTime": 0,
        "channel": 5,
        "type": "channel",
        "subtype": "noteOff",
        "noteNumber": 62,
        "velocity": 70
      },
      {
        "deltaTime": 250,
        "channel": 5,
        "type": "channel",
        "noteNumber": 35,
        "velocity": 100,
        "subtype": "noteOn"
      },
      {
        "deltaTime": 0,
        "channel": 5,
        "type": "channel",
        "noteNumber": 51,
        "velocity": 90,
        "subtype": "noteOn"
      },
      {
        "deltaTime": 0,
        "channel": 5,
        "type": "channel",
        "noteNumber": 70,
        "velocity": 80,
        "subtype": "noteOn"
      },
      {
        "deltaTime": 250,
        "channel": 5,
        "type": "channel",
        "subtype": "noteOff",
        "noteNumber": 70,
        "velocity": 80
      },
      {
        "deltaTime": 0,
        "channel": 5,
        "type": "channel",
        "subtype": "noteOff",
        "noteNumber": 51,
        "velocity": 90
      },
      {
        "deltaTime": 0,
        "channel": 5,
        "type": "channel",
        "subtype": "noteOff",
        "noteNumber": 35,
        "velocity": 100
      },
      {
        "deltaTime": 250,
        "channel": 5,
        "type": "channel",
        "noteNumber": 51,
        "velocity": 70,
        "subtype": "noteOn"
      },
      {
        "deltaTime": 0,
        "channel": 5,
        "type": "channel",
        "noteNumber": 69,
        "velocity": 50,
        "subtype": "noteOn"
      },
      {
        "deltaTime": 58,
        "channel": 5,
        "type": "channel",
        "noteNumber": 37,
        "velocity": 106,
        "subtype": "noteOn"
      },
      {
        "deltaTime": 166,
        "channel": 5,
        "type": "channel",
        "subtype": "noteOff",
        "noteNumber": 37,
        "velocity": 106
      },
      {
        "deltaTime": 26,
        "channel": 5,
        "type": "channel",
        "subtype": "noteOff",
        "noteNumber": 69,
        "velocity": 50
      },
      {
        "deltaTime": 0,
        "channel": 5,
        "type": "channel",
        "subtype": "noteOff",
        "noteNumber": 51,
        "velocity": 70
      },
      {
        "deltaTime": 250,
        "channel": 5,
        "type": "channel",
        "noteNumber": 62,
        "velocity": 70,
        "subtype": "noteOn"
      },
      {
        "deltaTime": 0,
        "channel": 5,
        "type": "channel",
        "noteNumber": 51,
        "velocity": 90,
        "subtype": "noteOn"
      },
      {
        "deltaTime": 0,
        "channel": 5,
        "type": "channel",
        "noteNumber": 56,
        "velocity": 40,
        "subtype": "noteOn"
      },
      {
        "deltaTime": 0,
        "channel": 5,
        "type": "channel",
        "noteNumber": 70,
        "velocity": 80,
        "subtype": "noteOn"
      },
      {
        "deltaTime": 250,
        "channel": 5,
        "type": "channel",
        "subtype": "noteOff",
        "noteNumber": 70,
        "velocity": 80
      },
      {
        "deltaTime": 0,
        "channel": 5,
        "type": "channel",
        "subtype": "noteOff",
        "noteNumber": 56,
        "velocity": 40
      },
      {
        "deltaTime": 0,
        "channel": 5,
        "type": "channel",
        "subtype": "noteOff",
        "noteNumber": 51,
        "velocity": 90
      },
      {
        "deltaTime": 0,
        "channel": 5,
        "type": "channel",
        "subtype": "noteOff",
        "noteNumber": 62,
        "velocity": 70
      },
      {
        "deltaTime": 250,
        "channel": 5,
        "type": "channel",
        "noteNumber": 35,
        "velocity": 70,
        "subtype": "noteOn"
      },
      {
        "deltaTime": 0,
        "channel": 5,
        "type": "channel",
        "noteNumber": 51,
        "velocity": 70,
        "subtype": "noteOn"
      },
      {
        "deltaTime": 0,
        "channel": 5,
        "type": "channel",
        "noteNumber": 69,
        "velocity": 50,
        "subtype": "noteOn"
      },
      {
        "deltaTime": 250,
        "channel": 5,
        "type": "channel",
        "subtype": "noteOff",
        "noteNumber": 69,
        "velocity": 50
      },
      {
        "deltaTime": 0,
        "channel": 5,
        "type": "channel",
        "subtype": "noteOff",
        "noteNumber": 51,
        "velocity": 70
      },
      {
        "deltaTime": 0,
        "channel": 5,
        "type": "channel",
        "subtype": "noteOff",
        "noteNumber": 35,
        "velocity": 70
      },
      {
        "deltaTime": 250,
        "channel": 5,
        "type": "channel",
        "noteNumber": 63,
        "velocity": 40,
        "subtype": "noteOn"
      },
      {
        "deltaTime": 0,
        "channel": 5,
        "type": "channel",
        "noteNumber": 70,
        "velocity": 80,
        "subtype": "noteOn"
      },
      {
        "deltaTime": 0,
        "channel": 5,
        "type": "channel",
        "noteNumber": 35,
        "velocity": 100,
        "subtype": "noteOn"
      },
      {
        "deltaTime": 0,
        "channel": 5,
        "type": "channel",
        "noteNumber": 51,
        "velocity": 90,
        "subtype": "noteOn"
      },
      {
        "deltaTime": 0,
        "channel": 5,
        "type": "channel",
        "noteNumber": 56,
        "velocity": 40,
        "subtype": "noteOn"
      },
      {
        "deltaTime": 16,
        "channel": 5,
        "type": "channel",
        "noteNumber": 37,
        "velocity": 108,
        "subtype": "noteOn"
      },
      {
        "deltaTime": 172,
        "channel": 5,
        "type": "channel",
        "subtype": "noteOff",
        "noteNumber": 37,
        "velocity": 108
      },
      {
        "deltaTime": 62,
        "channel": 5,
        "type": "channel",
        "subtype": "noteOff",
        "noteNumber": 56,
        "velocity": 40
      },
      {
        "deltaTime": 0,
        "channel": 5,
        "type": "channel",
        "subtype": "noteOff",
        "noteNumber": 51,
        "velocity": 90
      },
      {
        "deltaTime": 0,
        "channel": 5,
        "type": "channel",
        "subtype": "noteOff",
        "noteNumber": 35,
        "velocity": 100
      },
      {
        "deltaTime": 0,
        "channel": 5,
        "type": "channel",
        "subtype": "noteOff",
        "noteNumber": 70,
        "velocity": 80
      },
      {
        "deltaTime": 0,
        "channel": 5,
        "type": "channel",
        "subtype": "noteOff",
        "noteNumber": 63,
        "velocity": 40
      },
      {
        "deltaTime": 250,
        "channel": 5,
        "type": "channel",
        "noteNumber": 63,
        "velocity": 40,
        "subtype": "noteOn"
      },
      {
        "deltaTime": 0,
        "channel": 5,
        "type": "channel",
        "noteNumber": 41,
        "velocity": 50,
        "subtype": "noteOn"
      },
      {
        "deltaTime": 0,
        "channel": 5,
        "type": "channel",
        "noteNumber": 51,
        "velocity": 70,
        "subtype": "noteOn"
      },
      {
        "deltaTime": 0,
        "channel": 5,
        "type": "channel",
        "noteNumber": 69,
        "velocity": 50,
        "subtype": "noteOn"
      },
      {
        "deltaTime": 250,
        "channel": 5,
        "type": "channel",
        "subtype": "noteOff",
        "noteNumber": 69,
        "velocity": 50
      },
      {
        "deltaTime": 0,
        "channel": 5,
        "type": "channel",
        "subtype": "noteOff",
        "noteNumber": 51,
        "velocity": 70
      },
      {
        "deltaTime": 0,
        "channel": 5,
        "type": "channel",
        "subtype": "noteOff",
        "noteNumber": 41,
        "velocity": 50
      },
      {
        "deltaTime": 0,
        "channel": 5,
        "type": "channel",
        "subtype": "noteOff",
        "noteNumber": 63,
        "velocity": 40
      },
      {
        "deltaTime": 250,
        "channel": 5,
        "type": "channel",
        "noteNumber": 51,
        "velocity": 90,
        "subtype": "noteOn"
      },
      {
        "deltaTime": 0,
        "channel": 5,
        "type": "channel",
        "noteNumber": 70,
        "velocity": 80,
        "subtype": "noteOn"
      },
      {
        "deltaTime": 48,
        "channel": 5,
        "type": "channel",
        "noteNumber": 37,
        "velocity": 108,
        "subtype": "noteOn"
      },
      {
        "deltaTime": 170,
        "channel": 5,
        "type": "channel",
        "subtype": "noteOff",
        "noteNumber": 37,
        "velocity": 108
      },
      {
        "deltaTime": 32,
        "channel": 5,
        "type": "channel",
        "subtype": "noteOff",
        "noteNumber": 70,
        "velocity": 80
      },
      {
        "deltaTime": 0,
        "channel": 5,
        "type": "channel",
        "subtype": "noteOff",
        "noteNumber": 51,
        "velocity": 90
      },
      {
        "deltaTime": 250,
        "channel": 5,
        "type": "channel",
        "noteNumber": 51,
        "velocity": 70,
        "subtype": "noteOn"
      },
      {
        "deltaTime": 0,
        "channel": 5,
        "type": "channel",
        "noteNumber": 56,
        "velocity": 40,
        "subtype": "noteOn"
      },
      {
        "deltaTime": 0,
        "channel": 5,
        "type": "channel",
        "noteNumber": 35,
        "velocity": 70,
        "subtype": "noteOn"
      },
      {
        "deltaTime": 0,
        "channel": 5,
        "type": "channel",
        "noteNumber": 69,
        "velocity": 50,
        "subtype": "noteOn"
      },
      {
        "deltaTime": 250,
        "channel": 5,
        "type": "channel",
        "subtype": "noteOff",
        "noteNumber": 69,
        "velocity": 50
      },
      {
        "deltaTime": 0,
        "channel": 5,
        "type": "channel",
        "subtype": "noteOff",
        "noteNumber": 35,
        "velocity": 70
      },
      {
        "deltaTime": 0,
        "channel": 5,
        "type": "channel",
        "subtype": "noteOff",
        "noteNumber": 56,
        "velocity": 40
      },
      {
        "deltaTime": 0,
        "channel": 5,
        "type": "channel",
        "subtype": "noteOff",
        "noteNumber": 51,
        "velocity": 70
      },
      {
        "deltaTime": 250,
        "channel": 5,
        "type": "channel",
        "noteNumber": 35,
        "velocity": 100,
        "subtype": "noteOn"
      },
      {
        "deltaTime": 0,
        "channel": 5,
        "type": "channel",
        "noteNumber": 51,
        "velocity": 90,
        "subtype": "noteOn"
      },
      {
        "deltaTime": 0,
        "channel": 5,
        "type": "channel",
        "noteNumber": 70,
        "velocity": 80,
        "subtype": "noteOn"
      },
      {
        "deltaTime": 250,
        "channel": 5,
        "type": "channel",
        "subtype": "noteOff",
        "noteNumber": 70,
        "velocity": 80
      },
      {
        "deltaTime": 0,
        "channel": 5,
        "type": "channel",
        "subtype": "noteOff",
        "noteNumber": 51,
        "velocity": 90
      },
      {
        "deltaTime": 0,
        "channel": 5,
        "type": "channel",
        "subtype": "noteOff",
        "noteNumber": 35,
        "velocity": 100
      },
      {
        "deltaTime": 250,
        "channel": 5,
        "type": "channel",
        "noteNumber": 51,
        "velocity": 70,
        "subtype": "noteOn"
      },
      {
        "deltaTime": 0,
        "channel": 5,
        "type": "channel",
        "noteNumber": 69,
        "velocity": 50,
        "subtype": "noteOn"
      },
      {
        "deltaTime": 58,
        "channel": 5,
        "type": "channel",
        "noteNumber": 37,
        "velocity": 106,
        "subtype": "noteOn"
      },
      {
        "deltaTime": 166,
        "channel": 5,
        "type": "channel",
        "subtype": "noteOff",
        "noteNumber": 37,
        "velocity": 106
      },
      {
        "deltaTime": 26,
        "channel": 5,
        "type": "channel",
        "subtype": "noteOff",
        "noteNumber": 69,
        "velocity": 50
      },
      {
        "deltaTime": 0,
        "channel": 5,
        "type": "channel",
        "subtype": "noteOff",
        "noteNumber": 51,
        "velocity": 70
      },
      {
        "deltaTime": 250,
        "channel": 5,
        "type": "channel",
        "noteNumber": 51,
        "velocity": 90,
        "subtype": "noteOn"
      },
      {
        "deltaTime": 0,
        "channel": 5,
        "type": "channel",
        "noteNumber": 70,
        "velocity": 80,
        "subtype": "noteOn"
      },
      {
        "deltaTime": 250,
        "channel": 5,
        "type": "channel",
        "subtype": "noteOff",
        "noteNumber": 70,
        "velocity": 80
      },
      {
        "deltaTime": 0,
        "channel": 5,
        "type": "channel",
        "subtype": "noteOff",
        "noteNumber": 51,
        "velocity": 90
      },
      {
        "deltaTime": 250,
        "channel": 5,
        "type": "channel",
        "noteNumber": 41,
        "velocity": 60,
        "subtype": "noteOn"
      },
      {
        "deltaTime": 0,
        "channel": 5,
        "type": "channel",
        "noteNumber": 51,
        "velocity": 70,
        "subtype": "noteOn"
      },
      {
        "deltaTime": 0,
        "channel": 5,
        "type": "channel",
        "noteNumber": 35,
        "velocity": 70,
        "subtype": "noteOn"
      },
      {
        "deltaTime": 0,
        "channel": 5,
        "type": "channel",
        "noteNumber": 69,
        "velocity": 50,
        "subtype": "noteOn"
      },
      {
        "deltaTime": 250,
        "channel": 5,
        "type": "channel",
        "subtype": "noteOff",
        "noteNumber": 69,
        "velocity": 50
      },
      {
        "deltaTime": 0,
        "channel": 5,
        "type": "channel",
        "subtype": "noteOff",
        "noteNumber": 35,
        "velocity": 70
      },
      {
        "deltaTime": 0,
        "channel": 5,
        "type": "channel",
        "subtype": "noteOff",
        "noteNumber": 51,
        "velocity": 70
      },
      {
        "deltaTime": 0,
        "channel": 5,
        "type": "channel",
        "subtype": "noteOff",
        "noteNumber": 41,
        "velocity": 60
      },
      {
        "deltaTime": 250,
        "channel": 5,
        "type": "channel",
        "noteNumber": 70,
        "velocity": 80,
        "subtype": "noteOn"
      },
      {
        "deltaTime": 0,
        "channel": 5,
        "type": "channel",
        "noteNumber": 56,
        "velocity": 40,
        "subtype": "noteOn"
      },
      {
        "deltaTime": 0,
        "channel": 5,
        "type": "channel",
        "noteNumber": 35,
        "velocity": 100,
        "subtype": "noteOn"
      },
      {
        "deltaTime": 0,
        "channel": 5,
        "type": "channel",
        "noteNumber": 51,
        "velocity": 90,
        "subtype": "noteOn"
      },
      {
        "deltaTime": 16,
        "channel": 5,
        "type": "channel",
        "noteNumber": 37,
        "velocity": 108,
        "subtype": "noteOn"
      },
      {
        "deltaTime": 172,
        "channel": 5,
        "type": "channel",
        "subtype": "noteOff",
        "noteNumber": 37,
        "velocity": 108
      },
      {
        "deltaTime": 62,
        "channel": 5,
        "type": "channel",
        "subtype": "noteOff",
        "noteNumber": 51,
        "velocity": 90
      },
      {
        "deltaTime": 0,
        "channel": 5,
        "type": "channel",
        "subtype": "noteOff",
        "noteNumber": 35,
        "velocity": 100
      },
      {
        "deltaTime": 0,
        "channel": 5,
        "type": "channel",
        "subtype": "noteOff",
        "noteNumber": 56,
        "velocity": 40
      },
      {
        "deltaTime": 0,
        "channel": 5,
        "type": "channel",
        "subtype": "noteOff",
        "noteNumber": 70,
        "velocity": 80
      },
      {
        "deltaTime": 250,
        "channel": 5,
        "type": "channel",
        "noteNumber": 51,
        "velocity": 70,
        "subtype": "noteOn"
      },
      {
        "deltaTime": 0,
        "channel": 5,
        "type": "channel",
        "noteNumber": 63,
        "velocity": 40,
        "subtype": "noteOn"
      },
      {
        "deltaTime": 0,
        "channel": 5,
        "type": "channel",
        "noteNumber": 69,
        "velocity": 50,
        "subtype": "noteOn"
      },
      {
        "deltaTime": 250,
        "channel": 5,
        "type": "channel",
        "subtype": "noteOff",
        "noteNumber": 69,
        "velocity": 50
      },
      {
        "deltaTime": 0,
        "channel": 5,
        "type": "channel",
        "subtype": "noteOff",
        "noteNumber": 63,
        "velocity": 40
      },
      {
        "deltaTime": 0,
        "channel": 5,
        "type": "channel",
        "subtype": "noteOff",
        "noteNumber": 51,
        "velocity": 70
      },
      {
        "deltaTime": 250,
        "channel": 5,
        "type": "channel",
        "noteNumber": 70,
        "velocity": 80,
        "subtype": "noteOn"
      },
      {
        "deltaTime": 0,
        "channel": 5,
        "type": "channel",
        "noteNumber": 63,
        "velocity": 60,
        "subtype": "noteOn"
      },
      {
        "deltaTime": 0,
        "channel": 5,
        "type": "channel",
        "noteNumber": 51,
        "velocity": 90,
        "subtype": "noteOn"
      },
      {
        "deltaTime": 48,
        "channel": 5,
        "type": "channel",
        "noteNumber": 37,
        "velocity": 108,
        "subtype": "noteOn"
      },
      {
        "deltaTime": 170,
        "channel": 5,
        "type": "channel",
        "subtype": "noteOff",
        "noteNumber": 37,
        "velocity": 108
      },
      {
        "deltaTime": 32,
        "channel": 5,
        "type": "channel",
        "subtype": "noteOff",
        "noteNumber": 51,
        "velocity": 90
      },
      {
        "deltaTime": 0,
        "channel": 5,
        "type": "channel",
        "subtype": "noteOff",
        "noteNumber": 63,
        "velocity": 60
      },
      {
        "deltaTime": 0,
        "channel": 5,
        "type": "channel",
        "subtype": "noteOff",
        "noteNumber": 70,
        "velocity": 80
      },
      {
        "deltaTime": 250,
        "channel": 5,
        "type": "channel",
        "noteNumber": 62,
        "velocity": 70,
        "subtype": "noteOn"
      },
      {
        "deltaTime": 0,
        "channel": 5,
        "type": "channel",
        "noteNumber": 56,
        "velocity": 40,
        "subtype": "noteOn"
      },
      {
        "deltaTime": 0,
        "channel": 5,
        "type": "channel",
        "noteNumber": 35,
        "velocity": 70,
        "subtype": "noteOn"
      },
      {
        "deltaTime": 0,
        "channel": 5,
        "type": "channel",
        "noteNumber": 51,
        "velocity": 70,
        "subtype": "noteOn"
      },
      {
        "deltaTime": 0,
        "channel": 5,
        "type": "channel",
        "noteNumber": 69,
        "velocity": 50,
        "subtype": "noteOn"
      },
      {
        "deltaTime": 250,
        "channel": 5,
        "type": "channel",
        "subtype": "noteOff",
        "noteNumber": 69,
        "velocity": 50
      },
      {
        "deltaTime": 0,
        "channel": 5,
        "type": "channel",
        "subtype": "noteOff",
        "noteNumber": 51,
        "velocity": 70
      },
      {
        "deltaTime": 0,
        "channel": 5,
        "type": "channel",
        "subtype": "noteOff",
        "noteNumber": 35,
        "velocity": 70
      },
      {
        "deltaTime": 0,
        "channel": 5,
        "type": "channel",
        "subtype": "noteOff",
        "noteNumber": 56,
        "velocity": 40
      },
      {
        "deltaTime": 0,
        "channel": 5,
        "type": "channel",
        "subtype": "noteOff",
        "noteNumber": 62,
        "velocity": 70
      },
      {
        "deltaTime": 250,
        "channel": 5,
        "type": "channel",
        "noteNumber": 35,
        "velocity": 100,
        "subtype": "noteOn"
      },
      {
        "deltaTime": 0,
        "channel": 5,
        "type": "channel",
        "noteNumber": 51,
        "velocity": 90,
        "subtype": "noteOn"
      },
      {
        "deltaTime": 0,
        "channel": 5,
        "type": "channel",
        "noteNumber": 70,
        "velocity": 80,
        "subtype": "noteOn"
      },
      {
        "deltaTime": 250,
        "channel": 5,
        "type": "channel",
        "subtype": "noteOff",
        "noteNumber": 70,
        "velocity": 80
      },
      {
        "deltaTime": 0,
        "channel": 5,
        "type": "channel",
        "subtype": "noteOff",
        "noteNumber": 51,
        "velocity": 90
      },
      {
        "deltaTime": 0,
        "channel": 5,
        "type": "channel",
        "subtype": "noteOff",
        "noteNumber": 35,
        "velocity": 100
      },
      {
        "deltaTime": 250,
        "channel": 5,
        "type": "channel",
        "noteNumber": 51,
        "velocity": 70,
        "subtype": "noteOn"
      },
      {
        "deltaTime": 0,
        "channel": 5,
        "type": "channel",
        "noteNumber": 69,
        "velocity": 50,
        "subtype": "noteOn"
      },
      {
        "deltaTime": 58,
        "channel": 5,
        "type": "channel",
        "noteNumber": 37,
        "velocity": 106,
        "subtype": "noteOn"
      },
      {
        "deltaTime": 166,
        "channel": 5,
        "type": "channel",
        "subtype": "noteOff",
        "noteNumber": 37,
        "velocity": 106
      },
      {
        "deltaTime": 26,
        "channel": 5,
        "type": "channel",
        "subtype": "noteOff",
        "noteNumber": 69,
        "velocity": 50
      },
      {
        "deltaTime": 0,
        "channel": 5,
        "type": "channel",
        "subtype": "noteOff",
        "noteNumber": 51,
        "velocity": 70
      },
      {
        "deltaTime": 250,
        "channel": 5,
        "type": "channel",
        "noteNumber": 62,
        "velocity": 70,
        "subtype": "noteOn"
      },
      {
        "deltaTime": 0,
        "channel": 5,
        "type": "channel",
        "noteNumber": 51,
        "velocity": 90,
        "subtype": "noteOn"
      },
      {
        "deltaTime": 0,
        "channel": 5,
        "type": "channel",
        "noteNumber": 56,
        "velocity": 40,
        "subtype": "noteOn"
      },
      {
        "deltaTime": 0,
        "channel": 5,
        "type": "channel",
        "noteNumber": 70,
        "velocity": 80,
        "subtype": "noteOn"
      },
      {
        "deltaTime": 250,
        "channel": 5,
        "type": "channel",
        "subtype": "noteOff",
        "noteNumber": 70,
        "velocity": 80
      },
      {
        "deltaTime": 0,
        "channel": 5,
        "type": "channel",
        "subtype": "noteOff",
        "noteNumber": 56,
        "velocity": 40
      },
      {
        "deltaTime": 0,
        "channel": 5,
        "type": "channel",
        "subtype": "noteOff",
        "noteNumber": 51,
        "velocity": 90
      },
      {
        "deltaTime": 0,
        "channel": 5,
        "type": "channel",
        "subtype": "noteOff",
        "noteNumber": 62,
        "velocity": 70
      },
      {
        "deltaTime": 250,
        "channel": 5,
        "type": "channel",
        "noteNumber": 35,
        "velocity": 70,
        "subtype": "noteOn"
      },
      {
        "deltaTime": 0,
        "channel": 5,
        "type": "channel",
        "noteNumber": 51,
        "velocity": 70,
        "subtype": "noteOn"
      },
      {
        "deltaTime": 0,
        "channel": 5,
        "type": "channel",
        "noteNumber": 69,
        "velocity": 50,
        "subtype": "noteOn"
      },
      {
        "deltaTime": 250,
        "channel": 5,
        "type": "channel",
        "subtype": "noteOff",
        "noteNumber": 69,
        "velocity": 50
      },
      {
        "deltaTime": 0,
        "channel": 5,
        "type": "channel",
        "subtype": "noteOff",
        "noteNumber": 51,
        "velocity": 70
      },
      {
        "deltaTime": 0,
        "channel": 5,
        "type": "channel",
        "subtype": "noteOff",
        "noteNumber": 35,
        "velocity": 70
      },
      {
        "deltaTime": 250,
        "channel": 5,
        "type": "channel",
        "noteNumber": 63,
        "velocity": 40,
        "subtype": "noteOn"
      },
      {
        "deltaTime": 0,
        "channel": 5,
        "type": "channel",
        "noteNumber": 70,
        "velocity": 80,
        "subtype": "noteOn"
      },
      {
        "deltaTime": 0,
        "channel": 5,
        "type": "channel",
        "noteNumber": 35,
        "velocity": 100,
        "subtype": "noteOn"
      },
      {
        "deltaTime": 0,
        "channel": 5,
        "type": "channel",
        "noteNumber": 51,
        "velocity": 90,
        "subtype": "noteOn"
      },
      {
        "deltaTime": 0,
        "channel": 5,
        "type": "channel",
        "noteNumber": 56,
        "velocity": 40,
        "subtype": "noteOn"
      },
      {
        "deltaTime": 16,
        "channel": 5,
        "type": "channel",
        "noteNumber": 37,
        "velocity": 108,
        "subtype": "noteOn"
      },
      {
        "deltaTime": 172,
        "channel": 5,
        "type": "channel",
        "subtype": "noteOff",
        "noteNumber": 37,
        "velocity": 108
      },
      {
        "deltaTime": 62,
        "channel": 5,
        "type": "channel",
        "subtype": "noteOff",
        "noteNumber": 56,
        "velocity": 40
      },
      {
        "deltaTime": 0,
        "channel": 5,
        "type": "channel",
        "subtype": "noteOff",
        "noteNumber": 51,
        "velocity": 90
      },
      {
        "deltaTime": 0,
        "channel": 5,
        "type": "channel",
        "subtype": "noteOff",
        "noteNumber": 35,
        "velocity": 100
      },
      {
        "deltaTime": 0,
        "channel": 5,
        "type": "channel",
        "subtype": "noteOff",
        "noteNumber": 70,
        "velocity": 80
      },
      {
        "deltaTime": 0,
        "channel": 5,
        "type": "channel",
        "subtype": "noteOff",
        "noteNumber": 63,
        "velocity": 40
      },
      {
        "deltaTime": 250,
        "channel": 5,
        "type": "channel",
        "noteNumber": 51,
        "velocity": 70,
        "subtype": "noteOn"
      },
      {
        "deltaTime": 0,
        "channel": 5,
        "type": "channel",
        "noteNumber": 63,
        "velocity": 40,
        "subtype": "noteOn"
      },
      {
        "deltaTime": 0,
        "channel": 5,
        "type": "channel",
        "noteNumber": 69,
        "velocity": 50,
        "subtype": "noteOn"
      },
      {
        "deltaTime": 250,
        "channel": 5,
        "type": "channel",
        "subtype": "noteOff",
        "noteNumber": 69,
        "velocity": 50
      },
      {
        "deltaTime": 0,
        "channel": 5,
        "type": "channel",
        "subtype": "noteOff",
        "noteNumber": 63,
        "velocity": 40
      },
      {
        "deltaTime": 0,
        "channel": 5,
        "type": "channel",
        "subtype": "noteOff",
        "noteNumber": 51,
        "velocity": 70
      },
      {
        "deltaTime": 250,
        "channel": 5,
        "type": "channel",
        "noteNumber": 51,
        "velocity": 90,
        "subtype": "noteOn"
      },
      {
        "deltaTime": 0,
        "channel": 5,
        "type": "channel",
        "noteNumber": 70,
        "velocity": 80,
        "subtype": "noteOn"
      },
      {
        "deltaTime": 48,
        "channel": 5,
        "type": "channel",
        "noteNumber": 37,
        "velocity": 108,
        "subtype": "noteOn"
      },
      {
        "deltaTime": 170,
        "channel": 5,
        "type": "channel",
        "subtype": "noteOff",
        "noteNumber": 37,
        "velocity": 108
      },
      {
        "deltaTime": 32,
        "channel": 5,
        "type": "channel",
        "subtype": "noteOff",
        "noteNumber": 70,
        "velocity": 80
      },
      {
        "deltaTime": 0,
        "channel": 5,
        "type": "channel",
        "subtype": "noteOff",
        "noteNumber": 51,
        "velocity": 90
      },
      {
        "deltaTime": 250,
        "channel": 5,
        "type": "channel",
        "noteNumber": 35,
        "velocity": 70,
        "subtype": "noteOn"
      },
      {
        "deltaTime": 0,
        "channel": 5,
        "type": "channel",
        "noteNumber": 51,
        "velocity": 70,
        "subtype": "noteOn"
      },
      {
        "deltaTime": 0,
        "channel": 5,
        "type": "channel",
        "noteNumber": 69,
        "velocity": 50,
        "subtype": "noteOn"
      },
      {
        "deltaTime": 250,
        "channel": 5,
        "type": "channel",
        "subtype": "noteOff",
        "noteNumber": 69,
        "velocity": 50
      },
      {
        "deltaTime": 0,
        "channel": 5,
        "type": "channel",
        "subtype": "noteOff",
        "noteNumber": 51,
        "velocity": 70
      },
      {
        "deltaTime": 0,
        "channel": 5,
        "type": "channel",
        "subtype": "noteOff",
        "noteNumber": 35,
        "velocity": 70
      },
      {
        "deltaTime": 250,
        "channel": 5,
        "type": "channel",
        "noteNumber": 35,
        "velocity": 100,
        "subtype": "noteOn"
      },
      {
        "deltaTime": 0,
        "channel": 5,
        "type": "channel",
        "noteNumber": 51,
        "velocity": 90,
        "subtype": "noteOn"
      },
      {
        "deltaTime": 0,
        "channel": 5,
        "type": "channel",
        "noteNumber": 70,
        "velocity": 80,
        "subtype": "noteOn"
      },
      {
        "deltaTime": 250,
        "channel": 5,
        "type": "channel",
        "subtype": "noteOff",
        "noteNumber": 70,
        "velocity": 80
      },
      {
        "deltaTime": 0,
        "channel": 5,
        "type": "channel",
        "subtype": "noteOff",
        "noteNumber": 51,
        "velocity": 90
      },
      {
        "deltaTime": 0,
        "channel": 5,
        "type": "channel",
        "subtype": "noteOff",
        "noteNumber": 35,
        "velocity": 100
      },
      {
        "deltaTime": 250,
        "channel": 5,
        "type": "channel",
        "noteNumber": 51,
        "velocity": 70,
        "subtype": "noteOn"
      },
      {
        "deltaTime": 0,
        "channel": 5,
        "type": "channel",
        "noteNumber": 69,
        "velocity": 50,
        "subtype": "noteOn"
      },
      {
        "deltaTime": 58,
        "channel": 5,
        "type": "channel",
        "noteNumber": 37,
        "velocity": 106,
        "subtype": "noteOn"
      },
      {
        "deltaTime": 166,
        "channel": 5,
        "type": "channel",
        "subtype": "noteOff",
        "noteNumber": 37,
        "velocity": 106
      },
      {
        "deltaTime": 26,
        "channel": 5,
        "type": "channel",
        "subtype": "noteOff",
        "noteNumber": 69,
        "velocity": 50
      },
      {
        "deltaTime": 0,
        "channel": 5,
        "type": "channel",
        "subtype": "noteOff",
        "noteNumber": 51,
        "velocity": 70
      },
      {
        "deltaTime": 250,
        "channel": 5,
        "type": "channel",
        "noteNumber": 51,
        "velocity": 90,
        "subtype": "noteOn"
      },
      {
        "deltaTime": 0,
        "channel": 5,
        "type": "channel",
        "noteNumber": 70,
        "velocity": 80,
        "subtype": "noteOn"
      },
      {
        "deltaTime": 250,
        "channel": 5,
        "type": "channel",
        "subtype": "noteOff",
        "noteNumber": 70,
        "velocity": 80
      },
      {
        "deltaTime": 0,
        "channel": 5,
        "type": "channel",
        "subtype": "noteOff",
        "noteNumber": 51,
        "velocity": 90
      },
      {
        "deltaTime": 250,
        "channel": 5,
        "type": "channel",
        "noteNumber": 35,
        "velocity": 70,
        "subtype": "noteOn"
      },
      {
        "deltaTime": 0,
        "channel": 5,
        "type": "channel",
        "noteNumber": 51,
        "velocity": 70,
        "subtype": "noteOn"
      },
      {
        "deltaTime": 0,
        "channel": 5,
        "type": "channel",
        "noteNumber": 69,
        "velocity": 50,
        "subtype": "noteOn"
      },
      {
        "deltaTime": 250,
        "channel": 5,
        "type": "channel",
        "subtype": "noteOff",
        "noteNumber": 69,
        "velocity": 50
      },
      {
        "deltaTime": 0,
        "channel": 5,
        "type": "channel",
        "subtype": "noteOff",
        "noteNumber": 51,
        "velocity": 70
      },
      {
        "deltaTime": 0,
        "channel": 5,
        "type": "channel",
        "subtype": "noteOff",
        "noteNumber": 35,
        "velocity": 70
      },
      {
        "deltaTime": 250,
        "channel": 5,
        "type": "channel",
        "noteNumber": 70,
        "velocity": 80,
        "subtype": "noteOn"
      },
      {
        "deltaTime": 0,
        "channel": 5,
        "type": "channel",
        "noteNumber": 51,
        "velocity": 90,
        "subtype": "noteOn"
      },
      {
        "deltaTime": 0,
        "channel": 5,
        "type": "channel",
        "noteNumber": 35,
        "velocity": 100,
        "subtype": "noteOn"
      },
      {
        "deltaTime": 16,
        "channel": 5,
        "type": "channel",
        "noteNumber": 37,
        "velocity": 108,
        "subtype": "noteOn"
      },
      {
        "deltaTime": 172,
        "channel": 5,
        "type": "channel",
        "subtype": "noteOff",
        "noteNumber": 37,
        "velocity": 108
      },
      {
        "deltaTime": 62,
        "channel": 5,
        "type": "channel",
        "subtype": "noteOff",
        "noteNumber": 35,
        "velocity": 100
      },
      {
        "deltaTime": 0,
        "channel": 5,
        "type": "channel",
        "subtype": "noteOff",
        "noteNumber": 51,
        "velocity": 90
      },
      {
        "deltaTime": 0,
        "channel": 5,
        "type": "channel",
        "subtype": "noteOff",
        "noteNumber": 70,
        "velocity": 80
      },
      {
        "deltaTime": 250,
        "channel": 5,
        "type": "channel",
        "noteNumber": 51,
        "velocity": 70,
        "subtype": "noteOn"
      },
      {
        "deltaTime": 0,
        "channel": 5,
        "type": "channel",
        "noteNumber": 63,
        "velocity": 40,
        "subtype": "noteOn"
      },
      {
        "deltaTime": 0,
        "channel": 5,
        "type": "channel",
        "noteNumber": 69,
        "velocity": 50,
        "subtype": "noteOn"
      },
      {
        "deltaTime": 250,
        "channel": 5,
        "type": "channel",
        "subtype": "noteOff",
        "noteNumber": 69,
        "velocity": 50
      },
      {
        "deltaTime": 0,
        "channel": 5,
        "type": "channel",
        "subtype": "noteOff",
        "noteNumber": 63,
        "velocity": 40
      },
      {
        "deltaTime": 0,
        "channel": 5,
        "type": "channel",
        "subtype": "noteOff",
        "noteNumber": 51,
        "velocity": 70
      },
      {
        "deltaTime": 250,
        "channel": 5,
        "type": "channel",
        "noteNumber": 70,
        "velocity": 80,
        "subtype": "noteOn"
      },
      {
        "deltaTime": 0,
        "channel": 5,
        "type": "channel",
        "noteNumber": 63,
        "velocity": 60,
        "subtype": "noteOn"
      },
      {
        "deltaTime": 0,
        "channel": 5,
        "type": "channel",
        "noteNumber": 51,
        "velocity": 90,
        "subtype": "noteOn"
      },
      {
        "deltaTime": 48,
        "channel": 5,
        "type": "channel",
        "noteNumber": 37,
        "velocity": 108,
        "subtype": "noteOn"
      },
      {
        "deltaTime": 170,
        "channel": 5,
        "type": "channel",
        "subtype": "noteOff",
        "noteNumber": 37,
        "velocity": 108
      },
      {
        "deltaTime": 32,
        "channel": 5,
        "type": "channel",
        "subtype": "noteOff",
        "noteNumber": 51,
        "velocity": 90
      },
      {
        "deltaTime": 0,
        "channel": 5,
        "type": "channel",
        "subtype": "noteOff",
        "noteNumber": 63,
        "velocity": 60
      },
      {
        "deltaTime": 0,
        "channel": 5,
        "type": "channel",
        "subtype": "noteOff",
        "noteNumber": 70,
        "velocity": 80
      },
      {
        "deltaTime": 250,
        "channel": 5,
        "type": "channel",
        "noteNumber": 62,
        "velocity": 70,
        "subtype": "noteOn"
      },
      {
        "deltaTime": 0,
        "channel": 5,
        "type": "channel",
        "noteNumber": 56,
        "velocity": 40,
        "subtype": "noteOn"
      },
      {
        "deltaTime": 0,
        "channel": 5,
        "type": "channel",
        "noteNumber": 35,
        "velocity": 70,
        "subtype": "noteOn"
      },
      {
        "deltaTime": 0,
        "channel": 5,
        "type": "channel",
        "noteNumber": 51,
        "velocity": 70,
        "subtype": "noteOn"
      },
      {
        "deltaTime": 0,
        "channel": 5,
        "type": "channel",
        "noteNumber": 69,
        "velocity": 50,
        "subtype": "noteOn"
      },
      {
        "deltaTime": 250,
        "channel": 5,
        "type": "channel",
        "subtype": "noteOff",
        "noteNumber": 69,
        "velocity": 50
      },
      {
        "deltaTime": 0,
        "channel": 5,
        "type": "channel",
        "subtype": "noteOff",
        "noteNumber": 51,
        "velocity": 70
      },
      {
        "deltaTime": 0,
        "channel": 5,
        "type": "channel",
        "subtype": "noteOff",
        "noteNumber": 35,
        "velocity": 70
      },
      {
        "deltaTime": 0,
        "channel": 5,
        "type": "channel",
        "subtype": "noteOff",
        "noteNumber": 56,
        "velocity": 40
      },
      {
        "deltaTime": 0,
        "channel": 5,
        "type": "channel",
        "subtype": "noteOff",
        "noteNumber": 62,
        "velocity": 70
      },
      {
        "deltaTime": 250,
        "channel": 5,
        "type": "channel",
        "noteNumber": 35,
        "velocity": 100,
        "subtype": "noteOn"
      },
      {
        "deltaTime": 0,
        "channel": 5,
        "type": "channel",
        "noteNumber": 51,
        "velocity": 90,
        "subtype": "noteOn"
      },
      {
        "deltaTime": 0,
        "channel": 5,
        "type": "channel",
        "noteNumber": 70,
        "velocity": 80,
        "subtype": "noteOn"
      },
      {
        "deltaTime": 250,
        "channel": 5,
        "type": "channel",
        "subtype": "noteOff",
        "noteNumber": 70,
        "velocity": 80
      },
      {
        "deltaTime": 0,
        "channel": 5,
        "type": "channel",
        "subtype": "noteOff",
        "noteNumber": 51,
        "velocity": 90
      },
      {
        "deltaTime": 0,
        "channel": 5,
        "type": "channel",
        "subtype": "noteOff",
        "noteNumber": 35,
        "velocity": 100
      },
      {
        "deltaTime": 250,
        "channel": 5,
        "type": "channel",
        "noteNumber": 51,
        "velocity": 70,
        "subtype": "noteOn"
      },
      {
        "deltaTime": 0,
        "channel": 5,
        "type": "channel",
        "noteNumber": 69,
        "velocity": 50,
        "subtype": "noteOn"
      },
      {
        "deltaTime": 58,
        "channel": 5,
        "type": "channel",
        "noteNumber": 37,
        "velocity": 106,
        "subtype": "noteOn"
      },
      {
        "deltaTime": 166,
        "channel": 5,
        "type": "channel",
        "subtype": "noteOff",
        "noteNumber": 37,
        "velocity": 106
      },
      {
        "deltaTime": 26,
        "channel": 5,
        "type": "channel",
        "subtype": "noteOff",
        "noteNumber": 69,
        "velocity": 50
      },
      {
        "deltaTime": 0,
        "channel": 5,
        "type": "channel",
        "subtype": "noteOff",
        "noteNumber": 51,
        "velocity": 70
      },
      {
        "deltaTime": 250,
        "channel": 5,
        "type": "channel",
        "noteNumber": 62,
        "velocity": 70,
        "subtype": "noteOn"
      },
      {
        "deltaTime": 0,
        "channel": 5,
        "type": "channel",
        "noteNumber": 51,
        "velocity": 90,
        "subtype": "noteOn"
      },
      {
        "deltaTime": 0,
        "channel": 5,
        "type": "channel",
        "noteNumber": 56,
        "velocity": 40,
        "subtype": "noteOn"
      },
      {
        "deltaTime": 0,
        "channel": 5,
        "type": "channel",
        "noteNumber": 45,
        "velocity": 70,
        "subtype": "noteOn"
      },
      {
        "deltaTime": 0,
        "channel": 5,
        "type": "channel",
        "noteNumber": 70,
        "velocity": 80,
        "subtype": "noteOn"
      },
      {
        "deltaTime": 250,
        "channel": 5,
        "type": "channel",
        "subtype": "noteOff",
        "noteNumber": 70,
        "velocity": 80
      },
      {
        "deltaTime": 0,
        "channel": 5,
        "type": "channel",
        "subtype": "noteOff",
        "noteNumber": 45,
        "velocity": 70
      },
      {
        "deltaTime": 0,
        "channel": 5,
        "type": "channel",
        "subtype": "noteOff",
        "noteNumber": 56,
        "velocity": 40
      },
      {
        "deltaTime": 0,
        "channel": 5,
        "type": "channel",
        "subtype": "noteOff",
        "noteNumber": 51,
        "velocity": 90
      },
      {
        "deltaTime": 0,
        "channel": 5,
        "type": "channel",
        "subtype": "noteOff",
        "noteNumber": 62,
        "velocity": 70
      },
      {
        "deltaTime": 250,
        "channel": 5,
        "type": "channel",
        "noteNumber": 35,
        "velocity": 70,
        "subtype": "noteOn"
      },
      {
        "deltaTime": 0,
        "channel": 5,
        "type": "channel",
        "noteNumber": 51,
        "velocity": 70,
        "subtype": "noteOn"
      },
      {
        "deltaTime": 0,
        "channel": 5,
        "type": "channel",
        "noteNumber": 69,
        "velocity": 50,
        "subtype": "noteOn"
      },
      {
        "deltaTime": 250,
        "channel": 5,
        "type": "channel",
        "subtype": "noteOff",
        "noteNumber": 69,
        "velocity": 50
      },
      {
        "deltaTime": 0,
        "channel": 5,
        "type": "channel",
        "subtype": "noteOff",
        "noteNumber": 51,
        "velocity": 70
      },
      {
        "deltaTime": 0,
        "channel": 5,
        "type": "channel",
        "subtype": "noteOff",
        "noteNumber": 35,
        "velocity": 70
      },
      {
        "deltaTime": 250,
        "channel": 5,
        "type": "channel",
        "noteNumber": 63,
        "velocity": 40,
        "subtype": "noteOn"
      },
      {
        "deltaTime": 0,
        "channel": 5,
        "type": "channel",
        "noteNumber": 70,
        "velocity": 80,
        "subtype": "noteOn"
      },
      {
        "deltaTime": 0,
        "channel": 5,
        "type": "channel",
        "noteNumber": 35,
        "velocity": 100,
        "subtype": "noteOn"
      },
      {
        "deltaTime": 0,
        "channel": 5,
        "type": "channel",
        "noteNumber": 51,
        "velocity": 90,
        "subtype": "noteOn"
      },
      {
        "deltaTime": 0,
        "channel": 5,
        "type": "channel",
        "noteNumber": 56,
        "velocity": 40,
        "subtype": "noteOn"
      },
      {
        "deltaTime": 16,
        "channel": 5,
        "type": "channel",
        "noteNumber": 37,
        "velocity": 108,
        "subtype": "noteOn"
      },
      {
        "deltaTime": 172,
        "channel": 5,
        "type": "channel",
        "subtype": "noteOff",
        "noteNumber": 37,
        "velocity": 108
      },
      {
        "deltaTime": 62,
        "channel": 5,
        "type": "channel",
        "subtype": "noteOff",
        "noteNumber": 56,
        "velocity": 40
      },
      {
        "deltaTime": 0,
        "channel": 5,
        "type": "channel",
        "subtype": "noteOff",
        "noteNumber": 51,
        "velocity": 90
      },
      {
        "deltaTime": 0,
        "channel": 5,
        "type": "channel",
        "subtype": "noteOff",
        "noteNumber": 35,
        "velocity": 100
      },
      {
        "deltaTime": 0,
        "channel": 5,
        "type": "channel",
        "subtype": "noteOff",
        "noteNumber": 70,
        "velocity": 80
      },
      {
        "deltaTime": 0,
        "channel": 5,
        "type": "channel",
        "subtype": "noteOff",
        "noteNumber": 63,
        "velocity": 40
      },
      {
        "deltaTime": 250,
        "channel": 5,
        "type": "channel",
        "noteNumber": 63,
        "velocity": 40,
        "subtype": "noteOn"
      },
      {
        "deltaTime": 0,
        "channel": 5,
        "type": "channel",
        "noteNumber": 41,
        "velocity": 50,
        "subtype": "noteOn"
      },
      {
        "deltaTime": 0,
        "channel": 5,
        "type": "channel",
        "noteNumber": 51,
        "velocity": 70,
        "subtype": "noteOn"
      },
      {
        "deltaTime": 0,
        "channel": 5,
        "type": "channel",
        "noteNumber": 69,
        "velocity": 50,
        "subtype": "noteOn"
      },
      {
        "deltaTime": 250,
        "channel": 5,
        "type": "channel",
        "subtype": "noteOff",
        "noteNumber": 69,
        "velocity": 50
      },
      {
        "deltaTime": 0,
        "channel": 5,
        "type": "channel",
        "subtype": "noteOff",
        "noteNumber": 51,
        "velocity": 70
      },
      {
        "deltaTime": 0,
        "channel": 5,
        "type": "channel",
        "subtype": "noteOff",
        "noteNumber": 41,
        "velocity": 50
      },
      {
        "deltaTime": 0,
        "channel": 5,
        "type": "channel",
        "subtype": "noteOff",
        "noteNumber": 63,
        "velocity": 40
      },
      {
        "deltaTime": 250,
        "channel": 5,
        "type": "channel",
        "noteNumber": 51,
        "velocity": 90,
        "subtype": "noteOn"
      },
      {
        "deltaTime": 0,
        "channel": 5,
        "type": "channel",
        "noteNumber": 70,
        "velocity": 80,
        "subtype": "noteOn"
      },
      {
        "deltaTime": 48,
        "channel": 5,
        "type": "channel",
        "noteNumber": 37,
        "velocity": 108,
        "subtype": "noteOn"
      },
      {
        "deltaTime": 170,
        "channel": 5,
        "type": "channel",
        "subtype": "noteOff",
        "noteNumber": 37,
        "velocity": 108
      },
      {
        "deltaTime": 32,
        "channel": 5,
        "type": "channel",
        "subtype": "noteOff",
        "noteNumber": 70,
        "velocity": 80
      },
      {
        "deltaTime": 0,
        "channel": 5,
        "type": "channel",
        "subtype": "noteOff",
        "noteNumber": 51,
        "velocity": 90
      },
      {
        "deltaTime": 250,
        "channel": 5,
        "type": "channel",
        "noteNumber": 51,
        "velocity": 70,
        "subtype": "noteOn"
      },
      {
        "deltaTime": 0,
        "channel": 5,
        "type": "channel",
        "noteNumber": 56,
        "velocity": 40,
        "subtype": "noteOn"
      },
      {
        "deltaTime": 0,
        "channel": 5,
        "type": "channel",
        "noteNumber": 35,
        "velocity": 70,
        "subtype": "noteOn"
      },
      {
        "deltaTime": 0,
        "channel": 5,
        "type": "channel",
        "noteNumber": 69,
        "velocity": 50,
        "subtype": "noteOn"
      },
      {
        "deltaTime": 250,
        "channel": 5,
        "type": "channel",
        "subtype": "noteOff",
        "noteNumber": 69,
        "velocity": 50
      },
      {
        "deltaTime": 0,
        "channel": 5,
        "type": "channel",
        "subtype": "noteOff",
        "noteNumber": 35,
        "velocity": 70
      },
      {
        "deltaTime": 0,
        "channel": 5,
        "type": "channel",
        "subtype": "noteOff",
        "noteNumber": 56,
        "velocity": 40
      },
      {
        "deltaTime": 0,
        "channel": 5,
        "type": "channel",
        "subtype": "noteOff",
        "noteNumber": 51,
        "velocity": 70
      },
      {
        "deltaTime": 250,
        "channel": 5,
        "type": "channel",
        "noteNumber": 35,
        "velocity": 100,
        "subtype": "noteOn"
      },
      {
        "deltaTime": 0,
        "channel": 5,
        "type": "channel",
        "noteNumber": 51,
        "velocity": 90,
        "subtype": "noteOn"
      },
      {
        "deltaTime": 0,
        "channel": 5,
        "type": "channel",
        "noteNumber": 70,
        "velocity": 80,
        "subtype": "noteOn"
      },
      {
        "deltaTime": 250,
        "channel": 5,
        "type": "channel",
        "subtype": "noteOff",
        "noteNumber": 70,
        "velocity": 80
      },
      {
        "deltaTime": 0,
        "channel": 5,
        "type": "channel",
        "subtype": "noteOff",
        "noteNumber": 51,
        "velocity": 90
      },
      {
        "deltaTime": 0,
        "channel": 5,
        "type": "channel",
        "subtype": "noteOff",
        "noteNumber": 35,
        "velocity": 100
      },
      {
        "deltaTime": 250,
        "channel": 5,
        "type": "channel",
        "noteNumber": 51,
        "velocity": 70,
        "subtype": "noteOn"
      },
      {
        "deltaTime": 0,
        "channel": 5,
        "type": "channel",
        "noteNumber": 69,
        "velocity": 50,
        "subtype": "noteOn"
      },
      {
        "deltaTime": 58,
        "channel": 5,
        "type": "channel",
        "noteNumber": 37,
        "velocity": 106,
        "subtype": "noteOn"
      },
      {
        "deltaTime": 166,
        "channel": 5,
        "type": "channel",
        "subtype": "noteOff",
        "noteNumber": 37,
        "velocity": 106
      },
      {
        "deltaTime": 26,
        "channel": 5,
        "type": "channel",
        "subtype": "noteOff",
        "noteNumber": 69,
        "velocity": 50
      },
      {
        "deltaTime": 0,
        "channel": 5,
        "type": "channel",
        "subtype": "noteOff",
        "noteNumber": 51,
        "velocity": 70
      },
      {
        "deltaTime": 250,
        "channel": 5,
        "type": "channel",
        "noteNumber": 56,
        "velocity": 40,
        "subtype": "noteOn"
      },
      {
        "deltaTime": 0,
        "channel": 5,
        "type": "channel",
        "noteNumber": 51,
        "velocity": 90,
        "subtype": "noteOn"
      },
      {
        "deltaTime": 0,
        "channel": 5,
        "type": "channel",
        "noteNumber": 70,
        "velocity": 80,
        "subtype": "noteOn"
      },
      {
        "deltaTime": 250,
        "channel": 5,
        "type": "channel",
        "subtype": "noteOff",
        "noteNumber": 70,
        "velocity": 80
      },
      {
        "deltaTime": 0,
        "channel": 5,
        "type": "channel",
        "subtype": "noteOff",
        "noteNumber": 51,
        "velocity": 90
      },
      {
        "deltaTime": 0,
        "channel": 5,
        "type": "channel",
        "subtype": "noteOff",
        "noteNumber": 56,
        "velocity": 40
      },
      {
        "deltaTime": 250,
        "channel": 5,
        "type": "channel",
        "noteNumber": 35,
        "velocity": 70,
        "subtype": "noteOn"
      },
      {
        "deltaTime": 0,
        "channel": 5,
        "type": "channel",
        "noteNumber": 51,
        "velocity": 70,
        "subtype": "noteOn"
      },
      {
        "deltaTime": 0,
        "channel": 5,
        "type": "channel",
        "noteNumber": 69,
        "velocity": 50,
        "subtype": "noteOn"
      },
      {
        "deltaTime": 250,
        "channel": 5,
        "type": "channel",
        "subtype": "noteOff",
        "noteNumber": 69,
        "velocity": 50
      },
      {
        "deltaTime": 0,
        "channel": 5,
        "type": "channel",
        "subtype": "noteOff",
        "noteNumber": 51,
        "velocity": 70
      },
      {
        "deltaTime": 0,
        "channel": 5,
        "type": "channel",
        "subtype": "noteOff",
        "noteNumber": 35,
        "velocity": 70
      },
      {
        "deltaTime": 250,
        "channel": 5,
        "type": "channel",
        "noteNumber": 70,
        "velocity": 80,
        "subtype": "noteOn"
      },
      {
        "deltaTime": 0,
        "channel": 5,
        "type": "channel",
        "noteNumber": 56,
        "velocity": 40,
        "subtype": "noteOn"
      },
      {
        "deltaTime": 0,
        "channel": 5,
        "type": "channel",
        "noteNumber": 35,
        "velocity": 100,
        "subtype": "noteOn"
      },
      {
        "deltaTime": 0,
        "channel": 5,
        "type": "channel",
        "noteNumber": 51,
        "velocity": 90,
        "subtype": "noteOn"
      },
      {
        "deltaTime": 16,
        "channel": 5,
        "type": "channel",
        "noteNumber": 37,
        "velocity": 108,
        "subtype": "noteOn"
      },
      {
        "deltaTime": 172,
        "channel": 5,
        "type": "channel",
        "subtype": "noteOff",
        "noteNumber": 37,
        "velocity": 108
      },
      {
        "deltaTime": 62,
        "channel": 5,
        "type": "channel",
        "subtype": "noteOff",
        "noteNumber": 51,
        "velocity": 90
      },
      {
        "deltaTime": 0,
        "channel": 5,
        "type": "channel",
        "subtype": "noteOff",
        "noteNumber": 35,
        "velocity": 100
      },
      {
        "deltaTime": 0,
        "channel": 5,
        "type": "channel",
        "subtype": "noteOff",
        "noteNumber": 56,
        "velocity": 40
      },
      {
        "deltaTime": 0,
        "channel": 5,
        "type": "channel",
        "subtype": "noteOff",
        "noteNumber": 70,
        "velocity": 80
      },
      {
        "deltaTime": 250,
        "channel": 5,
        "type": "channel",
        "noteNumber": 51,
        "velocity": 70,
        "subtype": "noteOn"
      },
      {
        "deltaTime": 0,
        "channel": 5,
        "type": "channel",
        "noteNumber": 63,
        "velocity": 40,
        "subtype": "noteOn"
      },
      {
        "deltaTime": 0,
        "channel": 5,
        "type": "channel",
        "noteNumber": 69,
        "velocity": 50,
        "subtype": "noteOn"
      },
      {
        "deltaTime": 250,
        "channel": 5,
        "type": "channel",
        "subtype": "noteOff",
        "noteNumber": 69,
        "velocity": 50
      },
      {
        "deltaTime": 0,
        "channel": 5,
        "type": "channel",
        "subtype": "noteOff",
        "noteNumber": 63,
        "velocity": 40
      },
      {
        "deltaTime": 0,
        "channel": 5,
        "type": "channel",
        "subtype": "noteOff",
        "noteNumber": 51,
        "velocity": 70
      },
      {
        "deltaTime": 250,
        "channel": 5,
        "type": "channel",
        "noteNumber": 70,
        "velocity": 80,
        "subtype": "noteOn"
      },
      {
        "deltaTime": 0,
        "channel": 5,
        "type": "channel",
        "noteNumber": 63,
        "velocity": 60,
        "subtype": "noteOn"
      },
      {
        "deltaTime": 0,
        "channel": 5,
        "type": "channel",
        "noteNumber": 51,
        "velocity": 90,
        "subtype": "noteOn"
      },
      {
        "deltaTime": 48,
        "channel": 5,
        "type": "channel",
        "noteNumber": 37,
        "velocity": 108,
        "subtype": "noteOn"
      },
      {
        "deltaTime": 170,
        "channel": 5,
        "type": "channel",
        "subtype": "noteOff",
        "noteNumber": 37,
        "velocity": 108
      },
      {
        "deltaTime": 32,
        "channel": 5,
        "type": "channel",
        "subtype": "noteOff",
        "noteNumber": 51,
        "velocity": 90
      },
      {
        "deltaTime": 0,
        "channel": 5,
        "type": "channel",
        "subtype": "noteOff",
        "noteNumber": 63,
        "velocity": 60
      },
      {
        "deltaTime": 0,
        "channel": 5,
        "type": "channel",
        "subtype": "noteOff",
        "noteNumber": 70,
        "velocity": 80
      },
      {
        "deltaTime": 250,
        "channel": 5,
        "type": "channel",
        "noteNumber": 62,
        "velocity": 70,
        "subtype": "noteOn"
      },
      {
        "deltaTime": 0,
        "channel": 5,
        "type": "channel",
        "noteNumber": 56,
        "velocity": 40,
        "subtype": "noteOn"
      },
      {
        "deltaTime": 0,
        "channel": 5,
        "type": "channel",
        "noteNumber": 35,
        "velocity": 70,
        "subtype": "noteOn"
      },
      {
        "deltaTime": 0,
        "channel": 5,
        "type": "channel",
        "noteNumber": 51,
        "velocity": 70,
        "subtype": "noteOn"
      },
      {
        "deltaTime": 0,
        "channel": 5,
        "type": "channel",
        "noteNumber": 69,
        "velocity": 50,
        "subtype": "noteOn"
      },
      {
        "deltaTime": 250,
        "channel": 5,
        "type": "channel",
        "subtype": "noteOff",
        "noteNumber": 69,
        "velocity": 50
      },
      {
        "deltaTime": 0,
        "channel": 5,
        "type": "channel",
        "subtype": "noteOff",
        "noteNumber": 51,
        "velocity": 70
      },
      {
        "deltaTime": 0,
        "channel": 5,
        "type": "channel",
        "subtype": "noteOff",
        "noteNumber": 35,
        "velocity": 70
      },
      {
        "deltaTime": 0,
        "channel": 5,
        "type": "channel",
        "subtype": "noteOff",
        "noteNumber": 56,
        "velocity": 40
      },
      {
        "deltaTime": 0,
        "channel": 5,
        "type": "channel",
        "subtype": "noteOff",
        "noteNumber": 62,
        "velocity": 70
      },
      {
        "deltaTime": 250,
        "channel": 5,
        "type": "channel",
        "noteNumber": 35,
        "velocity": 100,
        "subtype": "noteOn"
      },
      {
        "deltaTime": 0,
        "channel": 5,
        "type": "channel",
        "noteNumber": 51,
        "velocity": 90,
        "subtype": "noteOn"
      },
      {
        "deltaTime": 0,
        "channel": 5,
        "type": "channel",
        "noteNumber": 70,
        "velocity": 80,
        "subtype": "noteOn"
      },
      {
        "deltaTime": 250,
        "channel": 5,
        "type": "channel",
        "subtype": "noteOff",
        "noteNumber": 70,
        "velocity": 80
      },
      {
        "deltaTime": 0,
        "channel": 5,
        "type": "channel",
        "subtype": "noteOff",
        "noteNumber": 51,
        "velocity": 90
      },
      {
        "deltaTime": 0,
        "channel": 5,
        "type": "channel",
        "subtype": "noteOff",
        "noteNumber": 35,
        "velocity": 100
      },
      {
        "deltaTime": 250,
        "channel": 5,
        "type": "channel",
        "noteNumber": 51,
        "velocity": 70,
        "subtype": "noteOn"
      },
      {
        "deltaTime": 0,
        "channel": 5,
        "type": "channel",
        "noteNumber": 69,
        "velocity": 50,
        "subtype": "noteOn"
      },
      {
        "deltaTime": 58,
        "channel": 5,
        "type": "channel",
        "noteNumber": 37,
        "velocity": 106,
        "subtype": "noteOn"
      },
      {
        "deltaTime": 166,
        "channel": 5,
        "type": "channel",
        "subtype": "noteOff",
        "noteNumber": 37,
        "velocity": 106
      },
      {
        "deltaTime": 26,
        "channel": 5,
        "type": "channel",
        "subtype": "noteOff",
        "noteNumber": 69,
        "velocity": 50
      },
      {
        "deltaTime": 0,
        "channel": 5,
        "type": "channel",
        "subtype": "noteOff",
        "noteNumber": 51,
        "velocity": 70
      },
      {
        "deltaTime": 250,
        "channel": 5,
        "type": "channel",
        "noteNumber": 51,
        "velocity": 90,
        "subtype": "noteOn"
      },
      {
        "deltaTime": 0,
        "channel": 5,
        "type": "channel",
        "noteNumber": 62,
        "velocity": 70,
        "subtype": "noteOn"
      },
      {
        "deltaTime": 0,
        "channel": 5,
        "type": "channel",
        "noteNumber": 70,
        "velocity": 80,
        "subtype": "noteOn"
      },
      {
        "deltaTime": 250,
        "channel": 5,
        "type": "channel",
        "subtype": "noteOff",
        "noteNumber": 70,
        "velocity": 80
      },
      {
        "deltaTime": 0,
        "channel": 5,
        "type": "channel",
        "subtype": "noteOff",
        "noteNumber": 62,
        "velocity": 70
      },
      {
        "deltaTime": 0,
        "channel": 5,
        "type": "channel",
        "subtype": "noteOff",
        "noteNumber": 51,
        "velocity": 90
      },
      {
        "deltaTime": 250,
        "channel": 5,
        "type": "channel",
        "noteNumber": 45,
        "velocity": 70,
        "subtype": "noteOn"
      },
      {
        "deltaTime": 0,
        "channel": 5,
        "type": "channel",
        "noteNumber": 51,
        "velocity": 70,
        "subtype": "noteOn"
      },
      {
        "deltaTime": 0,
        "channel": 5,
        "type": "channel",
        "noteNumber": 35,
        "velocity": 70,
        "subtype": "noteOn"
      },
      {
        "deltaTime": 0,
        "channel": 5,
        "type": "channel",
        "noteNumber": 69,
        "velocity": 50,
        "subtype": "noteOn"
      },
      {
        "deltaTime": 250,
        "channel": 5,
        "type": "channel",
        "subtype": "noteOff",
        "noteNumber": 69,
        "velocity": 50
      },
      {
        "deltaTime": 0,
        "channel": 5,
        "type": "channel",
        "subtype": "noteOff",
        "noteNumber": 35,
        "velocity": 70
      },
      {
        "deltaTime": 0,
        "channel": 5,
        "type": "channel",
        "subtype": "noteOff",
        "noteNumber": 51,
        "velocity": 70
      },
      {
        "deltaTime": 0,
        "channel": 5,
        "type": "channel",
        "subtype": "noteOff",
        "noteNumber": 45,
        "velocity": 70
      },
      {
        "deltaTime": 250,
        "channel": 5,
        "type": "channel",
        "noteNumber": 63,
        "velocity": 40,
        "subtype": "noteOn"
      },
      {
        "deltaTime": 0,
        "channel": 5,
        "type": "channel",
        "noteNumber": 70,
        "velocity": 80,
        "subtype": "noteOn"
      },
      {
        "deltaTime": 0,
        "channel": 5,
        "type": "channel",
        "noteNumber": 35,
        "velocity": 100,
        "subtype": "noteOn"
      },
      {
        "deltaTime": 0,
        "channel": 5,
        "type": "channel",
        "noteNumber": 51,
        "velocity": 90,
        "subtype": "noteOn"
      },
      {
        "deltaTime": 0,
        "channel": 5,
        "type": "channel",
        "noteNumber": 56,
        "velocity": 40,
        "subtype": "noteOn"
      },
      {
        "deltaTime": 16,
        "channel": 5,
        "type": "channel",
        "noteNumber": 37,
        "velocity": 108,
        "subtype": "noteOn"
      },
      {
        "deltaTime": 172,
        "channel": 5,
        "type": "channel",
        "subtype": "noteOff",
        "noteNumber": 37,
        "velocity": 108
      },
      {
        "deltaTime": 62,
        "channel": 5,
        "type": "channel",
        "subtype": "noteOff",
        "noteNumber": 56,
        "velocity": 40
      },
      {
        "deltaTime": 0,
        "channel": 5,
        "type": "channel",
        "subtype": "noteOff",
        "noteNumber": 51,
        "velocity": 90
      },
      {
        "deltaTime": 0,
        "channel": 5,
        "type": "channel",
        "subtype": "noteOff",
        "noteNumber": 35,
        "velocity": 100
      },
      {
        "deltaTime": 0,
        "channel": 5,
        "type": "channel",
        "subtype": "noteOff",
        "noteNumber": 70,
        "velocity": 80
      },
      {
        "deltaTime": 0,
        "channel": 5,
        "type": "channel",
        "subtype": "noteOff",
        "noteNumber": 63,
        "velocity": 40
      },
      {
        "deltaTime": 250,
        "channel": 5,
        "type": "channel",
        "noteNumber": 51,
        "velocity": 70,
        "subtype": "noteOn"
      },
      {
        "deltaTime": 0,
        "channel": 5,
        "type": "channel",
        "noteNumber": 63,
        "velocity": 40,
        "subtype": "noteOn"
      },
      {
        "deltaTime": 0,
        "channel": 5,
        "type": "channel",
        "noteNumber": 69,
        "velocity": 50,
        "subtype": "noteOn"
      },
      {
        "deltaTime": 250,
        "channel": 5,
        "type": "channel",
        "subtype": "noteOff",
        "noteNumber": 69,
        "velocity": 50
      },
      {
        "deltaTime": 0,
        "channel": 5,
        "type": "channel",
        "subtype": "noteOff",
        "noteNumber": 63,
        "velocity": 40
      },
      {
        "deltaTime": 0,
        "channel": 5,
        "type": "channel",
        "subtype": "noteOff",
        "noteNumber": 51,
        "velocity": 70
      },
      {
        "deltaTime": 250,
        "channel": 5,
        "type": "channel",
        "noteNumber": 51,
        "velocity": 90,
        "subtype": "noteOn"
      },
      {
        "deltaTime": 0,
        "channel": 5,
        "type": "channel",
        "noteNumber": 70,
        "velocity": 80,
        "subtype": "noteOn"
      },
      {
        "deltaTime": 48,
        "channel": 5,
        "type": "channel",
        "noteNumber": 37,
        "velocity": 108,
        "subtype": "noteOn"
      },
      {
        "deltaTime": 170,
        "channel": 5,
        "type": "channel",
        "subtype": "noteOff",
        "noteNumber": 37,
        "velocity": 108
      },
      {
        "deltaTime": 32,
        "channel": 5,
        "type": "channel",
        "subtype": "noteOff",
        "noteNumber": 70,
        "velocity": 80
      },
      {
        "deltaTime": 0,
        "channel": 5,
        "type": "channel",
        "subtype": "noteOff",
        "noteNumber": 51,
        "velocity": 90
      },
      {
        "deltaTime": 250,
        "channel": 5,
        "type": "channel",
        "noteNumber": 51,
        "velocity": 70,
        "subtype": "noteOn"
      },
      {
        "deltaTime": 0,
        "channel": 5,
        "type": "channel",
        "noteNumber": 56,
        "velocity": 40,
        "subtype": "noteOn"
      },
      {
        "deltaTime": 0,
        "channel": 5,
        "type": "channel",
        "noteNumber": 35,
        "velocity": 70,
        "subtype": "noteOn"
      },
      {
        "deltaTime": 0,
        "channel": 5,
        "type": "channel",
        "noteNumber": 69,
        "velocity": 50,
        "subtype": "noteOn"
      },
      {
        "deltaTime": 250,
        "channel": 5,
        "type": "channel",
        "subtype": "noteOff",
        "noteNumber": 69,
        "velocity": 50
      },
      {
        "deltaTime": 0,
        "channel": 5,
        "type": "channel",
        "subtype": "noteOff",
        "noteNumber": 35,
        "velocity": 70
      },
      {
        "deltaTime": 0,
        "channel": 5,
        "type": "channel",
        "subtype": "noteOff",
        "noteNumber": 56,
        "velocity": 40
      },
      {
        "deltaTime": 0,
        "channel": 5,
        "type": "channel",
        "subtype": "noteOff",
        "noteNumber": 51,
        "velocity": 70
      },
      {
        "deltaTime": 250,
        "channel": 5,
        "type": "channel",
        "noteNumber": 35,
        "velocity": 100,
        "subtype": "noteOn"
      },
      {
        "deltaTime": 0,
        "channel": 5,
        "type": "channel",
        "noteNumber": 51,
        "velocity": 90,
        "subtype": "noteOn"
      },
      {
        "deltaTime": 0,
        "channel": 5,
        "type": "channel",
        "noteNumber": 70,
        "velocity": 80,
        "subtype": "noteOn"
      },
      {
        "deltaTime": 250,
        "channel": 5,
        "type": "channel",
        "subtype": "noteOff",
        "noteNumber": 70,
        "velocity": 80
      },
      {
        "deltaTime": 0,
        "channel": 5,
        "type": "channel",
        "subtype": "noteOff",
        "noteNumber": 51,
        "velocity": 90
      },
      {
        "deltaTime": 0,
        "channel": 5,
        "type": "channel",
        "subtype": "noteOff",
        "noteNumber": 35,
        "velocity": 100
      },
      {
        "deltaTime": 250,
        "channel": 5,
        "type": "channel",
        "noteNumber": 51,
        "velocity": 70,
        "subtype": "noteOn"
      },
      {
        "deltaTime": 0,
        "channel": 5,
        "type": "channel",
        "noteNumber": 69,
        "velocity": 50,
        "subtype": "noteOn"
      },
      {
        "deltaTime": 58,
        "channel": 5,
        "type": "channel",
        "noteNumber": 37,
        "velocity": 106,
        "subtype": "noteOn"
      },
      {
        "deltaTime": 166,
        "channel": 5,
        "type": "channel",
        "subtype": "noteOff",
        "noteNumber": 37,
        "velocity": 106
      },
      {
        "deltaTime": 26,
        "channel": 5,
        "type": "channel",
        "subtype": "noteOff",
        "noteNumber": 69,
        "velocity": 50
      },
      {
        "deltaTime": 0,
        "channel": 5,
        "type": "channel",
        "subtype": "noteOff",
        "noteNumber": 51,
        "velocity": 70
      },
      {
        "deltaTime": 250,
        "channel": 5,
        "type": "channel",
        "noteNumber": 45,
        "velocity": 70,
        "subtype": "noteOn"
      },
      {
        "deltaTime": 0,
        "channel": 5,
        "type": "channel",
        "noteNumber": 51,
        "velocity": 90,
        "subtype": "noteOn"
      },
      {
        "deltaTime": 0,
        "channel": 5,
        "type": "channel",
        "noteNumber": 56,
        "velocity": 40,
        "subtype": "noteOn"
      },
      {
        "deltaTime": 0,
        "channel": 5,
        "type": "channel",
        "noteNumber": 70,
        "velocity": 80,
        "subtype": "noteOn"
      },
      {
        "deltaTime": 250,
        "channel": 5,
        "type": "channel",
        "subtype": "noteOff",
        "noteNumber": 70,
        "velocity": 80
      },
      {
        "deltaTime": 0,
        "channel": 5,
        "type": "channel",
        "subtype": "noteOff",
        "noteNumber": 56,
        "velocity": 40
      },
      {
        "deltaTime": 0,
        "channel": 5,
        "type": "channel",
        "subtype": "noteOff",
        "noteNumber": 51,
        "velocity": 90
      },
      {
        "deltaTime": 0,
        "channel": 5,
        "type": "channel",
        "subtype": "noteOff",
        "noteNumber": 45,
        "velocity": 70
      },
      {
        "deltaTime": 250,
        "channel": 5,
        "type": "channel",
        "noteNumber": 35,
        "velocity": 70,
        "subtype": "noteOn"
      },
      {
        "deltaTime": 0,
        "channel": 5,
        "type": "channel",
        "noteNumber": 51,
        "velocity": 70,
        "subtype": "noteOn"
      },
      {
        "deltaTime": 0,
        "channel": 5,
        "type": "channel",
        "noteNumber": 69,
        "velocity": 50,
        "subtype": "noteOn"
      },
      {
        "deltaTime": 250,
        "channel": 5,
        "type": "channel",
        "subtype": "noteOff",
        "noteNumber": 69,
        "velocity": 50
      },
      {
        "deltaTime": 0,
        "channel": 5,
        "type": "channel",
        "subtype": "noteOff",
        "noteNumber": 51,
        "velocity": 70
      },
      {
        "deltaTime": 0,
        "channel": 5,
        "type": "channel",
        "subtype": "noteOff",
        "noteNumber": 35,
        "velocity": 70
      },
      {
        "deltaTime": 250,
        "channel": 5,
        "type": "channel",
        "noteNumber": 70,
        "velocity": 80,
        "subtype": "noteOn"
      },
      {
        "deltaTime": 0,
        "channel": 5,
        "type": "channel",
        "noteNumber": 51,
        "velocity": 90,
        "subtype": "noteOn"
      },
      {
        "deltaTime": 0,
        "channel": 5,
        "type": "channel",
        "noteNumber": 35,
        "velocity": 100,
        "subtype": "noteOn"
      },
      {
        "deltaTime": 16,
        "channel": 5,
        "type": "channel",
        "noteNumber": 37,
        "velocity": 108,
        "subtype": "noteOn"
      },
      {
        "deltaTime": 172,
        "channel": 5,
        "type": "channel",
        "subtype": "noteOff",
        "noteNumber": 37,
        "velocity": 108
      },
      {
        "deltaTime": 62,
        "channel": 5,
        "type": "channel",
        "subtype": "noteOff",
        "noteNumber": 35,
        "velocity": 100
      },
      {
        "deltaTime": 0,
        "channel": 5,
        "type": "channel",
        "subtype": "noteOff",
        "noteNumber": 51,
        "velocity": 90
      },
      {
        "deltaTime": 0,
        "channel": 5,
        "type": "channel",
        "subtype": "noteOff",
        "noteNumber": 70,
        "velocity": 80
      },
      {
        "deltaTime": 250,
        "channel": 5,
        "type": "channel",
        "noteNumber": 51,
        "velocity": 70,
        "subtype": "noteOn"
      },
      {
        "deltaTime": 0,
        "channel": 5,
        "type": "channel",
        "noteNumber": 63,
        "velocity": 40,
        "subtype": "noteOn"
      },
      {
        "deltaTime": 0,
        "channel": 5,
        "type": "channel",
        "noteNumber": 69,
        "velocity": 50,
        "subtype": "noteOn"
      },
      {
        "deltaTime": 250,
        "channel": 5,
        "type": "channel",
        "subtype": "noteOff",
        "noteNumber": 69,
        "velocity": 50
      },
      {
        "deltaTime": 0,
        "channel": 5,
        "type": "channel",
        "subtype": "noteOff",
        "noteNumber": 63,
        "velocity": 40
      },
      {
        "deltaTime": 0,
        "channel": 5,
        "type": "channel",
        "subtype": "noteOff",
        "noteNumber": 51,
        "velocity": 70
      },
      {
        "deltaTime": 250,
        "channel": 5,
        "type": "channel",
        "noteNumber": 70,
        "velocity": 80,
        "subtype": "noteOn"
      },
      {
        "deltaTime": 0,
        "channel": 5,
        "type": "channel",
        "noteNumber": 63,
        "velocity": 60,
        "subtype": "noteOn"
      },
      {
        "deltaTime": 0,
        "channel": 5,
        "type": "channel",
        "noteNumber": 51,
        "velocity": 90,
        "subtype": "noteOn"
      },
      {
        "deltaTime": 48,
        "channel": 5,
        "type": "channel",
        "noteNumber": 37,
        "velocity": 108,
        "subtype": "noteOn"
      },
      {
        "deltaTime": 170,
        "channel": 5,
        "type": "channel",
        "subtype": "noteOff",
        "noteNumber": 37,
        "velocity": 108
      },
      {
        "deltaTime": 32,
        "channel": 5,
        "type": "channel",
        "subtype": "noteOff",
        "noteNumber": 51,
        "velocity": 90
      },
      {
        "deltaTime": 0,
        "channel": 5,
        "type": "channel",
        "subtype": "noteOff",
        "noteNumber": 63,
        "velocity": 60
      },
      {
        "deltaTime": 0,
        "channel": 5,
        "type": "channel",
        "subtype": "noteOff",
        "noteNumber": 70,
        "velocity": 80
      },
      {
        "deltaTime": 250,
        "channel": 5,
        "type": "channel",
        "noteNumber": 62,
        "velocity": 70,
        "subtype": "noteOn"
      },
      {
        "deltaTime": 0,
        "channel": 5,
        "type": "channel",
        "noteNumber": 56,
        "velocity": 40,
        "subtype": "noteOn"
      },
      {
        "deltaTime": 0,
        "channel": 5,
        "type": "channel",
        "noteNumber": 35,
        "velocity": 70,
        "subtype": "noteOn"
      },
      {
        "deltaTime": 0,
        "channel": 5,
        "type": "channel",
        "noteNumber": 51,
        "velocity": 70,
        "subtype": "noteOn"
      },
      {
        "deltaTime": 0,
        "channel": 5,
        "type": "channel",
        "noteNumber": 69,
        "velocity": 50,
        "subtype": "noteOn"
      },
      {
        "deltaTime": 250,
        "channel": 5,
        "type": "channel",
        "subtype": "noteOff",
        "noteNumber": 69,
        "velocity": 50
      },
      {
        "deltaTime": 0,
        "channel": 5,
        "type": "channel",
        "subtype": "noteOff",
        "noteNumber": 51,
        "velocity": 70
      },
      {
        "deltaTime": 0,
        "channel": 5,
        "type": "channel",
        "subtype": "noteOff",
        "noteNumber": 35,
        "velocity": 70
      },
      {
        "deltaTime": 0,
        "channel": 5,
        "type": "channel",
        "subtype": "noteOff",
        "noteNumber": 56,
        "velocity": 40
      },
      {
        "deltaTime": 0,
        "channel": 5,
        "type": "channel",
        "subtype": "noteOff",
        "noteNumber": 62,
        "velocity": 70
      },
      {
        "deltaTime": 250,
        "channel": 5,
        "type": "channel",
        "noteNumber": 35,
        "velocity": 100,
        "subtype": "noteOn"
      },
      {
        "deltaTime": 0,
        "channel": 5,
        "type": "channel",
        "noteNumber": 51,
        "velocity": 90,
        "subtype": "noteOn"
      },
      {
        "deltaTime": 0,
        "channel": 5,
        "type": "channel",
        "noteNumber": 70,
        "velocity": 80,
        "subtype": "noteOn"
      },
      {
        "deltaTime": 250,
        "channel": 5,
        "type": "channel",
        "subtype": "noteOff",
        "noteNumber": 70,
        "velocity": 80
      },
      {
        "deltaTime": 0,
        "channel": 5,
        "type": "channel",
        "subtype": "noteOff",
        "noteNumber": 51,
        "velocity": 90
      },
      {
        "deltaTime": 0,
        "channel": 5,
        "type": "channel",
        "subtype": "noteOff",
        "noteNumber": 35,
        "velocity": 100
      },
      {
        "deltaTime": 250,
        "channel": 5,
        "type": "channel",
        "noteNumber": 51,
        "velocity": 70,
        "subtype": "noteOn"
      },
      {
        "deltaTime": 0,
        "channel": 5,
        "type": "channel",
        "noteNumber": 69,
        "velocity": 50,
        "subtype": "noteOn"
      },
      {
        "deltaTime": 58,
        "channel": 5,
        "type": "channel",
        "noteNumber": 37,
        "velocity": 106,
        "subtype": "noteOn"
      },
      {
        "deltaTime": 166,
        "channel": 5,
        "type": "channel",
        "subtype": "noteOff",
        "noteNumber": 37,
        "velocity": 106
      },
      {
        "deltaTime": 26,
        "channel": 5,
        "type": "channel",
        "subtype": "noteOff",
        "noteNumber": 69,
        "velocity": 50
      },
      {
        "deltaTime": 0,
        "channel": 5,
        "type": "channel",
        "subtype": "noteOff",
        "noteNumber": 51,
        "velocity": 70
      },
      {
        "deltaTime": 250,
        "channel": 5,
        "type": "channel",
        "noteNumber": 62,
        "velocity": 70,
        "subtype": "noteOn"
      },
      {
        "deltaTime": 0,
        "channel": 5,
        "type": "channel",
        "noteNumber": 51,
        "velocity": 90,
        "subtype": "noteOn"
      },
      {
        "deltaTime": 0,
        "channel": 5,
        "type": "channel",
        "noteNumber": 56,
        "velocity": 40,
        "subtype": "noteOn"
      },
      {
        "deltaTime": 0,
        "channel": 5,
        "type": "channel",
        "noteNumber": 70,
        "velocity": 80,
        "subtype": "noteOn"
      },
      {
        "deltaTime": 250,
        "channel": 5,
        "type": "channel",
        "subtype": "noteOff",
        "noteNumber": 70,
        "velocity": 80
      },
      {
        "deltaTime": 0,
        "channel": 5,
        "type": "channel",
        "subtype": "noteOff",
        "noteNumber": 56,
        "velocity": 40
      },
      {
        "deltaTime": 0,
        "channel": 5,
        "type": "channel",
        "subtype": "noteOff",
        "noteNumber": 51,
        "velocity": 90
      },
      {
        "deltaTime": 0,
        "channel": 5,
        "type": "channel",
        "subtype": "noteOff",
        "noteNumber": 62,
        "velocity": 70
      },
      {
        "deltaTime": 250,
        "channel": 5,
        "type": "channel",
        "noteNumber": 35,
        "velocity": 70,
        "subtype": "noteOn"
      },
      {
        "deltaTime": 0,
        "channel": 5,
        "type": "channel",
        "noteNumber": 51,
        "velocity": 70,
        "subtype": "noteOn"
      },
      {
        "deltaTime": 0,
        "channel": 5,
        "type": "channel",
        "noteNumber": 69,
        "velocity": 50,
        "subtype": "noteOn"
      },
      {
        "deltaTime": 250,
        "channel": 5,
        "type": "channel",
        "subtype": "noteOff",
        "noteNumber": 69,
        "velocity": 50
      },
      {
        "deltaTime": 0,
        "channel": 5,
        "type": "channel",
        "subtype": "noteOff",
        "noteNumber": 51,
        "velocity": 70
      },
      {
        "deltaTime": 0,
        "channel": 5,
        "type": "channel",
        "subtype": "noteOff",
        "noteNumber": 35,
        "velocity": 70
      },
      {
        "deltaTime": 250,
        "channel": 5,
        "type": "channel",
        "noteNumber": 63,
        "velocity": 40,
        "subtype": "noteOn"
      },
      {
        "deltaTime": 0,
        "channel": 5,
        "type": "channel",
        "noteNumber": 70,
        "velocity": 80,
        "subtype": "noteOn"
      },
      {
        "deltaTime": 0,
        "channel": 5,
        "type": "channel",
        "noteNumber": 35,
        "velocity": 100,
        "subtype": "noteOn"
      },
      {
        "deltaTime": 0,
        "channel": 5,
        "type": "channel",
        "noteNumber": 51,
        "velocity": 90,
        "subtype": "noteOn"
      },
      {
        "deltaTime": 0,
        "channel": 5,
        "type": "channel",
        "noteNumber": 56,
        "velocity": 40,
        "subtype": "noteOn"
      },
      {
        "deltaTime": 16,
        "channel": 5,
        "type": "channel",
        "noteNumber": 37,
        "velocity": 108,
        "subtype": "noteOn"
      },
      {
        "deltaTime": 172,
        "channel": 5,
        "type": "channel",
        "subtype": "noteOff",
        "noteNumber": 37,
        "velocity": 108
      },
      {
        "deltaTime": 62,
        "channel": 5,
        "type": "channel",
        "subtype": "noteOff",
        "noteNumber": 56,
        "velocity": 40
      },
      {
        "deltaTime": 0,
        "channel": 5,
        "type": "channel",
        "subtype": "noteOff",
        "noteNumber": 51,
        "velocity": 90
      },
      {
        "deltaTime": 0,
        "channel": 5,
        "type": "channel",
        "subtype": "noteOff",
        "noteNumber": 35,
        "velocity": 100
      },
      {
        "deltaTime": 0,
        "channel": 5,
        "type": "channel",
        "subtype": "noteOff",
        "noteNumber": 70,
        "velocity": 80
      },
      {
        "deltaTime": 0,
        "channel": 5,
        "type": "channel",
        "subtype": "noteOff",
        "noteNumber": 63,
        "velocity": 40
      },
      {
        "deltaTime": 250,
        "channel": 5,
        "type": "channel",
        "noteNumber": 51,
        "velocity": 70,
        "subtype": "noteOn"
      },
      {
        "deltaTime": 0,
        "channel": 5,
        "type": "channel",
        "noteNumber": 63,
        "velocity": 40,
        "subtype": "noteOn"
      },
      {
        "deltaTime": 0,
        "channel": 5,
        "type": "channel",
        "noteNumber": 69,
        "velocity": 50,
        "subtype": "noteOn"
      },
      {
        "deltaTime": 250,
        "channel": 5,
        "type": "channel",
        "subtype": "noteOff",
        "noteNumber": 69,
        "velocity": 50
      },
      {
        "deltaTime": 0,
        "channel": 5,
        "type": "channel",
        "subtype": "noteOff",
        "noteNumber": 63,
        "velocity": 40
      },
      {
        "deltaTime": 0,
        "channel": 5,
        "type": "channel",
        "subtype": "noteOff",
        "noteNumber": 51,
        "velocity": 70
      },
      {
        "deltaTime": 250,
        "channel": 5,
        "type": "channel",
        "noteNumber": 51,
        "velocity": 90,
        "subtype": "noteOn"
      },
      {
        "deltaTime": 0,
        "channel": 5,
        "type": "channel",
        "noteNumber": 70,
        "velocity": 80,
        "subtype": "noteOn"
      },
      {
        "deltaTime": 48,
        "channel": 5,
        "type": "channel",
        "noteNumber": 37,
        "velocity": 108,
        "subtype": "noteOn"
      },
      {
        "deltaTime": 170,
        "channel": 5,
        "type": "channel",
        "subtype": "noteOff",
        "noteNumber": 37,
        "velocity": 108
      },
      {
        "deltaTime": 32,
        "channel": 5,
        "type": "channel",
        "subtype": "noteOff",
        "noteNumber": 70,
        "velocity": 80
      },
      {
        "deltaTime": 0,
        "channel": 5,
        "type": "channel",
        "subtype": "noteOff",
        "noteNumber": 51,
        "velocity": 90
      },
      {
        "deltaTime": 250,
        "channel": 5,
        "type": "channel",
        "noteNumber": 35,
        "velocity": 70,
        "subtype": "noteOn"
      },
      {
        "deltaTime": 0,
        "channel": 5,
        "type": "channel",
        "noteNumber": 51,
        "velocity": 70,
        "subtype": "noteOn"
      },
      {
        "deltaTime": 0,
        "channel": 5,
        "type": "channel",
        "noteNumber": 69,
        "velocity": 50,
        "subtype": "noteOn"
      },
      {
        "deltaTime": 250,
        "channel": 5,
        "type": "channel",
        "subtype": "noteOff",
        "noteNumber": 69,
        "velocity": 50
      },
      {
        "deltaTime": 0,
        "channel": 5,
        "type": "channel",
        "subtype": "noteOff",
        "noteNumber": 51,
        "velocity": 70
      },
      {
        "deltaTime": 0,
        "channel": 5,
        "type": "channel",
        "subtype": "noteOff",
        "noteNumber": 35,
        "velocity": 70
      },
      {
        "deltaTime": 250,
        "channel": 5,
        "type": "channel",
        "noteNumber": 35,
        "velocity": 100,
        "subtype": "noteOn"
      },
      {
        "deltaTime": 0,
        "channel": 5,
        "type": "channel",
        "noteNumber": 51,
        "velocity": 90,
        "subtype": "noteOn"
      },
      {
        "deltaTime": 0,
        "channel": 5,
        "type": "channel",
        "noteNumber": 70,
        "velocity": 80,
        "subtype": "noteOn"
      },
      {
        "deltaTime": 250,
        "channel": 5,
        "type": "channel",
        "subtype": "noteOff",
        "noteNumber": 70,
        "velocity": 80
      },
      {
        "deltaTime": 0,
        "channel": 5,
        "type": "channel",
        "subtype": "noteOff",
        "noteNumber": 51,
        "velocity": 90
      },
      {
        "deltaTime": 0,
        "channel": 5,
        "type": "channel",
        "subtype": "noteOff",
        "noteNumber": 35,
        "velocity": 100
      },
      {
        "deltaTime": 250,
        "channel": 5,
        "type": "channel",
        "noteNumber": 51,
        "velocity": 70,
        "subtype": "noteOn"
      },
      {
        "deltaTime": 0,
        "channel": 5,
        "type": "channel",
        "noteNumber": 69,
        "velocity": 50,
        "subtype": "noteOn"
      },
      {
        "deltaTime": 58,
        "channel": 5,
        "type": "channel",
        "noteNumber": 37,
        "velocity": 106,
        "subtype": "noteOn"
      },
      {
        "deltaTime": 166,
        "channel": 5,
        "type": "channel",
        "subtype": "noteOff",
        "noteNumber": 37,
        "velocity": 106
      },
      {
        "deltaTime": 26,
        "channel": 5,
        "type": "channel",
        "subtype": "noteOff",
        "noteNumber": 69,
        "velocity": 50
      },
      {
        "deltaTime": 0,
        "channel": 5,
        "type": "channel",
        "subtype": "noteOff",
        "noteNumber": 51,
        "velocity": 70
      },
      {
        "deltaTime": 250,
        "channel": 5,
        "type": "channel",
        "noteNumber": 56,
        "velocity": 40,
        "subtype": "noteOn"
      },
      {
        "deltaTime": 0,
        "channel": 5,
        "type": "channel",
        "noteNumber": 51,
        "velocity": 90,
        "subtype": "noteOn"
      },
      {
        "deltaTime": 0,
        "channel": 5,
        "type": "channel",
        "noteNumber": 70,
        "velocity": 80,
        "subtype": "noteOn"
      },
      {
        "deltaTime": 250,
        "channel": 5,
        "type": "channel",
        "subtype": "noteOff",
        "noteNumber": 70,
        "velocity": 80
      },
      {
        "deltaTime": 0,
        "channel": 5,
        "type": "channel",
        "subtype": "noteOff",
        "noteNumber": 51,
        "velocity": 90
      },
      {
        "deltaTime": 0,
        "channel": 5,
        "type": "channel",
        "subtype": "noteOff",
        "noteNumber": 56,
        "velocity": 40
      },
      {
        "deltaTime": 250,
        "channel": 5,
        "type": "channel",
        "noteNumber": 41,
        "velocity": 60,
        "subtype": "noteOn"
      },
      {
        "deltaTime": 0,
        "channel": 5,
        "type": "channel",
        "noteNumber": 51,
        "velocity": 70,
        "subtype": "noteOn"
      },
      {
        "deltaTime": 0,
        "channel": 5,
        "type": "channel",
        "noteNumber": 35,
        "velocity": 70,
        "subtype": "noteOn"
      },
      {
        "deltaTime": 0,
        "channel": 5,
        "type": "channel",
        "noteNumber": 69,
        "velocity": 50,
        "subtype": "noteOn"
      },
      {
        "deltaTime": 250,
        "channel": 5,
        "type": "channel",
        "subtype": "noteOff",
        "noteNumber": 69,
        "velocity": 50
      },
      {
        "deltaTime": 0,
        "channel": 5,
        "type": "channel",
        "subtype": "noteOff",
        "noteNumber": 35,
        "velocity": 70
      },
      {
        "deltaTime": 0,
        "channel": 5,
        "type": "channel",
        "subtype": "noteOff",
        "noteNumber": 51,
        "velocity": 70
      },
      {
        "deltaTime": 0,
        "channel": 5,
        "type": "channel",
        "subtype": "noteOff",
        "noteNumber": 41,
        "velocity": 60
      },
      {
        "deltaTime": 250,
        "channel": 5,
        "type": "channel",
        "noteNumber": 70,
        "velocity": 80,
        "subtype": "noteOn"
      },
      {
        "deltaTime": 0,
        "channel": 5,
        "type": "channel",
        "noteNumber": 56,
        "velocity": 40,
        "subtype": "noteOn"
      },
      {
        "deltaTime": 0,
        "channel": 5,
        "type": "channel",
        "noteNumber": 35,
        "velocity": 100,
        "subtype": "noteOn"
      },
      {
        "deltaTime": 0,
        "channel": 5,
        "type": "channel",
        "noteNumber": 51,
        "velocity": 90,
        "subtype": "noteOn"
      },
      {
        "deltaTime": 16,
        "channel": 5,
        "type": "channel",
        "noteNumber": 37,
        "velocity": 108,
        "subtype": "noteOn"
      },
      {
        "deltaTime": 172,
        "channel": 5,
        "type": "channel",
        "subtype": "noteOff",
        "noteNumber": 37,
        "velocity": 108
      },
      {
        "deltaTime": 62,
        "channel": 5,
        "type": "channel",
        "subtype": "noteOff",
        "noteNumber": 51,
        "velocity": 90
      },
      {
        "deltaTime": 0,
        "channel": 5,
        "type": "channel",
        "subtype": "noteOff",
        "noteNumber": 35,
        "velocity": 100
      },
      {
        "deltaTime": 0,
        "channel": 5,
        "type": "channel",
        "subtype": "noteOff",
        "noteNumber": 56,
        "velocity": 40
      },
      {
        "deltaTime": 0,
        "channel": 5,
        "type": "channel",
        "subtype": "noteOff",
        "noteNumber": 70,
        "velocity": 80
      },
      {
        "deltaTime": 250,
        "channel": 5,
        "type": "channel",
        "noteNumber": 51,
        "velocity": 70,
        "subtype": "noteOn"
      },
      {
        "deltaTime": 0,
        "channel": 5,
        "type": "channel",
        "noteNumber": 63,
        "velocity": 40,
        "subtype": "noteOn"
      },
      {
        "deltaTime": 0,
        "channel": 5,
        "type": "channel",
        "noteNumber": 69,
        "velocity": 50,
        "subtype": "noteOn"
      },
      {
        "deltaTime": 250,
        "channel": 5,
        "type": "channel",
        "subtype": "noteOff",
        "noteNumber": 69,
        "velocity": 50
      },
      {
        "deltaTime": 0,
        "channel": 5,
        "type": "channel",
        "subtype": "noteOff",
        "noteNumber": 63,
        "velocity": 40
      },
      {
        "deltaTime": 0,
        "channel": 5,
        "type": "channel",
        "subtype": "noteOff",
        "noteNumber": 51,
        "velocity": 70
      },
      {
        "deltaTime": 250,
        "channel": 5,
        "type": "channel",
        "noteNumber": 70,
        "velocity": 80,
        "subtype": "noteOn"
      },
      {
        "deltaTime": 0,
        "channel": 5,
        "type": "channel",
        "noteNumber": 63,
        "velocity": 60,
        "subtype": "noteOn"
      },
      {
        "deltaTime": 0,
        "channel": 5,
        "type": "channel",
        "noteNumber": 51,
        "velocity": 90,
        "subtype": "noteOn"
      },
      {
        "deltaTime": 48,
        "channel": 5,
        "type": "channel",
        "noteNumber": 37,
        "velocity": 108,
        "subtype": "noteOn"
      },
      {
        "deltaTime": 170,
        "channel": 5,
        "type": "channel",
        "subtype": "noteOff",
        "noteNumber": 37,
        "velocity": 108
      },
      {
        "deltaTime": 32,
        "channel": 5,
        "type": "channel",
        "subtype": "noteOff",
        "noteNumber": 51,
        "velocity": 90
      },
      {
        "deltaTime": 0,
        "channel": 5,
        "type": "channel",
        "subtype": "noteOff",
        "noteNumber": 63,
        "velocity": 60
      },
      {
        "deltaTime": 0,
        "channel": 5,
        "type": "channel",
        "subtype": "noteOff",
        "noteNumber": 70,
        "velocity": 80
      },
      {
        "deltaTime": 250,
        "channel": 5,
        "type": "channel",
        "noteNumber": 62,
        "velocity": 70,
        "subtype": "noteOn"
      },
      {
        "deltaTime": 0,
        "channel": 5,
        "type": "channel",
        "noteNumber": 56,
        "velocity": 40,
        "subtype": "noteOn"
      },
      {
        "deltaTime": 0,
        "channel": 5,
        "type": "channel",
        "noteNumber": 35,
        "velocity": 70,
        "subtype": "noteOn"
      },
      {
        "deltaTime": 0,
        "channel": 5,
        "type": "channel",
        "noteNumber": 51,
        "velocity": 70,
        "subtype": "noteOn"
      },
      {
        "deltaTime": 0,
        "channel": 5,
        "type": "channel",
        "noteNumber": 69,
        "velocity": 50,
        "subtype": "noteOn"
      },
      {
        "deltaTime": 250,
        "channel": 5,
        "type": "channel",
        "subtype": "noteOff",
        "noteNumber": 69,
        "velocity": 50
      },
      {
        "deltaTime": 0,
        "channel": 5,
        "type": "channel",
        "subtype": "noteOff",
        "noteNumber": 51,
        "velocity": 70
      },
      {
        "deltaTime": 0,
        "channel": 5,
        "type": "channel",
        "subtype": "noteOff",
        "noteNumber": 35,
        "velocity": 70
      },
      {
        "deltaTime": 0,
        "channel": 5,
        "type": "channel",
        "subtype": "noteOff",
        "noteNumber": 56,
        "velocity": 40
      },
      {
        "deltaTime": 0,
        "channel": 5,
        "type": "channel",
        "subtype": "noteOff",
        "noteNumber": 62,
        "velocity": 70
      },
      {
        "deltaTime": 250,
        "channel": 5,
        "type": "channel",
        "noteNumber": 35,
        "velocity": 100,
        "subtype": "noteOn"
      },
      {
        "deltaTime": 0,
        "channel": 5,
        "type": "channel",
        "noteNumber": 51,
        "velocity": 90,
        "subtype": "noteOn"
      },
      {
        "deltaTime": 0,
        "channel": 5,
        "type": "channel",
        "noteNumber": 70,
        "velocity": 80,
        "subtype": "noteOn"
      },
      {
        "deltaTime": 250,
        "channel": 5,
        "type": "channel",
        "subtype": "noteOff",
        "noteNumber": 70,
        "velocity": 80
      },
      {
        "deltaTime": 0,
        "channel": 5,
        "type": "channel",
        "subtype": "noteOff",
        "noteNumber": 51,
        "velocity": 90
      },
      {
        "deltaTime": 0,
        "channel": 5,
        "type": "channel",
        "subtype": "noteOff",
        "noteNumber": 35,
        "velocity": 100
      },
      {
        "deltaTime": 250,
        "channel": 5,
        "type": "channel",
        "noteNumber": 69,
        "velocity": 50,
        "subtype": "noteOn"
      },
      {
        "deltaTime": 0,
        "channel": 5,
        "type": "channel",
        "noteNumber": 63,
        "velocity": 50,
        "subtype": "noteOn"
      },
      {
        "deltaTime": 0,
        "channel": 5,
        "type": "channel",
        "noteNumber": 51,
        "velocity": 70,
        "subtype": "noteOn"
      },
      {
        "deltaTime": 58,
        "channel": 5,
        "type": "channel",
        "noteNumber": 37,
        "velocity": 106,
        "subtype": "noteOn"
      },
      {
        "deltaTime": 166,
        "channel": 5,
        "type": "channel",
        "subtype": "noteOff",
        "noteNumber": 37,
        "velocity": 106
      },
      {
        "deltaTime": 26,
        "channel": 5,
        "type": "channel",
        "subtype": "noteOff",
        "noteNumber": 51,
        "velocity": 70
      },
      {
        "deltaTime": 0,
        "channel": 5,
        "type": "channel",
        "subtype": "noteOff",
        "noteNumber": 63,
        "velocity": 50
      },
      {
        "deltaTime": 0,
        "channel": 5,
        "type": "channel",
        "subtype": "noteOff",
        "noteNumber": 69,
        "velocity": 50
      },
      {
        "deltaTime": 250,
        "channel": 5,
        "type": "channel",
        "noteNumber": 62,
        "velocity": 70,
        "subtype": "noteOn"
      },
      {
        "deltaTime": 0,
        "channel": 5,
        "type": "channel",
        "noteNumber": 51,
        "velocity": 90,
        "subtype": "noteOn"
      },
      {
        "deltaTime": 0,
        "channel": 5,
        "type": "channel",
        "noteNumber": 56,
        "velocity": 40,
        "subtype": "noteOn"
      },
      {
        "deltaTime": 0,
        "channel": 5,
        "type": "channel",
        "noteNumber": 45,
        "velocity": 70,
        "subtype": "noteOn"
      },
      {
        "deltaTime": 0,
        "channel": 5,
        "type": "channel",
        "noteNumber": 70,
        "velocity": 80,
        "subtype": "noteOn"
      },
      {
        "deltaTime": 250,
        "channel": 5,
        "type": "channel",
        "subtype": "noteOff",
        "noteNumber": 70,
        "velocity": 80
      },
      {
        "deltaTime": 0,
        "channel": 5,
        "type": "channel",
        "subtype": "noteOff",
        "noteNumber": 45,
        "velocity": 70
      },
      {
        "deltaTime": 0,
        "channel": 5,
        "type": "channel",
        "subtype": "noteOff",
        "noteNumber": 56,
        "velocity": 40
      },
      {
        "deltaTime": 0,
        "channel": 5,
        "type": "channel",
        "subtype": "noteOff",
        "noteNumber": 51,
        "velocity": 90
      },
      {
        "deltaTime": 0,
        "channel": 5,
        "type": "channel",
        "subtype": "noteOff",
        "noteNumber": 62,
        "velocity": 70
      },
      {
        "deltaTime": 250,
        "channel": 5,
        "type": "channel",
        "noteNumber": 45,
        "velocity": 75,
        "subtype": "noteOn"
      },
      {
        "deltaTime": 0,
        "channel": 5,
        "type": "channel",
        "noteNumber": 51,
        "velocity": 70,
        "subtype": "noteOn"
      },
      {
        "deltaTime": 0,
        "channel": 5,
        "type": "channel",
        "noteNumber": 35,
        "velocity": 70,
        "subtype": "noteOn"
      },
      {
        "deltaTime": 0,
        "channel": 5,
        "type": "channel",
        "noteNumber": 69,
        "velocity": 50,
        "subtype": "noteOn"
      },
      {
        "deltaTime": 250,
        "channel": 5,
        "type": "channel",
        "subtype": "noteOff",
        "noteNumber": 69,
        "velocity": 50
      },
      {
        "deltaTime": 0,
        "channel": 5,
        "type": "channel",
        "subtype": "noteOff",
        "noteNumber": 35,
        "velocity": 70
      },
      {
        "deltaTime": 0,
        "channel": 5,
        "type": "channel",
        "subtype": "noteOff",
        "noteNumber": 51,
        "velocity": 70
      },
      {
        "deltaTime": 0,
        "channel": 5,
        "type": "channel",
        "subtype": "noteOff",
        "noteNumber": 45,
        "velocity": 75
      },
      {
        "deltaTime": 250,
        "channel": 5,
        "type": "channel",
        "noteNumber": 63,
        "velocity": 40,
        "subtype": "noteOn"
      },
      {
        "deltaTime": 0,
        "channel": 5,
        "type": "channel",
        "noteNumber": 70,
        "velocity": 80,
        "subtype": "noteOn"
      },
      {
        "deltaTime": 0,
        "channel": 5,
        "type": "channel",
        "noteNumber": 35,
        "velocity": 100,
        "subtype": "noteOn"
      },
      {
        "deltaTime": 0,
        "channel": 5,
        "type": "channel",
        "noteNumber": 51,
        "velocity": 90,
        "subtype": "noteOn"
      },
      {
        "deltaTime": 0,
        "channel": 5,
        "type": "channel",
        "noteNumber": 56,
        "velocity": 40,
        "subtype": "noteOn"
      },
      {
        "deltaTime": 16,
        "channel": 5,
        "type": "channel",
        "noteNumber": 37,
        "velocity": 108,
        "subtype": "noteOn"
      },
      {
        "deltaTime": 172,
        "channel": 5,
        "type": "channel",
        "subtype": "noteOff",
        "noteNumber": 37,
        "velocity": 108
      },
      {
        "deltaTime": 62,
        "channel": 5,
        "type": "channel",
        "subtype": "noteOff",
        "noteNumber": 56,
        "velocity": 40
      },
      {
        "deltaTime": 0,
        "channel": 5,
        "type": "channel",
        "subtype": "noteOff",
        "noteNumber": 51,
        "velocity": 90
      },
      {
        "deltaTime": 0,
        "channel": 5,
        "type": "channel",
        "subtype": "noteOff",
        "noteNumber": 35,
        "velocity": 100
      },
      {
        "deltaTime": 0,
        "channel": 5,
        "type": "channel",
        "subtype": "noteOff",
        "noteNumber": 70,
        "velocity": 80
      },
      {
        "deltaTime": 0,
        "channel": 5,
        "type": "channel",
        "subtype": "noteOff",
        "noteNumber": 63,
        "velocity": 40
      },
      {
        "deltaTime": 250,
        "channel": 5,
        "type": "channel",
        "noteNumber": 51,
        "velocity": 70,
        "subtype": "noteOn"
      },
      {
        "deltaTime": 0,
        "channel": 5,
        "type": "channel",
        "noteNumber": 63,
        "velocity": 40,
        "subtype": "noteOn"
      },
      {
        "deltaTime": 0,
        "channel": 5,
        "type": "channel",
        "noteNumber": 69,
        "velocity": 50,
        "subtype": "noteOn"
      },
      {
        "deltaTime": 250,
        "channel": 5,
        "type": "channel",
        "subtype": "noteOff",
        "noteNumber": 69,
        "velocity": 50
      },
      {
        "deltaTime": 0,
        "channel": 5,
        "type": "channel",
        "subtype": "noteOff",
        "noteNumber": 63,
        "velocity": 40
      },
      {
        "deltaTime": 0,
        "channel": 5,
        "type": "channel",
        "subtype": "noteOff",
        "noteNumber": 51,
        "velocity": 70
      },
      {
        "deltaTime": 250,
        "channel": 5,
        "type": "channel",
        "noteNumber": 51,
        "velocity": 90,
        "subtype": "noteOn"
      },
      {
        "deltaTime": 0,
        "channel": 5,
        "type": "channel",
        "noteNumber": 70,
        "velocity": 80,
        "subtype": "noteOn"
      },
      {
        "deltaTime": 48,
        "channel": 5,
        "type": "channel",
        "noteNumber": 37,
        "velocity": 108,
        "subtype": "noteOn"
      },
      {
        "deltaTime": 170,
        "channel": 5,
        "type": "channel",
        "subtype": "noteOff",
        "noteNumber": 37,
        "velocity": 108
      },
      {
        "deltaTime": 32,
        "channel": 5,
        "type": "channel",
        "subtype": "noteOff",
        "noteNumber": 70,
        "velocity": 80
      },
      {
        "deltaTime": 0,
        "channel": 5,
        "type": "channel",
        "subtype": "noteOff",
        "noteNumber": 51,
        "velocity": 90
      },
      {
        "deltaTime": 250,
        "channel": 5,
        "type": "channel",
        "noteNumber": 51,
        "velocity": 70,
        "subtype": "noteOn"
      },
      {
        "deltaTime": 0,
        "channel": 5,
        "type": "channel",
        "noteNumber": 56,
        "velocity": 40,
        "subtype": "noteOn"
      },
      {
        "deltaTime": 0,
        "channel": 5,
        "type": "channel",
        "noteNumber": 35,
        "velocity": 70,
        "subtype": "noteOn"
      },
      {
        "deltaTime": 0,
        "channel": 5,
        "type": "channel",
        "noteNumber": 69,
        "velocity": 50,
        "subtype": "noteOn"
      },
      {
        "deltaTime": 250,
        "channel": 5,
        "type": "channel",
        "subtype": "noteOff",
        "noteNumber": 69,
        "velocity": 50
      },
      {
        "deltaTime": 0,
        "channel": 5,
        "type": "channel",
        "subtype": "noteOff",
        "noteNumber": 35,
        "velocity": 70
      },
      {
        "deltaTime": 0,
        "channel": 5,
        "type": "channel",
        "subtype": "noteOff",
        "noteNumber": 56,
        "velocity": 40
      },
      {
        "deltaTime": 0,
        "channel": 5,
        "type": "channel",
        "subtype": "noteOff",
        "noteNumber": 51,
        "velocity": 70
      },
      {
        "deltaTime": 250,
        "channel": 5,
        "type": "channel",
        "noteNumber": 35,
        "velocity": 100,
        "subtype": "noteOn"
      },
      {
        "deltaTime": 0,
        "channel": 5,
        "type": "channel",
        "noteNumber": 51,
        "velocity": 90,
        "subtype": "noteOn"
      },
      {
        "deltaTime": 0,
        "channel": 5,
        "type": "channel",
        "noteNumber": 70,
        "velocity": 80,
        "subtype": "noteOn"
      },
      {
        "deltaTime": 250,
        "channel": 5,
        "type": "channel",
        "subtype": "noteOff",
        "noteNumber": 70,
        "velocity": 80
      },
      {
        "deltaTime": 0,
        "channel": 5,
        "type": "channel",
        "subtype": "noteOff",
        "noteNumber": 51,
        "velocity": 90
      },
      {
        "deltaTime": 0,
        "channel": 5,
        "type": "channel",
        "subtype": "noteOff",
        "noteNumber": 35,
        "velocity": 100
      },
      {
        "deltaTime": 250,
        "channel": 5,
        "type": "channel",
        "noteNumber": 51,
        "velocity": 70,
        "subtype": "noteOn"
      },
      {
        "deltaTime": 0,
        "channel": 5,
        "type": "channel",
        "noteNumber": 69,
        "velocity": 50,
        "subtype": "noteOn"
      },
      {
        "deltaTime": 58,
        "channel": 5,
        "type": "channel",
        "noteNumber": 37,
        "velocity": 106,
        "subtype": "noteOn"
      },
      {
        "deltaTime": 166,
        "channel": 5,
        "type": "channel",
        "subtype": "noteOff",
        "noteNumber": 37,
        "velocity": 106
      },
      {
        "deltaTime": 26,
        "channel": 5,
        "type": "channel",
        "subtype": "noteOff",
        "noteNumber": 69,
        "velocity": 50
      },
      {
        "deltaTime": 0,
        "channel": 5,
        "type": "channel",
        "subtype": "noteOff",
        "noteNumber": 51,
        "velocity": 70
      },
      {
        "deltaTime": 250,
        "channel": 5,
        "type": "channel",
        "noteNumber": 56,
        "velocity": 40,
        "subtype": "noteOn"
      },
      {
        "deltaTime": 0,
        "channel": 5,
        "type": "channel",
        "noteNumber": 51,
        "velocity": 90,
        "subtype": "noteOn"
      },
      {
        "deltaTime": 0,
        "channel": 5,
        "type": "channel",
        "noteNumber": 70,
        "velocity": 80,
        "subtype": "noteOn"
      },
      {
        "deltaTime": 250,
        "channel": 5,
        "type": "channel",
        "subtype": "noteOff",
        "noteNumber": 70,
        "velocity": 80
      },
      {
        "deltaTime": 0,
        "channel": 5,
        "type": "channel",
        "subtype": "noteOff",
        "noteNumber": 51,
        "velocity": 90
      },
      {
        "deltaTime": 0,
        "channel": 5,
        "type": "channel",
        "subtype": "noteOff",
        "noteNumber": 56,
        "velocity": 40
      },
      {
        "deltaTime": 250,
        "channel": 5,
        "type": "channel",
        "noteNumber": 35,
        "velocity": 70,
        "subtype": "noteOn"
      },
      {
        "deltaTime": 0,
        "channel": 5,
        "type": "channel",
        "noteNumber": 51,
        "velocity": 70,
        "subtype": "noteOn"
      },
      {
        "deltaTime": 0,
        "channel": 5,
        "type": "channel",
        "noteNumber": 69,
        "velocity": 50,
        "subtype": "noteOn"
      },
      {
        "deltaTime": 250,
        "channel": 5,
        "type": "channel",
        "subtype": "noteOff",
        "noteNumber": 69,
        "velocity": 50
      },
      {
        "deltaTime": 0,
        "channel": 5,
        "type": "channel",
        "subtype": "noteOff",
        "noteNumber": 51,
        "velocity": 70
      },
      {
        "deltaTime": 0,
        "channel": 5,
        "type": "channel",
        "subtype": "noteOff",
        "noteNumber": 35,
        "velocity": 70
      },
      {
        "deltaTime": 250,
        "channel": 5,
        "type": "channel",
        "noteNumber": 70,
        "velocity": 80,
        "subtype": "noteOn"
      },
      {
        "deltaTime": 0,
        "channel": 5,
        "type": "channel",
        "noteNumber": 56,
        "velocity": 40,
        "subtype": "noteOn"
      },
      {
        "deltaTime": 0,
        "channel": 5,
        "type": "channel",
        "noteNumber": 35,
        "velocity": 100,
        "subtype": "noteOn"
      },
      {
        "deltaTime": 0,
        "channel": 5,
        "type": "channel",
        "noteNumber": 51,
        "velocity": 90,
        "subtype": "noteOn"
      },
      {
        "deltaTime": 16,
        "channel": 5,
        "type": "channel",
        "noteNumber": 37,
        "velocity": 108,
        "subtype": "noteOn"
      },
      {
        "deltaTime": 172,
        "channel": 5,
        "type": "channel",
        "subtype": "noteOff",
        "noteNumber": 37,
        "velocity": 108
      },
      {
        "deltaTime": 62,
        "channel": 5,
        "type": "channel",
        "subtype": "noteOff",
        "noteNumber": 51,
        "velocity": 90
      },
      {
        "deltaTime": 0,
        "channel": 5,
        "type": "channel",
        "subtype": "noteOff",
        "noteNumber": 35,
        "velocity": 100
      },
      {
        "deltaTime": 0,
        "channel": 5,
        "type": "channel",
        "subtype": "noteOff",
        "noteNumber": 56,
        "velocity": 40
      },
      {
        "deltaTime": 0,
        "channel": 5,
        "type": "channel",
        "subtype": "noteOff",
        "noteNumber": 70,
        "velocity": 80
      },
      {
        "deltaTime": 250,
        "channel": 5,
        "type": "channel",
        "noteNumber": 51,
        "velocity": 70,
        "subtype": "noteOn"
      },
      {
        "deltaTime": 0,
        "channel": 5,
        "type": "channel",
        "noteNumber": 63,
        "velocity": 40,
        "subtype": "noteOn"
      },
      {
        "deltaTime": 0,
        "channel": 5,
        "type": "channel",
        "noteNumber": 69,
        "velocity": 50,
        "subtype": "noteOn"
      },
      {
        "deltaTime": 250,
        "channel": 5,
        "type": "channel",
        "subtype": "noteOff",
        "noteNumber": 69,
        "velocity": 50
      },
      {
        "deltaTime": 0,
        "channel": 5,
        "type": "channel",
        "subtype": "noteOff",
        "noteNumber": 63,
        "velocity": 40
      },
      {
        "deltaTime": 0,
        "channel": 5,
        "type": "channel",
        "subtype": "noteOff",
        "noteNumber": 51,
        "velocity": 70
      },
      {
        "deltaTime": 250,
        "channel": 5,
        "type": "channel",
        "noteNumber": 70,
        "velocity": 80,
        "subtype": "noteOn"
      },
      {
        "deltaTime": 0,
        "channel": 5,
        "type": "channel",
        "noteNumber": 48,
        "velocity": 60,
        "subtype": "noteOn"
      },
      {
        "deltaTime": 0,
        "channel": 5,
        "type": "channel",
        "noteNumber": 51,
        "velocity": 90,
        "subtype": "noteOn"
      },
      {
        "deltaTime": 0,
        "channel": 5,
        "type": "channel",
        "noteNumber": 63,
        "velocity": 60,
        "subtype": "noteOn"
      },
      {
        "deltaTime": 48,
        "channel": 5,
        "type": "channel",
        "noteNumber": 37,
        "velocity": 108,
        "subtype": "noteOn"
      },
      {
        "deltaTime": 170,
        "channel": 5,
        "type": "channel",
        "subtype": "noteOff",
        "noteNumber": 37,
        "velocity": 108
      },
      {
        "deltaTime": 32,
        "channel": 5,
        "type": "channel",
        "subtype": "noteOff",
        "noteNumber": 63,
        "velocity": 60
      },
      {
        "deltaTime": 0,
        "channel": 5,
        "type": "channel",
        "subtype": "noteOff",
        "noteNumber": 51,
        "velocity": 90
      },
      {
        "deltaTime": 0,
        "channel": 5,
        "type": "channel",
        "subtype": "noteOff",
        "noteNumber": 48,
        "velocity": 60
      },
      {
        "deltaTime": 0,
        "channel": 5,
        "type": "channel",
        "subtype": "noteOff",
        "noteNumber": 70,
        "velocity": 80
      },
      {
        "deltaTime": 250,
        "channel": 5,
        "type": "channel",
        "noteNumber": 62,
        "velocity": 70,
        "subtype": "noteOn"
      },
      {
        "deltaTime": 0,
        "channel": 5,
        "type": "channel",
        "noteNumber": 51,
        "velocity": 70,
        "subtype": "noteOn"
      },
      {
        "deltaTime": 0,
        "channel": 5,
        "type": "channel",
        "noteNumber": 35,
        "velocity": 70,
        "subtype": "noteOn"
      },
      {
        "deltaTime": 0,
        "channel": 5,
        "type": "channel",
        "noteNumber": 69,
        "velocity": 50,
        "subtype": "noteOn"
      },
      {
        "deltaTime": 250,
        "channel": 5,
        "type": "channel",
        "subtype": "noteOff",
        "noteNumber": 69,
        "velocity": 50
      },
      {
        "deltaTime": 0,
        "channel": 5,
        "type": "channel",
        "subtype": "noteOff",
        "noteNumber": 35,
        "velocity": 70
      },
      {
        "deltaTime": 0,
        "channel": 5,
        "type": "channel",
        "subtype": "noteOff",
        "noteNumber": 51,
        "velocity": 70
      },
      {
        "deltaTime": 0,
        "channel": 5,
        "type": "channel",
        "subtype": "noteOff",
        "noteNumber": 62,
        "velocity": 70
      },
      {
        "deltaTime": 250,
        "channel": 5,
        "type": "channel",
        "noteNumber": 35,
        "velocity": 100,
        "subtype": "noteOn"
      },
      {
        "deltaTime": 0,
        "channel": 5,
        "type": "channel",
        "noteNumber": 51,
        "velocity": 90,
        "subtype": "noteOn"
      },
      {
        "deltaTime": 0,
        "channel": 5,
        "type": "channel",
        "noteNumber": 70,
        "velocity": 80,
        "subtype": "noteOn"
      },
      {
        "deltaTime": 250,
        "channel": 5,
        "type": "channel",
        "subtype": "noteOff",
        "noteNumber": 70,
        "velocity": 80
      },
      {
        "deltaTime": 0,
        "channel": 5,
        "type": "channel",
        "subtype": "noteOff",
        "noteNumber": 51,
        "velocity": 90
      },
      {
        "deltaTime": 0,
        "channel": 5,
        "type": "channel",
        "subtype": "noteOff",
        "noteNumber": 35,
        "velocity": 100
      },
      {
        "deltaTime": 250,
        "channel": 5,
        "type": "channel",
        "noteNumber": 51,
        "velocity": 70,
        "subtype": "noteOn"
      },
      {
        "deltaTime": 0,
        "channel": 5,
        "type": "channel",
        "noteNumber": 69,
        "velocity": 50,
        "subtype": "noteOn"
      },
      {
        "deltaTime": 58,
        "channel": 5,
        "type": "channel",
        "noteNumber": 37,
        "velocity": 106,
        "subtype": "noteOn"
      },
      {
        "deltaTime": 166,
        "channel": 5,
        "type": "channel",
        "subtype": "noteOff",
        "noteNumber": 37,
        "velocity": 106
      },
      {
        "deltaTime": 26,
        "channel": 5,
        "type": "channel",
        "subtype": "noteOff",
        "noteNumber": 69,
        "velocity": 50
      },
      {
        "deltaTime": 0,
        "channel": 5,
        "type": "channel",
        "subtype": "noteOff",
        "noteNumber": 51,
        "velocity": 70
      },
      {
        "deltaTime": 250,
        "channel": 5,
        "type": "channel",
        "noteNumber": 62,
        "velocity": 70,
        "subtype": "noteOn"
      },
      {
        "deltaTime": 0,
        "channel": 5,
        "type": "channel",
        "noteNumber": 45,
        "velocity": 70,
        "subtype": "noteOn"
      },
      {
        "deltaTime": 0,
        "channel": 5,
        "type": "channel",
        "noteNumber": 51,
        "velocity": 90,
        "subtype": "noteOn"
      },
      {
        "deltaTime": 0,
        "channel": 5,
        "type": "channel",
        "noteNumber": 70,
        "velocity": 80,
        "subtype": "noteOn"
      },
      {
        "deltaTime": 250,
        "channel": 5,
        "type": "channel",
        "subtype": "noteOff",
        "noteNumber": 70,
        "velocity": 80
      },
      {
        "deltaTime": 0,
        "channel": 5,
        "type": "channel",
        "subtype": "noteOff",
        "noteNumber": 51,
        "velocity": 90
      },
      {
        "deltaTime": 0,
        "channel": 5,
        "type": "channel",
        "subtype": "noteOff",
        "noteNumber": 45,
        "velocity": 70
      },
      {
        "deltaTime": 0,
        "channel": 5,
        "type": "channel",
        "subtype": "noteOff",
        "noteNumber": 62,
        "velocity": 70
      },
      {
        "deltaTime": 250,
        "channel": 5,
        "type": "channel",
        "noteNumber": 45,
        "velocity": 70,
        "subtype": "noteOn"
      },
      {
        "deltaTime": 0,
        "channel": 5,
        "type": "channel",
        "noteNumber": 51,
        "velocity": 70,
        "subtype": "noteOn"
      },
      {
        "deltaTime": 0,
        "channel": 5,
        "type": "channel",
        "noteNumber": 35,
        "velocity": 70,
        "subtype": "noteOn"
      },
      {
        "deltaTime": 0,
        "channel": 5,
        "type": "channel",
        "noteNumber": 69,
        "velocity": 50,
        "subtype": "noteOn"
      },
      {
        "deltaTime": 250,
        "channel": 5,
        "type": "channel",
        "subtype": "noteOff",
        "noteNumber": 69,
        "velocity": 50
      },
      {
        "deltaTime": 0,
        "channel": 5,
        "type": "channel",
        "subtype": "noteOff",
        "noteNumber": 35,
        "velocity": 70
      },
      {
        "deltaTime": 0,
        "channel": 5,
        "type": "channel",
        "subtype": "noteOff",
        "noteNumber": 51,
        "velocity": 70
      },
      {
        "deltaTime": 0,
        "channel": 5,
        "type": "channel",
        "subtype": "noteOff",
        "noteNumber": 45,
        "velocity": 70
      },
      {
        "deltaTime": 250,
        "channel": 5,
        "type": "channel",
        "noteNumber": 70,
        "velocity": 80,
        "subtype": "noteOn"
      },
      {
        "deltaTime": 0,
        "channel": 5,
        "type": "channel",
        "noteNumber": 45,
        "velocity": 70,
        "subtype": "noteOn"
      },
      {
        "deltaTime": 0,
        "channel": 5,
        "type": "channel",
        "noteNumber": 35,
        "velocity": 100,
        "subtype": "noteOn"
      },
      {
        "deltaTime": 16,
        "channel": 5,
        "type": "channel",
        "noteNumber": 37,
        "velocity": 108,
        "subtype": "noteOn"
      },
      {
        "deltaTime": 172,
        "channel": 5,
        "type": "channel",
        "subtype": "noteOff",
        "noteNumber": 37,
        "velocity": 108
      },
      {
        "deltaTime": 62,
        "channel": 5,
        "type": "channel",
        "subtype": "noteOff",
        "noteNumber": 35,
        "velocity": 100
      },
      {
        "deltaTime": 0,
        "channel": 5,
        "type": "channel",
        "subtype": "noteOff",
        "noteNumber": 45,
        "velocity": 70
      },
      {
        "deltaTime": 0,
        "channel": 5,
        "type": "channel",
        "subtype": "noteOff",
        "noteNumber": 70,
        "velocity": 80
      },
      {
        "deltaTime": 0,
        "type": "meta",
        "subtype": "endOfTrack"
      }
    ]
  ]
}