<svg width="847" height="847" xmlns="http://www.w3.org/2000/svg" version="1.1"><g transform="translate(423.5, 423.5)"><g display="none"><path d="M1.2965947985972603e-14,-211.75A211.75,211.75,0,1,1,-1.2965947985972603e-14,211.75A211.75,211.75,0,1,1,1.2965947985972603e-14,-211.75Z" style="stroke: rgb(255, 255, 255); fill: rgb(191, 105, 105); fill-rule: evenodd;"></path><text transform="translate(6.482973992986301e-15,105.875)rotate(90)" text-anchor="middle" dx="6" dy=".35em" style="font-size: 11px; font-family: Arial, Helvetica;"></text><title>undefined: none</title></g><g><path d="M1.8336619490786572e-14,-299.4597218325029A299.4597218325029,299.4597218325029,0,0,1,294.1129043457708,-56.33581895468891L207.96922909736492,-39.83543960655817A211.75,211.75,0,0,0,1.2965947985972603e-14,-211.75Z" style="stroke: rgb(255, 255, 255); fill: rgb(191, 105, 105); fill-rule: evenodd;"></path><text transform="translate(162.85411314988647,-197.00858548342563)rotate(-50.42168674698795)" text-anchor="middle" dx="6" dy=".35em" style="font-size: 11px; font-family: Arial, Helvetica;">2</text><title>2: none</title></g><g><path d="M294.1129043457708,-56.33581895468891A299.4597218325029,299.4597218325029,0,0,1,-225.30136730062972,197.26991380458082L-159.31212462887635,139.4908937753048A211.75,211.75,0,0,0,207.96922909736492,-39.83543960655817Z" style="stroke: rgb(255, 255, 255); fill: rgb(174, 191, 105); fill-rule: evenodd;"></path><text transform="translate(112.14640420904266,229.6889830771129)rotate(63.97590361445782)" text-anchor="middle" dx="6" dy=".35em" style="font-size: 11px; font-family: Arial, Helvetica;">3</text><title>3: none</title></g><g><path d="M-225.30136730062972,197.26991380458082A299.4597218325029,299.4597218325029,0,0,1,-247.80466870392323,168.1337894908066L-175.22436165022992,118.88854269554082A211.75,211.75,0,0,0,-159.31212462887635,139.4908937753048Z" style="stroke: rgb(255, 255, 255); fill: rgb(105, 191, 139); fill-rule: evenodd;"></path><text transform="translate(-202.29315975447383,156.2412315637815)rotate(322.31927710843377)" text-anchor="middle" dx="6" dy=".35em" style="font-size: 11px; font-family: Arial, Helvetica;">4</text><title>4: none</title></g><g><path d="M-247.80466870392323,168.1337894908066A299.4597218325029,299.4597218325029,0,0,1,-291.1193446701035,-70.18299052369821L-205.85246275081394,-49.6268685232582A211.75,211.75,0,0,0,-175.22436165022992,118.88854269554082Z" style="stroke: rgb(255, 255, 255); fill: rgb(105, 139, 191); fill-rule: evenodd;"></path><text transform="translate(-251.48483718339304,45.708003575506865)rotate(349.69879518072287)" text-anchor="middle" dx="6" dy=".35em" style="font-size: 11px; font-family: Arial, Helvetica;">5</text><title>5: none</title></g><g><path d="M-291.1193446701035,-70.18299052369821A299.4597218325029,299.4597218325029,0,0,1,-5.5009858472359716e-14,-299.4597218325029L-3.8897843957917805e-14,-211.75A211.75,211.75,0,0,0,-205.85246275081394,-49.6268685232582Z" style="stroke: rgb(255, 255, 255); fill: rgb(174, 105, 191); fill-rule: evenodd;"></path><text transform="translate(-158.14843303834814,-200.80567235895344)rotate(411.77710843373495)" text-anchor="middle" dx="6" dy=".35em" style="font-size: 11px; font-family: Arial, Helvetica;">6</text><title>6: none</title></g><g><path d="M2.2457680679999903e-14,-366.76175850270977A366.76175850270977,366.76175850270977,0,0,1,41.556923088899865,-364.3997936928385L33.93108561596322,-297.53118564097144A299.4597218325029,299.4597218325029,0,0,0,1.8336619490786572e-14,-299.4597218325029Z" style="stroke: rgb(255, 255, 255); fill: rgb(191, 105, 105); fill-rule: evenodd;"></path><text transform="translate(18.902459921046866,-332.57399511077796)rotate(-86.74698795180723)" text-anchor="middle" dx="6" dy=".35em" style="font-size: 11px; font-family: Arial, Helvetica;">3000.0</text><title>3000.0: none</title></g><g><path d="M41.556923088899865,-364.3997936928385A366.76175850270977,366.76175850270977,0,0,1,75.80137131912367,-358.8430570683239L61.89156051169748,-292.99412918593936A299.4597218325029,299.4597218325029,0,0,0,33.93108561596322,-297.53118564097144Z" style="stroke: rgb(255, 255, 255); fill: rgb(191, 105, 105); fill-rule: evenodd;"></path><text transform="translate(53.35494240602948,-328.80999883802167)rotate(-80.78313253012048)" text-anchor="middle" dx="6" dy=".35em" style="font-size: 11px; font-family: Arial, Helvetica;">3500.0</text><title>3500.0: none</title></g><g><path d="M75.80137131912367,-358.8430570683239A366.76175850270977,366.76175850270977,0,0,1,112.67527961020095,-349.02502612959296L91.9989805568046,-284.9777404930229A299.4597218325029,299.4597218325029,0,0,0,61.89156051169748,-292.99412918593936Z" style="stroke: rgb(255, 255, 255); fill: rgb(191, 105, 105); fill-rule: evenodd;"></path><text transform="translate(85.70784702992279,-321.89583745756306)rotate(-75.09036144578313)" text-anchor="middle" dx="6" dy=".35em" style="font-size: 11px; font-family: Arial, Helvetica;">0.0</text><title>0.0: none</title></g><g><path d="M112.67527961020095,-349.02502612959296A366.76175850270977,366.76175850270977,0,0,1,125.80219888402891,-344.5112396656214L102.71706526199941,-281.2922492781523A299.4597218325029,299.4597218325029,0,0,0,91.9989805568046,-284.9777404930229Z" style="stroke: rgb(255, 255, 255); fill: rgb(191, 105, 105); fill-rule: evenodd;"></path><text transform="translate(108.31777833682295,-315.00797467871416)rotate(-71.02409638554217)" text-anchor="middle" dx="6" dy=".35em" style="font-size: 11px; font-family: Arial, Helvetica;">500.0</text><title>500.0: none</title></g><g><path d="M125.80219888402891,-344.5112396656214A366.76175850270977,366.76175850270977,0,0,1,148.32950918968024,-335.42889589829406L121.11053710406163,-273.87654664531925A299.4597218325029,299.4597218325029,0,0,0,102.71706526199941,-281.2922492781523Z" style="stroke: rgb(255, 255, 255); fill: rgb(191, 105, 105); fill-rule: evenodd;"></path><text transform="translate(124.55813411532819,-308.9466563028615)rotate(-68.04216867469879)" text-anchor="middle" dx="6" dy=".35em" style="font-size: 11px; font-family: Arial, Helvetica;">1000.0</text><title>1000.0: none</title></g><g><path d="M148.32950918968024,-335.42889589829406A366.76175850270977,366.76175850270977,0,0,1,160.91639364769642,-329.57563889859887L131.3876852285642,-269.09738231777686A299.4597218325029,299.4597218325029,0,0,0,121.11053710406163,-273.87654664531925Z" style="stroke: rgb(255, 255, 255); fill: rgb(191, 105, 105); fill-rule: evenodd;"></path><text transform="translate(140.46118470646329,-302.0487060158797)rotate(-65.06024096385542)" text-anchor="middle" dx="6" dy=".35em" style="font-size: 11px; font-family: Arial, Helvetica;">1500.0</text><title>1500.0: none</title></g><g><path d="M160.91639364769642,-329.57563889859887A366.76175850270977,366.76175850270977,0,0,1,182.37811289198135,-318.2018407205711L148.9111056123536,-259.8107149932552A299.4597218325029,299.4597218325029,0,0,0,131.3876852285642,-269.09738231777686Z" style="stroke: rgb(255, 255, 255); fill: rgb(191, 105, 105); fill-rule: evenodd;"></path><text transform="translate(155.98386442449458,-294.33280356462376)rotate(-62.078313253012034)" text-anchor="middle" dx="6" dy=".35em" style="font-size: 11px; font-family: Arial, Helvetica;">2000.0</text><title>2000.0: none</title></g><g><path d="M182.37811289198135,-318.2018407205711A366.76175850270977,366.76175850270977,0,0,1,188.3671452285489,-314.69351137010557L153.80113003822663,-256.9461760738317A299.4597218325029,299.4597218325029,0,0,0,148.9111056123536,-259.8107149932552Z" style="stroke: rgb(255, 255, 255); fill: rgb(191, 105, 105); fill-rule: evenodd;"></path><text transform="translate(168.3719115096196,-287.4259289444975)rotate(-59.638554216867455)" text-anchor="middle" dx="6" dy=".35em" style="font-size: 11px; font-family: Arial, Helvetica;">2334.0</text><title>2334.0: none</title></g><g><path d="M188.3671452285489,-314.69351137010557A366.76175850270977,366.76175850270977,0,0,1,203.03993603502028,-305.432434222194L165.78141356437825,-249.384538246854A299.4597218325029,299.4597218325029,0,0,0,153.80113003822663,-256.9461760738317Z" style="stroke: rgb(255, 255, 255); fill: rgb(191, 105, 105); fill-rule: evenodd;"></path><text transform="translate(177.79715450592658,-281.692983697866)rotate(-57.74096385542168)" text-anchor="middle" dx="6" dy=".35em" style="font-size: 11px; font-family: Arial, Helvetica;">2834.0</text><title>2834.0: none</title></g><g><path d="M203.03993603502028,-305.432434222194A366.76175850270977,366.76175850270977,0,0,1,217.2582999350779,-295.48776389102767L177.39065907516152,-241.2647489230033A299.4597218325029,299.4597218325029,0,0,0,165.78141356437825,-249.384538246854Z" style="stroke: rgb(255, 255, 255); fill: rgb(191, 105, 105); fill-rule: evenodd;"></path><text transform="translate(190.92099754072422,-272.9687489678357)rotate(-55.0301204819277)" text-anchor="middle" dx="6" dy=".35em" style="font-size: 11px; font-family: Arial, Helvetica;">3334.0</text><title>3334.0: none</title></g><g><path d="M217.2582999350779,-295.48776389102767A366.76175850270977,366.76175850270977,0,0,1,222.81124194078623,-291.32342501900604L181.92461723691233,-237.86458047217323A299.4597218325029,299.4597218325029,0,0,0,177.39065907516152,-241.2647489230033Z" style="stroke: rgb(255, 255, 255); fill: rgb(191, 105, 105); fill-rule: evenodd;"></path><text transform="translate(199.85515212904818,-266.49706073892355)rotate(-53.13253012048193)" text-anchor="middle" dx="6" dy=".35em" style="font-size: 11px; font-family: Arial, Helvetica;">3834.0</text><title>3834.0: none</title></g><g><path d="M222.81124194078623,-291.32342501900604A366.76175850270977,366.76175850270977,0,0,1,236.34018806722256,-280.45944983963346L192.97095549270298,-228.99418188293183A299.4597218325029,299.4597218325029,0,0,0,181.92461723691233,-237.86458047217323Z" style="stroke: rgb(255, 255, 255); fill: rgb(191, 105, 105); fill-rule: evenodd;"></path><text transform="translate(208.5701093582883,-259.7330835632654)rotate(-51.234939759036145)" text-anchor="middle" dx="6" dy=".35em" style="font-size: 11px; font-family: Arial, Helvetica;">3666.0</text><title>3666.0: none</title></g><g><path d="M236.34018806722256,-280.45944983963346A366.76175850270977,366.76175850270977,0,0,1,244.20554591363523,-273.638153123835L199.392993282072,-223.42461643698888A299.4597218325029,299.4597218325029,0,0,0,192.97095549270298,-228.99418188293183Z" style="stroke: rgb(255, 255, 255); fill: rgb(191, 105, 105); fill-rule: evenodd;"></path><text transform="translate(218.2494054564712,-251.6544500558402)rotate(-49.066265060240966)" text-anchor="middle" dx="6" dy=".35em" style="font-size: 11px; font-family: Arial, Helvetica;">1834.0</text><title>1834.0: none</title></g><g><path d="M244.20554591363523,-273.638153123835A366.76175850270977,366.76175850270977,0,0,1,246.78391028716922,-271.3151103852759L201.49821897744835,-221.52785998360636A299.4597218325029,299.4597218325029,0,0,0,199.392993282072,-223.42461643698888Z" style="stroke: rgb(255, 255, 255); fill: rgb(191, 105, 105); fill-rule: evenodd;"></path><text transform="translate(222.9726627692361,-247.47920492964056)rotate(-47.98192771084337)" text-anchor="middle" dx="6" dy=".35em" style="font-size: 11px; font-family: Arial, Helvetica;">2250.0</text><title>2250.0: none</title></g><g><path d="M246.78391028716922,-271.3151103852759A366.76175850270977,366.76175850270977,0,0,1,249.34017746415077,-268.9677739100835L203.58540238739155,-219.61126777732485A299.4597218325029,299.4597218325029,0,0,0,201.49821897744835,-221.52785998360636Z" style="stroke: rgb(255, 255, 255); fill: rgb(191, 105, 105); fill-rule: evenodd;"></path><text transform="translate(225.30444903205384,-245.35824922217958)rotate(-47.43975903614458)" text-anchor="middle" dx="6" dy=".35em" style="font-size: 11px; font-family: Arial, Helvetica;">2750.0</text><title>2750.0: none</title></g><g><path d="M249.34017746415077,-268.9677739100835A366.76175850270977,366.76175850270977,0,0,1,280.45944983963346,-236.3401880672225L228.99418188293183,-192.97095549270296A299.4597218325029,299.4597218325029,0,0,0,203.58540238739155,-219.61126777732485Z" style="stroke: rgb(255, 255, 255); fill: rgb(191, 105, 105); fill-rule: evenodd;"></path><text transform="translate(241.05062106050084,-229.9072928407391)rotate(-43.644578313253014)" text-anchor="middle" dx="6" dy=".35em" style="font-size: 11px; font-family: Arial, Helvetica;">3166.0</text><title>3166.0: none</title></g><g><path d="M280.45944983963346,-236.3401880672225A366.76175850270977,366.76175850270977,0,0,1,282.6832595946089,-233.6757630670476L230.809914944503,-190.79546158992179A299.4597218325029,299.4597218325029,0,0,0,228.99418188293183,-192.97095549270296Z" style="stroke: rgb(255, 255, 255); fill: rgb(191, 105, 105); fill-rule: evenodd;"></path><text transform="translate(255.73956396791058,-213.44798110198536)rotate(-39.84939759036144)" text-anchor="middle" dx="6" dy=".35em" style="font-size: 11px; font-family: Arial, Helvetica;">3750.0</text><title>3750.0: none</title></g><g><path d="M282.6832595946089,-233.6757630670476A366.76175850270977,366.76175850270977,0,0,1,289.2020338336671,-225.55791080445496L236.13247182253374,-184.16726297303848A299.4597218325029,299.4597218325029,0,0,0,230.809914944503,-190.79546158992179Z" style="stroke: rgb(255, 255, 255); fill: rgb(191, 105, 105); fill-rule: evenodd;"></path><text transform="translate(259.7330835632653,-208.5701093582883)rotate(-38.765060240963855)" text-anchor="middle" dx="6" dy=".35em" style="font-size: 11px; font-family: Arial, Helvetica;">2500.0</text><title>2500.0: none</title></g><g><path d="M289.2020338336671,-225.55791080445496A366.76175850270977,366.76175850270977,0,0,1,291.32342501900604,-222.81124194078618L237.86458047217323,-181.9246172369123A299.4597218325029,299.4597218325029,0,0,0,236.13247182253374,-184.16726297303848Z" style="stroke: rgb(255, 255, 255); fill: rgb(191, 105, 105); fill-rule: evenodd;"></path><text transform="translate(263.63357854424953,-203.61753725787847)rotate(-37.680722891566276)" text-anchor="middle" dx="6" dy=".35em" style="font-size: 11px; font-family: Arial, Helvetica;">1334.0</text><title>1334.0: none</title></g><g><path d="M291.32342501900604,-222.81124194078618A366.76175850270977,366.76175850270977,0,0,1,309.2200917818331,-197.22353393658352L252.47714769402438,-161.0323411377038A299.4597218325029,299.4597218325029,0,0,0,237.86458047217323,-181.9246172369123Z" style="stroke: rgb(255, 255, 255); fill: rgb(191, 105, 105); fill-rule: evenodd;"></path><text transform="translate(272.9687489678357,-190.92099754072416)rotate(-34.9698795180723)" text-anchor="middle" dx="6" dy=".35em" style="font-size: 11px; font-family: Arial, Helvetica;">666.0</text><title>666.0: none</title></g><g><path d="M309.2200917818331,-197.22353393658352A366.76175850270977,366.76175850270977,0,0,1,323.25026797087247,-173.2727669218655L263.9327385821886,-141.47662175958996A299.4597218325029,299.4597218325029,0,0,0,252.47714769402438,-161.0323411377038Z" style="stroke: rgb(255, 255, 255); fill: rgb(191, 105, 105); fill-rule: evenodd;"></path><text transform="translate(287.4259289444976,-168.3719115096195)rotate(-30.361445783132528)" text-anchor="middle" dx="6" dy=".35em" style="font-size: 11px; font-family: Arial, Helvetica;">1166.0</text><title>1166.0: none</title></g><g><path d="M323.25026797087247,-173.2727669218655A366.76175850270977,366.76175850270977,0,0,1,334.010312543462,-151.49686008171525L272.71827818633795,-123.69666827800663A299.4597218325029,299.4597218325029,0,0,0,263.9327385821886,-141.47662175958996Z" style="stroke: rgb(255, 255, 255); fill: rgb(191, 105, 105); fill-rule: evenodd;"></path><text transform="translate(298.64167159535697,-147.56665342055254)rotate(-26.295180722891573)" text-anchor="middle" dx="6" dy=".35em" style="font-size: 11px; font-family: Arial, Helvetica;">1666.0</text><title>1666.0: none</title></g><g><path d="M334.010312543462,-151.49686008171525A366.76175850270977,366.76175850270977,0,0,1,345.68621748621746,-122.53663346147363L282.2516146513349,-100.05074225968721A299.4597218325029,299.4597218325029,0,0,0,272.71827818633795,-123.69666827800663Z" style="stroke: rgb(255, 255, 255); fill: rgb(191, 105, 105); fill-rule: evenodd;"></path><text transform="translate(308.9466563028615,-124.55813411532817)rotate(-21.95783132530121)" text-anchor="middle" dx="6" dy=".35em" style="font-size: 11px; font-family: Arial, Helvetica;">2166.0</text><title>2166.0: none</title></g><g><path d="M345.68621748621746,-122.53663346147363A366.76175850270977,366.76175850270977,0,0,1,353.03883760567425,-99.38695408369436L288.2550038397317,-81.14910819815735A299.4597218325029,299.4597218325029,0,0,0,282.2516146513349,-100.05074225968721Z" style="stroke: rgb(255, 255, 255); fill: rgb(191, 105, 105); fill-rule: evenodd;"></path><text transform="translate(317.48202254105746,-100.83615709778914)rotate(-17.62048192771085)" text-anchor="middle" dx="6" dy=".35em" style="font-size: 11px; font-family: Arial, Helvetica;">2666.0</text><title>2666.0: none</title></g><g><path d="M353.03883760567425,-99.38695408369436A366.76175850270977,366.76175850270977,0,0,1,353.9634797254832,-96.04187899363191L289.00997096913756,-78.41786582417485A299.4597218325029,299.4597218325029,0,0,0,288.2550038397317,-81.14910819815735Z" style="stroke: rgb(255, 255, 255); fill: rgb(191, 105, 105); fill-rule: evenodd;"></path><text transform="translate(321.0704166626264,-88.74994512166188)rotate(-15.45180722891568)" text-anchor="middle" dx="6" dy=".35em" style="font-size: 11px; font-family: Arial, Helvetica;">834.0</text><title>834.0: none</title></g><g><path d="M353.9634797254832,-96.04187899363191A366.76175850270977,366.76175850270977,0,0,1,358.1097220341942,-79.1935255219274L292.39536363789796,-64.66124282026634A299.4597218325029,299.4597218325029,0,0,0,289.00997096913756,-78.41786582417485Z" style="stroke: rgb(255, 255, 255); fill: rgb(191, 105, 105); fill-rule: evenodd;"></path><text transform="translate(323.46013941311674,-79.60090091109282)rotate(-13.825301204819286)" text-anchor="middle" dx="6" dy=".35em" style="font-size: 11px; font-family: Arial, Helvetica;">166.0</text><title>166.0: none</title></g><g><path d="M358.1097220341942,-79.1935255219274A366.76175850270977,366.76175850270977,0,0,1,360.21327120756774,-68.99700534040039L294.1129043457708,-56.33581895468898A299.4597218325029,299.4597218325029,0,0,0,292.39536363789796,-64.66124282026634Z" style="stroke: rgb(255, 255, 255); fill: rgb(191, 105, 105); fill-rule: evenodd;"></path><text transform="translate(326.240678284686,-67.30367781450373)rotate(-11.656626506024104)" text-anchor="middle" dx="6" dy=".35em" style="font-size: 11px; font-family: Arial, Helvetica;">3916.0</text><title>3916.0: none</title></g><g><path d="M360.21327120756774,-68.9970053404003A366.76175850270977,366.76175850270977,0,0,1,363.9902475368279,45.00319097662688L297.1967926048567,36.744951563253345A299.4597218325029,299.4597218325029,0,0,0,294.1129043457708,-56.33581895468891Z" style="stroke: rgb(255, 255, 255); fill: rgb(174, 191, 105); fill-rule: evenodd;"></path><text transform="translate(332.9280653810187,-11.030344358298803)rotate(-1.8975903614457743)" text-anchor="middle" dx="6" dy=".35em" style="font-size: 11px; font-family: Arial, Helvetica;">0.0</text><title>0.0: none</title></g><g><path d="M363.9902475368279,45.00319097662688A366.76175850270977,366.76175850270977,0,0,1,358.1097220341942,79.19352552192747L292.3953636378979,64.6612428202664A299.4597218325029,299.4597218325029,0,0,0,297.1967926048567,36.744951563253345Z" style="stroke: rgb(255, 255, 255); fill: rgb(174, 191, 105); fill-rule: evenodd;"></path><text transform="translate(328.2904074415681,56.4639141121099)rotate(9.759036144578317)" text-anchor="middle" dx="6" dy=".35em" style="font-size: 11px; font-family: Arial, Helvetica;">500.0</text><title>500.0: none</title></g><g><path d="M358.1097220341942,79.19352552192747A366.76175850270977,366.76175850270977,0,0,1,349.0250261295929,112.67527961020109L284.97774049302285,91.99898055680472A299.4597218325029,299.4597218325029,0,0,0,292.3953636378979,64.6612428202664Z" style="stroke: rgb(255, 255, 255); fill: rgb(174, 191, 105); fill-rule: evenodd;"></path><text transform="translate(321.48672534731037,87.22987240890345)rotate(15.180722891566296)" text-anchor="middle" dx="6" dy=".35em" style="font-size: 11px; font-family: Arial, Helvetica;">1000.0</text><title>1000.0: none</title></g><g><path d="M349.0250261295929,112.67527961020109A366.76175850270977,366.76175850270977,0,0,1,336.81744472521285,145.14887677408385L275.0102920149497,118.5135616115393A299.4597218325029,299.4597218325029,0,0,0,284.97774049302285,91.99898055680472Z" style="stroke: rgb(255, 255, 255); fill: rgb(174, 191, 105); fill-rule: evenodd;"></path><text transform="translate(311.80655544330534,117.21534540149372)rotate(20.60240963855424)" text-anchor="middle" dx="6" dy=".35em" style="font-size: 11px; font-family: Arial, Helvetica;">1500.0</text><title>1500.0: none</title></g><g><path d="M336.81744472521285,145.14887677408385A366.76175850270977,366.76175850270977,0,0,1,321.59620459879505,176.32376098430396L262.58220149424966,143.96774798000177A299.4597218325029,299.4597218325029,0,0,0,275.0102920149497,118.5135616115393Z" style="stroke: rgb(255, 255, 255); fill: rgb(174, 191, 105); fill-rule: evenodd;"></path><text transform="translate(299.3365106081877,146.1520394381304)rotate(26.024096385542208)" text-anchor="middle" dx="6" dy=".35em" style="font-size: 11px; font-family: Arial, Helvetica;">2000.0</text><title>2000.0: none</title></g><g><path d="M321.59620459879505,176.32376098430396A366.76175850270977,366.76175850270977,0,0,1,303.4974971020215,205.9209963864988L247.80466870392303,168.13378949080692A299.4597218325029,299.4597218325029,0,0,0,262.58220149424966,143.96774798000177Z" style="stroke: rgb(255, 255, 255); fill: rgb(174, 191, 105); fill-rule: evenodd;"></path><text transform="translate(284.18816599927226,173.78104476892923)rotate(31.445783132530146)" text-anchor="middle" dx="6" dy=".35em" style="font-size: 11px; font-family: Arial, Helvetica;">2500.0</text><title>2500.0: none</title></g><g><path d="M303.4974971020215,205.9209963864988A366.76175850270977,366.76175850270977,0,0,1,282.68325959460867,233.67576306704785L230.80991494450282,190.79546158992198A299.4597218325029,299.4597218325029,0,0,0,247.80466870392303,168.13378949080692Z" style="stroke: rgb(255, 255, 255); fill: rgb(174, 191, 105); fill-rule: evenodd;"></path><text transform="translate(266.49706073892344,199.85515212904838)rotate(36.86746987951814)" text-anchor="middle" dx="6" dy=".35em" style="font-size: 11px; font-family: Arial, Helvetica;">3000.0</text><title>3000.0: none</title></g><g><path d="M282.68325959460867,233.67576306704785A366.76175850270977,366.76175850270977,0,0,1,264.2010626345752,254.38550666805153L215.71926431860263,207.70489643203135A299.4597218325029,299.4597218325029,0,0,0,230.80991494450282,190.79546158992198Z" style="stroke: rgb(255, 255, 255); fill: rgb(174, 191, 105); fill-rule: evenodd;"></path><text transform="translate(248.5313847804118,221.79926959785377)rotate(41.74698795180726)" text-anchor="middle" dx="6" dy=".35em" style="font-size: 11px; font-family: Arial, Helvetica;">3334.0</text><title>3334.0: none</title></g><g><path d="M264.2010626345752,254.38550666805153A366.76175850270977,366.76175850270977,0,0,1,228.28438306177588,287.0547473045941L186.39341824913532,234.37921971327347A299.4597218325029,299.4597218325029,0,0,0,215.71926431860263,207.70489643203135Z" style="stroke: rgb(255, 255, 255); fill: rgb(174, 191, 105); fill-rule: evenodd;"></path><text transform="translate(224.14106463230854,246.42148518444125)rotate(47.71084337349402)" text-anchor="middle" dx="6" dy=".35em" style="font-size: 11px; font-family: Arial, Helvetica;">3500.0</text><title>3500.0: none</title></g><g><path d="M228.28438306177588,287.0547473045941A366.76175850270977,366.76175850270977,0,0,1,205.92099638649844,303.4974971020217L168.1337894908066,247.80466870392323A299.4597218325029,299.4597218325029,0,0,0,186.39341824913532,234.37921971327347Z" style="stroke: rgb(255, 255, 255); fill: rgb(174, 191, 105); fill-rule: evenodd;"></path><text transform="translate(197.32447950511943,268.37625640701566)rotate(53.67469879518075)" text-anchor="middle" dx="6" dy=".35em" style="font-size: 11px; font-family: Arial, Helvetica;">3834.0</text><title>3834.0: none</title></g><g><path d="M205.92099638649844,303.4974971020217A366.76175850270977,366.76175850270977,0,0,1,179.35896689913213,319.91334528724497L146.4459832318706,261.2081526201866A299.4597218325029,299.4597218325029,0,0,0,168.1337894908066,247.80466870392323Z" style="stroke: rgb(255, 255, 255); fill: rgb(174, 191, 105); fill-rule: evenodd;"></path><text transform="translate(175.12367819854435,283.3627755179272)rotate(58.28313253012054)" text-anchor="middle" dx="6" dy=".35em" style="font-size: 11px; font-family: Arial, Helvetica;">166.0</text><title>166.0: none</title></g><g><path d="M179.35896689913213,319.91334528724497A366.76175850270977,366.76175850270977,0,0,1,112.67527961020063,349.0250261295931L91.99898055680436,284.977740493023A299.4597218325029,299.4597218325029,0,0,0,146.4459832318706,261.2081526201866Z" style="stroke: rgb(255, 255, 255); fill: rgb(174, 191, 105); fill-rule: evenodd;"></path><text transform="translate(133.2771128934291,305.2867117871374)rotate(66.41566265060244)" text-anchor="middle" dx="6" dy=".35em" style="font-size: 11px; font-family: Arial, Helvetica;">666.0</text><title>666.0: none</title></g><g><path d="M112.67527961020063,349.0250261295931A366.76175850270977,366.76175850270977,0,0,1,41.556923088899545,364.39979369283856L33.93108561596296,297.53118564097144A299.4597218325029,299.4597218325029,0,0,0,91.99898055680436,284.977740493023Z" style="stroke: rgb(255, 255, 255); fill: rgb(174, 191, 105); fill-rule: evenodd;"></path><text transform="translate(70.38771286802925,325.58921218648874)rotate(77.80120481927715)" text-anchor="middle" dx="6" dy=".35em" style="font-size: 11px; font-family: Arial, Helvetica;">1166.0</text><title>1166.0: none</title></g><g><path d="M41.556923088899545,364.39979369283856A366.76175850270977,366.76175850270977,0,0,1,-31.197029180216614,365.4325284786902L-25.472267660749367,298.37441006262446A299.4597218325029,299.4597218325029,0,0,0,33.93108561596296,297.53118564097144Z" style="stroke: rgb(255, 255, 255); fill: rgb(174, 191, 105); fill-rule: evenodd;"></path><text transform="translate(4.727996002302275,333.0771851520496)rotate(89.18674698795186)" text-anchor="middle" dx="6" dy=".35em" style="font-size: 11px; font-family: Arial, Helvetica;">1666.0</text><title>1666.0: none</title></g><g><path d="M-31.197029180216614,365.4325284786902A366.76175850270977,366.76175850270977,0,0,1,-102.72312999934746,352.0825841519815L-83.87308442666153,287.47422616429134A299.4597218325029,299.4597218325029,0,0,0,-25.472267660749367,298.37441006262446Z" style="stroke: rgb(255, 255, 255); fill: rgb(174, 191, 105); fill-rule: evenodd;"></path><text transform="translate(-61.117805144508466,327.455919337746)rotate(280.57228915662654)" text-anchor="middle" dx="6" dy=".35em" style="font-size: 11px; font-family: Arial, Helvetica;">2166.0</text><title>2166.0: none</title></g><g><path d="M-102.72312999934746,352.0825841519815A366.76175850270977,366.76175850270977,0,0,1,-170.2062578998686,324.8753872975351L-138.9728276277455,265.25964295600824A299.4597218325029,299.4597218325029,0,0,0,-83.87308442666153,287.47422616429134Z" style="stroke: rgb(255, 255, 255); fill: rgb(174, 191, 105); fill-rule: evenodd;"></path><text transform="translate(-124.55813411532827,308.94665630286147)rotate(291.95783132530124)" text-anchor="middle" dx="6" dy=".35em" style="font-size: 11px; font-family: Arial, Helvetica;">2666.0</text><title>2666.0: none</title></g><g><path d="M-170.2062578998686,324.8753872975351A366.76175850270977,366.76175850270977,0,0,1,-230.99041458259845,284.8817577012598L-188.6028837337696,232.60498113175956A299.4597218325029,299.4597218325029,0,0,0,-138.9728276277455,265.25964295600824Z" style="stroke: rgb(255, 255, 255); fill: rgb(174, 191, 105); fill-rule: evenodd;"></path><text transform="translate(-183.0961089325701,278.27788289543054)rotate(303.3433734939759)" text-anchor="middle" dx="6" dy=".35em" style="font-size: 11px; font-family: Arial, Helvetica;">3166.0</text><title>3166.0: none</title></g><g><path d="M-230.99041458259845,284.8817577012598A366.76175850270977,366.76175850270977,0,0,1,-275.9366941189589,241.6053152120212L-225.30136730062972,197.26991380458082A299.4597218325029,299.4597218325029,0,0,0,-188.6028837337696,232.60498113175956Z" style="stroke: rgb(255, 255, 255); fill: rgb(174, 191, 105); fill-rule: evenodd;"></path><text transform="translate(-231.04520155004127,239.96016347658897)rotate(313.91566265060237)" text-anchor="middle" dx="6" dy=".35em" style="font-size: 11px; font-family: Arial, Helvetica;">3666.0</text><title>3666.0: none</title></g><g><path d="M-275.9366941189589,241.6053152120212A366.76175850270977,366.76175850270977,0,0,1,-289.2020338336672,225.55791080445488L-236.13247182253383,184.16726297303842A299.4597218325029,299.4597218325029,0,0,0,-225.30136730062972,197.26991380458082Z" style="stroke: rgb(255, 255, 255); fill: rgb(105, 191, 139); fill-rule: evenodd;"></path><text transform="translate(-256.74658726955585,212.2356123284847)rotate(320.4216867469879)" text-anchor="middle" dx="6" dy=".35em" style="font-size: 11px; font-family: Arial, Helvetica;">0.0</text><title>0.0: none</title></g><g><path d="M-289.2020338336672,225.55791080445488A366.76175850270977,366.76175850270977,0,0,1,-301.53538461276287,208.78361843409357L-246.20261056504773,170.47111060515638A299.4597218325029,299.4597218325029,0,0,0,-236.13247182253383,184.16726297303842Z" style="stroke: rgb(255, 255, 255); fill: rgb(105, 191, 139); fill-rule: evenodd;"></path><text transform="translate(-268.3762564070155,197.32447950511968)rotate(323.6746987951807)" text-anchor="middle" dx="6" dy=".35em" style="font-size: 11px; font-family: Arial, Helvetica;">3500.0</text><title>3500.0: none</title></g><g><path d="M-301.53538461276287,208.78361843409357A366.76175850270977,366.76175850270977,0,0,1,-303.4974971020217,205.92099638649844L-247.80466870392323,168.1337894908066A299.4597218325029,299.4597218325029,0,0,0,-246.20261056504773,170.47111060515638Z" style="stroke: rgb(255, 255, 255); fill: rgb(105, 191, 139); fill-rule: evenodd;"></path><text transform="translate(-274.76311557231514,188.32948663447556)rotate(325.57228915662654)" text-anchor="middle" dx="6" dy=".35em" style="font-size: 11px; font-family: Arial, Helvetica;">166.0</text><title>166.0: none</title></g><g><path d="M-303.4974971020217,205.92099638649844A366.76175850270977,366.76175850270977,0,0,1,-305.4324342221941,203.0399360350202L-249.38453824685408,165.7814135643782A299.4597218325029,299.4597218325029,0,0,0,-247.80466870392323,168.1337894908066Z" style="stroke: rgb(255, 255, 255); fill: rgb(105, 139, 191); fill-rule: evenodd;"></path><text transform="translate(-276.5328797034686,185.72111257990426)rotate(326.1144578313253)" text-anchor="middle" dx="6" dy=".35em" style="font-size: 11px; font-family: Arial, Helvetica;">166.0</text><title>166.0: none</title></g><g><path d="M-305.4324342221941,203.0399360350202A366.76175850270977,366.76175850270977,0,0,1,-319.91334528724497,179.35896689913216L-261.2081526201866,146.4459832318706A299.4597218325029,299.4597218325029,0,0,0,-249.38453824685408,165.7814135643782Z" style="stroke: rgb(255, 255, 255); fill: rgb(105, 139, 191); fill-rule: evenodd;"></path><text transform="translate(-284.18816599927254,173.78104476892878)rotate(328.5542168674699)" text-anchor="middle" dx="6" dy=".35em" style="font-size: 11px; font-family: Arial, Helvetica;">666.0</text><title>666.0: none</title></g><g><path d="M-319.91334528724497,179.35896689913216A366.76175850270977,366.76175850270977,0,0,1,-332.5618216816204,154.65064584346914L-271.5355903501392,126.27172356945721A299.4597218325029,299.4597218325029,0,0,0,-261.2081526201866,146.4459832318706Z" style="stroke: rgb(255, 255, 255); fill: rgb(105, 139, 191); fill-rule: evenodd;"></path><text transform="translate(-296.5171064341565,151.79054913572728)rotate(332.8915662650603)" text-anchor="middle" dx="6" dy=".35em" style="font-size: 11px; font-family: Arial, Helvetica;">1000.0</text><title>1000.0: none</title></g><g><path d="M-332.5618216816204,154.65064584346914A366.76175850270977,366.76175850270977,0,0,1,-343.30541407797074,129.0564998934693L-280.3076968086404,105.37419090951713A299.4597218325029,299.4597218325029,0,0,0,-271.5355903501392,126.27172356945721Z" style="stroke: rgb(255, 255, 255); fill: rgb(105, 139, 191); fill-rule: evenodd;"></path><text transform="translate(-307.14762373576866,128.93061098312228)rotate(337.22891566265065)" text-anchor="middle" dx="6" dy=".35em" style="font-size: 11px; font-family: Arial, Helvetica;">1166.0</text><title>1166.0: none</title></g><g><path d="M-343.30541407797074,129.0564998934693A366.76175850270977,366.76175850270977,0,0,1,-352.08258415198173,102.72312999934675L-287.4742261642915,83.87308442666097A299.4597218325029,299.4597218325029,0,0,0,-280.3076968086404,105.37419090951713Z" style="stroke: rgb(255, 255, 255); fill: rgb(105, 139, 191); fill-rule: evenodd;"></path><text transform="translate(-316.01882726369735,105.33216996667237)rotate(341.5662650602411)" text-anchor="middle" dx="6" dy=".35em" style="font-size: 11px; font-family: Arial, Helvetica;">1666.0</text><title>1666.0: none</title></g><g><path d="M-352.08258415198173,102.72312999934675A366.76175850270977,366.76175850270977,0,0,1,-358.843057068324,75.80137131912313L-292.99412918593947,61.89156051169704A299.4597218325029,299.4597218325029,0,0,0,-287.4742261642915,83.87308442666097Z" style="stroke: rgb(255, 255, 255); fill: rgb(105, 139, 191); fill-rule: evenodd;"></path><text transform="translate(-323.07990356750446,81.13039581946192)rotate(345.9036144578314)" text-anchor="middle" dx="6" dy=".35em" style="font-size: 11px; font-family: Arial, Helvetica;">2000.0</text><title>2000.0: none</title></g><g><path d="M-358.843057068324,75.80137131912313A366.76175850270977,366.76175850270977,0,0,1,-363.5481094503564,48.445429248503L-296.83578836895475,39.555527342978756A299.4597218325029,299.4597218325029,0,0,0,-292.99412918593947,61.89156051169704Z" style="stroke: rgb(255, 255, 255); fill: rgb(105, 139, 191); fill-rule: evenodd;"></path><text transform="translate(-328.2904074415683,56.46391411210921)rotate(350.2409638554218)" text-anchor="middle" dx="6" dy=".35em" style="font-size: 11px; font-family: Arial, Helvetica;">2166.0</text><title>2166.0: none</title></g><g><path d="M-363.5481094503564,48.445429248503A366.76175850270977,366.76175850270977,0,0,1,-366.1707911841209,20.81199614633148L-298.97719903743507,16.992923695760666A299.4597218325029,299.4597218325029,0,0,0,-296.83578836895475,39.555527342978756Z" style="stroke: rgb(255, 255, 255); fill: rgb(105, 139, 191); fill-rule: evenodd;"></path><text transform="translate(-331.6204935915575,31.474012218055385)rotate(354.5783132530122)" text-anchor="middle" dx="6" dy=".35em" style="font-size: 11px; font-family: Arial, Helvetica;">2666.0</text><title>2666.0: none</title></g><g><path d="M-366.1707911841209,20.81199614633148A366.76175850270977,366.76175850270977,0,0,1,-366.69607978615477,-6.940646185046018L-299.40609538499604,-5.667013879519139A299.4597218325029,299.4597218325029,0,0,0,-298.97719903743507,16.992923695760666Z" style="stroke: rgb(255, 255, 255); fill: rgb(105, 139, 191); fill-rule: evenodd;"></path><text transform="translate(-333.05108758557543,6.303830032281181)rotate(358.9156626506026)" text-anchor="middle" dx="6" dy=".35em" style="font-size: 11px; font-family: Arial, Helvetica;">3000.0</text><title>3000.0: none</title></g><g><path d="M-366.69607978615477,-6.940646185046018A366.76175850270977,366.76175850270977,0,0,1,-365.1209664509154,-34.65353312361566L-298.1200207321994,-28.294491312497893A299.4597218325029,299.4597218325029,0,0,0,-299.40609538499604,-5.667013879519139Z" style="stroke: rgb(255, 255, 255); fill: rgb(105, 139, 191); fill-rule: evenodd;"></path><text transform="translate(-332.57399511077784,-18.902459921047765)rotate(363.2530120481929)" text-anchor="middle" dx="6" dy=".35em" style="font-size: 11px; font-family: Arial, Helvetica;">3166.0</text><title>3166.0: none</title></g><g><path d="M-365.1209664509154,-34.65353312361566A366.76175850270977,366.76175850270977,0,0,1,-361.4544732849457,-62.16792776265308L-295.1263415981903,-50.7599004615681A299.4597218325029,299.4597218325029,0,0,0,-298.1200207321994,-28.294491312497893Z" style="stroke: rgb(255, 255, 255); fill: rgb(105, 139, 191); fill-rule: evenodd;"></path><text transform="translate(-330.19194890965537,-44.00047829574198)rotate(367.5903614457833)" text-anchor="middle" dx="6" dy=".35em" style="font-size: 11px; font-family: Arial, Helvetica;">3666.0</text><title>3666.0: none</title></g><g><path d="M-361.4544732849457,-62.16792776265308A366.76175850270977,366.76175850270977,0,0,1,-356.5469243475893,-85.95625770282481L-291.1193446701033,-70.18299052369899A299.4597218325029,299.4597218325029,0,0,0,-295.1263415981903,-50.7599004615681Z" style="stroke: rgb(255, 255, 255); fill: rgb(105, 139, 191); fill-rule: evenodd;"></path><text transform="translate(-326.2406782846858,-67.30367781450455)rotate(371.6566265060243)" text-anchor="middle" dx="6" dy=".35em" style="font-size: 11px; font-family: Arial, Helvetica;">0.0</text><title>0.0: none</title></g><g><path d="M-356.54692434758954,-85.95625770282388A366.76175850270977,366.76175850270977,0,0,1,-338.1758346926272,-141.95524763088153L-276.11941277891003,-115.90597433536347A299.4597218325029,299.4597218325029,0,0,0,-291.1193446701035,-70.18299052369821Z" style="stroke: rgb(255, 255, 255); fill: rgb(174, 105, 191); fill-rule: evenodd;"></path><text transform="translate(-316.51364791282134,-103.83581222260992)rotate(378.16265060240966)" text-anchor="middle" dx="6" dy=".35em" style="font-size: 11px; font-family: Arial, Helvetica;">166.0</text><title>166.0: none</title></g><g><path d="M-338.1758346926272,-141.95524763088153A366.76175850270977,366.76175850270977,0,0,1,-284.8817577012598,-230.99041458259845L-232.60498113175956,-188.6028837337696A299.4597218325029,299.4597218325029,0,0,0,-276.11941277891003,-115.90597433536347Z" style="stroke: rgb(255, 255, 255); fill: rgb(174, 105, 191); fill-rule: evenodd;"></path><text transform="translate(-285.81984372196865,-171.0841376333877)rotate(390.90361445783134)" text-anchor="middle" dx="6" dy=".35em" style="font-size: 11px; font-family: Arial, Helvetica;">1166.0</text><title>1166.0: none</title></g><g><path d="M-284.8817577012598,-230.99041458259845A366.76175850270977,366.76175850270977,0,0,1,-249.34017746415088,-268.9677739100834L-203.58540238739167,-219.61126777732477A299.4597218325029,299.4597218325029,0,0,0,-232.60498113175956,-188.6028837337696Z" style="stroke: rgb(255, 255, 255); fill: rgb(174, 105, 191); fill-rule: evenodd;"></path><text transform="translate(-243.21532397281254,-227.61606138366062)rotate(403.1024096385542)" text-anchor="middle" dx="6" dy=".35em" style="font-size: 11px; font-family: Arial, Helvetica;">2000.0</text><title>2000.0: none</title></g><g><path d="M-249.34017746415088,-268.9677739100834A366.76175850270977,366.76175850270977,0,0,1,-208.78361843409357,-301.53538461276287L-170.47111060515638,-246.20261056504773A299.4597218325029,299.4597218325029,0,0,0,-203.58540238739167,-219.61126777732477Z" style="stroke: rgb(255, 255, 255); fill: rgb(174, 105, 191); fill-rule: evenodd;"></path><text transform="translate(-208.57010935828853,-259.73308356326515)rotate(411.23493975903614)" text-anchor="middle" dx="6" dy=".35em" style="font-size: 11px; font-family: Arial, Helvetica;">2166.0</text><title>2166.0: none</title></g><g><path d="M-208.78361843409357,-301.53538461276287A366.76175850270977,366.76175850270977,0,0,1,-115.97287996311859,-347.94321176459255L-94.69145997022792,-284.0944427628016A299.4597218325029,299.4597218325029,0,0,0,-170.47111060515638,-246.20261056504773Z" style="stroke: rgb(255, 255, 255); fill: rgb(174, 105, 191); fill-rule: evenodd;"></path><text transform="translate(-148.97796408025238,-297.9401474013087)rotate(423.433734939759)" text-anchor="middle" dx="6" dy=".35em" style="font-size: 11px; font-family: Arial, Helvetica;">3166.0</text><title>3166.0: none</title></g><g><path d="M-115.97287996311859,-347.94321176459255A366.76175850270977,366.76175850270977,0,0,1,-82.5785886834352,-357.344321615794L-67.42513531786186,-291.7704168132335A299.4597218325029,299.4597218325029,0,0,0,-94.69145997022792,-284.0944427628016Z" style="stroke: rgb(255, 255, 255); fill: rgb(174, 105, 191); fill-rule: evenodd;"></path><text transform="translate(-90.26803114092633,-320.6469207227029)rotate(434.2771084337349)" text-anchor="middle" dx="6" dy=".35em" style="font-size: 11px; font-family: Arial, Helvetica;">3666.0</text><title>3666.0: none</title></g><g><path d="M-82.5785886834352,-357.344321615794A366.76175850270977,366.76175850270977,0,0,1,-55.31658445184081,-362.56621875814955L-45.165802073527836,-296.03407797592314A299.4597218325029,299.4597218325029,0,0,0,-67.42513531786186,-291.7704168132335Z" style="stroke: rgb(255, 255, 255); fill: rgb(174, 105, 191); fill-rule: evenodd;"></path><text transform="translate(-62.66641214754488,-327.1630877766692)rotate(439.15662650602405)" text-anchor="middle" dx="6" dy=".35em" style="font-size: 11px; font-family: Arial, Helvetica;">666.0</text><title>666.0: none</title></g><g><path d="M-55.31658445184081,-362.56621875814955A366.76175850270977,366.76175850270977,0,0,1,-27.73773183393799,-365.71136943320283L-22.647763205100514,-298.6020827486066A299.4597218325029,299.4597218325029,0,0,0,-45.165802073527836,-296.03407797592314Z" style="stroke: rgb(255, 255, 255); fill: rgb(174, 105, 191); fill-rule: evenodd;"></path><text transform="translate(-37.74400435243173,-330.9654896669049)rotate(443.4939759036145)" text-anchor="middle" dx="6" dy=".35em" style="font-size: 11px; font-family: Arial, Helvetica;">1666.0</text><title>1666.0: none</title></g><g><path d="M-27.73773183393799,-365.71136943320283A366.76175850270977,366.76175850270977,0,0,1,-6.73730420399997e-14,-366.76175850270977L-5.5009858472359716e-14,-299.4597218325029A299.4597218325029,299.4597218325029,0,0,0,-22.647763205100514,-298.6020827486066Z" style="stroke: rgb(255, 255, 255); fill: rgb(174, 105, 191); fill-rule: evenodd;"></path><text transform="translate(-12.605402318458308,-332.872151204333)rotate(447.8313253012048)" text-anchor="middle" dx="6" dy=".35em" style="font-size: 11px; font-family: Arial, Helvetica;">2666.0</text><title>2666.0: none</title></g><g><path d="M2.5931895971945205e-14,-423.5A423.5,423.5,0,0,1,47.98580146413782,-420.7726379624088L41.556923088899865,-364.3997936928385A366.76175850270977,366.76175850270977,0,0,0,2.2457680679999903e-14,-366.76175850270977Z" style="stroke: rgb(255, 255, 255); fill: rgb(191, 105, 105); fill-rule: evenodd;"></path><text transform="translate(22.421809650624613,-394.49420045159087)rotate(-86.74698795180723)" text-anchor="middle" dx="6" dy=".35em" style="font-size: 11px; font-family: Arial, Helvetica;">12</text><title>12: 12</title></g><g><path d="M47.98580146413782,-420.7726379624088A423.5,423.5,0,0,1,87.52788427207766,-414.35627119045006L75.80137131912367,-358.8430570683239A366.76175850270977,366.76175850270977,0,0,0,41.556923088899865,-364.3997936928385Z" style="stroke: rgb(255, 255, 255); fill: rgb(191, 105, 105); fill-rule: evenodd;"></path><text transform="translate(63.28881889155607,-390.0294054827925)rotate(-80.78313253012048)" text-anchor="middle" dx="6" dy=".35em" style="font-size: 11px; font-family: Arial, Helvetica;">10</text><title>10: 10</title></g><g><path d="M87.52788427207766,-414.35627119045006A423.5,423.5,0,0,1,130.10620602793173,-403.01938557967327L112.67527961020095,-349.02502612959296A366.76175850270977,366.76175850270977,0,0,0,75.80137131912367,-358.8430570683239Z" style="stroke: rgb(255, 255, 255); fill: rgb(191, 105, 105); fill-rule: evenodd;"></path><text transform="translate(101.66534089724716,-381.82793271078964)rotate(-75.09036144578313)" text-anchor="middle" dx="6" dy=".35em" style="font-size: 11px; font-family: Arial, Helvetica;">11</text><title>11: 11</title></g><g><path d="M130.10620602793173,-403.01938557967327A423.5,423.5,0,0,1,145.26386678068184,-397.8073139195964L125.80219888402891,-344.5112396656214A366.76175850270977,366.76175850270977,0,0,0,112.67527961020095,-349.02502612959296Z" style="stroke: rgb(255, 255, 255); fill: rgb(191, 105, 105); fill-rule: evenodd;"></path><text transform="translate(128.48489655796547,-373.6576549388995)rotate(-71.02409638554217)" text-anchor="middle" dx="6" dy=".35em" style="font-size: 11px; font-family: Arial, Helvetica;">4</text><title>4: 4</title></g><g><path d="M145.26386678068184,-397.8073139195964A423.5,423.5,0,0,1,171.2761641188539,-387.319926681718L148.32950918968024,-335.42889589829406A366.76175850270977,366.76175850270977,0,0,0,125.80219888402891,-344.5112396656214Z" style="stroke: rgb(255, 255, 255); fill: rgb(191, 105, 105); fill-rule: evenodd;"></path><text transform="translate(147.7489588781621,-366.4678115310647)rotate(-68.04216867469879)" text-anchor="middle" dx="6" dy=".35em" style="font-size: 11px; font-family: Arial, Helvetica;">7</text><title>7: 7</title></g><g><path d="M171.2761641188539,-387.319926681718A423.5,423.5,0,0,1,185.81024637904264,-380.56116767289785L160.91639364769642,-329.57563889859887A366.76175850270977,366.76175850270977,0,0,0,148.32950918968024,-335.42889589829406Z" style="stroke: rgb(255, 255, 255); fill: rgb(191, 105, 105); fill-rule: evenodd;"></path><text transform="translate(166.6129149298111,-358.28556811088595)rotate(-65.06024096385542)" text-anchor="middle" dx="6" dy=".35em" style="font-size: 11px; font-family: Arial, Helvetica;">4</text><title>4: 4</title></g><g><path d="M185.81024637904264,-380.56116767289785A423.5,423.5,0,0,1,210.59210514496277,-367.42783679331234L182.37811289198135,-318.2018407205711A366.76175850270977,366.76175850270977,0,0,0,160.91639364769642,-329.57563889859887Z" style="stroke: rgb(255, 255, 255); fill: rgb(191, 105, 105); fill-rule: evenodd;"></path><text transform="translate(185.02568085334985,-349.13308230917204)rotate(-62.078313253012034)" text-anchor="middle" dx="6" dy=".35em" style="font-size: 11px; font-family: Arial, Helvetica;">7</text><title>7: 7</title></g><g><path d="M210.59210514496277,-367.42783679331234A423.5,423.5,0,0,1,217.5076440083681,-363.376767003518L188.3671452285489,-314.69351137010557A366.76175850270977,366.76175850270977,0,0,0,182.37811289198135,-318.2018407205711Z" style="stroke: rgb(255, 255, 255); fill: rgb(191, 105, 105); fill-rule: evenodd;"></path><text transform="translate(199.7201933583797,-340.9402529811348)rotate(-59.638554216867455)" text-anchor="middle" dx="6" dy=".35em" style="font-size: 11px; font-family: Arial, Helvetica;">2</text><title>2: 2</title></g><g><path d="M217.5076440083681,-363.376767003518A423.5,423.5,0,0,1,234.4503234521267,-352.68299623485274L203.03993603502028,-305.432434222194A366.76175850270977,366.76175850270977,0,0,0,188.3671452285489,-314.69351137010557Z" style="stroke: rgb(255, 255, 255); fill: rgb(191, 105, 105); fill-rule: evenodd;"></path><text transform="translate(210.90027284310182,-334.13992077070645)rotate(-57.74096385542168)" text-anchor="middle" dx="6" dy=".35em" style="font-size: 11px; font-family: Arial, Helvetica;">5</text><title>5: 5</title></g><g><path d="M234.4503234521267,-352.68299623485274A423.5,423.5,0,0,1,250.86827590239534,-341.1998800494508L217.2582999350779,-295.48776389102767A366.76175850270977,366.76175850270977,0,0,0,203.03993603502028,-305.432434222194Z" style="stroke: rgb(255, 255, 255); fill: rgb(191, 105, 105); fill-rule: evenodd;"></path><text transform="translate(226.4675752809853,-323.7913665993892)rotate(-55.0301204819277)" text-anchor="middle" dx="6" dy=".35em" style="font-size: 11px; font-family: Arial, Helvetica;">5</text><title>5: 5</title></g><g><path d="M250.86827590239534,-341.1998800494508A423.5,423.5,0,0,1,257.2802610259755,-336.39131571193377L222.81124194078623,-291.32342501900604A366.76175850270977,366.76175850270977,0,0,0,217.2582999350779,-295.48776389102767Z" style="stroke: rgb(255, 255, 255); fill: rgb(191, 105, 105); fill-rule: evenodd;"></path><text transform="translate(237.0651331864307,-316.1147487309769)rotate(-53.13253012048193)" text-anchor="middle" dx="6" dy=".35em" style="font-size: 11px; font-family: Arial, Helvetica;">2</text><title>2: 2</title></g><g><path d="M257.2802610259755,-336.39131571193377A423.5,423.5,0,0,1,272.90214240187544,-323.84667772337343L236.34018806722256,-280.45944983963346A366.76175850270977,366.76175850270977,0,0,0,222.81124194078623,-291.32342501900604Z" style="stroke: rgb(255, 255, 255); fill: rgb(191, 105, 105); fill-rule: evenodd;"></path><text transform="translate(247.4026825278148,-308.09142217203987)rotate(-51.234939759036145)" text-anchor="middle" dx="6" dy=".35em" style="font-size: 11px; font-family: Arial, Helvetica;">5</text><title>5: 5</title></g><g><path d="M272.90214240187544,-323.84667772337343A423.5,423.5,0,0,1,281.98427534167365,-315.9701227331964L244.20554591363523,-273.638153123835A366.76175850270977,366.76175850270977,0,0,0,236.34018806722256,-280.45944983963346Z" style="stroke: rgb(255, 255, 255); fill: rgb(191, 105, 105); fill-rule: evenodd;"></path><text transform="translate(258.88411592706467,-298.5086703240141)rotate(-49.066265060240966)" text-anchor="middle" dx="6" dy=".35em" style="font-size: 11px; font-family: Arial, Helvetica;">3</text><title>3: 3</title></g><g><path d="M281.98427534167365,-315.9701227331964A423.5,423.5,0,0,1,284.9615140719312,-313.28770403230413L246.78391028716922,-271.3151103852759A366.76175850270977,366.76175850270977,0,0,0,244.20554591363523,-273.638153123835Z" style="stroke: rgb(255, 255, 255); fill: rgb(191, 105, 105); fill-rule: evenodd;"></path><text transform="translate(264.4867717104962,-293.55605823778984)rotate(-47.98192771084337)" text-anchor="middle" dx="6" dy=".35em" style="font-size: 11px; font-family: Arial, Helvetica;">1</text><title>1: 1</title></g><g><path d="M284.9615140719312,-313.28770403230413A423.5,423.5,0,0,1,287.913237157433,-310.57723334064224L249.34017746415077,-268.9677739100835A366.76175850270977,366.76175850270977,0,0,0,246.78391028716922,-271.3151103852759Z" style="stroke: rgb(255, 255, 255); fill: rgb(191, 105, 105); fill-rule: evenodd;"></path><text transform="translate(267.25270101013336,-291.04021292724667)rotate(-47.43975903614458)" text-anchor="middle" dx="6" dy=".35em" style="font-size: 11px; font-family: Arial, Helvetica;">1</text><title>1: 1</title></g><g><path d="M287.913237157433,-310.57723334064224A423.5,423.5,0,0,1,323.84667772337343,-272.9021424018754L280.45944983963346,-236.3401880672225A366.76175850270977,366.76175850270977,0,0,0,249.34017746415077,-268.9677739100835Z" style="stroke: rgb(255, 255, 255); fill: rgb(191, 105, 105); fill-rule: evenodd;"></path><text transform="translate(285.930570103495,-272.7125241316195)rotate(-43.644578313253014)" text-anchor="middle" dx="6" dy=".35em" style="font-size: 11px; font-family: Arial, Helvetica;">13</text><title>13: 13</title></g><g><path d="M323.84667772337343,-272.9021424018754A423.5,423.5,0,0,1,326.4145120446966,-269.82552941970226L282.6832595946089,-233.6757630670476A366.76175850270977,366.76175850270977,0,0,0,280.45944983963346,-236.3401880672225Z" style="stroke: rgb(255, 255, 255); fill: rgb(191, 105, 105); fill-rule: evenodd;"></path><text transform="translate(303.3543701387548,-253.18873959097814)rotate(-39.84939759036144)" text-anchor="middle" dx="6" dy=".35em" style="font-size: 11px; font-family: Arial, Helvetica;">1</text><title>1: 1</title></g><g><path d="M326.4145120446966,-269.82552941970226A423.5,423.5,0,0,1,333.9417441681099,-260.45184104160336L289.2020338336671,-225.55791080445496A366.76175850270977,366.76175850270977,0,0,0,282.6832595946089,-233.6757630670476Z" style="stroke: rgb(255, 255, 255); fill: rgb(191, 105, 105); fill-rule: evenodd;"></path><text transform="translate(308.0914221720398,-247.4026825278148)rotate(-38.765060240963855)" text-anchor="middle" dx="6" dy=".35em" style="font-size: 11px; font-family: Arial, Helvetica;">3</text><title>3: 3</title></g><g><path d="M333.9417441681099,-260.45184104160336A423.5,423.5,0,0,1,336.39131571193377,-257.28026102597545L291.32342501900604,-222.81124194078618A366.76175850270977,366.76175850270977,0,0,0,289.2020338336671,-225.55791080445496Z" style="stroke: rgb(255, 255, 255); fill: rgb(191, 105, 105); fill-rule: evenodd;"></path><text transform="translate(312.71812982660634,-241.52801704087778)rotate(-37.680722891566276)" text-anchor="middle" dx="6" dy=".35em" style="font-size: 11px; font-family: Arial, Helvetica;">1</text><title>1: 1</title></g><g><path d="M336.39131571193377,-257.28026102597545A423.5,423.5,0,0,1,357.05660645816425,-227.73412081763158L309.2200917818331,-197.22353393658352A366.76175850270977,366.76175850270977,0,0,0,291.32342501900604,-222.81124194078618Z" style="stroke: rgb(255, 255, 255); fill: rgb(191, 105, 105); fill-rule: evenodd;"></path><text transform="translate(323.7913665993892,-226.46757528098527)rotate(-34.9698795180723)" text-anchor="middle" dx="6" dy=".35em" style="font-size: 11px; font-family: Arial, Helvetica;">9</text><title>9: 9</title></g><g><path d="M357.05660645816425,-227.73412081763158A423.5,423.5,0,0,1,373.2572584572038,-200.07815725114065L323.25026797087247,-173.2727669218655A366.76175850270977,366.76175850270977,0,0,0,309.2200917818331,-197.22353393658352Z" style="stroke: rgb(255, 255, 255); fill: rgb(191, 105, 105); fill-rule: evenodd;"></path><text transform="translate(340.9402529811349,-199.7201933583796)rotate(-30.361445783132528)" text-anchor="middle" dx="6" dy=".35em" style="font-size: 11px; font-family: Arial, Helvetica;">8</text><title>8: 8</title></g><g><path d="M373.2572584572038,-200.07815725114065A423.5,423.5,0,0,1,385.68188771815767,-174.93350589912276L334.010312543462,-151.49686008171525A366.76175850270977,366.76175850270977,0,0,0,323.25026797087247,-173.2727669218655Z" style="stroke: rgb(255, 255, 255); fill: rgb(191, 105, 105); fill-rule: evenodd;"></path><text transform="translate(354.24419584668516,-175.04131354307236)rotate(-26.295180722891573)" text-anchor="middle" dx="6" dy=".35em" style="font-size: 11px; font-family: Arial, Helvetica;">7</text><title>7: 7</title></g><g><path d="M385.68188771815767,-174.93350589912276A423.5,423.5,0,0,1,399.1640614416224,-141.4931166291446L345.68621748621746,-122.53663346147363A366.76175850270977,366.76175850270977,0,0,0,334.010312543462,-151.49686008171525Z" style="stroke: rgb(255, 255, 255); fill: rgb(191, 105, 105); fill-rule: evenodd;"></path><text transform="translate(366.4678115310647,-147.74895887816209)rotate(-21.95783132530121)" text-anchor="middle" dx="6" dy=".35em" style="font-size: 11px; font-family: Arial, Helvetica;">9</text><title>9: 9</title></g><g><path d="M399.1640614416224,-141.4931166291446A423.5,423.5,0,0,1,407.6541358520572,-114.76216938831583L353.03883760567425,-99.38695408369436A366.76175850270977,366.76175850270977,0,0,0,345.68621748621746,-122.53663346147363Z" style="stroke: rgb(255, 255, 255); fill: rgb(191, 105, 105); fill-rule: evenodd;"></path><text transform="translate(376.5923327780643,-119.61031155684061)rotate(-17.62048192771085)" text-anchor="middle" dx="6" dy=".35em" style="font-size: 11px; font-family: Arial, Helvetica;">7</text><title>7: 7</title></g><g><path d="M407.6541358520572,-114.76216938831583A423.5,423.5,0,0,1,408.72182060560874,-110.8996093809017L353.9634797254832,-96.04187899363191A366.76175850270977,366.76175850270977,0,0,0,353.03883760567425,-99.38695408369436Z" style="stroke: rgb(255, 255, 255); fill: rgb(191, 105, 105); fill-rule: evenodd;"></path><text transform="translate(380.84883115347697,-105.27383125439664)rotate(-15.45180722891568)" text-anchor="middle" dx="6" dy=".35em" style="font-size: 11px; font-family: Arial, Helvetica;">1</text><title>1: 1</title></g><g><path d="M408.72182060560874,-110.8996093809017A423.5,423.5,0,0,1,413.50948883172816,-91.44480655632056L358.1097220341942,-79.1935255219274A366.76175850270977,366.76175850270977,0,0,0,353.9634797254832,-96.04187899363191Z" style="stroke: rgb(255, 255, 255); fill: rgb(191, 105, 105); fill-rule: evenodd;"></path><text transform="translate(383.68348383112135,-94.42137455662481)rotate(-13.825301204819286)" text-anchor="middle" dx="6" dy=".35em" style="font-size: 11px; font-family: Arial, Helvetica;">5</text><title>5: 5</title></g><g><path d="M413.50948883172816,-91.44480655632056A423.5,423.5,0,0,1,415.93845819472983,-79.67087921311642L360.21327120756774,-68.99700534040039A366.76175850270977,366.76175850270977,0,0,0,358.1097220341942,-79.1935255219274Z" style="stroke: rgb(255, 255, 255); fill: rgb(191, 105, 105); fill-rule: evenodd;"></path><text transform="translate(386.98171663070906,-79.83459608151325)rotate(-11.656626506024104)" text-anchor="middle" dx="6" dy=".35em" style="font-size: 11px; font-family: Arial, Helvetica;">3</text><title>3: 3</title></g><g><path d="M415.93845819472983,-79.67087921311634A423.5,423.5,0,0,1,420.29973479557225,51.96520884949533L363.9902475368279,45.00319097662688A366.76175850270977,366.76175850270977,0,0,0,360.21327120756774,-68.9970053404003Z" style="stroke: rgb(255, 255, 255); fill: rgb(174, 191, 105); fill-rule: evenodd;"></path><text transform="translate(394.9141932057321,-13.084026238682256)rotate(-1.8975903614457743)" text-anchor="middle" dx="6" dy=".35em" style="font-size: 11px; font-family: Arial, Helvetica;">33</text><title>33: 33</title></g><g><path d="M420.29973479557225,51.96520884949533A423.5,423.5,0,0,1,413.5094888317281,91.44480655632066L358.1097220341942,79.19352552192747A366.76175850270977,366.76175850270977,0,0,0,363.9902475368279,45.00319097662688Z" style="stroke: rgb(255, 255, 255); fill: rgb(174, 191, 105); fill-rule: evenodd;"></path><text transform="translate(389.4130740933308,66.97663371005468)rotate(9.759036144578317)" text-anchor="middle" dx="6" dy=".35em" style="font-size: 11px; font-family: Arial, Helvetica;">10</text><title>10: 10</title></g><g><path d="M413.5094888317281,91.44480655632066A423.5,423.5,0,0,1,403.01938557967327,130.1062060279319L349.0250261295929,112.67527961020109A366.76175850270977,366.76175850270977,0,0,0,358.1097220341942,79.19352552192747Z" style="stroke: rgb(255, 255, 255); fill: rgb(174, 191, 105); fill-rule: evenodd;"></path><text transform="translate(381.342650165546,103.47074418726689)rotate(15.180722891566296)" text-anchor="middle" dx="6" dy=".35em" style="font-size: 11px; font-family: Arial, Helvetica;">10</text><title>10: 10</title></g><g><path d="M403.01938557967327,130.1062060279319A423.5,423.5,0,0,1,388.9232847597271,167.60348615617826L336.81744472521285,145.14887677408385A366.76175850270977,366.76175850270977,0,0,0,349.0250261295929,112.67527961020109Z" style="stroke: rgb(255, 255, 255); fill: rgb(174, 191, 105); fill-rule: evenodd;"></path><text transform="translate(369.8601802711575,139.03905490090065)rotate(20.60240963855424)" text-anchor="middle" dx="6" dy=".35em" style="font-size: 11px; font-family: Arial, Helvetica;">10</text><title>10: 10</title></g><g><path d="M388.9232847597271,167.60348615617826A423.5,423.5,0,0,1,371.3473105909526,203.60114173763023L321.59620459879505,176.32376098430396A366.76175850270977,366.76175850270977,0,0,0,336.81744472521285,145.14887677408385Z" style="stroke: rgb(255, 255, 255); fill: rgb(174, 191, 105); fill-rule: evenodd;"></path><text transform="translate(355.0684032857483,173.36332001336967)rotate(26.024096385542208)" text-anchor="middle" dx="6" dy=".35em" style="font-size: 11px; font-family: Arial, Helvetica;">10</text><title>10: 10</title></g><g><path d="M371.3473105909526,203.60114173763023A423.5,423.5,0,0,1,350.44872330045956,237.77708539108207L303.4974971020215,205.9209963864988A366.76175850270977,366.76175850270977,0,0,0,321.59620459879505,176.32376098430396Z" style="stroke: rgb(255, 255, 255); fill: rgb(174, 191, 105); fill-rule: evenodd;"></path><text transform="translate(337.099667959137,206.13642472835403)rotate(31.445783132530146)" text-anchor="middle" dx="6" dy=".35em" style="font-size: 11px; font-family: Arial, Helvetica;">10</text><title>10: 10</title></g><g><path d="M350.44872330045956,237.77708539108207A423.5,423.5,0,0,1,326.4145120446964,269.82552941970255L282.68325959460867,233.67576306704785A366.76175850270977,366.76175850270977,0,0,0,303.4974971020215,205.9209963864988Z" style="stroke: rgb(255, 255, 255); fill: rgb(174, 191, 105); fill-rule: evenodd;"></path><text transform="translate(316.11474873097677,237.06513318643093)rotate(36.86746987951814)" text-anchor="middle" dx="6" dy=".35em" style="font-size: 11px; font-family: Arial, Helvetica;">10</text><title>10: 10</title></g><g><path d="M326.4145120446964,269.82552941970255A423.5,423.5,0,0,1,305.0731092645143,293.73908150547777L264.2010626345752,254.38550666805153A366.76175850270977,366.76175850270977,0,0,0,282.68325959460867,233.67576306704785Z" style="stroke: rgb(255, 255, 255); fill: rgb(174, 191, 105); fill-rule: evenodd;"></path><text transform="translate(294.8041379285155,263.0949106276546)rotate(41.74698795180726)" text-anchor="middle" dx="6" dy=".35em" style="font-size: 11px; font-family: Arial, Helvetica;">8</text><title>8: 8</title></g><g><path d="M305.0731092645143,293.73908150547777A423.5,423.5,0,0,1,263.60010002500786,331.4622712569348L228.28438306177588,287.0547473045941A366.76175850270977,366.76175850270977,0,0,0,264.2010626345752,254.38550666805153Z" style="stroke: rgb(255, 255, 255); fill: rgb(174, 191, 105); fill-rule: evenodd;"></path><text transform="translate(265.8727121795499,292.3014072087902)rotate(47.71084337349402)" text-anchor="middle" dx="6" dy=".35em" style="font-size: 11px; font-family: Arial, Helvetica;">14</text><title>14: 14</title></g><g><path d="M263.60010002500786,331.4622712569348A423.5,423.5,0,0,1,237.77708539108164,350.44872330045985L205.92099638649844,303.4974971020217A366.76175850270977,366.76175850270977,0,0,0,228.28438306177588,287.0547473045941Z" style="stroke: rgb(255, 255, 255); fill: rgb(174, 191, 105); fill-rule: evenodd;"></path><text transform="translate(234.0632879187363,318.3438219702395)rotate(53.67469879518075)" text-anchor="middle" dx="6" dy=".35em" style="font-size: 11px; font-family: Arial, Helvetica;">8</text><title>8: 8</title></g><g><path d="M237.77708539108164,350.44872330045985A423.5,423.5,0,0,1,207.10589564157422,369.40411203788915L179.35896689913213,319.91334528724497A366.76175850270977,366.76175850270977,0,0,0,205.92099638649844,303.4974971020217Z" style="stroke: rgb(255, 255, 255); fill: rgb(174, 191, 105); fill-rule: evenodd;"></path><text transform="translate(207.7290360241926,336.1206023593444)rotate(58.28313253012054)" text-anchor="middle" dx="6" dy=".35em" style="font-size: 11px; font-family: Arial, Helvetica;">9</text><title>9: 9</title></g><g><path d="M207.10589564157422,369.40411203788915A423.5,423.5,0,0,1,130.10620602793136,403.01938557967344L112.67527961020063,349.0250261295931A366.76175850270977,366.76175850270977,0,0,0,179.35896689913213,319.91334528724497Z" style="stroke: rgb(255, 255, 255); fill: rgb(174, 191, 105); fill-rule: evenodd;"></path><text transform="translate(158.09127851946658,362.12644116941976)rotate(66.41566265060244)" text-anchor="middle" dx="6" dy=".35em" style="font-size: 11px; font-family: Arial, Helvetica;">21</text><title>21: 21</title></g><g><path d="M130.10620602793136,403.01938557967344A423.5,423.5,0,0,1,47.98580146413745,420.77263796240885L41.556923088899545,364.39979369283856A366.76175850270977,366.76175850270977,0,0,0,112.67527961020063,349.0250261295931Z" style="stroke: rgb(255, 255, 255); fill: rgb(174, 191, 105); fill-rule: evenodd;"></path><text transform="translate(83.49283142309486,386.2089574814435)rotate(77.80120481927715)" text-anchor="middle" dx="6" dy=".35em" style="font-size: 11px; font-family: Arial, Helvetica;">21</text><title>21: 21</title></g><g><path d="M47.98580146413745,420.77263796240885A423.5,423.5,0,0,1,-36.02322639022935,421.96513737563475L-31.197029180216614,365.4325284786902A366.76175850270977,366.76175850270977,0,0,0,41.556923088899545,364.39979369283856Z" style="stroke: rgb(255, 255, 255); fill: rgb(174, 191, 105); fill-rule: evenodd;"></path><text transform="translate(5.608276744684384,395.0910768036958)rotate(89.18674698795186)" text-anchor="middle" dx="6" dy=".35em" style="font-size: 11px; font-family: Arial, Helvetica;">21</text><title>21: 21</title></g><g><path d="M-36.02322639022935,421.96513737563475A423.5,423.5,0,0,1,-118.61445351424837,406.5499494742512L-102.72312999934746,352.0825841519815A366.76175850270977,366.76175850270977,0,0,0,-31.197029180216614,365.4325284786902Z" style="stroke: rgb(255, 255, 255); fill: rgb(174, 191, 105); fill-rule: evenodd;"></path><text transform="translate(-72.49700826971733,388.4232170325164)rotate(280.57228915662654)" text-anchor="middle" dx="6" dy=".35em" style="font-size: 11px; font-family: Arial, Helvetica;">21</text><title>21: 21</title></g><g><path d="M-118.61445351424837,406.5499494742512A423.5,423.5,0,0,1,-196.537257632496,375.13378461863164L-170.2062578998686,324.8753872975351A366.76175850270977,366.76175850270977,0,0,0,-102.72312999934746,352.0825841519815Z" style="stroke: rgb(255, 255, 255); fill: rgb(174, 191, 105); fill-rule: evenodd;"></path><text transform="translate(-147.74895887816223,366.4678115310646)rotate(291.95783132530124)" text-anchor="middle" dx="6" dy=".35em" style="font-size: 11px; font-family: Arial, Helvetica;">21</text><title>21: 21</title></g><g><path d="M-196.537257632496,375.13378461863164A423.5,423.5,0,0,1,-266.7247560789729,328.9531189920722L-230.99041458259845,284.8817577012598A366.76175850270977,366.76175850270977,0,0,0,-170.2062578998686,324.8753872975351Z" style="stroke: rgb(255, 255, 255); fill: rgb(174, 191, 105); fill-rule: evenodd;"></path><text transform="translate(-217.1858117622583,330.0889802873124)rotate(303.3433734939759)" text-anchor="middle" dx="6" dy=".35em" style="font-size: 11px; font-family: Arial, Helvetica;">21</text><title>21: 21</title></g><g><path d="M-266.7247560789729,328.9531189920722A423.5,423.5,0,0,1,-318.6242492577527,278.9817875506096L-275.9366941189589,241.6053152120212A366.76175850270977,366.76175850270977,0,0,0,-230.99041458259845,284.8817577012598Z" style="stroke: rgb(255, 255, 255); fill: rgb(174, 191, 105); fill-rule: evenodd;"></path><text transform="translate(-274.0622940867645,284.6370859495449)rotate(313.91566265060237)" text-anchor="middle" dx="6" dy=".35em" style="font-size: 11px; font-family: Arial, Helvetica;">18</text><title>18: 18</title></g><g><path d="M-318.6242492577527,278.9817875506096A423.5,423.5,0,0,1,-333.94174416811,260.45184104160325L-289.2020338336672,225.55791080445488A366.76175850270977,366.76175850270977,0,0,0,-275.9366941189589,241.6053152120212Z" style="stroke: rgb(255, 255, 255); fill: rgb(105, 191, 139); fill-rule: evenodd;"></path><text transform="translate(-304.5488858196527,251.75064624337497)rotate(320.4216867469879)" text-anchor="middle" dx="6" dy=".35em" style="font-size: 11px; font-family: Arial, Helvetica;">6</text><title>6: 6</title></g><g><path d="M-333.94174416811,260.45184104160325A423.5,423.5,0,0,1,-348.18307095275196,241.08255661061608L-301.53538461276287,208.78361843409357A366.76175850270977,366.76175850270977,0,0,0,-289.2020338336672,225.55791080445488Z" style="stroke: rgb(255, 255, 255); fill: rgb(105, 191, 139); fill-rule: evenodd;"></path><text transform="translate(-318.3438219702393,234.06328791873662)rotate(323.6746987951807)" text-anchor="middle" dx="6" dy=".35em" style="font-size: 11px; font-family: Arial, Helvetica;">6</text><title>6: 6</title></g><g><path d="M-348.18307095275196,241.08255661061608A423.5,423.5,0,0,1,-350.44872330045985,237.77708539108164L-303.4974971020217,205.92099638649844A366.76175850270977,366.76175850270977,0,0,0,-301.53538461276287,208.78361843409357Z" style="stroke: rgb(255, 255, 255); fill: rgb(105, 191, 139); fill-rule: evenodd;"></path><text transform="translate(-325.9198168972406,223.3935645707324)rotate(325.57228915662654)" text-anchor="middle" dx="6" dy=".35em" style="font-size: 11px; font-family: Arial, Helvetica;">1</text><title>1: 1</title></g><g><path d="M-350.44872330045985,237.77708539108164A423.5,423.5,0,0,1,-352.68299623485285,234.4503234521266L-305.4324342221941,203.0399360350202A366.76175850270977,366.76175850270977,0,0,0,-303.4974971020217,205.92099638649844Z" style="stroke: rgb(255, 255, 255); fill: rgb(105, 139, 191); fill-rule: evenodd;"></path><text transform="translate(-328.0190841164792,220.29955105114246)rotate(326.1144578313253)" text-anchor="middle" dx="6" dy=".35em" style="font-size: 11px; font-family: Arial, Helvetica;">1</text><title>1: 1</title></g><g><path d="M-352.68299623485285,234.4503234521266A423.5,423.5,0,0,1,-369.40411203788915,207.10589564157425L-319.91334528724497,179.35896689913216A366.76175850270977,366.76175850270977,0,0,0,-305.4324342221941,203.0399360350202Z" style="stroke: rgb(255, 255, 255); fill: rgb(105, 139, 191); fill-rule: evenodd;"></path><text transform="translate(-337.0996679591373,206.1364247283535)rotate(328.5542168674699)" text-anchor="middle" dx="6" dy=".35em" style="font-size: 11px; font-family: Arial, Helvetica;">8</text><title>8: 8</title></g><g><path d="M-369.40411203788915,207.10589564157425A423.5,423.5,0,0,1,-384.0093145401517,178.57518401615278L-332.5618216816204,154.65064584346914A366.76175850270977,366.76175850270977,0,0,0,-319.91334528724497,179.35896689913216Z" style="stroke: rgb(255, 255, 255); fill: rgb(105, 139, 191); fill-rule: evenodd;"></path><text transform="translate(-351.724069057169,180.05163421590103)rotate(332.8915662650603)" text-anchor="middle" dx="6" dy=".35em" style="font-size: 11px; font-family: Arial, Helvetica;">8</text><title>8: 8</title></g><g><path d="M-384.0093145401517,178.57518401615278A423.5,423.5,0,0,1,-396.4149464643447,149.02160990833082L-343.30541407797074,129.0564998934693A366.76175850270977,366.76175850270977,0,0,0,-332.5618216816204,154.65064584346914Z" style="stroke: rgb(255, 255, 255); fill: rgb(105, 139, 191); fill-rule: evenodd;"></path><text transform="translate(-364.3338265395284,152.93552424800995)rotate(337.22891566265065)" text-anchor="middle" dx="6" dy=".35em" style="font-size: 11px; font-family: Arial, Helvetica;">8</text><title>8: 8</title></g><g><path d="M-396.4149464643447,149.02160990833082A423.5,423.5,0,0,1,-406.54994947425143,118.61445351424754L-352.08258415198173,102.72312999934675A366.76175850270977,366.76175850270977,0,0,0,-343.30541407797074,129.0564998934693Z" style="stroke: rgb(255, 255, 255); fill: rgb(105, 139, 191); fill-rule: evenodd;"></path><text transform="translate(-374.8567128572871,124.94341344696093)rotate(341.5662650602411)" text-anchor="middle" dx="6" dy=".35em" style="font-size: 11px; font-family: Arial, Helvetica;">8</text><title>8: 8</title></g><g><path d="M-406.54994947425143,118.61445351424754A423.5,423.5,0,0,1,-414.3562711904502,87.52788427207703L-358.843057068324,75.80137131912313A366.76175850270977,366.76175850270977,0,0,0,-352.08258415198173,102.72312999934675Z" style="stroke: rgb(255, 255, 255); fill: rgb(105, 139, 191); fill-rule: evenodd;"></path><text transform="translate(-383.2324538705621,96.23563808847693)rotate(345.9036144578314)" text-anchor="middle" dx="6" dy=".35em" style="font-size: 11px; font-family: Arial, Helvetica;">8</text><title>8: 8</title></g><g><path d="M-414.3562711904502,87.52788427207703A423.5,423.5,0,0,1,-419.78919770908556,55.93996323526035L-363.5481094503564,48.445429248503A366.76175850270977,366.76175850270977,0,0,0,-358.843057068324,75.80137131912313Z" style="stroke: rgb(255, 255, 255); fill: rgb(105, 139, 191); fill-rule: evenodd;"></path><text transform="translate(-389.413074093331,66.97663371005386)rotate(350.2409638554218)" text-anchor="middle" dx="6" dy=".35em" style="font-size: 11px; font-family: Arial, Helvetica;">8</text><title>8: 8</title></g><g><path d="M-419.78919770908556,55.93996323526035A423.5,423.5,0,0,1,-422.8176097190609,24.03162315491587L-366.1707911841209,20.81199614633148A366.76175850270977,366.76175850270977,0,0,0,-363.5481094503564,48.445429248503Z" style="stroke: rgb(255, 255, 255); fill: rgb(105, 139, 191); fill-rule: evenodd;"></path><text transform="translate(-393.3631714926701,37.333993239097296)rotate(354.5783132530122)" text-anchor="middle" dx="6" dy=".35em" style="font-size: 11px; font-family: Arial, Helvetica;">8</text><title>8: 8</title></g><g><path d="M-422.8176097190609,24.03162315491587A423.5,423.5,0,0,1,-423.4241607506339,-8.014367886572535L-366.69607978615477,-6.940646185046018A366.76175850270977,366.76175850270977,0,0,0,-366.1707911841209,20.81199614633148Z" style="stroke: rgb(255, 255, 255); fill: rgb(105, 139, 191); fill-rule: evenodd;"></path><text transform="translate(-395.06012026839437,7.477507035807619)rotate(358.9156626506026)" text-anchor="middle" dx="6" dy=".35em" style="font-size: 11px; font-family: Arial, Helvetica;">8</text><title>8: 8</title></g><g><path d="M-423.4241607506339,-8.014367886572535A423.5,423.5,0,0,1,-421.60537653442464,-40.01445335458223L-365.1209664509154,-34.65353312361566A366.76175850270977,366.76175850270977,0,0,0,-366.69607978615477,-6.940646185046018Z" style="stroke: rgb(255, 255, 255); fill: rgb(105, 139, 191); fill-rule: evenodd;"></path><text transform="translate(-394.49420045159076,-22.421809650625683)rotate(363.2530120481929)" text-anchor="middle" dx="6" dy=".35em" style="font-size: 11px; font-family: Arial, Helvetica;">8</text><title>8: 8</title></g><g><path d="M-421.60537653442464,-40.01445335458223A423.5,423.5,0,0,1,-417.3716749017156,-71.78533965745793L-361.4544732849457,-62.16792776265308A366.76175850270977,366.76175850270977,0,0,0,-365.1209664509154,-34.65353312361566Z" style="stroke: rgb(255, 255, 255); fill: rgb(105, 139, 191); fill-rule: evenodd;"></path><text transform="translate(-391.6686535797208,-52.192696241882985)rotate(367.5903614457833)" text-anchor="middle" dx="6" dy=".35em" style="font-size: 11px; font-family: Arial, Helvetica;">8</text><title>8: 8</title></g><g><path d="M-417.3716749017156,-71.78533965745793A423.5,423.5,0,0,1,-411.70492550162766,-99.2537370465175L-356.5469243475893,-85.95625770282481A366.76175850270977,366.76175850270977,0,0,0,-361.4544732849457,-62.16792776265308Z" style="stroke: rgb(255, 255, 255); fill: rgb(105, 139, 191); fill-rule: evenodd;"></path><text transform="translate(-386.9817166307089,-79.83459608151425)rotate(371.6566265060243)" text-anchor="middle" dx="6" dy=".35em" style="font-size: 11px; font-family: Arial, Helvetica;">7</text><title>7: 7</title></g><g><path d="M-411.7049255016279,-99.2537370465164A423.5,423.5,0,0,1,-390.4918183864294,-163.9158008651389L-338.1758346926272,-141.95524763088153A366.76175850270977,366.76175850270977,0,0,0,-356.54692434758954,-85.95625770282388Z" style="stroke: rgb(255, 255, 255); fill: rgb(174, 105, 191); fill-rule: evenodd;"></path><text transform="translate(-375.44366156407966,-123.16845671398836)rotate(378.16265060240966)" text-anchor="middle" dx="6" dy=".35em" style="font-size: 11px; font-family: Arial, Helvetica;">17</text><title>17: 17</title></g><g><path d="M-390.4918183864294,-163.9158008651389A423.5,423.5,0,0,1,-328.9531189920722,-266.7247560789729L-284.8817577012598,-230.99041458259845A366.76175850270977,366.76175850270977,0,0,0,-338.1758346926272,-141.95524763088153Z" style="stroke: rgb(255, 255, 255); fill: rgb(174, 105, 191); fill-rule: evenodd;"></path><text transform="translate(-339.0351391868118,-202.93739461845846)rotate(390.90361445783134)" text-anchor="middle" dx="6" dy=".35em" style="font-size: 11px; font-family: Arial, Helvetica;">30</text><title>30: 30</title></g><g><path d="M-328.9531189920722,-266.7247560789729A423.5,423.5,0,0,1,-287.9132371574331,-310.5772333406421L-249.34017746415088,-268.9677739100834A366.76175850270977,366.76175850270977,0,0,0,-284.8817577012598,-230.99041458259845Z" style="stroke: rgb(255, 255, 255); fill: rgb(174, 105, 191); fill-rule: evenodd;"></path><text transform="translate(-288.49830768118255,-269.9947003239925)rotate(403.1024096385542)" text-anchor="middle" dx="6" dy=".35em" style="font-size: 11px; font-family: Arial, Helvetica;">15</text><title>15: 15</title></g><g><path d="M-287.9132371574331,-310.5772333406421A423.5,423.5,0,0,1,-241.08255661061608,-348.18307095275196L-208.78361843409357,-301.53538461276287A366.76175850270977,366.76175850270977,0,0,0,-249.34017746415088,-268.9677739100834Z" style="stroke: rgb(255, 255, 255); fill: rgb(174, 105, 191); fill-rule: evenodd;"></path><text transform="translate(-247.40268252781505,-308.09142217203964)rotate(411.23493975903614)" text-anchor="middle" dx="6" dy=".35em" style="font-size: 11px; font-family: Arial, Helvetica;">15</text><title>15: 15</title></g><g><path d="M-241.08255661061608,-348.18307095275196A423.5,423.5,0,0,1,-133.91394693080534,-401.7702139499809L-115.97287996311859,-347.94321176459255A366.76175850270977,366.76175850270977,0,0,0,-208.78361843409357,-301.53538461276287Z" style="stroke: rgb(255, 255, 255); fill: rgb(174, 105, 191); fill-rule: evenodd;"></path><text transform="translate(-176.7153887217454,-353.4120585476268)rotate(423.433734939759)" text-anchor="middle" dx="6" dy=".35em" style="font-size: 11px; font-family: Arial, Helvetica;">30</text><title>30: 30</title></g><g><path d="M-133.91394693080534,-401.7702139499809A423.5,423.5,0,0,1,-95.35354081136138,-412.62568055652577L-82.5785886834352,-357.344321615794A366.76175850270977,366.76175850270977,0,0,0,-115.97287996311859,-347.94321176459255Z" style="stroke: rgb(255, 255, 255); fill: rgb(174, 105, 191); fill-rule: evenodd;"></path><text transform="translate(-107.07456173600566,-380.34648672886556)rotate(434.2771084337349)" text-anchor="middle" dx="6" dy=".35em" style="font-size: 11px; font-family: Arial, Helvetica;">10</text><title>10: 10</title></g><g><path d="M-95.35354081136138,-412.62568055652577A423.5,423.5,0,0,1,-63.87408984784192,-418.6554079981648L-55.31658445184081,-362.56621875814955A366.76175850270977,366.76175850270977,0,0,0,-82.5785886834352,-357.344321615794Z" style="stroke: rgb(255, 255, 255); fill: rgb(174, 105, 191); fill-rule: evenodd;"></path><text transform="translate(-74.33394227675865,-388.07586470114876)rotate(439.15662650602405)" text-anchor="middle" dx="6" dy=".35em" style="font-size: 11px; font-family: Arial, Helvetica;">8</text><title>8: 8</title></g><g><path d="M-63.87408984784192,-418.6554079981648A423.5,423.5,0,0,1,-32.0287738820675,-422.2871151759326L-27.73773183393799,-365.71136943320283A366.76175850270977,366.76175850270977,0,0,0,-55.31658445184081,-362.56621875814955Z" style="stroke: rgb(255, 255, 255); fill: rgb(174, 105, 191); fill-rule: evenodd;"></path><text transform="translate(-44.77136227651907,-392.5862158276236)rotate(443.4939759036145)" text-anchor="middle" dx="6" dy=".35em" style="font-size: 11px; font-family: Arial, Helvetica;">8</text><title>8: 8</title></g><g><path d="M-32.0287738820675,-422.2871151759326A423.5,423.5,0,0,1,-7.779568791583561e-14,-423.5L-6.73730420399997e-14,-366.76175850270977A366.76175850270977,366.76175850270977,0,0,0,-27.73773183393799,-365.71136943320283Z" style="stroke: rgb(255, 255, 255); fill: rgb(174, 105, 191); fill-rule: evenodd;"></path><text transform="translate(-14.952335967622638,-394.8478686621724)rotate(447.8313253012048)" text-anchor="middle" dx="6" dy=".35em" style="font-size: 11px; font-family: Arial, Helvetica;">8</text><title>8: 8</title></g></g></svg>