<svg width="847" height="847" xmlns="http://www.w3.org/2000/svg" version="1.1"><g transform="translate(423.5, 423.5)"><g display="none"><path d="M1.2965947985972603e-14,-211.75A211.75,211.75,0,1,1,-1.2965947985972603e-14,211.75A211.75,211.75,0,1,1,1.2965947985972603e-14,-211.75Z" style="stroke: rgb(255, 255, 255); fill: rgb(191, 105, 105); fill-rule: evenodd;"></path><text transform="translate(6.482973992986301e-15,105.875)rotate(90)" text-anchor="middle" dx="6" dy=".35em" style="font-size: 11px; font-family: Arial, Helvetica;"></text><title>undefined: none</title></g><g><path d="M1.8336619490786572e-14,-299.4597218325029A299.4597218325029,299.4597218325029,0,0,1,120.25770960000966,-274.2520889287076L85.03504194812939,-193.92551183606523A211.75,211.75,0,0,0,1.2965947985972603e-14,-211.75Z" style="stroke: rgb(255, 255, 255); fill: rgb(191, 105, 105); fill-rule: evenodd;"></path><text transform="translate(52.43858150362296,-250.1680237238647)rotate(-78.16143497757848)" text-anchor="middle" dx="6" dy=".35em" style="font-size: 11px; font-family: Arial, Helvetica;">3</text><title>3: none</title></g><g><path d="M120.25770960000966,-274.2520889287076A299.4597218325029,299.4597218325029,0,0,1,291.1883613431883,69.89608871938992L205.90126490836715,49.42399831189716A211.75,211.75,0,0,0,85.03504194812939,-193.92551183606523Z" style="stroke: rgb(255, 255, 255); fill: rgb(191, 191, 105); fill-rule: evenodd;"></path><text transform="translate(228.9233684294361,-113.70108315639263)rotate(-26.41255605381167)" text-anchor="middle" dx="6" dy=".35em" style="font-size: 11px; font-family: Arial, Helvetica;">4</text><title>4: none</title></g><g><path d="M291.1883613431883,69.89608871938992A299.4597218325029,299.4597218325029,0,0,1,202.0094673219059,221.06175633139227L142.8422642072019,156.31426696293565A211.75,211.75,0,0,0,205.90126490836715,49.42399831189716Z" style="stroke: rgb(255, 255, 255); fill: rgb(105, 191, 105); fill-rule: evenodd;"></path><text transform="translate(220.1502492875805,129.87575856422325)rotate(30.538116591928237)" text-anchor="middle" dx="6" dy=".35em" style="font-size: 11px; font-family: Arial, Helvetica;">5</text><title>5: none</title></g><g><path d="M202.0094673219059,221.06175633139227A299.4597218325029,299.4597218325029,0,0,1,31.348682324841256,297.8143467271115L22.166865853158114,210.58654410538222A211.75,211.75,0,0,0,142.8422642072019,156.31426696293565Z" style="stroke: rgb(255, 255, 255); fill: rgb(105, 191, 191); fill-rule: evenodd;"></path><text transform="translate(104.84035645167677,233.1144452476114)rotate(65.78475336322867)" text-anchor="middle" dx="6" dy=".35em" style="font-size: 11px; font-family: Arial, Helvetica;">6</text><title>6: none</title></g><g><path d="M31.348682324841256,297.8143467271115A299.4597218325029,299.4597218325029,0,0,1,-299.3825905093129,6.79628574539689L-211.69545991833044,4.805699737451611A211.75,211.75,0,0,0,22.166865853158114,210.58654410538222Z" style="stroke: rgb(255, 255, 255); fill: rgb(105, 105, 191); fill-rule: evenodd;"></path><text transform="translate(-168.85137618286552,191.89334976796013)rotate(311.3452914798205)" text-anchor="middle" dx="6" dy=".35em" style="font-size: 11px; font-family: Arial, Helvetica;">7</text><title>7: none</title></g><g><path d="M-299.3825905093129,6.79628574539689A299.4597218325029,299.4597218325029,0,0,1,-5.869571834744228e-13,-299.4597218325029L-4.1504140470092085e-13,-211.75A211.75,211.75,0,0,0,-211.69545991833044,4.805699737451611Z" style="stroke: rgb(255, 255, 255); fill: rgb(191, 105, 191); fill-rule: evenodd;"></path><text transform="translate(-182.77938459638216,-178.67719913459598)rotate(404.3497757847533)" text-anchor="middle" dx="6" dy=".35em" style="font-size: 11px; font-family: Arial, Helvetica;">8</text><title>8: none</title></g><g><path d="M2.2457680679999903e-14,-366.76175850270977A366.76175850270977,366.76175850270977,0,0,1,13.775127530708982,-366.5029786529882L11.247344530667275,-299.24842896999223A299.4597218325029,299.4597218325029,0,0,0,1.8336619490786572e-14,-299.4597218325029Z" style="stroke: rgb(255, 255, 255); fill: rgb(191, 105, 105); fill-rule: evenodd;"></path><text transform="translate(6.256721767513033,-333.0519758952564)rotate(-88.9237668161435)" text-anchor="middle" dx="6" dy=".35em" style="font-size: 11px; font-family: Arial, Helvetica;">0.0</text><title>0.0: none</title></g><g><path d="M13.775127530708982,-366.5029786529882A366.76175850270977,366.76175850270977,0,0,1,27.530816145829466,-365.72700428372053L22.4788172532196,-298.6148485505976A299.4597218325029,299.4597218325029,0,0,0,11.247344530667275,-299.24842896999223Z" style="stroke: rgb(255, 255, 255); fill: rgb(191, 105, 105); fill-rule: evenodd;"></path><text transform="translate(18.761336064041732,-332.58198610884295)rotate(-86.7713004484305)" text-anchor="middle" dx="6" dy=".35em" style="font-size: 11px; font-family: Arial, Helvetica;">1000.0</text><title>1000.0: none</title></g><g><path d="M27.530816145829466,-365.72700428372053A366.76175850270977,366.76175850270977,0,0,1,54.90628551681841,-362.6285803832147L44.83079439592376,-296.0849960295699A299.4597218325029,299.4597218325029,0,0,0,22.4788172532196,-298.6148485505976Z" style="stroke: rgb(255, 255, 255); fill: rgb(191, 105, 105); fill-rule: evenodd;"></path><text transform="translate(37.463111559206666,-330.99740253861955)rotate(-83.54260089686099)" text-anchor="middle" dx="6" dy=".35em" style="font-size: 11px; font-family: Arial, Helvetica;">2000.0</text><title>2000.0: none</title></g><g><path d="M54.90628551681841,-362.6285803832147A366.76175850270977,366.76175850270977,0,0,1,68.48743509216901,-360.3105032253375L55.91975658926557,-294.1922939558365A299.4597218325029,299.4597218325029,0,0,0,44.83079439592376,-296.0849960295699Z" style="stroke: rgb(255, 255, 255); fill: rgb(191, 105, 105); fill-rule: evenodd;"></path><text transform="translate(56.04595500023921,-328.36201994615897)rotate(-80.31390134529148)" text-anchor="middle" dx="6" dy=".35em" style="font-size: 11px; font-family: Arial, Helvetica;">3000.0</text><title>3000.0: none</title></g><g><path d="M68.48743509216901,-360.3105032253375A366.76175850270977,366.76175850270977,0,0,1,95.3407651599109,-354.1529697725585L77.84540877610053,-289.1646889446944A299.4597218325029,299.4597218325029,0,0,0,55.91975658926557,-294.1922939558365Z" style="stroke: rgb(255, 255, 255); fill: rgb(191, 105, 105); fill-rule: evenodd;"></path><text transform="translate(74.45087246885358,-324.68420473382594)rotate(-77.08520179372196)" text-anchor="middle" dx="6" dy=".35em" style="font-size: 11px; font-family: Arial, Helvetica;">3500.0</text><title>3500.0: none</title></g><g><path d="M95.3407651599109,-354.1529697725585A366.76175850270977,366.76175850270977,0,0,1,108.57505129413445,-350.32220274552407L88.65115815571326,-286.03688076479006A299.4597218325029,299.4597218325029,0,0,0,77.84540877610053,-289.1646889446944Z" style="stroke: rgb(255, 255, 255); fill: rgb(191, 105, 105); fill-rule: evenodd;"></path><text transform="translate(92.61943489844046,-319.97563265677604)rotate(-73.85650224215247)" text-anchor="middle" dx="6" dy=".35em" style="font-size: 11px; font-family: Arial, Helvetica;">500.0</text><title>500.0: none</title></g><g><path d="M108.57505129413445,-350.32220274552407A366.76175850270977,366.76175850270977,0,0,1,128.1334212046148,-343.65100592083354L104.62050031614018,-280.58987136673437A299.4597218325029,299.4597218325029,0,0,0,88.65115815571326,-286.03688076479006Z" style="stroke: rgb(255, 255, 255); fill: rgb(191, 105, 105); fill-rule: evenodd;"></path><text transform="translate(107.53771546286491,-315.27512583145284)rotate(-71.16591928251121)" text-anchor="middle" dx="6" dy=".35em" style="font-size: 11px; font-family: Arial, Helvetica;">1500.0</text><title>1500.0: none</title></g><g><path d="M128.1334212046148,-343.65100592083354A366.76175850270977,366.76175850270977,0,0,1,137.7638969142365,-339.9048340447714L112.48375080575384,-277.53113483836205A299.4597218325029,299.4597218325029,0,0,0,104.62050031614018,-280.58987136673437Z" style="stroke: rgb(255, 255, 255); fill: rgb(191, 105, 105); fill-rule: evenodd;"></path><text transform="translate(120.76237583251434,-310.4500181966448)rotate(-68.7443946188341)" text-anchor="middle" dx="6" dy=".35em" style="font-size: 11px; font-family: Arial, Helvetica;">2500.0</text><title>2500.0: none</title></g><g><path d="M137.7638969142365,-339.9048340447714A366.76175850270977,366.76175850270977,0,0,1,144.12392714870617,-337.2572921720662L117.67669374679527,-275.36942595143523A299.4597218325029,299.4597218325029,0,0,0,112.48375080575384,-277.53113483836205Z" style="stroke: rgb(255, 255, 255); fill: rgb(191, 105, 105); fill-rule: evenodd;"></path><text transform="translate(128.01771319943185,-307.5292349065346)rotate(-67.39910313901346)" text-anchor="middle" dx="6" dy=".35em" style="font-size: 11px; font-family: Arial, Helvetica;">750.0</text><title>750.0: none</title></g><g><path d="M144.12392714870617,-337.2572921720662A366.76175850270977,366.76175850270977,0,0,1,147.2850130779109,-335.88883938386465L120.25770960000966,-274.2520889287076A299.4597218325029,299.4597218325029,0,0,0,117.67669374679527,-275.36942595143523Z" style="stroke: rgb(255, 255, 255); fill: rgb(191, 105, 105); fill-rule: evenodd;"></path><text transform="translate(132.33729504009682,-305.6952821953274)rotate(-66.59192825112108)" text-anchor="middle" dx="6" dy=".35em" style="font-size: 11px; font-family: Arial, Helvetica;">2750.0</text><title>2750.0: none</title></g><g><path d="M147.2850130779109,-335.88883938386465A366.76175850270977,366.76175850270977,0,0,1,208.36259715189126,-301.8264660498126L170.1273481677404,-246.44027756317038A299.4597218325029,299.4597218325029,0,0,0,120.25770960000966,-274.2520889287076Z" style="stroke: rgb(255, 255, 255); fill: rgb(191, 191, 105); fill-rule: evenodd;"></path><text transform="translate(162.24723088012053,-290.9271408561659)rotate(-60.85201793721974)" text-anchor="middle" dx="6" dy=".35em" style="font-size: 11px; font-family: Arial, Helvetica;">1500.0</text><title>1500.0: none</title></g><g><path d="M208.36259715189126,-301.8264660498126A366.76175850270977,366.76175850270977,0,0,1,269.7739933592956,-248.46766390614843L220.26954320108396,-202.8729980504696A299.4597218325029,299.4597218325029,0,0,0,170.1273481677404,-246.44027756317038Z" style="stroke: rgb(255, 255, 255); fill: rgb(191, 191, 105); fill-rule: evenodd;"></path><text transform="translate(218.4812741477905,-251.45317270173493)rotate(-49.013452914798215)" text-anchor="middle" dx="6" dy=".35em" style="font-size: 11px; font-family: Arial, Helvetica;">2000.0</text><title>2000.0: none</title></g><g><path d="M269.7739933592956,-248.46766390614843A366.76175850270977,366.76175850270977,0,0,1,299.35957040160685,-211.89156450638947L244.4260657009049,-173.00873794689372A299.4597218325029,299.4597218325029,0,0,0,220.26954320108396,-202.8729980504696Z" style="stroke: rgb(255, 255, 255); fill: rgb(191, 191, 105); fill-rule: evenodd;"></path><text transform="translate(258.9904775782995,-209.49152187803418)rotate(-38.96860986547085)" text-anchor="middle" dx="6" dy=".35em" style="font-size: 11px; font-family: Arial, Helvetica;">2500.0</text><title>2500.0: none</title></g><g><path d="M299.35957040160685,-211.89156450638947A366.76175850270977,366.76175850270977,0,0,1,324.55622961516434,-170.81405480225777L264.9990517995757,-139.4690917204447A299.4597218325029,299.4597218325029,0,0,0,244.4260657009049,-173.00873794689372Z" style="stroke: rgb(255, 255, 255); fill: rgb(191, 191, 105); fill-rule: evenodd;"></path><text transform="translate(283.9486480067759,-174.17212897055202)rotate(-31.524663677130057)" text-anchor="middle" dx="6" dy=".35em" style="font-size: 11px; font-family: Arial, Helvetica;">3000.0</text><title>3000.0: none</title></g><g><path d="M324.55622961516434,-170.81405480225777A366.76175850270977,366.76175850270977,0,0,1,353.62532235433895,-97.27959133235437L288.73386663178275,-79.42845371691381A299.4597218325029,299.4597218325029,0,0,0,264.9990517995757,-139.4690917204447Z" style="stroke: rgb(255, 255, 255); fill: rgb(191, 191, 105); fill-rule: evenodd;"></path><text transform="translate(309.78375220836244,-122.46139017142679)rotate(-21.569506726457416)" text-anchor="middle" dx="6" dy=".35em" style="font-size: 11px; font-family: Arial, Helvetica;">3500.0</text><title>3500.0: none</title></g><g><path d="M353.62532235433895,-97.27959133235437A366.76175850270977,366.76175850270977,0,0,1,364.33707741883256,-42.10322455470133L297.47997801767707,-34.377138894945915A299.4597218325029,299.4597218325029,0,0,0,288.73386663178275,-79.42845371691381Z" style="stroke: rgb(255, 255, 255); fill: rgb(191, 191, 105); fill-rule: evenodd;"></path><text transform="translate(327.0054724957934,-63.48374731231155)rotate(-10.986547085201808)" text-anchor="middle" dx="6" dy=".35em" style="font-size: 11px; font-family: Arial, Helvetica;">0.0</text><title>0.0: none</title></g><g><path d="M364.33707741883256,-42.10322455470133A366.76175850270977,366.76175850270977,0,0,1,366.7607475254902,-0.8611472252891043L299.45889637305976,-0.7031237651239519A299.4597218325029,299.4597218325029,0,0,0,297.47997801767707,-34.377138894945915Z" style="stroke: rgb(255, 255, 255); fill: rgb(191, 191, 105); fill-rule: evenodd;"></path><text transform="translate(332.53701821095416,-19.542178342703952)rotate(-3.3632286995515885)" text-anchor="middle" dx="6" dy=".35em" style="font-size: 11px; font-family: Arial, Helvetica;">1000.0</text><title>1000.0: none</title></g><g><path d="M366.7607475254902,-0.8611472252891043A366.76175850270977,366.76175850270977,0,0,1,364.6554399049672,39.250447739036666L297.7399198991016,32.04785637880584A299.4597218325029,299.4597218325029,0,0,0,299.45889637305976,-0.7031237651239519Z" style="stroke: rgb(255, 255, 255); fill: rgb(191, 191, 105); fill-rule: evenodd;"></path><text transform="translate(332.6528579949295,17.459704545489714)rotate(3.004484304932715)" text-anchor="middle" dx="6" dy=".35em" style="font-size: 11px; font-family: Arial, Helvetica;">500.0</text><title>500.0: none</title></g><g><path d="M364.6554399049672,39.250447739036666A366.76175850270977,366.76175850270977,0,0,1,361.08968963629576,64.25280957564124L294.82849699628923,52.462199333511336A299.4597218325029,299.4597218325029,0,0,0,297.7399198991016,32.04785637880584Z" style="stroke: rgb(255, 255, 255); fill: rgb(191, 191, 105); fill-rule: evenodd;"></path><text transform="translate(329.7739077565575,47.031212805752844)rotate(8.116591928251102)" text-anchor="middle" dx="6" dy=".35em" style="font-size: 11px; font-family: Arial, Helvetica;">750.0</text><title>750.0: none</title></g><g><path d="M361.08968963629576,64.25280957564124A366.76175850270977,366.76175850270977,0,0,1,359.1362402023187,74.39992253586335L293.2335122124318,60.747282371820106A299.4597218325029,299.4597218325029,0,0,0,294.82849699628923,52.462199333511336Z" style="stroke: rgb(255, 255, 255); fill: rgb(191, 191, 105); fill-rule: evenodd;"></path><text transform="translate(327.1044440719635,62.9718022878673)rotate(10.896860986547082)" text-anchor="middle" dx="6" dy=".35em" style="font-size: 11px; font-family: Arial, Helvetica;">2750.0</text><title>2750.0: none</title></g><g><path d="M359.1362402023187,74.39992253586335A366.76175850270977,366.76175850270977,0,0,1,358.66336550107087,76.64709875425967L292.84741163565576,62.5820940708828A299.4597218325029,299.4597218325029,0,0,0,293.2335122124318,60.747282371820106Z" style="stroke: rgb(255, 255, 255); fill: rgb(191, 191, 105); fill-rule: evenodd;"></path><text transform="translate(325.9717297911736,68.59443557578587)rotate(11.883408071748862)" text-anchor="middle" dx="6" dy=".35em" style="font-size: 11px; font-family: Arial, Helvetica;">3750.0</text><title>3750.0: none</title></g><g><path d="M358.66336550107087,76.64709875425967A366.76175850270977,366.76175850270977,0,0,1,358.4216541635525,77.76956555531704L292.65005515500053,63.49858437615102A299.4597218325029,299.4597218325029,0,0,0,292.84741163565576,62.5820940708828Z" style="stroke: rgb(255, 255, 255); fill: rgb(191, 191, 105); fill-rule: evenodd;"></path><text transform="translate(325.64602056586114,70.1244215992494)rotate(12.152466367712996)" text-anchor="middle" dx="6" dy=".35em" style="font-size: 11px; font-family: Arial, Helvetica;">250.0</text><title>250.0: none</title></g><g><path d="M358.4216541635525,77.76956555531704A366.76175850270977,366.76175850270977,0,0,1,358.17642998192906,78.8912701469579L292.44983044914414,64.4144523400367A299.4597218325029,299.4597218325029,0,0,0,292.65005515500053,63.49858437615102Z" style="stroke: rgb(255, 255, 255); fill: rgb(191, 191, 105); fill-rule: evenodd;"></path><text transform="translate(325.42489111853996,71.14355526326274)rotate(12.331838565022434)" text-anchor="middle" dx="6" dy=".35em" style="font-size: 11px; font-family: Arial, Helvetica;">1250.0</text><title>1250.0: none</title></g><g><path d="M358.17642998192906,78.8912701469579A366.76175850270977,366.76175850270977,0,0,1,357.9276953596108,80.01220153550096L292.24673948046296,65.32968898623669A299.4597218325029,299.4597218325029,0,0,0,292.44983044914414,64.4144523400367Z" style="stroke: rgb(255, 255, 255); fill: rgb(191, 191, 105); fill-rule: evenodd;"></path><text transform="translate(325.2005722241049,72.1619916585263)rotate(12.511210762331856)" text-anchor="middle" dx="6" dy=".35em" style="font-size: 11px; font-family: Arial, Helvetica;">1750.0</text><title>1750.0: none</title></g><g><path d="M357.9276953596108,80.01220153550096A366.76175850270977,366.76175850270977,0,0,1,357.6754527344136,81.1323487348433L292.04078423942525,66.24428534463549A299.4597218325029,299.4597218325029,0,0,0,292.24673948046296,65.32968898623669Z" style="stroke: rgb(255, 255, 255); fill: rgb(191, 191, 105); fill-rule: evenodd;"></path><text transform="translate(324.97306608107647,73.17972080347703)rotate(12.690582959641281)" text-anchor="middle" dx="6" dy=".35em" style="font-size: 11px; font-family: Arial, Helvetica;">2250.0</text><title>2250.0: none</title></g><g><path d="M357.6754527344136,81.1323487348433A366.76175850270977,366.76175850270977,0,0,1,356.6314521639906,85.60487618940454L291.1883613431882,69.89608871939011A299.4597218325029,299.4597218325029,0,0,0,292.04078423942525,66.24428534463549Z" style="stroke: rgb(255, 255, 255); fill: rgb(191, 191, 105); fill-rule: evenodd;"></path><text transform="translate(324.39037122051167,75.72088400454092)rotate(13.13901345291483)" text-anchor="middle" dx="6" dy=".35em" style="font-size: 11px; font-family: Arial, Helvetica;">3250.0</text><title>3250.0: none</title></g><g><path d="M356.6314521639907,85.6048761894043A366.76175850270977,366.76175850270977,0,0,1,350.57616852639325,107.75220443848892L286.2442429565424,87.97930651145155A299.4597218325029,299.4597218325029,0,0,0,291.1883613431883,69.89608871938992Z" style="stroke: rgb(255, 255, 255); fill: rgb(105, 191, 105); fill-rule: evenodd;"></path><text transform="translate(321.3175030730334,87.85116637769656)rotate(15.291479820627787)" text-anchor="middle" dx="6" dy=".35em" style="font-size: 11px; font-family: Arial, Helvetica;">0.0</text><title>0.0: none</title></g><g><path d="M350.57616852639325,107.75220443848892A366.76175850270977,366.76175850270977,0,0,1,334.3729185241359,150.69485345442808L273.0143447297821,123.04183260894528A299.4597218325029,299.4597218325029,0,0,0,286.2442429565424,87.97930651145155Z" style="stroke: rgb(255, 255, 255); fill: rgb(105, 191, 105); fill-rule: evenodd;"></path><text transform="translate(311.6626326272695,117.59748568251868)rotate(20.672645739910273)" text-anchor="middle" dx="6" dy=".35em" style="font-size: 11px; font-family: Arial, Helvetica;">1500.0</text><title>1500.0: none</title></g><g><path d="M334.3729185241359,150.69485345442808A366.76175850270977,366.76175850270977,0,0,1,312.93307978701506,191.2774818817251L255.50878970528112,156.17740996489363A299.4597218325029,299.4597218325029,0,0,0,273.0143447297821,123.04183260894528Z" style="stroke: rgb(255, 255, 255); fill: rgb(105, 191, 105); fill-rule: evenodd;"></path><text transform="translate(294.53443381871915,155.60280367042583)rotate(27.847533632286982)" text-anchor="middle" dx="6" dy=".35em" style="font-size: 11px; font-family: Arial, Helvetica;">2000.0</text><title>2000.0: none</title></g><g><path d="M312.93307978701506,191.2774818817251A366.76175850270977,366.76175850270977,0,0,1,286.59241999174225,228.8645282766135L234.00173104306043,186.86710483349182A299.4597218325029,299.4597218325029,0,0,0,255.50878970528112,156.17740996489363Z" style="stroke: rgb(255, 255, 255); fill: rgb(105, 191, 105); fill-rule: evenodd;"></path><text transform="translate(272.79355374108695,191.1712380362674)rotate(35.02242152466363)" text-anchor="middle" dx="6" dy=".35em" style="font-size: 11px; font-family: Arial, Helvetica;">3500.0</text><title>3500.0: none</title></g><g><path d="M286.59241999174225,228.8645282766135A366.76175850270977,366.76175850270977,0,0,1,267.8210965066398,250.57144243904003L218.67500959798596,204.5907260296047A299.4597218325029,299.4597218325029,0,0,0,234.00173104306043,186.86710483349182Z" style="stroke: rgb(255, 255, 255); fill: rgb(105, 191, 105); fill-rule: evenodd;"></path><text transform="translate(251.9654680139499,217.89026628906976)rotate(40.852017937219685)" text-anchor="middle" dx="6" dy=".35em" style="font-size: 11px; font-family: Arial, Helvetica;">2500.0</text><title>2500.0: none</title></g><g><path d="M267.8210965066398,250.57144243904003A366.76175850270977,366.76175850270977,0,0,1,247.410059075051,270.74425232768976L202.0094673219059,221.06175633139227A299.4597218325029,299.4597218325029,0,0,0,218.67500959798596,204.5907260296047Z" style="stroke: rgb(255, 255, 255); fill: rgb(105, 191, 105); fill-rule: evenodd;"></path><text transform="translate(234.15817866678543,236.92343188984987)rotate(45.336322869955104)" text-anchor="middle" dx="6" dy=".35em" style="font-size: 11px; font-family: Arial, Helvetica;">3000.0</text><title>3000.0: none</title></g><g><path d="M247.410059075051,270.74425232768976A366.76175850270977,366.76175850270977,0,0,1,228.19098574290553,287.12899805780864L186.31715965760986,234.4398451994045A299.4597218325029,299.4597218325029,0,0,0,202.0094673219059,221.06175633139227Z" style="stroke: rgb(255, 255, 255); fill: rgb(105, 191, 191); fill-rule: evenodd;"></path><text transform="translate(216.11004841583565,253.4940081909545)rotate(49.551569506726445)" text-anchor="middle" dx="6" dy=".35em" style="font-size: 11px; font-family: Arial, Helvetica;">0.0</text><title>0.0: none</title></g><g><path d="M228.19098574290553,287.12899805780864A366.76175850270977,366.76175850270977,0,0,1,187.59058732753886,315.1570387062758L153.1670731671595,257.3246445589812A299.4597218325029,299.4597218325029,0,0,0,186.31715965760986,234.4398451994045Z" style="stroke: rgb(255, 255, 255); fill: rgb(105, 191, 191); fill-rule: evenodd;"></path><text transform="translate(189.24497265981586,274.1333718064914)rotate(55.38116591928251)" text-anchor="middle" dx="6" dy=".35em" style="font-size: 11px; font-family: Arial, Helvetica;">1500.0</text><title>1500.0: none</title></g><g><path d="M187.59058732753886,315.1570387062758A366.76175850270977,366.76175850270977,0,0,1,143.59583598281492,337.48247863910876L117.24550911542694,275.5532899318467A299.4597218325029,299.4597218325029,0,0,0,153.1670731671595,257.3246445589812Z" style="stroke: rgb(255, 255, 255); fill: rgb(105, 191, 191); fill-rule: evenodd;"></path><text transform="translate(150.74108542576326,297.051999454091)rotate(63.09417040358742)" text-anchor="middle" dx="6" dy=".35em" style="font-size: 11px; font-family: Arial, Helvetica;">2000.0</text><title>2000.0: none</title></g><g><path d="M143.59583598281492,337.48247863910876A366.76175850270977,366.76175850270977,0,0,1,97.0027935753269,353.701350772912L79.20244929469241,288.795943575601A299.4597218325029,299.4597218325029,0,0,0,117.24550911542694,275.5532899318467Z" style="stroke: rgb(255, 255, 255); fill: rgb(105, 191, 191); fill-rule: evenodd;"></path><text transform="translate(109.50961760156066,314.5956275407693)rotate(70.80717488789237)" text-anchor="middle" dx="6" dy=".35em" style="font-size: 11px; font-family: Arial, Helvetica;">3500.0</text><title>3500.0: none</title></g><g><path d="M97.0027935753269,353.701350772912A366.76175850270977,366.76175850270977,0,0,1,67.92335100435619,360.4172663571198L55.459183860210665,294.2794656879059A299.4597218325029,299.4597218325029,0,0,0,79.20244929469241,288.795943575601Z" style="stroke: rgb(255, 255, 255); fill: rgb(105, 191, 191); fill-rule: evenodd;"></path><text transform="translate(74.95901498821652,324.5672677381483)rotate(76.99551569506727)" text-anchor="middle" dx="6" dy=".35em" style="font-size: 11px; font-family: Arial, Helvetica;">2500.0</text><title>2500.0: none</title></g><g><path d="M67.92335100435619,360.4172663571198A366.76175850270977,366.76175850270977,0,0,1,38.394137902233155,364.7465937808663L31.34868232484099,297.81434672711157A299.4597218325029,299.4597218325029,0,0,0,55.459183860210665,294.2794656879059Z" style="stroke: rgb(255, 255, 255); fill: rgb(105, 191, 191); fill-rule: evenodd;"></path><text transform="translate(48.32135174667949,329.5873361954069)rotate(81.65919282511211)" text-anchor="middle" dx="6" dy=".35em" style="font-size: 11px; font-family: Arial, Helvetica;">3000.0</text><title>3000.0: none</title></g><g><path d="M38.39413790223348,364.74659378086625A366.76175850270977,366.76175850270977,0,0,1,-74.68098087955647,359.0779004545773L-60.976765548486746,293.1858780078687A299.4597218325029,299.4597218325029,0,0,0,31.348682324841256,297.8143467271115Z" style="stroke: rgb(255, 255, 255); fill: rgb(105, 105, 191); fill-rule: evenodd;"></path><text transform="translate(-16.678596018308582,332.6929359783111)rotate(272.86995515695065)" text-anchor="middle" dx="6" dy=".35em" style="font-size: 11px; font-family: Arial, Helvetica;">1000.0</text><title>1000.0: none</title></g><g><path d="M-74.68098087955647,359.0779004545773A366.76175850270977,366.76175850270977,0,0,1,-242.2811030762089,275.3435210644613L-197.82169228512254,224.81704352973398A299.4597218325029,299.4597218325029,0,0,0,-60.976765548486746,293.1858780078687Z" style="stroke: rgb(255, 255, 255); fill: rgb(105, 105, 191); fill-rule: evenodd;"></path><text transform="translate(-148.8782197701038,297.9900013307413)rotate(296.54708520179366)" text-anchor="middle" dx="6" dy=".35em" style="font-size: 11px; font-family: Arial, Helvetica;">2500.0</text><title>2500.0: none</title></g><g><path d="M-242.2811030762089,275.3435210644613A366.76175850270977,366.76175850270977,0,0,1,-314.71571207774457,188.33005089841132L-256.9643028757131,153.7708426444975A299.4597218325029,299.4597218325029,0,0,0,-197.82169228512254,224.81704352973398Z" style="stroke: rgb(255, 255, 255); fill: rgb(105, 105, 191); fill-rule: evenodd;"></path><text transform="translate(-256.0135878793024,213.11923431773405)rotate(320.2242152466368)" text-anchor="middle" dx="6" dy=".35em" style="font-size: 11px; font-family: Arial, Helvetica;">500.0</text><title>500.0: none</title></g><g><path d="M-314.71571207774457,188.33005089841132A366.76175850270977,366.76175850270977,0,0,1,-332.4596684114399,154.87012746090008L-271.4521825543062,126.45092955966605A299.4597218325029,299.4597218325029,0,0,0,-256.9643028757131,153.7708426444975Z" style="stroke: rgb(255, 255, 255); fill: rgb(105, 105, 191); fill-rule: evenodd;"></path><text transform="translate(-294.2905052561878,156.06365281854778)rotate(332.0627802690583)" text-anchor="middle" dx="6" dy=".35em" style="font-size: 11px; font-family: Arial, Helvetica;">0.0</text><title>0.0: none</title></g><g><path d="M-332.4596684114399,154.87012746090008A366.76175850270977,366.76175850270977,0,0,1,-357.1604533985285,83.37024666005004L-291.62028904249496,68.07152134903204A299.4597218325029,299.4597218325029,0,0,0,-271.4521825543062,126.45092955966605Z" style="stroke: rgb(255, 255, 255); fill: rgb(105, 105, 191); fill-rule: evenodd;"></path><text transform="translate(-314.85188613956905,108.7706532542964)rotate(340.9417040358744)" text-anchor="middle" dx="6" dy=".35em" style="font-size: 11px; font-family: Arial, Helvetica;">1500.0</text><title>1500.0: none</title></g><g><path d="M-357.1604533985285,83.37024666005004A366.76175850270977,366.76175850270977,0,0,1,-363.85388111342667,46.09274019513696L-297.0854498863962,37.6345647749193A299.4597218325029,299.4597218325029,0,0,0,-291.62028904249496,68.07152134903204Z" style="stroke: rgb(255, 255, 255); fill: rgb(105, 105, 191); fill-rule: evenodd;"></path><text transform="translate(-327.86734353227365,58.87079292909663)rotate(349.8206278026905)" text-anchor="middle" dx="6" dy=".35em" style="font-size: 11px; font-family: Arial, Helvetica;">3500.0</text><title>3500.0: none</title></g><g><path d="M-363.85388111342667,46.09274019513696A366.76175850270977,366.76175850270977,0,0,1,-366.6672923102091,8.323716111186604L-299.3825905093129,6.79628574539689A299.4597218325029,299.4597218325029,0,0,0,-297.0854498863962,37.6345647749193Z" style="stroke: rgb(255, 255, 255); fill: rgb(105, 105, 191); fill-rule: evenodd;"></path><text transform="translate(-332.1903949199716,24.744832549925714)rotate(355.73991031390125)" text-anchor="middle" dx="6" dy=".35em" style="font-size: 11px; font-family: Arial, Helvetica;">2000.0</text><title>2000.0: none</title></g><g><path d="M-366.6672923102091,8.323716111186604A366.76175850270977,366.76175850270977,0,0,1,-341.28890398038504,-134.29844198600196L-278.6612232085554,-109.65421870549119A299.4597218325029,299.4597218325029,0,0,0,-299.3825905093129,6.79628574539689Z" style="stroke: rgb(255, 255, 255); fill: rgb(191, 105, 191); fill-rule: evenodd;"></path><text transform="translate(-327.9590933162925,-58.35750445457602)rotate(370.0896860986547)" text-anchor="middle" dx="6" dy=".35em" style="font-size: 11px; font-family: Arial, Helvetica;">1000.0</text><title>1000.0: none</title></g><g><path d="M-341.28890398038504,-134.29844198600196A366.76175850270977,366.76175850270977,0,0,1,-265.05950678070883,-253.49091771731656L-216.4201810288382,-206.97446761242054A299.4597218325029,299.4597218325029,0,0,0,-278.6612232085554,-109.65421870549119Z" style="stroke: rgb(255, 255, 255); fill: rgb(191, 105, 191); fill-rule: evenodd;"></path><text transform="translate(-280.62713220769905,-179.47472770251844)rotate(392.6008968609865)" text-anchor="middle" dx="6" dy=".35em" style="font-size: 11px; font-family: Arial, Helvetica;">3000.0</text><title>3000.0: none</title></g><g><path d="M-265.05950678070883,-253.49091771731656A366.76175850270977,366.76175850270977,0,0,1,-214.92639780489822,-297.1882080880913L-175.48666895881172,-242.65315579596412A299.4597218325029,299.4597218325029,0,0,0,-216.4201810288382,-206.97446761242054Z" style="stroke: rgb(255, 255, 255); fill: rgb(191, 105, 191); fill-rule: evenodd;"></path><text transform="translate(-218.8746104292359,-251.11087217494335)rotate(408.92376681614337)" text-anchor="middle" dx="6" dy=".35em" style="font-size: 11px; font-family: Arial, Helvetica;">0.0</text><title>0.0: none</title></g><g><path d="M-214.92639780489822,-297.1882080880913A366.76175850270977,366.76175850270977,0,0,1,-163.91797411924546,-328.0931045612547L-133.83846542096342,-267.88689810022737A299.4597218325029,299.4597218325029,0,0,0,-175.48666895881172,-242.65315579596412Z" style="stroke: rgb(255, 255, 255); fill: rgb(191, 105, 191); fill-rule: evenodd;"></path><text transform="translate(-172.6138783836562,-284.898603373837)rotate(418.7892376681614)" text-anchor="middle" dx="6" dy=".35em" style="font-size: 11px; font-family: Arial, Helvetica;">3500.0</text><title>3500.0: none</title></g><g><path d="M-163.91797411924546,-328.0931045612547A366.76175850270977,366.76175850270977,0,0,1,-108.57505129413474,-350.32220274552395L-88.6511581557135,-286.03688076479A299.4597218325029,299.4597218325029,0,0,0,-133.83846542096342,-267.88689810022737Z" style="stroke: rgb(255, 255, 255); fill: rgb(191, 105, 191); fill-rule: evenodd;"></path><text transform="translate(-124.15672881770507,-309.1081880253213)rotate(428.11659192825107)" text-anchor="middle" dx="6" dy=".35em" style="font-size: 11px; font-family: Arial, Helvetica;">500.0</text><title>500.0: none</title></g><g><path d="M-108.57505129413474,-350.32220274552395A366.76175850270977,366.76175850270977,0,0,1,-72.99395065113828,-359.4246383712992L-59.599311135061576,-293.4689883313502A299.4597218325029,299.4597218325029,0,0,0,-88.6511581557135,-286.03688076479Z" style="stroke: rgb(255, 255, 255); fill: rgb(191, 105, 191); fill-rule: evenodd;"></path><text transform="translate(-82.55841671394154,-322.7179465798233)rotate(435.65022421524657)" text-anchor="middle" dx="6" dy=".35em" style="font-size: 11px; font-family: Arial, Helvetica;">1500.0</text><title>1500.0: none</title></g><g><path d="M-72.99395065113828,-359.4246383712992A366.76175850270977,366.76175850270977,0,0,1,-36.680887950960624,-364.92286850666L-29.949819597352374,-297.9582744380261A299.4597218325029,299.4597218325029,0,0,0,-59.599311135061576,-293.4689883313502Z" style="stroke: rgb(255, 255, 255); fill: rgb(191, 105, 191); fill-rule: evenodd;"></path><text transform="translate(-49.86853995637185,-329.35678820639214)rotate(441.39013452914793)" text-anchor="middle" dx="6" dy=".35em" style="font-size: 11px; font-family: Arial, Helvetica;">2000.0</text><title>2000.0: none</title></g><g><path d="M-36.680887950960624,-364.92286850666A366.76175850270977,366.76175850270977,0,0,1,-7.188728001867512e-13,-366.76175850270977L-5.869571834744228e-13,-299.4597218325029A299.4597218325029,299.4597218325029,0,0,0,-29.949819597352374,-297.9582744380261Z" style="stroke: rgb(255, 255, 255); fill: rgb(191, 105, 191); fill-rule: evenodd;"></path><text transform="translate(-16.67859601830955,-332.692935978311)rotate(447.13004484304923)" text-anchor="middle" dx="6" dy=".35em" style="font-size: 11px; font-family: Arial, Helvetica;">2500.0</text><title>2500.0: none</title></g><g><path d="M2.5931895971945205e-14,-423.5A423.5,423.5,0,0,1,15.906147175952512,-423.2011867682048L13.775127530708982,-366.5029786529882A366.76175850270977,366.76175850270977,0,0,0,2.2457680679999903e-14,-366.76175850270977Z" style="stroke: rgb(255, 255, 255); fill: rgb(191, 105, 105); fill-rule: evenodd;"></path><text transform="translate(7.421627930653345,-395.0611739677891)rotate(-88.9237668161435)" text-anchor="middle" dx="6" dy=".35em" style="font-size: 11px; font-family: Arial, Helvetica;">12</text><title>12: 12</title></g><g><path d="M15.906147175952512,-423.2011867682048A423.5,423.5,0,0,1,31.789848225609475,-422.30516874624294L27.530816145829466,-365.72700428372053A366.76175850270977,366.76175850270977,0,0,0,13.775127530708982,-366.5029786529882Z" style="stroke: rgb(255, 255, 255); fill: rgb(191, 105, 105); fill-rule: evenodd;"></path><text transform="translate(22.25441068392146,-394.5036792516138)rotate(-86.7713004484305)" text-anchor="middle" dx="6" dy=".35em" style="font-size: 11px; font-family: Arial, Helvetica;">12</text><title>12: 12</title></g><g><path d="M31.789848225609475,-422.30516874624294A423.5,423.5,0,0,1,63.40031744667512,-418.7274170002017L54.90628551681841,-362.6285803832147A366.76175850270977,366.76175850270977,0,0,0,27.530816145829466,-365.72700428372053Z" style="stroke: rgb(255, 255, 255); fill: rgb(191, 105, 105); fill-rule: evenodd;"></path><text transform="translate(44.43817152948238,-392.62407038930394)rotate(-83.54260089686099)" text-anchor="middle" dx="6" dy=".35em" style="font-size: 11px; font-family: Arial, Helvetica;">24</text><title>24: 24</title></g><g><path d="M63.40031744667512,-418.7274170002017A423.5,423.5,0,0,1,79.0824781731416,-416.05073205799624L68.48743509216901,-360.3105032253375A366.76175850270977,366.76175850270977,0,0,0,54.90628551681841,-362.6285803832147Z" style="stroke: rgb(255, 255, 255); fill: rgb(191, 105, 105); fill-rule: evenodd;"></path><text transform="translate(66.48085698642973,-389.49801975401454)rotate(-80.31390134529148)" text-anchor="middle" dx="6" dy=".35em" style="font-size: 11px; font-family: Arial, Helvetica;">12</text><title>12: 12</title></g><g><path d="M79.0824781731416,-416.05073205799624A423.5,423.5,0,0,1,110.09003285963891,-408.9406248649841L95.3407651599109,-354.1529697725585A366.76175850270977,366.76175850270977,0,0,0,68.48743509216901,-360.3105032253375Z" style="stroke: rgb(255, 255, 255); fill: rgb(191, 105, 105); fill-rule: evenodd;"></path><text transform="translate(88.31248936869123,-385.135451444623)rotate(-77.08520179372196)" text-anchor="middle" dx="6" dy=".35em" style="font-size: 11px; font-family: Arial, Helvetica;">24</text><title>24: 24</title></g><g><path d="M110.09003285963891,-408.9406248649841A423.5,423.5,0,0,1,125.37167018389191,-404.5172361164619L108.57505129413445,-350.32220274552407A366.76175850270977,366.76175850270977,0,0,0,95.3407651599109,-354.1529697725585Z" style="stroke: rgb(255, 255, 255); fill: rgb(191, 105, 105); fill-rule: evenodd;"></path><text transform="translate(109.86376100863798,-379.5502150638116)rotate(-73.85650224215247)" text-anchor="middle" dx="6" dy=".35em" style="font-size: 11px; font-family: Arial, Helvetica;">12</text><title>12: 12</title></g><g><path d="M125.37167018389191,-404.5172361164619A423.5,423.5,0,0,1,147.95573044934412,-396.8140015513579L128.1334212046148,-343.65100592083354A366.76175850270977,366.76175850270977,0,0,0,108.57505129413445,-350.32220274552407Z" style="stroke: rgb(255, 255, 255); fill: rgb(191, 105, 105); fill-rule: evenodd;"></path><text transform="translate(127.55959787470088,-373.9745455615842)rotate(-71.16591928251121)" text-anchor="middle" dx="6" dy=".35em" style="font-size: 11px; font-family: Arial, Helvetica;">18</text><title>18: 18</title></g><g><path d="M147.95573044934412,-396.8140015513579A423.5,423.5,0,0,1,159.0760459360926,-392.4882948692077L137.7638969142365,-339.9048340447714A366.76175850270977,366.76175850270977,0,0,0,128.1334212046148,-343.65100592083354Z" style="stroke: rgb(255, 255, 255); fill: rgb(191, 105, 105); fill-rule: evenodd;"></path><text transform="translate(143.2464882974801,-368.25107647960607)rotate(-68.7443946188341)" text-anchor="middle" dx="6" dy=".35em" style="font-size: 11px; font-family: Arial, Helvetica;">9</text><title>9: 9</title></g><g><path d="M159.0760459360926,-392.4882948692077A423.5,423.5,0,0,1,166.41997627194306,-389.43117684341337L144.12392714870617,-337.2572921720662A366.76175850270977,366.76175850270977,0,0,0,137.7638969142365,-339.9048340447714Z" style="stroke: rgb(255, 255, 255); fill: rgb(191, 105, 105); fill-rule: evenodd;"></path><text transform="translate(151.8526588208709,-364.7864878898079)rotate(-67.39910313901346)" text-anchor="middle" dx="6" dy=".35em" style="font-size: 11px; font-family: Arial, Helvetica;">6</text><title>6: 6</title></g><g><path d="M166.41997627194306,-389.43117684341337A423.5,423.5,0,0,1,170.07008389625878,-387.85102367213045L147.2850130779109,-335.88883938386465A366.76175850270977,366.76175850270977,0,0,0,144.12392714870617,-337.2572921720662Z" style="stroke: rgb(255, 255, 255); fill: rgb(191, 105, 105); fill-rule: evenodd;"></path><text transform="translate(156.9764809163138,-362.61108115593896)rotate(-66.59192825112108)" text-anchor="middle" dx="6" dy=".35em" style="font-size: 11px; font-family: Arial, Helvetica;">3</text><title>3: 3</title></g><g><path d="M170.07008389625878,-387.85102367213045A423.5,423.5,0,0,1,240.59640310938795,-348.5191828448255L208.36259715189126,-301.8264660498126A366.76175850270977,366.76175850270977,0,0,0,147.2850130779109,-335.88883938386465Z" style="stroke: rgb(255, 255, 255); fill: rgb(191, 191, 105); fill-rule: evenodd;"></path><text transform="translate(192.45519061169537,-345.0933371489007)rotate(-60.85201793721974)" text-anchor="middle" dx="6" dy=".35em" style="font-size: 11px; font-family: Arial, Helvetica;">61</text><title>61: 61</title></g><g><path d="M240.59640310938795,-348.5191828448255A423.5,423.5,0,0,1,311.50817537269927,-286.90574528226455L269.7739933592956,-248.46766390614843A366.76175850270977,366.76175850270977,0,0,0,208.36259715189126,-301.8264660498126Z" style="stroke: rgb(255, 255, 255); fill: rgb(191, 191, 105); fill-rule: evenodd;"></path><text transform="translate(259.1591550321555,-298.26991819653546)rotate(-49.013452914798215)" text-anchor="middle" dx="6" dy=".35em" style="font-size: 11px; font-family: Arial, Helvetica;">71</text><title>71: 71</title></g><g><path d="M311.50817537269927,-286.90574528226455A423.5,423.5,0,0,1,345.6706571117169,-244.6713036135498L299.35957040160685,-211.89156450638947A366.76175850270977,366.76175850270977,0,0,0,269.7739933592956,-248.46766390614843Z" style="stroke: rgb(255, 255, 255); fill: rgb(191, 191, 105); fill-rule: evenodd;"></path><text transform="translate(307.21055427919066,-248.49564800499272)rotate(-38.96860986547085)" text-anchor="middle" dx="6" dy=".35em" style="font-size: 11px; font-family: Arial, Helvetica;">41</text><title>41: 41</title></g><g><path d="M345.6706571117169,-244.6713036135498A423.5,423.5,0,0,1,374.76525307097023,-197.23908104291002L324.55622961516434,-170.81405480225777A366.76175850270977,366.76175850270977,0,0,0,299.35957040160685,-211.89156450638947Z" style="stroke: rgb(255, 255, 255); fill: rgb(191, 191, 105); fill-rule: evenodd;"></path><text transform="translate(336.81555536966,-206.60032284334957)rotate(-31.524663677130057)" text-anchor="middle" dx="6" dy=".35em" style="font-size: 11px; font-family: Arial, Helvetica;">42</text><title>42: 42</title></g><g><path d="M374.76525307097023,-197.23908104291002A423.5,423.5,0,0,1,408.3313501070915,-112.32879648478317L353.62532235433895,-97.27959133235437A366.76175850270977,366.76175850270977,0,0,0,324.55622961516434,-170.81405480225777Z" style="stroke: rgb(255, 255, 255); fill: rgb(191, 191, 105); fill-rule: evenodd;"></path><text transform="translate(367.4607619264553,-145.261833192266)rotate(-21.569506726457416)" text-anchor="middle" dx="6" dy=".35em" style="font-size: 11px; font-family: Arial, Helvetica;">69</text><title>69: 69</title></g><g><path d="M408.3313501070915,-112.32879648478317A423.5,423.5,0,0,1,420.70021944704905,-48.61661606081614L364.33707741883256,-42.10322455470133A366.76175850270977,366.76175850270977,0,0,0,353.62532235433895,-97.27959133235437Z" style="stroke: rgb(255, 255, 255); fill: rgb(191, 191, 105); fill-rule: evenodd;"></path><text transform="translate(387.88890385898384,-75.30345278288885)rotate(-10.986547085201808)" text-anchor="middle" dx="6" dy=".35em" style="font-size: 11px; font-family: Arial, Helvetica;">49</text><title>49: 49</title></g><g><path d="M420.70021944704905,-48.61661606081614A423.5,423.5,0,0,1,423.4988326240603,-0.9943671646651273L366.7607475254902,-0.8611472252891043A366.76175850270977,366.76175850270977,0,0,0,364.33707741883256,-42.10322455470133Z" style="stroke: rgb(255, 255, 255); fill: rgb(191, 191, 105); fill-rule: evenodd;"></path><text transform="translate(394.4503390170061,-23.180633885158365)rotate(-3.3632286995515885)" text-anchor="middle" dx="6" dy=".35em" style="font-size: 11px; font-family: Arial, Helvetica;">36</text><title>36: 36</title></g><g><path d="M423.4988326240603,-0.9943671646651273A423.5,423.5,0,0,1,421.06783278118843,45.322513135892315L364.6554399049672,39.250447739036666A366.76175850270977,366.76175850270977,0,0,0,366.7607475254902,-0.8611472252891043Z" style="stroke: rgb(255, 255, 255); fill: rgb(191, 191, 105); fill-rule: evenodd;"></path><text transform="translate(394.5877464019239,20.710435229608713)rotate(3.004484304932715)" text-anchor="middle" dx="6" dy=".35em" style="font-size: 11px; font-family: Arial, Helvetica;">35</text><title>35: 35</title></g><g><path d="M421.06783278118843,45.322513135892315A423.5,423.5,0,0,1,416.9504590262275,74.19275380937246L361.08968963629576,64.25280957564124A366.76175850270977,366.76175850270977,0,0,0,364.6554399049672,39.250447739036666Z" style="stroke: rgb(255, 255, 255); fill: rgb(191, 191, 105); fill-rule: evenodd;"></path><text transform="translate(391.1727795400435,55.78770729170825)rotate(8.116591928251102)" text-anchor="middle" dx="6" dy=".35em" style="font-size: 11px; font-family: Arial, Helvetica;">22</text><title>22: 22</title></g><g><path d="M416.9504590262275,74.19275380937246A423.5,423.5,0,0,1,414.6948099131176,85.90963060753602L359.1362402023187,74.39992253586335A366.76175850270977,366.76175850270977,0,0,0,361.08968963629576,64.25280957564124Z" style="stroke: rgb(255, 255, 255); fill: rgb(191, 191, 105); fill-rule: evenodd;"></path><text transform="translate(388.00630243308353,74.69619140327909)rotate(10.896860986547082)" text-anchor="middle" dx="6" dy=".35em" style="font-size: 11px; font-family: Arial, Helvetica;">9</text><title>9: 9</title></g><g><path d="M414.6948099131176,85.90963060753602A423.5,423.5,0,0,1,414.1487812410008,88.5044461967513L358.66336550107087,76.64709875425967A366.76175850270977,366.76175850270977,0,0,0,359.1362402023187,74.39992253586335Z" style="stroke: rgb(255, 255, 255); fill: rgb(191, 191, 105); fill-rule: evenodd;"></path><text transform="translate(386.66269402981237,81.36567325080328)rotate(11.883408071748862)" text-anchor="middle" dx="6" dy=".35em" style="font-size: 11px; font-family: Arial, Helvetica;">2</text><title>2: 2</title></g><g><path d="M414.1487812410008,88.5044461967513A423.5,423.5,0,0,1,413.869677029436,89.80055921624508L358.4216541635525,77.76956555531704A366.76175850270977,366.76175850270977,0,0,0,358.66336550107087,76.64709875425967Z" style="stroke: rgb(255, 255, 255); fill: rgb(191, 191, 105); fill-rule: evenodd;"></path><text transform="translate(386.2763427145914,83.18051933588973)rotate(12.152466367712996)" text-anchor="middle" dx="6" dy=".35em" style="font-size: 11px; font-family: Arial, Helvetica;">1</text><title>1: 1</title></g><g><path d="M413.869677029436,89.80055921624508A423.5,423.5,0,0,1,413.58651653489176,91.09579211211525L358.17642998192906,78.8912701469579A366.76175850270977,366.76175850270977,0,0,0,358.4216541635525,77.76956555531704Z" style="stroke: rgb(255, 255, 255); fill: rgb(191, 191, 105); fill-rule: evenodd;"></path><text transform="translate(386.014042336932,84.3894001439166)rotate(12.331838565022434)" text-anchor="middle" dx="6" dy=".35em" style="font-size: 11px; font-family: Arial, Helvetica;">1</text><title>1: 1</title></g><g><path d="M413.58651653489176,91.09579211211525A423.5,423.5,0,0,1,413.2993025325874,92.39013218995213L357.9276953596108,80.01220153550096A366.76175850270977,366.76175850270977,0,0,0,358.17642998192906,78.8912701469579Z" style="stroke: rgb(255, 255, 255); fill: rgb(191, 191, 105); fill-rule: evenodd;"></path><text transform="translate(385.74795868575274,85.59745386238751)rotate(12.511210762331856)" text-anchor="middle" dx="6" dy=".35em" style="font-size: 11px; font-family: Arial, Helvetica;">1</text><title>1: 1</title></g><g><path d="M413.2993025325874,92.39013218995213A423.5,423.5,0,0,1,413.00803783746994,93.68356676409675L357.6754527344136,81.1323487348433A366.76175850270977,366.76175850270977,0,0,0,357.9276953596108,80.01220153550096Z" style="stroke: rgb(255, 255, 255); fill: rgb(191, 191, 105); fill-rule: evenodd;"></path><text transform="translate(385.47809436890515,86.80466865132458)rotate(12.690582959641281)" text-anchor="middle" dx="6" dy=".35em" style="font-size: 11px; font-family: Arial, Helvetica;">1</text><title>1: 1</title></g><g><path d="M413.00803783746994,93.68356676409675A423.5,423.5,0,0,1,411.8025298167342,98.84799662379459L356.6314521639906,85.60487618940454A366.76175850270977,366.76175850270977,0,0,0,357.6754527344136,81.1323487348433Z" style="stroke: rgb(255, 255, 255); fill: rgb(191, 191, 105); fill-rule: evenodd;"></path><text transform="translate(384.78691061279346,89.81895768161027)rotate(13.13901345291483)" text-anchor="middle" dx="6" dy=".35em" style="font-size: 11px; font-family: Arial, Helvetica;">4</text><title>4: 4</title></g><g><path d="M411.8025298167343,98.84799662379432A423.5,423.5,0,0,1,404.8104905403615,124.42152847667434L350.57616852639325,107.75220443848892A366.76175850270977,366.76175850270977,0,0,0,356.6314521639907,85.6048761894043Z" style="stroke: rgb(255, 255, 255); fill: rgb(105, 191, 105); fill-rule: evenodd;"></path><text transform="translate(381.141921284843,104.20771361683036)rotate(15.291479820627787)" text-anchor="middle" dx="6" dy=".35em" style="font-size: 11px; font-family: Arial, Helvetica;">20</text><title>20: 20</title></g><g><path d="M404.8104905403615,124.42152847667434A423.5,423.5,0,0,1,386.10058903926137,174.00742841481053L334.3729185241359,150.69485345442808A366.76175850270977,366.76175850270977,0,0,0,350.57616852639325,107.75220443848892Z" style="stroke: rgb(255, 255, 255); fill: rgb(105, 191, 105); fill-rule: evenodd;"></path><text transform="translate(369.6894612219429,139.49234387369927)rotate(20.672645739910273)" text-anchor="middle" dx="6" dy=".35em" style="font-size: 11px; font-family: Arial, Helvetica;">40</text><title>40: 40</title></g><g><path d="M386.10058903926137,174.00742841481053A423.5,423.5,0,0,1,361.34399570674356,220.8682113086555L312.93307978701506,191.2774818817251A366.76175850270977,366.76175850270977,0,0,0,334.3729185241359,150.69485345442808Z" style="stroke: rgb(255, 255, 255); fill: rgb(105, 191, 105); fill-rule: evenodd;"></path><text transform="translate(349.3722530412364,184.57367239896138)rotate(27.847533632286982)" text-anchor="middle" dx="6" dy=".35em" style="font-size: 11px; font-family: Arial, Helvetica;">40</text><title>40: 40</title></g><g><path d="M361.34399570674356,220.8682113086555A423.5,423.5,0,0,1,330.9284216598773,264.26999401691904L286.59241999174225,228.8645282766135A366.76175850270977,366.76175850270977,0,0,0,312.93307978701506,191.2774818817251Z" style="stroke: rgb(255, 255, 255); fill: rgb(105, 191, 105); fill-rule: evenodd;"></path><text transform="translate(323.58355269356605,226.76440674003263)rotate(35.02242152466363)" text-anchor="middle" dx="6" dy=".35em" style="font-size: 11px; font-family: Arial, Helvetica;">40</text><title>40: 40</title></g><g><path d="M330.9284216598773,264.26999401691904A423.5,423.5,0,0,1,309.2531643255384,289.33497948682515L267.8210965066398,250.57144243904003A366.76175850270977,366.76175850270977,0,0,0,286.59241999174225,228.8645282766135Z" style="stroke: rgb(255, 255, 255); fill: rgb(105, 191, 105); fill-rule: evenodd;"></path><text transform="translate(298.8775950821561,258.4581105244243)rotate(40.852017937219685)" text-anchor="middle" dx="6" dy=".35em" style="font-size: 11px; font-family: Arial, Helvetica;">25</text><title>25: 25</title></g><g><path d="M309.2531643255384,289.33497948682515A423.5,423.5,0,0,1,285.6845284144038,312.6285339258713L247.410059075051,270.74425232768976A366.76175850270977,366.76175850270977,0,0,0,267.8210965066398,250.57144243904003Z" style="stroke: rgb(255, 255, 255); fill: rgb(105, 191, 105); fill-rule: evenodd;"></path><text transform="translate(277.75486006230034,281.0349612587743)rotate(45.336322869955104)" text-anchor="middle" dx="6" dy=".35em" style="font-size: 11px; font-family: Arial, Helvetica;">25</text><title>25: 25</title></g><g><path d="M285.6845284144038,312.6285339258713A423.5,423.5,0,0,1,263.4922540906251,331.54800864164673L228.19098574290553,287.12899805780864A366.76175850270977,366.76175850270977,0,0,0,247.410059075051,270.74425232768976Z" style="stroke: rgb(255, 255, 255); fill: rgb(105, 191, 191); fill-rule: evenodd;"></path><text transform="translate(256.3464432357742,300.69072612622557)rotate(49.551569506726445)" text-anchor="middle" dx="6" dy=".35em" style="font-size: 11px; font-family: Arial, Helvetica;">22</text><title>22: 22</title></g><g><path d="M263.4922540906251,331.54800864164673A423.5,423.5,0,0,1,216.6109521819891,363.91200226814726L187.59058732753886,315.1570387062758A366.76175850270977,366.76175850270977,0,0,0,228.19098574290553,287.12899805780864Z" style="stroke: rgb(255, 255, 255); fill: rgb(105, 191, 191); fill-rule: evenodd;"></path><text transform="translate(224.47950013063965,325.172824447319)rotate(55.38116591928251)" text-anchor="middle" dx="6" dy=".35em" style="font-size: 11px; font-family: Arial, Helvetica;">43</text><title>43: 43</title></g><g><path d="M216.6109521819891,363.91200226814726A423.5,423.5,0,0,1,165.8101891183751,389.6911997781432L143.59583598281492,337.48247863910876A366.76175850270977,366.76175850270977,0,0,0,187.59058732753886,315.1570387062758Z" style="stroke: rgb(255, 255, 255); fill: rgb(105, 191, 191); fill-rule: evenodd;"></path><text transform="translate(178.8067763699732,352.35855099901744)rotate(63.09417040358742)" text-anchor="middle" dx="6" dy=".35em" style="font-size: 11px; font-family: Arial, Helvetica;">43</text><title>43: 43</title></g><g><path d="M165.8101891183751,389.6911997781432A423.5,423.5,0,0,1,112.00917796572138,408.41914016295L97.0027935753269,353.701350772912A366.76175850270977,366.76175850270977,0,0,0,143.59583598281492,337.48247863910876Z" style="stroke: rgb(255, 255, 255); fill: rgb(105, 191, 191); fill-rule: evenodd;"></path><text transform="translate(129.89863811539814,373.1685350531494)rotate(70.80717488789237)" text-anchor="middle" dx="6" dy=".35em" style="font-size: 11px; font-family: Arial, Helvetica;">43</text><title>43: 43</title></g><g><path d="M112.00917796572138,408.41914016295A423.5,423.5,0,0,1,78.43112997325298,416.1740115037443L67.92335100435619,360.4172663571198A366.76175850270977,366.76175850270977,0,0,0,97.0027935753269,353.701350772912Z" style="stroke: rgb(255, 255, 255); fill: rgb(105, 191, 191); fill-rule: evenodd;"></path><text transform="translate(88.91524027477088,384.99674256391904)rotate(76.99551569506727)" text-anchor="middle" dx="6" dy=".35em" style="font-size: 11px; font-family: Arial, Helvetica;">26</text><title>26: 26</title></g><g><path d="M78.43112997325298,416.1740115037443A423.5,423.5,0,0,1,44.33373170631585,421.1730882107645L38.394137902233155,364.7465937808663A366.76175850270977,366.76175850270977,0,0,0,67.92335100435619,360.4172663571198Z" style="stroke: rgb(255, 255, 255); fill: rgb(105, 191, 191); fill-rule: evenodd;"></path><text transform="translate(57.31805042573107,390.9514711998692)rotate(81.65919282511211)" text-anchor="middle" dx="6" dy=".35em" style="font-size: 11px; font-family: Arial, Helvetica;">26</text><title>26: 26</title></g><g><path d="M44.33373170631623,421.17308821076443A423.5,423.5,0,0,1,-86.23416882831445,414.62744497499165L-74.68098087955647,359.0779004545773A366.76175850270977,366.76175850270977,0,0,0,38.39413790223348,364.74659378086625Z" style="stroke: rgb(255, 255, 255); fill: rgb(105, 105, 191); fill-rule: evenodd;"></path><text transform="translate(-19.783896208439604,394.635286294526)rotate(272.86995515695065)" text-anchor="middle" dx="6" dy=".35em" style="font-size: 11px; font-family: Arial, Helvetica;">99</text><title>99: 99</title></g><g><path d="M-86.23416882831445,414.62744497499165A423.5,423.5,0,0,1,-279.76212016121735,317.9393120123722L-242.2811030762089,275.3435210644613A366.76175850270977,366.76175850270977,0,0,0,-74.68098087955647,359.0779004545773Z" style="stroke: rgb(255, 255, 255); fill: rgb(105, 105, 191); fill-rule: evenodd;"></path><text transform="translate(-176.59707354238648,353.4711945183281)rotate(296.54708520179366)" text-anchor="middle" dx="6" dy=".35em" style="font-size: 11px; font-family: Arial, Helvetica;">165</text><title>165: 165</title></g><g><path d="M-279.76212016121735,317.9393120123722A423.5,423.5,0,0,1,-363.40240217258116,217.4648111653874L-314.71571207774457,188.33005089841132A366.76175850270977,366.76175850270977,0,0,0,-242.2811030762089,275.3435210644613Z" style="stroke: rgb(255, 255, 255); fill: rgb(105, 105, 191); fill-rule: evenodd;"></path><text transform="translate(-303.67941312292777,252.79878516967395)rotate(320.2242152466368)" text-anchor="middle" dx="6" dy=".35em" style="font-size: 11px; font-family: Arial, Helvetica;">99</text><title>99: 99</title></g><g><path d="M-363.40240217258116,217.4648111653874A423.5,423.5,0,0,1,-383.8913581040771,178.8286195579646L-332.4596684114399,154.87012746090008A366.76175850270977,366.76175850270977,0,0,0,-314.71571207774457,188.33005089841132Z" style="stroke: rgb(255, 255, 255); fill: rgb(105, 105, 191); fill-rule: evenodd;"></path><text transform="translate(-349.0829087008557,185.12032462941193)rotate(332.0627802690583)" text-anchor="middle" dx="6" dy=".35em" style="font-size: 11px; font-family: Arial, Helvetica;">33</text><title>33: 33</title></g><g><path d="M-383.8913581040771,178.8286195579646A423.5,423.5,0,0,1,-412.4133678270584,96.26766870317077L-357.1604533985285,83.37024666005004A366.76175850270977,366.76175850270977,0,0,0,-332.4596684114399,154.87012746090008Z" style="stroke: rgb(255, 255, 255); fill: rgb(105, 105, 191); fill-rule: evenodd;"></path><text transform="translate(-373.4725050944891,129.0220898776469)rotate(340.9417040358744)" text-anchor="middle" dx="6" dy=".35em" style="font-size: 11px; font-family: Arial, Helvetica;">66</text><title>66: 66</title></g><g><path d="M-412.4133678270584,96.26766870317077A423.5,423.5,0,0,1,-420.14227241305395,53.223311918699615L-363.85388111342667,46.09274019513696A366.76175850270977,366.76175850270977,0,0,0,-357.1604533985285,83.37024666005004Z" style="stroke: rgb(255, 255, 255); fill: rgb(105, 105, 191); fill-rule: evenodd;"></path><text transform="translate(-388.91124213686214,69.83163665210607)rotate(349.8206278026905)" text-anchor="middle" dx="6" dy=".35em" style="font-size: 11px; font-family: Arial, Helvetica;">33</text><title>33: 33</title></g><g><path d="M-420.14227241305395,53.223311918699615A423.5,423.5,0,0,1,-423.3909198366609,9.611399474903221L-366.6672923102091,8.323716111186604A366.76175850270977,366.76175850270977,0,0,0,-363.85388111342667,46.09274019513696Z" style="stroke: rgb(255, 255, 255); fill: rgb(105, 105, 191); fill-rule: evenodd;"></path><text transform="translate(-394.0391797560767,29.35194295284542)rotate(355.73991031390125)" text-anchor="middle" dx="6" dy=".35em" style="font-size: 11px; font-family: Arial, Helvetica;">33</text><title>33: 33</title></g><g><path d="M-423.3909198366609,9.611399474903221A423.5,423.5,0,0,1,-394.08648116901526,-155.07448326473116L-341.28890398038504,-134.29844198600196A366.76175850270977,366.76175850270977,0,0,0,-366.6672923102091,8.323716111186604Z" style="stroke: rgb(255, 255, 255); fill: rgb(191, 105, 191); fill-rule: evenodd;"></path><text transform="translate(-389.0200743312617,-69.22278169250654)rotate(370.0896860986547)" text-anchor="middle" dx="6" dy=".35em" style="font-size: 11px; font-family: Arial, Helvetica;">127</text><title>127: 127</title></g><g><path d="M-394.08648116901526,-155.07448326473116A423.5,423.5,0,0,1,-306.0643551822234,-292.706099162436L-265.05950678070883,-253.49091771731656A366.76175850270977,366.76175850270977,0,0,0,-341.28890398038504,-134.29844198600196Z" style="stroke: rgb(255, 255, 255); fill: rgb(191, 105, 191); fill-rule: evenodd;"></path><text transform="translate(-332.8756239898548,-212.8901845818957)rotate(392.6008968609865)" text-anchor="middle" dx="6" dy=".35em" style="font-size: 11px; font-family: Arial, Helvetica;">124</text><title>124: 124</title></g><g><path d="M-306.0643551822234,-292.706099162436A423.5,423.5,0,0,1,-248.17562725722917,-343.163383879284L-214.92639780489822,-297.1882080880913A366.76175850270977,366.76175850270977,0,0,0,-265.05950678070883,-253.49091771731656Z" style="stroke: rgb(255, 255, 255); fill: rgb(191, 105, 191); fill-rule: evenodd;"></path><text transform="translate(-259.62572452988707,-297.863886532557)rotate(408.92376681614337)" text-anchor="middle" dx="6" dy=".35em" style="font-size: 11px; font-family: Arial, Helvetica;">58</text><title>58: 58</title></g><g><path d="M-248.17562725722917,-343.163383879284A423.5,423.5,0,0,1,-189.27617296552896,-378.84928447540085L-163.91797411924546,-328.0931045612547A366.76175850270977,366.76175850270977,0,0,0,-214.92639780489822,-297.1882080880913Z" style="stroke: rgb(255, 255, 255); fill: rgb(191, 105, 191); fill-rule: evenodd;"></path><text transform="translate(-204.75194976422196,-337.94237793697664)rotate(418.7892376681614)" text-anchor="middle" dx="6" dy=".35em" style="font-size: 11px; font-family: Arial, Helvetica;">52</text><title>52: 52</title></g><g><path d="M-189.27617296552896,-378.84928447540085A423.5,423.5,0,0,1,-125.37167018389223,-404.51723611646185L-108.57505129413474,-350.32220274552395A366.76175850270977,366.76175850270977,0,0,0,-163.91797411924546,-328.0931045612547Z" style="stroke: rgb(255, 255, 255); fill: rgb(191, 105, 191); fill-rule: evenodd;"></path><text transform="translate(-147.27281803651238,-366.65941799650136)rotate(428.11659192825107)" text-anchor="middle" dx="6" dy=".35em" style="font-size: 11px; font-family: Arial, Helvetica;">52</text><title>52: 52</title></g><g><path d="M-125.37167018389223,-404.51723611646185A423.5,423.5,0,0,1,-84.28615411529789,-415.02782343410695L-72.99395065113828,-359.4246383712992A366.76175850270977,366.76175850270977,0,0,0,-108.57505129413474,-350.32220274552395Z" style="stroke: rgb(255, 255, 255); fill: rgb(191, 105, 191); fill-rule: evenodd;"></path><text transform="translate(-97.92953469277474,-382.8031060124845)rotate(435.65022421524657)" text-anchor="middle" dx="6" dy=".35em" style="font-size: 11px; font-family: Arial, Helvetica;">32</text><title>32: 32</title></g><g><path d="M-84.28615411529789,-415.02782343410695A423.5,423.5,0,0,1,-42.35544106520323,-421.3766327315411L-36.680887950960624,-364.92286850666A366.76175850270977,366.76175850270977,0,0,0,-72.99395065113828,-359.4246383712992Z" style="stroke: rgb(255, 255, 255); fill: rgb(191, 105, 191); fill-rule: evenodd;"></path><text transform="translate(-59.153301481747675,-390.67799869170807)rotate(441.39013452914793)" text-anchor="middle" dx="6" dy=".35em" style="font-size: 11px; font-family: Arial, Helvetica;">32</text><title>32: 32</title></g><g><path d="M-42.35544106520323,-421.3766327315411A423.5,423.5,0,0,1,-8.300828094018417e-13,-423.5L-7.188728001867512e-13,-366.76175850270977A366.76175850270977,366.76175850270977,0,0,0,-36.680887950960624,-364.92286850666Z" style="stroke: rgb(255, 255, 255); fill: rgb(191, 105, 191); fill-rule: evenodd;"></path><text transform="translate(-19.78389620844075,-394.63528629452594)rotate(447.13004484304923)" text-anchor="middle" dx="6" dy=".35em" style="font-size: 11px; font-family: Arial, Helvetica;">32</text><title>32: 32</title></g></g></svg>