<svg width="800" height="8400" xmlns="http://www.w3.org/2000/svg" version="1.1"><g transform="translate(100,100)"><g class="arc"><path d="M5.8170722959499274e-15,-95A95,95,0,1,1,-5.8170722959499274e-15,95A95,95,0,1,1,5.8170722959499274e-15,-95Z" style="fill: rgb(191, 105, 105);"></path></g><text y="105" style="text-anchor: middle; font-size: 11px; font-family: Arial, Helvetica;">A</text></g><g transform="translate(300,100)"><g class="arc"><path d="M5.1975308981526405e-15,-84.88212114335927A84.88212114335927,84.88212114335927,0,1,1,-5.1975308981526405e-15,84.88212114335927A84.88212114335927,84.88212114335927,0,1,1,5.1975308981526405e-15,-84.88212114335927Z" style="fill: rgb(191, 105, 105);"></path></g><text y="94.88212114335927" style="text-anchor: middle; font-size: 11px; font-family: Arial, Helvetica;">D</text></g><g transform="translate(500,100)"><g class="arc"><path d="M5.112926576424431e-15,-83.50042771490114A83.50042771490114,83.50042771490114,0,1,1,-5.112926576424431e-15,83.50042771490114A83.50042771490114,83.50042771490114,0,1,1,5.112926576424431e-15,-83.50042771490114Z" style="fill: rgb(191, 105, 105);"></path></g><text y="93.50042771490114" style="text-anchor: middle; font-size: 11px; font-family: Arial, Helvetica;">G</text></g><g transform="translate(700,100)"><g class="arc"><path d="M4.745273293267351e-15,-77.49619394867474A77.49619394867474,77.49619394867474,0,1,1,-4.745273293267351e-15,77.49619394867474A77.49619394867474,77.49619394867474,0,1,1,4.745273293267351e-15,-77.49619394867474Z" style="fill: rgb(191, 105, 105);"></path></g><text y="87.49619394867474" style="text-anchor: middle; font-size: 11px; font-family: Arial, Helvetica;">C</text></g><g transform="translate(100,300)"><g class="arc"><path d="M4.507875775077004e-15,-73.61919825725364A73.61919825725364,73.61919825725364,0,1,1,-4.507875775077004e-15,73.61919825725364A73.61919825725364,73.61919825725364,0,1,1,4.507875775077004e-15,-73.61919825725364Z" style="fill: rgb(191, 105, 105);"></path></g><text y="83.61919825725364" style="text-anchor: middle; font-size: 11px; font-family: Arial, Helvetica;">E</text></g><g transform="translate(300,300)"><g class="arc"><path d="M3.4843612097087962e-15,-56.90393690874372A56.90393690874372,56.90393690874372,0,1,1,-3.4843612097087962e-15,56.90393690874372A56.90393690874372,56.90393690874372,0,1,1,3.4843612097087962e-15,-56.90393690874372Z" style="fill: rgb(191, 105, 105);"></path></g><text y="66.90393690874372" style="text-anchor: middle; font-size: 11px; font-family: Arial, Helvetica;">Am</text></g><g transform="translate(500,300)"><g class="arc"><path d="M3.170309990272193e-15,-51.77509127496167A51.77509127496167,51.77509127496167,0,1,1,-3.170309990272193e-15,51.77509127496167A51.77509127496167,51.77509127496167,0,1,1,3.170309990272193e-15,-51.77509127496167Z" style="fill: rgb(191, 105, 105);"></path></g><text y="61.77509127496167" style="text-anchor: middle; font-size: 11px; font-family: Arial, Helvetica;">F</text></g><g transform="translate(700,300)"><g class="arc"><path d="M3.046064391298694e-15,-49.74600665954433A49.74600665954433,49.74600665954433,0,1,1,-3.046064391298694e-15,49.74600665954433A49.74600665954433,49.74600665954433,0,1,1,3.046064391298694e-15,-49.74600665954433Z" style="fill: rgb(191, 105, 105);"></path></g><text y="59.74600665954433" style="text-anchor: middle; font-size: 11px; font-family: Arial, Helvetica;">Em</text></g><g transform="translate(100,500)"><g class="arc"><path d="M2.706035357126328e-15,-44.19291111543958A44.19291111543958,44.19291111543958,0,1,1,-2.706035357126328e-15,44.19291111543958A44.19291111543958,44.19291111543958,0,1,1,2.706035357126328e-15,-44.19291111543958Z" style="fill: rgb(191, 105, 105);"></path></g><text y="54.19291111543958" style="text-anchor: middle; font-size: 11px; font-family: Arial, Helvetica;">B</text></g><g transform="translate(300,500)"><g class="arc"><path d="M2.4957630735479504e-15,-40.758904122978116A40.758904122978116,40.758904122978116,0,1,1,-2.4957630735479504e-15,40.758904122978116A40.758904122978116,40.758904122978116,0,1,1,2.4957630735479504e-15,-40.758904122978116Z" style="fill: rgb(191, 105, 105);"></path></g><text y="50.758904122978116" style="text-anchor: middle; font-size: 11px; font-family: Arial, Helvetica;">Bm</text></g><g transform="translate(500,500)"><g class="arc"><path d="M2.2890029848863005e-15,-37.382255626356816A37.382255626356816,37.382255626356816,0,1,1,-2.2890029848863005e-15,37.382255626356816A37.382255626356816,37.382255626356816,0,1,1,2.2890029848863005e-15,-37.382255626356816Z" style="fill: rgb(191, 105, 105);"></path></g><text y="47.382255626356816" style="text-anchor: middle; font-size: 11px; font-family: Arial, Helvetica;">F#m</text></g><g transform="translate(700,500)"><g class="arc"><path d="M1.8443912153802978e-15,-30.121194399306553A30.121194399306553,30.121194399306553,0,1,1,-1.8443912153802978e-15,30.121194399306553A30.121194399306553,30.121194399306553,0,1,1,1.8443912153802978e-15,-30.121194399306553Z" style="fill: rgb(191, 105, 105);"></path></g><text y="40.12119439930655" style="text-anchor: middle; font-size: 11px; font-family: Arial, Helvetica;">Bb</text></g><g transform="translate(100,700)"><g class="arc"><path d="M1.7795123910148384e-15,-29.061642789640317A29.061642789640317,29.061642789640317,0,1,1,-1.7795123910148384e-15,29.061642789640317A29.061642789640317,29.061642789640317,0,1,1,1.7795123910148384e-15,-29.061642789640317Z" style="fill: rgb(191, 105, 105);"></path></g><text y="39.06164278964032" style="text-anchor: middle; font-size: 11px; font-family: Arial, Helvetica;">Dm</text></g><g transform="translate(300,700)"><g class="arc"><path d="M1.7299953725709627e-15,-28.252968509376792A28.252968509376792,28.252968509376792,0,1,1,-1.7299953725709627e-15,28.252968509376792A28.252968509376792,28.252968509376792,0,1,1,1.7299953725709627e-15,-28.252968509376792Z" style="fill: rgb(191, 105, 105);"></path></g><text y="38.25296850937679" style="text-anchor: middle; font-size: 11px; font-family: Arial, Helvetica;">A7</text></g><g transform="translate(500,700)"><g class="arc"><path d="M1.6260957685356141e-15,-26.55615920717329A26.55615920717329,26.55615920717329,0,1,1,-1.6260957685356141e-15,26.55615920717329A26.55615920717329,26.55615920717329,0,1,1,1.6260957685356141e-15,-26.55615920717329Z" style="fill: rgb(191, 105, 105);"></path></g><text y="36.556159207173295" style="text-anchor: middle; font-size: 11px; font-family: Arial, Helvetica;">G/B</text></g><g transform="translate(700,700)"><g class="arc"><path d="M1.5385212143082561e-15,-25.12595820083692A25.12595820083692,25.12595820083692,0,1,1,-1.5385212143082561e-15,25.12595820083692A25.12595820083692,25.12595820083692,0,1,1,1.5385212143082561e-15,-25.12595820083692Z" style="fill: rgb(191, 105, 105);"></path></g><text y="35.12595820083692" style="text-anchor: middle; font-size: 11px; font-family: Arial, Helvetica;">Em7</text></g><g transform="translate(100,900)"><g class="arc"><path d="M1.5363048560661063e-15,-25.089762323891943A25.089762323891943,25.089762323891943,0,1,1,-1.5363048560661063e-15,25.089762323891943A25.089762323891943,25.089762323891943,0,1,1,1.5363048560661063e-15,-25.089762323891943Z" style="fill: rgb(191, 105, 105);"></path></g><text y="35.08976232389195" style="text-anchor: middle; font-size: 11px; font-family: Arial, Helvetica;">D7</text></g><g transform="translate(300,900)"><g class="arc"><path d="M1.4444722729258417e-15,-23.59002242820607A23.59002242820607,23.59002242820607,0,1,1,-1.4444722729258417e-15,23.59002242820607A23.59002242820607,23.59002242820607,0,1,1,1.4444722729258417e-15,-23.59002242820607Z" style="fill: rgb(191, 105, 105);"></path></g><text y="33.59002242820607" style="text-anchor: middle; font-size: 11px; font-family: Arial, Helvetica;">E5</text></g><g transform="translate(500,900)"><g class="arc"><path d="M1.425873990845e-15,-23.286289431985598A23.286289431985598,23.286289431985598,0,1,1,-1.425873990845e-15,23.286289431985598A23.286289431985598,23.286289431985598,0,1,1,1.425873990845e-15,-23.286289431985598Z" style="fill: rgb(191, 105, 105);"></path></g><text y="33.286289431985594" style="text-anchor: middle; font-size: 11px; font-family: Arial, Helvetica;">C#m</text></g><g transform="translate(700,900)"><g class="arc"><path d="M1.4046060701067383e-15,-22.93895792786426A22.93895792786426,22.93895792786426,0,1,1,-1.4046060701067383e-15,22.93895792786426A22.93895792786426,22.93895792786426,0,1,1,1.4046060701067383e-15,-22.93895792786426Z" style="fill: rgb(191, 105, 105);"></path></g><text y="32.93895792786426" style="text-anchor: middle; font-size: 11px; font-family: Arial, Helvetica;">A5(9)</text></g><g transform="translate(100,1100)"><g class="arc"><path d="M1.3714652182149228e-15,-22.39772674325022A22.39772674325022,22.39772674325022,0,1,1,-1.3714652182149228e-15,22.39772674325022A22.39772674325022,22.39772674325022,0,1,1,1.3714652182149228e-15,-22.39772674325022Z" style="fill: rgb(191, 105, 105);"></path></g><text y="32.39772674325022" style="text-anchor: middle; font-size: 11px; font-family: Arial, Helvetica;">D5(9)</text></g><g transform="translate(300,1100)"><g class="arc"><path d="M1.278009478180365e-15,-20.871478683815855A20.871478683815855,20.871478683815855,0,1,1,-1.278009478180365e-15,20.871478683815855A20.871478683815855,20.871478683815855,0,1,1,1.278009478180365e-15,-20.871478683815855Z" style="fill: rgb(191, 105, 105);"></path></g><text y="30.871478683815855" style="text-anchor: middle; font-size: 11px; font-family: Arial, Helvetica;">C/G</text></g><g transform="translate(500,1100)"><g class="arc"><path d="M1.275340468351333e-15,-20.827890445461904A20.827890445461904,20.827890445461904,0,1,1,-1.275340468351333e-15,20.827890445461904A20.827890445461904,20.827890445461904,0,1,1,1.275340468351333e-15,-20.827890445461904Z" style="fill: rgb(191, 105, 105);"></path></g><text y="30.827890445461904" style="text-anchor: middle; font-size: 11px; font-family: Arial, Helvetica;">D9/F#</text></g><g transform="translate(700,1100)"><g class="arc"><path d="M1.2151399737976991e-15,-19.844741759725775A19.844741759725775,19.844741759725775,0,1,1,-1.2151399737976991e-15,19.844741759725775A19.844741759725775,19.844741759725775,0,1,1,1.2151399737976991e-15,-19.844741759725775Z" style="fill: rgb(191, 105, 105);"></path></g><text y="29.844741759725775" style="text-anchor: middle; font-size: 11px; font-family: Arial, Helvetica;">F#</text></g><g transform="translate(100,1300)"><g class="arc"><path d="M1.1853305601503896e-15,-19.357917090473155A19.357917090473155,19.357917090473155,0,1,1,-1.1853305601503896e-15,19.357917090473155A19.357917090473155,19.357917090473155,0,1,1,1.1853305601503896e-15,-19.357917090473155Z" style="fill: rgb(191, 105, 105);"></path></g><text y="29.357917090473155" style="text-anchor: middle; font-size: 11px; font-family: Arial, Helvetica;">G#m</text></g><g transform="translate(300,1300)"><g class="arc"><path d="M1.1522902503181468e-15,-18.818327882299062A18.818327882299062,18.818327882299062,0,1,1,-1.1522902503181468e-15,18.818327882299062A18.818327882299062,18.818327882299062,0,1,1,1.1522902503181468e-15,-18.818327882299062Z" style="fill: rgb(191, 105, 105);"></path></g><text y="28.818327882299062" style="text-anchor: middle; font-size: 11px; font-family: Arial, Helvetica;">Am7</text></g><g transform="translate(500,1300)"><g class="arc"><path d="M1.148835099360782e-15,-18.761900985012915A18.761900985012915,18.761900985012915,0,1,1,-1.148835099360782e-15,18.761900985012915A18.761900985012915,18.761900985012915,0,1,1,1.148835099360782e-15,-18.761900985012915Z" style="fill: rgb(191, 105, 105);"></path></g><text y="28.761900985012915" style="text-anchor: middle; font-size: 11px; font-family: Arial, Helvetica;">D5</text></g><g transform="translate(700,1300)"><g class="arc"><path d="M1.1463607585615252e-15,-18.721491933178875A18.721491933178875,18.721491933178875,0,1,1,-1.1463607585615252e-15,18.721491933178875A18.721491933178875,18.721491933178875,0,1,1,1.1463607585615252e-15,-18.721491933178875Z" style="fill: rgb(191, 105, 105);"></path></g><text y="28.721491933178875" style="text-anchor: middle; font-size: 11px; font-family: Arial, Helvetica;">E7</text></g><g transform="translate(100,1500)"><g class="arc"><path d="M1.118781893168095e-15,-18.27109488134921A18.27109488134921,18.27109488134921,0,1,1,-1.118781893168095e-15,18.27109488134921A18.27109488134921,18.27109488134921,0,1,1,1.118781893168095e-15,-18.27109488134921Z" style="fill: rgb(191, 105, 105);"></path></g><text y="28.27109488134921" style="text-anchor: middle; font-size: 11px; font-family: Arial, Helvetica;">B7</text></g><g transform="translate(300,1500)"><g class="arc"><path d="M1.0480158930737342e-15,-17.11539839573996A17.11539839573996,17.11539839573996,0,1,1,-1.0480158930737342e-15,17.11539839573996A17.11539839573996,17.11539839573996,0,1,1,1.0480158930737342e-15,-17.11539839573996Z" style="fill: rgb(191, 105, 105);"></path></g><text y="27.11539839573996" style="text-anchor: middle; font-size: 11px; font-family: Arial, Helvetica;">Bm7</text></g><g transform="translate(500,1500)"><g class="arc"><path d="M9.883342762493494e-16,-16.14072362639524A16.14072362639524,16.14072362639524,0,1,1,-9.883342762493494e-16,16.14072362639524A16.14072362639524,16.14072362639524,0,1,1,9.883342762493494e-16,-16.14072362639524Z" style="fill: rgb(191, 105, 105);"></path></g><text y="26.14072362639524" style="text-anchor: middle; font-size: 11px; font-family: Arial, Helvetica;">C7</text></g><g transform="translate(700,1500)"><g class="arc"><path d="M9.697723559612599e-16,-15.837584463315517A15.837584463315517,15.837584463315517,0,1,1,-9.697723559612599e-16,15.837584463315517A15.837584463315517,15.837584463315517,0,1,1,9.697723559612599e-16,-15.837584463315517Z" style="fill: rgb(191, 105, 105);"></path></g><text y="25.837584463315515" style="text-anchor: middle; font-size: 11px; font-family: Arial, Helvetica;">A5</text></g><g transform="translate(100,1700)"><g class="arc"><path d="M9.448566079871036e-16,-15.430679419485676A15.430679419485676,15.430679419485676,0,1,1,-9.448566079871036e-16,15.430679419485676A15.430679419485676,15.430679419485676,0,1,1,9.448566079871036e-16,-15.430679419485676Z" style="fill: rgb(191, 105, 105);"></path></g><text y="25.430679419485678" style="text-anchor: middle; font-size: 11px; font-family: Arial, Helvetica;">B5(9)</text></g><g transform="translate(300,1700)"><g class="arc"><path d="M9.43653734669385e-16,-15.411035007422441A15.411035007422441,15.411035007422441,0,1,1,-9.43653734669385e-16,15.411035007422441A15.411035007422441,15.411035007422441,0,1,1,9.43653734669385e-16,-15.411035007422441Z" style="fill: rgb(191, 105, 105);"></path></g><text y="25.41103500742244" style="text-anchor: middle; font-size: 11px; font-family: Arial, Helvetica;">Am7/G</text></g><g transform="translate(500,1700)"><g class="arc"><path d="M9.424493260934834e-16,-15.391365522690352A15.391365522690352,15.391365522690352,0,1,1,-9.424493260934834e-16,15.391365522690352A15.391365522690352,15.391365522690352,0,1,1,9.424493260934834e-16,-15.391365522690352Z" style="fill: rgb(191, 105, 105);"></path></g><text y="25.39136552269035" style="text-anchor: middle; font-size: 11px; font-family: Arial, Helvetica;">Fm13/C</text></g><g transform="translate(700,1700)"><g class="arc"><path d="M9.412433763658812e-16,-15.37167086904096A15.37167086904096,15.37167086904096,0,1,1,-9.412433763658812e-16,15.37167086904096A15.37167086904096,15.37167086904096,0,1,1,9.412433763658812e-16,-15.37167086904096Z" style="fill: rgb(191, 105, 105);"></path></g><text y="25.371670869040962" style="text-anchor: middle; font-size: 11px; font-family: Arial, Helvetica;">E7M</text></g><g transform="translate(100,1900)"><g class="arc"><path d="M9.412433763658812e-16,-15.37167086904096A15.37167086904096,15.37167086904096,0,1,1,-9.412433763658812e-16,15.37167086904096A15.37167086904096,15.37167086904096,0,1,1,9.412433763658812e-16,-15.37167086904096Z" style="fill: rgb(191, 105, 105);"></path></g><text y="25.371670869040962" style="text-anchor: middle; font-size: 11px; font-family: Arial, Helvetica;">A7M/E</text></g><g transform="translate(300,1900)"><g class="arc"><path d="M8.762498964787146e-16,-14.310246792606554A14.310246792606554,14.310246792606554,0,1,1,-8.762498964787146e-16,14.310246792606554A14.310246792606554,14.310246792606554,0,1,1,8.762498964787146e-16,-14.310246792606554Z" style="fill: rgb(191, 105, 105);"></path></g><text y="24.310246792606556" style="text-anchor: middle; font-size: 11px; font-family: Arial, Helvetica;">D9</text></g><g transform="translate(500,1900)"><g class="arc"><path d="M8.736535947823508e-16,-14.267845968170127A14.267845968170127,14.267845968170127,0,1,1,-8.736535947823508e-16,14.267845968170127A14.267845968170127,14.267845968170127,0,1,1,8.736535947823508e-16,-14.267845968170127Z" style="fill: rgb(191, 105, 105);"></path></g><text y="24.26784596817013" style="text-anchor: middle; font-size: 11px; font-family: Arial, Helvetica;">D9(11)/A</text></g><g transform="translate(700,1900)"><g class="arc"><path d="M8.625321296705875e-16,-14.08621865947171A14.08621865947171,14.08621865947171,0,1,1,-8.625321296705875e-16,14.08621865947171A14.08621865947171,14.08621865947171,0,1,1,8.625321296705875e-16,-14.08621865947171Z" style="fill: rgb(191, 105, 105);"></path></g><text y="24.08621865947171" style="text-anchor: middle; font-size: 11px; font-family: Arial, Helvetica;">Gm</text></g><g transform="translate(100,2100)"><g class="arc"><path d="M8.618734566996309e-16,-14.075461713527538A14.075461713527538,14.075461713527538,0,1,1,-8.618734566996309e-16,14.075461713527538A14.075461713527538,14.075461713527538,0,1,1,8.618734566996309e-16,-14.075461713527538Z" style="fill: rgb(191, 105, 105);"></path></g><text y="24.075461713527538" style="text-anchor: middle; font-size: 11px; font-family: Arial, Helvetica;">F7+</text></g><g transform="translate(300,2100)"><g class="arc"><path d="M8.525986068798443e-16,-13.923991921155663A13.923991921155663,13.923991921155663,0,1,1,-8.525986068798443e-16,13.923991921155663A13.923991921155663,13.923991921155663,0,1,1,8.525986068798443e-16,-13.923991921155663Z" style="fill: rgb(191, 105, 105);"></path></g><text y="23.92399192115566" style="text-anchor: middle; font-size: 11px; font-family: Arial, Helvetica;">Bb5(9)</text></g><g transform="translate(500,2100)"><g class="arc"><path d="M8.405234298582629e-16,-13.72678931498401A13.72678931498401,13.72678931498401,0,1,1,-8.405234298582629e-16,13.72678931498401A13.72678931498401,13.72678931498401,0,1,1,8.405234298582629e-16,-13.72678931498401Z" style="fill: rgb(191, 105, 105);"></path></g><text y="23.72678931498401" style="text-anchor: middle; font-size: 11px; font-family: Arial, Helvetica;">D/F#</text></g><g transform="translate(700,2100)"><g class="arc"><path d="M7.946795322606063e-16,-12.978101650433302A12.978101650433302,12.978101650433302,0,1,1,-7.946795322606063e-16,12.978101650433302A12.978101650433302,12.978101650433302,0,1,1,7.946795322606063e-16,-12.978101650433302Z" style="fill: rgb(191, 105, 105);"></path></g><text y="22.978101650433302" style="text-anchor: middle; font-size: 11px; font-family: Arial, Helvetica;">D/A</text></g><g transform="translate(100,2300)"><g class="arc"><path d="M7.925327128527948e-16,-12.943041428836247A12.943041428836247,12.943041428836247,0,1,1,-7.925327128527948e-16,12.943041428836247A12.943041428836247,12.943041428836247,0,1,1,7.925327128527948e-16,-12.943041428836247Z" style="fill: rgb(191, 105, 105);"></path></g><text y="22.943041428836246" style="text-anchor: middle; font-size: 11px; font-family: Arial, Helvetica;">A4</text></g><g transform="translate(300,2300)"><g class="arc"><path d="M7.802558375172631e-16,-12.742544839222338A12.742544839222338,12.742544839222338,0,1,1,-7.802558375172631e-16,12.742544839222338A12.742544839222338,12.742544839222338,0,1,1,7.802558375172631e-16,-12.742544839222338Z" style="fill: rgb(191, 105, 105);"></path></g><text y="22.74254483922234" style="text-anchor: middle; font-size: 11px; font-family: Arial, Helvetica;">Bm7/A</text></g><g transform="translate(500,2300)"><g class="arc"><path d="M7.76608057662437e-16,-12.68297207330541A12.68297207330541,12.68297207330541,0,1,1,-7.76608057662437e-16,12.68297207330541A12.68297207330541,12.68297207330541,0,1,1,7.76608057662437e-16,-12.68297207330541Z" style="fill: rgb(191, 105, 105);"></path></g><text y="22.682972073305407" style="text-anchor: middle; font-size: 11px; font-family: Arial, Helvetica;">Eb</text></g><g transform="translate(700,2300)"><g class="arc"><path d="M7.729430628918798e-16,-12.62311816647923A12.62311816647923,12.62311816647923,0,1,1,-7.729430628918798e-16,12.62311816647923A12.62311816647923,12.62311816647923,0,1,1,7.729430628918798e-16,-12.62311816647923Z" style="fill: rgb(191, 105, 105);"></path></g><text y="22.62311816647923" style="text-anchor: middle; font-size: 11px; font-family: Arial, Helvetica;">Fm</text></g><g transform="translate(100,2500)"><g class="arc"><path d="M7.625873770019808e-16,-12.453996981544782A12.453996981544782,12.453996981544782,0,1,1,-7.625873770019808e-16,12.453996981544782A12.453996981544782,12.453996981544782,0,1,1,7.625873770019808e-16,-12.453996981544782Z" style="fill: rgb(191, 105, 105);"></path></g><text y="22.453996981544783" style="text-anchor: middle; font-size: 11px; font-family: Arial, Helvetica;">Em/F#</text></g><g transform="translate(300,2500)"><g class="arc"><path d="M7.566062071891117e-16,-12.35631706571871A12.35631706571871,12.35631706571871,0,1,1,-7.566062071891117e-16,12.35631706571871A12.35631706571871,12.35631706571871,0,1,1,7.566062071891117e-16,-12.35631706571871Z" style="fill: rgb(191, 105, 105);"></path></g><text y="22.35631706571871" style="text-anchor: middle; font-size: 11px; font-family: Arial, Helvetica;">A7/4</text></g><g transform="translate(500,2500)"><g class="arc"><path d="M7.566062071891117e-16,-12.35631706571871A12.35631706571871,12.35631706571871,0,1,1,-7.566062071891117e-16,12.35631706571871A12.35631706571871,12.35631706571871,0,1,1,7.566062071891117e-16,-12.35631706571871Z" style="fill: rgb(191, 105, 105);"></path></g><text y="22.35631706571871" style="text-anchor: middle; font-size: 11px; font-family: Arial, Helvetica;">G4/B</text></g><g transform="translate(700,2500)"><g class="arc"><path d="M7.399087288588408e-16,-12.083626550512262A12.083626550512262,12.083626550512262,0,1,1,-7.399087288588408e-16,12.083626550512262A12.083626550512262,12.083626550512262,0,1,1,7.399087288588408e-16,-12.083626550512262Z" style="fill: rgb(191, 105, 105);"></path></g><text y="22.083626550512264" style="text-anchor: middle; font-size: 11px; font-family: Arial, Helvetica;">E/G#</text></g><g transform="translate(100,2700)"><g class="arc"><path d="M7.345162976997488e-16,-11.995561466557502A11.995561466557502,11.995561466557502,0,1,1,-7.345162976997488e-16,11.995561466557502A11.995561466557502,11.995561466557502,0,1,1,7.345162976997488e-16,-11.995561466557502Z" style="fill: rgb(191, 105, 105);"></path></g><text y="21.995561466557504" style="text-anchor: middle; font-size: 11px; font-family: Arial, Helvetica;">Em6/9</text></g><g transform="translate(300,2700)"><g class="arc"><path d="M7.337427152863854e-16,-11.982927907005442A11.982927907005442,11.982927907005442,0,1,1,-7.337427152863854e-16,11.982927907005442A11.982927907005442,11.982927907005442,0,1,1,7.337427152863854e-16,-11.982927907005442Z" style="fill: rgb(191, 105, 105);"></path></g><text y="21.98292790700544" style="text-anchor: middle; font-size: 11px; font-family: Arial, Helvetica;">G5</text></g><g transform="translate(500,2700)"><g class="arc"><path d="M7.290839842786195e-16,-11.906845055835465A11.906845055835465,11.906845055835465,0,1,1,-7.290839842786195e-16,11.906845055835465A11.906845055835465,11.906845055835465,0,1,1,7.290839842786195e-16,-11.906845055835465Z" style="fill: rgb(191, 105, 105);"></path></g><text y="21.906845055835465" style="text-anchor: middle; font-size: 11px; font-family: Arial, Helvetica;">B/A</text></g><g transform="translate(700,2700)"><g class="arc"><path d="M7.180960835582291e-16,-11.727399019181622A11.727399019181622,11.727399019181622,0,1,1,-7.180960835582291e-16,11.727399019181622A11.727399019181622,11.727399019181622,0,1,1,7.180960835582291e-16,-11.727399019181622Z" style="fill: rgb(191, 105, 105);"></path></g><text y="21.72739901918162" style="text-anchor: middle; font-size: 11px; font-family: Arial, Helvetica;">Dm7</text></g><g transform="translate(100,2900)"><g class="arc"><path d="M7.133351730550065e-16,-11.649647450214351A11.649647450214351,11.649647450214351,0,1,1,-7.133351730550065e-16,11.649647450214351A11.649647450214351,11.649647450214351,0,1,1,7.133351730550065e-16,-11.649647450214351Z" style="fill: rgb(191, 105, 105);"></path></g><text y="21.649647450214353" style="text-anchor: middle; font-size: 11px; font-family: Arial, Helvetica;">F7M/C</text></g><g transform="translate(300,2900)"><g class="arc"><path d="M7.133351730550065e-16,-11.649647450214351A11.649647450214351,11.649647450214351,0,1,1,-7.133351730550065e-16,11.649647450214351A11.649647450214351,11.649647450214351,0,1,1,7.133351730550065e-16,-11.649647450214351Z" style="fill: rgb(191, 105, 105);"></path></g><text y="21.649647450214353" style="text-anchor: middle; font-size: 11px; font-family: Arial, Helvetica;">G6/D</text></g><g transform="translate(500,2900)"><g class="arc"><path d="M6.988578688150135e-16,-11.413215129481996A11.413215129481996,11.413215129481996,0,1,1,-6.988578688150135e-16,11.413215129481996A11.413215129481996,11.413215129481996,0,1,1,6.988578688150135e-16,-11.413215129481996Z" style="fill: rgb(191, 105, 105);"></path></g><text y="21.413215129481998" style="text-anchor: middle; font-size: 11px; font-family: Arial, Helvetica;">Bb5</text></g><g transform="translate(700,2900)"><g class="arc"><path d="M6.915055651607483e-16,-11.293142898706819A11.293142898706819,11.293142898706819,0,1,1,-6.915055651607483e-16,11.293142898706819A11.293142898706819,11.293142898706819,0,1,1,6.915055651607483e-16,-11.293142898706819Z" style="fill: rgb(191, 105, 105);"></path></g><text y="21.29314289870682" style="text-anchor: middle; font-size: 11px; font-family: Arial, Helvetica;">C#m7</text></g><g transform="translate(100,3100)"><g class="arc"><path d="M6.774001902023953e-16,-11.062784644095386A11.062784644095386,11.062784644095386,0,1,1,-6.774001902023953e-16,11.062784644095386A11.062784644095386,11.062784644095386,0,1,1,6.774001902023953e-16,-11.062784644095386Z" style="fill: rgb(191, 105, 105);"></path></g><text y="21.062784644095387" style="text-anchor: middle; font-size: 11px; font-family: Arial, Helvetica;">E4</text></g><g transform="translate(300,3100)"><g class="arc"><path d="M6.740383819067035e-16,-11.007882148158886A11.007882148158886,11.007882148158886,0,1,1,-6.740383819067035e-16,11.007882148158886A11.007882148158886,11.007882148158886,0,1,1,6.740383819067035e-16,-11.007882148158886Z" style="fill: rgb(191, 105, 105);"></path></g><text y="21.007882148158885" style="text-anchor: middle; font-size: 11px; font-family: Arial, Helvetica;">Gm7</text></g><g transform="translate(500,3100)"><g class="arc"><path d="M6.689639931858485e-16,-10.925011091387448A10.925011091387448,10.925011091387448,0,1,1,-6.689639931858485e-16,10.925011091387448A10.925011091387448,10.925011091387448,0,1,1,6.689639931858485e-16,-10.925011091387448Z" style="fill: rgb(191, 105, 105);"></path></g><text y="20.925011091387447" style="text-anchor: middle; font-size: 11px; font-family: Arial, Helvetica;">F/C</text></g><g transform="translate(700,3100)"><g class="arc"><path d="M6.655595741752364e-16,-10.869412709666573A10.869412709666573,10.869412709666573,0,1,1,-6.655595741752364e-16,10.869412709666573A10.869412709666573,10.869412709666573,0,1,1,6.655595741752364e-16,-10.869412709666573Z" style="fill: rgb(191, 105, 105);"></path></g><text y="20.869412709666573" style="text-anchor: middle; font-size: 11px; font-family: Arial, Helvetica;">G5/F#</text></g><g transform="translate(100,3300)"><g class="arc"><path d="M6.517640962533804e-16,-10.64411545773302A10.64411545773302,10.64411545773302,0,1,1,-6.517640962533804e-16,10.64411545773302A10.64411545773302,10.64411545773302,0,1,1,6.517640962533804e-16,-10.64411545773302Z" style="fill: rgb(191, 105, 105);"></path></g><text y="20.644115457733022" style="text-anchor: middle; font-size: 11px; font-family: Arial, Helvetica;">G7</text></g><g transform="translate(300,3300)"><g class="arc"><path d="M5.778675359529243e-16,-9.437293044088436A9.437293044088436,9.437293044088436,0,1,1,-5.778675359529243e-16,9.437293044088436A9.437293044088436,9.437293044088436,0,1,1,5.778675359529243e-16,-9.437293044088436Z" style="fill: rgb(191, 105, 105);"></path></g><text y="19.437293044088435" style="text-anchor: middle; font-size: 11px; font-family: Arial, Helvetica;">D4</text></g><g transform="translate(500,3300)"><g class="arc"><path d="M5.568470909894613e-16,-9.094003126079453A9.094003126079453,9.094003126079453,0,1,1,-5.568470909894613e-16,9.094003126079453A9.094003126079453,9.094003126079453,0,1,1,5.568470909894613e-16,-9.094003126079453Z" style="fill: rgb(191, 105, 105);"></path></g><text y="19.094003126079453" style="text-anchor: middle; font-size: 11px; font-family: Arial, Helvetica;">Bm6</text></g><g transform="translate(700,3300)"><g class="arc"><path d="M5.517241937688456e-16,-9.01033986538776A9.01033986538776,9.01033986538776,0,1,1,-5.517241937688456e-16,9.01033986538776A9.01033986538776,9.01033986538776,0,1,1,5.517241937688456e-16,-9.01033986538776Z" style="fill: rgb(191, 105, 105);"></path></g><text y="19.01033986538776" style="text-anchor: middle; font-size: 11px; font-family: Arial, Helvetica;">Cm</text></g><g transform="translate(100,3500)"><g class="arc"><path d="M5.475913700808741e-16,-8.94284573253494A8.94284573253494,8.94284573253494,0,1,1,-5.475913700808741e-16,8.94284573253494A8.94284573253494,8.94284573253494,0,1,1,5.475913700808741e-16,-8.94284573253494Z" style="fill: rgb(191, 105, 105);"></path></g><text y="18.94284573253494" style="text-anchor: middle; font-size: 11px; font-family: Arial, Helvetica;">B9</text></g><g transform="translate(300,3500)"><g class="arc"><path d="M5.434271167177938e-16,-8.874838314135127A8.874838314135127,8.874838314135127,0,1,1,-5.434271167177938e-16,8.874838314135127A8.874838314135127,8.874838314135127,0,1,1,5.434271167177938e-16,-8.874838314135127Z" style="fill: rgb(191, 105, 105);"></path></g><text y="18.874838314135125" style="text-anchor: middle; font-size: 11px; font-family: Arial, Helvetica;">A/C#</text></g><g transform="translate(500,3500)"><g class="arc"><path d="M5.434271167177938e-16,-8.874838314135127A8.874838314135127,8.874838314135127,0,1,1,-5.434271167177938e-16,8.874838314135127A8.874838314135127,8.874838314135127,0,1,1,5.434271167177938e-16,-8.874838314135127Z" style="fill: rgb(191, 105, 105);"></path></g><text y="18.874838314135125" style="text-anchor: middle; font-size: 11px; font-family: Arial, Helvetica;">D9(11)</text></g><g transform="translate(700,3500)"><g class="arc"><path d="M5.413329774573111e-16,-8.84063842463326A8.84063842463326,8.84063842463326,0,1,1,-5.413329774573111e-16,8.84063842463326A8.84063842463326,8.84063842463326,0,1,1,5.413329774573111e-16,-8.84063842463326Z" style="fill: rgb(191, 105, 105);"></path></g><text y="18.840638424633262" style="text-anchor: middle; font-size: 11px; font-family: Arial, Helvetica;">Bm/A</text></g><g transform="translate(100,3700)"><g class="arc"><path d="M5.360618394637461e-16,-8.754554208396629A8.754554208396629,8.754554208396629,0,1,1,-5.360618394637461e-16,8.754554208396629A8.754554208396629,8.754554208396629,0,1,1,5.360618394637461e-16,-8.754554208396629Z" style="fill: rgb(191, 105, 105);"></path></g><text y="18.754554208396627" style="text-anchor: middle; font-size: 11px; font-family: Arial, Helvetica;">Bb9</text></g><g transform="translate(300,3700)"><g class="arc"><path d="M5.285939464979668e-16,-8.632594260908444A8.632594260908444,8.632594260908444,0,1,1,-5.285939464979668e-16,8.632594260908444A8.632594260908444,8.632594260908444,0,1,1,5.285939464979668e-16,-8.632594260908444Z" style="fill: rgb(191, 105, 105);"></path></g><text y="18.632594260908444" style="text-anchor: middle; font-size: 11px; font-family: Arial, Helvetica;">G(#5)</text></g><g transform="translate(500,3700)"><g class="arc"><path d="M5.221078855658514e-16,-8.526668847366658A8.526668847366658,8.526668847366658,0,1,1,-5.221078855658514e-16,8.526668847366658A8.526668847366658,8.526668847366658,0,1,1,5.221078855658514e-16,-8.526668847366658Z" style="fill: rgb(191, 105, 105);"></path></g><text y="18.526668847366658" style="text-anchor: middle; font-size: 11px; font-family: Arial, Helvetica;">Bm7+</text></g><g transform="translate(700,3700)"><g class="arc"><path d="M5.155402293379181e-16,-8.419410881518774A8.419410881518774,8.419410881518774,0,1,1,-5.155402293379181e-16,8.419410881518774A8.419410881518774,8.419410881518774,0,1,1,5.155402293379181e-16,-8.419410881518774Z" style="fill: rgb(191, 105, 105);"></path></g><text y="18.419410881518772" style="text-anchor: middle; font-size: 11px; font-family: Arial, Helvetica;">C7m</text></g><g transform="translate(100,3900)"><g class="arc"><path d="M5.133323381245099e-16,-8.383353281646787A8.383353281646787,8.383353281646787,0,1,1,-5.133323381245099e-16,8.383353281646787A8.383353281646787,8.383353281646787,0,1,1,5.133323381245099e-16,-8.383353281646787Z" style="fill: rgb(191, 105, 105);"></path></g><text y="18.383353281646787" style="text-anchor: middle; font-size: 11px; font-family: Arial, Helvetica;">Em7M</text></g><g transform="translate(300,3900)"><g class="arc"><path d="M4.941671381246747e-16,-8.07036181319762A8.07036181319762,8.07036181319762,0,1,1,-4.941671381246747e-16,8.07036181319762A8.07036181319762,8.07036181319762,0,1,1,4.941671381246747e-16,-8.07036181319762Z" style="fill: rgb(191, 105, 105);"></path></g><text y="18.07036181319762" style="text-anchor: middle; font-size: 11px; font-family: Arial, Helvetica;">Eb9</text></g><g transform="translate(500,3900)"><g class="arc"><path d="M4.860559895190797e-16,-7.937896703890311A7.937896703890311,7.937896703890311,0,1,1,-4.860559895190797e-16,7.937896703890311A7.937896703890311,7.937896703890311,0,1,1,4.860559895190797e-16,-7.937896703890311Z" style="fill: rgb(191, 105, 105);"></path></g><text y="17.93789670389031" style="text-anchor: middle; font-size: 11px; font-family: Arial, Helvetica;">A9</text></g><g transform="translate(700,3900)"><g class="arc"><path d="M4.825380470960256e-16,-7.880444344148653A7.880444344148653,7.880444344148653,0,1,1,-4.825380470960256e-16,7.880444344148653A7.880444344148653,7.880444344148653,0,1,1,4.825380470960256e-16,-7.880444344148653Z" style="fill: rgb(191, 105, 105);"></path></g><text y="17.880444344148653" style="text-anchor: middle; font-size: 11px; font-family: Arial, Helvetica;">C6</text></g><g transform="translate(100,4100)"><g class="arc"><path d="M4.76617110626238e-16,-7.783748113465489A7.783748113465489,7.783748113465489,0,1,1,-4.76617110626238e-16,7.783748113465489A7.783748113465489,7.783748113465489,0,1,1,4.76617110626238e-16,-7.783748113465489Z" style="fill: rgb(191, 105, 105);"></path></g><text y="17.78374811346549" style="text-anchor: middle; font-size: 11px; font-family: Arial, Helvetica;">A/B</text></g><g transform="translate(300,4100)"><g class="arc"><path d="M4.596328961592984e-16,-7.506374841779894A7.506374841779894,7.506374841779894,0,1,1,-4.596328961592984e-16,7.506374841779894A7.506374841779894,7.506374841779894,0,1,1,4.596328961592984e-16,-7.506374841779894Z" style="fill: rgb(191, 105, 105);"></path></g><text y="17.506374841779895" style="text-anchor: middle; font-size: 11px; font-family: Arial, Helvetica;">B/D#</text></g><g transform="translate(500,4100)"><g class="arc"><path d="M4.571550727383075e-16,-7.465908914416739A7.465908914416739,7.465908914416739,0,1,1,-4.571550727383075e-16,7.465908914416739A7.465908914416739,7.465908914416739,0,1,1,4.571550727383075e-16,-7.465908914416739Z" style="fill: rgb(191, 105, 105);"></path></g><text y="17.46590891441674" style="text-anchor: middle; font-size: 11px; font-family: Arial, Helvetica;">C#m/A</text></g><g transform="translate(700,4100)"><g class="arc"><path d="M4.521586924162061e-16,-7.384311831476905A7.384311831476905,7.384311831476905,0,1,1,-4.521586924162061e-16,7.384311831476905A7.384311831476905,7.384311831476905,0,1,1,4.521586924162061e-16,-7.384311831476905Z" style="fill: rgb(191, 105, 105);"></path></g><text y="17.384311831476907" style="text-anchor: middle; font-size: 11px; font-family: Arial, Helvetica;">Dm/A</text></g><g transform="translate(100,4300)"><g class="arc"><path d="M4.471064814165628e-16,-7.301802964378884A7.301802964378884,7.301802964378884,0,1,1,-4.471064814165628e-16,7.301802964378884A7.301802964378884,7.301802964378884,0,1,1,4.471064814165628e-16,-7.301802964378884Z" style="fill: rgb(191, 105, 105);"></path></g><text y="17.301802964378883" style="text-anchor: middle; font-size: 11px; font-family: Arial, Helvetica;">A/G</text></g><g transform="translate(300,4300)"><g class="arc"><path d="M4.4199652523732024e-16,-7.218351046931335A7.218351046931335,7.218351046931335,0,1,1,-4.4199652523732024e-16,7.218351046931335A7.218351046931335,7.218351046931335,0,1,1,4.4199652523732024e-16,-7.218351046931335Z" style="fill: rgb(191, 105, 105);"></path></g><text y="17.218351046931335" style="text-anchor: middle; font-size: 11px; font-family: Arial, Helvetica;">F#m7</text></g><g transform="translate(500,4300)"><g class="arc"><path d="M4.368267973911754e-16,-7.133922984085063A7.133922984085063,7.133922984085063,0,1,1,-4.368267973911754e-16,7.133922984085063A7.133922984085063,7.133922984085063,0,1,1,4.368267973911754e-16,-7.133922984085063Z" style="fill: rgb(191, 105, 105);"></path></g><text y="17.133922984085064" style="text-anchor: middle; font-size: 11px; font-family: Arial, Helvetica;">A7(4)</text></g><g transform="translate(700,4300)"><g class="arc"><path d="M4.368267973911754e-16,-7.133922984085063A7.133922984085063,7.133922984085063,0,1,1,-4.368267973911754e-16,7.133922984085063A7.133922984085063,7.133922984085063,0,1,1,4.368267973911754e-16,-7.133922984085063Z" style="fill: rgb(191, 105, 105);"></path></g><text y="17.133922984085064" style="text-anchor: middle; font-size: 11px; font-family: Arial, Helvetica;">C/D</text></g><g transform="translate(100,4500)"><g class="arc"><path d="M4.168697166482632e-16,-6.807999121681519A6.807999121681519,6.807999121681519,0,1,1,-4.168697166482632e-16,6.807999121681519A6.807999121681519,6.807999121681519,0,1,1,4.168697166482632e-16,-6.807999121681519Z" style="fill: rgb(191, 105, 105);"></path></g><text y="16.80799912168152" style="text-anchor: middle; font-size: 11px; font-family: Arial, Helvetica;">D/C#</text></g><g transform="translate(300,4500)"><g class="arc"><path d="M4.03016336084926e-16,-6.5817562478507545A6.5817562478507545,6.5817562478507545,0,1,1,-4.03016336084926e-16,6.5817562478507545A6.5817562478507545,6.5817562478507545,0,1,1,4.03016336084926e-16,-6.5817562478507545Z" style="fill: rgb(191, 105, 105);"></path></g><text y="16.581756247850755" style="text-anchor: middle; font-size: 11px; font-family: Arial, Helvetica;">A5+</text></g><g transform="translate(500,4500)"><g class="arc"><path d="M3.9733976613030313e-16,-6.489050825216651A6.489050825216651,6.489050825216651,0,1,1,-3.9733976613030313e-16,6.489050825216651A6.489050825216651,6.489050825216651,0,1,1,3.9733976613030313e-16,-6.489050825216651Z" style="fill: rgb(191, 105, 105);"></path></g><text y="16.48905082521665" style="text-anchor: middle; font-size: 11px; font-family: Arial, Helvetica;">Em6</text></g><g transform="translate(700,4500)"><g class="arc"><path d="M3.959079064602972e-16,-6.465666782225597A6.465666782225597,6.465666782225597,0,1,1,-3.959079064602972e-16,6.465666782225597A6.465666782225597,6.465666782225597,0,1,1,3.959079064602972e-16,-6.465666782225597Z" style="fill: rgb(191, 105, 105);"></path></g><text y="16.465666782225597" style="text-anchor: middle; font-size: 11px; font-family: Arial, Helvetica;">G7+</text></g><g transform="translate(100,4700)"><g class="arc"><path d="M3.930285380177354e-16,-6.418643127004082A6.418643127004082,6.418643127004082,0,1,1,-3.930285380177354e-16,6.418643127004082A6.418643127004082,6.418643127004082,0,1,1,3.930285380177354e-16,-6.418643127004082Z" style="fill: rgb(191, 105, 105);"></path></g><text y="16.41864312700408" style="text-anchor: middle; font-size: 11px; font-family: Arial, Helvetica;">G#</text></g><g transform="translate(300,4700)"><g class="arc"><path d="M3.8720557110341835e-16,-6.323546860580634A6.323546860580634,6.323546860580634,0,1,1,-3.8720557110341835e-16,6.323546860580634A6.323546860580634,6.323546860580634,0,1,1,3.8720557110341835e-16,-6.323546860580634Z" style="fill: rgb(191, 105, 105);"></path></g><text y="16.323546860580635" style="text-anchor: middle; font-size: 11px; font-family: Arial, Helvetica;">Bb/D</text></g><g transform="translate(500,4700)"><g class="arc"><path d="M3.812936885009904e-16,-6.226998490772391A6.226998490772391,6.226998490772391,0,1,1,-3.812936885009904e-16,6.226998490772391A6.226998490772391,6.226998490772391,0,1,1,3.812936885009904e-16,-6.226998490772391Z" style="fill: rgb(191, 105, 105);"></path></g><text y="16.22699849077239" style="text-anchor: middle; font-size: 11px; font-family: Arial, Helvetica;">D/C</text></g><g transform="translate(700,4700)"><g class="arc"><path d="M3.812936885009904e-16,-6.226998490772391A6.226998490772391,6.226998490772391,0,1,1,-3.812936885009904e-16,6.226998490772391A6.226998490772391,6.226998490772391,0,1,1,3.812936885009904e-16,-6.226998490772391Z" style="fill: rgb(191, 105, 105);"></path></g><text y="16.22699849077239" style="text-anchor: middle; font-size: 11px; font-family: Arial, Helvetica;">Gm/Bb</text></g><g transform="translate(100,4900)"><g class="arc"><path d="M3.7830310359455583e-16,-6.178158532859355A6.178158532859355,6.178158532859355,0,1,1,-3.7830310359455583e-16,6.178158532859355A6.178158532859355,6.178158532859355,0,1,1,3.7830310359455583e-16,-6.178158532859355Z" style="fill: rgb(191, 105, 105);"></path></g><text y="16.178158532859356" style="text-anchor: middle; font-size: 11px; font-family: Arial, Helvetica;">B5</text></g><g transform="translate(300,4900)"><g class="arc"><path d="M3.6298077729018666e-16,-5.92792595453494A5.92792595453494,5.92792595453494,0,1,1,-3.6298077729018666e-16,5.92792595453494A5.92792595453494,5.92792595453494,0,1,1,3.6298077729018666e-16,-5.92792595453494Z" style="fill: rgb(191, 105, 105);"></path></g><text y="15.92792595453494" style="text-anchor: middle; font-size: 11px; font-family: Arial, Helvetica;">C#7</text></g><g transform="translate(500,4900)"><g class="arc"><path d="M3.59838027424522e-16,-5.876600954251548A5.876600954251548,5.876600954251548,0,1,1,-3.59838027424522e-16,5.876600954251548A5.876600954251548,5.876600954251548,0,1,1,3.59838027424522e-16,-5.876600954251548Z" style="fill: rgb(191, 105, 105);"></path></g><text y="15.876600954251547" style="text-anchor: middle; font-size: 11px; font-family: Arial, Helvetica;">G5(7M)</text></g><g transform="translate(700,4900)"><g class="arc"><path d="M3.59838027424522e-16,-5.876600954251548A5.876600954251548,5.876600954251548,0,1,1,-3.59838027424522e-16,5.876600954251548A5.876600954251548,5.876600954251548,0,1,1,3.59838027424522e-16,-5.876600954251548Z" style="fill: rgb(191, 105, 105);"></path></g><text y="15.876600954251547" style="text-anchor: middle; font-size: 11px; font-family: Arial, Helvetica;">G5(7)</text></g><g transform="translate(100,5100)"><g class="arc"><path d="M3.534687094750213e-16,-5.7725820983016485A5.7725820983016485,5.7725820983016485,0,1,1,-3.534687094750213e-16,5.7725820983016485A5.7725820983016485,5.7725820983016485,0,1,1,3.534687094750213e-16,-5.7725820983016485Z" style="fill: rgb(191, 105, 105);"></path></g><text y="15.772582098301648" style="text-anchor: middle; font-size: 11px; font-family: Arial, Helvetica;">C#</text></g><g transform="translate(300,5100)"><g class="arc"><path d="M3.502406171141776e-16,-5.719863349302488A5.719863349302488,5.719863349302488,0,1,1,-3.502406171141776e-16,5.719863349302488A5.719863349302488,5.719863349302488,0,1,1,3.502406171141776e-16,-5.719863349302488Z" style="fill: rgb(191, 105, 105);"></path></g><text y="15.71986334930249" style="text-anchor: middle; font-size: 11px; font-family: Arial, Helvetica;">F#dim</text></g><g transform="translate(500,5100)"><g class="arc"><path d="M3.453419056882532e-16,-5.639861320483484A5.639861320483484,5.639861320483484,0,1,1,-3.453419056882532e-16,5.639861320483484A5.639861320483484,5.639861320483484,0,1,1,3.453419056882532e-16,-5.639861320483484Z" style="fill: rgb(191, 105, 105);"></path></g><text y="15.639861320483483" style="text-anchor: middle; font-size: 11px; font-family: Arial, Helvetica;">Ab</text></g><g transform="translate(700,5100)"><g class="arc"><path d="M3.453419056882532e-16,-5.639861320483484A5.639861320483484,5.639861320483484,0,1,1,-3.453419056882532e-16,5.639861320483484A5.639861320483484,5.639861320483484,0,1,1,3.453419056882532e-16,-5.639861320483484Z" style="fill: rgb(191, 105, 105);"></path></g><text y="15.639861320483483" style="text-anchor: middle; font-size: 11px; font-family: Arial, Helvetica;">A6</text></g><g transform="translate(100,5300)"><g class="arc"><path d="M3.3532986106242203e-16,-5.476352223284162A5.476352223284162,5.476352223284162,0,1,1,-3.3532986106242203e-16,5.476352223284162A5.476352223284162,5.476352223284162,0,1,1,3.3532986106242203e-16,-5.476352223284162Z" style="fill: rgb(191, 105, 105);"></path></g><text y="15.476352223284163" style="text-anchor: middle; font-size: 11px; font-family: Arial, Helvetica;">Dm6</text></g><g transform="translate(300,5300)"><g class="arc"><path d="M3.302100205445282e-16,-5.39273888233625A5.39273888233625,5.39273888233625,0,1,1,-3.302100205445282e-16,5.39273888233625A5.39273888233625,5.39273888233625,0,1,1,3.302100205445282e-16,-5.39273888233625Z" style="fill: rgb(191, 105, 105);"></path></g><text y="15.39273888233625" style="text-anchor: middle; font-size: 11px; font-family: Arial, Helvetica;">F6</text></g><g transform="translate(500,5300)"><g class="arc"><path d="M3.267522287094622e-16,-5.336268856244263A5.336268856244263,5.336268856244263,0,1,1,-3.267522287094622e-16,5.336268856244263A5.336268856244263,5.336268856244263,0,1,1,3.267522287094622e-16,-5.336268856244263Z" style="fill: rgb(191, 105, 105);"></path></g><text y="15.336268856244264" style="text-anchor: middle; font-size: 11px; font-family: Arial, Helvetica;">D7+</text></g><g transform="translate(700,5300)"><g class="arc"><path d="M3.2325745198708665e-16,-5.279194821105172A5.279194821105172,5.279194821105172,0,1,1,-3.2325745198708665e-16,5.279194821105172A5.279194821105172,5.279194821105172,0,1,1,3.2325745198708665e-16,-5.279194821105172Z" style="fill: rgb(191, 105, 105);"></path></g><text y="15.279194821105172" style="text-anchor: middle; font-size: 11px; font-family: Arial, Helvetica;">G9</text></g><g transform="translate(100,5500)"><g class="arc"><path d="M3.2325745198708665e-16,-5.279194821105172A5.279194821105172,5.279194821105172,0,1,1,-3.2325745198708665e-16,5.279194821105172A5.279194821105172,5.279194821105172,0,1,1,3.2325745198708665e-16,-5.279194821105172Z" style="fill: rgb(191, 105, 105);"></path></g><text y="15.279194821105172" style="text-anchor: middle; font-size: 11px; font-family: Arial, Helvetica;">Am6</text></g><g transform="translate(300,5500)"><g class="arc"><path d="M3.2325745198708665e-16,-5.279194821105172A5.279194821105172,5.279194821105172,0,1,1,-3.2325745198708665e-16,5.279194821105172A5.279194821105172,5.279194821105172,0,1,1,3.2325745198708665e-16,-5.279194821105172Z" style="fill: rgb(191, 105, 105);"></path></g><text y="15.279194821105172" style="text-anchor: middle; font-size: 11px; font-family: Arial, Helvetica;">C#m/A#</text></g><g transform="translate(500,5500)"><g class="arc"><path d="M3.214958178802255e-16,-5.25042515285327A5.25042515285327,5.25042515285327,0,1,1,-3.214958178802255e-16,5.25042515285327A5.25042515285327,5.25042515285327,0,1,1,3.214958178802255e-16,-5.25042515285327Z" style="fill: rgb(191, 105, 105);"></path></g><text y="15.250425152853271" style="text-anchor: middle; font-size: 11px; font-family: Arial, Helvetica;">C/E</text></g><g transform="translate(700,5500)"><g class="arc"><path d="M3.0518385730260783e-16,-4.984030620340309A4.984030620340309,4.984030620340309,0,1,1,-3.0518385730260783e-16,4.984030620340309A4.984030620340309,4.984030620340309,0,1,1,3.0518385730260783e-16,-4.984030620340309Z" style="fill: rgb(191, 105, 105);"></path></g><text y="14.98403062034031" style="text-anchor: middle; font-size: 11px; font-family: Arial, Helvetica;">C#m7/B</text></g><g transform="translate(100,5700)"><g class="arc"><path d="M3.0518385730260783e-16,-4.984030620340309A4.984030620340309,4.984030620340309,0,1,1,-3.0518385730260783e-16,4.984030620340309A4.984030620340309,4.984030620340309,0,1,1,3.0518385730260783e-16,-4.984030620340309Z" style="fill: rgb(191, 105, 105);"></path></g><text y="14.98403062034031" style="text-anchor: middle; font-size: 11px; font-family: Arial, Helvetica;">G/F#</text></g><g transform="translate(300,5700)"><g class="arc"><path d="M3.0518385730260783e-16,-4.984030620340309A4.984030620340309,4.984030620340309,0,1,1,-3.0518385730260783e-16,4.984030620340309A4.984030620340309,4.984030620340309,0,1,1,3.0518385730260783e-16,-4.984030620340309Z" style="fill: rgb(191, 105, 105);"></path></g><text y="14.98403062034031" style="text-anchor: middle; font-size: 11px; font-family: Arial, Helvetica;">G/E</text></g><g transform="translate(500,5700)"><g class="arc"><path d="M3.0518385730260783e-16,-4.984030620340309A4.984030620340309,4.984030620340309,0,1,1,-3.0518385730260783e-16,4.984030620340309A4.984030620340309,4.984030620340309,0,1,1,3.0518385730260783e-16,-4.984030620340309Z" style="fill: rgb(191, 105, 105);"></path></g><text y="14.98403062034031" style="text-anchor: middle; font-size: 11px; font-family: Arial, Helvetica;">A7sus4</text></g><g transform="translate(700,5700)"><g class="arc"><path d="M3.033172718580166e-16,-4.953546966671499A4.953546966671499,4.953546966671499,0,1,1,-3.033172718580166e-16,4.953546966671499A4.953546966671499,4.953546966671499,0,1,1,3.033172718580166e-16,-4.953546966671499Z" style="fill: rgb(191, 105, 105);"></path></g><text y="14.9535469666715" style="text-anchor: middle; font-size: 11px; font-family: Arial, Helvetica;">C9</text></g><g transform="translate(100,5900)"><g class="arc"><path d="M2.9764729018632836e-16,-4.860949138862928A4.860949138862928,4.860949138862928,0,1,1,-2.9764729018632836e-16,4.860949138862928A4.860949138862928,4.860949138862928,0,1,1,2.9764729018632836e-16,-4.860949138862928Z" style="fill: rgb(191, 105, 105);"></path></g><text y="14.860949138862928" style="text-anchor: middle; font-size: 11px; font-family: Arial, Helvetica;">F7(9)</text></g><g transform="translate(300,5900)"><g class="arc"><path d="M2.9764729018632836e-16,-4.860949138862928A4.860949138862928,4.860949138862928,0,1,1,-2.9764729018632836e-16,4.860949138862928A4.860949138862928,4.860949138862928,0,1,1,2.9764729018632836e-16,-4.860949138862928Z" style="fill: rgb(191, 105, 105);"></path></g><text y="14.860949138862928" style="text-anchor: middle; font-size: 11px; font-family: Arial, Helvetica;">F/D#</text></g><g transform="translate(500,5900)"><g class="arc"><path d="M2.9764729018632836e-16,-4.860949138862928A4.860949138862928,4.860949138862928,0,1,1,-2.9764729018632836e-16,4.860949138862928A4.860949138862928,4.860949138862928,0,1,1,2.9764729018632836e-16,-4.860949138862928Z" style="fill: rgb(191, 105, 105);"></path></g><text y="14.860949138862928" style="text-anchor: middle; font-size: 11px; font-family: Arial, Helvetica;">D7(9)</text></g><g transform="translate(700,5900)"><g class="arc"><path d="M2.9764729018632836e-16,-4.860949138862928A4.860949138862928,4.860949138862928,0,1,1,-2.9764729018632836e-16,4.860949138862928A4.860949138862928,4.860949138862928,0,1,1,2.9764729018632836e-16,-4.860949138862928Z" style="fill: rgb(191, 105, 105);"></path></g><text y="14.860949138862928" style="text-anchor: middle; font-size: 11px; font-family: Arial, Helvetica;">C7(9)</text></g><g transform="translate(100,6100)"><g class="arc"><path d="M2.9764729018632836e-16,-4.860949138862928A4.860949138862928,4.860949138862928,0,1,1,-2.9764729018632836e-16,4.860949138862928A4.860949138862928,4.860949138862928,0,1,1,2.9764729018632836e-16,-4.860949138862928Z" style="fill: rgb(191, 105, 105);"></path></g><text y="14.860949138862928" style="text-anchor: middle; font-size: 11px; font-family: Arial, Helvetica;">D5+</text></g><g transform="translate(300,6100)"><g class="arc"><path d="M2.9764729018632836e-16,-4.860949138862928A4.860949138862928,4.860949138862928,0,1,1,-2.9764729018632836e-16,4.860949138862928A4.860949138862928,4.860949138862928,0,1,1,2.9764729018632836e-16,-4.860949138862928Z" style="fill: rgb(191, 105, 105);"></path></g><text y="14.860949138862928" style="text-anchor: middle; font-size: 11px; font-family: Arial, Helvetica;">D6</text></g><g transform="translate(500,6100)"><g class="arc"><path d="M2.918671809284813e-16,-4.766552791085407A4.766552791085407,4.766552791085407,0,1,1,-2.918671809284813e-16,4.766552791085407A4.766552791085407,4.766552791085407,0,1,1,2.918671809284813e-16,-4.766552791085407Z" style="fill: rgb(191, 105, 105);"></path></g><text y="14.766552791085406" style="text-anchor: middle; font-size: 11px; font-family: Arial, Helvetica;">E/B</text></g><g transform="translate(700,6100)"><g class="arc"><path d="M2.859702663757428e-16,-4.670248868079293A4.670248868079293,4.670248868079293,0,1,1,-2.859702663757428e-16,4.670248868079293A4.670248868079293,4.670248868079293,0,1,1,2.859702663757428e-16,-4.670248868079293Z" style="fill: rgb(191, 105, 105);"></path></g><text y="14.670248868079293" style="text-anchor: middle; font-size: 11px; font-family: Arial, Helvetica;">C7M</text></g><g transform="translate(100,6300)"><g class="arc"><path d="M2.675006898956274e-16,-4.368617793830381A4.368617793830381,4.368617793830381,0,1,1,-2.675006898956274e-16,4.368617793830381A4.368617793830381,4.368617793830381,0,1,1,2.675006898956274e-16,-4.368617793830381Z" style="fill: rgb(191, 105, 105);"></path></g><text y="14.368617793830381" style="text-anchor: middle; font-size: 11px; font-family: Arial, Helvetica;">F5</text></g><g transform="translate(300,6300)"><g class="arc"><path d="M2.675006898956274e-16,-4.368617793830381A4.368617793830381,4.368617793830381,0,1,1,-2.675006898956274e-16,4.368617793830381A4.368617793830381,4.368617793830381,0,1,1,2.675006898956274e-16,-4.368617793830381Z" style="fill: rgb(191, 105, 105);"></path></g><text y="14.368617793830381" style="text-anchor: middle; font-size: 11px; font-family: Arial, Helvetica;">E5+</text></g><g transform="translate(500,6300)"><g class="arc"><path d="M2.675006898956274e-16,-4.368617793830381A4.368617793830381,4.368617793830381,0,1,1,-2.675006898956274e-16,4.368617793830381A4.368617793830381,4.368617793830381,0,1,1,2.675006898956274e-16,-4.368617793830381Z" style="fill: rgb(191, 105, 105);"></path></g><text y="14.368617793830381" style="text-anchor: middle; font-size: 11px; font-family: Arial, Helvetica;">E7+</text></g><g transform="translate(700,6300)"><g class="arc"><path d="M2.544439093206704e-16,-4.155384385078606A4.155384385078606,4.155384385078606,0,1,1,-2.544439093206704e-16,4.155384385078606A4.155384385078606,4.155384385078606,0,1,1,2.544439093206704e-16,-4.155384385078606Z" style="fill: rgb(191, 105, 105);"></path></g><text y="14.155384385078605" style="text-anchor: middle; font-size: 11px; font-family: Arial, Helvetica;">D/G</text></g><g transform="translate(100,6500)"><g class="arc"><path d="M2.544439093206704e-16,-4.155384385078606A4.155384385078606,4.155384385078606,0,1,1,-2.544439093206704e-16,4.155384385078606A4.155384385078606,4.155384385078606,0,1,1,2.544439093206704e-16,-4.155384385078606Z" style="fill: rgb(191, 105, 105);"></path></g><text y="14.155384385078605" style="text-anchor: middle; font-size: 11px; font-family: Arial, Helvetica;">F7M(11+)</text></g><g transform="translate(300,6500)"><g class="arc"><path d="M2.544439093206704e-16,-4.155384385078606A4.155384385078606,4.155384385078606,0,1,1,-2.544439093206704e-16,4.155384385078606A4.155384385078606,4.155384385078606,0,1,1,2.544439093206704e-16,-4.155384385078606Z" style="fill: rgb(191, 105, 105);"></path></g><text y="14.155384385078605" style="text-anchor: middle; font-size: 11px; font-family: Arial, Helvetica;">C#m7(5-)</text></g><g transform="translate(500,6500)"><g class="arc"><path d="M2.544439093206704e-16,-4.155384385078606A4.155384385078606,4.155384385078606,0,1,1,-2.544439093206704e-16,4.155384385078606A4.155384385078606,4.155384385078606,0,1,1,2.544439093206704e-16,-4.155384385078606Z" style="fill: rgb(191, 105, 105);"></path></g><text y="14.155384385078605" style="text-anchor: middle; font-size: 11px; font-family: Arial, Helvetica;">Cm(7M)</text></g><g transform="translate(700,6500)"><g class="arc"><path d="M2.522020690630372e-16,-4.11877235523957A4.11877235523957,4.11877235523957,0,1,1,-2.522020690630372e-16,4.11877235523957A4.11877235523957,4.11877235523957,0,1,1,2.522020690630372e-16,-4.11877235523957Z" style="fill: rgb(191, 105, 105);"></path></g><text y="14.118772355239571" style="text-anchor: middle; font-size: 11px; font-family: Arial, Helvetica;">F#7</text></g><g transform="translate(100,6700)"><g class="arc"><path d="M2.476575154083961e-16,-4.044554161752187A4.044554161752187,4.044554161752187,0,1,1,-2.476575154083961e-16,4.044554161752187A4.044554161752187,4.044554161752187,0,1,1,2.476575154083961e-16,-4.044554161752187Z" style="fill: rgb(191, 105, 105);"></path></g><text y="14.044554161752188" style="text-anchor: middle; font-size: 11px; font-family: Arial, Helvetica;">Em/D</text></g><g transform="translate(300,6700)"><g class="arc"><path d="M2.4302799475953986e-16,-3.9689483519451554A3.9689483519451554,3.9689483519451554,0,1,1,-2.4302799475953986e-16,3.9689483519451554A3.9689483519451554,3.9689483519451554,0,1,1,2.4302799475953986e-16,-3.9689483519451554Z" style="fill: rgb(191, 105, 105);"></path></g><text y="13.968948351945155" style="text-anchor: middle; font-size: 11px; font-family: Arial, Helvetica;">Abm</text></g><g transform="translate(500,6700)"><g class="arc"><path d="M2.4302799475953986e-16,-3.9689483519451554A3.9689483519451554,3.9689483519451554,0,1,1,-2.4302799475953986e-16,3.9689483519451554A3.9689483519451554,3.9689483519451554,0,1,1,2.4302799475953986e-16,-3.9689483519451554Z" style="fill: rgb(191, 105, 105);"></path></g><text y="13.968948351945155" style="text-anchor: middle; font-size: 11px; font-family: Arial, Helvetica;">Bb7m</text></g><g transform="translate(700,6700)"><g class="arc"><path d="M2.4067984312387777e-16,-3.9306001255455607A3.9306001255455607,3.9306001255455607,0,1,1,-2.4067984312387777e-16,3.9306001255455607A3.9306001255455607,3.9306001255455607,0,1,1,2.4067984312387777e-16,-3.9306001255455607Z" style="fill: rgb(191, 105, 105);"></path></g><text y="13.93060012554556" style="text-anchor: middle; font-size: 11px; font-family: Arial, Helvetica;">A4/7</text></g><g transform="translate(100,6900)"><g class="arc"><path d="M2.3591343366734626e-16,-3.8527587518556103A3.8527587518556103,3.8527587518556103,0,1,1,-2.3591343366734626e-16,3.8527587518556103A3.8527587518556103,3.8527587518556103,0,1,1,2.3591343366734626e-16,-3.8527587518556103Z" style="fill: rgb(191, 105, 105);"></path></g><text y="13.85275875185561" style="text-anchor: middle; font-size: 11px; font-family: Arial, Helvetica;">E6</text></g><g transform="translate(300,6900)"><g class="arc"><path d="M2.3349374474278504e-16,-3.8132422328683258A3.8132422328683258,3.8132422328683258,0,1,1,-2.3349374474278504e-16,3.8132422328683258A3.8132422328683258,3.8132422328683258,0,1,1,2.3349374474278504e-16,-3.8132422328683258Z" style="fill: rgb(191, 105, 105);"></path></g><text y="13.813242232868326" style="text-anchor: middle; font-size: 11px; font-family: Arial, Helvetica;">Fmaj7</text></g><g transform="translate(500,6900)"><g class="arc"><path d="M2.2857753636915375e-16,-3.7329544572083697A3.7329544572083697,3.7329544572083697,0,1,1,-2.2857753636915375e-16,3.7329544572083697A3.7329544572083697,3.7329544572083697,0,1,1,2.2857753636915375e-16,-3.7329544572083697Z" style="fill: rgb(191, 105, 105);"></path></g><text y="13.73295445720837" style="text-anchor: middle; font-size: 11px; font-family: Arial, Helvetica;">Fm6</text></g><g transform="translate(700,6900)"><g class="arc"><path d="M2.2607934620810304e-16,-3.6921559157384527A3.6921559157384527,3.6921559157384527,0,1,1,-2.2607934620810304e-16,3.6921559157384527A3.6921559157384527,3.6921559157384527,0,1,1,2.2607934620810304e-16,-3.6921559157384527Z" style="fill: rgb(191, 105, 105);"></path></g><text y="13.692155915738454" style="text-anchor: middle; font-size: 11px; font-family: Arial, Helvetica;">Bb7</text></g><g transform="translate(100,7100)"><g class="arc"><path d="M2.235532407082814e-16,-3.650901482189442A3.650901482189442,3.650901482189442,0,1,1,-2.235532407082814e-16,3.650901482189442A3.650901482189442,3.650901482189442,0,1,1,2.235532407082814e-16,-3.650901482189442Z" style="fill: rgb(191, 105, 105);"></path></g><text y="13.650901482189441" style="text-anchor: middle; font-size: 11px; font-family: Arial, Helvetica;">B7+</text></g><g transform="translate(300,7100)"><g class="arc"><path d="M2.235532407082814e-16,-3.650901482189442A3.650901482189442,3.650901482189442,0,1,1,-2.235532407082814e-16,3.650901482189442A3.650901482189442,3.650901482189442,0,1,1,2.235532407082814e-16,-3.650901482189442Z" style="fill: rgb(191, 105, 105);"></path></g><text y="13.650901482189441" style="text-anchor: middle; font-size: 11px; font-family: Arial, Helvetica;">G#7</text></g><g transform="translate(500,7100)"><g class="arc"><path d="M2.2099826261866012e-16,-3.6091755234656673A3.6091755234656673,3.6091755234656673,0,1,1,-2.2099826261866012e-16,3.6091755234656673A3.6091755234656673,3.6091755234656673,0,1,1,2.2099826261866012e-16,-3.6091755234656673Z" style="fill: rgb(191, 105, 105);"></path></g><text y="13.609175523465668" style="text-anchor: middle; font-size: 11px; font-family: Arial, Helvetica;">C#7m</text></g><g transform="translate(700,7100)"><g class="arc"><path d="M2.184133986955877e-16,-3.5669614920425317A3.5669614920425317,3.5669614920425317,0,1,1,-2.184133986955877e-16,3.5669614920425317A3.5669614920425317,3.5669614920425317,0,1,1,2.184133986955877e-16,-3.5669614920425317Z" style="fill: rgb(191, 105, 105);"></path></g><text y="13.566961492042532" style="text-anchor: middle; font-size: 11px; font-family: Arial, Helvetica;">C5</text></g><g transform="translate(100,7300)"><g class="arc"><path d="M2.1046841729255294e-16,-3.4372100990928853A3.4372100990928853,3.4372100990928853,0,1,1,-2.1046841729255294e-16,3.4372100990928853A3.4372100990928853,3.4372100990928853,0,1,1,2.1046841729255294e-16,-3.4372100990928853Z" style="fill: rgb(191, 105, 105);"></path></g><text y="13.437210099092885" style="text-anchor: middle; font-size: 11px; font-family: Arial, Helvetica;">E/D</text></g><g transform="translate(300,7300)"><g class="arc"><path d="M1.965142690088677e-16,-3.209321563502041A3.209321563502041,3.209321563502041,0,1,1,-1.965142690088677e-16,3.209321563502041A3.209321563502041,3.209321563502041,0,1,1,1.965142690088677e-16,-3.209321563502041Z" style="fill: rgb(191, 105, 105);"></path></g><text y="13.20932156350204" style="text-anchor: middle; font-size: 11px; font-family: Arial, Helvetica;">B4</text></g><g transform="translate(500,7300)"><g class="arc"><path d="M1.9360278555170917e-16,-3.161773430290317A3.161773430290317,3.161773430290317,0,1,1,-1.9360278555170917e-16,3.161773430290317A3.161773430290317,3.161773430290317,0,1,1,1.9360278555170917e-16,-3.161773430290317Z" style="fill: rgb(191, 105, 105);"></path></g><text y="13.161773430290317" style="text-anchor: middle; font-size: 11px; font-family: Arial, Helvetica;">Db6</text></g><g transform="translate(700,7300)"><g class="arc"><path d="M1.9360278555170917e-16,-3.161773430290317A3.161773430290317,3.161773430290317,0,1,1,-1.9360278555170917e-16,3.161773430290317A3.161773430290317,3.161773430290317,0,1,1,1.9360278555170917e-16,-3.161773430290317Z" style="fill: rgb(191, 105, 105);"></path></g><text y="13.161773430290317" style="text-anchor: middle; font-size: 11px; font-family: Arial, Helvetica;">Am7m</text></g><g transform="translate(100,7500)"><g class="arc"><path d="M1.9360278555170917e-16,-3.161773430290317A3.161773430290317,3.161773430290317,0,1,1,-1.9360278555170917e-16,3.161773430290317A3.161773430290317,3.161773430290317,0,1,1,1.9360278555170917e-16,-3.161773430290317Z" style="fill: rgb(191, 105, 105);"></path></g><text y="13.161773430290317" style="text-anchor: middle; font-size: 11px; font-family: Arial, Helvetica;">Ebm/Db</text></g><g transform="translate(300,7500)"><g class="arc"><path d="M1.9360278555170917e-16,-3.161773430290317A3.161773430290317,3.161773430290317,0,1,1,-1.9360278555170917e-16,3.161773430290317A3.161773430290317,3.161773430290317,0,1,1,1.9360278555170917e-16,-3.161773430290317Z" style="fill: rgb(191, 105, 105);"></path></g><text y="13.161773430290317" style="text-anchor: middle; font-size: 11px; font-family: Arial, Helvetica;">Cm5</text></g><g transform="translate(500,7500)"><g class="arc"><path d="M1.8459301319729176e-16,-3.0146326814525235A3.0146326814525235,3.0146326814525235,0,1,1,-1.8459301319729176e-16,3.0146326814525235A3.0146326814525235,3.0146326814525235,0,1,1,1.8459301319729176e-16,-3.0146326814525235Z" style="fill: rgb(191, 105, 105);"></path></g><text y="13.014632681452523" style="text-anchor: middle; font-size: 11px; font-family: Arial, Helvetica;">Fm6/Ab</text></g><g transform="translate(700,7500)"><g class="arc"><path d="M1.8459301319729176e-16,-3.0146326814525235A3.0146326814525235,3.0146326814525235,0,1,1,-1.8459301319729176e-16,3.0146326814525235A3.0146326814525235,3.0146326814525235,0,1,1,1.8459301319729176e-16,-3.0146326814525235Z" style="fill: rgb(191, 105, 105);"></path></g><text y="13.014632681452523" style="text-anchor: middle; font-size: 11px; font-family: Arial, Helvetica;">F7</text></g><g transform="translate(100,7700)"><g class="arc"><path d="M1.751203085570888e-16,-2.859931674651244A2.859931674651244,2.859931674651244,0,1,1,-1.751203085570888e-16,2.859931674651244A2.859931674651244,2.859931674651244,0,1,1,1.751203085570888e-16,-2.859931674651244Z" style="fill: rgb(191, 105, 105);"></path></g><text y="12.859931674651245" style="text-anchor: middle; font-size: 11px; font-family: Arial, Helvetica;">G4</text></g><g transform="translate(300,7700)"><g class="arc"><path d="M1.751203085570888e-16,-2.859931674651244A2.859931674651244,2.859931674651244,0,1,1,-1.751203085570888e-16,2.859931674651244A2.859931674651244,2.859931674651244,0,1,1,1.751203085570888e-16,-2.859931674651244Z" style="fill: rgb(191, 105, 105);"></path></g><text y="12.859931674651245" style="text-anchor: middle; font-size: 11px; font-family: Arial, Helvetica;">D/#F</text></g><g transform="translate(500,7700)"><g class="arc"><path d="M1.751203085570888e-16,-2.859931674651244A2.859931674651244,2.859931674651244,0,1,1,-1.751203085570888e-16,2.859931674651244A2.859931674651244,2.859931674651244,0,1,1,1.751203085570888e-16,-2.859931674651244Z" style="fill: rgb(191, 105, 105);"></path></g><text y="12.859931674651245" style="text-anchor: middle; font-size: 11px; font-family: Arial, Helvetica;">D4/7</text></g><g transform="translate(700,7700)"><g class="arc"><path d="M1.6850959547667588e-16,-2.7519705370397216A2.7519705370397216,2.7519705370397216,0,1,1,-1.6850959547667588e-16,2.7519705370397216A2.7519705370397216,2.7519705370397216,0,1,1,1.6850959547667588e-16,-2.7519705370397216Z" style="fill: rgb(191, 105, 105);"></path></g><text y="12.751970537039721" style="text-anchor: middle; font-size: 11px; font-family: Arial, Helvetica;">B7sus4</text></g><g transform="translate(100,7900)"><g class="arc"><path d="M1.5444159531965108e-16,-2.5222226592545596A2.5222226592545596,2.5222226592545596,0,1,1,-1.5444159531965108e-16,2.5222226592545596A2.5222226592545596,2.5222226592545596,0,1,1,1.5444159531965108e-16,-2.5222226592545596Z" style="fill: rgb(191, 105, 105);"></path></g><text y="12.52222265925456" style="text-anchor: middle; font-size: 11px; font-family: Arial, Helvetica;">A7+</text></g><g transform="translate(300,7900)"><g class="arc"><path d="M1.4690325953994977e-16,-2.3991122933115006A2.3991122933115006,2.3991122933115006,0,1,1,-1.4690325953994977e-16,2.3991122933115006A2.3991122933115006,2.3991122933115006,0,1,1,1.4690325953994977e-16,-2.3991122933115006Z" style="fill: rgb(191, 105, 105);"></path></g><text y="12.3991122933115" style="text-anchor: middle; font-size: 11px; font-family: Arial, Helvetica;">C#m/E</text></g><g transform="translate(500,7900)"><g class="arc"><path d="M1.4690325953994977e-16,-2.3991122933115006A2.3991122933115006,2.3991122933115006,0,1,1,-1.4690325953994977e-16,2.3991122933115006A2.3991122933115006,2.3991122933115006,0,1,1,1.4690325953994977e-16,-2.3991122933115006Z" style="fill: rgb(191, 105, 105);"></path></g><text y="12.3991122933115" style="text-anchor: middle; font-size: 11px; font-family: Arial, Helvetica;">C#4</text></g><g transform="translate(700,7900)"><g class="arc"><path d="M1.3480767638134072e-16,-2.2015764296317775A2.2015764296317775,2.2015764296317775,0,1,1,-1.3480767638134072e-16,2.2015764296317775A2.2015764296317775,2.2015764296317775,0,1,1,1.3480767638134072e-16,-2.2015764296317775Z" style="fill: rgb(191, 105, 105);"></path></g><text y="12.201576429631778" style="text-anchor: middle; font-size: 11px; font-family: Arial, Helvetica;">G6</text></g><g transform="translate(100,8100)"><g class="arc"><path d="M1.3480767638134072e-16,-2.2015764296317775A2.2015764296317775,2.2015764296317775,0,1,1,-1.3480767638134072e-16,2.2015764296317775A2.2015764296317775,2.2015764296317775,0,1,1,1.3480767638134072e-16,-2.2015764296317775Z" style="fill: rgb(191, 105, 105);"></path></g><text y="12.201576429631778" style="text-anchor: middle; font-size: 11px; font-family: Arial, Helvetica;">G/F</text></g><g transform="translate(300,8100)"><g class="arc"><path d="M1.3480767638134072e-16,-2.2015764296317775A2.2015764296317775,2.2015764296317775,0,1,1,-1.3480767638134072e-16,2.2015764296317775A2.2015764296317775,2.2015764296317775,0,1,1,1.3480767638134072e-16,-2.2015764296317775Z" style="fill: rgb(191, 105, 105);"></path></g><text y="12.201576429631778" style="text-anchor: middle; font-size: 11px; font-family: Arial, Helvetica;">Bb/F</text></g><g transform="translate(500,8100)"><g class="arc"><path d="M9.53234221252476e-17,-1.5567496226930977A1.5567496226930977,1.5567496226930977,0,1,1,-9.53234221252476e-17,1.5567496226930977A1.5567496226930977,1.5567496226930977,0,1,1,9.53234221252476e-17,-1.5567496226930977Z" style="fill: rgb(191, 105, 105);"></path></g><text y="11.556749622693097" style="text-anchor: middle; font-size: 11px; font-family: Arial, Helvetica;">F#4</text></g><g transform="translate(700,8100)"><g class="arc"><path d="M9.53234221252476e-17,-1.5567496226930977A1.5567496226930977,1.5567496226930977,0,1,1,-9.53234221252476e-17,1.5567496226930977A1.5567496226930977,1.5567496226930977,0,1,1,9.53234221252476e-17,-1.5567496226930977Z" style="fill: rgb(191, 105, 105);"></path></g><text y="11.556749622693097" style="text-anchor: middle; font-size: 11px; font-family: Arial, Helvetica;">E9</text></g><g transform="translate(100,8300)"><g class="arc"><path d="M0,0Z" style="fill: rgb(191, 105, 105);"></path></g><text y="10" style="text-anchor: middle; font-size: 11px; font-family: Arial, Helvetica;">Cm7</text></g><g transform="translate(300,8300)"><g class="arc"><path d="M0,0Z" style="fill: rgb(191, 105, 105);"></path></g><text y="10" style="text-anchor: middle; font-size: 11px; font-family: Arial, Helvetica;">Em/C#</text></g><g transform="translate(500,8300)"><g class="arc"><path d="M0,0Z" style="fill: rgb(191, 105, 105);"></path></g><text y="10" style="text-anchor: middle; font-size: 11px; font-family: Arial, Helvetica;">Bb/C</text></g><g transform="translate(700,8300)"><g class="arc"><path d="M0,0Z" style="fill: rgb(191, 105, 105);"></path></g><text y="10" style="text-anchor: middle; font-size: 11px; font-family: Arial, Helvetica;">Eb/C</text></g></svg>