<svg width="898" height="898" xmlns="http://www.w3.org/2000/svg" version="1.1"><g transform="translate(449, 449)"><g display="none"><path d="M1.9440713462486825e-14,-317.49094475275984A317.49094475275984,317.49094475275984,0,1,1,-1.9440713462486825e-14,317.49094475275984A317.49094475275984,317.49094475275984,0,1,1,1.9440713462486825e-14,-317.49094475275984Z" style="stroke: rgb(255, 255, 255); fill: rgb(191, 105, 105); fill-rule: evenodd;"></path><text transform="translate(9.720356731243413e-15,158.74547237637992)rotate(90)" text-anchor="middle" dx="6" dy=".35em" style="font-size: 11px; font-family: Arial, Helvetica;"></text><title>undefined: none</title></g><g><path d="M2.749332064085808e-14,-449A449,449,0,0,1,3.526401499031396,-448.98615178251055L2.4935424131515065,-317.4811525842657A317.49094475275984,317.49094475275984,0,0,0,1.9440713462486825e-14,-317.49094475275984Z" style="stroke: rgb(255, 255, 255); fill: rgb(191, 105, 105); fill-rule: evenodd;"></path><text transform="translate(1.5049975825079838,-383.2425173167393)rotate(-89.775)" text-anchor="middle" dx="6" dy=".35em" style="font-size: 11px; font-family: Arial, Helvetica;">Am7</text><title>Acima do Sol: 1</title></g><g><path d="M3.526401499031396,-448.98615178251055A449,449,0,0,1,10.578334410291026,-448.87537116788224L7.480011995175783,-317.402818860438A317.49094475275984,317.49094475275984,0,0,0,2.4935424131515065,-317.4811525842657Z" style="stroke: rgb(255, 255, 255); fill: rgb(191, 118, 105); fill-rule: evenodd;"></path><text transform="translate(6.019758242934394,-383.19819233353803)rotate(-89.10000000000001)" text-anchor="middle" dx="6" dy=".35em" style="font-size: 11px; font-family: Arial, Helvetica;">Am7, Dm</text><title>Ainda é Cedo: 2</title></g><g><path d="M10.578334410291026,-448.87537116788224A449,449,0,0,1,49.27070567987937,-446.2884689993757L34.839650100089244,-315.57360279482083A317.49094475275984,317.49094475275984,0,0,0,7.480011995175783,-317.402818860438Z" style="stroke: rgb(255, 255, 255); fill: rgb(191, 105, 105); fill-rule: evenodd;"></path><text transform="translate(25.56602458160287,-382.3917761721445)rotate(-86.175)" text-anchor="middle" dx="6" dy=".35em" style="font-size: 11px; font-family: Arial, Helvetica;">Ab, Bbm, Bbm7, Bm7, Cm7, Db9, Eb4, Eb6, Eb7, Em7, Fm7</text><title>Algo Perdido: 11</title></g><g><path d="M49.27070567987937,-446.2884689993757A449,449,0,0,1,80.66767611834352,-441.6941543983416L57.04066080584082,-312.3249317855253A317.49094475275984,317.49094475275984,0,0,0,34.839650100089244,-315.57360279482083Z" style="stroke: rgb(255, 255, 255); fill: rgb(191, 131, 105); fill-rule: evenodd;"></path><text transform="translate(55.48932603227808,-379.20710277298093)rotate(-81.675)" text-anchor="middle" dx="6" dy=".35em" style="font-size: 11px; font-family: Arial, Helvetica;">A7M/E, Am7, D9(11), E, E7M, Em7, G4/B, G5, G5/F#</text><title>All Star: 9</title></g><g><path d="M80.66767611834352,-441.6941543983416A449,449,0,0,1,97.94631538704768,-438.18662611049757L69.25850380241769,-309.8447347479871A317.49094475275984,317.49094475275984,0,0,0,57.04066080584082,-312.3249317855253Z" style="stroke: rgb(255, 255, 255); fill: rgb(191, 145, 105); fill-rule: evenodd;"></path><text transform="translate(76.24298558956055,-375.58500934593303)rotate(-78.525)" text-anchor="middle" dx="6" dy=".35em" style="font-size: 11px; font-family: Arial, Helvetica;">Bb, Bb9, Dm, Dm/A, Gm</text><title>Amianto: 5</title></g><g><path d="M97.94631538704768,-438.18662611049757A449,449,0,0,1,111.66175933701977,-434.8938393467553L78.95678722642698,-307.5163828983437A317.49094475275984,317.49094475275984,0,0,0,69.25850380241769,-309.8447347479871Z" style="stroke: rgb(255, 255, 255); fill: rgb(187, 128, 29); fill-rule: evenodd;"></path><text transform="translate(89.46687874503237,-372.65636946739045)rotate(-76.5)" text-anchor="middle" dx="6" dy=".35em" style="font-size: 11px; font-family: Arial, Helvetica;">Bbm, Ebm, Fm, Gb</text><title>Anjos: 4</title></g><g><path d="M111.66175933701977,-434.8938393467553A449,449,0,0,1,142.09815826453217,-425.92148738685154L100.47857130296995,-301.1719719843033A317.49094475275984,317.49094475275984,0,0,0,78.95678722642698,-307.5163828983437Z" style="stroke: rgb(255, 255, 255); fill: rgb(204, 176, 87); fill-rule: evenodd;"></path><text transform="translate(108.36649346289703,-367.60548852207097)rotate(-73.575)" text-anchor="middle" dx="6" dy=".35em" style="font-size: 11px; font-family: Arial, Helvetica;">A5(9), Am7, B7, C#m, C9, D, D11/F#, Em7, F#m</text><title>Aonde Quer Que Eu Vá: 9</title></g><g><path d="M142.09815826453217,-425.92148738685154A449,449,0,0,1,162.00406109295125,-418.75492139124924L114.55417017858555,-296.104444570992A317.49094475275984,317.49094475275984,0,0,0,100.47857130296995,-301.1719719843033Z" style="stroke: rgb(255, 255, 255); fill: rgb(204, 197, 114); fill-rule: evenodd;"></path><text transform="translate(129.81977425619922,-360.5882947477137)rotate(-70.2)" text-anchor="middle" dx="6" dy=".35em" style="font-size: 11px; font-family: Arial, Helvetica;">A5, B5, D, D5, E5, G5</text><title>Back In Black: 6</title></g><g><path d="M162.00406109295125,-418.75492139124924A449,449,0,0,1,269.588681171322,-359.0584116607036L190.6279845873799,-253.89263772735447A317.49094475275984,317.49094475275984,0,0,0,114.55417017858555,-296.104444570992Z" style="stroke: rgb(255, 255, 255); fill: rgb(217, 233, 39); fill-rule: evenodd;"></path><text transform="translate(185.947330224331,-335.1129398865973)rotate(-60.975)" text-anchor="middle" dx="6" dy=".35em" style="font-size: 11px; font-family: Arial, Helvetica;">C#, C#º, C7, Cm, Cm/G, Cm/Ab, Cm/A, Cm/Bb, Cm/B, Cm7, D, D/A, D7, Db, Eb, E7, Ebº, F7, Fm, Fm/D, Fm/Eb, Fm/E, G7, Gm, Ab, A, Aº, Abm, Bb, B, Bm, Bb/D, Bb6, Bb7, Bbm/C#</text><title>Bohemian Rhapsody: 35</title></g><g><path d="M269.588681171322,-359.0584116607036A449,449,0,0,1,291.6021737002525,-341.4222785544139L206.19387443218605,-241.42200841398844A317.49094475275984,317.49094475275984,0,0,0,190.6279845873799,-253.89263772735447Z" style="stroke: rgb(255, 255, 255); fill: rgb(171, 191, 105); fill-rule: evenodd;"></path><text transform="translate(239.6214171772399,-299.09642011726874)rotate(-51.3)" text-anchor="middle" dx="6" dy=".35em" style="font-size: 11px; font-family: Arial, Helvetica;">A5, Bm, D5, D7M, Dm, E5, F#m F7M</text><title>Californication: 8</title></g><g><path d="M291.6021737002525,-341.4222785544139A449,449,0,0,1,309.9228068652623,-324.88283085561375L219.14851837879567,-229.72685278908662A317.49094475275984,317.49094475275984,0,0,0,206.19387443218605,-241.42200841398844Z" style="stroke: rgb(255, 255, 255); fill: rgb(158, 191, 105); fill-rule: evenodd;"></path><text transform="translate(256.81386685326106,-284.47096493116845)rotate(-47.925)" text-anchor="middle" dx="6" dy=".35em" style="font-size: 11px; font-family: Arial, Helvetica;">A7, B7, C/E, C/G, Dm, Em, G/D</text><title>Can't Help Falling In Love: 7</title></g><g><path d="M309.9228068652623,-324.88283085561375A449,449,0,0,1,363.2486304743514,-263.9155782793204L256.85556986514024,-186.6164950620766A317.49094475275984,317.49094475275984,0,0,0,219.14851837879567,-229.72685278908662Z" style="stroke: rgb(255, 255, 255); fill: rgb(145, 191, 105); fill-rule: evenodd;"></path><text transform="translate(288.46972735092515,-252.3139086516585)rotate(-41.175000000000004)" text-anchor="middle" dx="6" dy=".35em" style="font-size: 11px; font-family: Arial, Helvetica;">A, A4, A4/E, A7M(9), Bm7(11), Bm7(5-), C#m7(11), C7M, D/E, D5(6/9), D5(7M/9), E, E/D, E4, Em/F,  Em/G, F#m7, F#m7(11), F/G, F7M, G6, G7(9), G7M, </text><title>Codinome Beija-Flor: 23</title></g><g><path d="M363.2486304743514,-263.9155782793204A449,449,0,0,1,369.36559259136607,-255.2842709796845L261.18091525834257,-180.51323913999906A317.49094475275984,317.49094475275984,0,0,0,256.85556986514024,-186.6164950620766Z" style="stroke: rgb(255, 255, 255); fill: rgb(131, 191, 105); fill-rule: evenodd;"></path><text transform="translate(312.6843757336904,-221.5977736102665)rotate(-35.325)" text-anchor="middle" dx="6" dy=".35em" style="font-size: 11px; font-family: Arial, Helvetica;">Dm, Em, F7M</text><title>Como Eu Quero: 3</title></g><g><path d="M369.36559259136607,-255.2842709796845A449,449,0,0,1,379.1032385504048,-240.58623094556944L268.06647074877264,-170.12015536172495A317.49094475275984,317.49094475275984,0,0,0,261.18091525834257,-180.51323913999906Z" style="stroke: rgb(255, 255, 255); fill: rgb(118, 191, 105); fill-rule: evenodd;"></path><text transform="translate(319.49063914880855,-211.6667748922356)rotate(-33.52500000000001)" text-anchor="middle" dx="6" dy=".35em" style="font-size: 11px; font-family: Arial, Helvetica;">Bm, D, Em, G/A, G/B</text><title>Cowboy Fora da Lei: 5</title></g><g><path d="M379.1032385504048,-240.58623094556944A449,449,0,0,1,391.75070717568593,-219.39093743213274L277.009581578553,-155.13281958913464A317.49094475275984,317.49094475275984,0,0,0,268.06647074877264,-170.12015536172495Z" style="stroke: rgb(255, 255, 255); fill: rgb(105, 191, 105); fill-rule: evenodd;"></path><text transform="translate(329.10683508920346,-196.38172826045303)rotate(-30.825000000000003)" text-anchor="middle" dx="6" dy=".35em" style="font-size: 11px; font-family: Arial, Helvetica;">A11, A9, Bm, Bm11, D, Em, Em7(9)</text><title>Céu Azul: 7</title></g><g><path d="M391.75070717568593,-219.39093743213274A449,449,0,0,1,400.0619293605772,-203.8417343830565L282.8865031454377,-144.13787267108626A317.49094475275984,317.49094475275984,0,0,0,277.009581578553,-155.13281958913464Z" style="stroke: rgb(255, 255, 255); fill: rgb(105, 191, 118); fill-rule: evenodd;"></path><text transform="translate(337.9923315539595,-180.66066508156354)rotate(-28.125000000000004)" text-anchor="middle" dx="6" dy=".35em" style="font-size: 11px; font-family: Arial, Helvetica;">Am7, C9, D4/F#, Em7, G/B</text><title>Dias Melhores: 5</title></g><g><path d="M400.0619293605772,-203.8417343830565A449,449,0,0,1,404.7533475833983,-194.35978910266581L286.20383678417664,-137.43312486448224A317.49094475275984,317.49094475275984,0,0,0,282.8865031454377,-144.13787267108626Z" style="stroke: rgb(255, 255, 255); fill: rgb(105, 191, 105); fill-rule: evenodd;"></path><text transform="translate(343.5002413672634,-169.95492425236262)rotate(-26.325000000000003)" text-anchor="middle" dx="6" dy=".35em" style="font-size: 11px; font-family: Arial, Helvetica;">Am9, C7M, Em</text><title>Dias de Luta, Dias de Glória: 3</title></g><g><path d="M404.7533475833983,-194.35978910266581A449,449,0,0,1,418.75492139124924,-162.0040610929511L296.104444570992,-114.55417017858547A317.49094475275984,317.49094475275984,0,0,0,286.20383678417664,-137.43312486448224Z" style="stroke: rgb(255, 255, 255); fill: rgb(105, 191, 131); fill-rule: evenodd;"></path><text transform="translate(351.72530504586507,-152.20513094960933)rotate(-23.399999999999995)" text-anchor="middle" dx="6" dy=".35em" style="font-size: 11px; font-family: Arial, Helvetica;">A5, Am7, C5, Dm, E5, F5, G/B, G4, G4/B,  G5</text><title>Don't Cry: 10</title></g><g><path d="M418.75492139124924,-162.0040610929511A449,449,0,0,1,424.79232611356787,-145.43892077096896L300.3735343909112,-102.84084712560517A317.49094475275984,317.49094475275984,0,0,0,296.104444570992,-114.55417017858547Z" style="stroke: rgb(255, 255, 255); fill: rgb(105, 191, 145); fill-rule: evenodd;"></path><text transform="translate(360.0757146378538,-131.2347965481466)rotate(-20.024999999999988)" text-anchor="middle" dx="6" dy=".35em" style="font-size: 11px; font-family: Arial, Helvetica;">E7, Fm, G#º, G/B, G7</text><title>Don't Look Back In Anger: 5</title></g><g><path d="M424.79232611356787,-145.43892077096896A449,449,0,0,1,434.0034458055914,-115.07392853671533L306.88677958746194,-81.36955520608757A317.49094475275984,317.49094475275984,0,0,0,300.3735343909112,-102.84084712560517Z" style="stroke: rgb(255, 255, 255); fill: rgb(217, 233, 39); fill-rule: evenodd;"></path><text transform="translate(366.74305100370196,-111.2502882580113)rotate(-16.87499999999998)" text-anchor="middle" dx="6" dy=".35em" style="font-size: 11px; font-family: Arial, Helvetica;">Bb, Bb7, Bb7/4, D, D7, Dm, F7, Gm, Gm7</text><title>Don't Stop Me Now: 9</title></g><g><path d="M434.0034458055914,-115.07392853671533A449,449,0,0,1,442.3140874434935,-77.19616602545476L312.76329064563384,-54.58593247820163A317.49094475275984,317.49094475275984,0,0,0,306.88677958746194,-81.36955520608757Z" style="stroke: rgb(255, 255, 255); fill: rgb(105, 191, 158); fill-rule: evenodd;"></path><text transform="translate(374.3411015879488,-82.13301260099715)rotate(-12.37499999999998)" text-anchor="middle" dx="6" dy=".35em" style="font-size: 11px; font-family: Arial, Helvetica;">A4, A5(9), Am7/G, Am9, C7M, C9, D9/F#, Dm7, F7M(11+), G/B, G6/A</text><title>Dust In The Wind: 11</title></g><g><path d="M442.3140874434935,-77.19616602545476A449,449,0,0,1,446.6616716510152,-45.7640806519773L315.8374969205519,-32.36009176378123A317.49094475275984,317.49094475275984,0,0,0,312.76329064563384,-54.58593247820163Z" style="stroke: rgb(255, 255, 255); fill: rgb(191, 118, 105); fill-rule: evenodd;"></path><text transform="translate(379.63121479985784,-52.50935960929968)rotate(-7.874999999999968)" text-anchor="middle" dx="6" dy=".35em" style="font-size: 11px; font-family: Arial, Helvetica;">A, A5(9), B, B4, Bb5, D5(9), E, E/G#, F#m7(11)</text><title>Eduardo e Mônica: 9</title></g><g><path d="M446.6616716510152,-45.7640806519773A449,449,0,0,1,448.7784456042135,-14.103430826079425L317.3342821370975,-9.972631575116154A317.49094475275984,317.49094475275984,0,0,0,315.8374969205519,-32.36009176378123Z" style="stroke: rgb(255, 255, 255); fill: rgb(105, 191, 105); fill-rule: evenodd;"></path><text transform="translate(382.3917761721445,-25.56602458160268)rotate(-3.8249999999999784)" text-anchor="middle" dx="6" dy=".35em" style="font-size: 11px; font-family: Arial, Helvetica;">Bb5, C4+(9), C5, C9, D11, D9, G/B, G5, Gm/Bb</text><title>Ela Vai Voltar (Todos Os Defeitos de Uma Mulher Perfeita): 9</title></g><g><path d="M448.7784456042135,-14.103430826079425A449,449,0,0,1,448.65383727208456,17.627657275822106L317.2461707404568,12.464635996166194A317.49094475275984,317.49094475275984,0,0,0,317.3342821370975,-9.972631575116154Z" style="stroke: rgb(255, 255, 255); fill: rgb(105, 191, 171); fill-rule: evenodd;"></path><text transform="translate(383.2425173167393,1.5049975825082156)rotate(0.2250000000000369)" text-anchor="middle" dx="6" dy=".35em" style="font-size: 11px; font-family: Arial, Helvetica;">A7, Am7, Cm, D/F#, D7, E7, Em, G5, G7</text><title>Epitáfio: 9</title></g><g><path d="M448.65383727208456,17.627657275822106A449,449,0,0,1,447.61588284617443,35.22813398180258L316.5122261273332,24.910052427080856A317.49094475275984,317.49094475275984,0,0,0,317.2461707404568,12.464635996166194Z" style="stroke: rgb(255, 255, 255); fill: rgb(105, 191, 184); fill-rule: evenodd;"></path><text transform="translate(382.58077533233654,22.561968954477265)rotate(3.3750000000000315)" text-anchor="middle" dx="6" dy=".35em" style="font-size: 11px; font-family: Arial, Helvetica;">A, Ab, B, Bb, F/A</text><title>Era Um Garoto Que Como Eu Amava Os Beatles e Os Roling Stones: 5</title></g><g><path d="M447.61588284617443,35.22813398180258A449,449,0,0,1,440.3725909010504,87.59555458524179L311.39044527482207,61.93941064902084A317.49094475275984,317.49094475275984,0,0,0,316.5122261273332,24.910052427080856Z" style="stroke: rgb(255, 255, 255); fill: rgb(191, 118, 105); fill-rule: evenodd;"></path><text transform="translate(379.63121479985784,52.50935960929993)rotate(7.875000000000032)" text-anchor="middle" dx="6" dy=".35em" style="font-size: 11px; font-family: Arial, Helvetica;">A7, A7(4), C9, D, D4/F#, D9, Em, Em7, G/B</text><title>Eu Sei: 15</title></g><g><path d="M440.3725909010504,87.59555458524179A449,449,0,0,1,434.00344580559135,115.07392853671563L306.88677958746194,81.36955520608778A317.49094475275984,317.49094475275984,0,0,0,311.39044527482207,61.93941064902084Z" style="stroke: rgb(255, 255, 255); fill: rgb(105, 184, 191); fill-rule: evenodd;"></path><text transform="translate(373.34753986575777,86.53731318443484)rotate(13.050000000000015)" text-anchor="middle" dx="6" dy=".35em" style="font-size: 11px; font-family: Arial, Helvetica;">A, Bb5(9), C5(9), D5(9), Eb5(9), Em9, F5(9), G9</text><title>Every Breath You Take: 8</title></g><g><path d="M434.00344580559135,115.07392853671563A449,449,0,0,1,425.92148738685154,142.09815826453232L301.1719719843033,100.47857130297005A317.49094475275984,317.49094475275984,0,0,0,306.88677958746194,81.36955520608778Z" style="stroke: rgb(255, 255, 255); fill: rgb(145, 191, 105); fill-rule: evenodd;"></path><text transform="translate(367.1771009254444,109.80923755759616)rotate(16.65000000000002)" text-anchor="middle" dx="6" dy=".35em" style="font-size: 11px; font-family: Arial, Helvetica;">B7, Bm, C/G, D, D/G, Em, F#m7(5-), F7M</text><title>Exagerado: 8</title></g><g><path d="M425.92148738685154,142.09815826453232A449,449,0,0,1,407.7562850474614,187.97822215430548L288.3272342284948,132.92067560070072A317.49094475275984,317.49094475275984,0,0,0,301.1719719843033,100.47857130297005Z" style="stroke: rgb(255, 255, 255); fill: rgb(191, 118, 105); fill-rule: evenodd;"></path><text transform="translate(356.33262853869337,141.08206808698313)rotate(21.600000000000016)" text-anchor="middle" dx="6" dy=".35em" style="font-size: 11px; font-family: Arial, Helvetica;">A7(4), Ab5, Am7, Bb5, C5, C9, D, D/F#, Em, F5, G/B, G/F#, G4(9), G5</text><title>Faroeste Caboclo: 14</title></g><g><path d="M407.7562850474614,187.97822215430548A449,449,0,0,1,401.6505432872732,200.69340068133357L284.0098228256918,141.91166456115985A317.49094475275984,317.49094475275984,0,0,0,288.3272342284948,132.92067560070072Z" style="stroke: rgb(255, 255, 255); fill: rgb(105, 191, 118); fill-rule: evenodd;"></path><text transform="translate(345.4785921837874,165.89645698357427)rotate(25.650000000000034)" text-anchor="middle" dx="6" dy=".35em" style="font-size: 11px; font-family: Arial, Helvetica;">Bm, C/D, D/F#, Em</text><title>Fácil: 4</title></g><g><path d="M401.6505432872732,200.69340068133357A449,449,0,0,1,388.25633479354946,225.51722438137446L274.53868717115336,159.46475863443808A317.49094475275984,317.49094475275984,0,0,0,284.0098228256918,141.91166456115985Z" style="stroke: rgb(255, 255, 255); fill: rgb(118, 191, 105); fill-rule: evenodd;"></path><text transform="translate(337.28027447469975,181.98656144689855)rotate(28.350000000000044)" text-anchor="middle" dx="6" dy=".35em" style="font-size: 11px; font-family: Arial, Helvetica;">A, B7, C#m7, D, E, F#7, F#m, G#7</text><title>Gitá: 8</title></g><g><path d="M388.25633479354946,225.51722438137446A449,449,0,0,1,384.6661659704072,231.5878683299865L272.0000544507049,163.75735213667073A317.49094475275984,317.49094475275984,0,0,0,274.53868717115336,159.46475863443808Z" style="stroke: rgb(255, 255, 255); fill: rgb(105, 171, 191); fill-rule: evenodd;"></path><text transform="translate(329.875484733329,195.08781783839243)rotate(30.600000000000033)" text-anchor="middle" dx="6" dy=".35em" style="font-size: 11px; font-family: Arial, Helvetica;">Am/G, G4/B</text><title>Have You Ever Seen The Rain: 2</title></g><g><path d="M384.6661659704072,231.5878683299865A449,449,0,0,1,371.3591778492781,252.37543665560688L262.5905929130857,178.4563826640956A317.49094475275984,317.49094475275984,0,0,0,272.0000544507049,163.75735213667073Z" style="stroke: rgb(255, 255, 255); fill: rgb(105, 158, 191); fill-rule: evenodd;"></path><text transform="translate(322.775941579126,206.62232124023572)rotate(32.625000000000036)" text-anchor="middle" dx="6" dy=".35em" style="font-size: 11px; font-family: Arial, Helvetica;">Bb, C/E, C7, Eb, F/A, F7, Gm</text><title>Hey Jude: 7</title></g><g><path d="M371.3591778492781,252.37543665560688A449,449,0,0,1,356.93001467099197,272.4003755998979L252.3876337828723,192.61615278445038A317.49094475275984,317.49094475275984,0,0,0,262.5905929130857,178.4563826640956Z" style="stroke: rgb(255, 255, 255); fill: rgb(191, 118, 105); fill-rule: evenodd;"></path><text transform="translate(310.93432486001103,224.04673110948013)rotate(35.77500000000004)" text-anchor="middle" dx="6" dy=".35em" style="font-size: 11px; font-family: Arial, Helvetica;">Am7, B7, D, D9/F#, Em, G/B, G/F</text><title>Hoje a Noite Não Tem Luar: 7</title></g><g><path d="M356.93001467099197,272.4003755998979A449,449,0,0,1,339.12153371604734,294.2746767393956L239.79513613699947,208.08361945390584A317.49094475275984,317.49094475275984,0,0,0,252.3876337828723,192.61615278445038Z" style="stroke: rgb(255, 255, 255); fill: rgb(105, 145, 191); fill-rule: evenodd;"></path><text transform="translate(297.2052324179147,241.96310032814475)rotate(39.150000000000034)" text-anchor="middle" dx="6" dy=".35em" style="font-size: 11px; font-family: Arial, Helvetica;">A, B7(4/9), Bm, D, E, E7, Em, F#7</text><title>Hotel California: 8</title></g><g><path d="M339.12153371604734,294.2746767393956A449,449,0,0,1,334.4574314096382,299.56506234016535L236.49711776798978,211.82448698730178A317.49094475275984,317.49094475275984,0,0,0,239.79513613699947,208.08361945390584Z" style="stroke: rgb(255, 255, 255); fill: rgb(105, 131, 191); fill-rule: evenodd;"></path><text transform="translate(287.476671215277,253.44477821406798)rotate(41.40000000000005)" text-anchor="middle" dx="6" dy=".35em" style="font-size: 11px; font-family: Arial, Helvetica;">D, E</text><title>House of The Rising Sun: 2</title></g><g><path d="M334.4574314096382,299.56506234016535A449,449,0,0,1,324.8828308556136,309.92280686526243L229.7268527890865,219.14851837879576A317.49094475275984,317.49094475275984,0,0,0,236.49711776798978,211.82448698730178Z" style="stroke: rgb(255, 255, 255); fill: rgb(191, 118, 105); fill-rule: evenodd;"></path><text transform="translate(281.42577700528784,260.1473123712113)rotate(42.750000000000036)" text-anchor="middle" dx="6" dy=".35em" style="font-size: 11px; font-family: Arial, Helvetica;">A, Am7, D, Em</text><title>Há Tempos: 4</title></g><g><path d="M324.8828308556136,309.92280686526243A449,449,0,0,1,304.78153474429064,329.710806736623L215.51308999813125,233.14074727395337A317.49094475275984,317.49094475275984,0,0,0,229.7268527890865,219.14851837879576Z" style="stroke: rgb(255, 255, 255); fill: rgb(105, 118, 191); fill-rule: evenodd;"></path><text transform="translate(268.8587426564268,273.1154858190942)rotate(45.45000000000002)" text-anchor="middle" dx="6" dy=".35em" style="font-size: 11px; font-family: Arial, Helvetica;">C/E, C/G, C7M, Dm7, E, E7, F/C, G7</text><title>Imagine: 8</title></g><g><path d="M304.78153474429064,329.710806736623A449,449,0,0,1,272.4003755998977,356.93001467099214L192.6161527844502,252.38763378287246A317.49094475275984,317.49094475275984,0,0,0,215.51308999813125,233.14074727395337Z" style="stroke: rgb(255, 255, 255); fill: rgb(105, 191, 184); fill-rule: evenodd;"></path><text transform="translate(246.6015468332489,293.367975751348)rotate(49.950000000000024)" text-anchor="middle" dx="6" dy=".35em" style="font-size: 11px; font-family: Arial, Helvetica;">A, A5, B5, C#5, C#m, C#m/G#, D, D5, E, E5, F#5, F#m</text><title>Infinita Highway: 12</title></g><g><path d="M272.4003755998977,356.93001467099214A449,449,0,0,1,266.7603572430151,361.16466023626805L188.62805755828194,255.38198037800058A317.49094475275984,317.49094475275984,0,0,0,192.6161527844502,252.38763378287246Z" style="stroke: rgb(255, 255, 255); fill: rgb(105, 191, 131); fill-rule: evenodd;"></path><text transform="translate(230.10833287935074,306.47552469402916)rotate(53.10000000000003)" text-anchor="middle" dx="6" dy=".35em" style="font-size: 11px; font-family: Arial, Helvetica;">Am7, D</text><title>Knockin' On Heaven's Door: 2</title></g><g><path d="M266.7603572430151,361.16466023626805A449,449,0,0,1,243.55624996174012,377.2020057006251L172.22027594831226,266.72209610807874A317.49094475275984,317.49094475275984,0,0,0,188.62805755828194,255.38198037800058Z" style="stroke: rgb(255, 255, 255); fill: rgb(204, 176, 87); fill-rule: evenodd;"></path><text transform="translate(217.89875505984168,315.2732539248543)rotate(55.35000000000004)" text-anchor="middle" dx="6" dy=".35em" style="font-size: 11px; font-family: Arial, Helvetica;">A#5, A#m, B5, B9, B9(11+), D#m7, E9, F#5</text><title>Lanterna Dos Afogados: 8</title></g><g><path d="M243.55624996174012,377.2020057006251A449,449,0,0,1,228.55959567191658,386.4731701247707L161.6160400048677,273.2777993418876A317.49094475275984,317.49094475275984,0,0,0,172.22027594831226,266.72209610807874Z" style="stroke: rgb(255, 255, 255); fill: rgb(105, 158, 191); fill-rule: evenodd;"></path><text transform="translate(201.52688662222548,325.9816038756593)rotate(58.275000000000034)" text-anchor="middle" dx="6" dy=".35em" style="font-size: 11px; font-family: Arial, Helvetica;">Am/G, Bb, C/E, Em/F, F6</text><title>Let it Be: 5</title></g><g><path d="M228.55959567191658,386.4731701247707A449,449,0,0,1,225.51722438137415,388.2563347935497L159.46475863443789,274.53868717115347A317.49094475275984,317.49094475275984,0,0,0,161.6160400048677,273.2777993418876Z" style="stroke: rgb(255, 255, 255); fill: rgb(105, 105, 191); fill-rule: evenodd;"></path><text transform="translate(193.79089892084502,330.63904728940497)rotate(59.62500000000003)" text-anchor="middle" dx="6" dy=".35em" style="font-size: 11px; font-family: Arial, Helvetica;">G/B</text><title>Linda Demais: 1</title></g><g><path d="M225.51722438137415,388.2563347935497A449,449,0,0,1,184.76994701369378,409.22007120931494L130.65208249286195,289.36228734974844A317.49094475275984,317.49094475275984,0,0,0,159.46475863443789,274.53868717115347Z" style="stroke: rgb(255, 255, 255); fill: rgb(217, 233, 39); fill-rule: evenodd;"></path><text transform="translate(175.32942462297063,340.7883286709987)rotate(62.77500000000001)" text-anchor="middle" dx="6" dy=".35em" style="font-size: 11px; font-family: Arial, Helvetica;">A, A7, Bm, D, D#º, D9/F#, E, Em, F#, F#m, G6, G6(9), Gm</text><title>Love of My Life: 13</title></g><g><path d="M184.76994701369378,409.22007120931494A449,449,0,0,1,142.09815826453217,425.92148738685154L100.47857130296995,301.1719719843033A317.49094475275984,317.49094475275984,0,0,0,130.65208249286195,289.36228734974844Z" style="stroke: rgb(255, 255, 255); fill: rgb(105, 191, 105); fill-rule: evenodd;"></path><text transform="translate(139.68166889344,356.8839075555775)rotate(68.625)" text-anchor="middle" dx="6" dy=".35em" style="font-size: 11px; font-family: Arial, Helvetica;">A5, A7M, A9, B5, D5, D7M, Dm7, E5, F#5, F#m, F#m9, F5, F5/E </text><title>Lugar Ao Sol: 13</title></g><g><path d="M142.09815826453217,425.92148738685154A449,449,0,0,1,121.87676198941827,432.1424011676877L86.17988487177652,305.5708223039094A317.49094475275984,317.49094475275984,0,0,0,100.47857130296995,301.1719719843033Z" style="stroke: rgb(255, 255, 255); fill: rgb(191, 131, 105); fill-rule: evenodd;"></path><text transform="translate(112.68962334135877,366.3033454504303)rotate(72.89999999999999)" text-anchor="middle" dx="6" dy=".35em" style="font-size: 11px; font-family: Arial, Helvetica;">Am7/G, C/G, D9(11)/A, D9/F#, F7M/C, G6/D</text><title>Luz dos Olhos: 6</title></g><g><path d="M121.87676198941827,432.1424011676877A449,449,0,0,1,111.66175933701977,434.8938393467553L78.95678722642698,307.5163828983437A317.49094475275984,317.49094475275984,0,0,0,86.17988487177652,305.5708223039094Z" style="stroke: rgb(255, 255, 255); fill: rgb(118, 105, 191); fill-rule: evenodd;"></path><text transform="translate(99.67571533780617,370.0565414485889)rotate(74.925)" text-anchor="middle" dx="6" dy=".35em" style="font-size: 11px; font-family: Arial, Helvetica;">Bb, Dm, Gm</text><title>Malandragem: 3</title></g><g><path d="M111.66175933701977,434.8938393467553A449,449,0,0,1,97.94631538704748,438.18662611049757L69.25850380241755,309.84473474798716A317.49094475275984,317.49094475275984,0,0,0,78.95678722642698,307.5163828983437Z" style="stroke: rgb(255, 255, 255); fill: rgb(118, 191, 105); fill-rule: evenodd;"></path><text transform="translate(89.4668787450322,372.6563694673905)rotate(76.5)" text-anchor="middle" dx="6" dy=".35em" style="font-size: 11px; font-family: Arial, Helvetica;">Dm, E7, G/B, G7</text><title>Maluco Beleza: 4</title></g><g><path d="M97.94631538704748,438.18662611049757A449,449,0,0,1,77.19616602545487,442.31408744349346L54.58593247820172,312.7632906456338A317.49094475275984,317.49094475275984,0,0,0,69.25850380241755,309.84473474798716Z" style="stroke: rgb(255, 255, 255); fill: rgb(118, 191, 105); fill-rule: evenodd;"></path><text transform="translate(74.76748261713108,375.88151808793623)rotate(78.74999999999999)" text-anchor="middle" dx="6" dy=".35em" style="font-size: 11px; font-family: Arial, Helvetica;">A7, Bm, D, D7, F#m, G5/F#</text><title>Medo da Chuva: 6</title></g><g><path d="M77.19616602545487,442.31408744349346A449,449,0,0,1,59.7714809984221,445.00378656732266L42.26481953554714,314.66519513544495A317.49094475275984,317.49094475275984,0,0,0,54.58593247820172,312.7632906456338Z" style="stroke: rgb(255, 255, 255); fill: rgb(118, 191, 105); fill-rule: evenodd;"></path><text transform="translate(58.46586961224848,378.75959946578007)rotate(81.22500000000001)" text-anchor="middle" dx="6" dy=".35em" style="font-size: 11px; font-family: Arial, Helvetica;">A, Bb, Bb5(9), D, E</text><title>Metamorfose Ambulante: 5</title></g><g><path d="M59.7714809984221,445.00378656732266A449,449,0,0,1,2.749332064085808e-14,449L1.9440713462486825e-14,317.49094475275984A317.49094475275984,317.49094475275984,0,0,0,42.26481953554714,314.66519513544495Z" style="stroke: rgb(255, 255, 255); fill: rgb(204, 176, 87); fill-rule: evenodd;"></path><text transform="translate(25.566024581602786,382.3917761721445)rotate(86.17500000000001)" text-anchor="middle" dx="6" dy=".35em" style="font-size: 11px; font-family: Arial, Helvetica;">Am7, Am7(9), Am7(9)/G, Am7/G, C/Bb, C/G, C7/G, C9(11+), Em7, F#m7(5-), F5(9), F7M/A, F9, Fm, Fm(7M), Fm/Ab, Fm9</text><title>Meu Erro: 17</title></g><g><path d="M2.749332064085808e-14,449A449,449,0,0,1,-49.270705679879214,446.2884689993757L-34.83965010008914,315.57360279482083A317.49094475275984,317.49094475275984,0,0,0,1.9440713462486825e-14,317.49094475275984Z" style="stroke: rgb(255, 255, 255); fill: rgb(131, 105, 191); fill-rule: evenodd;"></path><text transform="translate(-21.05940765771236,382.6664258150966)rotate(273.15)" text-anchor="middle" dx="6" dy=".35em" style="font-size: 11px; font-family: Arial, Helvetica;">Am7, Bm, C9, Cm, D, D/F#, D4, D7, D7(b9), D9/F#, Em, Em7, G/B, G7</text><title>More Than Words: 14</title></g><g><path d="M-49.270705679879214,446.2884689993757A449,449,0,0,1,-63.26465313997443,444.5206223147344L-44.734865244690724,314.32354641601285A317.49094475275984,317.49094475275984,0,0,0,-34.83965010008914,315.57360279482083Z" style="stroke: rgb(255, 255, 255); fill: rgb(191, 131, 105); fill-rule: evenodd;"></path><text transform="translate(-48.03339430181081,380.2234673568181)rotate(277.2)" text-anchor="middle" dx="6" dy=".35em" style="font-size: 11px; font-family: Arial, Helvetica;">Bb5(9), Dm, Gm, Gm7</text><title>N: 4</title></g><g><path d="M-63.26465313997443,444.5206223147344A449,449,0,0,1,-87.59555458524166,440.37259090105044L-61.93941064902075,311.3904452748221A317.49094475275984,317.49094475275984,0,0,0,-44.734865244690724,314.32354641601285Z" style="stroke: rgb(255, 255, 255); fill: rgb(145, 105, 191); fill-rule: evenodd;"></path><text transform="translate(-64.40795403671389,377.7945308680356)rotate(279.67499999999995)" text-anchor="middle" dx="6" dy=".35em" style="font-size: 11px; font-family: Arial, Helvetica;">A/C#, A5, B5, B5/D, Bb5, D5, G5</text><title>Na Sua Estante: 7</title></g><g><path d="M-87.59555458524166,440.37259090105044A449,449,0,0,1,-135.39054401507835,428.10092337123166L-95.73557178159764,302.71306594802047A317.49094475275984,317.49094475275984,0,0,0,-61.93941064902075,311.3904452748221Z" style="stroke: rgb(255, 255, 255); fill: rgb(105, 191, 131); fill-rule: evenodd;"></path><text transform="translate(-95.30927328172332,371.20511112254957)rotate(284.4)" text-anchor="middle" dx="6" dy=".35em" style="font-size: 11px; font-family: Arial, Helvetica;">A5, Ab5, Bb5, C/E, C5, D5, Dm, Dm7, E5, Eb5, F5, F7M, G/B, G5</text><title>November Rain: 14</title></g><g><path d="M-135.39054401507835,428.10092337123166A449,449,0,0,1,-165.28792415542023,417.469642163825L-116.8762120185454,295.19561491356205A317.49094475275984,317.49094475275984,0,0,0,-95.73557178159764,302.71306594802047Z" style="stroke: rgb(255, 255, 255); fill: rgb(158, 105, 191); fill-rule: evenodd;"></path><text transform="translate(-128.40274998273782,361.09531413999974)rotate(289.575)" text-anchor="middle" dx="6" dy=".35em" style="font-size: 11px; font-family: Arial, Helvetica;">A5, Bb, Bb5, D5, Eb, Eb5, F5, G5, Gm</text><title>Numb: 9</title></g><g><path d="M-165.28792415542023,417.469642163825A449,449,0,0,1,-191.17490191271747,406.26734655724283L-135.18106953515561,287.2743957252916A317.49094475275984,317.49094475275984,0,0,0,-116.8762120185454,295.19561491356205Z" style="stroke: rgb(255, 255, 255); fill: rgb(171, 105, 191); fill-rule: evenodd;"></path><text transform="translate(-152.20513094960916,351.7253050458651)rotate(293.4)" text-anchor="middle" dx="6" dy=".35em" style="font-size: 11px; font-family: Arial, Helvetica;">A, Bb, Bbm, C7, Dm, G#, G#m, Gm</text><title>O Astronauta de Mármore: 8</title></g><g><path d="M-191.17490191271747,406.26734655724283A449,449,0,0,1,-216.30739967167005,393.4616993396948L-152.9524291286667,278.21943574028074A317.49094475275984,317.49094475275984,0,0,0,-135.18106953515561,287.2743957252916Z" style="stroke: rgb(255, 255, 255); fill: rgb(118, 105, 191); fill-rule: evenodd;"></path><text transform="translate(-173.98980352707136,341.4742162530074)rotate(297)" text-anchor="middle" dx="6" dy=".35em" style="font-size: 11px; font-family: Arial, Helvetica;">A, A/C#, A9, Bm7, D, D/F#, E, Em7</text><title>O Segundo Sol: 8</title></g><g><path d="M-216.30739967167005,393.4616993396948A449,449,0,0,1,-228.55959567191653,386.4731701247708L-161.61604000486764,273.27779934188766A317.49094475275984,317.49094475275984,0,0,0,-152.9524291286667,278.21943574028074Z" style="stroke: rgb(255, 255, 255); fill: rgb(105, 191, 118); fill-rule: evenodd;"></path><text transform="translate(-189.8822914263501,332.8990950718749)rotate(299.7)" text-anchor="middle" dx="6" dy=".35em" style="font-size: 11px; font-family: Arial, Helvetica;">A, D, E, G/A</text><title>O Sol: 4</title></g><g><path d="M-228.55959567191653,386.4731701247708A449,449,0,0,1,-243.5562499617401,377.2020057006251L-172.22027594831223,266.72209610807874A317.49094475275984,317.49094475275984,0,0,0,-161.61604000486764,273.27779934188766Z" style="stroke: rgb(255, 255, 255); fill: rgb(145, 191, 105); fill-rule: evenodd;"></path><text transform="translate(-201.52688662222545,325.9816038756593)rotate(301.725)" text-anchor="middle" dx="6" dy=".35em" style="font-size: 11px; font-family: Arial, Helvetica;">Am7, D, D#º, Em, Em7</text><title>O Tempo Não Para: 5</title></g><g><path d="M-243.5562499617401,377.2020057006251A449,449,0,0,1,-249.45103462580113,373.329855923843L-176.38851815790426,263.98407274314616A317.49094475275984,317.49094475275984,0,0,0,-172.22027594831223,266.72209610807874Z" style="stroke: rgb(255, 255, 255); fill: rgb(171, 191, 105); fill-rule: evenodd;"></path><text transform="translate(-210.410509229105,320.3193870232385)rotate(303.29999999999995)" text-anchor="middle" dx="6" dy=".35em" style="font-size: 11px; font-family: Arial, Helvetica;">A, Em</text><title>Otherside: 2</title></g><g><path d="M-249.45103462580113,373.329855923843A449,449,0,0,1,-266.76035724301494,361.16466023626816L-188.6280575582818,255.38198037800066A317.49094475275984,317.49094475275984,0,0,0,-176.38851815790426,263.98407274314616Z" style="stroke: rgb(255, 255, 255); fill: rgb(191, 118, 105); fill-rule: evenodd;"></path><text transform="translate(-220.36815943822538,313.55217492915506)rotate(305.09999999999997)" text-anchor="middle" dx="6" dy=".35em" style="font-size: 11px; font-family: Arial, Helvetica;">Am7, Bm, Bm7, D, Em, F9</text><title>Pais e Filhos: 6</title></g><g><path d="M-266.76035724301494,361.16466023626816A449,449,0,0,1,-299.5650623401649,334.4574314096386L-211.82448698730144,236.49711776799006A317.49094475275984,317.49094475275984,0,0,0,-188.6280575582818,255.38198037800066Z" style="stroke: rgb(255, 255, 255); fill: rgb(118, 105, 191); fill-rule: evenodd;"></path><text transform="translate(-241.96310032814446,297.205232417915)rotate(309.15)" text-anchor="middle" dx="6" dy=".35em" style="font-size: 11px; font-family: Arial, Helvetica;">A, A6(9), A7M(9), A9, Bm11, Bm11/A, Bm7(11), Bm7(11)/A, C#7, D, E, F#m7(11)</text><title>Palavras Ao Vento: 12</title></g><g><path d="M-299.5650623401649,334.4574314096386A449,449,0,0,1,-319.9746949974169,314.98761017111457L-226.25627664077075,222.72987514173983A317.49094475275984,317.49094475275984,0,0,0,-211.82448698730144,236.49711776799006Z" style="stroke: rgb(255, 255, 255); fill: rgb(105, 191, 131); fill-rule: evenodd;"></path><text transform="translate(-264.53566262202855,277.3048418223505)rotate(313.65)" text-anchor="middle" dx="6" dy=".35em" style="font-size: 11px; font-family: Arial, Helvetica;">A, C/G, D, D/F#, D4, D4(9), Em, G/B</text><title>Patience: 8</title></g><g><path d="M-319.9746949974169,314.98761017111457L-226.25627664077075,222.72987514173983Z" style="stroke: rgb(255, 255, 255); fill: rgb(187, 128, 29); fill-rule: evenodd;"></path><text transform="translate(-273.1154858190938,268.8587426564272)rotate(315.44999999999993)" text-anchor="middle" dx="6" dy=".35em" style="font-size: 11px; font-family: Arial, Helvetica;"></text><title>Pescador de Ilusões: none</title></g><g><path d="M-319.9746949974169,314.98761017111457A449,449,0,0,1,-354.7796005566847,275.19526709018675L-250.86706138028643,194.5924395099142A317.49094475275984,317.49094475275984,0,0,0,-226.25627664077075,222.72987514173983Z" style="stroke: rgb(255, 255, 255); fill: rgb(118, 105, 191); fill-rule: evenodd;"></path><text transform="translate(-288.4697273509248,252.31390865165883)rotate(318.82499999999993)" text-anchor="middle" dx="6" dy=".35em" style="font-size: 11px; font-family: Arial, Helvetica;">Am7, Am7/G, D, D9(11), D9(11)/A, D9/F#, E, Em, Em7, F#7(b5), F#m7(b5), F7M(#11), G/B, G4/B, G6/B </text><title>Por Enquanto: 15</title></g><g><path d="M-354.7796005566847,275.19526709018675A449,449,0,0,1,-363.2486304743511,263.9155782793208L-256.85556986514007,186.61649506207684A317.49094475275984,317.49094475275984,0,0,0,-250.86706138028643,194.5924395099142Z" style="stroke: rgb(255, 255, 255); fill: rgb(191, 131, 105); fill-rule: evenodd;"></path><text transform="translate(-306.4755246940289,230.10833287935117)rotate(323.1)" text-anchor="middle" dx="6" dy=".35em" style="font-size: 11px; font-family: Arial, Helvetica;">Bb5(9), C4, Dm, F/C</text><title>Por Onde Andei: 4</title></g><g><path d="M-363.2486304743511,263.9155782793208A449,449,0,0,1,-377.20200570062474,243.55624996174063L-266.7220961080785,172.2202759483126A317.49094475275984,317.49094475275984,0,0,0,-256.85556986514007,186.61649506207684Z" style="stroke: rgb(255, 255, 255); fill: rgb(105, 191, 184); fill-rule: evenodd;"></path><text transform="translate(-316.12650718392194,216.65900293476915)rotate(325.575)" text-anchor="middle" dx="6" dy=".35em" style="font-size: 11px; font-family: Arial, Helvetica;">A, Bm, D, E, Em, F#, F#m</text><title>Pra Ser Sincero: 7</title></g><g><path d="M-377.20200570062474,243.55624996174063A449,449,0,0,1,-393.4616993396946,216.30739967167048L-278.2194357402806,152.95242912866698A317.49094475275984,317.49094475275984,0,0,0,-266.7220961080785,172.2202759483126Z" style="stroke: rgb(255, 255, 255); fill: rgb(191, 131, 105); fill-rule: evenodd;"></path><text transform="translate(-329.10683508920323,196.38172826045337)rotate(329.17499999999995)" text-anchor="middle" dx="6" dy=".35em" style="font-size: 11px; font-family: Arial, Helvetica;">A, A7, A7/4, Bm, Bm/A, Bm7/A, D, D9/F#, Em7</text><title>Pra Você Guardei o Amor: 9</title></g><g><path d="M-393.4616993396946,216.30739967167048A449,449,0,0,1,-413.4596205833206,175.07753181689694L-292.3601014612831,123.79850998113135A317.49094475275984,317.49094475275984,0,0,0,-278.2194357402806,152.95242912866698Z" style="stroke: rgb(255, 255, 255); fill: rgb(184, 105, 191); fill-rule: evenodd;"></path><text transform="translate(-344.8244561414307,167.25186559127255)rotate(334.12499999999994)" text-anchor="middle" dx="6" dy=".35em" style="font-size: 11px; font-family: Arial, Helvetica;">A4(7), Bm7(11), Bm7(9/11), D, D5(7M/9), D5(9), D9, E/D, Em7(13), Em7(9), G/B, G6/B, G7M</text><title>Primeiros Erros: 13</title></g><g><path d="M-413.4596205833206,175.07753181689694A449,449,0,0,1,-421.2479098291952,155.40655862779485L-297.8672536008832,109.88903144657851A317.49094475275984,317.49094475275984,0,0,0,-292.3601014612831,123.79850998113135Z" style="stroke: rgb(255, 255, 255); fill: rgb(191, 118, 105); fill-rule: evenodd;"></path><text transform="translate(-356.3326285386932,141.0820680869835)rotate(338.4)" text-anchor="middle" dx="6" dy=".35em" style="font-size: 11px; font-family: Arial, Helvetica;">Am7, Bm7(11), D9(11), Em, G5, G5(9)</text><title>Quase Sem Querer: 6</title></g><g><path d="M-421.2479098291952,155.40655862779485A449,449,0,0,1,-423.6369616486587,148.77071191969492L-299.556568343032,105.19677924036662A317.49094475275984,317.49094475275984,0,0,0,-297.8672536008832,109.88903144657851Z" style="stroke: rgb(255, 255, 255); fill: rgb(191, 118, 105); fill-rule: evenodd;"></path><text transform="translate(-360.58829474771346,129.8197742561998)rotate(340.19999999999993)" text-anchor="middle" dx="6" dy=".35em" style="font-size: 11px; font-family: Arial, Helvetica;">D, Em</text><title>Que País é Esse: 2</title></g><g><path d="M-423.6369616486587,148.77071191969492A449,449,0,0,1,-429.15106364445006,132.02410602930493L-303.4556272564103,93.35514065341329A317.49094475275984,317.49094475275984,0,0,0,-299.556568343032,105.19677924036662Z" style="stroke: rgb(255, 255, 255); fill: rgb(105, 191, 184); fill-rule: evenodd;"></path><text transform="translate(-364.0202235859548,119.8597885757606)rotate(341.7749999999999)" text-anchor="middle" dx="6" dy=".35em" style="font-size: 11px; font-family: Arial, Helvetica;">A, A#º, Bm, E/G#, F#m</text><title>Refrão de Bolero: 5</title></g><g><path d="M-429.15106364445006,132.02410602930493A449,449,0,0,1,-436.59409425855665,104.81696837130215L-308.71864467622413,74.11678911876363A317.49094475275984,317.49094475275984,0,0,0,-303.4556272564103,93.35514065341329Z" style="stroke: rgb(255, 255, 255); fill: rgb(191, 105, 105); fill-rule: evenodd;"></path><text transform="translate(-369.66226347100024,101.12815168137591)rotate(344.69999999999993)" text-anchor="middle" dx="6" dy=".35em" style="font-size: 11px; font-family: Arial, Helvetica;">C6, C9, Eb, Em, Em7M, G4, G5+, G9</text><title>Resposta: 8</title></g><g><path d="M-436.59409425855665,104.81696837130215A449,449,0,0,1,-441.04697557718106,84.13421024899112L-311.86730725244234,59.49187059683635A317.49094475275984,317.49094475275984,0,0,0,-308.71864467622413,74.11678911876363Z" style="stroke: rgb(255, 255, 255); fill: rgb(191, 105, 184); fill-rule: evenodd;"></path><text transform="translate(-374.66074994378664,80.66234901460503)rotate(347.8499999999999)" text-anchor="middle" dx="6" dy=".35em" style="font-size: 11px; font-family: Arial, Helvetica;">Am7, C9, D, D9/F#, Em7, G/B</text><title>Segredos: 6</title></g><g><path d="M-441.04697557718106,84.13421024899112A449,449,0,0,1,-443.4720649272167,70.2390748030645L-313.58210437683584,49.66652609751607A317.49094475275984,317.49094475275984,0,0,0,-311.86730725244234,59.49187059683635Z" style="stroke: rgb(255, 255, 255); fill: rgb(191, 118, 105); fill-rule: evenodd;"></path><text transform="translate(-377.5386890445635,65.89104925182899)rotate(350.0999999999999)" text-anchor="middle" dx="6" dy=".35em" style="font-size: 11px; font-family: Arial, Helvetica;">Dm, Em, G/B, Gm/Bb</text><title>Será: 4</title></g><g><path d="M-443.4720649272167,70.2390748030645A449,449,0,0,1,-448.9446079842656,-7.052585473006591L-317.4517766828105,-4.986931012860695A317.49094475275984,317.49094475275984,0,0,0,-313.58210437683584,49.66652609751607Z" style="stroke: rgb(255, 255, 255); fill: rgb(105, 158, 191); fill-rule: evenodd;"></path><text transform="translate(-382.28843040931326,27.067472585710654)rotate(355.94999999999993)" text-anchor="middle" dx="6" dy=".35em" style="font-size: 11px; font-family: Arial, Helvetica;">A, A/E, A5, A7M/E, Ab5, Am7, Am7M, C/E, C7, C7M, D, D7, D7(9), E5, Eb, F#m, F#m/E, F5, G/B, G/D, G5, Gb5</text><title>Something: 22</title></g><g><path d="M-448.9446079842656,-7.052585473006591A449,449,0,0,1,-445.4595008902007,-56.27462187037184L-314.9874338234358,-39.79216673324872A317.49094475275984,317.49094475275984,0,0,0,-317.4517766828105,-4.986931012860695Z" style="stroke: rgb(255, 255, 255); fill: rgb(191, 105, 171); fill-rule: evenodd;"></path><text transform="translate(-382.2884304093134,-27.0674725857092)rotate(364.04999999999995)" text-anchor="middle" dx="6" dy=".35em" style="font-size: 11px; font-family: Arial, Helvetica;">A5, Am/G, Am7, C/G, C9, D, D/F#, D4, D5(9), Em, F5, F7M, G/B, G5</text><title>Stairway To Heaven: 14</title></g><g><path d="M-445.4595008902007,-56.27462187037184A449,449,0,0,1,-443.47206492721693,-70.2390748030628L-313.582104376836,-49.66652609751488A317.49094475275984,317.49094475275984,0,0,0,-314.9874338234358,-39.79216673324872Z" style="stroke: rgb(255, 255, 255); fill: rgb(245, 210, 210); fill-rule: evenodd;"></path><text transform="translate(-379.4220843653737,-53.99975919233204)rotate(368.0999999999999)" text-anchor="middle" dx="6" dy=".35em" style="font-size: 11px; font-family: Arial, Helvetica;">A, A7, Bb, Dm</text><title>Sultans of Swing: 4</title></g><g><path d="M-443.47206492721693,-70.2390748030628A449,449,0,0,1,-437.40385074946255,-101.38476882422674L-309.2912289820535,-71.6898575446412A317.49094475275984,317.49094475275984,0,0,0,-313.582104376836,-49.66652609751488Z" style="stroke: rgb(255, 255, 255); fill: rgb(191, 105, 105); fill-rule: evenodd;"></path><text transform="translate(-376.17223027194314,-73.2908266376273)rotate(371.02499999999986)" text-anchor="middle" dx="6" dy=".35em" style="font-size: 11px; font-family: Arial, Helvetica;">A, A7/4, A9, Bm, D, D4, D9, Em7, G/F#</text><title>Sutilmente: 9</title></g><g><path d="M-437.40385074946255,-101.38476882422674A449,449,0,0,1,-428.1009233712319,-135.39054401507758L-302.71306594802064,-95.7355717815971A317.49094475275984,317.49094475275984,0,0,0,-309.2912289820535,-71.6898575446412Z" style="stroke: rgb(255, 255, 255); fill: rgb(105, 191, 131); fill-rule: evenodd;"></path><text transform="translate(-369.6622634710006,-101.1281516813745)rotate(375.29999999999984)" text-anchor="middle" dx="6" dy=".35em" style="font-size: 11px; font-family: Arial, Helvetica;">A5, B5, C5, D, D#5, D5, E5, F#, F#5, G5</text><title>Sweet Child of Mine: 10</title></g><g><path d="M-428.1009233712319,-135.39054401507758A449,449,0,0,1,-416.15861144241467,-168.56159148015095L-294.26857620010895,-119.19104438321132A317.49094475275984,317.49094475275984,0,0,0,-302.71306594802064,-95.7355717815971Z" style="stroke: rgb(255, 255, 255); fill: rgb(105, 191, 118); fill-rule: evenodd;"></path><text transform="translate(-360.588294747714,-129.81977425619846)rotate(379.79999999999984)" text-anchor="middle" dx="6" dy=".35em" style="font-size: 11px; font-family: Arial, Helvetica;">A, B5(9), B7(4/9), C#m, Cm, D, D7(4/9), E, Em, F#m</text><title>Só Hoje: 10</title></g><g><path d="M-416.15861144241467,-168.56159148015095A449,449,0,0,1,-404.7533475833989,-194.3597891026646L-286.2038367841771,-137.43312486448139A317.49094475275984,317.49094475275984,0,0,0,-294.26857620010895,-119.19104438321132Z" style="stroke: rgb(255, 255, 255); fill: rgb(105, 191, 105); fill-rule: evenodd;"></path><text transform="translate(-350.5190529958393,-154.96285227077675)rotate(383.84999999999985)" text-anchor="middle" dx="6" dy=".35em" style="font-size: 11px; font-family: Arial, Helvetica;">C9, D4, E9, Em, Em7, G/B, G5, G7M</text><title>Só os loucos sabem: 8</title></g><g><path d="M-404.7533475833989,-194.3597891026646A449,449,0,0,1,-379.10323855040537,-240.58623094556856L-268.06647074877304,-170.12015536172433A317.49094475275984,317.49094475275984,0,0,0,-286.2038367841771,-137.43312486448139Z" style="stroke: rgb(255, 255, 255); fill: rgb(191, 105, 145); fill-rule: evenodd;"></path><text transform="translate(-335.1129398865978,-185.94733022433005)rotate(389.02499999999986)" text-anchor="middle" dx="6" dy=".35em" style="font-size: 11px; font-family: Arial, Helvetica;">A, A/E, A7/E, Am7, Bm7, D/F#, Db/F, E, E/G#, E7, E7(4), Em7, F#7, F#m, G/B</text><title>Tears In Heaven: 15</title></g><g><path d="M-379.10323855040537,-240.58623094556856A449,449,0,0,1,-367.3492231238362,-258.17735816743107L-259.7551267344747,-182.5589607090186A317.49094475275984,317.49094475275984,0,0,0,-268.06647074877304,-170.12015536172433Z" style="stroke: rgb(255, 255, 255); fill: rgb(191, 118, 105); fill-rule: evenodd;"></path><text transform="translate(-318.65696433349484,-212.9197763918522)rotate(393.74999999999983)" text-anchor="middle" dx="6" dy=".35em" style="font-size: 11px; font-family: Arial, Helvetica;">Am7, Bm, Bm7, C7M, D5, E5, Em</text><title>Tempo Perdido: 6</title></g><g><path d="M-367.3492231238362,-258.17735816743107A449,449,0,0,1,-354.7796005566858,-275.1952670901854L-250.86706138028717,-194.59243950991322A317.49094475275984,317.49094475275984,0,0,0,-259.7551267344747,-182.5589607090186Z" style="stroke: rgb(255, 255, 255); fill: rgb(118, 191, 105); fill-rule: evenodd;"></path><text transform="translate(-308.27332030713495,-227.69420740064766)rotate(396.4499999999999)" text-anchor="middle" dx="6" dy=".35em" style="font-size: 11px; font-family: Arial, Helvetica;">A, Bm, D, E, E7, G7</text><title>Tente Outra Vez: 6</title></g><g><path d="M-354.7796005566858,-275.1952670901854A449,449,0,0,1,-329.71080673662374,-304.78153474428984L-233.14074727395385,-215.51308999813068A317.49094475275984,317.49094475275984,0,0,0,-250.86706138028717,-194.59243950991322Z" style="stroke: rgb(255, 255, 255); fill: rgb(105, 191, 184); fill-rule: evenodd;"></path><text transform="translate(-292.39731418192406,-247.75169576854927)rotate(400.2749999999998)" text-anchor="middle" dx="6" dy=".35em" style="font-size: 11px; font-family: Arial, Helvetica;">A, A5(9), Ab/C, B/D#, B11, B5(9), C#, C#m, E, E/G#, F#7(11)</text><title>Terra de Gigantes: 11</title></g><g><path d="M-329.71080673662374,-304.78153474428984A449,449,0,0,1,-288.91168326546773,-343.70196285839575L-204.2914104010322,-243.03398864429855A317.49094475275984,317.49094475275984,0,0,0,-233.14074727395385,-215.51308999813068Z" style="stroke: rgb(255, 255, 255); fill: rgb(171, 191, 105); fill-rule: evenodd;"></path><text transform="translate(-264.5356626220299,-277.30484182234926)rotate(406.34999999999985)" text-anchor="middle" dx="6" dy=".35em" style="font-size: 11px; font-family: Arial, Helvetica;">A, A9, Am9, B, C#m, D, E, E7, E7M, F#, F#m, F7M, F7M(11+), G#m, G6, G7M</text><title>Under The Bridge: 16</title></g><g><path d="M-288.91168326546773,-343.70196285839575A449,449,0,0,1,-275.1952670901874,-354.7796005566843L-194.59243950991464,-250.86706138028606A317.49094475275984,317.49094475275984,0,0,0,-204.2914104010322,-243.03398864429855Z" style="stroke: rgb(255, 255, 255); fill: rgb(191, 105, 105); fill-rule: evenodd;"></path><text transform="translate(-240.7941154242613,-298.15312521260296)rotate(411.0749999999999)" text-anchor="middle" dx="6" dy=".35em" style="font-size: 11px; font-family: Arial, Helvetica;">A, D, E, E4, F#m</text><title>Vamos Fugir: 5</title></g><g><path d="M-275.1952670901874,-354.7796005566843A449,449,0,0,1,-237.60137143741267,-380.9810865266945L-168.00954096261816,-269.39430978684453A317.49094475275984,317.49094475275984,0,0,0,-194.59243950991464,-250.86706138028606Z" style="stroke: rgb(255, 255, 255); fill: rgb(191, 118, 105); fill-rule: evenodd;"></path><text transform="translate(-219.13514691655882,-314.4151387621988)rotate(415.1249999999998)" text-anchor="middle" dx="6" dy=".35em" style="font-size: 11px; font-family: Arial, Helvetica;">A, A4, A7, A7(4), Bb(9), Cm, Dm, Dm/C, E, E4, Em, G/B, Gm/Bb</text><title>Vento no Litoral: 13</title></g><g><path d="M-237.60137143741267,-380.9810865266945A449,449,0,0,1,-181.55027439240797,-410.6586147495769L-128.37543014915008,-290.3794912420998A317.49094475275984,317.49094475275984,0,0,0,-168.00954096261816,-269.39430978684453Z" style="stroke: rgb(255, 255, 255); fill: rgb(217, 233, 39); fill-rule: evenodd;"></path><text transform="translate(-179.33198270528638,-338.69917637334964)rotate(422.0999999999998)" text-anchor="middle" dx="6" dy=".35em" style="font-size: 11px; font-family: Arial, Helvetica;">Ab, Ab/Eb, Bb, Bbm, C/G, Cm, D, Db/Ab, Dm, Dº, Eb, F7, Fm7, G#m, Gm, Gm7, Gm7/C, Gm7/F</text><title>We Are The Champions: 18</title></g><g><path d="M-181.55027439240797,-410.6586147495769A449,449,0,0,1,-168.56159148015328,-416.15861144241376L-119.19104438321297,-294.2685762001083A317.49094475275984,317.49094475275984,0,0,0,-128.37543014915008,-290.3794912420998Z" style="stroke: rgb(255, 255, 255); fill: rgb(255, 145, 178); fill-rule: evenodd;"></path><text transform="translate(-149.4380208990148,-352.9098610223015)rotate(427.04999999999984)" text-anchor="middle" dx="6" dy=".35em" style="font-size: 11px; font-family: Arial, Helvetica;">A7(4), Am/E, D/F#, Em7</text><title>Wish You Were Here: 4</title></g><g><path d="M-168.56159148015328,-416.15861144241376A449,449,0,0,1,-148.7707119196957,-423.6369616486584L-105.19677924036716,-299.55656834303176A317.49094475275984,317.49094475275984,0,0,0,-119.19104438321297,-294.2685762001083Z" style="stroke: rgb(255, 255, 255); fill: rgb(105, 191, 145); fill-rule: evenodd;"></path><text transform="translate(-135.4676334773494,-358.504689477057)rotate(429.29999999999984)" text-anchor="middle" dx="6" dy=".35em" style="font-size: 11px; font-family: Arial, Helvetica;">A7(4), C9, D, D11/F#, D4, Em7</text><title>Wonderwall: 6</title></g><g><path d="M-148.7707119196957,-423.6369616486584A449,449,0,0,1,-118.47899943445417,-433.0862808875509L-83.77730392829967,-306.2382460544491A317.49094475275984,317.49094475275984,0,0,0,-105.19677924036716,-299.55656834303176Z" style="stroke: rgb(255, 255, 255); fill: rgb(105, 158, 191); fill-rule: evenodd;"></path><text transform="translate(-114.12722061131154,-365.85799104643263)rotate(432.67499999999984)" text-anchor="middle" dx="6" dy=".35em" style="font-size: 11px; font-family: Arial, Helvetica;">A, B7, B7/F#, D, D7, Em, Em/D, F#m, G/F#</text><title>Yesterday: 9</title></g><g><path d="M-118.47899943445417,-433.0862808875509A449,449,0,0,1,-97.94631538704947,-438.1866261104972L-69.25850380241896,-309.8447347479868A317.49094475275984,317.49094475275984,0,0,0,-83.77730392829967,-306.2382460544491Z" style="stroke: rgb(255, 255, 255); fill: rgb(191, 105, 118); fill-rule: evenodd;"></path><text transform="translate(-92.39092556712379,-371.9422118687858)rotate(436.04999999999984)" text-anchor="middle" dx="6" dy=".35em" style="font-size: 11px; font-family: Arial, Helvetica;">C5, D/F#, E5, Em, F#5, G5</text><title>Zombie: 6</title></g><g><path d="M-97.94631538704947,-438.1866261104972A449,449,0,0,1,-73.7198941094209,-442.9067364722462L-52.127837033125736,-313.1823567927285A317.49094475275984,317.49094475275984,0,0,0,-69.25850380241896,-309.8447347479868Z" style="stroke: rgb(255, 255, 255); fill: rgb(105, 191, 105); fill-rule: evenodd;"></path><text transform="translate(-73.29082663762944,-376.17223027194274)rotate(438.9749999999998)" text-anchor="middle" dx="6" dy=".35em" style="font-size: 11px; font-family: Arial, Helvetica;">B5(9), Bm, C#m, C9, D5(9), E5, G#m</text><title>Zóio de Lula: 7</title></g><g><path d="M-73.7198941094209,-442.9067364722462A449,449,0,0,1,-59.771480998423534,-445.00378656732244L-42.26481953554815,-314.6651951354448A317.49094475275984,317.49094475275984,0,0,0,-52.127837033125736,-313.1823567927285Z" style="stroke: rgb(255, 255, 255); fill: rgb(184, 105, 191); fill-rule: evenodd;"></path><text transform="translate(-56.97803715817363,-378.98627333796185)rotate(441.44999999999976)" text-anchor="middle" dx="6" dy=".35em" style="font-size: 11px; font-family: Arial, Helvetica;">A, Bm, D, G5</text><title>À Sua Maneira: 4</title></g><g><path d="M-59.771480998423534,-445.00378656732244A449,449,0,0,1,-38.74257824326924,-447.32539904533047L-27.395139796466083,-316.30682306193154A317.49094475275984,317.49094475275984,0,0,0,-42.26481953554815,-314.6651951354448Z" style="stroke: rgb(255, 255, 255); fill: rgb(105, 191, 171); fill-rule: evenodd;"></path><text transform="translate(-42.05517788998579,-380.93103589709807)rotate(443.6999999999998)" text-anchor="middle" dx="6" dy=".35em" style="font-size: 11px; font-family: Arial, Helvetica;">A7, Bm, D7, D7M, E, Gm6</text><title>É Preciso Saber Viver: 6</title></g><g><path d="M-38.74257824326924,-447.32539904533047A449,449,0,0,1,-1.677648403703999e-12,-449L-1.1862765627058845e-12,-317.49094475275984A317.49094475275984,317.49094475275984,0,0,0,-27.395139796466083,-316.30682306193154Z" style="stroke: rgb(255, 255, 255); fill: rgb(191, 118, 105); fill-rule: evenodd;"></path><text transform="translate(-16.54986790481249,-382.8879652970668)rotate(447.52499999999975)" text-anchor="middle" dx="6" dy=".35em" style="font-size: 11px; font-family: Arial, Helvetica;">Am7, Bm, Bm7, Dm, D/F#, D11, D7, Em, Em7, F11+, G7M/B</text><title>Índios: 11</title></g></g></svg>