<svg width="848" height="500" xmlns="http://www.w3.org/2000/svg" version="1.1"><g><path style="fill: rgb(221, 221, 221); stroke: rgb(255, 255, 255);"></path><path d="M0,488.095238L11.777777999999996,488.095238L23.5555555,476.443090000032L23.5555555,464.285714L0,464.285714Z" style="fill: rgb(255, 21, 0); stroke: rgb(255, 255, 255);"></path><path d="M106,369.0476195L106,440.4761905L106.12766867105918,441.1077248821698L129.5555555,464.2857145L176.41132939893998,464.2857145L223.77777799999998,417.42450751867733L223.77777799999996,252.52613753220623Z" style="fill: rgb(119, 19, 0); stroke: rgb(255, 255, 255);"></path><path style="fill: rgb(221, 221, 221); stroke: rgb(255, 255, 255);"></path><path style="fill: rgb(221, 221, 221); stroke: rgb(255, 255, 255);"></path><path style="fill: rgb(221, 221, 221); stroke: rgb(255, 255, 255);"></path><path style="fill: rgb(221, 221, 221); stroke: rgb(255, 255, 255);"></path><path style="fill: rgb(221, 221, 221); stroke: rgb(255, 255, 255);"></path><path style="fill: rgb(221, 221, 221); stroke: rgb(255, 255, 255);"></path><path d="M0,83.3333335L339.87973322856243,83.3333335L466.2274423534893,0L0,0Z" style="fill: rgb(255, 196, 33); stroke: rgb(255, 255, 255);"></path><path style="fill: rgb(221, 221, 221); stroke: rgb(255, 255, 255);"></path><path style="fill: rgb(221, 221, 221); stroke: rgb(255, 255, 255);"></path><path style="fill: rgb(221, 221, 221); stroke: rgb(255, 255, 255);"></path><path style="fill: rgb(221, 221, 221); stroke: rgb(255, 255, 255);"></path><path style="fill: rgb(221, 221, 221); stroke: rgb(255, 255, 255);"></path><path style="fill: rgb(221, 221, 221); stroke: rgb(255, 255, 255);"></path><path style="fill: rgb(221, 221, 221); stroke: rgb(255, 255, 255);"></path><path style="fill: rgb(221, 221, 221); stroke: rgb(255, 255, 255);"></path><path style="fill: rgb(221, 221, 221); stroke: rgb(255, 255, 255);"></path><path style="fill: rgb(221, 221, 221); stroke: rgb(255, 255, 255);"></path><path d="M282.6666665,500L282.6666665,468.16976388769933L250.91727332998408,457.6995193019253L229.53899782312232,500Z" style="fill: rgb(92, 255, 0); stroke: rgb(255, 255, 255);"></path><path style="fill: rgb(221, 221, 221); stroke: rgb(255, 255, 255);"></path><path d="M223.77777799999996,252.52613753220623L223.77777799999998,417.42450751867733L250.91727332998408,457.6995193019253L282.6666665,468.16976388769933L294.1380402849791,464.3867597993544L528.8348454258768,0L466.2274423534893,0L339.87973322856243,83.3333335L272.5741151428906,155.97445155134633Z" style="fill: rgb(255, 8, 71); stroke: rgb(255, 255, 255);"></path><path style="fill: rgb(221, 221, 221); stroke: rgb(255, 255, 255);"></path><path style="fill: rgb(221, 221, 221); stroke: rgb(255, 255, 255);"></path><path style="fill: rgb(221, 221, 221); stroke: rgb(255, 255, 255);"></path><path style="fill: rgb(221, 221, 221); stroke: rgb(255, 255, 255);"></path><path style="fill: rgb(221, 221, 221); stroke: rgb(255, 255, 255);"></path><path style="fill: rgb(221, 221, 221); stroke: rgb(255, 255, 255);"></path><path style="fill: rgb(221, 221, 221); stroke: rgb(255, 255, 255);"></path><path style="fill: rgb(221, 221, 221); stroke: rgb(255, 255, 255);"></path><path d="M282.6666665,468.16976388769933L282.6666665,500L329.77777749999996,500L329.7777775,482.01654999998397L294.1380402849791,464.3867597993544Z" style="fill: rgb(0, 17, 9); stroke: rgb(255, 255, 255);"></path><path d="M0,329.7018979492026L59.65490105587541,369.0476195L106,369.0476195L223.77777799999996,252.52613753220623L272.5741151428906,155.97445155134633L131.8535929257125,202.38095249999998L0,289.34572133329067Z" style="fill: rgb(0, 224, 231); stroke: rgb(255, 255, 255);"></path><path style="fill: rgb(221, 221, 221); stroke: rgb(255, 255, 255);"></path><path d="M0,289.34572133329067L131.8535929257125,202.38095249999998L0,202.38095249999998Z" style="fill: rgb(255, 156, 8); stroke: rgb(255, 255, 255);"></path><path style="fill: rgb(221, 221, 221); stroke: rgb(255, 255, 255);"></path><path d="M0,416.6666665L11.522440651635412,416.6666665L59.65490105587541,369.0476195L0,329.7018979492026Z" style="fill: rgb(40, 166, 60); stroke: rgb(255, 255, 255);"></path><path d="M58.888889000000006,488.095238L58.888889000000006,500L82.4444445,500L82.4444445,464.79094150539737Z" style="fill: rgb(34, 0, 81); stroke: rgb(255, 255, 255);"></path><path style="fill: rgb(221, 221, 221); stroke: rgb(255, 255, 255);"></path><path style="fill: rgb(221, 221, 221); stroke: rgb(255, 255, 255);"></path><path style="fill: rgb(221, 221, 221); stroke: rgb(255, 255, 255);"></path><path d="M294.1380402849791,464.3867597993544L329.7777775,482.01654999998397L600.6666665,348.0168504736855L632.6456716525718,0L528.8348454258768,0Z" style="fill: rgb(49, 76, 91); stroke: rgb(255, 255, 255);"></path><path d="M11.522440651635412,416.6666665L23.555555499999997,440.4761905L106,440.4761905L106,369.0476195L59.65490105587541,369.0476195Z" style="fill: rgb(195, 195, 195); stroke: rgb(255, 255, 255);"></path><path style="fill: rgb(221, 221, 221); stroke: rgb(255, 255, 255);"></path><path style="fill: rgb(221, 221, 221); stroke: rgb(255, 255, 255);"></path><path style="fill: rgb(221, 221, 221); stroke: rgb(255, 255, 255);"></path><path style="fill: rgb(221, 221, 221); stroke: rgb(255, 255, 255);"></path><path style="fill: rgb(221, 221, 221); stroke: rgb(255, 255, 255);"></path><path style="fill: rgb(221, 221, 221); stroke: rgb(255, 255, 255);"></path><path d="M23.555555499999997,440.4761905L23.5555555,464.285714L82.69978185375544,464.285714L106.12766867105918,441.1077248821698L106,440.4761905Z" style="fill: rgb(6, 0, 255); stroke: rgb(255, 255, 255);"></path><path d="M11.777777999999996,488.095238L11.777778,500L35.3333335,500L35.333333499999995,488.095238L23.5555555,476.443090000032Z" style="fill: rgb(0, 255, 171); stroke: rgb(255, 255, 255);"></path><path style="fill: rgb(221, 221, 221); stroke: rgb(255, 255, 255);"></path><path d="M23.5555555,464.285714L23.5555555,476.443090000032L35.333333499999995,488.095238L58.888889000000006,488.095238L82.4444445,464.79094150539737L82.69978185375544,464.285714Z" style="fill: rgb(174, 255, 0); stroke: rgb(255, 255, 255);"></path><path style="fill: rgb(221, 221, 221); stroke: rgb(255, 255, 255);"></path><path d="M0,464.285714L23.5555555,464.285714L23.555555499999997,440.4761905L11.522440651635412,416.6666665L0,416.6666665Z" style="fill: rgb(231, 0, 187); stroke: rgb(255, 255, 255);"></path><path style="fill: rgb(221, 221, 221); stroke: rgb(255, 255, 255);"></path><path style="fill: rgb(221, 221, 221); stroke: rgb(255, 255, 255);"></path><path d="M129.5555555,464.2857145L129.5555555,500L194.4610021768777,500L176.41132939893998,464.2857145Z" style="fill: rgb(255, 0, 0); stroke: rgb(255, 255, 255);"></path><path style="fill: rgb(221, 221, 221); stroke: rgb(255, 255, 255);"></path><path d="M329.7777775,482.01654999998397L329.77777749999996,500L600.6666665,500L600.6666665,348.0168504736855Z" style="fill: rgb(216, 0, 255); stroke: rgb(255, 255, 255);"></path><path style="fill: rgb(221, 221, 221); stroke: rgb(255, 255, 255);"></path><path d="M176.41132939893998,464.2857145L194.4610021768777,500L229.53899782312232,500L250.91727332998408,457.6995193019253L223.77777799999998,417.42450751867733Z" style="fill: rgb(119, 0, 118); stroke: rgb(255, 255, 255);"></path><path style="fill: rgb(221, 221, 221); stroke: rgb(255, 255, 255);"></path><path style="fill: rgb(221, 221, 221); stroke: rgb(255, 255, 255);"></path><path style="fill: rgb(221, 221, 221); stroke: rgb(255, 255, 255);"></path><path style="fill: rgb(221, 221, 221); stroke: rgb(255, 255, 255);"></path><path style="fill: rgb(221, 221, 221); stroke: rgb(255, 255, 255);"></path><path d="M35.333333499999995,488.095238L35.3333335,500L58.888889000000006,500L58.888889000000006,488.095238Z" style="fill: rgb(75, 75, 75); stroke: rgb(255, 255, 255);"></path><path d="M82.4444445,464.79094150539737L82.4444445,500L129.5555555,500L129.5555555,464.2857145L106.12766867105918,441.1077248821698L82.69978185375544,464.285714Z" style="fill: rgb(235, 255, 0); stroke: rgb(255, 255, 255);"></path><path d="M600.6666665,348.0168504736855L600.6666665,500L848,500L848,0L632.6456716525718,0Z" style="fill: rgb(157, 11, 59); stroke: rgb(255, 255, 255);"></path><path style="fill: rgb(221, 221, 221); stroke: rgb(255, 255, 255);"></path><path d="M0,202.38095249999998L131.8535929257125,202.38095249999998L272.5741151428906,155.97445155134633L339.87973322856243,83.3333335L0,83.3333335Z" style="fill: rgb(50, 0, 151); stroke: rgb(255, 255, 255);"></path><path d="M11.777778,500L11.777777999999996,488.095238L0,488.095238L0,500Z" style="fill: rgb(206, 176, 255); stroke: rgb(255, 255, 255);"></path><circle transform="translate(0, 500)" r="1.5" style="fill: rgb(0, 0, 0); pointer-events: none;"></circle><circle transform="translate(0, 476.1904761904762)" r="1.5" style="fill: rgb(0, 0, 0); pointer-events: none;"></circle><circle transform="translate(164.88888888888889, 428.57142857142856)" r="1.5" style="fill: rgb(0, 0, 0); pointer-events: none;"></circle><circle transform="translate(0, 500)" r="1.5" style="fill: rgb(0, 0, 0); pointer-events: none;"></circle><circle transform="translate(94.22222222222221, 500)" r="1.5" style="fill: rgb(0, 0, 0); pointer-events: none;"></circle><circle transform="translate(0, 500)" r="1.5" style="fill: rgb(0, 0, 0); pointer-events: none;"></circle><circle transform="translate(0, 500)" r="1.5" style="fill: rgb(0, 0, 0); pointer-events: none;"></circle><circle transform="translate(0, 500)" r="1.5" style="fill: rgb(0, 0, 0); pointer-events: none;"></circle><circle transform="translate(0, 380.95238095238096)" r="1.5" style="fill: rgb(0, 0, 0); pointer-events: none;"></circle><circle transform="translate(0, 0)" r="1.5" style="fill: rgb(0, 0, 0); pointer-events: none;"></circle><circle transform="translate(0, 500)" r="1.5" style="fill: rgb(0, 0, 0); pointer-events: none;"></circle><circle transform="translate(47.11111111111111, 500)" r="1.5" style="fill: rgb(0, 0, 0); pointer-events: none;"></circle><circle transform="translate(0, 452.3809523809524)" r="1.5" style="fill: rgb(0, 0, 0); pointer-events: none;"></circle><circle transform="translate(23.555555555555554, 500)" r="1.5" style="fill: rgb(0, 0, 0); pointer-events: none;"></circle><circle transform="translate(0, 500)" r="1.5" style="fill: rgb(0, 0, 0); pointer-events: none;"></circle><circle transform="translate(47.11111111111111, 476.1904761904762)" r="1.5" style="fill: rgb(0, 0, 0); pointer-events: none;"></circle><circle transform="translate(0, 500)" r="1.5" style="fill: rgb(0, 0, 0); pointer-events: none;"></circle><circle transform="translate(0, 500)" r="1.5" style="fill: rgb(0, 0, 0); pointer-events: none;"></circle><circle transform="translate(70.66666666666666, 500)" r="1.5" style="fill: rgb(0, 0, 0); pointer-events: none;"></circle><circle transform="translate(0, 238.09523809523807)" r="1.5" style="fill: rgb(0, 0, 0); pointer-events: none;"></circle><circle transform="translate(259.11111111111114, 500)" r="1.5" style="fill: rgb(0, 0, 0); pointer-events: none;"></circle><circle transform="translate(0, 500)" r="1.5" style="fill: rgb(0, 0, 0); pointer-events: none;"></circle><circle transform="translate(282.66666666666663, 428.57142857142856)" r="1.5" style="fill: rgb(0, 0, 0); pointer-events: none;"></circle><circle transform="translate(0, 500)" r="1.5" style="fill: rgb(0, 0, 0); pointer-events: none;"></circle><circle transform="translate(0, 500)" r="1.5" style="fill: rgb(0, 0, 0); pointer-events: none;"></circle><circle transform="translate(0, 500)" r="1.5" style="fill: rgb(0, 0, 0); pointer-events: none;"></circle><circle transform="translate(23.555555555555554, 500)" r="1.5" style="fill: rgb(0, 0, 0); pointer-events: none;"></circle><circle transform="translate(47.11111111111111, 476.1904761904762)" r="1.5" style="fill: rgb(0, 0, 0); pointer-events: none;"></circle><circle transform="translate(0, 500)" r="1.5" style="fill: rgb(0, 0, 0); pointer-events: none;"></circle><circle transform="translate(0, 500)" r="1.5" style="fill: rgb(0, 0, 0); pointer-events: none;"></circle><circle transform="translate(47.11111111111111, 500)" r="1.5" style="fill: rgb(0, 0, 0); pointer-events: none;"></circle><circle transform="translate(306.22222222222223, 500)" r="1.5" style="fill: rgb(0, 0, 0); pointer-events: none;"></circle><circle transform="translate(47.11111111111111, 309.5238095238095)" r="1.5" style="fill: rgb(0, 0, 0); pointer-events: none;"></circle><circle transform="translate(0, 500)" r="1.5" style="fill: rgb(0, 0, 0); pointer-events: none;"></circle><circle transform="translate(0, 238.09523809523807)" r="1.5" style="fill: rgb(0, 0, 0); pointer-events: none;"></circle><circle transform="translate(0, 500)" r="1.5" style="fill: rgb(0, 0, 0); pointer-events: none;"></circle><circle transform="translate(0, 380.95238095238096)" r="1.5" style="fill: rgb(0, 0, 0); pointer-events: none;"></circle><circle transform="translate(70.66666666666666, 500)" r="1.5" style="fill: rgb(0, 0, 0); pointer-events: none;"></circle><circle transform="translate(0, 500)" r="1.5" style="fill: rgb(0, 0, 0); pointer-events: none;"></circle><circle transform="translate(47.11111111111111, 428.57142857142856)" r="1.5" style="fill: rgb(0, 0, 0); pointer-events: none;"></circle><circle transform="translate(0, 500)" r="1.5" style="fill: rgb(0, 0, 0); pointer-events: none;"></circle><circle transform="translate(329.77777777777777, 452.3809523809524)" r="1.5" style="fill: rgb(0, 0, 0); pointer-events: none;"></circle><circle transform="translate(47.11111111111111, 428.57142857142856)" r="1.5" style="fill: rgb(0, 0, 0); pointer-events: none;"></circle><circle transform="translate(23.555555555555554, 500)" r="1.5" style="fill: rgb(0, 0, 0); pointer-events: none;"></circle><circle transform="translate(0, 500)" r="1.5" style="fill: rgb(0, 0, 0); pointer-events: none;"></circle><circle transform="translate(94.22222222222221, 500)" r="1.5" style="fill: rgb(0, 0, 0); pointer-events: none;"></circle><circle transform="translate(0, 500)" r="1.5" style="fill: rgb(0, 0, 0); pointer-events: none;"></circle><circle transform="translate(0, 500)" r="1.5" style="fill: rgb(0, 0, 0); pointer-events: none;"></circle><circle transform="translate(0, 500)" r="1.5" style="fill: rgb(0, 0, 0); pointer-events: none;"></circle><circle transform="translate(47.11111111111111, 452.3809523809524)" r="1.5" style="fill: rgb(0, 0, 0); pointer-events: none;"></circle><circle transform="translate(23.555555555555554, 500)" r="1.5" style="fill: rgb(0, 0, 0); pointer-events: none;"></circle><circle transform="translate(0, 500)" r="1.5" style="fill: rgb(0, 0, 0); pointer-events: none;"></circle><circle transform="translate(47.11111111111111, 476.1904761904762)" r="1.5" style="fill: rgb(0, 0, 0); pointer-events: none;"></circle><circle transform="translate(0, 500)" r="1.5" style="fill: rgb(0, 0, 0); pointer-events: none;"></circle><circle transform="translate(0, 452.3809523809524)" r="1.5" style="fill: rgb(0, 0, 0); pointer-events: none;"></circle><circle transform="translate(0, 500)" r="1.5" style="fill: rgb(0, 0, 0); pointer-events: none;"></circle><circle transform="translate(0, 500)" r="1.5" style="fill: rgb(0, 0, 0); pointer-events: none;"></circle><circle transform="translate(164.88888888888889, 500)" r="1.5" style="fill: rgb(0, 0, 0); pointer-events: none;"></circle><circle transform="translate(0, 500)" r="1.5" style="fill: rgb(0, 0, 0); pointer-events: none;"></circle><circle transform="translate(353.33333333333337, 500)" r="1.5" style="fill: rgb(0, 0, 0); pointer-events: none;"></circle><circle transform="translate(0, 500)" r="1.5" style="fill: rgb(0, 0, 0); pointer-events: none;"></circle><circle transform="translate(212, 476.1904761904762)" r="1.5" style="fill: rgb(0, 0, 0); pointer-events: none;"></circle><circle transform="translate(0, 500)" r="1.5" style="fill: rgb(0, 0, 0); pointer-events: none;"></circle><circle transform="translate(0, 500)" r="1.5" style="fill: rgb(0, 0, 0); pointer-events: none;"></circle><circle transform="translate(47.11111111111111, 500)" r="1.5" style="fill: rgb(0, 0, 0); pointer-events: none;"></circle><circle transform="translate(0, 500)" r="1.5" style="fill: rgb(0, 0, 0); pointer-events: none;"></circle><circle transform="translate(0, 500)" r="1.5" style="fill: rgb(0, 0, 0); pointer-events: none;"></circle><circle transform="translate(47.11111111111111, 500)" r="1.5" style="fill: rgb(0, 0, 0); pointer-events: none;"></circle><circle transform="translate(94.22222222222221, 500)" r="1.5" style="fill: rgb(0, 0, 0); pointer-events: none;"></circle><circle transform="translate(848, 500)" r="1.5" style="fill: rgb(0, 0, 0); pointer-events: none;"></circle><circle transform="translate(0, 500)" r="1.5" style="fill: rgb(0, 0, 0); pointer-events: none;"></circle><circle transform="translate(0, 166.66666666666669)" r="1.5" style="fill: rgb(0, 0, 0); pointer-events: none;"></circle><circle transform="translate(0, 500)" r="1.5" style="fill: rgb(0, 0, 0); pointer-events: none;"></circle></g></svg>