<?xml version="1.0" encoding="utf-8"?>
<!-- Generator: Adobe Illustrator 16.0.2, SVG Export Plug-In . SVG Version: 6.00 Build 0)  -->
<!DOCTYPE svg PUBLIC "-//W3C//DTD SVG 1.1//EN" "http://www.w3.org/Graphics/SVG/1.1/DTD/svg11.dtd">
<svg version="1.1" id="Layer_1" xmlns="http://www.w3.org/2000/svg" xmlns:xlink="http://www.w3.org/1999/xlink" x="0px" y="0px"
	 width="841.89px" height="595.28px" viewBox="0 0 841.89 595.28" enable-background="new 0 0 841.89 595.28" xml:space="preserve">
<g>
	<defs>
		<rect id="SVGID_1_" x="219.257" y="66.009" width="727.114" height="492.353"/>
	</defs>
	<clipPath id="SVGID_2_">
		<use xlink:href="#SVGID_1_"  overflow="visible"/>
	</clipPath>
	<g clip-path="url(#SVGID_2_)">
		<defs>
			<rect id="SVGID_3_" x="219.257" y="66.007" width="727.112" height="492.354"/>
		</defs>
		<clipPath id="SVGID_4_">
			<use xlink:href="#SVGID_3_"  overflow="visible"/>
		</clipPath>
		<g opacity="0.53" clip-path="url(#SVGID_4_)">
			<g>
				<defs>
					<rect id="SVGID_5_" x="352.12" y="86.541" width="434.14" height="434.14"/>
				</defs>
				<clipPath id="SVGID_6_">
					<use xlink:href="#SVGID_5_"  overflow="visible"/>
				</clipPath>
				<path clip-path="url(#SVGID_6_)" fill="#EFF179" d="M786.26,303.61c0,119.885-97.187,217.07-217.07,217.07
					s-217.07-97.186-217.07-217.07c0-119.884,97.186-217.07,217.07-217.07S786.26,183.727,786.26,303.61"/>
			</g>
		</g>
		<g opacity="0.53" clip-path="url(#SVGID_4_)">
			<g>
				<defs>
					<rect id="SVGID_7_" x="380.848" y="113.863" width="379.493" height="379.495"/>
				</defs>
				<clipPath id="SVGID_8_">
					<use xlink:href="#SVGID_7_"  overflow="visible"/>
				</clipPath>
				<path clip-path="url(#SVGID_8_)" fill="#F96D55" d="M760.34,303.61c0,104.795-84.952,189.747-189.746,189.747
					c-104.795,0-189.746-84.952-189.746-189.747c0-104.794,84.951-189.746,189.746-189.746
					C675.388,113.864,760.34,198.816,760.34,303.61"/>
			</g>
		</g>
		<g opacity="0.53" clip-path="url(#SVGID_4_)">
			<g>
				<defs>
					<rect id="SVGID_9_" x="412.73" y="147.824" width="313.533" height="313.535"/>
				</defs>
				<clipPath id="SVGID_10_">
					<use xlink:href="#SVGID_9_"  overflow="visible"/>
				</clipPath>
				<path clip-path="url(#SVGID_10_)" fill="#7E0E37" d="M726.265,304.592c0,86.58-70.187,156.768-156.767,156.768
					c-86.581,0-156.768-70.188-156.768-156.768s70.187-156.768,156.768-156.768C656.078,147.824,726.265,218.012,726.265,304.592"/>
			</g>
		</g>
		<g opacity="0.79" clip-path="url(#SVGID_4_)">
			<g>
				<defs>
					<rect id="SVGID_11_" x="444.982" y="181.336" width="247.084" height="247.085"/>
				</defs>
				<clipPath id="SVGID_12_">
					<use xlink:href="#SVGID_11_"  overflow="visible"/>
				</clipPath>
				<path clip-path="url(#SVGID_12_)" fill="#1C0B80" d="M692.068,304.879c0,68.231-55.313,123.543-123.543,123.543
					c-68.23,0-123.543-55.312-123.543-123.543c0-68.231,55.313-123.542,123.543-123.542
					C636.755,181.336,692.068,236.648,692.068,304.879"/>
			</g>
		</g>
		
			<rect x="677.295" y="70.936" transform="matrix(0.8854 0.4647 -0.4647 0.8854 120.6958 -305.4321)" clip-path="url(#SVGID_4_)" fill="none" stroke="#000000" stroke-miterlimit="10" width="5.233" height="42.356"/>
		
			<rect x="804.838" y="281.389" transform="matrix(0.0086 1 -1 0.0086 1103.0833 -507.456)" clip-path="url(#SVGID_4_)" fill="none" stroke="#000000" stroke-miterlimit="10" width="5.236" height="42.355"/>
		
			<rect x="693.218" y="483.392" transform="matrix(-0.8435 0.5371 -0.5371 -0.8435 1553.7878 556.4584)" clip-path="url(#SVGID_4_)" fill="none" stroke="#000000" stroke-miterlimit="10" width="5.233" height="42.356"/>
		
			<rect x="446.853" y="487.21" transform="matrix(-0.8671 -0.4982 0.4982 -0.8671 585.9185 1173.1169)" clip-path="url(#SVGID_4_)" fill="none" stroke="#000000" stroke-miterlimit="10" width="5.234" height="42.357"/>
		
			<rect x="328.925" y="280.342" transform="matrix(-0.0014 -1 1 -0.0014 30.487 633.4835)" clip-path="url(#SVGID_4_)" fill="none" stroke="#000000" stroke-miterlimit="10" width="5.235" height="42.356"/>
		
			<rect x="443.449" y="78.296" transform="matrix(0.8511 -0.5249 0.5249 0.8511 14.1812 248.9578)" clip-path="url(#SVGID_4_)" fill="none" stroke="#000000" stroke-miterlimit="10" width="5.234" height="42.356"/>
		<g opacity="0.53" clip-path="url(#SVGID_4_)">
			<g>
				<defs>
					<rect id="SVGID_13_" x="478.518" y="214.583" width="180.016" height="180.018"/>
				</defs>
				<clipPath id="SVGID_14_">
					<use xlink:href="#SVGID_13_"  overflow="visible"/>
				</clipPath>
				<path clip-path="url(#SVGID_14_)" fill="#DD91C6" d="M658.534,304.592c0,49.711-40.3,90.009-90.009,90.009
					c-49.71,0-90.008-40.298-90.008-90.009s40.298-90.009,90.008-90.009C618.234,214.583,658.534,254.881,658.534,304.592"/>
			</g>
		</g>
		<path clip-path="url(#SVGID_4_)" fill="#EFF179" d="M672.368,274.016"/>
		<path clip-path="url(#SVGID_4_)" fill="#3AB0A5" d="M623.986,304.592c0,30.631-24.831,55.46-55.461,55.46
			c-30.629,0-55.46-24.829-55.46-55.46c0-30.63,24.831-55.46,55.46-55.46C599.155,249.131,623.986,273.962,623.986,304.592"/>
		<circle clip-path="url(#SVGID_4_)" fill="none" stroke="#000000" stroke-miterlimit="10" cx="568.526" cy="304.592" r="55.46"/>
		
			<line clip-path="url(#SVGID_4_)" fill="none" stroke="#000000" stroke-width="2" stroke-miterlimit="10" x1="568.881" y1="302.918" x2="460.351" y2="115.376"/>
		
			<line clip-path="url(#SVGID_4_)" fill="none" stroke="#000000" stroke-width="2" stroke-miterlimit="10" x1="569.498" y1="302.918" x2="670.209" y2="111.044"/>
		
			<line clip-path="url(#SVGID_4_)" fill="none" stroke="#000000" stroke-width="2" stroke-miterlimit="10" x1="569.189" y1="303.448" x2="460.271" y2="491.029"/>
		
			<line clip-path="url(#SVGID_4_)" fill="none" stroke="#000000" stroke-width="2" stroke-miterlimit="10" x1="352.12" y1="303.227" x2="786.26" y2="303.226"/>
		
			<line clip-path="url(#SVGID_4_)" fill="none" stroke="#000000" stroke-width="2" stroke-miterlimit="10" x1="569.189" y1="303.448" x2="684.92" y2="486.9"/>
		<path clip-path="url(#SVGID_4_)" d="M754.68,185.116c0,1.875-1.519,3.394-3.393,3.394c-1.875,0-3.396-1.519-3.396-3.394
			c0-1.874,1.521-3.393,3.396-3.393C753.161,181.723,754.68,183.243,754.68,185.116"/>
		<circle clip-path="url(#SVGID_4_)" fill="none" stroke="#000000" stroke-miterlimit="10" cx="751.286" cy="185.116" r="3.394"/>
		<path clip-path="url(#SVGID_4_)" d="M789.653,303.227c0,1.874-1.519,3.393-3.394,3.393s-3.395-1.519-3.395-3.393
			c0-1.875,1.52-3.395,3.395-3.395S789.653,301.352,789.653,303.227"/>
		<circle clip-path="url(#SVGID_4_)" fill="none" stroke="#000000" stroke-miterlimit="10" cx="786.259" cy="303.227" r="3.394"/>
		<path clip-path="url(#SVGID_4_)" d="M776.703,378.863c0,1.876-1.518,3.395-3.393,3.395c-1.874,0-3.395-1.519-3.395-3.395
			c0-1.874,1.521-3.394,3.395-3.394C775.186,375.47,776.703,376.989,776.703,378.863"/>
		<circle clip-path="url(#SVGID_4_)" fill="none" stroke="#000000" stroke-miterlimit="10" cx="773.31" cy="378.863" r="3.394"/>
		<path clip-path="url(#SVGID_4_)" d="M744.86,437.434c0,1.874-1.52,3.395-3.395,3.395c-1.874,0-3.394-1.521-3.394-3.395
			c0-1.875,1.52-3.395,3.394-3.395C743.341,434.039,744.86,435.559,744.86,437.434"/>
		<circle clip-path="url(#SVGID_4_)" fill="none" stroke="#000000" stroke-miterlimit="10" cx="741.466" cy="437.434" r="3.394"/>
		<path clip-path="url(#SVGID_4_)" d="M688.377,487.001c0,1.874-1.52,3.394-3.395,3.394c-1.873,0-3.393-1.52-3.393-3.394
			c0-1.875,1.52-3.395,3.393-3.395C686.857,483.606,688.377,485.126,688.377,487.001"/>
		<circle clip-path="url(#SVGID_4_)" fill="none" stroke="#000000" stroke-miterlimit="10" cx="684.983" cy="487.001" r="3.394"/>
		<path clip-path="url(#SVGID_4_)" d="M661.928,505.341c0,1.874-1.52,3.394-3.394,3.394s-3.394-1.52-3.394-3.394
			c0-1.875,1.52-3.395,3.394-3.395S661.928,503.466,661.928,505.341"/>
		<circle clip-path="url(#SVGID_4_)" fill="none" stroke="#000000" stroke-miterlimit="10" cx="658.534" cy="505.341" r="3.394"/>
		<path clip-path="url(#SVGID_4_)" d="M630.602,516.462c0,1.875-1.518,3.394-3.392,3.394c-1.876,0-3.395-1.519-3.395-3.394
			c0-1.874,1.519-3.394,3.395-3.394C629.084,513.068,630.602,514.588,630.602,516.462"/>
		<circle clip-path="url(#SVGID_4_)" fill="none" stroke="#000000" stroke-miterlimit="10" cx="627.208" cy="516.462" r="3.393"/>
		<path clip-path="url(#SVGID_4_)" d="M591.774,523.56c0,1.874-1.52,3.394-3.395,3.394c-1.874,0-3.394-1.52-3.394-3.394
			c0-1.875,1.52-3.395,3.394-3.395C590.255,520.165,591.774,521.685,591.774,523.56"/>
		<circle clip-path="url(#SVGID_4_)" fill="none" stroke="#000000" stroke-miterlimit="10" cx="588.38" cy="523.56" r="3.394"/>
		<path clip-path="url(#SVGID_4_)" d="M559.353,523.56c0,1.874-1.521,3.394-3.395,3.394c-1.875,0-3.395-1.52-3.395-3.394
			c0-1.875,1.52-3.395,3.395-3.395C557.832,520.165,559.353,521.685,559.353,523.56"/>
		<circle clip-path="url(#SVGID_4_)" fill="none" stroke="#000000" stroke-miterlimit="10" cx="555.958" cy="523.56" r="3.395"/>
		<path clip-path="url(#SVGID_4_)" d="M528.734,519.855c0,1.875-1.52,3.394-3.394,3.394c-1.875,0-3.395-1.519-3.395-3.394
			c0-1.874,1.52-3.394,3.395-3.394C527.215,516.462,528.734,517.981,528.734,519.855"/>
		<circle clip-path="url(#SVGID_4_)" fill="none" stroke="#000000" stroke-miterlimit="10" cx="525.34" cy="519.855" r="3.394"/>
		<path clip-path="url(#SVGID_4_)" d="M495.868,509.674c0,1.875-1.52,3.395-3.394,3.395c-1.875,0-3.395-1.52-3.395-3.395
			c0-1.874,1.52-3.394,3.395-3.394C494.349,506.28,495.868,507.8,495.868,509.674"/>
		<circle clip-path="url(#SVGID_4_)" fill="none" stroke="#000000" stroke-miterlimit="10" cx="492.474" cy="509.674" r="3.394"/>
		<path clip-path="url(#SVGID_4_)" d="M462.3,493.234c0.077,1.872-1.377,3.455-3.25,3.532c-1.873,0.078-3.454-1.377-3.532-3.25
			s1.378-3.454,3.251-3.531C460.642,489.906,462.223,491.362,462.3,493.234"/>
		<circle clip-path="url(#SVGID_4_)" fill="none" stroke="#000000" stroke-miterlimit="10" cx="458.909" cy="493.375" r="3.394"/>
		<path clip-path="url(#SVGID_4_)" d="M353.947,322.392c-1.58,1.009-3.678,0.546-4.688-1.033c-1.009-1.579-0.546-3.679,1.033-4.688
			c1.58-1.008,3.678-0.546,4.688,1.033C355.988,319.283,355.525,321.383,353.947,322.392"/>
		<circle clip-path="url(#SVGID_4_)" fill="none" stroke="#000000" stroke-miterlimit="10" cx="352.119" cy="319.531" r="3.394"/>
		<path clip-path="url(#SVGID_4_)" fill="#565555" d="M355.982,337.379c-1.65,0.888-3.708,0.27-4.595-1.38
			c-0.889-1.651-0.271-3.709,1.38-4.598c1.65-0.89,3.708-0.271,4.596,1.381C358.252,334.433,357.634,336.492,355.982,337.379"/>
		<circle clip-path="url(#SVGID_4_)" fill="none" stroke="#565555" stroke-miterlimit="10" cx="354.375" cy="334.39" r="3.394"/>
		<path clip-path="url(#SVGID_4_)" d="M358.469,354.115c-1.58,1.01-3.678,0.548-4.687-1.031c-1.01-1.579-0.547-3.68,1.033-4.688
			c1.58-1.008,3.678-0.546,4.687,1.033C360.511,351.009,360.047,353.108,358.469,354.115"/>
		<circle clip-path="url(#SVGID_4_)" fill="none" stroke="#000000" stroke-miterlimit="10" cx="356.642" cy="351.255" r="3.394"/>
		<path clip-path="url(#SVGID_4_)" fill="#565555" d="M360.505,369.104c-1.651,0.888-3.709,0.27-4.596-1.381
			c-0.889-1.651-0.27-3.709,1.38-4.598c1.651-0.888,3.708-0.27,4.596,1.381C362.773,366.158,362.155,368.217,360.505,369.104"/>
		<circle clip-path="url(#SVGID_4_)" fill="none" stroke="#565555" stroke-miterlimit="10" cx="358.897" cy="366.115" r="3.394"/>
		<path clip-path="url(#SVGID_4_)" d="M366.649,381.053c-1.209,1.433-3.35,1.614-4.782,0.405c-1.433-1.208-1.614-3.351-0.405-4.782
			c1.208-1.434,3.35-1.613,4.782-0.405S367.857,379.619,366.649,381.053"/>
		<circle clip-path="url(#SVGID_4_)" fill="none" stroke="#000000" stroke-miterlimit="10" cx="364.055" cy="378.864" r="3.394"/>
		<path clip-path="url(#SVGID_4_)" fill="#565555" d="M373.042,394.76c-1.312,1.337-3.461,1.359-4.798,0.046
			c-1.339-1.312-1.359-3.462-0.046-4.8c1.313-1.338,3.461-1.358,4.799-0.045C374.335,391.273,374.355,393.421,373.042,394.76"/>
		<circle clip-path="url(#SVGID_4_)" fill="none" stroke="#565555" stroke-miterlimit="10" cx="370.62" cy="392.383" r="3.394"/>
		<path clip-path="url(#SVGID_4_)" d="M380.385,410.006c-1.209,1.432-3.35,1.612-4.782,0.404c-1.433-1.209-1.615-3.35-0.405-4.782
			c1.208-1.433,3.35-1.614,4.782-0.406C381.412,406.432,381.593,408.572,380.385,410.006"/>
		<circle clip-path="url(#SVGID_4_)" fill="none" stroke="#000000" stroke-miterlimit="10" cx="377.791" cy="407.817" r="3.394"/>
		<path clip-path="url(#SVGID_4_)" fill="#565555" d="M386.778,423.712c-1.312,1.338-3.461,1.358-4.799,0.046
			c-1.338-1.313-1.359-3.46-0.047-4.798c1.313-1.339,3.462-1.359,4.8-0.047S388.091,422.374,386.778,423.712"/>
		<circle clip-path="url(#SVGID_4_)" fill="none" stroke="#565555" stroke-miterlimit="10" cx="384.355" cy="421.336" r="3.393"/>
		<path clip-path="url(#SVGID_4_)" d="M393.991,435.961c-1.061,1.546-3.174,1.938-4.719,0.877c-1.545-1.063-1.938-3.175-0.876-4.721
			c1.062-1.544,3.174-1.937,4.719-0.875C394.66,432.303,395.051,434.415,393.991,435.961"/>
		<circle clip-path="url(#SVGID_4_)" fill="none" stroke="#000000" stroke-miterlimit="10" cx="391.193" cy="434.039" r="3.394"/>
		<path clip-path="url(#SVGID_4_)" fill="#565555" d="M401.708,448.969c-1.173,1.462-3.311,1.694-4.771,0.521
			c-1.461-1.175-1.694-3.311-0.521-4.771c1.174-1.461,3.31-1.693,4.772-0.521C402.649,445.371,402.882,447.508,401.708,448.969"/>
		<circle clip-path="url(#SVGID_4_)" fill="none" stroke="#565555" stroke-miterlimit="10" cx="399.062" cy="446.843" r="3.394"/>
		<path clip-path="url(#SVGID_4_)" d="M412.024,457.576c-0.555,1.791-2.456,2.793-4.247,2.238c-1.791-0.556-2.792-2.456-2.238-4.246
			c0.555-1.791,2.456-2.792,4.247-2.237C411.577,453.885,412.579,455.786,412.024,457.576"/>
		<circle clip-path="url(#SVGID_4_)" fill="none" stroke="#000000" stroke-miterlimit="10" cx="408.782" cy="456.572" r="3.394"/>
		<path clip-path="url(#SVGID_4_)" fill="#565555" d="M423.255,467.708c-0.687,1.743-2.658,2.601-4.401,1.913
			c-1.745-0.688-2.601-2.658-1.913-4.402c0.687-1.743,2.657-2.6,4.401-1.914C423.086,463.992,423.942,465.964,423.255,467.708"/>
		<circle clip-path="url(#SVGID_4_)" fill="none" stroke="#565555" stroke-miterlimit="10" cx="420.098" cy="466.463" r="3.394"/>
		<path clip-path="url(#SVGID_4_)" d="M435.96,478.885c-0.555,1.791-2.456,2.792-4.246,2.238c-1.79-0.556-2.793-2.456-2.237-4.247
			c0.554-1.79,2.455-2.793,4.245-2.237C435.513,475.193,436.515,477.095,435.96,478.885"/>
		<circle clip-path="url(#SVGID_4_)" fill="none" stroke="#000000" stroke-miterlimit="10" cx="432.718" cy="477.88" r="3.394"/>
		<path clip-path="url(#SVGID_4_)" fill="#565555" d="M447.191,488.246c-0.688,1.743-2.659,2.6-4.403,1.912
			c-1.743-0.687-2.601-2.658-1.912-4.401c0.688-1.743,2.658-2.6,4.401-1.914C447.021,484.53,447.877,486.502,447.191,488.246"/>
		<circle clip-path="url(#SVGID_4_)" fill="none" stroke="#565555" stroke-miterlimit="10" cx="444.034" cy="487.001" r="3.394"/>
		<path clip-path="url(#SVGID_4_)" d="M351.077,305.015c-1.584,1.002-3.681,0.53-4.683-1.053c-1.001-1.585-0.53-3.681,1.053-4.683
			c1.585-1.003,3.681-0.531,4.683,1.053C353.132,301.916,352.661,304.013,351.077,305.015"/>
		<circle clip-path="url(#SVGID_4_)" fill="none" stroke="#000000" stroke-miterlimit="10" cx="349.262" cy="302.147" r="3.394"/>
		<path clip-path="url(#SVGID_4_)" d="M444.691,123.359c-1.664-0.865-2.31-2.915-1.444-4.577c0.865-1.663,2.914-2.31,4.576-1.444
			c1.664,0.865,2.311,2.914,1.445,4.577C448.403,123.577,446.354,124.225,444.691,123.359"/>
		<circle clip-path="url(#SVGID_4_)" fill="none" stroke="#000000" stroke-miterlimit="10" cx="446.257" cy="120.349" r="3.394"/>
		<path clip-path="url(#SVGID_4_)" fill="#565555" d="M431.528,132.517c-1.594-0.987-2.084-3.08-1.098-4.673
			c0.987-1.593,3.079-2.084,4.673-1.098c1.593,0.987,2.085,3.079,1.097,4.672C435.214,133.012,433.122,133.503,431.528,132.517"/>
		<circle clip-path="url(#SVGID_4_)" fill="none" stroke="#565555" stroke-miterlimit="10" cx="433.316" cy="129.631" r="3.394"/>
		<path clip-path="url(#SVGID_4_)" d="M418.651,144.258c-1.664-0.865-2.31-2.914-1.445-4.577c0.865-1.663,2.915-2.31,4.577-1.445
			c1.663,0.866,2.31,2.915,1.445,4.578C422.363,144.476,420.313,145.123,418.651,144.258"/>
		<circle clip-path="url(#SVGID_4_)" fill="none" stroke="#000000" stroke-miterlimit="10" cx="420.217" cy="141.247" r="3.394"/>
		<path clip-path="url(#SVGID_4_)" fill="#565555" d="M407.835,154.851c-1.593-0.987-2.085-3.08-1.097-4.673
			c0.987-1.593,3.079-2.085,4.672-1.098c1.593,0.988,2.085,3.08,1.097,4.672C411.521,155.346,409.428,155.837,407.835,154.851"/>
		<circle clip-path="url(#SVGID_4_)" fill="none" stroke="#565555" stroke-miterlimit="10" cx="409.622" cy="151.965" r="3.394"/>
		<path clip-path="url(#SVGID_4_)" d="M400.547,166.139c-1.844-0.333-3.07-2.098-2.738-3.942c0.333-1.845,2.098-3.071,3.941-2.738
			c1.846,0.333,3.072,2.097,2.738,3.942C404.158,165.245,402.392,166.47,400.547,166.139"/>
		<circle clip-path="url(#SVGID_4_)" fill="none" stroke="#000000" stroke-miterlimit="10" cx="401.149" cy="162.798" r="3.394"/>
		<path clip-path="url(#SVGID_4_)" fill="#565555" d="M391.09,177.749c-1.814-0.47-2.905-2.321-2.436-4.136
			c0.47-1.814,2.322-2.904,4.136-2.435c1.815,0.47,2.905,2.322,2.436,4.137C394.756,177.128,392.905,178.219,391.09,177.749"/>
		<circle clip-path="url(#SVGID_4_)" fill="none" stroke="#565555" stroke-miterlimit="10" cx="391.941" cy="174.463" r="3.394"/>
		<path clip-path="url(#SVGID_4_)" d="M381.544,189.951c-1.845-0.332-3.07-2.097-2.738-3.941c0.333-1.845,2.097-3.071,3.941-2.738
			c1.846,0.333,3.071,2.097,2.738,3.942C385.154,189.058,383.389,190.284,381.544,189.951"/>
		<circle clip-path="url(#SVGID_4_)" fill="none" stroke="#000000" stroke-miterlimit="10" cx="382.146" cy="186.611" r="3.394"/>
		<path clip-path="url(#SVGID_4_)" fill="#565555" d="M372.857,204.103c-1.815-0.47-2.905-2.322-2.435-4.136
			c0.47-1.814,2.321-2.905,4.135-2.436c1.815,0.471,2.905,2.322,2.436,4.137C376.523,203.481,374.672,204.572,372.857,204.103"/>
		<circle clip-path="url(#SVGID_4_)" fill="none" stroke="#565555" stroke-miterlimit="10" cx="373.708" cy="200.816" r="3.394"/>
		<path clip-path="url(#SVGID_4_)" d="M367.768,217.236c-1.868-0.148-3.263-1.784-3.113-3.652c0.148-1.869,1.783-3.263,3.652-3.115
			c1.868,0.148,3.263,1.783,3.114,3.652C371.272,215.991,369.637,217.384,367.768,217.236"/>
		<circle clip-path="url(#SVGID_4_)" fill="none" stroke="#000000" stroke-miterlimit="10" cx="368.037" cy="213.853" r="3.394"/>
		<path clip-path="url(#SVGID_4_)" fill="#565555" d="M361.119,230.416c-1.852-0.288-3.121-2.023-2.833-3.875
			c0.289-1.852,2.024-3.12,3.875-2.833c1.852,0.289,3.121,2.023,2.833,3.875C364.705,229.436,362.972,230.704,361.119,230.416"/>
		<circle clip-path="url(#SVGID_4_)" fill="none" stroke="#565555" stroke-miterlimit="10" cx="361.64" cy="227.062" r="3.394"/>
		<path clip-path="url(#SVGID_4_)" d="M358.038,243.651c-1.828,0.413-3.646-0.734-4.058-2.563c-0.413-1.828,0.734-3.645,2.563-4.058
			c1.828-0.413,3.645,0.734,4.058,2.563C361.014,241.421,359.867,243.239,358.038,243.651"/>
		<circle clip-path="url(#SVGID_4_)" fill="none" stroke="#000000" stroke-miterlimit="10" cx="357.291" cy="240.341" r="3.394"/>
		<path clip-path="url(#SVGID_4_)" fill="#565555" d="M354.865,258.44c-1.854,0.274-3.58-1.006-3.854-2.86s1.005-3.58,2.859-3.854
			c1.854-0.275,3.58,1.005,3.854,2.859C358,256.438,356.719,258.165,354.865,258.44"/>
		<circle clip-path="url(#SVGID_4_)" fill="none" stroke="#565555" stroke-miterlimit="10" cx="354.368" cy="255.083" r="3.394"/>
		<path clip-path="url(#SVGID_4_)" d="M351.521,275.027c-1.829,0.413-3.646-0.734-4.059-2.563c-0.414-1.828,0.735-3.645,2.563-4.058
			c1.828-0.413,3.646,0.735,4.058,2.563C354.496,272.798,353.349,274.614,351.521,275.027"/>
		<circle clip-path="url(#SVGID_4_)" fill="none" stroke="#000000" stroke-miterlimit="10" cx="350.773" cy="271.717" r="3.394"/>
		<path clip-path="url(#SVGID_4_)" fill="#707070" d="M451.591,118.673c-1.15-0.598-1.596-2.015-0.998-3.165
			c0.598-1.149,2.014-1.596,3.164-0.998c1.149,0.599,1.596,2.015,0.998,3.164C454.156,118.824,452.74,119.271,451.591,118.673"/>
		<circle clip-path="url(#SVGID_4_)" fill="none" stroke="#000000" stroke-miterlimit="10" cx="452.674" cy="116.592" r="2.346"/>
		<path clip-path="url(#SVGID_4_)" fill="#707070" d="M438.699,127.07c-1.15-0.598-1.596-2.014-0.999-3.164
			c0.598-1.149,2.015-1.597,3.164-0.999s1.597,2.015,1,3.164C441.266,127.221,439.849,127.668,438.699,127.07"/>
		<circle clip-path="url(#SVGID_4_)" fill="none" stroke="#000000" stroke-miterlimit="10" cx="439.782" cy="124.989" r="2.346"/>
		<path clip-path="url(#SVGID_4_)" fill="#707070" d="M425.542,137.681c-1.275-0.23-2.123-1.451-1.893-2.725
			c0.229-1.275,1.448-2.123,2.725-1.893c1.275,0.229,2.123,1.449,1.893,2.724C428.037,137.063,426.816,137.911,425.542,137.681"/>
		<circle clip-path="url(#SVGID_4_)" fill="none" stroke="#000000" stroke-miterlimit="10" cx="425.958" cy="135.372" r="2.346"/>
		<path clip-path="url(#SVGID_4_)" fill="#707070" d="M414.059,149.297c-1.275-0.229-2.123-1.45-1.892-2.725
			c0.229-1.276,1.45-2.123,2.725-1.893c1.275,0.229,2.123,1.45,1.893,2.725C416.555,148.679,415.335,149.527,414.059,149.297"/>
		<circle clip-path="url(#SVGID_4_)" fill="none" stroke="#000000" stroke-miterlimit="10" cx="414.475" cy="146.988" r="2.346"/>
		<path clip-path="url(#SVGID_4_)" fill="#707070" d="M405.129,159.781c-1.292-0.103-2.256-1.232-2.153-2.525
			c0.103-1.291,1.233-2.255,2.524-2.153c1.292,0.103,2.256,1.234,2.153,2.525C407.551,158.92,406.42,159.884,405.129,159.781"/>
		<circle clip-path="url(#SVGID_4_)" fill="none" stroke="#000000" stroke-miterlimit="10" cx="405.314" cy="157.442" r="2.346"/>
		<path clip-path="url(#SVGID_4_)" fill="#707070" d="M387.213,182.826c-1.263,0.285-2.52-0.507-2.806-1.771
			c-0.286-1.265,0.508-2.52,1.772-2.806c1.264-0.285,2.52,0.508,2.806,1.771C389.271,181.285,388.477,182.541,387.213,182.826"/>
		<circle clip-path="url(#SVGID_4_)" fill="none" stroke="#000000" stroke-miterlimit="10" cx="386.696" cy="180.538" r="2.346"/>
		<path clip-path="url(#SVGID_4_)" fill="#707070" d="M379.268,196.002c-1.263,0.286-2.52-0.507-2.805-1.771
			c-0.285-1.264,0.508-2.52,1.771-2.805c1.265-0.286,2.52,0.507,2.806,1.772C381.326,194.461,380.533,195.717,379.268,196.002"/>
		<circle clip-path="url(#SVGID_4_)" fill="none" stroke="#000000" stroke-miterlimit="10" cx="378.751" cy="193.714" r="2.346"/>
		<path clip-path="url(#SVGID_4_)" fill="#707070" d="M371.949,209.624c-1.265,0.285-2.52-0.508-2.806-1.772s0.507-2.52,1.772-2.805
			c1.263-0.286,2.52,0.508,2.804,1.771C374.006,208.082,373.212,209.338,371.949,209.624"/>
		<circle clip-path="url(#SVGID_4_)" fill="none" stroke="#000000" stroke-miterlimit="10" cx="371.432" cy="207.335" r="2.346"/>
		<path clip-path="url(#SVGID_4_)" fill="#707070" d="M365.552,222.659c-1.265,0.285-2.52-0.508-2.806-1.771
			c-0.285-1.265,0.507-2.52,1.772-2.806c1.264-0.286,2.52,0.508,2.805,1.772C367.608,221.117,366.815,222.374,365.552,222.659"/>
		<circle clip-path="url(#SVGID_4_)" fill="none" stroke="#000000" stroke-miterlimit="10" cx="365.035" cy="220.371" r="2.346"/>
		<path clip-path="url(#SVGID_4_)" fill="#707070" d="M360.159,235.99c-1.264,0.285-2.52-0.508-2.805-1.771
			c-0.285-1.265,0.509-2.52,1.771-2.806c1.265-0.286,2.52,0.508,2.806,1.771C362.217,234.449,361.424,235.705,360.159,235.99"/>
		<circle clip-path="url(#SVGID_4_)" fill="none" stroke="#000000" stroke-miterlimit="10" cx="359.642" cy="233.702" r="2.346"/>
		<path clip-path="url(#SVGID_4_)" fill="#707070" d="M356.693,250c-1.264,0.286-2.521-0.507-2.805-1.772
			c-0.286-1.263,0.507-2.52,1.771-2.806c1.264-0.285,2.52,0.508,2.806,1.772C358.75,248.459,357.958,249.715,356.693,250"/>
		<circle clip-path="url(#SVGID_4_)" fill="none" stroke="#000000" stroke-miterlimit="10" cx="356.177" cy="247.712" r="2.346"/>
		<path clip-path="url(#SVGID_4_)" fill="#707070" d="M353.173,265.688c-1.263,0.285-2.52-0.508-2.805-1.772
			c-0.286-1.263,0.508-2.52,1.771-2.806c1.265-0.285,2.52,0.507,2.806,1.772C355.23,264.146,354.438,265.402,353.173,265.688"/>
		<circle clip-path="url(#SVGID_4_)" fill="none" stroke="#000000" stroke-miterlimit="10" cx="352.656" cy="263.4" r="2.346"/>
		<path clip-path="url(#SVGID_4_)" fill="#707070" d="M350.827,281.184c-1.264,0.286-2.52-0.507-2.805-1.771
			c-0.286-1.264,0.507-2.52,1.771-2.806c1.265-0.285,2.521,0.508,2.806,1.772C352.884,279.643,352.091,280.899,350.827,281.184"/>
		<circle clip-path="url(#SVGID_4_)" fill="none" stroke="#000000" stroke-miterlimit="10" cx="350.31" cy="278.896" r="2.346"/>
		<path clip-path="url(#SVGID_4_)" fill="#707070" d="M350.19,296.399c-1.264,0.285-2.52-0.508-2.806-1.772
			c-0.286-1.264,0.508-2.52,1.772-2.805c1.263-0.286,2.52,0.507,2.805,1.771C352.247,294.857,351.454,296.113,350.19,296.399"/>
		<circle clip-path="url(#SVGID_4_)" fill="none" stroke="#000000" stroke-miterlimit="10" cx="349.673" cy="294.111" r="2.346"/>
		<path clip-path="url(#SVGID_4_)" fill="#707070" d="M396.919,170.442c-1.265,0.286-2.52-0.507-2.806-1.771
			c-0.286-1.264,0.507-2.52,1.772-2.806c1.263-0.285,2.52,0.508,2.805,1.771C398.976,168.901,398.182,170.157,396.919,170.442"/>
		<circle clip-path="url(#SVGID_4_)" fill="none" stroke="#000000" stroke-miterlimit="10" cx="396.402" cy="168.154" r="2.346"/>
		<path clip-path="url(#SVGID_4_)" fill="#565555" d="M350.171,289.431c-1.854,0.275-3.58-1.004-3.855-2.859
			c-0.275-1.854,1.005-3.581,2.859-3.854c1.854-0.275,3.58,1.005,3.854,2.859C353.305,287.43,352.024,289.156,350.171,289.431"/>
		<circle clip-path="url(#SVGID_4_)" fill="none" stroke="#565555" stroke-miterlimit="10" cx="349.673" cy="286.074" r="3.394"/>
		<path clip-path="url(#SVGID_4_)" fill="#565555" d="M457.303,116.083c-1.594-0.987-2.085-3.079-1.099-4.672
			c0.987-1.594,3.079-2.085,4.672-1.098c1.594,0.987,2.086,3.08,1.099,4.673C460.988,116.579,458.896,117.069,457.303,116.083"/>
		<circle clip-path="url(#SVGID_4_)" fill="none" stroke="#565555" stroke-miterlimit="10" cx="459.089" cy="113.197" r="3.394"/>
		<path clip-path="url(#SVGID_4_)" fill="none" stroke="#000000" stroke-width="2" stroke-miterlimit="10" d="M573.305,147.909
			l-1.886-0.021c-0.639-0.007-1.149-0.53-1.143-1.168l0.36-31.656c0.007-0.638,0.529-1.149,1.168-1.143l1.887,0.022
			c0.638,0.007,1.148,0.53,1.143,1.168l-0.36,31.655C574.467,147.405,573.943,147.917,573.305,147.909z"/>
		<path clip-path="url(#SVGID_4_)" fill="none" stroke="#000000" stroke-width="2" stroke-miterlimit="10" d="M577.711,115.172
			l-1.887-0.022c-0.638-0.007-1.148-0.53-1.143-1.168l0.36-31.655c0.007-0.638,0.529-1.149,1.169-1.142l1.886,0.021
			c0.638,0.007,1.149,0.531,1.142,1.169l-0.358,31.655C578.872,114.668,578.349,115.179,577.711,115.172z"/>
		<path clip-path="url(#SVGID_4_)" fill="#F8F551" d="M571.787,283.145l-1.888-0.021c-0.638-0.006-1.148-0.531-1.142-1.168
			l0.36-31.656c0.006-0.638,0.53-1.149,1.169-1.142l1.885,0.021c0.639,0.007,1.15,0.53,1.143,1.168l-0.359,31.656
			C572.948,282.641,572.424,283.152,571.787,283.145"/>
		<path clip-path="url(#SVGID_4_)" fill="none" stroke="#000000" stroke-width="2" stroke-miterlimit="10" d="M571.787,283.145
			l-1.888-0.021c-0.638-0.006-1.148-0.531-1.142-1.168l0.36-31.656c0.006-0.638,0.53-1.149,1.169-1.142l1.885,0.021
			c0.639,0.007,1.15,0.53,1.143,1.168l-0.359,31.656C572.948,282.641,572.424,283.152,571.787,283.145z"/>
		<path clip-path="url(#SVGID_4_)" fill="none" stroke="#000000" stroke-width="2" stroke-miterlimit="10" d="M576.963,182.066
			l-1.885-0.021c-0.639-0.007-1.15-0.53-1.144-1.168l0.36-31.655c0.008-0.638,0.53-1.149,1.168-1.142l1.887,0.021
			c0.638,0.007,1.15,0.53,1.142,1.168l-0.358,31.656C578.125,181.562,577.603,182.074,576.963,182.066z"/>
		<path clip-path="url(#SVGID_4_)" fill="#1C0B80" d="M572.544,214.936l-1.887-0.022c-0.637-0.007-1.149-0.529-1.142-1.168
			l0.359-31.655c0.007-0.638,0.53-1.149,1.168-1.142l1.886,0.021c0.639,0.007,1.15,0.53,1.143,1.168l-0.358,31.655
			C573.705,214.431,573.182,214.942,572.544,214.936"/>
		<path clip-path="url(#SVGID_4_)" fill="none" stroke="#000000" stroke-width="2" stroke-miterlimit="10" d="M572.544,214.936
			l-1.887-0.022c-0.637-0.007-1.149-0.529-1.142-1.168l0.359-31.655c0.007-0.638,0.53-1.149,1.168-1.142l1.886,0.021
			c0.639,0.007,1.15,0.53,1.143,1.168l-0.358,31.655C573.705,214.431,573.182,214.942,572.544,214.936z"/>
		<path clip-path="url(#SVGID_4_)" fill="#DD91C6" d="M576.19,248.96l-1.886-0.021c-0.638-0.007-1.149-0.531-1.143-1.168
			l0.36-31.656c0.007-0.639,0.529-1.149,1.168-1.142l1.887,0.021c0.638,0.007,1.148,0.53,1.141,1.168l-0.358,31.655
			C577.353,248.456,576.829,248.967,576.19,248.96"/>
		<path clip-path="url(#SVGID_4_)" fill="none" stroke="#000000" stroke-width="2" stroke-miterlimit="10" d="M576.19,248.96
			l-1.886-0.021c-0.638-0.007-1.149-0.531-1.143-1.168l0.36-31.656c0.007-0.639,0.529-1.149,1.168-1.142l1.887,0.021
			c0.638,0.007,1.148,0.53,1.141,1.168l-0.358,31.655C577.353,248.456,576.829,248.967,576.19,248.96z"/>
		<path clip-path="url(#SVGID_4_)" d="M549.653,302.918c0-10.96,8.885-19.844,19.844-19.844s19.844,8.884,19.844,19.844
			c0,10.959-8.885,19.843-19.844,19.843S549.653,313.877,549.653,302.918"/>
		<circle clip-path="url(#SVGID_4_)" fill="none" stroke="#000000" stroke-miterlimit="10" cx="569.497" cy="302.918" r="19.844"/>
		<circle clip-path="url(#SVGID_4_)" fill="none" stroke="#000000" stroke-miterlimit="10" cx="798.542" cy="598.88" r="3.395"/>
	</g>
	<g clip-path="url(#SVGID_2_)">
		<defs>
			<rect id="SVGID_15_" x="219.257" y="66.007" width="727.112" height="492.354"/>
		</defs>
		<clipPath id="SVGID_16_">
			<use xlink:href="#SVGID_15_"  overflow="visible"/>
		</clipPath>
	</g>
</g>
<text transform="matrix(1 0 0 1 132.5938 370.5889)"><tspan x="0" y="0" font-family="'ArialMT'" font-size="15.5527">Tracks = Ângulo </tspan><tspan x="0" y="18.663" font-family="'ArialMT'" font-size="15.5527">de rotação</tspan></text>
<text transform="matrix(1 0 0 1 132.5938 450.7969)"><tspan x="0" y="0" font-family="'ArialMT'" font-size="15.5527">Tempo = Pontos </tspan><tspan x="0" y="18.663" font-family="'ArialMT'" font-size="15.5527">na circunferência</tspan></text>
<text transform="matrix(1 0 0 1 132.5938 125.4204)"><tspan x="0" y="0" font-family="'ArialMT'" font-size="15.5527">Quantidade de Notas= </tspan><tspan x="0" y="18.663" font-family="'ArialMT'" font-size="15.5527">Escala de Cores </tspan></text>
<g>
	<path fill="none" stroke="#000000" stroke-miterlimit="10" d="M79.354,370.588l-1.471-0.016c-0.497-0.006-0.896-0.414-0.89-0.912
		l0.28-24.675c0.006-0.497,0.414-0.896,0.911-0.891l1.47,0.017c0.498,0.005,0.896,0.412,0.891,0.911l-0.28,24.676
		C80.26,370.197,79.853,370.595,79.354,370.588z"/>
	<path fill="none" stroke="#000000" stroke-miterlimit="10" d="M82.789,345.068l-1.471-0.016c-0.497-0.006-0.896-0.416-0.89-0.912
		l0.28-24.676c0.006-0.497,0.414-0.896,0.912-0.891l1.471,0.016c0.497,0.007,0.895,0.414,0.89,0.912l-0.281,24.677
		C83.694,344.676,83.286,345.075,82.789,345.068z"/>
	<path fill="none" stroke="#000000" stroke-miterlimit="10" d="M82.207,397.215l-1.47-0.017c-0.497-0.005-0.896-0.413-0.891-0.911
		l0.28-24.675c0.006-0.499,0.413-0.896,0.911-0.893l1.471,0.018c0.497,0.005,0.896,0.413,0.891,0.911l-0.28,24.676
		C83.113,396.822,82.705,397.22,82.207,397.215z"/>
</g>
<g>
	<g opacity="0.53">
		<g>
			<defs>
				<rect id="SVGID_17_" x="38.163" y="94.374" width="69.629" height="69.63"/>
			</defs>
			<clipPath id="SVGID_18_">
				<use xlink:href="#SVGID_17_"  overflow="visible"/>
			</clipPath>
			<path clip-path="url(#SVGID_18_)" fill="#EFF179" d="M107.792,129.189c0,19.227-15.588,34.815-34.814,34.815
				c-19.229,0-34.815-15.588-34.815-34.815c0-19.228,15.586-34.815,34.815-34.815C92.205,94.374,107.792,109.961,107.792,129.189"/>
		</g>
	</g>
	<g opacity="0.53">
		<g>
			<defs>
				<rect id="SVGID_19_" x="42.77" y="98.756" width="60.866" height="60.865"/>
			</defs>
			<clipPath id="SVGID_20_">
				<use xlink:href="#SVGID_19_"  overflow="visible"/>
			</clipPath>
			<path clip-path="url(#SVGID_20_)" fill="#F96D55" d="M103.635,129.189c0,16.807-13.625,30.432-30.433,30.432
				c-16.807,0-30.433-13.625-30.433-30.432c0-16.808,13.625-30.433,30.433-30.433C90.01,98.756,103.635,112.381,103.635,129.189"/>
		</g>
	</g>
	<g opacity="0.53">
		<g>
			<defs>
				<rect id="SVGID_21_" x="47.883" y="104.203" width="50.287" height="50.286"/>
			</defs>
			<clipPath id="SVGID_22_">
				<use xlink:href="#SVGID_21_"  overflow="visible"/>
			</clipPath>
			<path clip-path="url(#SVGID_22_)" fill="#7E0E37" d="M98.169,129.346c0,13.886-11.257,25.143-25.143,25.143
				c-13.886,0-25.144-11.257-25.144-25.143s11.258-25.143,25.144-25.143C86.913,104.203,98.169,115.46,98.169,129.346"/>
		</g>
	</g>
	<g opacity="0.79">
		<g>
			<defs>
				<rect id="SVGID_23_" x="53.056" y="109.578" width="39.629" height="39.628"/>
			</defs>
			<clipPath id="SVGID_24_">
				<use xlink:href="#SVGID_23_"  overflow="visible"/>
			</clipPath>
			<path clip-path="url(#SVGID_24_)" fill="#1C0B80" d="M92.685,129.393c0,10.943-8.871,19.813-19.814,19.813
				s-19.814-8.87-19.814-19.813s8.871-19.815,19.814-19.815S92.685,118.449,92.685,129.393"/>
		</g>
	</g>
	<g opacity="0.53">
		<g>
			<defs>
				<rect id="SVGID_25_" x="58.435" y="114.91" width="28.873" height="28.872"/>
			</defs>
			<clipPath id="SVGID_26_">
				<use xlink:href="#SVGID_25_"  overflow="visible"/>
			</clipPath>
			<path clip-path="url(#SVGID_26_)" fill="#DD91C6" d="M87.307,129.346c0,7.973-6.463,14.436-14.437,14.436
				s-14.436-6.463-14.436-14.436c0-7.973,6.463-14.436,14.436-14.436S87.307,121.373,87.307,129.346"/>
		</g>
	</g>
	<path fill="#3AB0A5" d="M81.766,129.346c0,4.913-3.982,8.895-8.896,8.895c-4.913,0-8.895-3.982-8.895-8.895
		s3.982-8.895,8.895-8.895C77.784,120.451,81.766,124.434,81.766,129.346"/>
</g>
<path fill="#565555" d="M84.426,441.934c-1.814-0.47-2.905-2.32-2.436-4.136c0.47-1.814,2.321-2.905,4.137-2.435
	c1.814,0.469,2.904,2.321,2.435,4.135C88.092,441.313,86.24,442.404,84.426,441.934"/>
<path d="M74.88,454.137c-1.845-0.333-3.071-2.098-2.739-3.942c0.333-1.845,2.098-3.071,3.942-2.737
	c1.846,0.331,3.071,2.097,2.738,3.94C78.489,453.243,76.724,454.469,74.88,454.137"/>
<circle fill="none" stroke="#000000" stroke-miterlimit="10" cx="80.031" cy="444.723" r="2.346"/>
<rect x="90.068" y="199.628" transform="matrix(0.8852 0.4651 -0.4651 0.8852 105.1462 -18.751)" fill="none" stroke="#000000" stroke-miterlimit="10" width="1.008" height="8.149"/>
<rect x="114.607" y="240.118" transform="matrix(0.0092 1 -1 0.0092 358.234 126.8384)" fill="none" stroke="#000000" stroke-miterlimit="10" width="1.008" height="8.149"/>
<rect x="93.132" y="278.984" transform="matrix(-0.8431 0.5377 -0.5377 -0.8431 324.7813 471.3693)" fill="none" stroke="#000000" stroke-miterlimit="10" width="1.007" height="8.149"/>
<rect x="45.732" y="279.718" transform="matrix(-0.8671 -0.4981 0.4981 -0.8671 -55.0209 552.9083)" fill="none" stroke="#000000" stroke-miterlimit="10" width="1.007" height="8.149"/>
<rect x="19.472" y="243.488" fill="none" stroke="#000000" stroke-miterlimit="10" width="8.148" height="1.007"/>
<rect x="45.077" y="201.043" transform="matrix(0.8508 -0.5255 0.5255 0.8508 -100.9892 54.5579)" fill="none" stroke="#000000" stroke-miterlimit="10" width="1.007" height="8.15"/>
<line fill="none" stroke="#000000" stroke-miterlimit="10" x1="69.21" y1="244.261" x2="48.329" y2="208.178"/>
<line fill="none" stroke="#000000" stroke-miterlimit="10" x1="69.329" y1="244.261" x2="88.705" y2="207.344"/>
<line fill="none" stroke="#000000" stroke-miterlimit="10" x1="69.269" y1="244.363" x2="48.313" y2="280.453"/>
<line fill="none" stroke="#000000" stroke-miterlimit="10" x1="27.506" y1="244.32" x2="111.033" y2="244.32"/>
<line fill="none" stroke="#000000" stroke-miterlimit="10" x1="69.269" y1="244.363" x2="91.536" y2="279.659"/>
<path d="M65.51,244.261c0-2.109,1.709-3.818,3.818-3.818c2.108,0,3.817,1.709,3.817,3.818c0,2.108-1.709,3.818-3.817,3.818
	C67.22,248.079,65.51,246.369,65.51,244.261"/>
<text transform="matrix(1 0 0 1 132.5938 240.4419)"><tspan x="0" y="0" font-family="'ArialMT'" font-size="15.5527">Marcação de </tspan><tspan x="0" y="18.663" font-family="'ArialMT'" font-size="15.5527">compasso = 1/16</tspan></text>
</svg>
